<?xml version="1.0" encoding="utf-8" ?>
<svg baseProfile="full" height="512" version="1.1" width="512" xmlns="http://www.w3.org/2000/svg" xmlns:ev="http://www.w3.org/2001/xml-events" xmlns:xlink="http://www.w3.org/1999/xlink"><defs /><polygon fill="#e8d8c8" points="209,109 256,76 303,109" stroke="#111" stroke-width="1" /><polygon fill="#000" points="209,109 256,98 303,109" stroke="none" /><polygon fill="#e8d8c8" points="223,116 256,90 289,116" stroke="#111" stroke-width="1" /><polygon fill="#000" points="223,116 256,107 289,116" stroke="none" /><polygon fill="#e8d8c8" points="206,127 216,145 226,163" stroke="#111" stroke-width="1" /><polygon fill="#000" points="206,127 216,145 226,163" stroke="none" /><polygon fill="#e8d8c8" points="202,161 211,179 220,197" stroke="#111" stroke-width="1" /><polygon fill="#e8d8c8" points="197,194 205,212 213,231" stroke="#111" stroke-width="1" /><polygon fill="#000" points="197,194 205,212 213,231" stroke="none" /><polygon fill="#e8d8c8" points="194,228 200,246 206,265" stroke="#111" stroke-width="1" /><polygon fill="#e8d8c8" points="189,262 194,280 199,299" stroke="#111" stroke-width="1" /><polygon fill="#000" points="189,262 194,280 199,299" stroke="none" /><polygon fill="#e8d8c8" points="286,127 296,145 306,163" stroke="#111" stroke-width="1" /><polygon fill="#000" points="286,127 296,145 306,163" stroke="none" /><polygon fill="#e8d8c8" points="292,161 301,179 310,197" stroke="#111" stroke-width="1" /><polygon fill="#e8d8c8" points="299,194 307,212 315,231" stroke="#111" stroke-width="1" /><polygon fill="#000" points="299,194 307,212 315,231" stroke="none" /><polygon fill="#e8d8c8" points="306,228 312,246 318,265" stroke="#111" stroke-width="1" /><polygon fill="#e8d8c8" points="313,262 318,280 323,299" stroke="#111" stroke-width="1" /><polygon fill="#000" points="313,262 318,280 323,299" stroke="none" /><polygon fill="#e8d8c8" points="209,143 256,116 303,143" stroke="#111" stroke-width="1" /><polygon fill="#000" points="209,143 256,134 303,143" stroke="none" /><polygon fill="#e8d8c8" points="229,150 250,130 269,150" stroke="#111" stroke-width="1" /><polygon fill="#e8d8c8" points="243,150 262,130 283,150" stroke="#111" stroke-width="1" /></svg>