<?xml version="1.0" encoding="utf-8" ?>
<svg baseProfile="full" height="512" version="1.1" width="512" xmlns="http://www.w3.org/2000/svg" xmlns:ev="http://www.w3.org/2001/xml-events" xmlns:xlink="http://www.w3.org/1999/xlink"><defs /><polygon fill="#3a2a1a" points="212,130 256,109 300,130" stroke="#111" stroke-width="1" /><polygon fill="#000" points="212,130 256,123 300,130" stroke="none" /><polygon fill="#3a2a1a" points="223,136 256,117 289,136" stroke="#111" stroke-width="1" /><polygon fill="#000" points="223,136 256,129 289,136" stroke="none" /><polygon fill="#3a2a1a" points="199,136 207,158 215,180" stroke="#111" stroke-width="1" /><polygon fill="#000" points="199,136 207,158 215,180" stroke="none" /><polygon fill="#3a2a1a" points="201,152 203,169 213,180" stroke="#111" stroke-width="1" /><polygon fill="#3a2a1a" points="297,136 305,158 313,180" stroke="#111" stroke-width="1" /><polygon fill="#000" points="297,136 305,158 313,180" stroke="none" /><polygon fill="#3a2a1a" points="299,152 309,169 311,180" stroke="#111" stroke-width="1" /><polygon fill="#3a2a1a" points="212,155 256,133 300,155" stroke="#111" stroke-width="1" /><polygon fill="#000" points="212,155 256,147 300,155" stroke="none" /><polygon fill="#3a2a1a" points="229,161 256,144 283,161" stroke="#111" stroke-width="1" /></svg>