<?xml version="1.0" encoding="utf-8" ?>
<svg baseProfile="full" height="512" version="1.1" width="512" xmlns="http://www.w3.org/2000/svg" xmlns:ev="http://www.w3.org/2001/xml-events" xmlns:xlink="http://www.w3.org/1999/xlink"><defs /><polygon fill="#d4a030" points="207,106 256,71 305,106" stroke="#111" stroke-width="1" /><polygon fill="#000" points="207,106 256,94 305,106" stroke="none" /><polygon fill="#d4a030" points="221,113 256,85 291,113" stroke="#111" stroke-width="1" /><polygon fill="#000" points="221,113 256,103 291,113" stroke="none" /><polygon fill="#d4a030" points="203,124 214,143 225,162" stroke="#111" stroke-width="1" /><polygon fill="#000" points="203,124 214,143 225,162" stroke="none" /><polygon fill="#d4a030" points="200,159 209,178 218,197" stroke="#111" stroke-width="1" /><polygon fill="#d4a030" points="195,194 203,213 211,232" stroke="#111" stroke-width="1" /><polygon fill="#000" points="195,194 203,213 211,232" stroke="none" /><polygon fill="#d4a030" points="190,229 197,248 204,267" stroke="#111" stroke-width="1" /><polygon fill="#d4a030" points="187,265 192,284 197,303" stroke="#111" stroke-width="1" /><polygon fill="#000" points="187,265 192,284 197,303" stroke="none" /><polygon fill="#d4a030" points="287,124 298,143 309,162" stroke="#111" stroke-width="1" /><polygon fill="#000" points="287,124 298,143 309,162" stroke="none" /><polygon fill="#d4a030" points="294,159 303,178 312,197" stroke="#111" stroke-width="1" /><polygon fill="#d4a030" points="301,194 309,213 317,232" stroke="#111" stroke-width="1" /><polygon fill="#000" points="301,194 309,213 317,232" stroke="none" /><polygon fill="#d4a030" points="308,229 315,248 322,267" stroke="#111" stroke-width="1" /><polygon fill="#d4a030" points="315,265 320,284 325,303" stroke="#111" stroke-width="1" /><polygon fill="#000" points="315,265 320,284 325,303" stroke="none" /><polygon fill="#d4a030" points="207,141 256,113 305,141" stroke="#111" stroke-width="1" /><polygon fill="#000" points="207,141 256,131 305,141" stroke="none" /><polygon fill="#d4a030" points="228,148 249,127 270,148" stroke="#111" stroke-width="1" /><polygon fill="#d4a030" points="242,148 263,127 284,148" stroke="#111" stroke-width="1" /></svg>