<?xml version="1.0" encoding="utf-8" ?>
<svg baseProfile="full" height="512" version="1.1" width="512" xmlns="http://www.w3.org/2000/svg" xmlns:ev="http://www.w3.org/2001/xml-events" xmlns:xlink="http://www.w3.org/1999/xlink"><defs /><circle cx="194" cy="155" fill="#e8d8c8" r="20" stroke="#111" stroke-width="1" /><circle cx="243" cy="159" fill="#e8d8c8" r="26" stroke="#111" stroke-width="1" /><circle cx="320" cy="169" fill="#e8d8c8" r="23" stroke="#111" stroke-width="1" /><circle cx="333" cy="202" fill="#e8d8c8" r="16" stroke="#111" stroke-width="1" /><circle cx="223" cy="204" fill="#e8d8c8" r="27" stroke="#111" stroke-width="1" /><circle cx="313" cy="135" fill="#e8d8c8" r="26" stroke="#111" stroke-width="1" /><circle cx="270" cy="144" fill="#e8d8c8" r="27" stroke="#111" stroke-width="1" /><circle cx="196" cy="113" fill="#e8d8c8" r="30" stroke="#111" stroke-width="1" /><circle cx="186" cy="148" fill="#e8d8c8" r="26" stroke="#111" stroke-width="1" /><circle cx="330" cy="205" fill="#e8d8c8" r="20" stroke="#111" stroke-width="1" /><circle cx="242" cy="149" fill="#e8d8c8" r="28" stroke="#111" stroke-width="1" /><circle cx="320" cy="152" fill="#e8d8c8" r="22" stroke="#111" stroke-width="1" /><circle cx="247" cy="201" fill="#e8d8c8" r="17" stroke="#111" stroke-width="1" /><circle cx="242" cy="201" fill="#e8d8c8" r="15" stroke="#111" stroke-width="1" /><circle cx="226" cy="156" fill="#e8d8c8" r="30" stroke="#111" stroke-width="1" /><circle cx="238" cy="133" fill="#e8d8c8" r="32" stroke="#111" stroke-width="1" /><circle cx="291" cy="193" fill="#e8d8c8" r="30" stroke="#111" stroke-width="1" /><circle cx="296" cy="173" fill="#e8d8c8" r="15" stroke="#111" stroke-width="1" /><circle cx="258" cy="141" fill="#e8d8c8" r="15" stroke="#111" stroke-width="1" /><circle cx="327" cy="108" fill="#e8d8c8" r="15" stroke="#111" stroke-width="1" /></svg>