<?xml version="1.0" encoding="utf-8" ?>
<svg baseProfile="full" height="512" version="1.1" width="512" xmlns="http://www.w3.org/2000/svg" xmlns:ev="http://www.w3.org/2001/xml-events" xmlns:xlink="http://www.w3.org/1999/xlink"><defs /><circle cx="309" cy="143" fill="#3a2a1a" r="3" stroke="#111" stroke-width="0.5" /><circle cx="236" cy="141" fill="#3a2a1a" r="5" stroke="#111" stroke-width="0.5" /><circle cx="287" cy="132" fill="#3a2a1a" r="3" stroke="#111" stroke-width="0.5" /><circle cx="297" cy="137" fill="#3a2a1a" r="6" stroke="#111" stroke-width="0.5" /><circle cx="249" cy="140" fill="#3a2a1a" r="4" stroke="#111" stroke-width="0.5" /><circle cx="301" cy="146" fill="#3a2a1a" r="6" stroke="#111" stroke-width="0.5" /><circle cx="242" cy="145" fill="#3a2a1a" r="3" stroke="#111" stroke-width="0.5" /><circle cx="304" cy="138" fill="#3a2a1a" r="3" stroke="#111" stroke-width="0.5" /><circle cx="290" cy="131" fill="#3a2a1a" r="3" stroke="#111" stroke-width="0.5" /><circle cx="252" cy="137" fill="#3a2a1a" r="3" stroke="#111" stroke-width="0.5" /><circle cx="212" cy="129" fill="#3a2a1a" r="3" stroke="#111" stroke-width="0.5" /><circle cx="295" cy="147" fill="#3a2a1a" r="5" stroke="#111" stroke-width="0.5" /><circle cx="308" cy="134" fill="#3a2a1a" r="5" stroke="#111" stroke-width="0.5" /><circle cx="257" cy="136" fill="#3a2a1a" r="3" stroke="#111" stroke-width="0.5" /><circle cx="243" cy="130" fill="#3a2a1a" r="5" stroke="#111" stroke-width="0.5" /><circle cx="244" cy="149" fill="#3a2a1a" r="3" stroke="#111" stroke-width="0.5" /><circle cx="238" cy="141" fill="#3a2a1a" r="4" stroke="#111" stroke-width="0.5" /><circle cx="201" cy="130" fill="#3a2a1a" r="4" stroke="#111" stroke-width="0.5" /><circle cx="247" cy="129" fill="#3a2a1a" r="4" stroke="#111" stroke-width="0.5" /><circle cx="259" cy="136" fill="#3a2a1a" r="3" stroke="#111" stroke-width="0.5" /><circle cx="203" cy="141" fill="#3a2a1a" r="3" stroke="#111" stroke-width="0.5" /><circle cx="206" cy="130" fill="#3a2a1a" r="3" stroke="#111" stroke-width="0.5" /><circle cx="228" cy="129" fill="#3a2a1a" r="4" stroke="#111" stroke-width="0.5" /><circle cx="284" cy="148" fill="#3a2a1a" r="6" stroke="#111" stroke-width="0.5" /><circle cx="269" cy="131" fill="#3a2a1a" r="3" stroke="#111" stroke-width="0.5" /><circle cx="208" cy="145" fill="#3a2a1a" r="5" stroke="#111" stroke-width="0.5" /><circle cx="305" cy="144" fill="#3a2a1a" r="4" stroke="#111" stroke-width="0.5" /><circle cx="269" cy="134" fill="#3a2a1a" r="4" stroke="#111" stroke-width="0.5" /><circle cx="210" cy="129" fill="#3a2a1a" r="6" stroke="#111" stroke-width="0.5" /><circle cx="229" cy="139" fill="#3a2a1a" r="4" stroke="#111" stroke-width="0.5" /><circle cx="268" cy="150" fill="#3a2a1a" r="3" stroke="#111" stroke-width="0.5" /><circle cx="250" cy="135" fill="#3a2a1a" r="5" stroke="#111" stroke-width="0.5" /><circle cx="238" cy="132" fill="#3a2a1a" r="4" stroke="#111" stroke-width="0.5" /><circle cx="301" cy="148" fill="#3a2a1a" r="6" stroke="#111" stroke-width="0.5" /><circle cx="249" cy="150" fill="#3a2a1a" r="6" stroke="#111" stroke-width="0.5" /><circle cx="288" cy="141" fill="#3a2a1a" r="3" stroke="#111" stroke-width="0.5" /><circle cx="286" cy="129" fill="#3a2a1a" r="3" stroke="#111" stroke-width="0.5" /><circle cx="277" cy="148" fill="#3a2a1a" r="5" stroke="#111" stroke-width="0.5" /><circle cx="208" cy="146" fill="#3a2a1a" r="4" stroke="#111" stroke-width="0.5" /><circle cx="229" cy="135" fill="#3a2a1a" r="5" stroke="#111" stroke-width="0.5" /><circle cx="215" cy="146" fill="#3a2a1a" r="4" stroke="#111" stroke-width="0.5" /><circle cx="266" cy="132" fill="#3a2a1a" r="5" stroke="#111" stroke-width="0.5" /><circle cx="232" cy="142" fill="#3a2a1a" r="3" stroke="#111" stroke-width="0.5" /><circle cx="208" cy="144" fill="#3a2a1a" r="5" stroke="#111" stroke-width="0.5" /><circle cx="310" cy="138" fill="#3a2a1a" r="3" stroke="#111" stroke-width="0.5" /><circle cx="286" cy="140" fill="#3a2a1a" r="3" stroke="#111" stroke-width="0.5" /><circle cx="271" cy="138" fill="#3a2a1a" r="5" stroke="#111" stroke-width="0.5" /><circle cx="264" cy="150" fill="#3a2a1a" r="6" stroke="#111" stroke-width="0.5" /><circle cx="261" cy="135" fill="#3a2a1a" r="6" stroke="#111" stroke-width="0.5" /><circle cx="261" cy="144" fill="#3a2a1a" r="5" stroke="#111" stroke-width="0.5" /><circle cx="215" cy="149" fill="#3a2a1a" r="6" stroke="#111" stroke-width="0.5" /><circle cx="239" cy="149" fill="#3a2a1a" r="4" stroke="#111" stroke-width="0.5" /><circle cx="264" cy="139" fill="#3a2a1a" r="6" stroke="#111" stroke-width="0.5" /><circle cx="291" cy="132" fill="#3a2a1a" r="6" stroke="#111" stroke-width="0.5" /><circle cx="272" cy="133" fill="#3a2a1a" r="4" stroke="#111" stroke-width="0.5" /><circle cx="209" cy="131" fill="#3a2a1a" r="4" stroke="#111" stroke-width="0.5" /><circle cx="201" cy="149" fill="#3a2a1a" r="6" stroke="#111" stroke-width="0.5" /><circle cx="237" cy="145" fill="#3a2a1a" r="3" stroke="#111" stroke-width="0.5" /><circle cx="272" cy="139" fill="#3a2a1a" r="6" stroke="#111" stroke-width="0.5" /><circle cx="300" cy="145" fill="#3a2a1a" r="5" stroke="#111" stroke-width="0.5" /><circle cx="230" cy="147" fill="#3a2a1a" r="6" stroke="#111" stroke-width="0.5" /><circle cx="231" cy="136" fill="#3a2a1a" r="6" stroke="#111" stroke-width="0.5" /><circle cx="228" cy="131" fill="#3a2a1a" r="4" stroke="#111" stroke-width="0.5" /><circle cx="225" cy="147" fill="#3a2a1a" r="4" stroke="#111" stroke-width="0.5" /><circle cx="237" cy="148" fill="#3a2a1a" r="5" stroke="#111" stroke-width="0.5" /><circle cx="226" cy="129" fill="#3a2a1a" r="4" stroke="#111" stroke-width="0.5" /><circle cx="239" cy="135" fill="#3a2a1a" r="6" stroke="#111" stroke-width="0.5" /><circle cx="289" cy="151" fill="#3a2a1a" r="5" stroke="#111" stroke-width="0.5" /><circle cx="230" cy="141" fill="#3a2a1a" r="6" stroke="#111" stroke-width="0.5" /><circle cx="257" cy="146" fill="#3a2a1a" r="6" stroke="#111" stroke-width="0.5" /><circle cx="288" cy="135" fill="#3a2a1a" r="4" stroke="#111" stroke-width="0.5" /><circle cx="293" cy="142" fill="#3a2a1a" r="4" stroke="#111" stroke-width="0.5" /><circle cx="307" cy="147" fill="#3a2a1a" r="5" stroke="#111" stroke-width="0.5" /><circle cx="299" cy="148" fill="#3a2a1a" r="3" stroke="#111" stroke-width="0.5" /><circle cx="223" cy="140" fill="#3a2a1a" r="4" stroke="#111" stroke-width="0.5" /><circle cx="238" cy="139" fill="#3a2a1a" r="3" stroke="#111" stroke-width="0.5" /><circle cx="272" cy="141" fill="#3a2a1a" r="6" stroke="#111" stroke-width="0.5" /><circle cx="250" cy="145" fill="#3a2a1a" r="4" stroke="#111" stroke-width="0.5" /><circle cx="205" cy="141" fill="#3a2a1a" r="4" stroke="#111" stroke-width="0.5" /><circle cx="213" cy="129" fill="#3a2a1a" r="3" stroke="#111" stroke-width="0.5" /><circle cx="240" cy="131" fill="#3a2a1a" r="6" stroke="#111" stroke-width="0.5" /><circle cx="236" cy="136" fill="#3a2a1a" r="5" stroke="#111" stroke-width="0.5" /><circle cx="304" cy="132" fill="#3a2a1a" r="6" stroke="#111" stroke-width="0.5" /><circle cx="220" cy="139" fill="#3a2a1a" r="4" stroke="#111" stroke-width="0.5" /><circle cx="219" cy="149" fill="#3a2a1a" r="4" stroke="#111" stroke-width="0.5" /><circle cx="232" cy="137" fill="#3a2a1a" r="6" stroke="#111" stroke-width="0.5" /><circle cx="294" cy="132" fill="#3a2a1a" r="6" stroke="#111" stroke-width="0.5" /><circle cx="258" cy="135" fill="#3a2a1a" r="5" stroke="#111" stroke-width="0.5" /><circle cx="237" cy="134" fill="#3a2a1a" r="4" stroke="#111" stroke-width="0.5" /><circle cx="284" cy="144" fill="#3a2a1a" r="4" stroke="#111" stroke-width="0.5" /><circle cx="295" cy="142" fill="#3a2a1a" r="5" stroke="#111" stroke-width="0.5" /><circle cx="271" cy="129" fill="#3a2a1a" r="5" stroke="#111" stroke-width="0.5" /><circle cx="252" cy="137" fill="#3a2a1a" r="3" stroke="#111" stroke-width="0.5" /><circle cx="226" cy="133" fill="#3a2a1a" r="3" stroke="#111" stroke-width="0.5" /><circle cx="289" cy="150" fill="#3a2a1a" r="3" stroke="#111" stroke-width="0.5" /><circle cx="290" cy="147" fill="#3a2a1a" r="3" stroke="#111" stroke-width="0.5" /><circle cx="216" cy="134" fill="#3a2a1a" r="4" stroke="#111" stroke-width="0.5" /><circle cx="290" cy="145" fill="#3a2a1a" r="4" stroke="#111" stroke-width="0.5" /><circle cx="308" cy="146" fill="#3a2a1a" r="4" stroke="#111" stroke-width="0.5" /><circle cx="310" cy="130" fill="#3a2a1a" r="4" stroke="#111" stroke-width="0.5" /><circle cx="271" cy="135" fill="#3a2a1a" r="4" stroke="#111" stroke-width="0.5" /><circle cx="293" cy="142" fill="#3a2a1a" r="3" stroke="#111" stroke-width="0.5" /><circle cx="220" cy="133" fill="#3a2a1a" r="5" stroke="#111" stroke-width="0.5" /><circle cx="215" cy="131" fill="#3a2a1a" r="6" stroke="#111" stroke-width="0.5" /><circle cx="255" cy="130" fill="#3a2a1a" r="4" stroke="#111" stroke-width="0.5" /><circle cx="237" cy="133" fill="#3a2a1a" r="4" stroke="#111" stroke-width="0.5" /><circle cx="221" cy="142" fill="#3a2a1a" r="4" stroke="#111" stroke-width="0.5" /><circle cx="247" cy="137" fill="#3a2a1a" r="6" stroke="#111" stroke-width="0.5" /><circle cx="234" cy="147" fill="#3a2a1a" r="3" stroke="#111" stroke-width="0.5" /><circle cx="218" cy="134" fill="#3a2a1a" r="3" stroke="#111" stroke-width="0.5" /><circle cx="255" cy="140" fill="#3a2a1a" r="6" stroke="#111" stroke-width="0.5" /><circle cx="221" cy="150" fill="#3a2a1a" r="6" stroke="#111" stroke-width="0.5" /><circle cx="245" cy="137" fill="#3a2a1a" r="5" stroke="#111" stroke-width="0.5" /><circle cx="297" cy="135" fill="#3a2a1a" r="6" stroke="#111" stroke-width="0.5" /><circle cx="220" cy="146" fill="#3a2a1a" r="6" stroke="#111" stroke-width="0.5" /><circle cx="239" cy="135" fill="#3a2a1a" r="3" stroke="#111" stroke-width="0.5" /><circle cx="203" cy="142" fill="#3a2a1a" r="3" stroke="#111" stroke-width="0.5" /><circle cx="229" cy="131" fill="#3a2a1a" r="3" stroke="#111" stroke-width="0.5" /><circle cx="244" cy="139" fill="#3a2a1a" r="3" stroke="#111" stroke-width="0.5" /><circle cx="273" cy="142" fill="#3a2a1a" r="5" stroke="#111" stroke-width="0.5" /><circle cx="260" cy="132" fill="#3a2a1a" r="5" stroke="#111" stroke-width="0.5" /><circle cx="272" cy="137" fill="#3a2a1a" r="6" stroke="#111" stroke-width="0.5" /><circle cx="283" cy="135" fill="#3a2a1a" r="5" stroke="#111" stroke-width="0.5" /><circle cx="295" cy="149" fill="#3a2a1a" r="5" stroke="#111" stroke-width="0.5" /><circle cx="284" cy="132" fill="#3a2a1a" r="5" stroke="#111" stroke-width="0.5" /><circle cx="210" cy="148" fill="#3a2a1a" r="4" stroke="#111" stroke-width="0.5" /><circle cx="247" cy="143" fill="#3a2a1a" r="5" stroke="#111" stroke-width="0.5" /><circle cx="235" cy="148" fill="#3a2a1a" r="6" stroke="#111" stroke-width="0.5" /><circle cx="227" cy="129" fill="#3a2a1a" r="3" stroke="#111" stroke-width="0.5" /><circle cx="287" cy="135" fill="#3a2a1a" r="4" stroke="#111" stroke-width="0.5" /><circle cx="224" cy="135" fill="#3a2a1a" r="4" stroke="#111" stroke-width="0.5" /><circle cx="202" cy="146" fill="#3a2a1a" r="4" stroke="#111" stroke-width="0.5" /><circle cx="288" cy="151" fill="#3a2a1a" r="6" stroke="#111" stroke-width="0.5" /><circle cx="273" cy="130" fill="#3a2a1a" r="3" stroke="#111" stroke-width="0.5" /><circle cx="279" cy="139" fill="#3a2a1a" r="4" stroke="#111" stroke-width="0.5" /><circle cx="252" cy="150" fill="#3a2a1a" r="4" stroke="#111" stroke-width="0.5" /><circle cx="298" cy="134" fill="#3a2a1a" r="6" stroke="#111" stroke-width="0.5" /><circle cx="268" cy="148" fill="#3a2a1a" r="3" stroke="#111" stroke-width="0.5" /></svg>