<?xml version="1.0" encoding="utf-8" ?>
<svg baseProfile="full" height="512" version="1.1" width="512" xmlns="http://www.w3.org/2000/svg" xmlns:ev="http://www.w3.org/2001/xml-events" xmlns:xlink="http://www.w3.org/1999/xlink"><defs /><circle cx="221" cy="160" fill="#e8d8c8" r="5" stroke="#111" stroke-width="0.5" /><circle cx="235" cy="145" fill="#e8d8c8" r="4" stroke="#111" stroke-width="0.5" /><circle cx="292" cy="150" fill="#e8d8c8" r="5" stroke="#111" stroke-width="0.5" /><circle cx="242" cy="156" fill="#e8d8c8" r="4" stroke="#111" stroke-width="0.5" /><circle cx="286" cy="154" fill="#e8d8c8" r="6" stroke="#111" stroke-width="0.5" /><circle cx="278" cy="144" fill="#e8d8c8" r="6" stroke="#111" stroke-width="0.5" /><circle cx="273" cy="153" fill="#e8d8c8" r="5" stroke="#111" stroke-width="0.5" /><circle cx="227" cy="157" fill="#e8d8c8" r="5" stroke="#111" stroke-width="0.5" /><circle cx="211" cy="144" fill="#e8d8c8" r="4" stroke="#111" stroke-width="0.5" /><circle cx="233" cy="160" fill="#e8d8c8" r="3" stroke="#111" stroke-width="0.5" /><circle cx="266" cy="149" fill="#e8d8c8" r="4" stroke="#111" stroke-width="0.5" /><circle cx="288" cy="154" fill="#e8d8c8" r="4" stroke="#111" stroke-width="0.5" /><circle cx="266" cy="154" fill="#e8d8c8" r="5" stroke="#111" stroke-width="0.5" /><circle cx="223" cy="155" fill="#e8d8c8" r="4" stroke="#111" stroke-width="0.5" /><circle cx="252" cy="144" fill="#e8d8c8" r="5" stroke="#111" stroke-width="0.5" /><circle cx="273" cy="156" fill="#e8d8c8" r="5" stroke="#111" stroke-width="0.5" /><circle cx="224" cy="139" fill="#e8d8c8" r="6" stroke="#111" stroke-width="0.5" /><circle cx="277" cy="150" fill="#e8d8c8" r="6" stroke="#111" stroke-width="0.5" /><circle cx="284" cy="153" fill="#e8d8c8" r="6" stroke="#111" stroke-width="0.5" /><circle cx="208" cy="146" fill="#e8d8c8" r="4" stroke="#111" stroke-width="0.5" /><circle cx="282" cy="154" fill="#e8d8c8" r="5" stroke="#111" stroke-width="0.5" /><circle cx="283" cy="156" fill="#e8d8c8" r="5" stroke="#111" stroke-width="0.5" /><circle cx="224" cy="144" fill="#e8d8c8" r="3" stroke="#111" stroke-width="0.5" /><circle cx="239" cy="145" fill="#e8d8c8" r="3" stroke="#111" stroke-width="0.5" /><circle cx="213" cy="145" fill="#e8d8c8" r="4" stroke="#111" stroke-width="0.5" /><circle cx="297" cy="141" fill="#e8d8c8" r="4" stroke="#111" stroke-width="0.5" /><circle cx="242" cy="141" fill="#e8d8c8" r="5" stroke="#111" stroke-width="0.5" /><circle cx="294" cy="141" fill="#e8d8c8" r="4" stroke="#111" stroke-width="0.5" /><circle cx="230" cy="149" fill="#e8d8c8" r="5" stroke="#111" stroke-width="0.5" /><circle cx="237" cy="148" fill="#e8d8c8" r="3" stroke="#111" stroke-width="0.5" /><circle cx="246" cy="142" fill="#e8d8c8" r="6" stroke="#111" stroke-width="0.5" /><circle cx="280" cy="157" fill="#e8d8c8" r="5" stroke="#111" stroke-width="0.5" /><circle cx="259" cy="159" fill="#e8d8c8" r="4" stroke="#111" stroke-width="0.5" /><circle cx="301" cy="157" fill="#e8d8c8" r="5" stroke="#111" stroke-width="0.5" /><circle cx="216" cy="147" fill="#e8d8c8" r="3" stroke="#111" stroke-width="0.5" /><circle cx="292" cy="143" fill="#e8d8c8" r="4" stroke="#111" stroke-width="0.5" /><circle cx="249" cy="153" fill="#e8d8c8" r="4" stroke="#111" stroke-width="0.5" /><circle cx="275" cy="140" fill="#e8d8c8" r="4" stroke="#111" stroke-width="0.5" /><circle cx="220" cy="151" fill="#e8d8c8" r="6" stroke="#111" stroke-width="0.5" /><circle cx="245" cy="149" fill="#e8d8c8" r="3" stroke="#111" stroke-width="0.5" /><circle cx="231" cy="155" fill="#e8d8c8" r="5" stroke="#111" stroke-width="0.5" /><circle cx="221" cy="157" fill="#e8d8c8" r="6" stroke="#111" stroke-width="0.5" /><circle cx="264" cy="144" fill="#e8d8c8" r="3" stroke="#111" stroke-width="0.5" /><circle cx="298" cy="143" fill="#e8d8c8" r="6" stroke="#111" stroke-width="0.5" /><circle cx="235" cy="153" fill="#e8d8c8" r="5" stroke="#111" stroke-width="0.5" /><circle cx="291" cy="146" fill="#e8d8c8" r="3" stroke="#111" stroke-width="0.5" /><circle cx="211" cy="153" fill="#e8d8c8" r="5" stroke="#111" stroke-width="0.5" /><circle cx="277" cy="152" fill="#e8d8c8" r="4" stroke="#111" stroke-width="0.5" /><circle cx="279" cy="158" fill="#e8d8c8" r="5" stroke="#111" stroke-width="0.5" /><circle cx="226" cy="153" fill="#e8d8c8" r="6" stroke="#111" stroke-width="0.5" /><circle cx="261" cy="145" fill="#e8d8c8" r="4" stroke="#111" stroke-width="0.5" /><circle cx="287" cy="160" fill="#e8d8c8" r="4" stroke="#111" stroke-width="0.5" /><circle cx="279" cy="154" fill="#e8d8c8" r="5" stroke="#111" stroke-width="0.5" /><circle cx="208" cy="151" fill="#e8d8c8" r="4" stroke="#111" stroke-width="0.5" /><circle cx="209" cy="151" fill="#e8d8c8" r="5" stroke="#111" stroke-width="0.5" /><circle cx="250" cy="160" fill="#e8d8c8" r="3" stroke="#111" stroke-width="0.5" /><circle cx="285" cy="150" fill="#e8d8c8" r="4" stroke="#111" stroke-width="0.5" /><circle cx="300" cy="156" fill="#e8d8c8" r="4" stroke="#111" stroke-width="0.5" /><circle cx="233" cy="142" fill="#e8d8c8" r="6" stroke="#111" stroke-width="0.5" /><circle cx="304" cy="152" fill="#e8d8c8" r="3" stroke="#111" stroke-width="0.5" /><circle cx="301" cy="141" fill="#e8d8c8" r="5" stroke="#111" stroke-width="0.5" /><circle cx="244" cy="157" fill="#e8d8c8" r="6" stroke="#111" stroke-width="0.5" /><circle cx="241" cy="154" fill="#e8d8c8" r="6" stroke="#111" stroke-width="0.5" /><circle cx="272" cy="158" fill="#e8d8c8" r="6" stroke="#111" stroke-width="0.5" /><circle cx="263" cy="139" fill="#e8d8c8" r="5" stroke="#111" stroke-width="0.5" /><circle cx="302" cy="156" fill="#e8d8c8" r="4" stroke="#111" stroke-width="0.5" /><circle cx="235" cy="150" fill="#e8d8c8" r="4" stroke="#111" stroke-width="0.5" /><circle cx="263" cy="142" fill="#e8d8c8" r="6" stroke="#111" stroke-width="0.5" /><circle cx="282" cy="152" fill="#e8d8c8" r="5" stroke="#111" stroke-width="0.5" /><circle cx="254" cy="156" fill="#e8d8c8" r="5" stroke="#111" stroke-width="0.5" /><circle cx="288" cy="141" fill="#e8d8c8" r="3" stroke="#111" stroke-width="0.5" /><circle cx="239" cy="151" fill="#e8d8c8" r="5" stroke="#111" stroke-width="0.5" /><circle cx="272" cy="158" fill="#e8d8c8" r="6" stroke="#111" stroke-width="0.5" /><circle cx="275" cy="143" fill="#e8d8c8" r="6" stroke="#111" stroke-width="0.5" /><circle cx="299" cy="152" fill="#e8d8c8" r="6" stroke="#111" stroke-width="0.5" /><circle cx="262" cy="140" fill="#e8d8c8" r="6" stroke="#111" stroke-width="0.5" /><circle cx="246" cy="145" fill="#e8d8c8" r="4" stroke="#111" stroke-width="0.5" /><circle cx="222" cy="144" fill="#e8d8c8" r="3" stroke="#111" stroke-width="0.5" /><circle cx="221" cy="147" fill="#e8d8c8" r="4" stroke="#111" stroke-width="0.5" /><circle cx="260" cy="154" fill="#e8d8c8" r="4" stroke="#111" stroke-width="0.5" /><circle cx="218" cy="154" fill="#e8d8c8" r="4" stroke="#111" stroke-width="0.5" /><circle cx="263" cy="139" fill="#e8d8c8" r="5" stroke="#111" stroke-width="0.5" /><circle cx="273" cy="142" fill="#e8d8c8" r="3" stroke="#111" stroke-width="0.5" /><circle cx="281" cy="142" fill="#e8d8c8" r="5" stroke="#111" stroke-width="0.5" /><circle cx="258" cy="139" fill="#e8d8c8" r="6" stroke="#111" stroke-width="0.5" /><circle cx="281" cy="143" fill="#e8d8c8" r="5" stroke="#111" stroke-width="0.5" /><circle cx="243" cy="142" fill="#e8d8c8" r="6" stroke="#111" stroke-width="0.5" /><circle cx="302" cy="158" fill="#e8d8c8" r="3" stroke="#111" stroke-width="0.5" /><circle cx="301" cy="160" fill="#e8d8c8" r="3" stroke="#111" stroke-width="0.5" /><circle cx="229" cy="151" fill="#e8d8c8" r="3" stroke="#111" stroke-width="0.5" /><circle cx="285" cy="141" fill="#e8d8c8" r="4" stroke="#111" stroke-width="0.5" /><circle cx="246" cy="141" fill="#e8d8c8" r="4" stroke="#111" stroke-width="0.5" /><circle cx="242" cy="150" fill="#e8d8c8" r="6" stroke="#111" stroke-width="0.5" /><circle cx="281" cy="142" fill="#e8d8c8" r="4" stroke="#111" stroke-width="0.5" /><circle cx="295" cy="140" fill="#e8d8c8" r="5" stroke="#111" stroke-width="0.5" /><circle cx="282" cy="157" fill="#e8d8c8" r="5" stroke="#111" stroke-width="0.5" /><circle cx="304" cy="145" fill="#e8d8c8" r="4" stroke="#111" stroke-width="0.5" /><circle cx="287" cy="139" fill="#e8d8c8" r="5" stroke="#111" stroke-width="0.5" /><circle cx="211" cy="160" fill="#e8d8c8" r="3" stroke="#111" stroke-width="0.5" /><circle cx="253" cy="140" fill="#e8d8c8" r="4" stroke="#111" stroke-width="0.5" /><circle cx="267" cy="145" fill="#e8d8c8" r="3" stroke="#111" stroke-width="0.5" /><circle cx="276" cy="139" fill="#e8d8c8" r="3" stroke="#111" stroke-width="0.5" /><circle cx="248" cy="153" fill="#e8d8c8" r="3" stroke="#111" stroke-width="0.5" /><circle cx="239" cy="149" fill="#e8d8c8" r="5" stroke="#111" stroke-width="0.5" /><circle cx="218" cy="144" fill="#e8d8c8" r="5" stroke="#111" stroke-width="0.5" /><circle cx="285" cy="146" fill="#e8d8c8" r="3" stroke="#111" stroke-width="0.5" /><circle cx="292" cy="156" fill="#e8d8c8" r="3" stroke="#111" stroke-width="0.5" /><circle cx="211" cy="145" fill="#e8d8c8" r="5" stroke="#111" stroke-width="0.5" /><circle cx="250" cy="147" fill="#e8d8c8" r="4" stroke="#111" stroke-width="0.5" /><circle cx="275" cy="152" fill="#e8d8c8" r="6" stroke="#111" stroke-width="0.5" /><circle cx="281" cy="156" fill="#e8d8c8" r="4" stroke="#111" stroke-width="0.5" /><circle cx="229" cy="146" fill="#e8d8c8" r="4" stroke="#111" stroke-width="0.5" /><circle cx="276" cy="153" fill="#e8d8c8" r="3" stroke="#111" stroke-width="0.5" /><circle cx="218" cy="145" fill="#e8d8c8" r="4" stroke="#111" stroke-width="0.5" /><circle cx="280" cy="152" fill="#e8d8c8" r="5" stroke="#111" stroke-width="0.5" /><circle cx="213" cy="149" fill="#e8d8c8" r="4" stroke="#111" stroke-width="0.5" /><circle cx="228" cy="159" fill="#e8d8c8" r="3" stroke="#111" stroke-width="0.5" /><circle cx="224" cy="159" fill="#e8d8c8" r="5" stroke="#111" stroke-width="0.5" /><circle cx="213" cy="149" fill="#e8d8c8" r="3" stroke="#111" stroke-width="0.5" /><circle cx="219" cy="149" fill="#e8d8c8" r="6" stroke="#111" stroke-width="0.5" /><circle cx="251" cy="140" fill="#e8d8c8" r="3" stroke="#111" stroke-width="0.5" /></svg>