<?xml version="1.0" encoding="utf-8" ?>
<svg baseProfile="full" height="512" version="1.1" width="512" xmlns="http://www.w3.org/2000/svg" xmlns:ev="http://www.w3.org/2001/xml-events" xmlns:xlink="http://www.w3.org/1999/xlink"><defs /><polygon fill="#3a2a1a" points="205,114 256,89 307,114" stroke="#111" stroke-width="1" /><polygon fill="#000" points="205,114 256,105 307,114" stroke="none" /><polygon fill="#3a2a1a" points="218,120 256,98 294,120" stroke="#111" stroke-width="1" /><polygon fill="#000" points="218,120 256,112 294,120" stroke="none" /><polygon fill="#3a2a1a" points="188,120 198,146 208,172" stroke="#111" stroke-width="1" /><polygon fill="#000" points="188,120 198,146 208,172" stroke="none" /><polygon fill="#3a2a1a" points="191,140 193,160 205,172" stroke="#111" stroke-width="1" /><polygon fill="#3a2a1a" points="304,120 314,146 324,172" stroke="#111" stroke-width="1" /><polygon fill="#000" points="304,120 314,146 324,172" stroke="none" /><polygon fill="#3a2a1a" points="307,140 319,160 321,172" stroke="#111" stroke-width="1" /><polygon fill="#3a2a1a" points="205,144 256,118 307,144" stroke="#111" stroke-width="1" /><polygon fill="#000" points="205,144 256,135 307,144" stroke="none" /><polygon fill="#3a2a1a" points="224,150 256,131 288,150" stroke="#111" stroke-width="1" /></svg>