<?xml version="1.0" encoding="utf-8" ?>
<svg baseProfile="full" height="512" version="1.1" width="512" xmlns="http://www.w3.org/2000/svg" xmlns:ev="http://www.w3.org/2001/xml-events" xmlns:xlink="http://www.w3.org/1999/xlink"><defs /><polygon fill="#3a2a1a" points="210,124 256,102 302,124" stroke="#111" stroke-width="1" /><polygon fill="#000" points="210,124 256,116 302,124" stroke="none" /><polygon fill="#3a2a1a" points="221,130 256,110 291,130" stroke="#111" stroke-width="1" /><polygon fill="#000" points="221,130 256,123 291,130" stroke="none" /><polygon fill="#3a2a1a" points="195,130 204,154 213,177" stroke="#111" stroke-width="1" /><polygon fill="#000" points="195,130 204,153 213,177" stroke="none" /><polygon fill="#3a2a1a" points="197,148 200,166 211,177" stroke="#111" stroke-width="1" /><polygon fill="#3a2a1a" points="299,130 308,154 317,177" stroke="#111" stroke-width="1" /><polygon fill="#000" points="299,130 308,153 317,177" stroke="none" /><polygon fill="#3a2a1a" points="301,148 312,166 315,177" stroke="#111" stroke-width="1" /><polygon fill="#3a2a1a" points="210,151 256,128 302,151" stroke="#111" stroke-width="1" /><polygon fill="#000" points="210,151 256,143 302,151" stroke="none" /><polygon fill="#3a2a1a" points="227,157 256,140 285,157" stroke="#111" stroke-width="1" /></svg>