<?xml version="1.0" encoding="utf-8" ?>
<svg baseProfile="full" height="512" version="1.1" width="512" xmlns="http://www.w3.org/2000/svg" xmlns:ev="http://www.w3.org/2001/xml-events" xmlns:xlink="http://www.w3.org/1999/xlink"><defs /><circle cx="187" cy="169" fill="#d4a030" r="13" stroke="#111" stroke-width="1" /><circle cx="218" cy="139" fill="#d4a030" r="13" stroke="#111" stroke-width="1" /><circle cx="181" cy="171" fill="#d4a030" r="13" stroke="#111" stroke-width="1" /><circle cx="302" cy="148" fill="#d4a030" r="8" stroke="#111" stroke-width="1" /><circle cx="259" cy="118" fill="#d4a030" r="11" stroke="#111" stroke-width="1" /><circle cx="217" cy="154" fill="#d4a030" r="14" stroke="#111" stroke-width="1" /><circle cx="258" cy="119" fill="#d4a030" r="9" stroke="#111" stroke-width="1" /><circle cx="300" cy="135" fill="#d4a030" r="11" stroke="#111" stroke-width="1" /><circle cx="231" cy="129" fill="#d4a030" r="11" stroke="#111" stroke-width="1" /><circle cx="300" cy="151" fill="#d4a030" r="10" stroke="#111" stroke-width="1" /><circle cx="302" cy="164" fill="#d4a030" r="15" stroke="#111" stroke-width="1" /><circle cx="234" cy="131" fill="#d4a030" r="9" stroke="#111" stroke-width="1" /><circle cx="202" cy="161" fill="#d4a030" r="12" stroke="#111" stroke-width="1" /><circle cx="257" cy="118" fill="#d4a030" r="11" stroke="#111" stroke-width="1" /><circle cx="332" cy="174" fill="#d4a030" r="9" stroke="#111" stroke-width="1" /><circle cx="315" cy="139" fill="#d4a030" r="8" stroke="#111" stroke-width="1" /><circle cx="299" cy="146" fill="#d4a030" r="11" stroke="#111" stroke-width="1" /><circle cx="192" cy="143" fill="#d4a030" r="10" stroke="#111" stroke-width="1" /><circle cx="182" cy="174" fill="#d4a030" r="10" stroke="#111" stroke-width="1" /><circle cx="233" cy="126" fill="#d4a030" r="15" stroke="#111" stroke-width="1" /><circle cx="265" cy="126" fill="#d4a030" r="9" stroke="#111" stroke-width="1" /><circle cx="330" cy="176" fill="#d4a030" r="14" stroke="#111" stroke-width="1" /><circle cx="271" cy="122" fill="#d4a030" r="10" stroke="#111" stroke-width="1" /><circle cx="199" cy="174" fill="#d4a030" r="7" stroke="#111" stroke-width="1" /><circle cx="311" cy="160" fill="#d4a030" r="15" stroke="#111" stroke-width="1" /><circle cx="189" cy="145" fill="#d4a030" r="17" stroke="#111" stroke-width="1" /><circle cx="315" cy="167" fill="#d4a030" r="13" stroke="#111" stroke-width="1" /><circle cx="261" cy="121" fill="#d4a030" r="12" stroke="#111" stroke-width="1" /><circle cx="284" cy="138" fill="#d4a030" r="15" stroke="#111" stroke-width="1" /><circle cx="269" cy="124" fill="#d4a030" r="9" stroke="#111" stroke-width="1" /><circle cx="210" cy="154" fill="#d4a030" r="8" stroke="#111" stroke-width="1" /><circle cx="232" cy="134" fill="#d4a030" r="12" stroke="#111" stroke-width="1" /><circle cx="308" cy="167" fill="#d4a030" r="16" stroke="#111" stroke-width="1" /><circle cx="284" cy="130" fill="#d4a030" r="8" stroke="#111" stroke-width="1" /><circle cx="294" cy="139" fill="#d4a030" r="11" stroke="#111" stroke-width="1" /><circle cx="235" cy="127" fill="#d4a030" r="12" stroke="#111" stroke-width="1" /><circle cx="282" cy="127" fill="#d4a030" r="14" stroke="#111" stroke-width="1" /><circle cx="268" cy="124" fill="#d4a030" r="15" stroke="#111" stroke-width="1" /><circle cx="209" cy="165" fill="#d4a030" r="13" stroke="#111" stroke-width="1" /><circle cx="297" cy="134" fill="#d4a030" r="8" stroke="#111" stroke-width="1" /><circle cx="208" cy="169" fill="#d4a030" r="14" stroke="#111" stroke-width="1" /><circle cx="299" cy="134" fill="#d4a030" r="15" stroke="#111" stroke-width="1" /><circle cx="262" cy="121" fill="#d4a030" r="14" stroke="#111" stroke-width="1" /><circle cx="299" cy="144" fill="#d4a030" r="16" stroke="#111" stroke-width="1" /><circle cx="310" cy="153" fill="#d4a030" r="7" stroke="#111" stroke-width="1" /><circle cx="234" cy="133" fill="#d4a030" r="16" stroke="#111" stroke-width="1" /><circle cx="286" cy="141" fill="#d4a030" r="13" stroke="#111" stroke-width="1" /><circle cx="242" cy="125" fill="#d4a030" r="16" stroke="#111" stroke-width="1" /><circle cx="292" cy="132" fill="#d4a030" r="9" stroke="#111" stroke-width="1" /><circle cx="291" cy="131" fill="#d4a030" r="15" stroke="#111" stroke-width="1" /><circle cx="285" cy="135" fill="#d4a030" r="15" stroke="#111" stroke-width="1" /><circle cx="216" cy="138" fill="#d4a030" r="10" stroke="#111" stroke-width="1" /><circle cx="310" cy="151" fill="#d4a030" r="14" stroke="#111" stroke-width="1" /><circle cx="273" cy="125" fill="#d4a030" r="11" stroke="#111" stroke-width="1" /><circle cx="235" cy="124" fill="#d4a030" r="14" stroke="#111" stroke-width="1" /><circle cx="281" cy="131" fill="#d4a030" r="7" stroke="#111" stroke-width="1" /><circle cx="292" cy="148" fill="#d4a030" r="11" stroke="#111" stroke-width="1" /><circle cx="300" cy="144" fill="#d4a030" r="9" stroke="#111" stroke-width="1" /><circle cx="258" cy="118" fill="#d4a030" r="10" stroke="#111" stroke-width="1" /><circle cx="316" cy="152" fill="#d4a030" r="7" stroke="#111" stroke-width="1" /><circle cx="316" cy="143" fill="#d4a030" r="16" stroke="#111" stroke-width="1" /><circle cx="305" cy="149" fill="#d4a030" r="10" stroke="#111" stroke-width="1" /><circle cx="311" cy="177" fill="#d4a030" r="12" stroke="#111" stroke-width="1" /><circle cx="233" cy="133" fill="#d4a030" r="9" stroke="#111" stroke-width="1" /><circle cx="297" cy="146" fill="#d4a030" r="12" stroke="#111" stroke-width="1" /><circle cx="273" cy="130" fill="#d4a030" r="11" stroke="#111" stroke-width="1" /><circle cx="261" cy="119" fill="#d4a030" r="14" stroke="#111" stroke-width="1" /><circle cx="276" cy="132" fill="#d4a030" r="12" stroke="#111" stroke-width="1" /><circle cx="291" cy="138" fill="#d4a030" r="8" stroke="#111" stroke-width="1" /><circle cx="313" cy="166" fill="#d4a030" r="15" stroke="#111" stroke-width="1" /><circle cx="284" cy="135" fill="#d4a030" r="10" stroke="#111" stroke-width="1" /><circle cx="279" cy="134" fill="#d4a030" r="13" stroke="#111" stroke-width="1" /><circle cx="270" cy="125" fill="#d4a030" r="9" stroke="#111" stroke-width="1" /><circle cx="199" cy="168" fill="#d4a030" r="11" stroke="#111" stroke-width="1" /><circle cx="262" cy="122" fill="#d4a030" r="14" stroke="#111" stroke-width="1" /><circle cx="290" cy="144" fill="#d4a030" r="10" stroke="#111" stroke-width="1" /><circle cx="295" cy="140" fill="#d4a030" r="16" stroke="#111" stroke-width="1" /><circle cx="243" cy="128" fill="#d4a030" r="7" stroke="#111" stroke-width="1" /><circle cx="281" cy="137" fill="#d4a030" r="14" stroke="#111" stroke-width="1" /><circle cx="292" cy="144" fill="#d4a030" r="7" stroke="#111" stroke-width="1" /><circle cx="291" cy="145" fill="#d4a030" r="14" stroke="#111" stroke-width="1" /><circle cx="309" cy="142" fill="#d4a030" r="10" stroke="#111" stroke-width="1" /><circle cx="250" cy="120" fill="#d4a030" r="17" stroke="#111" stroke-width="1" /><circle cx="268" cy="125" fill="#d4a030" r="9" stroke="#111" stroke-width="1" /><circle cx="249" cy="120" fill="#d4a030" r="8" stroke="#111" stroke-width="1" /><circle cx="268" cy="126" fill="#d4a030" r="14" stroke="#111" stroke-width="1" /><circle cx="186" cy="147" fill="#d4a030" r="11" stroke="#111" stroke-width="1" /><circle cx="264" cy="120" fill="#d4a030" r="16" stroke="#111" stroke-width="1" /><circle cx="301" cy="138" fill="#d4a030" r="17" stroke="#111" stroke-width="1" /><circle cx="237" cy="132" fill="#d4a030" r="16" stroke="#111" stroke-width="1" /><circle cx="302" cy="145" fill="#d4a030" r="14" stroke="#111" stroke-width="1" /><circle cx="293" cy="151" fill="#d4a030" r="12" stroke="#111" stroke-width="1" /><circle cx="237" cy="137" fill="#d4a030" r="11" stroke="#111" stroke-width="1" /><circle cx="214" cy="142" fill="#d4a030" r="16" stroke="#111" stroke-width="1" /><circle cx="267" cy="126" fill="#d4a030" r="7" stroke="#111" stroke-width="1" /><circle cx="221" cy="142" fill="#d4a030" r="8" stroke="#111" stroke-width="1" /><circle cx="227" cy="134" fill="#d4a030" r="7" stroke="#111" stroke-width="1" /><circle cx="241" cy="124" fill="#d4a030" r="15" stroke="#111" stroke-width="1" /><circle cx="231" cy="128" fill="#d4a030" r="16" stroke="#111" stroke-width="1" /><circle cx="306" cy="162" fill="#d4a030" r="13" stroke="#111" stroke-width="1" /><circle cx="261" cy="121" fill="#d4a030" r="8" stroke="#111" stroke-width="1" /><circle cx="248" cy="122" fill="#d4a030" r="7" stroke="#111" stroke-width="1" /><circle cx="277" cy="130" fill="#d4a030" r="7" stroke="#111" stroke-width="1" /><circle cx="223" cy="140" fill="#d4a030" r="16" stroke="#111" stroke-width="1" /><circle cx="320" cy="162" fill="#d4a030" r="11" stroke="#111" stroke-width="1" /><circle cx="298" cy="150" fill="#d4a030" r="14" stroke="#111" stroke-width="1" /><circle cx="309" cy="170" fill="#d4a030" r="8" stroke="#111" stroke-width="1" /><circle cx="228" cy="131" fill="#d4a030" r="9" stroke="#111" stroke-width="1" /><circle cx="309" cy="149" fill="#d4a030" r="9" stroke="#111" stroke-width="1" /><circle cx="283" cy="137" fill="#d4a030" r="10" stroke="#111" stroke-width="1" /><circle cx="293" cy="145" fill="#d4a030" r="17" stroke="#111" stroke-width="1" /><circle cx="219" cy="144" fill="#d4a030" r="7" stroke="#111" stroke-width="1" /><circle cx="217" cy="136" fill="#d4a030" r="9" stroke="#111" stroke-width="1" /><circle cx="255" cy="118" fill="#d4a030" r="17" stroke="#111" stroke-width="1" /><circle cx="186" cy="152" fill="#d4a030" r="13" stroke="#111" stroke-width="1" /><circle cx="278" cy="136" fill="#d4a030" r="8" stroke="#111" stroke-width="1" /><circle cx="304" cy="141" fill="#d4a030" r="7" stroke="#111" stroke-width="1" /><circle cx="311" cy="141" fill="#d4a030" r="16" stroke="#111" stroke-width="1" /><circle cx="307" cy="146" fill="#d4a030" r="8" stroke="#111" stroke-width="1" /><circle cx="318" cy="177" fill="#d4a030" r="14" stroke="#111" stroke-width="1" /><circle cx="191" cy="162" fill="#d4a030" r="12" stroke="#111" stroke-width="1" /><circle cx="275" cy="136" fill="#d4a030" r="8" stroke="#111" stroke-width="1" /><circle cx="231" cy="132" fill="#d4a030" r="16" stroke="#111" stroke-width="1" /><circle cx="273" cy="127" fill="#d4a030" r="15" stroke="#111" stroke-width="1" /><circle cx="205" cy="165" fill="#d4a030" r="16" stroke="#111" stroke-width="1" /><circle cx="273" cy="131" fill="#d4a030" r="10" stroke="#111" stroke-width="1" /><circle cx="180" cy="156" fill="#d4a030" r="15" stroke="#111" stroke-width="1" /><circle cx="300" cy="143" fill="#d4a030" r="8" stroke="#111" stroke-width="1" /><circle cx="209" cy="145" fill="#d4a030" r="17" stroke="#111" stroke-width="1" /><circle cx="310" cy="164" fill="#d4a030" r="15" stroke="#111" stroke-width="1" /><circle cx="307" cy="135" fill="#d4a030" r="13" stroke="#111" stroke-width="1" /><circle cx="316" cy="166" fill="#d4a030" r="16" stroke="#111" stroke-width="1" /><circle cx="254" cy="119" fill="#d4a030" r="7" stroke="#111" stroke-width="1" /><circle cx="291" cy="134" fill="#d4a030" r="13" stroke="#111" stroke-width="1" /><circle cx="232" cy="128" fill="#d4a030" r="8" stroke="#111" stroke-width="1" /><circle cx="199" cy="159" fill="#d4a030" r="14" stroke="#111" stroke-width="1" /><circle cx="228" cy="144" fill="#d4a030" r="8" stroke="#111" stroke-width="1" /><circle cx="249" cy="124" fill="#d4a030" r="16" stroke="#111" stroke-width="1" /><circle cx="254" cy="118" fill="#d4a030" r="15" stroke="#111" stroke-width="1" /><circle cx="213" cy="154" fill="#d4a030" r="16" stroke="#111" stroke-width="1" /><circle cx="200" cy="168" fill="#d4a030" r="16" stroke="#111" stroke-width="1" /><circle cx="270" cy="126" fill="#d4a030" r="11" stroke="#111" stroke-width="1" /><circle cx="208" cy="151" fill="#d4a030" r="12" stroke="#111" stroke-width="1" /><circle cx="313" cy="163" fill="#d4a030" r="12" stroke="#111" stroke-width="1" /><circle cx="228" cy="139" fill="#d4a030" r="9" stroke="#111" stroke-width="1" /><circle cx="277" cy="135" fill="#d4a030" r="7" stroke="#111" stroke-width="1" /><circle cx="293" cy="149" fill="#d4a030" r="17" stroke="#111" stroke-width="1" /></svg>