<?xml version="1.0" encoding="utf-8" ?>
<svg baseProfile="full" height="512" version="1.1" width="512" xmlns="http://www.w3.org/2000/svg" xmlns:ev="http://www.w3.org/2001/xml-events" xmlns:xlink="http://www.w3.org/1999/xlink"><defs /><polygon fill="#d4a030" points="221,137 256,112 291,137" stroke="#111" stroke-width="1" /><polygon fill="#000" points="221,137 256,128 291,137" stroke="none" /><polygon fill="#d4a030" points="231,142 256,122 281,142" stroke="#111" stroke-width="1" /><polygon fill="#000" points="231,142 256,135 281,142" stroke="none" /><polygon fill="#d4a030" points="218,150 226,163 234,177" stroke="#111" stroke-width="1" /><polygon fill="#000" points="218,150 226,163 234,177" stroke="none" /><polygon fill="#d4a030" points="215,175 222,189 229,203" stroke="#111" stroke-width="1" /><polygon fill="#d4a030" points="212,201 218,214 224,228" stroke="#111" stroke-width="1" /><polygon fill="#000" points="212,201 218,214 224,228" stroke="none" /><polygon fill="#d4a030" points="209,226 214,240 219,254" stroke="#111" stroke-width="1" /><polygon fill="#d4a030" points="206,252 210,265 214,279" stroke="#111" stroke-width="1" /><polygon fill="#000" points="206,252 210,265 214,279" stroke="none" /><polygon fill="#d4a030" points="278,150 286,163 294,177" stroke="#111" stroke-width="1" /><polygon fill="#000" points="278,150 286,163 294,177" stroke="none" /><polygon fill="#d4a030" points="283,175 290,189 297,203" stroke="#111" stroke-width="1" /><polygon fill="#d4a030" points="288,201 294,214 300,228" stroke="#111" stroke-width="1" /><polygon fill="#000" points="288,201 294,214 300,228" stroke="none" /><polygon fill="#d4a030" points="293,226 298,240 303,254" stroke="#111" stroke-width="1" /><polygon fill="#d4a030" points="298,252 302,265 306,279" stroke="#111" stroke-width="1" /><polygon fill="#000" points="298,252 302,265 306,279" stroke="none" /><polygon fill="#d4a030" points="221,162 256,142 291,162" stroke="#111" stroke-width="1" /><polygon fill="#000" points="221,162 256,155 291,162" stroke="none" /><polygon fill="#d4a030" points="236,167 251,152 266,167" stroke="#111" stroke-width="1" /><polygon fill="#d4a030" points="246,167 261,152 276,167" stroke="#111" stroke-width="1" /></svg>