<?xml version="1.0" encoding="utf-8" ?>
<svg baseProfile="full" height="512" version="1.1" width="512" xmlns="http://www.w3.org/2000/svg" xmlns:ev="http://www.w3.org/2001/xml-events" xmlns:xlink="http://www.w3.org/1999/xlink"><defs /><polygon fill="#d4a030" points="217,128 256,101 295,128" stroke="#111" stroke-width="1" /><polygon fill="#000" points="217,128 256,119 295,128" stroke="none" /><polygon fill="#d4a030" points="228,134 256,112 284,134" stroke="#111" stroke-width="1" /><polygon fill="#000" points="228,134 256,126 284,134" stroke="none" /><polygon fill="#d4a030" points="214,143 223,158 232,173" stroke="#111" stroke-width="1" /><polygon fill="#000" points="214,143 223,158 232,173" stroke="none" /><polygon fill="#d4a030" points="211,171 218,186 225,202" stroke="#111" stroke-width="1" /><polygon fill="#d4a030" points="207,200 213,215 219,230" stroke="#111" stroke-width="1" /><polygon fill="#000" points="207,200 213,215 219,230" stroke="none" /><polygon fill="#d4a030" points="204,228 209,243 214,258" stroke="#111" stroke-width="1" /><polygon fill="#d4a030" points="200,256 204,271 208,287" stroke="#111" stroke-width="1" /><polygon fill="#000" points="200,256 204,271 208,287" stroke="none" /><polygon fill="#d4a030" points="280,143 289,158 298,173" stroke="#111" stroke-width="1" /><polygon fill="#000" points="280,143 289,158 298,173" stroke="none" /><polygon fill="#d4a030" points="287,171 294,186 301,202" stroke="#111" stroke-width="1" /><polygon fill="#d4a030" points="293,200 299,215 305,230" stroke="#111" stroke-width="1" /><polygon fill="#000" points="293,200 299,215 305,230" stroke="none" /><polygon fill="#d4a030" points="298,228 303,243 308,258" stroke="#111" stroke-width="1" /><polygon fill="#d4a030" points="304,256 308,271 312,287" stroke="#111" stroke-width="1" /><polygon fill="#000" points="304,256 308,271 312,287" stroke="none" /><polygon fill="#d4a030" points="217,156 256,134 295,156" stroke="#111" stroke-width="1" /><polygon fill="#000" points="217,156 256,148 295,156" stroke="none" /><polygon fill="#d4a030" points="234,162 251,145 267,162" stroke="#111" stroke-width="1" /><polygon fill="#d4a030" points="245,162 261,145 278,162" stroke="#111" stroke-width="1" /></svg>