<?xml version="1.0" encoding="utf-8" ?>
<svg baseProfile="full" height="512" version="1.1" width="512" xmlns="http://www.w3.org/2000/svg" xmlns:ev="http://www.w3.org/2001/xml-events" xmlns:xlink="http://www.w3.org/1999/xlink"><defs /><polygon fill="#d4a030" points="201,114 256,81 311,114" stroke="#111" stroke-width="1" /><polygon fill="#000" points="201,114 256,103 311,114" stroke="none" /><polygon fill="#d4a030" points="215,121 256,90 297,121" stroke="#111" stroke-width="1" /><polygon fill="#000" points="215,121 256,110 297,121" stroke="none" /><polygon fill="#d4a030" points="194,121 204,156 185,135" stroke="#111" stroke-width="1" /><polygon fill="#d4a030" points="318,121 308,156 327,135" stroke="#111" stroke-width="1" /><polygon fill="#d4a030" points="297,114 331,107 345,169 338,225 311,197 304,142" stroke="#111" stroke-width="1" /><polygon fill="#000" points="297,114 331,107 304,142" stroke="#111" stroke-width="1" /><polygon fill="#d4a030" points="331,107 345,169 338,225" stroke="#111" stroke-width="1" /><polygon fill="#000" points="338,225 311,197 304,142" stroke="#111" stroke-width="1" /></svg>