<?xml version="1.0" encoding="utf-8" ?>
<svg baseProfile="full" height="512" version="1.1" width="512" xmlns="http://www.w3.org/2000/svg" xmlns:ev="http://www.w3.org/2001/xml-events" xmlns:xlink="http://www.w3.org/1999/xlink"><defs /><circle cx="283" cy="144" fill="#d4a030" r="12" stroke="#111" stroke-width="1" /><circle cx="264" cy="127" fill="#d4a030" r="11" stroke="#111" stroke-width="1" /><circle cx="257" cy="122" fill="#d4a030" r="7" stroke="#111" stroke-width="1" /><circle cx="320" cy="168" fill="#d4a030" r="15" stroke="#111" stroke-width="1" /><circle cx="202" cy="155" fill="#d4a030" r="11" stroke="#111" stroke-width="1" /><circle cx="248" cy="127" fill="#d4a030" r="7" stroke="#111" stroke-width="1" /><circle cx="296" cy="151" fill="#d4a030" r="17" stroke="#111" stroke-width="1" /><circle cx="303" cy="137" fill="#d4a030" r="7" stroke="#111" stroke-width="1" /><circle cx="254" cy="122" fill="#d4a030" r="9" stroke="#111" stroke-width="1" /><circle cx="311" cy="171" fill="#d4a030" r="15" stroke="#111" stroke-width="1" /><circle cx="198" cy="155" fill="#d4a030" r="17" stroke="#111" stroke-width="1" /><circle cx="319" cy="165" fill="#d4a030" r="10" stroke="#111" stroke-width="1" /><circle cx="293" cy="144" fill="#d4a030" r="17" stroke="#111" stroke-width="1" /><circle cx="271" cy="129" fill="#d4a030" r="17" stroke="#111" stroke-width="1" /><circle cx="289" cy="142" fill="#d4a030" r="14" stroke="#111" stroke-width="1" /><circle cx="200" cy="168" fill="#d4a030" r="17" stroke="#111" stroke-width="1" /><circle cx="319" cy="144" fill="#d4a030" r="14" stroke="#111" stroke-width="1" /><circle cx="262" cy="125" fill="#d4a030" r="15" stroke="#111" stroke-width="1" /><circle cx="261" cy="125" fill="#d4a030" r="15" stroke="#111" stroke-width="1" /><circle cx="215" cy="154" fill="#d4a030" r="10" stroke="#111" stroke-width="1" /><circle cx="214" cy="139" fill="#d4a030" r="13" stroke="#111" stroke-width="1" /><circle cx="187" cy="159" fill="#d4a030" r="9" stroke="#111" stroke-width="1" /><circle cx="294" cy="150" fill="#d4a030" r="17" stroke="#111" stroke-width="1" /><circle cx="282" cy="140" fill="#d4a030" r="8" stroke="#111" stroke-width="1" /><circle cx="308" cy="164" fill="#d4a030" r="8" stroke="#111" stroke-width="1" /><circle cx="290" cy="155" fill="#d4a030" r="11" stroke="#111" stroke-width="1" /><circle cx="198" cy="149" fill="#d4a030" r="15" stroke="#111" stroke-width="1" /><circle cx="226" cy="143" fill="#d4a030" r="14" stroke="#111" stroke-width="1" /><circle cx="283" cy="136" fill="#d4a030" r="12" stroke="#111" stroke-width="1" /><circle cx="234" cy="128" fill="#d4a030" r="16" stroke="#111" stroke-width="1" /><circle cx="253" cy="124" fill="#d4a030" r="17" stroke="#111" stroke-width="1" /><circle cx="233" cy="143" fill="#d4a030" r="16" stroke="#111" stroke-width="1" /><circle cx="205" cy="144" fill="#d4a030" r="9" stroke="#111" stroke-width="1" /><circle cx="218" cy="137" fill="#d4a030" r="11" stroke="#111" stroke-width="1" /><circle cx="241" cy="126" fill="#d4a030" r="10" stroke="#111" stroke-width="1" /><circle cx="298" cy="141" fill="#d4a030" r="7" stroke="#111" stroke-width="1" /><circle cx="256" cy="121" fill="#d4a030" r="9" stroke="#111" stroke-width="1" /><circle cx="304" cy="157" fill="#d4a030" r="10" stroke="#111" stroke-width="1" /><circle cx="249" cy="124" fill="#d4a030" r="17" stroke="#111" stroke-width="1" /><circle cx="305" cy="160" fill="#d4a030" r="15" stroke="#111" stroke-width="1" /><circle cx="264" cy="125" fill="#d4a030" r="10" stroke="#111" stroke-width="1" /><circle cx="305" cy="158" fill="#d4a030" r="10" stroke="#111" stroke-width="1" /><circle cx="307" cy="148" fill="#d4a030" r="14" stroke="#111" stroke-width="1" /><circle cx="234" cy="128" fill="#d4a030" r="17" stroke="#111" stroke-width="1" /><circle cx="197" cy="176" fill="#d4a030" r="10" stroke="#111" stroke-width="1" /><circle cx="212" cy="162" fill="#d4a030" r="11" stroke="#111" stroke-width="1" /><circle cx="295" cy="152" fill="#d4a030" r="13" stroke="#111" stroke-width="1" /><circle cx="201" cy="176" fill="#d4a030" r="13" stroke="#111" stroke-width="1" /><circle cx="310" cy="158" fill="#d4a030" r="8" stroke="#111" stroke-width="1" /><circle cx="285" cy="137" fill="#d4a030" r="7" stroke="#111" stroke-width="1" /><circle cx="205" cy="162" fill="#d4a030" r="14" stroke="#111" stroke-width="1" /><circle cx="216" cy="139" fill="#d4a030" r="7" stroke="#111" stroke-width="1" /><circle cx="229" cy="139" fill="#d4a030" r="10" stroke="#111" stroke-width="1" /><circle cx="217" cy="143" fill="#d4a030" r="16" stroke="#111" stroke-width="1" /><circle cx="268" cy="130" fill="#d4a030" r="15" stroke="#111" stroke-width="1" /><circle cx="309" cy="146" fill="#d4a030" r="17" stroke="#111" stroke-width="1" /><circle cx="202" cy="163" fill="#d4a030" r="10" stroke="#111" stroke-width="1" /><circle cx="300" cy="139" fill="#d4a030" r="11" stroke="#111" stroke-width="1" /><circle cx="202" cy="170" fill="#d4a030" r="12" stroke="#111" stroke-width="1" /><circle cx="322" cy="171" fill="#d4a030" r="12" stroke="#111" stroke-width="1" /><circle cx="209" cy="144" fill="#d4a030" r="14" stroke="#111" stroke-width="1" /><circle cx="193" cy="176" fill="#d4a030" r="8" stroke="#111" stroke-width="1" /><circle cx="222" cy="153" fill="#d4a030" r="9" stroke="#111" stroke-width="1" /><circle cx="275" cy="136" fill="#d4a030" r="8" stroke="#111" stroke-width="1" /><circle cx="200" cy="157" fill="#d4a030" r="9" stroke="#111" stroke-width="1" /><circle cx="312" cy="140" fill="#d4a030" r="12" stroke="#111" stroke-width="1" /><circle cx="313" cy="157" fill="#d4a030" r="17" stroke="#111" stroke-width="1" /><circle cx="276" cy="141" fill="#d4a030" r="14" stroke="#111" stroke-width="1" /><circle cx="300" cy="153" fill="#d4a030" r="10" stroke="#111" stroke-width="1" /><circle cx="302" cy="153" fill="#d4a030" r="14" stroke="#111" stroke-width="1" /><circle cx="217" cy="147" fill="#d4a030" r="10" stroke="#111" stroke-width="1" /><circle cx="286" cy="140" fill="#d4a030" r="17" stroke="#111" stroke-width="1" /><circle cx="254" cy="122" fill="#d4a030" r="17" stroke="#111" stroke-width="1" /><circle cx="253" cy="122" fill="#d4a030" r="12" stroke="#111" stroke-width="1" /><circle cx="280" cy="143" fill="#d4a030" r="10" stroke="#111" stroke-width="1" /><circle cx="292" cy="136" fill="#d4a030" r="12" stroke="#111" stroke-width="1" /><circle cx="209" cy="153" fill="#d4a030" r="10" stroke="#111" stroke-width="1" /><circle cx="251" cy="125" fill="#d4a030" r="13" stroke="#111" stroke-width="1" /><circle cx="304" cy="153" fill="#d4a030" r="7" stroke="#111" stroke-width="1" /><circle cx="261" cy="126" fill="#d4a030" r="12" stroke="#111" stroke-width="1" /><circle cx="283" cy="131" fill="#d4a030" r="17" stroke="#111" stroke-width="1" /><circle cx="290" cy="154" fill="#d4a030" r="10" stroke="#111" stroke-width="1" /><circle cx="239" cy="127" fill="#d4a030" r="11" stroke="#111" stroke-width="1" /><circle cx="254" cy="122" fill="#d4a030" r="11" stroke="#111" stroke-width="1" /><circle cx="308" cy="149" fill="#d4a030" r="17" stroke="#111" stroke-width="1" /><circle cx="246" cy="126" fill="#d4a030" r="16" stroke="#111" stroke-width="1" /><circle cx="325" cy="143" fill="#d4a030" r="8" stroke="#111" stroke-width="1" /><circle cx="210" cy="143" fill="#d4a030" r="10" stroke="#111" stroke-width="1" /><circle cx="237" cy="133" fill="#d4a030" r="13" stroke="#111" stroke-width="1" /><circle cx="319" cy="163" fill="#d4a030" r="13" stroke="#111" stroke-width="1" /><circle cx="254" cy="122" fill="#d4a030" r="10" stroke="#111" stroke-width="1" /><circle cx="291" cy="134" fill="#d4a030" r="14" stroke="#111" stroke-width="1" /><circle cx="220" cy="135" fill="#d4a030" r="16" stroke="#111" stroke-width="1" /><circle cx="248" cy="128" fill="#d4a030" r="11" stroke="#111" stroke-width="1" /><circle cx="308" cy="151" fill="#d4a030" r="10" stroke="#111" stroke-width="1" /><circle cx="273" cy="133" fill="#d4a030" r="17" stroke="#111" stroke-width="1" /><circle cx="246" cy="127" fill="#d4a030" r="16" stroke="#111" stroke-width="1" /><circle cx="197" cy="142" fill="#d4a030" r="15" stroke="#111" stroke-width="1" /><circle cx="254" cy="122" fill="#d4a030" r="14" stroke="#111" stroke-width="1" /><circle cx="320" cy="144" fill="#d4a030" r="17" stroke="#111" stroke-width="1" /><circle cx="279" cy="135" fill="#d4a030" r="10" stroke="#111" stroke-width="1" /><circle cx="282" cy="149" fill="#d4a030" r="13" stroke="#111" stroke-width="1" /><circle cx="297" cy="162" fill="#d4a030" r="17" stroke="#111" stroke-width="1" /><circle cx="242" cy="134" fill="#d4a030" r="14" stroke="#111" stroke-width="1" /><circle cx="269" cy="131" fill="#d4a030" r="17" stroke="#111" stroke-width="1" /><circle cx="276" cy="133" fill="#d4a030" r="17" stroke="#111" stroke-width="1" /><circle cx="239" cy="137" fill="#d4a030" r="14" stroke="#111" stroke-width="1" /><circle cx="279" cy="133" fill="#d4a030" r="9" stroke="#111" stroke-width="1" /><circle cx="302" cy="141" fill="#d4a030" r="7" stroke="#111" stroke-width="1" /><circle cx="210" cy="152" fill="#d4a030" r="10" stroke="#111" stroke-width="1" /><circle cx="292" cy="146" fill="#d4a030" r="13" stroke="#111" stroke-width="1" /><circle cx="283" cy="131" fill="#d4a030" r="11" stroke="#111" stroke-width="1" /><circle cx="243" cy="131" fill="#d4a030" r="13" stroke="#111" stroke-width="1" /><circle cx="273" cy="127" fill="#d4a030" r="12" stroke="#111" stroke-width="1" /><circle cx="297" cy="142" fill="#d4a030" r="13" stroke="#111" stroke-width="1" /><circle cx="206" cy="144" fill="#d4a030" r="12" stroke="#111" stroke-width="1" /><circle cx="231" cy="146" fill="#d4a030" r="13" stroke="#111" stroke-width="1" /><circle cx="194" cy="159" fill="#d4a030" r="10" stroke="#111" stroke-width="1" /><circle cx="231" cy="132" fill="#d4a030" r="7" stroke="#111" stroke-width="1" /><circle cx="261" cy="124" fill="#d4a030" r="8" stroke="#111" stroke-width="1" /><circle cx="263" cy="126" fill="#d4a030" r="9" stroke="#111" stroke-width="1" /><circle cx="209" cy="163" fill="#d4a030" r="14" stroke="#111" stroke-width="1" /><circle cx="266" cy="126" fill="#d4a030" r="14" stroke="#111" stroke-width="1" /><circle cx="189" cy="144" fill="#d4a030" r="13" stroke="#111" stroke-width="1" /><circle cx="278" cy="135" fill="#d4a030" r="13" stroke="#111" stroke-width="1" /><circle cx="254" cy="122" fill="#d4a030" r="10" stroke="#111" stroke-width="1" /><circle cx="300" cy="161" fill="#d4a030" r="12" stroke="#111" stroke-width="1" /><circle cx="205" cy="163" fill="#d4a030" r="15" stroke="#111" stroke-width="1" /><circle cx="274" cy="137" fill="#d4a030" r="10" stroke="#111" stroke-width="1" /><circle cx="186" cy="149" fill="#d4a030" r="12" stroke="#111" stroke-width="1" /><circle cx="242" cy="130" fill="#d4a030" r="11" stroke="#111" stroke-width="1" /><circle cx="243" cy="131" fill="#d4a030" r="17" stroke="#111" stroke-width="1" /><circle cx="255" cy="121" fill="#d4a030" r="15" stroke="#111" stroke-width="1" /><circle cx="239" cy="137" fill="#d4a030" r="17" stroke="#111" stroke-width="1" /><circle cx="199" cy="163" fill="#d4a030" r="7" stroke="#111" stroke-width="1" /><circle cx="216" cy="154" fill="#d4a030" r="7" stroke="#111" stroke-width="1" /><circle cx="193" cy="146" fill="#d4a030" r="11" stroke="#111" stroke-width="1" /><circle cx="201" cy="145" fill="#d4a030" r="13" stroke="#111" stroke-width="1" /><circle cx="313" cy="160" fill="#d4a030" r="15" stroke="#111" stroke-width="1" /><circle cx="238" cy="135" fill="#d4a030" r="9" stroke="#111" stroke-width="1" /><circle cx="271" cy="132" fill="#d4a030" r="14" stroke="#111" stroke-width="1" /><circle cx="211" cy="151" fill="#d4a030" r="12" stroke="#111" stroke-width="1" /></svg>