<?xml version="1.0" encoding="utf-8" ?>
<svg baseProfile="full" height="512" version="1.1" width="512" xmlns="http://www.w3.org/2000/svg" xmlns:ev="http://www.w3.org/2001/xml-events" xmlns:xlink="http://www.w3.org/1999/xlink"><defs /><polygon fill="#222222" points="215,126 256,103 297,126" stroke="#111" stroke-width="1" /><polygon fill="#000" points="215,126 256,118 297,126" stroke="none" /><polygon fill="#222222" points="227,131 256,112 285,131" stroke="#111" stroke-width="1" /><polygon fill="#000" points="227,131 256,124 285,131" stroke="none" /><polygon fill="#222222" points="215,152 256,128 297,152" stroke="#111" stroke-width="1" /><polygon fill="#000" points="215,152 256,144 297,152" stroke="none" /><polygon fill="#222222" points="206,122 224,122 229,188 222,217 208,217 201,188" stroke="#111" stroke-width="1" /><polygon fill="#000" points="206,122 224,122 229,188" stroke="#111" stroke-width="1" /><polygon fill="#222222" points="229,188 222,217 208,217" stroke="#111" stroke-width="1" /><polygon fill="#000" points="229,188 208,217 201,188" stroke="#111" stroke-width="1" /><polygon fill="#222222" points="288,122 306,122 311,188 304,217 290,217 283,188" stroke="#111" stroke-width="1" /><polygon fill="#000" points="288,122 306,122 311,188" stroke="#111" stroke-width="1" /><polygon fill="#222222" points="311,188 304,217 290,217" stroke="#111" stroke-width="1" /><polygon fill="#000" points="311,188 290,217 283,188" stroke="#111" stroke-width="1" /></svg>