<?xml version="1.0" encoding="utf-8" ?>
<svg baseProfile="full" height="512" version="1.1" width="512" xmlns="http://www.w3.org/2000/svg" xmlns:ev="http://www.w3.org/2001/xml-events" xmlns:xlink="http://www.w3.org/1999/xlink"><defs /><polygon fill="#1a1a2a" points="218,132 256,111 294,132" stroke="#111" stroke-width="1" /><polygon fill="#000" points="218,132 256,125 294,132" stroke="none" /><polygon fill="#1a1a2a" points="229,137 256,119 283,137" stroke="#111" stroke-width="1" /><polygon fill="#000" points="229,137 256,131 283,137" stroke="none" /><polygon fill="#1a1a2a" points="218,157 256,135 294,157" stroke="#111" stroke-width="1" /><polygon fill="#000" points="218,157 256,149 294,157" stroke="none" /><polygon fill="#1a1a2a" points="210,129 226,129 231,190 224,218 212,218 205,190" stroke="#111" stroke-width="1" /><polygon fill="#000" points="210,129 226,129 231,190" stroke="#111" stroke-width="1" /><polygon fill="#1a1a2a" points="231,190 224,218 212,218" stroke="#111" stroke-width="1" /><polygon fill="#000" points="231,190 212,218 205,190" stroke="#111" stroke-width="1" /><polygon fill="#1a1a2a" points="286,129 302,129 307,190 300,218 288,218 281,190" stroke="#111" stroke-width="1" /><polygon fill="#000" points="286,129 302,129 307,190" stroke="#111" stroke-width="1" /><polygon fill="#1a1a2a" points="307,190 300,218 288,218" stroke="#111" stroke-width="1" /><polygon fill="#000" points="307,190 288,218 281,190" stroke="#111" stroke-width="1" /></svg>