<?xml version="1.0" encoding="utf-8" ?>
<svg baseProfile="full" height="512" version="1.1" width="512" xmlns="http://www.w3.org/2000/svg" xmlns:ev="http://www.w3.org/2001/xml-events" xmlns:xlink="http://www.w3.org/1999/xlink"><defs /><circle cx="230" cy="131" fill="#e8d8c8" r="9" stroke="#111" stroke-width="1" /><circle cx="215" cy="142" fill="#e8d8c8" r="10" stroke="#111" stroke-width="1" /><circle cx="247" cy="125" fill="#e8d8c8" r="12" stroke="#111" stroke-width="1" /><circle cx="282" cy="137" fill="#e8d8c8" r="13" stroke="#111" stroke-width="1" /><circle cx="280" cy="135" fill="#e8d8c8" r="9" stroke="#111" stroke-width="1" /><circle cx="271" cy="128" fill="#e8d8c8" r="11" stroke="#111" stroke-width="1" /><circle cx="207" cy="163" fill="#e8d8c8" r="15" stroke="#111" stroke-width="1" /><circle cx="296" cy="161" fill="#e8d8c8" r="12" stroke="#111" stroke-width="1" /><circle cx="253" cy="121" fill="#e8d8c8" r="7" stroke="#111" stroke-width="1" /><circle cx="271" cy="128" fill="#e8d8c8" r="17" stroke="#111" stroke-width="1" /><circle cx="301" cy="167" fill="#e8d8c8" r="17" stroke="#111" stroke-width="1" /><circle cx="301" cy="143" fill="#e8d8c8" r="9" stroke="#111" stroke-width="1" /><circle cx="218" cy="132" fill="#e8d8c8" r="13" stroke="#111" stroke-width="1" /><circle cx="285" cy="140" fill="#e8d8c8" r="15" stroke="#111" stroke-width="1" /><circle cx="273" cy="126" fill="#e8d8c8" r="13" stroke="#111" stroke-width="1" /><circle cx="228" cy="139" fill="#e8d8c8" r="8" stroke="#111" stroke-width="1" /><circle cx="220" cy="135" fill="#e8d8c8" r="9" stroke="#111" stroke-width="1" /><circle cx="326" cy="177" fill="#e8d8c8" r="10" stroke="#111" stroke-width="1" /><circle cx="240" cy="130" fill="#e8d8c8" r="12" stroke="#111" stroke-width="1" /><circle cx="310" cy="145" fill="#e8d8c8" r="11" stroke="#111" stroke-width="1" /><circle cx="214" cy="144" fill="#e8d8c8" r="11" stroke="#111" stroke-width="1" /><circle cx="223" cy="141" fill="#e8d8c8" r="9" stroke="#111" stroke-width="1" /><circle cx="276" cy="138" fill="#e8d8c8" r="11" stroke="#111" stroke-width="1" /><circle cx="259" cy="122" fill="#e8d8c8" r="16" stroke="#111" stroke-width="1" /><circle cx="230" cy="141" fill="#e8d8c8" r="13" stroke="#111" stroke-width="1" /><circle cx="206" cy="137" fill="#e8d8c8" r="14" stroke="#111" stroke-width="1" /><circle cx="247" cy="125" fill="#e8d8c8" r="8" stroke="#111" stroke-width="1" /><circle cx="203" cy="165" fill="#e8d8c8" r="12" stroke="#111" stroke-width="1" /><circle cx="200" cy="153" fill="#e8d8c8" r="17" stroke="#111" stroke-width="1" /><circle cx="251" cy="121" fill="#e8d8c8" r="12" stroke="#111" stroke-width="1" /><circle cx="307" cy="147" fill="#e8d8c8" r="8" stroke="#111" stroke-width="1" /><circle cx="255" cy="121" fill="#e8d8c8" r="15" stroke="#111" stroke-width="1" /><circle cx="327" cy="163" fill="#e8d8c8" r="7" stroke="#111" stroke-width="1" /><circle cx="266" cy="123" fill="#e8d8c8" r="9" stroke="#111" stroke-width="1" /><circle cx="263" cy="124" fill="#e8d8c8" r="10" stroke="#111" stroke-width="1" /><circle cx="289" cy="140" fill="#e8d8c8" r="11" stroke="#111" stroke-width="1" /><circle cx="215" cy="144" fill="#e8d8c8" r="8" stroke="#111" stroke-width="1" /><circle cx="188" cy="147" fill="#e8d8c8" r="13" stroke="#111" stroke-width="1" /><circle cx="195" cy="140" fill="#e8d8c8" r="8" stroke="#111" stroke-width="1" /><circle cx="252" cy="122" fill="#e8d8c8" r="16" stroke="#111" stroke-width="1" /><circle cx="257" cy="120" fill="#e8d8c8" r="10" stroke="#111" stroke-width="1" /><circle cx="233" cy="139" fill="#e8d8c8" r="9" stroke="#111" stroke-width="1" /><circle cx="197" cy="166" fill="#e8d8c8" r="15" stroke="#111" stroke-width="1" /><circle cx="196" cy="146" fill="#e8d8c8" r="8" stroke="#111" stroke-width="1" /><circle cx="249" cy="125" fill="#e8d8c8" r="17" stroke="#111" stroke-width="1" /><circle cx="306" cy="156" fill="#e8d8c8" r="16" stroke="#111" stroke-width="1" /><circle cx="215" cy="143" fill="#e8d8c8" r="10" stroke="#111" stroke-width="1" /><circle cx="303" cy="170" fill="#e8d8c8" r="17" stroke="#111" stroke-width="1" /><circle cx="292" cy="143" fill="#e8d8c8" r="15" stroke="#111" stroke-width="1" /><circle cx="194" cy="163" fill="#e8d8c8" r="12" stroke="#111" stroke-width="1" /><circle cx="288" cy="145" fill="#e8d8c8" r="17" stroke="#111" stroke-width="1" /><circle cx="256" cy="120" fill="#e8d8c8" r="16" stroke="#111" stroke-width="1" /><circle cx="296" cy="157" fill="#e8d8c8" r="16" stroke="#111" stroke-width="1" /><circle cx="272" cy="127" fill="#e8d8c8" r="11" stroke="#111" stroke-width="1" /><circle cx="217" cy="146" fill="#e8d8c8" r="13" stroke="#111" stroke-width="1" /><circle cx="305" cy="152" fill="#e8d8c8" r="8" stroke="#111" stroke-width="1" /><circle cx="256" cy="120" fill="#e8d8c8" r="12" stroke="#111" stroke-width="1" /><circle cx="265" cy="125" fill="#e8d8c8" r="16" stroke="#111" stroke-width="1" /><circle cx="314" cy="149" fill="#e8d8c8" r="10" stroke="#111" stroke-width="1" /><circle cx="285" cy="142" fill="#e8d8c8" r="13" stroke="#111" stroke-width="1" /><circle cx="275" cy="128" fill="#e8d8c8" r="8" stroke="#111" stroke-width="1" /><circle cx="222" cy="135" fill="#e8d8c8" r="16" stroke="#111" stroke-width="1" /><circle cx="248" cy="125" fill="#e8d8c8" r="15" stroke="#111" stroke-width="1" /><circle cx="279" cy="141" fill="#e8d8c8" r="12" stroke="#111" stroke-width="1" /><circle cx="216" cy="150" fill="#e8d8c8" r="10" stroke="#111" stroke-width="1" /><circle cx="276" cy="128" fill="#e8d8c8" r="13" stroke="#111" stroke-width="1" /><circle cx="275" cy="136" fill="#e8d8c8" r="10" stroke="#111" stroke-width="1" /><circle cx="234" cy="129" fill="#e8d8c8" r="14" stroke="#111" stroke-width="1" /><circle cx="255" cy="120" fill="#e8d8c8" r="10" stroke="#111" stroke-width="1" /><circle cx="284" cy="141" fill="#e8d8c8" r="12" stroke="#111" stroke-width="1" /><circle cx="242" cy="132" fill="#e8d8c8" r="12" stroke="#111" stroke-width="1" /><circle cx="208" cy="161" fill="#e8d8c8" r="11" stroke="#111" stroke-width="1" /><circle cx="209" cy="159" fill="#e8d8c8" r="16" stroke="#111" stroke-width="1" /><circle cx="316" cy="155" fill="#e8d8c8" r="7" stroke="#111" stroke-width="1" /><circle cx="314" cy="154" fill="#e8d8c8" r="13" stroke="#111" stroke-width="1" /><circle cx="231" cy="135" fill="#e8d8c8" r="13" stroke="#111" stroke-width="1" /><circle cx="274" cy="132" fill="#e8d8c8" r="14" stroke="#111" stroke-width="1" /><circle cx="295" cy="135" fill="#e8d8c8" r="16" stroke="#111" stroke-width="1" /><circle cx="302" cy="153" fill="#e8d8c8" r="8" stroke="#111" stroke-width="1" /><circle cx="223" cy="135" fill="#e8d8c8" r="13" stroke="#111" stroke-width="1" /><circle cx="215" cy="147" fill="#e8d8c8" r="11" stroke="#111" stroke-width="1" /><circle cx="240" cy="133" fill="#e8d8c8" r="9" stroke="#111" stroke-width="1" /><circle cx="284" cy="138" fill="#e8d8c8" r="12" stroke="#111" stroke-width="1" /><circle cx="226" cy="138" fill="#e8d8c8" r="12" stroke="#111" stroke-width="1" /><circle cx="196" cy="168" fill="#e8d8c8" r="14" stroke="#111" stroke-width="1" /><circle cx="244" cy="129" fill="#e8d8c8" r="16" stroke="#111" stroke-width="1" /><circle cx="310" cy="165" fill="#e8d8c8" r="12" stroke="#111" stroke-width="1" /><circle cx="213" cy="144" fill="#e8d8c8" r="14" stroke="#111" stroke-width="1" /><circle cx="236" cy="130" fill="#e8d8c8" r="7" stroke="#111" stroke-width="1" /><circle cx="205" cy="144" fill="#e8d8c8" r="9" stroke="#111" stroke-width="1" /><circle cx="190" cy="163" fill="#e8d8c8" r="12" stroke="#111" stroke-width="1" /><circle cx="268" cy="125" fill="#e8d8c8" r="9" stroke="#111" stroke-width="1" /><circle cx="252" cy="124" fill="#e8d8c8" r="13" stroke="#111" stroke-width="1" /><circle cx="266" cy="123" fill="#e8d8c8" r="16" stroke="#111" stroke-width="1" /><circle cx="275" cy="136" fill="#e8d8c8" r="11" stroke="#111" stroke-width="1" /><circle cx="254" cy="121" fill="#e8d8c8" r="16" stroke="#111" stroke-width="1" /><circle cx="235" cy="132" fill="#e8d8c8" r="11" stroke="#111" stroke-width="1" /><circle cx="240" cy="133" fill="#e8d8c8" r="8" stroke="#111" stroke-width="1" /><circle cx="248" cy="126" fill="#e8d8c8" r="10" stroke="#111" stroke-width="1" /><circle cx="293" cy="138" fill="#e8d8c8" r="8" stroke="#111" stroke-width="1" /><circle cx="304" cy="150" fill="#e8d8c8" r="7" stroke="#111" stroke-width="1" /><circle cx="238" cy="133" fill="#e8d8c8" r="13" stroke="#111" stroke-width="1" /><circle cx="241" cy="130" fill="#e8d8c8" r="10" stroke="#111" stroke-width="1" /><circle cx="181" cy="166" fill="#e8d8c8" r="17" stroke="#111" stroke-width="1" /><circle cx="290" cy="134" fill="#e8d8c8" r="15" stroke="#111" stroke-width="1" /><circle cx="284" cy="129" fill="#e8d8c8" r="12" stroke="#111" stroke-width="1" /><circle cx="313" cy="148" fill="#e8d8c8" r="9" stroke="#111" stroke-width="1" /><circle cx="236" cy="132" fill="#e8d8c8" r="11" stroke="#111" stroke-width="1" /><circle cx="312" cy="147" fill="#e8d8c8" r="7" stroke="#111" stroke-width="1" /><circle cx="274" cy="134" fill="#e8d8c8" r="10" stroke="#111" stroke-width="1" /><circle cx="319" cy="168" fill="#e8d8c8" r="11" stroke="#111" stroke-width="1" /><circle cx="201" cy="169" fill="#e8d8c8" r="8" stroke="#111" stroke-width="1" /><circle cx="197" cy="169" fill="#e8d8c8" r="17" stroke="#111" stroke-width="1" /><circle cx="217" cy="139" fill="#e8d8c8" r="13" stroke="#111" stroke-width="1" /><circle cx="222" cy="150" fill="#e8d8c8" r="9" stroke="#111" stroke-width="1" /><circle cx="294" cy="133" fill="#e8d8c8" r="15" stroke="#111" stroke-width="1" /><circle cx="254" cy="121" fill="#e8d8c8" r="10" stroke="#111" stroke-width="1" /><circle cx="267" cy="127" fill="#e8d8c8" r="17" stroke="#111" stroke-width="1" /><circle cx="276" cy="128" fill="#e8d8c8" r="13" stroke="#111" stroke-width="1" /><circle cx="268" cy="124" fill="#e8d8c8" r="17" stroke="#111" stroke-width="1" /><circle cx="321" cy="162" fill="#e8d8c8" r="8" stroke="#111" stroke-width="1" /><circle cx="226" cy="137" fill="#e8d8c8" r="10" stroke="#111" stroke-width="1" /><circle cx="288" cy="137" fill="#e8d8c8" r="7" stroke="#111" stroke-width="1" /><circle cx="304" cy="149" fill="#e8d8c8" r="12" stroke="#111" stroke-width="1" /><circle cx="299" cy="146" fill="#e8d8c8" r="7" stroke="#111" stroke-width="1" /><circle cx="239" cy="132" fill="#e8d8c8" r="13" stroke="#111" stroke-width="1" /><circle cx="300" cy="140" fill="#e8d8c8" r="16" stroke="#111" stroke-width="1" /><circle cx="260" cy="121" fill="#e8d8c8" r="8" stroke="#111" stroke-width="1" /><circle cx="311" cy="160" fill="#e8d8c8" r="14" stroke="#111" stroke-width="1" /><circle cx="246" cy="124" fill="#e8d8c8" r="17" stroke="#111" stroke-width="1" /><circle cx="241" cy="125" fill="#e8d8c8" r="14" stroke="#111" stroke-width="1" /><circle cx="276" cy="135" fill="#e8d8c8" r="15" stroke="#111" stroke-width="1" /><circle cx="237" cy="136" fill="#e8d8c8" r="12" stroke="#111" stroke-width="1" /><circle cx="256" cy="120" fill="#e8d8c8" r="9" stroke="#111" stroke-width="1" /><circle cx="230" cy="142" fill="#e8d8c8" r="7" stroke="#111" stroke-width="1" /><circle cx="229" cy="133" fill="#e8d8c8" r="13" stroke="#111" stroke-width="1" /><circle cx="298" cy="159" fill="#e8d8c8" r="10" stroke="#111" stroke-width="1" /><circle cx="222" cy="151" fill="#e8d8c8" r="7" stroke="#111" stroke-width="1" /><circle cx="215" cy="159" fill="#e8d8c8" r="15" stroke="#111" stroke-width="1" /><circle cx="232" cy="138" fill="#e8d8c8" r="8" stroke="#111" stroke-width="1" /><circle cx="253" cy="122" fill="#e8d8c8" r="17" stroke="#111" stroke-width="1" /><circle cx="292" cy="147" fill="#e8d8c8" r="8" stroke="#111" stroke-width="1" /><circle cx="194" cy="146" fill="#e8d8c8" r="11" stroke="#111" stroke-width="1" /></svg>