<?xml version="1.0" encoding="utf-8" ?>
<svg baseProfile="full" height="512" version="1.1" width="512" xmlns="http://www.w3.org/2000/svg" xmlns:ev="http://www.w3.org/2001/xml-events" xmlns:xlink="http://www.w3.org/1999/xlink"><defs /><polygon fill="#e8d8c8" points="205,122 256,91 307,122" stroke="#111" stroke-width="1" /><polygon fill="#000" points="205,122 256,111 307,122" stroke="none" /><polygon fill="#e8d8c8" points="218,129 256,100 294,129" stroke="#111" stroke-width="1" /><polygon fill="#000" points="218,129 256,119 294,129" stroke="none" /><polygon fill="#e8d8c8" points="199,129 208,161 190,141" stroke="#111" stroke-width="1" /><polygon fill="#e8d8c8" points="313,129 304,161 322,141" stroke="#111" stroke-width="1" /><polygon fill="#e8d8c8" points="294,122 326,116 338,173 332,224 307,199 300,148" stroke="#111" stroke-width="1" /><polygon fill="#000" points="294,122 326,116 300,148" stroke="#111" stroke-width="1" /><polygon fill="#e8d8c8" points="326,116 338,173 332,224" stroke="#111" stroke-width="1" /><polygon fill="#000" points="332,224 307,199 300,148" stroke="#111" stroke-width="1" /></svg>