<?xml version="1.0" encoding="utf-8" ?>
<svg baseProfile="full" height="512" version="1.1" width="512" xmlns="http://www.w3.org/2000/svg" xmlns:ev="http://www.w3.org/2001/xml-events" xmlns:xlink="http://www.w3.org/1999/xlink"><defs /><circle cx="267" cy="140" fill="#d4a030" r="6" stroke="#111" stroke-width="1" /><circle cx="260" cy="133" fill="#d4a030" r="12" stroke="#111" stroke-width="1" /><circle cx="209" cy="163" fill="#d4a030" r="12" stroke="#111" stroke-width="1" /><circle cx="259" cy="131" fill="#d4a030" r="12" stroke="#111" stroke-width="1" /><circle cx="209" cy="164" fill="#d4a030" r="6" stroke="#111" stroke-width="1" /><circle cx="247" cy="138" fill="#d4a030" r="11" stroke="#111" stroke-width="1" /><circle cx="238" cy="148" fill="#d4a030" r="13" stroke="#111" stroke-width="1" /><circle cx="296" cy="153" fill="#d4a030" r="8" stroke="#111" stroke-width="1" /><circle cx="201" cy="148" fill="#d4a030" r="9" stroke="#111" stroke-width="1" /><circle cx="295" cy="144" fill="#d4a030" r="10" stroke="#111" stroke-width="1" /><circle cx="279" cy="152" fill="#d4a030" r="7" stroke="#111" stroke-width="1" /><circle cx="237" cy="137" fill="#d4a030" r="12" stroke="#111" stroke-width="1" /><circle cx="282" cy="146" fill="#d4a030" r="13" stroke="#111" stroke-width="1" /><circle cx="218" cy="147" fill="#d4a030" r="10" stroke="#111" stroke-width="1" /><circle cx="242" cy="139" fill="#d4a030" r="8" stroke="#111" stroke-width="1" /><circle cx="316" cy="176" fill="#d4a030" r="11" stroke="#111" stroke-width="1" /><circle cx="197" cy="172" fill="#d4a030" r="6" stroke="#111" stroke-width="1" /><circle cx="205" cy="173" fill="#d4a030" r="9" stroke="#111" stroke-width="1" /><circle cx="316" cy="158" fill="#d4a030" r="9" stroke="#111" stroke-width="1" /><circle cx="201" cy="164" fill="#d4a030" r="12" stroke="#111" stroke-width="1" /><circle cx="282" cy="144" fill="#d4a030" r="15" stroke="#111" stroke-width="1" /><circle cx="276" cy="145" fill="#d4a030" r="8" stroke="#111" stroke-width="1" /><circle cx="205" cy="164" fill="#d4a030" r="15" stroke="#111" stroke-width="1" /><circle cx="259" cy="132" fill="#d4a030" r="8" stroke="#111" stroke-width="1" /><circle cx="319" cy="151" fill="#d4a030" r="10" stroke="#111" stroke-width="1" /><circle cx="209" cy="171" fill="#d4a030" r="9" stroke="#111" stroke-width="1" /><circle cx="288" cy="152" fill="#d4a030" r="10" stroke="#111" stroke-width="1" /><circle cx="204" cy="172" fill="#d4a030" r="14" stroke="#111" stroke-width="1" /><circle cx="224" cy="160" fill="#d4a030" r="8" stroke="#111" stroke-width="1" /><circle cx="240" cy="139" fill="#d4a030" r="10" stroke="#111" stroke-width="1" /><circle cx="272" cy="137" fill="#d4a030" r="11" stroke="#111" stroke-width="1" /><circle cx="225" cy="148" fill="#d4a030" r="12" stroke="#111" stroke-width="1" /><circle cx="284" cy="150" fill="#d4a030" r="14" stroke="#111" stroke-width="1" /><circle cx="238" cy="141" fill="#d4a030" r="15" stroke="#111" stroke-width="1" /><circle cx="320" cy="175" fill="#d4a030" r="8" stroke="#111" stroke-width="1" /><circle cx="210" cy="167" fill="#d4a030" r="11" stroke="#111" stroke-width="1" /><circle cx="252" cy="133" fill="#d4a030" r="14" stroke="#111" stroke-width="1" /><circle cx="238" cy="145" fill="#d4a030" r="7" stroke="#111" stroke-width="1" /><circle cx="297" cy="145" fill="#d4a030" r="6" stroke="#111" stroke-width="1" /><circle cx="257" cy="131" fill="#d4a030" r="15" stroke="#111" stroke-width="1" /><circle cx="256" cy="130" fill="#d4a030" r="11" stroke="#111" stroke-width="1" /><circle cx="241" cy="141" fill="#d4a030" r="15" stroke="#111" stroke-width="1" /><circle cx="302" cy="159" fill="#d4a030" r="14" stroke="#111" stroke-width="1" /><circle cx="194" cy="173" fill="#d4a030" r="12" stroke="#111" stroke-width="1" /><circle cx="294" cy="149" fill="#d4a030" r="11" stroke="#111" stroke-width="1" /><circle cx="233" cy="149" fill="#d4a030" r="8" stroke="#111" stroke-width="1" /><circle cx="217" cy="166" fill="#d4a030" r="10" stroke="#111" stroke-width="1" /><circle cx="210" cy="147" fill="#d4a030" r="7" stroke="#111" stroke-width="1" /><circle cx="291" cy="145" fill="#d4a030" r="11" stroke="#111" stroke-width="1" /><circle cx="266" cy="136" fill="#d4a030" r="10" stroke="#111" stroke-width="1" /><circle cx="252" cy="133" fill="#d4a030" r="13" stroke="#111" stroke-width="1" /><circle cx="266" cy="138" fill="#d4a030" r="8" stroke="#111" stroke-width="1" /><circle cx="197" cy="168" fill="#d4a030" r="11" stroke="#111" stroke-width="1" /><circle cx="314" cy="179" fill="#d4a030" r="9" stroke="#111" stroke-width="1" /><circle cx="218" cy="148" fill="#d4a030" r="12" stroke="#111" stroke-width="1" /><circle cx="241" cy="141" fill="#d4a030" r="10" stroke="#111" stroke-width="1" /><circle cx="225" cy="141" fill="#d4a030" r="13" stroke="#111" stroke-width="1" /><circle cx="270" cy="135" fill="#d4a030" r="15" stroke="#111" stroke-width="1" /><circle cx="225" cy="157" fill="#d4a030" r="13" stroke="#111" stroke-width="1" /><circle cx="280" cy="151" fill="#d4a030" r="12" stroke="#111" stroke-width="1" /><circle cx="211" cy="152" fill="#d4a030" r="15" stroke="#111" stroke-width="1" /><circle cx="287" cy="150" fill="#d4a030" r="12" stroke="#111" stroke-width="1" /><circle cx="264" cy="136" fill="#d4a030" r="10" stroke="#111" stroke-width="1" /><circle cx="311" cy="159" fill="#d4a030" r="11" stroke="#111" stroke-width="1" /><circle cx="258" cy="131" fill="#d4a030" r="6" stroke="#111" stroke-width="1" /><circle cx="191" cy="152" fill="#d4a030" r="11" stroke="#111" stroke-width="1" /><circle cx="214" cy="147" fill="#d4a030" r="14" stroke="#111" stroke-width="1" /><circle cx="301" cy="170" fill="#d4a030" r="12" stroke="#111" stroke-width="1" /><circle cx="226" cy="151" fill="#d4a030" r="8" stroke="#111" stroke-width="1" /><circle cx="265" cy="135" fill="#d4a030" r="15" stroke="#111" stroke-width="1" /><circle cx="245" cy="133" fill="#d4a030" r="11" stroke="#111" stroke-width="1" /><circle cx="293" cy="157" fill="#d4a030" r="7" stroke="#111" stroke-width="1" /><circle cx="215" cy="156" fill="#d4a030" r="6" stroke="#111" stroke-width="1" /><circle cx="284" cy="151" fill="#d4a030" r="9" stroke="#111" stroke-width="1" /><circle cx="255" cy="131" fill="#d4a030" r="15" stroke="#111" stroke-width="1" /><circle cx="299" cy="145" fill="#d4a030" r="8" stroke="#111" stroke-width="1" /><circle cx="277" cy="145" fill="#d4a030" r="13" stroke="#111" stroke-width="1" /><circle cx="282" cy="150" fill="#d4a030" r="8" stroke="#111" stroke-width="1" /><circle cx="273" cy="142" fill="#d4a030" r="11" stroke="#111" stroke-width="1" /><circle cx="236" cy="140" fill="#d4a030" r="8" stroke="#111" stroke-width="1" /><circle cx="252" cy="131" fill="#d4a030" r="11" stroke="#111" stroke-width="1" /><circle cx="302" cy="162" fill="#d4a030" r="15" stroke="#111" stroke-width="1" /><circle cx="235" cy="143" fill="#d4a030" r="9" stroke="#111" stroke-width="1" /><circle cx="241" cy="144" fill="#d4a030" r="8" stroke="#111" stroke-width="1" /><circle cx="253" cy="131" fill="#d4a030" r="7" stroke="#111" stroke-width="1" /><circle cx="292" cy="145" fill="#d4a030" r="11" stroke="#111" stroke-width="1" /><circle cx="208" cy="159" fill="#d4a030" r="7" stroke="#111" stroke-width="1" /><circle cx="261" cy="134" fill="#d4a030" r="14" stroke="#111" stroke-width="1" /><circle cx="287" cy="144" fill="#d4a030" r="10" stroke="#111" stroke-width="1" /><circle cx="270" cy="135" fill="#d4a030" r="10" stroke="#111" stroke-width="1" /><circle cx="238" cy="141" fill="#d4a030" r="7" stroke="#111" stroke-width="1" /><circle cx="233" cy="140" fill="#d4a030" r="13" stroke="#111" stroke-width="1" /><circle cx="270" cy="140" fill="#d4a030" r="11" stroke="#111" stroke-width="1" /><circle cx="217" cy="154" fill="#d4a030" r="7" stroke="#111" stroke-width="1" /><circle cx="244" cy="135" fill="#d4a030" r="8" stroke="#111" stroke-width="1" /><circle cx="198" cy="178" fill="#d4a030" r="10" stroke="#111" stroke-width="1" /><circle cx="207" cy="158" fill="#d4a030" r="7" stroke="#111" stroke-width="1" /><circle cx="282" cy="153" fill="#d4a030" r="13" stroke="#111" stroke-width="1" /><circle cx="276" cy="142" fill="#d4a030" r="11" stroke="#111" stroke-width="1" /><circle cx="246" cy="135" fill="#d4a030" r="11" stroke="#111" stroke-width="1" /><circle cx="260" cy="132" fill="#d4a030" r="10" stroke="#111" stroke-width="1" /><circle cx="306" cy="163" fill="#d4a030" r="15" stroke="#111" stroke-width="1" /><circle cx="269" cy="138" fill="#d4a030" r="12" stroke="#111" stroke-width="1" /><circle cx="198" cy="177" fill="#d4a030" r="7" stroke="#111" stroke-width="1" /><circle cx="252" cy="131" fill="#d4a030" r="14" stroke="#111" stroke-width="1" /><circle cx="319" cy="173" fill="#d4a030" r="13" stroke="#111" stroke-width="1" /><circle cx="235" cy="145" fill="#d4a030" r="7" stroke="#111" stroke-width="1" /><circle cx="261" cy="133" fill="#d4a030" r="11" stroke="#111" stroke-width="1" /><circle cx="251" cy="132" fill="#d4a030" r="13" stroke="#111" stroke-width="1" /><circle cx="295" cy="173" fill="#d4a030" r="7" stroke="#111" stroke-width="1" /><circle cx="312" cy="167" fill="#d4a030" r="14" stroke="#111" stroke-width="1" /><circle cx="200" cy="166" fill="#d4a030" r="10" stroke="#111" stroke-width="1" /><circle cx="212" cy="144" fill="#d4a030" r="6" stroke="#111" stroke-width="1" /><circle cx="245" cy="137" fill="#d4a030" r="14" stroke="#111" stroke-width="1" /><circle cx="220" cy="153" fill="#d4a030" r="10" stroke="#111" stroke-width="1" /><circle cx="209" cy="173" fill="#d4a030" r="12" stroke="#111" stroke-width="1" /><circle cx="307" cy="170" fill="#d4a030" r="8" stroke="#111" stroke-width="1" /><circle cx="206" cy="154" fill="#d4a030" r="10" stroke="#111" stroke-width="1" /><circle cx="236" cy="136" fill="#d4a030" r="7" stroke="#111" stroke-width="1" /><circle cx="268" cy="137" fill="#d4a030" r="9" stroke="#111" stroke-width="1" /><circle cx="280" cy="141" fill="#d4a030" r="9" stroke="#111" stroke-width="1" /><circle cx="216" cy="159" fill="#d4a030" r="6" stroke="#111" stroke-width="1" /><circle cx="300" cy="163" fill="#d4a030" r="15" stroke="#111" stroke-width="1" /><circle cx="215" cy="157" fill="#d4a030" r="12" stroke="#111" stroke-width="1" /><circle cx="199" cy="168" fill="#d4a030" r="7" stroke="#111" stroke-width="1" /><circle cx="230" cy="148" fill="#d4a030" r="7" stroke="#111" stroke-width="1" /><circle cx="219" cy="168" fill="#d4a030" r="6" stroke="#111" stroke-width="1" /><circle cx="289" cy="153" fill="#d4a030" r="14" stroke="#111" stroke-width="1" /><circle cx="233" cy="154" fill="#d4a030" r="11" stroke="#111" stroke-width="1" /></svg>