<?xml version="1.0" encoding="utf-8" ?>
<svg baseProfile="full" height="512" version="1.1" width="512" xmlns="http://www.w3.org/2000/svg" xmlns:ev="http://www.w3.org/2001/xml-events" xmlns:xlink="http://www.w3.org/1999/xlink"><defs /><polygon fill="#3a2a1a" points="243,100 256,80 269,100" stroke="#111" stroke-width="1" /><polygon fill="#000" points="243,100 256,93 269,100" stroke="none" /><polygon fill="#3a2a1a" points="188,113 208,94 228,113" stroke="#111" stroke-width="1" /><polygon fill="#000" points="188,113 208,106 228,113" stroke="none" /><polygon fill="#3a2a1a" points="194,120 208,155 180,134" stroke="#111" stroke-width="1" /><polygon fill="#3a2a1a" points="169,127 180,162 191,134" stroke="#111" stroke-width="1" /><polygon fill="#3a2a1a" points="243,100 256,80 269,100" stroke="#111" stroke-width="1" /><polygon fill="#000" points="243,100 256,93 269,100" stroke="none" /><polygon fill="#3a2a1a" points="284,113 304,94 324,113" stroke="#111" stroke-width="1" /><polygon fill="#000" points="284,113 304,106 324,113" stroke="none" /><polygon fill="#3a2a1a" points="318,120 304,155 332,134" stroke="#111" stroke-width="1" /><polygon fill="#3a2a1a" points="321,127 332,162 343,134" stroke="#111" stroke-width="1" /><polygon fill="#3a2a1a" points="201,134 256,106 311,134" stroke="#111" stroke-width="1" /><polygon fill="#000" points="201,134 256,124 311,134" stroke="none" /><polygon fill="#3a2a1a" points="222,141 256,120 290,141" stroke="#111" stroke-width="1" /><polygon fill="#000" points="222,141 256,134 290,141" stroke="none" /></svg>