<?xml version="1.0" encoding="utf-8" ?>
<svg baseProfile="full" height="512" version="1.1" width="512" xmlns="http://www.w3.org/2000/svg" xmlns:ev="http://www.w3.org/2001/xml-events" xmlns:xlink="http://www.w3.org/1999/xlink"><defs /><polygon fill="#222222" points="205,115 256,90 307,115" stroke="#111" stroke-width="1" /><polygon fill="#000" points="205,115 256,106 307,115" stroke="none" /><polygon fill="#222222" points="218,121 256,99 294,121" stroke="#111" stroke-width="1" /><polygon fill="#000" points="218,121 256,113 294,121" stroke="none" /><polygon fill="#222222" points="189,121 199,147 209,173" stroke="#111" stroke-width="1" /><polygon fill="#000" points="189,121 199,147 209,173" stroke="none" /><polygon fill="#222222" points="192,141 194,161 206,173" stroke="#111" stroke-width="1" /><polygon fill="#222222" points="303,121 313,147 323,173" stroke="#111" stroke-width="1" /><polygon fill="#000" points="303,121 313,147 323,173" stroke="none" /><polygon fill="#222222" points="306,141 318,161 320,173" stroke="#111" stroke-width="1" /><polygon fill="#222222" points="205,144 256,119 307,144" stroke="#111" stroke-width="1" /><polygon fill="#000" points="205,144 256,135 307,144" stroke="none" /><polygon fill="#222222" points="224,151 256,132 288,151" stroke="#111" stroke-width="1" /></svg>