<?xml version="1.0" encoding="utf-8" ?>
<svg baseProfile="full" height="512" version="1.1" width="512" xmlns="http://www.w3.org/2000/svg" xmlns:ev="http://www.w3.org/2001/xml-events" xmlns:xlink="http://www.w3.org/1999/xlink"><defs /><polygon fill="#2a1a0a" points="212,128 256,107 300,128" stroke="#111" stroke-width="1" /><polygon fill="#000" points="212,128 256,121 300,128" stroke="none" /><polygon fill="#2a1a0a" points="223,134 256,115 289,134" stroke="#111" stroke-width="1" /><polygon fill="#000" points="223,134 256,127 289,134" stroke="none" /><polygon fill="#2a1a0a" points="198,134 206,156 214,179" stroke="#111" stroke-width="1" /><polygon fill="#000" points="198,134 206,156 214,179" stroke="none" /><polygon fill="#2a1a0a" points="200,151 202,168 212,179" stroke="#111" stroke-width="1" /><polygon fill="#2a1a0a" points="298,134 306,156 314,179" stroke="#111" stroke-width="1" /><polygon fill="#000" points="298,134 306,156 314,179" stroke="none" /><polygon fill="#2a1a0a" points="300,151 310,168 312,179" stroke="#111" stroke-width="1" /><polygon fill="#2a1a0a" points="212,154 256,131 300,154" stroke="#111" stroke-width="1" /><polygon fill="#000" points="212,154 256,146 300,154" stroke="none" /><polygon fill="#2a1a0a" points="228,160 256,143 284,160" stroke="#111" stroke-width="1" /></svg>