<?xml version="1.0" encoding="utf-8" ?>
<svg baseProfile="full" height="512" version="1.1" width="512" xmlns="http://www.w3.org/2000/svg" xmlns:ev="http://www.w3.org/2001/xml-events" xmlns:xlink="http://www.w3.org/1999/xlink"><defs /><circle cx="273" cy="111" fill="#2a1a0a" r="8" stroke="#111" stroke-width="0.5" /><circle cx="253" cy="113" fill="#2a1a0a" r="8" stroke="#111" stroke-width="0.5" /><circle cx="237" cy="136" fill="#2a1a0a" r="8" stroke="#111" stroke-width="0.5" /><circle cx="249" cy="132" fill="#2a1a0a" r="4" stroke="#111" stroke-width="0.5" /><circle cx="265" cy="113" fill="#2a1a0a" r="8" stroke="#111" stroke-width="0.5" /><circle cx="298" cy="125" fill="#2a1a0a" r="7" stroke="#111" stroke-width="0.5" /><circle cx="196" cy="137" fill="#2a1a0a" r="8" stroke="#111" stroke-width="0.5" /><circle cx="265" cy="134" fill="#2a1a0a" r="6" stroke="#111" stroke-width="0.5" /><circle cx="247" cy="137" fill="#2a1a0a" r="8" stroke="#111" stroke-width="0.5" /><circle cx="229" cy="130" fill="#2a1a0a" r="8" stroke="#111" stroke-width="0.5" /><circle cx="227" cy="117" fill="#2a1a0a" r="8" stroke="#111" stroke-width="0.5" /><circle cx="283" cy="112" fill="#2a1a0a" r="8" stroke="#111" stroke-width="0.5" /><circle cx="272" cy="111" fill="#2a1a0a" r="4" stroke="#111" stroke-width="0.5" /><circle cx="198" cy="119" fill="#2a1a0a" r="8" stroke="#111" stroke-width="0.5" /><circle cx="229" cy="112" fill="#2a1a0a" r="5" stroke="#111" stroke-width="0.5" /><circle cx="193" cy="126" fill="#2a1a0a" r="7" stroke="#111" stroke-width="0.5" /><circle cx="238" cy="121" fill="#2a1a0a" r="4" stroke="#111" stroke-width="0.5" /><circle cx="226" cy="126" fill="#2a1a0a" r="8" stroke="#111" stroke-width="0.5" /><circle cx="202" cy="123" fill="#2a1a0a" r="5" stroke="#111" stroke-width="0.5" /><circle cx="306" cy="112" fill="#2a1a0a" r="7" stroke="#111" stroke-width="0.5" /><circle cx="262" cy="122" fill="#2a1a0a" r="7" stroke="#111" stroke-width="0.5" /><circle cx="214" cy="130" fill="#2a1a0a" r="8" stroke="#111" stroke-width="0.5" /><circle cx="293" cy="126" fill="#2a1a0a" r="5" stroke="#111" stroke-width="0.5" /><circle cx="193" cy="113" fill="#2a1a0a" r="8" stroke="#111" stroke-width="0.5" /><circle cx="243" cy="136" fill="#2a1a0a" r="6" stroke="#111" stroke-width="0.5" /><circle cx="202" cy="135" fill="#2a1a0a" r="8" stroke="#111" stroke-width="0.5" /><circle cx="223" cy="135" fill="#2a1a0a" r="7" stroke="#111" stroke-width="0.5" /><circle cx="305" cy="128" fill="#2a1a0a" r="7" stroke="#111" stroke-width="0.5" /><circle cx="274" cy="133" fill="#2a1a0a" r="6" stroke="#111" stroke-width="0.5" /><circle cx="274" cy="136" fill="#2a1a0a" r="6" stroke="#111" stroke-width="0.5" /><circle cx="292" cy="112" fill="#2a1a0a" r="5" stroke="#111" stroke-width="0.5" /><circle cx="222" cy="125" fill="#2a1a0a" r="6" stroke="#111" stroke-width="0.5" /><circle cx="233" cy="121" fill="#2a1a0a" r="7" stroke="#111" stroke-width="0.5" /><circle cx="281" cy="131" fill="#2a1a0a" r="6" stroke="#111" stroke-width="0.5" /><circle cx="193" cy="134" fill="#2a1a0a" r="8" stroke="#111" stroke-width="0.5" /><circle cx="232" cy="116" fill="#2a1a0a" r="6" stroke="#111" stroke-width="0.5" /><circle cx="242" cy="124" fill="#2a1a0a" r="6" stroke="#111" stroke-width="0.5" /><circle cx="259" cy="115" fill="#2a1a0a" r="6" stroke="#111" stroke-width="0.5" /><circle cx="263" cy="126" fill="#2a1a0a" r="7" stroke="#111" stroke-width="0.5" /><circle cx="251" cy="117" fill="#2a1a0a" r="4" stroke="#111" stroke-width="0.5" /><circle cx="252" cy="115" fill="#2a1a0a" r="8" stroke="#111" stroke-width="0.5" /><circle cx="314" cy="135" fill="#2a1a0a" r="8" stroke="#111" stroke-width="0.5" /><circle cx="285" cy="126" fill="#2a1a0a" r="8" stroke="#111" stroke-width="0.5" /><circle cx="190" cy="117" fill="#2a1a0a" r="8" stroke="#111" stroke-width="0.5" /><circle cx="203" cy="115" fill="#2a1a0a" r="7" stroke="#111" stroke-width="0.5" /><circle cx="293" cy="128" fill="#2a1a0a" r="4" stroke="#111" stroke-width="0.5" /><circle cx="274" cy="131" fill="#2a1a0a" r="4" stroke="#111" stroke-width="0.5" /><circle cx="322" cy="114" fill="#2a1a0a" r="8" stroke="#111" stroke-width="0.5" /><circle cx="314" cy="112" fill="#2a1a0a" r="8" stroke="#111" stroke-width="0.5" /><circle cx="285" cy="112" fill="#2a1a0a" r="5" stroke="#111" stroke-width="0.5" /><circle cx="301" cy="133" fill="#2a1a0a" r="8" stroke="#111" stroke-width="0.5" /><circle cx="238" cy="136" fill="#2a1a0a" r="8" stroke="#111" stroke-width="0.5" /><circle cx="271" cy="136" fill="#2a1a0a" r="4" stroke="#111" stroke-width="0.5" /><circle cx="281" cy="120" fill="#2a1a0a" r="7" stroke="#111" stroke-width="0.5" /><circle cx="241" cy="125" fill="#2a1a0a" r="7" stroke="#111" stroke-width="0.5" /><circle cx="253" cy="116" fill="#2a1a0a" r="7" stroke="#111" stroke-width="0.5" /><circle cx="310" cy="133" fill="#2a1a0a" r="5" stroke="#111" stroke-width="0.5" /><circle cx="321" cy="123" fill="#2a1a0a" r="4" stroke="#111" stroke-width="0.5" /><circle cx="256" cy="112" fill="#2a1a0a" r="8" stroke="#111" stroke-width="0.5" /><circle cx="240" cy="113" fill="#2a1a0a" r="4" stroke="#111" stroke-width="0.5" /><circle cx="218" cy="114" fill="#2a1a0a" r="7" stroke="#111" stroke-width="0.5" /><circle cx="269" cy="129" fill="#2a1a0a" r="6" stroke="#111" stroke-width="0.5" /><circle cx="289" cy="126" fill="#2a1a0a" r="4" stroke="#111" stroke-width="0.5" /><circle cx="248" cy="125" fill="#2a1a0a" r="6" stroke="#111" stroke-width="0.5" /><circle cx="280" cy="134" fill="#2a1a0a" r="4" stroke="#111" stroke-width="0.5" /><circle cx="252" cy="130" fill="#2a1a0a" r="5" stroke="#111" stroke-width="0.5" /><circle cx="306" cy="117" fill="#2a1a0a" r="8" stroke="#111" stroke-width="0.5" /><circle cx="236" cy="137" fill="#2a1a0a" r="7" stroke="#111" stroke-width="0.5" /><circle cx="252" cy="119" fill="#2a1a0a" r="8" stroke="#111" stroke-width="0.5" /><circle cx="214" cy="114" fill="#2a1a0a" r="7" stroke="#111" stroke-width="0.5" /><circle cx="227" cy="113" fill="#2a1a0a" r="7" stroke="#111" stroke-width="0.5" /><circle cx="248" cy="116" fill="#2a1a0a" r="4" stroke="#111" stroke-width="0.5" /><circle cx="247" cy="129" fill="#2a1a0a" r="4" stroke="#111" stroke-width="0.5" /><circle cx="292" cy="120" fill="#2a1a0a" r="8" stroke="#111" stroke-width="0.5" /><circle cx="200" cy="137" fill="#2a1a0a" r="6" stroke="#111" stroke-width="0.5" /><circle cx="260" cy="137" fill="#2a1a0a" r="8" stroke="#111" stroke-width="0.5" /><circle cx="308" cy="131" fill="#2a1a0a" r="8" stroke="#111" stroke-width="0.5" /><circle cx="260" cy="117" fill="#2a1a0a" r="7" stroke="#111" stroke-width="0.5" /><circle cx="251" cy="135" fill="#2a1a0a" r="8" stroke="#111" stroke-width="0.5" /><circle cx="288" cy="128" fill="#2a1a0a" r="4" stroke="#111" stroke-width="0.5" /><circle cx="234" cy="112" fill="#2a1a0a" r="6" stroke="#111" stroke-width="0.5" /><circle cx="246" cy="132" fill="#2a1a0a" r="6" stroke="#111" stroke-width="0.5" /><circle cx="205" cy="133" fill="#2a1a0a" r="6" stroke="#111" stroke-width="0.5" /><circle cx="311" cy="119" fill="#2a1a0a" r="6" stroke="#111" stroke-width="0.5" /><circle cx="192" cy="123" fill="#2a1a0a" r="8" stroke="#111" stroke-width="0.5" /><circle cx="298" cy="124" fill="#2a1a0a" r="6" stroke="#111" stroke-width="0.5" /><circle cx="310" cy="115" fill="#2a1a0a" r="7" stroke="#111" stroke-width="0.5" /><circle cx="236" cy="111" fill="#2a1a0a" r="4" stroke="#111" stroke-width="0.5" /><circle cx="211" cy="129" fill="#2a1a0a" r="8" stroke="#111" stroke-width="0.5" /><circle cx="226" cy="118" fill="#2a1a0a" r="6" stroke="#111" stroke-width="0.5" /><circle cx="235" cy="116" fill="#2a1a0a" r="8" stroke="#111" stroke-width="0.5" /><circle cx="271" cy="128" fill="#2a1a0a" r="8" stroke="#111" stroke-width="0.5" /><circle cx="276" cy="134" fill="#2a1a0a" r="4" stroke="#111" stroke-width="0.5" /><circle cx="191" cy="119" fill="#2a1a0a" r="5" stroke="#111" stroke-width="0.5" /><circle cx="228" cy="133" fill="#2a1a0a" r="8" stroke="#111" stroke-width="0.5" /><circle cx="224" cy="118" fill="#2a1a0a" r="8" stroke="#111" stroke-width="0.5" /><circle cx="316" cy="132" fill="#2a1a0a" r="7" stroke="#111" stroke-width="0.5" /><circle cx="224" cy="118" fill="#2a1a0a" r="5" stroke="#111" stroke-width="0.5" /><circle cx="313" cy="118" fill="#2a1a0a" r="5" stroke="#111" stroke-width="0.5" /><circle cx="192" cy="114" fill="#2a1a0a" r="4" stroke="#111" stroke-width="0.5" /><circle cx="309" cy="134" fill="#2a1a0a" r="8" stroke="#111" stroke-width="0.5" /><circle cx="268" cy="121" fill="#2a1a0a" r="5" stroke="#111" stroke-width="0.5" /><circle cx="265" cy="122" fill="#2a1a0a" r="8" stroke="#111" stroke-width="0.5" /><circle cx="212" cy="112" fill="#2a1a0a" r="8" stroke="#111" stroke-width="0.5" /><circle cx="287" cy="117" fill="#2a1a0a" r="6" stroke="#111" stroke-width="0.5" /><circle cx="252" cy="116" fill="#2a1a0a" r="5" stroke="#111" stroke-width="0.5" /><circle cx="223" cy="134" fill="#2a1a0a" r="4" stroke="#111" stroke-width="0.5" /><circle cx="214" cy="112" fill="#2a1a0a" r="5" stroke="#111" stroke-width="0.5" /><circle cx="226" cy="130" fill="#2a1a0a" r="7" stroke="#111" stroke-width="0.5" /><circle cx="233" cy="117" fill="#2a1a0a" r="6" stroke="#111" stroke-width="0.5" /><circle cx="239" cy="131" fill="#2a1a0a" r="4" stroke="#111" stroke-width="0.5" /><circle cx="253" cy="131" fill="#2a1a0a" r="8" stroke="#111" stroke-width="0.5" /><circle cx="234" cy="125" fill="#2a1a0a" r="8" stroke="#111" stroke-width="0.5" /><circle cx="259" cy="137" fill="#2a1a0a" r="4" stroke="#111" stroke-width="0.5" /><circle cx="221" cy="111" fill="#2a1a0a" r="4" stroke="#111" stroke-width="0.5" /><circle cx="222" cy="130" fill="#2a1a0a" r="6" stroke="#111" stroke-width="0.5" /><circle cx="255" cy="128" fill="#2a1a0a" r="7" stroke="#111" stroke-width="0.5" /><circle cx="227" cy="136" fill="#2a1a0a" r="6" stroke="#111" stroke-width="0.5" /><circle cx="260" cy="126" fill="#2a1a0a" r="4" stroke="#111" stroke-width="0.5" /><circle cx="258" cy="126" fill="#2a1a0a" r="5" stroke="#111" stroke-width="0.5" /><circle cx="254" cy="120" fill="#2a1a0a" r="8" stroke="#111" stroke-width="0.5" /><circle cx="236" cy="117" fill="#2a1a0a" r="7" stroke="#111" stroke-width="0.5" /><circle cx="263" cy="117" fill="#2a1a0a" r="8" stroke="#111" stroke-width="0.5" /><circle cx="260" cy="129" fill="#2a1a0a" r="7" stroke="#111" stroke-width="0.5" /><circle cx="316" cy="118" fill="#2a1a0a" r="6" stroke="#111" stroke-width="0.5" /><circle cx="314" cy="125" fill="#2a1a0a" r="7" stroke="#111" stroke-width="0.5" /><circle cx="283" cy="135" fill="#2a1a0a" r="7" stroke="#111" stroke-width="0.5" /><circle cx="196" cy="132" fill="#2a1a0a" r="6" stroke="#111" stroke-width="0.5" /><circle cx="292" cy="128" fill="#2a1a0a" r="8" stroke="#111" stroke-width="0.5" /><circle cx="201" cy="120" fill="#2a1a0a" r="5" stroke="#111" stroke-width="0.5" /><circle cx="292" cy="120" fill="#2a1a0a" r="6" stroke="#111" stroke-width="0.5" /><circle cx="264" cy="117" fill="#2a1a0a" r="4" stroke="#111" stroke-width="0.5" /><circle cx="196" cy="124" fill="#2a1a0a" r="6" stroke="#111" stroke-width="0.5" /><circle cx="210" cy="122" fill="#2a1a0a" r="5" stroke="#111" stroke-width="0.5" /><circle cx="197" cy="119" fill="#2a1a0a" r="7" stroke="#111" stroke-width="0.5" /><circle cx="302" cy="123" fill="#2a1a0a" r="7" stroke="#111" stroke-width="0.5" /><circle cx="237" cy="132" fill="#2a1a0a" r="7" stroke="#111" stroke-width="0.5" /><circle cx="267" cy="136" fill="#2a1a0a" r="5" stroke="#111" stroke-width="0.5" /><circle cx="283" cy="122" fill="#2a1a0a" r="7" stroke="#111" stroke-width="0.5" /><circle cx="218" cy="121" fill="#2a1a0a" r="6" stroke="#111" stroke-width="0.5" /><circle cx="241" cy="123" fill="#2a1a0a" r="4" stroke="#111" stroke-width="0.5" /><circle cx="203" cy="128" fill="#2a1a0a" r="8" stroke="#111" stroke-width="0.5" /><circle cx="301" cy="124" fill="#2a1a0a" r="5" stroke="#111" stroke-width="0.5" /><circle cx="223" cy="132" fill="#2a1a0a" r="8" stroke="#111" stroke-width="0.5" /><circle cx="306" cy="127" fill="#2a1a0a" r="5" stroke="#111" stroke-width="0.5" /><circle cx="300" cy="129" fill="#2a1a0a" r="5" stroke="#111" stroke-width="0.5" /><circle cx="275" cy="123" fill="#2a1a0a" r="8" stroke="#111" stroke-width="0.5" /><circle cx="233" cy="136" fill="#2a1a0a" r="4" stroke="#111" stroke-width="0.5" /><circle cx="235" cy="124" fill="#2a1a0a" r="4" stroke="#111" stroke-width="0.5" /><circle cx="215" cy="127" fill="#2a1a0a" r="5" stroke="#111" stroke-width="0.5" /><circle cx="293" cy="131" fill="#2a1a0a" r="4" stroke="#111" stroke-width="0.5" /><circle cx="308" cy="137" fill="#2a1a0a" r="7" stroke="#111" stroke-width="0.5" /><circle cx="283" cy="122" fill="#2a1a0a" r="6" stroke="#111" stroke-width="0.5" /><circle cx="194" cy="126" fill="#2a1a0a" r="5" stroke="#111" stroke-width="0.5" /><circle cx="244" cy="126" fill="#2a1a0a" r="4" stroke="#111" stroke-width="0.5" /><circle cx="290" cy="121" fill="#2a1a0a" r="5" stroke="#111" stroke-width="0.5" /><circle cx="316" cy="117" fill="#2a1a0a" r="6" stroke="#111" stroke-width="0.5" /><circle cx="196" cy="132" fill="#2a1a0a" r="8" stroke="#111" stroke-width="0.5" /><circle cx="196" cy="130" fill="#2a1a0a" r="8" stroke="#111" stroke-width="0.5" /><circle cx="220" cy="124" fill="#2a1a0a" r="5" stroke="#111" stroke-width="0.5" /><circle cx="248" cy="125" fill="#2a1a0a" r="5" stroke="#111" stroke-width="0.5" /><circle cx="226" cy="120" fill="#2a1a0a" r="5" stroke="#111" stroke-width="0.5" /><circle cx="301" cy="131" fill="#2a1a0a" r="4" stroke="#111" stroke-width="0.5" /><circle cx="246" cy="126" fill="#2a1a0a" r="4" stroke="#111" stroke-width="0.5" /><circle cx="216" cy="129" fill="#2a1a0a" r="5" stroke="#111" stroke-width="0.5" /><circle cx="321" cy="120" fill="#2a1a0a" r="7" stroke="#111" stroke-width="0.5" /></svg>