<?xml version="1.0" encoding="utf-8" ?>
<svg baseProfile="full" height="512" version="1.1" width="512" xmlns="http://www.w3.org/2000/svg" xmlns:ev="http://www.w3.org/2001/xml-events" xmlns:xlink="http://www.w3.org/1999/xlink"><defs /><polygon fill="#d4a030" points="217,131 256,110 295,131" stroke="#111" stroke-width="1" /><polygon fill="#000" points="217,131 256,124 295,131" stroke="none" /><polygon fill="#d4a030" points="228,136 256,118 284,136" stroke="#111" stroke-width="1" /><polygon fill="#000" points="228,136 256,130 284,136" stroke="none" /><polygon fill="#d4a030" points="217,156 256,134 295,156" stroke="#111" stroke-width="1" /><polygon fill="#000" points="217,156 256,148 295,156" stroke="none" /><polygon fill="#d4a030" points="209,128 225,128 230,190 223,218 211,218 204,190" stroke="#111" stroke-width="1" /><polygon fill="#000" points="209,128 225,128 230,190" stroke="#111" stroke-width="1" /><polygon fill="#d4a030" points="230,190 223,218 211,218" stroke="#111" stroke-width="1" /><polygon fill="#000" points="230,190 211,218 204,190" stroke="#111" stroke-width="1" /><polygon fill="#d4a030" points="287,128 303,128 308,190 301,218 289,218 282,190" stroke="#111" stroke-width="1" /><polygon fill="#000" points="287,128 303,128 308,190" stroke="#111" stroke-width="1" /><polygon fill="#d4a030" points="308,190 301,218 289,218" stroke="#111" stroke-width="1" /><polygon fill="#000" points="308,190 289,218 282,190" stroke="#111" stroke-width="1" /></svg>