<?xml version="1.0" encoding="utf-8" ?>
<svg baseProfile="full" height="512" version="1.1" width="512" xmlns="http://www.w3.org/2000/svg" xmlns:ev="http://www.w3.org/2001/xml-events" xmlns:xlink="http://www.w3.org/1999/xlink"><defs /><polygon fill="#3a2a1a" points="246,132 256,117 266,132" stroke="#111" stroke-width="1" /><polygon fill="#000" points="246,132 256,127 266,132" stroke="none" /><polygon fill="#3a2a1a" points="206,142 221,127 236,142" stroke="#111" stroke-width="1" /><polygon fill="#000" points="206,142 221,137 236,142" stroke="none" /><polygon fill="#3a2a1a" points="210,147 221,172 200,157" stroke="#111" stroke-width="1" /><polygon fill="#3a2a1a" points="192,152 200,178 208,157" stroke="#111" stroke-width="1" /><polygon fill="#3a2a1a" points="246,132 256,117 266,132" stroke="#111" stroke-width="1" /><polygon fill="#000" points="246,132 256,127 266,132" stroke="none" /><polygon fill="#3a2a1a" points="276,142 291,127 306,142" stroke="#111" stroke-width="1" /><polygon fill="#000" points="276,142 291,137 306,142" stroke="none" /><polygon fill="#3a2a1a" points="302,147 291,172 312,157" stroke="#111" stroke-width="1" /><polygon fill="#3a2a1a" points="304,152 312,178 320,157" stroke="#111" stroke-width="1" /><polygon fill="#3a2a1a" points="216,157 256,137 296,157" stroke="#111" stroke-width="1" /><polygon fill="#000" points="216,157 256,150 296,157" stroke="none" /><polygon fill="#3a2a1a" points="231,162 256,147 281,162" stroke="#111" stroke-width="1" /><polygon fill="#000" points="231,162 256,157 281,162" stroke="none" /></svg>