<?xml version="1.0" encoding="utf-8" ?>
<svg baseProfile="full" height="512" version="1.1" width="512" xmlns="http://www.w3.org/2000/svg" xmlns:ev="http://www.w3.org/2001/xml-events" xmlns:xlink="http://www.w3.org/1999/xlink"><defs /><polygon fill="#3a2a1a" points="210,116 256,91 302,116" stroke="#111" stroke-width="1" /><polygon fill="#000" points="210,116 256,107 302,116" stroke="none" /><polygon fill="#3a2a1a" points="223,121 256,100 289,121" stroke="#111" stroke-width="1" /><polygon fill="#000" points="223,121 256,114 289,121" stroke="none" /><polygon fill="#3a2a1a" points="210,145 256,119 302,145" stroke="#111" stroke-width="1" /><polygon fill="#000" points="210,145 256,136 302,145" stroke="none" /><polygon fill="#3a2a1a" points="200,112 220,112 225,185 217,218 203,218 195,185" stroke="#111" stroke-width="1" /><polygon fill="#000" points="200,112 220,112 225,185" stroke="#111" stroke-width="1" /><polygon fill="#3a2a1a" points="225,185 217,218 203,218" stroke="#111" stroke-width="1" /><polygon fill="#000" points="225,185 203,218 195,185" stroke="#111" stroke-width="1" /><polygon fill="#3a2a1a" points="292,112 312,112 317,185 309,218 295,218 287,185" stroke="#111" stroke-width="1" /><polygon fill="#000" points="292,112 312,112 317,185" stroke="#111" stroke-width="1" /><polygon fill="#3a2a1a" points="317,185 309,218 295,218" stroke="#111" stroke-width="1" /><polygon fill="#000" points="317,185 295,218 287,185" stroke="#111" stroke-width="1" /></svg>