<?xml version="1.0" encoding="utf-8" ?>
<svg baseProfile="full" height="512" version="1.1" width="512" xmlns="http://www.w3.org/2000/svg" xmlns:ev="http://www.w3.org/2001/xml-events" xmlns:xlink="http://www.w3.org/1999/xlink"><defs /><polygon fill="#1a1a2a" points="242,95 256,74 270,95" stroke="#111" stroke-width="1" /><polygon fill="#000" points="242,95 256,88 270,95" stroke="none" /><polygon fill="#1a1a2a" points="185,109 206,88 227,109" stroke="#111" stroke-width="1" /><polygon fill="#000" points="185,109 206,102 227,109" stroke="none" /><polygon fill="#1a1a2a" points="192,116 206,152 177,131" stroke="#111" stroke-width="1" /><polygon fill="#1a1a2a" points="166,123 177,159 188,131" stroke="#111" stroke-width="1" /><polygon fill="#1a1a2a" points="242,95 256,74 270,95" stroke="#111" stroke-width="1" /><polygon fill="#000" points="242,95 256,88 270,95" stroke="none" /><polygon fill="#1a1a2a" points="285,109 306,88 327,109" stroke="#111" stroke-width="1" /><polygon fill="#000" points="285,109 306,102 327,109" stroke="none" /><polygon fill="#1a1a2a" points="320,116 306,152 335,131" stroke="#111" stroke-width="1" /><polygon fill="#1a1a2a" points="324,123 335,159 346,131" stroke="#111" stroke-width="1" /><polygon fill="#1a1a2a" points="199,131 256,102 313,131" stroke="#111" stroke-width="1" /><polygon fill="#000" points="199,131 256,121 313,131" stroke="none" /><polygon fill="#1a1a2a" points="220,138 256,116 292,138" stroke="#111" stroke-width="1" /><polygon fill="#000" points="220,138 256,130 292,138" stroke="none" /></svg>