<?xml version="1.0" encoding="utf-8" ?>
<svg baseProfile="full" height="512" version="1.1" width="512" xmlns="http://www.w3.org/2000/svg" xmlns:ev="http://www.w3.org/2001/xml-events" xmlns:xlink="http://www.w3.org/1999/xlink"><defs /><circle cx="263" cy="130" fill="#d4a030" r="7" stroke="#111" stroke-width="0.5" /><circle cx="229" cy="118" fill="#d4a030" r="4" stroke="#111" stroke-width="0.5" /><circle cx="327" cy="107" fill="#d4a030" r="5" stroke="#111" stroke-width="0.5" /><circle cx="305" cy="131" fill="#d4a030" r="6" stroke="#111" stroke-width="0.5" /><circle cx="318" cy="117" fill="#d4a030" r="7" stroke="#111" stroke-width="0.5" /><circle cx="201" cy="113" fill="#d4a030" r="4" stroke="#111" stroke-width="0.5" /><circle cx="198" cy="123" fill="#d4a030" r="6" stroke="#111" stroke-width="0.5" /><circle cx="251" cy="114" fill="#d4a030" r="5" stroke="#111" stroke-width="0.5" /><circle cx="197" cy="122" fill="#d4a030" r="8" stroke="#111" stroke-width="0.5" /><circle cx="186" cy="115" fill="#d4a030" r="8" stroke="#111" stroke-width="0.5" /><circle cx="237" cy="103" fill="#d4a030" r="6" stroke="#111" stroke-width="0.5" /><circle cx="204" cy="112" fill="#d4a030" r="6" stroke="#111" stroke-width="0.5" /><circle cx="235" cy="115" fill="#d4a030" r="5" stroke="#111" stroke-width="0.5" /><circle cx="228" cy="111" fill="#d4a030" r="8" stroke="#111" stroke-width="0.5" /><circle cx="272" cy="118" fill="#d4a030" r="4" stroke="#111" stroke-width="0.5" /><circle cx="230" cy="102" fill="#d4a030" r="7" stroke="#111" stroke-width="0.5" /><circle cx="289" cy="112" fill="#d4a030" r="8" stroke="#111" stroke-width="0.5" /><circle cx="250" cy="123" fill="#d4a030" r="8" stroke="#111" stroke-width="0.5" /><circle cx="323" cy="102" fill="#d4a030" r="4" stroke="#111" stroke-width="0.5" /><circle cx="228" cy="116" fill="#d4a030" r="5" stroke="#111" stroke-width="0.5" /><circle cx="325" cy="126" fill="#d4a030" r="6" stroke="#111" stroke-width="0.5" /><circle cx="295" cy="127" fill="#d4a030" r="5" stroke="#111" stroke-width="0.5" /><circle cx="286" cy="108" fill="#d4a030" r="7" stroke="#111" stroke-width="0.5" /><circle cx="199" cy="104" fill="#d4a030" r="4" stroke="#111" stroke-width="0.5" /><circle cx="212" cy="126" fill="#d4a030" r="5" stroke="#111" stroke-width="0.5" /><circle cx="208" cy="131" fill="#d4a030" r="6" stroke="#111" stroke-width="0.5" /><circle cx="186" cy="130" fill="#d4a030" r="5" stroke="#111" stroke-width="0.5" /><circle cx="297" cy="108" fill="#d4a030" r="8" stroke="#111" stroke-width="0.5" /><circle cx="272" cy="131" fill="#d4a030" r="4" stroke="#111" stroke-width="0.5" /><circle cx="250" cy="128" fill="#d4a030" r="8" stroke="#111" stroke-width="0.5" /><circle cx="325" cy="122" fill="#d4a030" r="4" stroke="#111" stroke-width="0.5" /><circle cx="278" cy="110" fill="#d4a030" r="4" stroke="#111" stroke-width="0.5" /><circle cx="286" cy="130" fill="#d4a030" r="7" stroke="#111" stroke-width="0.5" /><circle cx="287" cy="111" fill="#d4a030" r="5" stroke="#111" stroke-width="0.5" /><circle cx="231" cy="107" fill="#d4a030" r="8" stroke="#111" stroke-width="0.5" /><circle cx="240" cy="127" fill="#d4a030" r="5" stroke="#111" stroke-width="0.5" /><circle cx="278" cy="110" fill="#d4a030" r="7" stroke="#111" stroke-width="0.5" /><circle cx="295" cy="114" fill="#d4a030" r="4" stroke="#111" stroke-width="0.5" /><circle cx="282" cy="102" fill="#d4a030" r="8" stroke="#111" stroke-width="0.5" /><circle cx="255" cy="121" fill="#d4a030" r="7" stroke="#111" stroke-width="0.5" /><circle cx="244" cy="124" fill="#d4a030" r="8" stroke="#111" stroke-width="0.5" /><circle cx="190" cy="124" fill="#d4a030" r="5" stroke="#111" stroke-width="0.5" /><circle cx="205" cy="106" fill="#d4a030" r="8" stroke="#111" stroke-width="0.5" /><circle cx="315" cy="121" fill="#d4a030" r="7" stroke="#111" stroke-width="0.5" /><circle cx="257" cy="126" fill="#d4a030" r="8" stroke="#111" stroke-width="0.5" /><circle cx="208" cy="109" fill="#d4a030" r="4" stroke="#111" stroke-width="0.5" /><circle cx="214" cy="126" fill="#d4a030" r="7" stroke="#111" stroke-width="0.5" /><circle cx="266" cy="113" fill="#d4a030" r="6" stroke="#111" stroke-width="0.5" /><circle cx="214" cy="102" fill="#d4a030" r="7" stroke="#111" stroke-width="0.5" /><circle cx="279" cy="112" fill="#d4a030" r="7" stroke="#111" stroke-width="0.5" /><circle cx="319" cy="118" fill="#d4a030" r="7" stroke="#111" stroke-width="0.5" /><circle cx="274" cy="128" fill="#d4a030" r="5" stroke="#111" stroke-width="0.5" /><circle cx="198" cy="123" fill="#d4a030" r="5" stroke="#111" stroke-width="0.5" /><circle cx="252" cy="104" fill="#d4a030" r="5" stroke="#111" stroke-width="0.5" /><circle cx="244" cy="108" fill="#d4a030" r="7" stroke="#111" stroke-width="0.5" /><circle cx="193" cy="127" fill="#d4a030" r="7" stroke="#111" stroke-width="0.5" /><circle cx="212" cy="121" fill="#d4a030" r="4" stroke="#111" stroke-width="0.5" /><circle cx="208" cy="113" fill="#d4a030" r="8" stroke="#111" stroke-width="0.5" /><circle cx="273" cy="114" fill="#d4a030" r="4" stroke="#111" stroke-width="0.5" /><circle cx="232" cy="125" fill="#d4a030" r="5" stroke="#111" stroke-width="0.5" /><circle cx="216" cy="119" fill="#d4a030" r="7" stroke="#111" stroke-width="0.5" /><circle cx="279" cy="104" fill="#d4a030" r="4" stroke="#111" stroke-width="0.5" /><circle cx="203" cy="103" fill="#d4a030" r="5" stroke="#111" stroke-width="0.5" /><circle cx="243" cy="116" fill="#d4a030" r="4" stroke="#111" stroke-width="0.5" /><circle cx="312" cy="104" fill="#d4a030" r="6" stroke="#111" stroke-width="0.5" /><circle cx="327" cy="115" fill="#d4a030" r="5" stroke="#111" stroke-width="0.5" /><circle cx="238" cy="128" fill="#d4a030" r="4" stroke="#111" stroke-width="0.5" /><circle cx="243" cy="108" fill="#d4a030" r="4" stroke="#111" stroke-width="0.5" /><circle cx="222" cy="118" fill="#d4a030" r="4" stroke="#111" stroke-width="0.5" /><circle cx="283" cy="131" fill="#d4a030" r="6" stroke="#111" stroke-width="0.5" /><circle cx="255" cy="110" fill="#d4a030" r="7" stroke="#111" stroke-width="0.5" /><circle cx="224" cy="128" fill="#d4a030" r="5" stroke="#111" stroke-width="0.5" /><circle cx="234" cy="112" fill="#d4a030" r="6" stroke="#111" stroke-width="0.5" /><circle cx="250" cy="113" fill="#d4a030" r="6" stroke="#111" stroke-width="0.5" /><circle cx="281" cy="130" fill="#d4a030" r="5" stroke="#111" stroke-width="0.5" /><circle cx="211" cy="118" fill="#d4a030" r="8" stroke="#111" stroke-width="0.5" /><circle cx="237" cy="124" fill="#d4a030" r="4" stroke="#111" stroke-width="0.5" /><circle cx="211" cy="126" fill="#d4a030" r="4" stroke="#111" stroke-width="0.5" /><circle cx="245" cy="110" fill="#d4a030" r="6" stroke="#111" stroke-width="0.5" /><circle cx="199" cy="114" fill="#d4a030" r="4" stroke="#111" stroke-width="0.5" /><circle cx="240" cy="121" fill="#d4a030" r="5" stroke="#111" stroke-width="0.5" /><circle cx="279" cy="113" fill="#d4a030" r="7" stroke="#111" stroke-width="0.5" /><circle cx="291" cy="119" fill="#d4a030" r="8" stroke="#111" stroke-width="0.5" /><circle cx="268" cy="129" fill="#d4a030" r="5" stroke="#111" stroke-width="0.5" /><circle cx="263" cy="114" fill="#d4a030" r="7" stroke="#111" stroke-width="0.5" /><circle cx="241" cy="108" fill="#d4a030" r="8" stroke="#111" stroke-width="0.5" /><circle cx="191" cy="110" fill="#d4a030" r="8" stroke="#111" stroke-width="0.5" /><circle cx="266" cy="128" fill="#d4a030" r="4" stroke="#111" stroke-width="0.5" /><circle cx="248" cy="102" fill="#d4a030" r="6" stroke="#111" stroke-width="0.5" /><circle cx="193" cy="117" fill="#d4a030" r="7" stroke="#111" stroke-width="0.5" /><circle cx="252" cy="108" fill="#d4a030" r="5" stroke="#111" stroke-width="0.5" /><circle cx="298" cy="109" fill="#d4a030" r="6" stroke="#111" stroke-width="0.5" /><circle cx="217" cy="109" fill="#d4a030" r="7" stroke="#111" stroke-width="0.5" /><circle cx="202" cy="128" fill="#d4a030" r="6" stroke="#111" stroke-width="0.5" /><circle cx="296" cy="113" fill="#d4a030" r="6" stroke="#111" stroke-width="0.5" /><circle cx="311" cy="110" fill="#d4a030" r="7" stroke="#111" stroke-width="0.5" /><circle cx="306" cy="108" fill="#d4a030" r="5" stroke="#111" stroke-width="0.5" /><circle cx="202" cy="120" fill="#d4a030" r="4" stroke="#111" stroke-width="0.5" /><circle cx="273" cy="122" fill="#d4a030" r="4" stroke="#111" stroke-width="0.5" /><circle cx="276" cy="127" fill="#d4a030" r="6" stroke="#111" stroke-width="0.5" /><circle cx="192" cy="125" fill="#d4a030" r="4" stroke="#111" stroke-width="0.5" /><circle cx="321" cy="107" fill="#d4a030" r="7" stroke="#111" stroke-width="0.5" /><circle cx="252" cy="120" fill="#d4a030" r="7" stroke="#111" stroke-width="0.5" /><circle cx="232" cy="103" fill="#d4a030" r="7" stroke="#111" stroke-width="0.5" /><circle cx="192" cy="117" fill="#d4a030" r="8" stroke="#111" stroke-width="0.5" /><circle cx="220" cy="107" fill="#d4a030" r="5" stroke="#111" stroke-width="0.5" /><circle cx="260" cy="117" fill="#d4a030" r="8" stroke="#111" stroke-width="0.5" /><circle cx="200" cy="118" fill="#d4a030" r="6" stroke="#111" stroke-width="0.5" /><circle cx="325" cy="116" fill="#d4a030" r="4" stroke="#111" stroke-width="0.5" /><circle cx="227" cy="130" fill="#d4a030" r="6" stroke="#111" stroke-width="0.5" /><circle cx="270" cy="110" fill="#d4a030" r="7" stroke="#111" stroke-width="0.5" /><circle cx="246" cy="108" fill="#d4a030" r="5" stroke="#111" stroke-width="0.5" /><circle cx="256" cy="111" fill="#d4a030" r="6" stroke="#111" stroke-width="0.5" /><circle cx="314" cy="129" fill="#d4a030" r="7" stroke="#111" stroke-width="0.5" /><circle cx="270" cy="117" fill="#d4a030" r="7" stroke="#111" stroke-width="0.5" /><circle cx="268" cy="121" fill="#d4a030" r="6" stroke="#111" stroke-width="0.5" /><circle cx="187" cy="105" fill="#d4a030" r="5" stroke="#111" stroke-width="0.5" /><circle cx="270" cy="109" fill="#d4a030" r="7" stroke="#111" stroke-width="0.5" /><circle cx="274" cy="125" fill="#d4a030" r="5" stroke="#111" stroke-width="0.5" /><circle cx="277" cy="129" fill="#d4a030" r="8" stroke="#111" stroke-width="0.5" /><circle cx="288" cy="109" fill="#d4a030" r="8" stroke="#111" stroke-width="0.5" /><circle cx="209" cy="110" fill="#d4a030" r="4" stroke="#111" stroke-width="0.5" /><circle cx="262" cy="119" fill="#d4a030" r="7" stroke="#111" stroke-width="0.5" /><circle cx="316" cy="103" fill="#d4a030" r="4" stroke="#111" stroke-width="0.5" /><circle cx="191" cy="115" fill="#d4a030" r="8" stroke="#111" stroke-width="0.5" /><circle cx="309" cy="118" fill="#d4a030" r="6" stroke="#111" stroke-width="0.5" /><circle cx="317" cy="104" fill="#d4a030" r="8" stroke="#111" stroke-width="0.5" /><circle cx="233" cy="112" fill="#d4a030" r="7" stroke="#111" stroke-width="0.5" /><circle cx="291" cy="103" fill="#d4a030" r="5" stroke="#111" stroke-width="0.5" /><circle cx="267" cy="115" fill="#d4a030" r="4" stroke="#111" stroke-width="0.5" /><circle cx="229" cy="110" fill="#d4a030" r="5" stroke="#111" stroke-width="0.5" /><circle cx="263" cy="117" fill="#d4a030" r="8" stroke="#111" stroke-width="0.5" /><circle cx="290" cy="127" fill="#d4a030" r="4" stroke="#111" stroke-width="0.5" /><circle cx="273" cy="108" fill="#d4a030" r="5" stroke="#111" stroke-width="0.5" /><circle cx="298" cy="112" fill="#d4a030" r="8" stroke="#111" stroke-width="0.5" /><circle cx="234" cy="126" fill="#d4a030" r="4" stroke="#111" stroke-width="0.5" /><circle cx="235" cy="120" fill="#d4a030" r="7" stroke="#111" stroke-width="0.5" /><circle cx="236" cy="117" fill="#d4a030" r="8" stroke="#111" stroke-width="0.5" /><circle cx="251" cy="124" fill="#d4a030" r="4" stroke="#111" stroke-width="0.5" /><circle cx="188" cy="110" fill="#d4a030" r="7" stroke="#111" stroke-width="0.5" /><circle cx="233" cy="118" fill="#d4a030" r="8" stroke="#111" stroke-width="0.5" /><circle cx="260" cy="105" fill="#d4a030" r="8" stroke="#111" stroke-width="0.5" /><circle cx="236" cy="131" fill="#d4a030" r="7" stroke="#111" stroke-width="0.5" /><circle cx="305" cy="119" fill="#d4a030" r="6" stroke="#111" stroke-width="0.5" /><circle cx="313" cy="126" fill="#d4a030" r="4" stroke="#111" stroke-width="0.5" /><circle cx="320" cy="111" fill="#d4a030" r="4" stroke="#111" stroke-width="0.5" /><circle cx="316" cy="112" fill="#d4a030" r="4" stroke="#111" stroke-width="0.5" /><circle cx="311" cy="109" fill="#d4a030" r="6" stroke="#111" stroke-width="0.5" /><circle cx="227" cy="114" fill="#d4a030" r="4" stroke="#111" stroke-width="0.5" /><circle cx="269" cy="127" fill="#d4a030" r="7" stroke="#111" stroke-width="0.5" /><circle cx="326" cy="108" fill="#d4a030" r="7" stroke="#111" stroke-width="0.5" /><circle cx="291" cy="115" fill="#d4a030" r="4" stroke="#111" stroke-width="0.5" /><circle cx="185" cy="121" fill="#d4a030" r="4" stroke="#111" stroke-width="0.5" /><circle cx="229" cy="111" fill="#d4a030" r="6" stroke="#111" stroke-width="0.5" /><circle cx="248" cy="102" fill="#d4a030" r="8" stroke="#111" stroke-width="0.5" /><circle cx="250" cy="110" fill="#d4a030" r="4" stroke="#111" stroke-width="0.5" /><circle cx="192" cy="128" fill="#d4a030" r="8" stroke="#111" stroke-width="0.5" /><circle cx="264" cy="121" fill="#d4a030" r="8" stroke="#111" stroke-width="0.5" /><circle cx="309" cy="111" fill="#d4a030" r="4" stroke="#111" stroke-width="0.5" /><circle cx="204" cy="125" fill="#d4a030" r="8" stroke="#111" stroke-width="0.5" /><circle cx="213" cy="115" fill="#d4a030" r="8" stroke="#111" stroke-width="0.5" /><circle cx="220" cy="106" fill="#d4a030" r="8" stroke="#111" stroke-width="0.5" /><circle cx="263" cy="114" fill="#d4a030" r="6" stroke="#111" stroke-width="0.5" /><circle cx="197" cy="127" fill="#d4a030" r="6" stroke="#111" stroke-width="0.5" /><circle cx="270" cy="115" fill="#d4a030" r="7" stroke="#111" stroke-width="0.5" /><circle cx="246" cy="110" fill="#d4a030" r="7" stroke="#111" stroke-width="0.5" /><circle cx="211" cy="111" fill="#d4a030" r="8" stroke="#111" stroke-width="0.5" /><circle cx="300" cy="110" fill="#d4a030" r="5" stroke="#111" stroke-width="0.5" /><circle cx="210" cy="122" fill="#d4a030" r="7" stroke="#111" stroke-width="0.5" /><circle cx="297" cy="125" fill="#d4a030" r="4" stroke="#111" stroke-width="0.5" /><circle cx="265" cy="127" fill="#d4a030" r="5" stroke="#111" stroke-width="0.5" /><circle cx="263" cy="122" fill="#d4a030" r="7" stroke="#111" stroke-width="0.5" /><circle cx="321" cy="105" fill="#d4a030" r="5" stroke="#111" stroke-width="0.5" /><circle cx="207" cy="106" fill="#d4a030" r="8" stroke="#111" stroke-width="0.5" /><circle cx="303" cy="120" fill="#d4a030" r="6" stroke="#111" stroke-width="0.5" /><circle cx="284" cy="131" fill="#d4a030" r="7" stroke="#111" stroke-width="0.5" /><circle cx="229" cy="110" fill="#d4a030" r="8" stroke="#111" stroke-width="0.5" /><circle cx="225" cy="117" fill="#d4a030" r="4" stroke="#111" stroke-width="0.5" /></svg>