<?xml version="1.0" encoding="utf-8" ?>
<svg baseProfile="full" height="512" version="1.1" width="512" xmlns="http://www.w3.org/2000/svg" xmlns:ev="http://www.w3.org/2001/xml-events" xmlns:xlink="http://www.w3.org/1999/xlink"><defs /><polygon fill="#d4a030" points="210,126 256,104 302,126" stroke="#111" stroke-width="1" /><polygon fill="#000" points="210,126 256,118 302,126" stroke="none" /><polygon fill="#d4a030" points="222,132 256,112 290,132" stroke="#111" stroke-width="1" /><polygon fill="#000" points="222,132 256,125 290,132" stroke="none" /><polygon fill="#d4a030" points="196,132 205,155 214,178" stroke="#111" stroke-width="1" /><polygon fill="#000" points="196,132 205,155 214,178" stroke="none" /><polygon fill="#d4a030" points="199,149 201,167 211,178" stroke="#111" stroke-width="1" /><polygon fill="#d4a030" points="298,132 307,155 316,178" stroke="#111" stroke-width="1" /><polygon fill="#000" points="298,132 307,155 316,178" stroke="none" /><polygon fill="#d4a030" points="301,149 311,167 313,178" stroke="#111" stroke-width="1" /><polygon fill="#d4a030" points="210,153 256,130 302,153" stroke="#111" stroke-width="1" /><polygon fill="#000" points="210,153 256,145 302,153" stroke="none" /><polygon fill="#d4a030" points="228,159 256,141 284,159" stroke="#111" stroke-width="1" /></svg>