<?xml version="1.0" encoding="utf-8" ?>
<svg baseProfile="full" height="512" version="1.1" width="512" xmlns="http://www.w3.org/2000/svg" xmlns:ev="http://www.w3.org/2001/xml-events" xmlns:xlink="http://www.w3.org/1999/xlink"><defs /><circle cx="246" cy="124" fill="#e8d8c8" r="3" stroke="#111" stroke-width="0.5" /><circle cx="240" cy="135" fill="#e8d8c8" r="3" stroke="#111" stroke-width="0.5" /><circle cx="316" cy="139" fill="#e8d8c8" r="6" stroke="#111" stroke-width="0.5" /><circle cx="312" cy="135" fill="#e8d8c8" r="6" stroke="#111" stroke-width="0.5" /><circle cx="242" cy="139" fill="#e8d8c8" r="4" stroke="#111" stroke-width="0.5" /><circle cx="248" cy="130" fill="#e8d8c8" r="3" stroke="#111" stroke-width="0.5" /><circle cx="312" cy="119" fill="#e8d8c8" r="5" stroke="#111" stroke-width="0.5" /><circle cx="277" cy="127" fill="#e8d8c8" r="6" stroke="#111" stroke-width="0.5" /><circle cx="203" cy="137" fill="#e8d8c8" r="3" stroke="#111" stroke-width="0.5" /><circle cx="288" cy="131" fill="#e8d8c8" r="7" stroke="#111" stroke-width="0.5" /><circle cx="236" cy="121" fill="#e8d8c8" r="6" stroke="#111" stroke-width="0.5" /><circle cx="275" cy="129" fill="#e8d8c8" r="6" stroke="#111" stroke-width="0.5" /><circle cx="229" cy="134" fill="#e8d8c8" r="3" stroke="#111" stroke-width="0.5" /><circle cx="268" cy="119" fill="#e8d8c8" r="5" stroke="#111" stroke-width="0.5" /><circle cx="278" cy="141" fill="#e8d8c8" r="3" stroke="#111" stroke-width="0.5" /><circle cx="277" cy="119" fill="#e8d8c8" r="5" stroke="#111" stroke-width="0.5" /><circle cx="307" cy="122" fill="#e8d8c8" r="5" stroke="#111" stroke-width="0.5" /><circle cx="290" cy="143" fill="#e8d8c8" r="4" stroke="#111" stroke-width="0.5" /><circle cx="290" cy="136" fill="#e8d8c8" r="4" stroke="#111" stroke-width="0.5" /><circle cx="244" cy="121" fill="#e8d8c8" r="6" stroke="#111" stroke-width="0.5" /><circle cx="222" cy="118" fill="#e8d8c8" r="4" stroke="#111" stroke-width="0.5" /><circle cx="221" cy="136" fill="#e8d8c8" r="7" stroke="#111" stroke-width="0.5" /><circle cx="265" cy="128" fill="#e8d8c8" r="3" stroke="#111" stroke-width="0.5" /><circle cx="230" cy="141" fill="#e8d8c8" r="7" stroke="#111" stroke-width="0.5" /><circle cx="234" cy="127" fill="#e8d8c8" r="6" stroke="#111" stroke-width="0.5" /><circle cx="260" cy="133" fill="#e8d8c8" r="6" stroke="#111" stroke-width="0.5" /><circle cx="299" cy="119" fill="#e8d8c8" r="3" stroke="#111" stroke-width="0.5" /><circle cx="317" cy="124" fill="#e8d8c8" r="4" stroke="#111" stroke-width="0.5" /><circle cx="257" cy="127" fill="#e8d8c8" r="7" stroke="#111" stroke-width="0.5" /><circle cx="239" cy="143" fill="#e8d8c8" r="3" stroke="#111" stroke-width="0.5" /><circle cx="204" cy="141" fill="#e8d8c8" r="5" stroke="#111" stroke-width="0.5" /><circle cx="303" cy="137" fill="#e8d8c8" r="5" stroke="#111" stroke-width="0.5" /><circle cx="208" cy="128" fill="#e8d8c8" r="6" stroke="#111" stroke-width="0.5" /><circle cx="228" cy="124" fill="#e8d8c8" r="3" stroke="#111" stroke-width="0.5" /><circle cx="227" cy="120" fill="#e8d8c8" r="5" stroke="#111" stroke-width="0.5" /><circle cx="226" cy="121" fill="#e8d8c8" r="4" stroke="#111" stroke-width="0.5" /><circle cx="201" cy="139" fill="#e8d8c8" r="6" stroke="#111" stroke-width="0.5" /><circle cx="230" cy="120" fill="#e8d8c8" r="7" stroke="#111" stroke-width="0.5" /><circle cx="199" cy="140" fill="#e8d8c8" r="4" stroke="#111" stroke-width="0.5" /><circle cx="227" cy="126" fill="#e8d8c8" r="4" stroke="#111" stroke-width="0.5" /><circle cx="288" cy="123" fill="#e8d8c8" r="5" stroke="#111" stroke-width="0.5" /><circle cx="225" cy="124" fill="#e8d8c8" r="7" stroke="#111" stroke-width="0.5" /><circle cx="314" cy="142" fill="#e8d8c8" r="3" stroke="#111" stroke-width="0.5" /><circle cx="246" cy="130" fill="#e8d8c8" r="7" stroke="#111" stroke-width="0.5" /><circle cx="252" cy="135" fill="#e8d8c8" r="5" stroke="#111" stroke-width="0.5" /><circle cx="252" cy="127" fill="#e8d8c8" r="3" stroke="#111" stroke-width="0.5" /><circle cx="303" cy="122" fill="#e8d8c8" r="4" stroke="#111" stroke-width="0.5" /><circle cx="217" cy="123" fill="#e8d8c8" r="6" stroke="#111" stroke-width="0.5" /><circle cx="251" cy="126" fill="#e8d8c8" r="4" stroke="#111" stroke-width="0.5" /><circle cx="313" cy="143" fill="#e8d8c8" r="6" stroke="#111" stroke-width="0.5" /><circle cx="195" cy="120" fill="#e8d8c8" r="5" stroke="#111" stroke-width="0.5" /><circle cx="243" cy="123" fill="#e8d8c8" r="6" stroke="#111" stroke-width="0.5" /><circle cx="274" cy="118" fill="#e8d8c8" r="7" stroke="#111" stroke-width="0.5" /><circle cx="269" cy="119" fill="#e8d8c8" r="6" stroke="#111" stroke-width="0.5" /><circle cx="241" cy="135" fill="#e8d8c8" r="3" stroke="#111" stroke-width="0.5" /><circle cx="296" cy="129" fill="#e8d8c8" r="4" stroke="#111" stroke-width="0.5" /><circle cx="247" cy="135" fill="#e8d8c8" r="4" stroke="#111" stroke-width="0.5" /><circle cx="267" cy="143" fill="#e8d8c8" r="3" stroke="#111" stroke-width="0.5" /><circle cx="292" cy="139" fill="#e8d8c8" r="3" stroke="#111" stroke-width="0.5" /><circle cx="229" cy="143" fill="#e8d8c8" r="7" stroke="#111" stroke-width="0.5" /><circle cx="242" cy="134" fill="#e8d8c8" r="7" stroke="#111" stroke-width="0.5" /><circle cx="200" cy="132" fill="#e8d8c8" r="4" stroke="#111" stroke-width="0.5" /><circle cx="227" cy="130" fill="#e8d8c8" r="5" stroke="#111" stroke-width="0.5" /><circle cx="289" cy="124" fill="#e8d8c8" r="5" stroke="#111" stroke-width="0.5" /><circle cx="260" cy="140" fill="#e8d8c8" r="5" stroke="#111" stroke-width="0.5" /><circle cx="288" cy="139" fill="#e8d8c8" r="6" stroke="#111" stroke-width="0.5" /><circle cx="282" cy="137" fill="#e8d8c8" r="6" stroke="#111" stroke-width="0.5" /><circle cx="288" cy="142" fill="#e8d8c8" r="7" stroke="#111" stroke-width="0.5" /><circle cx="212" cy="129" fill="#e8d8c8" r="3" stroke="#111" stroke-width="0.5" /><circle cx="310" cy="125" fill="#e8d8c8" r="6" stroke="#111" stroke-width="0.5" /><circle cx="284" cy="130" fill="#e8d8c8" r="5" stroke="#111" stroke-width="0.5" /><circle cx="306" cy="134" fill="#e8d8c8" r="3" stroke="#111" stroke-width="0.5" /><circle cx="273" cy="123" fill="#e8d8c8" r="5" stroke="#111" stroke-width="0.5" /><circle cx="204" cy="138" fill="#e8d8c8" r="6" stroke="#111" stroke-width="0.5" /><circle cx="283" cy="128" fill="#e8d8c8" r="3" stroke="#111" stroke-width="0.5" /><circle cx="264" cy="128" fill="#e8d8c8" r="3" stroke="#111" stroke-width="0.5" /><circle cx="260" cy="130" fill="#e8d8c8" r="7" stroke="#111" stroke-width="0.5" /><circle cx="227" cy="143" fill="#e8d8c8" r="7" stroke="#111" stroke-width="0.5" /><circle cx="303" cy="119" fill="#e8d8c8" r="3" stroke="#111" stroke-width="0.5" /><circle cx="245" cy="138" fill="#e8d8c8" r="5" stroke="#111" stroke-width="0.5" /><circle cx="239" cy="124" fill="#e8d8c8" r="3" stroke="#111" stroke-width="0.5" /><circle cx="214" cy="127" fill="#e8d8c8" r="4" stroke="#111" stroke-width="0.5" /><circle cx="257" cy="136" fill="#e8d8c8" r="3" stroke="#111" stroke-width="0.5" /><circle cx="266" cy="124" fill="#e8d8c8" r="4" stroke="#111" stroke-width="0.5" /><circle cx="199" cy="138" fill="#e8d8c8" r="6" stroke="#111" stroke-width="0.5" /><circle cx="237" cy="131" fill="#e8d8c8" r="3" stroke="#111" stroke-width="0.5" /><circle cx="304" cy="124" fill="#e8d8c8" r="6" stroke="#111" stroke-width="0.5" /><circle cx="266" cy="142" fill="#e8d8c8" r="6" stroke="#111" stroke-width="0.5" /><circle cx="270" cy="135" fill="#e8d8c8" r="6" stroke="#111" stroke-width="0.5" /><circle cx="217" cy="134" fill="#e8d8c8" r="7" stroke="#111" stroke-width="0.5" /><circle cx="310" cy="138" fill="#e8d8c8" r="5" stroke="#111" stroke-width="0.5" /><circle cx="262" cy="118" fill="#e8d8c8" r="7" stroke="#111" stroke-width="0.5" /><circle cx="274" cy="141" fill="#e8d8c8" r="3" stroke="#111" stroke-width="0.5" /><circle cx="204" cy="132" fill="#e8d8c8" r="5" stroke="#111" stroke-width="0.5" /><circle cx="268" cy="131" fill="#e8d8c8" r="3" stroke="#111" stroke-width="0.5" /><circle cx="291" cy="131" fill="#e8d8c8" r="7" stroke="#111" stroke-width="0.5" /><circle cx="317" cy="142" fill="#e8d8c8" r="5" stroke="#111" stroke-width="0.5" /><circle cx="282" cy="133" fill="#e8d8c8" r="7" stroke="#111" stroke-width="0.5" /><circle cx="198" cy="128" fill="#e8d8c8" r="6" stroke="#111" stroke-width="0.5" /><circle cx="261" cy="119" fill="#e8d8c8" r="4" stroke="#111" stroke-width="0.5" /><circle cx="223" cy="132" fill="#e8d8c8" r="5" stroke="#111" stroke-width="0.5" /><circle cx="272" cy="122" fill="#e8d8c8" r="7" stroke="#111" stroke-width="0.5" /><circle cx="289" cy="124" fill="#e8d8c8" r="6" stroke="#111" stroke-width="0.5" /><circle cx="269" cy="136" fill="#e8d8c8" r="6" stroke="#111" stroke-width="0.5" /><circle cx="283" cy="140" fill="#e8d8c8" r="5" stroke="#111" stroke-width="0.5" /><circle cx="213" cy="143" fill="#e8d8c8" r="5" stroke="#111" stroke-width="0.5" /><circle cx="297" cy="131" fill="#e8d8c8" r="7" stroke="#111" stroke-width="0.5" /><circle cx="271" cy="131" fill="#e8d8c8" r="6" stroke="#111" stroke-width="0.5" /><circle cx="285" cy="133" fill="#e8d8c8" r="7" stroke="#111" stroke-width="0.5" /><circle cx="213" cy="122" fill="#e8d8c8" r="3" stroke="#111" stroke-width="0.5" /><circle cx="262" cy="123" fill="#e8d8c8" r="3" stroke="#111" stroke-width="0.5" /><circle cx="309" cy="120" fill="#e8d8c8" r="3" stroke="#111" stroke-width="0.5" /><circle cx="294" cy="122" fill="#e8d8c8" r="6" stroke="#111" stroke-width="0.5" /><circle cx="290" cy="123" fill="#e8d8c8" r="4" stroke="#111" stroke-width="0.5" /><circle cx="289" cy="133" fill="#e8d8c8" r="5" stroke="#111" stroke-width="0.5" /><circle cx="202" cy="141" fill="#e8d8c8" r="6" stroke="#111" stroke-width="0.5" /><circle cx="306" cy="128" fill="#e8d8c8" r="5" stroke="#111" stroke-width="0.5" /><circle cx="199" cy="143" fill="#e8d8c8" r="6" stroke="#111" stroke-width="0.5" /><circle cx="222" cy="129" fill="#e8d8c8" r="6" stroke="#111" stroke-width="0.5" /><circle cx="274" cy="128" fill="#e8d8c8" r="3" stroke="#111" stroke-width="0.5" /><circle cx="269" cy="129" fill="#e8d8c8" r="7" stroke="#111" stroke-width="0.5" /><circle cx="228" cy="133" fill="#e8d8c8" r="4" stroke="#111" stroke-width="0.5" /><circle cx="239" cy="135" fill="#e8d8c8" r="4" stroke="#111" stroke-width="0.5" /><circle cx="245" cy="125" fill="#e8d8c8" r="6" stroke="#111" stroke-width="0.5" /><circle cx="218" cy="130" fill="#e8d8c8" r="6" stroke="#111" stroke-width="0.5" /><circle cx="197" cy="133" fill="#e8d8c8" r="5" stroke="#111" stroke-width="0.5" /><circle cx="267" cy="123" fill="#e8d8c8" r="3" stroke="#111" stroke-width="0.5" /><circle cx="198" cy="138" fill="#e8d8c8" r="3" stroke="#111" stroke-width="0.5" /><circle cx="204" cy="127" fill="#e8d8c8" r="6" stroke="#111" stroke-width="0.5" /><circle cx="238" cy="123" fill="#e8d8c8" r="6" stroke="#111" stroke-width="0.5" /><circle cx="284" cy="141" fill="#e8d8c8" r="3" stroke="#111" stroke-width="0.5" /><circle cx="241" cy="138" fill="#e8d8c8" r="7" stroke="#111" stroke-width="0.5" /><circle cx="205" cy="125" fill="#e8d8c8" r="4" stroke="#111" stroke-width="0.5" /><circle cx="244" cy="125" fill="#e8d8c8" r="7" stroke="#111" stroke-width="0.5" /><circle cx="201" cy="141" fill="#e8d8c8" r="6" stroke="#111" stroke-width="0.5" /><circle cx="302" cy="136" fill="#e8d8c8" r="3" stroke="#111" stroke-width="0.5" /><circle cx="317" cy="119" fill="#e8d8c8" r="3" stroke="#111" stroke-width="0.5" /><circle cx="282" cy="140" fill="#e8d8c8" r="5" stroke="#111" stroke-width="0.5" /><circle cx="218" cy="121" fill="#e8d8c8" r="6" stroke="#111" stroke-width="0.5" /><circle cx="253" cy="138" fill="#e8d8c8" r="3" stroke="#111" stroke-width="0.5" /><circle cx="227" cy="131" fill="#e8d8c8" r="4" stroke="#111" stroke-width="0.5" /><circle cx="243" cy="119" fill="#e8d8c8" r="3" stroke="#111" stroke-width="0.5" /><circle cx="291" cy="140" fill="#e8d8c8" r="3" stroke="#111" stroke-width="0.5" /><circle cx="229" cy="127" fill="#e8d8c8" r="3" stroke="#111" stroke-width="0.5" /><circle cx="284" cy="138" fill="#e8d8c8" r="7" stroke="#111" stroke-width="0.5" /><circle cx="212" cy="132" fill="#e8d8c8" r="3" stroke="#111" stroke-width="0.5" /><circle cx="313" cy="143" fill="#e8d8c8" r="7" stroke="#111" stroke-width="0.5" /><circle cx="316" cy="140" fill="#e8d8c8" r="4" stroke="#111" stroke-width="0.5" /><circle cx="206" cy="141" fill="#e8d8c8" r="3" stroke="#111" stroke-width="0.5" /><circle cx="211" cy="124" fill="#e8d8c8" r="5" stroke="#111" stroke-width="0.5" /><circle cx="297" cy="123" fill="#e8d8c8" r="7" stroke="#111" stroke-width="0.5" /><circle cx="277" cy="119" fill="#e8d8c8" r="5" stroke="#111" stroke-width="0.5" /><circle cx="317" cy="132" fill="#e8d8c8" r="5" stroke="#111" stroke-width="0.5" /><circle cx="232" cy="120" fill="#e8d8c8" r="6" stroke="#111" stroke-width="0.5" /></svg>