<?xml version="1.0" encoding="utf-8" ?>
<svg baseProfile="full" height="512" version="1.1" width="512" xmlns="http://www.w3.org/2000/svg" xmlns:ev="http://www.w3.org/2001/xml-events" xmlns:xlink="http://www.w3.org/1999/xlink"><defs /><polygon fill="#d4a030" points="213,135 256,109 299,135" stroke="#111" stroke-width="1" /><polygon fill="#000" points="213,135 256,126 299,135" stroke="none" /><polygon fill="#d4a030" points="224,141 256,117 288,141" stroke="#111" stroke-width="1" /><polygon fill="#000" points="224,141 256,133 288,141" stroke="none" /><polygon fill="#d4a030" points="207,141 215,168 200,152" stroke="#111" stroke-width="1" /><polygon fill="#d4a030" points="305,141 297,168 312,152" stroke="#111" stroke-width="1" /><polygon fill="#d4a030" points="288,135 316,130 327,179 321,223 299,201 294,157" stroke="#111" stroke-width="1" /><polygon fill="#000" points="288,135 316,130 294,157" stroke="#111" stroke-width="1" /><polygon fill="#d4a030" points="316,130 327,179 321,223" stroke="#111" stroke-width="1" /><polygon fill="#000" points="321,223 299,201 294,157" stroke="#111" stroke-width="1" /></svg>