<?xml version="1.0" encoding="utf-8" ?>
<svg baseProfile="full" height="512" version="1.1" width="512" xmlns="http://www.w3.org/2000/svg" xmlns:ev="http://www.w3.org/2001/xml-events" xmlns:xlink="http://www.w3.org/1999/xlink"><defs /><polygon fill="#e8d8c8" points="213,123 256,100 299,123" stroke="#111" stroke-width="1" /><polygon fill="#000" points="213,123 256,115 299,123" stroke="none" /><polygon fill="#e8d8c8" points="226,128 256,108 286,128" stroke="#111" stroke-width="1" /><polygon fill="#000" points="226,128 256,121 286,128" stroke="none" /><polygon fill="#e8d8c8" points="213,151 256,126 299,151" stroke="#111" stroke-width="1" /><polygon fill="#000" points="213,151 256,142 299,151" stroke="none" /><polygon fill="#e8d8c8" points="204,120 222,120 227,188 220,219 206,219 199,188" stroke="#111" stroke-width="1" /><polygon fill="#000" points="204,120 222,120 227,188" stroke="#111" stroke-width="1" /><polygon fill="#e8d8c8" points="227,188 220,219 206,219" stroke="#111" stroke-width="1" /><polygon fill="#000" points="227,188 206,219 199,188" stroke="#111" stroke-width="1" /><polygon fill="#e8d8c8" points="290,120 308,120 313,188 306,219 292,219 285,188" stroke="#111" stroke-width="1" /><polygon fill="#000" points="290,120 308,120 313,188" stroke="#111" stroke-width="1" /><polygon fill="#e8d8c8" points="313,188 306,219 292,219" stroke="#111" stroke-width="1" /><polygon fill="#000" points="313,188 292,219 285,188" stroke="#111" stroke-width="1" /></svg>