<?xml version="1.0" encoding="utf-8" ?>
<svg baseProfile="full" height="512" version="1.1" width="512" xmlns="http://www.w3.org/2000/svg" xmlns:ev="http://www.w3.org/2001/xml-events" xmlns:xlink="http://www.w3.org/1999/xlink"><defs /><polygon fill="#3a2a1a" points="211,133 256,105 301,133" stroke="#111" stroke-width="1" /><polygon fill="#000" points="211,133 256,123 301,133" stroke="none" /><polygon fill="#3a2a1a" points="222,139 256,113 290,139" stroke="#111" stroke-width="1" /><polygon fill="#000" points="222,139 256,130 290,139" stroke="none" /><polygon fill="#3a2a1a" points="205,139 213,167 197,150" stroke="#111" stroke-width="1" /><polygon fill="#3a2a1a" points="307,139 299,167 315,150" stroke="#111" stroke-width="1" /><polygon fill="#3a2a1a" points="290,133 318,127 330,179 324,224 301,201 295,156" stroke="#111" stroke-width="1" /><polygon fill="#000" points="290,133 318,127 295,156" stroke="#111" stroke-width="1" /><polygon fill="#3a2a1a" points="318,127 330,179 324,224" stroke="#111" stroke-width="1" /><polygon fill="#000" points="324,224 301,201 295,156" stroke="#111" stroke-width="1" /></svg>