<?xml version="1.0" encoding="utf-8" ?>
<svg baseProfile="full" height="512" version="1.1" width="512" xmlns="http://www.w3.org/2000/svg" xmlns:ev="http://www.w3.org/2001/xml-events" xmlns:xlink="http://www.w3.org/1999/xlink"><defs /><polygon fill="#222222" points="219,137 256,117 293,137" stroke="#111" stroke-width="1" /><polygon fill="#000" points="219,137 256,130 293,137" stroke="none" /><polygon fill="#222222" points="230,141 256,124 282,141" stroke="#111" stroke-width="1" /><polygon fill="#000" points="230,141 256,135 282,141" stroke="none" /><polygon fill="#222222" points="219,160 256,139 293,160" stroke="#111" stroke-width="1" /><polygon fill="#000" points="219,160 256,153 293,160" stroke="none" /><polygon fill="#222222" points="211,134 227,134 231,192 225,219 213,219 207,192" stroke="#111" stroke-width="1" /><polygon fill="#000" points="211,134 227,134 231,192" stroke="#111" stroke-width="1" /><polygon fill="#222222" points="231,192 225,219 213,219" stroke="#111" stroke-width="1" /><polygon fill="#000" points="231,192 213,219 207,192" stroke="#111" stroke-width="1" /><polygon fill="#222222" points="285,134 301,134 305,192 299,219 287,219 281,192" stroke="#111" stroke-width="1" /><polygon fill="#000" points="285,134 301,134 305,192" stroke="#111" stroke-width="1" /><polygon fill="#222222" points="305,192 299,219 287,219" stroke="#111" stroke-width="1" /><polygon fill="#000" points="305,192 287,219 281,192" stroke="#111" stroke-width="1" /></svg>