<?xml version="1.0" encoding="utf-8" ?>
<svg baseProfile="full" height="512" version="1.1" width="512" xmlns="http://www.w3.org/2000/svg" xmlns:ev="http://www.w3.org/2001/xml-events" xmlns:xlink="http://www.w3.org/1999/xlink"><defs /><polygon fill="#f9db54" points="256.0,139.5 237.18,139.5 254.0,157.21" stroke="none" /><polygon fill="#f8d84c" points="237.18,139.5 236.10821853638038,157.21 254.0,157.21" stroke="none" /><polygon fill="#f6d441" points="237.18,139.5 224.68,139.5 236.10821853638038,157.21" stroke="none" /><polygon fill="#f6d33e" points="224.68,139.5 227.31141439727463,157.21 236.10821853638038,157.21" stroke="none" /><polygon fill="#f5d035" points="224.68,139.5 213.88,139.5 227.31141439727463,157.21" stroke="none" /><polygon fill="#f4ce31" points="213.88,139.5 213.07397108599002,157.21 227.31141439727463,157.21" stroke="none" /><polygon fill="#f3cb28" points="213.88,139.5 202.0,139.5 213.07397108599002,157.21" stroke="none" /><polygon fill="#f3ca24" points="202.0,139.5 201.81278344357696,157.21 213.07397108599002,157.21" stroke="none" /><polygon fill="#f4cf33" points="202.0,139.5 255,139.5 201.81278344357696,157.21" stroke="none" /><polygon fill="#f7d647" points="255,139.5 256,157.21 201.81278344357696,157.21" stroke="none" /><polygon fill="#f9dd5b" points="255,139.5 256.0,139.5 256,157.21" stroke="none" /><polygon fill="#f9dd5a" points="256.0,139.5 259.0,157.21 256,157.21" stroke="none" /><polygon fill="#f9db54" points="256.0,139.5 273.82,139.5 259.0,157.21" stroke="none" /><polygon fill="#f8d94f" points="273.82,139.5 269.8917814636196,157.21 259.0,157.21" stroke="none" /><polygon fill="#f7d544" points="273.82,139.5 287.32,139.5 269.8917814636196,157.21" stroke="none" /><polygon fill="#f6d33e" points="287.32,139.5 288.68858560272537,157.21 269.8917814636196,157.21" stroke="none" /><polygon fill="#f5cf34" points="287.32,139.5 299.12,139.5 288.68858560272537,157.21" stroke="none" /><polygon fill="#f4ce30" points="299.12,139.5 297.92602891401,157.21 288.68858560272537,157.21" stroke="none" /><polygon fill="#f3cb28" points="299.12,139.5 310.0,139.5 297.92602891401,157.21" stroke="none" /><polygon fill="#f3ca25" points="310.0,139.5 306.18721655642304,157.21 297.92602891401,157.21" stroke="none" /><polygon fill="#f9db54" points="254.0,157.21 236.10821853638038,157.21 259.0,175.725" stroke="none" /><polygon fill="#f7d74c" points="236.10821853638038,157.21 239.42860352660662,175.725 259.0,175.725" stroke="none" /><polygon fill="#f6d543" points="236.10821853638038,157.21 227.31141439727463,157.21 239.42860352660662,175.725" stroke="none" /><polygon fill="#f5d13e" points="227.31141439727463,157.21 227.11693953161165,175.725 239.42860352660662,175.725" stroke="none" /><polygon fill="#f5d036" points="227.31141439727463,157.21 213.07397108599002,157.21 227.11693953161165,175.725" stroke="none" /><polygon fill="#f3cc31" points="213.07397108599002,157.21 217.46760833561567,175.725 227.11693953161165,175.725" stroke="none" /><polygon fill="#f3cb29" points="213.07397108599002,157.21 201.81278344357696,157.21 217.46760833561567,175.725" stroke="none" /><polygon fill="#f1c723" points="201.81278344357696,157.21 199.75334402002008,175.725 217.46760833561567,175.725" stroke="none" /><polygon fill="#f4cf32" points="201.81278344357696,157.21 256,157.21 199.75334402002008,175.725" stroke="none" /><polygon fill="#f6d444" points="256,157.21 256,175.725 199.75334402002008,175.725" stroke="none" /><polygon fill="#f9dd5a" points="256,157.21 259.0,157.21 256,175.725" stroke="none" /><polygon fill="#f8db57" points="259.0,157.21 256.0,175.725 256,175.725" stroke="none" /><polygon fill="#f9db55" points="259.0,157.21 269.8917814636196,157.21 256.0,175.725" stroke="none" /><polygon fill="#f7d74c" points="269.8917814636196,157.21 275.57139647339335,175.725 256.0,175.725" stroke="none" /><polygon fill="#f6d543" points="269.8917814636196,157.21 288.68858560272537,157.21 275.57139647339335,175.725" stroke="none" /><polygon fill="#f4d03b" points="288.68858560272537,157.21 285.88306046838835,175.725 275.57139647339335,175.725" stroke="none" /><polygon fill="#f5d034" points="288.68858560272537,157.21 297.92602891401,157.21 285.88306046838835,175.725" stroke="none" /><polygon fill="#f2cb2f" points="297.92602891401,157.21 298.53239166438436,175.725 285.88306046838835,175.725" stroke="none" /><polygon fill="#f3cc29" points="297.92602891401,157.21 306.18721655642304,157.21 298.53239166438436,175.725" stroke="none" /><polygon fill="#f1c725" points="306.18721655642304,157.21 307.2466559799799,175.725 298.53239166438436,175.725" stroke="none" /><polygon fill="#f6d74e" points="259.0,175.725 239.42860352660662,175.725 255.0,191.825" stroke="none" /><polygon fill="#f5d345" points="239.42860352660662,175.725 241.2031028102777,191.825 255.0,191.825" stroke="none" /><polygon fill="#f3d03f" points="239.42860352660662,175.725 227.11693953161165,175.725 241.2031028102777,191.825" stroke="none" /><polygon fill="#f1cc38" points="227.11693953161165,175.725 224.4781806968517,191.825 241.2031028102777,191.825" stroke="none" /><polygon fill="#f0ca32" points="227.11693953161165,175.725 217.46760833561567,175.725 224.4781806968517,191.825" stroke="none" /><polygon fill="#eec72d" points="217.46760833561567,175.725 217.29824300611088,191.825 224.4781806968517,191.825" stroke="none" /><polygon fill="#eec527" points="217.46760833561567,175.725 199.75334402002008,175.725 217.29824300611088,191.825" stroke="none" /><polygon fill="#ebc121" points="199.75334402002008,175.725 202.100311546296,191.825 217.29824300611088,191.825" stroke="none" /><polygon fill="#efc92f" points="199.75334402002008,175.725 256,175.725 202.100311546296,191.825" stroke="none" /><polygon fill="#f3d03f" points="256,175.725 256,191.825 202.100311546296,191.825" stroke="none" /><polygon fill="#f8da53" points="256,175.725 256.0,175.725 256,191.825" stroke="none" /><polygon fill="#f8d950" points="256.0,175.725 256.0,191.825 256,191.825" stroke="none" /><polygon fill="#f6d64c" points="256.0,175.725 275.57139647339335,175.725 256.0,191.825" stroke="none" /><polygon fill="#f5d345" points="275.57139647339335,175.725 270.7968971897223,191.825 256.0,191.825" stroke="none" /><polygon fill="#f3d03e" points="275.57139647339335,175.725 285.88306046838835,175.725 270.7968971897223,191.825" stroke="none" /><polygon fill="#f1cc38" points="285.88306046838835,175.725 287.52181930314833,191.825 270.7968971897223,191.825" stroke="none" /><polygon fill="#f0ca31" points="285.88306046838835,175.725 298.53239166438436,175.725 287.52181930314833,191.825" stroke="none" /><polygon fill="#eec72d" points="298.53239166438436,175.725 292.7017569938891,191.825 287.52181930314833,191.825" stroke="none" /><polygon fill="#eec528" points="298.53239166438436,175.725 307.2466559799799,175.725 292.7017569938891,191.825" stroke="none" /><polygon fill="#ecc325" points="307.2466559799799,175.725 303.899688453704,191.825 292.7017569938891,191.825" stroke="none" /><polygon fill="#f5d446" points="255.0,191.825 241.2031028102777,191.825 255.0,205.51" stroke="none" /><polygon fill="#f3d140" points="241.2031028102777,191.825 240.6529648404557,205.51 255.0,205.51" stroke="none" /><polygon fill="#f0cc39" points="241.2031028102777,191.825 224.4781806968517,191.825 240.6529648404557,205.51" stroke="none" /><polygon fill="#eec934" points="224.4781806968517,191.825 227.5112715377706,205.51 240.6529648404557,205.51" stroke="none" /><polygon fill="#edc62e" points="224.4781806968517,191.825 217.29824300611088,191.825 227.5112715377706,205.51" stroke="none" /><polygon fill="#ebc32b" points="217.29824300611088,191.825 215.99791689562252,205.51 227.5112715377706,205.51" stroke="none" /><polygon fill="#e9c024" points="217.29824300611088,191.825 202.100311546296,191.825 215.99791689562252,205.51" stroke="none" /><polygon fill="#e7bc20" points="202.100311546296,191.825 203.43322678925966,205.51 215.99791689562252,205.51" stroke="none" /><polygon fill="#ecc42c" points="202.100311546296,191.825 256,191.825 203.43322678925966,205.51" stroke="none" /><polygon fill="#f1cd3a" points="256,191.825 255,205.51 203.43322678925966,205.51" stroke="none" /><polygon fill="#f6d74a" points="256,191.825 256.0,191.825 255,205.51" stroke="none" /><polygon fill="#f6d648" points="256.0,191.825 256.0,205.51 255,205.51" stroke="none" /><polygon fill="#f5d546" points="256.0,191.825 270.7968971897223,191.825 256.0,205.51" stroke="none" /><polygon fill="#f3d141" points="270.7968971897223,191.825 270.3470351595443,205.51 256.0,205.51" stroke="none" /><polygon fill="#f0cd39" points="270.7968971897223,191.825 287.52181930314833,191.825 270.3470351595443,205.51" stroke="none" /><polygon fill="#eec934" points="287.52181930314833,191.825 286.4887284622294,205.51 270.3470351595443,205.51" stroke="none" /><polygon fill="#edc62e" points="287.52181930314833,191.825 292.7017569938891,191.825 286.4887284622294,205.51" stroke="none" /><polygon fill="#ebc32a" points="292.7017569938891,191.825 299.00208310437745,205.51 286.4887284622294,205.51" stroke="none" /><polygon fill="#eac126" points="292.7017569938891,191.825 303.899688453704,191.825 299.00208310437745,205.51" stroke="none" /><polygon fill="#e7bd21" points="303.899688453704,191.825 308.56677321074034,205.51 299.00208310437745,205.51" stroke="none" /><polygon fill="#f4d140" points="255.0,205.51 240.6529648404557,205.51 255.0,218.39" stroke="none" /><polygon fill="#f2ce3a" points="240.6529648404557,205.51 241.24685992779754,218.39 255.0,218.39" stroke="none" /><polygon fill="#efc936" points="240.6529648404557,205.51 227.5112715377706,205.51 241.24685992779754,218.39" stroke="none" /><polygon fill="#edc731" points="227.5112715377706,205.51 229.31266290340176,218.39 241.24685992779754,218.39" stroke="none" /><polygon fill="#eac22c" points="227.5112715377706,205.51 215.99791689562252,205.51 229.31266290340176,218.39" stroke="none" /><polygon fill="#e8c029" points="215.99791689562252,205.51 219.7653052838851,218.39 229.31266290340176,218.39" stroke="none" /><polygon fill="#e6bc24" points="215.99791689562252,205.51 203.43322678925966,205.51 219.7653052838851,218.39" stroke="none" /><polygon fill="#e4ba21" points="203.43322678925966,205.51 210.2632119024168,218.39 219.7653052838851,218.39" stroke="none" /><polygon fill="#eac12b" points="203.43322678925966,205.51 255,205.51 210.2632119024168,218.39" stroke="none" /><polygon fill="#efcb36" points="255,205.51 255,218.39 210.2632119024168,218.39" stroke="none" /><polygon fill="#f6d444" points="255,205.51 256.0,205.51 255,218.39" stroke="none" /><polygon fill="#f5d441" points="256.0,205.51 255.0,218.39 255,218.39" stroke="none" /><polygon fill="#f5d241" points="256.0,205.51 270.3470351595443,205.51 255.0,218.39" stroke="none" /><polygon fill="#f2cf3b" points="270.3470351595443,205.51 270.7531400722024,218.39 255.0,218.39" stroke="none" /><polygon fill="#efc935" points="270.3470351595443,205.51 286.4887284622294,205.51 270.7531400722024,218.39" stroke="none" /><polygon fill="#ecc630" points="286.4887284622294,205.51 284.68733709659824,218.39 270.7531400722024,218.39" stroke="none" /><polygon fill="#eac12b" points="286.4887284622294,205.51 299.00208310437745,205.51 284.68733709659824,218.39" stroke="none" /><polygon fill="#e8bf27" points="299.00208310437745,205.51 294.2346947161149,218.39 284.68733709659824,218.39" stroke="none" /><polygon fill="#e6bb23" points="299.00208310437745,205.51 308.56677321074034,205.51 294.2346947161149,218.39" stroke="none" /><polygon fill="#e4b920" points="308.56677321074034,205.51 304.7367880975832,218.39 294.2346947161149,218.39" stroke="none" /><polygon fill="#f3cf3a" points="255.0,218.39 241.24685992779754,218.39 255.0,229.66" stroke="none" /><polygon fill="#f0ca35" points="241.24685992779754,218.39 237.93543016600503,229.66 255.0,229.66" stroke="none" /><polygon fill="#edc630" points="241.24685992779754,218.39 229.31266290340176,218.39 237.93543016600503,229.66" stroke="none" /><polygon fill="#eac22d" points="229.31266290340176,218.39 227.0077257463119,229.66 237.93543016600503,229.66" stroke="none" /><polygon fill="#e8c029" points="229.31266290340176,218.39 219.7653052838851,218.39 227.0077257463119,229.66" stroke="none" /><polygon fill="#e5bb26" points="219.7653052838851,218.39 216.66556221055737,229.66 227.0077257463119,229.66" stroke="none" /><polygon fill="#e4b923" points="219.7653052838851,218.39 210.2632119024168,218.39 216.66556221055737,229.66" stroke="none" /><polygon fill="#e1b520" points="210.2632119024168,218.39 206.2891823212274,229.66 216.66556221055737,229.66" stroke="none" /><polygon fill="#e7bf28" points="210.2632119024168,218.39 255,218.39 206.2891823212274,229.66" stroke="none" /><polygon fill="#eec732" points="255,218.39 258,229.66 206.2891823212274,229.66" stroke="none" /><polygon fill="#f6d33e" points="255,218.39 255.0,218.39 258,229.66" stroke="none" /><polygon fill="#f6d23d" points="255.0,218.39 255.0,229.66 258,229.66" stroke="none" /><polygon fill="#f4d03b" points="255.0,218.39 270.7531400722024,218.39 255.0,229.66" stroke="none" /><polygon fill="#f0ca35" points="270.7531400722024,218.39 276.06456983399494,229.66 255.0,229.66" stroke="none" /><polygon fill="#ecc530" points="270.7531400722024,218.39 284.68733709659824,218.39 276.06456983399494,229.66" stroke="none" /><polygon fill="#e9c02b" points="284.68733709659824,218.39 287.9922742536881,229.66 276.06456983399494,229.66" stroke="none" /><polygon fill="#e7be28" points="284.68733709659824,218.39 294.2346947161149,218.39 287.9922742536881,229.66" stroke="none" /><polygon fill="#e5ba25" points="294.2346947161149,218.39 294.33443778944263,229.66 287.9922742536881,229.66" stroke="none" /><polygon fill="#e3b922" points="294.2346947161149,218.39 304.7367880975832,218.39 294.33443778944263,229.66" stroke="none" /><polygon fill="#e0b31e" points="304.7367880975832,218.39 310.71081767877257,229.66 294.33443778944263,229.66" stroke="none" /><polygon fill="#f1cb34" points="255.0,229.66 237.93543016600503,229.66 253.0,242.54" stroke="none" /><polygon fill="#eec72f" points="237.93543016600503,229.66 239.53398649480908,242.54 253.0,242.54" stroke="none" /><polygon fill="#eac22c" points="237.93543016600503,229.66 227.0077257463119,229.66 239.53398649480908,242.54" stroke="none" /><polygon fill="#e7be28" points="227.0077257463119,229.66 224.5445823242099,242.54 239.53398649480908,242.54" stroke="none" /><polygon fill="#e5ba25" points="227.0077257463119,229.66 216.66556221055737,229.66 224.5445823242099,242.54" stroke="none" /><polygon fill="#e1b622" points="216.66556221055737,229.66 213.35305898773055,242.54 224.5445823242099,242.54" stroke="none" /><polygon fill="#dfb31f" points="216.66556221055737,229.66 206.2891823212274,229.66 213.35305898773055,242.54" stroke="none" /><polygon fill="#dbaf1c" points="206.2891823212274,229.66 203.04238331760328,242.54 213.35305898773055,242.54" stroke="none" /><polygon fill="#e4ba25" points="206.2891823212274,229.66 258,229.66 203.04238331760328,242.54" stroke="none" /><polygon fill="#ebc32c" points="258,229.66 254,242.54 203.04238331760328,242.54" stroke="none" /><polygon fill="#f4d038" points="258,229.66 255.0,229.66 254,242.54" stroke="none" /><polygon fill="#f4cf35" points="255.0,229.66 257.0,242.54 254,242.54" stroke="none" /><polygon fill="#f1cc35" points="255.0,229.66 276.06456983399494,229.66 257.0,242.54" stroke="none" /><polygon fill="#eec72f" points="276.06456983399494,229.66 271.4660135051909,242.54 257.0,242.54" stroke="none" /><polygon fill="#eac12b" points="276.06456983399494,229.66 287.9922742536881,229.66 271.4660135051909,242.54" stroke="none" /><polygon fill="#e7be28" points="287.9922742536881,229.66 285.4554176757901,242.54 271.4660135051909,242.54" stroke="none" /><polygon fill="#e5ba25" points="287.9922742536881,229.66 294.33443778944263,229.66 285.4554176757901,242.54" stroke="none" /><polygon fill="#e1b622" points="294.33443778944263,229.66 299.64694101226945,242.54 285.4554176757901,242.54" stroke="none" /><polygon fill="#dfb21e" points="294.33443778944263,229.66 310.71081767877257,229.66 299.64694101226945,242.54" stroke="none" /><polygon fill="#dbae1c" points="310.71081767877257,229.66 314.95761668239675,242.54 299.64694101226945,242.54" stroke="none" /><polygon fill="#f1ca2f" points="253.0,242.54 239.53398649480908,242.54 259.0,256.225" stroke="none" /><polygon fill="#edc52b" points="239.53398649480908,242.54 236.08927208249912,256.225 259.0,256.225" stroke="none" /><polygon fill="#e7be27" points="239.53398649480908,242.54 224.5445823242099,242.54 236.08927208249912,256.225" stroke="none" /><polygon fill="#e4b923" points="224.5445823242099,242.54 225.27811456924087,256.225 236.08927208249912,256.225" stroke="none" /><polygon fill="#e1b521" points="224.5445823242099,242.54 213.35305898773055,242.54 225.27811456924087,256.225" stroke="none" /><polygon fill="#ddb11e" points="213.35305898773055,242.54 213.02918855863427,256.225 225.27811456924087,256.225" stroke="none" /><polygon fill="#dbac1c" points="213.35305898773055,242.54 203.04238331760328,242.54 213.02918855863427,256.225" stroke="none" /><polygon fill="#d7a91a" points="203.04238331760328,242.54 202.75536994696702,256.225 213.02918855863427,256.225" stroke="none" /><polygon fill="#e0b421" points="203.04238331760328,242.54 254,242.54 202.75536994696702,256.225" stroke="none" /><polygon fill="#e9c027" points="254,242.54 255,256.225 202.75536994696702,256.225" stroke="none" /><polygon fill="#f3ce31" points="254,242.54 257.0,242.54 255,256.225" stroke="none" /><polygon fill="#f3cd2f" points="257.0,242.54 258.0,256.225 255,256.225" stroke="none" /><polygon fill="#f0ca2f" points="257.0,242.54 271.4660135051909,242.54 258.0,256.225" stroke="none" /><polygon fill="#ecc42a" points="271.4660135051909,242.54 275.9107279175009,256.225 258.0,256.225" stroke="none" /><polygon fill="#e8bf28" points="271.4660135051909,242.54 285.4554176757901,242.54 275.9107279175009,256.225" stroke="none" /><polygon fill="#e4b924" points="285.4554176757901,242.54 287.72188543075913,256.225 275.9107279175009,256.225" stroke="none" /><polygon fill="#e1b521" points="285.4554176757901,242.54 299.64694101226945,242.54 287.72188543075913,256.225" stroke="none" /><polygon fill="#ddb11e" points="299.64694101226945,242.54 297.9708114413657,256.225 287.72188543075913,256.225" stroke="none" /><polygon fill="#d9ab1b" points="299.64694101226945,242.54 314.95761668239675,242.54 297.9708114413657,256.225" stroke="none" /><polygon fill="#d7a91a" points="314.95761668239675,242.54 309.24463005303295,256.225 297.9708114413657,256.225" stroke="none" /><polygon fill="#efc728" points="259.0,256.225 236.08927208249912,256.225 255.0,269.90999999999997" stroke="none" /><polygon fill="#ebc125" points="236.08927208249912,256.225 239.74235635896954,269.90999999999997 255.0,269.90999999999997" stroke="none" /><polygon fill="#e5ba22" points="236.08927208249912,256.225 225.27811456924087,256.225 239.74235635896954,269.90999999999997" stroke="none" /><polygon fill="#e2b720" points="225.27811456924087,256.225 227.94111117637073,269.90999999999997 239.74235635896954,269.90999999999997" stroke="none" /><polygon fill="#ddb11e" points="225.27811456924087,256.225 213.02918855863427,256.225 227.94111117637073,269.90999999999997" stroke="none" /><polygon fill="#ddb01e" points="213.02918855863427,256.225 224.30011503029166,269.90999999999997 227.94111117637073,269.90999999999997" stroke="none" /><polygon fill="#d8aa1b" points="213.02918855863427,256.225 202.75536994696702,256.225 224.30011503029166,269.90999999999997" stroke="none" /><polygon fill="#d8aa1b" points="202.75536994696702,256.225 215.7950192696047,269.90999999999997 224.30011503029166,269.90999999999997" stroke="none" /><polygon fill="#dfb31f" points="202.75536994696702,256.225 255,256.225 215.7950192696047,269.90999999999997" stroke="none" /><polygon fill="#e9c024" points="255,256.225 255,269.90999999999997 215.7950192696047,269.90999999999997" stroke="none" /><polygon fill="#f3cc2b" points="255,256.225 258.0,256.225 255,269.90999999999997" stroke="none" /><polygon fill="#f2ca28" points="258.0,256.225 253.0,269.90999999999997 255,269.90999999999997" stroke="none" /><polygon fill="#efc728" points="258.0,256.225 275.9107279175009,256.225 253.0,269.90999999999997" stroke="none" /><polygon fill="#ecc225" points="275.9107279175009,256.225 271.2576436410304,269.90999999999997 253.0,269.90999999999997" stroke="none" /><polygon fill="#e5ba22" points="275.9107279175009,256.225 287.72188543075913,256.225 271.2576436410304,269.90999999999997" stroke="none" /><polygon fill="#e2b720" points="287.72188543075913,256.225 284.0588888236293,269.90999999999997 271.2576436410304,269.90999999999997" stroke="none" /><polygon fill="#ddb11e" points="287.72188543075913,256.225 297.9708114413657,256.225 284.0588888236293,269.90999999999997" stroke="none" /><polygon fill="#dcaf1d" points="297.9708114413657,256.225 292.69988496970836,269.90999999999997 284.0588888236293,269.90999999999997" stroke="none" /><polygon fill="#d7a91b" points="297.9708114413657,256.225 309.24463005303295,256.225 292.69988496970836,269.90999999999997" stroke="none" /><polygon fill="#d7a91b" points="309.24463005303295,256.225 296.20498073039533,269.90999999999997 292.69988496970836,269.90999999999997" stroke="none" /><polygon fill="#efc522" points="255.0,269.90999999999997 239.74235635896954,269.90999999999997 258.0,284.4" stroke="none" /><polygon fill="#ecc221" points="239.74235635896954,269.90999999999997 244.3102884161143,284.4 258.0,284.4" stroke="none" /><polygon fill="#e5ba1f" points="239.74235635896954,269.90999999999997 227.94111117637073,269.90999999999997 244.3102884161143,284.4" stroke="none" /><polygon fill="#e5b91f" points="227.94111117637073,269.90999999999997 236.6968705495342,284.4 244.3102884161143,284.4" stroke="none" /><polygon fill="#e0b31d" points="227.94111117637073,269.90999999999997 224.30011503029166,269.90999999999997 236.6968705495342,284.4" stroke="none" /><polygon fill="#e0b31d" points="224.30011503029166,269.90999999999997 228.00613625627014,284.4 236.6968705495342,284.4" stroke="none" /><polygon fill="#dbae1c" points="224.30011503029166,269.90999999999997 215.7950192696047,269.90999999999997 228.00613625627014,284.4" stroke="none" /><polygon fill="#d9ab1b" points="215.7950192696047,269.90999999999997 215.54632853367968,284.4 228.00613625627014,284.4" stroke="none" /><polygon fill="#dfb31d" points="215.7950192696047,269.90999999999997 255,269.90999999999997 215.54632853367968,284.4" stroke="none" /><polygon fill="#eabf20" points="255,269.90999999999997 259,284.4 215.54632853367968,284.4" stroke="none" /><polygon fill="#f2c923" points="255,269.90999999999997 253.0,269.90999999999997 259,284.4" stroke="none" /><polygon fill="#f2c923" points="253.0,269.90999999999997 254.0,284.4 259,284.4" stroke="none" /><polygon fill="#f0c723" points="253.0,269.90999999999997 271.2576436410304,269.90999999999997 254.0,284.4" stroke="none" /><polygon fill="#edc322" points="271.2576436410304,269.90999999999997 267.6897115838857,284.4 254.0,284.4" stroke="none" /><polygon fill="#e6ba1f" points="271.2576436410304,269.90999999999997 284.0588888236293,269.90999999999997 267.6897115838857,284.4" stroke="none" /><polygon fill="#e3b71e" points="284.0588888236293,269.90999999999997 281.3031294504658,284.4 267.6897115838857,284.4" stroke="none" /><polygon fill="#ddb01c" points="284.0588888236293,269.90999999999997 292.69988496970836,269.90999999999997 281.3031294504658,284.4" stroke="none" /><polygon fill="#deb11c" points="292.69988496970836,269.90999999999997 282.99386374372983,284.4 281.3031294504658,284.4" stroke="none" /><polygon fill="#daac1b" points="292.69988496970836,269.90999999999997 296.20498073039533,269.90999999999997 282.99386374372983,284.4" stroke="none" /><polygon fill="#daac1b" points="296.20498073039533,269.90999999999997 293.4536714663203,284.4 282.99386374372983,284.4" stroke="none" /><polygon fill="#f0c723" points="258.0,284.4 244.3102884161143,284.4 256.0,300.5" stroke="none" /><polygon fill="#edc322" points="244.3102884161143,284.4 244.912,300.5 256.0,300.5" stroke="none" /><polygon fill="#e9be20" points="244.3102884161143,284.4 236.6968705495342,284.4 244.912,300.5" stroke="none" /><polygon fill="#e7bc20" points="236.6968705495342,284.4 236.512,300.5 244.912,300.5" stroke="none" /><polygon fill="#e3b71e" points="236.6968705495342,284.4 228.00613625627014,284.4 236.512,300.5" stroke="none" /><polygon fill="#e1b51e" points="228.00613625627014,284.4 228.792,300.5 236.512,300.5" stroke="none" /><polygon fill="#dcaf1c" points="228.00613625627014,284.4 215.54632853367968,284.4 228.792,300.5" stroke="none" /><polygon fill="#dbad1b" points="215.54632853367968,284.4 221.4,300.5 228.792,300.5" stroke="none" /><polygon fill="#e2b51e" points="215.54632853367968,284.4 259,284.4 221.4,300.5" stroke="none" /><polygon fill="#ebc121" points="259,284.4 256,300.5 221.4,300.5" stroke="none" /><polygon fill="#f2c923" points="259,284.4 254.0,284.4 256,300.5" stroke="none" /><polygon fill="#f2c923" points="254.0,284.4 256.0,300.5 256,300.5" stroke="none" /><polygon fill="#f0c723" points="254.0,284.4 267.6897115838857,284.4 256.0,300.5" stroke="none" /><polygon fill="#edc322" points="267.6897115838857,284.4 266.088,300.5 256.0,300.5" stroke="none" /><polygon fill="#e8bc20" points="267.6897115838857,284.4 281.3031294504658,284.4 266.088,300.5" stroke="none" /><polygon fill="#e6ba1f" points="281.3031294504658,284.4 275.488,300.5 266.088,300.5" stroke="none" /><polygon fill="#e2b51e" points="281.3031294504658,284.4 282.99386374372983,284.4 275.488,300.5" stroke="none" /><polygon fill="#e2b51e" points="282.99386374372983,284.4 282.20799999999997,300.5 275.488,300.5" stroke="none" /><polygon fill="#ddb01c" points="282.99386374372983,284.4 293.4536714663203,284.4 282.20799999999997,300.5" stroke="none" /><polygon fill="#dcae1c" points="293.4536714663203,284.4 289.6,300.5 282.20799999999997,300.5" stroke="none" /><path d="M 242 209 A 8 14 0 0 0 242 229 Z" fill="#f3ca24" stroke="#d0a018" stroke-width="1" /><circle cx="239" cy="229" fill="#f3ca24" r="3" stroke="#d0a018" stroke-width="1" /><path d="M 270 209 A 8 14 0 0 1 270 229 Z" fill="#f3ca24" stroke="#d0a018" stroke-width="1" /><circle cx="273" cy="229" fill="#f3ca24" r="3" stroke="#d0a018" stroke-width="1" /><path d="M 219 214 A 18 12 0 0 0 255 214 Z" fill="#e8e0d8" stroke="#3a2a1a" stroke-width="1.5" /><path d="M 231 216 A 6 6 0 0 0 243 216 Z" fill="#3a2a1a" stroke="none" /><circle cx="240" cy="212" fill="white" r="3" stroke="none" /><circle cx="235" cy="216" fill="white" r="1" stroke="none" /><path d="M 217 214 Q 237 210 257 214" fill="none" stroke="#3a2a1a" stroke-width="3" /><line stroke="#3a2a1a" stroke-width="2" x1="228" x2="228" y1="213" y2="210" /><line stroke="#3a2a1a" stroke-width="2" x1="237" x2="237" y1="213" y2="210" /><line stroke="#3a2a1a" stroke-width="2" x1="246" x2="246" y1="213" y2="210" /><path d="M 257 214 A 18 12 0 0 0 293 214 Z" fill="#e8e0d8" stroke="#3a2a1a" stroke-width="1.5" /><path d="M 269 216 A 6 6 0 0 0 281 216 Z" fill="#3a2a1a" stroke="none" /><circle cx="278" cy="212" fill="white" r="3" stroke="none" /><circle cx="273" cy="216" fill="white" r="1" stroke="none" /><path d="M 255 214 Q 275 210 295 214" fill="none" stroke="#3a2a1a" stroke-width="3" /><line stroke="#3a2a1a" stroke-width="2" x1="266" x2="266" y1="213" y2="210" /><line stroke="#3a2a1a" stroke-width="2" x1="275" x2="275" y1="213" y2="210" /><line stroke="#3a2a1a" stroke-width="2" x1="284" x2="284" y1="213" y2="210" /><line stroke="#3a2a1a" stroke-width="3" x1="225" x2="249" y1="205" y2="205" /><line stroke="#3a2a1a" stroke-width="3" x1="263" x2="287" y1="205" y2="205" /><path d="M 222 226 A 7 4 0 0 0 236 226 Z" fill="#e88060" fill-opacity="0.25" stroke="none" /><path d="M 276 226 A 7 4 0 0 0 290 226 Z" fill="#e88060" fill-opacity="0.25" stroke="none" /><path d="M 256 220 Q 259 225 258 228 Q 256 229 254 228 Q 253 225 256 220" fill="#d0a018" stroke="none" /><path d="M 240 239 Q 256 247 272 239" fill="none" stroke="#c06050" stroke-width="3" /><path d="M 238 237 Q 256 249 274 237" fill="none" stroke="#a04030" stroke-width="1.5" /><path d="M 238 239 Q 256 245 274 239" fill="none" stroke="#f0a0a0" stroke-width="1" /><polygon fill="#b48c14" points="246,296.5 266,296.5 266,331.5 246,331.5" stroke="none" /></svg>