<?xml version="1.0" encoding="utf-8" ?>
<svg baseProfile="full" height="512" version="1.1" width="512" xmlns="http://www.w3.org/2000/svg" xmlns:ev="http://www.w3.org/2001/xml-events" xmlns:xlink="http://www.w3.org/1999/xlink"><defs /><polygon fill="#f9dd5b" points="256.0,165.5 256.2179,165.5 257.0,177.49" stroke="none" /><polygon fill="#f9dc56" points="256.2179,165.5 245.35281369588787,177.49 257.0,177.49" stroke="none" /><polygon fill="#f9db55" points="256.2179,165.5 254.6254,165.5 245.35281369588787,177.49" stroke="none" /><polygon fill="#f8d84c" points="254.6254,165.5 241.55949073822717,177.49 245.35281369588787,177.49" stroke="none" /><polygon fill="#f8da51" points="254.6254,165.5 254.1514,165.5 241.55949073822717,177.49" stroke="none" /><polygon fill="#f7d74a" points="254.1514,165.5 240.92483237209862,177.49 241.55949073822717,177.49" stroke="none" /><polygon fill="#f8da51" points="254.1514,165.5 254.63,165.5 240.92483237209862,177.49" stroke="none" /><polygon fill="#f7d646" points="254.63,165.5 233.8267081693572,177.49 240.92483237209862,177.49" stroke="none" /><polygon fill="#f8d94f" points="254.63,165.5 257,165.5 233.8267081693572,177.49" stroke="none" /><polygon fill="#f8da51" points="257,165.5 258,177.49 233.8267081693572,177.49" stroke="none" /><polygon fill="#f9dd5a" points="257,165.5 255.0,165.5 258,177.49" stroke="none" /><polygon fill="#f9dd5b" points="255.0,165.5 256.0,177.49 258,177.49" stroke="none" /><polygon fill="#f9dd5b" points="255.0,165.5 256.7821,165.5 256.0,177.49" stroke="none" /><polygon fill="#f9dc58" points="256.7821,165.5 261.6471863041121,177.49 256.0,177.49" stroke="none" /><polygon fill="#f9dc57" points="256.7821,165.5 258.3746,165.5 261.6471863041121,177.49" stroke="none" /><polygon fill="#f8d94f" points="258.3746,165.5 270.44050926177283,177.49 261.6471863041121,177.49" stroke="none" /><polygon fill="#f8da51" points="258.3746,165.5 256.8486,165.5 270.44050926177283,177.49" stroke="none" /><polygon fill="#f7d74a" points="256.8486,165.5 271.07516762790135,177.49 270.44050926177283,177.49" stroke="none" /><polygon fill="#f8da52" points="256.8486,165.5 257.37,165.5 271.07516762790135,177.49" stroke="none" /><polygon fill="#f7d646" points="257.37,165.5 278.17329183064277,177.49 271.07516762790135,177.49" stroke="none" /><polygon fill="#f9db55" points="257.0,177.49 245.35281369588787,177.49 254.0,190.025" stroke="none" /><polygon fill="#f7d74d" points="245.35281369588787,177.49 246.90387355871061,190.025 254.0,190.025" stroke="none" /><polygon fill="#f7d748" points="245.35281369588787,177.49 241.55949073822717,177.49 246.90387355871061,190.025" stroke="none" /><polygon fill="#f5d341" points="241.55949073822717,177.49 237.2552929213702,190.025 246.90387355871061,190.025" stroke="none" /><polygon fill="#f6d440" points="241.55949073822717,177.49 240.92483237209862,177.49 237.2552929213702,190.025" stroke="none" /><polygon fill="#f4d03a" points="240.92483237209862,177.49 234.13642841149783,190.025 237.2552929213702,190.025" stroke="none" /><polygon fill="#f5d23a" points="240.92483237209862,177.49 233.8267081693572,177.49 234.13642841149783,190.025" stroke="none" /><polygon fill="#f2cb2f" points="233.8267081693572,177.49 223.40567745063828,190.025 234.13642841149783,190.025" stroke="none" /><polygon fill="#f6d33e" points="233.8267081693572,177.49 258,177.49 223.40567745063828,190.025" stroke="none" /><polygon fill="#f6d548" points="258,177.49 257,190.025 223.40567745063828,190.025" stroke="none" /><polygon fill="#f9dd5a" points="258,177.49 256.0,177.49 257,190.025" stroke="none" /><polygon fill="#f8db57" points="256.0,177.49 253.0,190.025 257,190.025" stroke="none" /><polygon fill="#f9dd5a" points="256.0,177.49 261.6471863041121,177.49 253.0,190.025" stroke="none" /><polygon fill="#f7d850" points="261.6471863041121,177.49 269.09612644128936,190.025 253.0,190.025" stroke="none" /><polygon fill="#f7d749" points="261.6471863041121,177.49 270.44050926177283,177.49 269.09612644128936,190.025" stroke="none" /><polygon fill="#f5d241" points="270.44050926177283,177.49 271.7447070786298,190.025 269.09612644128936,190.025" stroke="none" /><polygon fill="#f6d442" points="270.44050926177283,177.49 271.07516762790135,177.49 271.7447070786298,190.025" stroke="none" /><polygon fill="#f4d03c" points="271.07516762790135,177.49 277.86357158850217,190.025 271.7447070786298,190.025" stroke="none" /><polygon fill="#f5d23a" points="271.07516762790135,177.49 278.17329183064277,177.49 277.86357158850217,190.025" stroke="none" /><polygon fill="#f2cb2f" points="278.17329183064277,177.49 287.5943225493617,190.025 277.86357158850217,190.025" stroke="none" /><polygon fill="#f6d74d" points="254.0,190.025 246.90387355871061,190.025 257.0,200.925" stroke="none" /><polygon fill="#f5d345" points="246.90387355871061,190.025 242.937304592874,200.925 257.0,200.925" stroke="none" /><polygon fill="#f3d03e" points="246.90387355871061,190.025 237.2552929213702,190.025 242.937304592874,200.925" stroke="none" /><polygon fill="#f1cc38" points="237.2552929213702,190.025 237.55647473899066,200.925 242.937304592874,200.925" stroke="none" /><polygon fill="#f1cc35" points="237.2552929213702,190.025 234.13642841149783,190.025 237.55647473899066,200.925" stroke="none" /><polygon fill="#efc930" points="234.13642841149783,190.025 230.85181085588397,200.925 237.55647473899066,200.925" stroke="none" /><polygon fill="#efc72b" points="234.13642841149783,190.025 223.40567745063828,190.025 230.85181085588397,200.925" stroke="none" /><polygon fill="#ebc223" points="223.40567745063828,190.025 219.47668058446664,200.925 230.85181085588397,200.925" stroke="none" /><polygon fill="#f0ca31" points="223.40567745063828,190.025 257,190.025 219.47668058446664,200.925" stroke="none" /><polygon fill="#f3d03f" points="257,190.025 256,200.925 219.47668058446664,200.925" stroke="none" /><polygon fill="#f7d952" points="257,190.025 253.0,190.025 256,200.925" stroke="none" /><polygon fill="#f7d84f" points="253.0,190.025 258.0,200.925 256,200.925" stroke="none" /><polygon fill="#f6d74c" points="253.0,190.025 269.09612644128936,190.025 258.0,200.925" stroke="none" /><polygon fill="#f4d243" points="269.09612644128936,190.025 267.062695407126,200.925 258.0,200.925" stroke="none" /><polygon fill="#f3d03f" points="269.09612644128936,190.025 271.7447070786298,190.025 267.062695407126,200.925" stroke="none" /><polygon fill="#f1cd39" points="271.7447070786298,190.025 275.44352526100937,200.925 267.062695407126,200.925" stroke="none" /><polygon fill="#f1cc36" points="271.7447070786298,190.025 277.86357158850217,190.025 275.44352526100937,200.925" stroke="none" /><polygon fill="#eec82e" points="277.86357158850217,190.025 284.14818914411603,200.925 275.44352526100937,200.925" stroke="none" /><polygon fill="#eec62a" points="277.86357158850217,190.025 287.5943225493617,190.025 284.14818914411603,200.925" stroke="none" /><polygon fill="#ebc122" points="287.5943225493617,190.025 291.52331941553336,200.925 284.14818914411603,200.925" stroke="none" /><polygon fill="#f5d547" points="257.0,200.925 242.937304592874,200.925 259.0,210.19" stroke="none" /><polygon fill="#f3d03e" points="242.937304592874,200.925 241.56705708738033,210.19 259.0,210.19" stroke="none" /><polygon fill="#f0cb36" points="242.937304592874,200.925 237.55647473899066,200.925 241.56705708738033,210.19" stroke="none" /><polygon fill="#edc731" points="237.55647473899066,200.925 232.14816094145635,210.19 241.56705708738033,210.19" stroke="none" /><polygon fill="#ecc52d" points="237.55647473899066,200.925 230.85181085588397,200.925 232.14816094145635,210.19" stroke="none" /><polygon fill="#e9c127" points="230.85181085588397,200.925 224.61304402471717,210.19 232.14816094145635,210.19" stroke="none" /><polygon fill="#e8be22" points="230.85181085588397,200.925 219.47668058446664,200.925 224.61304402471717,210.19" stroke="none" /><polygon fill="#e7bc20" points="219.47668058446664,200.925 219.32441541630408,210.19 224.61304402471717,210.19" stroke="none" /><polygon fill="#ebc32b" points="219.47668058446664,200.925 256,200.925 219.32441541630408,210.19" stroke="none" /><polygon fill="#f1cd3a" points="256,200.925 257,210.19 219.32441541630408,210.19" stroke="none" /><polygon fill="#f6d749" points="256,200.925 258.0,200.925 257,210.19" stroke="none" /><polygon fill="#f6d647" points="258.0,200.925 256.0,210.19 257,210.19" stroke="none" /><polygon fill="#f5d445" points="258.0,200.925 267.062695407126,200.925 256.0,210.19" stroke="none" /><polygon fill="#f3d140" points="267.062695407126,200.925 265.43294291261964,210.19 256.0,210.19" stroke="none" /><polygon fill="#f0cd39" points="267.062695407126,200.925 275.44352526100937,200.925 265.43294291261964,210.19" stroke="none" /><polygon fill="#eec833" points="275.44352526100937,200.925 279.85183905854365,210.19 265.43294291261964,210.19" stroke="none" /><polygon fill="#ecc42b" points="275.44352526100937,200.925 284.14818914411603,200.925 279.85183905854365,210.19" stroke="none" /><polygon fill="#e9c127" points="284.14818914411603,200.925 284.38695597528283,210.19 279.85183905854365,210.19" stroke="none" /><polygon fill="#e9be22" points="284.14818914411603,200.925 291.52331941553336,200.925 284.38695597528283,210.19" stroke="none" /><polygon fill="#e7bc20" points="291.52331941553336,200.925 290.6755845836959,210.19 284.38695597528283,210.19" stroke="none" /><polygon fill="#f4d140" points="259.0,210.19 241.56705708738033,210.19 257.0,218.91" stroke="none" /><polygon fill="#f0cc38" points="241.56705708738033,210.19 242.14678974612298,218.91 257.0,218.91" stroke="none" /><polygon fill="#ecc530" points="241.56705708738033,210.19 232.14816094145635,210.19 242.14678974612298,218.91" stroke="none" /><polygon fill="#eac22c" points="232.14816094145635,210.19 233.40950925076157,218.91 242.14678974612298,218.91" stroke="none" /><polygon fill="#e8be27" points="232.14816094145635,210.19 224.61304402471717,210.19 233.40950925076157,218.91" stroke="none" /><polygon fill="#e5bb23" points="224.61304402471717,210.19 226.61968485447247,218.91 233.40950925076157,218.91" stroke="none" /><polygon fill="#e4b81f" points="224.61304402471717,210.19 219.32441541630408,210.19 226.61968485447247,218.91" stroke="none" /><polygon fill="#e3b71e" points="219.32441541630408,210.19 217.05087801855444,218.91 226.61968485447247,218.91" stroke="none" /><polygon fill="#e8bf28" points="219.32441541630408,210.19 257,210.19 217.05087801855444,218.91" stroke="none" /><polygon fill="#eec934" points="257,210.19 256,218.91 217.05087801855444,218.91" stroke="none" /><polygon fill="#f6d444" points="257,210.19 256.0,210.19 256,218.91" stroke="none" /><polygon fill="#f5d441" points="256.0,210.19 258.0,218.91 256,218.91" stroke="none" /><polygon fill="#f4d140" points="256.0,210.19 265.43294291261964,210.19 258.0,218.91" stroke="none" /><polygon fill="#f0cd38" points="265.43294291261964,210.19 270.853210253877,218.91 258.0,218.91" stroke="none" /><polygon fill="#edc632" points="265.43294291261964,210.19 279.85183905854365,210.19 270.853210253877,218.91" stroke="none" /><polygon fill="#eac22b" points="279.85183905854365,210.19 278.5904907492384,218.91 270.853210253877,218.91" stroke="none" /><polygon fill="#e8bf28" points="279.85183905854365,210.19 284.38695597528283,210.19 278.5904907492384,218.91" stroke="none" /><polygon fill="#e6bd25" points="284.38695597528283,210.19 283.3803151455275,218.91 278.5904907492384,218.91" stroke="none" /><polygon fill="#e5ba22" points="284.38695597528283,210.19 290.6755845836959,210.19 283.3803151455275,218.91" stroke="none" /><polygon fill="#e3b71e" points="290.6755845836959,210.19 296.94912198144556,218.91 283.3803151455275,218.91" stroke="none" /><polygon fill="#f2ce38" points="257.0,218.91 242.14678974612298,218.91 253.0,226.54" stroke="none" /><polygon fill="#efc833" points="242.14678974612298,218.91 243.67207261366605,226.54 253.0,226.54" stroke="none" /><polygon fill="#ebc32d" points="242.14678974612298,218.91 233.40950925076157,218.91 243.67207261366605,226.54" stroke="none" /><polygon fill="#e8bf2a" points="233.40950925076157,218.91 234.33273368462517,226.54 243.67207261366605,226.54" stroke="none" /><polygon fill="#e5bb25" points="233.40950925076157,218.91 226.61968485447247,218.91 234.33273368462517,226.54" stroke="none" /><polygon fill="#e2b722" points="226.61968485447247,218.91 223.86126254139245,226.54 234.33273368462517,226.54" stroke="none" /><polygon fill="#e0b41d" points="226.61968485447247,218.91 217.05087801855444,218.91 223.86126254139245,226.54" stroke="none" /><polygon fill="#dfb21d" points="217.05087801855444,218.91 220.6426442838365,226.54 223.86126254139245,226.54" stroke="none" /><polygon fill="#e5bb25" points="217.05087801855444,218.91 256,218.91 220.6426442838365,226.54" stroke="none" /><polygon fill="#eec732" points="256,218.91 259,226.54 220.6426442838365,226.54" stroke="none" /><polygon fill="#f4d13c" points="256,218.91 258.0,218.91 259,226.54" stroke="none" /><polygon fill="#f5d13c" points="258.0,218.91 253.0,226.54 259,226.54" stroke="none" /><polygon fill="#f2ce39" points="258.0,218.91 270.853210253877,218.91 253.0,226.54" stroke="none" /><polygon fill="#f0ca35" points="270.853210253877,218.91 268.32792738633395,226.54 253.0,226.54" stroke="none" /><polygon fill="#eac32d" points="270.853210253877,218.91 278.5904907492384,218.91 268.32792738633395,226.54" stroke="none" /><polygon fill="#e8be29" points="278.5904907492384,218.91 280.66726631537483,226.54 268.32792738633395,226.54" stroke="none" /><polygon fill="#e5bb25" points="278.5904907492384,218.91 283.3803151455275,218.91 280.66726631537483,226.54" stroke="none" /><polygon fill="#e2b621" points="283.3803151455275,218.91 288.1387374586076,226.54 280.66726631537483,226.54" stroke="none" /><polygon fill="#e0b41d" points="283.3803151455275,218.91 296.94912198144556,218.91 288.1387374586076,226.54" stroke="none" /><polygon fill="#dfb21d" points="296.94912198144556,218.91 295.3573557161635,226.54 288.1387374586076,226.54" stroke="none" /><polygon fill="#f1cc34" points="253.0,226.54 243.67207261366605,226.54 257.0,235.26" stroke="none" /><polygon fill="#efc830" points="243.67207261366605,226.54 245.5864611041223,235.26 257.0,235.26" stroke="none" /><polygon fill="#eac12b" points="243.67207261366605,226.54 234.33273368462517,226.54 245.5864611041223,235.26" stroke="none" /><polygon fill="#e6bd27" points="234.33273368462517,226.54 233.18226497088162,235.26 245.5864611041223,235.26" stroke="none" /><polygon fill="#e2b622" points="234.33273368462517,226.54 223.86126254139245,226.54 233.18226497088162,235.26" stroke="none" /><polygon fill="#deb21f" points="223.86126254139245,226.54 224.65890806428905,235.26 233.18226497088162,235.26" stroke="none" /><polygon fill="#ddaf1c" points="223.86126254139245,226.54 220.6426442838365,226.54 224.65890806428905,235.26" stroke="none" /><polygon fill="#dbae1c" points="220.6426442838365,226.54 221.38321546703725,235.26 224.65890806428905,235.26" stroke="none" /><polygon fill="#e4b925" points="220.6426442838365,226.54 259,226.54 221.38321546703725,235.26" stroke="none" /><polygon fill="#edc62e" points="259,226.54 259,235.26 221.38321546703725,235.26" stroke="none" /><polygon fill="#f4cf38" points="259,226.54 253.0,226.54 259,235.26" stroke="none" /><polygon fill="#f5d036" points="253.0,226.54 256.0,235.26 259,235.26" stroke="none" /><polygon fill="#f2cd36" points="253.0,226.54 268.32792738633395,226.54 256.0,235.26" stroke="none" /><polygon fill="#efc830" points="268.32792738633395,226.54 266.4135388958777,235.26 256.0,235.26" stroke="none" /><polygon fill="#e9c02b" points="268.32792738633395,226.54 280.66726631537483,226.54 266.4135388958777,235.26" stroke="none" /><polygon fill="#e6bd27" points="280.66726631537483,226.54 274.8177350291184,235.26 266.4135388958777,235.26" stroke="none" /><polygon fill="#e2b622" points="280.66726631537483,226.54 288.1387374586076,226.54 274.8177350291184,235.26" stroke="none" /><polygon fill="#dfb420" points="288.1387374586076,226.54 286.34109193571095,235.26 274.8177350291184,235.26" stroke="none" /><polygon fill="#ddaf1c" points="288.1387374586076,226.54 295.3573557161635,226.54 286.34109193571095,235.26" stroke="none" /><polygon fill="#dbae1c" points="295.3573557161635,226.54 296.61678453296275,235.26 286.34109193571095,235.26" stroke="none" /><polygon fill="#f2cc30" points="257.0,235.26 245.5864611041223,235.26 259.0,244.525" stroke="none" /><polygon fill="#efc82c" points="245.5864611041223,235.26 247.55578271496168,244.525 259.0,244.525" stroke="none" /><polygon fill="#e8bf28" points="245.5864611041223,235.26 233.18226497088162,235.26 247.55578271496168,244.525" stroke="none" /><polygon fill="#e4b923" points="233.18226497088162,235.26 232.88592113538718,244.525 247.55578271496168,244.525" stroke="none" /><polygon fill="#deb220" points="233.18226497088162,235.26 224.65890806428905,235.26 232.88592113538718,244.525" stroke="none" /><polygon fill="#dbae1d" points="224.65890806428905,235.26 226.9500318717276,244.525 232.88592113538718,244.525" stroke="none" /><polygon fill="#daab1b" points="224.65890806428905,235.26 221.38321546703725,235.26 226.9500318717276,244.525" stroke="none" /><polygon fill="#d7a91a" points="221.38321546703725,235.26 223.32055368170205,244.525 226.9500318717276,244.525" stroke="none" /><polygon fill="#e2b623" points="221.38321546703725,235.26 259,235.26 223.32055368170205,244.525" stroke="none" /><polygon fill="#ebc229" points="259,235.26 256,244.525 223.32055368170205,244.525" stroke="none" /><polygon fill="#f3cd31" points="259,235.26 256.0,235.26 256,244.525" stroke="none" /><polygon fill="#f3cc2f" points="256.0,235.26 253.0,244.525 256,244.525" stroke="none" /><polygon fill="#f1cc30" points="256.0,235.26 266.4135388958777,235.26 253.0,244.525" stroke="none" /><polygon fill="#edc52b" points="266.4135388958777,235.26 270.44421728503835,244.525 253.0,244.525" stroke="none" /><polygon fill="#e8be27" points="266.4135388958777,235.26 274.8177350291184,235.26 270.44421728503835,244.525" stroke="none" /><polygon fill="#e4ba24" points="274.8177350291184,235.26 276.1140788646128,244.525 270.44421728503835,244.525" stroke="none" /><polygon fill="#e1b521" points="274.8177350291184,235.26 286.34109193571095,235.26 276.1140788646128,244.525" stroke="none" /><polygon fill="#ddb11f" points="286.34109193571095,235.26 281.04996812827244,244.525 276.1140788646128,244.525" stroke="none" /><polygon fill="#d9ab1b" points="286.34109193571095,235.26 296.61678453296275,235.26 281.04996812827244,244.525" stroke="none" /><polygon fill="#d7a91a" points="296.61678453296275,235.26 290.67944631829795,244.525 281.04996812827244,244.525" stroke="none" /><polygon fill="#f0c929" points="259.0,244.525 247.55578271496168,244.525 255.0,253.79" stroke="none" /><polygon fill="#edc426" points="247.55578271496168,244.525 248.26108165561905,253.79 255.0,253.79" stroke="none" /><polygon fill="#e6bc23" points="247.55578271496168,244.525 232.88592113538718,244.525 248.26108165561905,253.79" stroke="none" /><polygon fill="#e3b721" points="232.88592113538718,244.525 238.640688970482,253.79 248.26108165561905,253.79" stroke="none" /><polygon fill="#ddb01e" points="232.88592113538718,244.525 226.9500318717276,244.525 238.640688970482,253.79" stroke="none" /><polygon fill="#ddb01e" points="226.9500318717276,244.525 236.34437482237232,253.79 238.640688970482,253.79" stroke="none" /><polygon fill="#d9ab1c" points="226.9500318717276,244.525 223.32055368170205,244.525 236.34437482237232,253.79" stroke="none" /><polygon fill="#d8ab1b" points="223.32055368170205,244.525 227.5184292594517,253.79 236.34437482237232,253.79" stroke="none" /><polygon fill="#dfb31f" points="223.32055368170205,244.525 256,244.525 227.5184292594517,253.79" stroke="none" /><polygon fill="#e9bf24" points="256,244.525 256,253.79 227.5184292594517,253.79" stroke="none" /><polygon fill="#f2ca2a" points="256,244.525 253.0,244.525 256,253.79" stroke="none" /><polygon fill="#f2ca28" points="253.0,244.525 257.0,253.79 256,253.79" stroke="none" /><polygon fill="#efc728" points="253.0,244.525 270.44421728503835,244.525 257.0,253.79" stroke="none" /><polygon fill="#eac024" points="270.44421728503835,244.525 266.7389183443809,253.79 257.0,253.79" stroke="none" /><polygon fill="#e4ba22" points="270.44421728503835,244.525 276.1140788646128,244.525 266.7389183443809,253.79" stroke="none" /><polygon fill="#e4b921" points="276.1140788646128,244.525 270.35931102951804,253.79 266.7389183443809,253.79" stroke="none" /><polygon fill="#e0b420" points="276.1140788646128,244.525 281.04996812827244,244.525 270.35931102951804,253.79" stroke="none" /><polygon fill="#deb21e" points="281.04996812827244,244.525 279.6556251776277,253.79 270.35931102951804,253.79" stroke="none" /><polygon fill="#d8ab1b" points="281.04996812827244,244.525 290.67944631829795,244.525 279.6556251776277,253.79" stroke="none" /><polygon fill="#d8aa1b" points="290.67944631829795,244.525 279.4815707405483,253.79 279.6556251776277,253.79" stroke="none" /><polygon fill="#eec522" points="255.0,253.79 248.26108165561905,253.79 253.0,263.6" stroke="none" /><polygon fill="#ecc121" points="248.26108165561905,253.79 247.57780057871426,263.6 253.0,263.6" stroke="none" /><polygon fill="#e7bb1f" points="248.26108165561905,253.79 238.640688970482,253.79 247.57780057871426,263.6" stroke="none" /><polygon fill="#e5b91f" points="238.640688970482,253.79 243.95492222925535,263.6 247.57780057871426,263.6" stroke="none" /><polygon fill="#e1b51e" points="238.640688970482,253.79 236.34437482237232,253.79 243.95492222925535,263.6" stroke="none" /><polygon fill="#e0b41d" points="236.34437482237232,253.79 236.4566195496882,263.6 243.95492222925535,263.6" stroke="none" /><polygon fill="#dbad1b" points="236.34437482237232,253.79 227.5184292594517,253.79 236.4566195496882,263.6" stroke="none" /><polygon fill="#daac1b" points="227.5184292594517,253.79 234.5084866021644,263.6 236.4566195496882,263.6" stroke="none" /><polygon fill="#e1b41d" points="227.5184292594517,253.79 256,253.79 234.5084866021644,263.6" stroke="none" /><polygon fill="#ecc121" points="256,253.79 258,263.6 234.5084866021644,263.6" stroke="none" /><polygon fill="#f1c823" points="256,253.79 257.0,253.79 258,263.6" stroke="none" /><polygon fill="#f1c723" points="257.0,253.79 258.0,263.6 258,263.6" stroke="none" /><polygon fill="#eec422" points="257.0,253.79 266.7389183443809,253.79 258.0,263.6" stroke="none" /><polygon fill="#ebc121" points="266.7389183443809,253.79 263.42219942128577,263.6 258.0,263.6" stroke="none" /><polygon fill="#e7bc20" points="266.7389183443809,253.79 270.35931102951804,253.79 263.42219942128577,263.6" stroke="none" /><polygon fill="#e5ba1f" points="270.35931102951804,253.79 271.0450777707447,263.6 263.42219942128577,263.6" stroke="none" /><polygon fill="#e0b31d" points="270.35931102951804,253.79 279.6556251776277,253.79 271.0450777707447,263.6" stroke="none" /><polygon fill="#deb01c" points="279.6556251776277,253.79 276.54338045031176,263.6 271.0450777707447,263.6" stroke="none" /><polygon fill="#dbad1b" points="279.6556251776277,253.79 279.4815707405483,253.79 276.54338045031176,263.6" stroke="none" /><polygon fill="#daac1b" points="279.4815707405483,253.79 281.4915133978356,263.6 276.54338045031176,263.6" stroke="none" /><polygon fill="#eec522" points="253.0,263.6 247.57780057871426,263.6 256.0,274.5" stroke="none" /><polygon fill="#f0c623" points="247.57780057871426,263.6 256.2179,274.5 256.0,274.5" stroke="none" /><polygon fill="#ebc121" points="247.57780057871426,263.6 243.95492222925535,263.6 256.2179,274.5" stroke="none" /><polygon fill="#eec422" points="243.95492222925535,263.6 254.6254,274.5 256.2179,274.5" stroke="none" /><polygon fill="#e7bb1f" points="243.95492222925535,263.6 236.4566195496882,263.6 254.6254,274.5" stroke="none" /><polygon fill="#ebc021" points="236.4566195496882,263.6 255.1514,274.5 254.6254,274.5" stroke="none" /><polygon fill="#e4b81e" points="236.4566195496882,263.6 234.5084866021644,263.6 255.1514,274.5" stroke="none" /><polygon fill="#e9bf20" points="234.5084866021644,263.6 252.63,274.5 255.1514,274.5" stroke="none" /><polygon fill="#eac021" points="234.5084866021644,263.6 258,263.6 252.63,274.5" stroke="none" /><polygon fill="#f2c823" points="258,263.6 255,274.5 252.63,274.5" stroke="none" /><polygon fill="#f1c823" points="258,263.6 258.0,263.6 255,274.5" stroke="none" /><polygon fill="#f3ca24" points="258.0,263.6 255.0,274.5 255,274.5" stroke="none" /><polygon fill="#f0c622" points="258.0,263.6 263.42219942128577,263.6 255.0,274.5" stroke="none" /><polygon fill="#f0c623" points="263.42219942128577,263.6 257.7821,274.5 255.0,274.5" stroke="none" /><polygon fill="#eabf21" points="263.42219942128577,263.6 271.0450777707447,263.6 257.7821,274.5" stroke="none" /><polygon fill="#ecc221" points="271.0450777707447,263.6 256.3746,274.5 257.7821,274.5" stroke="none" /><polygon fill="#e6ba1f" points="271.0450777707447,263.6 276.54338045031176,263.6 256.3746,274.5" stroke="none" /><polygon fill="#eabf21" points="276.54338045031176,263.6 258.8486,274.5 256.3746,274.5" stroke="none" /><polygon fill="#e1b51e" points="276.54338045031176,263.6 281.4915133978356,263.6 258.8486,274.5" stroke="none" /><polygon fill="#e8bd20" points="281.4915133978356,263.6 257.37,274.5 258.8486,274.5" stroke="none" /><path d="M 247 213 A 7 13 0 0 0 247 225 Z" fill="#f3ca24" stroke="#d0a018" stroke-width="1" /><path d="M 265 213 A 7 13 0 0 1 265 225 Z" fill="#f3ca24" stroke="#d0a018" stroke-width="1" /><path d="M 233 215 Q 244 210 255 219 Q 244 227 233 215" fill="#e8e0d8" stroke="#3a2a1a" stroke-width="1.5" /><path d="M 243 218 A 2 2 0 0 0 247 218 Z" fill="#3a2a1a" stroke="none" /><circle cx="245" cy="217" fill="white" r="1" stroke="none" /><path d="M 257 214 Q 268 209 279 218 Q 268 226 257 214" fill="#e8e0d8" stroke="#3a2a1a" stroke-width="1.5" /><path d="M 267 217 A 2 2 0 0 0 271 217 Z" fill="#3a2a1a" stroke="none" /><circle cx="269" cy="216" fill="white" r="1" stroke="none" /><line stroke="#3a2a1a" stroke-width="2" x1="238" x2="250" y1="208" y2="208" /><line stroke="#3a2a1a" stroke-width="2" x1="261" x2="275" y1="210" y2="210" /><path d="M 234 223 A 4 2 0 0 0 242 223 Z" fill="#e88060" fill-opacity="0.27302882513051424" stroke="none" /><path d="M 269 224 A 4 2 0 0 0 277 224 Z" fill="#e88060" fill-opacity="0.2831977480002225" stroke="none" /><circle cx="256" cy="222" fill="#d0a018" r="1" stroke="none" /><path d="M 245 229 Q 256 224 267 229 Q 256 234 245 229" fill="#c06050" stroke="#3a2a1a" stroke-width="1.5" /><line stroke="#3a2a1a" stroke-width="1.5" x1="247" x2="265" y1="229" y2="229" /><path d="M 272 194 Q 278 188 284 194" fill="none" stroke="#d4c0a0" stroke-opacity="0.3" stroke-width="1" /><path d="M 271 193 Q 279 185 287 193" fill="none" stroke="#d4c0a0" stroke-opacity="0.3" stroke-width="1" /><path d="M 234 216 Q 241 209 248 216" fill="none" stroke="#d4c0a0" stroke-opacity="0.3" stroke-width="1" /><path d="M 255 196 Q 259 192 263 196" fill="none" stroke="#d4c0a0" stroke-opacity="0.3" stroke-width="1" /><path d="M 235 195 Q 242 188 249 195" fill="none" stroke="#d4c0a0" stroke-opacity="0.3" stroke-width="1" /><path d="M 247 209 Q 253 203 259 209" fill="none" stroke="#d4c0a0" stroke-opacity="0.3" stroke-width="1" /><path d="M 254 204 Q 258 200 262 204" fill="none" stroke="#d4c0a0" stroke-opacity="0.3" stroke-width="1" /><path d="M 272 232 Q 276 228 280 232" fill="none" stroke="#d4c0a0" stroke-opacity="0.3" stroke-width="1" /><path d="M 276 193 Q 280 189 284 193" fill="none" stroke="#d4c0a0" stroke-opacity="0.3" stroke-width="1" /><path d="M 277 209 Q 280 206 283 209" fill="none" stroke="#d4c0a0" stroke-opacity="0.3" stroke-width="1" /><path d="M 272 236 Q 278 230 284 236" fill="none" stroke="#d4c0a0" stroke-opacity="0.3" stroke-width="1" /><path d="M 240 223 Q 243 220 246 223" fill="none" stroke="#d4c0a0" stroke-opacity="0.3" stroke-width="1" /><path d="M 274 223 Q 281 216 288 223" fill="none" stroke="#d4c0a0" stroke-opacity="0.3" stroke-width="1" /><path d="M 255 197 Q 263 189 271 197" fill="none" stroke="#d4c0a0" stroke-opacity="0.3" stroke-width="1" /><path d="M 270 234 Q 275 229 280 234" fill="none" stroke="#d4c0a0" stroke-opacity="0.3" stroke-width="1" /><polygon fill="#b48c14" points="249,270.5 263,270.5 263,305.5 249,305.5" stroke="none" /></svg>