<?xml version="1.0" encoding="utf-8" ?>
<svg baseProfile="full" height="512" version="1.1" width="512" xmlns="http://www.w3.org/2000/svg" xmlns:ev="http://www.w3.org/2001/xml-events" xmlns:xlink="http://www.w3.org/1999/xlink"><defs /><polygon fill="#fddf68" points="255.0,135.0 253.9506,135.0 254.0,153.7" stroke="none" /><polygon fill="#fdde65" points="253.9506,135.0 247.2079631424392,153.7 254.0,153.7" stroke="none" /><polygon fill="#fdde65" points="253.9506,135.0 254.1556,135.0 247.2079631424392,153.7" stroke="none" /><polygon fill="#fcdc60" points="254.1556,135.0 240.5473291594386,153.7 247.2079631424392,153.7" stroke="none" /><polygon fill="#fcdd62" points="254.1556,135.0 254.5196,135.0 240.5473291594386,153.7" stroke="none" /><polygon fill="#fbdb5c" points="254.5196,135.0 238.2188219730381,153.7 240.5473291594386,153.7" stroke="none" /><polygon fill="#fcdd61" points="254.5196,135.0 253.82,135.0 238.2188219730381,153.7" stroke="none" /><polygon fill="#fbd957" points="253.82,135.0 226.35746406799757,153.7 238.2188219730381,153.7" stroke="none" /><polygon fill="#fcdb5d" points="253.82,135.0 256,135.0 226.35746406799757,153.7" stroke="none" /><polygon fill="#fcdb5e" points="256,135.0 254,153.7 226.35746406799757,153.7" stroke="none" /><polygon fill="#fddf69" points="256,135.0 256.0,135.0 254,153.7" stroke="none" /><polygon fill="#fddf69" points="256.0,135.0 256.0,153.7 254,153.7" stroke="none" /><polygon fill="#fddf69" points="256.0,135.0 257.0494,135.0 256.0,153.7" stroke="none" /><polygon fill="#fddf67" points="257.0494,135.0 261.7920368575608,153.7 256.0,153.7" stroke="none" /><polygon fill="#fdde67" points="257.0494,135.0 256.8444,135.0 261.7920368575608,153.7" stroke="none" /><polygon fill="#fcdd62" points="256.8444,135.0 268.4526708405614,153.7 261.7920368575608,153.7" stroke="none" /><polygon fill="#fddd64" points="256.8444,135.0 258.4804,135.0 268.4526708405614,153.7" stroke="none" /><polygon fill="#fbdb5c" points="258.4804,135.0 276.78117802696187,153.7 268.4526708405614,153.7" stroke="none" /><polygon fill="#fcdc60" points="258.4804,135.0 259.18,135.0 276.78117802696187,153.7" stroke="none" /><polygon fill="#fad856" points="259.18,135.0 283.64253593200243,153.7 276.78117802696187,153.7" stroke="none" /><polygon fill="#fdde64" points="254.0,153.7 247.2079631424392,153.7 253.0,173.25" stroke="none" /><polygon fill="#fbdb5e" points="247.2079631424392,153.7 244.7734563107967,173.25 253.0,173.25" stroke="none" /><polygon fill="#fbdb5c" points="247.2079631424392,153.7 240.5473291594386,153.7 244.7734563107967,173.25" stroke="none" /><polygon fill="#f9d855" points="240.5473291594386,153.7 234.51092321291537,173.25 244.7734563107967,173.25" stroke="none" /><polygon fill="#fad855" points="240.5473291594386,153.7 238.2188219730381,153.7 234.51092321291537,173.25" stroke="none" /><polygon fill="#f8d44d" points="238.2188219730381,153.7 225.10089673461033,173.25 234.51092321291537,173.25" stroke="none" /><polygon fill="#f9d54c" points="238.2188219730381,153.7 226.35746406799757,153.7 225.10089673461033,173.25" stroke="none" /><polygon fill="#f6d043" points="226.35746406799757,153.7 217.9498676084748,173.25 225.10089673461033,173.25" stroke="none" /><polygon fill="#f9d64f" points="226.35746406799757,153.7 254,153.7 217.9498676084748,173.25" stroke="none" /><polygon fill="#fad959" points="254,153.7 259,173.25 217.9498676084748,173.25" stroke="none" /><polygon fill="#fddf69" points="254,153.7 256.0,153.7 259,173.25" stroke="none" /><polygon fill="#fcde65" points="256.0,153.7 258.0,173.25 259,173.25" stroke="none" /><polygon fill="#fdde67" points="256.0,153.7 261.7920368575608,153.7 258.0,173.25" stroke="none" /><polygon fill="#fbdc5f" points="261.7920368575608,153.7 268.2265436892033,173.25 258.0,173.25" stroke="none" /><polygon fill="#fcdb5e" points="261.7920368575608,153.7 268.4526708405614,153.7 268.2265436892033,173.25" stroke="none" /><polygon fill="#f9d856" points="268.4526708405614,153.7 277.4890767870846,173.25 268.2265436892033,173.25" stroke="none" /><polygon fill="#fad855" points="268.4526708405614,153.7 276.78117802696187,153.7 277.4890767870846,173.25" stroke="none" /><polygon fill="#f8d44d" points="276.78117802696187,153.7 284.89910326538967,173.25 277.4890767870846,173.25" stroke="none" /><polygon fill="#f9d54c" points="276.78117802696187,153.7 283.64253593200243,153.7 284.89910326538967,173.25" stroke="none" /><polygon fill="#f6d145" points="283.64253593200243,153.7 293.0501323915252,173.25 284.89910326538967,173.25" stroke="none" /><polygon fill="#fada5c" points="253.0,173.25 244.7734563107967,173.25 254.0,190.25" stroke="none" /><polygon fill="#f9d755" points="244.7734563107967,173.25 241.02443250880532,190.25 254.0,190.25" stroke="none" /><polygon fill="#f8d551" points="244.7734563107967,173.25 234.51092321291537,173.25 241.02443250880532,190.25" stroke="none" /><polygon fill="#f6d24b" points="234.51092321291537,173.25 232.67930562153663,190.25 241.02443250880532,190.25" stroke="none" /><polygon fill="#f5d148" points="234.51092321291537,173.25 225.10089673461033,173.25 232.67930562153663,190.25" stroke="none" /><polygon fill="#f2cc40" points="225.10089673461033,173.25 217.60320411172168,190.25 232.67930562153663,190.25" stroke="none" /><polygon fill="#f3cb3d" points="225.10089673461033,173.25 217.9498676084748,173.25 217.60320411172168,190.25" stroke="none" /><polygon fill="#efc737" points="217.9498676084748,173.25 209.61949245092524,190.25 217.60320411172168,190.25" stroke="none" /><polygon fill="#f5d046" points="217.9498676084748,173.25 259,173.25 209.61949245092524,190.25" stroke="none" /><polygon fill="#f7d450" points="259,173.25 255,190.25 209.61949245092524,190.25" stroke="none" /><polygon fill="#fbdc60" points="259,173.25 258.0,173.25 255,190.25" stroke="none" /><polygon fill="#fbdb5d" points="258.0,173.25 259.0,190.25 255,190.25" stroke="none" /><polygon fill="#fada5c" points="258.0,173.25 268.2265436892033,173.25 259.0,190.25" stroke="none" /><polygon fill="#f9d755" points="268.2265436892033,173.25 268.9755674911947,190.25 259.0,190.25" stroke="none" /><polygon fill="#f8d552" points="268.2265436892033,173.25 277.4890767870846,173.25 268.9755674911947,190.25" stroke="none" /><polygon fill="#f6d24b" points="277.4890767870846,173.25 280.3206943784634,190.25 268.9755674911947,190.25" stroke="none" /><polygon fill="#f5d148" points="277.4890767870846,173.25 284.89910326538967,173.25 280.3206943784634,190.25" stroke="none" /><polygon fill="#f3cd42" points="284.89910326538967,173.25 289.39679588827835,190.25 280.3206943784634,190.25" stroke="none" /><polygon fill="#f3cd40" points="284.89910326538967,173.25 293.0501323915252,173.25 289.39679588827835,190.25" stroke="none" /><polygon fill="#f0c838" points="293.0501323915252,173.25 303.38050754907476,190.25 289.39679588827835,190.25" stroke="none" /><polygon fill="#f9d756" points="254.0,190.25 241.02443250880532,190.25 257.0,204.7" stroke="none" /><polygon fill="#f6d34f" points="241.02443250880532,190.25 236.65858797958418,204.7 257.0,204.7" stroke="none" /><polygon fill="#f4cf49" points="241.02443250880532,190.25 232.67930562153663,190.25 236.65858797958418,204.7" stroke="none" /><polygon fill="#f2cd44" points="232.67930562153663,190.25 230.27873038836006,204.7 236.65858797958418,204.7" stroke="none" /><polygon fill="#f1ca40" points="232.67930562153663,190.25 217.60320411172168,190.25 230.27873038836006,204.7" stroke="none" /><polygon fill="#eec63b" points="217.60320411172168,190.25 219.37484431538076,204.7 230.27873038836006,204.7" stroke="none" /><polygon fill="#edc436" points="217.60320411172168,190.25 209.61949245092524,190.25 219.37484431538076,204.7" stroke="none" /><polygon fill="#ebc132" points="209.61949245092524,190.25 206.48056963510356,204.7 219.37484431538076,204.7" stroke="none" /><polygon fill="#f0c83d" points="209.61949245092524,190.25 255,190.25 206.48056963510356,204.7" stroke="none" /><polygon fill="#f5d04a" points="255,190.25 257,204.7 206.48056963510356,204.7" stroke="none" /><polygon fill="#fad95a" points="255,190.25 259.0,190.25 257,204.7" stroke="none" /><polygon fill="#fad857" points="259.0,190.25 258.0,204.7 257,204.7" stroke="none" /><polygon fill="#f8d655" points="259.0,190.25 268.9755674911947,190.25 258.0,204.7" stroke="none" /><polygon fill="#f7d450" points="268.9755674911947,190.25 269.3414120204158,204.7 258.0,204.7" stroke="none" /><polygon fill="#f5d04b" points="268.9755674911947,190.25 280.3206943784634,190.25 269.3414120204158,204.7" stroke="none" /><polygon fill="#f2cd45" points="280.3206943784634,190.25 284.72126961163997,204.7 269.3414120204158,204.7" stroke="none" /><polygon fill="#f1ca40" points="280.3206943784634,190.25 289.39679588827835,190.25 284.72126961163997,204.7" stroke="none" /><polygon fill="#eec73b" points="289.39679588827835,190.25 293.62515568461924,204.7 284.72126961163997,204.7" stroke="none" /><polygon fill="#edc437" points="289.39679588827835,190.25 303.38050754907476,190.25 293.62515568461924,204.7" stroke="none" /><polygon fill="#ebc132" points="303.38050754907476,190.25 303.51943036489644,204.7 293.62515568461924,204.7" stroke="none" /><polygon fill="#f7d34f" points="257.0,204.7 236.65858797958418,204.7 253.0,218.3" stroke="none" /><polygon fill="#f4ce48" points="236.65858797958418,204.7 237.68076582616658,218.3 253.0,218.3" stroke="none" /><polygon fill="#f1cb43" points="236.65858797958418,204.7 230.27873038836006,204.7 237.68076582616658,218.3" stroke="none" /><polygon fill="#f0c840" points="230.27873038836006,204.7 231.0752853914443,218.3 237.68076582616658,218.3" stroke="none" /><polygon fill="#eec63d" points="230.27873038836006,204.7 219.37484431538076,204.7 231.0752853914443,218.3" stroke="none" /><polygon fill="#ebc238" points="219.37484431538076,204.7 217.79090104366648,218.3 231.0752853914443,218.3" stroke="none" /><polygon fill="#e9bf33" points="219.37484431538076,204.7 206.48056963510356,204.7 217.79090104366648,218.3" stroke="none" /><polygon fill="#e7bc30" points="206.48056963510356,204.7 210.57807826111087,218.3 217.79090104366648,218.3" stroke="none" /><polygon fill="#edc53b" points="206.48056963510356,204.7 257,204.7 210.57807826111087,218.3" stroke="none" /><polygon fill="#f3ce47" points="257,204.7 258,218.3 210.57807826111087,218.3" stroke="none" /><polygon fill="#f9d753" points="257,204.7 258.0,204.7 258,218.3" stroke="none" /><polygon fill="#f9d652" points="258.0,204.7 255.0,218.3 258,218.3" stroke="none" /><polygon fill="#f8d551" points="258.0,204.7 269.3414120204158,204.7 255.0,218.3" stroke="none" /><polygon fill="#f6d14b" points="269.3414120204158,204.7 270.3192341738334,218.3 255.0,218.3" stroke="none" /><polygon fill="#f2cc45" points="269.3414120204158,204.7 284.72126961163997,204.7 270.3192341738334,218.3" stroke="none" /><polygon fill="#f0c941" points="284.72126961163997,204.7 280.9247146085557,218.3 270.3192341738334,218.3" stroke="none" /><polygon fill="#edc63c" points="284.72126961163997,204.7 293.62515568461924,204.7 280.9247146085557,218.3" stroke="none" /><polygon fill="#ecc339" points="293.62515568461924,204.7 289.2090989563335,218.3 280.9247146085557,218.3" stroke="none" /><polygon fill="#e9c034" points="293.62515568461924,204.7 303.51943036489644,204.7 289.2090989563335,218.3" stroke="none" /><polygon fill="#e7bc30" points="303.51943036489644,204.7 304.4219217388891,218.3 289.2090989563335,218.3" stroke="none" /><polygon fill="#f5d049" points="253.0,218.3 237.68076582616658,218.3 253.0,230.2" stroke="none" /><polygon fill="#f2cd45" points="237.68076582616658,218.3 239.21716202679926,230.2 253.0,230.2" stroke="none" /><polygon fill="#efc941" points="237.68076582616658,218.3 231.0752853914443,218.3 239.21716202679926,230.2" stroke="none" /><polygon fill="#eec73e" points="231.0752853914443,218.3 230.01804235013205,230.2 239.21716202679926,230.2" stroke="none" /><polygon fill="#ebc339" points="231.0752853914443,218.3 217.79090104366648,218.3 230.01804235013205,230.2" stroke="none" /><polygon fill="#e9c036" points="217.79090104366648,218.3 221.05874660879826,230.2 230.01804235013205,230.2" stroke="none" /><polygon fill="#e7bc32" points="217.79090104366648,218.3 210.57807826111087,218.3 221.05874660879826,230.2" stroke="none" /><polygon fill="#e4ba30" points="210.57807826111087,218.3 209.2035212933311,230.2 221.05874660879826,230.2" stroke="none" /><polygon fill="#ebc239" points="210.57807826111087,218.3 258,218.3 209.2035212933311,230.2" stroke="none" /><polygon fill="#f1cb43" points="258,218.3 254,230.2 209.2035212933311,230.2" stroke="none" /><polygon fill="#f8d54f" points="258,218.3 255.0,218.3 254,230.2" stroke="none" /><polygon fill="#f8d54d" points="255.0,218.3 256.0,230.2 254,230.2" stroke="none" /><polygon fill="#f6d34c" points="255.0,218.3 270.3192341738334,218.3 256.0,230.2" stroke="none" /><polygon fill="#f3ce46" points="270.3192341738334,218.3 273.78283797320074,230.2 256.0,230.2" stroke="none" /><polygon fill="#f0c941" points="270.3192341738334,218.3 280.9247146085557,218.3 273.78283797320074,230.2" stroke="none" /><polygon fill="#eec73e" points="280.9247146085557,218.3 280.981957649868,230.2 273.78283797320074,230.2" stroke="none" /><polygon fill="#ecc43b" points="280.9247146085557,218.3 289.2090989563335,218.3 280.981957649868,230.2" stroke="none" /><polygon fill="#eac138" points="289.2090989563335,218.3 289.9412533912017,230.2 280.981957649868,230.2" stroke="none" /><polygon fill="#e7bd33" points="289.2090989563335,218.3 304.4219217388891,218.3 289.9412533912017,230.2" stroke="none" /><polygon fill="#e4b92f" points="304.4219217388891,218.3 303.7964787066689,230.2 289.9412533912017,230.2" stroke="none" /><polygon fill="#f5cf46" points="253.0,230.2 239.21716202679926,230.2 258.0,243.8" stroke="none" /><polygon fill="#f2cc41" points="239.21716202679926,230.2 238.91807395252857,243.8 258.0,243.8" stroke="none" /><polygon fill="#eec63d" points="239.21716202679926,230.2 230.01804235013205,230.2 238.91807395252857,243.8" stroke="none" /><polygon fill="#eac238" points="230.01804235013205,230.2 224.73479664383808,243.8 238.91807395252857,243.8" stroke="none" /><polygon fill="#e8bf36" points="230.01804235013205,230.2 221.05874660879826,230.2 224.73479664383808,243.8" stroke="none" /><polygon fill="#e5ba32" points="221.05874660879826,230.2 217.9881747968857,243.8 224.73479664383808,243.8" stroke="none" /><polygon fill="#e4b830" points="221.05874660879826,230.2 209.2035212933311,230.2 217.9881747968857,243.8" stroke="none" /><polygon fill="#e0b42d" points="209.2035212933311,230.2 207.2668907652381,243.8 217.9881747968857,243.8" stroke="none" /><polygon fill="#e8bd35" points="209.2035212933311,230.2 254,230.2 207.2668907652381,243.8" stroke="none" /><polygon fill="#efc83e" points="254,230.2 258,243.8 207.2668907652381,243.8" stroke="none" /><polygon fill="#f9d44a" points="254,230.2 256.0,230.2 258,243.8" stroke="none" /><polygon fill="#f7d347" points="256.0,230.2 253.0,243.8 258,243.8" stroke="none" /><polygon fill="#f6d046" points="256.0,230.2 273.78283797320074,230.2 253.0,243.8" stroke="none" /><polygon fill="#f2cc41" points="273.78283797320074,230.2 271.0819260474714,243.8 253.0,243.8" stroke="none" /><polygon fill="#eec63d" points="273.78283797320074,230.2 280.981957649868,230.2 271.0819260474714,243.8" stroke="none" /><polygon fill="#ebc239" points="280.981957649868,230.2 287.2652033561619,243.8 271.0819260474714,243.8" stroke="none" /><polygon fill="#e9bf36" points="280.981957649868,230.2 289.9412533912017,230.2 287.2652033561619,243.8" stroke="none" /><polygon fill="#e4ba32" points="289.9412533912017,230.2 296.0118252031143,243.8 287.2652033561619,243.8" stroke="none" /><polygon fill="#e3b830" points="289.9412533912017,230.2 303.7964787066689,230.2 296.0118252031143,243.8" stroke="none" /><polygon fill="#e0b42d" points="303.7964787066689,230.2 304.7331092347619,243.8 296.0118252031143,243.8" stroke="none" /><polygon fill="#f5ce41" points="258.0,243.8 238.91807395252857,243.8 258.0,258.25" stroke="none" /><polygon fill="#f1ca3d" points="238.91807395252857,243.8 244.19042298543263,258.25 258.0,258.25" stroke="none" /><polygon fill="#ecc339" points="238.91807395252857,243.8 224.73479664383808,243.8 244.19042298543263,258.25" stroke="none" /><polygon fill="#e8bf35" points="224.73479664383808,243.8 226.97104645924526,258.25 244.19042298543263,258.25" stroke="none" /><polygon fill="#e4b932" points="224.73479664383808,243.8 217.9881747968857,243.8 226.97104645924526,258.25" stroke="none" /><polygon fill="#e2b730" points="217.9881747968857,243.8 219.99554523829534,258.25 226.97104645924526,258.25" stroke="none" /><polygon fill="#dfb32d" points="217.9881747968857,243.8 207.2668907652381,243.8 219.99554523829534,258.25" stroke="none" /><polygon fill="#deb12c" points="207.2668907652381,243.8 214.12249389525044,258.25 219.99554523829534,258.25" stroke="none" /><polygon fill="#e6bb33" points="207.2668907652381,243.8 258,243.8 214.12249389525044,258.25" stroke="none" /><polygon fill="#eec63a" points="258,243.8 255,258.25 214.12249389525044,258.25" stroke="none" /><polygon fill="#f7d143" points="258,243.8 253.0,243.8 255,258.25" stroke="none" /><polygon fill="#f6d041" points="253.0,243.8 258.0,258.25 255,258.25" stroke="none" /><polygon fill="#f5ce41" points="253.0,243.8 271.0819260474714,243.8 258.0,258.25" stroke="none" /><polygon fill="#f0c83c" points="271.0819260474714,243.8 271.80957701456737,258.25 258.0,258.25" stroke="none" /><polygon fill="#ebc238" points="271.0819260474714,243.8 287.2652033561619,243.8 271.80957701456737,258.25" stroke="none" /><polygon fill="#e8be34" points="287.2652033561619,243.8 285.02895354075474,258.25 271.80957701456737,258.25" stroke="none" /><polygon fill="#e4b931" points="287.2652033561619,243.8 296.0118252031143,243.8 285.02895354075474,258.25" stroke="none" /><polygon fill="#e2b730" points="296.0118252031143,243.8 289.00445476170466,258.25 285.02895354075474,258.25" stroke="none" /><polygon fill="#e0b32d" points="296.0118252031143,243.8 304.7331092347619,243.8 289.00445476170466,258.25" stroke="none" /><polygon fill="#ddb02b" points="304.7331092347619,243.8 303.87750610474956,258.25 289.00445476170466,258.25" stroke="none" /><polygon fill="#f4cd3c" points="258.0,258.25 244.19042298543263,258.25 255.0,272.7" stroke="none" /><polygon fill="#f0c838" points="244.19042298543263,258.25 243.44464709573862,272.7 255.0,272.7" stroke="none" /><polygon fill="#ebc135" points="244.19042298543263,258.25 226.97104645924526,258.25 243.44464709573862,272.7" stroke="none" /><polygon fill="#e8bd32" points="226.97104645924526,258.25 234.69059186523756,272.7 243.44464709573862,272.7" stroke="none" /><polygon fill="#e4b930" points="226.97104645924526,258.25 219.99554523829534,258.25 234.69059186523756,272.7" stroke="none" /><polygon fill="#e3b72f" points="219.99554523829534,258.25 226.68734768083672,272.7 234.69059186523756,272.7" stroke="none" /><polygon fill="#dfb32d" points="219.99554523829534,258.25 214.12249389525044,258.25 226.68734768083672,272.7" stroke="none" /><polygon fill="#deb12c" points="214.12249389525044,258.25 219.9837790779958,272.7 226.68734768083672,272.7" stroke="none" /><polygon fill="#e5bb32" points="214.12249389525044,258.25 255,258.25 219.9837790779958,272.7" stroke="none" /><polygon fill="#edc436" points="255,258.25 253,272.7 219.9837790779958,272.7" stroke="none" /><polygon fill="#f6cf3d" points="255,258.25 258.0,258.25 253,272.7" stroke="none" /><polygon fill="#f5ce3b" points="258.0,258.25 256.0,272.7 253,272.7" stroke="none" /><polygon fill="#f3cb3b" points="258.0,258.25 271.80957701456737,258.25 256.0,272.7" stroke="none" /><polygon fill="#f0c738" points="271.80957701456737,258.25 267.5553529042614,272.7 256.0,272.7" stroke="none" /><polygon fill="#eac135" points="271.80957701456737,258.25 285.02895354075474,258.25 267.5553529042614,272.7" stroke="none" /><polygon fill="#e9bf33" points="285.02895354075474,258.25 273.30940813476246,272.7 267.5553529042614,272.7" stroke="none" /><polygon fill="#e5bb32" points="285.02895354075474,258.25 289.00445476170466,258.25 273.30940813476246,272.7" stroke="none" /><polygon fill="#e5ba31" points="289.00445476170466,258.25 282.3126523191633,272.7 273.30940813476246,272.7" stroke="none" /><polygon fill="#dfb32d" points="289.00445476170466,258.25 303.87750610474956,258.25 282.3126523191633,272.7" stroke="none" /><polygon fill="#deb12c" points="303.87750610474956,258.25 290.0162209220042,272.7 282.3126523191633,272.7" stroke="none" /><polygon fill="#f2c936" points="255.0,272.7 243.44464709573862,272.7 254.0,288.0" stroke="none" /><polygon fill="#f1c835" points="243.44464709573862,272.7 251.07206966225897,288.0 254.0,288.0" stroke="none" /><polygon fill="#ecc233" points="243.44464709573862,272.7 234.69059186523756,272.7 251.07206966225897,288.0" stroke="none" /><polygon fill="#ecc233" points="234.69059186523756,272.7 243.066061830637,288.0 251.07206966225897,288.0" stroke="none" /><polygon fill="#e6bb30" points="234.69059186523756,272.7 226.68734768083672,272.7 243.066061830637,288.0" stroke="none" /><polygon fill="#e6bb30" points="226.68734768083672,272.7 235.2612555653394,288.0 243.066061830637,288.0" stroke="none" /><polygon fill="#e1b52d" points="226.68734768083672,272.7 219.9837790779958,272.7 235.2612555653394,288.0" stroke="none" /><polygon fill="#e1b52d" points="219.9837790779958,272.7 228.97596867351206,288.0 235.2612555653394,288.0" stroke="none" /><polygon fill="#e6bb30" points="219.9837790779958,272.7 253,272.7 228.97596867351206,288.0" stroke="none" /><polygon fill="#eec534" points="253,272.7 255,288.0 228.97596867351206,288.0" stroke="none" /><polygon fill="#f5cc37" points="253,272.7 256.0,272.7 255,288.0" stroke="none" /><polygon fill="#f5cd37" points="256.0,272.7 255.0,288.0 255,288.0" stroke="none" /><polygon fill="#f3ca36" points="256.0,272.7 267.5553529042614,272.7 255.0,288.0" stroke="none" /><polygon fill="#f1c835" points="267.5553529042614,272.7 264.92793033774103,288.0 255.0,288.0" stroke="none" /><polygon fill="#ecc333" points="267.5553529042614,272.7 273.30940813476246,272.7 264.92793033774103,288.0" stroke="none" /><polygon fill="#edc333" points="273.30940813476246,272.7 266.933938169363,288.0 264.92793033774103,288.0" stroke="none" /><polygon fill="#e8be31" points="273.30940813476246,272.7 282.3126523191633,272.7 266.933938169363,288.0" stroke="none" /><polygon fill="#e9be31" points="282.3126523191633,272.7 271.7387444346606,288.0 266.933938169363,288.0" stroke="none" /><polygon fill="#e3b82e" points="282.3126523191633,272.7 290.0162209220042,272.7 271.7387444346606,288.0" stroke="none" /><polygon fill="#e3b82e" points="290.0162209220042,272.7 281.02403132648794,288.0 271.7387444346606,288.0" stroke="none" /><polygon fill="#f4cc37" points="254.0,288.0 251.07206966225897,288.0 257.0,305.0" stroke="none" /><polygon fill="#f4cc37" points="251.07206966225897,288.0 253.9506,305.0 257.0,305.0" stroke="none" /><polygon fill="#f1c835" points="251.07206966225897,288.0 243.066061830637,288.0 253.9506,305.0" stroke="none" /><polygon fill="#f2c936" points="243.066061830637,288.0 255.1556,305.0 253.9506,305.0" stroke="none" /><polygon fill="#edc433" points="243.066061830637,288.0 235.2612555653394,288.0 255.1556,305.0" stroke="none" /><polygon fill="#f0c735" points="235.2612555653394,288.0 253.5196,305.0 255.1556,305.0" stroke="none" /><polygon fill="#e9bf31" points="235.2612555653394,288.0 228.97596867351206,288.0 253.5196,305.0" stroke="none" /><polygon fill="#edc433" points="228.97596867351206,288.0 251.82,305.0 253.5196,305.0" stroke="none" /><polygon fill="#eec434" points="228.97596867351206,288.0 255,288.0 251.82,305.0" stroke="none" /><polygon fill="#f4cc37" points="255,288.0 257,305.0 251.82,305.0" stroke="none" /><polygon fill="#f5cd37" points="255,288.0 255.0,288.0 257,305.0" stroke="none" /><polygon fill="#f5cd37" points="255.0,288.0 257.0,305.0 257,305.0" stroke="none" /><polygon fill="#f3cb36" points="255.0,288.0 264.92793033774103,288.0 257.0,305.0" stroke="none" /><polygon fill="#f3cb36" points="264.92793033774103,288.0 256.0494,305.0 257.0,305.0" stroke="none" /><polygon fill="#f1c835" points="264.92793033774103,288.0 266.933938169363,288.0 256.0494,305.0" stroke="none" /><polygon fill="#f3ca36" points="266.933938169363,288.0 256.8444,305.0 256.0494,305.0" stroke="none" /><polygon fill="#efc634" points="266.933938169363,288.0 271.7387444346606,288.0 256.8444,305.0" stroke="none" /><polygon fill="#f1c835" points="271.7387444346606,288.0 258.4804,305.0 256.8444,305.0" stroke="none" /><polygon fill="#ebc132" points="271.7387444346606,288.0 281.02403132648794,288.0 258.4804,305.0" stroke="none" /><polygon fill="#eec434" points="281.02403132648794,288.0 260.18,305.0 258.4804,305.0" stroke="none" /><path d="M 244 209 A 10 21 0 0 0 244 229 Z" fill="#f6ce38" stroke="#d6a828" stroke-width="1" /><path d="M 268 209 A 10 21 0 0 1 268 229 Z" fill="#f6ce38" stroke="#d6a828" stroke-width="1" /><line stroke="#3a2a1a" stroke-width="3" x1="223" x2="238" y1="212" y2="213" /><line stroke="#3a2a1a" stroke-width="3" x1="242" x2="257" y1="213" y2="212" /><line stroke="#3a2a1a" stroke-width="3" x1="255" x2="270" y1="214" y2="215" /><line stroke="#3a2a1a" stroke-width="3" x1="274" x2="289" y1="215" y2="214" /><line stroke="#3a2a1a" stroke-width="6" x1="232" x2="248" y1="202" y2="202" /><line stroke="#3a2a1a" stroke-width="6" x1="261" x2="283" y1="202" y2="202" /><path d="M 227 226 A 6 4 0 0 0 239 226 Z" fill="#e88060" fill-opacity="0.29303201852232114" stroke="none" /><path d="M 272 225 A 7 4 0 0 0 286 225 Z" fill="#e88060" fill-opacity="0.2656354879446418" stroke="none" /><polygon fill="#d6a828" points="256,219 257,225 256,226 255,225" stroke="none" /><path d="M 244 239 Q 247 241 250 239 Q 253 237 256 239 Q 259 241 262 239 Q 265 237 268 239" fill="none" stroke="#c06050" stroke-width="3" /><circle cx="234" cy="249" fill="#d6a828" fill-opacity="0.15" r="0.8929926765718001" stroke="none" /><circle cx="240" cy="262" fill="#d6a828" fill-opacity="0.15" r="0.9405316423044584" stroke="none" /><circle cx="291" cy="254" fill="#d6a828" fill-opacity="0.15" r="0.8760578981783151" stroke="none" /><circle cx="251" cy="204" fill="#d6a828" fill-opacity="0.15" r="1.35117467275285" stroke="none" /><circle cx="257" cy="209" fill="#d6a828" fill-opacity="0.15" r="1.0509968662589457" stroke="none" /><circle cx="284" cy="246" fill="#d6a828" fill-opacity="0.15" r="1.5285777272935477" stroke="none" /><circle cx="283" cy="204" fill="#d6a828" fill-opacity="0.15" r="1.0342115975232498" stroke="none" /><circle cx="238" cy="243" fill="#d6a828" fill-opacity="0.15" r="0.8200082742531802" stroke="none" /><circle cx="246" cy="200" fill="#d6a828" fill-opacity="0.15" r="1.4669707264105145" stroke="none" /><circle cx="251" cy="185" fill="#d6a828" fill-opacity="0.15" r="0.7730756578637472" stroke="none" /><circle cx="288" cy="236" fill="#d6a828" fill-opacity="0.15" r="0.6719821969819041" stroke="none" /><circle cx="289" cy="212" fill="#d6a828" fill-opacity="0.15" r="1.6090675818042934" stroke="none" /><circle cx="238" cy="239" fill="#d6a828" fill-opacity="0.15" r="0.9958350006148835" stroke="none" /><circle cx="221" cy="234" fill="#d6a828" fill-opacity="0.15" r="0.8951532195915733" stroke="none" /><circle cx="285" cy="193" fill="#d6a828" fill-opacity="0.15" r="0.9624810964567032" stroke="none" /><circle cx="237" cy="238" fill="#d6a828" fill-opacity="0.15" r="1.0424494369046082" stroke="none" /><circle cx="232" cy="258" fill="#d6a828" fill-opacity="0.15" r="0.6412056233209769" stroke="none" /><circle cx="283" cy="237" fill="#d6a828" fill-opacity="0.15" r="1.7275796210231298" stroke="none" /><circle cx="253" cy="247" fill="#d6a828" fill-opacity="0.15" r="1.574191597993229" stroke="none" /><circle cx="269" cy="184" fill="#d6a828" fill-opacity="0.15" r="0.9836217668391066" stroke="none" /><circle cx="234" cy="201" fill="#d6a828" fill-opacity="0.15" r="1.0258078518633635" stroke="none" /><circle cx="286" cy="249" fill="#d6a828" fill-opacity="0.15" r="0.853154895405109" stroke="none" /><circle cx="228" cy="227" fill="#d6a828" fill-opacity="0.15" r="0.8532502808411819" stroke="none" /><circle cx="266" cy="205" fill="#d6a828" fill-opacity="0.15" r="1.1787002203694736" stroke="none" /><circle cx="235" cy="185" fill="#d6a828" fill-opacity="0.15" r="0.8413253780249739" stroke="none" /><circle cx="226" cy="231" fill="#d6a828" fill-opacity="0.15" r="0.6349859849653914" stroke="none" /><circle cx="255" cy="249" fill="#d6a828" fill-opacity="0.15" r="1.0590027764518952" stroke="none" /><circle cx="236" cy="247" fill="#d6a828" fill-opacity="0.15" r="0.5" stroke="none" /><circle cx="284" cy="249" fill="#d6a828" fill-opacity="0.15" r="0.5431523591662244" stroke="none" /><circle cx="240" cy="237" fill="#d6a828" fill-opacity="0.15" r="1.1606066491513212" stroke="none" /><circle cx="222" cy="249" fill="#d6a828" fill-opacity="0.15" r="1.6888668612570472" stroke="none" /><circle cx="231" cy="202" fill="#d6a828" fill-opacity="0.15" r="1.3782934897802301" stroke="none" /><circle cx="239" cy="230" fill="#d6a828" fill-opacity="0.15" r="0.5" stroke="none" /><circle cx="279" cy="259" fill="#d6a828" fill-opacity="0.15" r="0.7271388758531012" stroke="none" /><circle cx="227" cy="259" fill="#d6a828" fill-opacity="0.15" r="0.7126233822875628" stroke="none" /><circle cx="290" cy="210" fill="#d6a828" fill-opacity="0.15" r="0.5" stroke="none" /><circle cx="222" cy="174" fill="#d6a828" fill-opacity="0.15" r="0.5" stroke="none" /><circle cx="260" cy="179" fill="#d6a828" fill-opacity="0.15" r="1.4174908113533742" stroke="none" /><circle cx="275" cy="251" fill="#d6a828" fill-opacity="0.15" r="0.7350023076116056" stroke="none" /><circle cx="287" cy="180" fill="#d6a828" fill-opacity="0.15" r="1.5143064114758287" stroke="none" /><circle cx="220" cy="218" fill="#d6a828" fill-opacity="0.15" r="0.7185847759282553" stroke="none" /><circle cx="248" cy="170" fill="#d6a828" fill-opacity="0.15" r="1.5716280314056448" stroke="none" /><circle cx="223" cy="205" fill="#d6a828" fill-opacity="0.15" r="0.6441000799047153" stroke="none" /><circle cx="258" cy="192" fill="#d6a828" fill-opacity="0.15" r="0.8485068805048478" stroke="none" /><circle cx="286" cy="226" fill="#d6a828" fill-opacity="0.15" r="1.3142527457847524" stroke="none" /><circle cx="273" cy="247" fill="#d6a828" fill-opacity="0.15" r="0.5" stroke="none" /><circle cx="225" cy="262" fill="#d6a828" fill-opacity="0.15" r="1.580408729917434" stroke="none" /><circle cx="226" cy="251" fill="#d6a828" fill-opacity="0.15" r="0.8401719098553074" stroke="none" /><circle cx="267" cy="225" fill="#d6a828" fill-opacity="0.15" r="1.3624840550912218" stroke="none" /><circle cx="285" cy="183" fill="#d6a828" fill-opacity="0.15" r="1.6767732289427557" stroke="none" /><polygon fill="#ba9420" points="245,301.0 267,301.0 267,336.0 245,336.0" stroke="none" /><path d="M 253 319.0 Q 256 309.0 259 319.0" fill="none" stroke="#d6a828" stroke-width="1.5" /></svg>