<?xml version="1.0" encoding="utf-8" ?>
<svg baseProfile="full" height="512" version="1.1" width="512" xmlns="http://www.w3.org/2000/svg" xmlns:ev="http://www.w3.org/2001/xml-events" xmlns:xlink="http://www.w3.org/1999/xlink"><defs /><polygon fill="#fce16c" points="256.0,115.5 246.44650000000001,115.5 258.0,138.49" stroke="none" /><polygon fill="#fce06a" points="246.44650000000001,115.5 243.99021288298144,138.49 258.0,138.49" stroke="none" /><polygon fill="#fbdf66" points="246.44650000000001,115.5 238.209,115.5 243.99021288298144,138.49" stroke="none" /><polygon fill="#fbde65" points="238.209,115.5 243.1646165822098,138.49 243.99021288298144,138.49" stroke="none" /><polygon fill="#fbde64" points="238.209,115.5 234.419,115.5 243.1646165822098,138.49" stroke="none" /><polygon fill="#fbdd63" points="234.419,115.5 234.7041395415925,138.49 243.1646165822098,138.49" stroke="none" /><polygon fill="#fadc60" points="234.419,115.5 226.05,115.5 234.7041395415925,138.49" stroke="none" /><polygon fill="#fadc5f" points="226.05,115.5 231.69761479691346,138.49 234.7041395415925,138.49" stroke="none" /><polygon fill="#fbdd63" points="226.05,115.5 255,115.5 231.69761479691346,138.49" stroke="none" /><polygon fill="#fce069" points="255,115.5 257,138.49 231.69761479691346,138.49" stroke="none" /><polygon fill="#fce16d" points="255,115.5 255.0,115.5 257,138.49" stroke="none" /><polygon fill="#fce16d" points="255.0,115.5 259.0,138.49 257,138.49" stroke="none" /><polygon fill="#fce16b" points="255.0,115.5 265.5535,115.5 259.0,138.49" stroke="none" /><polygon fill="#fce069" points="265.5535,115.5 267.00978711701856,138.49 259.0,138.49" stroke="none" /><polygon fill="#fbdf66" points="265.5535,115.5 273.791,115.5 267.00978711701856,138.49" stroke="none" /><polygon fill="#fbde65" points="273.791,115.5 272.8353834177902,138.49 267.00978711701856,138.49" stroke="none" /><polygon fill="#fbdd62" points="273.791,115.5 279.581,115.5 272.8353834177902,138.49" stroke="none" /><polygon fill="#fadd62" points="279.581,115.5 278.2958604584075,138.49 272.8353834177902,138.49" stroke="none" /><polygon fill="#fadc5f" points="279.581,115.5 285.95,115.5 278.2958604584075,138.49" stroke="none" /><polygon fill="#fadc5e" points="285.95,115.5 283.30238520308654,138.49 278.2958604584075,138.49" stroke="none" /><polygon fill="#fce16c" points="258.0,138.49 243.99021288298144,138.49 259.0,162.525" stroke="none" /><polygon fill="#fbdf67" points="243.99021288298144,138.49 247.43116035678491,162.525 259.0,162.525" stroke="none" /><polygon fill="#fbdf67" points="243.99021288298144,138.49 243.1646165822098,138.49 247.43116035678491,162.525" stroke="none" /><polygon fill="#fadd63" points="243.1646165822098,138.49 237.42446365737956,162.525 247.43116035678491,162.525" stroke="none" /><polygon fill="#fbde63" points="243.1646165822098,138.49 234.7041395415925,138.49 237.42446365737956,162.525" stroke="none" /><polygon fill="#f9db5f" points="234.7041395415925,138.49 232.01910629785525,162.525 237.42446365737956,162.525" stroke="none" /><polygon fill="#fadc60" points="234.7041395415925,138.49 231.69761479691346,138.49 232.01910629785525,162.525" stroke="none" /><polygon fill="#f9da5c" points="231.69761479691346,138.49 223.97321320237853,162.525 232.01910629785525,162.525" stroke="none" /><polygon fill="#fbdd63" points="231.69761479691346,138.49 257,138.49 223.97321320237853,162.525" stroke="none" /><polygon fill="#fade65" points="257,138.49 258,162.525 223.97321320237853,162.525" stroke="none" /><polygon fill="#fce16c" points="257,138.49 259.0,138.49 258,162.525" stroke="none" /><polygon fill="#fbe06a" points="259.0,138.49 256.0,162.525 258,162.525" stroke="none" /><polygon fill="#fce06b" points="259.0,138.49 267.00978711701856,138.49 256.0,162.525" stroke="none" /><polygon fill="#fbdf66" points="267.00978711701856,138.49 269.5688396432151,162.525 256.0,162.525" stroke="none" /><polygon fill="#fbde66" points="267.00978711701856,138.49 272.8353834177902,138.49 269.5688396432151,162.525" stroke="none" /><polygon fill="#fadc61" points="272.8353834177902,138.49 276.57553634262047,162.525 269.5688396432151,162.525" stroke="none" /><polygon fill="#fbdd62" points="272.8353834177902,138.49 278.2958604584075,138.49 276.57553634262047,162.525" stroke="none" /><polygon fill="#f9db5e" points="278.2958604584075,138.49 280.9808937021447,162.525 276.57553634262047,162.525" stroke="none" /><polygon fill="#fadc5f" points="278.2958604584075,138.49 283.30238520308654,138.49 280.9808937021447,162.525" stroke="none" /><polygon fill="#f8da5b" points="283.30238520308654,138.49 286.02678679762147,162.525 280.9808937021447,162.525" stroke="none" /><polygon fill="#fade65" points="259.0,162.525 247.43116035678491,162.525 257.0,183.425" stroke="none" /><polygon fill="#f9db5f" points="247.43116035678491,162.525 235.93328305545174,183.425 257.0,183.425" stroke="none" /><polygon fill="#f8da5d" points="247.43116035678491,162.525 237.42446365737956,162.525 235.93328305545174,183.425" stroke="none" /><polygon fill="#f7d758" points="237.42446365737956,162.525 225.00395203685454,183.425 235.93328305545174,183.425" stroke="none" /><polygon fill="#f7d859" points="237.42446365737956,162.525 232.01910629785525,162.525 225.00395203685454,183.425" stroke="none" /><polygon fill="#f5d553" points="232.01910629785525,162.525 212.6604872219768,183.425 225.00395203685454,183.425" stroke="none" /><polygon fill="#f6d655" points="232.01910629785525,162.525 223.97321320237853,162.525 212.6604872219768,183.425" stroke="none" /><polygon fill="#f3d24e" points="223.97321320237853,162.525 201.28267592561127,183.425 212.6604872219768,183.425" stroke="none" /><polygon fill="#f6d757" points="223.97321320237853,162.525 258,162.525 201.28267592561127,183.425" stroke="none" /><polygon fill="#f8d95a" points="258,162.525 254,183.425 201.28267592561127,183.425" stroke="none" /><polygon fill="#fbdf66" points="258,162.525 256.0,162.525 254,183.425" stroke="none" /><polygon fill="#fadd63" points="256.0,162.525 256.0,183.425 254,183.425" stroke="none" /><polygon fill="#fadd63" points="256.0,162.525 269.5688396432151,162.525 256.0,183.425" stroke="none" /><polygon fill="#f9db5e" points="269.5688396432151,162.525 275.06671694454826,183.425 256.0,183.425" stroke="none" /><polygon fill="#f8da5c" points="269.5688396432151,162.525 276.57553634262047,162.525 275.06671694454826,183.425" stroke="none" /><polygon fill="#f7d758" points="276.57553634262047,162.525 284.99604796314543,183.425 275.06671694454826,183.425" stroke="none" /><polygon fill="#f7d859" points="276.57553634262047,162.525 280.9808937021447,162.525 284.99604796314543,183.425" stroke="none" /><polygon fill="#f5d553" points="280.9808937021447,162.525 299.3395127780232,183.425 284.99604796314543,183.425" stroke="none" /><polygon fill="#f6d655" points="280.9808937021447,162.525 286.02678679762147,162.525 299.3395127780232,183.425" stroke="none" /><polygon fill="#f4d24f" points="286.02678679762147,162.525 304.7173240743887,183.425 299.3395127780232,183.425" stroke="none" /><polygon fill="#f8da5c" points="257.0,183.425 235.93328305545174,183.425 255.0,201.19" stroke="none" /><polygon fill="#f6d756" points="235.93328305545174,183.425 229.77264195112468,201.19 255.0,201.19" stroke="none" /><polygon fill="#f5d454" points="235.93328305545174,183.425 225.00395203685454,183.425 229.77264195112468,201.19" stroke="none" /><polygon fill="#f3d24f" points="225.00395203685454,183.425 218.17615858076462,201.19 229.77264195112468,201.19" stroke="none" /><polygon fill="#f3d14e" points="225.00395203685454,183.425 212.6604872219768,183.425 218.17615858076462,201.19" stroke="none" /><polygon fill="#f1ce49" points="212.6604872219768,183.425 203.09897188447655,201.19 218.17615858076462,201.19" stroke="none" /><polygon fill="#f0cd48" points="212.6604872219768,183.425 201.28267592561127,183.425 203.09897188447655,201.19" stroke="none" /><polygon fill="#eeca43" points="201.28267592561127,183.425 183.6140665185597,201.19 203.09897188447655,201.19" stroke="none" /><polygon fill="#f1cf4c" points="201.28267592561127,183.425 254,183.425 183.6140665185597,201.19" stroke="none" /><polygon fill="#f5d453" points="254,183.425 257,201.19 183.6140665185597,201.19" stroke="none" /><polygon fill="#f9db5f" points="254,183.425 256.0,183.425 257,201.19" stroke="none" /><polygon fill="#fadc5e" points="256.0,183.425 255.0,201.19 257,201.19" stroke="none" /><polygon fill="#f8da5d" points="256.0,183.425 275.06671694454826,183.425 255.0,201.19" stroke="none" /><polygon fill="#f7d757" points="275.06671694454826,183.425 280.2273580488753,201.19 255.0,201.19" stroke="none" /><polygon fill="#f5d554" points="275.06671694454826,183.425 284.99604796314543,183.425 280.2273580488753,201.19" stroke="none" /><polygon fill="#f3d24f" points="284.99604796314543,183.425 297.82384141923535,201.19 280.2273580488753,201.19" stroke="none" /><polygon fill="#f2d14e" points="284.99604796314543,183.425 299.3395127780232,183.425 297.82384141923535,201.19" stroke="none" /><polygon fill="#f0ce49" points="299.3395127780232,183.425 308.90102811552345,201.19 297.82384141923535,201.19" stroke="none" /><polygon fill="#f0ce49" points="299.3395127780232,183.425 304.7173240743887,183.425 308.90102811552345,201.19" stroke="none" /><polygon fill="#eeca44" points="304.7173240743887,183.425 325.3859334814403,201.19 308.90102811552345,201.19" stroke="none" /><polygon fill="#f7d757" points="255.0,201.19 229.77264195112468,201.19 257.0,217.91" stroke="none" /><polygon fill="#f5d352" points="229.77264195112468,201.19 231.53292531470822,217.91 257.0,217.91" stroke="none" /><polygon fill="#f2d04e" points="229.77264195112468,201.19 218.17615858076462,201.19 231.53292531470822,217.91" stroke="none" /><polygon fill="#f0cd49" points="218.17615858076462,201.19 207.48211115918417,217.91 231.53292531470822,217.91" stroke="none" /><polygon fill="#eecb47" points="218.17615858076462,201.19 203.09897188447655,201.19 207.48211115918417,217.91" stroke="none" /><polygon fill="#ecc742" points="203.09897188447655,201.19 194.44145983476488,217.91 207.48211115918417,217.91" stroke="none" /><polygon fill="#ebc640" points="203.09897188447655,201.19 183.6140665185597,201.19 194.44145983476488,217.91" stroke="none" /><polygon fill="#e8c13b" points="183.6140665185597,201.19 175.7967433779037,217.91 194.44145983476488,217.91" stroke="none" /><polygon fill="#edca45" points="183.6140665185597,201.19 257,201.19 175.7967433779037,217.91" stroke="none" /><polygon fill="#f2d04e" points="257,201.19 258,217.91 175.7967433779037,217.91" stroke="none" /><polygon fill="#f8d95a" points="257,201.19 255.0,201.19 258,217.91" stroke="none" /><polygon fill="#f9d959" points="255.0,201.19 255.0,217.91 258,217.91" stroke="none" /><polygon fill="#f7d757" points="255.0,201.19 280.2273580488753,201.19 255.0,217.91" stroke="none" /><polygon fill="#f4d351" points="280.2273580488753,201.19 284.4670746852918,217.91 255.0,217.91" stroke="none" /><polygon fill="#f1d04d" points="280.2273580488753,201.19 297.82384141923535,201.19 284.4670746852918,217.91" stroke="none" /><polygon fill="#efcc48" points="297.82384141923535,201.19 304.51788884081583,217.91 284.4670746852918,217.91" stroke="none" /><polygon fill="#eecb46" points="297.82384141923535,201.19 308.90102811552345,201.19 304.51788884081583,217.91" stroke="none" /><polygon fill="#ecc742" points="308.90102811552345,201.19 315.5585401652351,217.91 304.51788884081583,217.91" stroke="none" /><polygon fill="#ebc741" points="308.90102811552345,201.19 325.3859334814403,201.19 315.5585401652351,217.91" stroke="none" /><polygon fill="#e8c23c" points="325.3859334814403,201.19 336.2032566220963,217.91 315.5585401652351,217.91" stroke="none" /><polygon fill="#f6d553" points="257.0,217.91 231.53292531470822,217.91 257.0,232.54" stroke="none" /><polygon fill="#f3d24e" points="231.53292531470822,217.91 230.82575437100093,232.54 257.0,232.54" stroke="none" /><polygon fill="#efcd49" points="231.53292531470822,217.91 207.48211115918417,217.91 230.82575437100093,232.54" stroke="none" /><polygon fill="#edca45" points="207.48211115918417,217.91 210.23920465206226,232.54 230.82575437100093,232.54" stroke="none" /><polygon fill="#eac641" points="207.48211115918417,217.91 194.44145983476488,217.91 210.23920465206226,232.54" stroke="none" /><polygon fill="#e8c43f" points="194.44145983476488,217.91 191.76996487691127,232.54 210.23920465206226,232.54" stroke="none" /><polygon fill="#e6c03b" points="194.44145983476488,217.91 175.7967433779037,217.91 191.76996487691127,232.54" stroke="none" /><polygon fill="#e3be39" points="175.7967433779037,217.91 176.65380112424523,232.54 191.76996487691127,232.54" stroke="none" /><polygon fill="#eac641" points="175.7967433779037,217.91 258,217.91 176.65380112424523,232.54" stroke="none" /><polygon fill="#f1cf4a" points="258,217.91 258,232.54 176.65380112424523,232.54" stroke="none" /><polygon fill="#f7d755" points="258,217.91 255.0,217.91 258,232.54" stroke="none" /><polygon fill="#f7d753" points="255.0,217.91 259.0,232.54 258,232.54" stroke="none" /><polygon fill="#f5d452" points="255.0,217.91 284.4670746852918,217.91 259.0,232.54" stroke="none" /><polygon fill="#f2d14d" points="284.4670746852918,217.91 280.1742456289991,232.54 259.0,232.54" stroke="none" /><polygon fill="#efcc49" points="284.4670746852918,217.91 304.51788884081583,217.91 280.1742456289991,232.54" stroke="none" /><polygon fill="#edca45" points="304.51788884081583,217.91 302.76079534793774,232.54 280.1742456289991,232.54" stroke="none" /><polygon fill="#eac642" points="304.51788884081583,217.91 315.5585401652351,217.91 302.76079534793774,232.54" stroke="none" /><polygon fill="#e8c43f" points="315.5585401652351,217.91 321.2300351230887,232.54 302.76079534793774,232.54" stroke="none" /><polygon fill="#e6c13b" points="315.5585401652351,217.91 336.2032566220963,217.91 321.2300351230887,232.54" stroke="none" /><polygon fill="#e3bd38" points="336.2032566220963,217.91 337.3461988757548,232.54 321.2300351230887,232.54" stroke="none" /><polygon fill="#f5d24d" points="257.0,232.54 230.82575437100093,232.54 253.0,249.26" stroke="none" /><polygon fill="#f2cf49" points="230.82575437100093,232.54 235.3380817365831,249.26 253.0,249.26" stroke="none" /><polygon fill="#eeca46" points="230.82575437100093,232.54 210.23920465206226,232.54 235.3380817365831,249.26" stroke="none" /><polygon fill="#ecc943" points="210.23920465206226,232.54 219.44268911278243,249.26 235.3380817365831,249.26" stroke="none" /><polygon fill="#e9c440" points="210.23920465206226,232.54 191.76996487691127,232.54 219.44268911278243,249.26" stroke="none" /><polygon fill="#e8c33f" points="191.76996487691127,232.54 209.5263750137419,249.26 219.44268911278243,249.26" stroke="none" /><polygon fill="#e5bf3b" points="191.76996487691127,232.54 176.65380112424523,232.54 209.5263750137419,249.26" stroke="none" /><polygon fill="#e4be3a" points="176.65380112424523,232.54 194.4184295047973,249.26 209.5263750137419,249.26" stroke="none" /><polygon fill="#eac541" points="176.65380112424523,232.54 258,232.54 194.4184295047973,249.26" stroke="none" /><polygon fill="#f1ce48" points="258,232.54 258,249.26 194.4184295047973,249.26" stroke="none" /><polygon fill="#f7d550" points="258,232.54 259.0,232.54 258,249.26" stroke="none" /><polygon fill="#f6d54e" points="259.0,232.54 254.0,249.26 258,249.26" stroke="none" /><polygon fill="#f5d24e" points="259.0,232.54 280.1742456289991,232.54 254.0,249.26" stroke="none" /><polygon fill="#f2d04a" points="280.1742456289991,232.54 277.6619182634169,249.26 254.0,249.26" stroke="none" /><polygon fill="#eeca46" points="280.1742456289991,232.54 302.76079534793774,232.54 277.6619182634169,249.26" stroke="none" /><polygon fill="#ecc943" points="302.76079534793774,232.54 290.55731088721757,249.26 277.6619182634169,249.26" stroke="none" /><polygon fill="#e9c440" points="302.76079534793774,232.54 321.2300351230887,232.54 290.55731088721757,249.26" stroke="none" /><polygon fill="#e8c33f" points="321.2300351230887,232.54 301.47362498625813,249.26 290.55731088721757,249.26" stroke="none" /><polygon fill="#e4be3b" points="321.2300351230887,232.54 337.3461988757548,232.54 301.47362498625813,249.26" stroke="none" /><polygon fill="#e4bf3b" points="337.3461988757548,232.54 312.5815704952027,249.26 301.47362498625813,249.26" stroke="none" /><polygon fill="#f4d048" points="253.0,249.26 235.3380817365831,249.26 253.0,267.025" stroke="none" /><polygon fill="#f1ce46" points="235.3380817365831,249.26 243.85449837792152,267.025 253.0,267.025" stroke="none" /><polygon fill="#efcb44" points="235.3380817365831,249.26 219.44268911278243,249.26 243.85449837792152,267.025" stroke="none" /><polygon fill="#eec943" points="219.44268911278243,249.26 233.89578502786205,267.025 243.85449837792152,267.025" stroke="none" /><polygon fill="#ebc640" points="219.44268911278243,249.26 209.5263750137419,249.26 233.89578502786205,267.025" stroke="none" /><polygon fill="#eac540" points="209.5263750137419,249.26 224.92881434781447,267.025 233.89578502786205,267.025" stroke="none" /><polygon fill="#e7c23d" points="209.5263750137419,249.26 194.4184295047973,249.26 224.92881434781447,267.025" stroke="none" /><polygon fill="#e7c13d" points="194.4184295047973,249.26 219.16514659976215,267.025 224.92881434781447,267.025" stroke="none" /><polygon fill="#ecc741" points="194.4184295047973,249.26 258,249.26 219.16514659976215,267.025" stroke="none" /><polygon fill="#f1ce46" points="258,249.26 254,267.025 219.16514659976215,267.025" stroke="none" /><polygon fill="#f6d34a" points="258,249.26 254.0,249.26 254,267.025" stroke="none" /><polygon fill="#f5d249" points="254.0,249.26 255.0,267.025 254,267.025" stroke="none" /><polygon fill="#f4d149" points="254.0,249.26 277.6619182634169,249.26 255.0,267.025" stroke="none" /><polygon fill="#f1ce46" points="277.6619182634169,249.26 272.1455016220785,267.025 255.0,267.025" stroke="none" /><polygon fill="#eeca44" points="277.6619182634169,249.26 290.55731088721757,249.26 272.1455016220785,267.025" stroke="none" /><polygon fill="#eec943" points="290.55731088721757,249.26 276.1042149721379,267.025 272.1455016220785,267.025" stroke="none" /><polygon fill="#ebc741" points="290.55731088721757,249.26 301.47362498625813,249.26 276.1042149721379,267.025" stroke="none" /><polygon fill="#eac540" points="301.47362498625813,249.26 289.07118565218553,267.025 276.1042149721379,267.025" stroke="none" /><polygon fill="#e7c23e" points="301.47362498625813,249.26 312.5815704952027,249.26 289.07118565218553,267.025" stroke="none" /><polygon fill="#e7c13d" points="312.5815704952027,249.26 296.8348534002379,267.025 289.07118565218553,267.025" stroke="none" /><polygon fill="#f4cf44" points="253.0,267.025 243.85449837792152,267.025 256.0,284.79" stroke="none" /><polygon fill="#f2ce42" points="243.85449837792152,267.025 249.1116562591705,284.79 256.0,284.79" stroke="none" /><polygon fill="#f0cc42" points="243.85449837792152,267.025 233.89578502786205,267.025 249.1116562591705,284.79" stroke="none" /><polygon fill="#efca40" points="233.89578502786205,267.025 239.37806251611786,284.79 249.1116562591705,284.79" stroke="none" /><polygon fill="#edc840" points="233.89578502786205,267.025 224.92881434781447,267.025 239.37806251611786,284.79" stroke="none" /><polygon fill="#ecc73e" points="224.92881434781447,267.025 236.99118752167576,284.79 239.37806251611786,284.79" stroke="none" /><polygon fill="#ebc53e" points="224.92881434781447,267.025 219.16514659976215,267.025 236.99118752167576,284.79" stroke="none" /><polygon fill="#eac53d" points="219.16514659976215,267.025 228.06562502778945,284.79 236.99118752167576,284.79" stroke="none" /><polygon fill="#edc840" points="219.16514659976215,267.025 254,267.025 228.06562502778945,284.79" stroke="none" /><polygon fill="#f1cd41" points="254,267.025 258,284.79 228.06562502778945,284.79" stroke="none" /><polygon fill="#f5d145" points="254,267.025 255.0,267.025 258,284.79" stroke="none" /><polygon fill="#f4d043" points="255.0,267.025 257.0,284.79 258,284.79" stroke="none" /><polygon fill="#f3cf44" points="255.0,267.025 272.1455016220785,267.025 257.0,284.79" stroke="none" /><polygon fill="#f2cd42" points="272.1455016220785,267.025 261.8883437408295,284.79 257.0,284.79" stroke="none" /><polygon fill="#f0cc42" points="272.1455016220785,267.025 276.1042149721379,267.025 261.8883437408295,284.79" stroke="none" /><polygon fill="#f0cb40" points="276.1042149721379,267.025 268.6219374838821,284.79 261.8883437408295,284.79" stroke="none" /><polygon fill="#edc840" points="276.1042149721379,267.025 289.07118565218553,267.025 268.6219374838821,284.79" stroke="none" /><polygon fill="#ecc73e" points="289.07118565218553,267.025 275.0088124783242,284.79 268.6219374838821,284.79" stroke="none" /><polygon fill="#eac43e" points="289.07118565218553,267.025 296.8348534002379,267.025 275.0088124783242,284.79" stroke="none" /><polygon fill="#eac43d" points="296.8348534002379,267.025 281.93437497221055,284.79 275.0088124783242,284.79" stroke="none" /><polygon fill="#f3ce3f" points="256.0,284.79 249.1116562591705,284.79 255.0,303.6" stroke="none" /><polygon fill="#f2cd3e" points="249.1116562591705,284.79 246.76352947175602,303.6 255.0,303.6" stroke="none" /><polygon fill="#f0cb3d" points="249.1116562591705,284.79 239.37806251611786,284.79 246.76352947175602,303.6" stroke="none" /><polygon fill="#efc93d" points="239.37806251611786,284.79 238.52377907157117,303.6 246.76352947175602,303.6" stroke="none" /><polygon fill="#edc83c" points="239.37806251611786,284.79 236.99118752167576,284.79 238.52377907157117,303.6" stroke="none" /><polygon fill="#edc73c" points="236.99118752167576,284.79 238.53197875142328,303.6 238.52377907157117,303.6" stroke="none" /><polygon fill="#ecc63b" points="236.99118752167576,284.79 228.06562502778945,284.79 238.53197875142328,303.6" stroke="none" /><polygon fill="#ebc53b" points="228.06562502778945,284.79 234.04099839926062,303.6 238.53197875142328,303.6" stroke="none" /><polygon fill="#eec83c" points="228.06562502778945,284.79 258,284.79 234.04099839926062,303.6" stroke="none" /><polygon fill="#f1cc3e" points="258,284.79 254,303.6 234.04099839926062,303.6" stroke="none" /><polygon fill="#f4cf3f" points="258,284.79 257.0,284.79 254,303.6" stroke="none" /><polygon fill="#f4cf3f" points="257.0,284.79 253.0,303.6 254,303.6" stroke="none" /><polygon fill="#f4cf3f" points="257.0,284.79 261.8883437408295,284.79 253.0,303.6" stroke="none" /><polygon fill="#f3ce3f" points="261.8883437408295,284.79 264.236470528244,303.6 253.0,303.6" stroke="none" /><polygon fill="#f1cc3e" points="261.8883437408295,284.79 268.6219374838821,284.79 264.236470528244,303.6" stroke="none" /><polygon fill="#efca3d" points="268.6219374838821,284.79 273.47622092842886,303.6 264.236470528244,303.6" stroke="none" /><polygon fill="#eec83c" points="268.6219374838821,284.79 275.0088124783242,284.79 273.47622092842886,303.6" stroke="none" /><polygon fill="#edc73c" points="275.0088124783242,284.79 274.46802124857675,303.6 273.47622092842886,303.6" stroke="none" /><polygon fill="#ecc63b" points="275.0088124783242,284.79 281.93437497221055,284.79 274.46802124857675,303.6" stroke="none" /><polygon fill="#ebc53b" points="281.93437497221055,284.79 278.9590016007394,303.6 274.46802124857675,303.6" stroke="none" /><polygon fill="#f3ce3f" points="255.0,303.6 246.76352947175602,303.6 256.0,324.5" stroke="none" /><polygon fill="#f2cd3e" points="246.76352947175602,303.6 245.44650000000001,324.5 256.0,324.5" stroke="none" /><polygon fill="#efca3d" points="246.76352947175602,303.6 238.52377907157117,303.6 245.44650000000001,324.5" stroke="none" /><polygon fill="#efc93d" points="238.52377907157117,303.6 240.209,324.5 245.44650000000001,324.5" stroke="none" /><polygon fill="#eec83c" points="238.52377907157117,303.6 238.53197875142328,303.6 240.209,324.5" stroke="none" /><polygon fill="#edc73c" points="238.53197875142328,303.6 233.419,324.5 240.209,324.5" stroke="none" /><polygon fill="#ecc63b" points="238.53197875142328,303.6 234.04099839926062,303.6 233.419,324.5" stroke="none" /><polygon fill="#ebc53b" points="234.04099839926062,303.6 228.05,324.5 233.419,324.5" stroke="none" /><polygon fill="#edc83c" points="234.04099839926062,303.6 254,303.6 228.05,324.5" stroke="none" /><polygon fill="#f0cb3d" points="254,303.6 255,324.5 228.05,324.5" stroke="none" /><polygon fill="#f4cf3f" points="254,303.6 253.0,303.6 255,324.5" stroke="none" /><polygon fill="#f4cf3f" points="253.0,303.6 256.0,324.5 255,324.5" stroke="none" /><polygon fill="#f4cf3f" points="253.0,303.6 264.236470528244,303.6 256.0,324.5" stroke="none" /><polygon fill="#f2cd3e" points="264.236470528244,303.6 266.5535,324.5 256.0,324.5" stroke="none" /><polygon fill="#f0ca3d" points="264.236470528244,303.6 273.47622092842886,303.6 266.5535,324.5" stroke="none" /><polygon fill="#efc93d" points="273.47622092842886,303.6 271.791,324.5 266.5535,324.5" stroke="none" /><polygon fill="#edc83c" points="273.47622092842886,303.6 274.46802124857675,303.6 271.791,324.5" stroke="none" /><polygon fill="#edc73c" points="274.46802124857675,303.6 277.581,324.5 271.791,324.5" stroke="none" /><polygon fill="#ecc63b" points="274.46802124857675,303.6 278.9590016007394,303.6 277.581,324.5" stroke="none" /><polygon fill="#eac43b" points="278.9590016007394,303.6 285.95,324.5 277.581,324.5" stroke="none" /><path d="M 233 205 A 13 26 0 0 0 233 231 Z" fill="#f5d040" stroke="#d4ac30" stroke-width="1" /><path d="M 279 205 A 13 26 0 0 1 279 231 Z" fill="#f5d040" stroke="#d4ac30" stroke-width="1" /><path d="M 198 214 A 28 19 0 0 0 254 214 Z" fill="#e8e0d8" stroke="#3a2a1a" stroke-width="1.5" /><path d="M 196 204 A 30 13 0 0 1 256 204 Z" fill="#f5d040" stroke="#3a2a1a" stroke-width="1.5" /><path d="M 222 217 A 4 4 0 0 0 230 217 Z" fill="#3a2a1a" stroke="none" /><circle cx="227" cy="214" fill="white" r="3" stroke="none" /><path d="M 258 212 A 28 19 0 0 0 314 212 Z" fill="#e8e0d8" stroke="#3a2a1a" stroke-width="1.5" /><path d="M 256 202 A 30 13 0 0 1 316 202 Z" fill="#f5d040" stroke="#3a2a1a" stroke-width="1.5" /><path d="M 282 215 A 4 4 0 0 0 290 215 Z" fill="#3a2a1a" stroke="none" /><circle cx="287" cy="212" fill="white" r="3" stroke="none" /><path d="M 205 205 Q 226 193 247 205" fill="none" stroke="#3a2a1a" stroke-width="4" /><path d="M 265 206 Q 286 194 307 206" fill="none" stroke="#3a2a1a" stroke-width="4" /><path d="M 198 229 A 12 8 0 0 0 222 229 Z" fill="#e88060" fill-opacity="0.22713558004428205" stroke="none" /><path d="M 291 230 A 11 7 0 0 0 313 230 Z" fill="#e88060" fill-opacity="0.25832716792610416" stroke="none" /><path d="M 228 243 Q 256 265 284 243" fill="#a04030" stroke="#c06050" stroke-width="2" /><line stroke="white" stroke-width="2" x1="242" x2="242" y1="246" y2="255" /><line stroke="white" stroke-width="2" x1="250" x2="250" y1="246" y2="255" /><line stroke="white" stroke-width="2" x1="258" x2="258" y1="246" y2="255" /><line stroke="white" stroke-width="2" x1="266" x2="266" y1="246" y2="255" /><polygon fill="#b89824" points="249,320.5 263,320.5 263,355.5 249,355.5" stroke="none" /></svg>