<?xml version="1.0" encoding="utf-8" ?>
<svg baseProfile="full" height="512" version="1.1" width="512" xmlns="http://www.w3.org/2000/svg" xmlns:ev="http://www.w3.org/2001/xml-events" xmlns:xlink="http://www.w3.org/1999/xlink"><defs /><polygon fill="#f9dd5a" points="255.0,149.5 253.6635,149.5 255.0,165.01" stroke="none" /><polygon fill="#f9db55" points="253.6635,149.5 240.58050782040198,165.01 255.0,165.01" stroke="none" /><polygon fill="#f9db55" points="253.6635,149.5 254.651,149.5 240.58050782040198,165.01" stroke="none" /><polygon fill="#f8d94e" points="254.651,149.5 232.17180162373683,165.01 240.58050782040198,165.01" stroke="none" /><polygon fill="#f8da52" points="254.651,149.5 253.841,149.5 232.17180162373683,165.01" stroke="none" /><polygon fill="#f7d749" points="253.841,149.5 227.64483666640467,165.01 232.17180162373683,165.01" stroke="none" /><polygon fill="#f8d950" points="253.841,149.5 251.95,149.5 227.64483666640467,165.01" stroke="none" /><polygon fill="#f6d543" points="251.95,149.5 215.36517521333934,165.01 227.64483666640467,165.01" stroke="none" /><polygon fill="#f8d84d" points="251.95,149.5 257,149.5 215.36517521333934,165.01" stroke="none" /><polygon fill="#f8d84d" points="257,149.5 253,165.01 215.36517521333934,165.01" stroke="none" /><polygon fill="#f9dd5b" points="257,149.5 255.0,149.5 253,165.01" stroke="none" /><polygon fill="#f9dd5a" points="255.0,149.5 256.0,165.01 253,165.01" stroke="none" /><polygon fill="#f9dd5b" points="255.0,149.5 257.3365,149.5 256.0,165.01" stroke="none" /><polygon fill="#f9dc58" points="257.3365,149.5 266.419492179598,165.01 256.0,165.01" stroke="none" /><polygon fill="#f9dc57" points="257.3365,149.5 257.349,149.5 266.419492179598,165.01" stroke="none" /><polygon fill="#f8da51" points="257.349,149.5 274.8281983762632,165.01 266.419492179598,165.01" stroke="none" /><polygon fill="#f9db54" points="257.349,149.5 258.159,149.5 274.8281983762632,165.01" stroke="none" /><polygon fill="#f7d74a" points="258.159,149.5 288.3551633335953,165.01 274.8281983762632,165.01" stroke="none" /><polygon fill="#f8d94f" points="258.159,149.5 260.05,149.5 288.3551633335953,165.01" stroke="none" /><polygon fill="#f6d442" points="260.05,149.5 295.63482478666066,165.01 288.3551633335953,165.01" stroke="none" /><polygon fill="#f9db56" points="255.0,165.01 240.58050782040198,165.01 255.0,181.225" stroke="none" /><polygon fill="#f7d74e" points="240.58050782040198,165.01 239.06663604542277,181.225 255.0,181.225" stroke="none" /><polygon fill="#f7d749" points="240.58050782040198,165.01 232.17180162373683,165.01 239.06663604542277,181.225" stroke="none" /><polygon fill="#f5d342" points="232.17180162373683,165.01 225.48075426165215,181.225 239.06663604542277,181.225" stroke="none" /><polygon fill="#f6d440" points="232.17180162373683,165.01 227.64483666640467,165.01 225.48075426165215,181.225" stroke="none" /><polygon fill="#f4cf37" points="227.64483666640467,165.01 211.61204883463566,181.225 225.48075426165215,181.225" stroke="none" /><polygon fill="#f5d036" points="227.64483666640467,165.01 215.36517521333934,165.01 211.61204883463566,181.225" stroke="none" /><polygon fill="#f2ca2b" points="215.36517521333934,165.01 198.6564728649175,181.225 211.61204883463566,181.225" stroke="none" /><polygon fill="#f5d23a" points="215.36517521333934,165.01 253,165.01 198.6564728649175,181.225" stroke="none" /><polygon fill="#f6d445" points="253,165.01 256,181.225 198.6564728649175,181.225" stroke="none" /><polygon fill="#f9dd5b" points="253,165.01 256.0,165.01 256,181.225" stroke="none" /><polygon fill="#f8db58" points="256.0,165.01 253.0,181.225 256,181.225" stroke="none" /><polygon fill="#f9dd59" points="256.0,165.01 266.419492179598,165.01 253.0,181.225" stroke="none" /><polygon fill="#f7d851" points="266.419492179598,165.01 272.9333639545772,181.225 253.0,181.225" stroke="none" /><polygon fill="#f8d84c" points="266.419492179598,165.01 274.8281983762632,165.01 272.9333639545772,181.225" stroke="none" /><polygon fill="#f5d344" points="274.8281983762632,165.01 285.5192457383478,181.225 272.9333639545772,181.225" stroke="none" /><polygon fill="#f6d441" points="274.8281983762632,165.01 288.3551633335953,165.01 285.5192457383478,181.225" stroke="none" /><polygon fill="#f4cf37" points="288.3551633335953,165.01 298.38795116536437,181.225 285.5192457383478,181.225" stroke="none" /><polygon fill="#f5d036" points="288.3551633335953,165.01 295.63482478666066,165.01 298.38795116536437,181.225" stroke="none" /><polygon fill="#f2ca2c" points="295.63482478666066,165.01 312.34352713508247,181.225 298.38795116536437,181.225" stroke="none" /><polygon fill="#f6d74d" points="255.0,181.225 239.06663604542277,181.225 254.0,195.325" stroke="none" /><polygon fill="#f5d345" points="239.06663604542277,181.225 238.84997635564974,195.325 254.0,195.325" stroke="none" /><polygon fill="#f3d140" points="239.06663604542277,181.225 225.48075426165215,181.225 238.84997635564974,195.325" stroke="none" /><polygon fill="#f1cd39" points="225.48075426165215,181.225 224.09995844326318,195.325 238.84997635564974,195.325" stroke="none" /><polygon fill="#f1cb33" points="225.48075426165215,181.225 211.61204883463566,181.225 224.09995844326318,195.325" stroke="none" /><polygon fill="#eec72e" points="211.61204883463566,181.225 211.09994411335393,195.325 224.09995844326318,195.325" stroke="none" /><polygon fill="#eec628" points="211.61204883463566,181.225 198.6564728649175,181.225 211.09994411335393,195.325" stroke="none" /><polygon fill="#ebc224" points="198.6564728649175,181.225 200.99992835045376,195.325 211.09994411335393,195.325" stroke="none" /><polygon fill="#f0ca32" points="198.6564728649175,181.225 256,181.225 200.99992835045376,195.325" stroke="none" /><polygon fill="#f3d03f" points="256,181.225 253,195.325 200.99992835045376,195.325" stroke="none" /><polygon fill="#f7d951" points="256,181.225 253.0,181.225 253,195.325" stroke="none" /><polygon fill="#f7d84e" points="253.0,181.225 256.0,195.325 253,195.325" stroke="none" /><polygon fill="#f7d84e" points="253.0,181.225 272.9333639545772,181.225 256.0,195.325" stroke="none" /><polygon fill="#f5d446" points="272.9333639545772,181.225 272.15002364435026,195.325 256.0,195.325" stroke="none" /><polygon fill="#f3d140" points="272.9333639545772,181.225 285.5192457383478,181.225 272.15002364435026,195.325" stroke="none" /><polygon fill="#f1cd39" points="285.5192457383478,181.225 289.9000415567368,195.325 272.15002364435026,195.325" stroke="none" /><polygon fill="#f1cb34" points="285.5192457383478,181.225 298.38795116536437,181.225 289.9000415567368,195.325" stroke="none" /><polygon fill="#eec82e" points="298.38795116536437,181.225 298.9000558866461,195.325 289.9000415567368,195.325" stroke="none" /><polygon fill="#eec629" points="298.38795116536437,181.225 312.34352713508247,181.225 298.9000558866461,195.325" stroke="none" /><polygon fill="#ecc224" points="312.34352713508247,181.225 312.00007164954627,195.325 298.9000558866461,195.325" stroke="none" /><polygon fill="#f5d445" points="254.0,195.325 238.84997635564974,195.325 254.0,207.31" stroke="none" /><polygon fill="#f3d03e" points="238.84997635564974,195.325 233.90819386521784,207.31 254.0,207.31" stroke="none" /><polygon fill="#f0cc38" points="238.84997635564974,195.325 224.09995844326318,195.325 233.90819386521784,207.31" stroke="none" /><polygon fill="#eec832" points="224.09995844326318,195.325 216.92955285401922,207.31 233.90819386521784,207.31" stroke="none" /><polygon fill="#ecc52d" points="224.09995844326318,195.325 211.09994411335393,195.325 216.92955285401922,207.31" stroke="none" /><polygon fill="#eac127" points="211.09994411335393,195.325 203.1466400450603,207.31 216.92955285401922,207.31" stroke="none" /><polygon fill="#e9bf24" points="211.09994411335393,195.325 200.99992835045376,195.325 203.1466400450603,207.31" stroke="none" /><polygon fill="#e7bc20" points="200.99992835045376,195.325 189.08543595520553,207.31 203.1466400450603,207.31" stroke="none" /><polygon fill="#ebc42b" points="200.99992835045376,195.325 253,195.325 189.08543595520553,207.31" stroke="none" /><polygon fill="#f0cb38" points="253,195.325 257,207.31 189.08543595520553,207.31" stroke="none" /><polygon fill="#f6d74a" points="253,195.325 256.0,195.325 257,207.31" stroke="none" /><polygon fill="#f6d648" points="256.0,195.325 257.0,207.31 257,207.31" stroke="none" /><polygon fill="#f5d546" points="256.0,195.325 272.15002364435026,195.325 257.0,207.31" stroke="none" /><polygon fill="#f3d03f" points="272.15002364435026,195.325 277.0918061347822,207.31 257.0,207.31" stroke="none" /><polygon fill="#f0cc38" points="272.15002364435026,195.325 289.9000415567368,195.325 277.0918061347822,207.31" stroke="none" /><polygon fill="#eec832" points="289.9000415567368,195.325 292.0704471459808,207.31 277.0918061347822,207.31" stroke="none" /><polygon fill="#ecc52e" points="289.9000415567368,195.325 298.9000558866461,195.325 292.0704471459808,207.31" stroke="none" /><polygon fill="#ebc22a" points="298.9000558866461,195.325 302.85335995493966,207.31 292.0704471459808,207.31" stroke="none" /><polygon fill="#eac025" points="298.9000558866461,195.325 312.00007164954627,195.325 302.85335995493966,207.31" stroke="none" /><polygon fill="#e7bc20" points="312.00007164954627,195.325 318.9145640447945,207.31 302.85335995493966,207.31" stroke="none" /><polygon fill="#f4d03f" points="254.0,207.31 233.90819386521784,207.31 256.0,218.59" stroke="none" /><polygon fill="#f1cd38" points="233.90819386521784,207.31 234.56064162028383,218.59 256.0,218.59" stroke="none" /><polygon fill="#edc632" points="233.90819386521784,207.31 216.92955285401922,207.31 234.56064162028383,218.59" stroke="none" /><polygon fill="#ebc42d" points="216.92955285401922,207.31 221.8338549689837,218.59 234.56064162028383,218.59" stroke="none" /><polygon fill="#e8bf28" points="216.92955285401922,207.31 203.1466400450603,207.31 221.8338549689837,218.59" stroke="none" /><polygon fill="#e6bd25" points="203.1466400450603,207.31 208.0524256479436,218.59 221.8338549689837,218.59" stroke="none" /><polygon fill="#e4b81f" points="203.1466400450603,207.31 189.08543595520553,207.31 208.0524256479436,218.59" stroke="none" /><polygon fill="#e3b71e" points="189.08543595520553,207.31 198.09285339479948,218.59 208.0524256479436,218.59" stroke="none" /><polygon fill="#e9bf29" points="189.08543595520553,207.31 257,207.31 198.09285339479948,218.59" stroke="none" /><polygon fill="#efca35" points="257,207.31 254,218.59 198.09285339479948,218.59" stroke="none" /><polygon fill="#f7d545" points="257,207.31 257.0,207.31 254,218.59" stroke="none" /><polygon fill="#f5d441" points="257.0,207.31 256.0,218.59 254,218.59" stroke="none" /><polygon fill="#f4d140" points="257.0,207.31 277.0918061347822,207.31 256.0,218.59" stroke="none" /><polygon fill="#f1cd39" points="277.0918061347822,207.31 275.43935837971617,218.59 256.0,218.59" stroke="none" /><polygon fill="#eec733" points="277.0918061347822,207.31 292.0704471459808,207.31 275.43935837971617,218.59" stroke="none" /><polygon fill="#ebc52e" points="292.0704471459808,207.31 290.1661450310163,218.59 275.43935837971617,218.59" stroke="none" /><polygon fill="#e9c02a" points="292.0704471459808,207.31 302.85335995493966,207.31 290.1661450310163,218.59" stroke="none" /><polygon fill="#e7be27" points="302.85335995493966,207.31 299.9475743520564,218.59 290.1661450310163,218.59" stroke="none" /><polygon fill="#e5ba22" points="302.85335995493966,207.31 318.9145640447945,207.31 299.9475743520564,218.59" stroke="none" /><polygon fill="#e3b71e" points="318.9145640447945,207.31 313.9071466052005,218.59 299.9475743520564,218.59" stroke="none" /><polygon fill="#f2ce39" points="256.0,218.59 234.56064162028383,218.59 253.0,228.46" stroke="none" /><polygon fill="#efc833" points="234.56064162028383,218.59 231.25194852818598,228.46 253.0,228.46" stroke="none" /><polygon fill="#ebc42e" points="234.56064162028383,218.59 221.8338549689837,218.59 231.25194852818598,228.46" stroke="none" /><polygon fill="#e9c02b" points="221.8338549689837,218.59 220.7761519586299,228.46 231.25194852818598,228.46" stroke="none" /><polygon fill="#e6bd27" points="221.8338549689837,218.59 208.0524256479436,218.59 220.7761519586299,228.46" stroke="none" /><polygon fill="#e3b823" points="208.0524256479436,218.59 206.59551470298504,228.46 220.7761519586299,228.46" stroke="none" /><polygon fill="#e1b61f" points="208.0524256479436,218.59 198.09285339479948,218.59 206.59551470298504,228.46" stroke="none" /><polygon fill="#dfb21d" points="198.09285339479948,218.59 188.09681372177567,228.46 206.59551470298504,228.46" stroke="none" /><polygon fill="#e5bb25" points="198.09285339479948,218.59 254,218.59 188.09681372177567,228.46" stroke="none" /><polygon fill="#ecc42f" points="254,218.59 254,228.46 188.09681372177567,228.46" stroke="none" /><polygon fill="#f5d23d" points="254,218.59 256.0,218.59 254,228.46" stroke="none" /><polygon fill="#f6d23d" points="256.0,218.59 258.0,228.46 254,228.46" stroke="none" /><polygon fill="#f3cf39" points="256.0,218.59 275.43935837971617,218.59 258.0,228.46" stroke="none" /><polygon fill="#f0ca35" points="275.43935837971617,218.59 275.74805147181405,228.46 258.0,228.46" stroke="none" /><polygon fill="#ecc52f" points="275.43935837971617,218.59 290.1661450310163,218.59 275.74805147181405,228.46" stroke="none" /><polygon fill="#e9c02b" points="290.1661450310163,218.59 292.2238480413701,228.46 275.74805147181405,228.46" stroke="none" /><polygon fill="#e7bd27" points="290.1661450310163,218.59 299.9475743520564,218.59 292.2238480413701,228.46" stroke="none" /><polygon fill="#e4b924" points="299.9475743520564,218.59 305.40448529701496,228.46 292.2238480413701,228.46" stroke="none" /><polygon fill="#e2b720" points="299.9475743520564,218.59 313.9071466052005,218.59 305.40448529701496,228.46" stroke="none" /><polygon fill="#dfb21d" points="313.9071466052005,218.59 322.9031862782243,228.46 305.40448529701496,228.46" stroke="none" /><polygon fill="#f0cb34" points="253.0,228.46 231.25194852818598,228.46 255.0,239.74" stroke="none" /><polygon fill="#edc62e" points="231.25194852818598,228.46 234.08382493582116,239.74 255.0,239.74" stroke="none" /><polygon fill="#e9c02a" points="231.25194852818598,228.46 220.7761519586299,228.46 234.08382493582116,239.74" stroke="none" /><polygon fill="#e6bd27" points="220.7761519586299,228.46 220.99581352356446,239.74 234.08382493582116,239.74" stroke="none" /><polygon fill="#e3b824" points="220.7761519586299,228.46 206.59551470298504,228.46 220.99581352356446,239.74" stroke="none" /><polygon fill="#e0b521" points="206.59551470298504,228.46 206.9254043937591,239.74 220.99581352356446,239.74" stroke="none" /><polygon fill="#ddaf1c" points="206.59551470298504,228.46 188.09681372177567,228.46 206.9254043937591,239.74" stroke="none" /><polygon fill="#dbae1c" points="188.09681372177567,228.46 196.6479543509732,239.74 206.9254043937591,239.74" stroke="none" /><polygon fill="#e2b622" points="188.09681372177567,228.46 254,228.46 196.6479543509732,239.74" stroke="none" /><polygon fill="#ebc32c" points="254,228.46 253,239.74 196.6479543509732,239.74" stroke="none" /><polygon fill="#f4d038" points="254,228.46 258.0,228.46 253,239.74" stroke="none" /><polygon fill="#f4cf35" points="258.0,228.46 259.0,239.74 253,239.74" stroke="none" /><polygon fill="#f1cc34" points="258.0,228.46 275.74805147181405,228.46 259.0,239.74" stroke="none" /><polygon fill="#eec72f" points="275.74805147181405,228.46 276.91617506417884,239.74 259.0,239.74" stroke="none" /><polygon fill="#eac12b" points="275.74805147181405,228.46 292.2238480413701,228.46 276.91617506417884,239.74" stroke="none" /><polygon fill="#e6bd27" points="292.2238480413701,228.46 293.00418647643556,239.74 276.91617506417884,239.74" stroke="none" /><polygon fill="#e3b823" points="292.2238480413701,228.46 305.40448529701496,228.46 293.00418647643556,239.74" stroke="none" /><polygon fill="#e0b421" points="305.40448529701496,228.46 305.0745956062409,239.74 293.00418647643556,239.74" stroke="none" /><polygon fill="#ddaf1c" points="305.40448529701496,228.46 322.9031862782243,228.46 305.0745956062409,239.74" stroke="none" /><polygon fill="#dbae1c" points="322.9031862782243,228.46 318.3520456490268,239.74 305.0745956062409,239.74" stroke="none" /><polygon fill="#efc92e" points="255.0,239.74 234.08382493582116,239.74 253.0,251.725" stroke="none" /><polygon fill="#ecc42a" points="234.08382493582116,239.74 237.81221712771563,251.725 253.0,251.725" stroke="none" /><polygon fill="#e7be27" points="234.08382493582116,239.74 220.99581352356446,239.74 237.81221712771563,251.725" stroke="none" /><polygon fill="#e4ba24" points="220.99581352356446,239.74 221.0335937396214,251.725 237.81221712771563,251.725" stroke="none" /><polygon fill="#e0b421" points="220.99581352356446,239.74 206.9254043937591,239.74 221.0335937396214,251.725" stroke="none" /><polygon fill="#deb21f" points="206.9254043937591,239.74 215.010695029146,251.725 221.0335937396214,251.725" stroke="none" /><polygon fill="#dcae1d" points="206.9254043937591,239.74 196.6479543509732,239.74 215.010695029146,251.725" stroke="none" /><polygon fill="#d9ac1c" points="196.6479543509732,239.74 203.8855064476231,251.725 215.010695029146,251.725" stroke="none" /><polygon fill="#e1b522" points="196.6479543509732,239.74 253,239.74 203.8855064476231,251.725" stroke="none" /><polygon fill="#eac128" points="253,239.74 254,251.725 203.8855064476231,251.725" stroke="none" /><polygon fill="#f3ce31" points="253,239.74 259.0,239.74 254,251.725" stroke="none" /><polygon fill="#f3cd2f" points="259.0,239.74 259.0,251.725 254,251.725" stroke="none" /><polygon fill="#efc92e" points="259.0,239.74 276.91617506417884,239.74 259.0,251.725" stroke="none" /><polygon fill="#edc52a" points="276.91617506417884,239.74 272.1877828722844,251.725 259.0,251.725" stroke="none" /><polygon fill="#e8be27" points="276.91617506417884,239.74 293.00418647643556,239.74 272.1877828722844,251.725" stroke="none" /><polygon fill="#e5bb24" points="293.00418647643556,239.74 287.9664062603786,251.725 272.1877828722844,251.725" stroke="none" /><polygon fill="#e1b521" points="293.00418647643556,239.74 305.0745956062409,239.74 287.9664062603786,251.725" stroke="none" /><polygon fill="#deb21f" points="305.0745956062409,239.74 300.989304970854,251.725 287.9664062603786,251.725" stroke="none" /><polygon fill="#daac1c" points="305.0745956062409,239.74 318.3520456490268,239.74 300.989304970854,251.725" stroke="none" /><polygon fill="#d7aa1a" points="318.3520456490268,239.74 312.11449355237687,251.725 300.989304970854,251.725" stroke="none" /><polygon fill="#eec628" points="253.0,251.725 237.81221712771563,251.725 255.0,263.71" stroke="none" /><polygon fill="#ecc225" points="237.81221712771563,251.725 238.30053025858618,263.71 255.0,263.71" stroke="none" /><polygon fill="#e5bb23" points="237.81221712771563,251.725 221.0335937396214,251.725 238.30053025858618,263.71" stroke="none" /><polygon fill="#e4b921" points="221.0335937396214,251.725 232.16456833327268,263.71 238.30053025858618,263.71" stroke="none" /><polygon fill="#e0b420" points="221.0335937396214,251.725 215.010695029146,251.725 232.16456833327268,263.71" stroke="none" /><polygon fill="#dfb31f" points="215.010695029146,251.725 219.25579879302188,263.71 232.16456833327268,263.71" stroke="none" /><polygon fill="#dbad1d" points="215.010695029146,251.725 203.8855064476231,251.725 219.25579879302188,263.71" stroke="none" /><polygon fill="#d9ac1c" points="203.8855064476231,251.725 211.45615229874602,263.71 219.25579879302188,263.71" stroke="none" /><polygon fill="#e0b520" points="203.8855064476231,251.725 254,251.725 211.45615229874602,263.71" stroke="none" /><polygon fill="#e9c024" points="254,251.725 255,263.71 211.45615229874602,263.71" stroke="none" /><polygon fill="#f3cc2b" points="254,251.725 259.0,251.725 255,263.71" stroke="none" /><polygon fill="#f2ca28" points="259.0,251.725 258.0,263.71 255,263.71" stroke="none" /><polygon fill="#efc728" points="259.0,251.725 272.1877828722844,251.725 258.0,263.71" stroke="none" /><polygon fill="#edc426" points="272.1877828722844,251.725 267.6994697414138,263.71 258.0,263.71" stroke="none" /><polygon fill="#e8be24" points="272.1877828722844,251.725 287.9664062603786,251.725 267.6994697414138,263.71" stroke="none" /><polygon fill="#e5ba22" points="287.9664062603786,251.725 283.8354316667273,263.71 267.6994697414138,263.71" stroke="none" /><polygon fill="#dfb31f" points="287.9664062603786,251.725 300.989304970854,251.725 283.8354316667273,263.71" stroke="none" /><polygon fill="#deb11e" points="300.989304970854,251.725 293.7442012069781,263.71 283.8354316667273,263.71" stroke="none" /><polygon fill="#d9ab1c" points="300.989304970854,251.725 312.11449355237687,251.725 293.7442012069781,263.71" stroke="none" /><polygon fill="#d8aa1b" points="312.11449355237687,251.725 302.543847701254,263.71 293.7442012069781,263.71" stroke="none" /><polygon fill="#efc522" points="255.0,263.71 238.30053025858618,263.71 256.0,276.4" stroke="none" /><polygon fill="#ecc221" points="238.30053025858618,263.71 243.50026499812017,276.4 256.0,276.4" stroke="none" /><polygon fill="#e7bc20" points="238.30053025858618,263.71 232.16456833327268,263.71 243.50026499812017,276.4" stroke="none" /><polygon fill="#e7bb1f" points="232.16456833327268,263.71 235.03076878457483,276.4 243.50026499812017,276.4" stroke="none" /><polygon fill="#e2b51e" points="232.16456833327268,263.71 219.25579879302188,263.71 235.03076878457483,276.4" stroke="none" /><polygon fill="#e0b31d" points="219.25579879302188,263.71 223.45517181373856,276.4 235.03076878457483,276.4" stroke="none" /><polygon fill="#dbad1b" points="219.25579879302188,263.71 211.45615229874602,263.71 223.45517181373856,276.4" stroke="none" /><polygon fill="#dbad1b" points="211.45615229874602,263.71 220.1220151458187,276.4 223.45517181373856,276.4" stroke="none" /><polygon fill="#e2b51e" points="211.45615229874602,263.71 255,263.71 220.1220151458187,276.4" stroke="none" /><polygon fill="#ebc021" points="255,263.71 256,276.4 220.1220151458187,276.4" stroke="none" /><polygon fill="#f2c923" points="255,263.71 258.0,263.71 256,276.4" stroke="none" /><polygon fill="#f2c923" points="258.0,263.71 257.0,276.4 256,276.4" stroke="none" /><polygon fill="#efc622" points="258.0,263.71 267.6994697414138,263.71 257.0,276.4" stroke="none" /><polygon fill="#edc322" points="267.6994697414138,263.71 267.49973500187986,276.4 257.0,276.4" stroke="none" /><polygon fill="#e8bd20" points="267.6994697414138,263.71 283.8354316667273,263.71 267.49973500187986,276.4" stroke="none" /><polygon fill="#e6bb1f" points="283.8354316667273,263.71 275.96923121542517,276.4 267.49973500187986,276.4" stroke="none" /><polygon fill="#e1b41d" points="283.8354316667273,263.71 293.7442012069781,263.71 275.96923121542517,276.4" stroke="none" /><polygon fill="#e1b41d" points="293.7442012069781,263.71 284.54482818626144,276.4 275.96923121542517,276.4" stroke="none" /><polygon fill="#dbad1b" points="293.7442012069781,263.71 302.543847701254,263.71 284.54482818626144,276.4" stroke="none" /><polygon fill="#dbad1b" points="302.543847701254,263.71 293.8779848541813,276.4 284.54482818626144,276.4" stroke="none" /><polygon fill="#f0c623" points="256.0,276.4 243.50026499812017,276.4 255.0,290.5" stroke="none" /><polygon fill="#efc622" points="243.50026499812017,276.4 254.6635,290.5 255.0,290.5" stroke="none" /><polygon fill="#ebc121" points="243.50026499812017,276.4 235.03076878457483,276.4 254.6635,290.5" stroke="none" /><polygon fill="#edc322" points="235.03076878457483,276.4 253.651,290.5 254.6635,290.5" stroke="none" /><polygon fill="#e7bc20" points="235.03076878457483,276.4 223.45517181373856,276.4 253.651,290.5" stroke="none" /><polygon fill="#eac021" points="223.45517181373856,276.4 251.841,290.5 253.651,290.5" stroke="none" /><polygon fill="#e3b71e" points="223.45517181373856,276.4 220.1220151458187,276.4 251.841,290.5" stroke="none" /><polygon fill="#eabf20" points="220.1220151458187,276.4 252.95,290.5 251.841,290.5" stroke="none" /><polygon fill="#eac021" points="220.1220151458187,276.4 256,276.4 252.95,290.5" stroke="none" /><polygon fill="#f2c923" points="256,276.4 257,290.5 252.95,290.5" stroke="none" /><polygon fill="#f2c923" points="256,276.4 257.0,276.4 257,290.5" stroke="none" /><polygon fill="#f2c923" points="257.0,276.4 255.0,290.5 257,290.5" stroke="none" /><polygon fill="#f0c723" points="257.0,276.4 267.49973500187986,276.4 255.0,290.5" stroke="none" /><polygon fill="#f0c723" points="267.49973500187986,276.4 257.3365,290.5 255.0,290.5" stroke="none" /><polygon fill="#ecc121" points="267.49973500187986,276.4 275.96923121542517,276.4 257.3365,290.5" stroke="none" /><polygon fill="#edc322" points="275.96923121542517,276.4 259.349,290.5 257.3365,290.5" stroke="none" /><polygon fill="#e8bd20" points="275.96923121542517,276.4 284.54482818626144,276.4 259.349,290.5" stroke="none" /><polygon fill="#ebc121" points="284.54482818626144,276.4 258.159,290.5 259.349,290.5" stroke="none" /><polygon fill="#e4b81f" points="284.54482818626144,276.4 293.8779848541813,276.4 258.159,290.5" stroke="none" /><polygon fill="#eabf20" points="293.8779848541813,276.4 259.05,290.5 258.159,290.5" stroke="none" /><path d="M 240 211 A 9 17 0 0 0 240 227 Z" fill="#f3ca24" stroke="#d0a018" stroke-width="1" /><path d="M 272 211 A 9 17 0 0 1 272 227 Z" fill="#f3ca24" stroke="#d0a018" stroke-width="1" /><path d="M 215 215 Q 235 200 255 215 Q 235 230 215 215" fill="#e8e0d8" stroke="#3a2a1a" stroke-width="1.5" /><path d="M 230 217 A 5 5 0 0 0 240 217 Z" fill="#3a2a1a" stroke="none" /><circle cx="237" cy="214" fill="white" r="2" stroke="none" /><path d="M 213 215 Q 235 211 257 215" fill="none" stroke="#3a2a1a" stroke-width="3" /><path d="M 257 215 Q 277 200 297 215 Q 277 230 257 215" fill="#e8e0d8" stroke="#3a2a1a" stroke-width="1.5" /><path d="M 272 217 A 5 5 0 0 0 282 217 Z" fill="#3a2a1a" stroke="none" /><circle cx="279" cy="214" fill="white" r="2" stroke="none" /><path d="M 255 215 Q 277 211 299 215" fill="none" stroke="#3a2a1a" stroke-width="3" /><line stroke="#3a2a1a" stroke-width="2" x1="267" x2="267" y1="214" y2="211" /><line stroke="#3a2a1a" stroke-width="2" x1="277" x2="277" y1="214" y2="211" /><line stroke="#3a2a1a" stroke-width="2" x1="287" x2="287" y1="214" y2="211" /><path d="M 222 210 Q 235 202 248 210" fill="none" stroke="#3a2a1a" stroke-width="3" /><path d="M 264 210 Q 277 202 290 210" fill="none" stroke="#3a2a1a" stroke-width="3" /><path d="M 218 225 A 8 5 0 0 0 234 225 Z" fill="#e88060" fill-opacity="0.25" stroke="none" /><path d="M 278 225 A 8 5 0 0 0 294 225 Z" fill="#e88060" fill-opacity="0.25" stroke="none" /><path d="M 256 220 Q 259 225 258 228 Q 256 229 254 228 Q 253 225 256 220" fill="#d0a018" stroke="none" /><path d="M 238 237 Q 256 246 274 237" fill="none" stroke="#c06050" stroke-width="3" /><path d="M 236 235 Q 256 248 276 235" fill="none" stroke="#a04030" stroke-width="1.5" /><path d="M 236 237 Q 256 244 276 237" fill="none" stroke="#f0a0a0" stroke-width="1" /><ellipse cx="256" cy="189" fill="white" fill-opacity="0.10" rx="4" ry="3" stroke="none" /><ellipse cx="240" cy="213" fill="white" fill-opacity="0.10" rx="4" ry="3" stroke="none" /><ellipse cx="272" cy="213" fill="white" fill-opacity="0.10" rx="4" ry="3" stroke="none" /><polygon fill="#b48c14" points="246,286.5 266,286.5 266,321.5 246,321.5" stroke="none" /></svg>