<?xml version="1.0" encoding="utf-8" ?>
<svg baseProfile="full" height="512" version="1.1" width="512" xmlns="http://www.w3.org/2000/svg" xmlns:ev="http://www.w3.org/2001/xml-events" xmlns:xlink="http://www.w3.org/1999/xlink"><defs /><polygon fill="#fcde62" points="256.0,152.5 245.02100000000002,152.5 258.0,167.35" stroke="none" /><polygon fill="#fcdd5f" points="245.02100000000002,152.5 246.92789827360548,167.35 258.0,167.35" stroke="none" /><polygon fill="#fada57" points="245.02100000000002,152.5 234.946,152.5 246.92789827360548,167.35" stroke="none" /><polygon fill="#fad952" points="234.946,152.5 232.78236666270053,167.35 246.92789827360548,167.35" stroke="none" /><polygon fill="#f9d64c" points="234.946,152.5 227.686,152.5 232.78236666270053,167.35" stroke="none" /><polygon fill="#f8d549" points="227.686,152.5 226.4659413739766,167.35 232.78236666270053,167.35" stroke="none" /><polygon fill="#f8d444" points="227.686,152.5 220.7,152.5 226.4659413739766,167.35" stroke="none" /><polygon fill="#f7d341" points="220.7,152.5 218.41787355638024,167.35 226.4659413739766,167.35" stroke="none" /><polygon fill="#f9d64c" points="220.7,152.5 257,152.5 218.41787355638024,167.35" stroke="none" /><polygon fill="#fbdb59" points="257,152.5 257,167.35 218.41787355638024,167.35" stroke="none" /><polygon fill="#fcdf64" points="257,152.5 257.0,152.5 257,167.35" stroke="none" /><polygon fill="#fcdf64" points="257.0,152.5 259.0,167.35 257,167.35" stroke="none" /><polygon fill="#fcde60" points="257.0,152.5 266.979,152.5 259.0,167.35" stroke="none" /><polygon fill="#fbdc5c" points="266.979,152.5 268.0721017263945,167.35 259.0,167.35" stroke="none" /><polygon fill="#fada55" points="266.979,152.5 278.054,152.5 268.0721017263945,167.35" stroke="none" /><polygon fill="#fad851" points="278.054,152.5 278.21763333729945,167.35 268.0721017263945,167.35" stroke="none" /><polygon fill="#f9d74c" points="278.054,152.5 283.314,152.5 278.21763333729945,167.35" stroke="none" /><polygon fill="#f9d64b" points="283.314,152.5 281.5340586260234,167.35 278.21763333729945,167.35" stroke="none" /><polygon fill="#f8d446" points="283.314,152.5 292.3,152.5 281.5340586260234,167.35" stroke="none" /><polygon fill="#f7d342" points="292.3,152.5 292.58212644361976,167.35 281.5340586260234,167.35" stroke="none" /><polygon fill="#fcdf63" points="258.0,167.35 246.92789827360548,167.35 257.0,182.875" stroke="none" /><polygon fill="#fadc5b" points="246.92789827360548,167.35 243.57698345073314,182.875 257.0,182.875" stroke="none" /><polygon fill="#fada56" points="246.92789827360548,167.35 232.78236666270053,167.35 243.57698345073314,182.875" stroke="none" /><polygon fill="#f8d64f" points="232.78236666270053,167.35 233.65045576189462,182.875 243.57698345073314,182.875" stroke="none" /><polygon fill="#f9d64b" points="232.78236666270053,167.35 226.4659413739766,167.35 233.65045576189462,182.875" stroke="none" /><polygon fill="#f6d345" points="226.4659413739766,167.35 222.9092336108238,182.875 233.65045576189462,182.875" stroke="none" /><polygon fill="#f7d342" points="226.4659413739766,167.35 218.41787355638024,167.35 222.9092336108238,182.875" stroke="none" /><polygon fill="#f5cf3c" points="218.41787355638024,167.35 213.29388924464592,182.875 222.9092336108238,182.875" stroke="none" /><polygon fill="#f8d649" points="218.41787355638024,167.35 257,167.35 213.29388924464592,182.875" stroke="none" /><polygon fill="#f9d955" points="257,167.35 259,182.875 213.29388924464592,182.875" stroke="none" /><polygon fill="#fcdf63" points="257,167.35 259.0,167.35 259,182.875" stroke="none" /><polygon fill="#fbde61" points="259.0,167.35 253.0,182.875 259,182.875" stroke="none" /><polygon fill="#fcde61" points="259.0,167.35 268.0721017263945,167.35 253.0,182.875" stroke="none" /><polygon fill="#fadc5b" points="268.0721017263945,167.35 268.42301654926683,182.875 253.0,182.875" stroke="none" /><polygon fill="#fada55" points="268.0721017263945,167.35 278.21763333729945,167.35 268.42301654926683,182.875" stroke="none" /><polygon fill="#f8d64e" points="278.21763333729945,167.35 280.34954423810535,182.875 268.42301654926683,182.875" stroke="none" /><polygon fill="#f9d64c" points="278.21763333729945,167.35 281.5340586260234,167.35 280.34954423810535,182.875" stroke="none" /><polygon fill="#f7d347" points="281.5340586260234,167.35 287.09076638917617,182.875 280.34954423810535,182.875" stroke="none" /><polygon fill="#f8d444" points="281.5340586260234,167.35 292.58212644361976,167.35 287.09076638917617,182.875" stroke="none" /><polygon fill="#f5cf3b" points="292.58212644361976,167.35 302.7061107553541,182.875 287.09076638917617,182.875" stroke="none" /><polygon fill="#fadb59" points="257.0,182.875 243.57698345073314,182.875 255.0,196.375" stroke="none" /><polygon fill="#f8d650" points="243.57698345073314,182.875 236.41997986424204,196.375 255.0,196.375" stroke="none" /><polygon fill="#f6d44b" points="243.57698345073314,182.875 233.65045576189462,182.875 236.41997986424204,196.375" stroke="none" /><polygon fill="#f4d043" points="233.65045576189462,182.875 223.85935854927388,196.375 236.41997986424204,196.375" stroke="none" /><polygon fill="#f4cf41" points="233.65045576189462,182.875 222.9092336108238,182.875 223.85935854927388,196.375" stroke="none" /><polygon fill="#f2cb3b" points="222.9092336108238,182.875 218.81086149729936,196.375 223.85935854927388,196.375" stroke="none" /><polygon fill="#f2cb39" points="222.9092336108238,182.875 213.29388924464592,182.875 218.81086149729936,196.375" stroke="none" /><polygon fill="#efc731" points="213.29388924464592,182.875 203.75751474012736,196.375 218.81086149729936,196.375" stroke="none" /><polygon fill="#f3cf3f" points="213.29388924464592,182.875 259,182.875 203.75751474012736,196.375" stroke="none" /><polygon fill="#f7d44c" points="259,182.875 259,196.375 203.75751474012736,196.375" stroke="none" /><polygon fill="#fadc5c" points="259,182.875 253.0,182.875 259,196.375" stroke="none" /><polygon fill="#fadb5a" points="253.0,182.875 259.0,196.375 259,196.375" stroke="none" /><polygon fill="#fadb59" points="253.0,182.875 268.42301654926683,182.875 259.0,196.375" stroke="none" /><polygon fill="#f8d650" points="268.42301654926683,182.875 274.580020135758,196.375 259.0,196.375" stroke="none" /><polygon fill="#f6d44b" points="268.42301654926683,182.875 280.34954423810535,182.875 274.580020135758,196.375" stroke="none" /><polygon fill="#f4d044" points="280.34954423810535,182.875 286.1406414507261,196.375 274.580020135758,196.375" stroke="none" /><polygon fill="#f4cf41" points="280.34954423810535,182.875 287.09076638917617,182.875 286.1406414507261,196.375" stroke="none" /><polygon fill="#f2cc3c" points="287.09076638917617,182.875 293.18913850270064,196.375 286.1406414507261,196.375" stroke="none" /><polygon fill="#f1cb38" points="287.09076638917617,182.875 302.7061107553541,182.875 293.18913850270064,196.375" stroke="none" /><polygon fill="#efc631" points="302.7061107553541,182.875 306.24248525987264,196.375 293.18913850270064,196.375" stroke="none" /><polygon fill="#f7d64f" points="255.0,196.375 236.41997986424204,196.375 255.0,207.85" stroke="none" /><polygon fill="#f5d148" points="236.41997986424204,196.375 235.50445601400418,207.85 255.0,207.85" stroke="none" /><polygon fill="#f2ce41" points="236.41997986424204,196.375 223.85935854927388,196.375 235.50445601400418,207.85" stroke="none" /><polygon fill="#f1ca3d" points="223.85935854927388,196.375 226.49268026703766,207.85 235.50445601400418,207.85" stroke="none" /><polygon fill="#f0c939" points="223.85935854927388,196.375 218.81086149729936,196.375 226.49268026703766,207.85" stroke="none" /><polygon fill="#eec534" points="218.81086149729936,196.375 209.28325966946443,207.85 226.49268026703766,207.85" stroke="none" /><polygon fill="#ecc32f" points="218.81086149729936,196.375 203.75751474012736,196.375 209.28325966946443,207.85" stroke="none" /><polygon fill="#eabf2a" points="203.75751474012736,196.375 201.95289701213392,207.85 209.28325966946443,207.85" stroke="none" /><polygon fill="#efc838" points="203.75751474012736,196.375 259,196.375 201.95289701213392,207.85" stroke="none" /><polygon fill="#f4d046" points="259,196.375 259,207.85 201.95289701213392,207.85" stroke="none" /><polygon fill="#f9d853" points="259,196.375 259.0,196.375 259,207.85" stroke="none" /><polygon fill="#f9d852" points="259.0,196.375 255.0,207.85 259,207.85" stroke="none" /><polygon fill="#f7d650" points="259.0,196.375 274.580020135758,196.375 255.0,207.85" stroke="none" /><polygon fill="#f5d249" points="274.580020135758,196.375 277.4955439859958,207.85 255.0,207.85" stroke="none" /><polygon fill="#f3ce42" points="274.580020135758,196.375 286.1406414507261,196.375 277.4955439859958,207.85" stroke="none" /><polygon fill="#f0ca3c" points="286.1406414507261,196.375 289.50731973296234,207.85 277.4955439859958,207.85" stroke="none" /><polygon fill="#efc939" points="286.1406414507261,196.375 293.18913850270064,196.375 289.50731973296234,207.85" stroke="none" /><polygon fill="#eec534" points="293.18913850270064,196.375 298.7167403305356,207.85 289.50731973296234,207.85" stroke="none" /><polygon fill="#edc430" points="293.18913850270064,196.375 306.24248525987264,196.375 298.7167403305356,207.85" stroke="none" /><polygon fill="#eabf2a" points="306.24248525987264,196.375 311.0471029878661,207.85 298.7167403305356,207.85" stroke="none" /><polygon fill="#f6d449" points="255.0,207.85 235.50445601400418,207.85 257.0,218.65" stroke="none" /><polygon fill="#f4d044" points="235.50445601400418,207.85 239.47467860165042,218.65 257.0,218.65" stroke="none" /><polygon fill="#f1cb3e" points="235.50445601400418,207.85 226.49268026703766,207.85 239.47467860165042,218.65" stroke="none" /><polygon fill="#efc839" points="226.49268026703766,207.85 222.6827684513856,218.65 239.47467860165042,218.65" stroke="none" /><polygon fill="#ebc333" points="226.49268026703766,207.85 209.28325966946443,207.85 222.6827684513856,218.65" stroke="none" /><polygon fill="#e9bf2d" points="209.28325966946443,207.85 208.84924033117375,218.65 222.6827684513856,218.65" stroke="none" /><polygon fill="#e7bc29" points="209.28325966946443,207.85 201.95289701213392,207.85 208.84924033117375,218.65" stroke="none" /><polygon fill="#e6bb28" points="201.95289701213392,207.85 197.8323593989407,218.65 208.84924033117375,218.65" stroke="none" /><polygon fill="#ecc333" points="201.95289701213392,207.85 259,207.85 197.8323593989407,218.65" stroke="none" /><polygon fill="#f2cc3f" points="259,207.85 257,218.65 197.8323593989407,218.65" stroke="none" /><polygon fill="#f8d74e" points="259,207.85 255.0,207.85 257,218.65" stroke="none" /><polygon fill="#f8d64c" points="255.0,207.85 258.0,218.65 257,218.65" stroke="none" /><polygon fill="#f6d349" points="255.0,207.85 277.4955439859958,207.85 258.0,218.65" stroke="none" /><polygon fill="#f3ce42" points="277.4955439859958,207.85 276.52532139834955,218.65 258.0,218.65" stroke="none" /><polygon fill="#f0ca3c" points="277.4955439859958,207.85 289.50731973296234,207.85 276.52532139834955,218.65" stroke="none" /><polygon fill="#edc636" points="289.50731973296234,207.85 293.3172315486144,218.65 276.52532139834955,218.65" stroke="none" /><polygon fill="#ebc232" points="289.50731973296234,207.85 298.7167403305356,207.85 293.3172315486144,218.65" stroke="none" /><polygon fill="#e8bf2d" points="298.7167403305356,207.85 304.15075966882625,218.65 293.3172315486144,218.65" stroke="none" /><polygon fill="#e7bc2a" points="298.7167403305356,207.85 311.0471029878661,207.85 304.15075966882625,218.65" stroke="none" /><polygon fill="#e6bb28" points="311.0471029878661,207.85 317.1676406010593,218.65 304.15075966882625,218.65" stroke="none" /><polygon fill="#f6d346" points="257.0,218.65 239.47467860165042,218.65 259.0,228.1" stroke="none" /><polygon fill="#f3ce40" points="239.47467860165042,218.65 236.97278384250478,228.1 259.0,228.1" stroke="none" /><polygon fill="#eec839" points="239.47467860165042,218.65 222.6827684513856,218.65 236.97278384250478,228.1" stroke="none" /><polygon fill="#ecc436" points="222.6827684513856,218.65 226.07337766258416,228.1 236.97278384250478,228.1" stroke="none" /><polygon fill="#e8c030" points="222.6827684513856,218.65 208.84924033117375,218.65 226.07337766258416,228.1" stroke="none" /><polygon fill="#e6bc2d" points="208.84924033117375,218.65 212.7538527186477,228.1 226.07337766258416,228.1" stroke="none" /><polygon fill="#e3b827" points="208.84924033117375,218.65 197.8323593989407,218.65 212.7538527186477,228.1" stroke="none" /><polygon fill="#e2b627" points="197.8323593989407,218.65 201.40237528031753,228.1 212.7538527186477,228.1" stroke="none" /><polygon fill="#e8bf2f" points="197.8323593989407,218.65 257,218.65 201.40237528031753,228.1" stroke="none" /><polygon fill="#efc93b" points="257,218.65 253,228.1 201.40237528031753,228.1" stroke="none" /><polygon fill="#f8d649" points="257,218.65 258.0,218.65 253,228.1" stroke="none" /><polygon fill="#f7d447" points="258.0,218.65 254.0,228.1 253,228.1" stroke="none" /><polygon fill="#f5d144" points="258.0,218.65 276.52532139834955,218.65 254.0,228.1" stroke="none" /><polygon fill="#f2cd40" points="276.52532139834955,218.65 272.0272161574952,228.1 254.0,228.1" stroke="none" /><polygon fill="#edc738" points="276.52532139834955,218.65 293.3172315486144,218.65 272.0272161574952,228.1" stroke="none" /><polygon fill="#ecc436" points="293.3172315486144,218.65 282.92662233741584,228.1 272.0272161574952,228.1" stroke="none" /><polygon fill="#e8bf2f" points="293.3172315486144,218.65 304.15075966882625,218.65 282.92662233741584,228.1" stroke="none" /><polygon fill="#e6bc2e" points="304.15075966882625,218.65 298.2461472813523,228.1 282.92662233741584,228.1" stroke="none" /><polygon fill="#e3b827" points="304.15075966882625,218.65 317.1676406010593,218.65 298.2461472813523,228.1" stroke="none" /><polygon fill="#e2b627" points="317.1676406010593,218.65 306.59762471968247,228.1 298.2461472813523,228.1" stroke="none" /><polygon fill="#f5d141" points="259.0,228.1 236.97278384250478,228.1 258.0,238.9" stroke="none" /><polygon fill="#f2cc3c" points="236.97278384250478,228.1 242.0708140426402,238.9 258.0,238.9" stroke="none" /><polygon fill="#eec637" points="236.97278384250478,228.1 226.07337766258416,228.1 242.0708140426402,238.9" stroke="none" /><polygon fill="#ecc334" points="226.07337766258416,228.1 231.00324892342826,238.9 242.0708140426402,238.9" stroke="none" /><polygon fill="#e8bf30" points="226.07337766258416,228.1 212.7538527186477,228.1 231.00324892342826,238.9" stroke="none" /><polygon fill="#e6bc2e" points="212.7538527186477,228.1 221.34919682805867,238.9 231.00324892342826,238.9" stroke="none" /><polygon fill="#e2b729" points="212.7538527186477,228.1 201.40237528031753,228.1 221.34919682805867,238.9" stroke="none" /><polygon fill="#e0b427" points="201.40237528031753,228.1 204.72973952315215,238.9 221.34919682805867,238.9" stroke="none" /><polygon fill="#e6bc2e" points="201.40237528031753,228.1 253,228.1 204.72973952315215,238.9" stroke="none" /><polygon fill="#eec637" points="253,228.1 255,238.9 204.72973952315215,238.9" stroke="none" /><polygon fill="#f7d242" points="253,228.1 254.0,228.1 255,238.9" stroke="none" /><polygon fill="#f6d140" points="254.0,228.1 253.0,238.9 255,238.9" stroke="none" /><polygon fill="#f6d141" points="254.0,228.1 272.0272161574952,228.1 253.0,238.9" stroke="none" /><polygon fill="#f2cc3c" points="272.0272161574952,228.1 271.9291859573598,238.9 253.0,238.9" stroke="none" /><polygon fill="#eec738" points="272.0272161574952,228.1 282.92662233741584,228.1 271.9291859573598,238.9" stroke="none" /><polygon fill="#ebc334" points="282.92662233741584,228.1 285.99675107657174,238.9 271.9291859573598,238.9" stroke="none" /><polygon fill="#e8bf30" points="282.92662233741584,228.1 298.2461472813523,228.1 285.99675107657174,238.9" stroke="none" /><polygon fill="#e5bb2d" points="298.2461472813523,228.1 292.65080317194133,238.9 285.99675107657174,238.9" stroke="none" /><polygon fill="#e3b82a" points="298.2461472813523,228.1 306.59762471968247,228.1 292.65080317194133,238.9" stroke="none" /><polygon fill="#e1b528" points="306.59762471968247,228.1 304.27026047684785,238.9 292.65080317194133,238.9" stroke="none" /><polygon fill="#f4cd3b" points="258.0,238.9 242.0708140426402,238.9 254.0,250.375" stroke="none" /><polygon fill="#f0ca36" points="242.0708140426402,238.9 242.64032403238824,250.375 254.0,250.375" stroke="none" /><polygon fill="#edc535" points="242.0708140426402,238.9 231.00324892342826,238.9 242.64032403238824,250.375" stroke="none" /><polygon fill="#eac130" points="231.00324892342826,238.9 230.0042058751066,250.375 242.64032403238824,250.375" stroke="none" /><polygon fill="#e7bd2f" points="231.00324892342826,238.9 221.34919682805867,238.9 230.0042058751066,250.375" stroke="none" /><polygon fill="#e5ba2b" points="221.34919682805867,238.9 221.6953113492813,250.375 230.0042058751066,250.375" stroke="none" /><polygon fill="#e1b529" points="221.34919682805867,238.9 204.72973952315215,238.9 221.6953113492813,250.375" stroke="none" /><polygon fill="#ddb025" points="204.72973952315215,238.9 206.45552737087345,250.375 221.6953113492813,250.375" stroke="none" /><polygon fill="#e4ba2c" points="204.72973952315215,238.9 255,238.9 206.45552737087345,250.375" stroke="none" /><polygon fill="#edc533" points="255,238.9 257,250.375 206.45552737087345,250.375" stroke="none" /><polygon fill="#f6d03d" points="255,238.9 253.0,238.9 257,250.375" stroke="none" /><polygon fill="#f5d03a" points="253.0,238.9 255.0,250.375 257,250.375" stroke="none" /><polygon fill="#f4ce3b" points="253.0,238.9 271.9291859573598,238.9 255.0,250.375" stroke="none" /><polygon fill="#f0c936" points="271.9291859573598,238.9 272.35967596761174,250.375 255.0,250.375" stroke="none" /><polygon fill="#ebc233" points="271.9291859573598,238.9 285.99675107657174,238.9 272.35967596761174,250.375" stroke="none" /><polygon fill="#e9c02f" points="285.99675107657174,238.9 280.9957941248934,250.375 272.35967596761174,250.375" stroke="none" /><polygon fill="#e6bc2e" points="285.99675107657174,238.9 292.65080317194133,238.9 280.9957941248934,250.375" stroke="none" /><polygon fill="#e4b92b" points="292.65080317194133,238.9 292.30468865071873,250.375 280.9957941248934,250.375" stroke="none" /><polygon fill="#e1b529" points="292.65080317194133,238.9 304.27026047684785,238.9 292.30468865071873,250.375" stroke="none" /><polygon fill="#deb226" points="304.27026047684785,238.9 300.5444726291265,250.375 292.30468865071873,250.375" stroke="none" /><polygon fill="#f2cb34" points="254.0,250.375 242.64032403238824,250.375 256.0,261.85" stroke="none" /><polygon fill="#efc631" points="242.64032403238824,250.375 241.35849277406422,261.85 256.0,261.85" stroke="none" /><polygon fill="#ebc12f" points="242.64032403238824,250.375 230.0042058751066,250.375 241.35849277406422,261.85" stroke="none" /><polygon fill="#e7bd2c" points="230.0042058751066,250.375 230.02401760290076,261.85 241.35849277406422,261.85" stroke="none" /><polygon fill="#e4b92b" points="230.0042058751066,250.375 221.6953113492813,250.375 230.02401760290076,261.85" stroke="none" /><polygon fill="#e2b628" points="221.6953113492813,250.375 223.75643746596998,261.85 230.02401760290076,261.85" stroke="none" /><polygon fill="#deb226" points="221.6953113492813,250.375 206.45552737087345,250.375 223.75643746596998,261.85" stroke="none" /><polygon fill="#dcaf24" points="206.45552737087345,250.375 215.66209931534613,261.85 223.75643746596998,261.85" stroke="none" /><polygon fill="#e4b92a" points="206.45552737087345,250.375 257,250.375 215.66209931534613,261.85" stroke="none" /><polygon fill="#ecc32f" points="257,250.375 254,261.85 215.66209931534613,261.85" stroke="none" /><polygon fill="#f5ce36" points="257,250.375 255.0,250.375 254,261.85" stroke="none" /><polygon fill="#f4cd34" points="255.0,250.375 257.0,261.85 254,261.85" stroke="none" /><polygon fill="#f2ca34" points="255.0,250.375 272.35967596761174,250.375 257.0,261.85" stroke="none" /><polygon fill="#eec530" points="272.35967596761174,250.375 271.64150722593575,261.85 257.0,261.85" stroke="none" /><polygon fill="#eac12f" points="272.35967596761174,250.375 280.9957941248934,250.375 271.64150722593575,261.85" stroke="none" /><polygon fill="#e7bd2c" points="280.9957941248934,250.375 280.97598239709924,261.85 271.64150722593575,261.85" stroke="none" /><polygon fill="#e4b92b" points="280.9957941248934,250.375 292.30468865071873,250.375 280.97598239709924,261.85" stroke="none" /><polygon fill="#e3b729" points="292.30468865071873,250.375 285.24356253403005,261.85 280.97598239709924,261.85" stroke="none" /><polygon fill="#e0b427" points="292.30468865071873,250.375 300.5444726291265,250.375 285.24356253403005,261.85" stroke="none" /><polygon fill="#deb126" points="300.5444726291265,250.375 294.3379006846539,261.85 285.24356253403005,261.85" stroke="none" /><polygon fill="#f1c82e" points="256.0,261.85 241.35849277406422,261.85 253.0,274.0" stroke="none" /><polygon fill="#eec52c" points="241.35849277406422,261.85 245.09337513277444,274.0 253.0,274.0" stroke="none" /><polygon fill="#e9bf2a" points="241.35849277406422,261.85 230.02401760290076,261.85 245.09337513277444,274.0" stroke="none" /><polygon fill="#e8bd29" points="230.02401760290076,261.85 236.07320477881566,274.0 245.09337513277444,274.0" stroke="none" /><polygon fill="#e3b827" points="230.02401760290076,261.85 223.75643746596998,261.85 236.07320477881566,274.0" stroke="none" /><polygon fill="#e2b627" points="223.75643746596998,261.85 224.85706849564866,274.0 236.07320477881566,274.0" stroke="none" /><polygon fill="#deb125" points="223.75643746596998,261.85 215.66209931534613,261.85 224.85706849564866,274.0" stroke="none" /><polygon fill="#ddb024" points="215.66209931534613,261.85 220.91931858416496,274.0 224.85706849564866,274.0" stroke="none" /><polygon fill="#e4b827" points="215.66209931534613,261.85 254,261.85 220.91931858416496,274.0" stroke="none" /><polygon fill="#ecc22b" points="254,261.85 254,274.0 220.91931858416496,274.0" stroke="none" /><polygon fill="#f4cc2f" points="254,261.85 257.0,261.85 254,274.0" stroke="none" /><polygon fill="#f4cc2f" points="257.0,261.85 255.0,274.0 254,274.0" stroke="none" /><polygon fill="#f1c82e" points="257.0,261.85 271.64150722593575,261.85 255.0,274.0" stroke="none" /><polygon fill="#efc52d" points="271.64150722593575,261.85 267.90662486722556,274.0 255.0,274.0" stroke="none" /><polygon fill="#e9bf2a" points="271.64150722593575,261.85 280.97598239709924,261.85 267.90662486722556,274.0" stroke="none" /><polygon fill="#e7bc29" points="280.97598239709924,261.85 279.9267952211843,274.0 267.90662486722556,274.0" stroke="none" /><polygon fill="#e3b827" points="280.97598239709924,261.85 285.24356253403005,261.85 279.9267952211843,274.0" stroke="none" /><polygon fill="#e3b727" points="285.24356253403005,261.85 284.14293150435134,274.0 279.9267952211843,274.0" stroke="none" /><polygon fill="#e0b325" points="285.24356253403005,261.85 294.3379006846539,261.85 284.14293150435134,274.0" stroke="none" /><polygon fill="#deb225" points="294.3379006846539,261.85 291.08068141583504,274.0 284.14293150435134,274.0" stroke="none" /><polygon fill="#f1c92e" points="253.0,274.0 245.09337513277444,274.0 256.0,287.5" stroke="none" /><polygon fill="#f0c62d" points="245.09337513277444,274.0 244.02100000000002,287.5 256.0,287.5" stroke="none" /><polygon fill="#ebc12b" points="245.09337513277444,274.0 236.07320477881566,274.0 244.02100000000002,287.5" stroke="none" /><polygon fill="#e9bf2a" points="236.07320477881566,274.0 235.946,287.5 244.02100000000002,287.5" stroke="none" /><polygon fill="#e5ba28" points="236.07320477881566,274.0 224.85706849564866,274.0 235.946,287.5" stroke="none" /><polygon fill="#e3b727" points="224.85706849564866,274.0 226.686,287.5 235.946,287.5" stroke="none" /><polygon fill="#e0b325" points="224.85706849564866,274.0 220.91931858416496,274.0 226.686,287.5" stroke="none" /><polygon fill="#dfb225" points="220.91931858416496,274.0 219.7,287.5 226.686,287.5" stroke="none" /><polygon fill="#e4b928" points="220.91931858416496,274.0 254,274.0 219.7,287.5" stroke="none" /><polygon fill="#ecc32c" points="254,274.0 257,287.5 219.7,287.5" stroke="none" /><polygon fill="#f4cc2f" points="254,274.0 255.0,274.0 257,287.5" stroke="none" /><polygon fill="#f4cc2f" points="255.0,274.0 255.0,287.5 257,287.5" stroke="none" /><polygon fill="#f2ca2e" points="255.0,274.0 267.90662486722556,274.0 255.0,287.5" stroke="none" /><polygon fill="#f0c72d" points="267.90662486722556,274.0 266.979,287.5 255.0,287.5" stroke="none" /><polygon fill="#eac02b" points="267.90662486722556,274.0 279.9267952211843,274.0 266.979,287.5" stroke="none" /><polygon fill="#e9be2a" points="279.9267952211843,274.0 276.054,287.5 266.979,287.5" stroke="none" /><polygon fill="#e5b928" points="279.9267952211843,274.0 284.14293150435134,274.0 276.054,287.5" stroke="none" /><polygon fill="#e4b827" points="284.14293150435134,274.0 284.314,287.5 276.054,287.5" stroke="none" /><polygon fill="#e1b426" points="284.14293150435134,274.0 291.08068141583504,274.0 284.314,287.5" stroke="none" /><polygon fill="#dfb225" points="291.08068141583504,274.0 293.3,287.5 284.314,287.5" stroke="none" /><path d="M 242 211 A 4 16 0 0 0 242 227 Z" fill="#f5cd30" stroke="#d4a520" stroke-width="1" /><path d="M 270 211 A 4 16 0 0 1 270 227 Z" fill="#f5cd30" stroke="#d4a520" stroke-width="1" /><path d="M 219 213 Q 237 203 255 217 Q 237 230 219 213" fill="#e8e0d8" stroke="#3a2a1a" stroke-width="1.5" /><path d="M 234 217 A 4 4 0 0 0 242 217 Z" fill="#3a2a1a" stroke="none" /><circle cx="239" cy="214" fill="white" r="2" stroke="none" /><path d="M 257 214 Q 275 204 293 218 Q 275 231 257 214" fill="#e8e0d8" stroke="#3a2a1a" stroke-width="1.5" /><path d="M 272 218 A 4 4 0 0 0 280 218 Z" fill="#3a2a1a" stroke="none" /><circle cx="277" cy="215" fill="white" r="2" stroke="none" /><line stroke="#3a2a1a" stroke-width="6" x1="224" x2="250" y1="206" y2="206" /><line stroke="#3a2a1a" stroke-width="6" x1="261" x2="289" y1="206" y2="206" /><path d="M 224 224 A 6 4 0 0 0 236 224 Z" fill="#e88060" fill-opacity="0.2736887263722164" stroke="none" /><path d="M 277 225 A 6 4 0 0 0 289 225 Z" fill="#e88060" fill-opacity="0.26980105732037407" stroke="none" /><path d="M 256 220 Q 259 225 258 228 Q 256 229 254 228 Q 253 225 256 220" fill="#d4a520" stroke="none" /><path d="M 242 237 A 14 8 0 0 0 270 237 Z" fill="#a04030" stroke="#c06050" stroke-width="2" /><path d="M 251 239 A 5 2 0 0 0 261 239 Z" fill="#e06060" stroke="none" /><ellipse cx="244" cy="197" fill="white" fill-opacity="0.18" rx="8" ry="5" stroke="none" /><ellipse cx="268" cy="197" fill="white" fill-opacity="0.18" rx="8" ry="5" stroke="none" /><ellipse cx="256" cy="187" fill="white" fill-opacity="0.18" rx="8" ry="5" stroke="none" /><ellipse cx="235" cy="223" fill="white" fill-opacity="0.18" rx="8" ry="5" stroke="none" /><ellipse cx="277" cy="223" fill="white" fill-opacity="0.18" rx="8" ry="5" stroke="none" /><ellipse cx="247" cy="230" fill="white" fill-opacity="0.18" rx="8" ry="5" stroke="none" /><ellipse cx="265" cy="230" fill="white" fill-opacity="0.18" rx="8" ry="5" stroke="none" /><ellipse cx="256" cy="210" fill="white" fill-opacity="0.12" rx="3" ry="15" stroke="none" /><polygon fill="#b8911a" points="246,283.5 266,283.5 266,318.5 246,318.5" stroke="none" /></svg>