<?xml version="1.0" encoding="utf-8" ?>
<svg baseProfile="full" height="512" version="1.1" width="512" xmlns="http://www.w3.org/2000/svg" xmlns:ev="http://www.w3.org/2001/xml-events" xmlns:xlink="http://www.w3.org/1999/xlink"><defs /><polygon fill="#fddf68" points="257.0,159.5 250.06,159.5 256.0,172.81" stroke="none" /><polygon fill="#fddf67" points="250.06,159.5 253.8454428897824,172.81 256.0,172.81" stroke="none" /><polygon fill="#fcdd63" points="250.06,159.5 244.56,159.5 253.8454428897824,172.81" stroke="none" /><polygon fill="#fcdc61" points="244.56,159.5 243.9404753820418,172.81 253.8454428897824,172.81" stroke="none" /><polygon fill="#fcdb5d" points="244.56,159.5 242.96,159.5 243.9404753820418,172.81" stroke="none" /><polygon fill="#fcdb5e" points="242.96,159.5 246.81650137584933,172.81 243.9404753820418,172.81" stroke="none" /><polygon fill="#fbdb5c" points="242.96,159.5 238.0,159.5 246.81650137584933,172.81" stroke="none" /><polygon fill="#fbda5b" points="238.0,159.5 238.3801299690376,172.81 246.81650137584933,172.81" stroke="none" /><polygon fill="#fcdb5e" points="238.0,159.5 256,159.5 238.3801299690376,172.81" stroke="none" /><polygon fill="#fddd63" points="256,159.5 255,172.81 238.3801299690376,172.81" stroke="none" /><polygon fill="#fddf69" points="256,159.5 256.0,159.5 255,172.81" stroke="none" /><polygon fill="#fee06a" points="256.0,159.5 257.0,172.81 255,172.81" stroke="none" /><polygon fill="#fddf67" points="256.0,159.5 261.94,159.5 257.0,172.81" stroke="none" /><polygon fill="#fdde66" points="261.94,159.5 260.1545571102176,172.81 257.0,172.81" stroke="none" /><polygon fill="#fcdd63" points="261.94,159.5 266.44,159.5 260.1545571102176,172.81" stroke="none" /><polygon fill="#fcdc61" points="266.44,159.5 267.0595246179582,172.81 260.1545571102176,172.81" stroke="none" /><polygon fill="#fcdb5e" points="266.44,159.5 270.04,159.5 267.0595246179582,172.81" stroke="none" /><polygon fill="#fcdb5e" points="270.04,159.5 266.1834986241507,172.81 267.0595246179582,172.81" stroke="none" /><polygon fill="#fbdb5c" points="270.04,159.5 273.0,159.5 266.1834986241507,172.81" stroke="none" /><polygon fill="#fbda5a" points="273.0,159.5 274.61987003096243,172.81 266.1834986241507,172.81" stroke="none" /><polygon fill="#fddf68" points="256.0,172.81 253.8454428897824,172.81 253.0,186.725" stroke="none" /><polygon fill="#fcdd62" points="253.8454428897824,172.81 247.92960551038604,186.725 253.0,186.725" stroke="none" /><polygon fill="#fcdd62" points="253.8454428897824,172.81 243.9404753820418,172.81 247.92960551038604,186.725" stroke="none" /><polygon fill="#fada5c" points="243.9404753820418,172.81 242.33082180613303,186.725 247.92960551038604,186.725" stroke="none" /><polygon fill="#fcdb5e" points="243.9404753820418,172.81 246.81650137584933,172.81 242.33082180613303,186.725" stroke="none" /><polygon fill="#fada5b" points="246.81650137584933,172.81 243.65179484273065,186.725 242.33082180613303,186.725" stroke="none" /><polygon fill="#fbdb5c" points="246.81650137584933,172.81 238.3801299690376,172.81 243.65179484273065,186.725" stroke="none" /><polygon fill="#fad958" points="238.3801299690376,172.81 240.604865182988,186.725 243.65179484273065,186.725" stroke="none" /><polygon fill="#fcdb5e" points="238.3801299690376,172.81 255,172.81 240.604865182988,186.725" stroke="none" /><polygon fill="#fcdd62" points="255,172.81 257,186.725 240.604865182988,186.725" stroke="none" /><polygon fill="#fddf69" points="255,172.81 257.0,172.81 257,186.725" stroke="none" /><polygon fill="#fddf67" points="257.0,172.81 254.0,186.725 257,186.725" stroke="none" /><polygon fill="#fddf68" points="257.0,172.81 260.1545571102176,172.81 254.0,186.725" stroke="none" /><polygon fill="#fcde65" points="260.1545571102176,172.81 259.07039448961393,186.725 254.0,186.725" stroke="none" /><polygon fill="#fddd63" points="260.1545571102176,172.81 267.0595246179582,172.81 259.07039448961393,186.725" stroke="none" /><polygon fill="#fbdb5e" points="267.0595246179582,172.81 269.66917819386697,186.725 259.07039448961393,186.725" stroke="none" /><polygon fill="#fcdb5e" points="267.0595246179582,172.81 266.1834986241507,172.81 269.66917819386697,186.725" stroke="none" /><polygon fill="#fada5a" points="266.1834986241507,172.81 271.3482051572694,186.725 269.66917819386697,186.725" stroke="none" /><polygon fill="#fbda5b" points="266.1834986241507,172.81 274.61987003096243,172.81 271.3482051572694,186.725" stroke="none" /><polygon fill="#f9d856" points="274.61987003096243,172.81 274.395134817012,186.725 271.3482051572694,186.725" stroke="none" /><polygon fill="#fbdb5e" points="253.0,186.725 247.92960551038604,186.725 256.0,198.825" stroke="none" /><polygon fill="#fad959" points="247.92960551038604,186.725 244.88372391579387,198.825 256.0,198.825" stroke="none" /><polygon fill="#f9d858" points="247.92960551038604,186.725 242.33082180613303,186.725 244.88372391579387,198.825" stroke="none" /><polygon fill="#f8d551" points="242.33082180613303,186.725 235.21987839745591,198.825 244.88372391579387,198.825" stroke="none" /><polygon fill="#f8d653" points="242.33082180613303,186.725 243.65179484273065,186.725 235.21987839745591,198.825" stroke="none" /><polygon fill="#f6d34d" points="243.65179484273065,186.725 229.08880198278553,198.825 235.21987839745591,198.825" stroke="none" /><polygon fill="#f7d551" points="243.65179484273065,186.725 240.604865182988,186.725 229.08880198278553,198.825" stroke="none" /><polygon fill="#f5d149" points="240.604865182988,186.725 224.3446179266481,198.825 229.08880198278553,198.825" stroke="none" /><polygon fill="#f8d654" points="240.604865182988,186.725 257,186.725 224.3446179266481,198.825" stroke="none" /><polygon fill="#f9d755" points="257,186.725 254,198.825 224.3446179266481,198.825" stroke="none" /><polygon fill="#fbdc61" points="257,186.725 254.0,186.725 254,198.825" stroke="none" /><polygon fill="#fbdb5e" points="254.0,186.725 258.0,198.825 254,198.825" stroke="none" /><polygon fill="#fbdc61" points="254.0,186.725 259.07039448961393,186.725 258.0,198.825" stroke="none" /><polygon fill="#fad95a" points="259.07039448961393,186.725 265.1162760842061,198.825 258.0,198.825" stroke="none" /><polygon fill="#fad95a" points="259.07039448961393,186.725 269.66917819386697,186.725 265.1162760842061,198.825" stroke="none" /><polygon fill="#f8d653" points="269.66917819386697,186.725 273.7801216025441,198.825 265.1162760842061,198.825" stroke="none" /><polygon fill="#f8d653" points="269.66917819386697,186.725 271.3482051572694,186.725 273.7801216025441,198.825" stroke="none" /><polygon fill="#f7d34e" points="271.3482051572694,186.725 279.9111980172145,198.825 273.7801216025441,198.825" stroke="none" /><polygon fill="#f7d450" points="271.3482051572694,186.725 274.395134817012,186.725 279.9111980172145,198.825" stroke="none" /><polygon fill="#f5d14a" points="274.395134817012,186.725 283.6553820733519,198.825 279.9111980172145,198.825" stroke="none" /><polygon fill="#f9d757" points="256.0,198.825 244.88372391579387,198.825 254.0,209.11" stroke="none" /><polygon fill="#f8d552" points="244.88372391579387,198.825 243.00448105237993,209.11 254.0,209.11" stroke="none" /><polygon fill="#f6d24f" points="244.88372391579387,198.825 235.21987839745591,198.825 243.00448105237993,209.11" stroke="none" /><polygon fill="#f4cf49" points="235.21987839745591,198.825 229.64423942539503,209.11 243.00448105237993,209.11" stroke="none" /><polygon fill="#f3ce47" points="235.21987839745591,198.825 229.08880198278553,198.825 229.64423942539503,209.11" stroke="none" /><polygon fill="#f1cb41" points="229.08880198278553,198.825 219.5560461238071,209.11 229.64423942539503,209.11" stroke="none" /><polygon fill="#f1ca41" points="229.08880198278553,198.825 224.3446179266481,198.825 219.5560461238071,209.11" stroke="none" /><polygon fill="#eec63a" points="224.3446179266481,198.825 208.5590334920604,209.11 219.5560461238071,209.11" stroke="none" /><polygon fill="#f2cd45" points="224.3446179266481,198.825 254,198.825 208.5590334920604,209.11" stroke="none" /><polygon fill="#f5d14c" points="254,198.825 257,209.11 208.5590334920604,209.11" stroke="none" /><polygon fill="#fad95a" points="254,198.825 258.0,198.825 257,209.11" stroke="none" /><polygon fill="#fad958" points="258.0,198.825 255.0,209.11 257,209.11" stroke="none" /><polygon fill="#f9d858" points="258.0,198.825 265.1162760842061,198.825 255.0,209.11" stroke="none" /><polygon fill="#f8d652" points="265.1162760842061,198.825 270.9955189476201,209.11 255.0,209.11" stroke="none" /><polygon fill="#f6d34f" points="265.1162760842061,198.825 273.7801216025441,198.825 270.9955189476201,209.11" stroke="none" /><polygon fill="#f4d049" points="273.7801216025441,198.825 281.355760574605,209.11 270.9955189476201,209.11" stroke="none" /><polygon fill="#f4cf49" points="273.7801216025441,198.825 279.9111980172145,198.825 281.355760574605,209.11" stroke="none" /><polygon fill="#f1cb42" points="279.9111980172145,198.825 293.4439538761929,209.11 281.355760574605,209.11" stroke="none" /><polygon fill="#f2cb43" points="279.9111980172145,198.825 283.6553820733519,198.825 293.4439538761929,209.11" stroke="none" /><polygon fill="#efc83d" points="283.6553820733519,198.825 298.4409665079396,209.11 293.4439538761929,209.11" stroke="none" /><polygon fill="#f8d551" points="254.0,209.11 243.00448105237993,209.11 256.0,218.79" stroke="none" /><polygon fill="#f5d14b" points="243.00448105237993,209.11 235.91585029419372,218.79 256.0,218.79" stroke="none" /><polygon fill="#f2cd46" points="243.00448105237993,209.11 229.64423942539503,209.11 235.91585029419372,218.79" stroke="none" /><polygon fill="#f0c941" points="229.64423942539503,209.11 225.97331263827988,218.79 235.91585029419372,218.79" stroke="none" /><polygon fill="#eec73e" points="229.64423942539503,209.11 219.5560461238071,209.11 225.97331263827988,218.79" stroke="none" /><polygon fill="#ecc339" points="219.5560461238071,209.11 213.61928251354882,218.79 225.97331263827988,218.79" stroke="none" /><polygon fill="#eac236" points="219.5560461238071,209.11 208.5590334920604,209.11 213.61928251354882,218.79" stroke="none" /><polygon fill="#e8bd32" points="208.5590334920604,209.11 206.22984937634465,218.79 213.61928251354882,218.79" stroke="none" /><polygon fill="#eec73d" points="208.5590334920604,209.11 257,209.11 206.22984937634465,218.79" stroke="none" /><polygon fill="#f3ce47" points="257,209.11 255,218.79 206.22984937634465,218.79" stroke="none" /><polygon fill="#f9d754" points="257,209.11 255.0,209.11 255,218.79" stroke="none" /><polygon fill="#f9d652" points="255.0,209.11 259.0,218.79 255,218.79" stroke="none" /><polygon fill="#f7d550" points="255.0,209.11 270.9955189476201,209.11 259.0,218.79" stroke="none" /><polygon fill="#f5d04b" points="270.9955189476201,209.11 272.0841497058063,218.79 259.0,218.79" stroke="none" /><polygon fill="#f3ce47" points="270.9955189476201,209.11 281.355760574605,209.11 272.0841497058063,218.79" stroke="none" /><polygon fill="#f0c942" points="281.355760574605,209.11 287.0266873617201,218.79 272.0841497058063,218.79" stroke="none" /><polygon fill="#eec73e" points="281.355760574605,209.11 293.4439538761929,209.11 287.0266873617201,218.79" stroke="none" /><polygon fill="#ebc238" points="293.4439538761929,209.11 299.3807174864512,218.79 287.0266873617201,218.79" stroke="none" /><polygon fill="#ebc237" points="293.4439538761929,209.11 298.4409665079396,209.11 299.3807174864512,218.79" stroke="none" /><polygon fill="#e8be33" points="298.4409665079396,209.11 306.77015062365535,218.79 299.3807174864512,218.79" stroke="none" /><polygon fill="#f5d14a" points="256.0,218.79 235.91585029419372,218.79 253.0,227.26" stroke="none" /><polygon fill="#f3ce46" points="235.91585029419372,218.79 241.5354638462775,227.26 253.0,227.26" stroke="none" /><polygon fill="#f0c941" points="235.91585029419372,218.79 225.97331263827988,218.79 241.5354638462775,227.26" stroke="none" /><polygon fill="#efc83f" points="225.97331263827988,218.79 230.57748191163924,227.26 241.5354638462775,227.26" stroke="none" /><polygon fill="#ebc33a" points="225.97331263827988,218.79 213.61928251354882,218.79 230.57748191163924,227.26" stroke="none" /><polygon fill="#eac238" points="213.61928251354882,218.79 220.81109636392864,227.26 230.57748191163924,227.26" stroke="none" /><polygon fill="#e8be33" points="213.61928251354882,218.79 206.22984937634465,218.79 220.81109636392864,227.26" stroke="none" /><polygon fill="#e6bd33" points="206.22984937634465,218.79 212.16807226144698,227.26 220.81109636392864,227.26" stroke="none" /><polygon fill="#ecc43b" points="206.22984937634465,218.79 255,218.79 212.16807226144698,227.26" stroke="none" /><polygon fill="#f2cc44" points="255,218.79 254,227.26 212.16807226144698,227.26" stroke="none" /><polygon fill="#f9d650" points="255,218.79 259.0,218.79 254,227.26" stroke="none" /><polygon fill="#f8d54d" points="259.0,218.79 256.0,227.26 254,227.26" stroke="none" /><polygon fill="#f6d24b" points="259.0,218.79 272.0841497058063,218.79 256.0,227.26" stroke="none" /><polygon fill="#f4cf47" points="272.0841497058063,218.79 271.4645361537225,227.26 256.0,227.26" stroke="none" /><polygon fill="#f0ca42" points="272.0841497058063,218.79 287.0266873617201,218.79 271.4645361537225,227.26" stroke="none" /><polygon fill="#efc83f" points="287.0266873617201,218.79 280.42251808836073,227.26 271.4645361537225,227.26" stroke="none" /><polygon fill="#ebc33a" points="287.0266873617201,218.79 299.3807174864512,218.79 280.42251808836073,227.26" stroke="none" /><polygon fill="#ebc239" points="299.3807174864512,218.79 287.18890363607136,227.26 280.42251808836073,227.26" stroke="none" /><polygon fill="#e8be34" points="299.3807174864512,218.79 306.77015062365535,218.79 287.18890363607136,227.26" stroke="none" /><polygon fill="#e6bd33" points="306.77015062365535,218.79 302.831927738553,227.26 287.18890363607136,227.26" stroke="none" /><polygon fill="#f6d147" points="253.0,227.26 241.5354638462775,227.26 259.0,236.94" stroke="none" /><polygon fill="#f3ce43" points="241.5354638462775,227.26 240.47261785306003,236.94 259.0,236.94" stroke="none" /><polygon fill="#f0c83f" points="241.5354638462775,227.26 230.57748191163924,227.26 240.47261785306003,236.94" stroke="none" /><polygon fill="#eec63c" points="230.57748191163924,227.26 234.98217683265096,236.94 240.47261785306003,236.94" stroke="none" /><polygon fill="#ecc33a" points="230.57748191163924,227.26 220.81109636392864,227.26 234.98217683265096,236.94" stroke="none" /><polygon fill="#eac138" points="220.81109636392864,227.26 226.3898240163237,236.94 234.98217683265096,236.94" stroke="none" /><polygon fill="#e8be35" points="220.81109636392864,227.26 212.16807226144698,227.26 226.3898240163237,236.94" stroke="none" /><polygon fill="#e6bc34" points="212.16807226144698,227.26 220.0382359183637,236.94 226.3898240163237,236.94" stroke="none" /><polygon fill="#ecc33a" points="212.16807226144698,227.26 254,227.26 220.0382359183637,236.94" stroke="none" /><polygon fill="#f1cb41" points="254,227.26 256,236.94 220.0382359183637,236.94" stroke="none" /><polygon fill="#f8d349" points="254,227.26 256.0,227.26 256,236.94" stroke="none" /><polygon fill="#f7d347" points="256.0,227.26 254.0,236.94 256,236.94" stroke="none" /><polygon fill="#f6d147" points="256.0,227.26 271.4645361537225,227.26 254.0,236.94" stroke="none" /><polygon fill="#f4ce43" points="271.4645361537225,227.26 266.52738214694,236.94 254.0,236.94" stroke="none" /><polygon fill="#f1c940" points="271.4645361537225,227.26 280.42251808836073,227.26 266.52738214694,236.94" stroke="none" /><polygon fill="#efc83d" points="280.42251808836073,227.26 277.01782316734904,236.94 266.52738214694,236.94" stroke="none" /><polygon fill="#edc43b" points="280.42251808836073,227.26 287.18890363607136,227.26 277.01782316734904,236.94" stroke="none" /><polygon fill="#eac138" points="287.18890363607136,227.26 288.6101759836763,236.94 277.01782316734904,236.94" stroke="none" /><polygon fill="#e8bd35" points="287.18890363607136,227.26 302.831927738553,227.26 288.6101759836763,236.94" stroke="none" /><polygon fill="#e5bb33" points="302.831927738553,227.26 292.96176408163626,236.94 288.6101759836763,236.94" stroke="none" /><polygon fill="#f5ce41" points="259.0,236.94 240.47261785306003,236.94 254.0,247.225" stroke="none" /><polygon fill="#f2cb3e" points="240.47261785306003,236.94 249.108963453408,247.225 254.0,247.225" stroke="none" /><polygon fill="#f0c83d" points="240.47261785306003,236.94 234.98217683265096,236.94 249.108963453408,247.225" stroke="none" /><polygon fill="#efc73b" points="234.98217683265096,236.94 240.3733297059898,247.225 249.108963453408,247.225" stroke="none" /><polygon fill="#ecc339" points="234.98217683265096,236.94 226.3898240163237,236.94 240.3733297059898,247.225" stroke="none" /><polygon fill="#ebc137" points="226.3898240163237,236.94 232.98482270805522,247.225 240.3733297059898,247.225" stroke="none" /><polygon fill="#e8be35" points="226.3898240163237,236.94 220.0382359183637,236.94 232.98482270805522,247.225" stroke="none" /><polygon fill="#e8be34" points="220.0382359183637,236.94 230.05746501032723,247.225 232.98482270805522,247.225" stroke="none" /><polygon fill="#edc43a" points="220.0382359183637,236.94 256,236.94 230.05746501032723,247.225" stroke="none" /><polygon fill="#f2cb3d" points="256,236.94 255,247.225 230.05746501032723,247.225" stroke="none" /><polygon fill="#f7d143" points="256,236.94 254.0,236.94 255,247.225" stroke="none" /><polygon fill="#f6d041" points="254.0,236.94 255.0,247.225 255,247.225" stroke="none" /><polygon fill="#f6d042" points="254.0,236.94 266.52738214694,236.94 255.0,247.225" stroke="none" /><polygon fill="#f3cc3e" points="266.52738214694,236.94 267.89103654659203,247.225 255.0,247.225" stroke="none" /><polygon fill="#f0c83d" points="266.52738214694,236.94 277.01782316734904,236.94 267.89103654659203,247.225" stroke="none" /><polygon fill="#eec53a" points="277.01782316734904,236.94 273.6266702940102,247.225 267.89103654659203,247.225" stroke="none" /><polygon fill="#ebc238" points="277.01782316734904,236.94 288.6101759836763,236.94 273.6266702940102,247.225" stroke="none" /><polygon fill="#eac036" points="288.6101759836763,236.94 280.0151772919448,247.225 273.6266702940102,247.225" stroke="none" /><polygon fill="#e7bd35" points="288.6101759836763,236.94 292.96176408163626,236.94 280.0151772919448,247.225" stroke="none" /><polygon fill="#e7bd34" points="292.96176408163626,236.94 284.94253498967277,247.225 280.0151772919448,247.225" stroke="none" /><polygon fill="#f4cd3c" points="254.0,247.225 249.108963453408,247.225 253.0,257.51" stroke="none" /><polygon fill="#f3cb3a" points="249.108963453408,247.225 251.67459905708648,257.51 253.0,257.51" stroke="none" /><polygon fill="#f1c93a" points="249.108963453408,247.225 240.3733297059898,247.225 251.67459905708648,257.51" stroke="none" /><polygon fill="#f0c838" points="240.3733297059898,247.225 248.6402044033641,257.51 251.67459905708648,257.51" stroke="none" /><polygon fill="#eec537" points="240.3733297059898,247.225 232.98482270805522,247.225 248.6402044033641,257.51" stroke="none" /><polygon fill="#edc436" points="232.98482270805522,247.225 243.4126886803862,257.51 248.6402044033641,257.51" stroke="none" /><polygon fill="#ebc135" points="232.98482270805522,247.225 230.05746501032723,247.225 243.4126886803862,257.51" stroke="none" /><polygon fill="#ebc134" points="230.05746501032723,247.225 238.8624213851105,257.51 243.4126886803862,257.51" stroke="none" /><polygon fill="#eec538" points="230.05746501032723,247.225 255,247.225 238.8624213851105,257.51" stroke="none" /><polygon fill="#f2ca39" points="255,247.225 255,257.51 238.8624213851105,257.51" stroke="none" /><polygon fill="#f6cf3d" points="255,247.225 255.0,247.225 255,257.51" stroke="none" /><polygon fill="#f5ce3b" points="255.0,247.225 256.0,257.51 255,257.51" stroke="none" /><polygon fill="#f4cd3c" points="255.0,247.225 267.89103654659203,247.225 256.0,257.51" stroke="none" /><polygon fill="#f2ca39" points="267.89103654659203,247.225 261.3254009429135,257.51 256.0,257.51" stroke="none" /><polygon fill="#f0c739" points="267.89103654659203,247.225 273.6266702940102,247.225 261.3254009429135,257.51" stroke="none" /><polygon fill="#efc637" points="273.6266702940102,247.225 267.3597955966359,257.51 261.3254009429135,257.51" stroke="none" /><polygon fill="#ecc336" points="273.6266702940102,247.225 280.0151772919448,247.225 267.3597955966359,257.51" stroke="none" /><polygon fill="#ecc235" points="280.0151772919448,247.225 271.5873113196138,257.51 267.3597955966359,257.51" stroke="none" /><polygon fill="#e9c034" points="280.0151772919448,247.225 284.94253498967277,247.225 271.5873113196138,257.51" stroke="none" /><polygon fill="#eac034" points="284.94253498967277,247.225 270.1375786148895,257.51 271.5873113196138,257.51" stroke="none" /><polygon fill="#f4cb37" points="253.0,257.51 251.67459905708648,257.51 255.0,268.4" stroke="none" /><polygon fill="#f3ca36" points="251.67459905708648,257.51 247.62367118218944,268.4 255.0,268.4" stroke="none" /><polygon fill="#f1c835" points="251.67459905708648,257.51 248.6402044033641,257.51 247.62367118218944,268.4" stroke="none" /><polygon fill="#f0c735" points="248.6402044033641,257.51 246.55069480506023,268.4 247.62367118218944,268.4" stroke="none" /><polygon fill="#efc634" points="248.6402044033641,257.51 243.4126886803862,257.51 246.55069480506023,268.4" stroke="none" /><polygon fill="#eec534" points="243.4126886803862,257.51 244.29231370335685,268.4 246.55069480506023,268.4" stroke="none" /><polygon fill="#edc333" points="243.4126886803862,257.51 238.8624213851105,257.51 244.29231370335685,268.4" stroke="none" /><polygon fill="#ebc232" points="238.8624213851105,257.51 237.70809449148314,268.4 244.29231370335685,268.4" stroke="none" /><polygon fill="#eec434" points="238.8624213851105,257.51 255,257.51 237.70809449148314,268.4" stroke="none" /><polygon fill="#f1c835" points="255,257.51 253,268.4 237.70809449148314,268.4" stroke="none" /><polygon fill="#f5cc37" points="255,257.51 256.0,257.51 253,268.4" stroke="none" /><polygon fill="#f5cd37" points="256.0,257.51 257.0,268.4 253,268.4" stroke="none" /><polygon fill="#f4cc37" points="256.0,257.51 261.3254009429135,257.51 257.0,268.4" stroke="none" /><polygon fill="#f3cb36" points="261.3254009429135,257.51 259.3763288178106,268.4 257.0,268.4" stroke="none" /><polygon fill="#f1c835" points="261.3254009429135,257.51 267.3597955966359,257.51 259.3763288178106,268.4" stroke="none" /><polygon fill="#f0c735" points="267.3597955966359,257.51 265.44930519493977,268.4 259.3763288178106,268.4" stroke="none" /><polygon fill="#eec434" points="267.3597955966359,257.51 271.5873113196138,257.51 265.44930519493977,268.4" stroke="none" /><polygon fill="#eec534" points="271.5873113196138,257.51 265.70768629664315,268.4 265.44930519493977,268.4" stroke="none" /><polygon fill="#edc433" points="271.5873113196138,257.51 270.1375786148895,257.51 265.70768629664315,268.4" stroke="none" /><polygon fill="#eec434" points="270.1375786148895,257.51 269.29190550851683,268.4 265.70768629664315,268.4" stroke="none" /><polygon fill="#f4cb37" points="255.0,268.4 247.62367118218944,268.4 257.0,280.5" stroke="none" /><polygon fill="#f2ca36" points="247.62367118218944,268.4 249.06,280.5 257.0,280.5" stroke="none" /><polygon fill="#f0c735" points="247.62367118218944,268.4 246.55069480506023,268.4 249.06,280.5" stroke="none" /><polygon fill="#f0c635" points="246.55069480506023,268.4 244.56,280.5 249.06,280.5" stroke="none" /><polygon fill="#efc534" points="246.55069480506023,268.4 244.29231370335685,268.4 244.56,280.5" stroke="none" /><polygon fill="#eec434" points="244.29231370335685,268.4 242.96,280.5 244.56,280.5" stroke="none" /><polygon fill="#ecc333" points="244.29231370335685,268.4 237.70809449148314,268.4 242.96,280.5" stroke="none" /><polygon fill="#ebc132" points="237.70809449148314,268.4 239.0,280.5 242.96,280.5" stroke="none" /><polygon fill="#edc433" points="237.70809449148314,268.4 253,268.4 239.0,280.5" stroke="none" /><polygon fill="#f1c935" points="253,268.4 257,280.5 239.0,280.5" stroke="none" /><polygon fill="#f5cd37" points="253,268.4 257.0,268.4 257,280.5" stroke="none" /><polygon fill="#f5cd37" points="257.0,268.4 255.0,280.5 257,280.5" stroke="none" /><polygon fill="#f5cd37" points="257.0,268.4 259.3763288178106,268.4 255.0,280.5" stroke="none" /><polygon fill="#f4cb37" points="259.3763288178106,268.4 262.94,280.5 255.0,280.5" stroke="none" /><polygon fill="#f1c835" points="259.3763288178106,268.4 265.44930519493977,268.4 262.94,280.5" stroke="none" /><polygon fill="#f0c635" points="265.44930519493977,268.4 267.44,280.5 262.94,280.5" stroke="none" /><polygon fill="#efc634" points="265.44930519493977,268.4 265.70768629664315,268.4 267.44,280.5" stroke="none" /><polygon fill="#eec534" points="265.70768629664315,268.4 269.04,280.5 267.44,280.5" stroke="none" /><polygon fill="#eec434" points="265.70768629664315,268.4 269.29190550851683,268.4 269.04,280.5" stroke="none" /><polygon fill="#ecc233" points="269.29190550851683,268.4 274.0,280.5 269.04,280.5" stroke="none" /><path d="M 242 212 A 4 15 0 0 0 242 226 Z" fill="#f6ce38" stroke="#d6a828" stroke-width="1" /><path d="M 270 212 A 4 15 0 0 1 270 226 Z" fill="#f6ce38" stroke="#d6a828" stroke-width="1" /><path d="M 219 215 A 18 12 0 0 0 255 215 Z" fill="#e8e0d8" stroke="#3a2a1a" stroke-width="1.5" /><path d="M 231 217 A 6 6 0 0 0 243 217 Z" fill="#3a2a1a" stroke="none" /><circle cx="240" cy="213" fill="white" r="3" stroke="none" /><circle cx="235" cy="217" fill="white" r="1" stroke="none" /><path d="M 217 215 Q 237 211 257 215" fill="none" stroke="#3a2a1a" stroke-width="3" /><line stroke="#3a2a1a" stroke-width="2" x1="228" x2="228" y1="214" y2="211" /><line stroke="#3a2a1a" stroke-width="2" x1="237" x2="237" y1="214" y2="211" /><line stroke="#3a2a1a" stroke-width="2" x1="246" x2="246" y1="214" y2="211" /><path d="M 257 215 A 18 12 0 0 0 293 215 Z" fill="#e8e0d8" stroke="#3a2a1a" stroke-width="1.5" /><path d="M 269 217 A 6 6 0 0 0 281 217 Z" fill="#3a2a1a" stroke="none" /><circle cx="278" cy="213" fill="white" r="3" stroke="none" /><circle cx="273" cy="217" fill="white" r="1" stroke="none" /><path d="M 255 215 Q 275 211 295 215" fill="none" stroke="#3a2a1a" stroke-width="3" /><line stroke="#3a2a1a" stroke-width="3" x1="223" x2="251" y1="208" y2="208" /><line stroke="#3a2a1a" stroke-width="3" x1="262" x2="288" y1="210" y2="210" /><path d="M 224 224 A 6 4 0 0 0 236 224 Z" fill="#e88060" fill-opacity="0.2854179599520785" stroke="none" /><path d="M 276 224 A 6 4 0 0 0 288 224 Z" fill="#e88060" fill-opacity="0.21051646649424782" stroke="none" /><path d="M 241 231 Q 244 234 248 231 Q 252 228 256 231 Q 259 234 263 231 Q 267 228 271 231" fill="none" stroke="#c06050" stroke-width="3" /><ellipse cx="256" cy="193" fill="white" fill-opacity="0.10" rx="4" ry="3" stroke="none" /><ellipse cx="241" cy="214" fill="white" fill-opacity="0.10" rx="4" ry="3" stroke="none" /><ellipse cx="271" cy="214" fill="white" fill-opacity="0.10" rx="4" ry="3" stroke="none" /><polygon fill="#ba9420" points="242,276.5 270,276.5 270,311.5 242,311.5" stroke="none" /><path d="M 253 294.5 Q 256 284.5 259 294.5" fill="none" stroke="#d6a828" stroke-width="1.5" /></svg>