<?xml version="1.0" encoding="utf-8" ?>
<svg baseProfile="full" height="512" version="1.1" width="512" xmlns="http://www.w3.org/2000/svg" xmlns:ev="http://www.w3.org/2001/xml-events" xmlns:xlink="http://www.w3.org/1999/xlink"><defs /><polygon fill="#fbdf61" points="255.0,104.5 252.8418,104.5 256.0,129.91" stroke="none" /><polygon fill="#fbde5d" points="252.8418,104.5 236.70808535486577,129.91 256.0,129.91" stroke="none" /><polygon fill="#fbde5c" points="252.8418,104.5 252.2068,104.5 236.70808535486577,129.91" stroke="none" /><polygon fill="#fadc57" points="252.2068,104.5 225.8505742600671,129.91 236.70808535486577,129.91" stroke="none" /><polygon fill="#fadd5a" points="252.2068,104.5 249.8988,104.5 225.8505742600671,129.91" stroke="none" /><polygon fill="#f9da52" points="249.8988,104.5 214.76456538422818,129.91 225.8505742600671,129.91" stroke="none" /><polygon fill="#fadc57" points="249.8988,104.5 250.46,104.5 214.76456538422818,129.91" stroke="none" /><polygon fill="#f9d84d" points="250.46,104.5 201.56995562080536,129.91 214.76456538422818,129.91" stroke="none" /><polygon fill="#fadb56" points="250.46,104.5 257,104.5 201.56995562080536,129.91" stroke="none" /><polygon fill="#fadc57" points="257,104.5 255,129.91 201.56995562080536,129.91" stroke="none" /><polygon fill="#fce062" points="257,104.5 256.0,104.5 255,129.91" stroke="none" /><polygon fill="#fbdf61" points="256.0,104.5 254.0,129.91 255,129.91" stroke="none" /><polygon fill="#fbdf61" points="256.0,104.5 257.1582,104.5 254.0,129.91" stroke="none" /><polygon fill="#fbde5e" points="257.1582,104.5 272.2919146451342,129.91 254.0,129.91" stroke="none" /><polygon fill="#fbde5d" points="257.1582,104.5 259.7932,104.5 272.2919146451342,129.91" stroke="none" /><polygon fill="#fadc58" points="259.7932,104.5 286.1494257399329,129.91 272.2919146451342,129.91" stroke="none" /><polygon fill="#fadd5a" points="259.7932,104.5 260.1012,104.5 286.1494257399329,129.91" stroke="none" /><polygon fill="#f9da53" points="260.1012,104.5 297.23543461577185,129.91 286.1494257399329,129.91" stroke="none" /><polygon fill="#fadc57" points="260.1012,104.5 261.54,104.5 297.23543461577185,129.91" stroke="none" /><polygon fill="#f9d84e" points="261.54,104.5 308.43004437919467,129.91 297.23543461577185,129.91" stroke="none" /><polygon fill="#fbde5e" points="256.0,129.91 236.70808535486577,129.91 259.0,156.475" stroke="none" /><polygon fill="#f9da56" points="236.70808535486577,129.91 227.9127993582221,156.475 259.0,156.475" stroke="none" /><polygon fill="#f9da52" points="236.70808535486577,129.91 225.8505742600671,129.91 227.9127993582221,156.475" stroke="none" /><polygon fill="#f7d54a" points="225.8505742600671,129.91 205.39219281142067,156.475 227.9127993582221,156.475" stroke="none" /><polygon fill="#f8d749" points="225.8505742600671,129.91 214.76456538422818,129.91 205.39219281142067,156.475" stroke="none" /><polygon fill="#f5d241" points="214.76456538422818,129.91 193.9757075739795,156.475 205.39219281142067,156.475" stroke="none" /><polygon fill="#f7d442" points="214.76456538422818,129.91 201.56995562080536,129.91 193.9757075739795,156.475" stroke="none" /><polygon fill="#f4ce39" points="201.56995562080536,129.91 173.91757381279422,156.475 193.9757075739795,156.475" stroke="none" /><polygon fill="#f7d546" points="201.56995562080536,129.91 255,129.91 173.91757381279422,156.475" stroke="none" /><polygon fill="#f8d74f" points="255,129.91 258,156.475 173.91757381279422,156.475" stroke="none" /><polygon fill="#fbdf61" points="255,129.91 254.0,129.91 258,156.475" stroke="none" /><polygon fill="#fadd5e" points="254.0,129.91 259.0,156.475 258,156.475" stroke="none" /><polygon fill="#fbde5e" points="254.0,129.91 272.2919146451342,129.91 259.0,156.475" stroke="none" /><polygon fill="#f9da55" points="272.2919146451342,129.91 286.0872006417779,156.475 259.0,156.475" stroke="none" /><polygon fill="#f9da52" points="272.2919146451342,129.91 286.1494257399329,129.91 286.0872006417779,156.475" stroke="none" /><polygon fill="#f7d54a" points="286.1494257399329,129.91 302.60780718857933,156.475 286.0872006417779,156.475" stroke="none" /><polygon fill="#f8d74a" points="286.1494257399329,129.91 297.23543461577185,129.91 302.60780718857933,156.475" stroke="none" /><polygon fill="#f5d242" points="297.23543461577185,129.91 320.0242924260205,156.475 302.60780718857933,156.475" stroke="none" /><polygon fill="#f7d442" points="297.23543461577185,129.91 308.43004437919467,129.91 320.0242924260205,156.475" stroke="none" /><polygon fill="#f4ce39" points="308.43004437919467,129.91 338.0824261872058,156.475 320.0242924260205,156.475" stroke="none" /><polygon fill="#f8d954" points="259.0,156.475 227.9127993582221,156.475 257.0,179.575" stroke="none" /><polygon fill="#f7d64d" points="227.9127993582221,156.475 227.55663977181314,179.575 257.0,179.575" stroke="none" /><polygon fill="#f5d246" points="227.9127993582221,156.475 205.39219281142067,156.475 227.55663977181314,179.575" stroke="none" /><polygon fill="#f3cf3f" points="205.39219281142067,156.475 200.49348808379278,179.575 227.55663977181314,179.575" stroke="none" /><polygon fill="#f2cd3b" points="205.39219281142067,156.475 193.9757075739795,156.475 200.49348808379278,179.575" stroke="none" /><polygon fill="#f0ca35" points="193.9757075739795,156.475 182.04296673337652,179.575 200.49348808379278,179.575" stroke="none" /><polygon fill="#f0c932" points="193.9757075739795,156.475 173.91757381279422,156.475 182.04296673337652,179.575" stroke="none" /><polygon fill="#eec52c" points="173.91757381279422,156.475 163.7473932479186,179.575 182.04296673337652,179.575" stroke="none" /><polygon fill="#f2cd3a" points="173.91757381279422,156.475 258,156.475 163.7473932479186,179.575" stroke="none" /><polygon fill="#f5d246" points="258,156.475 253,179.575 163.7473932479186,179.575" stroke="none" /><polygon fill="#f9db58" points="258,156.475 259.0,156.475 253,179.575" stroke="none" /><polygon fill="#f9da56" points="259.0,156.475 255.0,179.575 253,179.575" stroke="none" /><polygon fill="#f8d953" points="259.0,156.475 286.0872006417779,156.475 255.0,179.575" stroke="none" /><polygon fill="#f7d54c" points="286.0872006417779,156.475 287.44336022818686,179.575 255.0,179.575" stroke="none" /><polygon fill="#f5d245" points="286.0872006417779,156.475 302.60780718857933,156.475 287.44336022818686,179.575" stroke="none" /><polygon fill="#f3cf3f" points="302.60780718857933,156.475 312.5065119162072,179.575 287.44336022818686,179.575" stroke="none" /><polygon fill="#f2cd3b" points="302.60780718857933,156.475 320.0242924260205,156.475 312.5065119162072,179.575" stroke="none" /><polygon fill="#f0c935" points="320.0242924260205,156.475 328.9570332666235,179.575 312.5065119162072,179.575" stroke="none" /><polygon fill="#f0c932" points="320.0242924260205,156.475 338.0824261872058,156.475 328.9570332666235,179.575" stroke="none" /><polygon fill="#eec52c" points="338.0824261872058,156.475 345.2526067520814,179.575 328.9570332666235,179.575" stroke="none" /><polygon fill="#f7d74d" points="257.0,179.575 227.55663977181314,179.575 254.0,199.21" stroke="none" /><polygon fill="#f4d246" points="227.55663977181314,179.575 221.85276155202257,199.21 254.0,199.21" stroke="none" /><polygon fill="#f2ce3f" points="227.55663977181314,179.575 200.49348808379278,179.575 221.85276155202257,199.21" stroke="none" /><polygon fill="#efca39" points="200.49348808379278,179.575 200.2563687884033,199.21 221.85276155202257,199.21" stroke="none" /><polygon fill="#eec834" points="200.49348808379278,179.575 182.04296673337652,179.575 200.2563687884033,199.21" stroke="none" /><polygon fill="#ecc430" points="182.04296673337652,179.575 180.37925457750788,199.21 200.2563687884033,199.21" stroke="none" /><polygon fill="#ebc22b" points="182.04296673337652,179.575 163.7473932479186,179.575 180.37925457750788,199.21" stroke="none" /><polygon fill="#e8be27" points="163.7473932479186,179.575 159.61442894552295,199.21 180.37925457750788,199.21" stroke="none" /><polygon fill="#eec733" points="163.7473932479186,179.575 253,179.575 159.61442894552295,199.21" stroke="none" /><polygon fill="#f2ce40" points="253,179.575 254,199.21 159.61442894552295,199.21" stroke="none" /><polygon fill="#f8d951" points="253,179.575 255.0,179.575 254,199.21" stroke="none" /><polygon fill="#f8d84f" points="255.0,179.575 255.0,199.21 254,199.21" stroke="none" /><polygon fill="#f7d74d" points="255.0,179.575 287.44336022818686,179.575 255.0,199.21" stroke="none" /><polygon fill="#f5d246" points="287.44336022818686,179.575 286.14723844797743,199.21 255.0,199.21" stroke="none" /><polygon fill="#f2ce3f" points="287.44336022818686,179.575 312.5065119162072,179.575 286.14723844797743,199.21" stroke="none" /><polygon fill="#f0ca3a" points="312.5065119162072,179.575 311.74363121159666,199.21 286.14723844797743,199.21" stroke="none" /><polygon fill="#eec834" points="312.5065119162072,179.575 328.9570332666235,179.575 311.74363121159666,199.21" stroke="none" /><polygon fill="#ecc430" points="328.9570332666235,179.575 332.6207454224921,199.21 311.74363121159666,199.21" stroke="none" /><polygon fill="#ebc32c" points="328.9570332666235,179.575 345.2526067520814,179.575 332.6207454224921,199.21" stroke="none" /><polygon fill="#e8be27" points="345.2526067520814,179.575 353.38557105447705,199.21 332.6207454224921,199.21" stroke="none" /><polygon fill="#f5d346" points="254.0,199.21 221.85276155202257,199.21 257.0,217.69" stroke="none" /><polygon fill="#f3d040" points="221.85276155202257,199.21 225.85520694904608,217.69 257.0,217.69" stroke="none" /><polygon fill="#f0ca3a" points="221.85276155202257,199.21 200.2563687884033,199.21 225.85520694904608,217.69" stroke="none" /><polygon fill="#edc735" points="200.2563687884033,199.21 200.74551524377796,217.69 225.85520694904608,217.69" stroke="none" /><polygon fill="#ebc330" points="200.2563687884033,199.21 180.37925457750788,199.21 200.74551524377796,217.69" stroke="none" /><polygon fill="#e8c02c" points="180.37925457750788,199.21 176.65776187956345,217.69 200.74551524377796,217.69" stroke="none" /><polygon fill="#e7bd27" points="180.37925457750788,199.21 159.61442894552295,199.21 176.65776187956345,217.69" stroke="none" /><polygon fill="#e4ba24" points="159.61442894552295,199.21 155.56123317892752,217.69 176.65776187956345,217.69" stroke="none" /><polygon fill="#eac22f" points="159.61442894552295,199.21 254,199.21 155.56123317892752,217.69" stroke="none" /><polygon fill="#f0cb3a" points="254,199.21 255,217.69 155.56123317892752,217.69" stroke="none" /><polygon fill="#f7d64a" points="254,199.21 255.0,199.21 255,217.69" stroke="none" /><polygon fill="#f7d648" points="255.0,199.21 256.0,217.69 255,217.69" stroke="none" /><polygon fill="#f6d446" points="255.0,199.21 286.14723844797743,199.21 256.0,217.69" stroke="none" /><polygon fill="#f3d040" points="286.14723844797743,199.21 287.1447930509539,217.69 256.0,217.69" stroke="none" /><polygon fill="#f0ca3a" points="286.14723844797743,199.21 311.74363121159666,199.21 287.1447930509539,217.69" stroke="none" /><polygon fill="#edc735" points="311.74363121159666,199.21 312.25448475622204,217.69 287.1447930509539,217.69" stroke="none" /><polygon fill="#ebc330" points="311.74363121159666,199.21 332.6207454224921,199.21 312.25448475622204,217.69" stroke="none" /><polygon fill="#e8c02c" points="332.6207454224921,199.21 332.34223812043655,217.69 312.25448475622204,217.69" stroke="none" /><polygon fill="#e7bd28" points="332.6207454224921,199.21 353.38557105447705,199.21 332.34223812043655,217.69" stroke="none" /><polygon fill="#e4ba24" points="353.38557105447705,199.21 357.4387668210725,217.69 332.34223812043655,217.69" stroke="none" /><polygon fill="#f4d141" points="257.0,217.69 225.85520694904608,217.69 254.0,233.86" stroke="none" /><polygon fill="#f1cc3c" points="225.85520694904608,217.69 224.12188896351705,233.86 254.0,233.86" stroke="none" /><polygon fill="#edc836" points="225.85520694904608,217.69 200.74551524377796,217.69 224.12188896351705,233.86" stroke="none" /><polygon fill="#ebc332" points="200.74551524377796,217.69 196.2142290873936,233.86 224.12188896351705,233.86" stroke="none" /><polygon fill="#e8bf2c" points="200.74551524377796,217.69 176.65776187956345,217.69 196.2142290873936,233.86" stroke="none" /><polygon fill="#e5bb29" points="176.65776187956345,217.69 176.28810118649483,233.86 196.2142290873936,233.86" stroke="none" /><polygon fill="#e3b824" points="176.65776187956345,217.69 155.56123317892752,217.69 176.28810118649483,233.86" stroke="none" /><polygon fill="#e1b523" points="155.56123317892752,217.69 156.36936049550616,233.86 176.28810118649483,233.86" stroke="none" /><polygon fill="#e7be2b" points="155.56123317892752,217.69 255,217.69 156.36936049550616,233.86" stroke="none" /><polygon fill="#eec837" points="255,217.69 257,233.86 156.36936049550616,233.86" stroke="none" /><polygon fill="#f7d545" points="255,217.69 256.0,217.69 257,233.86" stroke="none" /><polygon fill="#f6d343" points="256.0,217.69 256.0,233.86 257,233.86" stroke="none" /><polygon fill="#f4d141" points="256.0,217.69 287.1447930509539,217.69 256.0,233.86" stroke="none" /><polygon fill="#f1cc3c" points="287.1447930509539,217.69 287.87811103648295,233.86 256.0,233.86" stroke="none" /><polygon fill="#edc736" points="287.1447930509539,217.69 312.25448475622204,217.69 287.87811103648295,233.86" stroke="none" /><polygon fill="#ebc332" points="312.25448475622204,217.69 310.78577091260644,233.86 287.87811103648295,233.86" stroke="none" /><polygon fill="#e8c02d" points="312.25448475622204,217.69 332.34223812043655,217.69 310.78577091260644,233.86" stroke="none" /><polygon fill="#e6bc2a" points="332.34223812043655,217.69 334.7118988135052,233.86 310.78577091260644,233.86" stroke="none" /><polygon fill="#e3b824" points="332.34223812043655,217.69 357.4387668210725,217.69 334.7118988135052,233.86" stroke="none" /><polygon fill="#e1b523" points="357.4387668210725,217.69 352.63063950449384,233.86 334.7118988135052,233.86" stroke="none" /><polygon fill="#f3cf3c" points="254.0,233.86 224.12188896351705,233.86 257.0,252.34" stroke="none" /><polygon fill="#f0ca37" points="224.12188896351705,233.86 227.24543350026244,252.34 257.0,252.34" stroke="none" /><polygon fill="#ebc432" points="224.12188896351705,233.86 196.2142290873936,233.86 227.24543350026244,252.34" stroke="none" /><polygon fill="#e8c02e" points="196.2142290873936,233.86 199.188943727734,252.34 227.24543350026244,252.34" stroke="none" /><polygon fill="#e4bb2a" points="196.2142290873936,233.86 176.28810118649483,233.86 199.188943727734,252.34" stroke="none" /><polygon fill="#e2b827" points="176.28810118649483,233.86 177.94375190971124,252.34 199.188943727734,252.34" stroke="none" /><polygon fill="#dfb423" points="176.28810118649483,233.86 156.36936049550616,233.86 177.94375190971124,252.34" stroke="none" /><polygon fill="#ddb121" points="156.36936049550616,233.86 161.7740409098862,252.34 177.94375190971124,252.34" stroke="none" /><polygon fill="#e5bc2a" points="156.36936049550616,233.86 257,233.86 161.7740409098862,252.34" stroke="none" /><polygon fill="#edc634" points="257,233.86 257,252.34 161.7740409098862,252.34" stroke="none" /><polygon fill="#f6d23f" points="257,233.86 256.0,233.86 257,252.34" stroke="none" /><polygon fill="#f5d13d" points="256.0,233.86 259.0,252.34 257,252.34" stroke="none" /><polygon fill="#f3ce3c" points="256.0,233.86 287.87811103648295,233.86 259.0,252.34" stroke="none" /><polygon fill="#efc936" points="287.87811103648295,233.86 287.75456649973756,252.34 259.0,252.34" stroke="none" /><polygon fill="#ecc532" points="287.87811103648295,233.86 310.78577091260644,233.86 287.75456649973756,252.34" stroke="none" /><polygon fill="#e9c12f" points="310.78577091260644,233.86 308.811056272266,252.34 287.75456649973756,252.34" stroke="none" /><polygon fill="#e5bd2b" points="310.78577091260644,233.86 334.7118988135052,233.86 308.811056272266,252.34" stroke="none" /><polygon fill="#e3b828" points="334.7118988135052,233.86 331.05624809028876,252.34 308.811056272266,252.34" stroke="none" /><polygon fill="#e0b524" points="334.7118988135052,233.86 352.63063950449384,233.86 331.05624809028876,252.34" stroke="none" /><polygon fill="#ddb121" points="352.63063950449384,233.86 354.2259590901138,252.34 331.05624809028876,252.34" stroke="none" /><polygon fill="#f3cd37" points="257.0,252.34 227.24543350026244,252.34 255.0,271.975" stroke="none" /><polygon fill="#eec731" points="227.24543350026244,252.34 223.72543717970598,271.975 255.0,271.975" stroke="none" /><polygon fill="#e9c12e" points="227.24543350026244,252.34 199.188943727734,252.34 223.72543717970598,271.975" stroke="none" /><polygon fill="#e6bc2a" points="199.188943727734,252.34 199.79016231584686,271.975 223.72543717970598,271.975" stroke="none" /><polygon fill="#e2b827" points="199.188943727734,252.34 177.94375190971124,252.34 199.79016231584686,271.975" stroke="none" /><polygon fill="#dfb424" points="177.94375190971124,252.34 184.44194242475956,271.975 199.79016231584686,271.975" stroke="none" /><polygon fill="#dcb122" points="177.94375190971124,252.34 161.7740409098862,252.34 184.44194242475956,271.975" stroke="none" /><polygon fill="#daae20" points="161.7740409098862,252.34 165.25890054456355,271.975 184.44194242475956,271.975" stroke="none" /><polygon fill="#e3b928" points="161.7740409098862,252.34 257,252.34 165.25890054456355,271.975" stroke="none" /><polygon fill="#ebc42f" points="257,252.34 257,271.975 165.25890054456355,271.975" stroke="none" /><polygon fill="#f5d039" points="257,252.34 259.0,252.34 257,271.975" stroke="none" /><polygon fill="#f4cf36" points="259.0,252.34 253.0,271.975 257,271.975" stroke="none" /><polygon fill="#f2cc36" points="259.0,252.34 287.75456649973756,252.34 253.0,271.975" stroke="none" /><polygon fill="#efc832" points="287.75456649973756,252.34 283.274562820294,271.975 253.0,271.975" stroke="none" /><polygon fill="#eac22f" points="287.75456649973756,252.34 308.811056272266,252.34 283.274562820294,271.975" stroke="none" /><polygon fill="#e7be2b" points="308.811056272266,252.34 308.2098376841532,271.975 283.274562820294,271.975" stroke="none" /><polygon fill="#e3b928" points="308.811056272266,252.34 331.05624809028876,252.34 308.2098376841532,271.975" stroke="none" /><polygon fill="#e0b525" points="331.05624809028876,252.34 329.55805757524047,271.975 308.2098376841532,271.975" stroke="none" /><polygon fill="#dcb122" points="331.05624809028876,252.34 354.2259590901138,252.34 329.55805757524047,271.975" stroke="none" /><polygon fill="#daad1f" points="354.2259590901138,252.34 346.7410994554365,271.975 329.55805757524047,271.975" stroke="none" /><polygon fill="#f1c930" points="255.0,271.975 223.72543717970598,271.975 256.0,291.61" stroke="none" /><polygon fill="#edc42c" points="223.72543717970598,271.975 230.3972033403812,291.61 256.0,291.61" stroke="none" /><polygon fill="#e8be2a" points="223.72543717970598,271.975 199.79016231584686,271.975 230.3972033403812,291.61" stroke="none" /><polygon fill="#e6bb28" points="199.79016231584686,271.975 215.75872102248817,291.61 230.3972033403812,291.61" stroke="none" /><polygon fill="#e1b726" points="199.79016231584686,271.975 184.44194242475956,271.975 215.75872102248817,291.61" stroke="none" /><polygon fill="#e1b524" points="184.44194242475956,271.975 200.84793516817376,291.61 215.75872102248817,291.61" stroke="none" /><polygon fill="#dcb022" points="184.44194242475956,271.975 165.25890054456355,271.975 200.84793516817376,291.61" stroke="none" /><polygon fill="#dbae20" points="165.25890054456355,271.975 182.4460707284279,291.61 200.84793516817376,291.61" stroke="none" /><polygon fill="#e2b726" points="165.25890054456355,271.975 257,271.975 182.4460707284279,291.61" stroke="none" /><polygon fill="#ebc32b" points="257,271.975 258,291.61 182.4460707284279,291.61" stroke="none" /><polygon fill="#f5ce33" points="257,271.975 253.0,271.975 258,291.61" stroke="none" /><polygon fill="#f3cc30" points="253.0,271.975 256.0,291.61 258,291.61" stroke="none" /><polygon fill="#f2ca31" points="253.0,271.975 283.274562820294,271.975 256.0,291.61" stroke="none" /><polygon fill="#eec62d" points="283.274562820294,271.975 277.6027966596188,291.61 256.0,291.61" stroke="none" /><polygon fill="#e9c02b" points="283.274562820294,271.975 308.2098376841532,271.975 277.6027966596188,291.61" stroke="none" /><polygon fill="#e6bc28" points="308.2098376841532,271.975 302.2412789775118,291.61 277.6027966596188,291.61" stroke="none" /><polygon fill="#e1b625" points="308.2098376841532,271.975 329.55805757524047,271.975 302.2412789775118,291.61" stroke="none" /><polygon fill="#dfb424" points="329.55805757524047,271.975 312.15206483182624,291.61 302.2412789775118,291.61" stroke="none" /><polygon fill="#dbb022" points="329.55805757524047,271.975 346.7410994554365,271.975 312.15206483182624,291.61" stroke="none" /><polygon fill="#daad20" points="346.7410994554365,271.975 332.5539292715721,291.61 312.15206483182624,291.61" stroke="none" /><polygon fill="#f0c82a" points="256.0,291.61 230.3972033403812,291.61 257.0,312.4" stroke="none" /><polygon fill="#eec529" points="230.3972033403812,291.61 238.52519924945,312.4 257.0,312.4" stroke="none" /><polygon fill="#e9bf27" points="230.3972033403812,291.61 215.75872102248817,291.61 238.52519924945,312.4" stroke="none" /><polygon fill="#e8be26" points="215.75872102248817,291.61 223.28671383236664,312.4 238.52519924945,312.4" stroke="none" /><polygon fill="#e4b924" points="215.75872102248817,291.61 200.84793516817376,291.61 223.28671383236664,312.4" stroke="none" /><polygon fill="#e3b924" points="200.84793516817376,291.61 214.69592549869998,312.4 223.28671383236664,312.4" stroke="none" /><polygon fill="#deb322" points="200.84793516817376,291.61 182.4460707284279,291.61 214.69592549869998,312.4" stroke="none" /><polygon fill="#dfb322" points="182.4460707284279,291.61 203.04605833166664,312.4 214.69592549869998,312.4" stroke="none" /><polygon fill="#e4b924" points="182.4460707284279,291.61 258,291.61 203.04605833166664,312.4" stroke="none" /><polygon fill="#edc428" points="258,291.61 254,312.4 203.04605833166664,312.4" stroke="none" /><polygon fill="#f4cc2c" points="258,291.61 256.0,291.61 254,312.4" stroke="none" /><polygon fill="#f3cb2b" points="256.0,291.61 255.0,312.4 254,312.4" stroke="none" /><polygon fill="#f1c82a" points="256.0,291.61 277.6027966596188,291.61 255.0,312.4" stroke="none" /><polygon fill="#eec629" points="277.6027966596188,291.61 275.47480075055,312.4 255.0,312.4" stroke="none" /><polygon fill="#e9bf26" points="277.6027966596188,291.61 302.2412789775118,291.61 275.47480075055,312.4" stroke="none" /><polygon fill="#e7bd26" points="302.2412789775118,291.61 289.7132861676333,312.4 275.47480075055,312.4" stroke="none" /><polygon fill="#e3b824" points="302.2412789775118,291.61 312.15206483182624,291.61 289.7132861676333,312.4" stroke="none" /><polygon fill="#e3b924" points="312.15206483182624,291.61 295.3040745013,312.4 289.7132861676333,312.4" stroke="none" /><polygon fill="#deb221" points="312.15206483182624,291.61 332.5539292715721,291.61 295.3040745013,312.4" stroke="none" /><polygon fill="#deb221" points="332.5539292715721,291.61 310.95394166833336,312.4 295.3040745013,312.4" stroke="none" /><polygon fill="#f1c92b" points="257.0,312.4 238.52519924945,312.4 256.0,335.5" stroke="none" /><polygon fill="#f1c82a" points="238.52519924945,312.4 252.8418,335.5 256.0,335.5" stroke="none" /><polygon fill="#edc428" points="238.52519924945,312.4 223.28671383236664,312.4 252.8418,335.5" stroke="none" /><polygon fill="#efc629" points="223.28671383236664,312.4 253.2068,335.5 252.8418,335.5" stroke="none" /><polygon fill="#eac027" points="223.28671383236664,312.4 214.69592549869998,312.4 253.2068,335.5" stroke="none" /><polygon fill="#edc429" points="214.69592549869998,312.4 251.8988,335.5 253.2068,335.5" stroke="none" /><polygon fill="#e7bd26" points="214.69592549869998,312.4 203.04605833166664,312.4 251.8988,335.5" stroke="none" /><polygon fill="#ebc228" points="203.04605833166664,312.4 248.46,335.5 251.8988,335.5" stroke="none" /><polygon fill="#ecc228" points="203.04605833166664,312.4 254,312.4 248.46,335.5" stroke="none" /><polygon fill="#f2ca2b" points="254,312.4 257,335.5 248.46,335.5" stroke="none" /><polygon fill="#f3cb2b" points="254,312.4 255.0,312.4 257,335.5" stroke="none" /><polygon fill="#f3cb2b" points="255.0,312.4 255.0,335.5 257,335.5" stroke="none" /><polygon fill="#f1c92a" points="255.0,312.4 275.47480075055,312.4 255.0,335.5" stroke="none" /><polygon fill="#f1c92a" points="275.47480075055,312.4 257.1582,335.5 255.0,335.5" stroke="none" /><polygon fill="#edc428" points="275.47480075055,312.4 289.7132861676333,312.4 257.1582,335.5" stroke="none" /><polygon fill="#efc629" points="289.7132861676333,312.4 259.7932,335.5 257.1582,335.5" stroke="none" /><polygon fill="#eac027" points="289.7132861676333,312.4 295.3040745013,312.4 259.7932,335.5" stroke="none" /><polygon fill="#edc429" points="295.3040745013,312.4 262.1012,335.5 259.7932,335.5" stroke="none" /><polygon fill="#e7bd26" points="295.3040745013,312.4 310.95394166833336,312.4 262.1012,335.5" stroke="none" /><polygon fill="#ebc228" points="310.95394166833336,312.4 261.54,335.5 262.1012,335.5" stroke="none" /><path d="M 229 204 A 15 28 0 0 0 229 232 Z" fill="#f4cc2c" stroke="#d2a41c" stroke-width="1" /><path d="M 283 204 A 15 28 0 0 1 283 232 Z" fill="#f4cc2c" stroke="#d2a41c" stroke-width="1" /><line stroke="#3a2a1a" stroke-width="3" x1="188" x2="220" y1="209" y2="212" /><line stroke="#3a2a1a" stroke-width="3" x1="224" x2="256" y1="212" y2="209" /><line stroke="#3a2a1a" stroke-width="3" x1="256" x2="288" y1="208" y2="211" /><line stroke="#3a2a1a" stroke-width="3" x1="292" x2="324" y1="211" y2="208" /><line stroke="#3a2a1a" stroke-width="5" x1="201" x2="243" y1="196" y2="196" /><line stroke="#3a2a1a" stroke-width="5" x1="267" x2="313" y1="197" y2="197" /><path d="M 195 229 A 11 7 0 0 0 217 229 Z" fill="#e88060" fill-opacity="0.26613070617177703" stroke="none" /><path d="M 296 228 A 11 7 0 0 0 318 228 Z" fill="#e88060" fill-opacity="0.2687739450371213" stroke="none" /><circle cx="256" cy="231" fill="#d2a41c" r="5" stroke="none" /><path d="M 227 247 Q 256 263 285 247" fill="none" stroke="#c06050" stroke-width="3" /><path d="M 225 245 Q 256 266 287 245" fill="none" stroke="#a04030" stroke-width="1.5" /><path d="M 225 248 Q 256 259 287 248" fill="none" stroke="#f0a0a0" stroke-width="1" /><path d="M 193 251 Q 200 244 207 251" fill="none" stroke="#d4c0a0" stroke-opacity="0.3" stroke-width="1" /><path d="M 194 263 Q 197 260 200 263" fill="none" stroke="#d4c0a0" stroke-opacity="0.3" stroke-width="1" /><path d="M 196 234 Q 199 231 202 234" fill="none" stroke="#d4c0a0" stroke-opacity="0.3" stroke-width="1" /><path d="M 297 238 Q 303 232 309 238" fill="none" stroke="#d4c0a0" stroke-opacity="0.3" stroke-width="1" /><path d="M 239 176 Q 245 170 251 176" fill="none" stroke="#d4c0a0" stroke-opacity="0.3" stroke-width="1" /><path d="M 219 191 Q 227 183 235 191" fill="none" stroke="#d4c0a0" stroke-opacity="0.3" stroke-width="1" /><path d="M 192 178 Q 196 174 200 178" fill="none" stroke="#d4c0a0" stroke-opacity="0.3" stroke-width="1" /><path d="M 298 265 Q 301 262 304 265" fill="none" stroke="#d4c0a0" stroke-opacity="0.3" stroke-width="1" /><path d="M 303 246 Q 306 243 309 246" fill="none" stroke="#d4c0a0" stroke-opacity="0.3" stroke-width="1" /><path d="M 245 260 Q 249 256 253 260" fill="none" stroke="#d4c0a0" stroke-opacity="0.3" stroke-width="1" /><polygon fill="#b69018" points="242,331.5 270,331.5 270,366.5 242,366.5" stroke="none" /></svg>