<?xml version="1.0" encoding="utf-8" ?>
<svg baseProfile="full" height="512" version="1.1" width="512" xmlns="http://www.w3.org/2000/svg" xmlns:ev="http://www.w3.org/2001/xml-events" xmlns:xlink="http://www.w3.org/1999/xlink"><defs /><polygon fill="#fadf5f" points="255.0,138.5 255.713,138.5 256.0,156.43" stroke="none" /><polygon fill="#fade5c" points="255.713,138.5 245.15939792808297,156.43 256.0,156.43" stroke="none" /><polygon fill="#fade5b" points="255.713,138.5 254.738,138.5 245.15939792808297,156.43" stroke="none" /><polygon fill="#f9dc55" points="254.738,138.5 236.18924484329733,156.43 245.15939792808297,156.43" stroke="none" /><polygon fill="#f9dd57" points="254.738,138.5 252.958,138.5 236.18924484329733,156.43" stroke="none" /><polygon fill="#f8d94f" points="252.958,138.5 228.0131223754688,156.43 236.18924484329733,156.43" stroke="none" /><polygon fill="#f9db54" points="252.958,138.5 251.1,138.5 228.0131223754688,156.43" stroke="none" /><polygon fill="#f8d749" points="251.1,138.5 222.11938766085746,156.43 228.0131223754688,156.43" stroke="none" /><polygon fill="#f9db53" points="251.1,138.5 257,138.5 222.11938766085746,156.43" stroke="none" /><polygon fill="#f9dc55" points="257,138.5 258,156.43 222.11938766085746,156.43" stroke="none" /><polygon fill="#fadf5f" points="257,138.5 256.0,138.5 258,156.43" stroke="none" /><polygon fill="#fadf5f" points="256.0,138.5 257.0,156.43 258,156.43" stroke="none" /><polygon fill="#fadf5f" points="256.0,138.5 257.287,138.5 257.0,156.43" stroke="none" /><polygon fill="#fade5b" points="257.287,138.5 266.84060207191703,156.43 257.0,156.43" stroke="none" /><polygon fill="#fade5b" points="257.287,138.5 258.262,138.5 266.84060207191703,156.43" stroke="none" /><polygon fill="#f9db54" points="258.262,138.5 276.81075515670267,156.43 266.84060207191703,156.43" stroke="none" /><polygon fill="#f9dc56" points="258.262,138.5 260.042,138.5 276.81075515670267,156.43" stroke="none" /><polygon fill="#f8d94e" points="260.042,138.5 282.9868776245312,156.43 276.81075515670267,156.43" stroke="none" /><polygon fill="#f9db54" points="260.042,138.5 260.9,138.5 282.9868776245312,156.43" stroke="none" /><polygon fill="#f8d84a" points="260.9,138.5 288.88061233914254,156.43 282.9868776245312,156.43" stroke="none" /><polygon fill="#fade5c" points="256.0,156.43 245.15939792808297,156.43 257.0,175.175" stroke="none" /><polygon fill="#f8da54" points="245.15939792808297,156.43 240.64206142438317,175.175 257.0,175.175" stroke="none" /><polygon fill="#f9da50" points="245.15939792808297,156.43 236.18924484329733,156.43 240.64206142438317,175.175" stroke="none" /><polygon fill="#f6d547" points="236.18924484329733,156.43 225.4921079580068,175.175 240.64206142438317,175.175" stroke="none" /><polygon fill="#f7d645" points="236.18924484329733,156.43 228.0131223754688,156.43 225.4921079580068,175.175" stroke="none" /><polygon fill="#f5d13c" points="228.0131223754688,156.43 213.9721451849057,175.175 225.4921079580068,175.175" stroke="none" /><polygon fill="#f6d33d" points="228.0131223754688,156.43 222.11938766085746,156.43 213.9721451849057,175.175" stroke="none" /><polygon fill="#f3cd34" points="222.11938766085746,156.43 205.4001861344945,175.175 213.9721451849057,175.175" stroke="none" /><polygon fill="#f7d544" points="222.11938766085746,156.43 258,156.43 205.4001861344945,175.175" stroke="none" /><polygon fill="#f7d74c" points="258,156.43 254,175.175 205.4001861344945,175.175" stroke="none" /><polygon fill="#fadf5f" points="258,156.43 257.0,156.43 254,175.175" stroke="none" /><polygon fill="#fade5d" points="257.0,156.43 257.0,175.175 254,175.175" stroke="none" /><polygon fill="#fade5b" points="257.0,156.43 266.84060207191703,156.43 257.0,175.175" stroke="none" /><polygon fill="#f8da53" points="266.84060207191703,156.43 272.3579385756168,175.175 257.0,175.175" stroke="none" /><polygon fill="#f8da50" points="266.84060207191703,156.43 276.81075515670267,156.43 272.3579385756168,175.175" stroke="none" /><polygon fill="#f6d547" points="276.81075515670267,156.43 285.5078920419932,175.175 272.3579385756168,175.175" stroke="none" /><polygon fill="#f7d646" points="276.81075515670267,156.43 282.9868776245312,156.43 285.5078920419932,175.175" stroke="none" /><polygon fill="#f5d13d" points="282.9868776245312,156.43 299.0278548150943,175.175 285.5078920419932,175.175" stroke="none" /><polygon fill="#f6d33d" points="282.9868776245312,156.43 288.88061233914254,156.43 299.0278548150943,175.175" stroke="none" /><polygon fill="#f3cd34" points="288.88061233914254,156.43 305.5998138655055,175.175 299.0278548150943,175.175" stroke="none" /><polygon fill="#f8d952" points="257.0,175.175 240.64206142438317,175.175 256.0,191.475" stroke="none" /><polygon fill="#f6d54b" points="240.64206142438317,175.175 236.94211188670744,191.475 256.0,191.475" stroke="none" /><polygon fill="#f4d243" points="240.64206142438317,175.175 225.4921079580068,175.175 236.94211188670744,191.475" stroke="none" /><polygon fill="#f3cf3d" points="225.4921079580068,175.175 224.50431786148582,191.475 236.94211188670744,191.475" stroke="none" /><polygon fill="#f1cd38" points="225.4921079580068,175.175 213.9721451849057,175.175 224.50431786148582,191.475" stroke="none" /><polygon fill="#f0c932" points="213.9721451849057,175.175 209.9540826413085,191.475 224.50431786148582,191.475" stroke="none" /><polygon fill="#efc82e" points="213.9721451849057,175.175 205.4001861344945,175.175 209.9540826413085,191.475" stroke="none" /><polygon fill="#edc327" points="205.4001861344945,175.175 196.2488238991135,191.475 209.9540826413085,191.475" stroke="none" /><polygon fill="#f1cc35" points="205.4001861344945,175.175 254,175.175 196.2488238991135,191.475" stroke="none" /><polygon fill="#f4d143" points="254,175.175 256,191.475 196.2488238991135,191.475" stroke="none" /><polygon fill="#f8db56" points="254,175.175 257.0,175.175 256,191.475" stroke="none" /><polygon fill="#f8da54" points="257.0,175.175 253.0,191.475 256,191.475" stroke="none" /><polygon fill="#f8d952" points="257.0,175.175 272.3579385756168,175.175 253.0,191.475" stroke="none" /><polygon fill="#f6d64c" points="272.3579385756168,175.175 272.05788811329256,191.475 253.0,191.475" stroke="none" /><polygon fill="#f4d344" points="272.3579385756168,175.175 285.5078920419932,175.175 272.05788811329256,191.475" stroke="none" /><polygon fill="#f2ce3d" points="285.5078920419932,175.175 292.49568213851416,191.475 272.05788811329256,191.475" stroke="none" /><polygon fill="#f1cc36" points="285.5078920419932,175.175 299.0278548150943,175.175 292.49568213851416,191.475" stroke="none" /><polygon fill="#f0c931" points="299.0278548150943,175.175 298.0459173586915,191.475 292.49568213851416,191.475" stroke="none" /><polygon fill="#efc82f" points="299.0278548150943,175.175 305.5998138655055,175.175 298.0459173586915,191.475" stroke="none" /><polygon fill="#eec52a" points="305.5998138655055,175.175 311.75117610088654,191.475 298.0459173586915,191.475" stroke="none" /><polygon fill="#f6d64a" points="256.0,191.475 236.94211188670744,191.475 254.0,205.33" stroke="none" /><polygon fill="#f4d243" points="236.94211188670744,191.475 238.05585697396927,205.33 254.0,205.33" stroke="none" /><polygon fill="#f2ce3d" points="236.94211188670744,191.475 224.50431786148582,191.475 238.05585697396927,205.33" stroke="none" /><polygon fill="#efcb38" points="224.50431786148582,191.475 223.70423346940055,205.33 238.05585697396927,205.33" stroke="none" /><polygon fill="#eec732" points="224.50431786148582,191.475 209.9540826413085,191.475 223.70423346940055,205.33" stroke="none" /><polygon fill="#ecc52e" points="209.9540826413085,191.475 214.22293466574553,205.33 223.70423346940055,205.33" stroke="none" /><polygon fill="#ebc128" points="209.9540826413085,191.475 196.2488238991135,191.475 214.22293466574553,205.33" stroke="none" /><polygon fill="#e8be24" points="196.2488238991135,191.475 197.59350598172506,205.33 214.22293466574553,205.33" stroke="none" /><polygon fill="#edc630" points="196.2488238991135,191.475 256,191.475 197.59350598172506,205.33" stroke="none" /><polygon fill="#f1ce3e" points="256,191.475 253,205.33 197.59350598172506,205.33" stroke="none" /><polygon fill="#f7d94e" points="256,191.475 253.0,191.475 253,205.33" stroke="none" /><polygon fill="#f7d74c" points="253.0,191.475 255.0,205.33 253,205.33" stroke="none" /><polygon fill="#f6d74c" points="253.0,191.475 272.05788811329256,191.475 255.0,205.33" stroke="none" /><polygon fill="#f4d345" points="272.05788811329256,191.475 273.94414302603076,205.33 255.0,205.33" stroke="none" /><polygon fill="#f1ce3d" points="272.05788811329256,191.475 292.49568213851416,191.475 273.94414302603076,205.33" stroke="none" /><polygon fill="#efca37" points="292.49568213851416,191.475 287.29576653059945,205.33 273.94414302603076,205.33" stroke="none" /><polygon fill="#eec732" points="292.49568213851416,191.475 298.0459173586915,191.475 287.29576653059945,205.33" stroke="none" /><polygon fill="#ecc42e" points="298.0459173586915,191.475 303.7770653342545,205.33 287.29576653059945,205.33" stroke="none" /><polygon fill="#ebc129" points="298.0459173586915,191.475 311.75117610088654,191.475 303.7770653342545,205.33" stroke="none" /><polygon fill="#e8be24" points="311.75117610088654,191.475 311.40649401827494,205.33 303.7770653342545,205.33" stroke="none" /><polygon fill="#f5d344" points="254.0,205.33 238.05585697396927,205.33 256.0,218.37" stroke="none" /><polygon fill="#f2d03e" points="238.05585697396927,205.33 236.21583046109356,218.37 256.0,218.37" stroke="none" /><polygon fill="#f0ca38" points="238.05585697396927,205.33 223.70423346940055,205.33 236.21583046109356,218.37" stroke="none" /><polygon fill="#ecc632" points="223.70423346940055,205.33 219.22782323464932,218.37 236.21583046109356,218.37" stroke="none" /><polygon fill="#ebc32f" points="223.70423346940055,205.33 214.22293466574553,205.33 219.22782323464932,218.37" stroke="none" /><polygon fill="#e8c02a" points="214.22293466574553,205.33 210.2374174534939,218.37 219.22782323464932,218.37" stroke="none" /><polygon fill="#e7bc26" points="214.22293466574553,205.33 197.59350598172506,205.33 210.2374174534939,218.37" stroke="none" /><polygon fill="#e4b922" points="197.59350598172506,205.33 195.04797109422296,218.37 210.2374174534939,218.37" stroke="none" /><polygon fill="#eac12c" points="197.59350598172506,205.33 253,205.33 195.04797109422296,218.37" stroke="none" /><polygon fill="#efca37" points="253,205.33 254,218.37 195.04797109422296,218.37" stroke="none" /><polygon fill="#f7d547" points="253,205.33 255.0,205.33 254,218.37" stroke="none" /><polygon fill="#f7d747" points="255.0,205.33 259.0,218.37 254,218.37" stroke="none" /><polygon fill="#f5d344" points="255.0,205.33 273.94414302603076,205.33 259.0,218.37" stroke="none" /><polygon fill="#f1ce3d" points="273.94414302603076,205.33 278.78416953890644,218.37 259.0,218.37" stroke="none" /><polygon fill="#f0ca38" points="273.94414302603076,205.33 287.29576653059945,205.33 278.78416953890644,218.37" stroke="none" /><polygon fill="#ecc632" points="287.29576653059945,205.33 292.7721767653507,218.37 278.78416953890644,218.37" stroke="none" /><polygon fill="#ebc22d" points="287.29576653059945,205.33 303.7770653342545,205.33 292.7721767653507,218.37" stroke="none" /><polygon fill="#e7be29" points="303.7770653342545,205.33 301.7625825465061,218.37 292.7721767653507,218.37" stroke="none" /><polygon fill="#e7bc26" points="303.7770653342545,205.33 311.40649401827494,205.33 301.7625825465061,218.37" stroke="none" /><polygon fill="#e4b922" points="311.40649401827494,205.33 314.95202890577707,218.37 301.7625825465061,218.37" stroke="none" /><polygon fill="#f4d03e" points="256.0,218.37 236.21583046109356,218.37 253.0,229.78" stroke="none" /><polygon fill="#f1cc39" points="236.21583046109356,218.37 238.32804714886962,229.78 253.0,229.78" stroke="none" /><polygon fill="#edc633" points="236.21583046109356,218.37 219.22782323464932,218.37 238.32804714886962,229.78" stroke="none" /><polygon fill="#eac12f" points="219.22782323464932,218.37 217.66747680710415,229.78 238.32804714886962,229.78" stroke="none" /><polygon fill="#e7bd29" points="219.22782323464932,218.37 210.2374174534939,218.37 217.66747680710415,229.78" stroke="none" /><polygon fill="#e4b926" points="210.2374174534939,218.37 207.1390205336918,229.78 217.66747680710415,229.78" stroke="none" /><polygon fill="#e2b722" points="210.2374174534939,218.37 195.04797109422296,218.37 207.1390205336918,229.78" stroke="none" /><polygon fill="#e1b421" points="195.04797109422296,218.37 190.3577186329382,229.78 207.1390205336918,229.78" stroke="none" /><polygon fill="#e6bc28" points="195.04797109422296,218.37 254,218.37 190.3577186329382,229.78" stroke="none" /><polygon fill="#eec734" points="254,218.37 259,229.78 190.3577186329382,229.78" stroke="none" /><polygon fill="#f6d442" points="254,218.37 259.0,218.37 259,229.78" stroke="none" /><polygon fill="#f6d240" points="259.0,218.37 257.0,229.78 259,229.78" stroke="none" /><polygon fill="#f3cf3d" points="259.0,218.37 278.78416953890644,218.37 257.0,229.78" stroke="none" /><polygon fill="#f1cb39" points="278.78416953890644,218.37 273.6719528511304,229.78 257.0,229.78" stroke="none" /><polygon fill="#edc632" points="278.78416953890644,218.37 292.7721767653507,218.37 273.6719528511304,229.78" stroke="none" /><polygon fill="#eac12e" points="292.7721767653507,218.37 295.33252319289585,229.78 273.6719528511304,229.78" stroke="none" /><polygon fill="#e7bd29" points="292.7721767653507,218.37 301.7625825465061,218.37 295.33252319289585,229.78" stroke="none" /><polygon fill="#e4b926" points="301.7625825465061,218.37 307.8609794663082,229.78 295.33252319289585,229.78" stroke="none" /><polygon fill="#e2b722" points="301.7625825465061,218.37 314.95202890577707,218.37 307.8609794663082,229.78" stroke="none" /><polygon fill="#e1b421" points="314.95202890577707,218.37 316.6422813670618,229.78 307.8609794663082,229.78" stroke="none" /><polygon fill="#f3cf3a" points="253.0,229.78 238.32804714886962,229.78 258.0,242.82" stroke="none" /><polygon fill="#f0ca35" points="238.32804714886962,229.78 237.52804954962244,242.82 258.0,242.82" stroke="none" /><polygon fill="#ebc330" points="238.32804714886962,229.78 217.66747680710415,229.78 237.52804954962244,242.82" stroke="none" /><polygon fill="#e8bf2c" points="217.66747680710415,229.78 223.53414769327583,242.82 237.52804954962244,242.82" stroke="none" /><polygon fill="#e4b927" points="217.66747680710415,229.78 207.1390205336918,229.78 223.53414769327583,242.82" stroke="none" /><polygon fill="#e2b725" points="207.1390205336918,229.78 211.3390262081985,242.82 223.53414769327583,242.82" stroke="none" /><polygon fill="#deb120" points="207.1390205336918,229.78 190.3577186329382,229.78 211.3390262081985,242.82" stroke="none" /><polygon fill="#ddb01f" points="190.3577186329382,229.78 202.02439257461347,242.82 211.3390262081985,242.82" stroke="none" /><polygon fill="#e4ba28" points="190.3577186329382,229.78 259,229.78 202.02439257461347,242.82" stroke="none" /><polygon fill="#edc632" points="259,229.78 254,242.82 202.02439257461347,242.82" stroke="none" /><polygon fill="#f5d23d" points="259,229.78 257.0,229.78 254,242.82" stroke="none" /><polygon fill="#f5d13b" points="257.0,229.78 255.0,242.82 254,242.82" stroke="none" /><polygon fill="#f3cf3a" points="257.0,229.78 273.6719528511304,229.78 255.0,242.82" stroke="none" /><polygon fill="#f0ca35" points="273.6719528511304,229.78 277.47195045037756,242.82 255.0,242.82" stroke="none" /><polygon fill="#eac22f" points="273.6719528511304,229.78 295.33252319289585,229.78 277.47195045037756,242.82" stroke="none" /><polygon fill="#e7be2a" points="295.33252319289585,229.78 290.4658523067242,242.82 277.47195045037756,242.82" stroke="none" /><polygon fill="#e3b826" points="295.33252319289585,229.78 307.8609794663082,229.78 290.4658523067242,242.82" stroke="none" /><polygon fill="#e2b724" points="307.8609794663082,229.78 298.6609737918015,242.82 290.4658523067242,242.82" stroke="none" /><polygon fill="#dfb221" points="307.8609794663082,229.78 316.6422813670618,229.78 298.6609737918015,242.82" stroke="none" /><polygon fill="#ddb01f" points="316.6422813670618,229.78 313.97560742538656,242.82 298.6609737918015,242.82" stroke="none" /><polygon fill="#f2cd35" points="258.0,242.82 237.52804954962244,242.82 256.0,256.675" stroke="none" /><polygon fill="#eec72f" points="237.52804954962244,242.82 237.11724283121836,256.675 256.0,256.675" stroke="none" /><polygon fill="#e9c12c" points="237.52804954962244,242.82 223.53414769327583,242.82 237.11724283121836,256.675" stroke="none" /><polygon fill="#e6bd28" points="223.53414769327583,242.82 224.56969952153528,256.675 237.11724283121836,256.675" stroke="none" /><polygon fill="#e2b826" points="223.53414769327583,242.82 211.3390262081985,242.82 224.56969952153528,256.675" stroke="none" /><polygon fill="#e0b423" points="211.3390262081985,242.82 211.73166487378884,256.675 224.56969952153528,256.675" stroke="none" /><polygon fill="#ddb021" points="211.3390262081985,242.82 202.02439257461347,242.82 211.73166487378884,256.675" stroke="none" /><polygon fill="#daad1e" points="202.02439257461347,242.82 202.80982676126774,256.675 211.73166487378884,256.675" stroke="none" /><polygon fill="#e2b826" points="202.02439257461347,242.82 254,242.82 202.80982676126774,256.675" stroke="none" /><polygon fill="#ecc42d" points="254,242.82 259,256.675 202.80982676126774,256.675" stroke="none" /><polygon fill="#f5d138" points="254,242.82 255.0,242.82 259,256.675" stroke="none" /><polygon fill="#f4cf34" points="255.0,242.82 255.0,256.675 259,256.675" stroke="none" /><polygon fill="#f1cc34" points="255.0,242.82 277.47195045037756,242.82 255.0,256.675" stroke="none" /><polygon fill="#eec72f" points="277.47195045037756,242.82 271.88275716878167,256.675 255.0,256.675" stroke="none" /><polygon fill="#e9c02c" points="277.47195045037756,242.82 290.4658523067242,242.82 271.88275716878167,256.675" stroke="none" /><polygon fill="#e7bd29" points="290.4658523067242,242.82 286.4303004784647,256.675 271.88275716878167,256.675" stroke="none" /><polygon fill="#e3b826" points="290.4658523067242,242.82 298.6609737918015,242.82 286.4303004784647,256.675" stroke="none" /><polygon fill="#e1b624" points="298.6609737918015,242.82 296.2683351262112,256.675 286.4303004784647,256.675" stroke="none" /><polygon fill="#ddb021" points="298.6609737918015,242.82 313.97560742538656,242.82 296.2683351262112,256.675" stroke="none" /><polygon fill="#daad1e" points="313.97560742538656,242.82 311.19017323873226,256.675 296.2683351262112,256.675" stroke="none" /><polygon fill="#f0c92e" points="256.0,256.675 237.11724283121836,256.675 255.0,270.53" stroke="none" /><polygon fill="#ecc42a" points="237.11724283121836,256.675 238.44220553265103,270.53 255.0,270.53" stroke="none" /><polygon fill="#e7bd28" points="237.11724283121836,256.675 224.56969952153528,256.675 238.44220553265103,270.53" stroke="none" /><polygon fill="#e6bb25" points="224.56969952153528,256.675 231.65599760284124,270.53 238.44220553265103,270.53" stroke="none" /><polygon fill="#e1b524" points="224.56969952153528,256.675 211.73166487378884,256.675 231.65599760284124,270.53" stroke="none" /><polygon fill="#e0b322" points="211.73166487378884,256.675 220.22703125899338,270.53 231.65599760284124,270.53" stroke="none" /><polygon fill="#dbae1f" points="211.73166487378884,256.675 202.80982676126774,256.675 220.22703125899338,270.53" stroke="none" /><polygon fill="#d9ac1e" points="202.80982676126774,256.675 207.85516828076072,270.53 220.22703125899338,270.53" stroke="none" /><polygon fill="#e1b624" points="202.80982676126774,256.675 259,256.675 207.85516828076072,270.53" stroke="none" /><polygon fill="#ebc129" points="259,256.675 255,270.53 207.85516828076072,270.53" stroke="none" /><polygon fill="#f3cd30" points="259,256.675 255.0,256.675 255,270.53" stroke="none" /><polygon fill="#f3cb2e" points="255.0,256.675 253.0,270.53 255,270.53" stroke="none" /><polygon fill="#f1cb2f" points="255.0,256.675 271.88275716878167,256.675 253.0,270.53" stroke="none" /><polygon fill="#eec52b" points="271.88275716878167,256.675 272.55779446734897,270.53 253.0,270.53" stroke="none" /><polygon fill="#e8be28" points="271.88275716878167,256.675 286.4303004784647,256.675 272.55779446734897,270.53" stroke="none" /><polygon fill="#e5ba25" points="286.4303004784647,256.675 284.34400239715876,270.53 272.55779446734897,270.53" stroke="none" /><polygon fill="#e1b624" points="286.4303004784647,256.675 296.2683351262112,256.675 284.34400239715876,270.53" stroke="none" /><polygon fill="#e0b422" points="296.2683351262112,256.675 289.77296874100665,270.53 284.34400239715876,270.53" stroke="none" /><polygon fill="#dcae20" points="296.2683351262112,256.675 311.19017323873226,256.675 289.77296874100665,270.53" stroke="none" /><polygon fill="#d9ac1e" points="311.19017323873226,256.675 304.1448317192393,270.53 289.77296874100665,270.53" stroke="none" /><polygon fill="#f0c728" points="255.0,270.53 238.44220553265103,270.53 257.0,285.2" stroke="none" /><polygon fill="#eec527" points="238.44220553265103,270.53 246.45699610121477,285.2 257.0,285.2" stroke="none" /><polygon fill="#e9be24" points="238.44220553265103,270.53 231.65599760284124,270.53 246.45699610121477,285.2" stroke="none" /><polygon fill="#e9be24" points="231.65599760284124,270.53 237.46987193546838,285.2 246.45699610121477,285.2" stroke="none" /><polygon fill="#e3b722" points="231.65599760284124,270.53 220.22703125899338,270.53 237.46987193546838,285.2" stroke="none" /><polygon fill="#e3b722" points="220.22703125899338,270.53 229.08017260287124,285.2 237.46987193546838,285.2" stroke="none" /><polygon fill="#dcaf1f" points="220.22703125899338,270.53 207.85516828076072,270.53 229.08017260287124,285.2" stroke="none" /><polygon fill="#ddb01f" points="207.85516828076072,270.53 225.05150333701442,285.2 229.08017260287124,285.2" stroke="none" /><polygon fill="#e3b722" points="207.85516828076072,270.53 255,270.53 225.05150333701442,285.2" stroke="none" /><polygon fill="#edc427" points="255,270.53 258,285.2 225.05150333701442,285.2" stroke="none" /><polygon fill="#f3cb29" points="255,270.53 253.0,270.53 258,285.2" stroke="none" /><polygon fill="#f4cc2a" points="253.0,270.53 257.0,285.2 258,285.2" stroke="none" /><polygon fill="#f0c828" points="253.0,270.53 272.55779446734897,270.53 257.0,285.2" stroke="none" /><polygon fill="#eec427" points="272.55779446734897,270.53 266.54300389878523,285.2 257.0,285.2" stroke="none" /><polygon fill="#e8bd24" points="272.55779446734897,270.53 284.34400239715876,270.53 266.54300389878523,285.2" stroke="none" /><polygon fill="#e8bd24" points="284.34400239715876,270.53 273.53012806453165,285.2 266.54300389878523,285.2" stroke="none" /><polygon fill="#e3b722" points="284.34400239715876,270.53 289.77296874100665,270.53 273.53012806453165,285.2" stroke="none" /><polygon fill="#e4b822" points="289.77296874100665,270.53 280.91982739712876,285.2 273.53012806453165,285.2" stroke="none" /><polygon fill="#ddb01f" points="289.77296874100665,270.53 304.1448317192393,270.53 280.91982739712876,285.2" stroke="none" /><polygon fill="#deb11f" points="304.1448317192393,270.53 285.9484966629856,285.2 280.91982739712876,285.2" stroke="none" /><polygon fill="#f2c929" points="257.0,285.2 246.45699610121477,285.2 256.0,301.5" stroke="none" /><polygon fill="#f1c928" points="246.45699610121477,285.2 254.713,301.5 256.0,301.5" stroke="none" /><polygon fill="#edc427" points="246.45699610121477,285.2 237.46987193546838,285.2 254.713,301.5" stroke="none" /><polygon fill="#efc627" points="237.46987193546838,285.2 253.738,301.5 254.713,301.5" stroke="none" /><polygon fill="#eabf25" points="237.46987193546838,285.2 229.08017260287124,285.2 253.738,301.5" stroke="none" /><polygon fill="#edc326" points="229.08017260287124,285.2 252.958,301.5 253.738,301.5" stroke="none" /><polygon fill="#e7bc24" points="229.08017260287124,285.2 225.05150333701442,285.2 252.958,301.5" stroke="none" /><polygon fill="#ecc226" points="225.05150333701442,285.2 253.1,301.5 252.958,301.5" stroke="none" /><polygon fill="#edc326" points="225.05150333701442,285.2 258,285.2 253.1,301.5" stroke="none" /><polygon fill="#f3cb29" points="258,285.2 255,301.5 253.1,301.5" stroke="none" /><polygon fill="#f3cb29" points="258,285.2 257.0,285.2 255,301.5" stroke="none" /><polygon fill="#f3cb29" points="257.0,285.2 257.0,301.5 255,301.5" stroke="none" /><polygon fill="#f1c828" points="257.0,285.2 266.54300389878523,285.2 257.0,301.5" stroke="none" /><polygon fill="#f1c828" points="266.54300389878523,285.2 256.287,301.5 257.0,301.5" stroke="none" /><polygon fill="#eec427" points="266.54300389878523,285.2 273.53012806453165,285.2 256.287,301.5" stroke="none" /><polygon fill="#efc627" points="273.53012806453165,285.2 259.262,301.5 256.287,301.5" stroke="none" /><polygon fill="#eac025" points="273.53012806453165,285.2 280.91982739712876,285.2 259.262,301.5" stroke="none" /><polygon fill="#edc326" points="280.91982739712876,285.2 259.042,301.5 259.262,301.5" stroke="none" /><polygon fill="#e7bd24" points="280.91982739712876,285.2 285.9484966629856,285.2 259.042,301.5" stroke="none" /><polygon fill="#ecc226" points="285.9484966629856,285.2 259.9,301.5 259.042,301.5" stroke="none" /><path d="M 240 209 A 9 20 0 0 0 240 229 Z" fill="#f4cc2a" stroke="#d2a21a" stroke-width="1" /><path d="M 272 209 A 9 20 0 0 1 272 229 Z" fill="#f4cc2a" stroke="#d2a21a" stroke-width="1" /><path d="M 217 214 Q 236 199 255 214 Q 236 229 217 214" fill="#e8e0d8" stroke="#3a2a1a" stroke-width="1.5" /><path d="M 231 216 A 5 5 0 0 0 241 216 Z" fill="#3a2a1a" stroke="none" /><circle cx="238" cy="213" fill="white" r="2" stroke="none" /><path d="M 215 214 Q 236 210 257 214" fill="none" stroke="#3a2a1a" stroke-width="3" /><line stroke="#3a2a1a" stroke-width="2" x1="227" x2="227" y1="213" y2="210" /><line stroke="#3a2a1a" stroke-width="2" x1="236" x2="236" y1="213" y2="210" /><line stroke="#3a2a1a" stroke-width="2" x1="245" x2="245" y1="213" y2="210" /><path d="M 257 214 Q 276 199 295 214 Q 276 229 257 214" fill="#e8e0d8" stroke="#3a2a1a" stroke-width="1.5" /><path d="M 271 216 A 5 5 0 0 0 281 216 Z" fill="#3a2a1a" stroke="none" /><circle cx="278" cy="213" fill="white" r="2" stroke="none" /><path d="M 255 214 Q 276 210 297 214" fill="none" stroke="#3a2a1a" stroke-width="3" /><path d="M 223 208 Q 236 200 249 208" fill="none" stroke="#3a2a1a" stroke-width="3" /><path d="M 263 208 Q 276 200 289 208" fill="none" stroke="#3a2a1a" stroke-width="3" /><path d="M 220 226 A 7 4 0 0 0 234 226 Z" fill="#e88060" fill-opacity="0.25" stroke="none" /><path d="M 278 226 A 7 4 0 0 0 292 226 Z" fill="#e88060" fill-opacity="0.25" stroke="none" /><polygon fill="#d2a21a" points="256,219 258,227 256,228 254,227" stroke="none" /><path d="M 239 237 Q 256 230 273 237 Q 256 244 239 237" fill="#c06050" stroke="#3a2a1a" stroke-width="1.5" /><line stroke="#3a2a1a" stroke-width="1.5" x1="241" x2="271" y1="237" y2="237" /><polygon fill="#b68e16" points="246,297.5 266,297.5 266,332.5 246,332.5" stroke="none" /></svg>