<?xml version="1.0" encoding="utf-8" ?>
<svg baseProfile="full" height="512" version="1.1" width="512" xmlns="http://www.w3.org/2000/svg" xmlns:ev="http://www.w3.org/2001/xml-events" xmlns:xlink="http://www.w3.org/1999/xlink"><defs /><polygon fill="#fbdd5f" points="256.0,153.5 237.1405,153.5 255.0,168.13" stroke="none" /><polygon fill="#fbdb5a" points="237.1405,153.5 241.29678040123997,168.13 255.0,168.13" stroke="none" /><polygon fill="#f9d84f" points="237.1405,153.5 223.853,153.5 241.29678040123997,168.13" stroke="none" /><polygon fill="#f9d64c" points="223.853,153.5 227.64282615975512,168.13 241.29678040123997,168.13" stroke="none" /><polygon fill="#f7d341" points="223.853,153.5 210.423,153.5 227.64282615975512,168.13" stroke="none" /><polygon fill="#f7d240" points="210.423,153.5 218.51966276656722,168.13 227.64282615975512,168.13" stroke="none" /><polygon fill="#f5cf36" points="210.423,153.5 198.85,153.5 218.51966276656722,168.13" stroke="none" /><polygon fill="#f5ce33" points="198.85,153.5 202.38418303406053,168.13 218.51966276656722,168.13" stroke="none" /><polygon fill="#f7d240" points="198.85,153.5 257,153.5 202.38418303406053,168.13" stroke="none" /><polygon fill="#fad954" points="257,153.5 256,168.13 202.38418303406053,168.13" stroke="none" /><polygon fill="#fde066" points="257,153.5 255.0,153.5 256,168.13" stroke="none" /><polygon fill="#fde066" points="255.0,153.5 257.0,168.13 256,168.13" stroke="none" /><polygon fill="#fcdd5f" points="255.0,153.5 274.8595,153.5 257.0,168.13" stroke="none" /><polygon fill="#fbdb5a" points="274.8595,153.5 270.70321959876003,168.13 257.0,168.13" stroke="none" /><polygon fill="#f9d74e" points="274.8595,153.5 290.147,153.5 270.70321959876003,168.13" stroke="none" /><polygon fill="#f8d64a" points="290.147,153.5 287.35717384024485,168.13 270.70321959876003,168.13" stroke="none" /><polygon fill="#f7d240" points="290.147,153.5 300.577,153.5 287.35717384024485,168.13" stroke="none" /><polygon fill="#f7d23e" points="300.577,153.5 295.4803372334328,168.13 287.35717384024485,168.13" stroke="none" /><polygon fill="#f5cf35" points="300.577,153.5 313.15,153.5 295.4803372334328,168.13" stroke="none" /><polygon fill="#f5ce33" points="313.15,153.5 306.6158169659395,168.13 295.4803372334328,168.13" stroke="none" /><polygon fill="#fcde60" points="255.0,168.13 241.29678040123997,168.13 255.0,183.425" stroke="none" /><polygon fill="#fada57" points="241.29678040123997,168.13 237.68087994564007,183.425 255.0,183.425" stroke="none" /><polygon fill="#f9d851" points="241.29678040123997,168.13 227.64282615975512,168.13 237.68087994564007,183.425" stroke="none" /><polygon fill="#f7d449" points="227.64282615975512,168.13 225.80275869233708,183.425 237.68087994564007,183.425" stroke="none" /><polygon fill="#f8d445" points="227.64282615975512,168.13 218.51966276656722,168.13 225.80275869233708,183.425" stroke="none" /><polygon fill="#f5d03e" points="218.51966276656722,168.13 213.7002616896947,183.425 225.80275869233708,183.425" stroke="none" /><polygon fill="#f6d038" points="218.51966276656722,168.13 202.38418303406053,168.13 213.7002616896947,183.425" stroke="none" /><polygon fill="#f3ca30" points="202.38418303406053,168.13 198.48751498678809,183.425 213.7002616896947,183.425" stroke="none" /><polygon fill="#f7d240" points="202.38418303406053,168.13 256,168.13 198.48751498678809,183.425" stroke="none" /><polygon fill="#f8d750" points="256,168.13 257,183.425 198.48751498678809,183.425" stroke="none" /><polygon fill="#fcdf65" points="256,168.13 257.0,168.13 257,183.425" stroke="none" /><polygon fill="#fbde61" points="257.0,168.13 259.0,183.425 257,183.425" stroke="none" /><polygon fill="#fcdd5f" points="257.0,168.13 270.70321959876003,168.13 259.0,183.425" stroke="none" /><polygon fill="#fada57" points="270.70321959876003,168.13 273.3191200543599,183.425 259.0,183.425" stroke="none" /><polygon fill="#f9d850" points="270.70321959876003,168.13 287.35717384024485,168.13 273.3191200543599,183.425" stroke="none" /><polygon fill="#f7d347" points="287.35717384024485,168.13 291.1972413076629,183.425 273.3191200543599,183.425" stroke="none" /><polygon fill="#f7d341" points="287.35717384024485,168.13 295.4803372334328,168.13 291.1972413076629,183.425" stroke="none" /><polygon fill="#f5cf3c" points="295.4803372334328,168.13 298.2997383103053,183.425 291.1972413076629,183.425" stroke="none" /><polygon fill="#f6d038" points="295.4803372334328,168.13 306.6158169659395,168.13 298.2997383103053,183.425" stroke="none" /><polygon fill="#f3cb32" points="306.6158169659395,168.13 310.5124850132119,183.425 298.2997383103053,183.425" stroke="none" /><polygon fill="#f9d956" points="255.0,183.425 237.68087994564007,183.425 254.0,196.725" stroke="none" /><polygon fill="#f7d64f" points="237.68087994564007,183.425 237.88807913963348,196.725 254.0,196.725" stroke="none" /><polygon fill="#f5d348" points="237.68087994564007,183.425 225.80275869233708,183.425 237.88807913963348,196.725" stroke="none" /><polygon fill="#f4d044" points="225.80275869233708,183.425 228.68207848784064,196.725 237.88807913963348,196.725" stroke="none" /><polygon fill="#f3ce3e" points="225.80275869233708,183.425 213.7002616896947,183.425 228.68207848784064,196.725" stroke="none" /><polygon fill="#f2cb3a" points="213.7002616896947,183.425 216.91727796640637,196.725 228.68207848784064,196.725" stroke="none" /><polygon fill="#f0c833" points="213.7002616896947,183.425 198.48751498678809,183.425 216.91727796640637,196.725" stroke="none" /><polygon fill="#efc630" points="198.48751498678809,183.425 208.1759973928287,196.725 216.91727796640637,196.725" stroke="none" /><polygon fill="#f3cd3d" points="198.48751498678809,183.425 257,183.425 208.1759973928287,196.725" stroke="none" /><polygon fill="#f7d54d" points="257,183.425 258,196.725 208.1759973928287,196.725" stroke="none" /><polygon fill="#fadc5b" points="257,183.425 259.0,183.425 258,196.725" stroke="none" /><polygon fill="#fada58" points="259.0,183.425 259.0,196.725 258,196.725" stroke="none" /><polygon fill="#f9d955" points="259.0,183.425 273.3191200543599,183.425 259.0,196.725" stroke="none" /><polygon fill="#f8d650" points="273.3191200543599,183.425 271.1119208603665,196.725 259.0,196.725" stroke="none" /><polygon fill="#f5d348" points="273.3191200543599,183.425 291.1972413076629,183.425 271.1119208603665,196.725" stroke="none" /><polygon fill="#f4cf43" points="291.1972413076629,183.425 286.3179215121594,196.725 271.1119208603665,196.725" stroke="none" /><polygon fill="#f2cd3c" points="291.1972413076629,183.425 298.2997383103053,183.425 286.3179215121594,196.725" stroke="none" /><polygon fill="#f1ca39" points="298.2997383103053,183.425 296.08272203359365,196.725 286.3179215121594,196.725" stroke="none" /><polygon fill="#f0c933" points="298.2997383103053,183.425 310.5124850132119,183.425 296.08272203359365,196.725" stroke="none" /><polygon fill="#efc630" points="310.5124850132119,183.425 303.82400260717134,196.725 296.08272203359365,196.725" stroke="none" /><polygon fill="#f8d650" points="254.0,196.725 237.88807913963348,196.725 255.0,208.03" stroke="none" /><polygon fill="#f6d34a" points="237.88807913963348,196.725 239.37445800323232,208.03 255.0,208.03" stroke="none" /><polygon fill="#f4d045" points="237.88807913963348,196.725 228.68207848784064,196.725 239.37445800323232,208.03" stroke="none" /><polygon fill="#f2cc3f" points="228.68207848784064,196.725 222.26419891477195,208.03 239.37445800323232,208.03" stroke="none" /><polygon fill="#f0ca3a" points="228.68207848784064,196.725 216.91727796640637,196.725 222.26419891477195,208.03" stroke="none" /><polygon fill="#eec635" points="216.91727796640637,196.725 212.97599164400364,208.03 222.26419891477195,208.03" stroke="none" /><polygon fill="#edc532" points="216.91727796640637,196.725 208.1759973928287,196.725 212.97599164400364,208.03" stroke="none" /><polygon fill="#ebc12d" points="208.1759973928287,196.725 201.55896364615853,208.03 212.97599164400364,208.03" stroke="none" /><polygon fill="#f0ca3a" points="208.1759973928287,196.725 258,196.725 201.55896364615853,208.03" stroke="none" /><polygon fill="#f4d046" points="258,196.725 257,208.03 201.55896364615853,208.03" stroke="none" /><polygon fill="#f9d954" points="258,196.725 259.0,196.725 257,208.03" stroke="none" /><polygon fill="#f9d853" points="259.0,196.725 254.0,208.03 257,208.03" stroke="none" /><polygon fill="#f8d751" points="259.0,196.725 271.1119208603665,196.725 254.0,208.03" stroke="none" /><polygon fill="#f6d34a" points="271.1119208603665,196.725 277.6255419967677,208.03 254.0,208.03" stroke="none" /><polygon fill="#f3cf43" points="271.1119208603665,196.725 286.3179215121594,196.725 277.6255419967677,208.03" stroke="none" /><polygon fill="#f1cb3d" points="286.3179215121594,196.725 287.73580108522805,208.03 277.6255419967677,208.03" stroke="none" /><polygon fill="#f0c93a" points="286.3179215121594,196.725 296.08272203359365,196.725 287.73580108522805,208.03" stroke="none" /><polygon fill="#eec635" points="296.08272203359365,196.725 299.02400835599633,208.03 287.73580108522805,208.03" stroke="none" /><polygon fill="#edc532" points="296.08272203359365,196.725 303.82400260717134,196.725 299.02400835599633,208.03" stroke="none" /><polygon fill="#eac02c" points="303.82400260717134,196.725 315.44103635384147,208.03 299.02400835599633,208.03" stroke="none" /><polygon fill="#f6d44a" points="255.0,208.03 239.37445800323232,208.03 253.0,218.67" stroke="none" /><polygon fill="#f4d043" points="239.37445800323232,208.03 236.35520655843757,218.67 253.0,218.67" stroke="none" /><polygon fill="#f1cb3e" points="239.37445800323232,208.03 222.26419891477195,208.03 236.35520655843757,218.67" stroke="none" /><polygon fill="#efc839" points="222.26419891477195,208.03 227.74551455725395,218.67 236.35520655843757,218.67" stroke="none" /><polygon fill="#edc535" points="222.26419891477195,208.03 212.97599164400364,208.03 227.74551455725395,218.67" stroke="none" /><polygon fill="#ebc333" points="212.97599164400364,208.03 216.65776095630702,218.67 227.74551455725395,218.67" stroke="none" /><polygon fill="#e9bf2e" points="212.97599164400364,208.03 201.55896364615853,208.03 216.65776095630702,218.67" stroke="none" /><polygon fill="#e7bd2b" points="201.55896364615853,208.03 207.56123199526542,218.67 216.65776095630702,218.67" stroke="none" /><polygon fill="#edc636" points="201.55896364615853,208.03 257,208.03 207.56123199526542,218.67" stroke="none" /><polygon fill="#f3ce42" points="257,208.03 258,218.67 207.56123199526542,218.67" stroke="none" /><polygon fill="#f8d74e" points="257,208.03 254.0,208.03 258,218.67" stroke="none" /><polygon fill="#f8d64c" points="254.0,208.03 253.0,218.67 258,218.67" stroke="none" /><polygon fill="#f7d54b" points="254.0,208.03 277.6255419967677,208.03 253.0,218.67" stroke="none" /><polygon fill="#f4d044" points="277.6255419967677,208.03 274.6447934415624,218.67 253.0,218.67" stroke="none" /><polygon fill="#f0cb3d" points="277.6255419967677,208.03 287.73580108522805,208.03 274.6447934415624,218.67" stroke="none" /><polygon fill="#efc93b" points="287.73580108522805,208.03 282.25448544274605,218.67 274.6447934415624,218.67" stroke="none" /><polygon fill="#edc636" points="287.73580108522805,208.03 299.02400835599633,208.03 282.25448544274605,218.67" stroke="none" /><polygon fill="#ebc333" points="299.02400835599633,208.03 295.342239043693,218.67 282.25448544274605,218.67" stroke="none" /><polygon fill="#e8be2d" points="299.02400835599633,208.03 315.44103635384147,208.03 295.342239043693,218.67" stroke="none" /><polygon fill="#e7bd2a" points="315.44103635384147,208.03 303.4387680047346,218.67 295.342239043693,218.67" stroke="none" /><polygon fill="#f5d144" points="253.0,218.67 236.35520655843757,218.67 256.0,227.98" stroke="none" /><polygon fill="#f2cd40" points="236.35520655843757,218.67 238.36260282716498,227.98 256.0,227.98" stroke="none" /><polygon fill="#efc93a" points="236.35520655843757,218.67 227.74551455725395,218.67 238.36260282716498,227.98" stroke="none" /><polygon fill="#edc537" points="227.74551455725395,218.67 224.75851405986572,227.98 238.36260282716498,227.98" stroke="none" /><polygon fill="#eac333" points="227.74551455725395,218.67 216.65776095630702,218.67 224.75851405986572,227.98" stroke="none" /><polygon fill="#e8bf31" points="216.65776095630702,218.67 216.6752430460263,227.98 224.75851405986572,227.98" stroke="none" /><polygon fill="#e7bd2d" points="216.65776095630702,218.67 207.56123199526542,218.67 216.6752430460263,227.98" stroke="none" /><polygon fill="#e4ba2b" points="207.56123199526542,218.67 206.58364493080296,227.98 216.6752430460263,227.98" stroke="none" /><polygon fill="#ebc334" points="207.56123199526542,218.67 258,218.67 206.58364493080296,227.98" stroke="none" /><polygon fill="#f1cc3e" points="258,218.67 259,227.98 206.58364493080296,227.98" stroke="none" /><polygon fill="#f7d548" points="258,218.67 253.0,218.67 259,227.98" stroke="none" /><polygon fill="#f8d548" points="253.0,218.67 256.0,227.98 259,227.98" stroke="none" /><polygon fill="#f5d345" points="253.0,218.67 274.6447934415624,218.67 256.0,227.98" stroke="none" /><polygon fill="#f3ce41" points="274.6447934415624,218.67 270.63739717283505,227.98 256.0,227.98" stroke="none" /><polygon fill="#f0ca3c" points="274.6447934415624,218.67 282.25448544274605,218.67 270.63739717283505,227.98" stroke="none" /><polygon fill="#eec739" points="282.25448544274605,218.67 285.2414859401343,227.98 270.63739717283505,227.98" stroke="none" /><polygon fill="#ebc434" points="282.25448544274605,218.67 295.342239043693,218.67 285.2414859401343,227.98" stroke="none" /><polygon fill="#e9bf31" points="295.342239043693,218.67 295.3247569539737,227.98 285.2414859401343,227.98" stroke="none" /><polygon fill="#e7be2d" points="295.342239043693,218.67 303.4387680047346,218.67 295.3247569539737,227.98" stroke="none" /><polygon fill="#e5ba2c" points="303.4387680047346,218.67 303.41635506919704,227.98 295.3247569539737,227.98" stroke="none" /><polygon fill="#f5d040" points="256.0,227.98 238.36260282716498,227.98 255.0,238.62" stroke="none" /><polygon fill="#f1cb3b" points="238.36260282716498,227.98 236.38994096119802,238.62 255.0,238.62" stroke="none" /><polygon fill="#edc637" points="238.36260282716498,227.98 224.75851405986572,227.98 236.38994096119802,238.62" stroke="none" /><polygon fill="#eac132" points="224.75851405986572,227.98 224.29141138634805,238.62 236.38994096119802,238.62" stroke="none" /><polygon fill="#e8bf30" points="224.75851405986572,227.98 216.6752430460263,227.98 224.29141138634805,238.62" stroke="none" /><polygon fill="#e5ba2c" points="216.6752430460263,227.98 211.01258772646804,238.62 224.29141138634805,238.62" stroke="none" /><polygon fill="#e3b92a" points="216.6752430460263,227.98 206.58364493080296,227.98 211.01258772646804,238.62" stroke="none" /><polygon fill="#e0b326" points="206.58364493080296,227.98 200.60588170060004,238.62 211.01258772646804,238.62" stroke="none" /><polygon fill="#e8bf30" points="206.58364493080296,227.98 259,227.98 200.60588170060004,238.62" stroke="none" /><polygon fill="#eec738" points="259,227.98 254,238.62 200.60588170060004,238.62" stroke="none" /><polygon fill="#f7d343" points="259,227.98 256.0,227.98 254,238.62" stroke="none" /><polygon fill="#f6d241" points="256.0,227.98 256.0,238.62 254,238.62" stroke="none" /><polygon fill="#f5d141" points="256.0,227.98 270.63739717283505,227.98 256.0,238.62" stroke="none" /><polygon fill="#f1cb3b" points="270.63739717283505,227.98 277.610059038802,238.62 256.0,238.62" stroke="none" /><polygon fill="#eec637" points="270.63739717283505,227.98 285.2414859401343,227.98 277.610059038802,238.62" stroke="none" /><polygon fill="#eac132" points="285.2414859401343,227.98 289.70858861365195,238.62 277.610059038802,238.62" stroke="none" /><polygon fill="#e8bf30" points="285.2414859401343,227.98 295.3247569539737,227.98 289.70858861365195,238.62" stroke="none" /><polygon fill="#e5bb2d" points="295.3247569539737,227.98 296.98741227353196,238.62 289.70858861365195,238.62" stroke="none" /><polygon fill="#e4ba2b" points="295.3247569539737,227.98 303.41635506919704,227.98 296.98741227353196,238.62" stroke="none" /><polygon fill="#e1b427" points="303.41635506919704,227.98 312.39411829939996,238.62 296.98741227353196,238.62" stroke="none" /><polygon fill="#f3cc3a" points="255.0,238.62 236.38994096119802,238.62 255.0,249.925" stroke="none" /><polygon fill="#efc734" points="236.38994096119802,238.62 235.99235627528958,249.925 255.0,249.925" stroke="none" /><polygon fill="#eac132" points="236.38994096119802,238.62 224.29141138634805,238.62 235.99235627528958,249.925" stroke="none" /><polygon fill="#e8be2e" points="224.29141138634805,238.62 227.10777769596353,249.925 235.99235627528958,249.925" stroke="none" /><polygon fill="#e5ba2c" points="224.29141138634805,238.62 211.01258772646804,238.62 227.10777769596353,249.925" stroke="none" /><polygon fill="#e3b72a" points="211.01258772646804,238.62 218.8001148325027,249.925 227.10777769596353,249.925" stroke="none" /><polygon fill="#dfb327" points="211.01258772646804,238.62 200.60588170060004,238.62 218.8001148325027,249.925" stroke="none" /><polygon fill="#ddb025" points="200.60588170060004,238.62 205.46168568269576,249.925 218.8001148325027,249.925" stroke="none" /><polygon fill="#e4b92c" points="200.60588170060004,238.62 254,238.62 205.46168568269576,249.925" stroke="none" /><polygon fill="#edc533" points="254,238.62 256,249.925 205.46168568269576,249.925" stroke="none" /><polygon fill="#f6d03d" points="254,238.62 256.0,238.62 256,249.925" stroke="none" /><polygon fill="#f5d03a" points="256.0,238.62 259.0,249.925 256,249.925" stroke="none" /><polygon fill="#f2cb39" points="256.0,238.62 277.610059038802,238.62 259.0,249.925" stroke="none" /><polygon fill="#eec634" points="277.610059038802,238.62 276.0076437247104,249.925 259.0,249.925" stroke="none" /><polygon fill="#eac031" points="277.610059038802,238.62 289.70858861365195,238.62 276.0076437247104,249.925" stroke="none" /><polygon fill="#e7be2e" points="289.70858861365195,238.62 285.89222230403647,249.925 276.0076437247104,249.925" stroke="none" /><polygon fill="#e5ba2c" points="289.70858861365195,238.62 296.98741227353196,238.62 285.89222230403647,249.925" stroke="none" /><polygon fill="#e2b729" points="296.98741227353196,238.62 298.1998851674973,249.925 285.89222230403647,249.925" stroke="none" /><polygon fill="#dfb327" points="296.98741227353196,238.62 312.39411829939996,238.62 298.1998851674973,249.925" stroke="none" /><polygon fill="#dcaf24" points="312.39411829939996,238.62 304.53831431730424,249.925 298.1998851674973,249.925" stroke="none" /><polygon fill="#f1c933" points="255.0,249.925 235.99235627528958,249.925 254.0,261.23" stroke="none" /><polygon fill="#edc42f" points="235.99235627528958,249.925 237.08983306022395,261.23 254.0,261.23" stroke="none" /><polygon fill="#e9bf2e" points="235.99235627528958,249.925 227.10777769596353,249.925 237.08983306022395,261.23" stroke="none" /><polygon fill="#e7bc2b" points="227.10777769596353,249.925 230.03667628766635,261.23 237.08983306022395,261.23" stroke="none" /><polygon fill="#e4b92a" points="227.10777769596353,249.925 218.8001148325027,249.925 230.03667628766635,261.23" stroke="none" /><polygon fill="#e1b528" points="218.8001148325027,249.925 216.39415086962026,261.23 230.03667628766635,261.23" stroke="none" /><polygon fill="#ddb126" points="218.8001148325027,249.925 205.46168568269576,249.925 216.39415086962026,261.23" stroke="none" /><polygon fill="#dbad23" points="205.46168568269576,249.925 209.78737290976954,261.23 216.39415086962026,261.23" stroke="none" /><polygon fill="#e3b82a" points="205.46168568269576,249.925 256,249.925 209.78737290976954,261.23" stroke="none" /><polygon fill="#ebc22e" points="256,249.925 254,261.23 209.78737290976954,261.23" stroke="none" /><polygon fill="#f5ce36" points="256,249.925 259.0,249.925 254,261.23" stroke="none" /><polygon fill="#f5ce35" points="259.0,249.925 255.0,261.23 254,261.23" stroke="none" /><polygon fill="#f1c934" points="259.0,249.925 276.0076437247104,249.925 255.0,261.23" stroke="none" /><polygon fill="#eec630" points="276.0076437247104,249.925 268.91016693977605,261.23 255.0,261.23" stroke="none" /><polygon fill="#eac02e" points="276.0076437247104,249.925 285.89222230403647,249.925 268.91016693977605,261.23" stroke="none" /><polygon fill="#e7bc2b" points="285.89222230403647,249.925 285.96332371233365,261.23 268.91016693977605,261.23" stroke="none" /><polygon fill="#e2b729" points="285.89222230403647,249.925 298.1998851674973,249.925 285.96332371233365,261.23" stroke="none" /><polygon fill="#dfb326" points="298.1998851674973,249.925 296.60584913037974,261.23 285.96332371233365,261.23" stroke="none" /><polygon fill="#ddb025" points="298.1998851674973,249.925 304.53831431730424,249.925 296.60584913037974,261.23" stroke="none" /><polygon fill="#dbad24" points="304.53831431730424,249.925 301.21262709023046,261.23 296.60584913037974,261.23" stroke="none" /><polygon fill="#f0c72d" points="254.0,261.23 237.08983306022395,261.23 255.0,273.2" stroke="none" /><polygon fill="#eec52c" points="237.08983306022395,261.23 244.4294037549933,273.2 255.0,273.2" stroke="none" /><polygon fill="#e9be2a" points="237.08983306022395,261.23 230.03667628766635,261.23 244.4294037549933,273.2" stroke="none" /><polygon fill="#e8be2a" points="230.03667628766635,261.23 234.9062247815034,273.2 244.4294037549933,273.2" stroke="none" /><polygon fill="#e2b727" points="230.03667628766635,261.23 216.39415086962026,261.23 234.9062247815034,273.2" stroke="none" /><polygon fill="#e2b626" points="216.39415086962026,261.23 227.28768160271147,273.2 234.9062247815034,273.2" stroke="none" /><polygon fill="#ddb024" points="216.39415086962026,261.23 209.78737290976954,261.23 227.28768160271147,273.2" stroke="none" /><polygon fill="#ddb024" points="209.78737290976954,261.23 218.90728410604035,273.2 227.28768160271147,273.2" stroke="none" /><polygon fill="#e3b727" points="209.78737290976954,261.23 254,261.23 218.90728410604035,273.2" stroke="none" /><polygon fill="#edc32c" points="254,261.23 257,273.2 218.90728410604035,273.2" stroke="none" /><polygon fill="#f4cc2f" points="254,261.23 255.0,261.23 257,273.2" stroke="none" /><polygon fill="#f5cd30" points="255.0,261.23 256.0,273.2 257,273.2" stroke="none" /><polygon fill="#f2c92e" points="255.0,261.23 268.91016693977605,261.23 256.0,273.2" stroke="none" /><polygon fill="#efc62d" points="268.91016693977605,261.23 268.5705962450067,273.2 256.0,273.2" stroke="none" /><polygon fill="#e9bf2a" points="268.91016693977605,261.23 285.96332371233365,261.23 268.5705962450067,273.2" stroke="none" /><polygon fill="#e7bc29" points="285.96332371233365,261.23 277.0937752184966,273.2 268.5705962450067,273.2" stroke="none" /><polygon fill="#e1b526" points="285.96332371233365,261.23 296.60584913037974,261.23 277.0937752184966,273.2" stroke="none" /><polygon fill="#e1b526" points="296.60584913037974,261.23 287.7123183972885,273.2 277.0937752184966,273.2" stroke="none" /><polygon fill="#dcaf24" points="296.60584913037974,261.23 301.21262709023046,261.23 287.7123183972885,273.2" stroke="none" /><polygon fill="#ddb024" points="301.21262709023046,261.23 293.0927158939597,273.2 287.7123183972885,273.2" stroke="none" /><polygon fill="#f2c92e" points="255.0,273.2 244.4294037549933,273.2 256.0,286.5" stroke="none" /><polygon fill="#f0c72d" points="244.4294037549933,273.2 245.2652,286.5 256.0,286.5" stroke="none" /><polygon fill="#ebc22b" points="244.4294037549933,273.2 234.9062247815034,273.2 245.2652,286.5" stroke="none" /><polygon fill="#e9bf2a" points="234.9062247815034,273.2 234.3752,286.5 245.2652,286.5" stroke="none" /><polygon fill="#e6bb28" points="234.9062247815034,273.2 227.28768160271147,273.2 234.3752,286.5" stroke="none" /><polygon fill="#e4b928" points="227.28768160271147,273.2 229.2632,286.5 234.3752,286.5" stroke="none" /><polygon fill="#e1b526" points="227.28768160271147,273.2 218.90728410604035,273.2 229.2632,286.5" stroke="none" /><polygon fill="#e0b426" points="218.90728410604035,273.2 221.44,286.5 229.2632,286.5" stroke="none" /><polygon fill="#e6bb28" points="218.90728410604035,273.2 257,273.2 221.44,286.5" stroke="none" /><polygon fill="#eec42c" points="257,273.2 256,286.5 221.44,286.5" stroke="none" /><polygon fill="#f4cc2f" points="257,273.2 256.0,273.2 256,286.5" stroke="none" /><polygon fill="#f4cc2f" points="256.0,273.2 255.0,286.5 256,286.5" stroke="none" /><polygon fill="#f2ca2e" points="256.0,273.2 268.5705962450067,273.2 255.0,286.5" stroke="none" /><polygon fill="#f0c72d" points="268.5705962450067,273.2 267.7348,286.5 255.0,286.5" stroke="none" /><polygon fill="#ebc12b" points="268.5705962450067,273.2 277.0937752184966,273.2 267.7348,286.5" stroke="none" /><polygon fill="#e9bf2a" points="277.0937752184966,273.2 276.6248,286.5 267.7348,286.5" stroke="none" /><polygon fill="#e5ba28" points="277.0937752184966,273.2 287.7123183972885,273.2 276.6248,286.5" stroke="none" /><polygon fill="#e4b827" points="287.7123183972885,273.2 283.7368,286.5 276.6248,286.5" stroke="none" /><polygon fill="#e0b426" points="287.7123183972885,273.2 293.0927158939597,273.2 283.7368,286.5" stroke="none" /><polygon fill="#e0b325" points="293.0927158939597,273.2 291.56,286.5 283.7368,286.5" stroke="none" /><path d="M 242 211 A 4 16 0 0 0 242 227 Z" fill="#f5cd30" stroke="#d4a520" stroke-width="1" /><path d="M 270 211 A 4 16 0 0 1 270 227 Z" fill="#f5cd30" stroke="#d4a520" stroke-width="1" /><path d="M 217 214 Q 236 200 255 214 Q 236 228 217 214" fill="#e8e0d8" stroke="#3a2a1a" stroke-width="1.5" /><path d="M 231 216 A 5 5 0 0 0 241 216 Z" fill="#3a2a1a" stroke="none" /><circle cx="238" cy="213" fill="white" r="2" stroke="none" /><path d="M 215 214 Q 236 210 257 214" fill="none" stroke="#3a2a1a" stroke-width="3" /><path d="M 257 215 Q 276 201 295 215 Q 276 229 257 215" fill="#e8e0d8" stroke="#3a2a1a" stroke-width="1.5" /><path d="M 271 217 A 5 5 0 0 0 281 217 Z" fill="#3a2a1a" stroke="none" /><circle cx="278" cy="214" fill="white" r="2" stroke="none" /><path d="M 255 215 Q 276 211 297 215" fill="none" stroke="#3a2a1a" stroke-width="3" /><line stroke="#3a2a1a" stroke-width="2" x1="226" x2="246" y1="207" y2="207" /><line stroke="#3a2a1a" stroke-width="2" x1="262" x2="290" y1="209" y2="209" /><path d="M 223 226 A 6 4 0 0 0 235 226 Z" fill="#e88060" fill-opacity="0.24432782118449117" stroke="none" /><path d="M 277 224 A 8 5 0 0 0 293 224 Z" fill="#e88060" fill-opacity="0.2304138128025602" stroke="none" /><path d="M 240 234 Q 256 242 272 234" fill="none" stroke="#c06050" stroke-width="3" /><path d="M 238 232 Q 256 244 274 232" fill="none" stroke="#a04030" stroke-width="1.5" /><path d="M 238 234 Q 256 240 274 234" fill="none" stroke="#f0a0a0" stroke-width="1" /><ellipse cx="244" cy="197" fill="white" fill-opacity="0.18" rx="8" ry="5" stroke="none" /><ellipse cx="268" cy="197" fill="white" fill-opacity="0.18" rx="8" ry="5" stroke="none" /><ellipse cx="256" cy="187" fill="white" fill-opacity="0.18" rx="8" ry="5" stroke="none" /><ellipse cx="234" cy="223" fill="white" fill-opacity="0.18" rx="8" ry="5" stroke="none" /><ellipse cx="278" cy="223" fill="white" fill-opacity="0.18" rx="8" ry="5" stroke="none" /><ellipse cx="247" cy="229" fill="white" fill-opacity="0.18" rx="8" ry="5" stroke="none" /><ellipse cx="265" cy="229" fill="white" fill-opacity="0.18" rx="8" ry="5" stroke="none" /><ellipse cx="256" cy="211" fill="white" fill-opacity="0.12" rx="3" ry="15" stroke="none" /><polygon fill="#b8911a" points="237,282.5 275,282.5 275,317.5 237,317.5" stroke="none" /></svg>