<?xml version="1.0" encoding="utf-8" ?>
<svg baseProfile="full" height="512" version="1.1" width="512" xmlns="http://www.w3.org/2000/svg" xmlns:ev="http://www.w3.org/2001/xml-events" xmlns:xlink="http://www.w3.org/1999/xlink"><defs /><polygon fill="#fdde65" points="257.0,148.5 238.7345,148.5 258.0,164.23" stroke="none" /><polygon fill="#fcdb5e" points="238.7345,148.5 236.21056988391936,164.23 258.0,164.23" stroke="none" /><polygon fill="#fad753" points="238.7345,148.5 223.897,148.5 236.21056988391936,164.23" stroke="none" /><polygon fill="#f9d64e" points="223.897,148.5 223.7337288868886,164.23 236.21056988391936,164.23" stroke="none" /><polygon fill="#f8d347" points="223.897,148.5 213.827,148.5 223.7337288868886,164.23" stroke="none" /><polygon fill="#f7d243" points="213.827,148.5 212.95225608926398,164.23 223.7337288868886,164.23" stroke="none" /><polygon fill="#f6cf3c" points="213.827,148.5 201.65,148.5 212.95225608926398,164.23" stroke="none" /><polygon fill="#f6ce39" points="201.65,148.5 205.0926360118769,164.23 212.95225608926398,164.23" stroke="none" /><polygon fill="#f8d347" points="201.65,148.5 256,148.5 205.0926360118769,164.23" stroke="none" /><polygon fill="#fbda59" points="256,148.5 256,164.23 205.0926360118769,164.23" stroke="none" /><polygon fill="#fddf69" points="256,148.5 255.0,148.5 256,164.23" stroke="none" /><polygon fill="#fddf69" points="255.0,148.5 254.0,164.23 256,164.23" stroke="none" /><polygon fill="#fdde65" points="255.0,148.5 273.2655,148.5 254.0,164.23" stroke="none" /><polygon fill="#fcdc5f" points="273.2655,148.5 272.7894301160806,164.23 254.0,164.23" stroke="none" /><polygon fill="#fad854" points="273.2655,148.5 288.103,148.5 272.7894301160806,164.23" stroke="none" /><polygon fill="#f9d650" points="288.103,148.5 284.26627111311143,164.23 272.7894301160806,164.23" stroke="none" /><polygon fill="#f8d348" points="288.103,148.5 298.173,148.5 284.26627111311143,164.23" stroke="none" /><polygon fill="#f8d245" points="298.173,148.5 299.047743910736,164.23 284.26627111311143,164.23" stroke="none" /><polygon fill="#f6cf3c" points="298.173,148.5 311.35,148.5 299.047743910736,164.23" stroke="none" /><polygon fill="#f6ce38" points="311.35,148.5 311.9073639881231,164.23 299.047743910736,164.23" stroke="none" /><polygon fill="#fddd63" points="258.0,164.23 236.21056988391936,164.23 255.0,180.675" stroke="none" /><polygon fill="#fbda5c" points="236.21056988391936,164.23 243.39531302792577,180.675 255.0,180.675" stroke="none" /><polygon fill="#fad854" points="236.21056988391936,164.23 223.7337288868886,164.23 243.39531302792577,180.675" stroke="none" /><polygon fill="#f8d651" points="223.7337288868886,164.23 231.57358047332406,180.675 243.39531302792577,180.675" stroke="none" /><polygon fill="#f8d449" points="223.7337288868886,164.23 212.95225608926398,164.23 231.57358047332406,180.675" stroke="none" /><polygon fill="#f6d145" points="212.95225608926398,164.23 216.11619442964272,180.675 231.57358047332406,180.675" stroke="none" /><polygon fill="#f7d03e" points="212.95225608926398,164.23 205.0926360118769,164.23 216.11619442964272,180.675" stroke="none" /><polygon fill="#f4ce3c" points="205.0926360118769,164.23 209.71306978159322,180.675 216.11619442964272,180.675" stroke="none" /><polygon fill="#f8d44a" points="205.0926360118769,164.23 256,164.23 209.71306978159322,180.675" stroke="none" /><polygon fill="#fad958" points="256,164.23 256,180.675 209.71306978159322,180.675" stroke="none" /><polygon fill="#fddf69" points="256,164.23 254.0,164.23 256,180.675" stroke="none" /><polygon fill="#fcde65" points="254.0,164.23 253.0,180.675 256,180.675" stroke="none" /><polygon fill="#fdde66" points="254.0,164.23 272.7894301160806,164.23 253.0,180.675" stroke="none" /><polygon fill="#fbdb5d" points="272.7894301160806,164.23 271.60468697207426,180.675 253.0,180.675" stroke="none" /><polygon fill="#fad856" points="272.7894301160806,164.23 284.26627111311143,164.23 271.60468697207426,180.675" stroke="none" /><polygon fill="#f8d650" points="284.26627111311143,164.23 283.42641952667594,180.675 271.60468697207426,180.675" stroke="none" /><polygon fill="#f8d449" points="284.26627111311143,164.23 299.047743910736,164.23 283.42641952667594,180.675" stroke="none" /><polygon fill="#f6d145" points="299.047743910736,164.23 293.8838055703573,180.675 283.42641952667594,180.675" stroke="none" /><polygon fill="#f6cf3d" points="299.047743910736,164.23 311.9073639881231,164.23 293.8838055703573,180.675" stroke="none" /><polygon fill="#f4cd3a" points="311.9073639881231,164.23 304.2869302184068,180.675 293.8838055703573,180.675" stroke="none" /><polygon fill="#fada5d" points="255.0,180.675 243.39531302792577,180.675 254.0,194.975" stroke="none" /><polygon fill="#f9d756" points="243.39531302792577,180.675 240.11997666944805,194.975 254.0,194.975" stroke="none" /><polygon fill="#f8d552" points="243.39531302792577,180.675 231.57358047332406,180.675 240.11997666944805,194.975" stroke="none" /><polygon fill="#f5d14a" points="231.57358047332406,180.675 224.57450444933295,194.975 240.11997666944805,194.975" stroke="none" /><polygon fill="#f5cf45" points="231.57358047332406,180.675 216.11619442964272,180.675 224.57450444933295,194.975" stroke="none" /><polygon fill="#f2cb3e" points="216.11619442964272,180.675 210.73812667324086,194.975 224.57450444933295,194.975" stroke="none" /><polygon fill="#f2cb3b" points="216.11619442964272,180.675 209.71306978159322,180.675 210.73812667324086,194.975" stroke="none" /><polygon fill="#efc635" points="209.71306978159322,180.675 198.81811111953957,194.975 210.73812667324086,194.975" stroke="none" /><polygon fill="#f4ce43" points="209.71306978159322,180.675 256,180.675 198.81811111953957,194.975" stroke="none" /><polygon fill="#f7d34e" points="256,180.675 255,194.975 198.81811111953957,194.975" stroke="none" /><polygon fill="#fbdc60" points="256,180.675 253.0,180.675 255,194.975" stroke="none" /><polygon fill="#fbdb5d" points="253.0,180.675 256.0,194.975 255,194.975" stroke="none" /><polygon fill="#fbdb5e" points="253.0,180.675 271.60468697207426,180.675 256.0,194.975" stroke="none" /><polygon fill="#f9d755" points="271.60468697207426,180.675 273.8800233305519,194.975 256.0,194.975" stroke="none" /><polygon fill="#f7d450" points="271.60468697207426,180.675 283.42641952667594,180.675 273.8800233305519,194.975" stroke="none" /><polygon fill="#f5d049" points="283.42641952667594,180.675 288.42549555066705,194.975 273.8800233305519,194.975" stroke="none" /><polygon fill="#f5cf45" points="283.42641952667594,180.675 293.8838055703573,180.675 288.42549555066705,194.975" stroke="none" /><polygon fill="#f2cc40" points="293.8838055703573,180.675 296.26187332675914,194.975 288.42549555066705,194.975" stroke="none" /><polygon fill="#f2cb3c" points="293.8838055703573,180.675 304.2869302184068,180.675 296.26187332675914,194.975" stroke="none" /><polygon fill="#f0c737" points="304.2869302184068,180.675 309.1818888804604,194.975 296.26187332675914,194.975" stroke="none" /><polygon fill="#f9d756" points="254.0,194.975 240.11997666944805,194.975 257.0,207.13" stroke="none" /><polygon fill="#f7d551" points="240.11997666944805,194.975 241.71265608013186,207.13 257.0,207.13" stroke="none" /><polygon fill="#f4d04a" points="240.11997666944805,194.975 224.57450444933295,194.975 241.71265608013186,207.13" stroke="none" /><polygon fill="#f3cd45" points="224.57450444933295,194.975 225.61618341356507,207.13 241.71265608013186,207.13" stroke="none" /><polygon fill="#f0c93f" points="224.57450444933295,194.975 210.73812667324086,194.975 225.61618341356507,207.13" stroke="none" /><polygon fill="#efc73b" points="210.73812667324086,194.975 217.13900528031166,207.13 225.61618341356507,207.13" stroke="none" /><polygon fill="#edc336" points="210.73812667324086,194.975 198.81811111953957,194.975 217.13900528031166,207.13" stroke="none" /><polygon fill="#ebc133" points="198.81811111953957,194.975 202.61410933373287,207.13 217.13900528031166,207.13" stroke="none" /><polygon fill="#f0c83d" points="198.81811111953957,194.975 255,194.975 202.61410933373287,207.13" stroke="none" /><polygon fill="#f5d14b" points="255,194.975 257,207.13 202.61410933373287,207.13" stroke="none" /><polygon fill="#fbda5b" points="255,194.975 256.0,194.975 257,207.13" stroke="none" /><polygon fill="#fbda59" points="256.0,194.975 255.0,207.13 257,207.13" stroke="none" /><polygon fill="#f9d756" points="256.0,194.975 273.8800233305519,194.975 255.0,207.13" stroke="none" /><polygon fill="#f7d44f" points="273.8800233305519,194.975 275.28734391986814,207.13 255.0,207.13" stroke="none" /><polygon fill="#f4cf48" points="273.8800233305519,194.975 288.42549555066705,194.975 275.28734391986814,207.13" stroke="none" /><polygon fill="#f2cc44" points="288.42549555066705,194.975 286.38381658643493,207.13 275.28734391986814,207.13" stroke="none" /><polygon fill="#f0c940" points="288.42549555066705,194.975 296.26187332675914,194.975 286.38381658643493,207.13" stroke="none" /><polygon fill="#efc73c" points="296.26187332675914,194.975 298.86099471968834,207.13 286.38381658643493,207.13" stroke="none" /><polygon fill="#edc437" points="296.26187332675914,194.975 309.1818888804604,194.975 298.86099471968834,207.13" stroke="none" /><polygon fill="#ebc233" points="309.1818888804604,194.975 306.38589066626713,207.13 298.86099471968834,207.13" stroke="none" /><polygon fill="#f8d551" points="257.0,207.13 241.71265608013186,207.13 254.0,218.57" stroke="none" /><polygon fill="#f6d14b" points="241.71265608013186,207.13 241.21082709794354,218.57 254.0,218.57" stroke="none" /><polygon fill="#f3cd47" points="241.71265608013186,207.13 225.61618341356507,207.13 241.21082709794354,218.57" stroke="none" /><polygon fill="#f0ca42" points="225.61618341356507,207.13 227.49175671759772,218.57 241.21082709794354,218.57" stroke="none" /><polygon fill="#eec73e" points="225.61618341356507,207.13 217.13900528031166,207.13 227.49175671759772,218.57" stroke="none" /><polygon fill="#edc43b" points="217.13900528031166,207.13 218.31650041332108,218.57 227.49175671759772,218.57" stroke="none" /><polygon fill="#eac236" points="217.13900528031166,207.13 202.61410933373287,207.13 218.31650041332108,218.57" stroke="none" /><polygon fill="#e8be32" points="202.61410933373287,207.13 205.12371847861675,218.57 218.31650041332108,218.57" stroke="none" /><polygon fill="#edc63c" points="202.61410933373287,207.13 257,207.13 205.12371847861675,218.57" stroke="none" /><polygon fill="#f3ce47" points="257,207.13 255,218.57 205.12371847861675,218.57" stroke="none" /><polygon fill="#f9d754" points="257,207.13 255.0,207.13 255,218.57" stroke="none" /><polygon fill="#f9d652" points="255.0,207.13 256.0,218.57 255,218.57" stroke="none" /><polygon fill="#f7d450" points="255.0,207.13 275.28734391986814,207.13 256.0,218.57" stroke="none" /><polygon fill="#f5d14b" points="275.28734391986814,207.13 270.78917290205646,218.57 256.0,218.57" stroke="none" /><polygon fill="#f2cd45" points="275.28734391986814,207.13 286.38381658643493,207.13 270.78917290205646,218.57" stroke="none" /><polygon fill="#f0c941" points="286.38381658643493,207.13 288.50824328240225,218.57 270.78917290205646,218.57" stroke="none" /><polygon fill="#edc63c" points="286.38381658643493,207.13 298.86099471968834,207.13 288.50824328240225,218.57" stroke="none" /><polygon fill="#ebc238" points="298.86099471968834,207.13 296.6834995866789,218.57 288.50824328240225,218.57" stroke="none" /><polygon fill="#eac135" points="298.86099471968834,207.13 306.38589066626713,207.13 296.6834995866789,218.57" stroke="none" /><polygon fill="#e8be32" points="306.38589066626713,207.13 305.87628152138325,218.57 296.6834995866789,218.57" stroke="none" /><polygon fill="#f6d24b" points="254.0,218.57 241.21082709794354,218.57 254.0,228.58" stroke="none" /><polygon fill="#f4cf46" points="241.21082709794354,218.57 236.32107267988232,228.58 254.0,228.58" stroke="none" /><polygon fill="#f0ca42" points="241.21082709794354,218.57 227.49175671759772,218.57 236.32107267988232,228.58" stroke="none" /><polygon fill="#edc63d" points="227.49175671759772,218.57 221.9279459222174,228.58 236.32107267988232,228.58" stroke="none" /><polygon fill="#ebc33a" points="227.49175671759772,218.57 218.31650041332108,218.57 221.9279459222174,228.58" stroke="none" /><polygon fill="#e9c037" points="218.31650041332108,218.57 214.21344451608545,228.58 221.9279459222174,228.58" stroke="none" /><polygon fill="#e8be34" points="218.31650041332108,218.57 205.12371847861675,218.57 214.21344451608545,228.58" stroke="none" /><polygon fill="#e5ba31" points="205.12371847861675,218.57 205.42749296934034,228.58 214.21344451608545,228.58" stroke="none" /><polygon fill="#ebc33a" points="205.12371847861675,218.57 255,218.57 205.42749296934034,228.58" stroke="none" /><polygon fill="#f2cc44" points="255,218.57 258,228.58 205.42749296934034,228.58" stroke="none" /><polygon fill="#f8d54f" points="255,218.57 256.0,218.57 258,228.58" stroke="none" /><polygon fill="#f8d54d" points="256.0,218.57 255.0,228.58 258,228.58" stroke="none" /><polygon fill="#f7d34d" points="256.0,218.57 270.78917290205646,218.57 255.0,228.58" stroke="none" /><polygon fill="#f4d047" points="270.78917290205646,218.57 273.6789273201177,228.58 255.0,228.58" stroke="none" /><polygon fill="#f0ca42" points="270.78917290205646,218.57 288.50824328240225,218.57 273.6789273201177,228.58" stroke="none" /><polygon fill="#edc63d" points="288.50824328240225,218.57 290.0720540777826,228.58 273.6789273201177,228.58" stroke="none" /><polygon fill="#ebc238" points="288.50824328240225,218.57 296.6834995866789,218.57 290.0720540777826,228.58" stroke="none" /><polygon fill="#e8bf36" points="296.6834995866789,218.57 298.7865554839145,228.58 290.0720540777826,228.58" stroke="none" /><polygon fill="#e7bd33" points="296.6834995866789,218.57 305.87628152138325,218.57 298.7865554839145,228.58" stroke="none" /><polygon fill="#e4ba30" points="305.87628152138325,218.57 310.57250703065966,228.58 298.7865554839145,228.58" stroke="none" /><polygon fill="#f6d046" points="254.0,228.58 236.32107267988232,228.58 258.0,240.02" stroke="none" /><polygon fill="#f2cc42" points="236.32107267988232,228.58 240.0228975571178,240.02 258.0,240.02" stroke="none" /><polygon fill="#eec63d" points="236.32107267988232,228.58 221.9279459222174,228.58 240.0228975571178,240.02" stroke="none" /><polygon fill="#eac239" points="221.9279459222174,228.58 221.4038805549343,240.02 240.0228975571178,240.02" stroke="none" /><polygon fill="#e8be35" points="221.9279459222174,228.58 214.21344451608545,228.58 221.4038805549343,240.02" stroke="none" /><polygon fill="#e5bb32" points="214.21344451608545,228.58 212.50866695318751,240.02 221.4038805549343,240.02" stroke="none" /><polygon fill="#e4b931" points="214.21344451608545,228.58 205.42749296934034,228.58 212.50866695318751,240.02" stroke="none" /><polygon fill="#e1b52e" points="205.42749296934034,228.58 204.52393199126604,240.02 212.50866695318751,240.02" stroke="none" /><polygon fill="#eac037" points="205.42749296934034,228.58 258,228.58 204.52393199126604,240.02" stroke="none" /><polygon fill="#efc93e" points="258,228.58 253,240.02 204.52393199126604,240.02" stroke="none" /><polygon fill="#f8d349" points="258,228.58 255.0,228.58 253,240.02" stroke="none" /><polygon fill="#f7d347" points="255.0,228.58 257.0,240.02 253,240.02" stroke="none" /><polygon fill="#f6d046" points="255.0,228.58 273.6789273201177,228.58 257.0,240.02" stroke="none" /><polygon fill="#f2cc42" points="273.6789273201177,228.58 270.9771024428822,240.02 257.0,240.02" stroke="none" /><polygon fill="#efc63d" points="273.6789273201177,228.58 290.0720540777826,228.58 270.9771024428822,240.02" stroke="none" /><polygon fill="#ebc339" points="290.0720540777826,228.58 287.5961194450657,240.02 270.9771024428822,240.02" stroke="none" /><polygon fill="#e8be36" points="290.0720540777826,228.58 298.7865554839145,228.58 287.5961194450657,240.02" stroke="none" /><polygon fill="#e5bb33" points="298.7865554839145,228.58 297.4913330468125,240.02 287.5961194450657,240.02" stroke="none" /><polygon fill="#e4b830" points="298.7865554839145,228.58 310.57250703065966,228.58 297.4913330468125,240.02" stroke="none" /><polygon fill="#e0b52d" points="310.57250703065966,228.58 308.47606800873393,240.02 297.4913330468125,240.02" stroke="none" /><polygon fill="#f5cf42" points="258.0,240.02 240.0228975571178,240.02 258.0,252.175" stroke="none" /><polygon fill="#f1ca3d" points="240.0228975571178,240.02 239.97697228957531,252.175 258.0,252.175" stroke="none" /><polygon fill="#ecc339" points="240.0228975571178,240.02 221.4038805549343,240.02 239.97697228957531,252.175" stroke="none" /><polygon fill="#e9c036" points="221.4038805549343,240.02 228.08073917561723,252.175 239.97697228957531,252.175" stroke="none" /><polygon fill="#e6bb33" points="221.4038805549343,240.02 212.50866695318751,240.02 228.08073917561723,252.175" stroke="none" /><polygon fill="#e3b831" points="212.50866695318751,240.02 214.76375268445076,252.175 228.08073917561723,252.175" stroke="none" /><polygon fill="#e0b42e" points="212.50866695318751,240.02 204.52393199126604,240.02 214.76375268445076,252.175" stroke="none" /><polygon fill="#deb12c" points="204.52393199126604,240.02 203.41506754416764,252.175 214.76375268445076,252.175" stroke="none" /><polygon fill="#e5bb33" points="204.52393199126604,240.02 253,240.02 203.41506754416764,252.175" stroke="none" /><polygon fill="#edc439" points="253,240.02 254,252.175 203.41506754416764,252.175" stroke="none" /><polygon fill="#f7d143" points="253,240.02 257.0,240.02 254,252.175" stroke="none" /><polygon fill="#f6d041" points="257.0,240.02 255.0,252.175 254,252.175" stroke="none" /><polygon fill="#f5ce41" points="257.0,240.02 270.9771024428822,240.02 255.0,252.175" stroke="none" /><polygon fill="#f1c93d" points="270.9771024428822,240.02 275.0230277104247,252.175 255.0,252.175" stroke="none" /><polygon fill="#ecc339" points="270.9771024428822,240.02 287.5961194450657,240.02 275.0230277104247,252.175" stroke="none" /><polygon fill="#e9bf36" points="287.5961194450657,240.02 284.9192608243828,252.175 275.0230277104247,252.175" stroke="none" /><polygon fill="#e6bc34" points="287.5961194450657,240.02 297.4913330468125,240.02 284.9192608243828,252.175" stroke="none" /><polygon fill="#e4b931" points="297.4913330468125,240.02 293.23624731554924,252.175 284.9192608243828,252.175" stroke="none" /><polygon fill="#e1b52f" points="297.4913330468125,240.02 308.47606800873393,240.02 293.23624731554924,252.175" stroke="none" /><polygon fill="#deb22c" points="308.47606800873393,240.02 308.58493245583236,252.175 293.23624731554924,252.175" stroke="none" /><polygon fill="#f4cd3c" points="258.0,252.175 239.97697228957531,252.175 257.0,264.33" stroke="none" /><polygon fill="#f0c838" points="239.97697228957531,252.175 243.9329008965094,264.33 257.0,264.33" stroke="none" /><polygon fill="#ecc336" points="239.97697228957531,252.175 228.08073917561723,252.175 243.9329008965094,264.33" stroke="none" /><polygon fill="#eac034" points="228.08073917561723,252.175 234.27600763628928,264.33 243.9329008965094,264.33" stroke="none" /><polygon fill="#e5bb32" points="228.08073917561723,252.175 214.76375268445076,252.175 234.27600763628928,264.33" stroke="none" /><polygon fill="#e3b72f" points="214.76375268445076,252.175 219.75049302811317,264.33 234.27600763628928,264.33" stroke="none" /><polygon fill="#deb22d" points="214.76375268445076,252.175 203.41506754416764,252.175 219.75049302811317,264.33" stroke="none" /><polygon fill="#ddb02c" points="203.41506754416764,252.175 216.37242695911945,264.33 219.75049302811317,264.33" stroke="none" /><polygon fill="#e5ba31" points="203.41506754416764,252.175 254,252.175 216.37242695911945,264.33" stroke="none" /><polygon fill="#eec537" points="254,252.175 259,264.33 216.37242695911945,264.33" stroke="none" /><polygon fill="#f7d03e" points="254,252.175 255.0,252.175 259,264.33" stroke="none" /><polygon fill="#f6cf3c" points="255.0,252.175 254.0,264.33 259,264.33" stroke="none" /><polygon fill="#f3cc3b" points="255.0,252.175 275.0230277104247,252.175 254.0,264.33" stroke="none" /><polygon fill="#f0c838" points="275.0230277104247,252.175 268.0670991034906,264.33 254.0,264.33" stroke="none" /><polygon fill="#ebc236" points="275.0230277104247,252.175 284.9192608243828,252.175 268.0670991034906,264.33" stroke="none" /><polygon fill="#e9bf33" points="284.9192608243828,252.175 281.72399236371075,264.33 268.0670991034906,264.33" stroke="none" /><polygon fill="#e5bb32" points="284.9192608243828,252.175 293.23624731554924,252.175 281.72399236371075,264.33" stroke="none" /><polygon fill="#e4b830" points="293.23624731554924,252.175 287.24950697188683,264.33 281.72399236371075,264.33" stroke="none" /><polygon fill="#e0b42e" points="293.23624731554924,252.175 308.58493245583236,252.175 287.24950697188683,264.33" stroke="none" /><polygon fill="#ddb02c" points="308.58493245583236,252.175 300.6275730408806,264.33 287.24950697188683,264.33" stroke="none" /><polygon fill="#f3cb36" points="257.0,264.33 243.9329008965094,264.33 255.0,277.2" stroke="none" /><polygon fill="#f0c835" points="243.9329008965094,264.33 245.0260769262722,277.2 255.0,277.2" stroke="none" /><polygon fill="#ecc233" points="243.9329008965094,264.33 234.27600763628928,264.33 245.0260769262722,277.2" stroke="none" /><polygon fill="#ebc032" points="234.27600763628928,264.33 235.95492308253904,277.2 245.0260769262722,277.2" stroke="none" /><polygon fill="#e5ba2f" points="234.27600763628928,264.33 219.75049302811317,264.33 235.95492308253904,277.2" stroke="none" /><polygon fill="#e4b82f" points="219.75049302811317,264.33 226.69800000755248,277.2 235.95492308253904,277.2" stroke="none" /><polygon fill="#e0b42d" points="219.75049302811317,264.33 216.37242695911945,264.33 226.69800000755248,277.2" stroke="none" /><polygon fill="#e0b32d" points="216.37242695911945,264.33 219.7153846250673,277.2 226.69800000755248,277.2" stroke="none" /><polygon fill="#e6bb30" points="216.37242695911945,264.33 259,264.33 219.7153846250673,277.2" stroke="none" /><polygon fill="#eec534" points="259,264.33 255,277.2 219.7153846250673,277.2" stroke="none" /><polygon fill="#f6ce38" points="259,264.33 254.0,264.33 255,277.2" stroke="none" /><polygon fill="#f5cd37" points="254.0,264.33 255.0,277.2 255,277.2" stroke="none" /><polygon fill="#f4cb37" points="254.0,264.33 268.0670991034906,264.33 255.0,277.2" stroke="none" /><polygon fill="#f1c835" points="268.0670991034906,264.33 266.9739230737278,277.2 255.0,277.2" stroke="none" /><polygon fill="#ebc132" points="268.0670991034906,264.33 281.72399236371075,264.33 266.9739230737278,277.2" stroke="none" /><polygon fill="#e9bf31" points="281.72399236371075,264.33 278.04507691746096,277.2 266.9739230737278,277.2" stroke="none" /><polygon fill="#e5ba2f" points="281.72399236371075,264.33 287.24950697188683,264.33 278.04507691746096,277.2" stroke="none" /><polygon fill="#e5ba2f" points="287.24950697188683,264.33 282.3019999924475,277.2 278.04507691746096,277.2" stroke="none" /><polygon fill="#e0b42d" points="287.24950697188683,264.33 300.6275730408806,264.33 282.3019999924475,277.2" stroke="none" /><polygon fill="#e0b32d" points="300.6275730408806,264.33 290.2846153749327,277.2 282.3019999924475,277.2" stroke="none" /><polygon fill="#f3ca36" points="255.0,277.2 245.0260769262722,277.2 255.0,291.5" stroke="none" /><polygon fill="#f0c735" points="245.0260769262722,277.2 243.6348,291.5 255.0,291.5" stroke="none" /><polygon fill="#ecc333" points="245.0260769262722,277.2 235.95492308253904,277.2 243.6348,291.5" stroke="none" /><polygon fill="#ebc132" points="235.95492308253904,277.2 236.0248,291.5 243.6348,291.5" stroke="none" /><polygon fill="#e7bc30" points="235.95492308253904,277.2 226.69800000755248,277.2 236.0248,291.5" stroke="none" /><polygon fill="#e5ba2f" points="226.69800000755248,277.2 228.1368,291.5 236.0248,291.5" stroke="none" /><polygon fill="#e2b62e" points="226.69800000755248,277.2 219.7153846250673,277.2 228.1368,291.5" stroke="none" /><polygon fill="#e1b52d" points="219.7153846250673,277.2 220.56,291.5 228.1368,291.5" stroke="none" /><polygon fill="#e6bc30" points="219.7153846250673,277.2 255,277.2 220.56,291.5" stroke="none" /><polygon fill="#eec534" points="255,277.2 257,291.5 220.56,291.5" stroke="none" /><polygon fill="#f5cd37" points="255,277.2 255.0,277.2 257,291.5" stroke="none" /><polygon fill="#f5cd37" points="255.0,277.2 255.0,291.5 257,291.5" stroke="none" /><polygon fill="#f4cb37" points="255.0,277.2 266.9739230737278,277.2 255.0,291.5" stroke="none" /><polygon fill="#f1c835" points="266.9739230737278,277.2 267.3652,291.5 255.0,291.5" stroke="none" /><polygon fill="#ecc333" points="266.9739230737278,277.2 278.04507691746096,277.2 267.3652,291.5" stroke="none" /><polygon fill="#eac032" points="278.04507691746096,277.2 276.9752,291.5 267.3652,291.5" stroke="none" /><polygon fill="#e7bc30" points="278.04507691746096,277.2 282.3019999924475,277.2 276.9752,291.5" stroke="none" /><polygon fill="#e6bb30" points="282.3019999924475,277.2 281.8632,291.5 276.9752,291.5" stroke="none" /><polygon fill="#e4b82f" points="282.3019999924475,277.2 290.2846153749327,277.2 281.8632,291.5" stroke="none" /><polygon fill="#e2b62e" points="290.2846153749327,277.2 290.44,291.5 281.8632,291.5" stroke="none" /><path d="M 242 211 A 12 17 0 0 0 242 227 Z" fill="#f6ce38" stroke="#d6a828" stroke-width="1" /><path d="M 270 211 A 12 17 0 0 1 270 227 Z" fill="#f6ce38" stroke="#d6a828" stroke-width="1" /><path d="M 219 217 A 18 12 0 0 0 255 217 Z" fill="#e8e0d8" stroke="#3a2a1a" stroke-width="1.5" /><path d="M 217 210 A 20 8 0 0 1 257 210 Z" fill="#f6ce38" stroke="#3a2a1a" stroke-width="1.5" /><path d="M 234 219 A 3 3 0 0 0 240 219 Z" fill="#3a2a1a" stroke="none" /><circle cx="238" cy="217" fill="white" r="2" stroke="none" /><path d="M 257 217 A 18 12 0 0 0 293 217 Z" fill="#e8e0d8" stroke="#3a2a1a" stroke-width="1.5" /><path d="M 255 210 A 20 8 0 0 1 295 210 Z" fill="#f6ce38" stroke="#3a2a1a" stroke-width="1.5" /><path d="M 272 219 A 3 3 0 0 0 278 219 Z" fill="#3a2a1a" stroke="none" /><circle cx="276" cy="217" fill="white" r="2" stroke="none" /><line stroke="#3a2a1a" stroke-width="3" x1="224" x2="250" y1="212" y2="212" /><line stroke="#3a2a1a" stroke-width="3" x1="265" x2="285" y1="210" y2="210" /><path d="M 221 225 A 7 4 0 0 0 235 225 Z" fill="#e88060" fill-opacity="0.2047684334153946" stroke="none" /><path d="M 277 226 A 6 4 0 0 0 289 226 Z" fill="#e88060" fill-opacity="0.24014851454445493" stroke="none" /><circle cx="256" cy="226" fill="#d6a828" r="3" stroke="none" /><path d="M 240 237 Q 256 245 272 237" fill="none" stroke="#c06050" stroke-width="3" /><path d="M 238 235 Q 256 247 274 235" fill="none" stroke="#a04030" stroke-width="1.5" /><path d="M 238 237 Q 256 243 274 237" fill="none" stroke="#f0a0a0" stroke-width="1" /><path d="M 248 204 Q 252 200 256 204" fill="none" stroke="#d4c0a0" stroke-opacity="0.3" stroke-width="1" /><path d="M 220 233 Q 224 229 228 233" fill="none" stroke="#d4c0a0" stroke-opacity="0.3" stroke-width="1" /><path d="M 262 203 Q 267 198 272 203" fill="none" stroke="#d4c0a0" stroke-opacity="0.3" stroke-width="1" /><path d="M 253 191 Q 261 183 269 191" fill="none" stroke="#d4c0a0" stroke-opacity="0.3" stroke-width="1" /><path d="M 223 203 Q 228 198 233 203" fill="none" stroke="#d4c0a0" stroke-opacity="0.3" stroke-width="1" /><path d="M 253 210 Q 258 205 263 210" fill="none" stroke="#d4c0a0" stroke-opacity="0.3" stroke-width="1" /><path d="M 262 196 Q 266 192 270 196" fill="none" stroke="#d4c0a0" stroke-opacity="0.3" stroke-width="1" /><path d="M 226 228 Q 229 225 232 228" fill="none" stroke="#d4c0a0" stroke-opacity="0.3" stroke-width="1" /><path d="M 221 191 Q 226 186 231 191" fill="none" stroke="#d4c0a0" stroke-opacity="0.3" stroke-width="1" /><path d="M 239 191 Q 246 184 253 191" fill="none" stroke="#d4c0a0" stroke-opacity="0.3" stroke-width="1" /><path d="M 228 185 Q 234 179 240 185" fill="none" stroke="#d4c0a0" stroke-opacity="0.3" stroke-width="1" /><path d="M 222 222 Q 229 215 236 222" fill="none" stroke="#d4c0a0" stroke-opacity="0.3" stroke-width="1" /><polygon fill="#ba9420" points="246,287.5 266,287.5 266,322.5 246,322.5" stroke="none" /></svg>