<?xml version="1.0" encoding="utf-8" ?>
<svg baseProfile="full" height="512" version="1.1" width="512" xmlns="http://www.w3.org/2000/svg" xmlns:ev="http://www.w3.org/2001/xml-events" xmlns:xlink="http://www.w3.org/1999/xlink"><defs /><polygon fill="#fcdf63" points="255.0,161.0 252.842,161.0 256.0,173.98" stroke="none" /><polygon fill="#fcdf63" points="252.842,161.0 253.97648663584636,173.98 256.0,173.98" stroke="none" /><polygon fill="#fcdd60" points="252.842,161.0 249.692,161.0 253.97648663584636,173.98" stroke="none" /><polygon fill="#fcdd5f" points="249.692,161.0 251.9283704508815,173.98 253.97648663584636,173.98" stroke="none" /><polygon fill="#fbdc5c" points="249.692,161.0 247.172,161.0 251.9283704508815,173.98" stroke="none" /><polygon fill="#fbdc5c" points="247.172,161.0 249.4898775029096,173.98 251.9283704508815,173.98" stroke="none" /><polygon fill="#fada57" points="247.172,161.0 242.4,161.0 249.4898775029096,173.98" stroke="none" /><polygon fill="#fada56" points="242.4,161.0 245.80753526014053,173.98 249.4898775029096,173.98" stroke="none" /><polygon fill="#fbdb59" points="242.4,161.0 255,161.0 245.80753526014053,173.98" stroke="none" /><polygon fill="#fcde61" points="255,161.0 258,173.98 245.80753526014053,173.98" stroke="none" /><polygon fill="#fcdf64" points="255,161.0 257.0,161.0 258,173.98" stroke="none" /><polygon fill="#fcdf63" points="257.0,161.0 258.0,173.98 258,173.98" stroke="none" /><polygon fill="#fcde61" points="257.0,161.0 261.158,161.0 258.0,173.98" stroke="none" /><polygon fill="#fcde60" points="261.158,161.0 259.02351336415364,173.98 258.0,173.98" stroke="none" /><polygon fill="#fbdd5e" points="261.158,161.0 262.308,161.0 259.02351336415364,173.98" stroke="none" /><polygon fill="#fbdd5e" points="262.308,161.0 261.0716295491185,173.98 259.02351336415364,173.98" stroke="none" /><polygon fill="#fbdc5b" points="262.308,161.0 264.828,161.0 261.0716295491185,173.98" stroke="none" /><polygon fill="#fbdc5a" points="264.828,161.0 263.5101224970904,173.98 261.0716295491185,173.98" stroke="none" /><polygon fill="#fada57" points="264.828,161.0 267.6,161.0 263.5101224970904,173.98" stroke="none" /><polygon fill="#fada56" points="267.6,161.0 267.1924647398595,173.98 263.5101224970904,173.98" stroke="none" /><polygon fill="#fcdf65" points="256.0,173.98 253.97648663584636,173.98 259.0,187.55" stroke="none" /><polygon fill="#fbdd5f" points="253.97648663584636,173.98 248.71798083901356,187.55 259.0,187.55" stroke="none" /><polygon fill="#fbdd5f" points="253.97648663584636,173.98 251.9283704508815,173.98 248.71798083901356,187.55" stroke="none" /><polygon fill="#fadb59" points="251.9283704508815,173.98 248.47402692917538,187.55 248.71798083901356,187.55" stroke="none" /><polygon fill="#fbdc5c" points="251.9283704508815,173.98 249.4898775029096,173.98 248.47402692917538,187.55" stroke="none" /><polygon fill="#fada57" points="249.4898775029096,173.98 246.87886380130482,187.55 248.47402692917538,187.55" stroke="none" /><polygon fill="#fbdb58" points="249.4898775029096,173.98 245.80753526014053,173.98 246.87886380130482,187.55" stroke="none" /><polygon fill="#f9d954" points="245.80753526014053,173.98 246.02418436064718,187.55 246.87886380130482,187.55" stroke="none" /><polygon fill="#fbdc5c" points="245.80753526014053,173.98 258,173.98 246.02418436064718,187.55" stroke="none" /><polygon fill="#fbdd5f" points="258,173.98 256,187.55 246.02418436064718,187.55" stroke="none" /><polygon fill="#fcdf63" points="258,173.98 258.0,173.98 256,187.55" stroke="none" /><polygon fill="#fcdf63" points="258.0,173.98 254.0,187.55 256,187.55" stroke="none" /><polygon fill="#fcdf64" points="258.0,173.98 259.02351336415364,173.98 254.0,187.55" stroke="none" /><polygon fill="#fbde60" points="259.02351336415364,173.98 259.2820191609864,187.55 254.0,187.55" stroke="none" /><polygon fill="#fcdd60" points="259.02351336415364,173.98 261.0716295491185,173.98 259.2820191609864,187.55" stroke="none" /><polygon fill="#fadb5a" points="261.0716295491185,173.98 265.52597307082465,187.55 259.2820191609864,187.55" stroke="none" /><polygon fill="#fbdb5a" points="261.0716295491185,173.98 263.5101224970904,173.98 265.52597307082465,187.55" stroke="none" /><polygon fill="#f9d955" points="263.5101224970904,173.98 267.1211361986952,187.55 265.52597307082465,187.55" stroke="none" /><polygon fill="#fada56" points="263.5101224970904,173.98 267.1924647398595,173.98 267.1211361986952,187.55" stroke="none" /><polygon fill="#f8d751" points="267.1924647398595,173.98 268.9758156393528,187.55 267.1211361986952,187.55" stroke="none" /><polygon fill="#fadc5b" points="259.0,187.55 248.71798083901356,187.55 256.0,199.35" stroke="none" /><polygon fill="#f9d955" points="248.71798083901356,187.55 251.72297200237446,199.35 256.0,199.35" stroke="none" /><polygon fill="#f8d854" points="248.71798083901356,187.55 248.47402692917538,187.55 251.72297200237446,199.35" stroke="none" /><polygon fill="#f8d650" points="248.47402692917538,187.55 245.21007200417327,199.35 251.72297200237446,199.35" stroke="none" /><polygon fill="#f7d650" points="248.47402692917538,187.55 246.87886380130482,187.55 245.21007200417327,199.35" stroke="none" /><polygon fill="#f6d349" points="246.87886380130482,187.55 236.79975200561233,199.35 245.21007200417327,199.35" stroke="none" /><polygon fill="#f6d44b" points="246.87886380130482,187.55 246.02418436064718,187.55 236.79975200561233,199.35" stroke="none" /><polygon fill="#f4d044" points="246.02418436064718,187.55 235.94840000719532,199.35 236.79975200561233,199.35" stroke="none" /><polygon fill="#f7d64f" points="246.02418436064718,187.55 256,187.55 235.94840000719532,199.35" stroke="none" /><polygon fill="#f8d751" points="256,187.55 255,199.35 235.94840000719532,199.35" stroke="none" /><polygon fill="#fadc5b" points="256,187.55 254.0,187.55 255,199.35" stroke="none" /><polygon fill="#fbdc5b" points="254.0,187.55 259.0,199.35 255,199.35" stroke="none" /><polygon fill="#fadc5b" points="254.0,187.55 259.2820191609864,187.55 259.0,199.35" stroke="none" /><polygon fill="#f9d955" points="259.2820191609864,187.55 261.27702799762557,199.35 259.0,199.35" stroke="none" /><polygon fill="#f8d954" points="259.2820191609864,187.55 265.52597307082465,187.55 261.27702799762557,199.35" stroke="none" /><polygon fill="#f7d54d" points="265.52597307082465,187.55 270.7899279958267,199.35 261.27702799762557,199.35" stroke="none" /><polygon fill="#f6d54c" points="265.52597307082465,187.55 267.1211361986952,187.55 270.7899279958267,199.35" stroke="none" /><polygon fill="#f5d248" points="267.1211361986952,187.55 272.20024799438767,199.35 270.7899279958267,199.35" stroke="none" /><polygon fill="#f6d44a" points="267.1211361986952,187.55 268.9758156393528,187.55 272.20024799438767,199.35" stroke="none" /><polygon fill="#f4cf43" points="268.9758156393528,187.55 280.0515999928047,199.35 272.20024799438767,199.35" stroke="none" /><polygon fill="#f9d854" points="256.0,199.35 251.72297200237446,199.35 256.0,209.38" stroke="none" /><polygon fill="#f7d54d" points="251.72297200237446,199.35 244.92947299674756,209.38 256.0,209.38" stroke="none" /><polygon fill="#f6d34b" points="251.72297200237446,199.35 245.21007200417327,199.35 244.92947299674756,209.38" stroke="none" /><polygon fill="#f3ce43" points="245.21007200417327,199.35 236.30028587307146,209.38 244.92947299674756,209.38" stroke="none" /><polygon fill="#f2ce41" points="245.21007200417327,199.35 236.79975200561233,199.35 236.30028587307146,209.38" stroke="none" /><polygon fill="#f0c83a" points="236.79975200561233,199.35 230.1969361741306,209.38 236.30028587307146,209.38" stroke="none" /><polygon fill="#f0ca3b" points="236.79975200561233,199.35 235.94840000719532,199.35 230.1969361741306,209.38" stroke="none" /><polygon fill="#eec636" points="235.94840000719532,199.35 228.48325150529564,209.38 230.1969361741306,209.38" stroke="none" /><polygon fill="#f3ce42" points="235.94840000719532,199.35 255,199.35 228.48325150529564,209.38" stroke="none" /><polygon fill="#f5d248" points="255,199.35 257,209.38 228.48325150529564,209.38" stroke="none" /><polygon fill="#f9d954" points="255,199.35 259.0,199.35 257,209.38" stroke="none" /><polygon fill="#f9d751" points="259.0,199.35 258.0,209.38 257,209.38" stroke="none" /><polygon fill="#f8d751" points="259.0,199.35 261.27702799762557,199.35 258.0,209.38" stroke="none" /><polygon fill="#f7d44d" points="261.27702799762557,199.35 266.07052700325244,209.38 258.0,209.38" stroke="none" /><polygon fill="#f5d249" points="261.27702799762557,199.35 270.7899279958267,199.35 266.07052700325244,209.38" stroke="none" /><polygon fill="#f3ce42" points="270.7899279958267,199.35 273.69971412692854,209.38 266.07052700325244,209.38" stroke="none" /><polygon fill="#f3ce42" points="270.7899279958267,199.35 272.20024799438767,199.35 273.69971412692854,209.38" stroke="none" /><polygon fill="#f0ca3c" points="272.20024799438767,199.35 281.8030638258694,209.38 273.69971412692854,209.38" stroke="none" /><polygon fill="#f0ca3a" points="272.20024799438767,199.35 280.0515999928047,199.35 281.8030638258694,209.38" stroke="none" /><polygon fill="#eec534" points="280.0515999928047,199.35 284.51674849470436,209.38 281.8030638258694,209.38" stroke="none" /><polygon fill="#f7d54c" points="256.0,209.38 244.92947299674756,209.38 259.0,218.82" stroke="none" /><polygon fill="#f5d145" points="244.92947299674756,209.38 243.74278695539508,218.82 259.0,218.82" stroke="none" /><polygon fill="#f1cc3f" points="244.92947299674756,209.38 236.30028587307146,209.38 243.74278695539508,218.82" stroke="none" /><polygon fill="#efc93a" points="236.30028587307146,209.38 235.6994437397853,218.82 243.74278695539508,218.82" stroke="none" /><polygon fill="#edc637" points="236.30028587307146,209.38 230.1969361741306,209.38 235.6994437397853,218.82" stroke="none" /><polygon fill="#eac131" points="230.1969361741306,209.38 222.6647691672975,218.82 235.6994437397853,218.82" stroke="none" /><polygon fill="#eac02f" points="230.1969361741306,209.38 228.48325150529564,209.38 222.6647691672975,218.82" stroke="none" /><polygon fill="#e7bc2a" points="228.48325150529564,209.38 218.82662713756088,218.82 222.6647691672975,218.82" stroke="none" /><polygon fill="#eec737" points="228.48325150529564,209.38 257,209.38 218.82662713756088,218.82" stroke="none" /><polygon fill="#f2cc3f" points="257,209.38 254,218.82 218.82662713756088,218.82" stroke="none" /><polygon fill="#f8d74e" points="257,209.38 258.0,209.38 254,218.82" stroke="none" /><polygon fill="#f9d74d" points="258.0,209.38 256.0,218.82 254,218.82" stroke="none" /><polygon fill="#f6d44a" points="258.0,209.38 266.07052700325244,209.38 256.0,218.82" stroke="none" /><polygon fill="#f4d044" points="266.07052700325244,209.38 271.2572130446049,218.82 256.0,218.82" stroke="none" /><polygon fill="#f1cc3f" points="266.07052700325244,209.38 273.69971412692854,209.38 271.2572130446049,218.82" stroke="none" /><polygon fill="#eec738" points="273.69971412692854,209.38 280.3005562602147,218.82 271.2572130446049,218.82" stroke="none" /><polygon fill="#edc536" points="273.69971412692854,209.38 281.8030638258694,209.38 280.3005562602147,218.82" stroke="none" /><polygon fill="#eac130" points="281.8030638258694,209.38 287.3352308327025,218.82 280.3005562602147,218.82" stroke="none" /><polygon fill="#eac130" points="281.8030638258694,209.38 284.51674849470436,209.38 287.3352308327025,218.82" stroke="none" /><polygon fill="#e6bc29" points="284.51674849470436,209.38 296.1733728624391,218.82 287.3352308327025,218.82" stroke="none" /><polygon fill="#f5d345" points="259.0,218.82 243.74278695539508,218.82 255.0,227.08" stroke="none" /><polygon fill="#f3cd40" points="243.74278695539508,218.82 245.42958599103062,227.08 255.0,227.08" stroke="none" /><polygon fill="#efc93b" points="243.74278695539508,218.82 235.6994437397853,218.82 245.42958599103062,227.08" stroke="none" /><polygon fill="#edc638" points="235.6994437397853,218.82 236.42169659029625,227.08 245.42958599103062,227.08" stroke="none" /><polygon fill="#e9c131" points="235.6994437397853,218.82 222.6647691672975,218.82 236.42169659029625,227.08" stroke="none" /><polygon fill="#e8be30" points="222.6647691672975,218.82 234.01538506970877,227.08 236.42169659029625,227.08" stroke="none" /><polygon fill="#e5bb2b" points="222.6647691672975,218.82 218.82662713756088,218.82 234.01538506970877,227.08" stroke="none" /><polygon fill="#e4b92b" points="218.82662713756088,218.82 222.96844239706252,227.08 234.01538506970877,227.08" stroke="none" /><polygon fill="#e9c131" points="218.82662713756088,218.82 254,218.82 222.96844239706252,227.08" stroke="none" /><polygon fill="#f1cb3d" points="254,218.82 258,227.08 222.96844239706252,227.08" stroke="none" /><polygon fill="#f8d649" points="254,218.82 256.0,218.82 258,227.08" stroke="none" /><polygon fill="#f6d346" points="256.0,218.82 259.0,227.08 258,227.08" stroke="none" /><polygon fill="#f4d043" points="256.0,218.82 271.2572130446049,218.82 259.0,227.08" stroke="none" /><polygon fill="#f1cb3e" points="271.2572130446049,218.82 268.57041400896935,227.08 259.0,227.08" stroke="none" /><polygon fill="#edc738" points="271.2572130446049,218.82 280.3005562602147,218.82 268.57041400896935,227.08" stroke="none" /><polygon fill="#ebc435" points="280.3005562602147,218.82 276.5783034097037,227.08 268.57041400896935,227.08" stroke="none" /><polygon fill="#e8c030" points="280.3005562602147,218.82 287.3352308327025,218.82 276.5783034097037,227.08" stroke="none" /><polygon fill="#e7be2f" points="287.3352308327025,218.82 281.98461493029123,227.08 276.5783034097037,227.08" stroke="none" /><polygon fill="#e4ba29" points="287.3352308327025,218.82 296.1733728624391,218.82 281.98461493029123,227.08" stroke="none" /><polygon fill="#e3b829" points="296.1733728624391,218.82 286.0315576029375,227.08 281.98461493029123,227.08" stroke="none" /><polygon fill="#f4cf3f" points="255.0,227.08 245.42958599103062,227.08 253.0,236.52" stroke="none" /><polygon fill="#f1cb3b" points="245.42958599103062,227.08 246.5664816909447,236.52 253.0,236.52" stroke="none" /><polygon fill="#eec738" points="245.42958599103062,227.08 236.42169659029625,227.08 246.5664816909447,236.52" stroke="none" /><polygon fill="#ecc435" points="236.42169659029625,227.08 239.1774526689331,236.52 246.5664816909447,236.52" stroke="none" /><polygon fill="#eac233" points="236.42169659029625,227.08 234.01538506970877,227.08 239.1774526689331,236.52" stroke="none" /><polygon fill="#eac132" points="234.01538506970877,227.08 238.06622945132386,236.52 239.1774526689331,236.52" stroke="none" /><polygon fill="#e7bd2f" points="234.01538506970877,227.08 222.96844239706252,227.08 238.06622945132386,236.52" stroke="none" /><polygon fill="#e5bb2d" points="222.96844239706252,227.08 232.44388391195366,236.52 238.06622945132386,236.52" stroke="none" /><polygon fill="#ebc334" points="222.96844239706252,227.08 258,227.08 232.44388391195366,236.52" stroke="none" /><polygon fill="#f2cc3c" points="258,227.08 258,236.52 232.44388391195366,236.52" stroke="none" /><polygon fill="#f6d142" points="258,227.08 259.0,227.08 258,236.52" stroke="none" /><polygon fill="#f5d140" points="259.0,227.08 256.0,236.52 258,236.52" stroke="none" /><polygon fill="#f4cf3f" points="259.0,227.08 268.57041400896935,227.08 256.0,236.52" stroke="none" /><polygon fill="#f1cc3b" points="268.57041400896935,227.08 265.4335183090553,236.52 256.0,236.52" stroke="none" /><polygon fill="#eec737" points="268.57041400896935,227.08 276.5783034097037,227.08 265.4335183090553,236.52" stroke="none" /><polygon fill="#edc536" points="276.5783034097037,227.08 267.82254733106686,236.52 265.4335183090553,236.52" stroke="none" /><polygon fill="#eac233" points="276.5783034097037,227.08 281.98461493029123,227.08 267.82254733106686,236.52" stroke="none" /><polygon fill="#e9bf31" points="281.98461493029123,227.08 278.93377054867614,236.52 267.82254733106686,236.52" stroke="none" /><polygon fill="#e5bb2d" points="281.98461493029123,227.08 286.0315576029375,227.08 278.93377054867614,236.52" stroke="none" /><polygon fill="#e4b92b" points="286.0315576029375,227.08 283.55611608804634,236.52 278.93377054867614,236.52" stroke="none" /><polygon fill="#f3cc3a" points="253.0,236.52 246.5664816909447,236.52 253.0,246.55" stroke="none" /><polygon fill="#f1ca36" points="246.5664816909447,236.52 249.12945243074338,246.55 253.0,246.55" stroke="none" /><polygon fill="#eec635" points="246.5664816909447,236.52 239.1774526689331,236.52 249.12945243074338,246.55" stroke="none" /><polygon fill="#ecc432" points="239.1774526689331,236.52 243.68206790857928,246.55 249.12945243074338,246.55" stroke="none" /><polygon fill="#eac132" points="239.1774526689331,236.52 238.06622945132386,236.52 243.68206790857928,246.55" stroke="none" /><polygon fill="#eac231" points="238.06622945132386,236.52 243.124160290848,246.55 243.68206790857928,246.55" stroke="none" /><polygon fill="#e9bf30" points="238.06622945132386,236.52 232.44388391195366,236.52 243.124160290848,246.55" stroke="none" /><polygon fill="#e8bf2f" points="232.44388391195366,236.52 240.2104619113436,246.55 243.124160290848,246.55" stroke="none" /><polygon fill="#edc434" points="232.44388391195366,236.52 258,236.52 240.2104619113436,246.55" stroke="none" /><polygon fill="#f2cc38" points="258,236.52 258,246.55 240.2104619113436,246.55" stroke="none" /><polygon fill="#f5cf3d" points="258,236.52 256.0,236.52 258,246.55" stroke="none" /><polygon fill="#f5d03a" points="256.0,236.52 253.0,246.55 258,246.55" stroke="none" /><polygon fill="#f5ce3c" points="256.0,236.52 265.4335183090553,236.52 253.0,246.55" stroke="none" /><polygon fill="#f2cb37" points="265.4335183090553,236.52 264.87054756925664,246.55 253.0,246.55" stroke="none" /><polygon fill="#efc736" points="265.4335183090553,236.52 267.82254733106686,236.52 264.87054756925664,246.55" stroke="none" /><polygon fill="#eec734" points="267.82254733106686,236.52 264.31793209142074,246.55 264.87054756925664,246.55" stroke="none" /><polygon fill="#ebc333" points="267.82254733106686,236.52 278.93377054867614,236.52 264.31793209142074,246.55" stroke="none" /><polygon fill="#e9c030" points="278.93377054867614,236.52 271.875839709152,246.55 264.31793209142074,246.55" stroke="none" /><polygon fill="#e5bb2d" points="278.93377054867614,236.52 283.55611608804634,236.52 271.875839709152,246.55" stroke="none" /><polygon fill="#e6bc2d" points="283.55611608804634,236.52 273.7895380886564,246.55 271.875839709152,246.55" stroke="none" /><polygon fill="#f4cc35" points="253.0,246.55 249.12945243074338,246.55 259.0,256.58" stroke="none" /><polygon fill="#f2cb33" points="249.12945243074338,246.55 251.86633789217623,256.58 259.0,256.58" stroke="none" /><polygon fill="#efc632" points="249.12945243074338,246.55 243.68206790857928,246.55 251.86633789217623,256.58" stroke="none" /><polygon fill="#edc42f" points="243.68206790857928,246.55 245.73477568927947,256.58 251.86633789217623,256.58" stroke="none" /><polygon fill="#ebc22f" points="243.68206790857928,246.55 243.124160290848,246.55 245.73477568927947,256.58" stroke="none" /><polygon fill="#ecc32f" points="243.124160290848,246.55 249.22952592696203,256.58 245.73477568927947,256.58" stroke="none" /><polygon fill="#ebc22f" points="243.124160290848,246.55 240.2104619113436,246.55 249.22952592696203,256.58" stroke="none" /><polygon fill="#ebc22e" points="240.2104619113436,246.55 245.47375118841288,256.58 249.22952592696203,256.58" stroke="none" /><polygon fill="#efc632" points="240.2104619113436,246.55 258,246.55 245.47375118841288,256.58" stroke="none" /><polygon fill="#f1ca32" points="258,246.55 254,256.58 245.47375118841288,256.58" stroke="none" /><polygon fill="#f5cd36" points="258,246.55 253.0,246.55 254,256.58" stroke="none" /><polygon fill="#f4cc34" points="253.0,246.55 258.0,256.58 254,256.58" stroke="none" /><polygon fill="#f3cc35" points="253.0,246.55 264.87054756925664,246.55 258.0,256.58" stroke="none" /><polygon fill="#f0c832" points="264.87054756925664,246.55 259.13366210782374,256.58 258.0,256.58" stroke="none" /><polygon fill="#f0c732" points="264.87054756925664,246.55 264.31793209142074,246.55 259.13366210782374,256.58" stroke="none" /><polygon fill="#f0c731" points="264.31793209142074,246.55 261.26522431072055,256.58 259.13366210782374,256.58" stroke="none" /><polygon fill="#edc431" points="264.31793209142074,246.55 271.875839709152,246.55 261.26522431072055,256.58" stroke="none" /><polygon fill="#ebc12e" points="271.875839709152,246.55 268.770474073038,256.58 261.26522431072055,256.58" stroke="none" /><polygon fill="#e8be2d" points="271.875839709152,246.55 273.7895380886564,246.55 268.770474073038,256.58" stroke="none" /><polygon fill="#e8be2c" points="273.7895380886564,246.55 268.52624881158715,256.58 268.770474073038,256.58" stroke="none" /><polygon fill="#f4cb2f" points="259.0,256.58 251.86633789217623,256.58 254.0,267.2" stroke="none" /><polygon fill="#f2c92e" points="251.86633789217623,256.58 253.26516551314174,267.2 254.0,267.2" stroke="none" /><polygon fill="#efc62d" points="251.86633789217623,256.58 245.73477568927947,256.58 253.26516551314174,267.2" stroke="none" /><polygon fill="#eec42c" points="245.73477568927947,256.58 247.43574544734003,267.2 253.26516551314174,267.2" stroke="none" /><polygon fill="#ecc32c" points="245.73477568927947,256.58 249.22952592696203,256.58 247.43574544734003,267.2" stroke="none" /><polygon fill="#edc42c" points="249.22952592696203,256.58 248.17220939469863,267.2 247.43574544734003,267.2" stroke="none" /><polygon fill="#edc32c" points="249.22952592696203,256.58 245.47375118841288,256.58 248.17220939469863,267.2" stroke="none" /><polygon fill="#ebc22b" points="245.47375118841288,256.58 245.68231973679312,267.2 248.17220939469863,267.2" stroke="none" /><polygon fill="#edc42c" points="245.47375118841288,256.58 254,256.58 245.68231973679312,267.2" stroke="none" /><polygon fill="#f1c82e" points="254,256.58 256,267.2 245.68231973679312,267.2" stroke="none" /><polygon fill="#f5cd30" points="254,256.58 258.0,256.58 256,267.2" stroke="none" /><polygon fill="#f3cb2f" points="258.0,256.58 259.0,267.2 256,267.2" stroke="none" /><polygon fill="#f2c92e" points="258.0,256.58 259.13366210782374,256.58 259.0,267.2" stroke="none" /><polygon fill="#f2c92e" points="259.13366210782374,256.58 258.7348344868583,267.2 259.0,267.2" stroke="none" /><polygon fill="#f1c82e" points="259.13366210782374,256.58 261.26522431072055,256.58 258.7348344868583,267.2" stroke="none" /><polygon fill="#f0c72d" points="261.26522431072055,256.58 261.56425455266,267.2 258.7348344868583,267.2" stroke="none" /><polygon fill="#edc42c" points="261.26522431072055,256.58 268.770474073038,256.58 261.56425455266,267.2" stroke="none" /><polygon fill="#ecc22b" points="268.770474073038,256.58 265.82779060530135,267.2 261.56425455266,267.2" stroke="none" /><polygon fill="#e9bf2a" points="268.770474073038,256.58 268.52624881158715,256.58 265.82779060530135,267.2" stroke="none" /><polygon fill="#e9bf2a" points="268.52624881158715,256.58 270.31768026320685,267.2 265.82779060530135,267.2" stroke="none" /><polygon fill="#f3ca2f" points="254.0,267.2 253.26516551314174,267.2 255.0,279.0" stroke="none" /><polygon fill="#f2c92e" points="253.26516551314174,267.2 250.842,279.0 255.0,279.0" stroke="none" /><polygon fill="#efc62d" points="253.26516551314174,267.2 247.43574544734003,267.2 250.842,279.0" stroke="none" /><polygon fill="#eec52c" points="247.43574544734003,267.2 249.692,279.0 250.842,279.0" stroke="none" /><polygon fill="#edc42c" points="247.43574544734003,267.2 248.17220939469863,267.2 249.692,279.0" stroke="none" /><polygon fill="#edc32c" points="248.17220939469863,267.2 246.172,279.0 249.692,279.0" stroke="none" /><polygon fill="#ecc22b" points="248.17220939469863,267.2 245.68231973679312,267.2 246.172,279.0" stroke="none" /><polygon fill="#eac02a" points="245.68231973679312,267.2 242.4,279.0 246.172,279.0" stroke="none" /><polygon fill="#edc32c" points="245.68231973679312,267.2 256,267.2 242.4,279.0" stroke="none" /><polygon fill="#f0c72d" points="256,267.2 256,279.0 242.4,279.0" stroke="none" /><polygon fill="#f4cb2f" points="256,267.2 259.0,267.2 256,279.0" stroke="none" /><polygon fill="#f3cb2f" points="259.0,267.2 257.0,279.0 256,279.0" stroke="none" /><polygon fill="#f2ca2e" points="259.0,267.2 258.7348344868583,267.2 257.0,279.0" stroke="none" /><polygon fill="#f2c92e" points="258.7348344868583,267.2 261.158,279.0 257.0,279.0" stroke="none" /><polygon fill="#f0c72d" points="258.7348344868583,267.2 261.56425455266,267.2 261.158,279.0" stroke="none" /><polygon fill="#efc62d" points="261.56425455266,267.2 262.308,279.0 261.158,279.0" stroke="none" /><polygon fill="#eec42c" points="261.56425455266,267.2 265.82779060530135,267.2 262.308,279.0" stroke="none" /><polygon fill="#ecc32c" points="265.82779060530135,267.2 265.828,279.0 262.308,279.0" stroke="none" /><polygon fill="#eac02a" points="265.82779060530135,267.2 270.31768026320685,267.2 265.828,279.0" stroke="none" /><polygon fill="#e9bf2a" points="270.31768026320685,267.2 268.6,279.0 265.828,279.0" stroke="none" /><path d="M 247 212 A 5 14 0 0 0 247 226 Z" fill="#f5cd30" stroke="#d4a520" stroke-width="1" /><path d="M 265 212 A 5 14 0 0 1 265 226 Z" fill="#f5cd30" stroke="#d4a520" stroke-width="1" /><path d="M 231 213 Q 243 207 255 217 Q 243 226 231 213" fill="#e8e0d8" stroke="#3a2a1a" stroke-width="1.5" /><path d="M 242 216 A 2 2 0 0 0 246 216 Z" fill="#3a2a1a" stroke="none" /><circle cx="244" cy="215" fill="white" r="1" stroke="none" /><path d="M 257 215 Q 269 209 281 219 Q 269 228 257 215" fill="#e8e0d8" stroke="#3a2a1a" stroke-width="1.5" /><path d="M 268 218 A 2 2 0 0 0 272 218 Z" fill="#3a2a1a" stroke="none" /><circle cx="270" cy="217" fill="white" r="1" stroke="none" /><line stroke="#3a2a1a" stroke-width="3" x1="235" x2="251" y1="214" y2="214" /><line stroke="#3a2a1a" stroke-width="3" x1="262" x2="276" y1="210" y2="210" /><path d="M 231 223 A 5 3 0 0 0 241 223 Z" fill="#e88060" fill-opacity="0.2032287640620213" stroke="none" /><path d="M 269 224 A 5 3 0 0 0 279 224 Z" fill="#e88060" fill-opacity="0.2702001556231214" stroke="none" /><path d="M 244 232 Q 256 227 268 232 Q 256 237 244 232" fill="#c06050" stroke="#3a2a1a" stroke-width="1.5" /><line stroke="#3a2a1a" stroke-width="1.5" x1="246" x2="266" y1="232" y2="232" /><ellipse cx="256" cy="194" fill="white" fill-opacity="0.10" rx="2" ry="2" stroke="none" /><ellipse cx="246" cy="215" fill="white" fill-opacity="0.10" rx="2" ry="2" stroke="none" /><ellipse cx="266" cy="215" fill="white" fill-opacity="0.10" rx="2" ry="2" stroke="none" /><polygon fill="#b8911a" points="249,275.0 263,275.0 263,310.0 249,310.0" stroke="none" /></svg>