<?xml version="1.0" encoding="utf-8" ?>
<svg baseProfile="full" height="512" version="1.1" width="512" xmlns="http://www.w3.org/2000/svg" xmlns:ev="http://www.w3.org/2001/xml-events" xmlns:xlink="http://www.w3.org/1999/xlink"><defs /><polygon fill="#fde36d" points="257.0,149.0 251.3075,149.0 258.0,164.62" stroke="none" /><polygon fill="#fde36b" points="251.3075,149.0 251.35879673047944,164.62 258.0,164.62" stroke="none" /><polygon fill="#fce168" points="251.3075,149.0 246.995,149.0 251.35879673047944,164.62" stroke="none" /><polygon fill="#fce066" points="246.995,149.0 244.08515788993355,164.62 251.35879673047944,164.62" stroke="none" /><polygon fill="#fcdf63" points="246.995,149.0 242.545,149.0 244.08515788993355,164.62" stroke="none" /><polygon fill="#fbdf62" points="242.545,149.0 243.66624681749687,164.62 244.08515788993355,164.62" stroke="none" /><polygon fill="#fbde61" points="242.545,149.0 237.75,149.0 243.66624681749687,164.62" stroke="none" /><polygon fill="#fbde60" points="237.75,149.0 239.9054446378165,164.62 243.66624681749687,164.62" stroke="none" /><polygon fill="#fcdf63" points="237.75,149.0 256,149.0 239.9054446378165,164.62" stroke="none" /><polygon fill="#fde269" points="256,149.0 257,164.62 239.9054446378165,164.62" stroke="none" /><polygon fill="#fde36d" points="256,149.0 257.0,149.0 257,164.62" stroke="none" /><polygon fill="#fde36d" points="257.0,149.0 255.0,164.62 257,164.62" stroke="none" /><polygon fill="#fde36c" points="257.0,149.0 262.6925,149.0 255.0,164.62" stroke="none" /><polygon fill="#fde26b" points="262.6925,149.0 259.64120326952053,164.62 255.0,164.62" stroke="none" /><polygon fill="#fce167" points="262.6925,149.0 267.005,149.0 259.64120326952053,164.62" stroke="none" /><polygon fill="#fce167" points="267.005,149.0 262.91484211006645,164.62 259.64120326952053,164.62" stroke="none" /><polygon fill="#fcdf64" points="267.005,149.0 270.455,149.0 262.91484211006645,164.62" stroke="none" /><polygon fill="#fbdf62" points="270.455,149.0 272.33375318250313,164.62 262.91484211006645,164.62" stroke="none" /><polygon fill="#fbdd5f" points="270.455,149.0 274.25,149.0 272.33375318250313,164.62" stroke="none" /><polygon fill="#fbdd5e" points="274.25,149.0 274.0945553621835,164.62 272.33375318250313,164.62" stroke="none" /><polygon fill="#fde36d" points="258.0,164.62 251.35879673047944,164.62 256.0,180.95" stroke="none" /><polygon fill="#fce167" points="251.35879673047944,164.62 247.07466115635955,180.95 256.0,180.95" stroke="none" /><polygon fill="#fce066" points="251.35879673047944,164.62 244.08515788993355,164.62 247.07466115635955,180.95" stroke="none" /><polygon fill="#fbde62" points="244.08515788993355,164.62 245.58576809299558,180.95 247.07466115635955,180.95" stroke="none" /><polygon fill="#fcdf63" points="244.08515788993355,164.62 243.66624681749687,164.62 245.58576809299558,180.95" stroke="none" /><polygon fill="#fade61" points="243.66624681749687,164.62 242.99465364230437,180.95 245.58576809299558,180.95" stroke="none" /><polygon fill="#fbde61" points="243.66624681749687,164.62 239.9054446378165,164.62 242.99465364230437,180.95" stroke="none" /><polygon fill="#f9dc5d" points="239.9054446378165,164.62 235.04442774654407,180.95 242.99465364230437,180.95" stroke="none" /><polygon fill="#fbdf63" points="239.9054446378165,164.62 257,164.62 235.04442774654407,180.95" stroke="none" /><polygon fill="#fbe064" points="257,164.62 254,180.95 235.04442774654407,180.95" stroke="none" /><polygon fill="#fde36d" points="257,164.62 255.0,164.62 254,180.95" stroke="none" /><polygon fill="#fce269" points="255.0,164.62 254.0,180.95 254,180.95" stroke="none" /><polygon fill="#fde36d" points="255.0,164.62 259.64120326952053,164.62 254.0,180.95" stroke="none" /><polygon fill="#fce269" points="259.64120326952053,164.62 259.9253388436405,180.95 254.0,180.95" stroke="none" /><polygon fill="#fde269" points="259.64120326952053,164.62 262.91484211006645,164.62 259.9253388436405,180.95" stroke="none" /><polygon fill="#fbdf64" points="262.91484211006645,164.62 268.4142319070044,180.95 259.9253388436405,180.95" stroke="none" /><polygon fill="#fcdf63" points="262.91484211006645,164.62 272.33375318250313,164.62 268.4142319070044,180.95" stroke="none" /><polygon fill="#fadd5f" points="272.33375318250313,164.62 270.0053463576956,180.95 268.4142319070044,180.95" stroke="none" /><polygon fill="#fbdd5f" points="272.33375318250313,164.62 274.0945553621835,164.62 270.0053463576956,180.95" stroke="none" /><polygon fill="#f9db5c" points="274.0945553621835,164.62 276.9555722534559,180.95 270.0053463576956,180.95" stroke="none" /><polygon fill="#fbdf65" points="256.0,180.95 247.07466115635955,180.95 258.0,195.15" stroke="none" /><polygon fill="#fadd61" points="247.07466115635955,180.95 247.73589047282212,195.15 258.0,195.15" stroke="none" /><polygon fill="#f9dc5f" points="247.07466115635955,180.95 245.58576809299558,180.95 247.73589047282212,195.15" stroke="none" /><polygon fill="#f8da5c" points="245.58576809299558,180.95 239.96004992192977,195.15 247.73589047282212,195.15" stroke="none" /><polygon fill="#f8db5c" points="245.58576809299558,180.95 242.99465364230437,180.95 239.96004992192977,195.15" stroke="none" /><polygon fill="#f6d756" points="242.99465364230437,180.95 228.7393774812159,195.15 239.96004992192977,195.15" stroke="none" /><polygon fill="#f7d856" points="242.99465364230437,180.95 235.04442774654407,180.95 228.7393774812159,195.15" stroke="none" /><polygon fill="#f4d350" points="235.04442774654407,180.95 223.89663779643064,195.15 228.7393774812159,195.15" stroke="none" /><polygon fill="#f7d858" points="235.04442774654407,180.95 254,180.95 223.89663779643064,195.15" stroke="none" /><polygon fill="#f8da5c" points="254,180.95 256,195.15 223.89663779643064,195.15" stroke="none" /><polygon fill="#fbe065" points="254,180.95 254.0,180.95 256,195.15" stroke="none" /><polygon fill="#fbdf63" points="254.0,180.95 253.0,195.15 256,195.15" stroke="none" /><polygon fill="#fbe066" points="254.0,180.95 259.9253388436405,180.95 253.0,195.15" stroke="none" /><polygon fill="#fade61" points="259.9253388436405,180.95 267.2641095271779,195.15 253.0,195.15" stroke="none" /><polygon fill="#f9dc5f" points="259.9253388436405,180.95 268.4142319070044,180.95 267.2641095271779,195.15" stroke="none" /><polygon fill="#f8da5b" points="268.4142319070044,180.95 271.0399500780702,195.15 267.2641095271779,195.15" stroke="none" /><polygon fill="#f8da5c" points="268.4142319070044,180.95 270.0053463576956,180.95 271.0399500780702,195.15" stroke="none" /><polygon fill="#f7d757" points="270.0053463576956,180.95 281.2606225187841,195.15 271.0399500780702,195.15" stroke="none" /><polygon fill="#f7d857" points="270.0053463576956,180.95 276.9555722534559,180.95 281.2606225187841,195.15" stroke="none" /><polygon fill="#f5d451" points="276.9555722534559,180.95 284.10336220356936,195.15 281.2606225187841,195.15" stroke="none" /><polygon fill="#fadd5f" points="258.0,195.15 247.73589047282212,195.15 258.0,207.22" stroke="none" /><polygon fill="#f8da5a" points="247.73589047282212,195.15 240.1069101423155,207.22 258.0,207.22" stroke="none" /><polygon fill="#f6d757" points="247.73589047282212,195.15 239.96004992192977,195.15 240.1069101423155,207.22" stroke="none" /><polygon fill="#f4d453" points="239.96004992192977,195.15 233.33941782588786,207.22 240.1069101423155,207.22" stroke="none" /><polygon fill="#f4d351" points="239.96004992192977,195.15 228.7393774812159,195.15 233.33941782588786,207.22" stroke="none" /><polygon fill="#f1d04c" points="228.7393774812159,195.15 224.52542397274576,207.22 233.33941782588786,207.22" stroke="none" /><polygon fill="#f1cf4b" points="228.7393774812159,195.15 223.89663779643064,195.15 224.52542397274576,207.22" stroke="none" /><polygon fill="#efcd48" points="223.89663779643064,195.15 218.9300307342894,207.22 224.52542397274576,207.22" stroke="none" /><polygon fill="#f3d250" points="223.89663779643064,195.15 256,195.15 218.9300307342894,207.22" stroke="none" /><polygon fill="#f6d756" points="256,195.15 253,207.22 218.9300307342894,207.22" stroke="none" /><polygon fill="#fadd5f" points="256,195.15 253.0,195.15 253,207.22" stroke="none" /><polygon fill="#fadc5e" points="253.0,195.15 255.0,207.22 253,207.22" stroke="none" /><polygon fill="#fadc5f" points="253.0,195.15 267.2641095271779,195.15 255.0,207.22" stroke="none" /><polygon fill="#f8da5a" points="267.2641095271779,195.15 268.8930898576845,207.22 255.0,207.22" stroke="none" /><polygon fill="#f6d757" points="267.2641095271779,195.15 271.0399500780702,195.15 268.8930898576845,207.22" stroke="none" /><polygon fill="#f5d553" points="271.0399500780702,195.15 281.66058217411216,207.22 268.8930898576845,207.22" stroke="none" /><polygon fill="#f4d351" points="271.0399500780702,195.15 281.2606225187841,195.15 281.66058217411216,207.22" stroke="none" /><polygon fill="#f1cf4c" points="281.2606225187841,195.15 289.4745760272543,207.22 281.66058217411216,207.22" stroke="none" /><polygon fill="#f1d04c" points="281.2606225187841,195.15 284.10336220356936,195.15 289.4745760272543,207.22" stroke="none" /><polygon fill="#efcc47" points="284.10336220356936,195.15 298.0699692657106,207.22 289.4745760272543,207.22" stroke="none" /><polygon fill="#f8d959" points="258.0,207.22 240.1069101423155,207.22 257.0,218.58" stroke="none" /><polygon fill="#f6d554" points="240.1069101423155,207.22 241.50168443365018,218.58 257.0,218.58" stroke="none" /><polygon fill="#f3d250" points="240.1069101423155,207.22 233.33941782588786,207.22 241.50168443365018,218.58" stroke="none" /><polygon fill="#f1cf4c" points="233.33941782588786,207.22 227.0029605197488,218.58 241.50168443365018,218.58" stroke="none" /><polygon fill="#efcd4a" points="233.33941782588786,207.22 224.52542397274576,207.22 227.0029605197488,218.58" stroke="none" /><polygon fill="#edc946" points="224.52542397274576,207.22 220.0039813886277,218.58 227.0029605197488,218.58" stroke="none" /><polygon fill="#ecc945" points="224.52542397274576,207.22 218.9300307342894,207.22 220.0039813886277,218.58" stroke="none" /><polygon fill="#e9c440" points="218.9300307342894,207.22 206.00510434439448,218.58 220.0039813886277,218.58" stroke="none" /><polygon fill="#eecc48" points="218.9300307342894,207.22 253,207.22 206.00510434439448,218.58" stroke="none" /><polygon fill="#f2d14f" points="253,207.22 256,218.58 206.00510434439448,218.58" stroke="none" /><polygon fill="#f9db5b" points="253,207.22 255.0,207.22 256,218.58" stroke="none" /><polygon fill="#f9da5a" points="255.0,207.22 258.0,218.58 256,218.58" stroke="none" /><polygon fill="#f8d959" points="255.0,207.22 268.8930898576845,207.22 258.0,218.58" stroke="none" /><polygon fill="#f5d554" points="268.8930898576845,207.22 271.49831556634985,218.58 258.0,218.58" stroke="none" /><polygon fill="#f3d250" points="268.8930898576845,207.22 281.66058217411216,207.22 271.49831556634985,218.58" stroke="none" /><polygon fill="#f0ce4c" points="281.66058217411216,207.22 282.9970394802512,218.58 271.49831556634985,218.58" stroke="none" /><polygon fill="#efcd49" points="281.66058217411216,207.22 289.4745760272543,207.22 282.9970394802512,218.58" stroke="none" /><polygon fill="#ecc844" points="289.4745760272543,207.22 297.99601861137234,218.58 282.9970394802512,218.58" stroke="none" /><polygon fill="#ebc742" points="289.4745760272543,207.22 298.0699692657106,207.22 297.99601861137234,218.58" stroke="none" /><polygon fill="#e8c33e" points="298.0699692657106,207.22 302.99489565560555,218.58 297.99601861137234,218.58" stroke="none" /><polygon fill="#f6d654" points="257.0,218.58 241.50168443365018,218.58 253.0,228.52" stroke="none" /><polygon fill="#f4d34f" points="241.50168443365018,218.58 239.69374705211615,228.52 253.0,228.52" stroke="none" /><polygon fill="#f0ce4b" points="241.50168443365018,218.58 227.0029605197488,218.58 239.69374705211615,228.52" stroke="none" /><polygon fill="#eecc48" points="227.0029605197488,218.58 231.85567663705265,228.52 239.69374705211615,228.52" stroke="none" /><polygon fill="#ecc946" points="227.0029605197488,218.58 220.0039813886277,218.58 231.85567663705265,228.52" stroke="none" /><polygon fill="#ebc744" points="220.0039813886277,218.58 223.18522030500185,228.52 231.85567663705265,228.52" stroke="none" /><polygon fill="#e8c340" points="220.0039813886277,218.58 206.00510434439448,218.58 223.18522030500185,228.52" stroke="none" /><polygon fill="#e6c13e" points="206.00510434439448,218.58 214.64771833974595,228.52 223.18522030500185,228.52" stroke="none" /><polygon fill="#ecc845" points="206.00510434439448,218.58 256,218.58 214.64771833974595,228.52" stroke="none" /><polygon fill="#f3d24e" points="256,218.58 257,228.52 214.64771833974595,228.52" stroke="none" /><polygon fill="#f8d957" points="256,218.58 258.0,218.58 257,228.52" stroke="none" /><polygon fill="#f8d955" points="258.0,218.58 256.0,228.52 257,228.52" stroke="none" /><polygon fill="#f6d654" points="258.0,218.58 271.49831556634985,218.58 256.0,228.52" stroke="none" /><polygon fill="#f4d350" points="271.49831556634985,218.58 271.3062529478838,228.52 256.0,228.52" stroke="none" /><polygon fill="#f0cf4c" points="271.49831556634985,218.58 282.9970394802512,218.58 271.3062529478838,228.52" stroke="none" /><polygon fill="#efcd49" points="282.9970394802512,218.58 279.1443233629474,228.52 271.3062529478838,228.52" stroke="none" /><polygon fill="#ecc845" points="282.9970394802512,218.58 297.99601861137234,218.58 279.1443233629474,228.52" stroke="none" /><polygon fill="#eac643" points="297.99601861137234,218.58 291.81477969499815,228.52 279.1443233629474,228.52" stroke="none" /><polygon fill="#e7c23e" points="297.99601861137234,218.58 302.99489565560555,218.58 291.81477969499815,228.52" stroke="none" /><polygon fill="#e6c13d" points="302.99489565560555,218.58 301.35228166025405,228.52 291.81477969499815,228.52" stroke="none" /><polygon fill="#f6d450" points="253.0,228.52 239.69374705211615,228.52 259.0,239.88" stroke="none" /><polygon fill="#f3d24d" points="239.69374705211615,228.52 242.04120450999054,239.88 259.0,239.88" stroke="none" /><polygon fill="#f0cd49" points="239.69374705211615,228.52 231.85567663705265,228.52 242.04120450999054,239.88" stroke="none" /><polygon fill="#eecb47" points="231.85567663705265,228.52 234.98151095695306,239.88 242.04120450999054,239.88" stroke="none" /><polygon fill="#ecc845" points="231.85567663705265,228.52 223.18522030500185,228.52 234.98151095695306,239.88" stroke="none" /><polygon fill="#eac744" points="223.18522030500185,228.52 230.7337561145231,239.88 234.98151095695306,239.88" stroke="none" /><polygon fill="#e9c341" points="223.18522030500185,228.52 214.64771833974595,228.52 230.7337561145231,239.88" stroke="none" /><polygon fill="#e6c240" points="214.64771833974595,228.52 220.76122578785012,239.88 230.7337561145231,239.88" stroke="none" /><polygon fill="#ecc845" points="214.64771833974595,228.52 257,228.52 220.76122578785012,239.88" stroke="none" /><polygon fill="#f1d04b" points="257,228.52 254,239.88 220.76122578785012,239.88" stroke="none" /><polygon fill="#f8d752" points="257,228.52 256.0,228.52 254,239.88" stroke="none" /><polygon fill="#f7d751" points="256.0,228.52 254.0,239.88 254,239.88" stroke="none" /><polygon fill="#f6d550" points="256.0,228.52 271.3062529478838,228.52 254.0,239.88" stroke="none" /><polygon fill="#f3d24d" points="271.3062529478838,228.52 269.95879549000944,239.88 254.0,239.88" stroke="none" /><polygon fill="#f0cd49" points="271.3062529478838,228.52 279.1443233629474,228.52 269.95879549000944,239.88" stroke="none" /><polygon fill="#edcb47" points="279.1443233629474,228.52 279.01848904304694,239.88 269.95879549000944,239.88" stroke="none" /><polygon fill="#ebc744" points="279.1443233629474,228.52 291.81477969499815,228.52 279.01848904304694,239.88" stroke="none" /><polygon fill="#e9c643" points="291.81477969499815,228.52 281.2662438854769,239.88 279.01848904304694,239.88" stroke="none" /><polygon fill="#e7c240" points="291.81477969499815,228.52 301.35228166025405,228.52 281.2662438854769,239.88" stroke="none" /><polygon fill="#e5c13f" points="301.35228166025405,228.52 293.2387742121499,239.88 281.2662438854769,239.88" stroke="none" /><polygon fill="#f6d34c" points="259.0,239.88 242.04120450999054,239.88 256.0,251.95" stroke="none" /><polygon fill="#f2cf49" points="242.04120450999054,239.88 246.5562808798244,251.95 256.0,251.95" stroke="none" /><polygon fill="#efcc47" points="242.04120450999054,239.88 234.98151095695306,239.88 246.5562808798244,251.95" stroke="none" /><polygon fill="#eecb46" points="234.98151095695306,239.88 241.91709972817623,251.95 246.5562808798244,251.95" stroke="none" /><polygon fill="#edc844" points="234.98151095695306,239.88 230.7337561145231,239.88 241.91709972817623,251.95" stroke="none" /><polygon fill="#ecc743" points="230.7337561145231,239.88 236.4057548068577,251.95 241.91709972817623,251.95" stroke="none" /><polygon fill="#e9c441" points="230.7337561145231,239.88 220.76122578785012,239.88 236.4057548068577,251.95" stroke="none" /><polygon fill="#e9c441" points="220.76122578785012,239.88 236.44327539340728,251.95 236.4057548068577,251.95" stroke="none" /><polygon fill="#edc945" points="220.76122578785012,239.88 254,239.88 236.44327539340728,251.95" stroke="none" /><polygon fill="#f2cf49" points="254,239.88 254,251.95 236.44327539340728,251.95" stroke="none" /><polygon fill="#f6d44d" points="254,239.88 254.0,239.88 254,251.95" stroke="none" /><polygon fill="#f5d34b" points="254.0,239.88 253.0,251.95 254,251.95" stroke="none" /><polygon fill="#f6d44c" points="254.0,239.88 269.95879549000944,239.88 253.0,251.95" stroke="none" /><polygon fill="#f3d04a" points="269.95879549000944,239.88 264.4437191201756,251.95 253.0,251.95" stroke="none" /><polygon fill="#efcc47" points="269.95879549000944,239.88 279.01848904304694,239.88 264.4437191201756,251.95" stroke="none" /><polygon fill="#eeca46" points="279.01848904304694,239.88 270.08290027182375,251.95 264.4437191201756,251.95" stroke="none" /><polygon fill="#ecc844" points="279.01848904304694,239.88 281.2662438854769,239.88 270.08290027182375,251.95" stroke="none" /><polygon fill="#ecc743" points="281.2662438854769,239.88 276.59424519314234,251.95 270.08290027182375,251.95" stroke="none" /><polygon fill="#e8c441" points="281.2662438854769,239.88 293.2387742121499,239.88 276.59424519314234,251.95" stroke="none" /><polygon fill="#e7c240" points="293.2387742121499,239.88 281.5567246065927,251.95 276.59424519314234,251.95" stroke="none" /><polygon fill="#f4d147" points="256.0,251.95 246.5562808798244,251.95 253.0,264.02" stroke="none" /><polygon fill="#f1ce45" points="246.5562808798244,251.95 247.31249084560923,264.02 253.0,264.02" stroke="none" /><polygon fill="#f0cc44" points="246.5562808798244,251.95 241.91709972817623,251.95 247.31249084560923,264.02" stroke="none" /><polygon fill="#efcb43" points="241.91709972817623,251.95 246.0037717892526,264.02 247.31249084560923,264.02" stroke="none" /><polygon fill="#eec943" points="241.91709972817623,251.95 236.4057548068577,251.95 246.0037717892526,264.02" stroke="none" /><polygon fill="#ecc842" points="236.4057548068577,251.95 240.5567965441673,264.02 246.0037717892526,264.02" stroke="none" /><polygon fill="#ebc741" points="236.4057548068577,251.95 236.44327539340728,251.95 240.5567965441673,264.02" stroke="none" /><polygon fill="#ebc640" points="236.44327539340728,251.95 237.76512377457345,264.02 240.5567965441673,264.02" stroke="none" /><polygon fill="#eeca43" points="236.44327539340728,251.95 254,251.95 237.76512377457345,264.02" stroke="none" /><polygon fill="#f1ce45" points="254,251.95 256,264.02 237.76512377457345,264.02" stroke="none" /><polygon fill="#f5d248" points="254,251.95 253.0,251.95 256,264.02" stroke="none" /><polygon fill="#f5d247" points="253.0,251.95 256.0,264.02 256,264.02" stroke="none" /><polygon fill="#f5d248" points="253.0,251.95 264.4437191201756,251.95 256.0,264.02" stroke="none" /><polygon fill="#f3cf46" points="264.4437191201756,251.95 260.68750915439074,264.02 256.0,264.02" stroke="none" /><polygon fill="#f1cd45" points="264.4437191201756,251.95 270.08290027182375,251.95 260.68750915439074,264.02" stroke="none" /><polygon fill="#f0cc44" points="270.08290027182375,251.95 263.9962282107474,264.02 260.68750915439074,264.02" stroke="none" /><polygon fill="#eec943" points="270.08290027182375,251.95 276.59424519314234,251.95 263.9962282107474,264.02" stroke="none" /><polygon fill="#edc842" points="276.59424519314234,251.95 271.4432034558327,264.02 263.9962282107474,264.02" stroke="none" /><polygon fill="#eac540" points="276.59424519314234,251.95 281.5567246065927,251.95 271.4432034558327,264.02" stroke="none" /><polygon fill="#eac540" points="281.5567246065927,251.95 273.23487622542655,264.02 271.4432034558327,264.02" stroke="none" /><polygon fill="#f3cf42" points="253.0,264.02 247.31249084560923,264.02 256.0,276.8" stroke="none" /><polygon fill="#f3cf42" points="247.31249084560923,264.02 253.9109203365739,276.8 256.0,276.8" stroke="none" /><polygon fill="#f1cc41" points="247.31249084560923,264.02 246.0037717892526,264.02 253.9109203365739,276.8" stroke="none" /><polygon fill="#f0cb41" points="246.0037717892526,264.02 244.0555569551905,276.8 253.9109203365739,276.8" stroke="none" /><polygon fill="#edc83f" points="246.0037717892526,264.02 240.5567965441673,264.02 244.0555569551905,276.8" stroke="none" /><polygon fill="#edc73f" points="240.5567965441673,264.02 242.97126625008377,276.8 244.0555569551905,276.8" stroke="none" /><polygon fill="#ebc63e" points="240.5567965441673,264.02 237.76512377457345,264.02 242.97126625008377,276.8" stroke="none" /><polygon fill="#ebc53e" points="237.76512377457345,264.02 238.57854647446635,276.8 242.97126625008377,276.8" stroke="none" /><polygon fill="#eec940" points="237.76512377457345,264.02 256,264.02 238.57854647446635,276.8" stroke="none" /><polygon fill="#f1cd41" points="256,264.02 255,276.8 238.57854647446635,276.8" stroke="none" /><polygon fill="#f5d143" points="256,264.02 256.0,264.02 255,276.8" stroke="none" /><polygon fill="#f5d143" points="256.0,264.02 258.0,276.8 255,276.8" stroke="none" /><polygon fill="#f4d043" points="256.0,264.02 260.68750915439074,264.02 258.0,276.8" stroke="none" /><polygon fill="#f3cf42" points="260.68750915439074,264.02 261.0890796634261,276.8 258.0,276.8" stroke="none" /><polygon fill="#f2cd42" points="260.68750915439074,264.02 263.9962282107474,264.02 261.0890796634261,276.8" stroke="none" /><polygon fill="#f1cd41" points="263.9962282107474,264.02 261.94444304480953,276.8 261.0890796634261,276.8" stroke="none" /><polygon fill="#efca40" points="263.9962282107474,264.02 271.4432034558327,264.02 261.94444304480953,276.8" stroke="none" /><polygon fill="#eec940" points="271.4432034558327,264.02 269.0287337499162,276.8 261.94444304480953,276.8" stroke="none" /><polygon fill="#ebc63e" points="271.4432034558327,264.02 273.23487622542655,264.02 269.0287337499162,276.8" stroke="none" /><polygon fill="#ecc73f" points="273.23487622542655,264.02 268.42145352553365,276.8 269.0287337499162,276.8" stroke="none" /><polygon fill="#f5d143" points="256.0,276.8 253.9109203365739,276.8 257.0,291.0" stroke="none" /><polygon fill="#f4d043" points="253.9109203365739,276.8 249.3075,291.0 257.0,291.0" stroke="none" /><polygon fill="#f1cc41" points="253.9109203365739,276.8 244.0555569551905,276.8 249.3075,291.0" stroke="none" /><polygon fill="#efca40" points="244.0555569551905,276.8 244.995,291.0 249.3075,291.0" stroke="none" /><polygon fill="#edc83f" points="244.0555569551905,276.8 242.97126625008377,276.8 244.995,291.0" stroke="none" /><polygon fill="#edc83f" points="242.97126625008377,276.8 243.545,291.0 244.995,291.0" stroke="none" /><polygon fill="#ecc73f" points="242.97126625008377,276.8 238.57854647446635,276.8 243.545,291.0" stroke="none" /><polygon fill="#ebc53e" points="238.57854647446635,276.8 237.75,291.0 243.545,291.0" stroke="none" /><polygon fill="#edc83f" points="238.57854647446635,276.8 255,276.8 237.75,291.0" stroke="none" /><polygon fill="#f1cd41" points="255,276.8 256,291.0 237.75,291.0" stroke="none" /><polygon fill="#f5d143" points="255,276.8 258.0,276.8 256,291.0" stroke="none" /><polygon fill="#f5d143" points="258.0,276.8 256.0,291.0 256,291.0" stroke="none" /><polygon fill="#f4d043" points="258.0,276.8 261.0890796634261,276.8 256.0,291.0" stroke="none" /><polygon fill="#f3cf42" points="261.0890796634261,276.8 260.6925,291.0 256.0,291.0" stroke="none" /><polygon fill="#f2ce42" points="261.0890796634261,276.8 261.94444304480953,276.8 260.6925,291.0" stroke="none" /><polygon fill="#f1cc41" points="261.94444304480953,276.8 267.005,291.0 260.6925,291.0" stroke="none" /><polygon fill="#efca40" points="261.94444304480953,276.8 269.0287337499162,276.8 267.005,291.0" stroke="none" /><polygon fill="#edc83f" points="269.0287337499162,276.8 269.455,291.0 267.005,291.0" stroke="none" /><polygon fill="#edc83f" points="269.0287337499162,276.8 268.42145352553365,276.8 269.455,291.0" stroke="none" /><polygon fill="#ecc73f" points="268.42145352553365,276.8 273.25,291.0 269.455,291.0" stroke="none" /><path d="M 242 211 A 8 11 0 0 0 242 227 Z" fill="#f6d244" stroke="#d6ae34" stroke-width="1" /><circle cx="239" cy="227" fill="#f6d244" r="3" stroke="#d6ae34" stroke-width="1" /><path d="M 270 211 A 8 11 0 0 1 270 227 Z" fill="#f6d244" stroke="#d6ae34" stroke-width="1" /><circle cx="273" cy="227" fill="#f6d244" r="3" stroke="#d6ae34" stroke-width="1" /><path d="M 223 214 A 15 9 0 0 0 253 214 Z" fill="#e8e0d8" stroke="#3a2a1a" stroke-width="1.5" /><path d="M 234 215 A 4 4 0 0 0 242 215 Z" fill="#3a2a1a" stroke="none" /><circle cx="239" cy="213" fill="white" r="2" stroke="none" /><path d="M 221 214 Q 238 211 255 214" fill="none" stroke="#3a2a1a" stroke-width="3" /><line stroke="#3a2a1a" stroke-width="2" x1="231" x2="231" y1="214" y2="211" /><line stroke="#3a2a1a" stroke-width="2" x1="238" x2="238" y1="214" y2="211" /><line stroke="#3a2a1a" stroke-width="2" x1="245" x2="245" y1="214" y2="211" /><path d="M 259 214 A 15 9 0 0 0 289 214 Z" fill="#e8e0d8" stroke="#3a2a1a" stroke-width="1.5" /><path d="M 270 215 A 4 4 0 0 0 278 215 Z" fill="#3a2a1a" stroke="none" /><circle cx="275" cy="213" fill="white" r="2" stroke="none" /><path d="M 257 214 Q 274 211 291 214" fill="none" stroke="#3a2a1a" stroke-width="3" /><line stroke="#3a2a1a" stroke-width="2" x1="267" x2="267" y1="214" y2="211" /><line stroke="#3a2a1a" stroke-width="2" x1="274" x2="274" y1="214" y2="211" /><line stroke="#3a2a1a" stroke-width="2" x1="281" x2="281" y1="214" y2="211" /><line stroke="#3a2a1a" stroke-width="2" x1="229" x2="247" y1="205" y2="205" /><line stroke="#3a2a1a" stroke-width="2" x1="261" x2="287" y1="209" y2="209" /><path d="M 222 227 A 7 4 0 0 0 236 227 Z" fill="#e88060" fill-opacity="0.249622813689695" stroke="none" /><path d="M 274 226 A 6 4 0 0 0 286 226 Z" fill="#e88060" fill-opacity="0.270883095810234" stroke="none" /><circle cx="256" cy="227" fill="#d6ae34" r="2" stroke="none" /><path d="M 241 235 Q 256 242 271 235" fill="none" stroke="#c06050" stroke-width="3" /><path d="M 239 233 Q 256 244 273 233" fill="none" stroke="#a04030" stroke-width="1.5" /><path d="M 239 234 Q 256 240 273 234" fill="none" stroke="#f0a0a0" stroke-width="1" /><circle cx="276" cy="226" fill="#d6ae34" fill-opacity="0.15" r="1.720840731331807" stroke="none" /><circle cx="262" cy="190" fill="#d6ae34" fill-opacity="0.15" r="0.9536081157694755" stroke="none" /><circle cx="279" cy="228" fill="#d6ae34" fill-opacity="0.15" r="1.8016620558211998" stroke="none" /><circle cx="259" cy="204" fill="#d6ae34" fill-opacity="0.15" r="1.1092595814540114" stroke="none" /><circle cx="233" cy="236" fill="#d6ae34" fill-opacity="0.15" r="1.1117001740578483" stroke="none" /><circle cx="256" cy="252" fill="#d6ae34" fill-opacity="0.15" r="1.8760033036226926" stroke="none" /><circle cx="264" cy="226" fill="#d6ae34" fill-opacity="0.15" r="1.2849279854152376" stroke="none" /><circle cx="216" cy="211" fill="#d6ae34" fill-opacity="0.15" r="0.52785802355149" stroke="none" /><circle cx="233" cy="199" fill="#d6ae34" fill-opacity="0.15" r="1.283361707138753" stroke="none" /><circle cx="223" cy="236" fill="#d6ae34" fill-opacity="0.15" r="0.7105107393780011" stroke="none" /><circle cx="271" cy="198" fill="#d6ae34" fill-opacity="0.15" r="0.6597510592995388" stroke="none" /><circle cx="227" cy="228" fill="#d6ae34" fill-opacity="0.15" r="0.6435498715799999" stroke="none" /><circle cx="290" cy="185" fill="#d6ae34" fill-opacity="0.15" r="1.0429076566712197" stroke="none" /><circle cx="268" cy="185" fill="#d6ae34" fill-opacity="0.15" r="0.6935715599589849" stroke="none" /><circle cx="255" cy="215" fill="#d6ae34" fill-opacity="0.15" r="1.635772588084312" stroke="none" /><circle cx="291" cy="218" fill="#d6ae34" fill-opacity="0.15" r="1.8727348858666382" stroke="none" /><circle cx="251" cy="186" fill="#d6ae34" fill-opacity="0.15" r="0.7612408586781291" stroke="none" /><circle cx="245" cy="195" fill="#d6ae34" fill-opacity="0.15" r="1.21001656778107" stroke="none" /><circle cx="224" cy="254" fill="#d6ae34" fill-opacity="0.15" r="0.5830502666230123" stroke="none" /><circle cx="254" cy="179" fill="#d6ae34" fill-opacity="0.15" r="1.896423055436247" stroke="none" /><circle cx="223" cy="231" fill="#d6ae34" fill-opacity="0.15" r="0.8497994982386677" stroke="none" /><circle cx="250" cy="193" fill="#d6ae34" fill-opacity="0.15" r="1.8495866283321358" stroke="none" /><circle cx="290" cy="244" fill="#d6ae34" fill-opacity="0.15" r="1.0672235311274445" stroke="none" /><circle cx="259" cy="204" fill="#d6ae34" fill-opacity="0.15" r="1.3763208785410777" stroke="none" /><circle cx="255" cy="191" fill="#d6ae34" fill-opacity="0.15" r="0.6468779330036686" stroke="none" /><circle cx="291" cy="225" fill="#d6ae34" fill-opacity="0.15" r="1.8656930479000138" stroke="none" /><circle cx="219" cy="242" fill="#d6ae34" fill-opacity="0.15" r="1.4551628084774013" stroke="none" /><circle cx="273" cy="243" fill="#d6ae34" fill-opacity="0.15" r="0.713787463848737" stroke="none" /><circle cx="219" cy="252" fill="#d6ae34" fill-opacity="0.15" r="1.3970060554594304" stroke="none" /><circle cx="222" cy="245" fill="#d6ae34" fill-opacity="0.15" r="1.8395896325027794" stroke="none" /><circle cx="274" cy="250" fill="#d6ae34" fill-opacity="0.15" r="1.2534350589111116" stroke="none" /><circle cx="288" cy="199" fill="#d6ae34" fill-opacity="0.15" r="1.837190884478039" stroke="none" /><circle cx="248" cy="253" fill="#d6ae34" fill-opacity="0.15" r="1.7423339994515077" stroke="none" /><circle cx="232" cy="191" fill="#d6ae34" fill-opacity="0.15" r="1.51385498521993" stroke="none" /><circle cx="239" cy="199" fill="#d6ae34" fill-opacity="0.15" r="0.5080205254481421" stroke="none" /><circle cx="286" cy="202" fill="#d6ae34" fill-opacity="0.15" r="1.1768145785585573" stroke="none" /><circle cx="219" cy="222" fill="#d6ae34" fill-opacity="0.15" r="1.1869091032168126" stroke="none" /><circle cx="224" cy="219" fill="#d6ae34" fill-opacity="0.15" r="1.4952077271547735" stroke="none" /><circle cx="284" cy="199" fill="#d6ae34" fill-opacity="0.15" r="1.8005520400140504" stroke="none" /><circle cx="245" cy="199" fill="#d6ae34" fill-opacity="0.15" r="1.081893123413406" stroke="none" /><circle cx="293" cy="202" fill="#d6ae34" fill-opacity="0.15" r="0.5492975217053336" stroke="none" /><circle cx="288" cy="237" fill="#d6ae34" fill-opacity="0.15" r="1.8661370803507698" stroke="none" /><polygon fill="#ba9a28" points="246,287.0 266,287.0 266,322.0 246,322.0" stroke="none" /></svg>