<?xml version="1.0" encoding="utf-8" ?>
<svg baseProfile="full" height="512" version="1.1" width="512" xmlns="http://www.w3.org/2000/svg" xmlns:ev="http://www.w3.org/2001/xml-events" xmlns:xlink="http://www.w3.org/1999/xlink"><defs /><polygon fill="#fbdd5f" points="257.0,151.0 235.992,151.0 255.0,166.18" stroke="none" /><polygon fill="#fada57" points="235.992,151.0 234.348416518168,166.18 255.0,166.18" stroke="none" /><polygon fill="#f9d74d" points="235.992,151.0 223.59199999999998,151.0 234.348416518168,166.18" stroke="none" /><polygon fill="#f8d548" points="223.59199999999998,151.0 223.21842903193163,166.18 234.348416518168,166.18" stroke="none" /><polygon fill="#f7d341" points="223.59199999999998,151.0 212.072,151.0 223.21842903193163,166.18" stroke="none" /><polygon fill="#f6d13c" points="212.072,151.0 209.91443904294255,166.18 223.21842903193163,166.18" stroke="none" /><polygon fill="#f5ce34" points="212.072,151.0 199.4,151.0 209.91443904294255,166.18" stroke="none" /><polygon fill="#f5cd30" points="199.4,151.0 197.48005005505456,166.18 209.91443904294255,166.18" stroke="none" /><polygon fill="#f7d23e" points="199.4,151.0 255,151.0 197.48005005505456,166.18" stroke="none" /><polygon fill="#fad952" points="255,151.0 258,166.18 197.48005005505456,166.18" stroke="none" /><polygon fill="#fcdf65" points="255,151.0 256.0,151.0 258,166.18" stroke="none" /><polygon fill="#fcdf65" points="256.0,151.0 256.0,166.18 258,166.18" stroke="none" /><polygon fill="#fcdd5f" points="256.0,151.0 275.008,151.0 256.0,166.18" stroke="none" /><polygon fill="#fbdb58" points="275.008,151.0 275.651583481832,166.18 256.0,166.18" stroke="none" /><polygon fill="#f9d74d" points="275.008,151.0 290.408,151.0 275.651583481832,166.18" stroke="none" /><polygon fill="#f8d548" points="290.408,151.0 289.78157096806837,166.18 275.651583481832,166.18" stroke="none" /><polygon fill="#f7d23f" points="290.408,151.0 300.928,151.0 289.78157096806837,166.18" stroke="none" /><polygon fill="#f7d13d" points="300.928,151.0 297.08556095705745,166.18 289.78157096806837,166.18" stroke="none" /><polygon fill="#f5ce35" points="300.928,151.0 313.6,151.0 297.08556095705745,166.18" stroke="none" /><polygon fill="#f5cd31" points="313.6,151.0 312.51994994494544,166.18 297.08556095705745,166.18" stroke="none" /><polygon fill="#fbdd5e" points="255.0,166.18 234.348416518168,166.18 255.0,182.05" stroke="none" /><polygon fill="#f9d956" points="234.348416518168,166.18 240.35213219899998,182.05 255.0,182.05" stroke="none" /><polygon fill="#f9d74e" points="234.348416518168,166.18 223.21842903193163,166.18 240.35213219899998,182.05" stroke="none" /><polygon fill="#f7d449" points="223.21842903193163,166.18 225.98253538006057,182.05 240.35213219899998,182.05" stroke="none" /><polygon fill="#f7d341" points="223.21842903193163,166.18 209.91443904294255,166.18 225.98253538006057,182.05" stroke="none" /><polygon fill="#f5cf3c" points="209.91443904294255,166.18 213.28685792490904,182.05 225.98253538006057,182.05" stroke="none" /><polygon fill="#f5ce34" points="209.91443904294255,166.18 197.48005005505456,166.18 213.28685792490904,182.05" stroke="none" /><polygon fill="#f3cb31" points="197.48005005505456,166.18 205.52161272424235,182.05 213.28685792490904,182.05" stroke="none" /><polygon fill="#f7d341" points="197.48005005505456,166.18 258,166.18 205.52161272424235,182.05" stroke="none" /><polygon fill="#f9d853" points="258,166.18 258,182.05 205.52161272424235,182.05" stroke="none" /><polygon fill="#fcdf64" points="258,166.18 256.0,166.18 258,182.05" stroke="none" /><polygon fill="#fcdf63" points="256.0,166.18 254.0,182.05 258,182.05" stroke="none" /><polygon fill="#fcdd60" points="256.0,166.18 275.651583481832,166.18 254.0,182.05" stroke="none" /><polygon fill="#fada58" points="275.651583481832,166.18 271.647867801,182.05 254.0,182.05" stroke="none" /><polygon fill="#f9d74e" points="275.651583481832,166.18 289.78157096806837,166.18 271.647867801,182.05" stroke="none" /><polygon fill="#f7d448" points="289.78157096806837,166.18 289.01746461993946,182.05 271.647867801,182.05" stroke="none" /><polygon fill="#f7d341" points="289.78157096806837,166.18 297.08556095705745,166.18 289.01746461993946,182.05" stroke="none" /><polygon fill="#f5cf3d" points="297.08556095705745,166.18 298.71314207509096,182.05 289.01746461993946,182.05" stroke="none" /><polygon fill="#f5cf36" points="297.08556095705745,166.18 312.51994994494544,166.18 298.71314207509096,182.05" stroke="none" /><polygon fill="#f3cb32" points="312.51994994494544,166.18 306.47838727575765,182.05 298.71314207509096,182.05" stroke="none" /><polygon fill="#f9da58" points="255.0,182.05 240.35213219899998,182.05 257.0,195.85" stroke="none" /><polygon fill="#f8d751" points="240.35213219899998,182.05 238.01496175340154,195.85 257.0,195.85" stroke="none" /><polygon fill="#f6d349" points="240.35213219899998,182.05 225.98253538006057,182.05 238.01496175340154,195.85" stroke="none" /><polygon fill="#f4cf43" points="225.98253538006057,182.05 223.38993277870574,195.85 238.01496175340154,195.85" stroke="none" /><polygon fill="#f3cd3d" points="225.98253538006057,182.05 213.28685792490904,182.05 223.38993277870574,195.85" stroke="none" /><polygon fill="#f1ca38" points="213.28685792490904,182.05 213.4899095989491,195.85 223.38993277870574,195.85" stroke="none" /><polygon fill="#f0c934" points="213.28685792490904,182.05 205.52161272424235,182.05 213.4899095989491,195.85" stroke="none" /><polygon fill="#efc630" points="205.52161272424235,182.05 203.4998841012168,195.85 213.4899095989491,195.85" stroke="none" /><polygon fill="#f3ce3e" points="205.52161272424235,182.05 258,182.05 203.4998841012168,195.85" stroke="none" /><polygon fill="#f6d44c" points="258,182.05 256,195.85 203.4998841012168,195.85" stroke="none" /><polygon fill="#fbdd5d" points="258,182.05 254.0,182.05 256,195.85" stroke="none" /><polygon fill="#fbdc5b" points="254.0,182.05 258.0,195.85 256,195.85" stroke="none" /><polygon fill="#f9da58" points="254.0,182.05 271.647867801,182.05 258.0,195.85" stroke="none" /><polygon fill="#f7d64f" points="271.647867801,182.05 276.98503824659844,195.85 258.0,195.85" stroke="none" /><polygon fill="#f5d248" points="271.647867801,182.05 289.01746461993946,182.05 276.98503824659844,195.85" stroke="none" /><polygon fill="#f4cf41" points="289.01746461993946,182.05 287.61006722129423,195.85 276.98503824659844,195.85" stroke="none" /><polygon fill="#f2cd3c" points="289.01746461993946,182.05 298.71314207509096,182.05 287.61006722129423,195.85" stroke="none" /><polygon fill="#f1ca38" points="298.71314207509096,182.05 297.5100904010509,195.85 287.61006722129423,195.85" stroke="none" /><polygon fill="#f0c934" points="298.71314207509096,182.05 306.47838727575765,182.05 297.5100904010509,195.85" stroke="none" /><polygon fill="#efc62f" points="306.47838727575765,182.05 310.5001158987832,195.85 297.5100904010509,195.85" stroke="none" /><polygon fill="#f8d751" points="257.0,195.85 238.01496175340154,195.85 255.0,207.58" stroke="none" /><polygon fill="#f6d34b" points="238.01496175340154,195.85 242.70980348315328,207.58 255.0,207.58" stroke="none" /><polygon fill="#f4d044" points="238.01496175340154,195.85 223.38993277870574,195.85 242.70980348315328,207.58" stroke="none" /><polygon fill="#f2cd40" points="223.38993277870574,195.85 228.36874551584515,207.58 242.70980348315328,207.58" stroke="none" /><polygon fill="#f0c93a" points="223.38993277870574,195.85 213.4899095989491,195.85 228.36874551584515,207.58" stroke="none" /><polygon fill="#efc737" points="213.4899095989491,195.85 217.49589914199862,207.58 228.36874551584515,207.58" stroke="none" /><polygon fill="#edc532" points="213.4899095989491,195.85 203.4998841012168,195.85 217.49589914199862,207.58" stroke="none" /><polygon fill="#ebc12e" points="203.4998841012168,195.85 203.63576813076747,207.58 217.49589914199862,207.58" stroke="none" /><polygon fill="#f0c939" points="203.4998841012168,195.85 256,195.85 203.63576813076747,207.58" stroke="none" /><polygon fill="#f4d045" points="256,195.85 253,207.58 203.63576813076747,207.58" stroke="none" /><polygon fill="#f9d955" points="256,195.85 258.0,195.85 253,207.58" stroke="none" /><polygon fill="#fad954" points="258.0,195.85 257.0,207.58 253,207.58" stroke="none" /><polygon fill="#f7d64f" points="258.0,195.85 276.98503824659844,195.85 257.0,207.58" stroke="none" /><polygon fill="#f6d249" points="276.98503824659844,195.85 273.2901965168467,207.58 257.0,207.58" stroke="none" /><polygon fill="#f3cf43" points="276.98503824659844,195.85 287.61006722129423,195.85 273.2901965168467,207.58" stroke="none" /><polygon fill="#f2cc3f" points="287.61006722129423,195.85 285.63125448415485,207.58 273.2901965168467,207.58" stroke="none" /><polygon fill="#f0c93a" points="287.61006722129423,195.85 297.5100904010509,195.85 285.63125448415485,207.58" stroke="none" /><polygon fill="#efc737" points="297.5100904010509,195.85 293.5041008580014,207.58 285.63125448415485,207.58" stroke="none" /><polygon fill="#edc532" points="297.5100904010509,195.85 310.5001158987832,195.85 293.5041008580014,207.58" stroke="none" /><polygon fill="#ebc22f" points="310.5001158987832,195.85 304.3642318692325,207.58 293.5041008580014,207.58" stroke="none" /><polygon fill="#f7d64c" points="255.0,207.58 242.70980348315328,207.58 259.0,218.62" stroke="none" /><polygon fill="#f6d247" points="242.70980348315328,207.58 241.7716617259582,218.62 259.0,218.62" stroke="none" /><polygon fill="#f2ce41" points="242.70980348315328,207.58 228.36874551584515,207.58 241.7716617259582,218.62" stroke="none" /><polygon fill="#f0ca3d" points="228.36874551584515,207.58 228.71989030622956,218.62 241.7716617259582,218.62" stroke="none" /><polygon fill="#eec738" points="228.36874551584515,207.58 217.49589914199862,207.58 228.71989030622956,218.62" stroke="none" /><polygon fill="#ecc434" points="217.49589914199862,207.58 215.27847317044666,218.62 228.71989030622956,218.62" stroke="none" /><polygon fill="#eac02f" points="217.49589914199862,207.58 203.63576813076747,207.58 215.27847317044666,218.62" stroke="none" /><polygon fill="#e7bd2b" points="203.63576813076747,207.58 203.79291432108548,218.62 215.27847317044666,218.62" stroke="none" /><polygon fill="#ecc535" points="203.63576813076747,207.58 253,207.58 203.79291432108548,218.62" stroke="none" /><polygon fill="#f2cc3f" points="253,207.58 254,218.62 203.79291432108548,218.62" stroke="none" /><polygon fill="#f8d74e" points="253,207.58 257.0,207.58 254,218.62" stroke="none" /><polygon fill="#f8d64c" points="257.0,207.58 254.0,218.62 254,218.62" stroke="none" /><polygon fill="#f7d54b" points="257.0,207.58 273.2901965168467,207.58 254.0,218.62" stroke="none" /><polygon fill="#f5d145" points="273.2901965168467,207.58 272.2283382740418,218.62 254.0,218.62" stroke="none" /><polygon fill="#f1cc40" points="273.2901965168467,207.58 285.63125448415485,207.58 272.2283382740418,218.62" stroke="none" /><polygon fill="#efc93a" points="285.63125448415485,207.58 288.28010969377044,218.62 272.2283382740418,218.62" stroke="none" /><polygon fill="#edc637" points="285.63125448415485,207.58 293.5041008580014,207.58 288.28010969377044,218.62" stroke="none" /><polygon fill="#ecc433" points="293.5041008580014,207.58 294.72152682955334,218.62 288.28010969377044,218.62" stroke="none" /><polygon fill="#eac231" points="293.5041008580014,207.58 304.3642318692325,207.58 294.72152682955334,218.62" stroke="none" /><polygon fill="#e8bf2d" points="304.3642318692325,207.58 305.20708567891455,218.62 294.72152682955334,218.62" stroke="none" /><polygon fill="#f6d346" points="259.0,218.62 241.7716617259582,218.62 255.0,228.28" stroke="none" /><polygon fill="#f2cd40" points="241.7716617259582,218.62 234.18679526343203,228.28 255.0,228.28" stroke="none" /><polygon fill="#efca3b" points="241.7716617259582,218.62 228.71989030622956,218.62 234.18679526343203,228.28" stroke="none" /><polygon fill="#ecc436" points="228.71989030622956,218.62 219.9343674326987,228.28 234.18679526343203,228.28" stroke="none" /><polygon fill="#eac232" points="228.71989030622956,218.62 215.27847317044666,218.62 219.9343674326987,228.28" stroke="none" /><polygon fill="#e7bd2e" points="215.27847317044666,218.62 210.53242516811204,228.28 219.9343674326987,228.28" stroke="none" /><polygon fill="#e5bc2b" points="215.27847317044666,218.62 203.79291432108548,218.62 210.53242516811204,228.28" stroke="none" /><polygon fill="#e2b728" points="203.79291432108548,218.62 198.99028867706673,228.28 210.53242516811204,228.28" stroke="none" /><polygon fill="#e9c131" points="203.79291432108548,218.62 254,218.62 198.99028867706673,228.28" stroke="none" /><polygon fill="#f0ca3c" points="254,218.62 259,228.28 198.99028867706673,228.28" stroke="none" /><polygon fill="#f7d548" points="254,218.62 254.0,218.62 259,228.28" stroke="none" /><polygon fill="#f7d447" points="254.0,218.62 257.0,228.28 259,228.28" stroke="none" /><polygon fill="#f6d345" points="254.0,218.62 272.2283382740418,218.62 257.0,228.28" stroke="none" /><polygon fill="#f2cd3f" points="272.2283382740418,218.62 277.81320473656797,228.28 257.0,228.28" stroke="none" /><polygon fill="#eec83a" points="272.2283382740418,218.62 288.28010969377044,218.62 277.81320473656797,228.28" stroke="none" /><polygon fill="#ecc436" points="288.28010969377044,218.62 286.0656325673013,228.28 277.81320473656797,228.28" stroke="none" /><polygon fill="#eac333" points="288.28010969377044,218.62 294.72152682955334,218.62 286.0656325673013,228.28" stroke="none" /><polygon fill="#e8be30" points="294.72152682955334,218.62 302.467574831888,228.28 286.0656325673013,228.28" stroke="none" /><polygon fill="#e6bc2c" points="294.72152682955334,218.62 305.20708567891455,218.62 302.467574831888,228.28" stroke="none" /><polygon fill="#e2b728" points="305.20708567891455,218.62 315.0097113229333,228.28 302.467574831888,228.28" stroke="none" /><polygon fill="#f4cf3f" points="255.0,228.28 234.18679526343203,228.28 257.0,239.32" stroke="none" /><polygon fill="#f1cb3b" points="234.18679526343203,228.28 241.23308963065148,239.32 257.0,239.32" stroke="none" /><polygon fill="#edc536" points="234.18679526343203,228.28 219.9343674326987,228.28 241.23308963065148,239.32" stroke="none" /><polygon fill="#eac233" points="219.9343674326987,228.28 224.7733090478117,239.32 241.23308963065148,239.32" stroke="none" /><polygon fill="#e7bd2e" points="219.9343674326987,228.28 210.53242516811204,228.28 224.7733090478117,239.32" stroke="none" /><polygon fill="#e5ba2c" points="210.53242516811204,228.28 214.00548458153986,239.32 224.7733090478117,239.32" stroke="none" /><polygon fill="#e2b728" points="210.53242516811204,228.28 198.99028867706673,228.28 214.00548458153986,239.32" stroke="none" /><polygon fill="#dfb326" points="198.99028867706673,228.28 201.16087766864084,239.32 214.00548458153986,239.32" stroke="none" /><polygon fill="#e7be2f" points="198.99028867706673,228.28 259,228.28 201.16087766864084,239.32" stroke="none" /><polygon fill="#efc838" points="259,228.28 257,239.32 201.16087766864084,239.32" stroke="none" /><polygon fill="#f7d343" points="259,228.28 257.0,228.28 257,239.32" stroke="none" /><polygon fill="#f6d241" points="257.0,228.28 255.0,239.32 257,239.32" stroke="none" /><polygon fill="#f4cf3f" points="257.0,228.28 277.81320473656797,228.28 255.0,239.32" stroke="none" /><polygon fill="#f0ca3a" points="277.81320473656797,228.28 276.7669103693485,239.32 255.0,239.32" stroke="none" /><polygon fill="#edc536" points="277.81320473656797,228.28 286.0656325673013,228.28 276.7669103693485,239.32" stroke="none" /><polygon fill="#eac132" points="286.0656325673013,228.28 290.22669095218833,239.32 276.7669103693485,239.32" stroke="none" /><polygon fill="#e7bd2f" points="286.0656325673013,228.28 302.467574831888,228.28 290.22669095218833,239.32" stroke="none" /><polygon fill="#e4b92b" points="302.467574831888,228.28 299.99451541846014,239.32 290.22669095218833,239.32" stroke="none" /><polygon fill="#e1b627" points="302.467574831888,228.28 315.0097113229333,228.28 299.99451541846014,239.32" stroke="none" /><polygon fill="#dfb225" points="315.0097113229333,228.28 309.83912233135914,239.32 299.99451541846014,239.32" stroke="none" /><polygon fill="#f4cd3b" points="257.0,239.32 241.23308963065148,239.32 253.0,251.05" stroke="none" /><polygon fill="#f0c935" points="241.23308963065148,239.32 239.07405262123038,251.05 253.0,251.05" stroke="none" /><polygon fill="#ecc333" points="241.23308963065148,239.32 224.7733090478117,239.32 239.07405262123038,251.05" stroke="none" /><polygon fill="#e8bf2f" points="224.7733090478117,239.32 225.25136521307158,251.05 239.07405262123038,251.05" stroke="none" /><polygon fill="#e5ba2d" points="224.7733090478117,239.32 214.00548458153986,239.32 225.25136521307158,251.05" stroke="none" /><polygon fill="#e2b729" points="214.00548458153986,239.32 214.9932152865445,251.05 225.25136521307158,251.05" stroke="none" /><polygon fill="#dfb327" points="214.00548458153986,239.32 201.16087766864084,239.32 214.9932152865445,251.05" stroke="none" /><polygon fill="#ddaf24" points="201.16087766864084,239.32 204.70925036736477,251.05 214.9932152865445,251.05" stroke="none" /><polygon fill="#e5ba2c" points="201.16087766864084,239.32 257,239.32 204.70925036736477,251.05" stroke="none" /><polygon fill="#edc533" points="257,239.32 254,251.05 204.70925036736477,251.05" stroke="none" /><polygon fill="#f6d03d" points="257,239.32 255.0,239.32 254,251.05" stroke="none" /><polygon fill="#f5d03a" points="255.0,239.32 257.0,251.05 254,251.05" stroke="none" /><polygon fill="#f3cc3a" points="255.0,239.32 276.7669103693485,239.32 257.0,251.05" stroke="none" /><polygon fill="#efc835" points="276.7669103693485,239.32 271.92594737876965,251.05 257.0,251.05" stroke="none" /><polygon fill="#ebc132" points="276.7669103693485,239.32 290.22669095218833,239.32 271.92594737876965,251.05" stroke="none" /><polygon fill="#e9bf2f" points="290.22669095218833,239.32 282.74863478692845,251.05 271.92594737876965,251.05" stroke="none" /><polygon fill="#e5ba2c" points="290.22669095218833,239.32 299.99451541846014,239.32 282.74863478692845,251.05" stroke="none" /><polygon fill="#e3b82a" points="299.99451541846014,239.32 293.0067847134555,251.05 282.74863478692845,251.05" stroke="none" /><polygon fill="#e0b428" points="299.99451541846014,239.32 309.83912233135914,239.32 293.0067847134555,251.05" stroke="none" /><polygon fill="#deb125" points="309.83912233135914,239.32 307.2907496326352,251.05 293.0067847134555,251.05" stroke="none" /><polygon fill="#f1c934" points="253.0,251.05 239.07405262123038,251.05 254.0,262.78" stroke="none" /><polygon fill="#eec530" points="239.07405262123038,251.05 238.10733247036086,262.78 254.0,262.78" stroke="none" /><polygon fill="#e9bf2e" points="239.07405262123038,251.05 225.25136521307158,251.05 238.10733247036086,262.78" stroke="none" /><polygon fill="#e7bc2b" points="225.25136521307158,251.05 230.06743282669484,262.78 238.10733247036086,262.78" stroke="none" /><polygon fill="#e3b82a" points="225.25136521307158,251.05 214.9932152865445,251.05 230.06743282669484,262.78" stroke="none" /><polygon fill="#e1b527" points="214.9932152865445,251.05 218.43551311176202,262.78 230.06743282669484,262.78" stroke="none" /><polygon fill="#ddb025" points="214.9932152865445,251.05 204.70925036736477,251.05 218.43551311176202,262.78" stroke="none" /><polygon fill="#dbae24" points="204.70925036736477,251.05 210.84040142533593,262.78 218.43551311176202,262.78" stroke="none" /><polygon fill="#e3b82a" points="204.70925036736477,251.05 254,251.05 210.84040142533593,262.78" stroke="none" /><polygon fill="#ecc22f" points="254,251.05 256,262.78 210.84040142533593,262.78" stroke="none" /><polygon fill="#f5ce36" points="254,251.05 257.0,251.05 256,262.78" stroke="none" /><polygon fill="#f4cd34" points="257.0,251.05 256.0,262.78 256,262.78" stroke="none" /><polygon fill="#f2cb34" points="257.0,251.05 271.92594737876965,251.05 256.0,262.78" stroke="none" /><polygon fill="#eec530" points="271.92594737876965,251.05 274.89266752963914,262.78 256.0,262.78" stroke="none" /><polygon fill="#eac02e" points="271.92594737876965,251.05 282.74863478692845,251.05 274.89266752963914,262.78" stroke="none" /><polygon fill="#e7bc2b" points="282.74863478692845,251.05 283.9325671733052,262.78 274.89266752963914,262.78" stroke="none" /><polygon fill="#e4b92a" points="282.74863478692845,251.05 293.0067847134555,251.05 283.9325671733052,262.78" stroke="none" /><polygon fill="#e1b527" points="293.0067847134555,251.05 295.564486888238,262.78 283.9325671733052,262.78" stroke="none" /><polygon fill="#deb126" points="293.0067847134555,251.05 307.2907496326352,251.05 295.564486888238,262.78" stroke="none" /><polygon fill="#dbad23" points="307.2907496326352,251.05 301.1595985746641,262.78 295.564486888238,262.78" stroke="none" /><polygon fill="#f1c82e" points="254.0,262.78 238.10733247036086,262.78 259.0,275.2" stroke="none" /><polygon fill="#eec52c" points="238.10733247036086,262.78 240.83668789462286,275.2 259.0,275.2" stroke="none" /><polygon fill="#e8be2a" points="238.10733247036086,262.78 230.06743282669484,262.78 240.83668789462286,275.2" stroke="none" /><polygon fill="#e8bd29" points="230.06743282669484,262.78 235.86448175418565,275.2 240.83668789462286,275.2" stroke="none" /><polygon fill="#e3b827" points="230.06743282669484,262.78 218.43551311176202,262.78 235.86448175418565,275.2" stroke="none" /><polygon fill="#e2b627" points="218.43551311176202,262.78 223.88671684183586,275.2 235.86448175418565,275.2" stroke="none" /><polygon fill="#ddb024" points="218.43551311176202,262.78 210.84040142533593,262.78 223.88671684183586,275.2" stroke="none" /><polygon fill="#dcae23" points="210.84040142533593,262.78 213.1111754382511,275.2 223.88671684183586,275.2" stroke="none" /><polygon fill="#e2b627" points="210.84040142533593,262.78 256,262.78 213.1111754382511,275.2" stroke="none" /><polygon fill="#ecc32c" points="256,262.78 259,275.2 213.1111754382511,275.2" stroke="none" /><polygon fill="#f4cc2f" points="256,262.78 256.0,262.78 259,275.2" stroke="none" /><polygon fill="#f4cc2f" points="256.0,262.78 255.0,275.2 259,275.2" stroke="none" /><polygon fill="#f1c82e" points="256.0,262.78 274.89266752963914,262.78 255.0,275.2" stroke="none" /><polygon fill="#edc42c" points="274.89266752963914,262.78 272.16331210537714,275.2 255.0,275.2" stroke="none" /><polygon fill="#e8bd29" points="274.89266752963914,262.78 283.9325671733052,262.78 272.16331210537714,275.2" stroke="none" /><polygon fill="#e7bc29" points="283.9325671733052,262.78 279.13551824581435,275.2 272.16331210537714,275.2" stroke="none" /><polygon fill="#e2b626" points="283.9325671733052,262.78 295.564486888238,262.78 279.13551824581435,275.2" stroke="none" /><polygon fill="#e1b526" points="295.564486888238,262.78 289.1132831581641,275.2 279.13551824581435,275.2" stroke="none" /><polygon fill="#dcaf24" points="295.564486888238,262.78 301.1595985746641,262.78 289.1132831581641,275.2" stroke="none" /><polygon fill="#dcaf24" points="301.1595985746641,262.78 296.8888245617489,275.2 289.1132831581641,275.2" stroke="none" /><polygon fill="#f2c92e" points="259.0,275.2 240.83668789462286,275.2 256.0,289.0" stroke="none" /><polygon fill="#efc62d" points="240.83668789462286,275.2 245.1728,289.0 256.0,289.0" stroke="none" /><polygon fill="#ebc12b" points="240.83668789462286,275.2 235.86448175418565,275.2 245.1728,289.0" stroke="none" /><polygon fill="#eac02a" points="235.86448175418565,275.2 236.21280000000002,289.0 245.1728,289.0" stroke="none" /><polygon fill="#e6ba28" points="235.86448175418565,275.2 223.88671684183586,275.2 236.21280000000002,289.0" stroke="none" /><polygon fill="#e4b928" points="223.88671684183586,275.2 228.0448,289.0 236.21280000000002,289.0" stroke="none" /><polygon fill="#dfb325" points="223.88671684183586,275.2 213.1111754382511,275.2 228.0448,289.0" stroke="none" /><polygon fill="#deb225" points="213.1111754382511,275.2 220.16,289.0 228.0448,289.0" stroke="none" /><polygon fill="#e5ba28" points="213.1111754382511,275.2 259,275.2 220.16,289.0" stroke="none" /><polygon fill="#eec52c" points="259,275.2 257,289.0 220.16,289.0" stroke="none" /><polygon fill="#f4cc2f" points="259,275.2 255.0,275.2 257,289.0" stroke="none" /><polygon fill="#f5cd30" points="255.0,275.2 256.0,289.0 257,289.0" stroke="none" /><polygon fill="#f1c92e" points="255.0,275.2 272.16331210537714,275.2 256.0,289.0" stroke="none" /><polygon fill="#efc62d" points="272.16331210537714,275.2 267.8272,289.0 256.0,289.0" stroke="none" /><polygon fill="#eac02a" points="272.16331210537714,275.2 279.13551824581435,275.2 267.8272,289.0" stroke="none" /><polygon fill="#e9bf2a" points="279.13551824581435,275.2 275.7872,289.0 267.8272,289.0" stroke="none" /><polygon fill="#e5b928" points="279.13551824581435,275.2 289.1132831581641,275.2 275.7872,289.0" stroke="none" /><polygon fill="#e4b827" points="289.1132831581641,275.2 283.9552,289.0 275.7872,289.0" stroke="none" /><polygon fill="#dfb325" points="289.1132831581641,275.2 296.8888245617489,275.2 283.9552,289.0" stroke="none" /><polygon fill="#dfb225" points="296.8888245617489,275.2 291.84,289.0 283.9552,289.0" stroke="none" /><path d="M 242 211 A 8 17 0 0 0 242 227 Z" fill="#f5cd30" stroke="#d4a520" stroke-width="1" /><path d="M 270 211 A 8 17 0 0 1 270 227 Z" fill="#f5cd30" stroke="#d4a520" stroke-width="1" /><path d="M 217 215 A 19 12 0 0 0 255 215 Z" fill="#e8e0d8" stroke="#3a2a1a" stroke-width="1.5" /><path d="M 230 217 A 6 6 0 0 0 242 217 Z" fill="#3a2a1a" stroke="none" /><circle cx="239" cy="213" fill="white" r="3" stroke="none" /><circle cx="234" cy="217" fill="white" r="1" stroke="none" /><path d="M 215 215 Q 236 211 257 215" fill="none" stroke="#3a2a1a" stroke-width="3" /><path d="M 257 215 A 19 12 0 0 0 295 215 Z" fill="#e8e0d8" stroke="#3a2a1a" stroke-width="1.5" /><path d="M 270 217 A 6 6 0 0 0 282 217 Z" fill="#3a2a1a" stroke="none" /><circle cx="279" cy="213" fill="white" r="3" stroke="none" /><circle cx="274" cy="217" fill="white" r="1" stroke="none" /><path d="M 255 215 Q 276 211 297 215" fill="none" stroke="#3a2a1a" stroke-width="3" /><line stroke="#3a2a1a" stroke-width="2" x1="226" x2="246" y1="209" y2="209" /><line stroke="#3a2a1a" stroke-width="2" x1="264" x2="288" y1="208" y2="208" /><path d="M 223 224 A 6 4 0 0 0 235 224 Z" fill="#e88060" fill-opacity="0.2807130255013359" stroke="none" /><path d="M 277 226 A 8 5 0 0 0 293 226 Z" fill="#e88060" fill-opacity="0.2784525443632766" stroke="none" /><circle cx="256" cy="226" fill="#d4a520" r="3" stroke="none" /><line stroke="#a04030" stroke-width="3" x1="239" x2="273" y1="235" y2="235" /><circle cx="224" cy="185" fill="#d4a520" fill-opacity="0.15" r="1.8207320179618451" stroke="none" /><circle cx="224" cy="249" fill="#d4a520" fill-opacity="0.15" r="0.9182327695479927" stroke="none" /><circle cx="291" cy="245" fill="#d4a520" fill-opacity="0.15" r="1.1147883389477602" stroke="none" /><circle cx="241" cy="245" fill="#d4a520" fill-opacity="0.15" r="1.4076212420805931" stroke="none" /><circle cx="213" cy="191" fill="#d4a520" fill-opacity="0.15" r="0.8173848422037325" stroke="none" /><circle cx="244" cy="203" fill="#d4a520" fill-opacity="0.15" r="1.4308426174578899" stroke="none" /><circle cx="220" cy="250" fill="#d4a520" fill-opacity="0.15" r="1.8466560716424565" stroke="none" /><circle cx="262" cy="195" fill="#d4a520" fill-opacity="0.15" r="1.152792945739674" stroke="none" /><circle cx="289" cy="246" fill="#d4a520" fill-opacity="0.15" r="1.160890609208861" stroke="none" /><circle cx="225" cy="229" fill="#d4a520" fill-opacity="0.15" r="0.9601951378592906" stroke="none" /><circle cx="236" cy="203" fill="#d4a520" fill-opacity="0.15" r="1.350938056990957" stroke="none" /><circle cx="216" cy="196" fill="#d4a520" fill-opacity="0.15" r="1.8032676393377736" stroke="none" /><circle cx="214" cy="206" fill="#d4a520" fill-opacity="0.15" r="1.3726867858443663" stroke="none" /><circle cx="234" cy="243" fill="#d4a520" fill-opacity="0.15" r="0.6732165651020731" stroke="none" /><circle cx="223" cy="244" fill="#d4a520" fill-opacity="0.15" r="0.7056525303275029" stroke="none" /><circle cx="277" cy="182" fill="#d4a520" fill-opacity="0.15" r="1.981922427299484" stroke="none" /><circle cx="280" cy="194" fill="#d4a520" fill-opacity="0.15" r="0.7277842145826868" stroke="none" /><circle cx="294" cy="194" fill="#d4a520" fill-opacity="0.15" r="1.6829267838939037" stroke="none" /><circle cx="214" cy="229" fill="#d4a520" fill-opacity="0.15" r="1.0631637881131817" stroke="none" /><circle cx="284" cy="202" fill="#d4a520" fill-opacity="0.15" r="0.8245015984993687" stroke="none" /><circle cx="291" cy="230" fill="#d4a520" fill-opacity="0.15" r="1.1346933179958196" stroke="none" /><circle cx="274" cy="199" fill="#d4a520" fill-opacity="0.15" r="0.6001286728346821" stroke="none" /><circle cx="272" cy="190" fill="#d4a520" fill-opacity="0.15" r="0.7293137872759808" stroke="none" /><circle cx="220" cy="234" fill="#d4a520" fill-opacity="0.15" r="2.0108183862009503" stroke="none" /><circle cx="288" cy="241" fill="#d4a520" fill-opacity="0.15" r="1.489898183967321" stroke="none" /><circle cx="278" cy="231" fill="#d4a520" fill-opacity="0.15" r="2.068924127630845" stroke="none" /><circle cx="285" cy="187" fill="#d4a520" fill-opacity="0.15" r="0.7738735468820385" stroke="none" /><circle cx="257" cy="247" fill="#d4a520" fill-opacity="0.15" r="1.1130848457687579" stroke="none" /><circle cx="276" cy="183" fill="#d4a520" fill-opacity="0.15" r="1.5200997744005529" stroke="none" /><circle cx="217" cy="187" fill="#d4a520" fill-opacity="0.15" r="1.5639241403087396" stroke="none" /><circle cx="243" cy="202" fill="#d4a520" fill-opacity="0.15" r="0.6612965601801997" stroke="none" /><circle cx="282" cy="191" fill="#d4a520" fill-opacity="0.15" r="0.7268426431525377" stroke="none" /><circle cx="233" cy="243" fill="#d4a520" fill-opacity="0.15" r="2.1255300474984313" stroke="none" /><circle cx="230" cy="182" fill="#d4a520" fill-opacity="0.15" r="0.5427903237343891" stroke="none" /><circle cx="293" cy="235" fill="#d4a520" fill-opacity="0.15" r="1.2069593201586792" stroke="none" /><circle cx="276" cy="201" fill="#d4a520" fill-opacity="0.15" r="2.0867261051690904" stroke="none" /><circle cx="276" cy="233" fill="#d4a520" fill-opacity="0.15" r="1.5266931175672445" stroke="none" /><circle cx="239" cy="202" fill="#d4a520" fill-opacity="0.15" r="2.1127145905865765" stroke="none" /><circle cx="289" cy="189" fill="#d4a520" fill-opacity="0.15" r="0.6333508806374724" stroke="none" /><circle cx="284" cy="232" fill="#d4a520" fill-opacity="0.15" r="1.2220270126716883" stroke="none" /><circle cx="214" cy="191" fill="#d4a520" fill-opacity="0.15" r="2.0168245017703423" stroke="none" /><circle cx="300" cy="196" fill="#d4a520" fill-opacity="0.15" r="1.968879292678282" stroke="none" /><polygon fill="#b8911a" points="237,285.0 275,285.0 275,320.0 237,320.0" stroke="none" /></svg>