<?xml version="1.0" encoding="utf-8" ?>
<svg baseProfile="full" height="512" version="1.1" width="512" xmlns="http://www.w3.org/2000/svg" xmlns:ev="http://www.w3.org/2001/xml-events" xmlns:xlink="http://www.w3.org/1999/xlink"><defs /><polygon fill="#fcdd5f" points="255.0,143.5 237.4375,143.5 258.0,160.32999999999998" stroke="none" /><polygon fill="#fbdb5a" points="237.4375,143.5 239.07816737152004,160.32999999999998 258.0,160.32999999999998" stroke="none" /><polygon fill="#f9d74e" points="237.4375,143.5 224.375,143.5 239.07816737152004,160.32999999999998" stroke="none" /><polygon fill="#f9d64c" points="224.375,143.5 230.0161729560049,160.32999999999998 239.07816737152004,160.32999999999998" stroke="none" /><polygon fill="#f7d342" points="224.375,143.5 212.125,143.5 230.0161729560049,160.32999999999998" stroke="none" /><polygon fill="#f7d240" points="212.125,143.5 217.3665774235928,160.32999999999998 230.0161729560049,160.32999999999998" stroke="none" /><polygon fill="#f5cf36" points="212.125,143.5 199.75,143.5 217.3665774235928,160.32999999999998" stroke="none" /><polygon fill="#f5ce33" points="199.75,143.5 204.75202233793948,160.32999999999998 217.3665774235928,160.32999999999998" stroke="none" /><polygon fill="#f7d240" points="199.75,143.5 255,143.5 204.75202233793948,160.32999999999998" stroke="none" /><polygon fill="#fad953" points="255,143.5 255,160.32999999999998 204.75202233793948,160.32999999999998" stroke="none" /><polygon fill="#fcdf64" points="255,143.5 255.0,143.5 255,160.32999999999998" stroke="none" /><polygon fill="#fde066" points="255.0,143.5 258.0,160.32999999999998 255,160.32999999999998" stroke="none" /><polygon fill="#fcdd5f" points="255.0,143.5 273.5625,143.5 258.0,160.32999999999998" stroke="none" /><polygon fill="#fbdb59" points="273.5625,143.5 272.92183262848,160.32999999999998 258.0,160.32999999999998" stroke="none" /><polygon fill="#f9d74e" points="273.5625,143.5 289.625,143.5 272.92183262848,160.32999999999998" stroke="none" /><polygon fill="#f8d64a" points="289.625,143.5 283.9838270439951,160.32999999999998 272.92183262848,160.32999999999998" stroke="none" /><polygon fill="#f7d341" points="289.625,143.5 298.875,143.5 283.9838270439951,160.32999999999998" stroke="none" /><polygon fill="#f7d341" points="298.875,143.5 291.6334225764072,160.32999999999998 283.9838270439951,160.32999999999998" stroke="none" /><polygon fill="#f6cf37" points="298.875,143.5 313.25,143.5 291.6334225764072,160.32999999999998" stroke="none" /><polygon fill="#f5cf35" points="313.25,143.5 302.2479776620605,160.32999999999998 291.6334225764072,160.32999999999998" stroke="none" /><polygon fill="#fcde60" points="258.0,160.32999999999998 239.07816737152004,160.32999999999998 256.0,177.925" stroke="none" /><polygon fill="#f9d956" points="239.07816737152004,160.32999999999998 235.4610408562301,177.925 256.0,177.925" stroke="none" /><polygon fill="#f9d850" points="239.07816737152004,160.32999999999998 230.0161729560049,160.32999999999998 235.4610408562301,177.925" stroke="none" /><polygon fill="#f7d54a" points="230.0161729560049,160.32999999999998 228.1739505957984,177.925 235.4610408562301,177.925" stroke="none" /><polygon fill="#f8d446" points="230.0161729560049,160.32999999999998 217.3665774235928,160.32999999999998 228.1739505957984,177.925" stroke="none" /><polygon fill="#f5d03f" points="217.3665774235928,160.32999999999998 214.544278387453,177.925 228.1739505957984,177.925" stroke="none" /><polygon fill="#f6d038" points="217.3665774235928,160.32999999999998 204.75202233793948,160.32999999999998 214.544278387453,177.925" stroke="none" /><polygon fill="#f3cb33" points="204.75202233793948,160.32999999999998 205.8516389582731,177.925 214.544278387453,177.925" stroke="none" /><polygon fill="#f7d342" points="204.75202233793948,160.32999999999998 255,160.32999999999998 205.8516389582731,177.925" stroke="none" /><polygon fill="#f9d852" points="255,160.32999999999998 258,177.925 205.8516389582731,177.925" stroke="none" /><polygon fill="#fcdf64" points="255,160.32999999999998 258.0,160.32999999999998 258,177.925" stroke="none" /><polygon fill="#fbde61" points="258.0,160.32999999999998 257.0,177.925 258,177.925" stroke="none" /><polygon fill="#fbdd5f" points="258.0,160.32999999999998 272.92183262848,160.32999999999998 257.0,177.925" stroke="none" /><polygon fill="#f9d956" points="272.92183262848,160.32999999999998 276.5389591437699,177.925 257.0,177.925" stroke="none" /><polygon fill="#f9d84f" points="272.92183262848,160.32999999999998 283.9838270439951,160.32999999999998 276.5389591437699,177.925" stroke="none" /><polygon fill="#f7d447" points="283.9838270439951,160.32999999999998 288.8260494042016,177.925 276.5389591437699,177.925" stroke="none" /><polygon fill="#f8d444" points="283.9838270439951,160.32999999999998 291.6334225764072,160.32999999999998 288.8260494042016,177.925" stroke="none" /><polygon fill="#f5d03e" points="291.6334225764072,160.32999999999998 298.455721612547,177.925 288.8260494042016,177.925" stroke="none" /><polygon fill="#f6d03b" points="291.6334225764072,160.32999999999998 302.2479776620605,160.32999999999998 298.455721612547,177.925" stroke="none" /><polygon fill="#f3cb33" points="302.2479776620605,160.32999999999998 311.1483610417269,177.925 298.455721612547,177.925" stroke="none" /><polygon fill="#f9da56" points="256.0,177.925 235.4610408562301,177.925 257.0,193.225" stroke="none" /><polygon fill="#f7d64f" points="235.4610408562301,177.925 238.50791420654258,193.225 257.0,193.225" stroke="none" /><polygon fill="#f5d348" points="235.4610408562301,177.925 228.1739505957984,177.925 238.50791420654258,193.225" stroke="none" /><polygon fill="#f4d044" points="228.1739505957984,177.925 226.49875830240816,193.225 238.50791420654258,193.225" stroke="none" /><polygon fill="#f3ce3e" points="228.1739505957984,177.925 214.544278387453,177.925 226.49875830240816,193.225" stroke="none" /><polygon fill="#f1c937" points="214.544278387453,177.925 209.2914335791006,193.225 226.49875830240816,193.225" stroke="none" /><polygon fill="#f0c832" points="214.544278387453,177.925 205.8516389582731,177.925 209.2914335791006,193.225" stroke="none" /><polygon fill="#eec42d" points="205.8516389582731,177.925 199.96337638346233,193.225 209.2914335791006,193.225" stroke="none" /><polygon fill="#f2cd3c" points="205.8516389582731,177.925 258,177.925 199.96337638346233,193.225" stroke="none" /><polygon fill="#f6d34a" points="258,177.925 256,193.225 199.96337638346233,193.225" stroke="none" /><polygon fill="#fadc5c" points="258,177.925 257.0,177.925 256,193.225" stroke="none" /><polygon fill="#fadb59" points="257.0,177.925 259.0,193.225 256,193.225" stroke="none" /><polygon fill="#f9d955" points="257.0,177.925 276.5389591437699,177.925 259.0,193.225" stroke="none" /><polygon fill="#f7d54e" points="276.5389591437699,177.925 275.4920857934574,193.225 259.0,193.225" stroke="none" /><polygon fill="#f5d246" points="276.5389591437699,177.925 288.8260494042016,177.925 275.4920857934574,193.225" stroke="none" /><polygon fill="#f4cf41" points="288.8260494042016,177.925 287.5012416975918,193.225 275.4920857934574,193.225" stroke="none" /><polygon fill="#f2cd3c" points="288.8260494042016,177.925 298.455721612547,177.925 287.5012416975918,193.225" stroke="none" /><polygon fill="#f0c936" points="298.455721612547,177.925 302.7085664208994,193.225 287.5012416975918,193.225" stroke="none" /><polygon fill="#efc730" points="298.455721612547,177.925 311.1483610417269,177.925 302.7085664208994,193.225" stroke="none" /><polygon fill="#eec42c" points="311.1483610417269,177.925 312.03662361653767,193.225 302.7085664208994,193.225" stroke="none" /><polygon fill="#f8d751" points="257.0,193.225 238.50791420654258,193.225 255.0,206.23" stroke="none" /><polygon fill="#f5d249" points="238.50791420654258,193.225 234.82551623663758,206.23 255.0,206.23" stroke="none" /><polygon fill="#f3cf43" points="238.50791420654258,193.225 226.49875830240816,193.225 234.82551623663758,206.23" stroke="none" /><polygon fill="#f1ca3c" points="226.49875830240816,193.225 221.05696793106,206.23 234.82551623663758,206.23" stroke="none" /><polygon fill="#efc837" points="226.49875830240816,193.225 209.2914335791006,193.225 221.05696793106,206.23" stroke="none" /><polygon fill="#edc331" points="209.2914335791006,193.225 211.04212928659794,206.23 221.05696793106,206.23" stroke="none" /><polygon fill="#ebc22d" points="209.2914335791006,193.225 199.96337638346233,193.225 211.04212928659794,206.23" stroke="none" /><polygon fill="#eabf2a" points="199.96337638346233,193.225 199.92580677768967,206.23 211.04212928659794,206.23" stroke="none" /><polygon fill="#efc837" points="199.96337638346233,193.225 256,193.225 199.92580677768967,206.23" stroke="none" /><polygon fill="#f4cf44" points="256,193.225 256,206.23 199.92580677768967,206.23" stroke="none" /><polygon fill="#f9d955" points="256,193.225 259.0,193.225 256,206.23" stroke="none" /><polygon fill="#f9d853" points="259.0,193.225 255.0,206.23 256,206.23" stroke="none" /><polygon fill="#f7d650" points="259.0,193.225 275.4920857934574,193.225 255.0,206.23" stroke="none" /><polygon fill="#f6d24a" points="275.4920857934574,193.225 274.1744837633624,206.23 255.0,206.23" stroke="none" /><polygon fill="#f3ce42" points="275.4920857934574,193.225 287.5012416975918,193.225 274.1744837633624,206.23" stroke="none" /><polygon fill="#f1cb3e" points="287.5012416975918,193.225 284.94303206894,206.23 274.1744837633624,206.23" stroke="none" /><polygon fill="#efc838" points="287.5012416975918,193.225 302.7085664208994,193.225 284.94303206894,206.23" stroke="none" /><polygon fill="#edc433" points="302.7085664208994,193.225 301.95787071340203,206.23 284.94303206894,206.23" stroke="none" /><polygon fill="#ebc22d" points="302.7085664208994,193.225 312.03662361653767,193.225 301.95787071340203,206.23" stroke="none" /><polygon fill="#eabf2a" points="312.03662361653767,193.225 311.0741932223103,206.23 301.95787071340203,206.23" stroke="none" /><polygon fill="#f6d44a" points="255.0,206.23 234.82551623663758,206.23 259.0,218.47" stroke="none" /><polygon fill="#f4d044" points="234.82551623663758,206.23 239.7410961943705,218.47 259.0,218.47" stroke="none" /><polygon fill="#f0cb3d" points="234.82551623663758,206.23 221.05696793106,206.23 239.7410961943705,218.47" stroke="none" /><polygon fill="#efc93a" points="221.05696793106,206.23 230.42374482646937,218.47 239.7410961943705,218.47" stroke="none" /><polygon fill="#ecc535" points="221.05696793106,206.23 211.04212928659794,206.23 230.42374482646937,218.47" stroke="none" /><polygon fill="#ecc433" points="211.04212928659794,206.23 220.56986373214846,218.47 230.42374482646937,218.47" stroke="none" /><polygon fill="#e9bf2d" points="211.04212928659794,206.23 199.92580677768967,206.23 220.56986373214846,218.47" stroke="none" /><polygon fill="#e7bd2b" points="199.92580677768967,206.23 206.73059452839544,218.47 220.56986373214846,218.47" stroke="none" /><polygon fill="#ecc535" points="199.92580677768967,206.23 256,206.23 206.73059452839544,218.47" stroke="none" /><polygon fill="#f3ce41" points="256,206.23 257,218.47 206.73059452839544,218.47" stroke="none" /><polygon fill="#f9d84f" points="256,206.23 255.0,206.23 257,218.47" stroke="none" /><polygon fill="#f8d64c" points="255.0,206.23 258.0,218.47 257,218.47" stroke="none" /><polygon fill="#f6d44a" points="255.0,206.23 274.1744837633624,206.23 258.0,218.47" stroke="none" /><polygon fill="#f4d043" points="274.1744837633624,206.23 274.25890380562953,218.47 258.0,218.47" stroke="none" /><polygon fill="#f1cc3f" points="274.1744837633624,206.23 284.94303206894,206.23 274.25890380562953,218.47" stroke="none" /><polygon fill="#f0c93b" points="284.94303206894,206.23 282.5762551735306,218.47 274.25890380562953,218.47" stroke="none" /><polygon fill="#edc536" points="284.94303206894,206.23 301.95787071340203,206.23 282.5762551735306,218.47" stroke="none" /><polygon fill="#ebc232" points="301.95787071340203,206.23 295.43013626785154,218.47 282.5762551735306,218.47" stroke="none" /><polygon fill="#e8be2c" points="301.95787071340203,206.23 311.0741932223103,206.23 295.43013626785154,218.47" stroke="none" /><polygon fill="#e7bd2b" points="311.0741932223103,206.23 304.26940547160456,218.47 295.43013626785154,218.47" stroke="none" /><polygon fill="#f6d346" points="259.0,218.47 239.7410961943705,218.47 258.0,229.18" stroke="none" /><polygon fill="#f3ce41" points="239.7410961943705,218.47 239.21769346651394,229.18 258.0,229.18" stroke="none" /><polygon fill="#f0ca3c" points="239.7410961943705,218.47 230.42374482646937,218.47 239.21769346651394,229.18" stroke="none" /><polygon fill="#eec639" points="230.42374482646937,218.47 227.50382488053964,229.18 239.21769346651394,229.18" stroke="none" /><polygon fill="#ebc435" points="230.42374482646937,218.47 220.56986373214846,218.47 227.50382488053964,229.18" stroke="none" /><polygon fill="#e9c032" points="220.56986373214846,218.47 218.3327300117602,229.18 227.50382488053964,229.18" stroke="none" /><polygon fill="#e7be2e" points="220.56986373214846,218.47 206.73059452839544,218.47 218.3327300117602,229.18" stroke="none" /><polygon fill="#e4b92a" points="206.73059452839544,218.47 204.14452565610281,229.18 218.3327300117602,229.18" stroke="none" /><polygon fill="#eac233" points="206.73059452839544,218.47 257,218.47 204.14452565610281,229.18" stroke="none" /><polygon fill="#f0ca3c" points="257,218.47 254,229.18 204.14452565610281,229.18" stroke="none" /><polygon fill="#f7d548" points="257,218.47 258.0,218.47 254,229.18" stroke="none" /><polygon fill="#f7d447" points="258.0,218.47 257.0,229.18 254,229.18" stroke="none" /><polygon fill="#f5d144" points="258.0,218.47 274.25890380562953,218.47 257.0,229.18" stroke="none" /><polygon fill="#f2cd3f" points="274.25890380562953,218.47 275.78230653348606,229.18 257.0,229.18" stroke="none" /><polygon fill="#efc93a" points="274.25890380562953,218.47 282.5762551735306,218.47 275.78230653348606,229.18" stroke="none" /><polygon fill="#edc537" points="282.5762551735306,218.47 285.49617511946036,229.18 275.78230653348606,229.18" stroke="none" /><polygon fill="#ebc334" points="282.5762551735306,218.47 295.43013626785154,218.47 285.49617511946036,229.18" stroke="none" /><polygon fill="#e8bf31" points="295.43013626785154,218.47 294.6672699882398,229.18 285.49617511946036,229.18" stroke="none" /><polygon fill="#e7bd2d" points="295.43013626785154,218.47 304.26940547160456,218.47 294.6672699882398,229.18" stroke="none" /><polygon fill="#e4b92b" points="304.26940547160456,218.47 305.8554743438972,229.18 294.6672699882398,229.18" stroke="none" /><polygon fill="#f5d040" points="258.0,229.18 239.21769346651394,229.18 253.0,241.42000000000002" stroke="none" /><polygon fill="#f0ca3a" points="239.21769346651394,229.18 234.87480148022524,241.42000000000002 253.0,241.42000000000002" stroke="none" /><polygon fill="#edc637" points="239.21769346651394,229.18 227.50382488053964,229.18 234.87480148022524,241.42000000000002" stroke="none" /><polygon fill="#eac132" points="227.50382488053964,229.18 221.14359048039591,241.42000000000002 234.87480148022524,241.42000000000002" stroke="none" /><polygon fill="#e8bf30" points="227.50382488053964,229.18 218.3327300117602,229.18 221.14359048039591,241.42000000000002" stroke="none" /><polygon fill="#e5ba2c" points="218.3327300117602,229.18 212.15862168053243,241.42000000000002 221.14359048039591,241.42000000000002" stroke="none" /><polygon fill="#e3b82a" points="218.3327300117602,229.18 204.14452565610281,229.18 212.15862168053243,241.42000000000002" stroke="none" /><polygon fill="#e0b326" points="204.14452565610281,229.18 203.0751560006826,241.42000000000002 212.15862168053243,241.42000000000002" stroke="none" /><polygon fill="#e7be2f" points="204.14452565610281,229.18 254,229.18 203.0751560006826,241.42000000000002" stroke="none" /><polygon fill="#efc838" points="254,229.18 259,241.42000000000002 203.0751560006826,241.42000000000002" stroke="none" /><polygon fill="#f7d343" points="254,229.18 257.0,229.18 259,241.42000000000002" stroke="none" /><polygon fill="#f5d140" points="257.0,229.18 259.0,241.42000000000002 259,241.42000000000002" stroke="none" /><polygon fill="#f4cf3f" points="257.0,229.18 275.78230653348606,229.18 259.0,241.42000000000002" stroke="none" /><polygon fill="#f0c939" points="275.78230653348606,229.18 277.12519851977476,241.42000000000002 259.0,241.42000000000002" stroke="none" /><polygon fill="#edc536" points="275.78230653348606,229.18 285.49617511946036,229.18 277.12519851977476,241.42000000000002" stroke="none" /><polygon fill="#eac233" points="285.49617511946036,229.18 284.8564095196041,241.42000000000002 277.12519851977476,241.42000000000002" stroke="none" /><polygon fill="#e9c031" points="285.49617511946036,229.18 294.6672699882398,229.18 284.8564095196041,241.42000000000002" stroke="none" /><polygon fill="#e6bc2d" points="294.6672699882398,229.18 296.8413783194676,241.42000000000002 284.8564095196041,241.42000000000002" stroke="none" /><polygon fill="#e4b92b" points="294.6672699882398,229.18 305.8554743438972,229.18 296.8413783194676,241.42000000000002" stroke="none" /><polygon fill="#e1b427" points="305.8554743438972,229.18 307.92484399931743,241.42000000000002 296.8413783194676,241.42000000000002" stroke="none" /><polygon fill="#f3cc3a" points="253.0,241.42000000000002 234.87480148022524,241.42000000000002 259.0,254.425" stroke="none" /><polygon fill="#efc835" points="234.87480148022524,241.42000000000002 237.81981463266132,254.425 259.0,254.425" stroke="none" /><polygon fill="#eac031" points="234.87480148022524,241.42000000000002 221.14359048039591,241.42000000000002 237.81981463266132,254.425" stroke="none" /><polygon fill="#e7bd2e" points="221.14359048039591,241.42000000000002 226.56209844528354,254.425 237.81981463266132,254.425" stroke="none" /><polygon fill="#e4b92c" points="221.14359048039591,241.42000000000002 212.15862168053243,241.42000000000002 226.56209844528354,254.425" stroke="none" /><polygon fill="#e2b629" points="212.15862168053243,241.42000000000002 214.75592549538132,254.425 226.56209844528354,254.425" stroke="none" /><polygon fill="#dfb227" points="212.15862168053243,241.42000000000002 203.0751560006826,241.42000000000002 214.75592549538132,254.425" stroke="none" /><polygon fill="#ddb025" points="203.0751560006826,241.42000000000002 209.96913525048888,254.425 214.75592549538132,254.425" stroke="none" /><polygon fill="#e6bc2e" points="203.0751560006826,241.42000000000002 259,241.42000000000002 209.96913525048888,254.425" stroke="none" /><polygon fill="#eec734" points="259,241.42000000000002 257,254.425 209.96913525048888,254.425" stroke="none" /><polygon fill="#f5cf3c" points="259,241.42000000000002 259.0,241.42000000000002 257,254.425" stroke="none" /><polygon fill="#f5cf3a" points="259.0,241.42000000000002 257.0,254.425 257,254.425" stroke="none" /><polygon fill="#f2cb39" points="259.0,241.42000000000002 277.12519851977476,241.42000000000002 257.0,254.425" stroke="none" /><polygon fill="#efc734" points="277.12519851977476,241.42000000000002 274.18018536733865,254.425 257.0,254.425" stroke="none" /><polygon fill="#ebc232" points="277.12519851977476,241.42000000000002 284.8564095196041,241.42000000000002 274.18018536733865,254.425" stroke="none" /><polygon fill="#e8bf2f" points="284.8564095196041,241.42000000000002 285.43790155471646,254.425 274.18018536733865,254.425" stroke="none" /><polygon fill="#e5bb2d" points="284.8564095196041,241.42000000000002 296.8413783194676,241.42000000000002 285.43790155471646,254.425" stroke="none" /><polygon fill="#e3b82a" points="296.8413783194676,241.42000000000002 291.2440745046187,254.425 285.43790155471646,254.425" stroke="none" /><polygon fill="#e0b528" points="296.8413783194676,241.42000000000002 307.92484399931743,241.42000000000002 291.2440745046187,254.425" stroke="none" /><polygon fill="#deb125" points="307.92484399931743,241.42000000000002 306.0308647495111,254.425 291.2440745046187,254.425" stroke="none" /><polygon fill="#f2cb34" points="259.0,254.425 237.81981463266132,254.425 255.0,267.43" stroke="none" /><polygon fill="#eec630" points="237.81981463266132,254.425 243.37154932927837,267.43 255.0,267.43" stroke="none" /><polygon fill="#eac02e" points="237.81981463266132,254.425 226.56209844528354,254.425 243.37154932927837,267.43" stroke="none" /><polygon fill="#e7bd2c" points="226.56209844528354,254.425 230.28938973024682,267.43 243.37154932927837,267.43" stroke="none" /><polygon fill="#e3b82a" points="226.56209844528354,254.425 214.75592549538132,254.425 230.28938973024682,267.43" stroke="none" /><polygon fill="#e1b528" points="214.75592549538132,254.425 222.42366205102158,267.43 230.28938973024682,267.43" stroke="none" /><polygon fill="#deb226" points="214.75592549538132,254.425 209.96913525048888,254.425 222.42366205102158,267.43" stroke="none" /><polygon fill="#dcaf24" points="209.96913525048888,254.425 209.67136160387383,267.43 222.42366205102158,267.43" stroke="none" /><polygon fill="#e4b92a" points="209.96913525048888,254.425 257,254.425 209.67136160387383,267.43" stroke="none" /><polygon fill="#ebc22e" points="257,254.425 253,267.43 209.67136160387383,267.43" stroke="none" /><polygon fill="#f5ce36" points="257,254.425 257.0,254.425 253,267.43" stroke="none" /><polygon fill="#f5ce35" points="257.0,254.425 258.0,267.43 253,267.43" stroke="none" /><polygon fill="#f1c934" points="257.0,254.425 274.18018536733865,254.425 258.0,267.43" stroke="none" /><polygon fill="#edc430" points="274.18018536733865,254.425 273.62845067072163,267.43 258.0,267.43" stroke="none" /><polygon fill="#e9bf2e" points="274.18018536733865,254.425 285.43790155471646,254.425 273.62845067072163,267.43" stroke="none" /><polygon fill="#e7bc2b" points="285.43790155471646,254.425 279.71061026975315,267.43 273.62845067072163,267.43" stroke="none" /><polygon fill="#e5ba2b" points="285.43790155471646,254.425 291.2440745046187,254.425 279.71061026975315,267.43" stroke="none" /><polygon fill="#e3b729" points="291.2440745046187,254.425 290.5763379489784,267.43 279.71061026975315,267.43" stroke="none" /><polygon fill="#deb226" points="291.2440745046187,254.425 306.0308647495111,254.425 290.5763379489784,267.43" stroke="none" /><polygon fill="#dbad24" points="306.0308647495111,254.425 303.32863839612617,267.43 290.5763379489784,267.43" stroke="none" /><polygon fill="#f2c92e" points="255.0,267.43 243.37154932927837,267.43 257.0,281.2" stroke="none" /><polygon fill="#f0c72d" points="243.37154932927837,267.43 245.3466480483891,281.2 257.0,281.2" stroke="none" /><polygon fill="#eac02a" points="243.37154932927837,267.43 230.28938973024682,267.43 245.3466480483891,281.2" stroke="none" /><polygon fill="#e8bd29" points="230.28938973024682,267.43 233.00319960019908,281.2 245.3466480483891,281.2" stroke="none" /><polygon fill="#e3b727" points="230.28938973024682,267.43 222.42366205102158,267.43 233.00319960019908,281.2" stroke="none" /><polygon fill="#e2b526" points="222.42366205102158,267.43 222.72844084164703,281.2 233.00319960019908,281.2" stroke="none" /><polygon fill="#ddb024" points="222.42366205102158,267.43 209.67136160387383,267.43 222.72844084164703,281.2" stroke="none" /><polygon fill="#dbad23" points="209.67136160387383,267.43 212.6262062072398,281.2 222.72844084164703,281.2" stroke="none" /><polygon fill="#e1b526" points="209.67136160387383,267.43 253,267.43 212.6262062072398,281.2" stroke="none" /><polygon fill="#ebc12b" points="253,267.43 259,281.2 212.6262062072398,281.2" stroke="none" /><polygon fill="#f4cc2f" points="253,267.43 258.0,267.43 259,281.2" stroke="none" /><polygon fill="#f4cc2f" points="258.0,267.43 253.0,281.2 259,281.2" stroke="none" /><polygon fill="#f1c82e" points="258.0,267.43 273.62845067072163,267.43 253.0,281.2" stroke="none" /><polygon fill="#efc62d" points="273.62845067072163,267.43 266.6533519516109,281.2 253.0,281.2" stroke="none" /><polygon fill="#eabf2a" points="273.62845067072163,267.43 279.71061026975315,267.43 266.6533519516109,281.2" stroke="none" /><polygon fill="#e8bd29" points="279.71061026975315,267.43 282.9968003998009,281.2 266.6533519516109,281.2" stroke="none" /><polygon fill="#e2b727" points="279.71061026975315,267.43 290.5763379489784,267.43 282.9968003998009,281.2" stroke="none" /><polygon fill="#e0b426" points="290.5763379489784,267.43 290.27155915835294,281.2 282.9968003998009,281.2" stroke="none" /><polygon fill="#dcaf24" points="290.5763379489784,267.43 303.32863839612617,267.43 290.27155915835294,281.2" stroke="none" /><polygon fill="#dbae23" points="303.32863839612617,267.43 294.37379379276024,281.2 290.27155915835294,281.2" stroke="none" /><polygon fill="#f2ca2f" points="257.0,281.2 245.3466480483891,281.2 256.0,296.5" stroke="none" /><polygon fill="#f0c72d" points="245.3466480483891,281.2 245.45,296.5 256.0,296.5" stroke="none" /><polygon fill="#ebc12b" points="245.3466480483891,281.2 233.00319960019908,281.2 245.45,296.5" stroke="none" /><polygon fill="#e9bf2a" points="233.00319960019908,281.2 235.70000000000002,296.5 245.45,296.5" stroke="none" /><polygon fill="#e4b928" points="233.00319960019908,281.2 222.72844084164703,281.2 235.70000000000002,296.5" stroke="none" /><polygon fill="#e3b827" points="222.72844084164703,281.2 227.7,296.5 235.70000000000002,296.5" stroke="none" /><polygon fill="#deb225" points="222.72844084164703,281.2 212.6262062072398,281.2 227.7,296.5" stroke="none" /><polygon fill="#deb125" points="212.6262062072398,281.2 222.0,296.5 227.7,296.5" stroke="none" /><polygon fill="#e5b928" points="212.6262062072398,281.2 259,281.2 222.0,296.5" stroke="none" /><polygon fill="#eec42c" points="259,281.2 255,296.5 222.0,296.5" stroke="none" /><polygon fill="#f4cc2f" points="259,281.2 253.0,281.2 255,296.5" stroke="none" /><polygon fill="#f3cb2f" points="253.0,281.2 255.0,296.5 255,296.5" stroke="none" /><polygon fill="#f3cb2f" points="253.0,281.2 266.6533519516109,281.2 255.0,296.5" stroke="none" /><polygon fill="#f0c72d" points="266.6533519516109,281.2 266.55,296.5 255.0,296.5" stroke="none" /><polygon fill="#eac02b" points="266.6533519516109,281.2 282.9968003998009,281.2 266.55,296.5" stroke="none" /><polygon fill="#e8be2a" points="282.9968003998009,281.2 276.3,296.5 266.55,296.5" stroke="none" /><polygon fill="#e3b827" points="282.9968003998009,281.2 290.27155915835294,281.2 276.3,296.5" stroke="none" /><polygon fill="#e3b727" points="290.27155915835294,281.2 284.3,296.5 276.3,296.5" stroke="none" /><polygon fill="#dfb325" points="290.27155915835294,281.2 294.37379379276024,281.2 284.3,296.5" stroke="none" /><polygon fill="#dfb225" points="294.37379379276024,281.2 291.0,296.5 284.3,296.5" stroke="none" /><path d="M 242 210 A 4 19 0 0 0 242 228 Z" fill="#f5cd30" stroke="#d4a520" stroke-width="1" /><path d="M 270 210 A 4 19 0 0 1 270 228 Z" fill="#f5cd30" stroke="#d4a520" stroke-width="1" /><path d="M 218 214 A 18 12 0 0 0 254 214 Z" fill="#e8e0d8" stroke="#3a2a1a" stroke-width="1.5" /><path d="M 230 216 A 6 6 0 0 0 242 216 Z" fill="#3a2a1a" stroke="none" /><circle cx="239" cy="212" fill="white" r="3" stroke="none" /><circle cx="234" cy="216" fill="white" r="1" stroke="none" /><path d="M 216 214 Q 236 210 256 214" fill="none" stroke="#3a2a1a" stroke-width="3" /><line stroke="#3a2a1a" stroke-width="2" x1="227" x2="227" y1="213" y2="210" /><line stroke="#3a2a1a" stroke-width="2" x1="236" x2="236" y1="213" y2="210" /><line stroke="#3a2a1a" stroke-width="2" x1="245" x2="245" y1="213" y2="210" /><path d="M 258 214 A 18 12 0 0 0 294 214 Z" fill="#e8e0d8" stroke="#3a2a1a" stroke-width="1.5" /><path d="M 270 216 A 6 6 0 0 0 282 216 Z" fill="#3a2a1a" stroke="none" /><circle cx="279" cy="212" fill="white" r="3" stroke="none" /><circle cx="274" cy="216" fill="white" r="1" stroke="none" /><path d="M 256 214 Q 276 210 296 214" fill="none" stroke="#3a2a1a" stroke-width="3" /><line stroke="#3a2a1a" stroke-width="2" x1="267" x2="267" y1="213" y2="210" /><line stroke="#3a2a1a" stroke-width="2" x1="276" x2="276" y1="213" y2="210" /><line stroke="#3a2a1a" stroke-width="2" x1="285" x2="285" y1="213" y2="210" /><line stroke="#3a2a1a" stroke-width="3" x1="225" x2="247" y1="206" y2="206" /><line stroke="#3a2a1a" stroke-width="3" x1="265" x2="287" y1="204" y2="204" /><path d="M 221 225 A 6 4 0 0 0 233 225 Z" fill="#e88060" fill-opacity="0.2991309193270163" stroke="none" /><path d="M 275 227 A 7 4 0 0 0 289 227 Z" fill="#e88060" fill-opacity="0.2776820664654123" stroke="none" /><polygon fill="#d4a520" points="256,217 258,225 256,226 254,225" stroke="none" /><path d="M 240 237 Q 256 230 272 237" fill="none" stroke="#c06050" stroke-width="3" /><circle cx="240" cy="238" fill="#c06050" r="2" stroke="none" /><circle cx="272" cy="238" fill="#c06050" r="2" stroke="none" /><path d="M 271 225 Q 274 222 277 225" fill="none" stroke="#d4c0a0" stroke-opacity="0.3" stroke-width="1" /><path d="M 265 197 Q 268 194 271 197" fill="none" stroke="#d4c0a0" stroke-opacity="0.3" stroke-width="1" /><path d="M 276 202 Q 279 199 282 202" fill="none" stroke="#d4c0a0" stroke-opacity="0.3" stroke-width="1" /><path d="M 251 247 Q 255 243 259 247" fill="none" stroke="#d4c0a0" stroke-opacity="0.3" stroke-width="1" /><path d="M 237 243 Q 244 236 251 243" fill="none" stroke="#d4c0a0" stroke-opacity="0.3" stroke-width="1" /><path d="M 251 203 Q 257 197 263 203" fill="none" stroke="#d4c0a0" stroke-opacity="0.3" stroke-width="1" /><path d="M 286 187 Q 294 179 302 187" fill="none" stroke="#d4c0a0" stroke-opacity="0.3" stroke-width="1" /><path d="M 224 194 Q 230 188 236 194" fill="none" stroke="#d4c0a0" stroke-opacity="0.3" stroke-width="1" /><path d="M 276 247 Q 280 243 284 247" fill="none" stroke="#d4c0a0" stroke-opacity="0.3" stroke-width="1" /><path d="M 278 243 Q 281 240 284 243" fill="none" stroke="#d4c0a0" stroke-opacity="0.3" stroke-width="1" /><path d="M 223 235 Q 228 230 233 235" fill="none" stroke="#d4c0a0" stroke-opacity="0.3" stroke-width="1" /><path d="M 243 203 Q 247 199 251 203" fill="none" stroke="#d4c0a0" stroke-opacity="0.3" stroke-width="1" /><path d="M 261 207 Q 269 199 277 207" fill="none" stroke="#d4c0a0" stroke-opacity="0.3" stroke-width="1" /><polygon fill="#b8911a" points="249,292.5 263,292.5 263,327.5 249,327.5" stroke="none" /></svg>