<?xml version="1.0" encoding="utf-8" ?>
<svg baseProfile="full" height="512" version="1.1" width="512" xmlns="http://www.w3.org/2000/svg" xmlns:ev="http://www.w3.org/2001/xml-events" xmlns:xlink="http://www.w3.org/1999/xlink"><defs /><polygon fill="#fcde62" points="255.0,148.5 241.932,148.5 259.0,164.23" stroke="none" /><polygon fill="#fbdd5d" points="241.932,148.5 241.8884482105126,164.23 259.0,164.23" stroke="none" /><polygon fill="#fada55" points="241.932,148.5 234.032,148.5 241.8884482105126,164.23" stroke="none" /><polygon fill="#fad952" points="234.032,148.5 232.9554544305979,164.23 241.8884482105126,164.23" stroke="none" /><polygon fill="#f9d74c" points="234.032,148.5 224.112,148.5 232.9554544305979,164.23" stroke="none" /><polygon fill="#f8d64a" points="224.112,148.5 226.00905940666615,164.23 232.9554544305979,164.23" stroke="none" /><polygon fill="#f8d445" points="224.112,148.5 217.4,148.5 226.00905940666615,164.23" stroke="none" /><polygon fill="#f7d342" points="217.4,148.5 216.26802488034124,164.23 226.00905940666615,164.23" stroke="none" /><polygon fill="#f9d64c" points="217.4,148.5 255,148.5 216.26802488034124,164.23" stroke="none" /><polygon fill="#fadb58" points="255,148.5 255,164.23 216.26802488034124,164.23" stroke="none" /><polygon fill="#fcdf65" points="255,148.5 255.0,148.5 255,164.23" stroke="none" /><polygon fill="#fde066" points="255.0,148.5 258.0,164.23 255,164.23" stroke="none" /><polygon fill="#fcde61" points="255.0,148.5 269.068,148.5 258.0,164.23" stroke="none" /><polygon fill="#fbdc5c" points="269.068,148.5 269.1115517894874,164.23 258.0,164.23" stroke="none" /><polygon fill="#fada56" points="269.068,148.5 277.968,148.5 269.1115517894874,164.23" stroke="none" /><polygon fill="#fad952" points="277.968,148.5 281.0445455694021,164.23 269.1115517894874,164.23" stroke="none" /><polygon fill="#f9d74c" points="277.968,148.5 286.888,148.5 281.0445455694021,164.23" stroke="none" /><polygon fill="#f8d549" points="286.888,148.5 286.99094059333385,164.23 281.0445455694021,164.23" stroke="none" /><polygon fill="#f8d444" points="286.888,148.5 295.6,148.5 286.99094059333385,164.23" stroke="none" /><polygon fill="#f7d240" points="295.6,148.5 298.7319751196588,164.23 286.99094059333385,164.23" stroke="none" /><polygon fill="#fcde61" points="259.0,164.23 241.8884482105126,164.23 254.0,180.675" stroke="none" /><polygon fill="#fadb5a" points="241.8884482105126,164.23 244.27673440481146,180.675 254.0,180.675" stroke="none" /><polygon fill="#fada56" points="241.8884482105126,164.23 232.9554544305979,164.23 244.27673440481146,180.675" stroke="none" /><polygon fill="#f8d74f" points="232.9554544305979,164.23 230.1227453175474,180.675 244.27673440481146,180.675" stroke="none" /><polygon fill="#f9d64c" points="232.9554544305979,164.23 226.00905940666615,164.23 230.1227453175474,180.675" stroke="none" /><polygon fill="#f6d346" points="226.00905940666615,164.23 220.19955404773617,180.675 230.1227453175474,180.675" stroke="none" /><polygon fill="#f7d343" points="226.00905940666615,164.23 216.26802488034124,164.23 220.19955404773617,180.675" stroke="none" /><polygon fill="#f5cf3d" points="216.26802488034124,164.23 213.38404365094382,180.675 220.19955404773617,180.675" stroke="none" /><polygon fill="#f8d64a" points="216.26802488034124,164.23 255,164.23 213.38404365094382,180.675" stroke="none" /><polygon fill="#f9d954" points="255,164.23 254,180.675 213.38404365094382,180.675" stroke="none" /><polygon fill="#fcdf65" points="255,164.23 258.0,164.23 254,180.675" stroke="none" /><polygon fill="#fbde62" points="258.0,164.23 253.0,180.675 254,180.675" stroke="none" /><polygon fill="#fcde62" points="258.0,164.23 269.1115517894874,164.23 253.0,180.675" stroke="none" /><polygon fill="#fadb5a" points="269.1115517894874,164.23 272.72326559518854,180.675 253.0,180.675" stroke="none" /><polygon fill="#fad954" points="269.1115517894874,164.23 281.0445455694021,164.23 272.72326559518854,180.675" stroke="none" /><polygon fill="#f8d64e" points="281.0445455694021,164.23 278.8772546824526,180.675 272.72326559518854,180.675" stroke="none" /><polygon fill="#f9d64c" points="281.0445455694021,164.23 286.99094059333385,164.23 278.8772546824526,180.675" stroke="none" /><polygon fill="#f7d346" points="286.99094059333385,164.23 291.80044595226383,180.675 278.8772546824526,180.675" stroke="none" /><polygon fill="#f7d342" points="286.99094059333385,164.23 298.7319751196588,164.23 291.80044595226383,180.675" stroke="none" /><polygon fill="#f5cf3c" points="298.7319751196588,164.23 300.61595634905615,180.675 291.80044595226383,180.675" stroke="none" /><polygon fill="#f9da58" points="254.0,180.675 244.27673440481146,180.675 255.0,194.975" stroke="none" /><polygon fill="#f8d752" points="244.27673440481146,180.675 237.46748330008182,194.975 255.0,194.975" stroke="none" /><polygon fill="#f6d54c" points="244.27673440481146,180.675 230.1227453175474,180.675 237.46748330008182,194.975" stroke="none" /><polygon fill="#f5d145" points="230.1227453175474,180.675 226.1852736789317,194.975 237.46748330008182,194.975" stroke="none" /><polygon fill="#f4d042" points="230.1227453175474,180.675 220.19955404773617,180.675 226.1852736789317,194.975" stroke="none" /><polygon fill="#f2cc3d" points="220.19955404773617,180.675 217.55950598201161,194.975 226.1852736789317,194.975" stroke="none" /><polygon fill="#f2cc3b" points="220.19955404773617,180.675 213.38404365094382,180.675 217.55950598201161,194.975" stroke="none" /><polygon fill="#f0c835" points="213.38404365094382,180.675 205.87116151539948,194.975 217.55950598201161,194.975" stroke="none" /><polygon fill="#f4cf41" points="213.38404365094382,180.675 254,180.675 205.87116151539948,194.975" stroke="none" /><polygon fill="#f6d44c" points="254,180.675 257,194.975 205.87116151539948,194.975" stroke="none" /><polygon fill="#fadc5b" points="254,180.675 253.0,180.675 257,194.975" stroke="none" /><polygon fill="#fadb59" points="253.0,180.675 253.0,194.975 257,194.975" stroke="none" /><polygon fill="#fadb59" points="253.0,180.675 272.72326559518854,180.675 253.0,194.975" stroke="none" /><polygon fill="#f8d751" points="272.72326559518854,180.675 276.5325166999182,194.975 253.0,194.975" stroke="none" /><polygon fill="#f6d44b" points="272.72326559518854,180.675 278.8772546824526,180.675 276.5325166999182,194.975" stroke="none" /><polygon fill="#f5d146" points="278.8772546824526,180.675 284.8147263210683,194.975 276.5325166999182,194.975" stroke="none" /><polygon fill="#f4d043" points="278.8772546824526,180.675 291.80044595226383,180.675 284.8147263210683,194.975" stroke="none" /><polygon fill="#f2cc3d" points="291.80044595226383,180.675 296.4404940179884,194.975 284.8147263210683,194.975" stroke="none" /><polygon fill="#f2cc39" points="291.80044595226383,180.675 300.61595634905615,180.675 296.4404940179884,194.975" stroke="none" /><polygon fill="#f0c834" points="300.61595634905615,180.675 306.1288384846005,194.975 296.4404940179884,194.975" stroke="none" /><polygon fill="#f8d751" points="255.0,194.975 237.46748330008182,194.975 258.0,207.13" stroke="none" /><polygon fill="#f6d34b" points="237.46748330008182,194.975 237.7741538174801,207.13 258.0,207.13" stroke="none" /><polygon fill="#f3cf44" points="237.46748330008182,194.975 226.1852736789317,194.975 237.7741538174801,207.13" stroke="none" /><polygon fill="#f2cc40" points="226.1852736789317,194.975 225.96669458829837,207.13 237.7741538174801,207.13" stroke="none" /><polygon fill="#f1cb3c" points="226.1852736789317,194.975 217.55950598201161,194.975 225.96669458829837,207.13" stroke="none" /><polygon fill="#efc738" points="217.55950598201161,194.975 214.92072720495298,207.13 225.96669458829837,207.13" stroke="none" /><polygon fill="#eec634" points="217.55950598201161,194.975 205.87116151539948,194.975 214.92072720495298,207.13" stroke="none" /><polygon fill="#ebc12e" points="205.87116151539948,194.975 198.77016308327305,207.13 214.92072720495298,207.13" stroke="none" /><polygon fill="#f0c93a" points="205.87116151539948,194.975 257,194.975 198.77016308327305,207.13" stroke="none" /><polygon fill="#f4d046" points="257,194.975 258,207.13 198.77016308327305,207.13" stroke="none" /><polygon fill="#fada56" points="257,194.975 253.0,194.975 258,207.13" stroke="none" /><polygon fill="#f9d853" points="253.0,194.975 256.0,207.13 258,207.13" stroke="none" /><polygon fill="#f8d751" points="253.0,194.975 276.5325166999182,194.975 256.0,207.13" stroke="none" /><polygon fill="#f6d34a" points="276.5325166999182,194.975 273.2258461825199,207.13 256.0,207.13" stroke="none" /><polygon fill="#f3cf44" points="276.5325166999182,194.975 284.8147263210683,194.975 273.2258461825199,207.13" stroke="none" /><polygon fill="#f2cc40" points="284.8147263210683,194.975 287.03330541170163,207.13 273.2258461825199,207.13" stroke="none" /><polygon fill="#f0ca3b" points="284.8147263210683,194.975 296.4404940179884,194.975 287.03330541170163,207.13" stroke="none" /><polygon fill="#eec636" points="296.4404940179884,194.975 299.079272795047,207.13 287.03330541170163,207.13" stroke="none" /><polygon fill="#edc533" points="296.4404940179884,194.975 306.1288384846005,194.975 299.079272795047,207.13" stroke="none" /><polygon fill="#ebc12d" points="306.1288384846005,194.975 313.229836916727,207.13 299.079272795047,207.13" stroke="none" /><polygon fill="#f7d44a" points="258.0,207.13 237.7741538174801,207.13 254.0,218.57" stroke="none" /><polygon fill="#f4d044" points="237.7741538174801,207.13 236.87269678649122,218.57 254.0,218.57" stroke="none" /><polygon fill="#f1cc3f" points="237.7741538174801,207.13 225.96669458829837,207.13 236.87269678649122,218.57" stroke="none" /><polygon fill="#efc839" points="225.96669458829837,207.13 219.3823155641361,218.57 236.87269678649122,218.57" stroke="none" /><polygon fill="#edc536" points="225.96669458829837,207.13 214.92072720495298,207.13 219.3823155641361,218.57" stroke="none" /><polygon fill="#eac130" points="214.92072720495298,207.13 207.79001058625198,218.57 219.3823155641361,218.57" stroke="none" /><polygon fill="#e9bf2d" points="214.92072720495298,207.13 198.77016308327305,207.13 207.79001058625198,218.57" stroke="none" /><polygon fill="#e6bb28" points="198.77016308327305,207.13 195.03847511057947,218.57 207.79001058625198,218.57" stroke="none" /><polygon fill="#ecc434" points="198.77016308327305,207.13 258,207.13 195.03847511057947,218.57" stroke="none" /><polygon fill="#f2cd40" points="258,207.13 258,218.57 195.03847511057947,218.57" stroke="none" /><polygon fill="#f8d74e" points="258,207.13 256.0,207.13 258,218.57" stroke="none" /><polygon fill="#f8d64c" points="256.0,207.13 255.0,218.57 258,218.57" stroke="none" /><polygon fill="#f7d54b" points="256.0,207.13 273.2258461825199,207.13 255.0,218.57" stroke="none" /><polygon fill="#f5d145" points="273.2258461825199,207.13 273.12730321350875,218.57 255.0,218.57" stroke="none" /><polygon fill="#f1cc3f" points="273.2258461825199,207.13 287.03330541170163,207.13 273.12730321350875,218.57" stroke="none" /><polygon fill="#efc93b" points="287.03330541170163,207.13 287.6176844358639,218.57 273.12730321350875,218.57" stroke="none" /><polygon fill="#edc636" points="287.03330541170163,207.13 299.079272795047,207.13 287.6176844358639,218.57" stroke="none" /><polygon fill="#ebc232" points="299.079272795047,207.13 301.209989413748,218.57 287.6176844358639,218.57" stroke="none" /><polygon fill="#e9bf2d" points="299.079272795047,207.13 313.229836916727,207.13 301.209989413748,218.57" stroke="none" /><polygon fill="#e6bb28" points="313.229836916727,207.13 315.9615248894205,218.57 301.209989413748,218.57" stroke="none" /><polygon fill="#f5d244" points="254.0,218.57 236.87269678649122,218.57 256.0,228.58" stroke="none" /><polygon fill="#f3ce40" points="236.87269678649122,218.57 239.24404990853512,228.58 256.0,228.58" stroke="none" /><polygon fill="#eec83a" points="236.87269678649122,218.57 219.3823155641361,218.57 239.24404990853512,228.58" stroke="none" /><polygon fill="#ecc436" points="219.3823155641361,218.57 224.0349968089405,228.58 239.24404990853512,228.58" stroke="none" /><polygon fill="#e9c030" points="219.3823155641361,218.57 207.79001058625198,218.57 224.0349968089405,228.58" stroke="none" /><polygon fill="#e7bd2f" points="207.79001058625198,218.57 211.66775432926482,228.58 224.0349968089405,228.58" stroke="none" /><polygon fill="#e4ba29" points="207.79001058625198,218.57 195.03847511057947,218.57 211.66775432926482,228.58" stroke="none" /><polygon fill="#e2b627" points="195.03847511057947,218.57 197.16378760162155,228.58 211.66775432926482,228.58" stroke="none" /><polygon fill="#e9c030" points="195.03847511057947,218.57 258,218.57 197.16378760162155,228.58" stroke="none" /><polygon fill="#f0c93c" points="258,218.57 253,228.58 197.16378760162155,228.58" stroke="none" /><polygon fill="#f7d548" points="258,218.57 255.0,218.57 253,228.58" stroke="none" /><polygon fill="#f7d447" points="255.0,218.57 255.0,228.58 253,228.58" stroke="none" /><polygon fill="#f6d345" points="255.0,218.57 273.12730321350875,218.57 255.0,228.58" stroke="none" /><polygon fill="#f3cf41" points="273.12730321350875,218.57 271.7559500914649,228.58 255.0,228.58" stroke="none" /><polygon fill="#efca3b" points="273.12730321350875,218.57 287.6176844358639,218.57 271.7559500914649,228.58" stroke="none" /><polygon fill="#edc537" points="287.6176844358639,218.57 290.9650031910595,228.58 271.7559500914649,228.58" stroke="none" /><polygon fill="#e9c131" points="287.6176844358639,218.57 301.209989413748,218.57 290.9650031910595,228.58" stroke="none" /><polygon fill="#e7bd2f" points="301.209989413748,218.57 299.3322456707352,228.58 290.9650031910595,228.58" stroke="none" /><polygon fill="#e5ba2a" points="301.209989413748,218.57 315.9615248894205,218.57 299.3322456707352,228.58" stroke="none" /><polygon fill="#e2b627" points="315.9615248894205,218.57 315.83621239837845,228.58 299.3322456707352,228.58" stroke="none" /><polygon fill="#f5d040" points="256.0,228.58 239.24404990853512,228.58 255.0,240.02" stroke="none" /><polygon fill="#f1cb3b" points="239.24404990853512,228.58 238.47929021269044,240.02 255.0,240.02" stroke="none" /><polygon fill="#eec737" points="239.24404990853512,228.58 224.0349968089405,228.58 238.47929021269044,240.02" stroke="none" /><polygon fill="#eac233" points="224.0349968089405,228.58 221.44844946472867,240.02 238.47929021269044,240.02" stroke="none" /><polygon fill="#e7be2f" points="224.0349968089405,228.58 211.66775432926482,228.58 221.44844946472867,240.02" stroke="none" /><polygon fill="#e5bb2c" points="211.66775432926482,228.58 215.22377686635923,240.02 221.44844946472867,240.02" stroke="none" /><polygon fill="#e3b829" points="211.66775432926482,228.58 197.16378760162155,228.58 215.22377686635923,240.02" stroke="none" /><polygon fill="#dfb326" points="197.16378760162155,228.58 196.87663700815287,240.02 215.22377686635923,240.02" stroke="none" /><polygon fill="#e6bc2e" points="197.16378760162155,228.58 253,228.58 196.87663700815287,240.02" stroke="none" /><polygon fill="#eec637" points="253,228.58 258,240.02 196.87663700815287,240.02" stroke="none" /><polygon fill="#f7d343" points="253,228.58 255.0,228.58 258,240.02" stroke="none" /><polygon fill="#f6d241" points="255.0,228.58 253.0,240.02 258,240.02" stroke="none" /><polygon fill="#f6d141" points="255.0,228.58 271.7559500914649,228.58 253.0,240.02" stroke="none" /><polygon fill="#f2cc3c" points="271.7559500914649,228.58 275.52070978730956,240.02 253.0,240.02" stroke="none" /><polygon fill="#edc637" points="271.7559500914649,228.58 290.9650031910595,228.58 275.52070978730956,240.02" stroke="none" /><polygon fill="#e9c032" points="290.9650031910595,228.58 291.5515505352713,240.02 275.52070978730956,240.02" stroke="none" /><polygon fill="#e7bd2f" points="290.9650031910595,228.58 299.3322456707352,228.58 291.5515505352713,240.02" stroke="none" /><polygon fill="#e4ba2c" points="299.3322456707352,228.58 301.77622313364077,240.02 291.5515505352713,240.02" stroke="none" /><polygon fill="#e2b728" points="299.3322456707352,228.58 315.83621239837845,228.58 301.77622313364077,240.02" stroke="none" /><polygon fill="#dfb225" points="315.83621239837845,228.58 312.1233629918471,240.02 301.77622313364077,240.02" stroke="none" /><polygon fill="#f3cd3b" points="255.0,240.02 238.47929021269044,240.02 256.0,252.175" stroke="none" /><polygon fill="#efc835" points="238.47929021269044,240.02 236.6055317536895,252.175 256.0,252.175" stroke="none" /><polygon fill="#ebc232" points="238.47929021269044,240.02 221.44844946472867,240.02 236.6055317536895,252.175" stroke="none" /><polygon fill="#e8be2e" points="221.44844946472867,240.02 227.42790429436334,252.175 236.6055317536895,252.175" stroke="none" /><polygon fill="#e5bb2d" points="221.44844946472867,240.02 215.22377686635923,240.02 227.42790429436334,252.175" stroke="none" /><polygon fill="#e3b82a" points="215.22377686635923,240.02 212.88580232690242,252.175 227.42790429436334,252.175" stroke="none" /><polygon fill="#dfb327" points="215.22377686635923,240.02 196.87663700815287,240.02 212.88580232690242,252.175" stroke="none" /><polygon fill="#dcaf24" points="196.87663700815287,240.02 204.28949016269542,252.175 212.88580232690242,252.175" stroke="none" /><polygon fill="#e5ba2c" points="196.87663700815287,240.02 258,240.02 204.28949016269542,252.175" stroke="none" /><polygon fill="#eec633" points="258,240.02 257,252.175 204.28949016269542,252.175" stroke="none" /><polygon fill="#f7d13e" points="258,240.02 253.0,240.02 257,252.175" stroke="none" /><polygon fill="#f5d03a" points="253.0,240.02 257.0,252.175 257,252.175" stroke="none" /><polygon fill="#f4cd3b" points="253.0,240.02 275.52070978730956,240.02 257.0,252.175" stroke="none" /><polygon fill="#efc835" points="275.52070978730956,240.02 274.3944682463105,252.175 257.0,252.175" stroke="none" /><polygon fill="#eac132" points="275.52070978730956,240.02 291.5515505352713,240.02 274.3944682463105,252.175" stroke="none" /><polygon fill="#e7bd2e" points="291.5515505352713,240.02 289.5720957056367,252.175 274.3944682463105,252.175" stroke="none" /><polygon fill="#e4b92b" points="291.5515505352713,240.02 301.77622313364077,240.02 289.5720957056367,252.175" stroke="none" /><polygon fill="#e2b629" points="301.77622313364077,240.02 298.1141976730976,252.175 289.5720957056367,252.175" stroke="none" /><polygon fill="#dfb327" points="301.77622313364077,240.02 312.1233629918471,240.02 298.1141976730976,252.175" stroke="none" /><polygon fill="#dcaf24" points="312.1233629918471,240.02 310.7105098373046,252.175 298.1141976730976,252.175" stroke="none" /><polygon fill="#f2ca34" points="256.0,252.175 236.6055317536895,252.175 254.0,264.33" stroke="none" /><polygon fill="#edc530" points="236.6055317536895,252.175 238.64423532771954,264.33 254.0,264.33" stroke="none" /><polygon fill="#eac02e" points="236.6055317536895,252.175 227.42790429436334,252.175 238.64423532771954,264.33" stroke="none" /><polygon fill="#e7bd2c" points="227.42790429436334,252.175 229.7686560305374,264.33 238.64423532771954,264.33" stroke="none" /><polygon fill="#e4b92a" points="227.42790429436334,252.175 212.88580232690242,252.175 229.7686560305374,264.33" stroke="none" /><polygon fill="#e2b628" points="212.88580232690242,252.175 222.06819259279166,264.33 229.7686560305374,264.33" stroke="none" /><polygon fill="#deb226" points="212.88580232690242,252.175 204.28949016269542,252.175 222.06819259279166,264.33" stroke="none" /><polygon fill="#deb025" points="204.28949016269542,252.175 215.49768281127137,264.33 222.06819259279166,264.33" stroke="none" /><polygon fill="#e5ba2b" points="204.28949016269542,252.175 257,252.175 215.49768281127137,264.33" stroke="none" /><polygon fill="#edc530" points="257,252.175 257,264.33 215.49768281127137,264.33" stroke="none" /><polygon fill="#f5ce36" points="257,252.175 257.0,252.175 257,264.33" stroke="none" /><polygon fill="#f4cd34" points="257.0,252.175 258.0,264.33 257,264.33" stroke="none" /><polygon fill="#f2ca34" points="257.0,252.175 274.3944682463105,252.175 258.0,264.33" stroke="none" /><polygon fill="#efc631" points="274.3944682463105,252.175 268.35576467228043,264.33 258.0,264.33" stroke="none" /><polygon fill="#eac02e" points="274.3944682463105,252.175 289.5720957056367,252.175 268.35576467228043,264.33" stroke="none" /><polygon fill="#e8be2c" points="289.5720957056367,252.175 278.2313439694626,264.33 268.35576467228043,264.33" stroke="none" /><polygon fill="#e4b92a" points="289.5720957056367,252.175 298.1141976730976,252.175 278.2313439694626,264.33" stroke="none" /><polygon fill="#e3b729" points="298.1141976730976,252.175 288.93180740720834,264.33 278.2313439694626,264.33" stroke="none" /><polygon fill="#deb126" points="298.1141976730976,252.175 310.7105098373046,252.175 288.93180740720834,264.33" stroke="none" /><polygon fill="#ddb025" points="310.7105098373046,252.175 298.5023171887286,264.33 288.93180740720834,264.33" stroke="none" /><polygon fill="#f0c72d" points="254.0,264.33 238.64423532771954,264.33 254.0,277.2" stroke="none" /><polygon fill="#edc42c" points="238.64423532771954,264.33 238.7021720297993,277.2 254.0,277.2" stroke="none" /><polygon fill="#e8be2a" points="238.64423532771954,264.33 229.7686560305374,264.33 238.7021720297993,277.2" stroke="none" /><polygon fill="#e6bb29" points="229.7686560305374,264.33 228.87048417358665,277.2 238.7021720297993,277.2" stroke="none" /><polygon fill="#e3b727" points="229.7686560305374,264.33 222.06819259279166,264.33 228.87048417358665,277.2" stroke="none" /><polygon fill="#e2b626" points="222.06819259279166,264.33 224.2051338886165,277.2 228.87048417358665,277.2" stroke="none" /><polygon fill="#dfb325" points="222.06819259279166,264.33 215.49768281127137,264.33 224.2051338886165,277.2" stroke="none" /><polygon fill="#deb124" points="215.49768281127137,264.33 214.67324857514936,277.2 224.2051338886165,277.2" stroke="none" /><polygon fill="#e4b928" points="215.49768281127137,264.33 257,264.33 214.67324857514936,277.2" stroke="none" /><polygon fill="#edc32c" points="257,264.33 259,277.2 214.67324857514936,277.2" stroke="none" /><polygon fill="#f3cb2f" points="257,264.33 258.0,264.33 259,277.2" stroke="none" /><polygon fill="#f3cb2f" points="258.0,264.33 258.0,277.2 259,277.2" stroke="none" /><polygon fill="#f1c92e" points="258.0,264.33 268.35576467228043,264.33 258.0,277.2" stroke="none" /><polygon fill="#efc62d" points="268.35576467228043,264.33 270.29782797020073,277.2 258.0,277.2" stroke="none" /><polygon fill="#ebc12b" points="268.35576467228043,264.33 278.2313439694626,264.33 270.29782797020073,277.2" stroke="none" /><polygon fill="#e9be2a" points="278.2313439694626,264.33 278.12951582641335,277.2 270.29782797020073,277.2" stroke="none" /><polygon fill="#e5ba28" points="278.2313439694626,264.33 288.93180740720834,264.33 278.12951582641335,277.2" stroke="none" /><polygon fill="#e2b627" points="288.93180740720834,264.33 292.7948661113835,277.2 278.12951582641335,277.2" stroke="none" /><polygon fill="#deb125" points="288.93180740720834,264.33 298.5023171887286,264.33 292.7948661113835,277.2" stroke="none" /><polygon fill="#dbae23" points="298.5023171887286,264.33 302.3267514248506,277.2 292.7948661113835,277.2" stroke="none" /><polygon fill="#f0c82e" points="254.0,277.2 238.7021720297993,277.2 255.0,291.5" stroke="none" /><polygon fill="#eec52c" points="238.7021720297993,277.2 242.932,291.5 255.0,291.5" stroke="none" /><polygon fill="#e9bf2a" points="238.7021720297993,277.2 228.87048417358665,277.2 242.932,291.5" stroke="none" /><polygon fill="#e8bd29" points="228.87048417358665,277.2 232.032,291.5 242.932,291.5" stroke="none" /><polygon fill="#e4b827" points="228.87048417358665,277.2 224.2051338886165,277.2 232.032,291.5" stroke="none" /><polygon fill="#e3b727" points="224.2051338886165,277.2 224.112,291.5 232.032,291.5" stroke="none" /><polygon fill="#dfb325" points="224.2051338886165,277.2 214.67324857514936,277.2 224.112,291.5" stroke="none" /><polygon fill="#deb125" points="214.67324857514936,277.2 217.4,291.5 224.112,291.5" stroke="none" /><polygon fill="#e5ba28" points="214.67324857514936,277.2 259,277.2 217.4,291.5" stroke="none" /><polygon fill="#edc42c" points="259,277.2 256,291.5 217.4,291.5" stroke="none" /><polygon fill="#f4cb2f" points="259,277.2 258.0,277.2 256,291.5" stroke="none" /><polygon fill="#f4cc2f" points="258.0,277.2 255.0,291.5 256,291.5" stroke="none" /><polygon fill="#f1c92e" points="258.0,277.2 270.29782797020073,277.2 255.0,291.5" stroke="none" /><polygon fill="#efc62d" points="270.29782797020073,277.2 268.068,291.5 255.0,291.5" stroke="none" /><polygon fill="#ebc12b" points="270.29782797020073,277.2 278.12951582641335,277.2 268.068,291.5" stroke="none" /><polygon fill="#e9bf2a" points="278.12951582641335,277.2 278.968,291.5 268.068,291.5" stroke="none" /><polygon fill="#e4b928" points="278.12951582641335,277.2 292.7948661113835,277.2 278.968,291.5" stroke="none" /><polygon fill="#e3b727" points="292.7948661113835,277.2 285.888,291.5 278.968,291.5" stroke="none" /><polygon fill="#deb125" points="292.7948661113835,277.2 302.3267514248506,277.2 285.888,291.5" stroke="none" /><polygon fill="#ddb024" points="302.3267514248506,277.2 296.6,291.5 285.888,291.5" stroke="none" /><path d="M 240 211 L 231 219 L 240 227 Z" fill="#f5cd30" stroke="#d4a520" stroke-width="1" /><path d="M 272 211 L 281 219 L 272 227 Z" fill="#f5cd30" stroke="#d4a520" stroke-width="1" /><line stroke="#3a2a1a" stroke-width="3" x1="214" x2="233" y1="212" y2="214" /><line stroke="#3a2a1a" stroke-width="3" x1="237" x2="256" y1="214" y2="212" /><line stroke="#3a2a1a" stroke-width="3" x1="256" x2="275" y1="212" y2="214" /><line stroke="#3a2a1a" stroke-width="3" x1="279" x2="298" y1="214" y2="212" /><line stroke="#3a2a1a" stroke-width="3" x1="222" x2="248" y1="213" y2="213" /><line stroke="#3a2a1a" stroke-width="3" x1="266" x2="288" y1="210" y2="210" /><path d="M 218 226 A 8 5 0 0 0 234 226 Z" fill="#e88060" fill-opacity="0.26135303350720224" stroke="none" /><path d="M 278 227 A 8 5 0 0 0 294 227 Z" fill="#e88060" fill-opacity="0.27574103831594743" stroke="none" /><circle cx="256" cy="228" fill="#d4a520" r="3" stroke="none" /><path d="M 238 238 Q 256 247 274 238" fill="none" stroke="#c06050" stroke-width="3" /><path d="M 236 236 Q 256 249 276 236" fill="none" stroke="#a04030" stroke-width="1.5" /><path d="M 236 238 Q 256 244 276 238" fill="none" stroke="#f0a0a0" stroke-width="1" /><path d="M 246 187 Q 252 181 258 187" fill="none" stroke="#d4c0a0" stroke-opacity="0.3" stroke-width="1" /><path d="M 233 231 Q 240 224 247 231" fill="none" stroke="#d4c0a0" stroke-opacity="0.3" stroke-width="1" /><path d="M 281 200 Q 284 197 287 200" fill="none" stroke="#d4c0a0" stroke-opacity="0.3" stroke-width="1" /><path d="M 261 193 Q 265 189 269 193" fill="none" stroke="#d4c0a0" stroke-opacity="0.3" stroke-width="1" /><path d="M 260 202 Q 265 197 270 202" fill="none" stroke="#d4c0a0" stroke-opacity="0.3" stroke-width="1" /><path d="M 221 185 Q 224 182 227 185" fill="none" stroke="#d4c0a0" stroke-opacity="0.3" stroke-width="1" /><polygon fill="#b8911a" points="242,287.5 270,287.5 270,322.5 242,322.5" stroke="none" /><path d="M 253 305.5 Q 256 295.5 259 305.5" fill="none" stroke="#d4a520" stroke-width="1.5" /></svg>