<?xml version="1.0" encoding="utf-8" ?>
<svg baseProfile="full" height="512" version="1.1" width="512" xmlns="http://www.w3.org/2000/svg" xmlns:ev="http://www.w3.org/2001/xml-events" xmlns:xlink="http://www.w3.org/1999/xlink"><defs /><polygon fill="#fce06b" points="255.0,123.5 246.882,123.5 254.0,144.73000000000002" stroke="none" /><polygon fill="#fce069" points="246.882,123.5 248.00431413338833,144.73000000000002 254.0,144.73000000000002" stroke="none" /><polygon fill="#fbdf66" points="246.882,123.5 241.732,123.5 248.00431413338833,144.73000000000002" stroke="none" /><polygon fill="#fbde66" points="241.732,123.5 243.704552113228,144.73000000000002 248.00431413338833,144.73000000000002" stroke="none" /><polygon fill="#fbdd63" points="241.732,123.5 236.812,123.5 243.704552113228,144.73000000000002" stroke="none" /><polygon fill="#fbdd62" points="236.812,123.5 237.46474249709973,144.73000000000002 243.704552113228,144.73000000000002" stroke="none" /><polygon fill="#fadc60" points="236.812,123.5 231.4,123.5 237.46474249709973,144.73000000000002" stroke="none" /><polygon fill="#fadc5f" points="231.4,123.5 232.80095191935862,144.73000000000002 237.46474249709973,144.73000000000002" stroke="none" /><polygon fill="#fbdd63" points="231.4,123.5 257,123.5 232.80095191935862,144.73000000000002" stroke="none" /><polygon fill="#fcdf68" points="257,123.5 255,144.73000000000002 232.80095191935862,144.73000000000002" stroke="none" /><polygon fill="#fce16d" points="257,123.5 257.0,123.5 255,144.73000000000002" stroke="none" /><polygon fill="#fce16d" points="257.0,123.5 259.0,144.73000000000002 255,144.73000000000002" stroke="none" /><polygon fill="#fce06b" points="257.0,123.5 264.118,123.5 259.0,144.73000000000002" stroke="none" /><polygon fill="#fce06a" points="264.118,123.5 261.99568586661167,144.73000000000002 259.0,144.73000000000002" stroke="none" /><polygon fill="#fbdf67" points="264.118,123.5 269.268,123.5 261.99568586661167,144.73000000000002" stroke="none" /><polygon fill="#fbdf66" points="269.268,123.5 268.295447886772,144.73000000000002 261.99568586661167,144.73000000000002" stroke="none" /><polygon fill="#fbde64" points="269.268,123.5 274.188,123.5 268.295447886772,144.73000000000002" stroke="none" /><polygon fill="#fbde63" points="274.188,123.5 270.53525750290027,144.73000000000002 268.295447886772,144.73000000000002" stroke="none" /><polygon fill="#fadc61" points="274.188,123.5 280.6,123.5 270.53525750290027,144.73000000000002" stroke="none" /><polygon fill="#fadc60" points="280.6,123.5 275.1990480806414,144.73000000000002 270.53525750290027,144.73000000000002" stroke="none" /><polygon fill="#fce16b" points="254.0,144.73000000000002 248.00431413338833,144.73000000000002 257.0,166.925" stroke="none" /><polygon fill="#fbdf67" points="248.00431413338833,144.73000000000002 248.90137924439335,166.925 257.0,166.925" stroke="none" /><polygon fill="#fbdf67" points="248.00431413338833,144.73000000000002 243.704552113228,144.73000000000002 248.90137924439335,166.925" stroke="none" /><polygon fill="#fade64" points="243.704552113228,144.73000000000002 244.7660604901459,166.925 248.90137924439335,166.925" stroke="none" /><polygon fill="#fbde64" points="243.704552113228,144.73000000000002 237.46474249709973,144.73000000000002 244.7660604901459,166.925" stroke="none" /><polygon fill="#f9dc60" points="237.46474249709973,144.73000000000002 238.8578054867479,166.925 244.7660604901459,166.925" stroke="none" /><polygon fill="#fadc60" points="237.46474249709973,144.73000000000002 232.80095191935862,144.73000000000002 238.8578054867479,166.925" stroke="none" /><polygon fill="#f9da5c" points="232.80095191935862,144.73000000000002 228.45872498301014,166.925 238.8578054867479,166.925" stroke="none" /><polygon fill="#fadd62" points="232.80095191935862,144.73000000000002 255,144.73000000000002 228.45872498301014,166.925" stroke="none" /><polygon fill="#fade65" points="255,144.73000000000002 258,166.925 228.45872498301014,166.925" stroke="none" /><polygon fill="#fce16d" points="255,144.73000000000002 259.0,144.73000000000002 258,166.925" stroke="none" /><polygon fill="#fbe069" points="259.0,144.73000000000002 258.0,166.925 258,166.925" stroke="none" /><polygon fill="#fce16b" points="259.0,144.73000000000002 261.99568586661167,144.73000000000002 258.0,166.925" stroke="none" /><polygon fill="#fbdf66" points="261.99568586661167,144.73000000000002 267.09862075560665,166.925 258.0,166.925" stroke="none" /><polygon fill="#fbdf67" points="261.99568586661167,144.73000000000002 268.295447886772,144.73000000000002 267.09862075560665,166.925" stroke="none" /><polygon fill="#fadd62" points="268.295447886772,144.73000000000002 273.2339395098541,166.925 267.09862075560665,166.925" stroke="none" /><polygon fill="#fbde64" points="268.295447886772,144.73000000000002 270.53525750290027,144.73000000000002 273.2339395098541,166.925" stroke="none" /><polygon fill="#f9dc5f" points="270.53525750290027,144.73000000000002 276.1421945132521,166.925 273.2339395098541,166.925" stroke="none" /><polygon fill="#fadd61" points="270.53525750290027,144.73000000000002 275.1990480806414,144.73000000000002 276.1421945132521,166.925" stroke="none" /><polygon fill="#f9da5c" points="275.1990480806414,144.73000000000002 282.54127501698986,166.925 276.1421945132521,166.925" stroke="none" /><polygon fill="#fade64" points="257.0,166.925 248.90137924439335,166.925 253.0,186.225" stroke="none" /><polygon fill="#f9da5e" points="248.90137924439335,166.925 237.36251176406975,186.225 253.0,186.225" stroke="none" /><polygon fill="#f8db5e" points="248.90137924439335,166.925 244.7660604901459,166.925 237.36251176406975,186.225" stroke="none" /><polygon fill="#f7d859" points="244.7660604901459,166.925 230.5159297671529,186.225 237.36251176406975,186.225" stroke="none" /><polygon fill="#f7d95b" points="244.7660604901459,166.925 238.8578054867479,166.925 230.5159297671529,186.225" stroke="none" /><polygon fill="#f6d554" points="238.8578054867479,166.925 221.03866416961944,186.225 230.5159297671529,186.225" stroke="none" /><polygon fill="#f6d656" points="238.8578054867479,166.925 228.45872498301014,166.925 221.03866416961944,186.225" stroke="none" /><polygon fill="#f3d24e" points="228.45872498301014,166.925 207.6136720123326,186.225 221.03866416961944,186.225" stroke="none" /><polygon fill="#f6d757" points="228.45872498301014,166.925 258,166.925 207.6136720123326,186.225" stroke="none" /><polygon fill="#f8d95b" points="258,166.925 259,186.225 207.6136720123326,186.225" stroke="none" /><polygon fill="#fade64" points="258,166.925 258.0,166.925 259,186.225" stroke="none" /><polygon fill="#fadd63" points="258.0,166.925 253.0,186.225 259,186.225" stroke="none" /><polygon fill="#fadd63" points="258.0,166.925 267.09862075560665,166.925 253.0,186.225" stroke="none" /><polygon fill="#f9db5f" points="267.09862075560665,166.925 270.6374882359302,186.225 253.0,186.225" stroke="none" /><polygon fill="#f8da5d" points="267.09862075560665,166.925 273.2339395098541,166.925 270.6374882359302,186.225" stroke="none" /><polygon fill="#f7d759" points="273.2339395098541,166.925 280.4840702328471,186.225 270.6374882359302,186.225" stroke="none" /><polygon fill="#f7d859" points="273.2339395098541,166.925 276.1421945132521,166.925 280.4840702328471,186.225" stroke="none" /><polygon fill="#f5d554" points="276.1421945132521,166.925 292.96133583038056,186.225 280.4840702328471,186.225" stroke="none" /><polygon fill="#f6d655" points="276.1421945132521,166.925 282.54127501698986,166.925 292.96133583038056,186.225" stroke="none" /><polygon fill="#f4d24e" points="282.54127501698986,166.925 301.3863279876674,186.225 292.96133583038056,186.225" stroke="none" /><polygon fill="#f8d95c" points="253.0,186.225 237.36251176406975,186.225 258.0,202.63" stroke="none" /><polygon fill="#f7d757" points="237.36251176406975,186.225 234.53337266219967,202.63 258.0,202.63" stroke="none" /><polygon fill="#f5d454" points="237.36251176406975,186.225 230.5159297671529,186.225 234.53337266219967,202.63" stroke="none" /><polygon fill="#f3d250" points="230.5159297671529,186.225 224.78592770932062,202.63 234.53337266219967,202.63" stroke="none" /><polygon fill="#f3d14f" points="230.5159297671529,186.225 221.03866416961944,186.225 224.78592770932062,202.63" stroke="none" /><polygon fill="#f1cf4a" points="221.03866416961944,186.225 212.98797174701738,202.63 224.78592770932062,202.63" stroke="none" /><polygon fill="#f0cd49" points="221.03866416961944,186.225 207.6136720123326,186.225 212.98797174701738,202.63" stroke="none" /><polygon fill="#eeca43" points="207.6136720123326,186.225 194.01022018848383,202.63 212.98797174701738,202.63" stroke="none" /><polygon fill="#f2cf4c" points="207.6136720123326,186.225 259,186.225 194.01022018848383,202.63" stroke="none" /><polygon fill="#f5d553" points="259,186.225 257,202.63 194.01022018848383,202.63" stroke="none" /><polygon fill="#f9db5f" points="259,186.225 253.0,186.225 257,202.63" stroke="none" /><polygon fill="#fadc5e" points="253.0,186.225 258.0,202.63 257,202.63" stroke="none" /><polygon fill="#f9da5d" points="253.0,186.225 270.6374882359302,186.225 258.0,202.63" stroke="none" /><polygon fill="#f7d757" points="270.6374882359302,186.225 275.46662733780033,202.63 258.0,202.63" stroke="none" /><polygon fill="#f5d555" points="270.6374882359302,186.225 280.4840702328471,186.225 275.46662733780033,202.63" stroke="none" /><polygon fill="#f4d350" points="280.4840702328471,186.225 288.2140722906794,202.63 275.46662733780033,202.63" stroke="none" /><polygon fill="#f3d14f" points="280.4840702328471,186.225 292.96133583038056,186.225 288.2140722906794,202.63" stroke="none" /><polygon fill="#f0ce49" points="292.96133583038056,186.225 304.01202825298265,202.63 288.2140722906794,202.63" stroke="none" /><polygon fill="#f0cd48" points="292.96133583038056,186.225 301.3863279876674,186.225 304.01202825298265,202.63" stroke="none" /><polygon fill="#edc942" points="301.3863279876674,186.225 317.9897798115162,202.63 304.01202825298265,202.63" stroke="none" /><polygon fill="#f7d757" points="258.0,202.63 234.53337266219967,202.63 256.0,218.07" stroke="none" /><polygon fill="#f4d251" points="234.53337266219967,202.63 228.60141065442494,218.07 256.0,218.07" stroke="none" /><polygon fill="#f1d04d" points="234.53337266219967,202.63 224.78592770932062,202.63 228.60141065442494,218.07" stroke="none" /><polygon fill="#eecb47" points="224.78592770932062,202.63 206.60247933201958,218.07 228.60141065442494,218.07" stroke="none" /><polygon fill="#eeca46" points="224.78592770932062,202.63 212.98797174701738,202.63 206.60247933201958,218.07" stroke="none" /><polygon fill="#eac53f" points="212.98797174701738,202.63 192.6033342740953,218.07 206.60247933201958,218.07" stroke="none" /><polygon fill="#eac53f" points="212.98797174701738,202.63 194.01022018848383,202.63 192.6033342740953,218.07" stroke="none" /><polygon fill="#e6bf38" points="194.01022018848383,202.63 175.00427471037858,218.07 192.6033342740953,218.07" stroke="none" /><polygon fill="#ecc843" points="194.01022018848383,202.63 257,202.63 175.00427471037858,218.07" stroke="none" /><polygon fill="#f1cf4c" points="257,202.63 259,218.07 175.00427471037858,218.07" stroke="none" /><polygon fill="#f8d95a" points="257,202.63 258.0,202.63 259,218.07" stroke="none" /><polygon fill="#f8d858" points="258.0,202.63 253.0,218.07 259,218.07" stroke="none" /><polygon fill="#f7d757" points="258.0,202.63 275.46662733780033,202.63 253.0,218.07" stroke="none" /><polygon fill="#f5d352" points="275.46662733780033,202.63 282.3985893455751,218.07 253.0,218.07" stroke="none" /><polygon fill="#f2d04e" points="275.46662733780033,202.63 288.2140722906794,202.63 282.3985893455751,218.07" stroke="none" /><polygon fill="#efcb47" points="288.2140722906794,202.63 303.3975206679804,218.07 282.3985893455751,218.07" stroke="none" /><polygon fill="#edca45" points="288.2140722906794,202.63 304.01202825298265,202.63 303.3975206679804,218.07" stroke="none" /><polygon fill="#eac43f" points="304.01202825298265,202.63 319.3966657259047,218.07 303.3975206679804,218.07" stroke="none" /><polygon fill="#e9c43e" points="304.01202825298265,202.63 317.9897798115162,202.63 319.3966657259047,218.07" stroke="none" /><polygon fill="#e6bf38" points="317.9897798115162,202.63 336.9957252896214,218.07 319.3966657259047,218.07" stroke="none" /><polygon fill="#f4d451" points="256.0,218.07 228.60141065442494,218.07 254.0,231.58" stroke="none" /><polygon fill="#f2d14c" points="228.60141065442494,218.07 235.58803032100835,231.58 254.0,231.58" stroke="none" /><polygon fill="#eecb47" points="228.60141065442494,218.07 206.60247933201958,218.07 235.58803032100835,231.58" stroke="none" /><polygon fill="#ecc944" points="206.60247933201958,218.07 217.60926541268134,231.58 235.58803032100835,231.58" stroke="none" /><polygon fill="#e8c43f" points="206.60247933201958,218.07 192.6033342740953,218.07 217.60926541268134,231.58" stroke="none" /><polygon fill="#e7c23e" points="192.6033342740953,218.07 204.02625348601973,231.58 217.60926541268134,231.58" stroke="none" /><polygon fill="#e3be38" points="192.6033342740953,218.07 175.00427471037858,218.07 204.02625348601973,231.58" stroke="none" /><polygon fill="#e2bc37" points="175.00427471037858,218.07 189.08494036669197,231.58 204.02625348601973,231.58" stroke="none" /><polygon fill="#e9c440" points="175.00427471037858,218.07 259,218.07 189.08494036669197,231.58" stroke="none" /><polygon fill="#f1cf4b" points="259,218.07 257,231.58 189.08494036669197,231.58" stroke="none" /><polygon fill="#f7d755" points="259,218.07 253.0,218.07 257,231.58" stroke="none" /><polygon fill="#f7d753" points="253.0,218.07 257.0,231.58 257,231.58" stroke="none" /><polygon fill="#f5d452" points="253.0,218.07 282.3985893455751,218.07 257.0,231.58" stroke="none" /><polygon fill="#f2d14d" points="282.3985893455751,218.07 277.4119696789917,231.58 257.0,231.58" stroke="none" /><polygon fill="#eecb47" points="282.3985893455751,218.07 303.3975206679804,218.07 277.4119696789917,231.58" stroke="none" /><polygon fill="#ecc944" points="303.3975206679804,218.07 296.39073458731866,231.58 277.4119696789917,231.58" stroke="none" /><polygon fill="#e8c43f" points="303.3975206679804,218.07 319.3966657259047,218.07 296.39073458731866,231.58" stroke="none" /><polygon fill="#e7c23e" points="319.3966657259047,218.07 305.9737465139803,231.58 296.39073458731866,231.58" stroke="none" /><polygon fill="#e4be38" points="319.3966657259047,218.07 336.9957252896214,218.07 305.9737465139803,231.58" stroke="none" /><polygon fill="#e2bc37" points="336.9957252896214,218.07 324.91505963330803,231.58 305.9737465139803,231.58" stroke="none" /><polygon fill="#f5d34e" points="254.0,231.58 235.58803032100835,231.58 259.0,247.02" stroke="none" /><polygon fill="#f2d04a" points="235.58803032100835,231.58 237.74829676387375,247.02 259.0,247.02" stroke="none" /><polygon fill="#eecb46" points="235.58803032100835,231.58 217.60926541268134,231.58 237.74829676387375,247.02" stroke="none" /><polygon fill="#ecc943" points="217.60926541268134,231.58 224.67882461529328,247.02 237.74829676387375,247.02" stroke="none" /><polygon fill="#e9c440" points="217.60926541268134,231.58 204.02625348601973,231.58 224.67882461529328,247.02" stroke="none" /><polygon fill="#e8c33f" points="204.02625348601973,231.58 213.2232468964289,247.02 224.67882461529328,247.02" stroke="none" /><polygon fill="#e5bf3b" points="204.02625348601973,231.58 189.08494036669197,231.58 213.2232468964289,247.02" stroke="none" /><polygon fill="#e4be3a" points="189.08494036669197,231.58 203.72211140567805,247.02 213.2232468964289,247.02" stroke="none" /><polygon fill="#eac541" points="189.08494036669197,231.58 257,231.58 203.72211140567805,247.02" stroke="none" /><polygon fill="#f0ce48" points="257,231.58 256,247.02 203.72211140567805,247.02" stroke="none" /><polygon fill="#f7d550" points="257,231.58 257.0,231.58 256,247.02" stroke="none" /><polygon fill="#f6d54e" points="257.0,231.58 253.0,247.02 256,247.02" stroke="none" /><polygon fill="#f5d34e" points="257.0,231.58 277.4119696789917,231.58 253.0,247.02" stroke="none" /><polygon fill="#f2d04a" points="277.4119696789917,231.58 272.2517032361262,247.02 253.0,247.02" stroke="none" /><polygon fill="#eeca46" points="277.4119696789917,231.58 296.39073458731866,231.58 272.2517032361262,247.02" stroke="none" /><polygon fill="#edc944" points="296.39073458731866,231.58 283.32117538470675,247.02 272.2517032361262,247.02" stroke="none" /><polygon fill="#eac541" points="296.39073458731866,231.58 305.9737465139803,231.58 283.32117538470675,247.02" stroke="none" /><polygon fill="#e9c43f" points="305.9737465139803,231.58 297.7767531035711,247.02 283.32117538470675,247.02" stroke="none" /><polygon fill="#e5bf3b" points="305.9737465139803,231.58 324.91505963330803,231.58 297.7767531035711,247.02" stroke="none" /><polygon fill="#e4be3a" points="324.91505963330803,231.58 306.27788859432195,247.02 297.7767531035711,247.02" stroke="none" /><polygon fill="#f4d149" points="259.0,247.02 237.74829676387375,247.02 256.0,263.425" stroke="none" /><polygon fill="#f1cd46" points="237.74829676387375,247.02 242.07515878731581,263.425 256.0,263.425" stroke="none" /><polygon fill="#eeca43" points="237.74829676387375,247.02 224.67882461529328,247.02 242.07515878731581,263.425" stroke="none" /><polygon fill="#edc942" points="224.67882461529328,247.02 238.04118817164598,263.425 242.07515878731581,263.425" stroke="none" /><polygon fill="#eac640" points="224.67882461529328,247.02 213.2232468964289,247.02 238.04118817164598,263.425" stroke="none" /><polygon fill="#eac540" points="213.2232468964289,247.02 227.8140116791101,263.425 238.04118817164598,263.425" stroke="none" /><polygon fill="#e6c13d" points="213.2232468964289,247.02 203.72211140567805,247.02 227.8140116791101,263.425" stroke="none" /><polygon fill="#e6c13d" points="203.72211140567805,247.02 221.86411753732065,263.425 227.8140116791101,263.425" stroke="none" /><polygon fill="#ebc641" points="203.72211140567805,247.02 256,247.02 221.86411753732065,263.425" stroke="none" /><polygon fill="#f1cd45" points="256,247.02 254,263.425 221.86411753732065,263.425" stroke="none" /><polygon fill="#f6d34a" points="256,247.02 253.0,247.02 254,263.425" stroke="none" /><polygon fill="#f5d249" points="253.0,247.02 255.0,263.425 254,263.425" stroke="none" /><polygon fill="#f5d249" points="253.0,247.02 272.2517032361262,247.02 255.0,263.425" stroke="none" /><polygon fill="#f2ce46" points="272.2517032361262,247.02 268.9248412126842,263.425 255.0,263.425" stroke="none" /><polygon fill="#efcb44" points="272.2517032361262,247.02 283.32117538470675,247.02 268.9248412126842,263.425" stroke="none" /><polygon fill="#edc943" points="283.32117538470675,247.02 277.95881182835404,263.425 268.9248412126842,263.425" stroke="none" /><polygon fill="#ebc640" points="283.32117538470675,247.02 297.7767531035711,247.02 277.95881182835404,263.425" stroke="none" /><polygon fill="#eac540" points="297.7767531035711,247.02 281.1859883208899,263.425 277.95881182835404,263.425" stroke="none" /><polygon fill="#e7c23d" points="297.7767531035711,247.02 306.27788859432195,247.02 281.1859883208899,263.425" stroke="none" /><polygon fill="#e7c13d" points="306.27788859432195,247.02 290.1358824626794,263.425 281.1859883208899,263.425" stroke="none" /><polygon fill="#f3cf44" points="256.0,263.425 242.07515878731581,263.425 254.0,279.83" stroke="none" /><polygon fill="#f2cd42" points="242.07515878731581,263.425 251.5184698326817,279.83 254.0,279.83" stroke="none" /><polygon fill="#f0cb42" points="242.07515878731581,263.425 238.04118817164598,263.425 251.5184698326817,279.83" stroke="none" /><polygon fill="#f0cb40" points="238.04118817164598,263.425 244.85064394834964,279.83 251.5184698326817,279.83" stroke="none" /><polygon fill="#edc840" points="238.04118817164598,263.425 227.8140116791101,263.425 244.85064394834964,279.83" stroke="none" /><polygon fill="#ecc73e" points="227.8140116791101,263.425 238.316383240884,279.83 244.85064394834964,279.83" stroke="none" /><polygon fill="#eac43e" points="227.8140116791101,263.425 221.86411753732065,263.425 238.316383240884,279.83" stroke="none" /><polygon fill="#eac53d" points="221.86411753732065,263.425 236.3286964626718,279.83 238.316383240884,279.83" stroke="none" /><polygon fill="#edc840" points="221.86411753732065,263.425 254,263.425 236.3286964626718,279.83" stroke="none" /><polygon fill="#f2cd42" points="254,263.425 259,279.83 236.3286964626718,279.83" stroke="none" /><polygon fill="#f6d246" points="254,263.425 255.0,263.425 259,279.83" stroke="none" /><polygon fill="#f4d043" points="255.0,263.425 253.0,279.83 259,279.83" stroke="none" /><polygon fill="#f4d045" points="255.0,263.425 268.9248412126842,263.425 253.0,279.83" stroke="none" /><polygon fill="#f2cd42" points="268.9248412126842,263.425 265.4815301673183,279.83 253.0,279.83" stroke="none" /><polygon fill="#efca41" points="268.9248412126842,263.425 277.95881182835404,263.425 265.4815301673183,279.83" stroke="none" /><polygon fill="#eec93f" points="277.95881182835404,263.425 268.1493560516504,279.83 265.4815301673183,279.83" stroke="none" /><polygon fill="#edc840" points="277.95881182835404,263.425 281.1859883208899,263.425 268.1493560516504,279.83" stroke="none" /><polygon fill="#edc83f" points="281.1859883208899,263.425 271.683616759116,279.83 268.1493560516504,279.83" stroke="none" /><polygon fill="#ebc53e" points="281.1859883208899,263.425 290.1358824626794,263.425 271.683616759116,279.83" stroke="none" /><polygon fill="#eac43d" points="290.1358824626794,263.425 280.6713035373282,279.83 271.683616759116,279.83" stroke="none" /><polygon fill="#f3ce3f" points="254.0,279.83 251.5184698326817,279.83 255.0,297.2" stroke="none" /><polygon fill="#f3cd3f" points="251.5184698326817,279.83 249.75658091003737,297.2 255.0,297.2" stroke="none" /><polygon fill="#f1cc3e" points="251.5184698326817,279.83 244.85064394834964,279.83 249.75658091003737,297.2" stroke="none" /><polygon fill="#efca3d" points="244.85064394834964,279.83 240.26914220552024,297.2 249.75658091003737,297.2" stroke="none" /><polygon fill="#edc83c" points="244.85064394834964,279.83 238.316383240884,279.83 240.26914220552024,297.2" stroke="none" /><polygon fill="#ecc63b" points="238.316383240884,279.83 236.8791912419065,297.2 240.26914220552024,297.2" stroke="none" /><polygon fill="#ebc63b" points="238.316383240884,279.83 236.3286964626718,279.83 236.8791912419065,297.2" stroke="none" /><polygon fill="#ebc53b" points="236.3286964626718,279.83 235.05024518193142,297.2 236.8791912419065,297.2" stroke="none" /><polygon fill="#eec93d" points="236.3286964626718,279.83 259,279.83 235.05024518193142,297.2" stroke="none" /><polygon fill="#f2cd3e" points="259,279.83 257,297.2 235.05024518193142,297.2" stroke="none" /><polygon fill="#f4cf3f" points="259,279.83 253.0,279.83 257,297.2" stroke="none" /><polygon fill="#f4cf3f" points="253.0,279.83 255.0,297.2 257,297.2" stroke="none" /><polygon fill="#f4cf3f" points="253.0,279.83 265.4815301673183,279.83 255.0,297.2" stroke="none" /><polygon fill="#f2cd3f" points="265.4815301673183,279.83 260.24341908996263,297.2 255.0,297.2" stroke="none" /><polygon fill="#f0cb3d" points="265.4815301673183,279.83 268.1493560516504,279.83 260.24341908996263,297.2" stroke="none" /><polygon fill="#f0ca3d" points="268.1493560516504,279.83 268.7308577944798,297.2 260.24341908996263,297.2" stroke="none" /><polygon fill="#eec83c" points="268.1493560516504,279.83 271.683616759116,279.83 268.7308577944798,297.2" stroke="none" /><polygon fill="#edc83c" points="271.683616759116,279.83 271.12080875809346,297.2 268.7308577944798,297.2" stroke="none" /><polygon fill="#ecc63b" points="271.683616759116,279.83 280.6713035373282,279.83 271.12080875809346,297.2" stroke="none" /><polygon fill="#ebc53b" points="280.6713035373282,279.83 274.9497548180686,297.2 271.12080875809346,297.2" stroke="none" /><polygon fill="#f3ce3f" points="255.0,297.2 249.75658091003737,297.2 255.0,316.5" stroke="none" /><polygon fill="#f2cd3e" points="249.75658091003737,297.2 246.882,316.5 255.0,316.5" stroke="none" /><polygon fill="#efca3d" points="249.75658091003737,297.2 240.26914220552024,297.2 246.882,316.5" stroke="none" /><polygon fill="#eec93d" points="240.26914220552024,297.2 242.732,316.5 246.882,316.5" stroke="none" /><polygon fill="#edc73c" points="240.26914220552024,297.2 236.8791912419065,297.2 242.732,316.5" stroke="none" /><polygon fill="#ecc63b" points="236.8791912419065,297.2 236.812,316.5 242.732,316.5" stroke="none" /><polygon fill="#ebc53b" points="236.8791912419065,297.2 235.05024518193142,297.2 236.812,316.5" stroke="none" /><polygon fill="#eac43a" points="235.05024518193142,297.2 230.4,316.5 236.812,316.5" stroke="none" /><polygon fill="#edc83c" points="235.05024518193142,297.2 257,297.2 230.4,316.5" stroke="none" /><polygon fill="#f0cb3e" points="257,297.2 255,316.5 230.4,316.5" stroke="none" /><polygon fill="#f4cf3f" points="257,297.2 255.0,297.2 255,316.5" stroke="none" /><polygon fill="#f4cf3f" points="255.0,297.2 257.0,316.5 255,316.5" stroke="none" /><polygon fill="#f4cf3f" points="255.0,297.2 260.24341908996263,297.2 257.0,316.5" stroke="none" /><polygon fill="#f2cd3e" points="260.24341908996263,297.2 265.118,316.5 257.0,316.5" stroke="none" /><polygon fill="#f0cb3d" points="260.24341908996263,297.2 268.7308577944798,297.2 265.118,316.5" stroke="none" /><polygon fill="#efc93d" points="268.7308577944798,297.2 271.268,316.5 265.118,316.5" stroke="none" /><polygon fill="#eec83c" points="268.7308577944798,297.2 271.12080875809346,297.2 271.268,316.5" stroke="none" /><polygon fill="#ecc73c" points="271.12080875809346,297.2 276.188,316.5 271.268,316.5" stroke="none" /><polygon fill="#ecc63b" points="271.12080875809346,297.2 274.9497548180686,297.2 276.188,316.5" stroke="none" /><polygon fill="#eac43b" points="274.9497548180686,297.2 280.6,316.5 276.188,316.5" stroke="none" /><path d="M 237 207 A 11 16 0 0 0 237 231 Z" fill="#f5d040" stroke="#d4ac30" stroke-width="1" /><circle cx="233" cy="231" fill="#f5d040" r="4" stroke="#d4ac30" stroke-width="1" /><path d="M 275 207 A 11 16 0 0 1 275 231 Z" fill="#f5d040" stroke="#d4ac30" stroke-width="1" /><circle cx="279" cy="231" fill="#f5d040" r="4" stroke="#d4ac30" stroke-width="1" /><path d="M 206 211 Q 230 197 254 215 Q 230 232 206 211" fill="#e8e0d8" stroke="#3a2a1a" stroke-width="1.5" /><path d="M 226 215 A 5 5 0 0 0 236 215 Z" fill="#3a2a1a" stroke="none" /><circle cx="232" cy="212" fill="white" r="2" stroke="none" /><path d="M 258 211 Q 282 197 306 215 Q 282 232 258 211" fill="#e8e0d8" stroke="#3a2a1a" stroke-width="1.5" /><path d="M 278 215 A 5 5 0 0 0 288 215 Z" fill="#3a2a1a" stroke="none" /><circle cx="284" cy="212" fill="white" r="2" stroke="none" /><path d="M 212 204 Q 230 194 248 204" fill="none" stroke="#3a2a1a" stroke-width="4" /><path d="M 265 205 Q 282 195 299 205" fill="none" stroke="#3a2a1a" stroke-width="4" /><path d="M 211 226 A 9 6 0 0 0 229 226 Z" fill="#e88060" fill-opacity="0.27178776152097656" stroke="none" /><path d="M 284 225 A 11 7 0 0 0 306 225 Z" fill="#e88060" fill-opacity="0.23925129635067632" stroke="none" /><circle cx="256" cy="228" fill="#d4ac30" r="4" stroke="none" /><path d="M 234 244 Q 256 255 278 244" fill="none" stroke="#c06050" stroke-width="3" /><path d="M 232 242 Q 256 258 280 242" fill="none" stroke="#a04030" stroke-width="1.5" /><path d="M 232 244 Q 256 252 280 244" fill="none" stroke="#f0a0a0" stroke-width="1" /><ellipse cx="256" cy="177" fill="white" fill-opacity="0.10" rx="5" ry="4" stroke="none" /><ellipse cx="236" cy="211" fill="white" fill-opacity="0.10" rx="5" ry="4" stroke="none" /><ellipse cx="276" cy="211" fill="white" fill-opacity="0.10" rx="5" ry="4" stroke="none" /><polygon fill="#b89824" points="242,312.5 270,312.5 270,347.5 242,347.5" stroke="none" /><path d="M 253 330.5 Q 256 320.5 259 330.5" fill="none" stroke="#d4ac30" stroke-width="1.5" /></svg>