<?xml version="1.0" encoding="utf-8" ?>
<svg baseProfile="full" height="512" version="1.1" width="512" xmlns="http://www.w3.org/2000/svg" xmlns:ev="http://www.w3.org/2001/xml-events" xmlns:xlink="http://www.w3.org/1999/xlink"><defs /><polygon fill="#fde36d" points="255.0,140.0 255.6338,140.0 257.0,157.6" stroke="none" /><polygon fill="#fde26b" points="255.6338,140.0 243.14756624101747,157.6 257.0,157.6" stroke="none" /><polygon fill="#fde269" points="255.6338,140.0 252.5988,140.0 243.14756624101747,157.6" stroke="none" /><polygon fill="#fce065" points="252.5988,140.0 235.41087399936407,157.6 243.14756624101747,157.6" stroke="none" /><polygon fill="#fce167" points="252.5988,140.0 252.7708,140.0 235.41087399936407,157.6" stroke="none" /><polygon fill="#fbde60" points="252.7708,140.0 223.6215202060413,157.6 235.41087399936407,157.6" stroke="none" /><polygon fill="#fcdf64" points="252.7708,140.0 252.86,140.0 223.6215202060413,157.6" stroke="none" /><polygon fill="#fadc5b" points="252.86,140.0 215.0532310333863,157.6 223.6215202060413,157.6" stroke="none" /><polygon fill="#fbdf63" points="252.86,140.0 255,140.0 215.0532310333863,157.6" stroke="none" /><polygon fill="#fbdf63" points="255,140.0 254,157.6 215.0532310333863,157.6" stroke="none" /><polygon fill="#fde36d" points="255,140.0 257.0,140.0 254,157.6" stroke="none" /><polygon fill="#fde36d" points="257.0,140.0 254.0,157.6 254,157.6" stroke="none" /><polygon fill="#fde36d" points="257.0,140.0 258.3662,140.0 254.0,157.6" stroke="none" /><polygon fill="#fde26b" points="258.3662,140.0 267.8524337589825,157.6 254.0,157.6" stroke="none" /><polygon fill="#fde269" points="258.3662,140.0 259.4012,140.0 267.8524337589825,157.6" stroke="none" /><polygon fill="#fce065" points="259.4012,140.0 276.58912600063593,157.6 267.8524337589825,157.6" stroke="none" /><polygon fill="#fce167" points="259.4012,140.0 258.2292,140.0 276.58912600063593,157.6" stroke="none" /><polygon fill="#fbde60" points="258.2292,140.0 289.37847979395866,157.6 276.58912600063593,157.6" stroke="none" /><polygon fill="#fcdf64" points="258.2292,140.0 261.14,140.0 289.37847979395866,157.6" stroke="none" /><polygon fill="#fadb5a" points="261.14,140.0 295.9467689666137,157.6 289.37847979395866,157.6" stroke="none" /><polygon fill="#fde26a" points="257.0,157.6 243.14756624101747,157.6 254.0,176.0" stroke="none" /><polygon fill="#fbdf63" points="243.14756624101747,157.6 240.6341979318223,176.0 254.0,176.0" stroke="none" /><polygon fill="#fbde62" points="243.14756624101747,157.6 235.41087399936407,157.6 240.6341979318223,176.0" stroke="none" /><polygon fill="#f9db5b" points="235.41087399936407,157.6 226.47828727411195,176.0 240.6341979318223,176.0" stroke="none" /><polygon fill="#fadb59" points="235.41087399936407,157.6 223.6215202060413,157.6 226.47828727411195,176.0" stroke="none" /><polygon fill="#f7d752" points="223.6215202060413,157.6 211.95355874794365,176.0 226.47828727411195,176.0" stroke="none" /><polygon fill="#f8d751" points="223.6215202060413,157.6 215.0532310333863,157.6 211.95355874794365,176.0" stroke="none" /><polygon fill="#f5d44b" points="215.0532310333863,157.6 205.3763573691585,176.0 211.95355874794365,176.0" stroke="none" /><polygon fill="#f9da57" points="215.0532310333863,157.6 254,157.6 205.3763573691585,176.0" stroke="none" /><polygon fill="#fadc5e" points="254,157.6 253,176.0 205.3763573691585,176.0" stroke="none" /><polygon fill="#fde36c" points="254,157.6 254.0,157.6 253,176.0" stroke="none" /><polygon fill="#fce269" points="254.0,157.6 254.0,176.0 253,176.0" stroke="none" /><polygon fill="#fde36c" points="254.0,157.6 267.8524337589825,157.6 254.0,176.0" stroke="none" /><polygon fill="#fbe064" points="267.8524337589825,157.6 272.3658020681777,176.0 254.0,176.0" stroke="none" /><polygon fill="#fbde62" points="267.8524337589825,157.6 276.58912600063593,157.6 272.3658020681777,176.0" stroke="none" /><polygon fill="#f9db5c" points="276.58912600063593,157.6 283.52171272588805,176.0 272.3658020681777,176.0" stroke="none" /><polygon fill="#fadb5a" points="276.58912600063593,157.6 289.37847979395866,157.6 283.52171272588805,176.0" stroke="none" /><polygon fill="#f7d753" points="289.37847979395866,157.6 296.04644125205635,176.0 283.52171272588805,176.0" stroke="none" /><polygon fill="#f8d852" points="289.37847979395866,157.6 295.9467689666137,157.6 296.04644125205635,176.0" stroke="none" /><polygon fill="#f5d44b" points="295.9467689666137,157.6 311.62364263084146,176.0 296.04644125205635,176.0" stroke="none" /><polygon fill="#fade62" points="254.0,176.0 240.6341979318223,176.0 253.0,192.0" stroke="none" /><polygon fill="#f8da5c" points="240.6341979318223,176.0 233.60296147565953,192.0 253.0,192.0" stroke="none" /><polygon fill="#f7d858" points="240.6341979318223,176.0 226.47828727411195,176.0 233.60296147565953,192.0" stroke="none" /><polygon fill="#f5d552" points="226.47828727411195,176.0 222.1506595632804,192.0 233.60296147565953,192.0" stroke="none" /><polygon fill="#f5d34f" points="226.47828727411195,176.0 211.95355874794365,176.0 222.1506595632804,192.0" stroke="none" /><polygon fill="#f2d04a" points="211.95355874794365,176.0 208.78881803337708,192.0 222.1506595632804,192.0" stroke="none" /><polygon fill="#f2cf47" points="211.95355874794365,176.0 205.3763573691585,176.0 208.78881803337708,192.0" stroke="none" /><polygon fill="#efcb42" points="205.3763573691585,176.0 191.19079235048346,192.0 208.78881803337708,192.0" stroke="none" /><polygon fill="#f4d24c" points="205.3763573691585,176.0 253,176.0 191.19079235048346,192.0" stroke="none" /><polygon fill="#f7d757" points="253,176.0 259,192.0 191.19079235048346,192.0" stroke="none" /><polygon fill="#fbe066" points="253,176.0 254.0,176.0 259,192.0" stroke="none" /><polygon fill="#fce065" points="254.0,176.0 255.0,192.0 259,192.0" stroke="none" /><polygon fill="#fbdf64" points="254.0,176.0 272.3658020681777,176.0 255.0,192.0" stroke="none" /><polygon fill="#f9db5d" points="272.3658020681777,176.0 275.3970385243405,192.0 255.0,192.0" stroke="none" /><polygon fill="#f7d959" points="272.3658020681777,176.0 283.52171272588805,176.0 275.3970385243405,192.0" stroke="none" /><polygon fill="#f5d553" points="283.52171272588805,176.0 290.8493404367196,192.0 275.3970385243405,192.0" stroke="none" /><polygon fill="#f5d450" points="283.52171272588805,176.0 296.04644125205635,176.0 290.8493404367196,192.0" stroke="none" /><polygon fill="#f2cf49" points="296.04644125205635,176.0 307.2111819666229,192.0 290.8493404367196,192.0" stroke="none" /><polygon fill="#f2cf46" points="296.04644125205635,176.0 311.62364263084146,176.0 307.2111819666229,192.0" stroke="none" /><polygon fill="#efca40" points="311.62364263084146,176.0 319.80920764951657,192.0 307.2111819666229,192.0" stroke="none" /><polygon fill="#f8da5b" points="253.0,192.0 233.60296147565953,192.0 254.0,205.6" stroke="none" /><polygon fill="#f6d756" points="233.60296147565953,192.0 231.98787428895258,205.6 254.0,205.6" stroke="none" /><polygon fill="#f4d351" points="233.60296147565953,192.0 222.1506595632804,192.0 231.98787428895258,205.6" stroke="none" /><polygon fill="#f1d04c" points="222.1506595632804,192.0 216.312021477553,205.6 231.98787428895258,205.6" stroke="none" /><polygon fill="#f0cd49" points="222.1506595632804,192.0 208.78881803337708,192.0 216.312021477553,205.6" stroke="none" /><polygon fill="#eeca44" points="208.78881803337708,192.0 202.97133922843335,205.6 216.312021477553,205.6" stroke="none" /><polygon fill="#ecc740" points="208.78881803337708,192.0 191.19079235048346,192.0 202.97133922843335,205.6" stroke="none" /><polygon fill="#ebc63e" points="191.19079235048346,192.0 188.29658875440174,205.6 202.97133922843335,205.6" stroke="none" /><polygon fill="#efcc47" points="191.19079235048346,192.0 259,192.0 188.29658875440174,205.6" stroke="none" /><polygon fill="#f5d553" points="259,192.0 258,205.6 188.29658875440174,205.6" stroke="none" /><polygon fill="#fadd60" points="259,192.0 255.0,192.0 258,205.6" stroke="none" /><polygon fill="#fadd5f" points="255.0,192.0 258.0,205.6 258,205.6" stroke="none" /><polygon fill="#f9db5c" points="255.0,192.0 275.3970385243405,192.0 258.0,205.6" stroke="none" /><polygon fill="#f6d756" points="275.3970385243405,192.0 281.0121257110474,205.6 258.0,205.6" stroke="none" /><polygon fill="#f4d351" points="275.3970385243405,192.0 290.8493404367196,192.0 281.0121257110474,205.6" stroke="none" /><polygon fill="#f1d04c" points="290.8493404367196,192.0 296.687978522447,205.6 281.0121257110474,205.6" stroke="none" /><polygon fill="#efcd48" points="290.8493404367196,192.0 307.2111819666229,192.0 296.687978522447,205.6" stroke="none" /><polygon fill="#edca44" points="307.2111819666229,192.0 306.02866077156665,205.6 296.687978522447,205.6" stroke="none" /><polygon fill="#ecc740" points="307.2111819666229,192.0 319.80920764951657,192.0 306.02866077156665,205.6" stroke="none" /><polygon fill="#ebc63e" points="319.80920764951657,192.0 325.70341124559826,205.6 306.02866077156665,205.6" stroke="none" /><polygon fill="#f6d756" points="254.0,205.6 231.98787428895258,205.6 253.0,218.4" stroke="none" /><polygon fill="#f4d452" points="231.98787428895258,205.6 237.52663840568508,218.4 253.0,218.4" stroke="none" /><polygon fill="#f1d04d" points="231.98787428895258,205.6 216.312021477553,205.6 237.52663840568508,218.4" stroke="none" /><polygon fill="#efcc4a" points="216.312021477553,205.6 220.7740917433253,218.4 237.52663840568508,218.4" stroke="none" /><polygon fill="#ecc945" points="216.312021477553,205.6 202.97133922843335,205.6 220.7740917433253,218.4" stroke="none" /><polygon fill="#eac642" points="202.97133922843335,205.6 206.9720544134375,218.4 220.7740917433253,218.4" stroke="none" /><polygon fill="#e8c33d" points="202.97133922843335,205.6 188.29658875440174,205.6 206.9720544134375,218.4" stroke="none" /><polygon fill="#e7c13c" points="188.29658875440174,205.6 197.98981335056087,218.4 206.9720544134375,218.4" stroke="none" /><polygon fill="#edca45" points="188.29658875440174,205.6 258,205.6 197.98981335056087,218.4" stroke="none" /><polygon fill="#f4d251" points="258,205.6 258,218.4 197.98981335056087,218.4" stroke="none" /><polygon fill="#f9db5a" points="258,205.6 258.0,205.6 258,218.4" stroke="none" /><polygon fill="#f9da5a" points="258.0,205.6 257.0,218.4 258,218.4" stroke="none" /><polygon fill="#f7d756" points="258.0,205.6 281.0121257110474,205.6 257.0,218.4" stroke="none" /><polygon fill="#f5d453" points="281.0121257110474,205.6 274.4733615943149,218.4 257.0,218.4" stroke="none" /><polygon fill="#f1cf4c" points="281.0121257110474,205.6 296.687978522447,205.6 274.4733615943149,218.4" stroke="none" /><polygon fill="#f0cd4a" points="296.687978522447,205.6 287.2259082566747,218.4 274.4733615943149,218.4" stroke="none" /><polygon fill="#edca46" points="296.687978522447,205.6 306.02866077156665,205.6 287.2259082566747,218.4" stroke="none" /><polygon fill="#ebc743" points="306.02866077156665,205.6 304.0279455865625,218.4 287.2259082566747,218.4" stroke="none" /><polygon fill="#e8c33d" points="306.02866077156665,205.6 325.70341124559826,205.6 304.0279455865625,218.4" stroke="none" /><polygon fill="#e7c13c" points="325.70341124559826,205.6 316.0101866494391,218.4 304.0279455865625,218.4" stroke="none" /><polygon fill="#f6d654" points="253.0,218.4 237.52663840568508,218.4 254.0,229.6" stroke="none" /><polygon fill="#f3d34f" points="237.52663840568508,218.4 234.04836927240316,229.6 254.0,229.6" stroke="none" /><polygon fill="#f0ce4b" points="237.52663840568508,218.4 220.7740917433253,218.4 234.04836927240316,229.6" stroke="none" /><polygon fill="#edca46" points="220.7740917433253,218.4 216.4183459939207,229.6 234.04836927240316,229.6" stroke="none" /><polygon fill="#eac643" points="220.7740917433253,218.4 206.9720544134375,218.4 216.4183459939207,229.6" stroke="none" /><polygon fill="#e7c340" points="206.9720544134375,218.4 204.11432737113475,229.6 216.4183459939207,229.6" stroke="none" /><polygon fill="#e6c13d" points="206.9720544134375,218.4 197.98981335056087,218.4 204.11432737113475,229.6" stroke="none" /><polygon fill="#e4be3b" points="197.98981335056087,218.4 192.47990688607018,229.6 204.11432737113475,229.6" stroke="none" /><polygon fill="#ebc743" points="197.98981335056087,218.4 258,218.4 192.47990688607018,229.6" stroke="none" /><polygon fill="#f1cf4c" points="258,218.4 255,229.6 192.47990688607018,229.6" stroke="none" /><polygon fill="#f8d957" points="258,218.4 257.0,218.4 255,229.6" stroke="none" /><polygon fill="#f8d955" points="257.0,218.4 253.0,229.6 255,229.6" stroke="none" /><polygon fill="#f7d755" points="257.0,218.4 274.4733615943149,218.4 253.0,229.6" stroke="none" /><polygon fill="#f4d34f" points="274.4733615943149,218.4 280.95163072759686,229.6 253.0,229.6" stroke="none" /><polygon fill="#f0ce4b" points="274.4733615943149,218.4 287.2259082566747,218.4 280.95163072759686,229.6" stroke="none" /><polygon fill="#edca47" points="287.2259082566747,218.4 292.5816540060793,229.6 280.95163072759686,229.6" stroke="none" /><polygon fill="#ebc744" points="287.2259082566747,218.4 304.0279455865625,218.4 292.5816540060793,229.6" stroke="none" /><polygon fill="#e8c340" points="304.0279455865625,218.4 309.8856726288653,229.6 292.5816540060793,229.6" stroke="none" /><polygon fill="#e6c03c" points="304.0279455865625,218.4 316.0101866494391,218.4 309.8856726288653,229.6" stroke="none" /><polygon fill="#e4be3b" points="316.0101866494391,218.4 323.5200931139298,229.6 309.8856726288653,229.6" stroke="none" /><polygon fill="#f5d34f" points="254.0,229.6 234.04836927240316,229.6 256.0,242.4" stroke="none" /><polygon fill="#f1d04b" points="234.04836927240316,229.6 233.29292294161473,242.4 256.0,242.4" stroke="none" /><polygon fill="#edc946" points="234.04836927240316,229.6 216.4183459939207,229.6 233.29292294161473,242.4" stroke="none" /><polygon fill="#eac743" points="216.4183459939207,229.6 220.84816759435316,242.4 233.29292294161473,242.4" stroke="none" /><polygon fill="#e8c240" points="216.4183459939207,229.6 204.11432737113475,229.6 220.84816759435316,242.4" stroke="none" /><polygon fill="#e4bf3d" points="204.11432737113475,229.6 203.6923633165439,242.4 220.84816759435316,242.4" stroke="none" /><polygon fill="#e2bb3a" points="204.11432737113475,229.6 192.47990688607018,229.6 203.6923633165439,242.4" stroke="none" /><polygon fill="#e0ba39" points="192.47990688607018,229.6 193.22097861095372,242.4 203.6923633165439,242.4" stroke="none" /><polygon fill="#e8c240" points="192.47990688607018,229.6 255,229.6 193.22097861095372,242.4" stroke="none" /><polygon fill="#eecc48" points="255,229.6 255,242.4 193.22097861095372,242.4" stroke="none" /><polygon fill="#f8d752" points="255,229.6 253.0,229.6 255,242.4" stroke="none" /><polygon fill="#f7d751" points="253.0,229.6 255.0,242.4 255,242.4" stroke="none" /><polygon fill="#f6d44f" points="253.0,229.6 280.95163072759686,229.6 255.0,242.4" stroke="none" /><polygon fill="#f2d04b" points="280.95163072759686,229.6 274.70707705838527,242.4 255.0,242.4" stroke="none" /><polygon fill="#eeca47" points="280.95163072759686,229.6 292.5816540060793,229.6 274.70707705838527,242.4" stroke="none" /><polygon fill="#ebc844" points="292.5816540060793,229.6 292.1518324056468,242.4 274.70707705838527,242.4" stroke="none" /><polygon fill="#e8c240" points="292.5816540060793,229.6 309.8856726288653,229.6 292.1518324056468,242.4" stroke="none" /><polygon fill="#e4bf3d" points="309.8856726288653,229.6 304.3076366834561,242.4 292.1518324056468,242.4" stroke="none" /><polygon fill="#e2bb3a" points="309.8856726288653,229.6 323.5200931139298,229.6 304.3076366834561,242.4" stroke="none" /><polygon fill="#e0ba39" points="323.5200931139298,229.6 318.7790213890463,242.4 304.3076366834561,242.4" stroke="none" /><polygon fill="#f5d24b" points="256.0,242.4 233.29292294161473,242.4 259.0,256.0" stroke="none" /><polygon fill="#f1ce48" points="233.29292294161473,242.4 239.6153908012044,256.0 259.0,256.0" stroke="none" /><polygon fill="#ecc844" points="233.29292294161473,242.4 220.84816759435316,242.4 239.6153908012044,256.0" stroke="none" /><polygon fill="#e9c441" points="220.84816759435316,242.4 220.9300808021168,256.0 239.6153908012044,256.0" stroke="none" /><polygon fill="#e5bf3e" points="220.84816759435316,242.4 203.6923633165439,242.4 220.9300808021168,256.0" stroke="none" /><polygon fill="#e2bb3b" points="203.6923633165439,242.4 207.1818328028467,256.0 220.9300808021168,256.0" stroke="none" /><polygon fill="#dfb839" points="203.6923633165439,242.4 193.22097861095372,242.4 207.1818328028467,256.0" stroke="none" /><polygon fill="#ddb537" points="193.22097861095372,242.4 199.25876000364966,256.0 207.1818328028467,256.0" stroke="none" /><polygon fill="#e5c03e" points="193.22097861095372,242.4 255,242.4 199.25876000364966,256.0" stroke="none" /><polygon fill="#eeca45" points="255,242.4 256,256.0 199.25876000364966,256.0" stroke="none" /><polygon fill="#f7d54d" points="255,242.4 255.0,242.4 256,256.0" stroke="none" /><polygon fill="#f6d44c" points="255.0,242.4 254.0,256.0 256,256.0" stroke="none" /><polygon fill="#f5d34b" points="255.0,242.4 274.70707705838527,242.4 254.0,256.0" stroke="none" /><polygon fill="#f1cd48" points="274.70707705838527,242.4 278.3846091987956,256.0 254.0,256.0" stroke="none" /><polygon fill="#ecc844" points="274.70707705838527,242.4 292.1518324056468,242.4 278.3846091987956,256.0" stroke="none" /><polygon fill="#e8c340" points="292.1518324056468,242.4 293.0699191978832,256.0 278.3846091987956,256.0" stroke="none" /><polygon fill="#e5c03e" points="292.1518324056468,242.4 304.3076366834561,242.4 293.0699191978832,256.0" stroke="none" /><polygon fill="#e3bc3c" points="304.3076366834561,242.4 300.8181671971533,256.0 293.0699191978832,256.0" stroke="none" /><polygon fill="#e0b93a" points="304.3076366834561,242.4 318.7790213890463,242.4 300.8181671971533,256.0" stroke="none" /><polygon fill="#ddb537" points="318.7790213890463,242.4 316.7412399963504,256.0 300.8181671971533,256.0" stroke="none" /><polygon fill="#f5d147" points="259.0,256.0 239.6153908012044,256.0 259.0,269.6" stroke="none" /><polygon fill="#f1cd45" points="239.6153908012044,256.0 242.37335760000553,269.6 259.0,269.6" stroke="none" /><polygon fill="#ecc741" points="239.6153908012044,256.0 220.9300808021168,256.0 242.37335760000553,269.6" stroke="none" /><polygon fill="#e9c43f" points="220.9300808021168,256.0 231.53499214546426,269.6 242.37335760000553,269.6" stroke="none" /><polygon fill="#e4be3d" points="220.9300808021168,256.0 207.1818328028467,256.0 231.53499214546426,269.6" stroke="none" /><polygon fill="#e3bd3c" points="207.1818328028467,256.0 221.06429978183124,269.6 231.53499214546426,269.6" stroke="none" /><polygon fill="#dfb839" points="207.1818328028467,256.0 199.25876000364966,256.0 221.06429978183124,269.6" stroke="none" /><polygon fill="#deb738" points="199.25876000364966,256.0 208.64653818183493,269.6 221.06429978183124,269.6" stroke="none" /><polygon fill="#e5bf3d" points="199.25876000364966,256.0 256,256.0 208.64653818183493,269.6" stroke="none" /><polygon fill="#edc942" points="256,256.0 253,269.6 208.64653818183493,269.6" stroke="none" /><polygon fill="#f6d348" points="256,256.0 254.0,256.0 253,269.6" stroke="none" /><polygon fill="#f5d247" points="254.0,256.0 258.0,269.6 253,269.6" stroke="none" /><polygon fill="#f3cf46" points="254.0,256.0 278.3846091987956,256.0 258.0,269.6" stroke="none" /><polygon fill="#eeca43" points="278.3846091987956,256.0 274.62664239999447,269.6 258.0,269.6" stroke="none" /><polygon fill="#e9c440" points="278.3846091987956,256.0 293.0699191978832,256.0 274.62664239999447,269.6" stroke="none" /><polygon fill="#e8c23e" points="293.0699191978832,256.0 283.4650078545357,269.6 274.62664239999447,269.6" stroke="none" /><polygon fill="#e4be3c" points="293.0699191978832,256.0 300.8181671971533,256.0 283.4650078545357,269.6" stroke="none" /><polygon fill="#e3bd3b" points="300.8181671971533,256.0 293.93570021816873,269.6 283.4650078545357,269.6" stroke="none" /><polygon fill="#deb739" points="300.8181671971533,256.0 316.7412399963504,256.0 293.93570021816873,269.6" stroke="none" /><polygon fill="#dcb537" points="316.7412399963504,256.0 306.35346181816504,269.6 293.93570021816873,269.6" stroke="none" /><polygon fill="#f4d043" points="259.0,269.6 242.37335760000553,269.6 259.0,284.0" stroke="none" /><polygon fill="#f2cd42" points="242.37335760000553,269.6 245.34312130349454,284.0 259.0,284.0" stroke="none" /><polygon fill="#ecc73f" points="242.37335760000553,269.6 231.53499214546426,269.6 245.34312130349454,284.0" stroke="none" /><polygon fill="#ebc63e" points="231.53499214546426,269.6 236.51215259402073,284.0 245.34312130349454,284.0" stroke="none" /><polygon fill="#e7c13c" points="231.53499214546426,269.6 221.06429978183124,269.6 236.51215259402073,284.0" stroke="none" /><polygon fill="#e6c03c" points="221.06429978183124,269.6 225.44737762644166,284.0 236.51215259402073,284.0" stroke="none" /><polygon fill="#e1ba39" points="221.06429978183124,269.6 208.64653818183493,269.6 225.44737762644166,284.0" stroke="none" /><polygon fill="#e0b939" points="208.64653818183493,269.6 217.6761251621047,284.0 225.44737762644166,284.0" stroke="none" /><polygon fill="#e5bf3b" points="208.64653818183493,269.6 253,269.6 217.6761251621047,284.0" stroke="none" /><polygon fill="#edc83f" points="253,269.6 253,284.0 217.6761251621047,284.0" stroke="none" /><polygon fill="#f5d143" points="253,269.6 258.0,269.6 253,284.0" stroke="none" /><polygon fill="#f5d143" points="258.0,269.6 259.0,284.0 253,284.0" stroke="none" /><polygon fill="#f1cd41" points="258.0,269.6 274.62664239999447,269.6 259.0,284.0" stroke="none" /><polygon fill="#efca40" points="274.62664239999447,269.6 270.65687869650543,284.0 259.0,284.0" stroke="none" /><polygon fill="#eac53e" points="274.62664239999447,269.6 283.4650078545357,269.6 270.65687869650543,284.0" stroke="none" /><polygon fill="#eac53e" points="283.4650078545357,269.6 273.48784740597927,284.0 270.65687869650543,284.0" stroke="none" /><polygon fill="#e6c03c" points="283.4650078545357,269.6 293.93570021816873,269.6 273.48784740597927,284.0" stroke="none" /><polygon fill="#e6c03c" points="293.93570021816873,269.6 283.55262237355834,284.0 273.48784740597927,284.0" stroke="none" /><polygon fill="#e0b939" points="293.93570021816873,269.6 306.35346181816504,269.6 283.55262237355834,284.0" stroke="none" /><polygon fill="#e0b939" points="306.35346181816504,269.6 294.3238748378953,284.0 283.55262237355834,284.0" stroke="none" /><polygon fill="#f4d043" points="259.0,284.0 245.34312130349454,284.0 255.0,300.0" stroke="none" /><polygon fill="#f3cf42" points="245.34312130349454,284.0 255.6338,300.0 255.0,300.0" stroke="none" /><polygon fill="#f0cb41" points="245.34312130349454,284.0 236.51215259402073,284.0 255.6338,300.0" stroke="none" /><polygon fill="#f2cd42" points="236.51215259402073,284.0 254.5988,300.0 255.6338,300.0" stroke="none" /><polygon fill="#ecc73f" points="236.51215259402073,284.0 225.44737762644166,284.0 254.5988,300.0" stroke="none" /><polygon fill="#efca40" points="225.44737762644166,284.0 252.7708,300.0 254.5988,300.0" stroke="none" /><polygon fill="#e8c23d" points="225.44737762644166,284.0 217.6761251621047,284.0 252.7708,300.0" stroke="none" /><polygon fill="#edc83f" points="217.6761251621047,284.0 250.86,300.0 252.7708,300.0" stroke="none" /><polygon fill="#edc83f" points="217.6761251621047,284.0 253,284.0 250.86,300.0" stroke="none" /><polygon fill="#f4d043" points="253,284.0 256,300.0 250.86,300.0" stroke="none" /><polygon fill="#f6d244" points="253,284.0 259.0,284.0 256,300.0" stroke="none" /><polygon fill="#f5d143" points="259.0,284.0 255.0,300.0 256,300.0" stroke="none" /><polygon fill="#f2ce42" points="259.0,284.0 270.65687869650543,284.0 255.0,300.0" stroke="none" /><polygon fill="#f3ce42" points="270.65687869650543,284.0 258.3662,300.0 255.0,300.0" stroke="none" /><polygon fill="#efca40" points="270.65687869650543,284.0 273.48784740597927,284.0 258.3662,300.0" stroke="none" /><polygon fill="#f1cd41" points="273.48784740597927,284.0 259.4012,300.0 258.3662,300.0" stroke="none" /><polygon fill="#edc73f" points="273.48784740597927,284.0 283.55262237355834,284.0 259.4012,300.0" stroke="none" /><polygon fill="#efca40" points="283.55262237355834,284.0 260.2292,300.0 259.4012,300.0" stroke="none" /><polygon fill="#e8c33d" points="283.55262237355834,284.0 294.3238748378953,284.0 260.2292,300.0" stroke="none" /><polygon fill="#edc83f" points="294.3238748378953,284.0 260.14,300.0 260.2292,300.0" stroke="none" /><path d="M 240 209 A 9 20 0 0 0 240 229 Z" fill="#f6d244" stroke="#d6ae34" stroke-width="1" /><path d="M 272 209 A 9 20 0 0 1 272 229 Z" fill="#f6d244" stroke="#d6ae34" stroke-width="1" /><path d="M 214 214 A 20 13 0 0 0 254 214 Z" fill="#e8e0d8" stroke="#3a2a1a" stroke-width="1.5" /><path d="M 228 216 A 6 6 0 0 0 240 216 Z" fill="#3a2a1a" stroke="none" /><circle cx="237" cy="212" fill="white" r="3" stroke="none" /><circle cx="232" cy="216" fill="white" r="1" stroke="none" /><path d="M 212 214 Q 234 210 256 214" fill="none" stroke="#3a2a1a" stroke-width="3" /><path d="M 258 214 A 20 13 0 0 0 298 214 Z" fill="#e8e0d8" stroke="#3a2a1a" stroke-width="1.5" /><path d="M 272 216 A 6 6 0 0 0 284 216 Z" fill="#3a2a1a" stroke="none" /><circle cx="281" cy="212" fill="white" r="3" stroke="none" /><circle cx="276" cy="216" fill="white" r="1" stroke="none" /><path d="M 256 214 Q 278 210 300 214" fill="none" stroke="#3a2a1a" stroke-width="3" /><path d="M 221 208 Q 234 200 247 208" fill="none" stroke="#3a2a1a" stroke-width="3" /><path d="M 265 208 Q 278 200 291 208" fill="none" stroke="#3a2a1a" stroke-width="3" /><path d="M 217 226 A 8 5 0 0 0 233 226 Z" fill="#e88060" fill-opacity="0.25" stroke="none" /><path d="M 279 226 A 8 5 0 0 0 295 226 Z" fill="#e88060" fill-opacity="0.25" stroke="none" /><path d="M 256 220 Q 259 225 258 228 Q 256 229 254 228 Q 253 225 256 220" fill="#d6ae34" stroke="none" /><path d="M 238 237 Q 256 230 274 237 Q 256 244 238 237" fill="#c06050" stroke="#3a2a1a" stroke-width="1.5" /><line stroke="#3a2a1a" stroke-width="1.5" x1="240" x2="272" y1="237" y2="237" /><polygon fill="#ba9a28" points="246,296.0 266,296.0 266,331.0 246,331.0" stroke="none" /></svg>