<?xml version="1.0" encoding="utf-8" ?>
<svg baseProfile="full" height="512" version="1.1" width="512" xmlns="http://www.w3.org/2000/svg" xmlns:ev="http://www.w3.org/2001/xml-events" xmlns:xlink="http://www.w3.org/1999/xlink"><defs /><polygon fill="#fcdf68" points="255.0,114.0 230.0125,114.0 258.0,137.32" stroke="none" /><polygon fill="#fbde64" points="230.0125,114.0 232.8867817143601,137.32 258.0,137.32" stroke="none" /><polygon fill="#f9da59" points="230.0125,114.0 209.325,114.0 232.8867817143601,137.32" stroke="none" /><polygon fill="#f8d856" points="209.325,114.0 214.3767678616026,137.32 232.8867817143601,137.32" stroke="none" /><polygon fill="#f7d54e" points="209.325,114.0 194.575,114.0 214.3767678616026,137.32" stroke="none" /><polygon fill="#f7d54d" points="194.575,114.0 204.36875677939656,137.32 214.3767678616026,137.32" stroke="none" /><polygon fill="#f5d245" points="194.575,114.0 177.25,114.0 204.36875677939656,137.32" stroke="none" /><polygon fill="#f5d144" points="177.25,114.0 186.95994458896996,137.32 204.36875677939656,137.32" stroke="none" /><polygon fill="#f7d54f" points="177.25,114.0 257,114.0 186.95994458896996,137.32" stroke="none" /><polygon fill="#fadc60" points="257,114.0 259,137.32 186.95994458896996,137.32" stroke="none" /><polygon fill="#fce16d" points="257,114.0 256.0,114.0 259,137.32" stroke="none" /><polygon fill="#fde26e" points="256.0,114.0 253.0,137.32 259,137.32" stroke="none" /><polygon fill="#fce068" points="256.0,114.0 282.9875,114.0 253.0,137.32" stroke="none" /><polygon fill="#fbdd63" points="282.9875,114.0 282.1132182856399,137.32 253.0,137.32" stroke="none" /><polygon fill="#f9d959" points="282.9875,114.0 302.675,114.0 282.1132182856399,137.32" stroke="none" /><polygon fill="#f8d856" points="302.675,114.0 294.6232321383974,137.32 282.1132182856399,137.32" stroke="none" /><polygon fill="#f7d54f" points="302.675,114.0 317.425,114.0 294.6232321383974,137.32" stroke="none" /><polygon fill="#f7d54d" points="317.425,114.0 310.63124322060344,137.32 294.6232321383974,137.32" stroke="none" /><polygon fill="#f5d145" points="317.425,114.0 334.75,114.0 310.63124322060344,137.32" stroke="none" /><polygon fill="#f5d143" points="334.75,114.0 327.04005541103004,137.32 310.63124322060344,137.32" stroke="none" /><polygon fill="#fce068" points="258.0,137.32 232.8867817143601,137.32 253.0,161.7" stroke="none" /><polygon fill="#f9dc61" points="232.8867817143601,137.32 232.57501957486224,161.7 253.0,161.7" stroke="none" /><polygon fill="#f9da5b" points="232.8867817143601,137.32 214.3767678616026,137.32 232.57501957486224,161.7" stroke="none" /><polygon fill="#f7d754" points="214.3767678616026,137.32 211.31367076793973,161.7 232.57501957486224,161.7" stroke="none" /><polygon fill="#f7d650" points="214.3767678616026,137.32 204.36875677939656,137.32 211.31367076793973,161.7" stroke="none" /><polygon fill="#f5d34b" points="204.36875677939656,137.32 197.90459172240168,161.7 211.31367076793973,161.7" stroke="none" /><polygon fill="#f6d348" points="204.36875677939656,137.32 186.95994458896996,137.32 197.90459172240168,161.7" stroke="none" /><polygon fill="#f3cf42" points="186.95994458896996,137.32 179.95460477230984,161.7 197.90459172240168,161.7" stroke="none" /><polygon fill="#f7d650" points="186.95994458896996,137.32 259,137.32 179.95460477230984,161.7" stroke="none" /><polygon fill="#f8da5c" points="259,137.32 256,161.7 179.95460477230984,161.7" stroke="none" /><polygon fill="#fde26e" points="259,137.32 253.0,137.32 256,161.7" stroke="none" /><polygon fill="#fbe06a" points="253.0,137.32 255.0,161.7 256,161.7" stroke="none" /><polygon fill="#fce069" points="253.0,137.32 282.1132182856399,137.32 255.0,161.7" stroke="none" /><polygon fill="#f9dc60" points="282.1132182856399,137.32 283.42498042513773,161.7 255.0,161.7" stroke="none" /><polygon fill="#f9da5a" points="282.1132182856399,137.32 294.6232321383974,137.32 283.42498042513773,161.7" stroke="none" /><polygon fill="#f7d754" points="294.6232321383974,137.32 300.6863292320603,161.7 283.42498042513773,161.7" stroke="none" /><polygon fill="#f7d650" points="294.6232321383974,137.32 310.63124322060344,137.32 300.6863292320603,161.7" stroke="none" /><polygon fill="#f5d24a" points="310.63124322060344,137.32 319.0954082775983,161.7 300.6863292320603,161.7" stroke="none" /><polygon fill="#f6d246" points="310.63124322060344,137.32 327.04005541103004,137.32 319.0954082775983,161.7" stroke="none" /><polygon fill="#f3ce41" points="327.04005541103004,137.32 330.04539522769016,161.7 319.0954082775983,161.7" stroke="none" /><polygon fill="#f9dc61" points="253.0,161.7 232.57501957486224,161.7 257.0,182.9" stroke="none" /><polygon fill="#f8d95c" points="232.57501957486224,161.7 235.62824872567919,182.9 257.0,182.9" stroke="none" /><polygon fill="#f6d655" points="232.57501957486224,161.7 211.31367076793973,161.7 235.62824872567919,182.9" stroke="none" /><polygon fill="#f4d350" points="211.31367076793973,161.7 216.9223765481634,182.9 235.62824872567919,182.9" stroke="none" /><polygon fill="#f3d14b" points="211.31367076793973,161.7 197.90459172240168,161.7 216.9223765481634,182.9" stroke="none" /><polygon fill="#f2ce48" points="197.90459172240168,161.7 202.75767880615078,182.9 216.9223765481634,182.9" stroke="none" /><polygon fill="#f0cd42" points="197.90459172240168,161.7 179.95460477230984,161.7 202.75767880615078,182.9" stroke="none" /><polygon fill="#eec93e" points="179.95460477230984,161.7 182.1765112899369,182.9 202.75767880615078,182.9" stroke="none" /><polygon fill="#f2d049" points="179.95460477230984,161.7 256,161.7 182.1765112899369,182.9" stroke="none" /><polygon fill="#f6d656" points="256,161.7 254,182.9 182.1765112899369,182.9" stroke="none" /><polygon fill="#fade65" points="256,161.7 255.0,161.7 254,182.9" stroke="none" /><polygon fill="#fadd63" points="255.0,161.7 255.0,182.9 254,182.9" stroke="none" /><polygon fill="#f9dc61" points="255.0,161.7 283.42498042513773,161.7 255.0,182.9" stroke="none" /><polygon fill="#f8d95b" points="283.42498042513773,161.7 276.37175127432084,182.9 255.0,182.9" stroke="none" /><polygon fill="#f5d654" points="283.42498042513773,161.7 300.6863292320603,161.7 276.37175127432084,182.9" stroke="none" /><polygon fill="#f4d350" points="300.6863292320603,161.7 297.0776234518366,182.9 276.37175127432084,182.9" stroke="none" /><polygon fill="#f2d04a" points="300.6863292320603,161.7 319.0954082775983,161.7 297.0776234518366,182.9" stroke="none" /><polygon fill="#f1cd46" points="319.0954082775983,161.7 313.2423211938492,182.9 297.0776234518366,182.9" stroke="none" /><polygon fill="#f0cc41" points="319.0954082775983,161.7 330.04539522769016,161.7 313.2423211938492,182.9" stroke="none" /><polygon fill="#efc93f" points="330.04539522769016,161.7 325.8234887100631,182.9 313.2423211938492,182.9" stroke="none" /><polygon fill="#f8d95c" points="257.0,182.9 235.62824872567919,182.9 253.0,200.92000000000002" stroke="none" /><polygon fill="#f6d756" points="235.62824872567919,182.9 235.23880002350072,200.92000000000002 253.0,200.92000000000002" stroke="none" /><polygon fill="#f4d352" points="235.62824872567919,182.9 216.9223765481634,182.9 235.23880002350072,200.92000000000002" stroke="none" /><polygon fill="#f2d04c" points="216.9223765481634,182.9 212.23789095039518,200.92000000000002 235.23880002350072,200.92000000000002" stroke="none" /><polygon fill="#f0cd48" points="216.9223765481634,182.9 202.75767880615078,182.9 212.23789095039518,200.92000000000002" stroke="none" /><polygon fill="#eeca44" points="202.75767880615078,182.9 197.83716369191077,200.92000000000002 212.23789095039518,200.92000000000002" stroke="none" /><polygon fill="#edc840" points="202.75767880615078,182.9 182.1765112899369,182.9 197.83716369191077,200.92000000000002" stroke="none" /><polygon fill="#ebc53c" points="182.1765112899369,182.9 185.99636370757793,200.92000000000002 197.83716369191077,200.92000000000002" stroke="none" /><polygon fill="#f0cc47" points="182.1765112899369,182.9 254,182.9 185.99636370757793,200.92000000000002" stroke="none" /><polygon fill="#f4d452" points="254,182.9 259,200.92000000000002 185.99636370757793,200.92000000000002" stroke="none" /><polygon fill="#fadc60" points="254,182.9 255.0,182.9 259,200.92000000000002" stroke="none" /><polygon fill="#f9db5d" points="255.0,182.9 258.0,200.92000000000002 259,200.92000000000002" stroke="none" /><polygon fill="#f8d95c" points="255.0,182.9 276.37175127432084,182.9 258.0,200.92000000000002" stroke="none" /><polygon fill="#f6d756" points="276.37175127432084,182.9 278.7611999764993,200.92000000000002 258.0,200.92000000000002" stroke="none" /><polygon fill="#f4d351" points="276.37175127432084,182.9 297.0776234518366,182.9 278.7611999764993,200.92000000000002" stroke="none" /><polygon fill="#f2d04c" points="297.0776234518366,182.9 299.7621090496048,200.92000000000002 278.7611999764993,200.92000000000002" stroke="none" /><polygon fill="#f0cd47" points="297.0776234518366,182.9 313.2423211938492,182.9 299.7621090496048,200.92000000000002" stroke="none" /><polygon fill="#eecb44" points="313.2423211938492,182.9 309.16283630808925,200.92000000000002 299.7621090496048,200.92000000000002" stroke="none" /><polygon fill="#edc941" points="313.2423211938492,182.9 325.8234887100631,182.9 309.16283630808925,200.92000000000002" stroke="none" /><polygon fill="#ebc63d" points="325.8234887100631,182.9 329.0036362924221,200.92000000000002 309.16283630808925,200.92000000000002" stroke="none" /><polygon fill="#f7d757" points="253.0,200.92000000000002 235.23880002350072,200.92000000000002 257.0,217.88" stroke="none" /><polygon fill="#f5d452" points="235.23880002350072,200.92000000000002 235.4839190330831,217.88 257.0,217.88" stroke="none" /><polygon fill="#f2d04d" points="235.23880002350072,200.92000000000002 212.23789095039518,200.92000000000002 235.4839190330831,217.88" stroke="none" /><polygon fill="#f0cc49" points="212.23789095039518,200.92000000000002 216.6687061793582,217.88 235.4839190330831,217.88" stroke="none" /><polygon fill="#edc945" points="212.23789095039518,200.92000000000002 197.83716369191077,200.92000000000002 216.6687061793582,217.88" stroke="none" /><polygon fill="#ebc742" points="197.83716369191077,200.92000000000002 202.41653589637824,217.88 216.6687061793582,217.88" stroke="none" /><polygon fill="#eac53e" points="197.83716369191077,200.92000000000002 185.99636370757793,200.92000000000002 202.41653589637824,217.88" stroke="none" /><polygon fill="#e7c13b" points="185.99636370757793,200.92000000000002 181.7391485851003,217.88 202.41653589637824,217.88" stroke="none" /><polygon fill="#edc945" points="185.99636370757793,200.92000000000002 259,200.92000000000002 181.7391485851003,217.88" stroke="none" /><polygon fill="#f2d04d" points="259,200.92000000000002 253,217.88 181.7391485851003,217.88" stroke="none" /><polygon fill="#f8d95a" points="259,200.92000000000002 258.0,200.92000000000002 253,217.88" stroke="none" /><polygon fill="#f8d858" points="258.0,200.92000000000002 258.0,217.88 253,217.88" stroke="none" /><polygon fill="#f6d656" points="258.0,200.92000000000002 278.7611999764993,200.92000000000002 258.0,217.88" stroke="none" /><polygon fill="#f4d351" points="278.7611999764993,200.92000000000002 278.5160809669169,217.88 258.0,217.88" stroke="none" /><polygon fill="#f1cf4d" points="278.7611999764993,200.92000000000002 299.7621090496048,200.92000000000002 278.5160809669169,217.88" stroke="none" /><polygon fill="#efcc48" points="299.7621090496048,200.92000000000002 298.3312938206418,217.88 278.5160809669169,217.88" stroke="none" /><polygon fill="#edca45" points="299.7621090496048,200.92000000000002 309.16283630808925,200.92000000000002 298.3312938206418,217.88" stroke="none" /><polygon fill="#ebc642" points="309.16283630808925,200.92000000000002 312.58346410362174,217.88 298.3312938206418,217.88" stroke="none" /><polygon fill="#e9c53e" points="309.16283630808925,200.92000000000002 329.0036362924221,200.92000000000002 312.58346410362174,217.88" stroke="none" /><polygon fill="#e7c13b" points="329.0036362924221,200.92000000000002 325.26085141489966,217.88 312.58346410362174,217.88" stroke="none" /><polygon fill="#f6d553" points="257.0,217.88 235.4839190330831,217.88 257.0,232.72" stroke="none" /><polygon fill="#f3d24e" points="235.4839190330831,217.88 233.72995750051996,232.72 257.0,232.72" stroke="none" /><polygon fill="#f0cd4a" points="235.4839190330831,217.88 216.6687061793582,217.88 233.72995750051996,232.72" stroke="none" /><polygon fill="#edcb46" points="216.6687061793582,217.88 216.34356166758053,232.72 233.72995750051996,232.72" stroke="none" /><polygon fill="#ebc743" points="216.6687061793582,217.88 202.41653589637824,217.88 216.34356166758053,232.72" stroke="none" /><polygon fill="#e8c43f" points="202.41653589637824,217.88 196.63444500122898,232.72 216.34356166758053,232.72" stroke="none" /><polygon fill="#e6c03b" points="202.41653589637824,217.88 181.7391485851003,217.88 196.63444500122898,232.72" stroke="none" /><polygon fill="#e3bd38" points="181.7391485851003,217.88 181.4544166682423,232.72 196.63444500122898,232.72" stroke="none" /><polygon fill="#e9c540" points="181.7391485851003,217.88 253,217.88 181.4544166682423,232.72" stroke="none" /><polygon fill="#f0ce4a" points="253,217.88 259,232.72 181.4544166682423,232.72" stroke="none" /><polygon fill="#f7d755" points="253,217.88 258.0,217.88 259,232.72" stroke="none" /><polygon fill="#f7d753" points="258.0,217.88 256.0,232.72 259,232.72" stroke="none" /><polygon fill="#f5d452" points="258.0,217.88 278.5160809669169,217.88 256.0,232.72" stroke="none" /><polygon fill="#f3d24e" points="278.5160809669169,217.88 278.27004249948004,232.72 256.0,232.72" stroke="none" /><polygon fill="#efcd49" points="278.5160809669169,217.88 298.3312938206418,217.88 278.27004249948004,232.72" stroke="none" /><polygon fill="#ecc945" points="298.3312938206418,217.88 301.65643833241944,232.72 278.27004249948004,232.72" stroke="none" /><polygon fill="#eac641" points="298.3312938206418,217.88 312.58346410362174,217.88 301.65643833241944,232.72" stroke="none" /><polygon fill="#e8c33e" points="312.58346410362174,217.88 312.365554998771,232.72 301.65643833241944,232.72" stroke="none" /><polygon fill="#e6c13c" points="312.58346410362174,217.88 325.26085141489966,217.88 312.365554998771,232.72" stroke="none" /><polygon fill="#e3be39" points="325.26085141489966,217.88 329.5455833317577,232.72 312.365554998771,232.72" stroke="none" /><polygon fill="#f5d34e" points="257.0,232.72 233.72995750051996,232.72 259.0,249.68" stroke="none" /><polygon fill="#f2d04a" points="233.72995750051996,232.72 234.9935127177533,249.68 259.0,249.68" stroke="none" /><polygon fill="#eecb46" points="233.72995750051996,232.72 216.34356166758053,232.72 234.9935127177533,249.68" stroke="none" /><polygon fill="#ebc742" points="216.34356166758053,232.72 210.8067799281725,249.68 234.9935127177533,249.68" stroke="none" /><polygon fill="#e8c23f" points="216.34356166758053,232.72 196.63444500122898,232.72 210.8067799281725,249.68" stroke="none" /><polygon fill="#e5bf3b" points="196.63444500122898,232.72 198.25739369650782,249.68 210.8067799281725,249.68" stroke="none" /><polygon fill="#e2bc39" points="196.63444500122898,232.72 181.4544166682423,232.72 198.25739369650782,249.68" stroke="none" /><polygon fill="#e0ba36" points="181.4544166682423,232.72 185.25306884167668,249.68 198.25739369650782,249.68" stroke="none" /><polygon fill="#e8c33f" points="181.4544166682423,232.72 259,232.72 185.25306884167668,249.68" stroke="none" /><polygon fill="#efcc46" points="259,232.72 253,249.68 185.25306884167668,249.68" stroke="none" /><polygon fill="#f8d651" points="259,232.72 256.0,232.72 253,249.68" stroke="none" /><polygon fill="#f6d54e" points="256.0,232.72 254.0,249.68 253,249.68" stroke="none" /><polygon fill="#f5d34e" points="256.0,232.72 278.27004249948004,232.72 254.0,249.68" stroke="none" /><polygon fill="#f2d04a" points="278.27004249948004,232.72 277.00648728224667,249.68 254.0,249.68" stroke="none" /><polygon fill="#eeca46" points="278.27004249948004,232.72 301.65643833241944,232.72 277.00648728224667,249.68" stroke="none" /><polygon fill="#eac641" points="301.65643833241944,232.72 299.1932200718275,249.68 277.00648728224667,249.68" stroke="none" /><polygon fill="#e8c23f" points="301.65643833241944,232.72 312.365554998771,232.72 299.1932200718275,249.68" stroke="none" /><polygon fill="#e6c03c" points="312.365554998771,232.72 309.74260630349215,249.68 299.1932200718275,249.68" stroke="none" /><polygon fill="#e3bd3a" points="312.365554998771,232.72 329.5455833317577,232.72 309.74260630349215,249.68" stroke="none" /><polygon fill="#e0ba36" points="329.5455833317577,232.72 331.7469311583233,249.68 309.74260630349215,249.68" stroke="none" /><polygon fill="#f5d149" points="259.0,249.68 234.9935127177533,249.68 259.0,267.7" stroke="none" /><polygon fill="#f0cc45" points="234.9935127177533,249.68 231.71968120162433,267.7 259.0,267.7" stroke="none" /><polygon fill="#ebc741" points="234.9935127177533,249.68 210.8067799281725,249.68 231.71968120162433,267.7" stroke="none" /><polygon fill="#e8c23e" points="210.8067799281725,249.68 215.84065180891548,267.7 231.71968120162433,267.7" stroke="none" /><polygon fill="#e5bf3b" points="210.8067799281725,249.68 198.25739369650782,249.68 215.84065180891548,267.7" stroke="none" /><polygon fill="#e3bc39" points="198.25739369650782,249.68 201.33742829474838,267.7 215.84065180891548,267.7" stroke="none" /><polygon fill="#e0ba37" points="198.25739369650782,249.68 185.25306884167668,249.68 201.33742829474838,267.7" stroke="none" /><polygon fill="#ddb635" points="185.25306884167668,249.68 186.4838824291646,267.7 201.33742829474838,267.7" stroke="none" /><polygon fill="#e5bf3b" points="185.25306884167668,249.68 253,249.68 186.4838824291646,267.7" stroke="none" /><polygon fill="#edc842" points="253,249.68 256,267.7 186.4838824291646,267.7" stroke="none" /><polygon fill="#f6d34a" points="253,249.68 254.0,249.68 256,267.7" stroke="none" /><polygon fill="#f5d249" points="254.0,249.68 259.0,267.7 256,267.7" stroke="none" /><polygon fill="#f4d048" points="254.0,249.68 277.00648728224667,249.68 259.0,267.7" stroke="none" /><polygon fill="#efcb44" points="277.00648728224667,249.68 281.2803187983757,267.7 259.0,267.7" stroke="none" /><polygon fill="#ebc741" points="277.00648728224667,249.68 299.1932200718275,249.68 281.2803187983757,267.7" stroke="none" /><polygon fill="#e8c33e" points="299.1932200718275,249.68 293.1593481910845,267.7 281.2803187983757,267.7" stroke="none" /><polygon fill="#e6c03c" points="299.1932200718275,249.68 309.74260630349215,249.68 293.1593481910845,267.7" stroke="none" /><polygon fill="#e4bd3a" points="309.74260630349215,249.68 308.6625717052516,267.7 293.1593481910845,267.7" stroke="none" /><polygon fill="#e0ba37" points="309.74260630349215,249.68 331.7469311583233,249.68 308.6625717052516,267.7" stroke="none" /><polygon fill="#ddb635" points="331.7469311583233,249.68 322.5161175708354,267.7 308.6625717052516,267.7" stroke="none" /><polygon fill="#f3cf44" points="259.0,267.7 231.71968120162433,267.7 258.0,285.72" stroke="none" /><polygon fill="#eeca40" points="231.71968120162433,267.7 234.42721904180056,285.72 258.0,285.72" stroke="none" /><polygon fill="#eac43e" points="231.71968120162433,267.7 215.84065180891548,267.7 234.42721904180056,285.72" stroke="none" /><polygon fill="#e7c23b" points="215.84065180891548,267.7 222.84177892195248,285.72 234.42721904180056,285.72" stroke="none" /><polygon fill="#e4be3a" points="215.84065180891548,267.7 201.33742829474838,267.7 222.84177892195248,285.72" stroke="none" /><polygon fill="#e2bb37" points="201.33742829474838,267.7 205.37342682607402,285.72 222.84177892195248,285.72" stroke="none" /><polygon fill="#deb636" points="201.33742829474838,267.7 186.4838824291646,267.7 205.37342682607402,285.72" stroke="none" /><polygon fill="#dbb433" points="186.4838824291646,267.7 190.6582395206077,285.72 205.37342682607402,285.72" stroke="none" /><polygon fill="#e3bd39" points="186.4838824291646,267.7 256,267.7 190.6582395206077,285.72" stroke="none" /><polygon fill="#ecc73e" points="256,267.7 258,285.72 190.6582395206077,285.72" stroke="none" /><polygon fill="#f5d145" points="256,267.7 259.0,267.7 258,285.72" stroke="none" /><polygon fill="#f4d043" points="259.0,267.7 254.0,285.72 258,285.72" stroke="none" /><polygon fill="#f2cd43" points="259.0,267.7 281.2803187983757,267.7 254.0,285.72" stroke="none" /><polygon fill="#eeca40" points="281.2803187983757,267.7 276.5727809581995,285.72 254.0,285.72" stroke="none" /><polygon fill="#eac53e" points="281.2803187983757,267.7 293.1593481910845,267.7 276.5727809581995,285.72" stroke="none" /><polygon fill="#e8c23b" points="293.1593481910845,267.7 291.1582210780475,285.72 276.5727809581995,285.72" stroke="none" /><polygon fill="#e4be3a" points="293.1593481910845,267.7 308.6625717052516,267.7 291.1582210780475,285.72" stroke="none" /><polygon fill="#e2bc38" points="308.6625717052516,267.7 302.626573173926,285.72 291.1582210780475,285.72" stroke="none" /><polygon fill="#dfb836" points="308.6625717052516,267.7 322.5161175708354,267.7 302.626573173926,285.72" stroke="none" /><polygon fill="#dcb534" points="322.5161175708354,267.7 319.3417604793923,285.72 302.626573173926,285.72" stroke="none" /><polygon fill="#f2cd3e" points="258.0,285.72 234.42721904180056,285.72 259.0,304.8" stroke="none" /><polygon fill="#efca3d" points="234.42721904180056,285.72 241.3307935650853,304.8 259.0,304.8" stroke="none" /><polygon fill="#eac43a" points="234.42721904180056,285.72 222.84177892195248,285.72 241.3307935650853,304.8" stroke="none" /><polygon fill="#e8c23a" points="222.84177892195248,285.72 223.94503111439232,304.8 241.3307935650853,304.8" stroke="none" /><polygon fill="#e3bc37" points="222.84177892195248,285.72 205.37342682607402,285.72 223.94503111439232,304.8" stroke="none" /><polygon fill="#e2bb36" points="205.37342682607402,285.72 215.23642115383797,304.8 223.94503111439232,304.8" stroke="none" /><polygon fill="#ddb634" points="205.37342682607402,285.72 190.6582395206077,285.72 215.23642115383797,304.8" stroke="none" /><polygon fill="#dcb534" points="190.6582395206077,285.72 202.45695019722814,304.8 215.23642115383797,304.8" stroke="none" /><polygon fill="#e3bc37" points="190.6582395206077,285.72 258,285.72 202.45695019722814,304.8" stroke="none" /><polygon fill="#edc73c" points="258,285.72 255,304.8 202.45695019722814,304.8" stroke="none" /><polygon fill="#f4cf3f" points="258,285.72 254.0,285.72 255,304.8" stroke="none" /><polygon fill="#f4cf3f" points="254.0,285.72 254.0,304.8 255,304.8" stroke="none" /><polygon fill="#f2cd3e" points="254.0,285.72 276.5727809581995,285.72 254.0,304.8" stroke="none" /><polygon fill="#efca3d" points="276.5727809581995,285.72 273.6692064349147,304.8 254.0,304.8" stroke="none" /><polygon fill="#e9c33a" points="276.5727809581995,285.72 291.1582210780475,285.72 273.6692064349147,304.8" stroke="none" /><polygon fill="#e8c23a" points="291.1582210780475,285.72 284.05496888560765,304.8 273.6692064349147,304.8" stroke="none" /><polygon fill="#e4bd37" points="291.1582210780475,285.72 302.626573173926,285.72 284.05496888560765,304.8" stroke="none" /><polygon fill="#e3bc37" points="302.626573173926,285.72 298.76357884616203,304.8 284.05496888560765,304.8" stroke="none" /><polygon fill="#ddb634" points="302.626573173926,285.72 319.3417604793923,285.72 298.76357884616203,304.8" stroke="none" /><polygon fill="#ddb634" points="319.3417604793923,285.72 307.54304980277186,304.8 298.76357884616203,304.8" stroke="none" /><polygon fill="#f3ce3f" points="259.0,304.8 241.3307935650853,304.8 257.0,326.0" stroke="none" /><polygon fill="#f0ca3d" points="241.3307935650853,304.8 238.83,326.0 257.0,326.0" stroke="none" /><polygon fill="#ebc53b" points="241.3307935650853,304.8 223.94503111439232,304.8 238.83,326.0" stroke="none" /><polygon fill="#e9c33a" points="223.94503111439232,304.8 228.58,326.0 238.83,326.0" stroke="none" /><polygon fill="#e5bf38" points="223.94503111439232,304.8 215.23642115383797,304.8 228.58,326.0" stroke="none" /><polygon fill="#e4be38" points="215.23642115383797,304.8 216.78,326.0 228.58,326.0" stroke="none" /><polygon fill="#e0ba36" points="215.23642115383797,304.8 202.45695019722814,304.8 216.78,326.0" stroke="none" /><polygon fill="#dfb835" points="202.45695019722814,304.8 208.0,326.0 216.78,326.0" stroke="none" /><polygon fill="#e5bf38" points="202.45695019722814,304.8 255,304.8 208.0,326.0" stroke="none" /><polygon fill="#edc73c" points="255,304.8 255,326.0 208.0,326.0" stroke="none" /><polygon fill="#f4cf3f" points="255,304.8 254.0,304.8 255,326.0" stroke="none" /><polygon fill="#f4cf3f" points="254.0,304.8 256.0,326.0 255,326.0" stroke="none" /><polygon fill="#f2cd3e" points="254.0,304.8 273.6692064349147,304.8 256.0,326.0" stroke="none" /><polygon fill="#efca3d" points="273.6692064349147,304.8 272.17,326.0 256.0,326.0" stroke="none" /><polygon fill="#ebc53b" points="273.6692064349147,304.8 284.05496888560765,304.8 272.17,326.0" stroke="none" /><polygon fill="#eac43a" points="284.05496888560765,304.8 283.42,326.0 272.17,326.0" stroke="none" /><polygon fill="#e6bf38" points="284.05496888560765,304.8 298.76357884616203,304.8 283.42,326.0" stroke="none" /><polygon fill="#e4bd37" points="298.76357884616203,304.8 295.22,326.0 283.42,326.0" stroke="none" /><polygon fill="#e0ba36" points="298.76357884616203,304.8 307.54304980277186,304.8 295.22,326.0" stroke="none" /><polygon fill="#e0b935" points="307.54304980277186,304.8 304.0,326.0 295.22,326.0" stroke="none" /><path d="M 235 205 A 12 26 0 0 0 235 231 Z" fill="#f5d040" stroke="#d4ac30" stroke-width="1" /><path d="M 277 205 A 12 26 0 0 1 277 231 Z" fill="#f5d040" stroke="#d4ac30" stroke-width="1" /><path d="M 202 213 A 26 17 0 0 0 254 213 Z" fill="#e8e0d8" stroke="#3a2a1a" stroke-width="1.5" /><path d="M 200 204 A 28 11 0 0 1 256 204 Z" fill="#f5d040" stroke="#3a2a1a" stroke-width="1.5" /><path d="M 224 216 A 4 4 0 0 0 232 216 Z" fill="#3a2a1a" stroke="none" /><circle cx="229" cy="213" fill="white" r="2" stroke="none" /><path d="M 258 213 A 26 17 0 0 0 310 213 Z" fill="#e8e0d8" stroke="#3a2a1a" stroke-width="1.5" /><path d="M 256 204 A 28 11 0 0 1 312 204 Z" fill="#f5d040" stroke="#3a2a1a" stroke-width="1.5" /><path d="M 280 216 A 4 4 0 0 0 288 216 Z" fill="#3a2a1a" stroke="none" /><circle cx="285" cy="213" fill="white" r="2" stroke="none" /><line stroke="#3a2a1a" stroke-width="4" x1="210" x2="246" y1="205" y2="205" /><line stroke="#3a2a1a" stroke-width="4" x1="265" x2="303" y1="209" y2="209" /><path d="M 206 226 A 12 8 0 0 0 230 226 Z" fill="#e88060" fill-opacity="0.21361792622314693" stroke="none" /><path d="M 283 227 A 11 7 0 0 0 305 227 Z" fill="#e88060" fill-opacity="0.25842725008975365" stroke="none" /><path d="M 234 242 Q 256 232 278 242" fill="none" stroke="#c06050" stroke-width="3" /><circle cx="234" cy="243" fill="#c06050" r="2" stroke="none" /><circle cx="278" cy="243" fill="#c06050" r="2" stroke="none" /><path d="M 307 198 Q 312 193 317 198" fill="none" stroke="#d4c0a0" stroke-opacity="0.3" stroke-width="1" /><path d="M 211 235 Q 214 232 217 235" fill="none" stroke="#d4c0a0" stroke-opacity="0.3" stroke-width="1" /><path d="M 267 189 Q 273 183 279 189" fill="none" stroke="#d4c0a0" stroke-opacity="0.3" stroke-width="1" /><path d="M 262 181 Q 266 177 270 181" fill="none" stroke="#d4c0a0" stroke-opacity="0.3" stroke-width="1" /><path d="M 204 229 Q 211 222 218 229" fill="none" stroke="#d4c0a0" stroke-opacity="0.3" stroke-width="1" /><path d="M 299 230 Q 305 224 311 230" fill="none" stroke="#d4c0a0" stroke-opacity="0.3" stroke-width="1" /><path d="M 293 170 Q 297 166 301 170" fill="none" stroke="#d4c0a0" stroke-opacity="0.3" stroke-width="1" /><path d="M 216 189 Q 223 182 230 189" fill="none" stroke="#d4c0a0" stroke-opacity="0.3" stroke-width="1" /><path d="M 305 184 Q 308 181 311 184" fill="none" stroke="#d4c0a0" stroke-opacity="0.3" stroke-width="1" /><path d="M 288 179 Q 295 172 302 179" fill="none" stroke="#d4c0a0" stroke-opacity="0.3" stroke-width="1" /><path d="M 291 243 Q 296 238 301 243" fill="none" stroke="#d4c0a0" stroke-opacity="0.3" stroke-width="1" /><path d="M 225 238 Q 228 235 231 238" fill="none" stroke="#d4c0a0" stroke-opacity="0.3" stroke-width="1" /><path d="M 306 231 Q 313 224 320 231" fill="none" stroke="#d4c0a0" stroke-opacity="0.3" stroke-width="1" /><polygon fill="#b89824" points="246,322.0 266,322.0 266,357.0 246,357.0" stroke="none" /></svg>