<?xml version="1.0" encoding="utf-8" ?>
<svg baseProfile="full" height="512" version="1.1" width="512" xmlns="http://www.w3.org/2000/svg" xmlns:ev="http://www.w3.org/2001/xml-events" xmlns:xlink="http://www.w3.org/1999/xlink"><defs /><polygon fill="#fcde62" points="257.0,148.0 245.034,148.0 253.0,163.84" stroke="none" /><polygon fill="#fbdc5b" points="245.034,148.0 234.30854237205773,163.84 253.0,163.84" stroke="none" /><polygon fill="#fada57" points="245.034,148.0 237.484,148.0 234.30854237205773,163.84" stroke="none" /><polygon fill="#f9d850" points="237.484,148.0 222.14834719937417,163.84 234.30854237205773,163.84" stroke="none" /><polygon fill="#f9d84f" points="237.484,148.0 231.444,148.0 222.14834719937417,163.84" stroke="none" /><polygon fill="#f8d547" points="231.444,148.0 208.82019106122732,163.84 222.14834719937417,163.84" stroke="none" /><polygon fill="#f8d548" points="231.444,148.0 224.8,148.0 208.82019106122732,163.84" stroke="none" /><polygon fill="#f7d23f" points="224.8,148.0 201.35921930926582,163.84 208.82019106122732,163.84" stroke="none" /><polygon fill="#f9d74d" points="224.8,148.0 256,148.0 201.35921930926582,163.84" stroke="none" /><polygon fill="#fada56" points="256,148.0 255,163.84 201.35921930926582,163.84" stroke="none" /><polygon fill="#fcdf65" points="256,148.0 256.0,148.0 255,163.84" stroke="none" /><polygon fill="#fcdf65" points="256.0,148.0 255.0,163.84 255,163.84" stroke="none" /><polygon fill="#fcdf63" points="256.0,148.0 265.966,148.0 255.0,163.84" stroke="none" /><polygon fill="#fbdd5e" points="265.966,148.0 271.69145762794227,163.84 255.0,163.84" stroke="none" /><polygon fill="#fbdb59" points="265.966,148.0 272.516,148.0 271.69145762794227,163.84" stroke="none" /><polygon fill="#fad953" points="272.516,148.0 286.85165280062586,163.84 271.69145762794227,163.84" stroke="none" /><polygon fill="#f9d851" points="272.516,148.0 279.556,148.0 286.85165280062586,163.84" stroke="none" /><polygon fill="#f8d549" points="279.556,148.0 302.1798089387727,163.84 286.85165280062586,163.84" stroke="none" /><polygon fill="#f8d549" points="279.556,148.0 286.2,148.0 302.1798089387727,163.84" stroke="none" /><polygon fill="#f7d240" points="286.2,148.0 310.6407806907342,163.84 302.1798089387727,163.84" stroke="none" /><polygon fill="#fbdd5e" points="253.0,163.84 234.30854237205773,163.84 255.0,180.4" stroke="none" /><polygon fill="#f9da57" points="234.30854237205773,163.84 235.41147471061538,180.4 255.0,180.4" stroke="none" /><polygon fill="#f9d850" points="234.30854237205773,163.84 222.14834719937417,163.84 235.41147471061538,180.4" stroke="none" /><polygon fill="#f7d54a" points="222.14834719937417,163.84 221.57168282471793,180.4 235.41147471061538,180.4" stroke="none" /><polygon fill="#f8d444" points="222.14834719937417,163.84 208.82019106122732,163.84 221.57168282471793,180.4" stroke="none" /><polygon fill="#f5d03e" points="208.82019106122732,163.84 206.69984931599998,180.4 221.57168282471793,180.4" stroke="none" /><polygon fill="#f6d03a" points="208.82019106122732,163.84 201.35921930926582,163.84 206.69984931599998,180.4" stroke="none" /><polygon fill="#f4cd36" points="201.35921930926582,163.84 198.64083245641024,180.4 206.69984931599998,180.4" stroke="none" /><polygon fill="#f8d445" points="201.35921930926582,163.84 255,163.84 198.64083245641024,180.4" stroke="none" /><polygon fill="#f9d853" points="255,163.84 259,180.4 198.64083245641024,180.4" stroke="none" /><polygon fill="#fcdf65" points="255,163.84 255.0,163.84 259,180.4" stroke="none" /><polygon fill="#fbde62" points="255.0,163.84 256.0,180.4 259,180.4" stroke="none" /><polygon fill="#fcde61" points="255.0,163.84 271.69145762794227,163.84 256.0,180.4" stroke="none" /><polygon fill="#fada58" points="271.69145762794227,163.84 277.5885252893846,180.4 256.0,180.4" stroke="none" /><polygon fill="#fad952" points="271.69145762794227,163.84 286.85165280062586,163.84 277.5885252893846,180.4" stroke="none" /><polygon fill="#f7d54a" points="286.85165280062586,163.84 291.4283171752821,180.4 277.5885252893846,180.4" stroke="none" /><polygon fill="#f8d445" points="286.85165280062586,163.84 302.1798089387727,163.84 291.4283171752821,180.4" stroke="none" /><polygon fill="#f5d03f" points="302.1798089387727,163.84 304.300150684,180.4 291.4283171752821,180.4" stroke="none" /><polygon fill="#f6d03b" points="302.1798089387727,163.84 310.6407806907342,163.84 304.300150684,180.4" stroke="none" /><polygon fill="#f4cc36" points="310.6407806907342,163.84 315.35916754358976,180.4 304.300150684,180.4" stroke="none" /><polygon fill="#f9da57" points="255.0,180.4 235.41147471061538,180.4 254.0,194.8" stroke="none" /><polygon fill="#f7d64f" points="235.41147471061538,180.4 233.80797218652617,194.8 254.0,194.8" stroke="none" /><polygon fill="#f6d349" points="235.41147471061538,180.4 221.57168282471793,180.4 233.80797218652617,194.8" stroke="none" /><polygon fill="#f4d043" points="221.57168282471793,180.4 218.99582990359147,194.8 233.80797218652617,194.8" stroke="none" /><polygon fill="#f3ce3e" points="221.57168282471793,180.4 206.69984931599998,180.4 218.99582990359147,194.8" stroke="none" /><polygon fill="#f1ca39" points="206.69984931599998,180.4 206.5461160772437,194.8 218.99582990359147,194.8" stroke="none" /><polygon fill="#f1c935" points="206.69984931599998,180.4 198.64083245641024,180.4 206.5461160772437,194.8" stroke="none" /><polygon fill="#eec52e" points="198.64083245641024,180.4 185.75143086826117,194.8 206.5461160772437,194.8" stroke="none" /><polygon fill="#f3cd3d" points="198.64083245641024,180.4 259,180.4 185.75143086826117,194.8" stroke="none" /><polygon fill="#f6d349" points="259,180.4 253,194.8 185.75143086826117,194.8" stroke="none" /><polygon fill="#fbdd5d" points="259,180.4 256.0,180.4 253,194.8" stroke="none" /><polygon fill="#fadb5a" points="256.0,180.4 257.0,194.8 253,194.8" stroke="none" /><polygon fill="#f9da57" points="256.0,180.4 277.5885252893846,180.4 257.0,194.8" stroke="none" /><polygon fill="#f7d54f" points="277.5885252893846,180.4 281.1920278134738,194.8 257.0,194.8" stroke="none" /><polygon fill="#f5d248" points="277.5885252893846,180.4 291.4283171752821,180.4 281.1920278134738,194.8" stroke="none" /><polygon fill="#f4cf41" points="291.4283171752821,180.4 297.00417009640853,194.8 281.1920278134738,194.8" stroke="none" /><polygon fill="#f3cd3d" points="291.4283171752821,180.4 304.300150684,180.4 297.00417009640853,194.8" stroke="none" /><polygon fill="#f1ca38" points="304.300150684,180.4 305.4538839227563,194.8 297.00417009640853,194.8" stroke="none" /><polygon fill="#f1c935" points="304.300150684,180.4 315.35916754358976,180.4 305.4538839227563,194.8" stroke="none" /><polygon fill="#eec52f" points="315.35916754358976,180.4 322.2485691317388,194.8 305.4538839227563,194.8" stroke="none" /><polygon fill="#f8d650" points="254.0,194.8 233.80797218652617,194.8 257.0,207.04" stroke="none" /><polygon fill="#f6d34a" points="233.80797218652617,194.8 233.767958166727,207.04 257.0,207.04" stroke="none" /><polygon fill="#f3cf43" points="233.80797218652617,194.8 218.99582990359147,194.8 233.767958166727,207.04" stroke="none" /><polygon fill="#f1cb3d" points="218.99582990359147,194.8 214.41035071727777,207.04 233.767958166727,207.04" stroke="none" /><polygon fill="#efc938" points="218.99582990359147,194.8 206.5461160772437,194.8 214.41035071727777,207.04" stroke="none" /><polygon fill="#edc433" points="206.5461160772437,194.8 199.7242647577184,207.04 214.41035071727777,207.04" stroke="none" /><polygon fill="#ecc22d" points="206.5461160772437,194.8 185.75143086826117,194.8 199.7242647577184,207.04" stroke="none" /><polygon fill="#eabf2a" points="185.75143086826117,194.8 180.56957020220307,207.04 199.7242647577184,207.04" stroke="none" /><polygon fill="#eec634" points="185.75143086826117,194.8 253,194.8 180.56957020220307,207.04" stroke="none" /><polygon fill="#f3ce42" points="253,194.8 255,207.04 180.56957020220307,207.04" stroke="none" /><polygon fill="#f9d955" points="253,194.8 257.0,194.8 255,207.04" stroke="none" /><polygon fill="#f9d853" points="257.0,194.8 257.0,207.04 255,207.04" stroke="none" /><polygon fill="#f7d64f" points="257.0,194.8 281.1920278134738,194.8 257.0,207.04" stroke="none" /><polygon fill="#f5d249" points="281.1920278134738,194.8 277.232041833273,207.04 257.0,207.04" stroke="none" /><polygon fill="#f3ce42" points="281.1920278134738,194.8 297.00417009640853,194.8 277.232041833273,207.04" stroke="none" /><polygon fill="#f1ca3d" points="297.00417009640853,194.8 296.58964928272223,207.04 277.232041833273,207.04" stroke="none" /><polygon fill="#efc838" points="297.00417009640853,194.8 305.4538839227563,194.8 296.58964928272223,207.04" stroke="none" /><polygon fill="#edc433" points="305.4538839227563,194.8 312.2757352422816,207.04 296.58964928272223,207.04" stroke="none" /><polygon fill="#ecc32e" points="305.4538839227563,194.8 322.2485691317388,194.8 312.2757352422816,207.04" stroke="none" /><polygon fill="#eabf2a" points="322.2485691317388,194.8 332.43042979779693,207.04 312.2757352422816,207.04" stroke="none" /><polygon fill="#f6d44a" points="257.0,207.04 233.767958166727,207.04 255.0,218.56" stroke="none" /><polygon fill="#f4cf43" points="233.767958166727,207.04 230.51652251764733,218.56 255.0,218.56" stroke="none" /><polygon fill="#f0ca3d" points="233.767958166727,207.04 214.41035071727777,207.04 230.51652251764733,218.56" stroke="none" /><polygon fill="#eec737" points="214.41035071727777,207.04 215.72600927344078,218.56 230.51652251764733,218.56" stroke="none" /><polygon fill="#ebc333" points="214.41035071727777,207.04 199.7242647577184,207.04 215.72600927344078,218.56" stroke="none" /><polygon fill="#e9c02f" points="199.7242647577184,207.04 201.49359867807553,218.56 215.72600927344078,218.56" stroke="none" /><polygon fill="#e7bc29" points="199.7242647577184,207.04 180.56957020220307,207.04 201.49359867807553,218.56" stroke="none" /><polygon fill="#e6bb28" points="180.56957020220307,207.04 181.83794702317374,218.56 201.49359867807553,218.56" stroke="none" /><polygon fill="#eac130" points="180.56957020220307,207.04 255,207.04 181.83794702317374,218.56" stroke="none" /><polygon fill="#f1cb3d" points="255,207.04 254,218.56 181.83794702317374,218.56" stroke="none" /><polygon fill="#f8d74e" points="255,207.04 257.0,207.04 254,218.56" stroke="none" /><polygon fill="#f8d64c" points="257.0,207.04 254.0,218.56 254,218.56" stroke="none" /><polygon fill="#f7d44a" points="257.0,207.04 277.232041833273,207.04 254.0,218.56" stroke="none" /><polygon fill="#f4d044" points="277.232041833273,207.04 278.48347748235267,218.56 254.0,218.56" stroke="none" /><polygon fill="#f0cb3e" points="277.232041833273,207.04 296.58964928272223,207.04 278.48347748235267,218.56" stroke="none" /><polygon fill="#eec738" points="296.58964928272223,207.04 299.2739907265592,218.56 278.48347748235267,218.56" stroke="none" /><polygon fill="#ebc332" points="296.58964928272223,207.04 312.2757352422816,207.04 299.2739907265592,218.56" stroke="none" /><polygon fill="#e9c02e" points="312.2757352422816,207.04 309.5064013219245,218.56 299.2739907265592,218.56" stroke="none" /><polygon fill="#e7bc29" points="312.2757352422816,207.04 332.43042979779693,207.04 309.5064013219245,218.56" stroke="none" /><polygon fill="#e6bb28" points="332.43042979779693,207.04 325.16205297682626,218.56 309.5064013219245,218.56" stroke="none" /><polygon fill="#f4d143" points="255.0,218.56 230.51652251764733,218.56 253.0,228.64" stroke="none" /><polygon fill="#f1cc3e" points="230.51652251764733,218.56 230.98777392380342,228.64 253.0,228.64" stroke="none" /><polygon fill="#edc738" points="230.51652251764733,218.56 215.72600927344078,218.56 230.98777392380342,228.64" stroke="none" /><polygon fill="#ebc335" points="215.72600927344078,218.56 212.79669356304845,228.64 230.98777392380342,228.64" stroke="none" /><polygon fill="#e8c030" points="215.72600927344078,218.56 201.49359867807553,218.56 212.79669356304845,228.64" stroke="none" /><polygon fill="#e6bb2d" points="201.49359867807553,218.56 201.24382927444444,228.64 212.79669356304845,228.64" stroke="none" /><polygon fill="#e3b827" points="201.49359867807553,218.56 181.83794702317374,218.56 201.24382927444444,228.64" stroke="none" /><polygon fill="#e2b627" points="181.83794702317374,218.56 182.23567855698008,228.64 201.24382927444444,228.64" stroke="none" /><polygon fill="#e7be2d" points="181.83794702317374,218.56 254,218.56 182.23567855698008,228.64" stroke="none" /><polygon fill="#efc83a" points="254,218.56 257,228.64 182.23567855698008,228.64" stroke="none" /><polygon fill="#f7d548" points="254,218.56 254.0,218.56 257,228.64" stroke="none" /><polygon fill="#f7d447" points="254.0,218.56 258.0,228.64 257,228.64" stroke="none" /><polygon fill="#f5d244" points="254.0,218.56 278.48347748235267,218.56 258.0,228.64" stroke="none" /><polygon fill="#f2cd40" points="278.48347748235267,218.56 277.01222607619655,228.64 258.0,228.64" stroke="none" /><polygon fill="#eec839" points="278.48347748235267,218.56 299.2739907265592,218.56 277.01222607619655,228.64" stroke="none" /><polygon fill="#ebc335" points="299.2739907265592,218.56 300.20330643695155,228.64 277.01222607619655,228.64" stroke="none" /><polygon fill="#e8bf2f" points="299.2739907265592,218.56 309.5064013219245,218.56 300.20330643695155,228.64" stroke="none" /><polygon fill="#e5bb2c" points="309.5064013219245,218.56 313.75617072555553,228.64 300.20330643695155,228.64" stroke="none" /><polygon fill="#e3b928" points="309.5064013219245,218.56 325.16205297682626,218.56 313.75617072555553,228.64" stroke="none" /><polygon fill="#e2b627" points="325.16205297682626,218.56 331.7643214430199,228.64 313.75617072555553,228.64" stroke="none" /><polygon fill="#f4cf3f" points="253.0,228.64 230.98777392380342,228.64 257.0,240.16" stroke="none" /><polygon fill="#f0ca3a" points="230.98777392380342,228.64 231.94064620946972,240.16 257.0,240.16" stroke="none" /><polygon fill="#ecc435" points="230.98777392380342,228.64 212.79669356304845,228.64 231.94064620946972,240.16" stroke="none" /><polygon fill="#e8bf31" points="212.79669356304845,228.64 212.71386303482558,240.16 231.94064620946972,240.16" stroke="none" /><polygon fill="#e6bc2d" points="212.79669356304845,228.64 201.24382927444444,228.64 212.71386303482558,240.16" stroke="none" /><polygon fill="#e3b729" points="201.24382927444444,228.64 197.13243649511026,240.16 212.71386303482558,240.16" stroke="none" /><polygon fill="#e0b426" points="201.24382927444444,228.64 182.23567855698008,228.64 197.13243649511026,240.16" stroke="none" /><polygon fill="#dfb225" points="182.23567855698008,228.64 185.09286730142338,240.16 197.13243649511026,240.16" stroke="none" /><polygon fill="#e5bb2d" points="182.23567855698008,228.64 257,228.64 185.09286730142338,240.16" stroke="none" /><polygon fill="#eec637" points="257,228.64 257,240.16 185.09286730142338,240.16" stroke="none" /><polygon fill="#f7d343" points="257,228.64 258.0,228.64 257,240.16" stroke="none" /><polygon fill="#f7d342" points="258.0,228.64 253.0,240.16 257,240.16" stroke="none" /><polygon fill="#f5d040" points="258.0,228.64 277.01222607619655,228.64 253.0,240.16" stroke="none" /><polygon fill="#f2cc3b" points="277.01222607619655,228.64 277.0593537905303,240.16 253.0,240.16" stroke="none" /><polygon fill="#edc536" points="277.01222607619655,228.64 300.20330643695155,228.64 277.0593537905303,240.16" stroke="none" /><polygon fill="#e9c031" points="300.20330643695155,228.64 298.2861369651744,240.16 277.0593537905303,240.16" stroke="none" /><polygon fill="#e5bb2d" points="300.20330643695155,228.64 313.75617072555553,228.64 298.2861369651744,240.16" stroke="none" /><polygon fill="#e2b729" points="313.75617072555553,228.64 313.86756350488974,240.16 298.2861369651744,240.16" stroke="none" /><polygon fill="#e0b426" points="313.75617072555553,228.64 331.7643214430199,228.64 313.86756350488974,240.16" stroke="none" /><polygon fill="#dfb225" points="331.7643214430199,228.64 331.9071326985766,240.16 313.86756350488974,240.16" stroke="none" /><polygon fill="#f3cd3a" points="257.0,240.16 231.94064620946972,240.16 257.0,252.4" stroke="none" /><polygon fill="#efc835" points="231.94064620946972,240.16 234.17484294748988,252.4 257.0,252.4" stroke="none" /><polygon fill="#eac031" points="231.94064620946972,240.16 212.71386303482558,240.16 234.17484294748988,252.4" stroke="none" /><polygon fill="#e6bc2d" points="212.71386303482558,240.16 213.88305730164888,252.4 234.17484294748988,252.4" stroke="none" /><polygon fill="#e2b72a" points="212.71386303482558,240.16 197.13243649511026,240.16 213.88305730164888,252.4" stroke="none" /><polygon fill="#dfb226" points="197.13243649511026,240.16 199.04962878497608,252.4 213.88305730164888,252.4" stroke="none" /><polygon fill="#dcaf24" points="197.13243649511026,240.16 185.09286730142338,240.16 199.04962878497608,252.4" stroke="none" /><polygon fill="#dbad23" points="185.09286730142338,240.16 184.832857416636,252.4 199.04962878497608,252.4" stroke="none" /><polygon fill="#e2b72a" points="185.09286730142338,240.16 257,240.16 184.832857416636,252.4" stroke="none" /><polygon fill="#ebc331" points="257,240.16 254,252.4 184.832857416636,252.4" stroke="none" /><polygon fill="#f6d03d" points="257,240.16 253.0,240.16 254,252.4" stroke="none" /><polygon fill="#f5cf3a" points="253.0,240.16 255.0,252.4 254,252.4" stroke="none" /><polygon fill="#f4cd3b" points="253.0,240.16 277.0593537905303,240.16 255.0,252.4" stroke="none" /><polygon fill="#efc835" points="277.0593537905303,240.16 281.8251570525101,252.4 255.0,252.4" stroke="none" /><polygon fill="#eac031" points="277.0593537905303,240.16 298.2861369651744,240.16 281.8251570525101,252.4" stroke="none" /><polygon fill="#e6bc2d" points="298.2861369651744,240.16 293.1169426983511,252.4 281.8251570525101,252.4" stroke="none" /><polygon fill="#e3b82b" points="298.2861369651744,240.16 313.86756350488974,240.16 293.1169426983511,252.4" stroke="none" /><polygon fill="#e0b428" points="313.86756350488974,240.16 308.95037121502395,252.4 293.1169426983511,252.4" stroke="none" /><polygon fill="#dcaf24" points="313.86756350488974,240.16 331.9071326985766,240.16 308.95037121502395,252.4" stroke="none" /><polygon fill="#dbad23" points="331.9071326985766,240.16 322.167142583364,252.4 308.95037121502395,252.4" stroke="none" /><polygon fill="#f2ca34" points="257.0,252.4 234.17484294748988,252.4 254.0,264.64" stroke="none" /><polygon fill="#eec630" points="234.17484294748988,252.4 240.39761039096527,264.64 254.0,264.64" stroke="none" /><polygon fill="#e9bf2e" points="234.17484294748988,252.4 213.88305730164888,252.4 240.39761039096527,264.64" stroke="none" /><polygon fill="#e6bb2b" points="213.88305730164888,252.4 223.30489099018138,264.64 240.39761039096527,264.64" stroke="none" /><polygon fill="#e1b528" points="213.88305730164888,252.4 199.04962878497608,252.4 223.30489099018138,264.64" stroke="none" /><polygon fill="#e0b327" points="199.04962878497608,252.4 214.03071546955425,264.64 223.30489099018138,264.64" stroke="none" /><polygon fill="#daad24" points="199.04962878497608,252.4 184.832857416636,252.4 214.03071546955425,264.64" stroke="none" /><polygon fill="#daac23" points="184.832857416636,252.4 200.62912239686443,264.64 214.03071546955425,264.64" stroke="none" /><polygon fill="#e1b528" points="184.832857416636,252.4 254,252.4 200.62912239686443,264.64" stroke="none" /><polygon fill="#ebc22e" points="254,252.4 256,264.64 200.62912239686443,264.64" stroke="none" /><polygon fill="#f5ce36" points="254,252.4 255.0,252.4 256,264.64" stroke="none" /><polygon fill="#f4cd34" points="255.0,252.4 256.0,264.64 256,264.64" stroke="none" /><polygon fill="#f2ca34" points="255.0,252.4 281.8251570525101,252.4 256.0,264.64" stroke="none" /><polygon fill="#edc430" points="281.8251570525101,252.4 276.60238960903473,264.64 256.0,264.64" stroke="none" /><polygon fill="#e8be2d" points="281.8251570525101,252.4 293.1169426983511,252.4 276.60238960903473,264.64" stroke="none" /><polygon fill="#e7bc2b" points="293.1169426983511,252.4 285.6951090098186,264.64 276.60238960903473,264.64" stroke="none" /><polygon fill="#e2b729" points="293.1169426983511,252.4 308.95037121502395,252.4 285.6951090098186,264.64" stroke="none" /><polygon fill="#e0b327" points="308.95037121502395,252.4 302.96928453044575,264.64 285.6951090098186,264.64" stroke="none" /><polygon fill="#dbae24" points="308.95037121502395,252.4 322.167142583364,252.4 302.96928453044575,264.64" stroke="none" /><polygon fill="#d9ab22" points="322.167142583364,252.4 315.37087760313557,264.64 302.96928453044575,264.64" stroke="none" /><polygon fill="#f2c92e" points="254.0,264.64 240.39761039096527,264.64 258.0,277.6" stroke="none" /><polygon fill="#efc52d" points="240.39761039096527,264.64 236.22719046553925,277.6 258.0,277.6" stroke="none" /><polygon fill="#e9be2a" points="240.39761039096527,264.64 223.30489099018138,264.64 236.22719046553925,277.6" stroke="none" /><polygon fill="#e6bb29" points="223.30489099018138,264.64 227.52051657579628,277.6 236.22719046553925,277.6" stroke="none" /><polygon fill="#e2b727" points="223.30489099018138,264.64 214.03071546955425,264.64 227.52051657579628,277.6" stroke="none" /><polygon fill="#e2b626" points="214.03071546955425,264.64 219.35517746400188,277.6 227.52051657579628,277.6" stroke="none" /><polygon fill="#ddb024" points="214.03071546955425,264.64 200.62912239686443,264.64 219.35517746400188,277.6" stroke="none" /><polygon fill="#dcaf24" points="200.62912239686443,264.64 208.17330444102808,277.6 219.35517746400188,277.6" stroke="none" /><polygon fill="#e2b727" points="200.62912239686443,264.64 256,264.64 208.17330444102808,277.6" stroke="none" /><polygon fill="#ecc32c" points="256,264.64 258,277.6 208.17330444102808,277.6" stroke="none" /><polygon fill="#f4cc2f" points="256,264.64 256.0,264.64 258,277.6" stroke="none" /><polygon fill="#f4cc2f" points="256.0,264.64 255.0,277.6 258,277.6" stroke="none" /><polygon fill="#f1c82e" points="256.0,264.64 276.60238960903473,264.64 255.0,277.6" stroke="none" /><polygon fill="#efc52d" points="276.60238960903473,264.64 269.77280953446075,277.6 255.0,277.6" stroke="none" /><polygon fill="#e9bf2a" points="276.60238960903473,264.64 285.6951090098186,264.64 269.77280953446075,277.6" stroke="none" /><polygon fill="#e8bd29" points="285.6951090098186,264.64 284.4794834242037,277.6 269.77280953446075,277.6" stroke="none" /><polygon fill="#e2b627" points="285.6951090098186,264.64 302.96928453044575,264.64 284.4794834242037,277.6" stroke="none" /><polygon fill="#e0b426" points="302.96928453044575,264.64 296.6448225359981,277.6 284.4794834242037,277.6" stroke="none" /><polygon fill="#dbad23" points="302.96928453044575,264.64 315.37087760313557,264.64 296.6448225359981,277.6" stroke="none" /><polygon fill="#daad23" points="315.37087760313557,264.64 306.8266955589719,277.6 296.6448225359981,277.6" stroke="none" /><polygon fill="#f1c92e" points="258.0,277.6 236.22719046553925,277.6 255.0,292.0" stroke="none" /><polygon fill="#efc62d" points="236.22719046553925,277.6 247.034,292.0 255.0,292.0" stroke="none" /><polygon fill="#eac02b" points="236.22719046553925,277.6 227.52051657579628,277.6 247.034,292.0" stroke="none" /><polygon fill="#ebc12b" points="227.52051657579628,277.6 239.484,292.0 247.034,292.0" stroke="none" /><polygon fill="#e6bb29" points="227.52051657579628,277.6 219.35517746400188,277.6 239.484,292.0" stroke="none" /><polygon fill="#e7bc29" points="219.35517746400188,277.6 231.444,292.0 239.484,292.0" stroke="none" /><polygon fill="#e1b526" points="219.35517746400188,277.6 208.17330444102808,277.6 231.444,292.0" stroke="none" /><polygon fill="#e3b727" points="208.17330444102808,277.6 226.8,292.0 231.444,292.0" stroke="none" /><polygon fill="#e7bd29" points="208.17330444102808,277.6 258,277.6 226.8,292.0" stroke="none" /><polygon fill="#f0c72d" points="258,277.6 257,292.0 226.8,292.0" stroke="none" /><polygon fill="#f4cc2f" points="258,277.6 255.0,277.6 257,292.0" stroke="none" /><polygon fill="#f4cc2f" points="255.0,277.6 255.0,292.0 257,292.0" stroke="none" /><polygon fill="#f2ca2f" points="255.0,277.6 269.77280953446075,277.6 255.0,292.0" stroke="none" /><polygon fill="#f1c82e" points="269.77280953446075,277.6 265.966,292.0 255.0,292.0" stroke="none" /><polygon fill="#ebc12b" points="269.77280953446075,277.6 284.4794834242037,277.6 265.966,292.0" stroke="none" /><polygon fill="#ebc12b" points="284.4794834242037,277.6 273.516,292.0 265.966,292.0" stroke="none" /><polygon fill="#e5ba28" points="284.4794834242037,277.6 296.6448225359981,277.6 273.516,292.0" stroke="none" /><polygon fill="#e6bb29" points="296.6448225359981,277.6 278.556,292.0 273.516,292.0" stroke="none" /><polygon fill="#e1b426" points="296.6448225359981,277.6 306.8266955589719,277.6 278.556,292.0" stroke="none" /><polygon fill="#e3b727" points="306.8266955589719,277.6 285.2,292.0 278.556,292.0" stroke="none" /><path d="M 238 210 A 10 12 0 0 0 238 228 Z" fill="#f5cd30" stroke="#d4a520" stroke-width="1" /><circle cx="234" cy="228" fill="#f5cd30" r="4" stroke="#d4a520" stroke-width="1" /><path d="M 274 210 A 10 12 0 0 1 274 228 Z" fill="#f5cd30" stroke="#d4a520" stroke-width="1" /><circle cx="278" cy="228" fill="#f5cd30" r="4" stroke="#d4a520" stroke-width="1" /><path d="M 212 214 A 20 12 0 0 0 252 214 Z" fill="#e8e0d8" stroke="#3a2a1a" stroke-width="1.5" /><path d="M 226 216 A 6 6 0 0 0 238 216 Z" fill="#3a2a1a" stroke="none" /><circle cx="234" cy="212" fill="white" r="3" stroke="none" /><path d="M 210 214 Q 232 209 254 214" fill="none" stroke="#3a2a1a" stroke-width="3" /><path d="M 260 215 A 20 12 0 0 0 300 215 Z" fill="#e8e0d8" stroke="#3a2a1a" stroke-width="1.5" /><path d="M 274 217 A 6 6 0 0 0 286 217 Z" fill="#3a2a1a" stroke="none" /><circle cx="282" cy="213" fill="white" r="3" stroke="none" /><path d="M 258 215 Q 280 210 302 215" fill="none" stroke="#3a2a1a" stroke-width="3" /><line stroke="#3a2a1a" stroke-width="2" x1="270" x2="270" y1="214" y2="210" /><line stroke="#3a2a1a" stroke-width="2" x1="280" x2="280" y1="214" y2="210" /><line stroke="#3a2a1a" stroke-width="2" x1="290" x2="290" y1="214" y2="210" /><line stroke="#3a2a1a" stroke-width="6" x1="215" x2="249" y1="208" y2="208" /><line stroke="#3a2a1a" stroke-width="6" x1="264" x2="296" y1="205" y2="205" /><path d="M 215 225 A 8 5 0 0 0 231 225 Z" fill="#e88060" fill-opacity="0.24833428894155693" stroke="none" /><path d="M 282 224 A 8 5 0 0 0 298 224 Z" fill="#e88060" fill-opacity="0.2701886944547933" stroke="none" /><path d="M 237 238 Q 256 248 275 238" fill="none" stroke="#c06050" stroke-width="3" /><path d="M 235 236 Q 256 251 277 236" fill="none" stroke="#a04030" stroke-width="1.5" /><path d="M 235 238 Q 256 246 277 238" fill="none" stroke="#f0a0a0" stroke-width="1" /><ellipse cx="241" cy="195" fill="white" fill-opacity="0.18" rx="10" ry="6" stroke="none" /><ellipse cx="271" cy="195" fill="white" fill-opacity="0.18" rx="10" ry="6" stroke="none" /><ellipse cx="256" cy="184" fill="white" fill-opacity="0.18" rx="10" ry="6" stroke="none" /><ellipse cx="230" cy="223" fill="white" fill-opacity="0.18" rx="10" ry="6" stroke="none" /><ellipse cx="282" cy="223" fill="white" fill-opacity="0.18" rx="10" ry="6" stroke="none" /><ellipse cx="245" cy="230" fill="white" fill-opacity="0.18" rx="10" ry="6" stroke="none" /><ellipse cx="267" cy="230" fill="white" fill-opacity="0.18" rx="10" ry="6" stroke="none" /><ellipse cx="256" cy="210" fill="white" fill-opacity="0.12" rx="3" ry="18" stroke="none" /><polygon fill="#b8911a" points="242,288.0 270,288.0 270,323.0 242,323.0" stroke="none" /></svg>