<?xml version="1.0" encoding="utf-8" ?>
<svg baseProfile="full" height="512" version="1.1" width="512" xmlns="http://www.w3.org/2000/svg" xmlns:ev="http://www.w3.org/2001/xml-events" xmlns:xlink="http://www.w3.org/1999/xlink"><defs /><polygon fill="#fade5a" points="257.0,155.0 239.8135,155.0 258.0,169.3" stroke="none" /><polygon fill="#f9db53" points="239.8135,155.0 238.38912543751454,169.3 258.0,169.3" stroke="none" /><polygon fill="#f7d647" points="239.8135,155.0 227.551,155.0 238.38912543751454,169.3" stroke="none" /><polygon fill="#f7d543" points="227.551,155.0 230.32028107199523,169.3 238.38912543751454,169.3" stroke="none" /><polygon fill="#f6d23a" points="227.551,155.0 216.74099999999999,155.0 230.32028107199523,169.3" stroke="none" /><polygon fill="#f5d139" points="216.74099999999999,155.0 223.4652055795798,169.3 230.32028107199523,169.3" stroke="none" /><polygon fill="#f4ce30" points="216.74099999999999,155.0 206.95,155.0 223.4652055795798,169.3" stroke="none" /><polygon fill="#f4cd2f" points="206.95,155.0 214.7246225379228,169.3 223.4652055795798,169.3" stroke="none" /><polygon fill="#f6d23b" points="206.95,155.0 255,155.0 214.7246225379228,169.3" stroke="none" /><polygon fill="#f8d94f" points="255,155.0 256,169.3 214.7246225379228,169.3" stroke="none" /><polygon fill="#fbe060" points="255,155.0 257.0,155.0 256,169.3" stroke="none" /><polygon fill="#fadf5f" points="257.0,155.0 257.0,169.3 256,169.3" stroke="none" /><polygon fill="#fadd58" points="257.0,155.0 273.1865,155.0 257.0,169.3" stroke="none" /><polygon fill="#f9db52" points="273.1865,155.0 271.6108745624855,169.3 257.0,169.3" stroke="none" /><polygon fill="#f7d647" points="273.1865,155.0 285.449,155.0 271.6108745624855,169.3" stroke="none" /><polygon fill="#f7d544" points="285.449,155.0 280.6797189280048,169.3 271.6108745624855,169.3" stroke="none" /><polygon fill="#f6d23b" points="285.449,155.0 294.259,155.0 280.6797189280048,169.3" stroke="none" /><polygon fill="#f6d13a" points="294.259,155.0 288.5347944204202,169.3 280.6797189280048,169.3" stroke="none" /><polygon fill="#f4ce30" points="294.259,155.0 306.05,155.0 288.5347944204202,169.3" stroke="none" /><polygon fill="#f4cd2d" points="306.05,155.0 301.2753774620772,169.3 288.5347944204202,169.3" stroke="none" /><polygon fill="#fade5b" points="258.0,169.3 238.38912543751454,169.3 259.0,184.25" stroke="none" /><polygon fill="#f8d952" points="238.38912543751454,169.3 243.40887800051755,184.25 259.0,184.25" stroke="none" /><polygon fill="#f8d749" points="238.38912543751454,169.3 230.32028107199523,169.3 243.40887800051755,184.25" stroke="none" /><polygon fill="#f6d445" points="230.32028107199523,169.3 233.35499769787933,184.25 243.40887800051755,184.25" stroke="none" /><polygon fill="#f6d43f" points="230.32028107199523,169.3 223.4652055795798,169.3 233.35499769787933,184.25" stroke="none" /><polygon fill="#f4d03b" points="223.4652055795798,169.3 222.51189345576876,184.25 233.35499769787933,184.25" stroke="none" /><polygon fill="#f5d035" points="223.4652055795798,169.3 214.7246225379228,169.3 222.51189345576876,184.25" stroke="none" /><polygon fill="#f3cb30" points="214.7246225379228,169.3 213.78447878944712,184.25 222.51189345576876,184.25" stroke="none" /><polygon fill="#f6d33e" points="214.7246225379228,169.3 256,169.3 213.78447878944712,184.25" stroke="none" /><polygon fill="#f7d74c" points="256,169.3 255,184.25 213.78447878944712,184.25" stroke="none" /><polygon fill="#fbe060" points="256,169.3 257.0,169.3 255,184.25" stroke="none" /><polygon fill="#f9dd5c" points="257.0,169.3 255.0,184.25 255,184.25" stroke="none" /><polygon fill="#fadd59" points="257.0,169.3 271.6108745624855,169.3 255.0,184.25" stroke="none" /><polygon fill="#f8d952" points="271.6108745624855,169.3 269.5911219994825,184.25 255.0,184.25" stroke="none" /><polygon fill="#f8d84a" points="271.6108745624855,169.3 280.6797189280048,169.3 269.5911219994825,184.25" stroke="none" /><polygon fill="#f6d343" points="280.6797189280048,169.3 283.6450023021207,184.25 269.5911219994825,184.25" stroke="none" /><polygon fill="#f6d33e" points="280.6797189280048,169.3 288.5347944204202,169.3 283.6450023021207,184.25" stroke="none" /><polygon fill="#f4cf3a" points="288.5347944204202,169.3 287.48810654423124,184.25 283.6450023021207,184.25" stroke="none" /><polygon fill="#f5cf34" points="288.5347944204202,169.3 301.2753774620772,169.3 287.48810654423124,184.25" stroke="none" /><polygon fill="#f2ca2d" points="301.2753774620772,169.3 303.2155212105529,184.25 287.48810654423124,184.25" stroke="none" /><polygon fill="#f8da53" points="259.0,184.25 243.40887800051755,184.25 255.0,197.25" stroke="none" /><polygon fill="#f6d54a" points="243.40887800051755,184.25 238.42150148709135,197.25 255.0,197.25" stroke="none" /><polygon fill="#f4d344" points="243.40887800051755,184.25 233.35499769787933,184.25 238.42150148709135,197.25" stroke="none" /><polygon fill="#f3cf3e" points="233.35499769787933,184.25 231.37718443185753,197.25 238.42150148709135,197.25" stroke="none" /><polygon fill="#f2ce3a" points="233.35499769787933,184.25 222.51189345576876,184.25 231.37718443185753,197.25" stroke="none" /><polygon fill="#f0ca34" points="222.51189345576876,184.25 220.54173078767045,197.25 231.37718443185753,197.25" stroke="none" /><polygon fill="#f0c92f" points="222.51189345576876,184.25 213.78447878944712,184.25 220.54173078767045,197.25" stroke="none" /><polygon fill="#eec52a" points="213.78447878944712,184.25 209.82273177906467,197.25 220.54173078767045,197.25" stroke="none" /><polygon fill="#f1cc37" points="213.78447878944712,184.25 255,184.25 209.82273177906467,197.25" stroke="none" /><polygon fill="#f5d345" points="255,184.25 259,197.25 209.82273177906467,197.25" stroke="none" /><polygon fill="#f8db56" points="255,184.25 255.0,184.25 259,197.25" stroke="none" /><polygon fill="#f8da53" points="255.0,184.25 257.0,197.25 259,197.25" stroke="none" /><polygon fill="#f7d952" points="255.0,184.25 269.5911219994825,184.25 257.0,197.25" stroke="none" /><polygon fill="#f6d64b" points="269.5911219994825,184.25 269.57849851290865,197.25 257.0,197.25" stroke="none" /><polygon fill="#f4d243" points="269.5911219994825,184.25 283.6450023021207,184.25 269.57849851290865,197.25" stroke="none" /><polygon fill="#f3cf3d" points="283.6450023021207,184.25 281.62281556814247,197.25 269.57849851290865,197.25" stroke="none" /><polygon fill="#f2cd39" points="283.6450023021207,184.25 287.48810654423124,184.25 281.62281556814247,197.25" stroke="none" /><polygon fill="#f0ca34" points="287.48810654423124,184.25 292.4582692123295,197.25 281.62281556814247,197.25" stroke="none" /><polygon fill="#efc82e" points="287.48810654423124,184.25 303.2155212105529,184.25 292.4582692123295,197.25" stroke="none" /><polygon fill="#edc429" points="303.2155212105529,184.25 298.17726822093533,197.25 292.4582692123295,197.25" stroke="none" /><polygon fill="#f5d549" points="255.0,197.25 238.42150148709135,197.25 253.0,208.3" stroke="none" /><polygon fill="#f3d142" points="238.42150148709135,197.25 240.84099589764446,208.3 253.0,208.3" stroke="none" /><polygon fill="#f2ce3d" points="238.42150148709135,197.25 231.37718443185753,197.25 240.84099589764446,208.3" stroke="none" /><polygon fill="#f0cc3a" points="231.37718443185753,197.25 234.11447763828423,208.3 240.84099589764446,208.3" stroke="none" /><polygon fill="#efc936" points="231.37718443185753,197.25 220.54173078767045,197.25 234.11447763828423,208.3" stroke="none" /><polygon fill="#edc631" points="220.54173078767045,197.25 221.53326303079604,208.3 234.11447763828423,208.3" stroke="none" /><polygon fill="#ecc22b" points="220.54173078767045,197.25 209.82273177906467,197.25 221.53326303079604,208.3" stroke="none" /><polygon fill="#e9c128" points="209.82273177906467,197.25 216.093926962559,208.3 221.53326303079604,208.3" stroke="none" /><polygon fill="#efc935" points="209.82273177906467,197.25 259,197.25 216.093926962559,208.3" stroke="none" /><polygon fill="#f3d142" points="259,197.25 254,208.3 216.093926962559,208.3" stroke="none" /><polygon fill="#f7d94f" points="259,197.25 257.0,197.25 254,208.3" stroke="none" /><polygon fill="#f7d84d" points="257.0,197.25 254.0,208.3 254,208.3" stroke="none" /><polygon fill="#f6d74c" points="257.0,197.25 269.57849851290865,197.25 254.0,208.3" stroke="none" /><polygon fill="#f4d345" points="269.57849851290865,197.25 273.15900410235554,208.3 254.0,208.3" stroke="none" /><polygon fill="#f2ce3e" points="269.57849851290865,197.25 281.62281556814247,197.25 273.15900410235554,208.3" stroke="none" /><polygon fill="#f0cb39" points="281.62281556814247,197.25 280.88552236171574,208.3 273.15900410235554,208.3" stroke="none" /><polygon fill="#efc834" points="281.62281556814247,197.25 292.4582692123295,197.25 280.88552236171574,208.3" stroke="none" /><polygon fill="#ecc530" points="292.4582692123295,197.25 291.46673696920396,208.3 280.88552236171574,208.3" stroke="none" /><polygon fill="#ecc32b" points="292.4582692123295,197.25 298.17726822093533,197.25 291.46673696920396,208.3" stroke="none" /><polygon fill="#e9c129" points="298.17726822093533,197.25 297.906073037441,208.3 291.46673696920396,208.3" stroke="none" /><polygon fill="#f5d343" points="253.0,208.3 240.84099589764446,208.3 256.0,218.7" stroke="none" /><polygon fill="#f2cf3e" points="240.84099589764446,208.3 238.1310231585362,218.7 256.0,218.7" stroke="none" /><polygon fill="#f0cb39" points="240.84099589764446,208.3 234.11447763828423,208.3 238.1310231585362,218.7" stroke="none" /><polygon fill="#eec835" points="234.11447763828423,208.3 231.8666467634879,218.7 238.1310231585362,218.7" stroke="none" /><polygon fill="#edc532" points="234.11447763828423,208.3 221.53326303079604,208.3 231.8666467634879,218.7" stroke="none" /><polygon fill="#e9c12c" points="221.53326303079604,208.3 217.8551456474492,218.7 231.8666467634879,218.7" stroke="none" /><polygon fill="#e9bf29" points="221.53326303079604,208.3 216.093926962559,208.3 217.8551456474492,218.7" stroke="none" /><polygon fill="#e5bb25" points="216.093926962559,208.3 208.94249441980668,218.7 217.8551456474492,218.7" stroke="none" /><polygon fill="#ecc430" points="216.093926962559,208.3 254,208.3 208.94249441980668,218.7" stroke="none" /><polygon fill="#f0cc3a" points="254,208.3 259,218.7 208.94249441980668,218.7" stroke="none" /><polygon fill="#f7d648" points="254,208.3 254.0,208.3 259,218.7" stroke="none" /><polygon fill="#f6d646" points="254.0,208.3 254.0,218.7 259,218.7" stroke="none" /><polygon fill="#f6d445" points="254.0,208.3 273.15900410235554,208.3 254.0,218.7" stroke="none" /><polygon fill="#f2d03e" points="273.15900410235554,208.3 271.8689768414638,218.7 254.0,218.7" stroke="none" /><polygon fill="#f0ca38" points="273.15900410235554,208.3 280.88552236171574,208.3 271.8689768414638,218.7" stroke="none" /><polygon fill="#edc834" points="280.88552236171574,208.3 282.1333532365121,218.7 271.8689768414638,218.7" stroke="none" /><polygon fill="#ecc430" points="280.88552236171574,208.3 291.46673696920396,208.3 282.1333532365121,218.7" stroke="none" /><polygon fill="#e9c12c" points="291.46673696920396,208.3 291.1448543525508,218.7 282.1333532365121,218.7" stroke="none" /><polygon fill="#e9bf29" points="291.46673696920396,208.3 297.906073037441,208.3 291.1448543525508,218.7" stroke="none" /><polygon fill="#e5bc25" points="297.906073037441,208.3 301.0575055801933,218.7 291.1448543525508,218.7" stroke="none" /><polygon fill="#f4d03e" points="256.0,218.7 238.1310231585362,218.7 255.0,227.8" stroke="none" /><polygon fill="#f1cb39" points="238.1310231585362,218.7 238.77495935632243,227.8 255.0,227.8" stroke="none" /><polygon fill="#edc734" points="238.1310231585362,218.7 231.8666467634879,218.7 238.77495935632243,227.8" stroke="none" /><polygon fill="#ecc431" points="231.8666467634879,218.7 230.99841341414245,227.8 238.77495935632243,227.8" stroke="none" /><polygon fill="#e9c12d" points="231.8666467634879,218.7 217.8551456474492,218.7 230.99841341414245,227.8" stroke="none" /><polygon fill="#e7bd2b" points="217.8551456474492,218.7 225.37717666039845,227.8 230.99841341414245,227.8" stroke="none" /><polygon fill="#e5ba26" points="217.8551456474492,218.7 208.94249441980668,218.7 225.37717666039845,227.8" stroke="none" /><polygon fill="#e3b724" points="208.94249441980668,218.7 212.89381623128008,227.8 225.37717666039845,227.8" stroke="none" /><polygon fill="#e9c12d" points="208.94249441980668,218.7 259,218.7 212.89381623128008,227.8" stroke="none" /><polygon fill="#f0cb38" points="259,218.7 258,227.8 212.89381623128008,227.8" stroke="none" /><polygon fill="#f6d442" points="259,218.7 254.0,218.7 258,227.8" stroke="none" /><polygon fill="#f6d341" points="254.0,218.7 257.0,227.8 258,227.8" stroke="none" /><polygon fill="#f4d13f" points="254.0,218.7 271.8689768414638,218.7 257.0,227.8" stroke="none" /><polygon fill="#f2cd3b" points="271.8689768414638,218.7 267.2250406436776,227.8 257.0,227.8" stroke="none" /><polygon fill="#eec835" points="271.8689768414638,218.7 282.1333532365121,218.7 267.2250406436776,227.8" stroke="none" /><polygon fill="#edc633" points="282.1333532365121,218.7 278.0015865858575,227.8 267.2250406436776,227.8" stroke="none" /><polygon fill="#eac22e" points="282.1333532365121,218.7 291.1448543525508,218.7 278.0015865858575,227.8" stroke="none" /><polygon fill="#e8bf2c" points="291.1448543525508,218.7 287.62282333960155,227.8 278.0015865858575,227.8" stroke="none" /><polygon fill="#e5bb27" points="291.1448543525508,218.7 301.0575055801933,218.7 287.62282333960155,227.8" stroke="none" /><polygon fill="#e3b724" points="301.0575055801933,218.7 299.1061837687199,227.8 287.62282333960155,227.8" stroke="none" /><polygon fill="#f2cd39" points="255.0,227.8 238.77495935632243,227.8 254.0,238.2" stroke="none" /><polygon fill="#efc934" points="238.77495935632243,227.8 240.82233122271012,238.2 254.0,238.2" stroke="none" /><polygon fill="#ebc431" points="238.77495935632243,227.8 230.99841341414245,227.8 240.82233122271012,238.2" stroke="none" /><polygon fill="#e9c12d" points="230.99841341414245,227.8 228.56652154294505,238.2 240.82233122271012,238.2" stroke="none" /><polygon fill="#e7be2b" points="230.99841341414245,227.8 225.37717666039845,227.8 228.56652154294505,238.2" stroke="none" /><polygon fill="#e4ba27" points="225.37717666039845,227.8 219.761873799133,238.2 228.56652154294505,238.2" stroke="none" /><polygon fill="#e2b725" points="225.37717666039845,227.8 212.89381623128008,227.8 219.761873799133,238.2" stroke="none" /><polygon fill="#deb120" points="212.89381623128008,227.8 204.97676128093974,238.2 219.761873799133,238.2" stroke="none" /><polygon fill="#e5bc29" points="212.89381623128008,227.8 258,227.8 204.97676128093974,238.2" stroke="none" /><polygon fill="#edc631" points="258,227.8 257,238.2 204.97676128093974,238.2" stroke="none" /><polygon fill="#f5d23d" points="258,227.8 257.0,227.8 257,238.2" stroke="none" /><polygon fill="#f5d13b" points="257.0,227.8 256.0,238.2 257,238.2" stroke="none" /><polygon fill="#f3cf3b" points="257.0,227.8 267.2250406436776,227.8 256.0,238.2" stroke="none" /><polygon fill="#f1cb36" points="267.2250406436776,227.8 270.1776687772899,238.2 256.0,238.2" stroke="none" /><polygon fill="#edc733" points="267.2250406436776,227.8 278.0015865858575,227.8 270.1776687772899,238.2" stroke="none" /><polygon fill="#eac12e" points="278.0015865858575,227.8 284.43347845705495,238.2 270.1776687772899,238.2" stroke="none" /><polygon fill="#e7be2b" points="278.0015865858575,227.8 287.62282333960155,227.8 284.43347845705495,238.2" stroke="none" /><polygon fill="#e4b927" points="287.62282333960155,227.8 292.238126200867,238.2 284.43347845705495,238.2" stroke="none" /><polygon fill="#e2b725" points="287.62282333960155,227.8 299.1061837687199,227.8 292.238126200867,238.2" stroke="none" /><polygon fill="#deb220" points="299.1061837687199,227.8 304.02323871906026,238.2 292.238126200867,238.2" stroke="none" /><polygon fill="#f1cc34" points="254.0,238.2 240.82233122271012,238.2 255.0,249.25" stroke="none" /><polygon fill="#eec72f" points="240.82233122271012,238.2 239.73050356253444,249.25 255.0,249.25" stroke="none" /><polygon fill="#e9c12c" points="240.82233122271012,238.2 228.56652154294505,238.2 239.73050356253444,249.25" stroke="none" /><polygon fill="#e7bd29" points="228.56652154294505,238.2 232.9202789886969,249.25 239.73050356253444,249.25" stroke="none" /><polygon fill="#e3b927" points="228.56652154294505,238.2 219.761873799133,238.2 232.9202789886969,249.25" stroke="none" /><polygon fill="#e2b724" points="219.761873799133,238.2 224.27209932962688,249.25 232.9202789886969,249.25" stroke="none" /><polygon fill="#ddb021" points="219.761873799133,238.2 204.97676128093974,238.2 224.27209932962688,249.25" stroke="none" /><polygon fill="#dbae1f" points="204.97676128093974,238.2 215.75910170464985,249.25 224.27209932962688,249.25" stroke="none" /><polygon fill="#e3b826" points="204.97676128093974,238.2 257,238.2 215.75910170464985,249.25" stroke="none" /><polygon fill="#edc52e" points="257,238.2 257,249.25 215.75910170464985,249.25" stroke="none" /><polygon fill="#f4d037" points="257,238.2 256.0,238.2 257,249.25" stroke="none" /><polygon fill="#f4cf34" points="256.0,238.2 257.0,249.25 257,249.25" stroke="none" /><polygon fill="#f1cc35" points="256.0,238.2 270.1776687772899,238.2 257.0,249.25" stroke="none" /><polygon fill="#eec72f" points="270.1776687772899,238.2 272.26949643746553,249.25 257.0,249.25" stroke="none" /><polygon fill="#e9c12c" points="270.1776687772899,238.2 284.43347845705495,238.2 272.26949643746553,249.25" stroke="none" /><polygon fill="#e6bc28" points="284.43347845705495,238.2 283.0797210113031,249.25 272.26949643746553,249.25" stroke="none" /><polygon fill="#e2b826" points="284.43347845705495,238.2 292.238126200867,238.2 283.0797210113031,249.25" stroke="none" /><polygon fill="#e0b423" points="292.238126200867,238.2 292.7279006703731,249.25 283.0797210113031,249.25" stroke="none" /><polygon fill="#ddb020" points="292.238126200867,238.2 304.02323871906026,238.2 292.7279006703731,249.25" stroke="none" /><polygon fill="#daac1e" points="304.02323871906026,238.2 300.2408982953501,249.25 292.7279006703731,249.25" stroke="none" /><polygon fill="#f0c92e" points="255.0,249.25 239.73050356253444,249.25 256.0,260.3" stroke="none" /><polygon fill="#edc42a" points="239.73050356253444,249.25 241.873612422443,260.3 256.0,260.3" stroke="none" /><polygon fill="#e8be28" points="239.73050356253444,249.25 232.9202789886969,249.25 241.873612422443,260.3" stroke="none" /><polygon fill="#e5bb25" points="232.9202789886969,249.25 230.92937940914223,260.3 241.873612422443,260.3" stroke="none" /><polygon fill="#e2b724" points="232.9202789886969,249.25 224.27209932962688,249.25 230.92937940914223,260.3" stroke="none" /><polygon fill="#dfb321" points="224.27209932962688,249.25 221.97399299850161,260.3 230.92937940914223,260.3" stroke="none" /><polygon fill="#dcaf20" points="224.27209932962688,249.25 215.75910170464985,249.25 221.97399299850161,260.3" stroke="none" /><polygon fill="#d9ab1d" points="215.75910170464985,249.25 213.22306794679693,260.3 221.97399299850161,260.3" stroke="none" /><polygon fill="#e1b624" points="215.75910170464985,249.25 257,249.25 213.22306794679693,260.3" stroke="none" /><polygon fill="#eac129" points="257,249.25 258,260.3 213.22306794679693,260.3" stroke="none" /><polygon fill="#f3cc30" points="257,249.25 257.0,249.25 258,260.3" stroke="none" /><polygon fill="#f2cb2e" points="257.0,249.25 259.0,260.3 258,260.3" stroke="none" /><polygon fill="#efc82d" points="257.0,249.25 272.26949643746553,249.25 259.0,260.3" stroke="none" /><polygon fill="#edc42a" points="272.26949643746553,249.25 267.126387577557,260.3 259.0,260.3" stroke="none" /><polygon fill="#e8be28" points="272.26949643746553,249.25 283.0797210113031,249.25 267.126387577557,260.3" stroke="none" /><polygon fill="#e5bb25" points="283.0797210113031,249.25 280.0706205908578,260.3 267.126387577557,260.3" stroke="none" /><polygon fill="#e0b423" points="283.0797210113031,249.25 292.7279006703731,249.25 280.0706205908578,260.3" stroke="none" /><polygon fill="#dfb321" points="292.7279006703731,249.25 286.0260070014984,260.3 280.0706205908578,260.3" stroke="none" /><polygon fill="#dbae1f" points="292.7279006703731,249.25 300.2408982953501,249.25 286.0260070014984,260.3" stroke="none" /><polygon fill="#daac1e" points="300.2408982953501,249.25 294.7769320532031,260.3 286.0260070014984,260.3" stroke="none" /><polygon fill="#f0c728" points="256.0,260.3 241.873612422443,260.3 256.0,272.0" stroke="none" /><polygon fill="#edc427" points="241.873612422443,260.3 245.9571690523983,272.0 256.0,272.0" stroke="none" /><polygon fill="#e7bc24" points="241.873612422443,260.3 230.92937940914223,260.3 245.9571690523983,272.0" stroke="none" /><polygon fill="#e5ba23" points="230.92937940914223,260.3 234.59138803148792,272.0 245.9571690523983,272.0" stroke="none" /><polygon fill="#dfb320" points="230.92937940914223,260.3 221.97399299850161,260.3 234.59138803148792,272.0" stroke="none" /><polygon fill="#deb120" points="221.97399299850161,260.3 226.89876321475964,272.0 234.59138803148792,272.0" stroke="none" /><polygon fill="#d9ab1d" points="221.97399299850161,260.3 213.22306794679693,260.3 226.89876321475964,272.0" stroke="none" /><polygon fill="#d9ab1d" points="213.22306794679693,260.3 223.5368759163585,272.0 226.89876321475964,272.0" stroke="none" /><polygon fill="#e1b521" points="213.22306794679693,260.3 258,260.3 223.5368759163585,272.0" stroke="none" /><polygon fill="#ecc226" points="258,260.3 255,272.0 223.5368759163585,272.0" stroke="none" /><polygon fill="#f3ca29" points="258,260.3 259.0,260.3 255,272.0" stroke="none" /><polygon fill="#f3cb29" points="259.0,260.3 257.0,272.0 255,272.0" stroke="none" /><polygon fill="#f0c728" points="259.0,260.3 267.126387577557,260.3 257.0,272.0" stroke="none" /><polygon fill="#eec427" points="267.126387577557,260.3 267.0428309476017,272.0 257.0,272.0" stroke="none" /><polygon fill="#e8bd24" points="267.126387577557,260.3 280.0706205908578,260.3 267.0428309476017,272.0" stroke="none" /><polygon fill="#e5ba23" points="280.0706205908578,260.3 277.40861196851205,272.0 267.0428309476017,272.0" stroke="none" /><polygon fill="#e1b421" points="280.0706205908578,260.3 286.0260070014984,260.3 277.40861196851205,272.0" stroke="none" /><polygon fill="#e0b421" points="286.0260070014984,260.3 281.10123678524036,272.0 277.40861196851205,272.0" stroke="none" /><polygon fill="#dcaf1e" points="286.0260070014984,260.3 294.7769320532031,260.3 281.10123678524036,272.0" stroke="none" /><polygon fill="#dbad1e" points="294.7769320532031,260.3 290.4631240836415,272.0 281.10123678524036,272.0" stroke="none" /><polygon fill="#f1c928" points="256.0,272.0 245.9571690523983,272.0 257.0,285.0" stroke="none" /><polygon fill="#efc627" points="245.9571690523983,272.0 246.9284,285.0 257.0,285.0" stroke="none" /><polygon fill="#e9bf25" points="245.9571690523983,272.0 234.59138803148792,272.0 246.9284,285.0" stroke="none" /><polygon fill="#e7bc24" points="234.59138803148792,272.0 237.29840000000002,285.0 246.9284,285.0" stroke="none" /><polygon fill="#e2b621" points="234.59138803148792,272.0 226.89876321475964,272.0 237.29840000000002,285.0" stroke="none" /><polygon fill="#e2b621" points="226.89876321475964,272.0 233.1944,285.0 237.29840000000002,285.0" stroke="none" /><polygon fill="#deb120" points="226.89876321475964,272.0 223.5368759163585,272.0 233.1944,285.0" stroke="none" /><polygon fill="#deb120" points="223.5368759163585,272.0 226.48000000000002,285.0 233.1944,285.0" stroke="none" /><polygon fill="#e4b822" points="223.5368759163585,272.0 255,272.0 226.48000000000002,285.0" stroke="none" /><polygon fill="#ecc226" points="255,272.0 255,285.0 226.48000000000002,285.0" stroke="none" /><polygon fill="#f3cb29" points="255,272.0 257.0,272.0 255,285.0" stroke="none" /><polygon fill="#f4cc2a" points="257.0,272.0 256.0,285.0 255,285.0" stroke="none" /><polygon fill="#f0c828" points="257.0,272.0 267.0428309476017,272.0 256.0,285.0" stroke="none" /><polygon fill="#eec527" points="267.0428309476017,272.0 265.0716,285.0 256.0,285.0" stroke="none" /><polygon fill="#e9bf25" points="267.0428309476017,272.0 277.40861196851205,272.0 265.0716,285.0" stroke="none" /><polygon fill="#e7bc24" points="277.40861196851205,272.0 274.7016,285.0 265.0716,285.0" stroke="none" /><polygon fill="#e3b722" points="277.40861196851205,272.0 281.10123678524036,272.0 274.7016,285.0" stroke="none" /><polygon fill="#e2b621" points="281.10123678524036,272.0 280.8056,285.0 274.7016,285.0" stroke="none" /><polygon fill="#deb120" points="281.10123678524036,272.0 290.4631240836415,272.0 280.8056,285.0" stroke="none" /><polygon fill="#ddb01f" points="290.4631240836415,272.0 285.52,285.0 280.8056,285.0" stroke="none" /><path d="M 244 211 A 4 16 0 0 0 244 227 Z" fill="#f4cc2a" stroke="#d2a21a" stroke-width="1" /><path d="M 268 211 A 4 16 0 0 1 268 227 Z" fill="#f4cc2a" stroke="#d2a21a" stroke-width="1" /><line stroke="#3a2a1a" stroke-width="3" x1="221" x2="237" y1="215" y2="216" /><line stroke="#3a2a1a" stroke-width="3" x1="241" x2="257" y1="216" y2="215" /><line stroke="#3a2a1a" stroke-width="3" x1="255" x2="271" y1="213" y2="214" /><line stroke="#3a2a1a" stroke-width="3" x1="275" x2="291" y1="214" y2="213" /><line stroke="#3a2a1a" stroke-width="2" x1="230" x2="248" y1="207" y2="207" /><line stroke="#3a2a1a" stroke-width="2" x1="265" x2="281" y1="207" y2="207" /><path d="M 225 225 A 6 4 0 0 0 237 225 Z" fill="#e88060" fill-opacity="0.24638192359404087" stroke="none" /><path d="M 273 226 A 7 4 0 0 0 287 226 Z" fill="#e88060" fill-opacity="0.298526552937909" stroke="none" /><polygon fill="#d2a21a" points="256,218 257,224 256,225 255,224" stroke="none" /><path d="M 242 235 Q 256 229 270 235 Q 256 241 242 235" fill="#c06050" stroke="#3a2a1a" stroke-width="1.5" /><line stroke="#3a2a1a" stroke-width="1.5" x1="244" x2="268" y1="235" y2="235" /><path d="M 272 197 Q 279 190 286 197" fill="none" stroke="#d4c0a0" stroke-opacity="0.3" stroke-width="1" /><path d="M 266 196 Q 273 189 280 196" fill="none" stroke="#d4c0a0" stroke-opacity="0.3" stroke-width="1" /><path d="M 234 201 Q 241 194 248 201" fill="none" stroke="#d4c0a0" stroke-opacity="0.3" stroke-width="1" /><path d="M 286 216 Q 293 209 300 216" fill="none" stroke="#d4c0a0" stroke-opacity="0.3" stroke-width="1" /><path d="M 248 189 Q 255 182 262 189" fill="none" stroke="#d4c0a0" stroke-opacity="0.3" stroke-width="1" /><path d="M 234 201 Q 237 198 240 201" fill="none" stroke="#d4c0a0" stroke-opacity="0.3" stroke-width="1" /><path d="M 259 204 Q 264 199 269 204" fill="none" stroke="#d4c0a0" stroke-opacity="0.3" stroke-width="1" /><path d="M 233 243 Q 237 239 241 243" fill="none" stroke="#d4c0a0" stroke-opacity="0.3" stroke-width="1" /><path d="M 226 197 Q 234 189 242 197" fill="none" stroke="#d4c0a0" stroke-opacity="0.3" stroke-width="1" /><path d="M 232 233 Q 240 225 248 233" fill="none" stroke="#d4c0a0" stroke-opacity="0.3" stroke-width="1" /><path d="M 233 205 Q 236 202 239 205" fill="none" stroke="#d4c0a0" stroke-opacity="0.3" stroke-width="1" /><path d="M 248 205 Q 251 202 254 205" fill="none" stroke="#d4c0a0" stroke-opacity="0.3" stroke-width="1" /><polygon fill="#b68e16" points="246,281.0 266,281.0 266,316.0 246,316.0" stroke="none" /></svg>