<?xml version="1.0" encoding="utf-8" ?>
<svg baseProfile="full" height="512" version="1.1" width="512" xmlns="http://www.w3.org/2000/svg" xmlns:ev="http://www.w3.org/2001/xml-events" xmlns:xlink="http://www.w3.org/1999/xlink"><defs /><polygon fill="#fadd59" points="257.0,142.0 233.725,142.0 255.0,159.16" stroke="none" /><polygon fill="#f9db53" points="233.725,142.0 235.81323659485034,159.16 255.0,159.16" stroke="none" /><polygon fill="#f7d748" points="233.725,142.0 216.85,142.0 235.81323659485034,159.16" stroke="none" /><polygon fill="#f7d544" points="216.85,142.0 219.76265825761575,159.16 235.81323659485034,159.16" stroke="none" /><polygon fill="#f6d23b" points="216.85,142.0 203.35,142.0 219.76265825761575,159.16" stroke="none" /><polygon fill="#f5d037" points="203.35,142.0 203.92219558782807,159.16 219.76265825761575,159.16" stroke="none" /><polygon fill="#f4cd2e" points="203.35,142.0 187.5,142.0 203.92219558782807,159.16" stroke="none" /><polygon fill="#f4cc2b" points="187.5,142.0 193.7976866510616,159.16 203.92219558782807,159.16" stroke="none" /><polygon fill="#f6d23a" points="187.5,142.0 256,142.0 193.7976866510616,159.16" stroke="none" /><polygon fill="#f8d94d" points="256,142.0 254,159.16 193.7976866510616,159.16" stroke="none" /><polygon fill="#fadf5f" points="256,142.0 257.0,142.0 254,159.16" stroke="none" /><polygon fill="#fadf5f" points="257.0,142.0 256.0,159.16 254,159.16" stroke="none" /><polygon fill="#fadd59" points="257.0,142.0 277.275,142.0 256.0,159.16" stroke="none" /><polygon fill="#f9db54" points="277.275,142.0 276.1867634051497,159.16 256.0,159.16" stroke="none" /><polygon fill="#f8d749" points="277.275,142.0 294.15,142.0 276.1867634051497,159.16" stroke="none" /><polygon fill="#f7d645" points="294.15,142.0 291.2373417423843,159.16 276.1867634051497,159.16" stroke="none" /><polygon fill="#f6d23b" points="294.15,142.0 307.65,142.0 291.2373417423843,159.16" stroke="none" /><polygon fill="#f5d137" points="307.65,142.0 309.07780441217193,159.16 291.2373417423843,159.16" stroke="none" /><polygon fill="#f4cd2e" points="307.65,142.0 322.5,142.0 309.07780441217193,159.16" stroke="none" /><polygon fill="#f4cc2b" points="322.5,142.0 318.2023133489384,159.16 309.07780441217193,159.16" stroke="none" /><polygon fill="#fadd59" points="255.0,159.16 235.81323659485034,159.16 254.0,177.1" stroke="none" /><polygon fill="#f8d850" points="235.81323659485034,159.16 233.2447969961892,177.1 254.0,177.1" stroke="none" /><polygon fill="#f8d749" points="235.81323659485034,159.16 219.76265825761575,159.16 233.2447969961892,177.1" stroke="none" /><polygon fill="#f6d343" points="219.76265825761575,159.16 222.27873411451432,177.1 233.2447969961892,177.1" stroke="none" /><polygon fill="#f6d23c" points="219.76265825761575,159.16 203.92219558782807,159.16 222.27873411451432,177.1" stroke="none" /><polygon fill="#f4cf38" points="203.92219558782807,159.16 209.30588380917445,177.1 222.27873411451432,177.1" stroke="none" /><polygon fill="#f4ce31" points="203.92219558782807,159.16 193.7976866510616,159.16 209.30588380917445,177.1" stroke="none" /><polygon fill="#f2ca2d" points="193.7976866510616,159.16 195.13574847330057,177.1 209.30588380917445,177.1" stroke="none" /><polygon fill="#f6d23b" points="193.7976866510616,159.16 254,159.16 195.13574847330057,177.1" stroke="none" /><polygon fill="#f7d64b" points="254,159.16 255,177.1 195.13574847330057,177.1" stroke="none" /><polygon fill="#fadf5f" points="254,159.16 256.0,159.16 255,177.1" stroke="none" /><polygon fill="#f9dd5c" points="256.0,159.16 256.0,177.1 255,177.1" stroke="none" /><polygon fill="#fadd5a" points="256.0,159.16 276.1867634051497,159.16 256.0,177.1" stroke="none" /><polygon fill="#f8d951" points="276.1867634051497,159.16 275.75520300381083,177.1 256.0,177.1" stroke="none" /><polygon fill="#f8d74a" points="276.1867634051497,159.16 291.2373417423843,159.16 275.75520300381083,177.1" stroke="none" /><polygon fill="#f6d344" points="291.2373417423843,159.16 290.72126588548565,177.1 275.75520300381083,177.1" stroke="none" /><polygon fill="#f6d23c" points="291.2373417423843,159.16 309.07780441217193,159.16 290.72126588548565,177.1" stroke="none" /><polygon fill="#f4cf38" points="309.07780441217193,159.16 300.6941161908256,177.1 290.72126588548565,177.1" stroke="none" /><polygon fill="#f5ce31" points="309.07780441217193,159.16 318.2023133489384,159.16 300.6941161908256,177.1" stroke="none" /><polygon fill="#f2cb2f" points="318.2023133489384,159.16 314.86425152669943,177.1 300.6941161908256,177.1" stroke="none" /><polygon fill="#f7d850" points="254.0,177.1 233.2447969961892,177.1 255.0,192.7" stroke="none" /><polygon fill="#f6d54a" points="233.2447969961892,177.1 235.94906036551006,192.7 255.0,192.7" stroke="none" /><polygon fill="#f4d243" points="233.2447969961892,177.1 222.27873411451432,177.1 235.94906036551006,192.7" stroke="none" /><polygon fill="#f2ce3d" points="222.27873411451432,177.1 215.24380306665407,192.7 235.94906036551006,192.7" stroke="none" /><polygon fill="#f1cd37" points="222.27873411451432,177.1 209.30588380917445,177.1 215.24380306665407,192.7" stroke="none" /><polygon fill="#f0c932" points="209.30588380917445,177.1 204.87959722756926,192.7 215.24380306665407,192.7" stroke="none" /><polygon fill="#efc82e" points="209.30588380917445,177.1 195.13574847330057,177.1 204.87959722756926,192.7" stroke="none" /><polygon fill="#edc428" points="195.13574847330057,177.1 189.17897080457598,192.7 204.87959722756926,192.7" stroke="none" /><polygon fill="#f1cc36" points="195.13574847330057,177.1 255,177.1 189.17897080457598,192.7" stroke="none" /><polygon fill="#f4d243" points="255,177.1 256,192.7 189.17897080457598,192.7" stroke="none" /><polygon fill="#f8db56" points="255,177.1 256.0,177.1 256,192.7" stroke="none" /><polygon fill="#f8da54" points="256.0,177.1 259.0,192.7 256,192.7" stroke="none" /><polygon fill="#f7d951" points="256.0,177.1 275.75520300381083,177.1 259.0,192.7" stroke="none" /><polygon fill="#f6d549" points="275.75520300381083,177.1 278.0509396344899,192.7 259.0,192.7" stroke="none" /><polygon fill="#f4d243" points="275.75520300381083,177.1 290.72126588548565,177.1 278.0509396344899,192.7" stroke="none" /><polygon fill="#f2ce3c" points="290.72126588548565,177.1 295.7561969333459,192.7 278.0509396344899,192.7" stroke="none" /><polygon fill="#f2cd38" points="290.72126588548565,177.1 300.6941161908256,177.1 295.7561969333459,192.7" stroke="none" /><polygon fill="#f0c932" points="300.6941161908256,177.1 309.12040277243074,192.7 295.7561969333459,192.7" stroke="none" /><polygon fill="#efc82e" points="300.6941161908256,177.1 314.86425152669943,177.1 309.12040277243074,192.7" stroke="none" /><polygon fill="#edc428" points="314.86425152669943,177.1 322.821029195424,192.7 309.12040277243074,192.7" stroke="none" /><polygon fill="#f6d64a" points="255.0,192.7 235.94906036551006,192.7 255.0,205.96" stroke="none" /><polygon fill="#f4d244" points="235.94906036551006,192.7 234.49148141812654,205.96 255.0,205.96" stroke="none" /><polygon fill="#f1ce3d" points="235.94906036551006,192.7 215.24380306665407,192.7 234.49148141812654,205.96" stroke="none" /><polygon fill="#efca37" points="215.24380306665407,192.7 218.1971491591315,205.96 234.49148141812654,205.96" stroke="none" /><polygon fill="#eec732" points="215.24380306665407,192.7 204.87959722756926,192.7 218.1971491591315,205.96" stroke="none" /><polygon fill="#ecc52f" points="204.87959722756926,192.7 207.16168335193544,205.96 218.1971491591315,205.96" stroke="none" /><polygon fill="#ebc129" points="204.87959722756926,192.7 189.17897080457598,192.7 207.16168335193544,205.96" stroke="none" /><polygon fill="#e8bf25" points="189.17897080457598,192.7 192.8226709640198,205.96 207.16168335193544,205.96" stroke="none" /><polygon fill="#eec732" points="189.17897080457598,192.7 256,192.7 192.8226709640198,205.96" stroke="none" /><polygon fill="#f2cf3f" points="256,192.7 255,205.96 192.8226709640198,205.96" stroke="none" /><polygon fill="#f7d94f" points="256,192.7 259.0,192.7 255,205.96" stroke="none" /><polygon fill="#f8d94e" points="259.0,192.7 254.0,205.96 255,205.96" stroke="none" /><polygon fill="#f6d64a" points="259.0,192.7 278.0509396344899,192.7 254.0,205.96" stroke="none" /><polygon fill="#f4d345" points="278.0509396344899,192.7 274.5085185818735,205.96 254.0,205.96" stroke="none" /><polygon fill="#f2ce3d" points="278.0509396344899,192.7 295.7561969333459,192.7 274.5085185818735,205.96" stroke="none" /><polygon fill="#efcb38" points="295.7561969333459,192.7 292.80285084086853,205.96 274.5085185818735,205.96" stroke="none" /><polygon fill="#eec732" points="295.7561969333459,192.7 309.12040277243074,192.7 292.80285084086853,205.96" stroke="none" /><polygon fill="#ebc42e" points="309.12040277243074,192.7 306.83831664806456,205.96 292.80285084086853,205.96" stroke="none" /><polygon fill="#ebc128" points="309.12040277243074,192.7 322.821029195424,192.7 306.83831664806456,205.96" stroke="none" /><polygon fill="#e8be24" points="322.821029195424,192.7 324.17732903598016,205.96 306.83831664806456,205.96" stroke="none" /><polygon fill="#f6d345" points="255.0,205.96 234.49148141812654,205.96 259.0,218.44" stroke="none" /><polygon fill="#f3d13f" points="234.49148141812654,205.96 238.83515768405044,218.44 259.0,218.44" stroke="none" /><polygon fill="#f0cb39" points="234.49148141812654,205.96 218.1971491591315,205.96 238.83515768405044,218.44" stroke="none" /><polygon fill="#eec835" points="218.1971491591315,205.96 222.55876199014926,218.44 238.83515768405044,218.44" stroke="none" /><polygon fill="#ecc430" points="218.1971491591315,205.96 207.16168335193544,205.96 222.55876199014926,218.44" stroke="none" /><polygon fill="#e9c12c" points="207.16168335193544,205.96 206.33764543502832,218.44 222.55876199014926,218.44" stroke="none" /><polygon fill="#e8bd28" points="207.16168335193544,205.96 192.8226709640198,205.96 206.33764543502832,218.44" stroke="none" /><polygon fill="#e5bb25" points="192.8226709640198,205.96 196.89441722439528,218.44 206.33764543502832,218.44" stroke="none" /><polygon fill="#ecc330" points="192.8226709640198,205.96 255,205.96 196.89441722439528,218.44" stroke="none" /><polygon fill="#f0cd3a" points="255,205.96 255,218.44 196.89441722439528,218.44" stroke="none" /><polygon fill="#f7d648" points="255,205.96 254.0,205.96 255,218.44" stroke="none" /><polygon fill="#f6d645" points="254.0,205.96 253.0,218.44 255,218.44" stroke="none" /><polygon fill="#f6d446" points="254.0,205.96 274.5085185818735,205.96 253.0,218.44" stroke="none" /><polygon fill="#f3d140" points="274.5085185818735,205.96 273.16484231594956,218.44 253.0,218.44" stroke="none" /><polygon fill="#f1cb3a" points="274.5085185818735,205.96 292.80285084086853,205.96 273.16484231594956,218.44" stroke="none" /><polygon fill="#eec935" points="292.80285084086853,205.96 289.44123800985074,218.44 273.16484231594956,218.44" stroke="none" /><polygon fill="#ecc430" points="292.80285084086853,205.96 306.83831664806456,205.96 289.44123800985074,218.44" stroke="none" /><polygon fill="#e9c12c" points="306.83831664806456,205.96 306.6623545649717,218.44 289.44123800985074,218.44" stroke="none" /><polygon fill="#e7bc26" points="306.83831664806456,205.96 324.17732903598016,205.96 306.6623545649717,218.44" stroke="none" /><polygon fill="#e4ba23" points="324.17732903598016,205.96 316.1055827756047,218.44 306.6623545649717,218.44" stroke="none" /><polygon fill="#f5d240" points="259.0,218.44 238.83515768405044,218.44 256.0,229.36" stroke="none" /><polygon fill="#f2cd3b" points="238.83515768405044,218.44 236.6360417880286,229.36 256.0,229.36" stroke="none" /><polygon fill="#efc936" points="238.83515768405044,218.44 222.55876199014926,218.44 236.6360417880286,229.36" stroke="none" /><polygon fill="#ecc532" points="222.55876199014926,218.44 222.96637647592905,229.36 236.6360417880286,229.36" stroke="none" /><polygon fill="#e9c12d" points="222.55876199014926,218.44 206.33764543502832,218.44 222.96637647592905,229.36" stroke="none" /><polygon fill="#e7bd2a" points="206.33764543502832,218.44 207.2306442262494,229.36 222.96637647592905,229.36" stroke="none" /><polygon fill="#e5ba26" points="206.33764543502832,218.44 196.89441722439528,218.44 207.2306442262494,229.36" stroke="none" /><polygon fill="#e3b724" points="196.89441722439528,218.44 198.32133875160184,229.36 207.2306442262494,229.36" stroke="none" /><polygon fill="#e9c12d" points="196.89441722439528,218.44 255,218.44 198.32133875160184,229.36" stroke="none" /><polygon fill="#f0ca38" points="255,218.44 258,229.36 198.32133875160184,229.36" stroke="none" /><polygon fill="#f6d442" points="255,218.44 253.0,218.44 258,229.36" stroke="none" /><polygon fill="#f6d341" points="253.0,218.44 259.0,229.36 258,229.36" stroke="none" /><polygon fill="#f5d23f" points="253.0,218.44 273.16484231594956,218.44 259.0,229.36" stroke="none" /><polygon fill="#f2cd3b" points="273.16484231594956,218.44 273.3639582119714,229.36 259.0,229.36" stroke="none" /><polygon fill="#efc936" points="273.16484231594956,218.44 289.44123800985074,218.44 273.3639582119714,229.36" stroke="none" /><polygon fill="#edc533" points="289.44123800985074,218.44 290.03362352407095,229.36 273.3639582119714,229.36" stroke="none" /><polygon fill="#e9c12d" points="289.44123800985074,218.44 306.6623545649717,218.44 290.03362352407095,229.36" stroke="none" /><polygon fill="#e7be2b" points="306.6623545649717,218.44 299.7693557737506,229.36 290.03362352407095,229.36" stroke="none" /><polygon fill="#e5bb26" points="306.6623545649717,218.44 316.1055827756047,218.44 299.7693557737506,229.36" stroke="none" /><polygon fill="#e4b825" points="316.1055827756047,218.44 311.67866124839816,229.36 299.7693557737506,229.36" stroke="none" /><polygon fill="#f3ce3a" points="256.0,229.36 236.6360417880286,229.36 253.0,241.84" stroke="none" /><polygon fill="#efc934" points="236.6360417880286,229.36 233.03929112811554,241.84 253.0,241.84" stroke="none" /><polygon fill="#ecc531" points="236.6360417880286,229.36 222.96637647592905,229.36 233.03929112811554,241.84" stroke="none" /><polygon fill="#e9c02d" points="222.96637647592905,229.36 217.64481471002125,241.84 233.03929112811554,241.84" stroke="none" /><polygon fill="#e6bd2a" points="222.96637647592905,229.36 207.2306442262494,229.36 217.64481471002125,241.84" stroke="none" /><polygon fill="#e3b826" points="207.2306442262494,229.36 204.72923357554583,241.84 217.64481471002125,241.84" stroke="none" /><polygon fill="#e1b624" points="207.2306442262494,229.36 198.32133875160184,229.36 204.72923357554583,241.84" stroke="none" /><polygon fill="#deb220" points="198.32133875160184,229.36 189.42209432762286,241.84 204.72923357554583,241.84" stroke="none" /><polygon fill="#e6bc2a" points="198.32133875160184,229.36 258,229.36 189.42209432762286,241.84" stroke="none" /><polygon fill="#edc631" points="258,229.36 255,241.84 189.42209432762286,241.84" stroke="none" /><polygon fill="#f5d23d" points="258,229.36 259.0,229.36 255,241.84" stroke="none" /><polygon fill="#f5d13b" points="259.0,229.36 256.0,241.84 255,241.84" stroke="none" /><polygon fill="#f3cf3a" points="259.0,229.36 273.3639582119714,229.36 256.0,241.84" stroke="none" /><polygon fill="#f0ca35" points="273.3639582119714,229.36 281.96070887188444,241.84 256.0,241.84" stroke="none" /><polygon fill="#ecc431" points="273.3639582119714,229.36 290.03362352407095,229.36 281.96070887188444,241.84" stroke="none" /><polygon fill="#e8c02c" points="290.03362352407095,229.36 294.35518528997875,241.84 281.96070887188444,241.84" stroke="none" /><polygon fill="#e7bd2b" points="290.03362352407095,229.36 299.7693557737506,229.36 294.35518528997875,241.84" stroke="none" /><polygon fill="#e4b927" points="299.7693557737506,229.36 307.27076642445417,241.84 294.35518528997875,241.84" stroke="none" /><polygon fill="#e2b725" points="299.7693557737506,229.36 311.67866124839816,229.36 307.27076642445417,241.84" stroke="none" /><polygon fill="#deb120" points="311.67866124839816,229.36 326.57790567237714,241.84 307.27076642445417,241.84" stroke="none" /><polygon fill="#f1cc34" points="253.0,241.84 233.03929112811554,241.84 259.0,255.1" stroke="none" /><polygon fill="#efc82f" points="233.03929112811554,241.84 236.82883799933626,255.1 259.0,255.1" stroke="none" /><polygon fill="#e9c12c" points="233.03929112811554,241.84 217.64481471002125,241.84 236.82883799933626,255.1" stroke="none" /><polygon fill="#e6bd28" points="217.64481471002125,241.84 217.79007890792434,255.1 236.82883799933626,255.1" stroke="none" /><polygon fill="#e2b726" points="217.64481471002125,241.84 204.72923357554583,241.84 217.79007890792434,255.1" stroke="none" /><polygon fill="#e0b423" points="204.72923357554583,241.84 207.95907163479478,255.1 217.79007890792434,255.1" stroke="none" /><polygon fill="#ddb020" points="204.72923357554583,241.84 189.42209432762286,241.84 207.95907163479478,255.1" stroke="none" /><polygon fill="#daac1e" points="189.42209432762286,241.84 192.8449636343523,255.1 207.95907163479478,255.1" stroke="none" /><polygon fill="#e2b725" points="189.42209432762286,241.84 255,241.84 192.8449636343523,255.1" stroke="none" /><polygon fill="#ebc32d" points="255,241.84 259,255.1 192.8449636343523,255.1" stroke="none" /><polygon fill="#f4d037" points="255,241.84 256.0,241.84 259,255.1" stroke="none" /><polygon fill="#f4cf34" points="256.0,241.84 254.0,255.1 259,255.1" stroke="none" /><polygon fill="#f1cc34" points="256.0,241.84 281.96070887188444,241.84 254.0,255.1" stroke="none" /><polygon fill="#eec72f" points="281.96070887188444,241.84 274.17116200066374,255.1 254.0,255.1" stroke="none" /><polygon fill="#e9c02c" points="281.96070887188444,241.84 294.35518528997875,241.84 274.17116200066374,255.1" stroke="none" /><polygon fill="#e6bd28" points="294.35518528997875,241.84 294.20992109207566,255.1 274.17116200066374,255.1" stroke="none" /><polygon fill="#e2b726" points="294.35518528997875,241.84 307.27076642445417,241.84 294.20992109207566,255.1" stroke="none" /><polygon fill="#e0b423" points="307.27076642445417,241.84 305.0409283652052,255.1 294.20992109207566,255.1" stroke="none" /><polygon fill="#dcaf20" points="307.27076642445417,241.84 326.57790567237714,241.84 305.0409283652052,255.1" stroke="none" /><polygon fill="#d9ab1d" points="326.57790567237714,241.84 320.1550363656477,255.1 305.0409283652052,255.1" stroke="none" /><polygon fill="#f1ca2f" points="259.0,255.1 236.82883799933626,255.1 257.0,268.36" stroke="none" /><polygon fill="#eec62b" points="236.82883799933626,255.1 242.75009014477695,268.36 257.0,268.36" stroke="none" /><polygon fill="#e8bf29" points="236.82883799933626,255.1 217.79007890792434,255.1 242.75009014477695,268.36" stroke="none" /><polygon fill="#e6bc26" points="217.79007890792434,255.1 228.43955237566857,268.36 242.75009014477695,268.36" stroke="none" /><polygon fill="#e1b624" points="217.79007890792434,255.1 207.95907163479478,255.1 228.43955237566857,268.36" stroke="none" /><polygon fill="#e0b422" points="207.95907163479478,255.1 215.59112216038187,268.36 228.43955237566857,268.36" stroke="none" /><polygon fill="#dbae20" points="207.95907163479478,255.1 192.8449636343523,255.1 215.59112216038187,268.36" stroke="none" /><polygon fill="#daac1e" points="192.8449636343523,255.1 204.75784892356648,268.36 215.59112216038187,268.36" stroke="none" /><polygon fill="#e2b624" points="192.8449636343523,255.1 259,255.1 204.75784892356648,268.36" stroke="none" /><polygon fill="#ebc229" points="259,255.1 253,268.36 204.75784892356648,268.36" stroke="none" /><polygon fill="#f3cd30" points="259,255.1 254.0,255.1 253,268.36" stroke="none" /><polygon fill="#f2cb2e" points="254.0,255.1 254.0,268.36 253,268.36" stroke="none" /><polygon fill="#f1cb2f" points="254.0,255.1 274.17116200066374,255.1 254.0,268.36" stroke="none" /><polygon fill="#eec52b" points="274.17116200066374,255.1 274.24990985522305,268.36 254.0,268.36" stroke="none" /><polygon fill="#e8be28" points="274.17116200066374,255.1 294.20992109207566,255.1 274.24990985522305,268.36" stroke="none" /><polygon fill="#e6bb26" points="294.20992109207566,255.1 283.5604476243314,268.36 274.24990985522305,268.36" stroke="none" /><polygon fill="#e1b624" points="294.20992109207566,255.1 305.0409283652052,255.1 283.5604476243314,268.36" stroke="none" /><polygon fill="#e1b523" points="305.0409283652052,255.1 291.4088778396181,268.36 283.5604476243314,268.36" stroke="none" /><polygon fill="#dcaf20" points="305.0409283652052,255.1 320.1550363656477,255.1 291.4088778396181,268.36" stroke="none" /><polygon fill="#dbad1f" points="320.1550363656477,255.1 306.2421510764335,268.36 291.4088778396181,268.36" stroke="none" /><polygon fill="#f2c929" points="257.0,268.36 242.75009014477695,268.36 258.0,282.4" stroke="none" /><polygon fill="#efc627" points="242.75009014477695,268.36 241.12987645552613,282.4 258.0,282.4" stroke="none" /><polygon fill="#e9bf25" points="242.75009014477695,268.36 228.43955237566857,268.36 241.12987645552613,282.4" stroke="none" /><polygon fill="#e7bc23" points="228.43955237566857,268.36 227.1070555885005,282.4 241.12987645552613,282.4" stroke="none" /><polygon fill="#e2b621" points="228.43955237566857,268.36 215.59112216038187,268.36 227.1070555885005,282.4" stroke="none" /><polygon fill="#e0b420" points="215.59112216038187,268.36 219.48879889487995,282.4 227.1070555885005,282.4" stroke="none" /><polygon fill="#dcaf1f" points="215.59112216038187,268.36 204.75784892356648,268.36 219.48879889487995,282.4" stroke="none" /><polygon fill="#dbad1e" points="204.75784892356648,268.36 208.90871653189737,282.4 219.48879889487995,282.4" stroke="none" /><polygon fill="#e1b521" points="204.75784892356648,268.36 253,268.36 208.90871653189737,282.4" stroke="none" /><polygon fill="#eac025" points="253,268.36 254,282.4 208.90871653189737,282.4" stroke="none" /><polygon fill="#f2ca29" points="253,268.36 254.0,268.36 254,282.4" stroke="none" /><polygon fill="#f3ca29" points="254.0,268.36 255.0,282.4 254,282.4" stroke="none" /><polygon fill="#f1c828" points="254.0,268.36 274.24990985522305,268.36 255.0,282.4" stroke="none" /><polygon fill="#edc326" points="274.24990985522305,268.36 274.87012354447387,282.4 255.0,282.4" stroke="none" /><polygon fill="#e8bd24" points="274.24990985522305,268.36 283.5604476243314,268.36 274.87012354447387,282.4" stroke="none" /><polygon fill="#e6bb23" points="283.5604476243314,268.36 281.8929444114995,282.4 274.87012354447387,282.4" stroke="none" /><polygon fill="#e3b822" points="283.5604476243314,268.36 291.4088778396181,268.36 281.8929444114995,282.4" stroke="none" /><polygon fill="#e2b621" points="291.4088778396181,268.36 292.51120110512005,282.4 281.8929444114995,282.4" stroke="none" /><polygon fill="#ddb01f" points="291.4088778396181,268.36 306.2421510764335,268.36 292.51120110512005,282.4" stroke="none" /><polygon fill="#dbad1e" points="306.2421510764335,268.36 305.09128346810263,282.4 292.51120110512005,282.4" stroke="none" /><polygon fill="#f1c828" points="258.0,282.4 241.12987645552613,282.4 255.0,298.0" stroke="none" /><polygon fill="#eec527" points="241.12987645552613,282.4 242.14000000000001,298.0 255.0,298.0" stroke="none" /><polygon fill="#e9bf25" points="241.12987645552613,282.4 227.1070555885005,282.4 242.14000000000001,298.0" stroke="none" /><polygon fill="#e7bc24" points="227.1070555885005,282.4 231.64000000000001,298.0 242.14000000000001,298.0" stroke="none" /><polygon fill="#e3b722" points="227.1070555885005,282.4 219.48879889487995,282.4 231.64000000000001,298.0" stroke="none" /><polygon fill="#e3b722" points="219.48879889487995,282.4 223.24,298.0 231.64000000000001,298.0" stroke="none" /><polygon fill="#deb120" points="219.48879889487995,282.4 208.90871653189737,282.4 223.24,298.0" stroke="none" /><polygon fill="#ddb01f" points="208.90871653189737,282.4 214.0,298.0 223.24,298.0" stroke="none" /><polygon fill="#e3b722" points="208.90871653189737,282.4 254,282.4 214.0,298.0" stroke="none" /><polygon fill="#ecc226" points="254,282.4 257,298.0 214.0,298.0" stroke="none" /><polygon fill="#f3cb29" points="254,282.4 255.0,282.4 257,298.0" stroke="none" /><polygon fill="#f3cb29" points="255.0,282.4 255.0,298.0 257,298.0" stroke="none" /><polygon fill="#f0c828" points="255.0,282.4 274.87012354447387,282.4 255.0,298.0" stroke="none" /><polygon fill="#eec427" points="274.87012354447387,282.4 270.86,298.0 255.0,298.0" stroke="none" /><polygon fill="#e9be24" points="274.87012354447387,282.4 281.8929444114995,282.4 270.86,298.0" stroke="none" /><polygon fill="#e8bd24" points="281.8929444114995,282.4 280.36,298.0 270.86,298.0" stroke="none" /><polygon fill="#e4b822" points="281.8929444114995,282.4 292.51120110512005,282.4 280.36,298.0" stroke="none" /><polygon fill="#e3b722" points="292.51120110512005,282.4 287.76,298.0 280.36,298.0" stroke="none" /><polygon fill="#deb11f" points="292.51120110512005,282.4 305.09128346810263,282.4 287.76,298.0" stroke="none" /><polygon fill="#ddb01f" points="305.09128346810263,282.4 297.0,298.0 287.76,298.0" stroke="none" /><path d="M 238 210 L 228 219 L 238 228 Z" fill="#f4cc2a" stroke="#d2a21a" stroke-width="1" /><path d="M 274 210 L 284 219 L 274 228 Z" fill="#f4cc2a" stroke="#d2a21a" stroke-width="1" /><line stroke="#3a2a1a" stroke-width="3" x1="208" x2="230" y1="212" y2="214" /><line stroke="#3a2a1a" stroke-width="3" x1="234" x2="256" y1="214" y2="212" /><line stroke="#3a2a1a" stroke-width="3" x1="256" x2="278" y1="211" y2="213" /><line stroke="#3a2a1a" stroke-width="3" x1="282" x2="304" y1="213" y2="211" /><line stroke="#3a2a1a" stroke-width="3" x1="219" x2="245" y1="212" y2="212" /><line stroke="#3a2a1a" stroke-width="3" x1="264" x2="296" y1="209" y2="209" /><path d="M 214 225 A 7 4 0 0 0 228 225 Z" fill="#e88060" fill-opacity="0.24172430539862028" stroke="none" /><path d="M 279 227 A 8 5 0 0 0 295 227 Z" fill="#e88060" fill-opacity="0.25227490788043533" stroke="none" /><path d="M 256 220 Q 259 226 258 230 Q 256 231 254 230 Q 253 226 256 220" fill="#d2a21a" stroke="none" /><path d="M 237 238 Q 256 231 275 238 Q 256 245 237 238" fill="#c06050" stroke="#3a2a1a" stroke-width="1.5" /><line stroke="#3a2a1a" stroke-width="1.5" x1="239" x2="273" y1="238" y2="238" /><circle cx="229" cy="247" fill="#d2a21a" fill-opacity="0.15" r="1.040171975756303" stroke="none" /><circle cx="246" cy="253" fill="#d2a21a" fill-opacity="0.15" r="1.8125278569428223" stroke="none" /><circle cx="210" cy="189" fill="#d2a21a" fill-opacity="0.15" r="1.1006410696282303" stroke="none" /><circle cx="274" cy="176" fill="#d2a21a" fill-opacity="0.15" r="1.9132644410785582" stroke="none" /><circle cx="300" cy="245" fill="#d2a21a" fill-opacity="0.15" r="2.456851733102728" stroke="none" /><circle cx="280" cy="244" fill="#d2a21a" fill-opacity="0.15" r="1.3028751333418707" stroke="none" /><circle cx="279" cy="193" fill="#d2a21a" fill-opacity="0.15" r="1.923401687502988" stroke="none" /><circle cx="302" cy="201" fill="#d2a21a" fill-opacity="0.15" r="1.8468155998869675" stroke="none" /><circle cx="304" cy="206" fill="#d2a21a" fill-opacity="0.15" r="1.648016395574864" stroke="none" /><circle cx="208" cy="213" fill="#d2a21a" fill-opacity="0.15" r="1.1592416263349032" stroke="none" /><circle cx="272" cy="257" fill="#d2a21a" fill-opacity="0.15" r="1.9997069107152794" stroke="none" /><circle cx="206" cy="223" fill="#d2a21a" fill-opacity="0.15" r="2.051770795265983" stroke="none" /><circle cx="291" cy="198" fill="#d2a21a" fill-opacity="0.15" r="2.05727140900842" stroke="none" /><circle cx="230" cy="233" fill="#d2a21a" fill-opacity="0.15" r="2.373602547874921" stroke="none" /><circle cx="305" cy="249" fill="#d2a21a" fill-opacity="0.15" r="1.734309312182587" stroke="none" /><circle cx="252" cy="207" fill="#d2a21a" fill-opacity="0.15" r="2.4132527614102868" stroke="none" /><circle cx="244" cy="198" fill="#d2a21a" fill-opacity="0.15" r="1.7453699270322591" stroke="none" /><circle cx="290" cy="180" fill="#d2a21a" fill-opacity="0.15" r="1.6741909688856178" stroke="none" /><circle cx="242" cy="196" fill="#d2a21a" fill-opacity="0.15" r="2.270108947485709" stroke="none" /><circle cx="214" cy="200" fill="#d2a21a" fill-opacity="0.15" r="1.7332785354590756" stroke="none" /><circle cx="280" cy="192" fill="#d2a21a" fill-opacity="0.15" r="1.7582440665644536" stroke="none" /><circle cx="274" cy="192" fill="#d2a21a" fill-opacity="0.15" r="1.0944397461710043" stroke="none" /><circle cx="271" cy="249" fill="#d2a21a" fill-opacity="0.15" r="1.5414117884782947" stroke="none" /><circle cx="300" cy="183" fill="#d2a21a" fill-opacity="0.15" r="1.9955490885514913" stroke="none" /><circle cx="249" cy="177" fill="#d2a21a" fill-opacity="0.15" r="0.9018760540907872" stroke="none" /><circle cx="238" cy="197" fill="#d2a21a" fill-opacity="0.15" r="2.4912447679239396" stroke="none" /><circle cx="232" cy="229" fill="#d2a21a" fill-opacity="0.15" r="1.4885750211528808" stroke="none" /><circle cx="298" cy="175" fill="#d2a21a" fill-opacity="0.15" r="1.245741844410002" stroke="none" /><circle cx="284" cy="199" fill="#d2a21a" fill-opacity="0.15" r="1.1879210107505564" stroke="none" /><circle cx="299" cy="180" fill="#d2a21a" fill-opacity="0.15" r="1.7994765415119107" stroke="none" /><circle cx="213" cy="220" fill="#d2a21a" fill-opacity="0.15" r="2.3680225506889148" stroke="none" /><circle cx="290" cy="246" fill="#d2a21a" fill-opacity="0.15" r="1.2623724971277475" stroke="none" /><circle cx="214" cy="174" fill="#d2a21a" fill-opacity="0.15" r="1.865398830145827" stroke="none" /><circle cx="230" cy="183" fill="#d2a21a" fill-opacity="0.15" r="2.2351909499593505" stroke="none" /><circle cx="219" cy="237" fill="#d2a21a" fill-opacity="0.15" r="2.4256230095861557" stroke="none" /><circle cx="233" cy="194" fill="#d2a21a" fill-opacity="0.15" r="0.7615166406519156" stroke="none" /><circle cx="284" cy="178" fill="#d2a21a" fill-opacity="0.15" r="1.1309709174115736" stroke="none" /><circle cx="257" cy="186" fill="#d2a21a" fill-opacity="0.15" r="1.5463748537410846" stroke="none" /><circle cx="280" cy="252" fill="#d2a21a" fill-opacity="0.15" r="1.8529338601272864" stroke="none" /><circle cx="281" cy="250" fill="#d2a21a" fill-opacity="0.15" r="2.1292642754352906" stroke="none" /><circle cx="295" cy="231" fill="#d2a21a" fill-opacity="0.15" r="2.149698003848547" stroke="none" /><circle cx="284" cy="251" fill="#d2a21a" fill-opacity="0.15" r="1.8625633018247973" stroke="none" /><polygon fill="#b68e16" points="237,294.0 275,294.0 275,329.0 237,329.0" stroke="none" /></svg>