<?xml version="1.0" encoding="utf-8" ?>
<svg baseProfile="full" height="512" version="1.1" width="512" xmlns="http://www.w3.org/2000/svg" xmlns:ev="http://www.w3.org/2001/xml-events" xmlns:xlink="http://www.w3.org/1999/xlink"><defs /><polygon fill="#fbdf61" points="256.0,137.5 250.466,137.5 259.0,155.64999999999998" stroke="none" /><polygon fill="#fbde5e" points="250.466,137.5 248.54275304956613,155.64999999999998 259.0,155.64999999999998" stroke="none" /><polygon fill="#fadd59" points="250.466,137.5 244.516,137.5 248.54275304956613,155.64999999999998" stroke="none" /><polygon fill="#fadc58" points="244.516,137.5 244.6508992992374,155.64999999999998 248.54275304956613,155.64999999999998" stroke="none" /><polygon fill="#fadb55" points="244.516,137.5 239.556,137.5 244.6508992992374,155.64999999999998" stroke="none" /><polygon fill="#f9da53" points="239.556,137.5 240.73741629897447,155.64999999999998 244.6508992992374,155.64999999999998" stroke="none" /><polygon fill="#f9d950" points="239.556,137.5 235.2,137.5 240.73741629897447,155.64999999999998" stroke="none" /><polygon fill="#f9d950" points="235.2,137.5 239.4325849986852,155.64999999999998 240.73741629897447,155.64999999999998" stroke="none" /><polygon fill="#fadb55" points="235.2,137.5 256,137.5 239.4325849986852,155.64999999999998" stroke="none" /><polygon fill="#fbde5c" points="256,137.5 257,155.64999999999998 239.4325849986852,155.64999999999998" stroke="none" /><polygon fill="#fce062" points="256,137.5 255.0,137.5 257,155.64999999999998" stroke="none" /><polygon fill="#fbdf61" points="255.0,137.5 257.0,155.64999999999998 257,155.64999999999998" stroke="none" /><polygon fill="#fbdf5f" points="255.0,137.5 262.534,137.5 257.0,155.64999999999998" stroke="none" /><polygon fill="#fbde5e" points="262.534,137.5 259.4572469504339,155.64999999999998 257.0,155.64999999999998" stroke="none" /><polygon fill="#fadd5a" points="262.534,137.5 268.484,137.5 259.4572469504339,155.64999999999998" stroke="none" /><polygon fill="#fadc59" points="268.484,137.5 267.34910070076256,155.64999999999998 259.4572469504339,155.64999999999998" stroke="none" /><polygon fill="#fadb55" points="268.484,137.5 271.444,137.5 267.34910070076256,155.64999999999998" stroke="none" /><polygon fill="#fadb54" points="271.444,137.5 269.26258370102556,155.64999999999998 267.34910070076256,155.64999999999998" stroke="none" /><polygon fill="#f9da52" points="271.444,137.5 275.8,137.5 269.26258370102556,155.64999999999998" stroke="none" /><polygon fill="#f9d950" points="275.8,137.5 277.56741500131477,155.64999999999998 269.26258370102556,155.64999999999998" stroke="none" /><polygon fill="#fbdf60" points="259.0,155.64999999999998 248.54275304956613,155.64999999999998 255.0,174.625" stroke="none" /><polygon fill="#fadc5a" points="248.54275304956613,155.64999999999998 251.5453459839298,174.625 255.0,174.625" stroke="none" /><polygon fill="#fadd5a" points="248.54275304956613,155.64999999999998 244.6508992992374,155.64999999999998 251.5453459839298,174.625" stroke="none" /><polygon fill="#f9da56" points="244.6508992992374,155.64999999999998 245.655456577816,174.625 251.5453459839298,174.625" stroke="none" /><polygon fill="#fadb55" points="244.6508992992374,155.64999999999998 240.73741629897447,155.64999999999998 245.655456577816,174.625" stroke="none" /><polygon fill="#f8d852" points="240.73741629897447,155.64999999999998 241.74354505292496,174.625 245.655456577816,174.625" stroke="none" /><polygon fill="#f9da52" points="240.73741629897447,155.64999999999998 239.4325849986852,155.64999999999998 241.74354505292496,174.625" stroke="none" /><polygon fill="#f8d74e" points="239.4325849986852,155.64999999999998 234.44044237554485,174.625 241.74354505292496,174.625" stroke="none" /><polygon fill="#fadb55" points="239.4325849986852,155.64999999999998 257,155.64999999999998 234.44044237554485,174.625" stroke="none" /><polygon fill="#f9db59" points="257,155.64999999999998 258,174.625 234.44044237554485,174.625" stroke="none" /><polygon fill="#fbdf60" points="257,155.64999999999998 257.0,155.64999999999998 258,174.625" stroke="none" /><polygon fill="#fadd5e" points="257.0,155.64999999999998 254.0,174.625 258,174.625" stroke="none" /><polygon fill="#fbdf61" points="257.0,155.64999999999998 259.4572469504339,155.64999999999998 254.0,174.625" stroke="none" /><polygon fill="#fadd5d" points="259.4572469504339,155.64999999999998 259.4546540160702,174.625 254.0,174.625" stroke="none" /><polygon fill="#fbdd5c" points="259.4572469504339,155.64999999999998 267.34910070076256,155.64999999999998 259.4546540160702,174.625" stroke="none" /><polygon fill="#f9da56" points="267.34910070076256,155.64999999999998 269.344543422184,174.625 259.4546540160702,174.625" stroke="none" /><polygon fill="#fadb55" points="267.34910070076256,155.64999999999998 269.26258370102556,155.64999999999998 269.344543422184,174.625" stroke="none" /><polygon fill="#f8d851" points="269.26258370102556,155.64999999999998 273.25645494707504,174.625 269.344543422184,174.625" stroke="none" /><polygon fill="#f9d950" points="269.26258370102556,155.64999999999998 277.56741500131477,155.64999999999998 273.25645494707504,174.625" stroke="none" /><polygon fill="#f7d64b" points="277.56741500131477,155.64999999999998 277.5595576244552,174.625 273.25645494707504,174.625" stroke="none" /><polygon fill="#f9db57" points="255.0,174.625 251.5453459839298,174.625 256.0,191.125" stroke="none" /><polygon fill="#f8d853" points="251.5453459839298,174.625 246.47545076411586,191.125 256.0,191.125" stroke="none" /><polygon fill="#f8d851" points="251.5453459839298,174.625 245.655456577816,174.625 246.47545076411586,191.125" stroke="none" /><polygon fill="#f6d44a" points="245.655456577816,174.625 231.98715588844604,191.125 246.47545076411586,191.125" stroke="none" /><polygon fill="#f6d54a" points="245.655456577816,174.625 241.74354505292496,174.625 231.98715588844604,191.125" stroke="none" /><polygon fill="#f4d043" points="241.74354505292496,174.625 225.39651998791018,191.125 231.98715588844604,191.125" stroke="none" /><polygon fill="#f5d245" points="241.74354505292496,174.625 234.44044237554485,174.625 225.39651998791018,191.125" stroke="none" /><polygon fill="#f3ce3d" points="234.44044237554485,174.625 220.04682049732077,191.125 225.39651998791018,191.125" stroke="none" /><polygon fill="#f5d448" points="234.44044237554485,174.625 258,174.625 220.04682049732077,191.125" stroke="none" /><polygon fill="#f7d54c" points="258,174.625 253,191.125 220.04682049732077,191.125" stroke="none" /><polygon fill="#f9db58" points="258,174.625 254.0,174.625 253,191.125" stroke="none" /><polygon fill="#f9da56" points="254.0,174.625 259.0,191.125 253,191.125" stroke="none" /><polygon fill="#f9db57" points="254.0,174.625 259.4546540160702,174.625 259.0,191.125" stroke="none" /><polygon fill="#f8d852" points="259.4546540160702,174.625 265.52454923588414,191.125 259.0,191.125" stroke="none" /><polygon fill="#f8d851" points="259.4546540160702,174.625 269.344543422184,174.625 265.52454923588414,191.125" stroke="none" /><polygon fill="#f6d449" points="269.344543422184,174.625 281.012844111554,191.125 265.52454923588414,191.125" stroke="none" /><polygon fill="#f5d448" points="269.344543422184,174.625 273.25645494707504,174.625 281.012844111554,191.125" stroke="none" /><polygon fill="#f4d042" points="273.25645494707504,174.625 284.6034800120898,191.125 281.012844111554,191.125" stroke="none" /><polygon fill="#f5d245" points="273.25645494707504,174.625 277.5595576244552,174.625 284.6034800120898,191.125" stroke="none" /><polygon fill="#f2ce3d" points="277.5595576244552,174.625 294.95317950267923,191.125 284.6034800120898,191.125" stroke="none" /><polygon fill="#f7d84e" points="256.0,191.125 246.47545076411586,191.125 253.0,205.15" stroke="none" /><polygon fill="#f5d348" points="246.47545076411586,191.125 237.2576139711556,205.15 253.0,205.15" stroke="none" /><polygon fill="#f4d144" points="246.47545076411586,191.125 231.98715588844604,191.125 237.2576139711556,205.15" stroke="none" /><polygon fill="#f1cd3d" points="231.98715588844604,191.125 227.33156394930378,205.15 237.2576139711556,205.15" stroke="none" /><polygon fill="#f1cc3c" points="231.98715588844604,191.125 225.39651998791018,191.125 227.33156394930378,205.15" stroke="none" /><polygon fill="#efc937" points="225.39651998791018,191.125 220.79072393182233,205.15 227.33156394930378,205.15" stroke="none" /><polygon fill="#efc937" points="225.39651998791018,191.125 220.04682049732077,191.125 220.79072393182233,205.15" stroke="none" /><polygon fill="#ecc531" points="220.04682049732077,191.125 207.2957999125927,205.15 220.79072393182233,205.15" stroke="none" /><polygon fill="#f1cc3b" points="220.04682049732077,191.125 253,191.125 207.2957999125927,205.15" stroke="none" /><polygon fill="#f3d042" points="253,191.125 254,205.15 207.2957999125927,205.15" stroke="none" /><polygon fill="#f8d951" points="253,191.125 259.0,191.125 254,205.15" stroke="none" /><polygon fill="#f8d84f" points="259.0,191.125 258.0,205.15 254,205.15" stroke="none" /><polygon fill="#f7d74e" points="259.0,191.125 265.52454923588414,191.125 258.0,205.15" stroke="none" /><polygon fill="#f6d448" points="265.52454923588414,191.125 272.7423860288444,205.15 258.0,205.15" stroke="none" /><polygon fill="#f4d144" points="265.52454923588414,191.125 281.012844111554,191.125 272.7423860288444,205.15" stroke="none" /><polygon fill="#f1cd3e" points="281.012844111554,191.125 283.66843605069624,205.15 272.7423860288444,205.15" stroke="none" /><polygon fill="#f1cd3c" points="281.012844111554,191.125 284.6034800120898,191.125 283.66843605069624,205.15" stroke="none" /><polygon fill="#efca38" points="284.6034800120898,191.125 290.2092760681777,205.15 283.66843605069624,205.15" stroke="none" /><polygon fill="#efc937" points="284.6034800120898,191.125 294.95317950267923,191.125 290.2092760681777,205.15" stroke="none" /><polygon fill="#ecc530" points="294.95317950267923,191.125 304.7042000874073,205.15 290.2092760681777,205.15" stroke="none" /><polygon fill="#f5d245" points="253.0,205.15 237.2576139711556,205.15 253.0,218.35" stroke="none" /><polygon fill="#f2cf3f" points="237.2576139711556,205.15 234.65577435265737,218.35 253.0,218.35" stroke="none" /><polygon fill="#f0cb3b" points="237.2576139711556,205.15 227.33156394930378,205.15 234.65577435265737,218.35" stroke="none" /><polygon fill="#edc735" points="227.33156394930378,205.15 219.24348219557965,218.35 234.65577435265737,218.35" stroke="none" /><polygon fill="#edc533" points="227.33156394930378,205.15 220.79072393182233,205.15 219.24348219557965,218.35" stroke="none" /><polygon fill="#e9c22e" points="220.79072393182233,205.15 208.91364846991746,218.35 219.24348219557965,218.35" stroke="none" /><polygon fill="#e9c02c" points="220.79072393182233,205.15 207.2957999125927,205.15 208.91364846991746,218.35" stroke="none" /><polygon fill="#e5bb26" points="207.2957999125927,205.15 196.35083137168905,218.35 208.91364846991746,218.35" stroke="none" /><polygon fill="#ebc431" points="207.2957999125927,205.15 254,205.15 196.35083137168905,218.35" stroke="none" /><polygon fill="#f0cc3b" points="254,205.15 256,218.35 196.35083137168905,218.35" stroke="none" /><polygon fill="#f8d74b" points="254,205.15 258.0,205.15 256,218.35" stroke="none" /><polygon fill="#f7d648" points="258.0,205.15 253.0,218.35 256,218.35" stroke="none" /><polygon fill="#f6d447" points="258.0,205.15 272.7423860288444,205.15 253.0,218.35" stroke="none" /><polygon fill="#f3d141" points="272.7423860288444,205.15 275.3442256473426,218.35 253.0,218.35" stroke="none" /><polygon fill="#f1cc3c" points="272.7423860288444,205.15 283.66843605069624,205.15 275.3442256473426,218.35" stroke="none" /><polygon fill="#edc735" points="283.66843605069624,205.15 294.75651780442035,218.35 275.3442256473426,218.35" stroke="none" /><polygon fill="#edc533" points="283.66843605069624,205.15 290.2092760681777,205.15 294.75651780442035,218.35" stroke="none" /><polygon fill="#e9c12e" points="290.2092760681777,205.15 303.08635153008254,218.35 294.75651780442035,218.35" stroke="none" /><polygon fill="#e9c02d" points="290.2092760681777,205.15 304.7042000874073,205.15 303.08635153008254,218.35" stroke="none" /><polygon fill="#e5bb26" points="304.7042000874073,205.15 314.649168628311,218.35 303.08635153008254,218.35" stroke="none" /><polygon fill="#f3d03f" points="253.0,218.35 234.65577435265737,218.35 255.0,229.9" stroke="none" /><polygon fill="#f1cb3b" points="234.65577435265737,218.35 235.4221205410687,229.9 255.0,229.9" stroke="none" /><polygon fill="#ecc634" points="234.65577435265737,218.35 219.24348219557965,218.35 235.4221205410687,229.9" stroke="none" /><polygon fill="#ebc332" points="219.24348219557965,218.35 225.34796943581767,229.9 235.4221205410687,229.9" stroke="none" /><polygon fill="#e8c02d" points="219.24348219557965,218.35 208.91364846991746,218.35 225.34796943581767,229.9" stroke="none" /><polygon fill="#e7bd2c" points="208.91364846991746,218.35 215.08864855161687,229.9 225.34796943581767,229.9" stroke="none" /><polygon fill="#e4ba26" points="208.91364846991746,218.35 196.35083137168905,218.35 215.08864855161687,229.9" stroke="none" /><polygon fill="#e1b624" points="196.35083137168905,218.35 197.703395578996,229.9 215.08864855161687,229.9" stroke="none" /><polygon fill="#e7bf2c" points="196.35083137168905,218.35 256,218.35 197.703395578996,229.9" stroke="none" /><polygon fill="#eec837" points="256,218.35 254,229.9 197.703395578996,229.9" stroke="none" /><polygon fill="#f6d443" points="256,218.35 253.0,218.35 254,229.9" stroke="none" /><polygon fill="#f6d343" points="253.0,218.35 259.0,229.9 254,229.9" stroke="none" /><polygon fill="#f4d141" points="253.0,218.35 275.3442256473426,218.35 259.0,229.9" stroke="none" /><polygon fill="#f1cc3c" points="275.3442256473426,218.35 271.5778794589313,229.9 259.0,229.9" stroke="none" /><polygon fill="#edc735" points="275.3442256473426,218.35 294.75651780442035,218.35 271.5778794589313,229.9" stroke="none" /><polygon fill="#ebc332" points="294.75651780442035,218.35 288.6520305641823,229.9 271.5778794589313,229.9" stroke="none" /><polygon fill="#e7bf2c" points="294.75651780442035,218.35 303.08635153008254,218.35 288.6520305641823,229.9" stroke="none" /><polygon fill="#e6bc2a" points="303.08635153008254,218.35 301.91135144838313,229.9 288.6520305641823,229.9" stroke="none" /><polygon fill="#e3b925" points="303.08635153008254,218.35 314.649168628311,218.35 301.91135144838313,229.9" stroke="none" /><polygon fill="#e1b523" points="314.649168628311,218.35 312.29660442100396,229.9 301.91135144838313,229.9" stroke="none" /><polygon fill="#f3cf3c" points="255.0,229.9 235.4221205410687,229.9 257.0,243.1" stroke="none" /><polygon fill="#f0cb37" points="235.4221205410687,229.9 240.60372661756168,243.1 257.0,243.1" stroke="none" /><polygon fill="#ecc633" points="235.4221205410687,229.9 225.34796943581767,229.9 240.60372661756168,243.1" stroke="none" /><polygon fill="#ebc331" points="225.34796943581767,229.9 231.21261041874476,243.1 240.60372661756168,243.1" stroke="none" /><polygon fill="#e8c02e" points="225.34796943581767,229.9 215.08864855161687,229.9 231.21261041874476,243.1" stroke="none" /><polygon fill="#e8bf2d" points="215.08864855161687,229.9 229.69971745969121,243.1 231.21261041874476,243.1" stroke="none" /><polygon fill="#e3ba29" points="215.08864855161687,229.9 197.703395578996,229.9 229.69971745969121,243.1" stroke="none" /><polygon fill="#e3b928" points="197.703395578996,229.9 220.43553520473233,243.1 229.69971745969121,243.1" stroke="none" /><polygon fill="#e8c02e" points="197.703395578996,229.9 254,229.9 220.43553520473233,243.1" stroke="none" /><polygon fill="#f0ca37" points="254,229.9 258,243.1 220.43553520473233,243.1" stroke="none" /><polygon fill="#f6d23f" points="254,229.9 259.0,229.9 258,243.1" stroke="none" /><polygon fill="#f5d13d" points="259.0,229.9 255.0,243.1 258,243.1" stroke="none" /><polygon fill="#f4cf3c" points="259.0,229.9 271.5778794589313,229.9 255.0,243.1" stroke="none" /><polygon fill="#f2cd39" points="271.5778794589313,229.9 266.3962733824383,243.1 255.0,243.1" stroke="none" /><polygon fill="#eec735" points="271.5778794589313,229.9 288.6520305641823,229.9 266.3962733824383,243.1" stroke="none" /><polygon fill="#ecc432" points="288.6520305641823,229.9 278.78738958125524,243.1 266.3962733824383,243.1" stroke="none" /><polygon fill="#e7bf2d" points="288.6520305641823,229.9 301.91135144838313,229.9 278.78738958125524,243.1" stroke="none" /><polygon fill="#e6bd2c" points="301.91135144838313,229.9 288.3002825403088,243.1 278.78738958125524,243.1" stroke="none" /><polygon fill="#e2b827" points="301.91135144838313,229.9 312.29660442100396,229.9 288.3002825403088,243.1" stroke="none" /><polygon fill="#e2b827" points="312.29660442100396,229.9 294.56446479526767,243.1 288.3002825403088,243.1" stroke="none" /><polygon fill="#f3cd37" points="257.0,243.1 240.60372661756168,243.1 255.0,257.125" stroke="none" /><polygon fill="#f0c932" points="240.60372661756168,243.1 244.44451756786594,257.125 255.0,257.125" stroke="none" /><polygon fill="#edc631" points="240.60372661756168,243.1 231.21261041874476,243.1 244.44451756786594,257.125" stroke="none" /><polygon fill="#ecc42f" points="231.21261041874476,243.1 239.96309148291593,257.125 244.44451756786594,257.125" stroke="none" /><polygon fill="#eac22f" points="231.21261041874476,243.1 229.69971745969121,243.1 239.96309148291593,257.125" stroke="none" /><polygon fill="#eac22d" points="229.69971745969121,243.1 234.7779506149559,257.125 239.96309148291593,257.125" stroke="none" /><polygon fill="#e7bf2c" points="229.69971745969121,243.1 220.43553520473233,243.1 234.7779506149559,257.125" stroke="none" /><polygon fill="#e6bd2a" points="220.43553520473233,243.1 228.07429566019988,257.125 234.7779506149559,257.125" stroke="none" /><polygon fill="#ebc330" points="220.43553520473233,243.1 258,243.1 228.07429566019988,257.125" stroke="none" /><polygon fill="#f0ca33" points="258,243.1 258,257.125 228.07429566019988,257.125" stroke="none" /><polygon fill="#f5d039" points="258,243.1 255.0,243.1 258,257.125" stroke="none" /><polygon fill="#f4cf36" points="255.0,243.1 257.0,257.125 258,257.125" stroke="none" /><polygon fill="#f4ce38" points="255.0,243.1 266.3962733824383,243.1 257.0,257.125" stroke="none" /><polygon fill="#f1ca33" points="266.3962733824383,243.1 267.55548243213406,257.125 257.0,257.125" stroke="none" /><polygon fill="#eec732" points="266.3962733824383,243.1 278.78738958125524,243.1 267.55548243213406,257.125" stroke="none" /><polygon fill="#ecc52f" points="278.78738958125524,243.1 272.0369085170841,257.125 267.55548243213406,257.125" stroke="none" /><polygon fill="#e9c12e" points="278.78738958125524,243.1 288.3002825403088,243.1 272.0369085170841,257.125" stroke="none" /><polygon fill="#e9c12d" points="288.3002825403088,243.1 275.2220493850441,257.125 272.0369085170841,257.125" stroke="none" /><polygon fill="#e6bd2b" points="288.3002825403088,243.1 294.56446479526767,243.1 275.2220493850441,257.125" stroke="none" /><polygon fill="#e7be2b" points="294.56446479526767,243.1 278.9257043398001,257.125 275.2220493850441,257.125" stroke="none" /><polygon fill="#f2ca31" points="255.0,257.125 244.44451756786594,257.125 255.0,271.15" stroke="none" /><polygon fill="#f0c82e" points="244.44451756786594,257.125 249.33960337742386,271.15 255.0,271.15" stroke="none" /><polygon fill="#eec62e" points="244.44451756786594,257.125 239.96309148291593,257.125 249.33960337742386,271.15" stroke="none" /><polygon fill="#edc42c" points="239.96309148291593,257.125 243.0514241178965,271.15 249.33960337742386,271.15" stroke="none" /><polygon fill="#ebc22c" points="239.96309148291593,257.125 234.7779506149559,257.125 243.0514241178965,271.15" stroke="none" /><polygon fill="#eac12b" points="234.7779506149559,257.125 241.62088071027458,271.15 243.0514241178965,271.15" stroke="none" /><polygon fill="#e9bf2a" points="234.7779506149559,257.125 228.07429566019988,257.125 241.62088071027458,271.15" stroke="none" /><polygon fill="#e9bf2a" points="228.07429566019988,257.125 240.8472829618905,271.15 241.62088071027458,271.15" stroke="none" /><polygon fill="#edc42d" points="228.07429566019988,257.125 258,257.125 240.8472829618905,271.15" stroke="none" /><polygon fill="#f1c92f" points="258,257.125 254,271.15 240.8472829618905,271.15" stroke="none" /><polygon fill="#f4cd32" points="258,257.125 257.0,257.125 254,271.15" stroke="none" /><polygon fill="#f3cc30" points="257.0,257.125 254.0,271.15 254,271.15" stroke="none" /><polygon fill="#f3cb31" points="257.0,257.125 267.55548243213406,257.125 254.0,271.15" stroke="none" /><polygon fill="#f1c92f" points="267.55548243213406,257.125 259.6603966225761,271.15 254.0,271.15" stroke="none" /><polygon fill="#efc62f" points="267.55548243213406,257.125 272.0369085170841,257.125 259.6603966225761,271.15" stroke="none" /><polygon fill="#eec62d" points="272.0369085170841,257.125 262.9485758821035,271.15 259.6603966225761,271.15" stroke="none" /><polygon fill="#edc42d" points="272.0369085170841,257.125 275.2220493850441,257.125 262.9485758821035,271.15" stroke="none" /><polygon fill="#ecc32c" points="275.2220493850441,257.125 269.3791192897254,271.15 262.9485758821035,271.15" stroke="none" /><polygon fill="#eac12b" points="275.2220493850441,257.125 278.9257043398001,257.125 269.3791192897254,271.15" stroke="none" /><polygon fill="#eac02a" points="278.9257043398001,257.125 272.15271703810953,271.15 269.3791192897254,271.15" stroke="none" /><polygon fill="#f3ca2b" points="255.0,271.15 249.33960337742386,271.15 259.0,286.0" stroke="none" /><polygon fill="#f1c82a" points="249.33960337742386,271.15 247.02204216341894,286.0 259.0,286.0" stroke="none" /><polygon fill="#eec529" points="249.33960337742386,271.15 243.0514241178965,271.15 247.02204216341894,286.0" stroke="none" /><polygon fill="#edc328" points="243.0514241178965,271.15 244.49328622661514,286.0 247.02204216341894,286.0" stroke="none" /><polygon fill="#ebc228" points="243.0514241178965,271.15 241.62088071027458,271.15 244.49328622661514,286.0" stroke="none" /><polygon fill="#ecc328" points="241.62088071027458,271.15 244.87028147717209,286.0 244.49328622661514,286.0" stroke="none" /><polygon fill="#ebc228" points="241.62088071027458,271.15 240.8472829618905,271.15 244.87028147717209,286.0" stroke="none" /><polygon fill="#eac127" points="240.8472829618905,271.15 237.88497625278472,286.0 244.87028147717209,286.0" stroke="none" /><polygon fill="#ecc328" points="240.8472829618905,271.15 254,271.15 237.88497625278472,286.0" stroke="none" /><polygon fill="#efc629" points="254,271.15 253,286.0 237.88497625278472,286.0" stroke="none" /><polygon fill="#f2ca2b" points="254,271.15 254.0,271.15 253,286.0" stroke="none" /><polygon fill="#f2ca2b" points="254.0,271.15 254.0,286.0 253,286.0" stroke="none" /><polygon fill="#f3cb2b" points="254.0,271.15 259.6603966225761,271.15 254.0,286.0" stroke="none" /><polygon fill="#f2ca2b" points="259.6603966225761,271.15 260.977957836581,286.0 254.0,286.0" stroke="none" /><polygon fill="#f0c82a" points="259.6603966225761,271.15 262.9485758821035,271.15 260.977957836581,286.0" stroke="none" /><polygon fill="#efc72a" points="262.9485758821035,271.15 263.5067137733849,286.0 260.977957836581,286.0" stroke="none" /><polygon fill="#eec529" points="262.9485758821035,271.15 269.3791192897254,271.15 263.5067137733849,286.0" stroke="none" /><polygon fill="#ecc328" points="269.3791192897254,271.15 272.12971852282794,286.0 263.5067137733849,286.0" stroke="none" /><polygon fill="#eac027" points="269.3791192897254,271.15 272.15271703810953,271.15 272.12971852282794,286.0" stroke="none" /><polygon fill="#e9c027" points="272.15271703810953,271.15 273.1150237472153,286.0 272.12971852282794,286.0" stroke="none" /><polygon fill="#f2ca2b" points="259.0,286.0 247.02204216341894,286.0 255.0,302.5" stroke="none" /><polygon fill="#f0c72a" points="247.02204216341894,286.0 249.466,302.5 255.0,302.5" stroke="none" /><polygon fill="#eec529" points="247.02204216341894,286.0 244.49328622661514,286.0 249.466,302.5" stroke="none" /><polygon fill="#edc429" points="244.49328622661514,286.0 243.516,302.5 249.466,302.5" stroke="none" /><polygon fill="#ecc328" points="244.49328622661514,286.0 244.87028147717209,286.0 243.516,302.5" stroke="none" /><polygon fill="#ebc228" points="244.87028147717209,286.0 239.556,302.5 243.516,302.5" stroke="none" /><polygon fill="#eac027" points="244.87028147717209,286.0 237.88497625278472,286.0 239.556,302.5" stroke="none" /><polygon fill="#e9bf26" points="237.88497625278472,286.0 237.2,302.5 239.556,302.5" stroke="none" /><polygon fill="#ebc228" points="237.88497625278472,286.0 253,286.0 237.2,302.5" stroke="none" /><polygon fill="#efc629" points="253,286.0 257,302.5 237.2,302.5" stroke="none" /><polygon fill="#f3cb2b" points="253,286.0 254.0,286.0 257,302.5" stroke="none" /><polygon fill="#f4cc2c" points="254.0,286.0 257.0,302.5 257,302.5" stroke="none" /><polygon fill="#f3cb2b" points="254.0,286.0 260.977957836581,286.0 257.0,302.5" stroke="none" /><polygon fill="#f1c82a" points="260.977957836581,286.0 263.534,302.5 257.0,302.5" stroke="none" /><polygon fill="#efc72a" points="260.977957836581,286.0 263.5067137733849,286.0 263.534,302.5" stroke="none" /><polygon fill="#eec529" points="263.5067137733849,286.0 268.484,302.5 263.534,302.5" stroke="none" /><polygon fill="#ecc328" points="263.5067137733849,286.0 272.12971852282794,286.0 268.484,302.5" stroke="none" /><polygon fill="#ebc127" points="272.12971852282794,286.0 270.444,302.5 268.484,302.5" stroke="none" /><polygon fill="#eac027" points="272.12971852282794,286.0 273.1150237472153,286.0 270.444,302.5" stroke="none" /><polygon fill="#e9bf27" points="273.1150237472153,286.0 274.8,302.5 270.444,302.5" stroke="none" /><path d="M 240 209 A 9 20 0 0 0 240 229 Z" fill="#f4cc2c" stroke="#d2a41c" stroke-width="1" /><path d="M 272 209 A 9 20 0 0 1 272 229 Z" fill="#f4cc2c" stroke="#d2a41c" stroke-width="1" /><path d="M 216 211 Q 235 200 254 215 Q 235 229 216 211" fill="#e8e0d8" stroke="#3a2a1a" stroke-width="1.5" /><path d="M 232 215 A 4 4 0 0 0 240 215 Z" fill="#3a2a1a" stroke="none" /><circle cx="237" cy="212" fill="white" r="2" stroke="none" /><path d="M 258 213 Q 277 202 296 217 Q 277 231 258 213" fill="#e8e0d8" stroke="#3a2a1a" stroke-width="1.5" /><path d="M 274 217 A 4 4 0 0 0 282 217 Z" fill="#3a2a1a" stroke="none" /><circle cx="279" cy="214" fill="white" r="2" stroke="none" /><line stroke="#3a2a1a" stroke-width="3" x1="224" x2="246" y1="206" y2="206" /><line stroke="#3a2a1a" stroke-width="3" x1="264" x2="290" y1="207" y2="207" /><path d="M 219 225 A 9 6 0 0 0 237 225 Z" fill="#e88060" fill-opacity="0.28360709972814874" stroke="none" /><path d="M 277 226 A 8 5 0 0 0 293 226 Z" fill="#e88060" fill-opacity="0.21574842116783416" stroke="none" /><circle cx="256" cy="227" fill="#d2a41c" r="3" stroke="none" /><path d="M 239 239 Q 256 248 273 239" fill="none" stroke="#c06050" stroke-width="3" /><path d="M 237 237 Q 256 250 275 237" fill="none" stroke="#a04030" stroke-width="1.5" /><path d="M 237 239 Q 256 245 275 239" fill="none" stroke="#f0a0a0" stroke-width="1" /><ellipse cx="256" cy="183" fill="white" fill-opacity="0.10" rx="4" ry="3" stroke="none" /><ellipse cx="240" cy="212" fill="white" fill-opacity="0.10" rx="4" ry="3" stroke="none" /><ellipse cx="272" cy="212" fill="white" fill-opacity="0.10" rx="4" ry="3" stroke="none" /><polygon fill="#b69018" points="237,298.5 275,298.5 275,333.5 237,333.5" stroke="none" /></svg>