<?xml version="1.0" encoding="utf-8" ?>
<svg baseProfile="full" height="512" version="1.1" width="512" xmlns="http://www.w3.org/2000/svg" xmlns:ev="http://www.w3.org/2001/xml-events" xmlns:xlink="http://www.w3.org/1999/xlink"><defs /><polygon fill="#fdde65" points="255.0,156.0 241.55599999999998,156.0 259.0,170.07999999999998" stroke="none" /><polygon fill="#fcdc60" points="241.55599999999998,156.0 242.6482173632402,170.07999999999998 259.0,170.07999999999998" stroke="none" /><polygon fill="#fad854" points="241.55599999999998,156.0 227.856,156.0 242.6482173632402,170.07999999999998" stroke="none" /><polygon fill="#f9d64e" points="227.856,156.0 226.01807900205856,170.07999999999998 242.6482173632402,170.07999999999998" stroke="none" /><polygon fill="#f8d345" points="227.856,156.0 220.49599999999998,156.0 226.01807900205856,170.07999999999998" stroke="none" /><polygon fill="#f7d243" points="220.49599999999998,156.0 220.71396831311324,170.07999999999998 226.01807900205856,170.07999999999998" stroke="none" /><polygon fill="#f6cf3c" points="220.49599999999998,156.0 208.2,156.0 220.71396831311324,170.07999999999998" stroke="none" /><polygon fill="#f6ce39" points="208.2,156.0 212.47944655527337,170.07999999999998 220.71396831311324,170.07999999999998" stroke="none" /><polygon fill="#f8d347" points="208.2,156.0 257,156.0 212.47944655527337,170.07999999999998" stroke="none" /><polygon fill="#fbd958" points="257,156.0 253,170.07999999999998 212.47944655527337,170.07999999999998" stroke="none" /><polygon fill="#fddf68" points="257,156.0 255.0,156.0 253,170.07999999999998" stroke="none" /><polygon fill="#fddf69" points="255.0,156.0 259.0,170.07999999999998 253,170.07999999999998" stroke="none" /><polygon fill="#fcdd63" points="255.0,156.0 271.444,156.0 259.0,170.07999999999998" stroke="none" /><polygon fill="#fbdb5c" points="271.444,156.0 272.35178263675976,170.07999999999998 259.0,170.07999999999998" stroke="none" /><polygon fill="#fad753" points="271.444,156.0 283.144,156.0 272.35178263675976,170.07999999999998" stroke="none" /><polygon fill="#f9d54d" points="283.144,156.0 285.9819209979414,170.07999999999998 272.35178263675976,170.07999999999998" stroke="none" /><polygon fill="#f8d345" points="283.144,156.0 292.504,156.0 285.9819209979414,170.07999999999998" stroke="none" /><polygon fill="#f7d142" points="292.504,156.0 292.28603168688676,170.07999999999998 285.9819209979414,170.07999999999998" stroke="none" /><polygon fill="#f6cf3c" points="292.504,156.0 302.8,156.0 292.28603168688676,170.07999999999998" stroke="none" /><polygon fill="#f6ce38" points="302.8,156.0 304.5205534447266,170.07999999999998 292.28603168688676,170.07999999999998" stroke="none" /><polygon fill="#fdde67" points="259.0,170.07999999999998 242.6482173632402,170.07999999999998 259.0,184.8" stroke="none" /><polygon fill="#fbdb5d" points="242.6482173632402,170.07999999999998 240.55552165607656,184.8 259.0,184.8" stroke="none" /><polygon fill="#fad753" points="242.6482173632402,170.07999999999998 226.01807900205856,170.07999999999998 240.55552165607656,184.8" stroke="none" /><polygon fill="#f8d54e" points="226.01807900205856,170.07999999999998 234.3703107894679,184.8 240.55552165607656,184.8" stroke="none" /><polygon fill="#f8d348" points="226.01807900205856,170.07999999999998 220.71396831311324,170.07999999999998 234.3703107894679,184.8" stroke="none" /><polygon fill="#f6d145" points="220.71396831311324,170.07999999999998 223.222142096181,184.8 234.3703107894679,184.8" stroke="none" /><polygon fill="#f7d03f" points="220.71396831311324,170.07999999999998 212.47944655527337,170.07999999999998 223.222142096181,184.8" stroke="none" /><polygon fill="#f4cd3b" points="212.47944655527337,170.07999999999998 215.25915653356537,184.8 223.222142096181,184.8" stroke="none" /><polygon fill="#f8d348" points="212.47944655527337,170.07999999999998 253,170.07999999999998 215.25915653356537,184.8" stroke="none" /><polygon fill="#f9d856" points="253,170.07999999999998 254,184.8 215.25915653356537,184.8" stroke="none" /><polygon fill="#fddf69" points="253,170.07999999999998 259.0,170.07999999999998 254,184.8" stroke="none" /><polygon fill="#fcde65" points="259.0,170.07999999999998 259.0,184.8 254,184.8" stroke="none" /><polygon fill="#fcdc61" points="259.0,170.07999999999998 272.35178263675976,170.07999999999998 259.0,184.8" stroke="none" /><polygon fill="#fada5b" points="272.35178263675976,170.07999999999998 267.44447834392344,184.8 259.0,184.8" stroke="none" /><polygon fill="#fad753" points="272.35178263675976,170.07999999999998 285.9819209979414,170.07999999999998 267.44447834392344,184.8" stroke="none" /><polygon fill="#f8d54e" points="285.9819209979414,170.07999999999998 281.6296892105321,184.8 267.44447834392344,184.8" stroke="none" /><polygon fill="#f8d346" points="285.9819209979414,170.07999999999998 292.28603168688676,170.07999999999998 281.6296892105321,184.8" stroke="none" /><polygon fill="#f6d043" points="292.28603168688676,170.07999999999998 290.77785790381904,184.8 281.6296892105321,184.8" stroke="none" /><polygon fill="#f6cf3c" points="292.28603168688676,170.07999999999998 304.5205534447266,170.07999999999998 290.77785790381904,184.8" stroke="none" /><polygon fill="#f4cd39" points="304.5205534447266,170.07999999999998 294.7408434664346,184.8 290.77785790381904,184.8" stroke="none" /><polygon fill="#fada5d" points="259.0,184.8 240.55552165607656,184.8 256.0,197.6" stroke="none" /><polygon fill="#f8d654" points="240.55552165607656,184.8 239.12186406624215,197.6 256.0,197.6" stroke="none" /><polygon fill="#f7d44f" points="240.55552165607656,184.8 234.3703107894679,184.8 239.12186406624215,197.6" stroke="none" /><polygon fill="#f6d14b" points="234.3703107894679,184.8 234.60812472248622,197.6 239.12186406624215,197.6" stroke="none" /><polygon fill="#f5d047" points="234.3703107894679,184.8 223.222142096181,184.8 234.60812472248622,197.6" stroke="none" /><polygon fill="#f3cd42" points="223.222142096181,184.8 224.19713324748147,197.6 234.60812472248622,197.6" stroke="none" /><polygon fill="#f3cb3d" points="223.222142096181,184.8 215.25915653356537,184.8 224.19713324748147,197.6" stroke="none" /><polygon fill="#f0c839" points="215.25915653356537,184.8 213.94504262497625,197.6 224.19713324748147,197.6" stroke="none" /><polygon fill="#f4cf44" points="215.25915653356537,184.8 254,184.8 213.94504262497625,197.6" stroke="none" /><polygon fill="#f7d44f" points="254,184.8 254,197.6 213.94504262497625,197.6" stroke="none" /><polygon fill="#fbdc61" points="254,184.8 259.0,184.8 254,197.6" stroke="none" /><polygon fill="#fbdb5d" points="259.0,184.8 259.0,197.6 254,197.6" stroke="none" /><polygon fill="#fada5b" points="259.0,184.8 267.44447834392344,184.8 259.0,197.6" stroke="none" /><polygon fill="#f9d756" points="267.44447834392344,184.8 266.87813593375785,197.6 259.0,197.6" stroke="none" /><polygon fill="#f7d551" points="267.44447834392344,184.8 281.6296892105321,184.8 266.87813593375785,197.6" stroke="none" /><polygon fill="#f6d24b" points="281.6296892105321,184.8 277.39187527751375,197.6 266.87813593375785,197.6" stroke="none" /><polygon fill="#f5cf45" points="281.6296892105321,184.8 290.77785790381904,184.8 277.39187527751375,197.6" stroke="none" /><polygon fill="#f3cc41" points="290.77785790381904,184.8 289.8028667525185,197.6 277.39187527751375,197.6" stroke="none" /><polygon fill="#f2cb3c" points="290.77785790381904,184.8 294.7408434664346,184.8 289.8028667525185,197.6" stroke="none" /><polygon fill="#f0c838" points="294.7408434664346,184.8 300.0549573750237,197.6 289.8028667525185,197.6" stroke="none" /><polygon fill="#f9d756" points="256.0,197.6 239.12186406624215,197.6 258.0,208.48" stroke="none" /><polygon fill="#f7d450" points="239.12186406624215,197.6 243.9890162685799,208.48 258.0,208.48" stroke="none" /><polygon fill="#f5d04b" points="239.12186406624215,197.6 234.60812472248622,197.6 243.9890162685799,208.48" stroke="none" /><polygon fill="#f3ce47" points="234.60812472248622,197.6 230.37463465386767,208.48 243.9890162685799,208.48" stroke="none" /><polygon fill="#f1cb42" points="234.60812472248622,197.6 224.19713324748147,197.6 230.37463465386767,208.48" stroke="none" /><polygon fill="#f0c83e" points="224.19713324748147,197.6 224.88312936209792,208.48 230.37463465386767,208.48" stroke="none" /><polygon fill="#eec63a" points="224.19713324748147,197.6 213.94504262497625,197.6 224.88312936209792,208.48" stroke="none" /><polygon fill="#ecc335" points="213.94504262497625,197.6 211.54247354115117,208.48 224.88312936209792,208.48" stroke="none" /><polygon fill="#f0c93f" points="213.94504262497625,197.6 254,197.6 211.54247354115117,208.48" stroke="none" /><polygon fill="#f5d14b" points="254,197.6 257,208.48 211.54247354115117,208.48" stroke="none" /><polygon fill="#fad95a" points="254,197.6 259.0,197.6 257,208.48" stroke="none" /><polygon fill="#fad958" points="259.0,197.6 253.0,208.48 257,208.48" stroke="none" /><polygon fill="#f9d757" points="259.0,197.6 266.87813593375785,197.6 253.0,208.48" stroke="none" /><polygon fill="#f8d552" points="266.87813593375785,197.6 269.01098373142014,208.48 253.0,208.48" stroke="none" /><polygon fill="#f5d14d" points="266.87813593375785,197.6 277.39187527751375,197.6 269.01098373142014,208.48" stroke="none" /><polygon fill="#f3ce46" points="277.39187527751375,197.6 282.6253653461323,208.48 269.01098373142014,208.48" stroke="none" /><polygon fill="#f1ca41" points="277.39187527751375,197.6 289.8028667525185,197.6 282.6253653461323,208.48" stroke="none" /><polygon fill="#efc73c" points="289.8028667525185,197.6 292.1168706379021,208.48 282.6253653461323,208.48" stroke="none" /><polygon fill="#edc437" points="289.8028667525185,197.6 300.0549573750237,197.6 292.1168706379021,208.48" stroke="none" /><polygon fill="#ecc234" points="300.0549573750237,197.6 296.45752645884886,208.48 292.1168706379021,208.48" stroke="none" /><polygon fill="#f8d552" points="258.0,208.48 243.9890162685799,208.48 256.0,218.72" stroke="none" /><polygon fill="#f5d14b" points="243.9890162685799,208.48 239.65515031635226,218.72 256.0,218.72" stroke="none" /><polygon fill="#f2cd46" points="243.9890162685799,208.48 230.37463465386767,208.48 239.65515031635226,218.72" stroke="none" /><polygon fill="#f0c940" points="230.37463465386767,208.48 230.78783994995248,218.72 239.65515031635226,218.72" stroke="none" /><polygon fill="#eec73e" points="230.37463465386767,208.48 224.88312936209792,208.48 230.78783994995248,218.72" stroke="none" /><polygon fill="#ecc43a" points="224.88312936209792,208.48 222.09399165683263,218.72 230.78783994995248,218.72" stroke="none" /><polygon fill="#eac236" points="224.88312936209792,208.48 211.54247354115117,208.48 222.09399165683263,218.72" stroke="none" /><polygon fill="#e8bd32" points="211.54247354115117,208.48 213.53075853440083,218.72 222.09399165683263,218.72" stroke="none" /><polygon fill="#eec63d" points="211.54247354115117,208.48 257,208.48 213.53075853440083,218.72" stroke="none" /><polygon fill="#f3ce47" points="257,208.48 256,218.72 213.53075853440083,218.72" stroke="none" /><polygon fill="#f9d754" points="257,208.48 253.0,208.48 256,218.72" stroke="none" /><polygon fill="#f9d652" points="253.0,208.48 258.0,218.72 256,218.72" stroke="none" /><polygon fill="#f8d551" points="253.0,208.48 269.01098373142014,208.48 258.0,218.72" stroke="none" /><polygon fill="#f5d04b" points="269.01098373142014,208.48 270.34484968364774,218.72 258.0,218.72" stroke="none" /><polygon fill="#f2cd46" points="269.01098373142014,208.48 282.6253653461323,208.48 270.34484968364774,218.72" stroke="none" /><polygon fill="#f0c840" points="282.6253653461323,208.48 283.21216005004754,218.72 270.34484968364774,218.72" stroke="none" /><polygon fill="#edc63c" points="282.6253653461323,208.48 292.1168706379021,208.48 283.21216005004754,218.72" stroke="none" /><polygon fill="#ebc238" points="292.1168706379021,208.48 289.90600834316734,218.72 283.21216005004754,218.72" stroke="none" /><polygon fill="#eac136" points="292.1168706379021,208.48 296.45752645884886,208.48 289.90600834316734,218.72" stroke="none" /><polygon fill="#e8be33" points="296.45752645884886,208.48 298.46924146559917,218.72 289.90600834316734,218.72" stroke="none" /><polygon fill="#f6d24b" points="256.0,218.72 239.65515031635226,218.72 254.0,227.68" stroke="none" /><polygon fill="#f3ce45" points="239.65515031635226,218.72 240.49348212878004,227.68 254.0,227.68" stroke="none" /><polygon fill="#f0c941" points="239.65515031635226,218.72 230.78783994995248,218.72 240.49348212878004,227.68" stroke="none" /><polygon fill="#eec73e" points="230.78783994995248,218.72 231.26127162028007,227.68 240.49348212878004,227.68" stroke="none" /><polygon fill="#ecc33a" points="230.78783994995248,218.72 222.09399165683263,218.72 231.26127162028007,227.68" stroke="none" /><polygon fill="#eac238" points="222.09399165683263,218.72 226.07550321348012,227.68 231.26127162028007,227.68" stroke="none" /><polygon fill="#e8bf35" points="222.09399165683263,218.72 213.53075853440083,218.72 226.07550321348012,227.68" stroke="none" /><polygon fill="#e6bc32" points="213.53075853440083,218.72 214.07115796600016,227.68 226.07550321348012,227.68" stroke="none" /><polygon fill="#ecc33a" points="213.53075853440083,218.72 256,218.72 214.07115796600016,227.68" stroke="none" /><polygon fill="#f2cd44" points="256,218.72 259,227.68 214.07115796600016,227.68" stroke="none" /><polygon fill="#f8d44e" points="256,218.72 258.0,218.72 259,227.68" stroke="none" /><polygon fill="#f8d54d" points="258.0,218.72 254.0,227.68 259,227.68" stroke="none" /><polygon fill="#f6d24c" points="258.0,218.72 270.34484968364774,218.72 254.0,227.68" stroke="none" /><polygon fill="#f4d048" points="270.34484968364774,218.72 268.50651787121996,227.68 254.0,227.68" stroke="none" /><polygon fill="#f0ca42" points="270.34484968364774,218.72 283.21216005004754,218.72 268.50651787121996,227.68" stroke="none" /><polygon fill="#eec73e" points="283.21216005004754,218.72 280.73872837971993,227.68 268.50651787121996,227.68" stroke="none" /><polygon fill="#ebc33a" points="283.21216005004754,218.72 289.90600834316734,218.72 280.73872837971993,227.68" stroke="none" /><polygon fill="#eac137" points="289.90600834316734,218.72 289.9244967865199,227.68 280.73872837971993,227.68" stroke="none" /><polygon fill="#e8be34" points="289.90600834316734,218.72 298.46924146559917,218.72 289.9244967865199,227.68" stroke="none" /><polygon fill="#e5bb31" points="298.46924146559917,218.72 299.92884203399984,227.68 289.9244967865199,227.68" stroke="none" /><polygon fill="#f5cf46" points="254.0,227.68 240.49348212878004,227.68 256.0,237.92000000000002" stroke="none" /><polygon fill="#f1cb40" points="240.49348212878004,227.68 237.67280481559405,237.92000000000002 256.0,237.92000000000002" stroke="none" /><polygon fill="#eec63d" points="240.49348212878004,227.68 231.26127162028007,227.68 237.67280481559405,237.92000000000002" stroke="none" /><polygon fill="#ebc339" points="231.26127162028007,227.68 230.0612933122562,237.92000000000002 237.67280481559405,237.92000000000002" stroke="none" /><polygon fill="#eac138" points="231.26127162028007,227.68 226.07550321348012,227.68 230.0612933122562,237.92000000000002" stroke="none" /><polygon fill="#e6bd34" points="226.07550321348012,227.68 218.77208410958593,237.92000000000002 230.0612933122562,237.92000000000002" stroke="none" /><polygon fill="#e5ba32" points="226.07550321348012,227.68 214.07115796600016,227.68 218.77208410958593,237.92000000000002" stroke="none" /><polygon fill="#e0b42d" points="214.07115796600016,227.68 208.55395398664862,237.92000000000002 218.77208410958593,237.92000000000002" stroke="none" /><polygon fill="#e9c037" points="214.07115796600016,227.68 259,227.68 208.55395398664862,237.92000000000002" stroke="none" /><polygon fill="#f0c93f" points="259,227.68 258,237.92000000000002 208.55395398664862,237.92000000000002" stroke="none" /><polygon fill="#f8d349" points="259,227.68 254.0,227.68 258,237.92000000000002" stroke="none" /><polygon fill="#f7d347" points="254.0,227.68 257.0,237.92000000000002 258,237.92000000000002" stroke="none" /><polygon fill="#f6d147" points="254.0,227.68 268.50651787121996,227.68 257.0,237.92000000000002" stroke="none" /><polygon fill="#f2cd42" points="268.50651787121996,227.68 270.327195184406,237.92000000000002 257.0,237.92000000000002" stroke="none" /><polygon fill="#efc83e" points="268.50651787121996,227.68 280.73872837971993,227.68 270.327195184406,237.92000000000002" stroke="none" /><polygon fill="#ebc33a" points="280.73872837971993,227.68 282.9387066877438,237.92000000000002 270.327195184406,237.92000000000002" stroke="none" /><polygon fill="#e9c037" points="280.73872837971993,227.68 289.9244967865199,227.68 282.9387066877438,237.92000000000002" stroke="none" /><polygon fill="#e5bb33" points="289.9244967865199,227.68 295.22791589041407,237.92000000000002 282.9387066877438,237.92000000000002" stroke="none" /><polygon fill="#e4b830" points="289.9244967865199,227.68 299.92884203399984,227.68 295.22791589041407,237.92000000000002" stroke="none" /><polygon fill="#e0b42d" points="299.92884203399984,227.68 305.44604601335135,237.92000000000002 295.22791589041407,237.92000000000002" stroke="none" /><polygon fill="#f3cc40" points="256.0,237.92000000000002 237.67280481559405,237.92000000000002 253.0,248.8" stroke="none" /><polygon fill="#efc73b" points="237.67280481559405,237.92000000000002 240.21518773072063,248.8 253.0,248.8" stroke="none" /><polygon fill="#ebc238" points="237.67280481559405,237.92000000000002 230.0612933122562,237.92000000000002 240.21518773072063,248.8" stroke="none" /><polygon fill="#e9c036" points="230.0612933122562,237.92000000000002 232.52972389035747,248.8 240.21518773072063,248.8" stroke="none" /><polygon fill="#e6bc34" points="230.0612933122562,237.92000000000002 218.77208410958593,237.92000000000002 232.52972389035747,248.8" stroke="none" /><polygon fill="#e4b931" points="218.77208410958593,237.92000000000002 222.78135281806695,248.8 232.52972389035747,248.8" stroke="none" /><polygon fill="#e0b42e" points="218.77208410958593,237.92000000000002 208.55395398664862,237.92000000000002 222.78135281806695,248.8" stroke="none" /><polygon fill="#dfb32d" points="208.55395398664862,237.92000000000002 219.25814463854735,248.8 222.78135281806695,248.8" stroke="none" /><polygon fill="#e7bd34" points="208.55395398664862,237.92000000000002 258,237.92000000000002 219.25814463854735,248.8" stroke="none" /><polygon fill="#efc73b" points="258,237.92000000000002 253,248.8 219.25814463854735,248.8" stroke="none" /><polygon fill="#f8d244" points="258,237.92000000000002 257.0,237.92000000000002 253,248.8" stroke="none" /><polygon fill="#f6cf41" points="257.0,237.92000000000002 253.0,248.8 253,248.8" stroke="none" /><polygon fill="#f5ce41" points="257.0,237.92000000000002 270.327195184406,237.92000000000002 253.0,248.8" stroke="none" /><polygon fill="#f2cb3e" points="270.327195184406,237.92000000000002 266.78481226927937,248.8 253.0,248.8" stroke="none" /><polygon fill="#edc43a" points="270.327195184406,237.92000000000002 282.9387066877438,237.92000000000002 266.78481226927937,248.8" stroke="none" /><polygon fill="#eac137" points="282.9387066877438,237.92000000000002 278.47027610964255,248.8 266.78481226927937,248.8" stroke="none" /><polygon fill="#e6bb33" points="282.9387066877438,237.92000000000002 295.22791589041407,237.92000000000002 278.47027610964255,248.8" stroke="none" /><polygon fill="#e4b931" points="295.22791589041407,237.92000000000002 288.2186471819331,248.8 278.47027610964255,248.8" stroke="none" /><polygon fill="#dfb32d" points="295.22791589041407,237.92000000000002 305.44604601335135,237.92000000000002 288.2186471819331,248.8" stroke="none" /><polygon fill="#deb12c" points="305.44604601335135,237.92000000000002 297.7418553614526,248.8 288.2186471819331,248.8" stroke="none" /><polygon fill="#f2ca3a" points="253.0,248.8 240.21518773072063,248.8 253.0,259.68" stroke="none" /><polygon fill="#eec637" points="240.21518773072063,248.8 242.9352596179043,259.68 253.0,259.68" stroke="none" /><polygon fill="#ebc135" points="240.21518773072063,248.8 232.52972389035747,248.8 242.9352596179043,259.68" stroke="none" /><polygon fill="#e8be33" points="232.52972389035747,248.8 231.79530478298335,259.68 242.9352596179043,259.68" stroke="none" /><polygon fill="#e4ba31" points="232.52972389035747,248.8 222.78135281806695,248.8 231.79530478298335,259.68" stroke="none" /><polygon fill="#e3b72f" points="222.78135281806695,248.8 229.48334091504657,259.68 231.79530478298335,259.68" stroke="none" /><polygon fill="#e1b62f" points="222.78135281806695,248.8 219.25814463854735,248.8 229.48334091504657,259.68" stroke="none" /><polygon fill="#e0b32d" points="219.25814463854735,248.8 221.44018066031612,259.68 229.48334091504657,259.68" stroke="none" /><polygon fill="#e6bb32" points="219.25814463854735,248.8 253,248.8 221.44018066031612,259.68" stroke="none" /><polygon fill="#eec536" points="253,248.8 259,259.68 221.44018066031612,259.68" stroke="none" /><polygon fill="#f6cf3d" points="253,248.8 253.0,248.8 259,259.68" stroke="none" /><polygon fill="#f5ce3b" points="253.0,248.8 255.0,259.68 259,259.68" stroke="none" /><polygon fill="#f5ce3c" points="253.0,248.8 266.78481226927937,248.8 255.0,259.68" stroke="none" /><polygon fill="#f1c939" points="266.78481226927937,248.8 266.0647403820957,259.68 255.0,259.68" stroke="none" /><polygon fill="#edc437" points="266.78481226927937,248.8 278.47027610964255,248.8 266.0647403820957,259.68" stroke="none" /><polygon fill="#eac034" points="278.47027610964255,248.8 275.20469521701665,259.68 266.0647403820957,259.68" stroke="none" /><polygon fill="#e6bc32" points="278.47027610964255,248.8 288.2186471819331,248.8 275.20469521701665,259.68" stroke="none" /><polygon fill="#e4b930" points="288.2186471819331,248.8 281.51665908495346,259.68 275.20469521701665,259.68" stroke="none" /><polygon fill="#e0b52e" points="288.2186471819331,248.8 297.7418553614526,248.8 281.51665908495346,259.68" stroke="none" /><polygon fill="#dfb32d" points="297.7418553614526,248.8 289.5598193396839,259.68 281.51665908495346,259.68" stroke="none" /><polygon fill="#f1c835" points="253.0,259.68 242.9352596179043,259.68 253.0,271.2" stroke="none" /><polygon fill="#f0c735" points="242.9352596179043,259.68 248.22440281834054,271.2 253.0,271.2" stroke="none" /><polygon fill="#eac032" points="242.9352596179043,259.68 231.79530478298335,259.68 248.22440281834054,271.2" stroke="none" /><polygon fill="#e9bf31" points="231.79530478298335,259.68 237.0610716201137,271.2 248.22440281834054,271.2" stroke="none" /><polygon fill="#e4b92f" points="231.79530478298335,259.68 229.48334091504657,259.68 237.0610716201137,271.2" stroke="none" /><polygon fill="#e4b82f" points="229.48334091504657,259.68 228.5304066615322,271.2 237.0610716201137,271.2" stroke="none" /><polygon fill="#e0b42d" points="229.48334091504657,259.68 221.44018066031612,259.68 228.5304066615322,271.2" stroke="none" /><polygon fill="#deb22c" points="221.44018066031612,259.68 223.34667520709255,271.2 228.5304066615322,271.2" stroke="none" /><polygon fill="#e6bb30" points="221.44018066031612,259.68 259,259.68 223.34667520709255,271.2" stroke="none" /><polygon fill="#eec534" points="259,259.68 255,271.2 223.34667520709255,271.2" stroke="none" /><polygon fill="#f5cd37" points="259,259.68 255.0,259.68 255,271.2" stroke="none" /><polygon fill="#f5cd37" points="255.0,259.68 257.0,271.2 255,271.2" stroke="none" /><polygon fill="#f3cb36" points="255.0,259.68 266.0647403820957,259.68 257.0,271.2" stroke="none" /><polygon fill="#f0c735" points="266.0647403820957,259.68 265.77559718165946,271.2 257.0,271.2" stroke="none" /><polygon fill="#ecc233" points="266.0647403820957,259.68 275.20469521701665,259.68 265.77559718165946,271.2" stroke="none" /><polygon fill="#e9bf31" points="275.20469521701665,259.68 277.9389283798863,271.2 265.77559718165946,271.2" stroke="none" /><polygon fill="#e5ba2f" points="275.20469521701665,259.68 281.51665908495346,259.68 277.9389283798863,271.2" stroke="none" /><polygon fill="#e3b72e" points="281.51665908495346,259.68 284.4695933384678,271.2 277.9389283798863,271.2" stroke="none" /><polygon fill="#e0b42d" points="281.51665908495346,259.68 289.5598193396839,259.68 284.4695933384678,271.2" stroke="none" /><polygon fill="#ddb12b" points="289.5598193396839,259.68 291.6533247929074,271.2 284.4695933384678,271.2" stroke="none" /><polygon fill="#f3ca36" points="253.0,271.2 248.22440281834054,271.2 256.0,284.0" stroke="none" /><polygon fill="#f1c835" points="248.22440281834054,271.2 246.3904,284.0 256.0,284.0" stroke="none" /><polygon fill="#edc333" points="248.22440281834054,271.2 237.0610716201137,271.2 246.3904,284.0" stroke="none" /><polygon fill="#ebc132" points="237.0610716201137,271.2 240.1104,284.0 246.3904,284.0" stroke="none" /><polygon fill="#e6bb30" points="237.0610716201137,271.2 228.5304066615322,271.2 240.1104,284.0" stroke="none" /><polygon fill="#e5ba2f" points="228.5304066615322,271.2 234.28640000000001,284.0 240.1104,284.0" stroke="none" /><polygon fill="#e1b62d" points="228.5304066615322,271.2 223.34667520709255,271.2 234.28640000000001,284.0" stroke="none" /><polygon fill="#e1b52d" points="223.34667520709255,271.2 227.88,284.0 234.28640000000001,284.0" stroke="none" /><polygon fill="#e6bb30" points="223.34667520709255,271.2 255,271.2 227.88,284.0" stroke="none" /><polygon fill="#eec534" points="255,271.2 255,284.0 227.88,284.0" stroke="none" /><polygon fill="#f5cd37" points="255,271.2 257.0,271.2 255,284.0" stroke="none" /><polygon fill="#f5cd37" points="257.0,271.2 255.0,284.0 255,284.0" stroke="none" /><polygon fill="#f3cb36" points="257.0,271.2 265.77559718165946,271.2 255.0,284.0" stroke="none" /><polygon fill="#f1c835" points="265.77559718165946,271.2 266.6096,284.0 255.0,284.0" stroke="none" /><polygon fill="#ebc132" points="265.77559718165946,271.2 277.9389283798863,271.2 266.6096,284.0" stroke="none" /><polygon fill="#eabf32" points="277.9389283798863,271.2 271.8896,284.0 266.6096,284.0" stroke="none" /><polygon fill="#e5ba2f" points="277.9389283798863,271.2 284.4695933384678,271.2 271.8896,284.0" stroke="none" /><polygon fill="#e5ba2f" points="284.4695933384678,271.2 279.7136,284.0 271.8896,284.0" stroke="none" /><polygon fill="#e0b42d" points="284.4695933384678,271.2 291.6533247929074,271.2 279.7136,284.0" stroke="none" /><polygon fill="#e0b42d" points="291.6533247929074,271.2 285.12,284.0 279.7136,284.0" stroke="none" /><path d="M 244 211 A 10 16 0 0 0 244 227 Z" fill="#f6ce38" stroke="#d6a828" stroke-width="1" /><path d="M 268 211 A 10 16 0 0 1 268 227 Z" fill="#f6ce38" stroke="#d6a828" stroke-width="1" /><path d="M 225 214 Q 240 206 255 218 Q 240 229 225 214" fill="#e8e0d8" stroke="#3a2a1a" stroke-width="1.5" /><path d="M 238 217 A 3 3 0 0 0 244 217 Z" fill="#3a2a1a" stroke="none" /><circle cx="241" cy="216" fill="white" r="1" stroke="none" /><path d="M 257 212 Q 272 204 287 216 Q 272 227 257 212" fill="#e8e0d8" stroke="#3a2a1a" stroke-width="1.5" /><path d="M 270 215 A 3 3 0 0 0 276 215 Z" fill="#3a2a1a" stroke="none" /><circle cx="273" cy="214" fill="white" r="1" stroke="none" /><line stroke="#3a2a1a" stroke-width="3" x1="232" x2="248" y1="211" y2="211" /><line stroke="#3a2a1a" stroke-width="3" x1="261" x2="283" y1="210" y2="210" /><path d="M 226 223 A 6 4 0 0 0 238 223 Z" fill="#e88060" fill-opacity="0.2723351102491077" stroke="none" /><path d="M 275 225 A 5 3 0 0 0 285 225 Z" fill="#e88060" fill-opacity="0.2758723117092018" stroke="none" /><path d="M 239 236 Q 256 248 273 236" fill="#a04030" stroke="#c06050" stroke-width="2" /><line stroke="white" stroke-width="2" x1="249" x2="249" y1="237" y2="242" /><line stroke="white" stroke-width="2" x1="253" x2="253" y1="237" y2="242" /><line stroke="white" stroke-width="2" x1="257" x2="257" y1="237" y2="242" /><line stroke="white" stroke-width="2" x1="261" x2="261" y1="237" y2="242" /><path d="M 271 195 Q 275 191 279 195" fill="none" stroke="#d4c0a0" stroke-opacity="0.3" stroke-width="1" /><path d="M 285 206 Q 288 203 291 206" fill="none" stroke="#d4c0a0" stroke-opacity="0.3" stroke-width="1" /><path d="M 253 196 Q 261 188 269 196" fill="none" stroke="#d4c0a0" stroke-opacity="0.3" stroke-width="1" /><path d="M 229 190 Q 235 184 241 190" fill="none" stroke="#d4c0a0" stroke-opacity="0.3" stroke-width="1" /><path d="M 278 234 Q 283 229 288 234" fill="none" stroke="#d4c0a0" stroke-opacity="0.3" stroke-width="1" /><path d="M 265 227 Q 271 221 277 227" fill="none" stroke="#d4c0a0" stroke-opacity="0.3" stroke-width="1" /><path d="M 236 240 Q 242 234 248 240" fill="none" stroke="#d4c0a0" stroke-opacity="0.3" stroke-width="1" /><path d="M 246 193 Q 249 190 252 193" fill="none" stroke="#d4c0a0" stroke-opacity="0.3" stroke-width="1" /><path d="M 236 200 Q 242 194 248 200" fill="none" stroke="#d4c0a0" stroke-opacity="0.3" stroke-width="1" /><path d="M 253 189 Q 256 186 259 189" fill="none" stroke="#d4c0a0" stroke-opacity="0.3" stroke-width="1" /><polygon fill="#ba9420" points="246,280.0 266,280.0 266,315.0 246,315.0" stroke="none" /></svg>