<?xml version="1.0" encoding="utf-8" ?>
<svg baseProfile="full" height="512" version="1.1" width="512" xmlns="http://www.w3.org/2000/svg" xmlns:ev="http://www.w3.org/2001/xml-events" xmlns:xlink="http://www.w3.org/1999/xlink"><defs /><polygon fill="#fce069" points="257.0,133.5 234.725,133.5 259.0,152.53" stroke="none" /><polygon fill="#fbde65" points="234.725,133.5 237.71565499066253,152.53 259.0,152.53" stroke="none" /><polygon fill="#f9da5a" points="234.725,133.5 215.85,133.5 237.71565499066253,152.53" stroke="none" /><polygon fill="#f8d856" points="215.85,133.5 217.34872695328562,152.53 237.71565499066253,152.53" stroke="none" /><polygon fill="#f7d54d" points="215.85,133.5 202.35,133.5 217.34872695328562,152.53" stroke="none" /><polygon fill="#f7d44b" points="202.35,133.5 208.05518452338413,152.53 217.34872695328562,152.53" stroke="none" /><polygon fill="#f5d144" points="202.35,133.5 188.5,133.5 208.05518452338413,152.53" stroke="none" /><polygon fill="#f5d142" points="188.5,133.5 194.53228785049248,152.53 208.05518452338413,152.53" stroke="none" /><polygon fill="#f7d54e" points="188.5,133.5 256,133.5 194.53228785049248,152.53" stroke="none" /><polygon fill="#fadb5e" points="256,133.5 254,152.53 194.53228785049248,152.53" stroke="none" /><polygon fill="#fce16d" points="256,133.5 256.0,133.5 254,152.53" stroke="none" /><polygon fill="#fce16d" points="256.0,133.5 256.0,152.53 254,152.53" stroke="none" /><polygon fill="#fcdf68" points="256.0,133.5 277.275,133.5 256.0,152.53" stroke="none" /><polygon fill="#fbde64" points="277.275,133.5 274.28434500933747,152.53 256.0,152.53" stroke="none" /><polygon fill="#f9da5a" points="277.275,133.5 295.15,133.5 274.28434500933747,152.53" stroke="none" /><polygon fill="#f8d856" points="295.15,133.5 293.6512730467144,152.53 274.28434500933747,152.53" stroke="none" /><polygon fill="#f7d54e" points="295.15,133.5 308.65,133.5 293.6512730467144,152.53" stroke="none" /><polygon fill="#f7d44c" points="308.65,133.5 301.9448154766159,152.53 293.6512730467144,152.53" stroke="none" /><polygon fill="#f5d245" points="308.65,133.5 323.5,133.5 301.9448154766159,152.53" stroke="none" /><polygon fill="#f5d142" points="323.5,133.5 319.4677121495075,152.53 301.9448154766159,152.53" stroke="none" /><polygon fill="#fce069" points="259.0,152.53 237.71565499066253,152.53 254.0,172.425" stroke="none" /><polygon fill="#f9dc60" points="237.71565499066253,152.53 231.50998305699176,172.425 254.0,172.425" stroke="none" /><polygon fill="#f9da5a" points="237.71565499066253,152.53 217.34872695328562,152.53 231.50998305699176,172.425" stroke="none" /><polygon fill="#f7d754" points="217.34872695328562,152.53 221.2296671910764,172.425 231.50998305699176,172.425" stroke="none" /><polygon fill="#f7d650" points="217.34872695328562,152.53 208.05518452338413,152.53 221.2296671910764,172.425" stroke="none" /><polygon fill="#f5d34b" points="208.05518452338413,152.53 205.2054144983441,172.425 221.2296671910764,172.425" stroke="none" /><polygon fill="#f6d246" points="208.05518452338413,152.53 194.53228785049248,152.53 205.2054144983441,172.425" stroke="none" /><polygon fill="#f3cf42" points="194.53228785049248,152.53 193.87873653633864,172.425 205.2054144983441,172.425" stroke="none" /><polygon fill="#f7d54f" points="194.53228785049248,152.53 254,152.53 193.87873653633864,172.425" stroke="none" /><polygon fill="#f8da5b" points="254,152.53 253,172.425 193.87873653633864,172.425" stroke="none" /><polygon fill="#fce16c" points="254,152.53 256.0,152.53 253,172.425" stroke="none" /><polygon fill="#fbe069" points="256.0,152.53 253.0,172.425 253,172.425" stroke="none" /><polygon fill="#fce06a" points="256.0,152.53 274.28434500933747,152.53 253.0,172.425" stroke="none" /><polygon fill="#fadd62" points="274.28434500933747,152.53 277.49001694300824,172.425 253.0,172.425" stroke="none" /><polygon fill="#f9da5b" points="274.28434500933747,152.53 293.6512730467144,152.53 277.49001694300824,172.425" stroke="none" /><polygon fill="#f7d653" points="293.6512730467144,152.53 296.7703328089236,172.425 277.49001694300824,172.425" stroke="none" /><polygon fill="#f7d64f" points="293.6512730467144,152.53 301.9448154766159,152.53 296.7703328089236,172.425" stroke="none" /><polygon fill="#f5d24a" points="301.9448154766159,152.53 308.7945855016559,172.425 296.7703328089236,172.425" stroke="none" /><polygon fill="#f6d246" points="301.9448154766159,152.53 319.4677121495075,152.53 308.7945855016559,172.425" stroke="none" /><polygon fill="#f3ce40" points="319.4677121495075,152.53 320.12126346366136,172.425 308.7945855016559,172.425" stroke="none" /><polygon fill="#f9dc60" points="254.0,172.425 231.50998305699176,172.425 257.0,189.725" stroke="none" /><polygon fill="#f8d95b" points="231.50998305699176,172.425 238.9595521947411,189.725 257.0,189.725" stroke="none" /><polygon fill="#f6d655" points="231.50998305699176,172.425 221.2296671910764,172.425 238.9595521947411,189.725" stroke="none" /><polygon fill="#f5d451" points="221.2296671910764,172.425 222.77739476651465,189.725 238.9595521947411,189.725" stroke="none" /><polygon fill="#f3d14c" points="221.2296671910764,172.425 205.2054144983441,172.425 222.77739476651465,189.725" stroke="none" /><polygon fill="#f1ce47" points="205.2054144983441,172.425 207.6316688239335,189.725 222.77739476651465,189.725" stroke="none" /><polygon fill="#f0cc42" points="205.2054144983441,172.425 193.87873653633864,172.425 207.6316688239335,189.725" stroke="none" /><polygon fill="#efca40" points="193.87873653633864,172.425 198.27137028709421,189.725 207.6316688239335,189.725" stroke="none" /><polygon fill="#f3d14b" points="193.87873653633864,172.425 253,172.425 198.27137028709421,189.725" stroke="none" /><polygon fill="#f6d757" points="253,172.425 259,189.725 198.27137028709421,189.725" stroke="none" /><polygon fill="#fade65" points="253,172.425 253.0,172.425 259,189.725" stroke="none" /><polygon fill="#fadd63" points="253.0,172.425 258.0,189.725 259,189.725" stroke="none" /><polygon fill="#f9dc61" points="253.0,172.425 277.49001694300824,172.425 258.0,189.725" stroke="none" /><polygon fill="#f8d95b" points="277.49001694300824,172.425 274.0404478052589,189.725 258.0,189.725" stroke="none" /><polygon fill="#f5d654" points="277.49001694300824,172.425 296.7703328089236,172.425 274.0404478052589,189.725" stroke="none" /><polygon fill="#f4d24f" points="296.7703328089236,172.425 292.22260523348535,189.725 274.0404478052589,189.725" stroke="none" /><polygon fill="#f2d049" points="296.7703328089236,172.425 308.7945855016559,172.425 292.22260523348535,189.725" stroke="none" /><polygon fill="#f1ce47" points="308.7945855016559,172.425 302.36833117606653,189.725 292.22260523348535,189.725" stroke="none" /><polygon fill="#f0cc42" points="308.7945855016559,172.425 320.12126346366136,172.425 302.36833117606653,189.725" stroke="none" /><polygon fill="#efc93f" points="320.12126346366136,172.425 317.7286297129058,189.725 302.36833117606653,189.725" stroke="none" /><polygon fill="#f8d95c" points="257.0,189.725 238.9595521947411,189.725 255.0,204.43" stroke="none" /><polygon fill="#f6d756" points="238.9595521947411,189.725 235.79610090212634,204.43 255.0,204.43" stroke="none" /><polygon fill="#f4d352" points="238.9595521947411,189.725 222.77739476651465,189.725 235.79610090212634,204.43" stroke="none" /><polygon fill="#f2d04c" points="222.77739476651465,189.725 218.974965221919,204.43 235.79610090212634,204.43" stroke="none" /><polygon fill="#f0cd48" points="222.77739476651465,189.725 207.6316688239335,189.725 218.974965221919,204.43" stroke="none" /><polygon fill="#eeca43" points="207.6316688239335,189.725 201.51805667775315,204.43 218.974965221919,204.43" stroke="none" /><polygon fill="#edc840" points="207.6316688239335,189.725 198.27137028709421,189.725 201.51805667775315,204.43" stroke="none" /><polygon fill="#eac53c" points="198.27137028709421,189.725 191.71545727917072,204.43 201.51805667775315,204.43" stroke="none" /><polygon fill="#f0cd48" points="198.27137028709421,189.725 259,189.725 191.71545727917072,204.43" stroke="none" /><polygon fill="#f5d452" points="259,189.725 259,204.43 191.71545727917072,204.43" stroke="none" /><polygon fill="#f9db5e" points="259,189.725 258.0,189.725 259,204.43" stroke="none" /><polygon fill="#f9db5d" points="258.0,189.725 254.0,204.43 259,204.43" stroke="none" /><polygon fill="#f8d95c" points="258.0,189.725 274.0404478052589,189.725 254.0,204.43" stroke="none" /><polygon fill="#f6d757" points="274.0404478052589,189.725 276.20389909787366,204.43 254.0,204.43" stroke="none" /><polygon fill="#f4d251" points="274.0404478052589,189.725 292.22260523348535,189.725 276.20389909787366,204.43" stroke="none" /><polygon fill="#f1cf4b" points="292.22260523348535,189.725 298.02503477808096,204.43 276.20389909787366,204.43" stroke="none" /><polygon fill="#f0cc47" points="292.22260523348535,189.725 302.36833117606653,189.725 298.02503477808096,204.43" stroke="none" /><polygon fill="#eeca43" points="302.36833117606653,189.725 306.4819433222468,204.43 298.02503477808096,204.43" stroke="none" /><polygon fill="#edc840" points="302.36833117606653,189.725 317.7286297129058,189.725 306.4819433222468,204.43" stroke="none" /><polygon fill="#eac43b" points="317.7286297129058,189.725 325.2845427208293,204.43 306.4819433222468,204.43" stroke="none" /><polygon fill="#f7d757" points="255.0,204.43 235.79610090212634,204.43 258.0,218.27" stroke="none" /><polygon fill="#f4d351" points="235.79610090212634,204.43 233.20264842751286,218.27 258.0,218.27" stroke="none" /><polygon fill="#f1cf4c" points="235.79610090212634,204.43 218.974965221919,204.43 233.20264842751286,218.27" stroke="none" /><polygon fill="#efcb47" points="218.974965221919,204.43 218.44707905441652,218.27 233.20264842751286,218.27" stroke="none" /><polygon fill="#ecc843" points="218.974965221919,204.43 201.51805667775315,204.43 218.44707905441652,218.27" stroke="none" /><polygon fill="#eac540" points="201.51805667775315,204.43 209.84262355593947,218.27 218.44707905441652,218.27" stroke="none" /><polygon fill="#e9c43d" points="201.51805667775315,204.43 191.71545727917072,204.43 209.84262355593947,218.27" stroke="none" /><polygon fill="#e7c039" points="191.71545727917072,204.43 189.97772250761471,218.27 209.84262355593947,218.27" stroke="none" /><polygon fill="#ecc943" points="191.71545727917072,204.43 259,204.43 189.97772250761471,218.27" stroke="none" /><polygon fill="#f2d04e" points="259,204.43 259,218.27 189.97772250761471,218.27" stroke="none" /><polygon fill="#f8d95a" points="259,204.43 254.0,204.43 259,218.27" stroke="none" /><polygon fill="#f8d858" points="254.0,204.43 257.0,218.27 259,218.27" stroke="none" /><polygon fill="#f7d757" points="254.0,204.43 276.20389909787366,204.43 257.0,218.27" stroke="none" /><polygon fill="#f4d351" points="276.20389909787366,204.43 276.7973515724872,218.27 257.0,218.27" stroke="none" /><polygon fill="#f1ce4b" points="276.20389909787366,204.43 298.02503477808096,204.43 276.7973515724872,218.27" stroke="none" /><polygon fill="#eeca46" points="298.02503477808096,204.43 295.5529209455835,218.27 276.7973515724872,218.27" stroke="none" /><polygon fill="#ecc843" points="298.02503477808096,204.43 306.4819433222468,204.43 295.5529209455835,218.27" stroke="none" /><polygon fill="#eac540" points="306.4819433222468,204.43 305.1573764440605,218.27 295.5529209455835,218.27" stroke="none" /><polygon fill="#e8c33c" points="306.4819433222468,204.43 325.2845427208293,204.43 305.1573764440605,218.27" stroke="none" /><polygon fill="#e6c039" points="325.2845427208293,204.43 317.0222774923853,218.27 305.1573764440605,218.27" stroke="none" /><polygon fill="#f5d552" points="258.0,218.27 233.20264842751286,218.27 257.0,230.38" stroke="none" /><polygon fill="#f3d24e" points="233.20264842751286,218.27 239.98993372479092,230.38 257.0,230.38" stroke="none" /><polygon fill="#efcd49" points="233.20264842751286,218.27 218.44707905441652,218.27 239.98993372479092,230.38" stroke="none" /><polygon fill="#eecb46" points="218.44707905441652,218.27 224.58836836478406,230.38 239.98993372479092,230.38" stroke="none" /><polygon fill="#ebc742" points="218.44707905441652,218.27 209.84262355593947,218.27 224.58836836478406,230.38" stroke="none" /><polygon fill="#e9c540" points="209.84262355593947,218.27 210.06711607677855,230.38 224.58836836478406,230.38" stroke="none" /><polygon fill="#e6c13b" points="209.84262355593947,218.27 189.97772250761471,218.27 210.06711607677855,230.38" stroke="none" /><polygon fill="#e4be3a" points="189.97772250761471,218.27 200.39373855997252,230.38 210.06711607677855,230.38" stroke="none" /><polygon fill="#eac642" points="189.97772250761471,218.27 259,218.27 200.39373855997252,230.38" stroke="none" /><polygon fill="#f1cf4b" points="259,218.27 253,230.38 200.39373855997252,230.38" stroke="none" /><polygon fill="#f7d755" points="259,218.27 257.0,218.27 253,230.38" stroke="none" /><polygon fill="#f7d753" points="257.0,218.27 257.0,230.38 253,230.38" stroke="none" /><polygon fill="#f5d452" points="257.0,218.27 276.7973515724872,218.27 257.0,230.38" stroke="none" /><polygon fill="#f3d24d" points="276.7973515724872,218.27 273.01006627520906,230.38 257.0,230.38" stroke="none" /><polygon fill="#efcc49" points="276.7973515724872,218.27 295.5529209455835,218.27 273.01006627520906,230.38" stroke="none" /><polygon fill="#edca46" points="295.5529209455835,218.27 289.41163163521594,230.38 273.01006627520906,230.38" stroke="none" /><polygon fill="#eac641" points="295.5529209455835,218.27 305.1573764440605,218.27 289.41163163521594,230.38" stroke="none" /><polygon fill="#e9c540" points="305.1573764440605,218.27 299.9328839232214,230.38 289.41163163521594,230.38" stroke="none" /><polygon fill="#e6c13c" points="305.1573764440605,218.27 317.0222774923853,218.27 299.9328839232214,230.38" stroke="none" /><polygon fill="#e5c03b" points="317.0222774923853,218.27 310.6062614400275,230.38 299.9328839232214,230.38" stroke="none" /><polygon fill="#f6d34e" points="257.0,230.38 239.98993372479092,230.38 256.0,244.22" stroke="none" /><polygon fill="#f2d049" points="239.98993372479092,230.38 235.62298609957634,244.22 256.0,244.22" stroke="none" /><polygon fill="#efcb47" points="239.98993372479092,230.38 224.58836836478406,230.38 235.62298609957634,244.22" stroke="none" /><polygon fill="#ebc843" points="224.58836836478406,230.38 221.42827859925538,244.22 235.62298609957634,244.22" stroke="none" /><polygon fill="#e9c440" points="224.58836836478406,230.38 210.06711607677855,230.38 221.42827859925538,244.22" stroke="none" /><polygon fill="#e5c03c" points="210.06711607677855,230.38 203.4725125989986,244.22 221.42827859925538,244.22" stroke="none" /><polygon fill="#e4be3a" points="210.06711607677855,230.38 200.39373855997252,230.38 203.4725125989986,244.22" stroke="none" /><polygon fill="#e1ba37" points="200.39373855997252,230.38 194.22116999871616,244.22 203.4725125989986,244.22" stroke="none" /><polygon fill="#e8c33f" points="200.39373855997252,230.38 253,230.38 194.22116999871616,244.22" stroke="none" /><polygon fill="#eecb46" points="253,230.38 257,244.22 194.22116999871616,244.22" stroke="none" /><polygon fill="#f7d550" points="253,230.38 257.0,230.38 257,244.22" stroke="none" /><polygon fill="#f6d54e" points="257.0,230.38 253.0,244.22 257,244.22" stroke="none" /><polygon fill="#f6d34e" points="257.0,230.38 273.01006627520906,230.38 253.0,244.22" stroke="none" /><polygon fill="#f2d049" points="273.01006627520906,230.38 279.37701390042366,244.22 253.0,244.22" stroke="none" /><polygon fill="#eeca46" points="273.01006627520906,230.38 289.41163163521594,230.38 279.37701390042366,244.22" stroke="none" /><polygon fill="#eac641" points="289.41163163521594,230.38 295.57172140074465,244.22 279.37701390042366,244.22" stroke="none" /><polygon fill="#e9c340" points="289.41163163521594,230.38 299.9328839232214,230.38 295.57172140074465,244.22" stroke="none" /><polygon fill="#e5c03c" points="299.9328839232214,230.38 308.5274874010014,244.22 295.57172140074465,244.22" stroke="none" /><polygon fill="#e4be3b" points="299.9328839232214,230.38 310.6062614400275,230.38 308.5274874010014,244.22" stroke="none" /><polygon fill="#e0ba36" points="310.6062614400275,230.38 322.77883000128384,244.22 308.5274874010014,244.22" stroke="none" /><polygon fill="#f3d048" points="256.0,244.22 235.62298609957634,244.22 255.0,258.925" stroke="none" /><polygon fill="#efcb44" points="235.62298609957634,244.22 235.70157577441276,258.925 255.0,258.925" stroke="none" /><polygon fill="#ecc741" points="235.62298609957634,244.22 221.42827859925538,244.22 235.70157577441276,258.925" stroke="none" /><polygon fill="#e9c33f" points="221.42827859925538,244.22 222.83913317927093,258.925 235.70157577441276,258.925" stroke="none" /><polygon fill="#e5c03c" points="221.42827859925538,244.22 203.4725125989986,244.22 222.83913317927093,258.925" stroke="none" /><polygon fill="#e3bd3a" points="203.4725125989986,244.22 214.74917910315745,258.925 222.83913317927093,258.925" stroke="none" /><polygon fill="#e0ba37" points="203.4725125989986,244.22 194.22116999871616,244.22 214.74917910315745,258.925" stroke="none" /><polygon fill="#deb736" points="194.22116999871616,244.22 197.55022961943263,258.925 214.74917910315745,258.925" stroke="none" /><polygon fill="#e5c03c" points="194.22116999871616,244.22 257,244.22 197.55022961943263,258.925" stroke="none" /><polygon fill="#edc842" points="257,244.22 254,258.925 197.55022961943263,258.925" stroke="none" /><polygon fill="#f6d34a" points="257,244.22 253.0,244.22 254,258.925" stroke="none" /><polygon fill="#f5d249" points="253.0,244.22 258.0,258.925 254,258.925" stroke="none" /><polygon fill="#f3d048" points="253.0,244.22 279.37701390042366,244.22 258.0,258.925" stroke="none" /><polygon fill="#efcb44" points="279.37701390042366,244.22 274.2984242255872,258.925 258.0,258.925" stroke="none" /><polygon fill="#ebc641" points="279.37701390042366,244.22 295.57172140074465,244.22 274.2984242255872,258.925" stroke="none" /><polygon fill="#e9c43f" points="295.57172140074465,244.22 285.1608668207291,258.925 274.2984242255872,258.925" stroke="none" /><polygon fill="#e5bf3c" points="295.57172140074465,244.22 308.5274874010014,244.22 285.1608668207291,258.925" stroke="none" /><polygon fill="#e4bd3a" points="308.5274874010014,244.22 299.2508208968425,258.925 285.1608668207291,258.925" stroke="none" /><polygon fill="#dfb937" points="308.5274874010014,244.22 322.77883000128384,244.22 299.2508208968425,258.925" stroke="none" /><polygon fill="#deb635" points="322.77883000128384,244.22 310.4497703805674,258.925 299.2508208968425,258.925" stroke="none" /><polygon fill="#f2cd43" points="255.0,258.925 235.70157577441276,258.925 253.0,273.63" stroke="none" /><polygon fill="#eec93f" points="235.70157577441276,258.925 235.79860864686378,273.63 253.0,273.63" stroke="none" /><polygon fill="#eac43e" points="235.70157577441276,258.925 222.83913317927093,258.925 235.79860864686378,273.63" stroke="none" /><polygon fill="#e7c23b" points="222.83913317927093,258.925 227.00967580357874,273.63 235.79860864686378,273.63" stroke="none" /><polygon fill="#e5bf3a" points="222.83913317927093,258.925 214.74917910315745,258.925 227.00967580357874,273.63" stroke="none" /><polygon fill="#e3bd38" points="214.74917910315745,258.925 215.97852952895073,273.63 227.00967580357874,273.63" stroke="none" /><polygon fill="#dfb837" points="214.74917910315745,258.925 197.55022961943263,258.925 215.97852952895073,273.63" stroke="none" /><polygon fill="#dcb434" points="197.55022961943263,258.925 198.8442686268599,273.63 215.97852952895073,273.63" stroke="none" /><polygon fill="#e3bc39" points="197.55022961943263,258.925 254,258.925 198.8442686268599,273.63" stroke="none" /><polygon fill="#ebc53d" points="254,258.925 254,273.63 198.8442686268599,273.63" stroke="none" /><polygon fill="#f5d145" points="254,258.925 258.0,258.925 254,273.63" stroke="none" /><polygon fill="#f4d043" points="258.0,258.925 258.0,273.63 254,273.63" stroke="none" /><polygon fill="#f2cd43" points="258.0,258.925 274.2984242255872,258.925 258.0,273.63" stroke="none" /><polygon fill="#eec93f" points="274.2984242255872,258.925 277.2013913531362,273.63 258.0,273.63" stroke="none" /><polygon fill="#ebc53e" points="274.2984242255872,258.925 285.1608668207291,258.925 277.2013913531362,273.63" stroke="none" /><polygon fill="#e7c13b" points="285.1608668207291,258.925 288.9903241964212,273.63 277.2013913531362,273.63" stroke="none" /><polygon fill="#e5be3a" points="285.1608668207291,258.925 299.2508208968425,258.925 288.9903241964212,273.63" stroke="none" /><polygon fill="#e1bb37" points="299.2508208968425,258.925 299.02147047104927,273.63 288.9903241964212,273.63" stroke="none" /><polygon fill="#dfb836" points="299.2508208968425,258.925 310.4497703805674,258.925 299.02147047104927,273.63" stroke="none" /><polygon fill="#dcb534" points="310.4497703805674,258.925 311.1557313731401,273.63 299.02147047104927,273.63" stroke="none" /><polygon fill="#f0cb3d" points="253.0,273.63 235.79860864686378,273.63 255.0,289.2" stroke="none" /><polygon fill="#eec93c" points="235.79860864686378,273.63 241.78755260364906,289.2 255.0,289.2" stroke="none" /><polygon fill="#e9c33a" points="235.79860864686378,273.63 227.00967580357874,273.63 241.78755260364906,289.2" stroke="none" /><polygon fill="#e9c33a" points="227.00967580357874,273.63 232.0205470003529,289.2 241.78755260364906,289.2" stroke="none" /><polygon fill="#e4be38" points="227.00967580357874,273.63 215.97852952895073,273.63 232.0205470003529,289.2" stroke="none" /><polygon fill="#e3bd37" points="215.97852952895073,273.63 222.40694251771595,289.2 232.0205470003529,289.2" stroke="none" /><polygon fill="#ddb634" points="215.97852952895073,273.63 198.8442686268599,273.63 222.40694251771595,289.2" stroke="none" /><polygon fill="#ddb634" points="198.8442686268599,273.63 211.93197758681532,289.2 222.40694251771595,289.2" stroke="none" /><polygon fill="#e2bc37" points="198.8442686268599,273.63 254,273.63 211.93197758681532,289.2" stroke="none" /><polygon fill="#ecc63b" points="254,273.63 253,289.2 211.93197758681532,289.2" stroke="none" /><polygon fill="#f4cf3f" points="254,273.63 258.0,273.63 253,289.2" stroke="none" /><polygon fill="#f4cf3f" points="258.0,273.63 256.0,289.2 253,289.2" stroke="none" /><polygon fill="#f0cb3e" points="258.0,273.63 277.2013913531362,273.63 256.0,289.2" stroke="none" /><polygon fill="#eec83c" points="277.2013913531362,273.63 273.21244739635097,289.2 256.0,289.2" stroke="none" /><polygon fill="#e8c239" points="277.2013913531362,273.63 288.9903241964212,273.63 273.21244739635097,289.2" stroke="none" /><polygon fill="#e7c139" points="288.9903241964212,273.63 281.9794529996471,289.2 273.21244739635097,289.2" stroke="none" /><polygon fill="#e3bc37" points="288.9903241964212,273.63 299.02147047104927,273.63 281.9794529996471,289.2" stroke="none" /><polygon fill="#e2bc37" points="299.02147047104927,273.63 290.59305748228405,289.2 281.9794529996471,289.2" stroke="none" /><polygon fill="#ddb634" points="299.02147047104927,273.63 311.1557313731401,273.63 290.59305748228405,289.2" stroke="none" /><polygon fill="#ddb634" points="311.1557313731401,273.63 299.0680224131847,289.2 290.59305748228405,289.2" stroke="none" /><polygon fill="#f2cd3e" points="255.0,289.2 241.78755260364906,289.2 257.0,306.5" stroke="none" /><polygon fill="#f0ca3d" points="241.78755260364906,289.2 241.14000000000001,306.5 257.0,306.5" stroke="none" /><polygon fill="#ebc53b" points="241.78755260364906,289.2 232.0205470003529,289.2 241.14000000000001,306.5" stroke="none" /><polygon fill="#eac43a" points="232.0205470003529,289.2 232.64000000000001,306.5 241.14000000000001,306.5" stroke="none" /><polygon fill="#e6c039" points="232.0205470003529,289.2 222.40694251771595,289.2 232.64000000000001,306.5" stroke="none" /><polygon fill="#e5be38" points="222.40694251771595,289.2 223.24,306.5 232.64000000000001,306.5" stroke="none" /><polygon fill="#e1ba36" points="222.40694251771595,289.2 211.93197758681532,289.2 223.24,306.5" stroke="none" /><polygon fill="#e0b935" points="211.93197758681532,289.2 215.0,306.5 223.24,306.5" stroke="none" /><polygon fill="#e5bf38" points="211.93197758681532,289.2 253,289.2 215.0,306.5" stroke="none" /><polygon fill="#edc73c" points="253,289.2 257,306.5 215.0,306.5" stroke="none" /><polygon fill="#f4cf3f" points="253,289.2 256.0,289.2 257,306.5" stroke="none" /><polygon fill="#f4cf3f" points="256.0,289.2 256.0,306.5 257,306.5" stroke="none" /><polygon fill="#f1cc3e" points="256.0,289.2 273.21244739635097,289.2 256.0,306.5" stroke="none" /><polygon fill="#efca3d" points="273.21244739635097,289.2 269.86,306.5 256.0,306.5" stroke="none" /><polygon fill="#eac53b" points="273.21244739635097,289.2 281.9794529996471,289.2 269.86,306.5" stroke="none" /><polygon fill="#e9c33a" points="281.9794529996471,289.2 279.36,306.5 269.86,306.5" stroke="none" /><polygon fill="#e6bf38" points="281.9794529996471,289.2 290.59305748228405,289.2 279.36,306.5" stroke="none" /><polygon fill="#e5be38" points="290.59305748228405,289.2 287.76,306.5 279.36,306.5" stroke="none" /><polygon fill="#e1ba36" points="290.59305748228405,289.2 299.0680224131847,289.2 287.76,306.5" stroke="none" /><polygon fill="#e0b936" points="299.0680224131847,289.2 297.0,306.5 287.76,306.5" stroke="none" /><path d="M 238 209 L 228 219 L 238 229 Z" fill="#f5d040" stroke="#d4ac30" stroke-width="1" /><path d="M 274 209 L 284 219 L 274 229 Z" fill="#f5d040" stroke="#d4ac30" stroke-width="1" /><path d="M 210 216 A 22 15 0 0 0 254 216 Z" fill="#e8e0d8" stroke="#3a2a1a" stroke-width="1.5" /><path d="M 208 208 A 24 10 0 0 1 256 208 Z" fill="#f5d040" stroke="#3a2a1a" stroke-width="1.5" /><path d="M 229 218 A 3 3 0 0 0 235 218 Z" fill="#3a2a1a" stroke="none" /><circle cx="233" cy="216" fill="white" r="2" stroke="none" /><path d="M 258 215 A 22 15 0 0 0 302 215 Z" fill="#e8e0d8" stroke="#3a2a1a" stroke-width="1.5" /><path d="M 256 207 A 24 10 0 0 1 304 207 Z" fill="#f5d040" stroke="#3a2a1a" stroke-width="1.5" /><path d="M 277 217 A 3 3 0 0 0 283 217 Z" fill="#3a2a1a" stroke="none" /><circle cx="281" cy="215" fill="white" r="2" stroke="none" /><line stroke="#3a2a1a" stroke-width="2" x1="217" x2="247" y1="206" y2="206" /><line stroke="#3a2a1a" stroke-width="2" x1="265" x2="295" y1="205" y2="205" /><path d="M 211 225 A 10 7 0 0 0 231 225 Z" fill="#e88060" fill-opacity="0.27791546977747755" stroke="none" /><path d="M 278 227 A 10 7 0 0 0 298 227 Z" fill="#e88060" fill-opacity="0.208156101108422" stroke="none" /><path d="M 243 241 A 13 13 0 0 0 269 241 Z" fill="#a04030" stroke="#c06050" stroke-width="2" /><path d="M 243 246 A 5 3 0 0 0 269 246 Z" fill="#e06060" stroke="none" /><path d="M 239 238 Q 256 234 273 238" fill="none" stroke="#c06050" stroke-width="2.5" /><ellipse cx="256" cy="182" fill="white" fill-opacity="0.10" rx="5" ry="3" stroke="none" /><ellipse cx="238" cy="212" fill="white" fill-opacity="0.10" rx="5" ry="3" stroke="none" /><ellipse cx="274" cy="212" fill="white" fill-opacity="0.10" rx="5" ry="3" stroke="none" /><polygon fill="#b89824" points="242,302.5 270,302.5 270,337.5 242,337.5" stroke="none" /></svg>