<?xml version="1.0" encoding="utf-8" ?>
<svg baseProfile="full" height="512" version="1.1" width="512" xmlns="http://www.w3.org/2000/svg" xmlns:ev="http://www.w3.org/2001/xml-events" xmlns:xlink="http://www.w3.org/1999/xlink"><defs /><polygon fill="#fde36c" points="255.0,143.5 244.59199999999998,143.5 258.0,160.32999999999998" stroke="none" /><polygon fill="#fce168" points="244.59199999999998,143.5 233.12037285177027,160.32999999999998 258.0,160.32999999999998" stroke="none" /><polygon fill="#fcdf64" points="244.59199999999998,143.5 235.192,143.5 233.12037285177027,160.32999999999998" stroke="none" /><polygon fill="#fbdd5e" points="235.192,143.5 214.544897739475,160.32999999999998 233.12037285177027,160.32999999999998" stroke="none" /><polygon fill="#fadc5d" points="235.192,143.5 226.672,143.5 214.544897739475,160.32999999999998" stroke="none" /><polygon fill="#f9da58" points="226.672,143.5 207.28451764963881,160.32999999999998 214.544897739475,160.32999999999998" stroke="none" /><polygon fill="#fadb59" points="226.672,143.5 217.4,143.5 207.28451764963881,160.32999999999998" stroke="none" /><polygon fill="#f8d852" points="217.4,143.5 187.698099550819,160.32999999999998 207.28451764963881,160.32999999999998" stroke="none" /><polygon fill="#fadb5a" points="217.4,143.5 255,143.5 187.698099550819,160.32999999999998" stroke="none" /><polygon fill="#fbde61" points="255,143.5 255,160.32999999999998 187.698099550819,160.32999999999998" stroke="none" /><polygon fill="#fde36d" points="255,143.5 255.0,143.5 255,160.32999999999998" stroke="none" /><polygon fill="#fee46e" points="255.0,143.5 258.0,160.32999999999998 255,160.32999999999998" stroke="none" /><polygon fill="#fde36b" points="255.0,143.5 267.408,143.5 258.0,160.32999999999998" stroke="none" /><polygon fill="#fce167" points="267.408,143.5 277.87962714822976,160.32999999999998 258.0,160.32999999999998" stroke="none" /><polygon fill="#fcdf63" points="267.408,143.5 278.808,143.5 277.87962714822976,160.32999999999998" stroke="none" /><polygon fill="#fbdd5e" points="278.808,143.5 297.455102260525,160.32999999999998 277.87962714822976,160.32999999999998" stroke="none" /><polygon fill="#fadc5d" points="278.808,143.5 285.328,143.5 297.455102260525,160.32999999999998" stroke="none" /><polygon fill="#f9da58" points="285.328,143.5 307.7154823503612,160.32999999999998 297.455102260525,160.32999999999998" stroke="none" /><polygon fill="#f9da58" points="285.328,143.5 293.6,143.5 307.7154823503612,160.32999999999998" stroke="none" /><polygon fill="#f8d852" points="293.6,143.5 319.301900449181,160.32999999999998 307.7154823503612,160.32999999999998" stroke="none" /><polygon fill="#fde26a" points="258.0,160.32999999999998 233.12037285177027,160.32999999999998 259.0,177.925" stroke="none" /><polygon fill="#fbdf63" points="233.12037285177027,160.32999999999998 233.50592366439147,177.925 259.0,177.925" stroke="none" /><polygon fill="#fbdd5e" points="233.12037285177027,160.32999999999998 214.544897739475,160.32999999999998 233.50592366439147,177.925" stroke="none" /><polygon fill="#f8da58" points="214.544897739475,160.32999999999998 212.19222947074866,177.925 233.50592366439147,177.925" stroke="none" /><polygon fill="#f9d956" points="214.544897739475,160.32999999999998 207.28451764963881,160.32999999999998 212.19222947074866,177.925" stroke="none" /><polygon fill="#f7d650" points="207.28451764963881,160.32999999999998 193.74127411583436,177.925 212.19222947074866,177.925" stroke="none" /><polygon fill="#f7d64d" points="207.28451764963881,160.32999999999998 187.698099550819,160.32999999999998 193.74127411583436,177.925" stroke="none" /><polygon fill="#f5d248" points="187.698099550819,160.32999999999998 181.74522322542867,177.925 193.74127411583436,177.925" stroke="none" /><polygon fill="#f9d954" points="187.698099550819,160.32999999999998 255,160.32999999999998 181.74522322542867,177.925" stroke="none" /><polygon fill="#fadc5e" points="255,160.32999999999998 256,177.925 181.74522322542867,177.925" stroke="none" /><polygon fill="#fde36d" points="255,160.32999999999998 258.0,160.32999999999998 256,177.925" stroke="none" /><polygon fill="#fce26a" points="258.0,160.32999999999998 255.0,177.925 256,177.925" stroke="none" /><polygon fill="#fde269" points="258.0,160.32999999999998 277.87962714822976,160.32999999999998 255.0,177.925" stroke="none" /><polygon fill="#fbdf62" points="277.87962714822976,160.32999999999998 282.49407633560855,177.925 255.0,177.925" stroke="none" /><polygon fill="#fadd5d" points="277.87962714822976,160.32999999999998 297.455102260525,160.32999999999998 282.49407633560855,177.925" stroke="none" /><polygon fill="#f8d957" points="297.455102260525,160.32999999999998 301.80777052925134,177.925 282.49407633560855,177.925" stroke="none" /><polygon fill="#f9d955" points="297.455102260525,160.32999999999998 307.7154823503612,160.32999999999998 301.80777052925134,177.925" stroke="none" /><polygon fill="#f7d650" points="307.7154823503612,160.32999999999998 314.25872588416564,177.925 301.80777052925134,177.925" stroke="none" /><polygon fill="#f8d64f" points="307.7154823503612,160.32999999999998 319.301900449181,160.32999999999998 314.25872588416564,177.925" stroke="none" /><polygon fill="#f5d248" points="319.301900449181,160.32999999999998 335.2547767745713,177.925 314.25872588416564,177.925" stroke="none" /><polygon fill="#fadf63" points="259.0,177.925 233.50592366439147,177.925 254.0,193.225" stroke="none" /><polygon fill="#f9db5d" points="233.50592366439147,177.925 230.74427028264543,193.225 254.0,193.225" stroke="none" /><polygon fill="#f7d858" points="233.50592366439147,177.925 212.19222947074866,177.925 230.74427028264543,193.225" stroke="none" /><polygon fill="#f5d552" points="212.19222947074866,177.925 208.8535659513162,193.225 230.74427028264543,193.225" stroke="none" /><polygon fill="#f4d34e" points="212.19222947074866,177.925 193.74127411583436,177.925 208.8535659513162,193.225" stroke="none" /><polygon fill="#f2cf49" points="193.74127411583436,177.925 191.9410024862528,193.225 208.8535659513162,193.225" stroke="none" /><polygon fill="#f2cf46" points="193.74127411583436,177.925 181.74522322542867,177.925 191.9410024862528,193.225" stroke="none" /><polygon fill="#f0cb42" points="181.74522322542867,177.925 177.4371826746831,193.225 191.9410024862528,193.225" stroke="none" /><polygon fill="#f4d34e" points="181.74522322542867,177.925 256,177.925 177.4371826746831,193.225" stroke="none" /><polygon fill="#f7d859" points="256,177.925 259,193.225 177.4371826746831,193.225" stroke="none" /><polygon fill="#fbe066" points="256,177.925 255.0,177.925 259,193.225" stroke="none" /><polygon fill="#fbdf64" points="255.0,177.925 255.0,193.225 259,193.225" stroke="none" /><polygon fill="#fade63" points="255.0,177.925 282.49407633560855,177.925 255.0,193.225" stroke="none" /><polygon fill="#f9db5d" points="282.49407633560855,177.925 279.2557297173546,193.225 255.0,193.225" stroke="none" /><polygon fill="#f7d857" points="282.49407633560855,177.925 301.80777052925134,177.925 279.2557297173546,193.225" stroke="none" /><polygon fill="#f5d553" points="301.80777052925134,177.925 299.1464340486838,193.225 279.2557297173546,193.225" stroke="none" /><polygon fill="#f5d34f" points="301.80777052925134,177.925 314.25872588416564,177.925 299.1464340486838,193.225" stroke="none" /><polygon fill="#f3d04b" points="314.25872588416564,177.925 317.05899751374716,193.225 299.1464340486838,193.225" stroke="none" /><polygon fill="#f2cf46" points="314.25872588416564,177.925 335.2547767745713,177.925 317.05899751374716,193.225" stroke="none" /><polygon fill="#f0cb42" points="335.2547767745713,177.925 332.5628173253169,193.225 317.05899751374716,193.225" stroke="none" /><polygon fill="#f9db5d" points="254.0,193.225 230.74427028264543,193.225 256.0,206.23" stroke="none" /><polygon fill="#f7d858" points="230.74427028264543,193.225 226.54201811411232,206.23 256.0,206.23" stroke="none" /><polygon fill="#f4d452" points="230.74427028264543,193.225 208.8535659513162,193.225 226.54201811411232,206.23" stroke="none" /><polygon fill="#f2d14e" points="208.8535659513162,193.225 208.4980924429853,206.23 226.54201811411232,206.23" stroke="none" /><polygon fill="#f0ce4a" points="208.8535659513162,193.225 191.9410024862528,193.225 208.4980924429853,206.23" stroke="none" /><polygon fill="#efcc47" points="191.9410024862528,193.225 195.46295190608367,206.23 208.4980924429853,206.23" stroke="none" /><polygon fill="#eeca43" points="191.9410024862528,193.225 177.4371826746831,193.225 195.46295190608367,206.23" stroke="none" /><polygon fill="#ecc740" points="177.4371826746831,193.225 176.8242973154919,206.23 195.46295190608367,206.23" stroke="none" /><polygon fill="#f1ce4a" points="177.4371826746831,193.225 259,193.225 176.8242973154919,206.23" stroke="none" /><polygon fill="#f5d655" points="259,193.225 257,206.23 176.8242973154919,206.23" stroke="none" /><polygon fill="#fadd60" points="259,193.225 255.0,193.225 257,206.23" stroke="none" /><polygon fill="#fadd5f" points="255.0,193.225 253.0,206.23 257,206.23" stroke="none" /><polygon fill="#f9dc5e" points="255.0,193.225 279.2557297173546,193.225 253.0,206.23" stroke="none" /><polygon fill="#f7d959" points="279.2557297173546,193.225 280.45798188588765,206.23 253.0,206.23" stroke="none" /><polygon fill="#f5d553" points="279.2557297173546,193.225 299.1464340486838,193.225 280.45798188588765,206.23" stroke="none" /><polygon fill="#f3d24f" points="299.1464340486838,193.225 303.5019075570147,206.23 280.45798188588765,206.23" stroke="none" /><polygon fill="#f1cf4b" points="299.1464340486838,193.225 317.05899751374716,193.225 303.5019075570147,206.23" stroke="none" /><polygon fill="#efcc46" points="317.05899751374716,193.225 321.5370480939163,206.23 303.5019075570147,206.23" stroke="none" /><polygon fill="#eeca43" points="317.05899751374716,193.225 332.5628173253169,193.225 321.5370480939163,206.23" stroke="none" /><polygon fill="#ebc63f" points="332.5628173253169,193.225 339.1757026845081,206.23 321.5370480939163,206.23" stroke="none" /><polygon fill="#f7d958" points="256.0,206.23 226.54201811411232,206.23 258.0,218.47" stroke="none" /><polygon fill="#f5d553" points="226.54201811411232,206.23 229.51652274868286,218.47 258.0,218.47" stroke="none" /><polygon fill="#f2d04e" points="226.54201811411232,206.23 208.4980924429853,206.23 229.51652274868286,218.47" stroke="none" /><polygon fill="#f0cd4b" points="208.4980924429853,206.23 210.69570664920016,218.47 229.51652274868286,218.47" stroke="none" /><polygon fill="#eecb47" points="208.4980924429853,206.23 195.46295190608367,206.23 210.69570664920016,218.47" stroke="none" /><polygon fill="#ecc744" points="195.46295190608367,206.23 190.039053769614,218.47 210.69570664920016,218.47" stroke="none" /><polygon fill="#eac640" points="195.46295190608367,206.23 176.8242973154919,206.23 190.039053769614,218.47" stroke="none" /><polygon fill="#e7c13d" points="176.8242973154919,206.23 174.71673560206924,218.47 190.039053769614,218.47" stroke="none" /><polygon fill="#edcb46" points="176.8242973154919,206.23 257,206.23 174.71673560206924,218.47" stroke="none" /><polygon fill="#f3d250" points="257,206.23 255,218.47 174.71673560206924,218.47" stroke="none" /><polygon fill="#f9db5b" points="257,206.23 253.0,206.23 255,218.47" stroke="none" /><polygon fill="#f9da5a" points="253.0,206.23 258.0,218.47 255,218.47" stroke="none" /><polygon fill="#f8d958" points="253.0,206.23 280.45798188588765,206.23 258.0,218.47" stroke="none" /><polygon fill="#f5d554" points="280.45798188588765,206.23 280.48347725131714,218.47 258.0,218.47" stroke="none" /><polygon fill="#f2d14f" points="280.45798188588765,206.23 303.5019075570147,206.23 280.48347725131714,218.47" stroke="none" /><polygon fill="#f0cd4b" points="303.5019075570147,206.23 303.30429335079987,218.47 280.48347725131714,218.47" stroke="none" /><polygon fill="#edca46" points="303.5019075570147,206.23 321.5370480939163,206.23 303.30429335079987,218.47" stroke="none" /><polygon fill="#ebc743" points="321.5370480939163,206.23 318.960946230386,218.47 303.30429335079987,218.47" stroke="none" /><polygon fill="#e9c540" points="321.5370480939163,206.23 339.1757026845081,206.23 318.960946230386,218.47" stroke="none" /><polygon fill="#e7c13d" points="339.1757026845081,206.23 336.2832643979308,218.47 318.960946230386,218.47" stroke="none" /><polygon fill="#f7d755" points="258.0,218.47 229.51652274868286,218.47 257.0,229.18" stroke="none" /><polygon fill="#f4d34f" points="229.51652274868286,218.47 227.22130156558416,229.18 257.0,229.18" stroke="none" /><polygon fill="#f0ce4b" points="229.51652274868286,218.47 210.69570664920016,218.47 227.22130156558416,229.18" stroke="none" /><polygon fill="#edca47" points="210.69570664920016,218.47 202.41925729708728,229.18 227.22130156558416,229.18" stroke="none" /><polygon fill="#eac743" points="210.69570664920016,218.47 190.039053769614,218.47 202.41925729708728,229.18" stroke="none" /><polygon fill="#e8c440" points="190.039053769614,218.47 190.97762188228978,229.18 202.41925729708728,229.18" stroke="none" /><polygon fill="#e6c13d" points="190.039053769614,218.47 174.71673560206924,218.47 190.97762188228978,229.18" stroke="none" /><polygon fill="#e4be3b" points="174.71673560206924,218.47 171.79182292601257,229.18 190.97762188228978,229.18" stroke="none" /><polygon fill="#eac643" points="174.71673560206924,218.47 255,218.47 171.79182292601257,229.18" stroke="none" /><polygon fill="#f1cf4c" points="255,218.47 257,229.18 171.79182292601257,229.18" stroke="none" /><polygon fill="#f8d957" points="255,218.47 258.0,218.47 257,229.18" stroke="none" /><polygon fill="#f8d955" points="258.0,218.47 255.0,229.18 257,229.18" stroke="none" /><polygon fill="#f6d754" points="258.0,218.47 280.48347725131714,218.47 255.0,229.18" stroke="none" /><polygon fill="#f4d34f" points="280.48347725131714,218.47 286.77869843441584,229.18 255.0,229.18" stroke="none" /><polygon fill="#f0ce4b" points="280.48347725131714,218.47 303.30429335079987,218.47 286.77869843441584,229.18" stroke="none" /><polygon fill="#edca46" points="303.30429335079987,218.47 309.58074270291274,229.18 286.77869843441584,229.18" stroke="none" /><polygon fill="#ebc743" points="303.30429335079987,218.47 318.960946230386,218.47 309.58074270291274,229.18" stroke="none" /><polygon fill="#e8c340" points="318.960946230386,218.47 326.0223781177102,229.18 309.58074270291274,229.18" stroke="none" /><polygon fill="#e6c13d" points="318.960946230386,218.47 336.2832643979308,218.47 326.0223781177102,229.18" stroke="none" /><polygon fill="#e4be3b" points="336.2832643979308,218.47 346.20817707398743,229.18 326.0223781177102,229.18" stroke="none" /><polygon fill="#f6d44f" points="257.0,229.18 227.22130156558416,229.18 255.0,241.42000000000002" stroke="none" /><polygon fill="#f1d04b" points="227.22130156558416,229.18 225.5506985341493,241.42000000000002 255.0,241.42000000000002" stroke="none" /><polygon fill="#edca46" points="227.22130156558416,229.18 202.41925729708728,229.18 225.5506985341493,241.42000000000002" stroke="none" /><polygon fill="#eac643" points="202.41925729708728,229.18 203.99819742365634,241.42000000000002 225.5506985341493,241.42000000000002" stroke="none" /><polygon fill="#e8c240" points="202.41925729708728,229.18 190.97762188228978,229.18 203.99819742365634,241.42000000000002" stroke="none" /><polygon fill="#e5c03e" points="190.97762188228978,229.18 190.75619653526195,241.42000000000002 203.99819742365634,241.42000000000002" stroke="none" /><polygon fill="#e4bd3c" points="190.97762188228978,229.18 171.79182292601257,229.18 190.75619653526195,241.42000000000002" stroke="none" /><polygon fill="#e0ba39" points="171.79182292601257,229.18 172.78999555802818,241.42000000000002 190.75619653526195,241.42000000000002" stroke="none" /><polygon fill="#e8c341" points="171.79182292601257,229.18 257,229.18 172.78999555802818,241.42000000000002" stroke="none" /><polygon fill="#efcd49" points="257,229.18 256,241.42000000000002 172.78999555802818,241.42000000000002" stroke="none" /><polygon fill="#f9d853" points="257,229.18 255.0,229.18 256,241.42000000000002" stroke="none" /><polygon fill="#f7d751" points="255.0,229.18 254.0,241.42000000000002 256,241.42000000000002" stroke="none" /><polygon fill="#f6d450" points="255.0,229.18 286.77869843441584,229.18 254.0,241.42000000000002" stroke="none" /><polygon fill="#f2d04b" points="286.77869843441584,229.18 284.4493014658507,241.42000000000002 254.0,241.42000000000002" stroke="none" /><polygon fill="#edca46" points="286.77869843441584,229.18 309.58074270291274,229.18 284.4493014658507,241.42000000000002" stroke="none" /><polygon fill="#eac744" points="309.58074270291274,229.18 304.00180257634366,241.42000000000002 284.4493014658507,241.42000000000002" stroke="none" /><polygon fill="#e8c240" points="309.58074270291274,229.18 326.0223781177102,229.18 304.00180257634366,241.42000000000002" stroke="none" /><polygon fill="#e5c03e" points="326.0223781177102,229.18 320.24380346473805,241.42000000000002 304.00180257634366,241.42000000000002" stroke="none" /><polygon fill="#e3bc3b" points="326.0223781177102,229.18 346.20817707398743,229.18 320.24380346473805,241.42000000000002" stroke="none" /><polygon fill="#e0ba39" points="346.20817707398743,229.18 341.2100044419718,241.42000000000002 320.24380346473805,241.42000000000002" stroke="none" /><polygon fill="#f4d24b" points="255.0,241.42000000000002 225.5506985341493,241.42000000000002 258.0,254.425" stroke="none" /><polygon fill="#f0cd47" points="225.5506985341493,241.42000000000002 230.07253153059418,254.425 258.0,254.425" stroke="none" /><polygon fill="#ecc743" points="225.5506985341493,241.42000000000002 203.99819742365634,241.42000000000002 230.07253153059418,254.425" stroke="none" /><polygon fill="#e9c441" points="203.99819742365634,241.42000000000002 213.4305099628625,254.425 230.07253153059418,254.425" stroke="none" /><polygon fill="#e6c03f" points="203.99819742365634,241.42000000000002 190.75619653526195,241.42000000000002 213.4305099628625,254.425" stroke="none" /><polygon fill="#e4be3d" points="190.75619653526195,241.42000000000002 196.71689270867714,254.425 213.4305099628625,254.425" stroke="none" /><polygon fill="#e1ba3a" points="190.75619653526195,241.42000000000002 172.78999555802818,241.42000000000002 196.71689270867714,254.425" stroke="none" /><polygon fill="#deb738" points="172.78999555802818,241.42000000000002 180.43191372907324,254.425 196.71689270867714,254.425" stroke="none" /><polygon fill="#e6c13f" points="172.78999555802818,241.42000000000002 256,241.42000000000002 180.43191372907324,254.425" stroke="none" /><polygon fill="#eeca45" points="256,241.42000000000002 256,254.425 180.43191372907324,254.425" stroke="none" /><polygon fill="#f7d54d" points="256,241.42000000000002 254.0,241.42000000000002 256,254.425" stroke="none" /><polygon fill="#f6d44c" points="254.0,241.42000000000002 256.0,254.425 256,254.425" stroke="none" /><polygon fill="#f5d24b" points="254.0,241.42000000000002 284.4493014658507,241.42000000000002 256.0,254.425" stroke="none" /><polygon fill="#f0cd47" points="284.4493014658507,241.42000000000002 284.9274684694058,254.425 256.0,254.425" stroke="none" /><polygon fill="#ecc844" points="284.4493014658507,241.42000000000002 304.00180257634366,241.42000000000002 284.9274684694058,254.425" stroke="none" /><polygon fill="#e9c441" points="304.00180257634366,241.42000000000002 298.5694900371375,254.425 284.9274684694058,254.425" stroke="none" /><polygon fill="#e6c13f" points="304.00180257634366,241.42000000000002 320.24380346473805,241.42000000000002 298.5694900371375,254.425" stroke="none" /><polygon fill="#e4bd3d" points="320.24380346473805,241.42000000000002 319.28310729132284,254.425 298.5694900371375,254.425" stroke="none" /><polygon fill="#e0b93a" points="320.24380346473805,241.42000000000002 341.2100044419718,241.42000000000002 319.28310729132284,254.425" stroke="none" /><polygon fill="#deb638" points="341.2100044419718,241.42000000000002 331.56808627092676,254.425 319.28310729132284,254.425" stroke="none" /><polygon fill="#f3d046" points="258.0,254.425 230.07253153059418,254.425 253.0,267.43" stroke="none" /><polygon fill="#efcb43" points="230.07253153059418,254.425 233.68153747104364,267.43 253.0,267.43" stroke="none" /><polygon fill="#ebc641" points="230.07253153059418,254.425 213.4305099628625,254.425 233.68153747104364,267.43" stroke="none" /><polygon fill="#e8c33f" points="213.4305099628625,254.425 213.5008840400161,267.43 233.68153747104364,267.43" stroke="none" /><polygon fill="#e5bf3d" points="213.4305099628625,254.425 196.71689270867714,254.425 213.5008840400161,267.43" stroke="none" /><polygon fill="#e2bc3b" points="196.71689270867714,254.425 199.15636129519405,267.43 213.5008840400161,267.43" stroke="none" /><polygon fill="#dfb839" points="196.71689270867714,254.425 180.43191372907324,254.425 199.15636129519405,267.43" stroke="none" /><polygon fill="#dcb437" points="180.43191372907324,254.425 178.2773862758898,267.43 199.15636129519405,267.43" stroke="none" /><polygon fill="#e4bd3c" points="180.43191372907324,254.425 256,254.425 178.2773862758898,267.43" stroke="none" /><polygon fill="#ecc841" points="256,254.425 259,267.43 178.2773862758898,267.43" stroke="none" /><polygon fill="#f6d348" points="256,254.425 256.0,254.425 259,267.43" stroke="none" /><polygon fill="#f5d247" points="256.0,254.425 258.0,267.43 259,267.43" stroke="none" /><polygon fill="#f3cf46" points="256.0,254.425 284.9274684694058,254.425 258.0,267.43" stroke="none" /><polygon fill="#eeca43" points="284.9274684694058,254.425 283.3184625289564,267.43 258.0,267.43" stroke="none" /><polygon fill="#eac541" points="284.9274684694058,254.425 298.5694900371375,254.425 283.3184625289564,267.43" stroke="none" /><polygon fill="#e7c23e" points="298.5694900371375,254.425 300.4991159599839,267.43 283.3184625289564,267.43" stroke="none" /><polygon fill="#e4be3c" points="298.5694900371375,254.425 319.28310729132284,254.425 300.4991159599839,267.43" stroke="none" /><polygon fill="#e1ba3a" points="319.28310729132284,254.425 316.8436387048059,267.43 300.4991159599839,267.43" stroke="none" /><polygon fill="#deb738" points="319.28310729132284,254.425 331.56808627092676,254.425 316.8436387048059,267.43" stroke="none" /><polygon fill="#dbb436" points="331.56808627092676,254.425 333.7226137241102,267.43 316.8436387048059,267.43" stroke="none" /><polygon fill="#f2cd42" points="253.0,267.43 233.68153747104364,267.43 255.0,281.2" stroke="none" /><polygon fill="#efca40" points="233.68153747104364,267.43 230.1962470150217,281.2 255.0,281.2" stroke="none" /><polygon fill="#e9c43d" points="233.68153747104364,267.43 213.5008840400161,267.43 230.1962470150217,281.2" stroke="none" /><polygon fill="#e6c03c" points="213.5008840400161,267.43 212.9206765718563,281.2 230.1962470150217,281.2" stroke="none" /><polygon fill="#e2bc3a" points="213.5008840400161,267.43 199.15636129519405,267.43 212.9206765718563,281.2" stroke="none" /><polygon fill="#e1ba39" points="199.15636129519405,267.43 203.100220217324,281.2 212.9206765718563,281.2" stroke="none" /><polygon fill="#dcb537" points="199.15636129519405,267.43 178.2773862758898,267.43 203.100220217324,281.2" stroke="none" /><polygon fill="#dab336" points="178.2773862758898,267.43 185.89771822733843,281.2 203.100220217324,281.2" stroke="none" /><polygon fill="#e2bb3a" points="178.2773862758898,267.43 259,267.43 185.89771822733843,281.2" stroke="none" /><polygon fill="#ecc73f" points="259,267.43 254,281.2 185.89771822733843,281.2" stroke="none" /><polygon fill="#f5d143" points="259,267.43 258.0,267.43 254,281.2" stroke="none" /><polygon fill="#f6d244" points="258.0,267.43 256.0,281.2 254,281.2" stroke="none" /><polygon fill="#f2cd42" points="258.0,267.43 283.3184625289564,267.43 256.0,281.2" stroke="none" /><polygon fill="#efca40" points="283.3184625289564,267.43 276.8037529849783,281.2 256.0,281.2" stroke="none" /><polygon fill="#e9c33d" points="283.3184625289564,267.43 300.4991159599839,267.43 276.8037529849783,281.2" stroke="none" /><polygon fill="#e7c13c" points="300.4991159599839,267.43 297.0793234281437,281.2 276.8037529849783,281.2" stroke="none" /><polygon fill="#e2bb3a" points="300.4991159599839,267.43 316.8436387048059,267.43 297.0793234281437,281.2" stroke="none" /><polygon fill="#e0ba39" points="316.8436387048059,267.43 309.89977978267603,281.2 297.0793234281437,281.2" stroke="none" /><polygon fill="#dbb436" points="316.8436387048059,267.43 333.7226137241102,267.43 309.89977978267603,281.2" stroke="none" /><polygon fill="#dbb336" points="333.7226137241102,267.43 322.10228177266157,281.2 309.89977978267603,281.2" stroke="none" /><polygon fill="#f2cd42" points="255.0,281.2 230.1962470150217,281.2 256.0,296.5" stroke="none" /><polygon fill="#f0cc41" points="230.1962470150217,281.2 243.59199999999998,296.5 256.0,296.5" stroke="none" /><polygon fill="#eac53e" points="230.1962470150217,281.2 212.9206765718563,281.2 243.59199999999998,296.5" stroke="none" /><polygon fill="#ebc63e" points="212.9206765718563,281.2 235.192,296.5 243.59199999999998,296.5" stroke="none" /><polygon fill="#e6c03c" points="212.9206765718563,281.2 203.100220217324,281.2 235.192,296.5" stroke="none" /><polygon fill="#e7c23c" points="203.100220217324,281.2 225.672,296.5 235.192,296.5" stroke="none" /><polygon fill="#e1ba39" points="203.100220217324,281.2 185.89771822733843,281.2 225.672,296.5" stroke="none" /><polygon fill="#e3bc3a" points="185.89771822733843,281.2 217.4,296.5 225.672,296.5" stroke="none" /><polygon fill="#e6c13c" points="185.89771822733843,281.2 254,281.2 217.4,296.5" stroke="none" /><polygon fill="#f0cb41" points="254,281.2 257,296.5 217.4,296.5" stroke="none" /><polygon fill="#f5d143" points="254,281.2 256.0,281.2 257,296.5" stroke="none" /><polygon fill="#f5d143" points="256.0,281.2 256.0,296.5 257,296.5" stroke="none" /><polygon fill="#f3ce42" points="256.0,281.2 276.8037529849783,281.2 256.0,296.5" stroke="none" /><polygon fill="#f1cd41" points="276.8037529849783,281.2 267.408,296.5 256.0,296.5" stroke="none" /><polygon fill="#ecc63f" points="276.8037529849783,281.2 297.0793234281437,281.2 267.408,296.5" stroke="none" /><polygon fill="#ecc63f" points="297.0793234281437,281.2 276.808,296.5 267.408,296.5" stroke="none" /><polygon fill="#e6c03c" points="297.0793234281437,281.2 309.89977978267603,281.2 276.808,296.5" stroke="none" /><polygon fill="#e7c13c" points="309.89977978267603,281.2 286.328,296.5 276.808,296.5" stroke="none" /><polygon fill="#e1ba39" points="309.89977978267603,281.2 322.10228177266157,281.2 286.328,296.5" stroke="none" /><polygon fill="#e3bd3a" points="322.10228177266157,281.2 292.6,296.5 286.328,296.5" stroke="none" /><path d="M 233 210 A 7 19 0 0 0 233 228 Z" fill="#f6d244" stroke="#d6ae34" stroke-width="1" /><path d="M 279 210 A 7 19 0 0 1 279 228 Z" fill="#f6d244" stroke="#d6ae34" stroke-width="1" /><path d="M 198 215 A 28 18 0 0 0 254 215 Z" fill="#e8e0d8" stroke="#3a2a1a" stroke-width="1.5" /><path d="M 196 205 A 30 12 0 0 1 256 205 Z" fill="#f6d244" stroke="#3a2a1a" stroke-width="1.5" /><path d="M 222 218 A 4 4 0 0 0 230 218 Z" fill="#3a2a1a" stroke="none" /><circle cx="227" cy="215" fill="white" r="3" stroke="none" /><path d="M 258 214 A 28 18 0 0 0 314 214 Z" fill="#e8e0d8" stroke="#3a2a1a" stroke-width="1.5" /><path d="M 256 204 A 30 12 0 0 1 316 204 Z" fill="#f6d244" stroke="#3a2a1a" stroke-width="1.5" /><path d="M 282 217 A 4 4 0 0 0 290 217 Z" fill="#3a2a1a" stroke="none" /><circle cx="287" cy="214" fill="white" r="3" stroke="none" /><line stroke="#3a2a1a" stroke-width="2" x1="209" x2="243" y1="203" y2="203" /><line stroke="#3a2a1a" stroke-width="2" x1="270" x2="302" y1="206" y2="206" /><path d="M 205 226 A 11 7 0 0 0 227 226 Z" fill="#e88060" fill-opacity="0.24981215851653277" stroke="none" /><path d="M 284 224 A 11 7 0 0 0 306 224 Z" fill="#e88060" fill-opacity="0.26699051149496494" stroke="none" /><circle cx="256" cy="226" fill="#d6ae34" r="4" stroke="none" /><path d="M 232 237 Q 256 250 280 237" fill="none" stroke="#c06050" stroke-width="3" /><path d="M 230 235 Q 256 253 282 235" fill="none" stroke="#a04030" stroke-width="1.5" /><path d="M 230 238 Q 256 247 282 238" fill="none" stroke="#f0a0a0" stroke-width="1" /><path d="M 252 205 Q 259 198 266 205" fill="none" stroke="#d4c0a0" stroke-opacity="0.3" stroke-width="1" /><path d="M 296 237 Q 299 234 302 237" fill="none" stroke="#d4c0a0" stroke-opacity="0.3" stroke-width="1" /><path d="M 290 189 Q 295 184 300 189" fill="none" stroke="#d4c0a0" stroke-opacity="0.3" stroke-width="1" /><path d="M 250 196 Q 253 193 256 196" fill="none" stroke="#d4c0a0" stroke-opacity="0.3" stroke-width="1" /><path d="M 261 191 Q 265 187 269 191" fill="none" stroke="#d4c0a0" stroke-opacity="0.3" stroke-width="1" /><path d="M 309 214 Q 314 209 319 214" fill="none" stroke="#d4c0a0" stroke-opacity="0.3" stroke-width="1" /><path d="M 220 198 Q 224 194 228 198" fill="none" stroke="#d4c0a0" stroke-opacity="0.3" stroke-width="1" /><path d="M 307 231 Q 311 227 315 231" fill="none" stroke="#d4c0a0" stroke-opacity="0.3" stroke-width="1" /><path d="M 201 249 Q 207 243 213 249" fill="none" stroke="#d4c0a0" stroke-opacity="0.3" stroke-width="1" /><polygon fill="#ba9a28" points="249,292.5 263,292.5 263,327.5 249,327.5" stroke="none" /></svg>