<?xml version="1.0" encoding="utf-8" ?>
<svg baseProfile="full" height="512" version="1.1" width="512" xmlns="http://www.w3.org/2000/svg" xmlns:ev="http://www.w3.org/2001/xml-events" xmlns:xlink="http://www.w3.org/1999/xlink"><defs /><polygon fill="#fbdf5f" points="257.0,145.5 244.11,145.5 257.0,161.89" stroke="none" /><polygon fill="#fadd5b" points="244.11,145.5 240.41562904551108,161.89 257.0,161.89" stroke="none" /><polygon fill="#fadb56" points="244.11,145.5 237.86,145.5 240.41562904551108,161.89" stroke="none" /><polygon fill="#f9d951" points="237.86,145.5 225.094135898171,161.89 240.41562904551108,161.89" stroke="none" /><polygon fill="#f9d84e" points="237.86,145.5 231.26,145.5 225.094135898171,161.89" stroke="none" /><polygon fill="#f8d649" points="231.26,145.5 217.43694138029895,161.89 225.094135898171,161.89" stroke="none" /><polygon fill="#f8d648" points="231.26,145.5 223.0,145.5 217.43694138029895,161.89" stroke="none" /><polygon fill="#f7d341" points="223.0,145.5 203.7140274106397,161.89 217.43694138029895,161.89" stroke="none" /><polygon fill="#f8d74b" points="223.0,145.5 255,145.5 203.7140274106397,161.89" stroke="none" /><polygon fill="#fadb54" points="255,145.5 258,161.89 203.7140274106397,161.89" stroke="none" /><polygon fill="#fbdf61" points="255,145.5 257.0,145.5 258,161.89" stroke="none" /><polygon fill="#fbdf61" points="257.0,145.5 256.0,161.89 258,161.89" stroke="none" /><polygon fill="#fbde5e" points="257.0,145.5 267.89,145.5 256.0,161.89" stroke="none" /><polygon fill="#fadd5a" points="267.89,145.5 271.5843709544889,161.89 256.0,161.89" stroke="none" /><polygon fill="#fadb55" points="267.89,145.5 275.14,145.5 271.5843709544889,161.89" stroke="none" /><polygon fill="#f9d950" points="275.14,145.5 289.90586410182897,161.89 271.5843709544889,161.89" stroke="none" /><polygon fill="#f8d84d" points="275.14,145.5 280.74,145.5 289.90586410182897,161.89" stroke="none" /><polygon fill="#f8d648" points="280.74,145.5 296.56305861970105,161.89 289.90586410182897,161.89" stroke="none" /><polygon fill="#f8d648" points="280.74,145.5 289.0,145.5 296.56305861970105,161.89" stroke="none" /><polygon fill="#f7d340" points="289.0,145.5 311.2859725893603,161.89 296.56305861970105,161.89" stroke="none" /><polygon fill="#fbde5e" points="257.0,161.89 240.41562904551108,161.89 257.0,179.025" stroke="none" /><polygon fill="#f9da56" points="240.41562904551108,161.89 236.5715385773485,179.025 257.0,179.025" stroke="none" /><polygon fill="#f9d950" points="240.41562904551108,161.89 225.094135898171,161.89 236.5715385773485,179.025" stroke="none" /><polygon fill="#f7d549" points="225.094135898171,161.89 221.3378556814004,179.025 236.5715385773485,179.025" stroke="none" /><polygon fill="#f7d546" points="225.094135898171,161.89 217.43694138029895,161.89 221.3378556814004,179.025" stroke="none" /><polygon fill="#f5d140" points="217.43694138029895,161.89 208.35090936464192,179.025 221.3378556814004,179.025" stroke="none" /><polygon fill="#f6d23d" points="217.43694138029895,161.89 203.7140274106397,161.89 208.35090936464192,179.025" stroke="none" /><polygon fill="#f3cd35" points="203.7140274106397,161.89 190.06526841620757,179.025 208.35090936464192,179.025" stroke="none" /><polygon fill="#f7d443" points="203.7140274106397,161.89 258,161.89 190.06526841620757,179.025" stroke="none" /><polygon fill="#f8d74e" points="258,161.89 255,179.025 190.06526841620757,179.025" stroke="none" /><polygon fill="#fbdf61" points="258,161.89 256.0,161.89 255,179.025" stroke="none" /><polygon fill="#fbde5f" points="256.0,161.89 257.0,179.025 255,179.025" stroke="none" /><polygon fill="#fbde5d" points="256.0,161.89 271.5843709544889,161.89 257.0,179.025" stroke="none" /><polygon fill="#f9da55" points="271.5843709544889,161.89 277.4284614226515,179.025 257.0,179.025" stroke="none" /><polygon fill="#f9d94f" points="271.5843709544889,161.89 289.90586410182897,161.89 277.4284614226515,179.025" stroke="none" /><polygon fill="#f6d447" points="289.90586410182897,161.89 294.6621443185996,179.025 277.4284614226515,179.025" stroke="none" /><polygon fill="#f7d544" points="289.90586410182897,161.89 296.56305861970105,161.89 294.6621443185996,179.025" stroke="none" /><polygon fill="#f5d03e" points="296.56305861970105,161.89 304.6490906353581,179.025 294.6621443185996,179.025" stroke="none" /><polygon fill="#f6d13c" points="296.56305861970105,161.89 311.2859725893603,161.89 304.6490906353581,179.025" stroke="none" /><polygon fill="#f3cc33" points="311.2859725893603,161.89 323.9347315837924,179.025 304.6490906353581,179.025" stroke="none" /><polygon fill="#f8d954" points="257.0,179.025 236.5715385773485,179.025 254.0,193.925" stroke="none" /><polygon fill="#f7d54c" points="236.5715385773485,179.025 230.50841528814706,193.925 254.0,193.925" stroke="none" /><polygon fill="#f5d346" points="236.5715385773485,179.025 221.3378556814004,179.025 230.50841528814706,193.925" stroke="none" /><polygon fill="#f3cf40" points="221.3378556814004,179.025 216.46933596098575,193.925 230.50841528814706,193.925" stroke="none" /><polygon fill="#f2ce3c" points="221.3378556814004,179.025 208.35090936464192,179.025 216.46933596098575,193.925" stroke="none" /><polygon fill="#f1ca36" points="208.35090936464192,179.025 200.8380724992567,193.925 216.46933596098575,193.925" stroke="none" /><polygon fill="#f0c931" points="208.35090936464192,179.025 190.06526841620757,179.025 200.8380724992567,193.925" stroke="none" /><polygon fill="#eec42b" points="190.06526841620757,179.025 186.84368269135473,193.925 200.8380724992567,193.925" stroke="none" /><polygon fill="#f2cc39" points="190.06526841620757,179.025 255,179.025 186.84368269135473,193.925" stroke="none" /><polygon fill="#f5d246" points="255,179.025 254,193.925 186.84368269135473,193.925" stroke="none" /><polygon fill="#f9db58" points="255,179.025 257.0,179.025 254,193.925" stroke="none" /><polygon fill="#f9da56" points="257.0,179.025 258.0,193.925 254,193.925" stroke="none" /><polygon fill="#f8d953" points="257.0,179.025 277.4284614226515,179.025 258.0,193.925" stroke="none" /><polygon fill="#f6d54b" points="277.4284614226515,179.025 281.49158471185297,193.925 258.0,193.925" stroke="none" /><polygon fill="#f5d245" points="277.4284614226515,179.025 294.6621443185996,179.025 281.49158471185297,193.925" stroke="none" /><polygon fill="#f3ce3e" points="294.6621443185996,179.025 298.53066403901425,193.925 281.49158471185297,193.925" stroke="none" /><polygon fill="#f2cd3a" points="294.6621443185996,179.025 304.6490906353581,179.025 298.53066403901425,193.925" stroke="none" /><polygon fill="#f0c935" points="304.6490906353581,179.025 312.16192750074333,193.925 298.53066403901425,193.925" stroke="none" /><polygon fill="#efc830" points="304.6490906353581,179.025 323.9347315837924,179.025 312.16192750074333,193.925" stroke="none" /><polygon fill="#eec42b" points="323.9347315837924,179.025 322.15631730864527,193.925 312.16192750074333,193.925" stroke="none" /><polygon fill="#f6d64b" points="254.0,193.925 230.50841528814706,193.925 253.0,206.59" stroke="none" /><polygon fill="#f4d144" points="230.50841528814706,193.925 227.58537268827948,206.59 253.0,206.59" stroke="none" /><polygon fill="#f2ce3e" points="230.50841528814706,193.925 216.46933596098575,193.925 227.58537268827948,206.59" stroke="none" /><polygon fill="#efca39" points="216.46933596098575,193.925 211.33186714909726,206.59 227.58537268827948,206.59" stroke="none" /><polygon fill="#eec834" points="216.46933596098575,193.925 200.8380724992567,193.925 211.33186714909726,206.59" stroke="none" /><polygon fill="#ebc42f" points="200.8380724992567,193.925 195.9290627177515,206.59 211.33186714909726,206.59" stroke="none" /><polygon fill="#ebc22b" points="200.8380724992567,193.925 186.84368269135473,193.925 195.9290627177515,206.59" stroke="none" /><polygon fill="#e8be26" points="186.84368269135473,193.925 178.98597784327114,206.59 195.9290627177515,206.59" stroke="none" /><polygon fill="#eec733" points="186.84368269135473,193.925 254,193.925 178.98597784327114,206.59" stroke="none" /><polygon fill="#f2ce3f" points="254,193.925 256,206.59 178.98597784327114,206.59" stroke="none" /><polygon fill="#f9da52" points="254,193.925 258.0,193.925 256,206.59" stroke="none" /><polygon fill="#f8d84f" points="258.0,193.925 257.0,206.59 256,206.59" stroke="none" /><polygon fill="#f6d64c" points="258.0,193.925 281.49158471185297,193.925 257.0,206.59" stroke="none" /><polygon fill="#f4d245" points="281.49158471185297,193.925 279.41462731172055,206.59 257.0,206.59" stroke="none" /><polygon fill="#f2ce3e" points="281.49158471185297,193.925 298.53066403901425,193.925 279.41462731172055,206.59" stroke="none" /><polygon fill="#efca39" points="298.53066403901425,193.925 302.66813285090274,206.59 279.41462731172055,206.59" stroke="none" /><polygon fill="#eec733" points="298.53066403901425,193.925 312.16192750074333,193.925 302.66813285090274,206.59" stroke="none" /><polygon fill="#ebc32f" points="312.16192750074333,193.925 315.0709372822485,206.59 302.66813285090274,206.59" stroke="none" /><polygon fill="#ebc32c" points="312.16192750074333,193.925 322.15631730864527,193.925 315.0709372822485,206.59" stroke="none" /><polygon fill="#e8be26" points="322.15631730864527,193.925 335.01402215672886,206.59 315.0709372822485,206.59" stroke="none" /><polygon fill="#f5d345" points="253.0,206.59 227.58537268827948,206.59 259.0,218.51" stroke="none" /><polygon fill="#f3cf3f" points="227.58537268827948,206.59 229.89678041717738,218.51 259.0,218.51" stroke="none" /><polygon fill="#efc938" points="227.58537268827948,206.59 211.33186714909726,206.59 229.89678041717738,218.51" stroke="none" /><polygon fill="#ecc634" points="211.33186714909726,206.59 211.87918982412995,218.51 229.89678041717738,218.51" stroke="none" /><polygon fill="#ebc22f" points="211.33186714909726,206.59 195.9290627177515,206.59 211.87918982412995,218.51" stroke="none" /><polygon fill="#e8c02c" points="195.9290627177515,206.59 198.665117349692,218.51 211.87918982412995,218.51" stroke="none" /><polygon fill="#e7bc27" points="195.9290627177515,206.59 178.98597784327114,206.59 198.665117349692,218.51" stroke="none" /><polygon fill="#e4ba24" points="178.98597784327114,206.59 180.92963762781025,218.51 198.665117349692,218.51" stroke="none" /><polygon fill="#eac22e" points="178.98597784327114,206.59 256,206.59 180.92963762781025,218.51" stroke="none" /><polygon fill="#f0cc3b" points="256,206.59 254,218.51 180.92963762781025,218.51" stroke="none" /><polygon fill="#f7d64a" points="256,206.59 257.0,206.59 254,218.51" stroke="none" /><polygon fill="#f8d749" points="257.0,206.59 257.0,218.51 254,218.51" stroke="none" /><polygon fill="#f5d346" points="257.0,206.59 279.41462731172055,206.59 257.0,218.51" stroke="none" /><polygon fill="#f3d040" points="279.41462731172055,206.59 279.1032195828226,218.51 257.0,218.51" stroke="none" /><polygon fill="#efca39" points="279.41462731172055,206.59 302.66813285090274,206.59 279.1032195828226,218.51" stroke="none" /><polygon fill="#edc735" points="302.66813285090274,206.59 297.12081017587,218.51 279.1032195828226,218.51" stroke="none" /><polygon fill="#ebc32f" points="302.66813285090274,206.59 315.0709372822485,206.59 297.12081017587,218.51" stroke="none" /><polygon fill="#e8c02c" points="315.0709372822485,206.59 315.33488265030803,218.51 297.12081017587,218.51" stroke="none" /><polygon fill="#e6bc26" points="315.0709372822485,206.59 335.01402215672886,206.59 315.33488265030803,218.51" stroke="none" /><polygon fill="#e4ba24" points="335.01402215672886,206.59 331.0703623721897,218.51 315.33488265030803,218.51" stroke="none" /><polygon fill="#f4d141" points="259.0,218.51 229.89678041717738,218.51 257.0,228.94" stroke="none" /><polygon fill="#f1cc3b" points="229.89678041717738,218.51 228.51918923970027,228.94 257.0,228.94" stroke="none" /><polygon fill="#edc634" points="229.89678041717738,218.51 211.87918982412995,218.51 228.51918923970027,228.94" stroke="none" /><polygon fill="#eac230" points="211.87918982412995,218.51 208.4579689667459,228.94 228.51918923970027,228.94" stroke="none" /><polygon fill="#e7bf2c" points="211.87918982412995,218.51 198.665117349692,218.51 208.4579689667459,228.94" stroke="none" /><polygon fill="#e5ba29" points="198.665117349692,218.51 192.40899274838245,228.94 208.4579689667459,228.94" stroke="none" /><polygon fill="#e3b824" points="198.665117349692,218.51 180.92963762781025,218.51 192.40899274838245,228.94" stroke="none" /><polygon fill="#e1b523" points="180.92963762781025,218.51 172.75511890818262,228.94 192.40899274838245,228.94" stroke="none" /><polygon fill="#e6bd2a" points="180.92963762781025,218.51 254,218.51 172.75511890818262,228.94" stroke="none" /><polygon fill="#edc635" points="254,218.51 253,228.94 172.75511890818262,228.94" stroke="none" /><polygon fill="#f6d444" points="254,218.51 257.0,218.51 253,228.94" stroke="none" /><polygon fill="#f6d343" points="257.0,218.51 253.0,228.94 253,228.94" stroke="none" /><polygon fill="#f4d141" points="257.0,218.51 279.1032195828226,218.51 253.0,228.94" stroke="none" /><polygon fill="#f1cc3c" points="279.1032195828226,218.51 284.48081076029973,228.94 253.0,228.94" stroke="none" /><polygon fill="#edc735" points="279.1032195828226,218.51 297.12081017587,218.51 284.48081076029973,228.94" stroke="none" /><polygon fill="#eac230" points="297.12081017587,218.51 305.5420310332541,228.94 284.48081076029973,228.94" stroke="none" /><polygon fill="#e7bf2c" points="297.12081017587,218.51 315.33488265030803,218.51 305.5420310332541,228.94" stroke="none" /><polygon fill="#e4b928" points="315.33488265030803,218.51 320.59100725161755,228.94 305.5420310332541,228.94" stroke="none" /><polygon fill="#e2b824" points="315.33488265030803,218.51 331.0703623721897,218.51 320.59100725161755,228.94" stroke="none" /><polygon fill="#e1b523" points="331.0703623721897,218.51 336.2448810918174,228.94 320.59100725161755,228.94" stroke="none" /><polygon fill="#f3ce3c" points="257.0,228.94 228.51918923970027,228.94 255.0,240.86" stroke="none" /><polygon fill="#eec835" points="228.51918923970027,228.94 226.73001346348605,240.86 255.0,240.86" stroke="none" /><polygon fill="#eac230" points="228.51918923970027,228.94 208.4579689667459,228.94 226.73001346348605,240.86" stroke="none" /><polygon fill="#e7be2c" points="208.4579689667459,228.94 209.8285085115815,240.86 226.73001346348605,240.86" stroke="none" /><polygon fill="#e3ba29" points="208.4579689667459,228.94 192.40899274838245,228.94 209.8285085115815,240.86" stroke="none" /><polygon fill="#e1b625" points="192.40899274838245,228.94 192.9073045500579,240.86 209.8285085115815,240.86" stroke="none" /><polygon fill="#deb322" points="192.40899274838245,228.94 172.75511890818262,228.94 192.9073045500579,240.86" stroke="none" /><polygon fill="#ddb121" points="172.75511890818262,228.94 175.39398019238192,240.86 192.9073045500579,240.86" stroke="none" /><polygon fill="#e2b927" points="172.75511890818262,228.94 253,228.94 175.39398019238192,240.86" stroke="none" /><polygon fill="#ebc432" points="253,228.94 257,240.86 175.39398019238192,240.86" stroke="none" /><polygon fill="#f6d23f" points="253,228.94 253.0,228.94 257,240.86" stroke="none" /><polygon fill="#f5d13d" points="253.0,228.94 259.0,240.86 257,240.86" stroke="none" /><polygon fill="#f3ce3b" points="253.0,228.94 284.48081076029973,228.94 259.0,240.86" stroke="none" /><polygon fill="#eec835" points="284.48081076029973,228.94 283.26998653651395,240.86 259.0,240.86" stroke="none" /><polygon fill="#eac230" points="284.48081076029973,228.94 305.5420310332541,228.94 283.26998653651395,240.86" stroke="none" /><polygon fill="#e7be2c" points="305.5420310332541,228.94 301.1714914884185,240.86 283.26998653651395,240.86" stroke="none" /><polygon fill="#e3ba28" points="305.5420310332541,228.94 320.59100725161755,228.94 301.1714914884185,240.86" stroke="none" /><polygon fill="#e1b625" points="320.59100725161755,228.94 318.0926954499421,240.86 301.1714914884185,240.86" stroke="none" /><polygon fill="#deb322" points="320.59100725161755,228.94 336.2448810918174,228.94 318.0926954499421,240.86" stroke="none" /><polygon fill="#ddb121" points="336.2448810918174,228.94 335.60601980761805,240.86 318.0926954499421,240.86" stroke="none" /><polygon fill="#f1cb36" points="255.0,240.86 226.73001346348605,240.86 256.0,253.525" stroke="none" /><polygon fill="#eec731" points="226.73001346348605,240.86 236.12197918648093,253.525 256.0,253.525" stroke="none" /><polygon fill="#e9c02d" points="226.73001346348605,240.86 209.8285085115815,240.86 236.12197918648093,253.525" stroke="none" /><polygon fill="#e6bd2a" points="209.8285085115815,240.86 214.54772099442107,253.525 236.12197918648093,253.525" stroke="none" /><polygon fill="#e1b727" points="209.8285085115815,240.86 192.9073045500579,240.86 214.54772099442107,253.525" stroke="none" /><polygon fill="#dfb424" points="192.9073045500579,240.86 202.28831444077315,253.525 214.54772099442107,253.525" stroke="none" /><polygon fill="#dbaf21" points="192.9073045500579,240.86 175.39398019238192,240.86 202.28831444077315,253.525" stroke="none" /><polygon fill="#d9ac1f" points="175.39398019238192,240.86 189.70296723176045,253.525 202.28831444077315,253.525" stroke="none" /><polygon fill="#e2b827" points="175.39398019238192,240.86 257,240.86 189.70296723176045,253.525" stroke="none" /><polygon fill="#ebc42f" points="257,240.86 253,253.525 189.70296723176045,253.525" stroke="none" /><polygon fill="#f5d039" points="257,240.86 259.0,240.86 253,253.525" stroke="none" /><polygon fill="#f4cf36" points="259.0,240.86 253.0,253.525 253,253.525" stroke="none" /><polygon fill="#f2cc36" points="259.0,240.86 283.26998653651395,240.86 253.0,253.525" stroke="none" /><polygon fill="#eec731" points="283.26998653651395,240.86 278.8780208135191,253.525 253.0,253.525" stroke="none" /><polygon fill="#e9c02d" points="283.26998653651395,240.86 301.1714914884185,240.86 278.8780208135191,253.525" stroke="none" /><polygon fill="#e6bd2a" points="301.1714914884185,240.86 295.45227900557893,253.525 278.8780208135191,253.525" stroke="none" /><polygon fill="#e2b827" points="301.1714914884185,240.86 318.0926954499421,240.86 295.45227900557893,253.525" stroke="none" /><polygon fill="#dfb424" points="318.0926954499421,240.86 310.71168555922685,253.525 295.45227900557893,253.525" stroke="none" /><polygon fill="#dbaf21" points="318.0926954499421,240.86 335.60601980761805,240.86 310.71168555922685,253.525" stroke="none" /><polygon fill="#daad1f" points="335.60601980761805,240.86 320.29703276823955,253.525 310.71168555922685,253.525" stroke="none" /><polygon fill="#f2ca31" points="256.0,253.525 236.12197918648093,253.525 257.0,266.19" stroke="none" /><polygon fill="#eec52d" points="236.12197918648093,253.525 236.27386698874778,266.19 257.0,266.19" stroke="none" /><polygon fill="#e8bf2a" points="236.12197918648093,253.525 214.54772099442107,253.525 236.27386698874778,266.19" stroke="none" /><polygon fill="#e5ba27" points="214.54772099442107,253.525 217.81467531355673,266.19 236.27386698874778,266.19" stroke="none" /><polygon fill="#e0b625" points="214.54772099442107,253.525 202.28831444077315,253.525 217.81467531355673,266.19" stroke="none" /><polygon fill="#deb222" points="202.28831444077315,253.525 202.64732197340388,266.19 217.81467531355673,266.19" stroke="none" /><polygon fill="#daae21" points="202.28831444077315,253.525 189.70296723176045,253.525 202.64732197340388,266.19" stroke="none" /><polygon fill="#d7aa1e" points="189.70296723176045,253.525 188.16323329923574,266.19 202.64732197340388,266.19" stroke="none" /><polygon fill="#e0b525" points="189.70296723176045,253.525 253,253.525 188.16323329923574,266.19" stroke="none" /><polygon fill="#e9bf2a" points="253,253.525 256,266.19 188.16323329923574,266.19" stroke="none" /><polygon fill="#f4cc32" points="253,253.525 253.0,253.525 256,266.19" stroke="none" /><polygon fill="#f4cd31" points="253.0,253.525 259.0,266.19 256,266.19" stroke="none" /><polygon fill="#f1c930" points="253.0,253.525 278.8780208135191,253.525 259.0,266.19" stroke="none" /><polygon fill="#edc42c" points="278.8780208135191,253.525 275.7261330112522,266.19 259.0,266.19" stroke="none" /><polygon fill="#e8bf2a" points="278.8780208135191,253.525 295.45227900557893,253.525 275.7261330112522,266.19" stroke="none" /><polygon fill="#e4ba27" points="295.45227900557893,253.525 297.18532468644327,266.19 275.7261330112522,266.19" stroke="none" /><polygon fill="#e0b525" points="295.45227900557893,253.525 310.71168555922685,253.525 297.18532468644327,266.19" stroke="none" /><polygon fill="#ddb122" points="310.71168555922685,253.525 308.3526780265961,266.19 297.18532468644327,266.19" stroke="none" /><polygon fill="#dbaf21" points="310.71168555922685,253.525 320.29703276823955,253.525 308.3526780265961,266.19" stroke="none" /><polygon fill="#d9ab1f" points="320.29703276823955,253.525 318.83676670076426,266.19 308.3526780265961,266.19" stroke="none" /><polygon fill="#f0c72a" points="257.0,266.19 236.27386698874778,266.19 253.0,279.6" stroke="none" /><polygon fill="#edc428" points="236.27386698874778,266.19 239.7104693230897,279.6 253.0,279.6" stroke="none" /><polygon fill="#e7bd26" points="236.27386698874778,266.19 217.81467531355673,266.19 239.7104693230897,279.6" stroke="none" /><polygon fill="#e5ba25" points="217.81467531355673,266.19 221.0971885072486,279.6 239.7104693230897,279.6" stroke="none" /><polygon fill="#dfb322" points="217.81467531355673,266.19 202.64732197340388,266.19 221.0971885072486,279.6" stroke="none" /><polygon fill="#deb221" points="202.64732197340388,266.19 213.4065638545757,279.6 221.0971885072486,279.6" stroke="none" /><polygon fill="#d9ac1f" points="202.64732197340388,266.19 188.16323329923574,266.19 213.4065638545757,279.6" stroke="none" /><polygon fill="#d7ab1e" points="188.16323329923574,266.19 196.5468767366355,279.6 213.4065638545757,279.6" stroke="none" /><polygon fill="#dfb322" points="188.16323329923574,266.19 256,266.19 196.5468767366355,279.6" stroke="none" /><polygon fill="#eac027" points="256,266.19 255,279.6 196.5468767366355,279.6" stroke="none" /><polygon fill="#f3cb2b" points="256,266.19 259.0,266.19 255,279.6" stroke="none" /><polygon fill="#f3cb2b" points="259.0,266.19 257.0,279.6 255,279.6" stroke="none" /><polygon fill="#f0c72a" points="259.0,266.19 275.7261330112522,266.19 257.0,279.6" stroke="none" /><polygon fill="#edc328" points="275.7261330112522,266.19 277.28953067691026,279.6 257.0,279.6" stroke="none" /><polygon fill="#e6bc25" points="275.7261330112522,266.19 297.18532468644327,266.19 277.28953067691026,279.6" stroke="none" /><polygon fill="#e3b924" points="297.18532468644327,266.19 290.9028114927514,279.6 277.28953067691026,279.6" stroke="none" /><polygon fill="#deb322" points="297.18532468644327,266.19 308.3526780265961,266.19 290.9028114927514,279.6" stroke="none" /><polygon fill="#ddb121" points="308.3526780265961,266.19 303.59343614542433,279.6 290.9028114927514,279.6" stroke="none" /><polygon fill="#d9ac1f" points="308.3526780265961,266.19 318.83676670076426,266.19 303.59343614542433,279.6" stroke="none" /><polygon fill="#d7aa1e" points="318.83676670076426,266.19 316.4531232633645,279.6 303.59343614542433,279.6" stroke="none" /><polygon fill="#f0c82a" points="253.0,279.6 239.7104693230897,279.6 256.0,294.5" stroke="none" /><polygon fill="#efc629" points="239.7104693230897,279.6 246.11,294.5 256.0,294.5" stroke="none" /><polygon fill="#e9c027" points="239.7104693230897,279.6 221.0971885072486,279.6 246.11,294.5" stroke="none" /><polygon fill="#e9bf26" points="221.0971885072486,279.6 235.86,294.5 246.11,294.5" stroke="none" /><polygon fill="#e3b924" points="221.0971885072486,279.6 213.4065638545757,279.6 235.86,294.5" stroke="none" /><polygon fill="#e5ba25" points="213.4065638545757,279.6 230.26,294.5 235.86,294.5" stroke="none" /><polygon fill="#deb322" points="213.4065638545757,279.6 196.5468767366355,279.6 230.26,294.5" stroke="none" /><polygon fill="#e0b422" points="196.5468767366355,279.6 222.0,294.5 230.26,294.5" stroke="none" /><polygon fill="#e4b924" points="196.5468767366355,279.6 255,279.6 222.0,294.5" stroke="none" /><polygon fill="#eec529" points="255,279.6 257,294.5 222.0,294.5" stroke="none" /><polygon fill="#f3cb2b" points="255,279.6 257.0,279.6 257,294.5" stroke="none" /><polygon fill="#f3cb2b" points="257.0,279.6 256.0,294.5 257,294.5" stroke="none" /><polygon fill="#f0c72a" points="257.0,279.6 277.28953067691026,279.6 256.0,294.5" stroke="none" /><polygon fill="#eec529" points="277.28953067691026,279.6 265.89,294.5 256.0,294.5" stroke="none" /><polygon fill="#e9bf26" points="277.28953067691026,279.6 290.9028114927514,279.6 265.89,294.5" stroke="none" /><polygon fill="#e9bf27" points="290.9028114927514,279.6 274.14,294.5 265.89,294.5" stroke="none" /><polygon fill="#e3b824" points="290.9028114927514,279.6 303.59343614542433,279.6 274.14,294.5" stroke="none" /><polygon fill="#e5ba24" points="303.59343614542433,279.6 280.74,294.5 274.14,294.5" stroke="none" /><polygon fill="#deb221" points="303.59343614542433,279.6 316.4531232633645,279.6 280.74,294.5" stroke="none" /><polygon fill="#e0b522" points="316.4531232633645,279.6 288.0,294.5 280.74,294.5" stroke="none" /><path d="M 237 210 A 6 18 0 0 0 237 228 Z" fill="#f4cc2c" stroke="#d2a41c" stroke-width="1" /><path d="M 275 210 A 6 18 0 0 1 275 228 Z" fill="#f4cc2c" stroke="#d2a41c" stroke-width="1" /><path d="M 208 215 A 22 13 0 0 0 252 215 Z" fill="#e8e0d8" stroke="#3a2a1a" stroke-width="1.5" /><path d="M 224 217 A 6 6 0 0 0 236 217 Z" fill="#3a2a1a" stroke="none" /><circle cx="232" cy="213" fill="white" r="3" stroke="none" /><path d="M 206 215 Q 230 210 254 215" fill="none" stroke="#3a2a1a" stroke-width="4" /><path d="M 260 215 A 22 13 0 0 0 304 215 Z" fill="#e8e0d8" stroke="#3a2a1a" stroke-width="1.5" /><path d="M 276 217 A 6 6 0 0 0 288 217 Z" fill="#3a2a1a" stroke="none" /><circle cx="284" cy="213" fill="white" r="3" stroke="none" /><path d="M 258 215 Q 282 210 306 215" fill="none" stroke="#3a2a1a" stroke-width="4" /><line stroke="#3a2a1a" stroke-width="2" x1="271" x2="271" y1="214" y2="210" /><line stroke="#3a2a1a" stroke-width="2" x1="282" x2="282" y1="214" y2="210" /><line stroke="#3a2a1a" stroke-width="2" x1="293" x2="293" y1="214" y2="210" /><line stroke="#3a2a1a" stroke-width="4" x1="214" x2="246" y1="208" y2="208" /><line stroke="#3a2a1a" stroke-width="4" x1="266" x2="298" y1="208" y2="208" /><path d="M 208 225 A 10 7 0 0 0 228 225 Z" fill="#e88060" fill-opacity="0.28633959435262096" stroke="none" /><path d="M 283 224 A 8 5 0 0 0 299 224 Z" fill="#e88060" fill-opacity="0.259859652173654" stroke="none" /><circle cx="256" cy="224" fill="#d2a41c" r="4" stroke="none" /><path d="M 234 237 Q 256 227 278 237" fill="none" stroke="#c06050" stroke-width="3" /><circle cx="234" cy="238" fill="#c06050" r="2" stroke="none" /><circle cx="278" cy="238" fill="#c06050" r="2" stroke="none" /><path d="M 269 197 Q 277 189 285 197" fill="none" stroke="#d4c0a0" stroke-opacity="0.3" stroke-width="1" /><path d="M 222 186 Q 225 183 228 186" fill="none" stroke="#d4c0a0" stroke-opacity="0.3" stroke-width="1" /><path d="M 291 241 Q 297 235 303 241" fill="none" stroke="#d4c0a0" stroke-opacity="0.3" stroke-width="1" /><path d="M 283 241 Q 290 234 297 241" fill="none" stroke="#d4c0a0" stroke-opacity="0.3" stroke-width="1" /><path d="M 304 210 Q 311 203 318 210" fill="none" stroke="#d4c0a0" stroke-opacity="0.3" stroke-width="1" /><path d="M 233 195 Q 238 190 243 195" fill="none" stroke="#d4c0a0" stroke-opacity="0.3" stroke-width="1" /><path d="M 229 235 Q 234 230 239 235" fill="none" stroke="#d4c0a0" stroke-opacity="0.3" stroke-width="1" /><path d="M 259 187 Q 266 180 273 187" fill="none" stroke="#d4c0a0" stroke-opacity="0.3" stroke-width="1" /><polygon fill="#b69018" points="242,290.5 270,290.5 270,325.5 242,325.5" stroke="none" /></svg>