<?xml version="1.0" encoding="utf-8" ?>
<svg baseProfile="full" height="512" version="1.1" width="512" xmlns="http://www.w3.org/2000/svg" xmlns:ev="http://www.w3.org/2001/xml-events" xmlns:xlink="http://www.w3.org/1999/xlink"><defs /><polygon fill="#f9dd5a" points="257.0,147.5 254.7823,147.5 253.0,163.45" stroke="none" /><polygon fill="#f9db56" points="254.7823,147.5 244.39010188749103,163.45 253.0,163.45" stroke="none" /><polygon fill="#f9dc56" points="254.7823,147.5 253.8598,147.5 244.39010188749103,163.45" stroke="none" /><polygon fill="#f8da51" points="253.8598,147.5 240.35230028710544,163.45 244.39010188749103,163.45" stroke="none" /><polygon fill="#f9db54" points="253.8598,147.5 253.1218,147.5 240.35230028710544,163.45" stroke="none" /><polygon fill="#f8d84c" points="253.1218,147.5 231.92205900679696,163.45 240.35230028710544,163.45" stroke="none" /><polygon fill="#f8da50" points="253.1218,147.5 252.31,147.5 231.92205900679696,163.45" stroke="none" /><polygon fill="#f7d647" points="252.31,147.5 226.84879359845766,163.45 231.92205900679696,163.45" stroke="none" /><polygon fill="#f8d950" points="252.31,147.5 257,147.5 226.84879359845766,163.45" stroke="none" /><polygon fill="#f8da52" points="257,147.5 259,163.45 226.84879359845766,163.45" stroke="none" /><polygon fill="#f9dd5a" points="257,147.5 256.0,147.5 259,163.45" stroke="none" /><polygon fill="#f9dd59" points="256.0,147.5 259.0,163.45 259,163.45" stroke="none" /><polygon fill="#f9dd5a" points="256.0,147.5 257.2177,147.5 259.0,163.45" stroke="none" /><polygon fill="#f9db56" points="257.2177,147.5 267.609898112509,163.45 259.0,163.45" stroke="none" /><polygon fill="#f9dc56" points="257.2177,147.5 258.1402,147.5 267.609898112509,163.45" stroke="none" /><polygon fill="#f8d950" points="258.1402,147.5 274.64769971289456,163.45 267.609898112509,163.45" stroke="none" /><polygon fill="#f8da53" points="258.1402,147.5 259.8782,147.5 274.64769971289456,163.45" stroke="none" /><polygon fill="#f7d749" points="259.8782,147.5 283.077940993203,163.45 274.64769971289456,163.45" stroke="none" /><polygon fill="#f8d94f" points="259.8782,147.5 260.69,147.5 283.077940993203,163.45" stroke="none" /><polygon fill="#f6d543" points="260.69,147.5 290.15120640154237,163.45 283.077940993203,163.45" stroke="none" /><polygon fill="#f9dc57" points="253.0,163.45 244.39010188749103,163.45 258.0,180.125" stroke="none" /><polygon fill="#f7d84f" points="244.39010188749103,163.45 238.49906191355868,180.125 258.0,180.125" stroke="none" /><polygon fill="#f7d84b" points="244.39010188749103,163.45 240.35230028710544,163.45 238.49906191355868,180.125" stroke="none" /><polygon fill="#f5d343" points="240.35230028710544,163.45 228.51350275716374,180.125 238.49906191355868,180.125" stroke="none" /><polygon fill="#f6d543" points="240.35230028710544,163.45 231.92205900679696,163.45 228.51350275716374,180.125" stroke="none" /><polygon fill="#f4d03a" points="231.92205900679696,163.45 219.72505543204778,180.125 228.51350275716374,180.125" stroke="none" /><polygon fill="#f5d23b" points="231.92205900679696,163.45 226.84879359845766,163.45 219.72505543204778,180.125" stroke="none" /><polygon fill="#f3cc31" points="226.84879359845766,163.45 209.05776337442026,180.125 219.72505543204778,180.125" stroke="none" /><polygon fill="#f6d441" points="226.84879359845766,163.45 259,163.45 209.05776337442026,180.125" stroke="none" /><polygon fill="#f6d548" points="259,163.45 253,180.125 209.05776337442026,180.125" stroke="none" /><polygon fill="#f9dd5a" points="259,163.45 259.0,163.45 253,180.125" stroke="none" /><polygon fill="#f8db58" points="259.0,163.45 257.0,180.125 253,180.125" stroke="none" /><polygon fill="#f9db56" points="259.0,163.45 267.609898112509,163.45 257.0,180.125" stroke="none" /><polygon fill="#f7d850" points="267.609898112509,163.45 268.5009380864413,180.125 257.0,180.125" stroke="none" /><polygon fill="#f8d84c" points="267.609898112509,163.45 274.64769971289456,163.45 268.5009380864413,180.125" stroke="none" /><polygon fill="#f5d344" points="274.64769971289456,163.45 283.48649724283626,180.125 268.5009380864413,180.125" stroke="none" /><polygon fill="#f6d441" points="274.64769971289456,163.45 283.077940993203,163.45 283.48649724283626,180.125" stroke="none" /><polygon fill="#f4d03a" points="283.077940993203,163.45 289.2749445679522,180.125 283.48649724283626,180.125" stroke="none" /><polygon fill="#f5d139" points="283.077940993203,163.45 290.15120640154237,163.45 289.2749445679522,180.125" stroke="none" /><polygon fill="#f3cc32" points="290.15120640154237,163.45 298.94223662557977,180.125 289.2749445679522,180.125" stroke="none" /><polygon fill="#f6d74d" points="258.0,180.125 238.49906191355868,180.125 255.0,194.625" stroke="none" /><polygon fill="#f4d344" points="238.49906191355868,180.125 237.8153144559868,194.625 255.0,194.625" stroke="none" /><polygon fill="#f3d03e" points="238.49906191355868,180.125 228.51350275716374,180.125 237.8153144559868,194.625" stroke="none" /><polygon fill="#f1cd39" points="228.51350275716374,180.125 228.7966132862798,194.625 237.8153144559868,194.625" stroke="none" /><polygon fill="#f1cc36" points="228.51350275716374,180.125 219.72505543204778,180.125 228.7966132862798,194.625" stroke="none" /><polygon fill="#efc830" points="219.72505543204778,180.125 215.38165235051423,194.625 228.7966132862798,194.625" stroke="none" /><polygon fill="#efc72b" points="219.72505543204778,180.125 209.05776337442026,180.125 215.38165235051423,194.625" stroke="none" /><polygon fill="#ecc325" points="209.05776337442026,180.125 205.9251953211721,194.625 215.38165235051423,194.625" stroke="none" /><polygon fill="#f0cb33" points="209.05776337442026,180.125 253,180.125 205.9251953211721,194.625" stroke="none" /><polygon fill="#f3d03e" points="253,180.125 253,194.625 205.9251953211721,194.625" stroke="none" /><polygon fill="#f7d951" points="253,180.125 257.0,180.125 253,194.625" stroke="none" /><polygon fill="#f8d950" points="257.0,180.125 258.0,194.625 253,194.625" stroke="none" /><polygon fill="#f6d74e" points="257.0,180.125 268.5009380864413,180.125 258.0,194.625" stroke="none" /><polygon fill="#f5d345" points="268.5009380864413,180.125 276.18468554401323,194.625 258.0,194.625" stroke="none" /><polygon fill="#f3d03f" points="268.5009380864413,180.125 283.48649724283626,180.125 276.18468554401323,194.625" stroke="none" /><polygon fill="#f1cc37" points="283.48649724283626,180.125 289.2033867137202,194.625 276.18468554401323,194.625" stroke="none" /><polygon fill="#f1cb35" points="283.48649724283626,180.125 289.2749445679522,180.125 289.2033867137202,194.625" stroke="none" /><polygon fill="#eec72e" points="289.2749445679522,180.125 299.61834764948577,194.625 289.2033867137202,194.625" stroke="none" /><polygon fill="#efc82c" points="289.2749445679522,180.125 298.94223662557977,180.125 299.61834764948577,194.625" stroke="none" /><polygon fill="#ecc224" points="298.94223662557977,180.125 311.0748046788279,194.625 299.61834764948577,194.625" stroke="none" /><polygon fill="#f5d445" points="255.0,194.625 237.8153144559868,194.625 256.0,206.95" stroke="none" /><polygon fill="#f3d03f" points="237.8153144559868,194.625 237.30028320227893,206.95 256.0,206.95" stroke="none" /><polygon fill="#f0cc39" points="237.8153144559868,194.625 228.7966132862798,194.625 237.30028320227893,206.95" stroke="none" /><polygon fill="#eec833" points="228.7966132862798,194.625 221.13383108279328,206.95 237.30028320227893,206.95" stroke="none" /><polygon fill="#ecc52e" points="228.7966132862798,194.625 215.38165235051423,194.625 221.13383108279328,206.95" stroke="none" /><polygon fill="#eac128" points="215.38165235051423,194.625 208.80066938720475,206.95 221.13383108279328,206.95" stroke="none" /><polygon fill="#e9bf24" points="215.38165235051423,194.625 205.9251953211721,194.625 208.80066938720475,206.95" stroke="none" /><polygon fill="#e7bc20" points="205.9251953211721,194.625 198.33419152205735,206.95 208.80066938720475,206.95" stroke="none" /><polygon fill="#ecc42c" points="205.9251953211721,194.625 253,194.625 198.33419152205735,206.95" stroke="none" /><polygon fill="#f0cc39" points="253,194.625 259,206.95 198.33419152205735,206.95" stroke="none" /><polygon fill="#f6d74a" points="253,194.625 258.0,194.625 259,206.95" stroke="none" /><polygon fill="#f6d547" points="258.0,194.625 257.0,206.95 259,206.95" stroke="none" /><polygon fill="#f4d344" points="258.0,194.625 276.18468554401323,194.625 257.0,206.95" stroke="none" /><polygon fill="#f3d03e" points="276.18468554401323,194.625 272.69971679772107,206.95 257.0,206.95" stroke="none" /><polygon fill="#f0cb37" points="276.18468554401323,194.625 289.2033867137202,194.625 272.69971679772107,206.95" stroke="none" /><polygon fill="#eec833" points="289.2033867137202,194.625 285.8661689172067,206.95 272.69971679772107,206.95" stroke="none" /><polygon fill="#ecc52d" points="289.2033867137202,194.625 299.61834764948577,194.625 285.8661689172067,206.95" stroke="none" /><polygon fill="#eac229" points="299.61834764948577,194.625 300.1993306127953,206.95 285.8661689172067,206.95" stroke="none" /><polygon fill="#e9be23" points="299.61834764948577,194.625 311.0748046788279,194.625 300.1993306127953,206.95" stroke="none" /><polygon fill="#e7bc20" points="311.0748046788279,194.625 315.6658084779426,206.95 300.1993306127953,206.95" stroke="none" /><polygon fill="#f4d140" points="256.0,206.95 237.30028320227893,206.95 255.0,218.55" stroke="none" /><polygon fill="#f0cc38" points="237.30028320227893,206.95 233.81256364927245,218.55 255.0,218.55" stroke="none" /><polygon fill="#edc632" points="237.30028320227893,206.95 221.13383108279328,206.95 233.81256364927245,218.55" stroke="none" /><polygon fill="#eac32c" points="221.13383108279328,206.95 221.5190512623576,218.55 233.81256364927245,218.55" stroke="none" /><polygon fill="#e8bf28" points="221.13383108279328,206.95 208.80066938720475,206.95 221.5190512623576,218.55" stroke="none" /><polygon fill="#e6bc24" points="208.80066938720475,206.95 211.28424135282575,218.55 221.5190512623576,218.55" stroke="none" /><polygon fill="#e4b820" points="208.80066938720475,206.95 198.33419152205735,206.95 211.28424135282575,218.55" stroke="none" /><polygon fill="#e3b71e" points="198.33419152205735,206.95 197.82595045234072,218.55 211.28424135282575,218.55" stroke="none" /><polygon fill="#e9bf29" points="198.33419152205735,206.95 259,206.95 197.82595045234072,218.55" stroke="none" /><polygon fill="#efca35" points="259,206.95 257,218.55 197.82595045234072,218.55" stroke="none" /><polygon fill="#f6d443" points="259,206.95 257.0,206.95 257,218.55" stroke="none" /><polygon fill="#f5d440" points="257.0,206.95 259.0,218.55 257,218.55" stroke="none" /><polygon fill="#f4d13f" points="257.0,206.95 272.69971679772107,206.95 259.0,218.55" stroke="none" /><polygon fill="#f1cd39" points="272.69971679772107,206.95 273.1874363507276,218.55 259.0,218.55" stroke="none" /><polygon fill="#efc835" points="272.69971679772107,206.95 285.8661689172067,206.95 273.1874363507276,218.55" stroke="none" /><polygon fill="#ebc52e" points="285.8661689172067,206.95 290.4809487376424,218.55 273.1874363507276,218.55" stroke="none" /><polygon fill="#e9c02a" points="285.8661689172067,206.95 300.1993306127953,206.95 290.4809487376424,218.55" stroke="none" /><polygon fill="#e6bb23" points="300.1993306127953,206.95 306.71575864717425,218.55 290.4809487376424,218.55" stroke="none" /><polygon fill="#e4b81f" points="300.1993306127953,206.95 315.6658084779426,206.95 306.71575864717425,218.55" stroke="none" /><polygon fill="#e3b71e" points="315.6658084779426,206.95 320.17404954765925,218.55 306.71575864717425,218.55" stroke="none" /><polygon fill="#f2cd38" points="255.0,218.55 233.81256364927245,218.55 253.0,228.7" stroke="none" /><polygon fill="#efc934" points="233.81256364927245,218.55 238.32180608529643,228.7 253.0,228.7" stroke="none" /><polygon fill="#ebc42e" points="233.81256364927245,218.55 221.5190512623576,218.55 238.32180608529643,228.7" stroke="none" /><polygon fill="#e8bf2a" points="221.5190512623576,218.55 219.4140834226422,228.7 238.32180608529643,228.7" stroke="none" /><polygon fill="#e5bb25" points="221.5190512623576,218.55 211.28424135282575,218.55 219.4140834226422,228.7" stroke="none" /><polygon fill="#e2b621" points="211.28424135282575,218.55 207.48790529251883,228.7 219.4140834226422,228.7" stroke="none" /><polygon fill="#e0b41d" points="211.28424135282575,218.55 197.82595045234072,218.55 207.48790529251883,228.7" stroke="none" /><polygon fill="#dfb21d" points="197.82595045234072,218.55 194.3691093493831,228.7 207.48790529251883,228.7" stroke="none" /><polygon fill="#e5bb24" points="197.82595045234072,218.55 257,218.55 194.3691093493831,228.7" stroke="none" /><polygon fill="#ecc530" points="257,218.55 256,228.7 194.3691093493831,228.7" stroke="none" /><polygon fill="#f5d23d" points="257,218.55 259.0,218.55 256,228.7" stroke="none" /><polygon fill="#f6d23d" points="259.0,218.55 253.0,228.7 256,228.7" stroke="none" /><polygon fill="#f3cf3a" points="259.0,218.55 273.1874363507276,218.55 253.0,228.7" stroke="none" /><polygon fill="#f0ca35" points="273.1874363507276,218.55 275.67819391470357,228.7 253.0,228.7" stroke="none" /><polygon fill="#ebc42e" points="273.1874363507276,218.55 290.4809487376424,218.55 275.67819391470357,228.7" stroke="none" /><polygon fill="#e9bf2a" points="290.4809487376424,218.55 288.5859165773578,228.7 275.67819391470357,228.7" stroke="none" /><polygon fill="#e5bb24" points="290.4809487376424,218.55 306.71575864717425,218.55 288.5859165773578,228.7" stroke="none" /><polygon fill="#e2b621" points="306.71575864717425,218.55 302.5120947074812,228.7 288.5859165773578,228.7" stroke="none" /><polygon fill="#e0b41d" points="306.71575864717425,218.55 320.17404954765925,218.55 302.5120947074812,228.7" stroke="none" /><polygon fill="#dfb21d" points="320.17404954765925,218.55 317.6308906506169,228.7 302.5120947074812,228.7" stroke="none" /><polygon fill="#f1cc34" points="253.0,228.7 238.32180608529643,228.7 255.0,240.3" stroke="none" /><polygon fill="#eec72f" points="238.32180608529643,228.7 237.71389736838609,240.3 255.0,240.3" stroke="none" /><polygon fill="#e9c02b" points="238.32180608529643,228.7 219.4140834226422,228.7 237.71389736838609,240.3" stroke="none" /><polygon fill="#e6bc27" points="219.4140834226422,228.7 224.86078931413311,240.3 237.71389736838609,240.3" stroke="none" /><polygon fill="#e2b723" points="219.4140834226422,228.7 207.48790529251883,228.7 224.86078931413311,240.3" stroke="none" /><polygon fill="#e0b421" points="207.48790529251883,228.7 211.77830287073076,240.3 224.86078931413311,240.3" stroke="none" /><polygon fill="#ddaf1c" points="207.48790529251883,228.7 194.3691093493831,228.7 211.77830287073076,240.3" stroke="none" /><polygon fill="#dbae1c" points="194.3691093493831,228.7 199.58756778298815,240.3 211.77830287073076,240.3" stroke="none" /><polygon fill="#e2b622" points="194.3691093493831,228.7 256,228.7 199.58756778298815,240.3" stroke="none" /><polygon fill="#eac22b" points="256,228.7 253,240.3 199.58756778298815,240.3" stroke="none" /><polygon fill="#f4cf37" points="256,228.7 253.0,228.7 253,240.3" stroke="none" /><polygon fill="#f4cf35" points="253.0,228.7 258.0,240.3 253,240.3" stroke="none" /><polygon fill="#f2cc35" points="253.0,228.7 275.67819391470357,228.7 258.0,240.3" stroke="none" /><polygon fill="#eec62f" points="275.67819391470357,228.7 275.2861026316139,240.3 258.0,240.3" stroke="none" /><polygon fill="#e9c12b" points="275.67819391470357,228.7 288.5859165773578,228.7 275.2861026316139,240.3" stroke="none" /><polygon fill="#e6bd27" points="288.5859165773578,228.7 289.1392106858669,240.3 275.2861026316139,240.3" stroke="none" /><polygon fill="#e3b823" points="288.5859165773578,228.7 302.5120947074812,228.7 289.1392106858669,240.3" stroke="none" /><polygon fill="#e0b421" points="302.5120947074812,228.7 299.2216971292693,240.3 289.1392106858669,240.3" stroke="none" /><polygon fill="#ddaf1c" points="302.5120947074812,228.7 317.6308906506169,228.7 299.2216971292693,240.3" stroke="none" /><polygon fill="#dbae1c" points="317.6308906506169,228.7 308.4124322170119,240.3 299.2216971292693,240.3" stroke="none" /><polygon fill="#f0c92e" points="255.0,240.3 237.71389736838609,240.3 253.0,252.625" stroke="none" /><polygon fill="#edc52a" points="237.71389736838609,240.3 241.50927501790858,252.625 253.0,252.625" stroke="none" /><polygon fill="#e8bf28" points="237.71389736838609,240.3 224.86078931413311,240.3 241.50927501790858,252.625" stroke="none" /><polygon fill="#e6bc25" points="224.86078931413311,240.3 228.25872578905143,252.625 241.50927501790858,252.625" stroke="none" /><polygon fill="#e1b622" points="224.86078931413311,240.3 211.77830287073076,240.3 228.25872578905143,252.625" stroke="none" /><polygon fill="#dfb320" points="211.77830287073076,240.3 216.65828640596573,252.625 228.25872578905143,252.625" stroke="none" /><polygon fill="#dbad1d" points="211.77830287073076,240.3 199.58756778298815,240.3 216.65828640596573,252.625" stroke="none" /><polygon fill="#d8aa1a" points="199.58756778298815,240.3 203.99780308457144,252.625 216.65828640596573,252.625" stroke="none" /><polygon fill="#e0b421" points="199.58756778298815,240.3 253,240.3 203.99780308457144,252.625" stroke="none" /><polygon fill="#eac128" points="253,240.3 259,252.625 203.99780308457144,252.625" stroke="none" /><polygon fill="#f3ce31" points="253,240.3 258.0,240.3 259,252.625" stroke="none" /><polygon fill="#f3cd2f" points="258.0,240.3 254.0,252.625 259,252.625" stroke="none" /><polygon fill="#f0ca2f" points="258.0,240.3 275.2861026316139,240.3 254.0,252.625" stroke="none" /><polygon fill="#edc52a" points="275.2861026316139,240.3 274.4907249820914,252.625 254.0,252.625" stroke="none" /><polygon fill="#e7bd27" points="275.2861026316139,240.3 289.1392106858669,240.3 274.4907249820914,252.625" stroke="none" /><polygon fill="#e4ba24" points="289.1392106858669,240.3 286.7412742109486,252.625 274.4907249820914,252.625" stroke="none" /><polygon fill="#e1b521" points="289.1392106858669,240.3 299.2216971292693,240.3 286.7412742109486,252.625" stroke="none" /><polygon fill="#deb21f" points="299.2216971292693,240.3 294.3417135940343,252.625 286.7412742109486,252.625" stroke="none" /><polygon fill="#dcae1d" points="299.2216971292693,240.3 308.4124322170119,240.3 294.3417135940343,252.625" stroke="none" /><polygon fill="#d8ab1b" points="308.4124322170119,240.3 309.00219691542856,252.625 294.3417135940343,252.625" stroke="none" /><polygon fill="#efc728" points="253.0,252.625 241.50927501790858,252.625 255.0,264.95" stroke="none" /><polygon fill="#ebc225" points="241.50927501790858,252.625 237.51248675617424,264.95 255.0,264.95" stroke="none" /><polygon fill="#e6bc23" points="241.50927501790858,252.625 228.25872578905143,252.625 237.51248675617424,264.95" stroke="none" /><polygon fill="#e3b821" points="228.25872578905143,252.625 228.7795221775184,264.95 237.51248675617424,264.95" stroke="none" /><polygon fill="#dfb41f" points="228.25872578905143,252.625 216.65828640596573,252.625 228.7795221775184,264.95" stroke="none" /><polygon fill="#ddb01e" points="216.65828640596573,252.625 218.39315051459369,264.95 228.7795221775184,264.95" stroke="none" /><polygon fill="#d9ab1b" points="216.65828640596573,252.625 203.99780308457144,252.625 218.39315051459369,264.95" stroke="none" /><polygon fill="#d6a81a" points="203.99780308457144,252.625 210.06814168537653,264.95 218.39315051459369,264.95" stroke="none" /><polygon fill="#dfb31f" points="203.99780308457144,252.625 259,252.625 210.06814168537653,264.95" stroke="none" /><polygon fill="#eac024" points="259,252.625 257,264.95 210.06814168537653,264.95" stroke="none" /><polygon fill="#f2cb2a" points="259,252.625 254.0,252.625 257,264.95" stroke="none" /><polygon fill="#f2ca28" points="254.0,252.625 254.0,264.95 257,264.95" stroke="none" /><polygon fill="#f0c829" points="254.0,252.625 274.4907249820914,252.625 254.0,264.95" stroke="none" /><polygon fill="#ecc225" points="274.4907249820914,252.625 272.48751324382573,264.95 254.0,264.95" stroke="none" /><polygon fill="#e5bb23" points="274.4907249820914,252.625 286.7412742109486,252.625 272.48751324382573,264.95" stroke="none" /><polygon fill="#e3b821" points="286.7412742109486,252.625 281.2204778224816,264.95 272.48751324382573,264.95" stroke="none" /><polygon fill="#dfb41f" points="286.7412742109486,252.625 294.3417135940343,252.625 281.2204778224816,264.95" stroke="none" /><polygon fill="#deb21e" points="294.3417135940343,252.625 290.6068494854063,264.95 281.2204778224816,264.95" stroke="none" /><polygon fill="#d9ac1c" points="294.3417135940343,252.625 309.00219691542856,252.625 290.6068494854063,264.95" stroke="none" /><polygon fill="#d7a91b" points="309.00219691542856,252.625 299.93185831462347,264.95 290.6068494854063,264.95" stroke="none" /><polygon fill="#efc522" points="255.0,264.95 237.51248675617424,264.95 259.0,278.0" stroke="none" /><polygon fill="#ecc221" points="237.51248675617424,264.95 242.60731099425016,278.0 259.0,278.0" stroke="none" /><polygon fill="#e5b91f" points="237.51248675617424,264.95 228.7795221775184,264.95 242.60731099425016,278.0" stroke="none" /><polygon fill="#e6ba1f" points="228.7795221775184,264.95 239.73406174746995,278.0 242.60731099425016,278.0" stroke="none" /><polygon fill="#e0b31d" points="228.7795221775184,264.95 218.39315051459369,264.95 239.73406174746995,278.0" stroke="none" /><polygon fill="#e1b41d" points="218.39315051459369,264.95 231.4354623500458,278.0 239.73406174746995,278.0" stroke="none" /><polygon fill="#daac1b" points="218.39315051459369,264.95 210.06814168537653,264.95 231.4354623500458,278.0" stroke="none" /><polygon fill="#dbae1c" points="210.06814168537653,264.95 224.50700301287924,278.0 231.4354623500458,278.0" stroke="none" /><polygon fill="#e1b51e" points="210.06814168537653,264.95 257,264.95 224.50700301287924,278.0" stroke="none" /><polygon fill="#ebc121" points="257,264.95 255,278.0 224.50700301287924,278.0" stroke="none" /><polygon fill="#f2c923" points="257,264.95 254.0,264.95 255,278.0" stroke="none" /><polygon fill="#f1c823" points="254.0,264.95 254.0,278.0 255,278.0" stroke="none" /><polygon fill="#f0c623" points="254.0,264.95 272.48751324382573,264.95 254.0,278.0" stroke="none" /><polygon fill="#edc322" points="272.48751324382573,264.95 265.39268900574984,278.0 254.0,278.0" stroke="none" /><polygon fill="#e7bc20" points="272.48751324382573,264.95 281.2204778224816,264.95 265.39268900574984,278.0" stroke="none" /><polygon fill="#e6bb1f" points="281.2204778224816,264.95 276.26593825253,278.0 265.39268900574984,278.0" stroke="none" /><polygon fill="#e0b41d" points="281.2204778224816,264.95 290.6068494854063,264.95 276.26593825253,278.0" stroke="none" /><polygon fill="#e0b41d" points="290.6068494854063,264.95 281.5645376499542,278.0 276.26593825253,278.0" stroke="none" /><polygon fill="#dbad1b" points="290.6068494854063,264.95 299.93185831462347,264.95 281.5645376499542,278.0" stroke="none" /><polygon fill="#dcae1c" points="299.93185831462347,264.95 286.49299698712076,278.0 281.5645376499542,278.0" stroke="none" /><polygon fill="#f0c723" points="259.0,278.0 242.60731099425016,278.0 257.0,292.5" stroke="none" /><polygon fill="#f0c623" points="242.60731099425016,278.0 255.7823,292.5 257.0,292.5" stroke="none" /><polygon fill="#ecc121" points="242.60731099425016,278.0 239.73406174746995,278.0 255.7823,292.5" stroke="none" /><polygon fill="#eec422" points="239.73406174746995,278.0 252.8598,292.5 255.7823,292.5" stroke="none" /><polygon fill="#e8bd20" points="239.73406174746995,278.0 231.4354623500458,278.0 252.8598,292.5" stroke="none" /><polygon fill="#ecc121" points="231.4354623500458,278.0 254.1218,292.5 252.8598,292.5" stroke="none" /><polygon fill="#e5ba1f" points="231.4354623500458,278.0 224.50700301287924,278.0 254.1218,292.5" stroke="none" /><polygon fill="#eabf21" points="224.50700301287924,278.0 251.31,292.5 254.1218,292.5" stroke="none" /><polygon fill="#eabf21" points="224.50700301287924,278.0 255,278.0 251.31,292.5" stroke="none" /><polygon fill="#f1c823" points="255,278.0 255,292.5 251.31,292.5" stroke="none" /><polygon fill="#f2c823" points="255,278.0 254.0,278.0 255,292.5" stroke="none" /><polygon fill="#f2c923" points="254.0,278.0 256.0,292.5 255,292.5" stroke="none" /><polygon fill="#f1c723" points="254.0,278.0 265.39268900574984,278.0 256.0,292.5" stroke="none" /><polygon fill="#f0c723" points="265.39268900574984,278.0 256.2177,292.5 256.0,292.5" stroke="none" /><polygon fill="#ecc121" points="265.39268900574984,278.0 276.26593825253,278.0 256.2177,292.5" stroke="none" /><polygon fill="#eec422" points="276.26593825253,278.0 257.1402,292.5 256.2177,292.5" stroke="none" /><polygon fill="#e8bd20" points="276.26593825253,278.0 281.5645376499542,278.0 257.1402,292.5" stroke="none" /><polygon fill="#ecc121" points="281.5645376499542,278.0 259.8782,292.5 257.1402,292.5" stroke="none" /><polygon fill="#e5b91f" points="281.5645376499542,278.0 286.49299698712076,278.0 259.8782,292.5" stroke="none" /><polygon fill="#eabf21" points="286.49299698712076,278.0 258.69,292.5 259.8782,292.5" stroke="none" /><path d="M 242 210 A 12 18 0 0 0 242 228 Z" fill="#f3ca24" stroke="#d0a018" stroke-width="1" /><path d="M 270 210 A 12 18 0 0 1 270 228 Z" fill="#f3ca24" stroke="#d0a018" stroke-width="1" /><path d="M 219 216 Q 237 202 255 216 Q 237 230 219 216" fill="#e8e0d8" stroke="#3a2a1a" stroke-width="1.5" /><path d="M 232 218 A 5 5 0 0 0 242 218 Z" fill="#3a2a1a" stroke="none" /><circle cx="239" cy="215" fill="white" r="2" stroke="none" /><path d="M 217 216 Q 237 212 257 216" fill="none" stroke="#3a2a1a" stroke-width="3" /><line stroke="#3a2a1a" stroke-width="2" x1="228" x2="228" y1="215" y2="212" /><line stroke="#3a2a1a" stroke-width="2" x1="237" x2="237" y1="215" y2="212" /><line stroke="#3a2a1a" stroke-width="2" x1="246" x2="246" y1="215" y2="212" /><path d="M 257 215 Q 275 201 293 215 Q 275 229 257 215" fill="#e8e0d8" stroke="#3a2a1a" stroke-width="1.5" /><path d="M 270 217 A 5 5 0 0 0 280 217 Z" fill="#3a2a1a" stroke="none" /><circle cx="277" cy="214" fill="white" r="2" stroke="none" /><path d="M 255 215 Q 275 211 295 215" fill="none" stroke="#3a2a1a" stroke-width="3" /><line stroke="#3a2a1a" stroke-width="2" x1="266" x2="266" y1="214" y2="211" /><line stroke="#3a2a1a" stroke-width="2" x1="275" x2="275" y1="214" y2="211" /><line stroke="#3a2a1a" stroke-width="2" x1="284" x2="284" y1="214" y2="211" /><line stroke="#3a2a1a" stroke-width="3" x1="221" x2="245" y1="205" y2="211" /><line stroke="#3a2a1a" stroke-width="3" x1="262" x2="281" y1="203" y2="209" /><path d="M 223 226 A 6 4 0 0 0 235 226 Z" fill="#e88060" fill-opacity="0.23441405355988781" stroke="none" /><path d="M 276 225 A 7 4 0 0 0 290 225 Z" fill="#e88060" fill-opacity="0.255975349025977" stroke="none" /><path d="M 253 227 Q 256 223 259 227" fill="none" stroke="#d0a018" stroke-width="2" /><path d="M 239 235 Q 256 243 273 235" fill="none" stroke="#c06050" stroke-width="3" /><path d="M 237 233 Q 256 245 275 233" fill="none" stroke="#a04030" stroke-width="1.5" /><path d="M 237 235 Q 256 241 275 235" fill="none" stroke="#f0a0a0" stroke-width="1" /><ellipse cx="244" cy="195" fill="white" fill-opacity="0.18" rx="8" ry="5" stroke="none" /><ellipse cx="268" cy="195" fill="white" fill-opacity="0.18" rx="8" ry="5" stroke="none" /><ellipse cx="256" cy="184" fill="white" fill-opacity="0.18" rx="8" ry="5" stroke="none" /><ellipse cx="235" cy="223" fill="white" fill-opacity="0.18" rx="8" ry="5" stroke="none" /><ellipse cx="277" cy="223" fill="white" fill-opacity="0.18" rx="8" ry="5" stroke="none" /><ellipse cx="247" cy="230" fill="white" fill-opacity="0.18" rx="8" ry="5" stroke="none" /><ellipse cx="265" cy="230" fill="white" fill-opacity="0.18" rx="8" ry="5" stroke="none" /><ellipse cx="256" cy="210" fill="white" fill-opacity="0.12" rx="3" ry="15" stroke="none" /><polygon fill="#b48c14" points="237,288.5 275,288.5 275,323.5 237,323.5" stroke="none" /></svg>