<?xml version="1.0" encoding="utf-8" ?>
<svg baseProfile="full" height="512" version="1.1" width="512" xmlns="http://www.w3.org/2000/svg" xmlns:ev="http://www.w3.org/2001/xml-events" xmlns:xlink="http://www.w3.org/1999/xlink"><defs /><polygon fill="#fce16c" points="255.0,118.0 248.08,118.0 259.0,140.44" stroke="none" /><polygon fill="#fce06a" points="248.08,118.0 247.537554447966,140.44 259.0,140.44" stroke="none" /><polygon fill="#fbdf67" points="248.08,118.0 242.08,118.0 247.537554447966,140.44" stroke="none" /><polygon fill="#fbdf66" points="242.08,118.0 245.884186605516,140.44 247.537554447966,140.44" stroke="none" /><polygon fill="#fbde64" points="242.08,118.0 237.28,118.0 245.884186605516,140.44" stroke="none" /><polygon fill="#fbdd63" points="237.28,118.0 238.36149233155598,140.44 245.884186605516,140.44" stroke="none" /><polygon fill="#fadc5f" points="237.28,118.0 231.0,118.0 238.36149233155598,140.44" stroke="none" /><polygon fill="#fadc5f" points="231.0,118.0 235.3865286302,140.44 238.36149233155598,140.44" stroke="none" /><polygon fill="#fbdd63" points="231.0,118.0 256,118.0 235.3865286302,140.44" stroke="none" /><polygon fill="#fce069" points="256,118.0 257,140.44 235.3865286302,140.44" stroke="none" /><polygon fill="#fde26e" points="256,118.0 255.0,118.0 257,140.44" stroke="none" /><polygon fill="#fce16d" points="255.0,118.0 254.0,140.44 257,140.44" stroke="none" /><polygon fill="#fce16c" points="255.0,118.0 263.92,118.0 254.0,140.44" stroke="none" /><polygon fill="#fce16b" points="263.92,118.0 260.462445552034,140.44 254.0,140.44" stroke="none" /><polygon fill="#fbdf67" points="263.92,118.0 270.92,118.0 260.462445552034,140.44" stroke="none" /><polygon fill="#fbde66" points="270.92,118.0 270.115813394484,140.44 260.462445552034,140.44" stroke="none" /><polygon fill="#fbdd63" points="270.92,118.0 273.72,118.0 270.115813394484,140.44" stroke="none" /><polygon fill="#fbdd63" points="273.72,118.0 271.638507668444,140.44 270.115813394484,140.44" stroke="none" /><polygon fill="#fadc60" points="273.72,118.0 280.0,118.0 271.638507668444,140.44" stroke="none" /><polygon fill="#fadc5f" points="280.0,118.0 277.61347136980004,140.44 271.638507668444,140.44" stroke="none" /><polygon fill="#fce16c" points="259.0,140.44 247.537554447966,140.44 255.0,163.9" stroke="none" /><polygon fill="#fbdf67" points="247.537554447966,140.44 248.12074538432952,163.9 255.0,163.9" stroke="none" /><polygon fill="#fbdf67" points="247.537554447966,140.44 245.884186605516,140.44 248.12074538432952,163.9" stroke="none" /><polygon fill="#fadd62" points="245.884186605516,140.44 237.3940373421549,163.9 248.12074538432952,163.9" stroke="none" /><polygon fill="#fbdd63" points="245.884186605516,140.44 238.36149233155598,140.44 237.3940373421549,163.9" stroke="none" /><polygon fill="#f9db5e" points="238.36149233155598,140.44 236.0126709084152,163.9 237.3940373421549,163.9" stroke="none" /><polygon fill="#fadc60" points="238.36149233155598,140.44 235.3865286302,140.44 236.0126709084152,163.9" stroke="none" /><polygon fill="#f9da5c" points="235.3865286302,140.44 230.09316783130154,163.9 236.0126709084152,163.9" stroke="none" /><polygon fill="#fbdd63" points="235.3865286302,140.44 257,140.44 230.09316783130154,163.9" stroke="none" /><polygon fill="#fade65" points="257,140.44 254,163.9 230.09316783130154,163.9" stroke="none" /><polygon fill="#fce16d" points="257,140.44 254.0,140.44 254,163.9" stroke="none" /><polygon fill="#fbe069" points="254.0,140.44 254.0,163.9 254,163.9" stroke="none" /><polygon fill="#fce16d" points="254.0,140.44 260.462445552034,140.44 254.0,163.9" stroke="none" /><polygon fill="#fbdf68" points="260.462445552034,140.44 264.8792546156705,163.9 254.0,163.9" stroke="none" /><polygon fill="#fbdf67" points="260.462445552034,140.44 270.115813394484,140.44 264.8792546156705,163.9" stroke="none" /><polygon fill="#fadd62" points="270.115813394484,140.44 271.6059626578451,163.9 264.8792546156705,163.9" stroke="none" /><polygon fill="#fbdd63" points="270.115813394484,140.44 271.638507668444,140.44 271.6059626578451,163.9" stroke="none" /><polygon fill="#f9db5e" points="271.638507668444,140.44 279.9873290915848,163.9 271.6059626578451,163.9" stroke="none" /><polygon fill="#fadc5f" points="271.638507668444,140.44 277.61347136980004,140.44 279.9873290915848,163.9" stroke="none" /><polygon fill="#f8da5a" points="277.61347136980004,140.44 283.90683216869843,163.9 279.9873290915848,163.9" stroke="none" /><polygon fill="#fadd63" points="255.0,163.9 248.12074538432952,163.9 254.0,184.3" stroke="none" /><polygon fill="#f9db5f" points="248.12074538432952,163.9 242.3222000066517,184.3 254.0,184.3" stroke="none" /><polygon fill="#f8da5d" points="248.12074538432952,163.9 237.3940373421549,163.9 242.3222000066517,184.3" stroke="none" /><polygon fill="#f7d758" points="237.3940373421549,163.9 232.9602303147212,184.3 242.3222000066517,184.3" stroke="none" /><polygon fill="#f7d859" points="237.3940373421549,163.9 236.0126709084152,163.9 232.9602303147212,184.3" stroke="none" /><polygon fill="#f5d554" points="236.0126709084152,163.9 221.67065456117678,184.3 232.9602303147212,184.3" stroke="none" /><polygon fill="#f6d655" points="236.0126709084152,163.9 230.09316783130154,163.9 221.67065456117678,184.3" stroke="none" /><polygon fill="#f4d24f" points="230.09316783130154,163.9 211.55212123227793,184.3 221.67065456117678,184.3" stroke="none" /><polygon fill="#f6d757" points="230.09316783130154,163.9 254,163.9 211.55212123227793,184.3" stroke="none" /><polygon fill="#f8d95b" points="254,163.9 259,184.3 211.55212123227793,184.3" stroke="none" /><polygon fill="#fade65" points="254,163.9 254.0,163.9 259,184.3" stroke="none" /><polygon fill="#fadd63" points="254.0,163.9 253.0,184.3 259,184.3" stroke="none" /><polygon fill="#fade65" points="254.0,163.9 264.8792546156705,163.9 253.0,184.3" stroke="none" /><polygon fill="#f9db5f" points="264.8792546156705,163.9 272.6777999933483,184.3 253.0,184.3" stroke="none" /><polygon fill="#f8da5d" points="264.8792546156705,163.9 271.6059626578451,163.9 272.6777999933483,184.3" stroke="none" /><polygon fill="#f7d758" points="271.6059626578451,163.9 281.03976968527877,184.3 272.6777999933483,184.3" stroke="none" /><polygon fill="#f7d858" points="271.6059626578451,163.9 279.9873290915848,163.9 281.03976968527877,184.3" stroke="none" /><polygon fill="#f5d453" points="279.9873290915848,163.9 291.3293454388232,184.3 281.03976968527877,184.3" stroke="none" /><polygon fill="#f5d554" points="279.9873290915848,163.9 283.90683216869843,163.9 291.3293454388232,184.3" stroke="none" /><polygon fill="#f4d24e" points="283.90683216869843,163.9 299.44787876772205,184.3 291.3293454388232,184.3" stroke="none" /><polygon fill="#f8da5d" points="254.0,184.3 242.3222000066517,184.3 258.0,201.64" stroke="none" /><polygon fill="#f7d858" points="242.3222000066517,184.3 235.00978157148248,201.64 258.0,201.64" stroke="none" /><polygon fill="#f5d555" points="242.3222000066517,184.3 232.9602303147212,184.3 235.00978157148248,201.64" stroke="none" /><polygon fill="#f3d250" points="232.9602303147212,184.3 224.38082821654498,201.64 235.00978157148248,201.64" stroke="none" /><polygon fill="#f3d14f" points="232.9602303147212,184.3 221.67065456117678,184.3 224.38082821654498,201.64" stroke="none" /><polygon fill="#f1ce4a" points="221.67065456117678,184.3 211.47766553259498,201.64 224.38082821654498,201.64" stroke="none" /><polygon fill="#f0cd49" points="221.67065456117678,184.3 211.55212123227793,184.3 211.47766553259498,201.64" stroke="none" /><polygon fill="#eecb44" points="211.55212123227793,184.3 204.48418658024997,201.64 211.47766553259498,201.64" stroke="none" /><polygon fill="#f3d14e" points="211.55212123227793,184.3 259,184.3 204.48418658024997,201.64" stroke="none" /><polygon fill="#f6d655" points="259,184.3 256,201.64 204.48418658024997,201.64" stroke="none" /><polygon fill="#fadc60" points="259,184.3 253.0,184.3 256,201.64" stroke="none" /><polygon fill="#f9db5d" points="253.0,184.3 254.0,201.64 256,201.64" stroke="none" /><polygon fill="#f9da5d" points="253.0,184.3 272.6777999933483,184.3 254.0,201.64" stroke="none" /><polygon fill="#f7d757" points="272.6777999933483,184.3 274.9902184285175,201.64 254.0,201.64" stroke="none" /><polygon fill="#f5d554" points="272.6777999933483,184.3 281.03976968527877,184.3 274.9902184285175,201.64" stroke="none" /><polygon fill="#f3d250" points="281.03976968527877,184.3 288.61917178345504,201.64 274.9902184285175,201.64" stroke="none" /><polygon fill="#f3d14e" points="281.03976968527877,184.3 291.3293454388232,184.3 288.61917178345504,201.64" stroke="none" /><polygon fill="#f1ce4a" points="291.3293454388232,184.3 296.522334467405,201.64 288.61917178345504,201.64" stroke="none" /><polygon fill="#f1ce49" points="291.3293454388232,184.3 299.44787876772205,184.3 296.522334467405,201.64" stroke="none" /><polygon fill="#eecb44" points="299.44787876772205,184.3 313.51581341975003,201.64 296.522334467405,201.64" stroke="none" /><polygon fill="#f7d757" points="258.0,201.64 235.00978157148248,201.64 256.0,217.96" stroke="none" /><polygon fill="#f4d351" points="235.00978157148248,201.64 233.96669507052673,217.96 256.0,217.96" stroke="none" /><polygon fill="#f2d04e" points="235.00978157148248,201.64 224.38082821654498,201.64 233.96669507052673,217.96" stroke="none" /><polygon fill="#f0cc49" points="224.38082821654498,201.64 216.51722163910762,217.96 233.96669507052673,217.96" stroke="none" /><polygon fill="#eecb47" points="224.38082821654498,201.64 211.47766553259498,201.64 216.51722163910762,217.96" stroke="none" /><polygon fill="#ecc742" points="211.47766553259498,201.64 203.5576428939723,217.96 216.51722163910762,217.96" stroke="none" /><polygon fill="#ebc741" points="211.47766553259498,201.64 204.48418658024997,201.64 203.5576428939723,217.96" stroke="none" /><polygon fill="#e8c23c" points="204.48418658024997,201.64 184.20210627432346,217.96 203.5576428939723,217.96" stroke="none" /><polygon fill="#edca46" points="204.48418658024997,201.64 256,201.64 184.20210627432346,217.96" stroke="none" /><polygon fill="#f2cf4c" points="256,201.64 255,217.96 184.20210627432346,217.96" stroke="none" /><polygon fill="#f8d95a" points="256,201.64 254.0,201.64 255,217.96" stroke="none" /><polygon fill="#f8d858" points="254.0,201.64 257.0,217.96 255,217.96" stroke="none" /><polygon fill="#f7d757" points="254.0,201.64 274.9902184285175,201.64 257.0,217.96" stroke="none" /><polygon fill="#f4d351" points="274.9902184285175,201.64 282.0333049294733,217.96 257.0,217.96" stroke="none" /><polygon fill="#f2d04d" points="274.9902184285175,201.64 288.61917178345504,201.64 282.0333049294733,217.96" stroke="none" /><polygon fill="#efcc48" points="288.61917178345504,201.64 295.4827783608924,217.96 282.0333049294733,217.96" stroke="none" /><polygon fill="#eecb47" points="288.61917178345504,201.64 296.522334467405,201.64 295.4827783608924,217.96" stroke="none" /><polygon fill="#ecc742" points="296.522334467405,201.64 309.4423571060277,217.96 295.4827783608924,217.96" stroke="none" /><polygon fill="#ebc741" points="296.522334467405,201.64 313.51581341975003,201.64 309.4423571060277,217.96" stroke="none" /><polygon fill="#e7c13b" points="313.51581341975003,201.64 325.79789372567654,217.96 309.4423571060277,217.96" stroke="none" /><polygon fill="#f5d452" points="256.0,217.96 233.96669507052673,217.96 254.0,232.24" stroke="none" /><polygon fill="#f3d24d" points="233.96669507052673,217.96 237.58821185623464,232.24 254.0,232.24" stroke="none" /><polygon fill="#efcd49" points="233.96669507052673,217.96 216.51722163910762,217.96 237.58821185623464,232.24" stroke="none" /><polygon fill="#edcb46" points="216.51722163910762,217.96 222.12473598974572,232.24 237.58821185623464,232.24" stroke="none" /><polygon fill="#eac742" points="216.51722163910762,217.96 203.5576428939723,217.96 222.12473598974572,232.24" stroke="none" /><polygon fill="#e9c540" points="203.5576428939723,217.96 210.75395529655455,232.24 222.12473598974572,232.24" stroke="none" /><polygon fill="#e6c13b" points="203.5576428939723,217.96 184.20210627432346,217.96 210.75395529655455,232.24" stroke="none" /><polygon fill="#e4bf3a" points="184.20210627432346,217.96 195.14609653404432,232.24 210.75395529655455,232.24" stroke="none" /><polygon fill="#e9c541" points="184.20210627432346,217.96 255,217.96 195.14609653404432,232.24" stroke="none" /><polygon fill="#f0cf4a" points="255,217.96 254,232.24 195.14609653404432,232.24" stroke="none" /><polygon fill="#f7d755" points="255,217.96 257.0,217.96 254,232.24" stroke="none" /><polygon fill="#f7d753" points="257.0,217.96 258.0,232.24 254,232.24" stroke="none" /><polygon fill="#f4d451" points="257.0,217.96 282.0333049294733,217.96 258.0,232.24" stroke="none" /><polygon fill="#f2d04c" points="282.0333049294733,217.96 279.41178814376536,232.24 258.0,232.24" stroke="none" /><polygon fill="#eecb48" points="282.0333049294733,217.96 295.4827783608924,217.96 279.41178814376536,232.24" stroke="none" /><polygon fill="#edca45" points="295.4827783608924,217.96 290.8752640102543,232.24 279.41178814376536,232.24" stroke="none" /><polygon fill="#eac642" points="295.4827783608924,217.96 309.4423571060277,217.96 290.8752640102543,232.24" stroke="none" /><polygon fill="#e9c540" points="309.4423571060277,217.96 303.2460447034454,232.24 290.8752640102543,232.24" stroke="none" /><polygon fill="#e6c03b" points="309.4423571060277,217.96 325.79789372567654,217.96 303.2460447034454,232.24" stroke="none" /><polygon fill="#e4be39" points="325.79789372567654,217.96 319.8539034659557,232.24 303.2460447034454,232.24" stroke="none" /><polygon fill="#f5d34e" points="254.0,232.24 237.58821185623464,232.24 257.0,248.56" stroke="none" /><polygon fill="#f2d04a" points="237.58821185623464,232.24 239.79578573767452,248.56 257.0,248.56" stroke="none" /><polygon fill="#efcc47" points="237.58821185623464,232.24 222.12473598974572,232.24 239.79578573767452,248.56" stroke="none" /><polygon fill="#edc944" points="222.12473598974572,232.24 224.76229008439765,248.56 239.79578573767452,248.56" stroke="none" /><polygon fill="#eac542" points="222.12473598974572,232.24 210.75395529655455,232.24 224.76229008439765,248.56" stroke="none" /><polygon fill="#e8c33f" points="210.75395529655455,232.24 212.33549356177616,248.56 224.76229008439765,248.56" stroke="none" /><polygon fill="#e6c03c" points="210.75395529655455,232.24 195.14609653404432,232.24 212.33549356177616,248.56" stroke="none" /><polygon fill="#e4be3a" points="195.14609653404432,232.24 203.8660173868925,248.56 212.33549356177616,248.56" stroke="none" /><polygon fill="#eac541" points="195.14609653404432,232.24 254,232.24 203.8660173868925,248.56" stroke="none" /><polygon fill="#f0cd47" points="254,232.24 253,248.56 203.8660173868925,248.56" stroke="none" /><polygon fill="#f7d550" points="254,232.24 258.0,232.24 253,248.56" stroke="none" /><polygon fill="#f7d64f" points="258.0,232.24 257.0,248.56 253,248.56" stroke="none" /><polygon fill="#f4d24d" points="258.0,232.24 279.41178814376536,232.24 257.0,248.56" stroke="none" /><polygon fill="#f1cf49" points="279.41178814376536,232.24 274.2042142623255,248.56 257.0,248.56" stroke="none" /><polygon fill="#eeca46" points="279.41178814376536,232.24 290.8752640102543,232.24 274.2042142623255,248.56" stroke="none" /><polygon fill="#ecc943" points="290.8752640102543,232.24 289.23770991560235,248.56 274.2042142623255,248.56" stroke="none" /><polygon fill="#eac541" points="290.8752640102543,232.24 303.2460447034454,232.24 289.23770991560235,248.56" stroke="none" /><polygon fill="#e8c33f" points="303.2460447034454,232.24 297.66450643822384,248.56 289.23770991560235,248.56" stroke="none" /><polygon fill="#e5bf3c" points="303.2460447034454,232.24 319.8539034659557,232.24 297.66450643822384,248.56" stroke="none" /><polygon fill="#e4be3a" points="319.8539034659557,232.24 305.1339826131075,248.56 297.66450643822384,248.56" stroke="none" /><polygon fill="#f5d249" points="257.0,248.56 239.79578573767452,248.56 259.0,265.9" stroke="none" /><polygon fill="#f2ce47" points="239.79578573767452,248.56 243.92449878355737,265.9 259.0,265.9" stroke="none" /><polygon fill="#eeca44" points="239.79578573767452,248.56 224.76229008439765,248.56 243.92449878355737,265.9" stroke="none" /><polygon fill="#ecc842" points="224.76229008439765,248.56 231.7763918014039,265.9 243.92449878355737,265.9" stroke="none" /><polygon fill="#e9c43f" points="224.76229008439765,248.56 212.33549356177616,248.56 231.7763918014039,265.9" stroke="none" /><polygon fill="#e8c33e" points="212.33549356177616,248.56 224.45790621568108,265.9 231.7763918014039,265.9" stroke="none" /><polygon fill="#e5c03c" points="212.33549356177616,248.56 203.8660173868925,248.56 224.45790621568108,265.9" stroke="none" /><polygon fill="#e5bf3b" points="203.8660173868925,248.56 216.407572071386,265.9 224.45790621568108,265.9" stroke="none" /><polygon fill="#eac540" points="203.8660173868925,248.56 253,248.56 216.407572071386,265.9" stroke="none" /><polygon fill="#f0cc45" points="253,248.56 257,265.9 216.407572071386,265.9" stroke="none" /><polygon fill="#f6d34a" points="253,248.56 257.0,248.56 257,265.9" stroke="none" /><polygon fill="#f6d34a" points="257.0,248.56 254.0,265.9 257,265.9" stroke="none" /><polygon fill="#f4d149" points="257.0,248.56 274.2042142623255,248.56 254.0,265.9" stroke="none" /><polygon fill="#f2ce46" points="274.2042142623255,248.56 266.0755012164426,265.9 254.0,265.9" stroke="none" /><polygon fill="#eeca43" points="274.2042142623255,248.56 289.23770991560235,248.56 266.0755012164426,265.9" stroke="none" /><polygon fill="#ecc842" points="289.23770991560235,248.56 280.22360819859614,265.9 266.0755012164426,265.9" stroke="none" /><polygon fill="#e9c43f" points="289.23770991560235,248.56 297.66450643822384,248.56 280.22360819859614,265.9" stroke="none" /><polygon fill="#e9c33f" points="297.66450643822384,248.56 285.5420937843189,265.9 280.22360819859614,265.9" stroke="none" /><polygon fill="#e6c13d" points="297.66450643822384,248.56 305.1339826131075,248.56 285.5420937843189,265.9" stroke="none" /><polygon fill="#e6c03c" points="305.1339826131075,248.56 292.59242792861403,265.9 285.5420937843189,265.9" stroke="none" /><polygon fill="#f4d045" points="259.0,265.9 243.92449878355737,265.9 257.0,283.24" stroke="none" /><polygon fill="#f2cd42" points="243.92449878355737,265.9 248.26534068393897,283.24 257.0,283.24" stroke="none" /><polygon fill="#efca41" points="243.92449878355737,265.9 231.7763918014039,265.9 248.26534068393897,283.24" stroke="none" /><polygon fill="#edc83f" points="231.7763918014039,265.9 239.40575029298364,283.24 248.26534068393897,283.24" stroke="none" /><polygon fill="#ebc53e" points="231.7763918014039,265.9 224.45790621568108,265.9 239.40575029298364,283.24" stroke="none" /><polygon fill="#eac53d" points="224.45790621568108,265.9 235.71807798021936,283.24 239.40575029298364,283.24" stroke="none" /><polygon fill="#e8c23c" points="224.45790621568108,265.9 216.407572071386,265.9 235.71807798021936,283.24" stroke="none" /><polygon fill="#e8c23b" points="216.407572071386,265.9 230.56163843617867,283.24 235.71807798021936,283.24" stroke="none" /><polygon fill="#ecc73f" points="216.407572071386,265.9 257,265.9 230.56163843617867,283.24" stroke="none" /><polygon fill="#f1cc41" points="257,265.9 254,283.24 230.56163843617867,283.24" stroke="none" /><polygon fill="#f5d145" points="257,265.9 254.0,265.9 254,283.24" stroke="none" /><polygon fill="#f4cf43" points="254.0,265.9 254.0,283.24 254,283.24" stroke="none" /><polygon fill="#f5d045" points="254.0,265.9 266.0755012164426,265.9 254.0,283.24" stroke="none" /><polygon fill="#f2cd42" points="266.0755012164426,265.9 265.734659316061,283.24 254.0,283.24" stroke="none" /><polygon fill="#efca41" points="266.0755012164426,265.9 280.22360819859614,265.9 265.734659316061,283.24" stroke="none" /><polygon fill="#edc83f" points="280.22360819859614,265.9 271.5942497070164,283.24 265.734659316061,283.24" stroke="none" /><polygon fill="#ebc63f" points="280.22360819859614,265.9 285.5420937843189,265.9 271.5942497070164,283.24" stroke="none" /><polygon fill="#ebc53d" points="285.5420937843189,265.9 277.2819220197806,283.24 271.5942497070164,283.24" stroke="none" /><polygon fill="#e8c33d" points="285.5420937843189,265.9 292.59242792861403,265.9 277.2819220197806,283.24" stroke="none" /><polygon fill="#e9c33c" points="292.59242792861403,265.9 277.43836156382133,283.24 277.2819220197806,283.24" stroke="none" /><polygon fill="#f3ce3f" points="257.0,283.24 248.26534068393897,283.24 255.0,301.6" stroke="none" /><polygon fill="#f1cc3e" points="248.26534068393897,283.24 245.50000155159444,301.6 255.0,301.6" stroke="none" /><polygon fill="#efc93d" points="248.26534068393897,283.24 239.40575029298364,283.24 245.50000155159444,301.6" stroke="none" /><polygon fill="#eec83c" points="239.40575029298364,283.24 241.81818454522661,301.6 245.50000155159444,301.6" stroke="none" /><polygon fill="#ecc63b" points="239.40575029298364,283.24 235.71807798021936,283.24 241.81818454522661,301.6" stroke="none" /><polygon fill="#ecc63b" points="235.71807798021936,283.24 236.27273094013233,301.6 241.81818454522661,301.6" stroke="none" /><polygon fill="#eac43a" points="235.71807798021936,283.24 230.56163843617867,283.24 236.27273094013233,301.6" stroke="none" /><polygon fill="#e9c33a" points="230.56163843617867,283.24 233.27273197452863,301.6 236.27273094013233,301.6" stroke="none" /><polygon fill="#ecc63b" points="230.56163843617867,283.24 254,283.24 233.27273197452863,301.6" stroke="none" /><polygon fill="#f0cb3d" points="254,283.24 255,301.6 233.27273197452863,301.6" stroke="none" /><polygon fill="#f4cf3f" points="254,283.24 254.0,283.24 255,301.6" stroke="none" /><polygon fill="#f4cf3f" points="254.0,283.24 254.0,301.6 255,301.6" stroke="none" /><polygon fill="#f4ce3f" points="254.0,283.24 265.734659316061,283.24 254.0,301.6" stroke="none" /><polygon fill="#f2cd3e" points="265.734659316061,283.24 264.49999844840556,301.6 254.0,301.6" stroke="none" /><polygon fill="#efc93d" points="265.734659316061,283.24 271.5942497070164,283.24 264.49999844840556,301.6" stroke="none" /><polygon fill="#efc93d" points="271.5942497070164,283.24 268.1818154547734,301.6 264.49999844840556,301.6" stroke="none" /><polygon fill="#ecc73c" points="271.5942497070164,283.24 277.2819220197806,283.24 268.1818154547734,301.6" stroke="none" /><polygon fill="#ecc63b" points="277.2819220197806,283.24 273.7272690598677,301.6 268.1818154547734,301.6" stroke="none" /><polygon fill="#ebc53b" points="277.2819220197806,283.24 277.43836156382133,283.24 273.7272690598677,301.6" stroke="none" /><polygon fill="#eac43a" points="277.43836156382133,283.24 280.72726802547135,301.6 273.7272690598677,301.6" stroke="none" /><polygon fill="#f3ce3f" points="255.0,301.6 245.50000155159444,301.6 257.0,322.0" stroke="none" /><polygon fill="#f1cc3e" points="245.50000155159444,301.6 247.08,322.0 257.0,322.0" stroke="none" /><polygon fill="#efc93d" points="245.50000155159444,301.6 241.81818454522661,301.6 247.08,322.0" stroke="none" /><polygon fill="#efc93d" points="241.81818454522661,301.6 243.08,322.0 247.08,322.0" stroke="none" /><polygon fill="#edc73c" points="241.81818454522661,301.6 236.27273094013233,301.6 243.08,322.0" stroke="none" /><polygon fill="#ecc63b" points="236.27273094013233,301.6 236.28,322.0 243.08,322.0" stroke="none" /><polygon fill="#eac43b" points="236.27273094013233,301.6 233.27273197452863,301.6 236.28,322.0" stroke="none" /><polygon fill="#eac43a" points="233.27273197452863,301.6 232.0,322.0 236.28,322.0" stroke="none" /><polygon fill="#edc73c" points="233.27273197452863,301.6 255,301.6 232.0,322.0" stroke="none" /><polygon fill="#f1cb3e" points="255,301.6 257,322.0 232.0,322.0" stroke="none" /><polygon fill="#f4cf3f" points="255,301.6 254.0,301.6 257,322.0" stroke="none" /><polygon fill="#f4cf3f" points="254.0,301.6 255.0,322.0 257,322.0" stroke="none" /><polygon fill="#f4cf3f" points="254.0,301.6 264.49999844840556,301.6 255.0,322.0" stroke="none" /><polygon fill="#f2cd3e" points="264.49999844840556,301.6 262.92,322.0 255.0,322.0" stroke="none" /><polygon fill="#f0cb3d" points="264.49999844840556,301.6 268.1818154547734,301.6 262.92,322.0" stroke="none" /><polygon fill="#efca3d" points="268.1818154547734,301.6 268.92,322.0 262.92,322.0" stroke="none" /><polygon fill="#edc83c" points="268.1818154547734,301.6 273.7272690598677,301.6 268.92,322.0" stroke="none" /><polygon fill="#edc73c" points="273.7272690598677,301.6 273.72,322.0 268.92,322.0" stroke="none" /><polygon fill="#ebc53b" points="273.7272690598677,301.6 280.72726802547135,301.6 273.72,322.0" stroke="none" /><polygon fill="#eac43a" points="280.72726802547135,301.6 279.0,322.0 273.72,322.0" stroke="none" /><path d="M 237 206 L 226 218 L 237 230 Z" fill="#f5d040" stroke="#d4ac30" stroke-width="1" /><path d="M 275 206 L 286 218 L 275 230 Z" fill="#f5d040" stroke="#d4ac30" stroke-width="1" /><path d="M 207 212 A 24 16 0 0 0 255 212 Z" fill="#e8e0d8" stroke="#3a2a1a" stroke-width="1.5" /><path d="M 223 214 A 8 8 0 0 0 239 214 Z" fill="#3a2a1a" stroke="none" /><circle cx="235" cy="210" fill="white" r="4" stroke="none" /><circle cx="229" cy="214" fill="white" r="2" stroke="none" /><path d="M 205 212 Q 231 207 257 212" fill="none" stroke="#3a2a1a" stroke-width="4" /><line stroke="#3a2a1a" stroke-width="2" x1="219" x2="219" y1="211" y2="207" /><line stroke="#3a2a1a" stroke-width="2" x1="231" x2="231" y1="211" y2="207" /><line stroke="#3a2a1a" stroke-width="2" x1="243" x2="243" y1="211" y2="207" /><path d="M 257 211 A 24 16 0 0 0 305 211 Z" fill="#e8e0d8" stroke="#3a2a1a" stroke-width="1.5" /><path d="M 273 213 A 8 8 0 0 0 289 213 Z" fill="#3a2a1a" stroke="none" /><circle cx="285" cy="209" fill="white" r="4" stroke="none" /><circle cx="279" cy="213" fill="white" r="2" stroke="none" /><path d="M 255 211 Q 281 206 307 211" fill="none" stroke="#3a2a1a" stroke-width="4" /><line stroke="#3a2a1a" stroke-width="2" x1="269" x2="269" y1="210" y2="206" /><line stroke="#3a2a1a" stroke-width="2" x1="281" x2="281" y1="210" y2="206" /><line stroke="#3a2a1a" stroke-width="2" x1="293" x2="293" y1="210" y2="206" /><line stroke="#3a2a1a" stroke-width="7" x1="215" x2="247" y1="202" y2="202" /><line stroke="#3a2a1a" stroke-width="7" x1="266" x2="296" y1="201" y2="201" /><path d="M 209 228 A 9 6 0 0 0 227 228 Z" fill="#e88060" fill-opacity="0.28810506935602526" stroke="none" /><path d="M 282 227 A 9 6 0 0 0 300 227 Z" fill="#e88060" fill-opacity="0.28105209360974714" stroke="none" /><path d="M 252 228 Q 256 224 260 228" fill="none" stroke="#d4ac30" stroke-width="2" /><path d="M 238 246 A 18 14 0 0 0 274 246 Z" fill="#a04030" stroke="#c06050" stroke-width="2" /><path d="M 249 251 A 7 4 0 0 0 263 251 Z" fill="#e06060" stroke="none" /><ellipse cx="256" cy="175" fill="white" fill-opacity="0.10" rx="5" ry="4" stroke="none" /><ellipse cx="236" cy="210" fill="white" fill-opacity="0.10" rx="5" ry="4" stroke="none" /><ellipse cx="276" cy="210" fill="white" fill-opacity="0.10" rx="5" ry="4" stroke="none" /><polygon fill="#b89824" points="237,318.0 275,318.0 275,353.0 237,353.0" stroke="none" /></svg>