<?xml version="1.0" encoding="utf-8" ?>
<svg baseProfile="full" height="512" version="1.1" width="512" xmlns="http://www.w3.org/2000/svg" xmlns:ev="http://www.w3.org/2001/xml-events" xmlns:xlink="http://www.w3.org/1999/xlink"><defs /><polygon fill="#f9dd5a" points="255.0,121.0 254.3764,121.0 253.0,142.78" stroke="none" /><polygon fill="#f9dc56" points="254.3764,121.0 241.26058597295048,142.78 253.0,142.78" stroke="none" /><polygon fill="#f9dc57" points="254.3764,121.0 254.1464,121.0 241.26058597295048,142.78" stroke="none" /><polygon fill="#f8d94f" points="254.1464,121.0 225.33678746760992,142.78 241.26058597295048,142.78" stroke="none" /><polygon fill="#f8da52" points="254.1464,121.0 253.1624,121.0 225.33678746760992,142.78" stroke="none" /><polygon fill="#f7d648" points="253.1624,121.0 216.79774866333747,142.78 225.33678746760992,142.78" stroke="none" /><polygon fill="#f8d94e" points="253.1624,121.0 250.08,121.0 216.79774866333747,142.78" stroke="none" /><polygon fill="#f6d441" points="250.08,121.0 205.3048059786378,142.78 216.79774866333747,142.78" stroke="none" /><polygon fill="#f8d84c" points="250.08,121.0 257,121.0 205.3048059786378,142.78" stroke="none" /><polygon fill="#f8d94e" points="257,121.0 255,142.78 205.3048059786378,142.78" stroke="none" /><polygon fill="#fade5c" points="257,121.0 256.0,121.0 255,142.78" stroke="none" /><polygon fill="#f9dd5b" points="256.0,121.0 258.0,142.78 255,142.78" stroke="none" /><polygon fill="#f9dd5b" points="256.0,121.0 257.6236,121.0 258.0,142.78" stroke="none" /><polygon fill="#f9dc56" points="257.6236,121.0 271.7394140270495,142.78 258.0,142.78" stroke="none" /><polygon fill="#f9dc56" points="257.6236,121.0 258.8536,121.0 271.7394140270495,142.78" stroke="none" /><polygon fill="#f8d94e" points="258.8536,121.0 285.66321253239005,142.78 271.7394140270495,142.78" stroke="none" /><polygon fill="#f8da52" points="258.8536,121.0 259.8376,121.0 285.66321253239005,142.78" stroke="none" /><polygon fill="#f7d749" points="259.8376,121.0 290.2022513366625,142.78 285.66321253239005,142.78" stroke="none" /><polygon fill="#f8d950" points="259.8376,121.0 260.92,121.0 290.2022513366625,142.78" stroke="none" /><polygon fill="#f7d544" points="260.92,121.0 301.6951940213622,142.78 290.2022513366625,142.78" stroke="none" /><polygon fill="#f9dc56" points="253.0,142.78 241.26058597295048,142.78 255.0,165.55" stroke="none" /><polygon fill="#f7d84f" points="241.26058597295048,142.78 233.90962976195888,165.55 255.0,165.55" stroke="none" /><polygon fill="#f7d749" points="241.26058597295048,142.78 225.33678746760992,142.78 233.90962976195888,165.55" stroke="none" /><polygon fill="#f5d240" points="225.33678746760992,142.78 214.17450079374592,165.55 233.90962976195888,165.55" stroke="none" /><polygon fill="#f6d33d" points="225.33678746760992,142.78 216.79774866333747,142.78 214.17450079374592,165.55" stroke="none" /><polygon fill="#f3ce36" points="216.79774866333747,142.78 204.78639761917555,165.55 214.17450079374592,165.55" stroke="none" /><polygon fill="#f5d035" points="216.79774866333747,142.78 205.3048059786378,142.78 204.78639761917555,165.55" stroke="none" /><polygon fill="#f2cb2d" points="205.3048059786378,142.78 192.05948412714815,165.55 204.78639761917555,165.55" stroke="none" /><polygon fill="#f6d23c" points="205.3048059786378,142.78 255,142.78 192.05948412714815,165.55" stroke="none" /><polygon fill="#f6d547" points="255,142.78 256,165.55 192.05948412714815,165.55" stroke="none" /><polygon fill="#f9dd5b" points="255,142.78 258.0,142.78 256,165.55" stroke="none" /><polygon fill="#f8db57" points="258.0,142.78 258.0,165.55 256,165.55" stroke="none" /><polygon fill="#f9dc56" points="258.0,142.78 271.7394140270495,142.78 258.0,165.55" stroke="none" /><polygon fill="#f7d74e" points="271.7394140270495,142.78 279.0903702380411,165.55 258.0,165.55" stroke="none" /><polygon fill="#f7d749" points="271.7394140270495,142.78 285.66321253239005,142.78 279.0903702380411,165.55" stroke="none" /><polygon fill="#f5d240" points="285.66321253239005,142.78 295.82549920625405,165.55 279.0903702380411,165.55" stroke="none" /><polygon fill="#f6d33f" points="285.66321253239005,142.78 290.2022513366625,142.78 295.82549920625405,165.55" stroke="none" /><polygon fill="#f4ce37" points="290.2022513366625,142.78 309.21360238082445,165.55 295.82549920625405,165.55" stroke="none" /><polygon fill="#f5d137" points="290.2022513366625,142.78 301.6951940213622,142.78 309.21360238082445,165.55" stroke="none" /><polygon fill="#f2ca2c" points="301.6951940213622,142.78 325.94051587285185,165.55 309.21360238082445,165.55" stroke="none" /><polygon fill="#f6d74d" points="255.0,165.55 233.90962976195888,165.55 254.0,185.35" stroke="none" /><polygon fill="#f4d345" points="233.90962976195888,165.55 232.27484916437396,185.35 254.0,185.35" stroke="none" /><polygon fill="#f3d03e" points="233.90962976195888,165.55 214.17450079374592,165.55 232.27484916437396,185.35" stroke="none" /><polygon fill="#f1cd38" points="214.17450079374592,165.55 219.81640156162695,185.35 232.27484916437396,185.35" stroke="none" /><polygon fill="#f1cb34" points="214.17450079374592,165.55 204.78639761917555,165.55 219.81640156162695,185.35" stroke="none" /><polygon fill="#efc82f" points="204.78639761917555,165.55 202.64964347942936,185.35 219.81640156162695,185.35" stroke="none" /><polygon fill="#eec72a" points="204.78639761917555,165.55 192.05948412714815,165.55 202.64964347942936,185.35" stroke="none" /><polygon fill="#ecc325" points="192.05948412714815,165.55 188.166209589012,185.35 202.64964347942936,185.35" stroke="none" /><polygon fill="#f0cb33" points="192.05948412714815,165.55 256,165.55 188.166209589012,185.35" stroke="none" /><polygon fill="#f3d03f" points="256,165.55 254,185.35 188.166209589012,185.35" stroke="none" /><polygon fill="#f8da53" points="256,165.55 258.0,165.55 254,185.35" stroke="none" /><polygon fill="#f8d950" points="258.0,165.55 256.0,185.35 254,185.35" stroke="none" /><polygon fill="#f6d74d" points="258.0,165.55 279.0903702380411,165.55 256.0,185.35" stroke="none" /><polygon fill="#f5d345" points="279.0903702380411,165.55 276.72515083562604,185.35 256.0,185.35" stroke="none" /><polygon fill="#f3d03f" points="279.0903702380411,165.55 295.82549920625405,165.55 276.72515083562604,185.35" stroke="none" /><polygon fill="#f1cd38" points="295.82549920625405,165.55 297.18359843837305,185.35 276.72515083562604,185.35" stroke="none" /><polygon fill="#f0ca32" points="295.82549920625405,165.55 309.21360238082445,165.55 297.18359843837305,185.35" stroke="none" /><polygon fill="#eec82e" points="309.21360238082445,165.55 306.35035652057064,185.35 297.18359843837305,185.35" stroke="none" /><polygon fill="#eec629" points="309.21360238082445,165.55 325.94051587285185,165.55 306.35035652057064,185.35" stroke="none" /><polygon fill="#ecc325" points="325.94051587285185,165.55 321.833790410988,185.35 306.35035652057064,185.35" stroke="none" /><polygon fill="#f5d445" points="254.0,185.35 232.27484916437396,185.35 257.0,202.18" stroke="none" /><polygon fill="#f3d03f" points="232.27484916437396,185.35 230.0695822457431,202.18 257.0,202.18" stroke="none" /><polygon fill="#f0cc38" points="232.27484916437396,185.35 219.81640156162695,185.35 230.0695822457431,202.18" stroke="none" /><polygon fill="#eec833" points="219.81640156162695,185.35 210.18290212888184,202.18 230.0695822457431,202.18" stroke="none" /><polygon fill="#edc62e" points="219.81640156162695,185.35 202.64964347942936,185.35 210.18290212888184,202.18" stroke="none" /><polygon fill="#eac128" points="202.64964347942936,185.35 195.0735580353928,202.18 210.18290212888184,202.18" stroke="none" /><polygon fill="#e9c024" points="202.64964347942936,185.35 188.166209589012,185.35 195.0735580353928,202.18" stroke="none" /><polygon fill="#e7bc20" points="188.166209589012,185.35 180.45327953255492,202.18 195.0735580353928,202.18" stroke="none" /><polygon fill="#ecc42c" points="188.166209589012,185.35 254,185.35 180.45327953255492,202.18" stroke="none" /><polygon fill="#f0cc39" points="254,185.35 256,202.18 180.45327953255492,202.18" stroke="none" /><polygon fill="#f6d74a" points="254,185.35 256.0,185.35 256,202.18" stroke="none" /><polygon fill="#f7d749" points="256.0,185.35 256.0,202.18 256,202.18" stroke="none" /><polygon fill="#f5d546" points="256.0,185.35 276.72515083562604,185.35 256.0,202.18" stroke="none" /><polygon fill="#f3d140" points="276.72515083562604,185.35 277.9304177542569,202.18 256.0,202.18" stroke="none" /><polygon fill="#f0cc39" points="276.72515083562604,185.35 297.18359843837305,185.35 277.9304177542569,202.18" stroke="none" /><polygon fill="#eec833" points="297.18359843837305,185.35 301.81709787111816,202.18 277.9304177542569,202.18" stroke="none" /><polygon fill="#ecc52e" points="297.18359843837305,185.35 306.35035652057064,185.35 301.81709787111816,202.18" stroke="none" /><polygon fill="#eac229" points="306.35035652057064,185.35 315.9264419646072,202.18 301.81709787111816,202.18" stroke="none" /><polygon fill="#eac026" points="306.35035652057064,185.35 321.833790410988,185.35 315.9264419646072,202.18" stroke="none" /><polygon fill="#e7bc20" points="321.833790410988,185.35 332.5467204674451,202.18 315.9264419646072,202.18" stroke="none" /><polygon fill="#f4d140" points="257.0,202.18 230.0695822457431,202.18 258.0,218.02" stroke="none" /><polygon fill="#f1cd38" points="230.0695822457431,202.18 227.79928299258307,218.02 258.0,218.02" stroke="none" /><polygon fill="#edc632" points="230.0695822457431,202.18 210.18290212888184,202.18 227.79928299258307,218.02" stroke="none" /><polygon fill="#eac22c" points="210.18290212888184,202.18 206.95025495666118,218.02 227.79928299258307,218.02" stroke="none" /><polygon fill="#e8be28" points="210.18290212888184,202.18 195.0735580353928,202.18 206.95025495666118,218.02" stroke="none" /><polygon fill="#e6bc24" points="195.0735580353928,202.18 196.07103252792365,218.02 206.95025495666118,218.02" stroke="none" /><polygon fill="#e4b920" points="195.0735580353928,202.18 180.45327953255492,202.18 196.07103252792365,218.02" stroke="none" /><polygon fill="#e3b71e" points="180.45327953255492,202.18 175.60388785631238,218.02 196.07103252792365,218.02" stroke="none" /><polygon fill="#e8be28" points="180.45327953255492,202.18 256,202.18 175.60388785631238,218.02" stroke="none" /><polygon fill="#eec934" points="256,202.18 259,218.02 175.60388785631238,218.02" stroke="none" /><polygon fill="#f6d444" points="256,202.18 256.0,202.18 259,218.02" stroke="none" /><polygon fill="#f5d441" points="256.0,202.18 255.0,218.02 259,218.02" stroke="none" /><polygon fill="#f5d241" points="256.0,202.18 277.9304177542569,202.18 255.0,218.02" stroke="none" /><polygon fill="#f1cd39" points="277.9304177542569,202.18 284.2007170074169,218.02 255.0,218.02" stroke="none" /><polygon fill="#eec733" points="277.9304177542569,202.18 301.81709787111816,202.18 284.2007170074169,218.02" stroke="none" /><polygon fill="#eac32c" points="301.81709787111816,202.18 304.0497450433388,218.02 284.2007170074169,218.02" stroke="none" /><polygon fill="#e8bf28" points="301.81709787111816,202.18 315.9264419646072,202.18 304.0497450433388,218.02" stroke="none" /><polygon fill="#e6bc24" points="315.9264419646072,202.18 314.92896747207635,218.02 304.0497450433388,218.02" stroke="none" /><polygon fill="#e4b920" points="315.9264419646072,202.18 332.5467204674451,202.18 314.92896747207635,218.02" stroke="none" /><polygon fill="#e3b71e" points="332.5467204674451,202.18 338.3961121436876,218.02 314.92896747207635,218.02" stroke="none" /><polygon fill="#f3ce39" points="258.0,218.02 227.79928299258307,218.02 255.0,231.88" stroke="none" /><polygon fill="#efc934" points="227.79928299258307,218.02 230.21867931464578,231.88 255.0,231.88" stroke="none" /><polygon fill="#eac32d" points="227.79928299258307,218.02 206.95025495666118,218.02 230.21867931464578,231.88" stroke="none" /><polygon fill="#e8bf2a" points="206.95025495666118,218.02 209.44495152271077,231.88 230.21867931464578,231.88" stroke="none" /><polygon fill="#e5bb24" points="206.95025495666118,218.02 196.07103252792365,218.02 209.44495152271077,231.88" stroke="none" /><polygon fill="#e3b722" points="196.07103252792365,218.02 195.42596928916277,231.88 209.44495152271077,231.88" stroke="none" /><polygon fill="#e0b41d" points="196.07103252792365,218.02 175.60388785631238,218.02 195.42596928916277,231.88" stroke="none" /><polygon fill="#dfb21d" points="175.60388785631238,218.02 181.90508883225993,231.88 195.42596928916277,231.88" stroke="none" /><polygon fill="#e5bc25" points="175.60388785631238,218.02 259,218.02 181.90508883225993,231.88" stroke="none" /><polygon fill="#eec631" points="259,218.02 256,231.88 181.90508883225993,231.88" stroke="none" /><polygon fill="#f5d23d" points="259,218.02 255.0,218.02 256,231.88" stroke="none" /><polygon fill="#f5d13c" points="255.0,218.02 256.0,231.88 256,231.88" stroke="none" /><polygon fill="#f3ce39" points="255.0,218.02 284.2007170074169,218.02 256.0,231.88" stroke="none" /><polygon fill="#efc934" points="284.2007170074169,218.02 283.7813206853542,231.88 256.0,231.88" stroke="none" /><polygon fill="#eac32d" points="284.2007170074169,218.02 304.0497450433388,218.02 283.7813206853542,231.88" stroke="none" /><polygon fill="#e8bf2a" points="304.0497450433388,218.02 298.55504847728923,231.88 283.7813206853542,231.88" stroke="none" /><polygon fill="#e5bc25" points="304.0497450433388,218.02 314.92896747207635,218.02 298.55504847728923,231.88" stroke="none" /><polygon fill="#e4b924" points="314.92896747207635,218.02 314.57403071083723,231.88 298.55504847728923,231.88" stroke="none" /><polygon fill="#e0b41d" points="314.92896747207635,218.02 338.3961121436876,218.02 314.57403071083723,231.88" stroke="none" /><polygon fill="#dfb21d" points="338.3961121436876,218.02 332.09491116774007,231.88 314.57403071083723,231.88" stroke="none" /><polygon fill="#f1cc34" points="255.0,231.88 230.21867931464578,231.88 253.0,247.72" stroke="none" /><polygon fill="#edc62e" points="230.21867931464578,231.88 227.75379538308957,247.72 253.0,247.72" stroke="none" /><polygon fill="#e9c02a" points="230.21867931464578,231.88 209.44495152271077,231.88 227.75379538308957,247.72" stroke="none" /><polygon fill="#e6bc27" points="209.44495152271077,231.88 212.62788279452107,247.72 227.75379538308957,247.72" stroke="none" /><polygon fill="#e3b823" points="209.44495152271077,231.88 195.42596928916277,231.88 212.62788279452107,247.72" stroke="none" /><polygon fill="#e0b421" points="195.42596928916277,231.88 195.32715272366627,247.72 212.62788279452107,247.72" stroke="none" /><polygon fill="#deb01d" points="195.42596928916277,231.88 181.90508883225993,231.88 195.32715272366627,247.72" stroke="none" /><polygon fill="#dbae1c" points="181.90508883225993,231.88 177.49634964572599,247.72 195.32715272366627,247.72" stroke="none" /><polygon fill="#e3b723" points="181.90508883225993,231.88 256,231.88 177.49634964572599,247.72" stroke="none" /><polygon fill="#ebc32c" points="256,231.88 257,247.72 177.49634964572599,247.72" stroke="none" /><polygon fill="#f4d038" points="256,231.88 256.0,231.88 257,247.72" stroke="none" /><polygon fill="#f4cf35" points="256.0,231.88 258.0,247.72 257,247.72" stroke="none" /><polygon fill="#f1cc34" points="256.0,231.88 283.7813206853542,231.88 258.0,247.72" stroke="none" /><polygon fill="#eec72f" points="283.7813206853542,231.88 280.2462046169104,247.72 258.0,247.72" stroke="none" /><polygon fill="#e9c12b" points="283.7813206853542,231.88 298.55504847728923,231.88 280.2462046169104,247.72" stroke="none" /><polygon fill="#e7be28" points="298.55504847728923,231.88 297.3721172054789,247.72 280.2462046169104,247.72" stroke="none" /><polygon fill="#e4b924" points="298.55504847728923,231.88 314.57403071083723,231.88 297.3721172054789,247.72" stroke="none" /><polygon fill="#e1b522" points="314.57403071083723,231.88 313.67284727633375,247.72 297.3721172054789,247.72" stroke="none" /><polygon fill="#deb11d" points="314.57403071083723,231.88 332.09491116774007,231.88 313.67284727633375,247.72" stroke="none" /><polygon fill="#dbae1c" points="332.09491116774007,231.88 334.503650354274,247.72 313.67284727633375,247.72" stroke="none" /><polygon fill="#efc92e" points="253.0,247.72 227.75379538308957,247.72 256.0,264.55" stroke="none" /><polygon fill="#ecc42a" points="227.75379538308957,247.72 230.657622866417,264.55 256.0,264.55" stroke="none" /><polygon fill="#e7bd27" points="227.75379538308957,247.72 212.62788279452107,247.72 230.657622866417,264.55" stroke="none" /><polygon fill="#e4b923" points="212.62788279452107,247.72 211.97400382582381,264.55 230.657622866417,264.55" stroke="none" /><polygon fill="#e0b421" points="212.62788279452107,247.72 195.32715272366627,247.72 211.97400382582381,264.55" stroke="none" /><polygon fill="#ddb11e" points="195.32715272366627,247.72 200.82710859334927,264.55 211.97400382582381,264.55" stroke="none" /><polygon fill="#daab1c" points="195.32715272366627,247.72 177.49634964572599,247.72 200.82710859334927,264.55" stroke="none" /><polygon fill="#d7a91a" points="177.49634964572599,247.72 185.26552383762726,264.55 200.82710859334927,264.55" stroke="none" /><polygon fill="#e0b421" points="177.49634964572599,247.72 257,247.72 185.26552383762726,264.55" stroke="none" /><polygon fill="#eac128" points="257,247.72 258,264.55 185.26552383762726,264.55" stroke="none" /><polygon fill="#f3ce31" points="257,247.72 258.0,247.72 258,264.55" stroke="none" /><polygon fill="#f3cd2f" points="258.0,247.72 254.0,264.55 258,264.55" stroke="none" /><polygon fill="#f0ca2f" points="258.0,247.72 280.2462046169104,247.72 254.0,264.55" stroke="none" /><polygon fill="#edc52b" points="280.2462046169104,247.72 279.342377133583,264.55 254.0,264.55" stroke="none" /><polygon fill="#e8be28" points="280.2462046169104,247.72 297.3721172054789,247.72 279.342377133583,264.55" stroke="none" /><polygon fill="#e4ba24" points="297.3721172054789,247.72 300.02599617417616,264.55 279.342377133583,264.55" stroke="none" /><polygon fill="#e1b521" points="297.3721172054789,247.72 313.67284727633375,247.72 300.02599617417616,264.55" stroke="none" /><polygon fill="#ddb11f" points="313.67284727633375,247.72 311.17289140665076,264.55 300.02599617417616,264.55" stroke="none" /><polygon fill="#daac1c" points="313.67284727633375,247.72 334.503650354274,247.72 311.17289140665076,264.55" stroke="none" /><polygon fill="#d7a91a" points="334.503650354274,247.72 323.73447616237274,264.55 311.17289140665076,264.55" stroke="none" /><polygon fill="#eec628" points="256.0,264.55 230.657622866417,264.55 253.0,281.38" stroke="none" /><polygon fill="#ebc125" points="230.657622866417,264.55 234.33790183818869,281.38 253.0,281.38" stroke="none" /><polygon fill="#e5ba23" points="230.657622866417,264.55 211.97400382582381,264.55 234.33790183818869,281.38" stroke="none" /><polygon fill="#e3b721" points="211.97400382582381,264.55 219.6847971701498,281.38 234.33790183818869,281.38" stroke="none" /><polygon fill="#deb21f" points="211.97400382582381,264.55 200.82710859334927,264.55 219.6847971701498,281.38" stroke="none" /><polygon fill="#dcaf1d" points="200.82710859334927,264.55 205.16231343571872,281.38 219.6847971701498,281.38" stroke="none" /><polygon fill="#d8aa1b" points="200.82710859334927,264.55 185.26552383762726,264.55 205.16231343571872,281.38" stroke="none" /><polygon fill="#d6a71a" points="185.26552383762726,264.55 192.3875813278445,281.38 205.16231343571872,281.38" stroke="none" /><polygon fill="#deb21f" points="185.26552383762726,264.55 258,264.55 192.3875813278445,281.38" stroke="none" /><polygon fill="#e9bf24" points="258,264.55 255,281.38 192.3875813278445,281.38" stroke="none" /><polygon fill="#f2cb2a" points="258,264.55 254.0,264.55 255,281.38" stroke="none" /><polygon fill="#f2ca28" points="254.0,264.55 254.0,281.38 255,281.38" stroke="none" /><polygon fill="#f0c829" points="254.0,264.55 279.342377133583,264.55 254.0,281.38" stroke="none" /><polygon fill="#ebc225" points="279.342377133583,264.55 279.66209816181134,281.38 254.0,281.38" stroke="none" /><polygon fill="#e5ba23" points="279.342377133583,264.55 300.02599617417616,264.55 279.66209816181134,281.38" stroke="none" /><polygon fill="#e2b720" points="300.02599617417616,264.55 293.3152028298502,281.38 279.66209816181134,281.38" stroke="none" /><polygon fill="#deb21f" points="300.02599617417616,264.55 311.17289140665076,264.55 293.3152028298502,281.38" stroke="none" /><polygon fill="#dcaf1d" points="311.17289140665076,264.55 305.8376865642813,281.38 293.3152028298502,281.38" stroke="none" /><polygon fill="#d8ab1b" points="311.17289140665076,264.55 323.73447616237274,264.55 305.8376865642813,281.38" stroke="none" /><polygon fill="#d6a81a" points="323.73447616237274,264.55 321.6124186721555,281.38 305.8376865642813,281.38" stroke="none" /><polygon fill="#eec422" points="253.0,281.38 234.33790183818869,281.38 253.0,299.2" stroke="none" /><polygon fill="#ecc221" points="234.33790183818869,281.38 244.80953407195747,299.2 253.0,299.2" stroke="none" /><polygon fill="#e7bb1f" points="234.33790183818869,281.38 219.6847971701498,281.38 244.80953407195747,299.2" stroke="none" /><polygon fill="#e7bb1f" points="219.6847971701498,281.38 233.81675685374344,299.2 244.80953407195747,299.2" stroke="none" /><polygon fill="#e0b31d" points="219.6847971701498,281.38 205.16231343571872,281.38 233.81675685374344,299.2" stroke="none" /><polygon fill="#e1b51e" points="205.16231343571872,281.38 227.8225350791722,299.2 233.81675685374344,299.2" stroke="none" /><polygon fill="#daac1b" points="205.16231343571872,281.38 192.3875813278445,281.38 227.8225350791722,299.2" stroke="none" /><polygon fill="#dcaf1c" points="192.3875813278445,281.38 216.02889112714385,299.2 227.8225350791722,299.2" stroke="none" /><polygon fill="#e1b41d" points="192.3875813278445,281.38 255,281.38 216.02889112714385,299.2" stroke="none" /><polygon fill="#ecc221" points="255,281.38 258,299.2 216.02889112714385,299.2" stroke="none" /><polygon fill="#f2c923" points="255,281.38 254.0,281.38 258,299.2" stroke="none" /><polygon fill="#f2c923" points="254.0,281.38 257.0,299.2 258,299.2" stroke="none" /><polygon fill="#efc522" points="254.0,281.38 279.66209816181134,281.38 257.0,299.2" stroke="none" /><polygon fill="#ecc221" points="279.66209816181134,281.38 267.19046592804256,299.2 257.0,299.2" stroke="none" /><polygon fill="#e6bb1f" points="279.66209816181134,281.38 293.3152028298502,281.38 267.19046592804256,299.2" stroke="none" /><polygon fill="#e6bb1f" points="293.3152028298502,281.38 280.1832431462566,299.2 267.19046592804256,299.2" stroke="none" /><polygon fill="#dfb31d" points="293.3152028298502,281.38 305.8376865642813,281.38 280.1832431462566,299.2" stroke="none" /><polygon fill="#e1b51e" points="305.8376865642813,281.38 284.1774649208278,299.2 280.1832431462566,299.2" stroke="none" /><polygon fill="#daac1b" points="305.8376865642813,281.38 321.6124186721555,281.38 284.1774649208278,299.2" stroke="none" /><polygon fill="#dcaf1c" points="321.6124186721555,281.38 293.9711088728562,299.2 284.1774649208278,299.2" stroke="none" /><polygon fill="#f0c723" points="253.0,299.2 244.80953407195747,299.2 257.0,319.0" stroke="none" /><polygon fill="#f1c723" points="244.80953407195747,299.2 255.3764,319.0 257.0,319.0" stroke="none" /><polygon fill="#edc322" points="244.80953407195747,299.2 233.81675685374344,299.2 255.3764,319.0" stroke="none" /><polygon fill="#eec422" points="233.81675685374344,299.2 253.1464,319.0 255.3764,319.0" stroke="none" /><polygon fill="#e9bf20" points="233.81675685374344,299.2 227.8225350791722,299.2 253.1464,319.0" stroke="none" /><polygon fill="#edc322" points="227.8225350791722,299.2 253.1624,319.0 253.1464,319.0" stroke="none" /><polygon fill="#e6bb1f" points="227.8225350791722,299.2 216.02889112714385,299.2 253.1624,319.0" stroke="none" /><polygon fill="#eac021" points="216.02889112714385,299.2 251.08,319.0 253.1624,319.0" stroke="none" /><polygon fill="#ebc121" points="216.02889112714385,299.2 258,299.2 251.08,319.0" stroke="none" /><polygon fill="#f2c923" points="258,299.2 257,319.0 251.08,319.0" stroke="none" /><polygon fill="#f2c923" points="258,299.2 257.0,299.2 257,319.0" stroke="none" /><polygon fill="#f2c923" points="257.0,299.2 256.0,319.0 257,319.0" stroke="none" /><polygon fill="#f0c723" points="257.0,299.2 267.19046592804256,299.2 256.0,319.0" stroke="none" /><polygon fill="#f0c723" points="267.19046592804256,299.2 256.6236,319.0 256.0,319.0" stroke="none" /><polygon fill="#ecc221" points="267.19046592804256,299.2 280.1832431462566,299.2 256.6236,319.0" stroke="none" /><polygon fill="#eec422" points="280.1832431462566,299.2 258.8536,319.0 256.6236,319.0" stroke="none" /><polygon fill="#e9be20" points="280.1832431462566,299.2 284.1774649208278,299.2 258.8536,319.0" stroke="none" /><polygon fill="#edc322" points="284.1774649208278,299.2 258.8376,319.0 258.8536,319.0" stroke="none" /><polygon fill="#e7bb1f" points="284.1774649208278,299.2 293.9711088728562,299.2 258.8376,319.0" stroke="none" /><polygon fill="#ebc021" points="293.9711088728562,299.2 259.92,319.0 258.8376,319.0" stroke="none" /><path d="M 237 207 A 6 24 0 0 0 237 231 Z" fill="#f3ca24" stroke="#d0a018" stroke-width="1" /><path d="M 275 207 A 6 24 0 0 1 275 231 Z" fill="#f3ca24" stroke="#d0a018" stroke-width="1" /><path d="M 206 212 Q 230 194 254 212 Q 230 230 206 212" fill="#e8e0d8" stroke="#3a2a1a" stroke-width="1.5" /><path d="M 224 214 A 6 6 0 0 0 236 214 Z" fill="#3a2a1a" stroke="none" /><circle cx="232" cy="211" fill="white" r="2" stroke="none" /><path d="M 204 212 Q 230 207 256 212" fill="none" stroke="#3a2a1a" stroke-width="4" /><line stroke="#3a2a1a" stroke-width="2" x1="218" x2="218" y1="211" y2="207" /><line stroke="#3a2a1a" stroke-width="2" x1="230" x2="230" y1="211" y2="207" /><line stroke="#3a2a1a" stroke-width="2" x1="242" x2="242" y1="211" y2="207" /><path d="M 258 212 Q 282 194 306 212 Q 282 230 258 212" fill="#e8e0d8" stroke="#3a2a1a" stroke-width="1.5" /><path d="M 276 214 A 6 6 0 0 0 288 214 Z" fill="#3a2a1a" stroke="none" /><circle cx="284" cy="211" fill="white" r="2" stroke="none" /><path d="M 256 212 Q 282 207 308 212" fill="none" stroke="#3a2a1a" stroke-width="4" /><line stroke="#3a2a1a" stroke-width="4" x1="213" x2="239" y1="200" y2="208" /><line stroke="#3a2a1a" stroke-width="4" x1="263" x2="292" y1="197" y2="205" /><path d="M 212 229 A 8 5 0 0 0 228 229 Z" fill="#e88060" fill-opacity="0.2028060605350001" stroke="none" /><path d="M 283 226 A 9 6 0 0 0 301 226 Z" fill="#e88060" fill-opacity="0.25217711629871475" stroke="none" /><path d="M 252 229 Q 256 225 260 229" fill="none" stroke="#d0a018" stroke-width="2" /><path d="M 236 241 Q 256 252 276 241" fill="none" stroke="#c06050" stroke-width="3" /><path d="M 234 239 Q 256 255 278 239" fill="none" stroke="#a04030" stroke-width="1.5" /><path d="M 234 241 Q 256 249 278 241" fill="none" stroke="#f0a0a0" stroke-width="1" /><circle cx="228" cy="183" fill="#d0a018" fill-opacity="0.15" r="1.9109066124399032" stroke="none" /><circle cx="305" cy="182" fill="#d0a018" fill-opacity="0.15" r="1.793515886712042" stroke="none" /><circle cx="295" cy="241" fill="#d0a018" fill-opacity="0.15" r="2.0351961807034087" stroke="none" /><circle cx="251" cy="161" fill="#d0a018" fill-opacity="0.15" r="1.071256081480103" stroke="none" /><circle cx="251" cy="205" fill="#d0a018" fill-opacity="0.15" r="0.915389078202175" stroke="none" /><circle cx="261" cy="265" fill="#d0a018" fill-opacity="0.15" r="1.5387613155741593" stroke="none" /><circle cx="212" cy="265" fill="#d0a018" fill-opacity="0.15" r="1.1380667704665646" stroke="none" /><circle cx="292" cy="235" fill="#d0a018" fill-opacity="0.15" r="1.41958461281099" stroke="none" /><circle cx="253" cy="175" fill="#d0a018" fill-opacity="0.15" r="0.7836051197269798" stroke="none" /><circle cx="291" cy="180" fill="#d0a018" fill-opacity="0.15" r="2.732510784490329" stroke="none" /><circle cx="311" cy="250" fill="#d0a018" fill-opacity="0.15" r="2.582705314957293" stroke="none" /><circle cx="303" cy="223" fill="#d0a018" fill-opacity="0.15" r="0.9249180544971345" stroke="none" /><circle cx="205" cy="185" fill="#d0a018" fill-opacity="0.15" r="0.7542002726439052" stroke="none" /><circle cx="210" cy="164" fill="#d0a018" fill-opacity="0.15" r="0.8304036380992029" stroke="none" /><circle cx="208" cy="209" fill="#d0a018" fill-opacity="0.15" r="1.8224553570643214" stroke="none" /><circle cx="282" cy="187" fill="#d0a018" fill-opacity="0.15" r="0.8358932109169812" stroke="none" /><circle cx="305" cy="212" fill="#d0a018" fill-opacity="0.15" r="1.392988890847387" stroke="none" /><circle cx="287" cy="180" fill="#d0a018" fill-opacity="0.15" r="1.483514452574518" stroke="none" /><circle cx="207" cy="164" fill="#d0a018" fill-opacity="0.15" r="0.814973859782927" stroke="none" /><circle cx="208" cy="257" fill="#d0a018" fill-opacity="0.15" r="2.20178742365596" stroke="none" /><circle cx="225" cy="178" fill="#d0a018" fill-opacity="0.15" r="1.2078756919395839" stroke="none" /><circle cx="201" cy="208" fill="#d0a018" fill-opacity="0.15" r="1.2485867083433961" stroke="none" /><circle cx="282" cy="248" fill="#d0a018" fill-opacity="0.15" r="2.4071552529435363" stroke="none" /><circle cx="244" cy="172" fill="#d0a018" fill-opacity="0.15" r="2.4659968502487626" stroke="none" /><circle cx="293" cy="243" fill="#d0a018" fill-opacity="0.15" r="0.841780581686911" stroke="none" /><circle cx="262" cy="166" fill="#d0a018" fill-opacity="0.15" r="1.4875816128363184" stroke="none" /><circle cx="203" cy="231" fill="#d0a018" fill-opacity="0.15" r="2.4611458067182115" stroke="none" /><circle cx="257" cy="164" fill="#d0a018" fill-opacity="0.15" r="0.9503692990380193" stroke="none" /><circle cx="209" cy="247" fill="#d0a018" fill-opacity="0.15" r="1.7130697356741713" stroke="none" /><circle cx="301" cy="198" fill="#d0a018" fill-opacity="0.15" r="1.7756265464257357" stroke="none" /><circle cx="249" cy="179" fill="#d0a018" fill-opacity="0.15" r="2.4174125375114204" stroke="none" /><circle cx="207" cy="227" fill="#d0a018" fill-opacity="0.15" r="2.4853017317927435" stroke="none" /><circle cx="212" cy="230" fill="#d0a018" fill-opacity="0.15" r="2.7158951290661397" stroke="none" /><circle cx="255" cy="181" fill="#d0a018" fill-opacity="0.15" r="0.9015291245979059" stroke="none" /><circle cx="218" cy="250" fill="#d0a018" fill-opacity="0.15" r="0.8134660888519076" stroke="none" /><circle cx="263" cy="188" fill="#d0a018" fill-opacity="0.15" r="2.448946558325755" stroke="none" /><circle cx="301" cy="258" fill="#d0a018" fill-opacity="0.15" r="1.1058600802997849" stroke="none" /><circle cx="277" cy="256" fill="#d0a018" fill-opacity="0.15" r="1.7304736478987919" stroke="none" /><circle cx="295" cy="234" fill="#d0a018" fill-opacity="0.15" r="0.7820744195984588" stroke="none" /><circle cx="278" cy="164" fill="#d0a018" fill-opacity="0.15" r="1.1813325737373006" stroke="none" /><circle cx="302" cy="165" fill="#d0a018" fill-opacity="0.15" r="1.4075842930763935" stroke="none" /><circle cx="276" cy="163" fill="#d0a018" fill-opacity="0.15" r="1.1771757346526879" stroke="none" /><polygon fill="#b48c14" points="233,315.0 279,315.0 279,350.0 233,350.0" stroke="none" /><path d="M 253 333.0 Q 256 323.0 259 333.0" fill="none" stroke="#d0a018" stroke-width="1.5" /></svg>