<?xml version="1.0" encoding="utf-8" ?>
<svg baseProfile="full" height="512" version="1.1" width="512" xmlns="http://www.w3.org/2000/svg" xmlns:ev="http://www.w3.org/2001/xml-events" xmlns:xlink="http://www.w3.org/1999/xlink"><defs /><polygon fill="#fcdf65" points="257.0,87.5 253.0101,87.5 255.0,116.64999999999999" stroke="none" /><polygon fill="#fcde61" points="253.0101,87.5 240.10954009212514,116.64999999999999 255.0,116.64999999999999" stroke="none" /><polygon fill="#fcde61" points="253.0101,87.5 253.5026,87.5 240.10954009212514,116.64999999999999" stroke="none" /><polygon fill="#fbdc5c" points="253.5026,87.5 230.07131288918967,116.64999999999999 240.10954009212514,116.64999999999999" stroke="none" /><polygon fill="#fbdd5e" points="253.5026,87.5 251.2966,87.5 230.07131288918967,116.64999999999999" stroke="none" /><polygon fill="#fada56" points="251.2966,87.5 215.44073112684129,116.64999999999999 230.07131288918967,116.64999999999999" stroke="none" /><polygon fill="#fbdc5b" points="251.2966,87.5 250.97,87.5 215.44073112684129,116.64999999999999" stroke="none" /><polygon fill="#f9d851" points="250.97,87.5 204.84709118825805,116.64999999999999 215.44073112684129,116.64999999999999" stroke="none" /><polygon fill="#fbdb59" points="250.97,87.5 255,87.5 204.84709118825805,116.64999999999999" stroke="none" /><polygon fill="#fbdb5a" points="255,87.5 254,116.64999999999999 204.84709118825805,116.64999999999999" stroke="none" /><polygon fill="#fcdf65" points="255,87.5 255.0,87.5 254,116.64999999999999" stroke="none" /><polygon fill="#fcdf65" points="255.0,87.5 258.0,116.64999999999999 254,116.64999999999999" stroke="none" /><polygon fill="#fcdf65" points="255.0,87.5 256.9899,87.5 258.0,116.64999999999999" stroke="none" /><polygon fill="#fcde61" points="256.9899,87.5 271.89045990787486,116.64999999999999 258.0,116.64999999999999" stroke="none" /><polygon fill="#fcde61" points="256.9899,87.5 259.4974,87.5 271.89045990787486,116.64999999999999" stroke="none" /><polygon fill="#fbdc5c" points="259.4974,87.5 280.9286871108103,116.64999999999999 271.89045990787486,116.64999999999999" stroke="none" /><polygon fill="#fbdd5e" points="259.4974,87.5 260.7034,87.5 280.9286871108103,116.64999999999999" stroke="none" /><polygon fill="#fada57" points="260.7034,87.5 295.5592688731587,116.64999999999999 280.9286871108103,116.64999999999999" stroke="none" /><polygon fill="#fbdc5b" points="260.7034,87.5 261.03,87.5 295.5592688731587,116.64999999999999" stroke="none" /><polygon fill="#fad952" points="261.03,87.5 302.15290881174195,116.64999999999999 295.5592688731587,116.64999999999999" stroke="none" /><polygon fill="#fcde62" points="255.0,116.64999999999999 240.10954009212514,116.64999999999999 258.0,147.125" stroke="none" /><polygon fill="#fadc5b" points="240.10954009212514,116.64999999999999 235.6848818764371,147.125 258.0,147.125" stroke="none" /><polygon fill="#fbdb58" points="240.10954009212514,116.64999999999999 230.07131288918967,116.64999999999999 235.6848818764371,147.125" stroke="none" /><polygon fill="#f8d751" points="230.07131288918967,116.64999999999999 217.77948935858643,147.125 235.6848818764371,147.125" stroke="none" /><polygon fill="#f9d84f" points="230.07131288918967,116.64999999999999 215.44073112684129,116.64999999999999 217.77948935858643,147.125" stroke="none" /><polygon fill="#f7d448" points="215.44073112684129,116.64999999999999 206.25517534430588,147.125 217.77948935858643,147.125" stroke="none" /><polygon fill="#f8d547" points="215.44073112684129,116.64999999999999 204.84709118825805,116.64999999999999 206.25517534430588,147.125" stroke="none" /><polygon fill="#f6d140" points="204.84709118825805,116.64999999999999 191.37842992859726,147.125 206.25517534430588,147.125" stroke="none" /><polygon fill="#f9d74c" points="204.84709118825805,116.64999999999999 254,116.64999999999999 191.37842992859726,147.125" stroke="none" /><polygon fill="#f9d955" points="254,116.64999999999999 256,147.125 191.37842992859726,147.125" stroke="none" /><polygon fill="#fde066" points="254,116.64999999999999 258.0,116.64999999999999 256,147.125" stroke="none" /><polygon fill="#fbde62" points="258.0,116.64999999999999 255.0,147.125 256,147.125" stroke="none" /><polygon fill="#fcde62" points="258.0,116.64999999999999 271.89045990787486,116.64999999999999 255.0,147.125" stroke="none" /><polygon fill="#fadc5b" points="271.89045990787486,116.64999999999999 275.3151181235629,147.125 255.0,147.125" stroke="none" /><polygon fill="#fbdb59" points="271.89045990787486,116.64999999999999 280.9286871108103,116.64999999999999 275.3151181235629,147.125" stroke="none" /><polygon fill="#f8d751" points="280.9286871108103,116.64999999999999 296.22051064141357,147.125 275.3151181235629,147.125" stroke="none" /><polygon fill="#f9d84f" points="280.9286871108103,116.64999999999999 295.5592688731587,116.64999999999999 296.22051064141357,147.125" stroke="none" /><polygon fill="#f7d347" points="295.5592688731587,116.64999999999999 309.7448246556941,147.125 296.22051064141357,147.125" stroke="none" /><polygon fill="#f8d548" points="295.5592688731587,116.64999999999999 302.15290881174195,116.64999999999999 309.7448246556941,147.125" stroke="none" /><polygon fill="#f6d140" points="302.15290881174195,116.64999999999999 320.62157007140274,147.125 309.7448246556941,147.125" stroke="none" /><polygon fill="#fadb5a" points="258.0,147.125 235.6848818764371,147.125 259.0,173.625" stroke="none" /><polygon fill="#f8d752" points="235.6848818764371,147.125 230.39512646828314,173.625 259.0,173.625" stroke="none" /><polygon fill="#f6d54c" points="235.6848818764371,147.125 217.77948935858643,147.125 230.39512646828314,173.625" stroke="none" /><polygon fill="#f5d146" points="217.77948935858643,147.125 208.23991924728554,173.625 230.39512646828314,173.625" stroke="none" /><polygon fill="#f4d043" points="217.77948935858643,147.125 206.25517534430588,147.125 208.23991924728554,173.625" stroke="none" /><polygon fill="#f2cc3c" points="206.25517534430588,147.125 192.11575347048745,173.625 208.23991924728554,173.625" stroke="none" /><polygon fill="#f2cc3a" points="206.25517534430588,147.125 191.37842992859726,147.125 192.11575347048745,173.625" stroke="none" /><polygon fill="#f0c733" points="191.37842992859726,147.125 173.37917111600956,173.625 192.11575347048745,173.625" stroke="none" /><polygon fill="#f3cf40" points="191.37842992859726,147.125 256,147.125 173.37917111600956,173.625" stroke="none" /><polygon fill="#f6d44c" points="256,147.125 259,173.625 173.37917111600956,173.625" stroke="none" /><polygon fill="#fadc5c" points="256,147.125 255.0,147.125 259,173.625" stroke="none" /><polygon fill="#fadb5a" points="255.0,147.125 253.0,173.625 259,173.625" stroke="none" /><polygon fill="#fadb5a" points="255.0,147.125 275.3151181235629,147.125 253.0,173.625" stroke="none" /><polygon fill="#f8d853" points="275.3151181235629,147.125 279.60487353171686,173.625 253.0,173.625" stroke="none" /><polygon fill="#f7d54d" points="275.3151181235629,147.125 296.22051064141357,147.125 279.60487353171686,173.625" stroke="none" /><polygon fill="#f5d145" points="296.22051064141357,147.125 304.76008075271443,173.625 279.60487353171686,173.625" stroke="none" /><polygon fill="#f4cf41" points="296.22051064141357,147.125 309.7448246556941,147.125 304.76008075271443,173.625" stroke="none" /><polygon fill="#f2cc3b" points="309.7448246556941,147.125 319.88424652951255,173.625 304.76008075271443,173.625" stroke="none" /><polygon fill="#f2cc3a" points="309.7448246556941,147.125 320.62157007140274,147.125 319.88424652951255,173.625" stroke="none" /><polygon fill="#f0c834" points="320.62157007140274,147.125 333.62082888399044,173.625 319.88424652951255,173.625" stroke="none" /><polygon fill="#f8d752" points="259.0,173.625 230.39512646828314,173.625 257.0,196.15" stroke="none" /><polygon fill="#f6d249" points="230.39512646828314,173.625 220.62358119919784,196.15 257.0,196.15" stroke="none" /><polygon fill="#f3cf43" points="230.39512646828314,173.625 208.23991924728554,173.625 220.62358119919784,196.15" stroke="none" /><polygon fill="#f1ca3c" points="208.23991924728554,173.625 199.09599119859013,196.15 220.62358119919784,196.15" stroke="none" /><polygon fill="#efc939" points="208.23991924728554,173.625 192.11575347048745,173.625 199.09599119859013,196.15" stroke="none" /><polygon fill="#edc432" points="192.11575347048745,173.625 176.47391919810397,196.15 199.09599119859013,196.15" stroke="none" /><polygon fill="#ecc32f" points="192.11575347048745,173.625 173.37917111600956,173.625 176.47391919810397,196.15" stroke="none" /><polygon fill="#eabf2a" points="173.37917111600956,173.625 159.8896399975692,196.15 176.47391919810397,196.15" stroke="none" /><polygon fill="#efc837" points="173.37917111600956,173.625 259,173.625 159.8896399975692,196.15" stroke="none" /><polygon fill="#f3cf44" points="259,173.625 254,196.15 159.8896399975692,196.15" stroke="none" /><polygon fill="#f9d955" points="259,173.625 253.0,173.625 254,196.15" stroke="none" /><polygon fill="#f9d852" points="253.0,173.625 254.0,196.15 254,196.15" stroke="none" /><polygon fill="#f8d852" points="253.0,173.625 279.60487353171686,173.625 254.0,196.15" stroke="none" /><polygon fill="#f6d34b" points="279.60487353171686,173.625 287.3764188008022,196.15 254.0,196.15" stroke="none" /><polygon fill="#f3cf44" points="279.60487353171686,173.625 304.76008075271443,173.625 287.3764188008022,196.15" stroke="none" /><polygon fill="#f1cb3d" points="304.76008075271443,173.625 310.9040088014099,196.15 287.3764188008022,196.15" stroke="none" /><polygon fill="#efc939" points="304.76008075271443,173.625 319.88424652951255,173.625 310.9040088014099,196.15" stroke="none" /><polygon fill="#edc433" points="319.88424652951255,173.625 333.526080801896,196.15 310.9040088014099,196.15" stroke="none" /><polygon fill="#ecc430" points="319.88424652951255,173.625 333.62082888399044,173.625 333.526080801896,196.15" stroke="none" /><polygon fill="#eabf2a" points="333.62082888399044,173.625 354.1103600024308,196.15 333.526080801896,196.15" stroke="none" /><polygon fill="#f6d449" points="257.0,196.15 220.62358119919784,196.15 255.0,217.35" stroke="none" /><polygon fill="#f3cf42" points="220.62358119919784,196.15 223.29280597793888,217.35 255.0,217.35" stroke="none" /><polygon fill="#f0ca3c" points="220.62358119919784,196.15 199.09599119859013,196.15 223.29280597793888,217.35" stroke="none" /><polygon fill="#eec637" points="199.09599119859013,196.15 200.2722044460744,217.35 223.29280597793888,217.35" stroke="none" /><polygon fill="#ebc231" points="199.09599119859013,196.15 176.47391919810397,196.15 200.2722044460744,217.35" stroke="none" /><polygon fill="#e9bf2d" points="176.47391919810397,196.15 180.05572322058282,217.35 200.2722044460744,217.35" stroke="none" /><polygon fill="#e7bc29" points="176.47391919810397,196.15 159.8896399975692,196.15 180.05572322058282,217.35" stroke="none" /><polygon fill="#e6bb28" points="159.8896399975692,196.15 158.91759387254206,217.35 180.05572322058282,217.35" stroke="none" /><polygon fill="#ebc231" points="159.8896399975692,196.15 254,196.15 158.91759387254206,217.35" stroke="none" /><polygon fill="#f1cb3e" points="254,196.15 254,217.35 158.91759387254206,217.35" stroke="none" /><polygon fill="#f8d74e" points="254,196.15 254.0,196.15 254,217.35" stroke="none" /><polygon fill="#f8d64b" points="254.0,196.15 253.0,217.35 254,217.35" stroke="none" /><polygon fill="#f7d54b" points="254.0,196.15 287.3764188008022,196.15 253.0,217.35" stroke="none" /><polygon fill="#f4d044" points="287.3764188008022,196.15 287.7071940220611,217.35 253.0,217.35" stroke="none" /><polygon fill="#f0ca3d" points="287.3764188008022,196.15 310.9040088014099,196.15 287.7071940220611,217.35" stroke="none" /><polygon fill="#eec738" points="310.9040088014099,196.15 311.7277955539256,217.35 287.7071940220611,217.35" stroke="none" /><polygon fill="#ebc332" points="310.9040088014099,196.15 333.526080801896,196.15 311.7277955539256,217.35" stroke="none" /><polygon fill="#e9bf2e" points="333.526080801896,196.15 329.9442767794172,217.35 311.7277955539256,217.35" stroke="none" /><polygon fill="#e7bc29" points="333.526080801896,196.15 354.1103600024308,196.15 329.9442767794172,217.35" stroke="none" /><polygon fill="#e6bb28" points="354.1103600024308,196.15 351.08240612745794,217.35 329.9442767794172,217.35" stroke="none" /><polygon fill="#f5d244" points="255.0,217.35 223.29280597793888,217.35 259.0,235.9" stroke="none" /><polygon fill="#f3ce40" points="223.29280597793888,217.35 229.14176649740978,235.9 259.0,235.9" stroke="none" /><polygon fill="#eec839" points="223.29280597793888,217.35 200.2722044460744,217.35 229.14176649740978,235.9" stroke="none" /><polygon fill="#ecc436" points="200.2722044460744,217.35 204.5218926318111,235.9 229.14176649740978,235.9" stroke="none" /><polygon fill="#e8c030" points="200.2722044460744,217.35 180.05572322058282,217.35 204.5218926318111,235.9" stroke="none" /><polygon fill="#e6bc2d" points="180.05572322058282,217.35 185.42599353933218,235.9 204.5218926318111,235.9" stroke="none" /><polygon fill="#e3b828" points="180.05572322058282,217.35 158.91759387254206,217.35 185.42599353933218,235.9" stroke="none" /><polygon fill="#e2b627" points="158.91759387254206,217.35 168.52050453760535,235.9 185.42599353933218,235.9" stroke="none" /><polygon fill="#e8bf2f" points="158.91759387254206,217.35 254,217.35 168.52050453760535,235.9" stroke="none" /><polygon fill="#f0c93c" points="254,217.35 256,235.9 168.52050453760535,235.9" stroke="none" /><polygon fill="#f7d548" points="254,217.35 253.0,217.35 256,235.9" stroke="none" /><polygon fill="#f7d447" points="253.0,217.35 256.0,235.9 256,235.9" stroke="none" /><polygon fill="#f5d245" points="253.0,217.35 287.7071940220611,217.35 256.0,235.9" stroke="none" /><polygon fill="#f2cd3f" points="287.7071940220611,217.35 288.8582335025902,235.9 256.0,235.9" stroke="none" /><polygon fill="#edc738" points="287.7071940220611,217.35 311.7277955539256,217.35 288.8582335025902,235.9" stroke="none" /><polygon fill="#ebc335" points="311.7277955539256,217.35 307.4781073681889,235.9 288.8582335025902,235.9" stroke="none" /><polygon fill="#e8c030" points="311.7277955539256,217.35 329.9442767794172,217.35 307.4781073681889,235.9" stroke="none" /><polygon fill="#e7bd2e" points="329.9442767794172,217.35 324.5740064606678,235.9 307.4781073681889,235.9" stroke="none" /><polygon fill="#e4b928" points="329.9442767794172,217.35 351.08240612745794,217.35 324.5740064606678,235.9" stroke="none" /><polygon fill="#e2b627" points="351.08240612745794,217.35 343.47949546239465,235.9 324.5740064606678,235.9" stroke="none" /><polygon fill="#f5d041" points="259.0,235.9 229.14176649740978,235.9 256.0,257.1" stroke="none" /><polygon fill="#f1cb3b" points="229.14176649740978,235.9 229.55561149292933,257.1 256.0,257.1" stroke="none" /><polygon fill="#edc637" points="229.14176649740978,235.9 204.5218926318111,235.9 229.55561149292933,257.1" stroke="none" /><polygon fill="#eac233" points="204.5218926318111,235.9 204.76440807848184,257.1 229.55561149292933,257.1" stroke="none" /><polygon fill="#e7bd2f" points="204.5218926318111,235.9 185.42599353933218,235.9 204.76440807848184,257.1" stroke="none" /><polygon fill="#e4ba2c" points="185.42599353933218,235.9 188.13144534692384,257.1 204.76440807848184,257.1" stroke="none" /><polygon fill="#e2b729" points="185.42599353933218,235.9 168.52050453760535,235.9 188.13144534692384,257.1" stroke="none" /><polygon fill="#dfb326" points="168.52050453760535,235.9 169.83518634221008,257.1 188.13144534692384,257.1" stroke="none" /><polygon fill="#e7bd2f" points="168.52050453760535,235.9 256,235.9 169.83518634221008,257.1" stroke="none" /><polygon fill="#eec738" points="256,235.9 258,257.1 169.83518634221008,257.1" stroke="none" /><polygon fill="#f7d343" points="256,235.9 256.0,235.9 258,257.1" stroke="none" /><polygon fill="#f6d241" points="256.0,235.9 256.0,257.1 258,257.1" stroke="none" /><polygon fill="#f4cf40" points="256.0,235.9 288.8582335025902,235.9 256.0,257.1" stroke="none" /><polygon fill="#f1ca3a" points="288.8582335025902,235.9 284.4443885070707,257.1 256.0,257.1" stroke="none" /><polygon fill="#edc536" points="288.8582335025902,235.9 307.4781073681889,235.9 284.4443885070707,257.1" stroke="none" /><polygon fill="#eac132" points="307.4781073681889,235.9 307.23559192151816,257.1 284.4443885070707,257.1" stroke="none" /><polygon fill="#e7be2f" points="307.4781073681889,235.9 324.5740064606678,235.9 307.23559192151816,257.1" stroke="none" /><polygon fill="#e5ba2c" points="324.5740064606678,235.9 319.86855465307616,257.1 307.23559192151816,257.1" stroke="none" /><polygon fill="#e2b729" points="324.5740064606678,235.9 343.47949546239465,235.9 319.86855465307616,257.1" stroke="none" /><polygon fill="#e0b427" points="343.47949546239465,235.9 336.1648136577899,257.1 319.86855465307616,257.1" stroke="none" /><polygon fill="#f4cd3b" points="256.0,257.1 229.55561149292933,257.1 257.0,279.625" stroke="none" /><polygon fill="#f0c936" points="229.55561149292933,257.1 229.3605088598941,279.625 257.0,279.625" stroke="none" /><polygon fill="#ebc233" points="229.55561149292933,257.1 204.76440807848184,257.1 229.3605088598941,279.625" stroke="none" /><polygon fill="#e8be2e" points="204.76440807848184,257.1 207.93665193557146,279.625 229.3605088598941,279.625" stroke="none" /><polygon fill="#e5ba2c" points="204.76440807848184,257.1 188.13144534692384,257.1 207.93665193557146,279.625" stroke="none" /><polygon fill="#e3b72a" points="188.13144534692384,257.1 197.39756639611335,279.625 207.93665193557146,279.625" stroke="none" /><polygon fill="#e0b427" points="188.13144534692384,257.1 169.83518634221008,257.1 197.39756639611335,279.625" stroke="none" /><polygon fill="#ddb025" points="169.83518634221008,257.1 177.3045723027094,279.625 197.39756639611335,279.625" stroke="none" /><polygon fill="#e5ba2d" points="169.83518634221008,257.1 258,257.1 177.3045723027094,279.625" stroke="none" /><polygon fill="#eec633" points="258,257.1 259,279.625 177.3045723027094,279.625" stroke="none" /><polygon fill="#f6d03d" points="258,257.1 256.0,257.1 259,279.625" stroke="none" /><polygon fill="#f5d03a" points="256.0,257.1 254.0,279.625 259,279.625" stroke="none" /><polygon fill="#f4cd3b" points="256.0,257.1 284.4443885070707,257.1 254.0,279.625" stroke="none" /><polygon fill="#f0c936" points="284.4443885070707,257.1 278.6394911401059,279.625 254.0,279.625" stroke="none" /><polygon fill="#ecc333" points="284.4443885070707,257.1 307.23559192151816,257.1 278.6394911401059,279.625" stroke="none" /><polygon fill="#e9c02f" points="307.23559192151816,257.1 299.06334806442857,279.625 278.6394911401059,279.625" stroke="none" /><polygon fill="#e6bb2d" points="307.23559192151816,257.1 319.86855465307616,257.1 299.06334806442857,279.625" stroke="none" /><polygon fill="#e4b92b" points="319.86855465307616,257.1 314.60243360388665,279.625 299.06334806442857,279.625" stroke="none" /><polygon fill="#e1b529" points="319.86855465307616,257.1 336.1648136577899,257.1 314.60243360388665,279.625" stroke="none" /><polygon fill="#deb126" points="336.1648136577899,257.1 336.6954276972906,279.625 314.60243360388665,279.625" stroke="none" /><polygon fill="#f3cb35" points="257.0,279.625 229.3605088598941,279.625 258.0,302.15" stroke="none" /><polygon fill="#efc631" points="229.3605088598941,279.625 231.57770712092338,302.15 258.0,302.15" stroke="none" /><polygon fill="#eac02e" points="229.3605088598941,279.625 207.93665193557146,279.625 231.57770712092338,302.15" stroke="none" /><polygon fill="#e7bc2b" points="207.93665193557146,279.625 215.34869736404715,302.15 231.57770712092338,302.15" stroke="none" /><polygon fill="#e4b92a" points="207.93665193557146,279.625 197.39756639611335,279.625 215.34869736404715,302.15" stroke="none" /><polygon fill="#e2b628" points="197.39756639611335,279.625 202.3654895585462,302.15 215.34869736404715,302.15" stroke="none" /><polygon fill="#dfb227" points="197.39756639611335,279.625 177.3045723027094,279.625 202.3654895585462,302.15" stroke="none" /><polygon fill="#ddb025" points="177.3045723027094,279.625 194.0839609724951,302.15 202.3654895585462,302.15" stroke="none" /><polygon fill="#e5ba2b" points="177.3045723027094,279.625 259,279.625 194.0839609724951,302.15" stroke="none" /><polygon fill="#edc430" points="259,279.625 255,302.15 194.0839609724951,302.15" stroke="none" /><polygon fill="#f6cf37" points="259,279.625 254.0,279.625 255,302.15" stroke="none" /><polygon fill="#f4cd34" points="254.0,279.625 256.0,302.15 255,302.15" stroke="none" /><polygon fill="#f3cb35" points="254.0,279.625 278.6394911401059,279.625 256.0,302.15" stroke="none" /><polygon fill="#efc631" points="278.6394911401059,279.625 280.4222928790766,302.15 256.0,302.15" stroke="none" /><polygon fill="#ebc12f" points="278.6394911401059,279.625 299.06334806442857,279.625 280.4222928790766,302.15" stroke="none" /><polygon fill="#e8bd2c" points="299.06334806442857,279.625 295.65130263595285,302.15 280.4222928790766,302.15" stroke="none" /><polygon fill="#e5ba2b" points="299.06334806442857,279.625 314.60243360388665,279.625 295.65130263595285,302.15" stroke="none" /><polygon fill="#e3b729" points="314.60243360388665,279.625 305.6345104414538,302.15 295.65130263595285,302.15" stroke="none" /><polygon fill="#dfb327" points="314.60243360388665,279.625 336.6954276972906,279.625 305.6345104414538,302.15" stroke="none" /><polygon fill="#ddb025" points="336.6954276972906,279.625 321.9160390275049,302.15 305.6345104414538,302.15" stroke="none" /><polygon fill="#f1c82e" points="258.0,302.15 231.57770712092338,302.15 253.0,326.0" stroke="none" /><polygon fill="#efc52d" points="231.57770712092338,302.15 238.39613109044546,326.0 253.0,326.0" stroke="none" /><polygon fill="#eabf2a" points="231.57770712092338,302.15 215.34869736404715,302.15 238.39613109044546,326.0" stroke="none" /><polygon fill="#e9bf2a" points="215.34869736404715,302.15 228.3325940377526,326.0 238.39613109044546,326.0" stroke="none" /><polygon fill="#e4b928" points="215.34869736404715,302.15 202.3654895585462,302.15 228.3325940377526,326.0" stroke="none" /><polygon fill="#e5ba28" points="202.3654895585462,302.15 221.48176439559836,326.0 228.3325940377526,326.0" stroke="none" /><polygon fill="#e1b526" points="202.3654895585462,302.15 194.0839609724951,302.15 221.48176439559836,326.0" stroke="none" /><polygon fill="#e2b626" points="194.0839609724951,302.15 210.74585178922865,326.0 221.48176439559836,326.0" stroke="none" /><polygon fill="#e6bb29" points="194.0839609724951,302.15 255,302.15 210.74585178922865,326.0" stroke="none" /><polygon fill="#efc62d" points="255,302.15 259,326.0 210.74585178922865,326.0" stroke="none" /><polygon fill="#f4cc2f" points="255,302.15 256.0,302.15 259,326.0" stroke="none" /><polygon fill="#f4cc2f" points="256.0,302.15 256.0,326.0 259,326.0" stroke="none" /><polygon fill="#f1c92e" points="256.0,302.15 280.4222928790766,302.15 256.0,326.0" stroke="none" /><polygon fill="#efc62d" points="280.4222928790766,302.15 271.60386890955454,326.0 256.0,326.0" stroke="none" /><polygon fill="#eac02a" points="280.4222928790766,302.15 295.65130263595285,302.15 271.60386890955454,326.0" stroke="none" /><polygon fill="#eac02b" points="295.65130263595285,302.15 278.66740596224736,326.0 271.60386890955454,326.0" stroke="none" /><polygon fill="#e6bb28" points="295.65130263595285,302.15 305.6345104414538,302.15 278.66740596224736,326.0" stroke="none" /><polygon fill="#e7bc29" points="305.6345104414538,302.15 287.51823560440164,326.0 278.66740596224736,326.0" stroke="none" /><polygon fill="#e1b526" points="305.6345104414538,302.15 321.9160390275049,302.15 287.51823560440164,326.0" stroke="none" /><polygon fill="#e1b526" points="321.9160390275049,302.15 303.25414821077135,326.0 287.51823560440164,326.0" stroke="none" /><polygon fill="#f2c92e" points="253.0,326.0 238.39613109044546,326.0 256.0,352.5" stroke="none" /><polygon fill="#f2c92e" points="238.39613109044546,326.0 253.0101,352.5 256.0,352.5" stroke="none" /><polygon fill="#eec52c" points="238.39613109044546,326.0 228.3325940377526,326.0 253.0101,352.5" stroke="none" /><polygon fill="#f0c72d" points="228.3325940377526,326.0 253.5026,352.5 253.0101,352.5" stroke="none" /><polygon fill="#ecc22b" points="228.3325940377526,326.0 221.48176439559836,326.0 253.5026,352.5" stroke="none" /><polygon fill="#efc62d" points="221.48176439559836,326.0 252.2966,352.5 253.5026,352.5" stroke="none" /><polygon fill="#eabf2a" points="221.48176439559836,326.0 210.74585178922865,326.0 252.2966,352.5" stroke="none" /><polygon fill="#edc42c" points="210.74585178922865,326.0 250.97,352.5 252.2966,352.5" stroke="none" /><polygon fill="#eec52c" points="210.74585178922865,326.0 259,326.0 250.97,352.5" stroke="none" /><polygon fill="#f4cc2f" points="259,326.0 255,352.5 250.97,352.5" stroke="none" /><polygon fill="#f4cc2f" points="259,326.0 256.0,326.0 255,352.5" stroke="none" /><polygon fill="#f4cc2f" points="256.0,326.0 255.0,352.5 255,352.5" stroke="none" /><polygon fill="#f3ca2f" points="256.0,326.0 271.60386890955454,326.0 255.0,352.5" stroke="none" /><polygon fill="#f2ca2e" points="271.60386890955454,326.0 258.9899,352.5 255.0,352.5" stroke="none" /><polygon fill="#efc62d" points="271.60386890955454,326.0 278.66740596224736,326.0 258.9899,352.5" stroke="none" /><polygon fill="#f1c82e" points="278.66740596224736,326.0 260.4974,352.5 258.9899,352.5" stroke="none" /><polygon fill="#edc32c" points="278.66740596224736,326.0 287.51823560440164,326.0 260.4974,352.5" stroke="none" /><polygon fill="#efc62d" points="287.51823560440164,326.0 261.7034,352.5 260.4974,352.5" stroke="none" /><polygon fill="#e9bf2a" points="287.51823560440164,326.0 303.25414821077135,326.0 261.7034,352.5" stroke="none" /><polygon fill="#edc32c" points="303.25414821077135,326.0 262.03,352.5 261.7034,352.5" stroke="none" /><path d="M 231 202 A 8 33 0 0 0 231 234 Z" fill="#f5cd30" stroke="#d4a520" stroke-width="1" /><path d="M 281 202 A 8 33 0 0 1 281 234 Z" fill="#f5cd30" stroke="#d4a520" stroke-width="1" /><path d="M 194 209 Q 224 187 254 209 Q 224 231 194 209" fill="#e8e0d8" stroke="#3a2a1a" stroke-width="1.5" /><path d="M 216 212 A 8 8 0 0 0 232 212 Z" fill="#3a2a1a" stroke="none" /><circle cx="227" cy="208" fill="white" r="3" stroke="none" /><path d="M 192 209 Q 224 203 256 209" fill="none" stroke="#3a2a1a" stroke-width="5" /><path d="M 258 211 Q 288 189 318 211 Q 288 233 258 211" fill="#e8e0d8" stroke="#3a2a1a" stroke-width="1.5" /><path d="M 280 214 A 8 8 0 0 0 296 214 Z" fill="#3a2a1a" stroke="none" /><circle cx="291" cy="210" fill="white" r="3" stroke="none" /><path d="M 256 211 Q 288 205 320 211" fill="none" stroke="#3a2a1a" stroke-width="5" /><line stroke="#3a2a1a" stroke-width="2" x1="273" x2="273" y1="210" y2="205" /><line stroke="#3a2a1a" stroke-width="2" x1="288" x2="288" y1="210" y2="205" /><line stroke="#3a2a1a" stroke-width="2" x1="303" x2="303" y1="210" y2="205" /><line stroke="#3a2a1a" stroke-width="5" x1="206" x2="242" y1="194" y2="194" /><line stroke="#3a2a1a" stroke-width="5" x1="270" x2="306" y1="194" y2="194" /><path d="M 197 231 A 13 9 0 0 0 223 231 Z" fill="#e88060" fill-opacity="0.26399344235999533" stroke="none" /><path d="M 290 229 A 11 7 0 0 0 312 229 Z" fill="#e88060" fill-opacity="0.2883145620910876" stroke="none" /><polygon fill="#d4a520" points="256,217 259,230 256,231 253,230" stroke="none" /><path d="M 234 247 Q 239 252 245 247 Q 250 242 256 247 Q 261 252 267 247 Q 272 242 278 247" fill="none" stroke="#c06050" stroke-width="3" /><polygon fill="#b8911a" points="249,348.5 263,348.5 263,383.5 249,383.5" stroke="none" /></svg>