<?xml version="1.0" encoding="utf-8" ?>
<svg baseProfile="full" height="512" version="1.1" width="512" xmlns="http://www.w3.org/2000/svg" xmlns:ev="http://www.w3.org/2001/xml-events" xmlns:xlink="http://www.w3.org/1999/xlink"><defs /><polygon fill="#fce06a" points="256.0,162.0 244.803,162.0 258.0,174.76" stroke="none" /><polygon fill="#fbdf66" points="244.803,162.0 244.70650765696482,174.76 258.0,174.76" stroke="none" /><polygon fill="#fadc5f" points="244.803,162.0 238.078,162.0 244.70650765696482,174.76" stroke="none" /><polygon fill="#f9da5c" points="238.078,162.0 234.90840739708966,174.76 244.70650765696482,174.76" stroke="none" /><polygon fill="#f9d957" points="238.078,162.0 232.898,162.0 234.90840739708966,174.76" stroke="none" /><polygon fill="#f8d855" points="232.898,162.0 232.66992718918954,174.76 234.90840739708966,174.76" stroke="none" /><polygon fill="#f8d752" points="232.898,162.0 224.1,162.0 232.66992718918954,174.76" stroke="none" /><polygon fill="#f7d54e" points="224.1,162.0 221.8075989604994,174.76 232.66992718918954,174.76" stroke="none" /><polygon fill="#f8d856" points="224.1,162.0 256,162.0 221.8075989604994,174.76" stroke="none" /><polygon fill="#fadd61" points="256,162.0 256,174.76 221.8075989604994,174.76" stroke="none" /><polygon fill="#fde26e" points="256,162.0 256.0,162.0 256,174.76" stroke="none" /><polygon fill="#fce16d" points="256.0,162.0 255.0,174.76 256,174.76" stroke="none" /><polygon fill="#fce06a" points="256.0,162.0 267.197,162.0 255.0,174.76" stroke="none" /><polygon fill="#fbdf67" points="267.197,162.0 265.2934923430352,174.76 255.0,174.76" stroke="none" /><polygon fill="#fadc60" points="267.197,162.0 272.922,162.0 265.2934923430352,174.76" stroke="none" /><polygon fill="#fadb5d" points="272.922,162.0 275.09159260291034,174.76 265.2934923430352,174.76" stroke="none" /><polygon fill="#f9d958" points="272.922,162.0 281.102,162.0 275.09159260291034,174.76" stroke="none" /><polygon fill="#f8d856" points="281.102,162.0 278.33007281081046,174.76 275.09159260291034,174.76" stroke="none" /><polygon fill="#f8d752" points="281.102,162.0 286.9,162.0 278.33007281081046,174.76" stroke="none" /><polygon fill="#f7d54e" points="286.9,162.0 290.19240103950057,174.76 278.33007281081046,174.76" stroke="none" /><polygon fill="#fce16b" points="258.0,174.76 244.70650765696482,174.76 259.0,188.1" stroke="none" /><polygon fill="#fade64" points="244.70650765696482,174.76 245.4844612191498,188.1 259.0,188.1" stroke="none" /><polygon fill="#fadc5e" points="244.70650765696482,174.76 234.90840739708966,174.76 245.4844612191498,188.1" stroke="none" /><polygon fill="#f8d959" points="234.90840739708966,174.76 237.7605682033542,188.1 245.4844612191498,188.1" stroke="none" /><polygon fill="#f9d957" points="234.90840739708966,174.76 232.66992718918954,174.76 237.7605682033542,188.1" stroke="none" /><polygon fill="#f7d653" points="232.66992718918954,174.76 227.78145379071773,188.1 237.7605682033542,188.1" stroke="none" /><polygon fill="#f7d64f" points="232.66992718918954,174.76 221.8075989604994,174.76 227.78145379071773,188.1" stroke="none" /><polygon fill="#f4d248" points="221.8075989604994,174.76 218.10442793681761,188.1 227.78145379071773,188.1" stroke="none" /><polygon fill="#f8d754" points="221.8075989604994,174.76 256,174.76 218.10442793681761,188.1" stroke="none" /><polygon fill="#f9db5d" points="256,174.76 254,188.1 218.10442793681761,188.1" stroke="none" /><polygon fill="#fce16c" points="256,174.76 255.0,174.76 254,188.1" stroke="none" /><polygon fill="#fbe069" points="255.0,174.76 256.0,188.1 254,188.1" stroke="none" /><polygon fill="#fce06b" points="255.0,174.76 265.2934923430352,174.76 256.0,188.1" stroke="none" /><polygon fill="#fade64" points="265.2934923430352,174.76 264.5155387808502,188.1 256.0,188.1" stroke="none" /><polygon fill="#fadc60" points="265.2934923430352,174.76 275.09159260291034,174.76 264.5155387808502,188.1" stroke="none" /><polygon fill="#f8da5b" points="275.09159260291034,174.76 273.23943179664576,188.1 264.5155387808502,188.1" stroke="none" /><polygon fill="#f9d959" points="275.09159260291034,174.76 278.33007281081046,174.76 273.23943179664576,188.1" stroke="none" /><polygon fill="#f7d653" points="278.33007281081046,174.76 286.2185462092823,188.1 273.23943179664576,188.1" stroke="none" /><polygon fill="#f7d54f" points="278.33007281081046,174.76 290.19240103950057,174.76 286.2185462092823,188.1" stroke="none" /><polygon fill="#f4d148" points="290.19240103950057,174.76 293.8955720631824,188.1 286.2185462092823,188.1" stroke="none" /><polygon fill="#fadd63" points="259.0,188.1 245.4844612191498,188.1 256.0,199.7" stroke="none" /><polygon fill="#f8da5c" points="245.4844612191498,188.1 243.93154124217094,199.7 256.0,199.7" stroke="none" /><polygon fill="#f7d858" points="245.4844612191498,188.1 237.7605682033542,188.1 243.93154124217094,199.7" stroke="none" /><polygon fill="#f5d553" points="237.7605682033542,188.1 234.03119369836105,199.7 243.93154124217094,199.7" stroke="none" /><polygon fill="#f4d350" points="237.7605682033542,188.1 227.78145379071773,188.1 234.03119369836105,199.7" stroke="none" /><polygon fill="#f3d04b" points="227.78145379071773,188.1 228.11091566331316,199.7 234.03119369836105,199.7" stroke="none" /><polygon fill="#f2cf48" points="227.78145379071773,188.1 218.10442793681761,188.1 228.11091566331316,199.7" stroke="none" /><polygon fill="#f0cb42" points="218.10442793681761,188.1 213.39860982476046,199.7 228.11091566331316,199.7" stroke="none" /><polygon fill="#f3d14b" points="218.10442793681761,188.1 254,188.1 213.39860982476046,199.7" stroke="none" /><polygon fill="#f6d655" points="254,188.1 254,199.7 213.39860982476046,199.7" stroke="none" /><polygon fill="#fade64" points="254,188.1 256.0,188.1 254,199.7" stroke="none" /><polygon fill="#fbde64" points="256.0,188.1 258.0,199.7 254,199.7" stroke="none" /><polygon fill="#fadd62" points="256.0,188.1 264.5155387808502,188.1 258.0,199.7" stroke="none" /><polygon fill="#f8da5d" points="264.5155387808502,188.1 267.06845875782903,199.7 258.0,199.7" stroke="none" /><polygon fill="#f7d85a" points="264.5155387808502,188.1 273.23943179664576,188.1 267.06845875782903,199.7" stroke="none" /><polygon fill="#f6d555" points="273.23943179664576,188.1 275.96880630163895,199.7 267.06845875782903,199.7" stroke="none" /><polygon fill="#f4d450" points="273.23943179664576,188.1 286.2185462092823,188.1 275.96880630163895,199.7" stroke="none" /><polygon fill="#f2cf4a" points="286.2185462092823,188.1 287.88908433668684,199.7 275.96880630163895,199.7" stroke="none" /><polygon fill="#f1ce46" points="286.2185462092823,188.1 293.8955720631824,188.1 287.88908433668684,199.7" stroke="none" /><polygon fill="#f0cb42" points="293.8955720631824,188.1 294.60139017523954,199.7 287.88908433668684,199.7" stroke="none" /><polygon fill="#f8d95c" points="256.0,199.7 243.93154124217094,199.7 256.0,209.56" stroke="none" /><polygon fill="#f6d757" points="243.93154124217094,199.7 243.35052352146388,209.56 256.0,209.56" stroke="none" /><polygon fill="#f4d352" points="243.93154124217094,199.7 234.03119369836105,199.7 243.35052352146388,209.56" stroke="none" /><polygon fill="#f2d04c" points="234.03119369836105,199.7 229.25243528014863,209.56 243.35052352146388,209.56" stroke="none" /><polygon fill="#f1ce49" points="234.03119369836105,199.7 228.11091566331316,199.7 229.25243528014863,209.56" stroke="none" /><polygon fill="#efcb45" points="228.11091566331316,199.7 224.37396468709645,209.56 229.25243528014863,209.56" stroke="none" /><polygon fill="#eec942" points="228.11091566331316,199.7 213.39860982476046,199.7 224.37396468709645,209.56" stroke="none" /><polygon fill="#ebc53c" points="213.39860982476046,199.7 210.60764703473902,209.56 224.37396468709645,209.56" stroke="none" /><polygon fill="#efcb46" points="213.39860982476046,199.7 254,199.7 210.60764703473902,209.56" stroke="none" /><polygon fill="#f4d350" points="254,199.7 256,209.56 210.60764703473902,209.56" stroke="none" /><polygon fill="#fadc60" points="254,199.7 258.0,199.7 256,209.56" stroke="none" /><polygon fill="#f9db5c" points="258.0,199.7 259.0,209.56 256,209.56" stroke="none" /><polygon fill="#f8d95b" points="258.0,199.7 267.06845875782903,199.7 259.0,209.56" stroke="none" /><polygon fill="#f6d655" points="267.06845875782903,199.7 271.64947647853614,209.56 259.0,209.56" stroke="none" /><polygon fill="#f4d352" points="267.06845875782903,199.7 275.96880630163895,199.7 271.64947647853614,209.56" stroke="none" /><polygon fill="#f2d04c" points="275.96880630163895,199.7 281.74756471985137,209.56 271.64947647853614,209.56" stroke="none" /><polygon fill="#f0ce49" points="275.96880630163895,199.7 287.88908433668684,199.7 281.74756471985137,209.56" stroke="none" /><polygon fill="#eeca43" points="287.88908433668684,199.7 291.6260353129036,209.56 281.74756471985137,209.56" stroke="none" /><polygon fill="#edc941" points="287.88908433668684,199.7 294.60139017523954,199.7 291.6260353129036,209.56" stroke="none" /><polygon fill="#ebc53c" points="294.60139017523954,199.7 301.39235296526095,209.56 291.6260353129036,209.56" stroke="none" /><polygon fill="#f7d757" points="256.0,209.56 243.35052352146388,209.56 257.0,218.84" stroke="none" /><polygon fill="#f5d352" points="243.35052352146388,209.56 240.65599826807124,218.84 257.0,218.84" stroke="none" /><polygon fill="#f1cf4c" points="243.35052352146388,209.56 229.25243528014863,209.56 240.65599826807124,218.84" stroke="none" /><polygon fill="#eecb47" points="229.25243528014863,209.56 228.78933028933736,218.84 240.65599826807124,218.84" stroke="none" /><polygon fill="#edc944" points="229.25243528014863,209.56 224.37396468709645,209.56 228.78933028933736,218.84" stroke="none" /><polygon fill="#ebc640" points="224.37396468709645,209.56 221.09599590635023,218.84 228.78933028933736,218.84" stroke="none" /><polygon fill="#e9c43d" points="224.37396468709645,209.56 210.60764703473902,209.56 221.09599590635023,218.84" stroke="none" /><polygon fill="#e6bf38" points="210.60764703473902,209.56 209.5333280850644,218.84 221.09599590635023,218.84" stroke="none" /><polygon fill="#ecc842" points="210.60764703473902,209.56 256,209.56 209.5333280850644,218.84" stroke="none" /><polygon fill="#f2d04d" points="256,209.56 258,218.84 209.5333280850644,218.84" stroke="none" /><polygon fill="#f8d959" points="256,209.56 259.0,209.56 258,218.84" stroke="none" /><polygon fill="#f8d857" points="259.0,209.56 255.0,218.84 258,218.84" stroke="none" /><polygon fill="#f6d656" points="259.0,209.56 271.64947647853614,209.56 255.0,218.84" stroke="none" /><polygon fill="#f4d251" points="271.64947647853614,209.56 272.34400173192876,218.84 255.0,218.84" stroke="none" /><polygon fill="#f0ce4b" points="271.64947647853614,209.56 281.74756471985137,209.56 272.34400173192876,218.84" stroke="none" /><polygon fill="#efcb47" points="281.74756471985137,209.56 281.2106697106626,218.84 272.34400173192876,218.84" stroke="none" /><polygon fill="#ecc944" points="281.74756471985137,209.56 291.6260353129036,209.56 281.2106697106626,218.84" stroke="none" /><polygon fill="#ebc640" points="291.6260353129036,209.56 288.90400409364975,218.84 281.2106697106626,218.84" stroke="none" /><polygon fill="#e9c33c" points="291.6260353129036,209.56 301.39235296526095,209.56 288.90400409364975,218.84" stroke="none" /><polygon fill="#e7c039" points="301.39235296526095,209.56 299.4666719149356,218.84 288.90400409364975,218.84" stroke="none" /><polygon fill="#f5d552" points="257.0,218.84 240.65599826807124,218.84 257.0,226.96" stroke="none" /><polygon fill="#f3d14d" points="240.65599826807124,218.84 241.0850452327069,226.96 257.0,226.96" stroke="none" /><polygon fill="#eecb48" points="240.65599826807124,218.84 228.78933028933736,218.84 241.0850452327069,226.96" stroke="none" /><polygon fill="#ecc945" points="228.78933028933736,218.84 232.78583707566668,226.96 241.0850452327069,226.96" stroke="none" /><polygon fill="#eac641" points="228.78933028933736,218.84 221.09599590635023,218.84 232.78583707566668,226.96" stroke="none" /><polygon fill="#e8c33f" points="221.09599590635023,218.84 221.74647055003447,226.96 232.78583707566668,226.96" stroke="none" /><polygon fill="#e5bf3a" points="221.09599590635023,218.84 209.5333280850644,218.84 221.74647055003447,226.96" stroke="none" /><polygon fill="#e2bc37" points="209.5333280850644,218.84 208.8031673718391,226.96 221.74647055003447,226.96" stroke="none" /><polygon fill="#e9c43f" points="209.5333280850644,218.84 258,218.84 208.8031673718391,226.96" stroke="none" /><polygon fill="#f0cd49" points="258,218.84 255,226.96 208.8031673718391,226.96" stroke="none" /><polygon fill="#f8d856" points="258,218.84 255.0,218.84 255,226.96" stroke="none" /><polygon fill="#f8d854" points="255.0,218.84 258.0,226.96 255,226.96" stroke="none" /><polygon fill="#f5d451" points="255.0,218.84 272.34400173192876,218.84 258.0,226.96" stroke="none" /><polygon fill="#f2d14d" points="272.34400173192876,218.84 267.9149547672931,226.96 258.0,226.96" stroke="none" /><polygon fill="#efcc49" points="272.34400173192876,218.84 281.2106697106626,218.84 267.9149547672931,226.96" stroke="none" /><polygon fill="#ecc945" points="281.2106697106626,218.84 284.2141629243333,226.96 267.9149547672931,226.96" stroke="none" /><polygon fill="#e9c541" points="281.2106697106626,218.84 288.90400409364975,218.84 284.2141629243333,226.96" stroke="none" /><polygon fill="#e7c33e" points="288.90400409364975,218.84 291.2535294499655,226.96 284.2141629243333,226.96" stroke="none" /><polygon fill="#e5c03b" points="288.90400409364975,218.84 299.4666719149356,218.84 291.2535294499655,226.96" stroke="none" /><polygon fill="#e2bd38" points="299.4666719149356,218.84 301.1968326281609,226.96 291.2535294499655,226.96" stroke="none" /><polygon fill="#f5d24e" points="257.0,226.96 241.0850452327069,226.96 256.0,236.24" stroke="none" /><polygon fill="#f1cf48" points="241.0850452327069,226.96 241.01453018718638,236.24 256.0,236.24" stroke="none" /><polygon fill="#eeca45" points="241.0850452327069,226.96 232.78583707566668,226.96 241.01453018718638,236.24" stroke="none" /><polygon fill="#ebc742" points="232.78583707566668,226.96 233.41947729869122,236.24 241.01453018718638,236.24" stroke="none" /><polygon fill="#e9c340" points="232.78583707566668,226.96 221.74647055003447,226.96 233.41947729869122,236.24" stroke="none" /><polygon fill="#e5c03c" points="221.74647055003447,226.96 220.9434349878951,236.24 233.41947729869122,236.24" stroke="none" /><polygon fill="#e2bb38" points="221.74647055003447,226.96 208.8031673718391,226.96 220.9434349878951,236.24" stroke="none" /><polygon fill="#dfb835" points="208.8031673718391,226.96 210.61978844601936,236.24 220.9434349878951,236.24" stroke="none" /><polygon fill="#e6c03d" points="208.8031673718391,226.96 255,226.96 210.61978844601936,236.24" stroke="none" /><polygon fill="#eeca45" points="255,226.96 255,236.24 210.61978844601936,236.24" stroke="none" /><polygon fill="#f8d651" points="255,226.96 258.0,226.96 255,236.24" stroke="none" /><polygon fill="#f6d54e" points="258.0,226.96 257.0,236.24 255,236.24" stroke="none" /><polygon fill="#f5d24d" points="258.0,226.96 267.9149547672931,226.96 257.0,236.24" stroke="none" /><polygon fill="#f2cf49" points="267.9149547672931,226.96 268.9854698128136,236.24 257.0,236.24" stroke="none" /><polygon fill="#eeca45" points="267.9149547672931,226.96 284.2141629243333,226.96 268.9854698128136,236.24" stroke="none" /><polygon fill="#eac641" points="284.2141629243333,226.96 281.5805227013088,236.24 268.9854698128136,236.24" stroke="none" /><polygon fill="#e7c13e" points="284.2141629243333,226.96 291.2535294499655,226.96 281.5805227013088,236.24" stroke="none" /><polygon fill="#e6c03c" points="291.2535294499655,226.96 286.0565650121049,236.24 281.5805227013088,236.24" stroke="none" /><polygon fill="#e3bd39" points="291.2535294499655,226.96 301.1968326281609,226.96 286.0565650121049,236.24" stroke="none" /><polygon fill="#e0b936" points="301.1968326281609,226.96 301.38021155398064,236.24 286.0565650121049,236.24" stroke="none" /><polygon fill="#f3d048" points="256.0,236.24 241.01453018718638,236.24 255.0,246.1" stroke="none" /><polygon fill="#f0cc45" points="241.01453018718638,236.24 244.6594955375307,246.1 255.0,246.1" stroke="none" /><polygon fill="#ecc842" points="241.01453018718638,236.24 233.41947729869122,236.24 244.6594955375307,246.1" stroke="none" /><polygon fill="#e9c43f" points="233.41947729869122,236.24 231.5530527629327,246.1 244.6594955375307,246.1" stroke="none" /><polygon fill="#e5c03c" points="233.41947729869122,236.24 220.9434349878951,236.24 231.5530527629327,246.1" stroke="none" /><polygon fill="#e3bc39" points="220.9434349878951,236.24 225.46789854325434,246.1 231.5530527629327,246.1" stroke="none" /><polygon fill="#dfb937" points="220.9434349878951,236.24 210.61978844601936,236.24 225.46789854325434,246.1" stroke="none" /><polygon fill="#ddb635" points="210.61978844601936,236.24 216.57422890160814,246.1 225.46789854325434,246.1" stroke="none" /><polygon fill="#e5bf3b" points="210.61978844601936,236.24 255,236.24 216.57422890160814,246.1" stroke="none" /><polygon fill="#edc842" points="255,236.24 254,246.1 216.57422890160814,246.1" stroke="none" /><polygon fill="#f6d34a" points="255,236.24 257.0,236.24 254,246.1" stroke="none" /><polygon fill="#f5d249" points="257.0,236.24 258.0,246.1 254,246.1" stroke="none" /><polygon fill="#f3d048" points="257.0,236.24 268.9854698128136,236.24 258.0,246.1" stroke="none" /><polygon fill="#f0cc45" points="268.9854698128136,236.24 266.3405044624693,246.1 258.0,246.1" stroke="none" /><polygon fill="#ecc842" points="268.9854698128136,236.24 281.5805227013088,236.24 266.3405044624693,246.1" stroke="none" /><polygon fill="#e9c43f" points="281.5805227013088,236.24 279.44694723706726,246.1 266.3405044624693,246.1" stroke="none" /><polygon fill="#e6c03c" points="281.5805227013088,236.24 286.0565650121049,236.24 279.44694723706726,246.1" stroke="none" /><polygon fill="#e3bd3a" points="286.0565650121049,236.24 290.53210145674564,246.1 279.44694723706726,246.1" stroke="none" /><polygon fill="#dfb937" points="286.0565650121049,236.24 301.38021155398064,236.24 290.53210145674564,246.1" stroke="none" /><polygon fill="#dcb434" points="301.38021155398064,236.24 297.42577109839186,246.1 290.53210145674564,246.1" stroke="none" /><polygon fill="#f2cd43" points="255.0,246.1 244.6594955375307,246.1 253.0,255.96" stroke="none" /><polygon fill="#efca40" points="244.6594955375307,246.1 245.33762827417448,255.96 253.0,255.96" stroke="none" /><polygon fill="#ebc53e" points="244.6594955375307,246.1 231.5530527629327,246.1 245.33762827417448,255.96" stroke="none" /><polygon fill="#e8c23b" points="231.5530527629327,246.1 235.5024981788521,255.96 245.33762827417448,255.96" stroke="none" /><polygon fill="#e4be3a" points="231.5530527629327,246.1 225.46789854325434,246.1 235.5024981788521,255.96" stroke="none" /><polygon fill="#e2bb38" points="225.46789854325434,246.1 226.4343941025942,255.96 235.5024981788521,255.96" stroke="none" /><polygon fill="#deb736" points="225.46789854325434,246.1 216.57422890160814,246.1 226.4343941025942,255.96" stroke="none" /><polygon fill="#dcb534" points="216.57422890160814,246.1 221.65947961871052,255.96 226.4343941025942,255.96" stroke="none" /><polygon fill="#e4bd3a" points="216.57422890160814,246.1 254,246.1 221.65947961871052,255.96" stroke="none" /><polygon fill="#ecc73e" points="254,246.1 257,255.96 221.65947961871052,255.96" stroke="none" /><polygon fill="#f5d145" points="254,246.1 258.0,246.1 257,255.96" stroke="none" /><polygon fill="#f4d043" points="258.0,246.1 256.0,255.96 257,255.96" stroke="none" /><polygon fill="#f3ce44" points="258.0,246.1 266.3405044624693,246.1 256.0,255.96" stroke="none" /><polygon fill="#efca40" points="266.3405044624693,246.1 269.66237172582555,255.96 256.0,255.96" stroke="none" /><polygon fill="#eac53e" points="266.3405044624693,246.1 279.44694723706726,246.1 269.66237172582555,255.96" stroke="none" /><polygon fill="#e7c13b" points="279.44694723706726,246.1 277.4975018211479,255.96 269.66237172582555,255.96" stroke="none" /><polygon fill="#e3bd39" points="279.44694723706726,246.1 290.53210145674564,246.1 277.4975018211479,255.96" stroke="none" /><polygon fill="#e2bb38" points="290.53210145674564,246.1 280.5656058974058,255.96 277.4975018211479,255.96" stroke="none" /><polygon fill="#deb736" points="290.53210145674564,246.1 297.42577109839186,246.1 280.5656058974058,255.96" stroke="none" /><polygon fill="#dcb534" points="297.42577109839186,246.1 293.3405203812895,255.96 280.5656058974058,255.96" stroke="none" /><polygon fill="#f0cb3e" points="253.0,255.96 245.33762827417448,255.96 254.0,266.4" stroke="none" /><polygon fill="#efc93d" points="245.33762827417448,255.96 245.86252634458162,266.4 254.0,266.4" stroke="none" /><polygon fill="#eac43a" points="245.33762827417448,255.96 235.5024981788521,255.96 245.86252634458162,266.4" stroke="none" /><polygon fill="#e9c33a" points="235.5024981788521,255.96 241.18262206017374,266.4 245.86252634458162,266.4" stroke="none" /><polygon fill="#e4bd37" points="235.5024981788521,255.96 226.4343941025942,255.96 241.18262206017374,266.4" stroke="none" /><polygon fill="#e4bd37" points="226.4343941025942,255.96 235.03869863264745,266.4 241.18262206017374,266.4" stroke="none" /><polygon fill="#dfb835" points="226.4343941025942,255.96 221.65947961871052,255.96 235.03869863264745,266.4" stroke="none" /><polygon fill="#dfb835" points="221.65947961871052,255.96 227.28038286236853,266.4 235.03869863264745,266.4" stroke="none" /><polygon fill="#e5be38" points="221.65947961871052,255.96 257,255.96 227.28038286236853,266.4" stroke="none" /><polygon fill="#eec83c" points="257,255.96 257,266.4 227.28038286236853,266.4" stroke="none" /><polygon fill="#f4cf3f" points="257,255.96 256.0,255.96 257,266.4" stroke="none" /><polygon fill="#f3ce3f" points="256.0,255.96 259.0,266.4 257,266.4" stroke="none" /><polygon fill="#f0cb3d" points="256.0,255.96 269.66237172582555,255.96 259.0,266.4" stroke="none" /><polygon fill="#eec93c" points="269.66237172582555,255.96 264.1374736554184,266.4 259.0,266.4" stroke="none" /><polygon fill="#e9c33a" points="269.66237172582555,255.96 277.4975018211479,255.96 264.1374736554184,266.4" stroke="none" /><polygon fill="#e8c239" points="277.4975018211479,255.96 275.81737793982626,266.4 264.1374736554184,266.4" stroke="none" /><polygon fill="#e4bd37" points="277.4975018211479,255.96 280.5656058974058,255.96 275.81737793982626,266.4" stroke="none" /><polygon fill="#e2bc37" points="280.5656058974058,255.96 281.9613013673525,266.4 275.81737793982626,266.4" stroke="none" /><polygon fill="#deb735" points="280.5656058974058,255.96 293.3405203812895,255.96 281.9613013673525,266.4" stroke="none" /><polygon fill="#dcb433" points="293.3405203812895,255.96 289.7196171376315,266.4 281.9613013673525,266.4" stroke="none" /><polygon fill="#f1cc3e" points="254.0,266.4 245.86252634458162,266.4 255.0,278.0" stroke="none" /><polygon fill="#efc93d" points="245.86252634458162,266.4 244.803,278.0 255.0,278.0" stroke="none" /><polygon fill="#ebc53b" points="245.86252634458162,266.4 241.18262206017374,266.4 244.803,278.0" stroke="none" /><polygon fill="#e9c33a" points="241.18262206017374,266.4 237.078,278.0 244.803,278.0" stroke="none" /><polygon fill="#e6c039" points="241.18262206017374,266.4 235.03869863264745,266.4 237.078,278.0" stroke="none" /><polygon fill="#e4be38" points="235.03869863264745,266.4 232.898,278.0 237.078,278.0" stroke="none" /><polygon fill="#e2bb36" points="235.03869863264745,266.4 227.28038286236853,266.4 232.898,278.0" stroke="none" /><polygon fill="#dfb835" points="227.28038286236853,266.4 225.1,278.0 232.898,278.0" stroke="none" /><polygon fill="#e5bf38" points="227.28038286236853,266.4 257,266.4 225.1,278.0" stroke="none" /><polygon fill="#edc73c" points="257,266.4 256,278.0 225.1,278.0" stroke="none" /><polygon fill="#f3ce3f" points="257,266.4 259.0,266.4 256,278.0" stroke="none" /><polygon fill="#f4cf3f" points="259.0,266.4 255.0,278.0 256,278.0" stroke="none" /><polygon fill="#f2cd3e" points="259.0,266.4 264.1374736554184,266.4 255.0,278.0" stroke="none" /><polygon fill="#f0ca3d" points="264.1374736554184,266.4 267.197,278.0 255.0,278.0" stroke="none" /><polygon fill="#eac53b" points="264.1374736554184,266.4 275.81737793982626,266.4 267.197,278.0" stroke="none" /><polygon fill="#e8c23a" points="275.81737793982626,266.4 272.922,278.0 267.197,278.0" stroke="none" /><polygon fill="#e4be38" points="275.81737793982626,266.4 281.9613013673525,266.4 272.922,278.0" stroke="none" /><polygon fill="#e3bd37" points="281.9613013673525,266.4 280.102,278.0 272.922,278.0" stroke="none" /><polygon fill="#dfb835" points="281.9613013673525,266.4 289.7196171376315,266.4 280.102,278.0" stroke="none" /><polygon fill="#deb735" points="289.7196171376315,266.4 285.9,278.0 280.102,278.0" stroke="none" /><path d="M 244 212 A 10 14 0 0 0 244 226 Z" fill="#f5d040" stroke="#d4ac30" stroke-width="1" /><path d="M 268 212 A 10 14 0 0 1 268 226 Z" fill="#f5d040" stroke="#d4ac30" stroke-width="1" /><path d="M 225 217 Q 240 205 255 217 Q 240 229 225 217" fill="#e8e0d8" stroke="#3a2a1a" stroke-width="1.5" /><path d="M 236 218 A 4 4 0 0 0 244 218 Z" fill="#3a2a1a" stroke="none" /><circle cx="241" cy="217" fill="white" r="1" stroke="none" /><path d="M 223 217 Q 240 214 257 217" fill="none" stroke="#3a2a1a" stroke-width="3" /><path d="M 257 217 Q 272 205 287 217 Q 272 229 257 217" fill="#e8e0d8" stroke="#3a2a1a" stroke-width="1.5" /><path d="M 268 218 A 4 4 0 0 0 276 218 Z" fill="#3a2a1a" stroke="none" /><circle cx="273" cy="217" fill="white" r="1" stroke="none" /><path d="M 255 217 Q 272 214 289 217" fill="none" stroke="#3a2a1a" stroke-width="3" /><line stroke="#3a2a1a" stroke-width="2" x1="265" x2="265" y1="217" y2="214" /><line stroke="#3a2a1a" stroke-width="2" x1="272" x2="272" y1="217" y2="214" /><line stroke="#3a2a1a" stroke-width="2" x1="279" x2="279" y1="217" y2="214" /><line stroke="#3a2a1a" stroke-width="2" x1="232" x2="248" y1="208" y2="208" /><line stroke="#3a2a1a" stroke-width="2" x1="260" x2="284" y1="212" y2="212" /><path d="M 226 224 A 6 4 0 0 0 238 224 Z" fill="#e88060" fill-opacity="0.23155457854737885" stroke="none" /><path d="M 274 225 A 5 3 0 0 0 284 225 Z" fill="#e88060" fill-opacity="0.26175805310984157" stroke="none" /><circle cx="256" cy="225" fill="#d4ac30" r="2" stroke="none" /><path d="M 241 232 Q 256 244 271 232" fill="#a04030" stroke="#c06050" stroke-width="2" /><line stroke="white" stroke-width="2" x1="250" x2="250" y1="233" y2="238" /><line stroke="white" stroke-width="2" x1="254" x2="254" y1="233" y2="238" /><line stroke="white" stroke-width="2" x1="258" x2="258" y1="233" y2="238" /><line stroke="white" stroke-width="2" x1="262" x2="262" y1="233" y2="238" /><path d="M 281 192 Q 289 184 297 192" fill="none" stroke="#d4c0a0" stroke-opacity="0.3" stroke-width="1" /><path d="M 281 236 Q 287 230 293 236" fill="none" stroke="#d4c0a0" stroke-opacity="0.3" stroke-width="1" /><path d="M 284 231 Q 289 226 294 231" fill="none" stroke="#d4c0a0" stroke-opacity="0.3" stroke-width="1" /><path d="M 263 243 Q 269 237 275 243" fill="none" stroke="#d4c0a0" stroke-opacity="0.3" stroke-width="1" /><path d="M 266 202 Q 273 195 280 202" fill="none" stroke="#d4c0a0" stroke-opacity="0.3" stroke-width="1" /><path d="M 230 207 Q 236 201 242 207" fill="none" stroke="#d4c0a0" stroke-opacity="0.3" stroke-width="1" /><path d="M 232 240 Q 240 232 248 240" fill="none" stroke="#d4c0a0" stroke-opacity="0.3" stroke-width="1" /><path d="M 233 193 Q 236 190 239 193" fill="none" stroke="#d4c0a0" stroke-opacity="0.3" stroke-width="1" /><path d="M 254 213 Q 262 205 270 213" fill="none" stroke="#d4c0a0" stroke-opacity="0.3" stroke-width="1" /><path d="M 278 197 Q 282 193 286 197" fill="none" stroke="#d4c0a0" stroke-opacity="0.3" stroke-width="1" /><path d="M 238 238 Q 241 235 244 238" fill="none" stroke="#d4c0a0" stroke-opacity="0.3" stroke-width="1" /><path d="M 244 204 Q 248 200 252 204" fill="none" stroke="#d4c0a0" stroke-opacity="0.3" stroke-width="1" /><polygon fill="#b89824" points="245,274.0 267,274.0 267,309.0 245,309.0" stroke="none" /><path d="M 253 292.0 Q 256 282.0 259 292.0" fill="none" stroke="#d4ac30" stroke-width="1.5" /></svg>