<?xml version="1.0" encoding="utf-8" ?>
<svg baseProfile="full" height="512" version="1.1" width="512" xmlns="http://www.w3.org/2000/svg" xmlns:ev="http://www.w3.org/2001/xml-events" xmlns:xlink="http://www.w3.org/1999/xlink"><defs /><polygon fill="#fbdd5f" points="257.0,127.5 233.725,127.5 253.0,147.85" stroke="none" /><polygon fill="#fadb57" points="233.725,127.5 232.62557817517256,147.85 253.0,147.85" stroke="none" /><polygon fill="#f9d74d" points="233.725,127.5 216.85,127.5 232.62557817517256,147.85" stroke="none" /><polygon fill="#f8d64a" points="216.85,127.5 221.43283436848512,147.85 232.62557817517256,147.85" stroke="none" /><polygon fill="#f7d341" points="216.85,127.5 203.35,127.5 221.43283436848512,147.85" stroke="none" /><polygon fill="#f6d13d" points="203.35,127.5 202.47863932313516,147.85 221.43283436848512,147.85" stroke="none" /><polygon fill="#f5ce34" points="203.35,127.5 189.5,127.5 202.47863932313516,147.85" stroke="none" /><polygon fill="#f5cd30" points="189.5,127.5 190.22902477325022,147.85 202.47863932313516,147.85" stroke="none" /><polygon fill="#f7d240" points="189.5,127.5 257,127.5 190.22902477325022,147.85" stroke="none" /><polygon fill="#fad953" points="257,127.5 256,147.85 190.22902477325022,147.85" stroke="none" /><polygon fill="#fde066" points="257,127.5 255.0,127.5 256,147.85" stroke="none" /><polygon fill="#fcdf65" points="255.0,127.5 255.0,147.85 256,147.85" stroke="none" /><polygon fill="#fcdd60" points="255.0,127.5 278.275,127.5 255.0,147.85" stroke="none" /><polygon fill="#fbdb58" points="278.275,127.5 280.37442182482744,147.85 255.0,147.85" stroke="none" /><polygon fill="#f9d74d" points="278.275,127.5 295.15,127.5 280.37442182482744,147.85" stroke="none" /><polygon fill="#f8d548" points="295.15,127.5 293.56716563151485,147.85 280.37442182482744,147.85" stroke="none" /><polygon fill="#f7d240" points="295.15,127.5 308.65,127.5 293.56716563151485,147.85" stroke="none" /><polygon fill="#f6d13d" points="308.65,127.5 306.52136067686484,147.85 293.56716563151485,147.85" stroke="none" /><polygon fill="#f5ce34" points="308.65,127.5 324.5,127.5 306.52136067686484,147.85" stroke="none" /><polygon fill="#f5cd31" points="324.5,127.5 319.7709752267498,147.85 306.52136067686484,147.85" stroke="none" /><polygon fill="#fbdd5e" points="253.0,147.85 232.62557817517256,147.85 255.0,169.125" stroke="none" /><polygon fill="#f9da57" points="232.62557817517256,147.85 237.72669388788563,169.125 255.0,169.125" stroke="none" /><polygon fill="#f9d850" points="232.62557817517256,147.85 221.43283436848512,147.85 237.72669388788563,169.125" stroke="none" /><polygon fill="#f7d449" points="221.43283436848512,147.85 217.61055289385962,169.125 237.72669388788563,169.125" stroke="none" /><polygon fill="#f7d341" points="221.43283436848512,147.85 202.47863932313516,147.85 217.61055289385962,169.125" stroke="none" /><polygon fill="#f5cf3b" points="202.47863932313516,147.85 205.7176400986388,169.125 217.61055289385962,169.125" stroke="none" /><polygon fill="#f5ce35" points="202.47863932313516,147.85 190.22902477325022,147.85 205.7176400986388,169.125" stroke="none" /><polygon fill="#f3ca30" points="190.22902477325022,147.85 191.5354360238959,169.125 205.7176400986388,169.125" stroke="none" /><polygon fill="#f7d240" points="190.22902477325022,147.85 256,147.85 191.5354360238959,169.125" stroke="none" /><polygon fill="#f8d751" points="256,147.85 256,169.125 191.5354360238959,169.125" stroke="none" /><polygon fill="#fcdf65" points="256,147.85 255.0,147.85 256,169.125" stroke="none" /><polygon fill="#fbde62" points="255.0,147.85 259.0,169.125 256,169.125" stroke="none" /><polygon fill="#fbdd5e" points="255.0,147.85 280.37442182482744,147.85 259.0,169.125" stroke="none" /><polygon fill="#f9d955" points="280.37442182482744,147.85 276.27330611211437,169.125 259.0,169.125" stroke="none" /><polygon fill="#f9d74e" points="280.37442182482744,147.85 293.56716563151485,147.85 276.27330611211437,169.125" stroke="none" /><polygon fill="#f7d448" points="293.56716563151485,147.85 292.3894471061404,169.125 276.27330611211437,169.125" stroke="none" /><polygon fill="#f7d342" points="293.56716563151485,147.85 306.52136067686484,147.85 292.3894471061404,169.125" stroke="none" /><polygon fill="#f5cf3c" points="306.52136067686484,147.85 309.2823599013612,169.125 292.3894471061404,169.125" stroke="none" /><polygon fill="#f5cf35" points="306.52136067686484,147.85 319.7709752267498,147.85 309.2823599013612,169.125" stroke="none" /><polygon fill="#f3ca30" points="319.7709752267498,147.85 322.4645639761041,169.125 309.2823599013612,169.125" stroke="none" /><polygon fill="#f9da58" points="255.0,169.125 237.72669388788563,169.125 258.0,187.625" stroke="none" /><polygon fill="#f8d751" points="237.72669388788563,169.125 236.32628015355655,187.625 258.0,187.625" stroke="none" /><polygon fill="#f6d349" points="237.72669388788563,169.125 217.61055289385962,169.125 236.32628015355655,187.625" stroke="none" /><polygon fill="#f4cf43" points="217.61055289385962,169.125 218.42194693655395,187.625 236.32628015355655,187.625" stroke="none" /><polygon fill="#f2cd3c" points="217.61055289385962,169.125 205.7176400986388,169.125 218.42194693655395,187.625" stroke="none" /><polygon fill="#f1cb39" points="205.7176400986388,169.125 211.49848036295185,187.625 218.42194693655395,187.625" stroke="none" /><polygon fill="#f0c934" points="205.7176400986388,169.125 191.5354360238959,169.125 211.49848036295185,187.625" stroke="none" /><polygon fill="#efc631" points="191.5354360238959,169.125 198.38266713198956,187.625 211.49848036295185,187.625" stroke="none" /><polygon fill="#f3ce3d" points="191.5354360238959,169.125 256,169.125 198.38266713198956,187.625" stroke="none" /><polygon fill="#f6d44b" points="256,169.125 253,187.625 198.38266713198956,187.625" stroke="none" /><polygon fill="#fbdd5d" points="256,169.125 259.0,169.125 253,187.625" stroke="none" /><polygon fill="#fadb5a" points="259.0,169.125 257.0,187.625 253,187.625" stroke="none" /><polygon fill="#f9da56" points="259.0,169.125 276.27330611211437,169.125 257.0,187.625" stroke="none" /><polygon fill="#f8d650" points="276.27330611211437,169.125 277.6737198464434,187.625 257.0,187.625" stroke="none" /><polygon fill="#f5d348" points="276.27330611211437,169.125 292.3894471061404,169.125 277.6737198464434,187.625" stroke="none" /><polygon fill="#f4d043" points="292.3894471061404,169.125 291.5780530634461,187.625 277.6737198464434,187.625" stroke="none" /><polygon fill="#f2cd3c" points="292.3894471061404,169.125 309.2823599013612,169.125 291.5780530634461,187.625" stroke="none" /><polygon fill="#f1cb39" points="309.2823599013612,169.125 299.50151963704815,187.625 291.5780530634461,187.625" stroke="none" /><polygon fill="#f0c833" points="309.2823599013612,169.125 322.4645639761041,169.125 299.50151963704815,187.625" stroke="none" /><polygon fill="#efc630" points="322.4645639761041,169.125 313.6173328680104,187.625 299.50151963704815,187.625" stroke="none" /><polygon fill="#f8d751" points="258.0,187.625 236.32628015355655,187.625 256.0,203.35" stroke="none" /><polygon fill="#f6d34b" points="236.32628015355655,187.625 235.66082552480356,203.35 256.0,203.35" stroke="none" /><polygon fill="#f3cf44" points="236.32628015355655,187.625 218.42194693655395,187.625 235.66082552480356,203.35" stroke="none" /><polygon fill="#f2cc3f" points="218.42194693655395,187.625 221.25236001329114,203.35 235.66082552480356,203.35" stroke="none" /><polygon fill="#f0ca3b" points="218.42194693655395,187.625 211.49848036295185,187.625 221.25236001329114,203.35" stroke="none" /><polygon fill="#eec737" points="211.49848036295185,187.625 205.92558760408116,203.35 221.25236001329114,203.35" stroke="none" /><polygon fill="#edc533" points="211.49848036295185,187.625 198.38266713198956,187.625 205.92558760408116,203.35" stroke="none" /><polygon fill="#ebc12d" points="198.38266713198956,187.625 193.36613795395021,203.35 205.92558760408116,203.35" stroke="none" /><polygon fill="#f0c939" points="198.38266713198956,187.625 253,187.625 193.36613795395021,203.35" stroke="none" /><polygon fill="#f4d045" points="253,187.625 258,203.35 193.36613795395021,203.35" stroke="none" /><polygon fill="#fada56" points="253,187.625 257.0,187.625 258,203.35" stroke="none" /><polygon fill="#f9d852" points="257.0,187.625 259.0,203.35 258,203.35" stroke="none" /><polygon fill="#f7d650" points="257.0,187.625 277.6737198464434,187.625 259.0,203.35" stroke="none" /><polygon fill="#f5d249" points="277.6737198464434,187.625 279.33917447519644,203.35 259.0,203.35" stroke="none" /><polygon fill="#f3cf43" points="277.6737198464434,187.625 291.5780530634461,187.625 279.33917447519644,203.35" stroke="none" /><polygon fill="#f2cc3f" points="291.5780530634461,187.625 290.74763998670886,203.35 279.33917447519644,203.35" stroke="none" /><polygon fill="#f0ca3b" points="291.5780530634461,187.625 299.50151963704815,187.625 290.74763998670886,203.35" stroke="none" /><polygon fill="#efc738" points="299.50151963704815,187.625 302.07441239591884,203.35 290.74763998670886,203.35" stroke="none" /><polygon fill="#eec634" points="299.50151963704815,187.625 313.6173328680104,187.625 302.07441239591884,203.35" stroke="none" /><polygon fill="#ebc22f" points="313.6173328680104,187.625 316.6338620460498,203.35 302.07441239591884,203.35" stroke="none" /><polygon fill="#f7d54b" points="256.0,203.35 235.66082552480356,203.35 257.0,218.15" stroke="none" /><polygon fill="#f4d044" points="235.66082552480356,203.35 232.86547988028727,218.15 257.0,218.15" stroke="none" /><polygon fill="#f1cc3f" points="235.66082552480356,203.35 221.25236001329114,203.35 232.86547988028727,218.15" stroke="none" /><polygon fill="#efc83a" points="221.25236001329114,203.35 219.61205554717156,218.15 232.86547988028727,218.15" stroke="none" /><polygon fill="#edc536" points="221.25236001329114,203.35 205.92558760408116,203.35 219.61205554717156,218.15" stroke="none" /><polygon fill="#ebc231" points="205.92558760408116,203.35 205.40931608067902,218.15 219.61205554717156,218.15" stroke="none" /><polygon fill="#e9bf2d" points="205.92558760408116,203.35 193.36613795395021,203.35 205.40931608067902,218.15" stroke="none" /><polygon fill="#e7bc2a" points="193.36613795395021,203.35 194.9863026675372,218.15 205.40931608067902,218.15" stroke="none" /><polygon fill="#edc536" points="193.36613795395021,203.35 258,203.35 194.9863026675372,218.15" stroke="none" /><polygon fill="#f3ce41" points="258,203.35 258,218.15 194.9863026675372,218.15" stroke="none" /><polygon fill="#f8d64d" points="258,203.35 259.0,203.35 258,218.15" stroke="none" /><polygon fill="#f8d64c" points="259.0,203.35 255.0,218.15 258,218.15" stroke="none" /><polygon fill="#f6d449" points="259.0,203.35 279.33917447519644,203.35 255.0,218.15" stroke="none" /><polygon fill="#f4d044" points="279.33917447519644,203.35 276.1345201197127,218.15 255.0,218.15" stroke="none" /><polygon fill="#f1cc3f" points="279.33917447519644,203.35 290.74763998670886,203.35 276.1345201197127,218.15" stroke="none" /><polygon fill="#efc93a" points="290.74763998670886,203.35 293.38794445282844,218.15 276.1345201197127,218.15" stroke="none" /><polygon fill="#edc637" points="290.74763998670886,203.35 302.07441239591884,203.35 293.38794445282844,218.15" stroke="none" /><polygon fill="#ecc333" points="302.07441239591884,203.35 300.590683919321,218.15 293.38794445282844,218.15" stroke="none" /><polygon fill="#eac130" points="302.07441239591884,203.35 316.6338620460498,203.35 300.590683919321,218.15" stroke="none" /><polygon fill="#e7bd2b" points="316.6338620460498,203.35 319.0136973324628,218.15 300.590683919321,218.15" stroke="none" /><polygon fill="#f5d244" points="257.0,218.15 232.86547988028727,218.15 254.0,231.1" stroke="none" /><polygon fill="#f2cd40" points="232.86547988028727,218.15 237.71646141724568,231.1 254.0,231.1" stroke="none" /><polygon fill="#efc93a" points="232.86547988028727,218.15 219.61205554717156,218.15 237.71646141724568,231.1" stroke="none" /><polygon fill="#edc638" points="219.61205554717156,218.15 222.10772006667423,231.1 237.71646141724568,231.1" stroke="none" /><polygon fill="#eac233" points="219.61205554717156,218.15 205.40931608067902,218.15 222.10772006667423,231.1" stroke="none" /><polygon fill="#e8bf31" points="205.40931608067902,218.15 211.4207269862171,231.1 222.10772006667423,231.1" stroke="none" /><polygon fill="#e6bd2c" points="205.40931608067902,218.15 194.9863026675372,218.15 211.4207269862171,231.1" stroke="none" /><polygon fill="#e4b92a" points="194.9863026675372,218.15 196.5650345977142,231.1 211.4207269862171,231.1" stroke="none" /><polygon fill="#eac333" points="194.9863026675372,218.15 258,218.15 196.5650345977142,231.1" stroke="none" /><polygon fill="#f1cb3d" points="258,218.15 255,231.1 196.5650345977142,231.1" stroke="none" /><polygon fill="#f8d649" points="258,218.15 255.0,218.15 255,231.1" stroke="none" /><polygon fill="#f7d447" points="255.0,218.15 254.0,231.1 255,231.1" stroke="none" /><polygon fill="#f6d345" points="255.0,218.15 276.1345201197127,218.15 254.0,231.1" stroke="none" /><polygon fill="#f3ce41" points="276.1345201197127,218.15 276.2835385827543,231.1 254.0,231.1" stroke="none" /><polygon fill="#efc93a" points="276.1345201197127,218.15 293.38794445282844,218.15 276.2835385827543,231.1" stroke="none" /><polygon fill="#ecc537" points="293.38794445282844,218.15 292.89227993332577,231.1 276.2835385827543,231.1" stroke="none" /><polygon fill="#eac233" points="293.38794445282844,218.15 300.590683919321,218.15 292.89227993332577,231.1" stroke="none" /><polygon fill="#e9bf31" points="300.590683919321,218.15 301.57927301378294,231.1 292.89227993332577,231.1" stroke="none" /><polygon fill="#e6bd2d" points="300.590683919321,218.15 319.0136973324628,218.15 301.57927301378294,231.1" stroke="none" /><polygon fill="#e4b92a" points="319.0136973324628,218.15 312.4349654022858,231.1 301.57927301378294,231.1" stroke="none" /><polygon fill="#f5d040" points="254.0,231.1 237.71646141724568,231.1 253.0,245.9" stroke="none" /><polygon fill="#f1cb3b" points="237.71646141724568,231.1 236.27065452116744,245.9 253.0,245.9" stroke="none" /><polygon fill="#eec738" points="237.71646141724568,231.1 222.10772006667423,231.1 236.27065452116744,245.9" stroke="none" /><polygon fill="#eac233" points="222.10772006667423,231.1 214.80902915841548,245.9 236.27065452116744,245.9" stroke="none" /><polygon fill="#e8bf30" points="222.10772006667423,231.1 211.4207269862171,231.1 214.80902915841548,245.9" stroke="none" /><polygon fill="#e5ba2c" points="211.4207269862171,231.1 202.63972886821392,245.9 214.80902915841548,245.9" stroke="none" /><polygon fill="#e3b92a" points="211.4207269862171,231.1 196.5650345977142,231.1 202.63972886821392,245.9" stroke="none" /><polygon fill="#e0b326" points="196.5650345977142,231.1 190.15349854899222,245.9 202.63972886821392,245.9" stroke="none" /><polygon fill="#e7be2f" points="196.5650345977142,231.1 255,231.1 190.15349854899222,245.9" stroke="none" /><polygon fill="#eec637" points="255,231.1 253,245.9 190.15349854899222,245.9" stroke="none" /><polygon fill="#f7d243" points="255,231.1 254.0,231.1 253,245.9" stroke="none" /><polygon fill="#f6d241" points="254.0,231.1 256.0,245.9 253,245.9" stroke="none" /><polygon fill="#f5d041" points="254.0,231.1 276.2835385827543,231.1 256.0,245.9" stroke="none" /><polygon fill="#f1cb3b" points="276.2835385827543,231.1 280.72934547883256,245.9 256.0,245.9" stroke="none" /><polygon fill="#edc636" points="276.2835385827543,231.1 292.89227993332577,231.1 280.72934547883256,245.9" stroke="none" /><polygon fill="#eac132" points="292.89227993332577,231.1 292.1909708415845,245.9 280.72934547883256,245.9" stroke="none" /><polygon fill="#e8bf31" points="292.89227993332577,231.1 301.57927301378294,231.1 292.1909708415845,245.9" stroke="none" /><polygon fill="#e6bb2d" points="301.57927301378294,231.1 305.3602711317861,245.9 292.1909708415845,245.9" stroke="none" /><polygon fill="#e4ba2b" points="301.57927301378294,231.1 312.4349654022858,231.1 305.3602711317861,245.9" stroke="none" /><polygon fill="#e1b427" points="312.4349654022858,231.1 320.8465014510078,245.9 305.3602711317861,245.9" stroke="none" /><polygon fill="#f3cd3a" points="253.0,245.9 236.27065452116744,245.9 257.0,261.625" stroke="none" /><polygon fill="#f0c935" points="236.27065452116744,245.9 233.43270716108006,261.625 257.0,261.625" stroke="none" /><polygon fill="#eac132" points="236.27065452116744,245.9 214.80902915841548,245.9 233.43270716108006,261.625" stroke="none" /><polygon fill="#e7bd2e" points="214.80902915841548,245.9 218.85142470735283,261.625 233.43270716108006,261.625" stroke="none" /><polygon fill="#e4b92b" points="214.80902915841548,245.9 202.63972886821392,245.9 218.85142470735283,261.625" stroke="none" /><polygon fill="#e1b629" points="202.63972886821392,245.9 207.38639874437104,261.625 218.85142470735283,261.625" stroke="none" /><polygon fill="#deb226" points="202.63972886821392,245.9 190.15349854899222,245.9 207.38639874437104,261.625" stroke="none" /><polygon fill="#dcae23" points="190.15349854899222,245.9 190.6748701850911,261.625 207.38639874437104,261.625" stroke="none" /><polygon fill="#e3b82b" points="190.15349854899222,245.9 253,245.9 190.6748701850911,261.625" stroke="none" /><polygon fill="#ebc331" points="253,245.9 253,261.625 190.6748701850911,261.625" stroke="none" /><polygon fill="#f6cf3d" points="253,245.9 256.0,245.9 253,261.625" stroke="none" /><polygon fill="#f5d03a" points="256.0,245.9 258.0,261.625 253,261.625" stroke="none" /><polygon fill="#f3cc3a" points="256.0,245.9 280.72934547883256,245.9 258.0,261.625" stroke="none" /><polygon fill="#eec734" points="280.72934547883256,245.9 279.5672928389199,261.625 258.0,261.625" stroke="none" /><polygon fill="#eac132" points="280.72934547883256,245.9 292.1909708415845,245.9 279.5672928389199,261.625" stroke="none" /><polygon fill="#e8be2e" points="292.1909708415845,245.9 293.14857529264714,261.625 279.5672928389199,261.625" stroke="none" /><polygon fill="#e5ba2c" points="292.1909708415845,245.9 305.3602711317861,245.9 293.14857529264714,261.625" stroke="none" /><polygon fill="#e2b72a" points="305.3602711317861,245.9 301.61360125562896,261.625 293.14857529264714,261.625" stroke="none" /><polygon fill="#dfb427" points="305.3602711317861,245.9 320.8465014510078,245.9 301.61360125562896,261.625" stroke="none" /><polygon fill="#ddaf24" points="320.8465014510078,245.9 318.3251298149089,261.625 301.61360125562896,261.625" stroke="none" /><polygon fill="#f2ca34" points="257.0,261.625 233.43270716108006,261.625 256.0,277.35" stroke="none" /><polygon fill="#eec530" points="233.43270716108006,261.625 236.27867255423996,277.35 256.0,277.35" stroke="none" /><polygon fill="#e9bf2e" points="233.43270716108006,261.625 218.85142470735283,261.625 236.27867255423996,277.35" stroke="none" /><polygon fill="#e6bb2b" points="218.85142470735283,261.625 223.85342448927025,277.35 236.27867255423996,277.35" stroke="none" /><polygon fill="#e3b729" points="218.85142470735283,261.625 207.38639874437104,261.625 223.85342448927025,277.35" stroke="none" /><polygon fill="#e1b427" points="207.38639874437104,261.625 213.11322603729448,277.35 223.85342448927025,277.35" stroke="none" /><polygon fill="#dcb025" points="207.38639874437104,261.625 190.6748701850911,261.625 213.11322603729448,277.35" stroke="none" /><polygon fill="#daac23" points="190.6748701850911,261.625 199.29900774012114,277.35 213.11322603729448,277.35" stroke="none" /><polygon fill="#e1b628" points="190.6748701850911,261.625 253,261.625 199.29900774012114,277.35" stroke="none" /><polygon fill="#ebc22e" points="253,261.625 258,277.35 199.29900774012114,277.35" stroke="none" /><polygon fill="#f5ce36" points="253,261.625 258.0,261.625 258,277.35" stroke="none" /><polygon fill="#f4cd34" points="258.0,261.625 253.0,277.35 258,277.35" stroke="none" /><polygon fill="#f2ca34" points="258.0,261.625 279.5672928389199,261.625 253.0,277.35" stroke="none" /><polygon fill="#eec530" points="279.5672928389199,261.625 275.72132744576004,277.35 253.0,277.35" stroke="none" /><polygon fill="#e9bf2d" points="279.5672928389199,261.625 293.14857529264714,261.625 275.72132744576004,277.35" stroke="none" /><polygon fill="#e7bc2b" points="293.14857529264714,261.625 286.14657551072975,277.35 275.72132744576004,277.35" stroke="none" /><polygon fill="#e3b82a" points="293.14857529264714,261.625 301.61360125562896,261.625 286.14657551072975,277.35" stroke="none" /><polygon fill="#e1b528" points="301.61360125562896,261.625 299.88677396270555,277.35 286.14657551072975,277.35" stroke="none" /><polygon fill="#ddb125" points="301.61360125562896,261.625 318.3251298149089,261.625 299.88677396270555,277.35" stroke="none" /><polygon fill="#dbad23" points="318.3251298149089,261.625 309.7009922598789,277.35 299.88677396270555,277.35" stroke="none" /><polygon fill="#f1c82e" points="256.0,277.35 236.27867255423996,277.35 255.0,294.0" stroke="none" /><polygon fill="#eec42c" points="236.27867255423996,277.35 237.88005510670138,294.0 255.0,294.0" stroke="none" /><polygon fill="#e8be2a" points="236.27867255423996,277.35 223.85342448927025,277.35 237.88005510670138,294.0" stroke="none" /><polygon fill="#e7bd29" points="223.85342448927025,277.35 231.42555139965694,294.0 237.88005510670138,294.0" stroke="none" /><polygon fill="#e3b727" points="223.85342448927025,277.35 213.11322603729448,277.35 231.42555139965694,294.0" stroke="none" /><polygon fill="#e3b727" points="213.11322603729448,277.35 221.2619484340214,294.0 231.42555139965694,294.0" stroke="none" /><polygon fill="#ddb024" points="213.11322603729448,277.35 199.29900774012114,277.35 221.2619484340214,294.0" stroke="none" /><polygon fill="#dcaf24" points="199.29900774012114,277.35 209.1819851718223,294.0 221.2619484340214,294.0" stroke="none" /><polygon fill="#e3b727" points="199.29900774012114,277.35 258,277.35 209.1819851718223,294.0" stroke="none" /><polygon fill="#edc32c" points="258,277.35 257,294.0 209.1819851718223,294.0" stroke="none" /><polygon fill="#f5cd30" points="258,277.35 253.0,277.35 257,294.0" stroke="none" /><polygon fill="#f4cc2f" points="253.0,277.35 256.0,294.0 257,294.0" stroke="none" /><polygon fill="#f2c92e" points="253.0,277.35 275.72132744576004,277.35 256.0,294.0" stroke="none" /><polygon fill="#eec52c" points="275.72132744576004,277.35 273.1199448932986,294.0 256.0,294.0" stroke="none" /><polygon fill="#e9be2a" points="275.72132744576004,277.35 286.14657551072975,277.35 273.1199448932986,294.0" stroke="none" /><polygon fill="#e8bd29" points="286.14657551072975,277.35 279.57444860034303,294.0 273.1199448932986,294.0" stroke="none" /><polygon fill="#e3b827" points="286.14657551072975,277.35 299.88677396270555,277.35 279.57444860034303,294.0" stroke="none" /><polygon fill="#e3b727" points="299.88677396270555,277.35 289.7380515659786,294.0 279.57444860034303,294.0" stroke="none" /><polygon fill="#ddb024" points="299.88677396270555,277.35 309.7009922598789,277.35 289.7380515659786,294.0" stroke="none" /><polygon fill="#ddb024" points="309.7009922598789,277.35 302.8180148281777,294.0 289.7380515659786,294.0" stroke="none" /><polygon fill="#f1c92e" points="255.0,294.0 237.88005510670138,294.0 257.0,312.5" stroke="none" /><polygon fill="#efc62d" points="237.88005510670138,294.0 241.14000000000001,312.5 257.0,312.5" stroke="none" /><polygon fill="#eac02b" points="237.88005510670138,294.0 231.42555139965694,294.0 241.14000000000001,312.5" stroke="none" /><polygon fill="#e9bf2a" points="231.42555139965694,294.0 231.64000000000001,312.5 241.14000000000001,312.5" stroke="none" /><polygon fill="#e6bb28" points="231.42555139965694,294.0 221.2619484340214,294.0 231.64000000000001,312.5" stroke="none" /><polygon fill="#e4b928" points="221.2619484340214,294.0 222.24,312.5 231.64000000000001,312.5" stroke="none" /><polygon fill="#e0b426" points="221.2619484340214,294.0 209.1819851718223,294.0 222.24,312.5" stroke="none" /><polygon fill="#dfb325" points="209.1819851718223,294.0 215.0,312.5 222.24,312.5" stroke="none" /><polygon fill="#e5ba28" points="209.1819851718223,294.0 257,294.0 215.0,312.5" stroke="none" /><polygon fill="#eec42c" points="257,294.0 257,312.5 215.0,312.5" stroke="none" /><polygon fill="#f4cc2f" points="257,294.0 256.0,294.0 257,312.5" stroke="none" /><polygon fill="#f4cc2f" points="256.0,294.0 256.0,312.5 257,312.5" stroke="none" /><polygon fill="#f1c92e" points="256.0,294.0 273.1199448932986,294.0 256.0,312.5" stroke="none" /><polygon fill="#efc62d" points="273.1199448932986,294.0 268.86,312.5 256.0,312.5" stroke="none" /><polygon fill="#ebc12b" points="273.1199448932986,294.0 279.57444860034303,294.0 268.86,312.5" stroke="none" /><polygon fill="#eac02a" points="279.57444860034303,294.0 279.36,312.5 268.86,312.5" stroke="none" /><polygon fill="#e6bb29" points="279.57444860034303,294.0 289.7380515659786,294.0 279.36,312.5" stroke="none" /><polygon fill="#e5ba28" points="289.7380515659786,294.0 287.76,312.5 279.36,312.5" stroke="none" /><polygon fill="#e1b526" points="289.7380515659786,294.0 302.8180148281777,294.0 287.76,312.5" stroke="none" /><polygon fill="#dfb325" points="302.8180148281777,294.0 297.0,312.5 287.76,312.5" stroke="none" /><path d="M 238 208 L 228 219 L 238 230 Z" fill="#f5cd30" stroke="#d4a520" stroke-width="1" /><path d="M 274 208 L 284 219 L 274 230 Z" fill="#f5cd30" stroke="#d4a520" stroke-width="1" /><line stroke="#3a2a1a" stroke-width="3" x1="208" x2="230" y1="211" y2="213" /><line stroke="#3a2a1a" stroke-width="3" x1="234" x2="256" y1="213" y2="211" /><line stroke="#3a2a1a" stroke-width="3" x1="256" x2="278" y1="212" y2="214" /><line stroke="#3a2a1a" stroke-width="3" x1="282" x2="304" y1="214" y2="212" /><line stroke="#3a2a1a" stroke-width="6" x1="217" x2="247" y1="202" y2="202" /><line stroke="#3a2a1a" stroke-width="6" x1="263" x2="297" y1="201" y2="201" /><path d="M 215 226 A 8 5 0 0 0 231 226 Z" fill="#e88060" fill-opacity="0.22168455563879513" stroke="none" /><path d="M 283 227 A 8 5 0 0 0 299 227 Z" fill="#e88060" fill-opacity="0.2735154839193135" stroke="none" /><polygon fill="#d4a520" points="256,221 258,230 256,232 254,230" stroke="none" /><path d="M 234 242 Q 256 259 278 242" fill="#a04030" stroke="#c06050" stroke-width="2" /><line stroke="white" stroke-width="2" x1="246" x2="246" y1="244" y2="252" /><line stroke="white" stroke-width="2" x1="252" x2="252" y1="244" y2="252" /><line stroke="white" stroke-width="2" x1="258" x2="258" y1="244" y2="252" /><line stroke="white" stroke-width="2" x1="264" x2="264" y1="244" y2="252" /><ellipse cx="256" cy="179" fill="white" fill-opacity="0.10" rx="5" ry="3" stroke="none" /><ellipse cx="238" cy="211" fill="white" fill-opacity="0.10" rx="5" ry="3" stroke="none" /><ellipse cx="274" cy="211" fill="white" fill-opacity="0.10" rx="5" ry="3" stroke="none" /><polygon fill="#b8911a" points="237,308.5 275,308.5 275,343.5 237,343.5" stroke="none" /></svg>