<?xml version="1.0" encoding="utf-8" ?>
<svg baseProfile="full" height="512" version="1.1" width="512" xmlns="http://www.w3.org/2000/svg" xmlns:ev="http://www.w3.org/2001/xml-events" xmlns:xlink="http://www.w3.org/1999/xlink"><defs /><polygon fill="#f9dd5a" points="256.0,147.5 251.9015,147.5 256.0,163.45" stroke="none" /><polygon fill="#f9dc58" points="251.9015,147.5 252.6223333062041,163.45 256.0,163.45" stroke="none" /><polygon fill="#f9db54" points="251.9015,147.5 247.039,147.5 252.6223333062041,163.45" stroke="none" /><polygon fill="#f9db54" points="247.039,147.5 250.30591914423752,163.45 252.6223333062041,163.45" stroke="none" /><polygon fill="#f8d94f" points="247.039,147.5 242.949,147.5 250.30591914423752,163.45" stroke="none" /><polygon fill="#f8d94f" points="242.949,147.5 246.65278781466424,163.45 250.30591914423752,163.45" stroke="none" /><polygon fill="#f7d84b" points="242.949,147.5 241.55,147.5 246.65278781466424,163.45" stroke="none" /><polygon fill="#f8d84d" points="241.55,147.5 245.73434335213366,163.45 246.65278781466424,163.45" stroke="none" /><polygon fill="#f8da50" points="241.55,147.5 255,147.5 245.73434335213366,163.45" stroke="none" /><polygon fill="#f9dc58" points="255,147.5 259,163.45 245.73434335213366,163.45" stroke="none" /><polygon fill="#f9dd5a" points="255,147.5 257.0,147.5 259,163.45" stroke="none" /><polygon fill="#f9dd59" points="257.0,147.5 258.0,163.45 259,163.45" stroke="none" /><polygon fill="#f9dc58" points="257.0,147.5 260.0985,147.5 258.0,163.45" stroke="none" /><polygon fill="#f9db56" points="260.0985,147.5 263.3776666937959,163.45 258.0,163.45" stroke="none" /><polygon fill="#f8da53" points="260.0985,147.5 264.961,147.5 263.3776666937959,163.45" stroke="none" /><polygon fill="#f8da51" points="264.961,147.5 264.6940808557625,163.45 263.3776666937959,163.45" stroke="none" /><polygon fill="#f8d94e" points="264.961,147.5 269.051,147.5 264.6940808557625,163.45" stroke="none" /><polygon fill="#f8d84d" points="269.051,147.5 268.34721218533576,163.45 264.6940808557625,163.45" stroke="none" /><polygon fill="#f7d74a" points="269.051,147.5 270.45,147.5 268.34721218533576,163.45" stroke="none" /><polygon fill="#f7d84b" points="270.45,147.5 266.26565664786636,163.45 268.34721218533576,163.45" stroke="none" /><polygon fill="#f9dd59" points="256.0,163.45 252.6223333062041,163.45 254.0,180.125" stroke="none" /><polygon fill="#f8da54" points="252.6223333062041,163.45 250.08746017180212,180.125 254.0,180.125" stroke="none" /><polygon fill="#f9db55" points="252.6223333062041,163.45 250.30591914423752,163.45 250.08746017180212,180.125" stroke="none" /><polygon fill="#f7d951" points="250.30591914423752,163.45 249.36583908983403,180.125 250.08746017180212,180.125" stroke="none" /><polygon fill="#f8da52" points="250.30591914423752,163.45 246.65278781466424,163.45 249.36583908983403,180.125" stroke="none" /><polygon fill="#f7d74e" points="246.65278781466424,163.45 246.38854222425954,180.125 249.36583908983403,180.125" stroke="none" /><polygon fill="#f8d94f" points="246.65278781466424,163.45 245.73434335213366,163.45 246.38854222425954,180.125" stroke="none" /><polygon fill="#f6d64a" points="245.73434335213366,163.45 241.11351567212762,180.125 246.38854222425954,180.125" stroke="none" /><polygon fill="#f8da52" points="245.73434335213366,163.45 259,163.45 241.11351567212762,180.125" stroke="none" /><polygon fill="#f8da54" points="259,163.45 258,180.125 241.11351567212762,180.125" stroke="none" /><polygon fill="#f9dc58" points="259,163.45 258.0,163.45 258,180.125" stroke="none" /><polygon fill="#f8db58" points="258.0,163.45 254.0,180.125 258,180.125" stroke="none" /><polygon fill="#f9dc58" points="258.0,163.45 263.3776666937959,163.45 254.0,180.125" stroke="none" /><polygon fill="#f8da54" points="263.3776666937959,163.45 260.9125398281979,180.125 254.0,180.125" stroke="none" /><polygon fill="#f8da52" points="263.3776666937959,163.45 264.6940808557625,163.45 260.9125398281979,180.125" stroke="none" /><polygon fill="#f7d850" points="264.6940808557625,163.45 262.634160910166,180.125 260.9125398281979,180.125" stroke="none" /><polygon fill="#f8d94f" points="264.6940808557625,163.45 268.34721218533576,163.45 262.634160910166,180.125" stroke="none" /><polygon fill="#f7d74c" points="268.34721218533576,163.45 267.61145777574046,180.125 262.634160910166,180.125" stroke="none" /><polygon fill="#f8d84d" points="268.34721218533576,163.45 266.26565664786636,163.45 267.61145777574046,180.125" stroke="none" /><polygon fill="#f6d64a" points="266.26565664786636,163.45 269.8864843278724,180.125 267.61145777574046,180.125" stroke="none" /><polygon fill="#f7d84f" points="254.0,180.125 250.08746017180212,180.125 255.0,194.625" stroke="none" /><polygon fill="#f6d64b" points="250.08746017180212,180.125 249.3415750125432,194.625 255.0,194.625" stroke="none" /><polygon fill="#f6d64b" points="250.08746017180212,180.125 249.36583908983403,180.125 249.3415750125432,194.625" stroke="none" /><polygon fill="#f5d446" points="249.36583908983403,180.125 242.78216214325772,194.625 249.3415750125432,194.625" stroke="none" /><polygon fill="#f5d447" points="249.36583908983403,180.125 246.38854222425954,180.125 242.78216214325772,194.625" stroke="none" /><polygon fill="#f3d03f" points="246.38854222425954,180.125 233.53463184782936,194.625 242.78216214325772,194.625" stroke="none" /><polygon fill="#f3d141" points="246.38854222425954,180.125 241.11351567212762,180.125 233.53463184782936,194.625" stroke="none" /><polygon fill="#f1cd38" points="241.11351567212762,180.125 229.76234852285813,194.625 233.53463184782936,194.625" stroke="none" /><polygon fill="#f4d344" points="241.11351567212762,180.125 258,180.125 229.76234852285813,194.625" stroke="none" /><polygon fill="#f5d548" points="258,180.125 259,194.625 229.76234852285813,194.625" stroke="none" /><polygon fill="#f7d951" points="258,180.125 254.0,180.125 259,194.625" stroke="none" /><polygon fill="#f7d84f" points="254.0,180.125 254.0,194.625 259,194.625" stroke="none" /><polygon fill="#f7d952" points="254.0,180.125 260.9125398281979,180.125 254.0,194.625" stroke="none" /><polygon fill="#f7d74c" points="260.9125398281979,180.125 262.65842498745684,194.625 254.0,194.625" stroke="none" /><polygon fill="#f6d64c" points="260.9125398281979,180.125 262.634160910166,180.125 262.65842498745684,194.625" stroke="none" /><polygon fill="#f4d344" points="262.634160910166,180.125 273.2178378567423,194.625 262.65842498745684,194.625" stroke="none" /><polygon fill="#f4d345" points="262.634160910166,180.125 267.61145777574046,180.125 273.2178378567423,194.625" stroke="none" /><polygon fill="#f3d03f" points="267.61145777574046,180.125 273.46536815217064,194.625 273.2178378567423,194.625" stroke="none" /><polygon fill="#f4d242" points="267.61145777574046,180.125 269.8864843278724,180.125 273.46536815217064,194.625" stroke="none" /><polygon fill="#f2ce3b" points="269.8864843278724,180.125 281.23765147714187,194.625 273.46536815217064,194.625" stroke="none" /><polygon fill="#f5d648" points="255.0,194.625 249.3415750125432,194.625 255.0,206.95" stroke="none" /><polygon fill="#f4d343" points="249.3415750125432,194.625 246.7001437584906,206.95 255.0,206.95" stroke="none" /><polygon fill="#f3d141" points="249.3415750125432,194.625 242.78216214325772,194.625 246.7001437584906,206.95" stroke="none" /><polygon fill="#f1cd3a" points="242.78216214325772,194.625 234.38207084825623,206.95 246.7001437584906,206.95" stroke="none" /><polygon fill="#f0cb37" points="242.78216214325772,194.625 233.53463184782936,194.625 234.38207084825623,206.95" stroke="none" /><polygon fill="#edc730" points="233.53463184782936,194.625 223.92761252006872,206.95 234.38207084825623,206.95" stroke="none" /><polygon fill="#edc730" points="233.53463184782936,194.625 229.76234852285813,194.625 223.92761252006872,206.95" stroke="none" /><polygon fill="#ebc22a" points="229.76234852285813,194.625 218.72770835906246,206.95 223.92761252006872,206.95" stroke="none" /><polygon fill="#efcb36" points="229.76234852285813,194.625 259,194.625 218.72770835906246,206.95" stroke="none" /><polygon fill="#f2cf3e" points="259,194.625 256,206.95 218.72770835906246,206.95" stroke="none" /><polygon fill="#f6d74a" points="259,194.625 254.0,194.625 256,206.95" stroke="none" /><polygon fill="#f6d648" points="254.0,194.625 257.0,206.95 256,206.95" stroke="none" /><polygon fill="#f6d649" points="254.0,194.625 262.65842498745684,194.625 257.0,206.95" stroke="none" /><polygon fill="#f4d343" points="262.65842498745684,194.625 265.29985624150936,206.95 257.0,206.95" stroke="none" /><polygon fill="#f3d13f" points="262.65842498745684,194.625 273.2178378567423,194.625 265.29985624150936,206.95" stroke="none" /><polygon fill="#f1cd3a" points="273.2178378567423,194.625 274.61792915174374,206.95 265.29985624150936,206.95" stroke="none" /><polygon fill="#f0cc39" points="273.2178378567423,194.625 273.46536815217064,194.625 274.61792915174374,206.95" stroke="none" /><polygon fill="#efc934" points="273.46536815217064,194.625 283.07238747993125,206.95 274.61792915174374,206.95" stroke="none" /><polygon fill="#eec933" points="273.46536815217064,194.625 281.23765147714187,194.625 283.07238747993125,206.95" stroke="none" /><polygon fill="#ebc42c" points="281.23765147714187,194.625 293.2722916409375,206.95 283.07238747993125,206.95" stroke="none" /><polygon fill="#f5d241" points="255.0,206.95 246.7001437584906,206.95 254.0,218.55" stroke="none" /><polygon fill="#f1ce39" points="246.7001437584906,206.95 238.5462076946849,218.55 254.0,218.55" stroke="none" /><polygon fill="#efca36" points="246.7001437584906,206.95 234.38207084825623,206.95 238.5462076946849,218.55" stroke="none" /><polygon fill="#ebc52e" points="234.38207084825623,206.95 227.08121352399166,218.55 238.5462076946849,218.55" stroke="none" /><polygon fill="#eac22c" points="234.38207084825623,206.95 223.92761252006872,206.95 227.08121352399166,218.55" stroke="none" /><polygon fill="#e7be26" points="223.92761252006872,206.95 220.10921818743705,218.55 227.08121352399166,218.55" stroke="none" /><polygon fill="#e7bd25" points="223.92761252006872,206.95 218.72770835906246,206.95 220.10921818743705,218.55" stroke="none" /><polygon fill="#e3b71e" points="218.72770835906246,206.95 203.140023317227,218.55 220.10921818743705,218.55" stroke="none" /><polygon fill="#e9c02a" points="218.72770835906246,206.95 256,206.95 203.140023317227,218.55" stroke="none" /><polygon fill="#eec833" points="256,206.95 256,218.55 203.140023317227,218.55" stroke="none" /><polygon fill="#f6d444" points="256,206.95 257.0,206.95 256,218.55" stroke="none" /><polygon fill="#f5d441" points="257.0,206.95 256.0,218.55 256,218.55" stroke="none" /><polygon fill="#f5d241" points="257.0,206.95 265.29985624150936,206.95 256.0,218.55" stroke="none" /><polygon fill="#f2ce3a" points="265.29985624150936,206.95 273.4537923053151,218.55 256.0,218.55" stroke="none" /><polygon fill="#f0ca37" points="265.29985624150936,206.95 274.61792915174374,206.95 273.4537923053151,218.55" stroke="none" /><polygon fill="#ecc52f" points="274.61792915174374,206.95 286.91878647600834,218.55 273.4537923053151,218.55" stroke="none" /><polygon fill="#ebc32e" points="274.61792915174374,206.95 283.07238747993125,206.95 286.91878647600834,218.55" stroke="none" /><polygon fill="#e7be27" points="283.07238747993125,206.95 293.8907818125629,218.55 286.91878647600834,218.55" stroke="none" /><polygon fill="#e7bd26" points="283.07238747993125,206.95 293.2722916409375,206.95 293.8907818125629,218.55" stroke="none" /><polygon fill="#e3b71e" points="293.2722916409375,206.95 308.859976682773,218.55 293.8907818125629,218.55" stroke="none" /><polygon fill="#f2ce38" points="254.0,218.55 238.5462076946849,218.55 255.0,228.7" stroke="none" /><polygon fill="#f0ca35" points="238.5462076946849,218.55 245.71399484879186,228.7 255.0,228.7" stroke="none" /><polygon fill="#ecc52f" points="238.5462076946849,218.55 227.08121352399166,218.55 245.71399484879186,228.7" stroke="none" /><polygon fill="#eac22d" points="227.08121352399166,218.55 231.64883943120995,228.7 245.71399484879186,228.7" stroke="none" /><polygon fill="#e6bd27" points="227.08121352399166,218.55 220.10921818743705,218.55 231.64883943120995,228.7" stroke="none" /><polygon fill="#e5ba25" points="220.10921818743705,218.55 222.5967150971444,228.7 231.64883943120995,228.7" stroke="none" /><polygon fill="#e1b51e" points="220.10921818743705,218.55 203.140023317227,218.55 222.5967150971444,228.7" stroke="none" /><polygon fill="#dfb21d" points="203.140023317227,218.55 214.73937832967232,228.7 222.5967150971444,228.7" stroke="none" /><polygon fill="#e5bc25" points="203.140023317227,218.55 256,218.55 214.73937832967232,228.7" stroke="none" /><polygon fill="#eec732" points="256,218.55 257,228.7 214.73937832967232,228.7" stroke="none" /><polygon fill="#f5d23d" points="256,218.55 256.0,218.55 257,228.7" stroke="none" /><polygon fill="#f5d13c" points="256.0,218.55 257.0,228.7 257,228.7" stroke="none" /><polygon fill="#f2ce39" points="256.0,218.55 273.4537923053151,218.55 257.0,228.7" stroke="none" /><polygon fill="#f0ca35" points="273.4537923053151,218.55 266.28600515120814,228.7 257.0,228.7" stroke="none" /><polygon fill="#ebc42e" points="273.4537923053151,218.55 286.91878647600834,218.55 266.28600515120814,228.7" stroke="none" /><polygon fill="#eac12c" points="286.91878647600834,218.55 280.3511605687901,228.7 266.28600515120814,228.7" stroke="none" /><polygon fill="#e6bc26" points="286.91878647600834,218.55 293.8907818125629,218.55 280.3511605687901,228.7" stroke="none" /><polygon fill="#e5bb26" points="293.8907818125629,218.55 284.4032849028556,228.7 280.3511605687901,228.7" stroke="none" /><polygon fill="#e1b61f" points="293.8907818125629,218.55 308.859976682773,218.55 284.4032849028556,228.7" stroke="none" /><polygon fill="#e0b31e" points="308.859976682773,218.55 296.2606216703277,228.7 284.4032849028556,228.7" stroke="none" /><polygon fill="#f2cd36" points="255.0,228.7 245.71399484879186,228.7 254.0,240.3" stroke="none" /><polygon fill="#efc930" points="245.71399484879186,228.7 243.38216702473426,240.3 254.0,240.3" stroke="none" /><polygon fill="#ecc42e" points="245.71399484879186,228.7 231.64883943120995,228.7 243.38216702473426,240.3" stroke="none" /><polygon fill="#eac22b" points="231.64883943120995,228.7 242.09592992226024,240.3 243.38216702473426,240.3" stroke="none" /><polygon fill="#e7be28" points="231.64883943120995,228.7 222.5967150971444,228.7 242.09592992226024,240.3" stroke="none" /><polygon fill="#e6bd27" points="222.5967150971444,228.7 233.266940240281,240.3 242.09592992226024,240.3" stroke="none" /><polygon fill="#e2b723" points="222.5967150971444,228.7 214.73937832967232,228.7 233.266940240281,240.3" stroke="none" /><polygon fill="#e1b722" points="214.73937832967232,228.7 225.85505159010387,240.3 233.266940240281,240.3" stroke="none" /><polygon fill="#e7be29" points="214.73937832967232,228.7 257,228.7 225.85505159010387,240.3" stroke="none" /><polygon fill="#efc830" points="257,228.7 257,240.3 225.85505159010387,240.3" stroke="none" /><polygon fill="#f4d038" points="257,228.7 257.0,228.7 257,240.3" stroke="none" /><polygon fill="#f4cf35" points="257.0,228.7 255.0,240.3 257,240.3" stroke="none" /><polygon fill="#f3ce36" points="257.0,228.7 266.28600515120814,228.7 255.0,240.3" stroke="none" /><polygon fill="#f0ca31" points="266.28600515120814,228.7 268.61783297526574,240.3 255.0,240.3" stroke="none" /><polygon fill="#ecc42e" points="266.28600515120814,228.7 280.3511605687901,228.7 268.61783297526574,240.3" stroke="none" /><polygon fill="#eac22b" points="280.3511605687901,228.7 270.9040700777398,240.3 268.61783297526574,240.3" stroke="none" /><polygon fill="#e8bf29" points="280.3511605687901,228.7 284.4032849028556,228.7 270.9040700777398,240.3" stroke="none" /><polygon fill="#e7bd28" points="284.4032849028556,228.7 281.73305975971897,240.3 270.9040700777398,240.3" stroke="none" /><polygon fill="#e3b823" points="284.4032849028556,228.7 296.2606216703277,228.7 281.73305975971897,240.3" stroke="none" /><polygon fill="#e1b622" points="296.2606216703277,228.7 287.14494840989613,240.3 281.73305975971897,240.3" stroke="none" /><polygon fill="#f0ca2f" points="254.0,240.3 243.38216702473426,240.3 254.0,252.625" stroke="none" /><polygon fill="#eec72c" points="243.38216702473426,240.3 247.31525292159705,252.625 254.0,252.625" stroke="none" /><polygon fill="#ecc42b" points="243.38216702473426,240.3 242.09592992226024,240.3 247.31525292159705,252.625" stroke="none" /><polygon fill="#ecc42a" points="242.09592992226024,240.3 246.2510505894736,252.625 247.31525292159705,252.625" stroke="none" /><polygon fill="#eac129" points="242.09592992226024,240.3 233.266940240281,240.3 246.2510505894736,252.625" stroke="none" /><polygon fill="#e8bf27" points="233.266940240281,240.3 238.19968872377487,252.625 246.2510505894736,252.625" stroke="none" /><polygon fill="#e5ba25" points="233.266940240281,240.3 225.85505159010387,240.3 238.19968872377487,252.625" stroke="none" /><polygon fill="#e4b924" points="225.85505159010387,240.3 233.74319067150623,252.625 238.19968872377487,252.625" stroke="none" /><polygon fill="#e9c028" points="225.85505159010387,240.3 257,240.3 233.74319067150623,252.625" stroke="none" /><polygon fill="#efc72c" points="257,240.3 256,252.625 233.74319067150623,252.625" stroke="none" /><polygon fill="#f4cf32" points="257,240.3 255.0,240.3 256,252.625" stroke="none" /><polygon fill="#f3cd2f" points="255.0,240.3 255.0,252.625 256,252.625" stroke="none" /><polygon fill="#f1cb30" points="255.0,240.3 268.61783297526574,240.3 255.0,252.625" stroke="none" /><polygon fill="#efc82c" points="268.61783297526574,240.3 263.68474707840295,252.625 255.0,252.625" stroke="none" /><polygon fill="#ecc42b" points="268.61783297526574,240.3 270.9040700777398,240.3 263.68474707840295,252.625" stroke="none" /><polygon fill="#ecc42a" points="270.9040700777398,240.3 265.7489494105264,252.625 263.68474707840295,252.625" stroke="none" /><polygon fill="#e9c028" points="270.9040700777398,240.3 281.73305975971897,240.3 265.7489494105264,252.625" stroke="none" /><polygon fill="#e9c027" points="281.73305975971897,240.3 268.80031127622516,252.625 265.7489494105264,252.625" stroke="none" /><polygon fill="#e5ba25" points="281.73305975971897,240.3 287.14494840989613,240.3 268.80031127622516,252.625" stroke="none" /><polygon fill="#e4ba24" points="287.14494840989613,240.3 279.2568093284938,252.625 268.80031127622516,252.625" stroke="none" /><polygon fill="#f1c929" points="254.0,252.625 247.31525292159705,252.625 259.0,264.95" stroke="none" /><polygon fill="#f1c828" points="247.31525292159705,252.625 254.1188874033956,264.95 259.0,264.95" stroke="none" /><polygon fill="#eec528" points="247.31525292159705,252.625 246.2510505894736,252.625 254.1188874033956,264.95" stroke="none" /><polygon fill="#edc326" points="246.2510505894736,252.625 244.42107483021047,264.95 254.1188874033956,264.95" stroke="none" /><polygon fill="#e9c025" points="246.2510505894736,252.625 238.19968872377487,252.625 244.42107483021047,264.95" stroke="none" /><polygon fill="#e9bf24" points="238.19968872377487,252.625 247.46282477166235,264.95 244.42107483021047,264.95" stroke="none" /><polygon fill="#e7bd24" points="238.19968872377487,252.625 233.74319067150623,252.625 247.46282477166235,264.95" stroke="none" /><polygon fill="#e8be23" points="233.74319067150623,252.625 244.20874970725941,264.95 247.46282477166235,264.95" stroke="none" /><polygon fill="#eac126" points="233.74319067150623,252.625 256,252.625 244.20874970725941,264.95" stroke="none" /><polygon fill="#efc727" points="256,252.625 255,264.95 244.20874970725941,264.95" stroke="none" /><polygon fill="#f2cb2a" points="256,252.625 255.0,252.625 255,264.95" stroke="none" /><polygon fill="#f2ca28" points="255.0,252.625 256.0,264.95 255,264.95" stroke="none" /><polygon fill="#f1c92a" points="255.0,252.625 263.68474707840295,252.625 256.0,264.95" stroke="none" /><polygon fill="#efc727" points="263.68474707840295,252.625 260.8811125966044,264.95 256.0,264.95" stroke="none" /><polygon fill="#edc527" points="263.68474707840295,252.625 265.7489494105264,252.625 260.8811125966044,264.95" stroke="none" /><polygon fill="#ecc325" points="265.7489494105264,252.625 265.57892516978956,264.95 260.8811125966044,264.95" stroke="none" /><polygon fill="#ebc226" points="265.7489494105264,252.625 268.80031127622516,252.625 265.57892516978956,264.95" stroke="none" /><polygon fill="#e9bf24" points="268.80031127622516,252.625 270.5371752283377,264.95 265.57892516978956,264.95" stroke="none" /><polygon fill="#e6bc23" points="268.80031127622516,252.625 279.2568093284938,252.625 270.5371752283377,264.95" stroke="none" /><polygon fill="#e5ba22" points="279.2568093284938,252.625 273.7912502927406,264.95 270.5371752283377,264.95" stroke="none" /><polygon fill="#f2c923" points="259.0,264.95 254.1188874033956,264.95 257.0,278.0" stroke="none" /><polygon fill="#f2c923" points="254.1188874033956,264.95 254.20064067966297,278.0 257.0,278.0" stroke="none" /><polygon fill="#eec522" points="254.1188874033956,264.95 244.42107483021047,264.95 254.20064067966297,278.0" stroke="none" /><polygon fill="#edc221" points="244.42107483021047,264.95 247.56476240668036,278.0 254.20064067966297,278.0" stroke="none" /><polygon fill="#ebc021" points="244.42107483021047,264.95 247.46282477166235,264.95 247.56476240668036,278.0" stroke="none" /><polygon fill="#eabf21" points="247.46282477166235,264.95 241.65605978829427,278.0 247.56476240668036,278.0" stroke="none" /><polygon fill="#e9be20" points="247.46282477166235,264.95 244.20874970725941,264.95 241.65605978829427,278.0" stroke="none" /><polygon fill="#e7bc20" points="244.20874970725941,264.95 241.4564869080696,278.0 241.65605978829427,278.0" stroke="none" /><polygon fill="#ebc121" points="244.20874970725941,264.95 255,264.95 241.4564869080696,278.0" stroke="none" /><polygon fill="#efc522" points="255,264.95 259,278.0 241.4564869080696,278.0" stroke="none" /><polygon fill="#f2c923" points="255,264.95 256.0,264.95 259,278.0" stroke="none" /><polygon fill="#f1c823" points="256.0,264.95 258.0,278.0 259,278.0" stroke="none" /><polygon fill="#f1c723" points="256.0,264.95 260.8811125966044,264.95 258.0,278.0" stroke="none" /><polygon fill="#efc522" points="260.8811125966044,264.95 263.79935932033703,278.0 258.0,278.0" stroke="none" /><polygon fill="#ecc221" points="260.8811125966044,264.95 265.57892516978956,264.95 263.79935932033703,278.0" stroke="none" /><polygon fill="#ebc021" points="265.57892516978956,264.95 267.43523759331964,278.0 263.79935932033703,278.0" stroke="none" /><polygon fill="#e9be20" points="265.57892516978956,264.95 270.5371752283377,264.95 267.43523759331964,278.0" stroke="none" /><polygon fill="#e9be20" points="270.5371752283377,264.95 265.3439402117057,278.0 267.43523759331964,278.0" stroke="none" /><polygon fill="#e7bc20" points="270.5371752283377,264.95 273.7912502927406,264.95 265.3439402117057,278.0" stroke="none" /><polygon fill="#e7bc20" points="273.7912502927406,264.95 269.5435130919304,278.0 265.3439402117057,278.0" stroke="none" /><polygon fill="#f2c923" points="257.0,278.0 254.20064067966297,278.0 255.0,292.5" stroke="none" /><polygon fill="#f0c723" points="254.20064067966297,278.0 249.9015,292.5 255.0,292.5" stroke="none" /><polygon fill="#eec422" points="254.20064067966297,278.0 247.56476240668036,278.0 249.9015,292.5" stroke="none" /><polygon fill="#ecc221" points="247.56476240668036,278.0 247.039,292.5 249.9015,292.5" stroke="none" /><polygon fill="#eabf21" points="247.56476240668036,278.0 241.65605978829427,278.0 247.039,292.5" stroke="none" /><polygon fill="#e9be20" points="241.65605978829427,278.0 244.949,292.5 247.039,292.5" stroke="none" /><polygon fill="#e8bc20" points="241.65605978829427,278.0 241.4564869080696,278.0 244.949,292.5" stroke="none" /><polygon fill="#e8bc20" points="241.4564869080696,278.0 241.55,292.5 244.949,292.5" stroke="none" /><polygon fill="#ebc121" points="241.4564869080696,278.0 259,278.0 241.55,292.5" stroke="none" /><polygon fill="#f0c623" points="259,278.0 257,292.5 241.55,292.5" stroke="none" /><polygon fill="#f1c823" points="259,278.0 258.0,278.0 257,292.5" stroke="none" /><polygon fill="#f2c923" points="258.0,278.0 255.0,292.5 257,292.5" stroke="none" /><polygon fill="#f0c723" points="258.0,278.0 263.79935932033703,278.0 255.0,292.5" stroke="none" /><polygon fill="#efc622" points="263.79935932033703,278.0 261.0985,292.5 255.0,292.5" stroke="none" /><polygon fill="#ecc221" points="263.79935932033703,278.0 267.43523759331964,278.0 261.0985,292.5" stroke="none" /><polygon fill="#ecc221" points="267.43523759331964,278.0 263.961,292.5 261.0985,292.5" stroke="none" /><polygon fill="#ebc021" points="267.43523759331964,278.0 265.3439402117057,278.0 263.961,292.5" stroke="none" /><polygon fill="#eac021" points="265.3439402117057,278.0 269.051,292.5 263.961,292.5" stroke="none" /><polygon fill="#e9be20" points="265.3439402117057,278.0 269.5435130919304,278.0 269.051,292.5" stroke="none" /><polygon fill="#e7bb1f" points="269.5435130919304,278.0 272.45,292.5 269.051,292.5" stroke="none" /><path d="M 244 210 A 4 18 0 0 0 244 228 Z" fill="#f3ca24" stroke="#d0a018" stroke-width="1" /><path d="M 268 210 A 4 18 0 0 1 268 228 Z" fill="#f3ca24" stroke="#d0a018" stroke-width="1" /><path d="M 225 212 Q 240 204 255 216 Q 240 227 225 212" fill="#e8e0d8" stroke="#3a2a1a" stroke-width="1.5" /><path d="M 238 215 A 3 3 0 0 0 244 215 Z" fill="#3a2a1a" stroke="none" /><circle cx="241" cy="214" fill="white" r="1" stroke="none" /><path d="M 257 212 Q 272 204 287 216 Q 272 227 257 212" fill="#e8e0d8" stroke="#3a2a1a" stroke-width="1.5" /><path d="M 270 215 A 3 3 0 0 0 276 215 Z" fill="#3a2a1a" stroke="none" /><circle cx="273" cy="214" fill="white" r="1" stroke="none" /><line stroke="#3a2a1a" stroke-width="2" x1="228" x2="252" y1="206" y2="206" /><line stroke="#3a2a1a" stroke-width="2" x1="262" x2="282" y1="209" y2="209" /><path d="M 228 224 A 5 3 0 0 0 238 224 Z" fill="#e88060" fill-opacity="0.2526715270201093" stroke="none" /><path d="M 271 226 A 6 4 0 0 0 283 226 Z" fill="#e88060" fill-opacity="0.2708604099856874" stroke="none" /><path d="M 256 223 Q 258 226 257 229 Q 256 230 255 229 Q 254 226 256 223" fill="#d0a018" stroke="none" /><path d="M 244 237 Q 247 239 250 237 Q 253 235 256 237 Q 259 239 262 237 Q 265 235 268 237" fill="none" stroke="#c06050" stroke-width="3" /><circle cx="274" cy="199" fill="#d0a018" fill-opacity="0.15" r="0.5" stroke="none" /><circle cx="236" cy="180" fill="#d0a018" fill-opacity="0.15" r="1.1472583954250506" stroke="none" /><circle cx="277" cy="224" fill="#d0a018" fill-opacity="0.15" r="0.6354466620806055" stroke="none" /><circle cx="227" cy="231" fill="#d0a018" fill-opacity="0.15" r="1.6747122858979662" stroke="none" /><circle cx="254" cy="190" fill="#d0a018" fill-opacity="0.15" r="1.146313236191819" stroke="none" /><circle cx="234" cy="179" fill="#d0a018" fill-opacity="0.15" r="1.4418281807552784" stroke="none" /><circle cx="258" cy="204" fill="#d0a018" fill-opacity="0.15" r="1.0960262126552656" stroke="none" /><circle cx="288" cy="236" fill="#d0a018" fill-opacity="0.15" r="0.5" stroke="none" /><circle cx="222" cy="236" fill="#d0a018" fill-opacity="0.15" r="1.131686286392048" stroke="none" /><circle cx="280" cy="204" fill="#d0a018" fill-opacity="0.15" r="0.7377654993615158" stroke="none" /><circle cx="234" cy="186" fill="#d0a018" fill-opacity="0.15" r="1.4650281517212582" stroke="none" /><circle cx="279" cy="224" fill="#d0a018" fill-opacity="0.15" r="1.4114170107578738" stroke="none" /><circle cx="256" cy="209" fill="#d0a018" fill-opacity="0.15" r="0.5" stroke="none" /><circle cx="278" cy="186" fill="#d0a018" fill-opacity="0.15" r="0.5" stroke="none" /><circle cx="288" cy="221" fill="#d0a018" fill-opacity="0.15" r="0.6810203774450327" stroke="none" /><circle cx="228" cy="181" fill="#d0a018" fill-opacity="0.15" r="1.7146213845002578" stroke="none" /><circle cx="221" cy="240" fill="#d0a018" fill-opacity="0.15" r="1.2297638126863524" stroke="none" /><circle cx="239" cy="226" fill="#d0a018" fill-opacity="0.15" r="0.5" stroke="none" /><circle cx="278" cy="248" fill="#d0a018" fill-opacity="0.15" r="1.116728192478935" stroke="none" /><circle cx="274" cy="239" fill="#d0a018" fill-opacity="0.15" r="1.5693723992260618" stroke="none" /><circle cx="258" cy="185" fill="#d0a018" fill-opacity="0.15" r="0.9599611917112787" stroke="none" /><circle cx="280" cy="251" fill="#d0a018" fill-opacity="0.15" r="1.6169521927923578" stroke="none" /><circle cx="238" cy="202" fill="#d0a018" fill-opacity="0.15" r="0.848832824734064" stroke="none" /><circle cx="287" cy="204" fill="#d0a018" fill-opacity="0.15" r="0.7611556251781467" stroke="none" /><circle cx="254" cy="244" fill="#d0a018" fill-opacity="0.15" r="1.204553962390128" stroke="none" /><circle cx="290" cy="184" fill="#d0a018" fill-opacity="0.15" r="1.4405727538009119" stroke="none" /><circle cx="243" cy="177" fill="#d0a018" fill-opacity="0.15" r="1.2252834150436251" stroke="none" /><circle cx="221" cy="209" fill="#d0a018" fill-opacity="0.15" r="1.160046528507066" stroke="none" /><circle cx="228" cy="240" fill="#d0a018" fill-opacity="0.15" r="1.5246554340739" stroke="none" /><circle cx="267" cy="254" fill="#d0a018" fill-opacity="0.15" r="0.9196221227804456" stroke="none" /><circle cx="267" cy="226" fill="#d0a018" fill-opacity="0.15" r="0.6277525430940277" stroke="none" /><circle cx="224" cy="191" fill="#d0a018" fill-opacity="0.15" r="1.2298530714411149" stroke="none" /><circle cx="233" cy="206" fill="#d0a018" fill-opacity="0.15" r="1.468077269540593" stroke="none" /><circle cx="232" cy="228" fill="#d0a018" fill-opacity="0.15" r="1.1614733853255372" stroke="none" /><circle cx="259" cy="211" fill="#d0a018" fill-opacity="0.15" r="0.9186391278351713" stroke="none" /><circle cx="238" cy="205" fill="#d0a018" fill-opacity="0.15" r="1.2221555400514037" stroke="none" /><circle cx="224" cy="238" fill="#d0a018" fill-opacity="0.15" r="1.2336794522251595" stroke="none" /><circle cx="243" cy="178" fill="#d0a018" fill-opacity="0.15" r="0.918225326236399" stroke="none" /><circle cx="278" cy="227" fill="#d0a018" fill-opacity="0.15" r="0.6619503612081667" stroke="none" /><circle cx="233" cy="183" fill="#d0a018" fill-opacity="0.15" r="1.2171393870721972" stroke="none" /><circle cx="278" cy="254" fill="#d0a018" fill-opacity="0.15" r="0.5503116439682327" stroke="none" /><circle cx="221" cy="221" fill="#d0a018" fill-opacity="0.15" r="1.5454915212223088" stroke="none" /><circle cx="268" cy="247" fill="#d0a018" fill-opacity="0.15" r="1.6341355066568568" stroke="none" /><circle cx="273" cy="229" fill="#d0a018" fill-opacity="0.15" r="1.6334162491566717" stroke="none" /><polygon fill="#b48c14" points="242,288.5 270,288.5 270,323.5 242,323.5" stroke="none" /><path d="M 253 306.5 Q 256 296.5 259 306.5" fill="none" stroke="#d0a018" stroke-width="1.5" /></svg>