<?xml version="1.0" encoding="utf-8" ?>
<svg baseProfile="full" height="512" version="1.1" width="512" xmlns="http://www.w3.org/2000/svg" xmlns:ev="http://www.w3.org/2001/xml-events" xmlns:xlink="http://www.w3.org/1999/xlink"><defs /><polygon fill="#f9dd5b" points="256.0,58.0 254.6834,58.0 258.0,93.64" stroke="none" /><polygon fill="#f9dc57" points="254.6834,58.0 234.1377793714052,93.64 258.0,93.64" stroke="none" /><polygon fill="#f9dc56" points="254.6834,58.0 250.9284,58.0 234.1377793714052,93.64" stroke="none" /><polygon fill="#f8d94f" points="250.9284,58.0 220.09064253156063,93.64 234.1377793714052,93.64" stroke="none" /><polygon fill="#f8da53" points="250.9284,58.0 250.5244,58.0 220.09064253156063,93.64" stroke="none" /><polygon fill="#f7d84b" points="250.5244,58.0 212.052933059685,93.64 220.09064253156063,93.64" stroke="none" /><polygon fill="#f8da51" points="250.5244,58.0 247.98,58.0 212.052933059685,93.64" stroke="none" /><polygon fill="#f7d646" points="247.98,58.0 194.81145264062178,93.64 212.052933059685,93.64" stroke="none" /><polygon fill="#f8d94e" points="247.98,58.0 257,58.0 194.81145264062178,93.64" stroke="none" /><polygon fill="#f8d950" points="257,58.0 255,93.64 194.81145264062178,93.64" stroke="none" /><polygon fill="#f9dd5b" points="257,58.0 257.0,58.0 255,93.64" stroke="none" /><polygon fill="#f9dd5b" points="257.0,58.0 258.0,93.64 255,93.64" stroke="none" /><polygon fill="#f9dd5a" points="257.0,58.0 258.3166,58.0 258.0,93.64" stroke="none" /><polygon fill="#f9dc56" points="258.3166,58.0 277.8622206285948,93.64 258.0,93.64" stroke="none" /><polygon fill="#f9db56" points="258.3166,58.0 261.0716,58.0 277.8622206285948,93.64" stroke="none" /><polygon fill="#f8d950" points="261.0716,58.0 290.90935746843934,93.64 277.8622206285948,93.64" stroke="none" /><polygon fill="#f8da53" points="261.0716,58.0 262.4756,58.0 290.90935746843934,93.64" stroke="none" /><polygon fill="#f7d74a" points="262.4756,58.0 303.947066940315,93.64 290.90935746843934,93.64" stroke="none" /><polygon fill="#f8d950" points="262.4756,58.0 264.02,58.0 303.947066940315,93.64" stroke="none" /><polygon fill="#f7d645" points="264.02,58.0 316.1885473593782,93.64 303.947066940315,93.64" stroke="none" /><polygon fill="#f9dc58" points="258.0,93.64 234.1377793714052,93.64 257.0,130.89999999999998" stroke="none" /><polygon fill="#f7d850" points="234.1377793714052,93.64 229.98995740509568,130.89999999999998 257.0,130.89999999999998" stroke="none" /><polygon fill="#f7d84b" points="234.1377793714052,93.64 220.09064253156063,93.64 229.98995740509568,130.89999999999998" stroke="none" /><polygon fill="#f6d445" points="220.09064253156063,93.64 212.2853796816833,130.89999999999998 229.98995740509568,130.89999999999998" stroke="none" /><polygon fill="#f7d544" points="220.09064253156063,93.64 212.052933059685,93.64 212.2853796816833,130.89999999999998" stroke="none" /><polygon fill="#f5d13e" points="212.052933059685,93.64 197.5217175029534,130.89999999999998 212.2853796816833,130.89999999999998" stroke="none" /><polygon fill="#f6d23c" points="212.052933059685,93.64 194.81145264062178,93.64 197.5217175029534,130.89999999999998" stroke="none" /><polygon fill="#f3cd34" points="194.81145264062178,93.64 180.18168910635052,130.89999999999998 197.5217175029534,130.89999999999998" stroke="none" /><polygon fill="#f6d441" points="194.81145264062178,93.64 255,93.64 180.18168910635052,130.89999999999998" stroke="none" /><polygon fill="#f6d64a" points="255,93.64 254,130.89999999999998 180.18168910635052,130.89999999999998" stroke="none" /><polygon fill="#f9dd5b" points="255,93.64 258.0,93.64 254,130.89999999999998" stroke="none" /><polygon fill="#f8db58" points="258.0,93.64 259.0,130.89999999999998 254,130.89999999999998" stroke="none" /><polygon fill="#f9dc56" points="258.0,93.64 277.8622206285948,93.64 259.0,130.89999999999998" stroke="none" /><polygon fill="#f7d850" points="277.8622206285948,93.64 279.01004259490435,130.89999999999998 259.0,130.89999999999998" stroke="none" /><polygon fill="#f8d84c" points="277.8622206285948,93.64 290.90935746843934,93.64 279.01004259490435,130.89999999999998" stroke="none" /><polygon fill="#f6d446" points="290.90935746843934,93.64 298.7146203183167,130.89999999999998 279.01004259490435,130.89999999999998" stroke="none" /><polygon fill="#f6d543" points="290.90935746843934,93.64 303.947066940315,93.64 298.7146203183167,130.89999999999998" stroke="none" /><polygon fill="#f4d03c" points="303.947066940315,93.64 320.47828249704656,130.89999999999998 298.7146203183167,130.89999999999998" stroke="none" /><polygon fill="#f5d23a" points="303.947066940315,93.64 316.1885473593782,93.64 320.47828249704656,130.89999999999998" stroke="none" /><polygon fill="#f3cd33" points="316.1885473593782,93.64 335.8183108936495,130.89999999999998 320.47828249704656,130.89999999999998" stroke="none" /><polygon fill="#f7d84f" points="257.0,130.89999999999998 229.98995740509568,130.89999999999998 258.0,163.3" stroke="none" /><polygon fill="#f5d446" points="229.98995740509568,130.89999999999998 221.47922813649905,163.3 258.0,163.3" stroke="none" /><polygon fill="#f4d141" points="229.98995740509568,130.89999999999998 212.2853796816833,130.89999999999998 221.47922813649905,163.3" stroke="none" /><polygon fill="#f1cd3a" points="212.2853796816833,130.89999999999998 197.3271282399074,163.3 221.47922813649905,163.3" stroke="none" /><polygon fill="#f1cd38" points="212.2853796816833,130.89999999999998 197.5217175029534,130.89999999999998 197.3271282399074,163.3" stroke="none" /><polygon fill="#efc82f" points="197.5217175029534,130.89999999999998 171.40544832263407,163.3 197.3271282399074,163.3" stroke="none" /><polygon fill="#efc82e" points="197.5217175029534,130.89999999999998 180.18168910635052,130.89999999999998 171.40544832263407,163.3" stroke="none" /><polygon fill="#ecc325" points="180.18168910635052,130.89999999999998 149.39160041363345,163.3 171.40544832263407,163.3" stroke="none" /><polygon fill="#f1cb34" points="180.18168910635052,130.89999999999998 254,130.89999999999998 149.39160041363345,163.3" stroke="none" /><polygon fill="#f3cf3e" points="254,130.89999999999998 254,163.3 149.39160041363345,163.3" stroke="none" /><polygon fill="#f7d952" points="254,130.89999999999998 259.0,130.89999999999998 254,163.3" stroke="none" /><polygon fill="#f7d84f" points="259.0,130.89999999999998 257.0,163.3 254,163.3" stroke="none" /><polygon fill="#f6d74e" points="259.0,130.89999999999998 279.01004259490435,130.89999999999998 257.0,163.3" stroke="none" /><polygon fill="#f5d446" points="279.01004259490435,130.89999999999998 289.52077186350095,163.3 257.0,163.3" stroke="none" /><polygon fill="#f4d242" points="279.01004259490435,130.89999999999998 298.7146203183167,130.89999999999998 289.52077186350095,163.3" stroke="none" /><polygon fill="#f1cd39" points="298.7146203183167,130.89999999999998 318.67287176009256,163.3 289.52077186350095,163.3" stroke="none" /><polygon fill="#f1cc36" points="298.7146203183167,130.89999999999998 320.47828249704656,130.89999999999998 318.67287176009256,163.3" stroke="none" /><polygon fill="#eec72e" points="320.47828249704656,130.89999999999998 337.5945516773659,163.3 318.67287176009256,163.3" stroke="none" /><polygon fill="#efc82d" points="320.47828249704656,130.89999999999998 335.8183108936495,130.89999999999998 337.5945516773659,163.3" stroke="none" /><polygon fill="#ecc325" points="335.8183108936495,130.89999999999998 357.60839958636655,163.3 337.5945516773659,163.3" stroke="none" /><polygon fill="#f5d446" points="258.0,163.3 221.47922813649905,163.3 256.0,190.84" stroke="none" /><polygon fill="#f3d03f" points="221.47922813649905,163.3 224.86125316475614,190.84 256.0,190.84" stroke="none" /><polygon fill="#f0cc38" points="221.47922813649905,163.3 197.3271282399074,163.3 224.86125316475614,190.84" stroke="none" /><polygon fill="#eec934" points="197.3271282399074,163.3 196.75614192593503,190.84 224.86125316475614,190.84" stroke="none" /><polygon fill="#ecc52d" points="197.3271282399074,163.3 171.40544832263407,163.3 196.75614192593503,190.84" stroke="none" /><polygon fill="#eac229" points="171.40544832263407,163.3 175.67205293487814,190.84 196.75614192593503,190.84" stroke="none" /><polygon fill="#e9be23" points="171.40544832263407,163.3 149.39160041363345,163.3 175.67205293487814,190.84" stroke="none" /><polygon fill="#e7bc20" points="149.39160041363345,163.3 152.57955504471556,190.84 175.67205293487814,190.84" stroke="none" /><polygon fill="#ecc42b" points="149.39160041363345,163.3 254,163.3 152.57955504471556,190.84" stroke="none" /><polygon fill="#f1cd3a" points="254,163.3 256,190.84 152.57955504471556,190.84" stroke="none" /><polygon fill="#f6d74a" points="254,163.3 257.0,163.3 256,190.84" stroke="none" /><polygon fill="#f6d648" points="257.0,163.3 253.0,190.84 256,190.84" stroke="none" /><polygon fill="#f5d546" points="257.0,163.3 289.52077186350095,163.3 253.0,190.84" stroke="none" /><polygon fill="#f3d140" points="289.52077186350095,163.3 289.13874683524386,190.84 253.0,190.84" stroke="none" /><polygon fill="#f0cc37" points="289.52077186350095,163.3 318.67287176009256,163.3 289.13874683524386,190.84" stroke="none" /><polygon fill="#eec833" points="318.67287176009256,163.3 313.243858074065,190.84 289.13874683524386,190.84" stroke="none" /><polygon fill="#ecc52d" points="318.67287176009256,163.3 337.5945516773659,163.3 313.243858074065,190.84" stroke="none" /><polygon fill="#ebc32a" points="337.5945516773659,163.3 332.32794706512186,190.84 313.243858074065,190.84" stroke="none" /><polygon fill="#e9c024" points="337.5945516773659,163.3 357.60839958636655,163.3 332.32794706512186,190.84" stroke="none" /><polygon fill="#e7bd21" points="357.60839958636655,163.3 358.42044495528444,190.84 332.32794706512186,190.84" stroke="none" /><polygon fill="#f5d241" points="256.0,190.84 224.86125316475614,190.84 259.0,216.76" stroke="none" /><polygon fill="#f1ce3a" points="224.86125316475614,190.84 220.5057869466577,216.76 259.0,216.76" stroke="none" /><polygon fill="#eec834" points="224.86125316475614,190.84 196.75614192593503,190.84 220.5057869466577,216.76" stroke="none" /><polygon fill="#ebc42e" points="196.75614192593503,190.84 189.34350433048928,216.76 220.5057869466577,216.76" stroke="none" /><polygon fill="#e9c02a" points="196.75614192593503,190.84 175.67205293487814,190.84 189.34350433048928,216.76" stroke="none" /><polygon fill="#e6bc24" points="175.67205293487814,190.84 166.01367823755456,216.76 189.34350433048928,216.76" stroke="none" /><polygon fill="#e5b921" points="175.67205293487814,190.84 152.57955504471556,190.84 166.01367823755456,216.76" stroke="none" /><polygon fill="#e3b71e" points="152.57955504471556,190.84 139.35086953532635,216.76 166.01367823755456,216.76" stroke="none" /><polygon fill="#e8bf28" points="152.57955504471556,190.84 256,190.84 139.35086953532635,216.76" stroke="none" /><polygon fill="#eec934" points="256,190.84 259,216.76 139.35086953532635,216.76" stroke="none" /><polygon fill="#f7d545" points="256,190.84 253.0,190.84 259,216.76" stroke="none" /><polygon fill="#f5d441" points="253.0,190.84 257.0,216.76 259,216.76" stroke="none" /><polygon fill="#f4d140" points="253.0,190.84 289.13874683524386,190.84 257.0,216.76" stroke="none" /><polygon fill="#f1cd38" points="289.13874683524386,190.84 296.4942130533423,216.76 257.0,216.76" stroke="none" /><polygon fill="#eec833" points="289.13874683524386,190.84 313.243858074065,190.84 296.4942130533423,216.76" stroke="none" /><polygon fill="#ebc32d" points="313.243858074065,190.84 325.6564956695107,216.76 296.4942130533423,216.76" stroke="none" /><polygon fill="#e9c02a" points="313.243858074065,190.84 332.32794706512186,190.84 325.6564956695107,216.76" stroke="none" /><polygon fill="#e6bc24" points="332.32794706512186,190.84 348.9863217624454,216.76 325.6564956695107,216.76" stroke="none" /><polygon fill="#e5ba21" points="332.32794706512186,190.84 358.42044495528444,190.84 348.9863217624454,216.76" stroke="none" /><polygon fill="#e3b71e" points="358.42044495528444,190.84 373.64913046467365,216.76 348.9863217624454,216.76" stroke="none" /><polygon fill="#f3cf3a" points="259.0,216.76 220.5057869466577,216.76 255.0,239.44" stroke="none" /><polygon fill="#f0ca35" points="220.5057869466577,216.76 222.7036690856972,239.44 255.0,239.44" stroke="none" /><polygon fill="#ebc42e" points="220.5057869466577,216.76 189.34350433048928,216.76 222.7036690856972,239.44" stroke="none" /><polygon fill="#e9c02b" points="189.34350433048928,216.76 198.72160021122534,239.44 222.7036690856972,239.44" stroke="none" /><polygon fill="#e5bc25" points="189.34350433048928,216.76 166.01367823755456,216.76 198.72160021122534,239.44" stroke="none" /><polygon fill="#e3b823" points="166.01367823755456,216.76 172.93594511164787,239.44 198.72160021122534,239.44" stroke="none" /><polygon fill="#e0b41d" points="166.01367823755456,216.76 139.35086953532635,216.76 172.93594511164787,239.44" stroke="none" /><polygon fill="#dfb21d" points="139.35086953532635,216.76 155.07172450211266,239.44 172.93594511164787,239.44" stroke="none" /><polygon fill="#e5bc25" points="139.35086953532635,216.76 259,216.76 155.07172450211266,239.44" stroke="none" /><polygon fill="#eec732" points="259,216.76 255,239.44 155.07172450211266,239.44" stroke="none" /><polygon fill="#f5d23d" points="259,216.76 257.0,216.76 255,239.44" stroke="none" /><polygon fill="#f5d13c" points="257.0,216.76 258.0,239.44 255,239.44" stroke="none" /><polygon fill="#f2ce39" points="257.0,216.76 296.4942130533423,216.76 258.0,239.44" stroke="none" /><polygon fill="#f0c934" points="296.4942130533423,216.76 288.2963309143028,239.44 258.0,239.44" stroke="none" /><polygon fill="#ebc32d" points="296.4942130533423,216.76 325.6564956695107,216.76 288.2963309143028,239.44" stroke="none" /><polygon fill="#e9c02b" points="325.6564956695107,216.76 318.27839978877466,239.44 288.2963309143028,239.44" stroke="none" /><polygon fill="#e5bb24" points="325.6564956695107,216.76 348.9863217624454,216.76 318.27839978877466,239.44" stroke="none" /><polygon fill="#e3b823" points="348.9863217624454,216.76 338.06405488835213,239.44 318.27839978877466,239.44" stroke="none" /><polygon fill="#e0b41d" points="348.9863217624454,216.76 373.64913046467365,216.76 338.06405488835213,239.44" stroke="none" /><polygon fill="#dfb21d" points="373.64913046467365,216.76 359.92827549788734,239.44 338.06405488835213,239.44" stroke="none" /><polygon fill="#f2cc35" points="255.0,239.44 222.7036690856972,239.44 254.0,265.36" stroke="none" /><polygon fill="#eec82f" points="222.7036690856972,239.44 222.6592081733981,265.36 254.0,265.36" stroke="none" /><polygon fill="#eac22c" points="222.7036690856972,239.44 198.72160021122534,239.44 222.6592081733981,265.36" stroke="none" /><polygon fill="#e7be28" points="198.72160021122534,239.44 198.1586083047603,265.36 222.6592081733981,265.36" stroke="none" /><polygon fill="#e4b925" points="198.72160021122534,239.44 172.93594511164787,239.44 198.1586083047603,265.36" stroke="none" /><polygon fill="#e1b722" points="172.93594511164787,239.44 182.55812840985004,265.36 198.1586083047603,265.36" stroke="none" /><polygon fill="#dfb31f" points="172.93594511164787,239.44 155.07172450211266,239.44 182.55812840985004,265.36" stroke="none" /><polygon fill="#dcb01d" points="155.07172450211266,239.44 159.99760052544877,265.36 182.55812840985004,265.36" stroke="none" /><polygon fill="#e4b925" points="155.07172450211266,239.44 255,239.44 159.99760052544877,265.36" stroke="none" /><polygon fill="#ecc42d" points="255,239.44 255,265.36 159.99760052544877,265.36" stroke="none" /><polygon fill="#f5d139" points="255,239.44 258.0,239.44 255,265.36" stroke="none" /><polygon fill="#f4cf35" points="258.0,239.44 256.0,265.36 255,265.36" stroke="none" /><polygon fill="#f2cd35" points="258.0,239.44 288.2963309143028,239.44 256.0,265.36" stroke="none" /><polygon fill="#eec82f" points="288.2963309143028,239.44 291.3407918266019,265.36 256.0,265.36" stroke="none" /><polygon fill="#eac12c" points="288.2963309143028,239.44 318.27839978877466,239.44 291.3407918266019,265.36" stroke="none" /><polygon fill="#e7be28" points="318.27839978877466,239.44 312.8413916952397,265.36 291.3407918266019,265.36" stroke="none" /><polygon fill="#e4b925" points="318.27839978877466,239.44 338.06405488835213,239.44 312.8413916952397,265.36" stroke="none" /><polygon fill="#e1b722" points="338.06405488835213,239.44 331.44187159014996,265.36 312.8413916952397,265.36" stroke="none" /><polygon fill="#dfb21f" points="338.06405488835213,239.44 359.92827549788734,239.44 331.44187159014996,265.36" stroke="none" /><polygon fill="#dcaf1d" points="359.92827549788734,239.44 354.0023994745512,265.36 331.44187159014996,265.36" stroke="none" /><polygon fill="#f0ca2f" points="254.0,265.36 222.6592081733981,265.36 255.0,292.9" stroke="none" /><polygon fill="#edc52b" points="222.6592081733981,265.36 225.22596635805448,292.9 255.0,292.9" stroke="none" /><polygon fill="#e8bf28" points="222.6592081733981,265.36 198.1586083047603,265.36 225.22596635805448,292.9" stroke="none" /><polygon fill="#e6bc25" points="198.1586083047603,265.36 205.4274560232473,292.9 225.22596635805448,292.9" stroke="none" /><polygon fill="#e3b723" points="198.1586083047603,265.36 182.55812840985004,265.36 205.4274560232473,292.9" stroke="none" /><polygon fill="#e1b621" points="182.55812840985004,265.36 190.98864775540153,292.9 205.4274560232473,292.9" stroke="none" /><polygon fill="#deb11f" points="182.55812840985004,265.36 159.99760052544877,265.36 190.98864775540153,292.9" stroke="none" /><polygon fill="#dbae1d" points="159.99760052544877,265.36 168.80595866077118,292.9 190.98864775540153,292.9" stroke="none" /><polygon fill="#e2b723" points="159.99760052544877,265.36 255,265.36 168.80595866077118,292.9" stroke="none" /><polygon fill="#ebc229" points="255,265.36 255,292.9 168.80595866077118,292.9" stroke="none" /><polygon fill="#f3ce31" points="255,265.36 256.0,265.36 255,292.9" stroke="none" /><polygon fill="#f3cd2f" points="256.0,265.36 256.0,292.9 255,292.9" stroke="none" /><polygon fill="#f0ca2f" points="256.0,265.36 291.3407918266019,265.36 256.0,292.9" stroke="none" /><polygon fill="#edc62b" points="291.3407918266019,265.36 283.7740336419455,292.9 256.0,292.9" stroke="none" /><polygon fill="#e8bf28" points="291.3407918266019,265.36 312.8413916952397,265.36 283.7740336419455,292.9" stroke="none" /><polygon fill="#e6bc25" points="312.8413916952397,265.36 307.57254397675274,292.9 283.7740336419455,292.9" stroke="none" /><polygon fill="#e3b723" points="312.8413916952397,265.36 331.44187159014996,265.36 307.57254397675274,292.9" stroke="none" /><polygon fill="#e0b521" points="331.44187159014996,265.36 322.01135224459847,292.9 307.57254397675274,292.9" stroke="none" /><polygon fill="#ddb01f" points="331.44187159014996,265.36 354.0023994745512,265.36 322.01135224459847,292.9" stroke="none" /><polygon fill="#dbae1d" points="354.0023994745512,265.36 340.1940413392288,292.9 322.01135224459847,292.9" stroke="none" /><polygon fill="#efc728" points="255.0,292.9 225.22596635805448,292.9 255.0,320.44" stroke="none" /><polygon fill="#ecc325" points="225.22596635805448,292.9 231.98703473585311,320.44 255.0,320.44" stroke="none" /><polygon fill="#e7bd24" points="225.22596635805448,292.9 205.4274560232473,292.9 231.98703473585311,320.44" stroke="none" /><polygon fill="#e5ba22" points="205.4274560232473,292.9 210.28024286907515,320.44 231.98703473585311,320.44" stroke="none" /><polygon fill="#e1b621" points="205.4274560232473,292.9 190.98864775540153,292.9 210.28024286907515,320.44" stroke="none" /><polygon fill="#e0b41f" points="190.98864775540153,292.9 195.51480937565282,320.44 210.28024286907515,320.44" stroke="none" /><polygon fill="#dcaf1d" points="190.98864775540153,292.9 168.80595866077118,292.9 195.51480937565282,320.44" stroke="none" /><polygon fill="#daac1c" points="168.80595866077118,292.9 175.1728325328882,320.44 195.51480937565282,320.44" stroke="none" /><polygon fill="#e1b520" points="168.80595866077118,292.9 255,292.9 175.1728325328882,320.44" stroke="none" /><polygon fill="#eac024" points="255,292.9 259,320.44 175.1728325328882,320.44" stroke="none" /><polygon fill="#f2cb2a" points="255,292.9 256.0,292.9 259,320.44" stroke="none" /><polygon fill="#f2ca28" points="256.0,292.9 255.0,320.44 259,320.44" stroke="none" /><polygon fill="#f0c829" points="256.0,292.9 283.7740336419455,292.9 255.0,320.44" stroke="none" /><polygon fill="#edc426" points="283.7740336419455,292.9 281.0129652641469,320.44 255.0,320.44" stroke="none" /><polygon fill="#e7be24" points="283.7740336419455,292.9 307.57254397675274,292.9 281.0129652641469,320.44" stroke="none" /><polygon fill="#e5ba22" points="307.57254397675274,292.9 302.71975713092485,320.44 281.0129652641469,320.44" stroke="none" /><polygon fill="#e1b620" points="307.57254397675274,292.9 322.01135224459847,292.9 302.71975713092485,320.44" stroke="none" /><polygon fill="#dfb31f" points="322.01135224459847,292.9 317.4851906243472,320.44 302.71975713092485,320.44" stroke="none" /><polygon fill="#dcaf1d" points="322.01135224459847,292.9 340.1940413392288,292.9 317.4851906243472,320.44" stroke="none" /><polygon fill="#daad1c" points="340.1940413392288,292.9 333.8271674671118,320.44 317.4851906243472,320.44" stroke="none" /><polygon fill="#f0c623" points="255.0,320.44 231.98703473585311,320.44 258.0,349.6" stroke="none" /><polygon fill="#eec422" points="231.98703473585311,320.44 236.51060826527154,349.6 258.0,349.6" stroke="none" /><polygon fill="#e8bd20" points="231.98703473585311,320.44 210.28024286907515,320.44 236.51060826527154,349.6" stroke="none" /><polygon fill="#e7bc20" points="210.28024286907515,320.44 226.0186448298712,349.6 236.51060826527154,349.6" stroke="none" /><polygon fill="#e2b61e" points="210.28024286907515,320.44 195.51480937565282,320.44 226.0186448298712,349.6" stroke="none" /><polygon fill="#e3b71e" points="195.51480937565282,320.44 218.02507408155088,349.6 226.0186448298712,349.6" stroke="none" /><polygon fill="#ddb01c" points="195.51480937565282,320.44 175.1728325328882,320.44 218.02507408155088,349.6" stroke="none" /><polygon fill="#dfb21d" points="175.1728325328882,320.44 209.0321462583986,349.6 218.02507408155088,349.6" stroke="none" /><polygon fill="#e4b81e" points="175.1728325328882,320.44 259,320.44 209.0321462583986,349.6" stroke="none" /><polygon fill="#edc322" points="259,320.44 258,349.6 209.0321462583986,349.6" stroke="none" /><polygon fill="#f2c923" points="259,320.44 255.0,320.44 258,349.6" stroke="none" /><polygon fill="#f2c923" points="255.0,320.44 257.0,349.6 258,349.6" stroke="none" /><polygon fill="#f0c622" points="255.0,320.44 281.0129652641469,320.44 257.0,349.6" stroke="none" /><polygon fill="#eec422" points="281.0129652641469,320.44 269.4893917347285,349.6 257.0,349.6" stroke="none" /><polygon fill="#e8bd20" points="281.0129652641469,320.44 302.71975713092485,320.44 269.4893917347285,349.6" stroke="none" /><polygon fill="#e8bd20" points="302.71975713092485,320.44 284.98135517012884,349.6 269.4893917347285,349.6" stroke="none" /><polygon fill="#e2b61e" points="302.71975713092485,320.44 317.4851906243472,320.44 284.98135517012884,349.6" stroke="none" /><polygon fill="#e3b71e" points="317.4851906243472,320.44 293.9749259184491,349.6 284.98135517012884,349.6" stroke="none" /><polygon fill="#ddb01c" points="317.4851906243472,320.44 333.8271674671118,320.44 293.9749259184491,349.6" stroke="none" /><polygon fill="#deb11d" points="333.8271674671118,320.44 308.9678537416014,349.6 293.9749259184491,349.6" stroke="none" /><polygon fill="#f0c723" points="258.0,349.6 236.51060826527154,349.6 255.0,382.0" stroke="none" /><polygon fill="#f0c623" points="236.51060826527154,349.6 252.6834,382.0 255.0,382.0" stroke="none" /><polygon fill="#ecc221" points="236.51060826527154,349.6 226.0186448298712,349.6 252.6834,382.0" stroke="none" /><polygon fill="#eec422" points="226.0186448298712,349.6 251.9284,382.0 252.6834,382.0" stroke="none" /><polygon fill="#eabf21" points="226.0186448298712,349.6 218.02507408155088,349.6 251.9284,382.0" stroke="none" /><polygon fill="#edc322" points="218.02507408155088,349.6 251.5244,382.0 251.9284,382.0" stroke="none" /><polygon fill="#e8bd20" points="218.02507408155088,349.6 209.0321462583986,349.6 251.5244,382.0" stroke="none" /><polygon fill="#ecc121" points="209.0321462583986,349.6 249.98,382.0 251.5244,382.0" stroke="none" /><polygon fill="#ecc221" points="209.0321462583986,349.6 258,349.6 249.98,382.0" stroke="none" /><polygon fill="#f2c923" points="258,349.6 257,382.0 249.98,382.0" stroke="none" /><polygon fill="#f2c923" points="258,349.6 257.0,349.6 257,382.0" stroke="none" /><polygon fill="#f2c923" points="257.0,349.6 257.0,382.0 257,382.0" stroke="none" /><polygon fill="#f1c723" points="257.0,349.6 269.4893917347285,349.6 257.0,382.0" stroke="none" /><polygon fill="#f0c723" points="269.4893917347285,349.6 258.3166,382.0 257.0,382.0" stroke="none" /><polygon fill="#edc322" points="269.4893917347285,349.6 284.98135517012884,349.6 258.3166,382.0" stroke="none" /><polygon fill="#eec522" points="284.98135517012884,349.6 259.0716,382.0 258.3166,382.0" stroke="none" /><polygon fill="#eabf21" points="284.98135517012884,349.6 293.9749259184491,349.6 259.0716,382.0" stroke="none" /><polygon fill="#edc322" points="293.9749259184491,349.6 262.4756,382.0 259.0716,382.0" stroke="none" /><polygon fill="#e7bc20" points="293.9749259184491,349.6 308.9678537416014,349.6 262.4756,382.0" stroke="none" /><polygon fill="#ebc021" points="308.9678537416014,349.6 262.02,382.0 262.4756,382.0" stroke="none" /><path d="M 228 197 A 9 40 0 0 0 228 237 Z" fill="#f3ca24" stroke="#d0a018" stroke-width="1" /><path d="M 284 197 A 9 40 0 0 1 284 237 Z" fill="#f3ca24" stroke="#d0a018" stroke-width="1" /><path d="M 184 209 A 35 23 0 0 0 254 209 Z" fill="#e8e0d8" stroke="#3a2a1a" stroke-width="1.5" /><path d="M 208 212 A 11 11 0 0 0 230 212 Z" fill="#3a2a1a" stroke="none" /><circle cx="224" cy="206" fill="white" r="5" stroke="none" /><circle cx="216" cy="212" fill="white" r="2" stroke="none" /><path d="M 182 209 Q 219 202 256 209" fill="none" stroke="#3a2a1a" stroke-width="5" /><line stroke="#3a2a1a" stroke-width="2" x1="202" x2="202" y1="208" y2="202" /><line stroke="#3a2a1a" stroke-width="2" x1="219" x2="219" y1="208" y2="202" /><line stroke="#3a2a1a" stroke-width="2" x1="236" x2="236" y1="208" y2="202" /><path d="M 258 209 A 35 23 0 0 0 328 209 Z" fill="#e8e0d8" stroke="#3a2a1a" stroke-width="1.5" /><path d="M 282 212 A 11 11 0 0 0 304 212 Z" fill="#3a2a1a" stroke="none" /><circle cx="298" cy="206" fill="white" r="5" stroke="none" /><circle cx="290" cy="212" fill="white" r="2" stroke="none" /><path d="M 256 209 Q 293 202 330 209" fill="none" stroke="#3a2a1a" stroke-width="5" /><line stroke="#3a2a1a" stroke-width="2" x1="276" x2="276" y1="208" y2="202" /><line stroke="#3a2a1a" stroke-width="2" x1="293" x2="293" y1="208" y2="202" /><line stroke="#3a2a1a" stroke-width="2" x1="310" x2="310" y1="208" y2="202" /><line stroke="#3a2a1a" stroke-width="3" x1="194" x2="244" y1="188" y2="188" /><line stroke="#3a2a1a" stroke-width="3" x1="270" x2="316" y1="191" y2="191" /><path d="M 190 229 A 12 8 0 0 0 214 229 Z" fill="#e88060" fill-opacity="0.22009102204102596" stroke="none" /><path d="M 299 233 A 12 8 0 0 0 323 233 Z" fill="#e88060" fill-opacity="0.20621574146117297" stroke="none" /><circle cx="256" cy="232" fill="#d0a018" r="5" stroke="none" /><path d="M 227 255 Q 234 260 241 255 Q 248 250 256 255 Q 263 260 270 255 Q 277 250 285 255" fill="none" stroke="#c06050" stroke-width="3" /><path d="M 260 152 Q 266 146 272 152" fill="none" stroke="#d4c0a0" stroke-opacity="0.3" stroke-width="1" /><path d="M 308 153 Q 311 150 314 153" fill="none" stroke="#d4c0a0" stroke-opacity="0.3" stroke-width="1" /><path d="M 312 154 Q 316 150 320 154" fill="none" stroke="#d4c0a0" stroke-opacity="0.3" stroke-width="1" /><path d="M 193 156 Q 197 152 201 156" fill="none" stroke="#d4c0a0" stroke-opacity="0.3" stroke-width="1" /><path d="M 297 147 Q 304 140 311 147" fill="none" stroke="#d4c0a0" stroke-opacity="0.3" stroke-width="1" /><path d="M 310 277 Q 316 271 322 277" fill="none" stroke="#d4c0a0" stroke-opacity="0.3" stroke-width="1" /><path d="M 200 264 Q 208 256 216 264" fill="none" stroke="#d4c0a0" stroke-opacity="0.3" stroke-width="1" /><path d="M 266 141 Q 269 138 272 141" fill="none" stroke="#d4c0a0" stroke-opacity="0.3" stroke-width="1" /><path d="M 265 178 Q 273 170 281 178" fill="none" stroke="#d4c0a0" stroke-opacity="0.3" stroke-width="1" /><path d="M 292 181 Q 299 174 306 181" fill="none" stroke="#d4c0a0" stroke-opacity="0.3" stroke-width="1" /><path d="M 323 164 Q 326 161 329 164" fill="none" stroke="#d4c0a0" stroke-opacity="0.3" stroke-width="1" /><path d="M 241 271 Q 245 267 249 271" fill="none" stroke="#d4c0a0" stroke-opacity="0.3" stroke-width="1" /><path d="M 265 279 Q 268 276 271 279" fill="none" stroke="#d4c0a0" stroke-opacity="0.3" stroke-width="1" /><path d="M 264 147 Q 269 142 274 147" fill="none" stroke="#d4c0a0" stroke-opacity="0.3" stroke-width="1" /><path d="M 297 231 Q 302 226 307 231" fill="none" stroke="#d4c0a0" stroke-opacity="0.3" stroke-width="1" /><path d="M 221 233 Q 225 229 229 233" fill="none" stroke="#d4c0a0" stroke-opacity="0.3" stroke-width="1" /><path d="M 189 266 Q 195 260 201 266" fill="none" stroke="#d4c0a0" stroke-opacity="0.3" stroke-width="1" /><polygon fill="#b48c14" points="242,378.0 270,378.0 270,413.0 242,413.0" stroke="none" /><path d="M 253 396.0 Q 256 386.0 259 396.0" fill="none" stroke="#d0a018" stroke-width="1.5" /></svg>