<?xml version="1.0" encoding="utf-8" ?>
<svg baseProfile="full" height="512" version="1.1" width="512" xmlns="http://www.w3.org/2000/svg" xmlns:ev="http://www.w3.org/2001/xml-events" xmlns:xlink="http://www.w3.org/1999/xlink"><defs /><polygon fill="#fdde67" points="256.0,132.5 241.734,132.5 256.0,151.75" stroke="none" /><polygon fill="#fcdd62" points="241.734,132.5 233.0912066846666,151.75 256.0,151.75" stroke="none" /><polygon fill="#fcdb5d" points="241.734,132.5 232.684,132.5 233.0912066846666,151.75" stroke="none" /><polygon fill="#fbd957" points="232.684,132.5 211.2209087185049,151.75 233.0912066846666,151.75" stroke="none" /><polygon fill="#fad856" points="232.684,132.5 223.644,132.5 211.2209087185049,151.75" stroke="none" /><polygon fill="#f9d64e" points="223.644,132.5 197.12467034557554,151.75 211.2209087185049,151.75" stroke="none" /><polygon fill="#f9d64f" points="223.644,132.5 215.8,132.5 197.12467034557554,151.75" stroke="none" /><polygon fill="#f8d347" points="215.8,132.5 181.51880813535325,151.75 197.12467034557554,151.75" stroke="none" /><polygon fill="#fad752" points="215.8,132.5 255,132.5 181.51880813535325,151.75" stroke="none" /><polygon fill="#fbda5b" points="255,132.5 258,151.75 181.51880813535325,151.75" stroke="none" /><polygon fill="#fee06a" points="255,132.5 255.0,132.5 258,151.75" stroke="none" /><polygon fill="#fddf69" points="255.0,132.5 259.0,151.75 258,151.75" stroke="none" /><polygon fill="#fdde66" points="255.0,132.5 270.266,132.5 259.0,151.75" stroke="none" /><polygon fill="#fcdd62" points="270.266,132.5 277.9087933153334,151.75 259.0,151.75" stroke="none" /><polygon fill="#fcdb5e" points="270.266,132.5 279.316,132.5 277.9087933153334,151.75" stroke="none" /><polygon fill="#fbd958" points="279.316,132.5 296.7790912814951,151.75 277.9087933153334,151.75" stroke="none" /><polygon fill="#fad957" points="279.316,132.5 286.356,132.5 296.7790912814951,151.75" stroke="none" /><polygon fill="#f9d650" points="286.356,132.5 311.8753296544245,151.75 296.7790912814951,151.75" stroke="none" /><polygon fill="#fad751" points="286.356,132.5 295.2,132.5 311.8753296544245,151.75" stroke="none" /><polygon fill="#f8d348" points="295.2,132.5 329.48119186464675,151.75 311.8753296544245,151.75" stroke="none" /><polygon fill="#fdde65" points="256.0,151.75 233.0912066846666,151.75 255.0,171.875" stroke="none" /><polygon fill="#fbdb5d" points="233.0912066846666,151.75 228.06165450998142,171.875 255.0,171.875" stroke="none" /><polygon fill="#fad956" points="233.0912066846666,151.75 211.2209087185049,151.75 228.06165450998142,171.875" stroke="none" /><polygon fill="#f8d54f" points="211.2209087185049,151.75 206.65381701754313,171.875 228.06165450998142,171.875" stroke="none" /><polygon fill="#f9d54b" points="211.2209087185049,151.75 197.12467034557554,151.75 206.65381701754313,171.875" stroke="none" /><polygon fill="#f6d145" points="197.12467034557554,151.75 191.32754702359247,171.875 206.65381701754313,171.875" stroke="none" /><polygon fill="#f7d142" points="197.12467034557554,151.75 181.51880813535325,151.75 191.32754702359247,171.875" stroke="none" /><polygon fill="#f5ce3d" points="181.51880813535325,151.75 176.36865003024676,171.875 191.32754702359247,171.875" stroke="none" /><polygon fill="#f9d54b" points="181.51880813535325,151.75 258,151.75 176.36865003024676,171.875" stroke="none" /><polygon fill="#fad958" points="258,151.75 259,171.875 176.36865003024676,171.875" stroke="none" /><polygon fill="#fddf68" points="258,151.75 259.0,151.75 259,171.875" stroke="none" /><polygon fill="#fcde66" points="259.0,151.75 255.0,171.875 259,171.875" stroke="none" /><polygon fill="#fdde65" points="259.0,151.75 277.9087933153334,151.75 255.0,171.875" stroke="none" /><polygon fill="#fbdb5e" points="277.9087933153334,151.75 281.93834549001855,171.875 255.0,171.875" stroke="none" /><polygon fill="#fbd958" points="277.9087933153334,151.75 296.7790912814951,151.75 281.93834549001855,171.875" stroke="none" /><polygon fill="#f8d651" points="296.7790912814951,151.75 304.34618298245687,171.875 281.93834549001855,171.875" stroke="none" /><polygon fill="#f9d54d" points="296.7790912814951,151.75 311.8753296544245,151.75 304.34618298245687,171.875" stroke="none" /><polygon fill="#f6d246" points="311.8753296544245,151.75 322.67245297640756,171.875 304.34618298245687,171.875" stroke="none" /><polygon fill="#f7d142" points="311.8753296544245,151.75 329.48119186464675,151.75 322.67245297640756,171.875" stroke="none" /><polygon fill="#f5ce3d" points="329.48119186464675,151.75 334.6313499697533,171.875 322.67245297640756,171.875" stroke="none" /><polygon fill="#fada5c" points="255.0,171.875 228.06165450998142,171.875 255.0,189.375" stroke="none" /><polygon fill="#f8d654" points="228.06165450998142,171.875 223.2818044510458,189.375 255.0,189.375" stroke="none" /><polygon fill="#f7d34e" points="228.06165450998142,171.875 206.65381701754313,171.875 223.2818044510458,189.375" stroke="none" /><polygon fill="#f4cf47" points="206.65381701754313,171.875 199.2528684291108,189.375 223.2818044510458,189.375" stroke="none" /><polygon fill="#f4ce43" points="206.65381701754313,171.875 191.32754702359247,171.875 199.2528684291108,189.375" stroke="none" /><polygon fill="#f1ca3d" points="191.32754702359247,171.875 182.02971961156277,189.375 199.2528684291108,189.375" stroke="none" /><polygon fill="#f2ca3a" points="191.32754702359247,171.875 176.36865003024676,171.875 182.02971961156277,189.375" stroke="none" /><polygon fill="#efc634" points="176.36865003024676,171.875 156.88425591226,189.375 182.02971961156277,189.375" stroke="none" /><polygon fill="#f4ce42" points="176.36865003024676,171.875 259,171.875 156.88425591226,189.375" stroke="none" /><polygon fill="#f6d34e" points="259,171.875 253,189.375 156.88425591226,189.375" stroke="none" /><polygon fill="#fbdc61" points="259,171.875 255.0,171.875 253,189.375" stroke="none" /><polygon fill="#fbdb5d" points="255.0,171.875 254.0,189.375 253,189.375" stroke="none" /><polygon fill="#fadb5d" points="255.0,171.875 281.93834549001855,171.875 254.0,189.375" stroke="none" /><polygon fill="#f9d755" points="281.93834549001855,171.875 286.7181955489542,189.375 254.0,189.375" stroke="none" /><polygon fill="#f7d44f" points="281.93834549001855,171.875 304.34618298245687,171.875 286.7181955489542,189.375" stroke="none" /><polygon fill="#f5d048" points="304.34618298245687,171.875 308.7471315708892,189.375 286.7181955489542,189.375" stroke="none" /><polygon fill="#f4ce43" points="304.34618298245687,171.875 322.67245297640756,171.875 308.7471315708892,189.375" stroke="none" /><polygon fill="#f2cb3e" points="322.67245297640756,171.875 328.97028038843723,189.375 308.7471315708892,189.375" stroke="none" /><polygon fill="#f2ca3a" points="322.67245297640756,171.875 334.6313499697533,171.875 328.97028038843723,189.375" stroke="none" /><polygon fill="#efc634" points="334.6313499697533,171.875 353.11574408774004,189.375 328.97028038843723,189.375" stroke="none" /><polygon fill="#f8d655" points="255.0,189.375 223.2818044510458,189.375 255.0,204.25" stroke="none" /><polygon fill="#f6d34e" points="223.2818044510458,189.375 222.5971548196214,204.25 255.0,204.25" stroke="none" /><polygon fill="#f3ce47" points="223.2818044510458,189.375 199.2528684291108,189.375 222.5971548196214,204.25" stroke="none" /><polygon fill="#f1cb42" points="199.2528684291108,189.375 200.0495448344861,204.25 222.5971548196214,204.25" stroke="none" /><polygon fill="#efc83d" points="199.2528684291108,189.375 182.02971961156277,189.375 200.0495448344861,204.25" stroke="none" /><polygon fill="#edc538" points="182.02971961156277,189.375 176.41145684637786,204.25 200.0495448344861,204.25" stroke="none" /><polygon fill="#ecc233" points="182.02971961156277,189.375 156.88425591226,189.375 176.41145684637786,204.25" stroke="none" /><polygon fill="#ebc132" points="156.88425591226,189.375 155.80956005945882,204.25 176.41145684637786,204.25" stroke="none" /><polygon fill="#eec63a" points="156.88425591226,189.375 253,189.375 155.80956005945882,204.25" stroke="none" /><polygon fill="#f4d049" points="253,189.375 259,204.25 155.80956005945882,204.25" stroke="none" /><polygon fill="#fad95a" points="253,189.375 254.0,189.375 259,204.25" stroke="none" /><polygon fill="#fad958" points="254.0,189.375 256.0,204.25 259,204.25" stroke="none" /><polygon fill="#f9d756" points="254.0,189.375 286.7181955489542,189.375 256.0,204.25" stroke="none" /><polygon fill="#f6d34e" points="286.7181955489542,189.375 290.40284518037856,204.25 256.0,204.25" stroke="none" /><polygon fill="#f3ce48" points="286.7181955489542,189.375 308.7471315708892,189.375 290.40284518037856,204.25" stroke="none" /><polygon fill="#f1cb42" points="308.7471315708892,189.375 312.95045516551386,204.25 290.40284518037856,204.25" stroke="none" /><polygon fill="#f0c83d" points="308.7471315708892,189.375 328.97028038843723,189.375 312.95045516551386,204.25" stroke="none" /><polygon fill="#edc538" points="328.97028038843723,189.375 334.58854315362214,204.25 312.95045516551386,204.25" stroke="none" /><polygon fill="#ecc233" points="328.97028038843723,189.375 353.11574408774004,189.375 334.58854315362214,204.25" stroke="none" /><polygon fill="#ebc132" points="353.11574408774004,189.375 352.1904399405412,204.25 334.58854315362214,204.25" stroke="none" /><polygon fill="#f7d44f" points="255.0,204.25 222.5971548196214,204.25 254.0,218.25" stroke="none" /><polygon fill="#f4cf49" points="222.5971548196214,204.25 221.27919624056966,218.25 254.0,218.25" stroke="none" /><polygon fill="#f1cb43" points="222.5971548196214,204.25 200.0495448344861,204.25 221.27919624056966,218.25" stroke="none" /><polygon fill="#eec73e" points="200.0495448344861,204.25 200.49070854403152,218.25 221.27919624056966,218.25" stroke="none" /><polygon fill="#ecc439" points="200.0495448344861,204.25 176.41145684637786,204.25 200.49070854403152,218.25" stroke="none" /><polygon fill="#e9bf34" points="176.41145684637786,204.25 175.659918386801,218.25 200.49070854403152,218.25" stroke="none" /><polygon fill="#e8be31" points="176.41145684637786,204.25 155.80956005945882,204.25 175.659918386801,218.25" stroke="none" /><polygon fill="#e7bc30" points="155.80956005945882,204.25 156.84604921384744,218.25 175.659918386801,218.25" stroke="none" /><polygon fill="#ebc338" points="155.80956005945882,204.25 259,204.25 156.84604921384744,218.25" stroke="none" /><polygon fill="#f2cc45" points="259,204.25 255,218.25 156.84604921384744,218.25" stroke="none" /><polygon fill="#f9d754" points="259,204.25 256.0,204.25 255,218.25" stroke="none" /><polygon fill="#f9d652" points="256.0,204.25 255.0,218.25 255,218.25" stroke="none" /><polygon fill="#f7d450" points="256.0,204.25 290.40284518037856,204.25 255.0,218.25" stroke="none" /><polygon fill="#f4cf49" points="290.40284518037856,204.25 288.72080375943034,218.25 255.0,218.25" stroke="none" /><polygon fill="#f1cb43" points="290.40284518037856,204.25 312.95045516551386,204.25 288.72080375943034,218.25" stroke="none" /><polygon fill="#efc73e" points="312.95045516551386,204.25 311.5092914559685,218.25 288.72080375943034,218.25" stroke="none" /><polygon fill="#ecc439" points="312.95045516551386,204.25 334.58854315362214,204.25 311.5092914559685,218.25" stroke="none" /><polygon fill="#e9c035" points="334.58854315362214,204.25 334.340081613199,218.25 311.5092914559685,218.25" stroke="none" /><polygon fill="#e8be31" points="334.58854315362214,204.25 352.1904399405412,204.25 334.340081613199,218.25" stroke="none" /><polygon fill="#e7bc30" points="352.1904399405412,204.25 356.15395078615256,218.25 334.340081613199,218.25" stroke="none" /><polygon fill="#f6d24b" points="254.0,218.25 221.27919624056966,218.25 258.0,230.5" stroke="none" /><polygon fill="#f4cf46" points="221.27919624056966,218.25 230.32345530142533,230.5 258.0,230.5" stroke="none" /><polygon fill="#efc940" points="221.27919624056966,218.25 200.49070854403152,218.25 230.32345530142533,230.5" stroke="none" /><polygon fill="#eec63d" points="200.49070854403152,218.25 205.59880022674753,230.5 230.32345530142533,230.5" stroke="none" /><polygon fill="#eac137" points="200.49070854403152,218.25 175.659918386801,218.25 205.59880022674753,230.5" stroke="none" /><polygon fill="#e8bf35" points="175.659918386801,218.25 190.2190761670053,230.5 205.59880022674753,230.5" stroke="none" /><polygon fill="#e5ba2f" points="175.659918386801,218.25 156.84604921384744,218.25 190.2190761670053,230.5" stroke="none" /><polygon fill="#e4b92f" points="156.84604921384744,218.25 167.10137970128886,230.5 190.2190761670053,230.5" stroke="none" /><polygon fill="#e9c037" points="156.84604921384744,218.25 255,218.25 167.10137970128886,230.5" stroke="none" /><polygon fill="#f1cb42" points="255,218.25 253,230.5 167.10137970128886,230.5" stroke="none" /><polygon fill="#f8d54f" points="255,218.25 255.0,218.25 253,230.5" stroke="none" /><polygon fill="#f8d54d" points="255.0,218.25 259.0,230.5 253,230.5" stroke="none" /><polygon fill="#f6d24b" points="255.0,218.25 288.72080375943034,218.25 259.0,230.5" stroke="none" /><polygon fill="#f3ce46" points="288.72080375943034,218.25 284.6765446985747,230.5 259.0,230.5" stroke="none" /><polygon fill="#efc840" points="288.72080375943034,218.25 311.5092914559685,218.25 284.6765446985747,230.5" stroke="none" /><polygon fill="#edc63d" points="311.5092914559685,218.25 305.4011997732525,230.5 284.6765446985747,230.5" stroke="none" /><polygon fill="#eac137" points="311.5092914559685,218.25 334.340081613199,218.25 305.4011997732525,230.5" stroke="none" /><polygon fill="#e8bf35" points="334.340081613199,218.25 322.7809238329947,230.5 305.4011997732525,230.5" stroke="none" /><polygon fill="#e5ba2f" points="334.340081613199,218.25 356.15395078615256,218.25 322.7809238329947,230.5" stroke="none" /><polygon fill="#e4b92f" points="356.15395078615256,218.25 345.89862029871114,230.5 322.7809238329947,230.5" stroke="none" /><polygon fill="#f6d047" points="258.0,230.5 230.32345530142533,230.5 253.0,244.5" stroke="none" /><polygon fill="#f2cc41" points="230.32345530142533,230.5 228.78109518949734,244.5 253.0,244.5" stroke="none" /><polygon fill="#efc73e" points="230.32345530142533,230.5 205.59880022674753,230.5 228.78109518949734,244.5" stroke="none" /><polygon fill="#ebc33a" points="205.59880022674753,230.5 203.8879854845711,244.5 228.78109518949734,244.5" stroke="none" /><polygon fill="#e9bf37" points="205.59880022674753,230.5 190.2190761670053,230.5 203.8879854845711,244.5" stroke="none" /><polygon fill="#e6bc33" points="190.2190761670053,230.5 187.5734977206301,244.5 203.8879854845711,244.5" stroke="none" /><polygon fill="#e4b931" points="190.2190761670053,230.5 167.10137970128886,230.5 187.5734977206301,244.5" stroke="none" /><polygon fill="#e0b42d" points="167.10137970128886,230.5 161.42756118029496,244.5 187.5734977206301,244.5" stroke="none" /><polygon fill="#e7bd35" points="167.10137970128886,230.5 253,230.5 161.42756118029496,244.5" stroke="none" /><polygon fill="#eec73d" points="253,230.5 256,244.5 161.42756118029496,244.5" stroke="none" /><polygon fill="#f9d44a" points="253,230.5 259.0,230.5 256,244.5" stroke="none" /><polygon fill="#f7d347" points="259.0,230.5 255.0,244.5 256,244.5" stroke="none" /><polygon fill="#f6d046" points="259.0,230.5 284.6765446985747,230.5 255.0,244.5" stroke="none" /><polygon fill="#f2cc41" points="284.6765446985747,230.5 286.21890481050264,244.5 255.0,244.5" stroke="none" /><polygon fill="#efc73d" points="284.6765446985747,230.5 305.4011997732525,230.5 286.21890481050264,244.5" stroke="none" /><polygon fill="#ebc33a" points="305.4011997732525,230.5 306.1120145154289,244.5 286.21890481050264,244.5" stroke="none" /><polygon fill="#e9c037" points="305.4011997732525,230.5 322.7809238329947,230.5 306.1120145154289,244.5" stroke="none" /><polygon fill="#e5bb33" points="322.7809238329947,230.5 330.4265022793699,244.5 306.1120145154289,244.5" stroke="none" /><polygon fill="#e3b830" points="322.7809238329947,230.5 345.89862029871114,230.5 330.4265022793699,244.5" stroke="none" /><polygon fill="#e0b42d" points="345.89862029871114,230.5 347.57243881970504,244.5 330.4265022793699,244.5" stroke="none" /><polygon fill="#f5ce41" points="253.0,244.5 228.78109518949734,244.5 258.0,259.375" stroke="none" /><polygon fill="#f1c93d" points="228.78109518949734,244.5 227.17715963104956,259.375 258.0,259.375" stroke="none" /><polygon fill="#ecc339" points="228.78109518949734,244.5 203.8879854845711,244.5 227.17715963104956,259.375" stroke="none" /><polygon fill="#e9c036" points="203.8879854845711,244.5 207.85682601820832,259.375 227.17715963104956,259.375" stroke="none" /><polygon fill="#e6bb33" points="203.8879854845711,244.5 187.5734977206301,244.5 207.85682601820832,259.375" stroke="none" /><polygon fill="#e4b931" points="187.5734977206301,244.5 190.60055912793533,259.375 207.85682601820832,259.375" stroke="none" /><polygon fill="#e0b42e" points="187.5734977206301,244.5 161.42756118029496,244.5 190.60055912793533,259.375" stroke="none" /><polygon fill="#ddb12b" points="161.42756118029496,244.5 172.71866554863504,259.375 190.60055912793533,259.375" stroke="none" /><polygon fill="#e5ba33" points="161.42756118029496,244.5 256,244.5 172.71866554863504,259.375" stroke="none" /><polygon fill="#eec63a" points="256,244.5 258,259.375 172.71866554863504,259.375" stroke="none" /><polygon fill="#f7d143" points="256,244.5 255.0,244.5 258,259.375" stroke="none" /><polygon fill="#f6d041" points="255.0,244.5 256.0,259.375 258,259.375" stroke="none" /><polygon fill="#f4ce41" points="255.0,244.5 286.21890481050264,244.5 256.0,259.375" stroke="none" /><polygon fill="#f0c93c" points="286.21890481050264,244.5 285.82284036895044,259.375 256.0,259.375" stroke="none" /><polygon fill="#ecc339" points="286.21890481050264,244.5 306.1120145154289,244.5 285.82284036895044,259.375" stroke="none" /><polygon fill="#eac036" points="306.1120145154289,244.5 301.1431739817917,259.375 285.82284036895044,259.375" stroke="none" /><polygon fill="#e6bb33" points="306.1120145154289,244.5 330.4265022793699,244.5 301.1431739817917,259.375" stroke="none" /><polygon fill="#e4b831" points="330.4265022793699,244.5 319.3994408720647,259.375 301.1431739817917,259.375" stroke="none" /><polygon fill="#e0b32e" points="330.4265022793699,244.5 347.57243881970504,244.5 319.3994408720647,259.375" stroke="none" /><polygon fill="#deb12c" points="347.57243881970504,244.5 337.28133445136496,259.375 319.3994408720647,259.375" stroke="none" /><polygon fill="#f3cc3b" points="258.0,259.375 227.17715963104956,259.375 255.0,274.25" stroke="none" /><polygon fill="#efc737" points="227.17715963104956,259.375 230.15103996375345,274.25 255.0,274.25" stroke="none" /><polygon fill="#ebc135" points="227.17715963104956,259.375 207.85682601820832,259.375 230.15103996375345,274.25" stroke="none" /><polygon fill="#e8bd32" points="207.85682601820832,259.375 210.05334296659697,274.25 230.15103996375345,274.25" stroke="none" /><polygon fill="#e4b931" points="207.85682601820832,259.375 190.60055912793533,259.375 210.05334296659697,274.25" stroke="none" /><polygon fill="#e1b52e" points="190.60055912793533,259.375 189.17518536887178,274.25 210.05334296659697,274.25" stroke="none" /><polygon fill="#deb12c" points="190.60055912793533,259.375 172.71866554863504,259.375 189.17518536887178,274.25" stroke="none" /><polygon fill="#daac2a" points="172.71866554863504,259.375 168.60921201137407,274.25 189.17518536887178,274.25" stroke="none" /><polygon fill="#e3b830" points="172.71866554863504,259.375 258,259.375 168.60921201137407,274.25" stroke="none" /><polygon fill="#ecc335" points="258,259.375 259,274.25 168.60921201137407,274.25" stroke="none" /><polygon fill="#f6cf3d" points="258,259.375 256.0,259.375 259,274.25" stroke="none" /><polygon fill="#f5ce3b" points="256.0,259.375 255.0,274.25 259,274.25" stroke="none" /><polygon fill="#f3cb3b" points="256.0,259.375 285.82284036895044,259.375 255.0,274.25" stroke="none" /><polygon fill="#efc637" points="285.82284036895044,259.375 285.8489600362466,274.25 255.0,274.25" stroke="none" /><polygon fill="#eac135" points="285.82284036895044,259.375 301.1431739817917,259.375 285.8489600362466,274.25" stroke="none" /><polygon fill="#e7bc32" points="301.1431739817917,259.375 306.946657033403,274.25 285.8489600362466,274.25" stroke="none" /><polygon fill="#e4b931" points="301.1431739817917,259.375 319.3994408720647,259.375 306.946657033403,274.25" stroke="none" /><polygon fill="#e1b52e" points="319.3994408720647,259.375 320.8248146311282,274.25 306.946657033403,274.25" stroke="none" /><polygon fill="#deb22d" points="319.3994408720647,259.375 337.28133445136496,259.375 320.8248146311282,274.25" stroke="none" /><polygon fill="#dbae2a" points="337.28133445136496,259.375 339.3907879886259,274.25 320.8248146311282,274.25" stroke="none" /><polygon fill="#f2ca36" points="255.0,274.25 230.15103996375345,274.25 259.0,290.0" stroke="none" /><polygon fill="#f0c735" points="230.15103996375345,274.25 234.03112400338458,290.0 259.0,290.0" stroke="none" /><polygon fill="#eabf32" points="230.15103996375345,274.25 210.05334296659697,274.25 234.03112400338458,290.0" stroke="none" /><polygon fill="#e8bd31" points="210.05334296659697,274.25 215.87288461200927,290.0 234.03112400338458,290.0" stroke="none" /><polygon fill="#e2b62e" points="210.05334296659697,274.25 189.17518536887178,274.25 215.87288461200927,290.0" stroke="none" /><polygon fill="#e1b52d" points="189.17518536887178,274.25 201.34629309890903,290.0 215.87288461200927,290.0" stroke="none" /><polygon fill="#dbae2a" points="189.17518536887178,274.25 168.60921201137407,274.25 201.34629309890903,290.0" stroke="none" /><polygon fill="#daad2a" points="168.60921201137407,274.25 183.36704243449876,290.0 201.34629309890903,290.0" stroke="none" /><polygon fill="#e2b62e" points="168.60921201137407,274.25 259,274.25 183.36704243449876,290.0" stroke="none" /><polygon fill="#edc333" points="259,274.25 258,290.0 183.36704243449876,290.0" stroke="none" /><polygon fill="#f5cd37" points="259,274.25 255.0,274.25 258,290.0" stroke="none" /><polygon fill="#f6ce38" points="255.0,274.25 255.0,290.0 258,290.0" stroke="none" /><polygon fill="#f2c936" points="255.0,274.25 285.8489600362466,274.25 255.0,290.0" stroke="none" /><polygon fill="#efc634" points="285.8489600362466,274.25 279.9688759966154,290.0 255.0,290.0" stroke="none" /><polygon fill="#e8be31" points="285.8489600362466,274.25 306.946657033403,274.25 279.9688759966154,290.0" stroke="none" /><polygon fill="#e7bc30" points="306.946657033403,274.25 295.1271153879907,290.0 279.9688759966154,290.0" stroke="none" /><polygon fill="#e2b62e" points="306.946657033403,274.25 320.8248146311282,274.25 295.1271153879907,290.0" stroke="none" /><polygon fill="#e1b52d" points="320.8248146311282,274.25 314.65370690109097,290.0 295.1271153879907,290.0" stroke="none" /><polygon fill="#dbae2a" points="320.8248146311282,274.25 339.3907879886259,274.25 314.65370690109097,290.0" stroke="none" /><polygon fill="#daad2a" points="339.3907879886259,274.25 330.6329575655012,290.0 314.65370690109097,290.0" stroke="none" /><polygon fill="#f3ca36" points="259.0,290.0 234.03112400338458,290.0 255.0,307.5" stroke="none" /><polygon fill="#f1c835" points="234.03112400338458,290.0 242.734,307.5 255.0,307.5" stroke="none" /><polygon fill="#ecc233" points="234.03112400338458,290.0 215.87288461200927,290.0 242.734,307.5" stroke="none" /><polygon fill="#ecc233" points="215.87288461200927,290.0 233.684,307.5 242.734,307.5" stroke="none" /><polygon fill="#e7bc30" points="215.87288461200927,290.0 201.34629309890903,290.0 233.684,307.5" stroke="none" /><polygon fill="#e8bd31" points="201.34629309890903,290.0 225.644,307.5 233.684,307.5" stroke="none" /><polygon fill="#e1b62d" points="201.34629309890903,290.0 183.36704243449876,290.0 225.644,307.5" stroke="none" /><polygon fill="#e3b82e" points="183.36704243449876,290.0 214.8,307.5 225.644,307.5" stroke="none" /><polygon fill="#e7bd30" points="183.36704243449876,290.0 258,290.0 214.8,307.5" stroke="none" /><polygon fill="#f1c835" points="258,290.0 257,307.5 214.8,307.5" stroke="none" /><polygon fill="#f5cd37" points="258,290.0 255.0,290.0 257,307.5" stroke="none" /><polygon fill="#f5cd37" points="255.0,290.0 255.0,307.5 257,307.5" stroke="none" /><polygon fill="#f3ca36" points="255.0,290.0 279.9688759966154,290.0 255.0,307.5" stroke="none" /><polygon fill="#f1c835" points="279.9688759966154,290.0 268.266,307.5 255.0,307.5" stroke="none" /><polygon fill="#ecc233" points="279.9688759966154,290.0 295.1271153879907,290.0 268.266,307.5" stroke="none" /><polygon fill="#ecc233" points="295.1271153879907,290.0 280.316,307.5 268.266,307.5" stroke="none" /><polygon fill="#e6bb30" points="295.1271153879907,290.0 314.65370690109097,290.0 280.316,307.5" stroke="none" /><polygon fill="#e7bc30" points="314.65370690109097,290.0 287.356,307.5 280.316,307.5" stroke="none" /><polygon fill="#e1b52d" points="314.65370690109097,290.0 330.6329575655012,290.0 287.356,307.5" stroke="none" /><polygon fill="#e3b82e" points="330.6329575655012,290.0 295.2,307.5 287.356,307.5" stroke="none" /><path d="M 231 209 A 14 21 0 0 0 231 229 Z" fill="#f6ce38" stroke="#d6a828" stroke-width="1" /><path d="M 281 209 A 14 21 0 0 1 281 229 Z" fill="#f6ce38" stroke="#d6a828" stroke-width="1" /><path d="M 194 213 A 30 20 0 0 0 254 213 Z" fill="#e8e0d8" stroke="#3a2a1a" stroke-width="1.5" /><path d="M 214 216 A 10 10 0 0 0 234 216 Z" fill="#3a2a1a" stroke="none" /><circle cx="229" cy="210" fill="white" r="5" stroke="none" /><circle cx="221" cy="216" fill="white" r="2" stroke="none" /><path d="M 192 213 Q 224 207 256 213" fill="none" stroke="#3a2a1a" stroke-width="5" /><line stroke="#3a2a1a" stroke-width="2" x1="209" x2="209" y1="212" y2="207" /><line stroke="#3a2a1a" stroke-width="2" x1="224" x2="224" y1="212" y2="207" /><line stroke="#3a2a1a" stroke-width="2" x1="239" x2="239" y1="212" y2="207" /><path d="M 258 213 A 30 20 0 0 0 318 213 Z" fill="#e8e0d8" stroke="#3a2a1a" stroke-width="1.5" /><path d="M 278 216 A 10 10 0 0 0 298 216 Z" fill="#3a2a1a" stroke="none" /><circle cx="293" cy="210" fill="white" r="5" stroke="none" /><circle cx="285" cy="216" fill="white" r="2" stroke="none" /><path d="M 256 213 Q 288 207 320 213" fill="none" stroke="#3a2a1a" stroke-width="5" /><line stroke="#3a2a1a" stroke-width="5" x1="202" x2="236" y1="200" y2="210" /><line stroke="#3a2a1a" stroke-width="5" x1="267" x2="299" y1="198" y2="208" /><path d="M 199 228 A 13 9 0 0 0 225 228 Z" fill="#e88060" fill-opacity="0.23527547168588084" stroke="none" /><path d="M 288 228 A 11 7 0 0 0 310 228 Z" fill="#e88060" fill-opacity="0.2688277486214733" stroke="none" /><circle cx="256" cy="228" fill="#d6a828" r="5" stroke="none" /><path d="M 229 240 Q 256 263 283 240" fill="#a04030" stroke="#c06050" stroke-width="2" /><line stroke="white" stroke-width="2" x1="243" x2="243" y1="243" y2="253" /><line stroke="white" stroke-width="2" x1="251" x2="251" y1="243" y2="253" /><line stroke="white" stroke-width="2" x1="259" x2="259" y1="243" y2="253" /><line stroke="white" stroke-width="2" x1="267" x2="267" y1="243" y2="253" /><ellipse cx="256" cy="181" fill="white" fill-opacity="0.10" rx="6" ry="5" stroke="none" /><ellipse cx="231" cy="212" fill="white" fill-opacity="0.10" rx="6" ry="5" stroke="none" /><ellipse cx="281" cy="212" fill="white" fill-opacity="0.10" rx="6" ry="5" stroke="none" /><polygon fill="#ba9420" points="242,303.5 270,303.5 270,338.5 242,338.5" stroke="none" /></svg>