<?xml version="1.0" encoding="utf-8" ?>
<svg baseProfile="full" height="512" version="1.1" width="512" xmlns="http://www.w3.org/2000/svg" xmlns:ev="http://www.w3.org/2001/xml-events" xmlns:xlink="http://www.w3.org/1999/xlink"><defs /><polygon fill="#fbde5d" points="256.0,157.0 244.813,157.0 255.0,170.86" stroke="none" /><polygon fill="#fadc59" points="244.813,157.0 244.89427169544487,170.86 255.0,170.86" stroke="none" /><polygon fill="#f9da51" points="244.813,157.0 236.338,157.0 244.89427169544487,170.86" stroke="none" /><polygon fill="#f8d84c" points="236.338,157.0 231.72326540411524,170.86 244.89427169544487,170.86" stroke="none" /><polygon fill="#f7d546" points="236.338,157.0 228.558,157.0 231.72326540411524,170.86" stroke="none" /><polygon fill="#f7d442" points="228.558,157.0 225.38646037105153,170.86 231.72326540411524,170.86" stroke="none" /><polygon fill="#f6d23e" points="228.558,157.0 221.1,157.0 225.38646037105153,170.86" stroke="none" /><polygon fill="#f6d13b" points="221.1,157.0 221.31597483468144,170.86 225.38646037105153,170.86" stroke="none" /><polygon fill="#f8d647" points="221.1,157.0 256,157.0 221.31597483468144,170.86" stroke="none" /><polygon fill="#fadb54" points="256,157.0 256,170.86 221.31597483468144,170.86" stroke="none" /><polygon fill="#fce062" points="256,157.0 256.0,157.0 256,170.86" stroke="none" /><polygon fill="#fbdf61" points="256.0,157.0 257.0,170.86 256,170.86" stroke="none" /><polygon fill="#fbde5d" points="256.0,157.0 267.187,157.0 257.0,170.86" stroke="none" /><polygon fill="#fadc59" points="267.187,157.0 267.1057283045551,170.86 257.0,170.86" stroke="none" /><polygon fill="#f9d951" points="267.187,157.0 276.662,157.0 267.1057283045551,170.86" stroke="none" /><polygon fill="#f8d84c" points="276.662,157.0 279.27673459588476,170.86 267.1057283045551,170.86" stroke="none" /><polygon fill="#f7d546" points="276.662,157.0 283.442,157.0 279.27673459588476,170.86" stroke="none" /><polygon fill="#f7d544" points="283.442,157.0 281.6135396289485,170.86 279.27673459588476,170.86" stroke="none" /><polygon fill="#f7d341" points="283.442,157.0 288.9,157.0 281.6135396289485,170.86" stroke="none" /><polygon fill="#f6d23d" points="288.9,157.0 293.68402516531853,170.86 281.6135396289485,170.86" stroke="none" /><polygon fill="#fbde5d" points="255.0,170.86 244.89427169544487,170.86 257.0,185.35" stroke="none" /><polygon fill="#f9da55" points="244.89427169544487,170.86 240.15829135212846,185.35 257.0,185.35" stroke="none" /><polygon fill="#f9d84e" points="244.89427169544487,170.86 231.72326540411524,170.86 240.15829135212846,185.35" stroke="none" /><polygon fill="#f7d448" points="231.72326540411524,170.86 234.42972419465002,185.35 240.15829135212846,185.35" stroke="none" /><polygon fill="#f7d544" points="231.72326540411524,170.86 225.38646037105153,170.86 234.42972419465002,185.35" stroke="none" /><polygon fill="#f5d241" points="225.38646037105153,170.86 228.64687046866726,185.35 234.42972419465002,185.35" stroke="none" /><polygon fill="#f6d23e" points="225.38646037105153,170.86 221.31597483468144,170.86 228.64687046866726,185.35" stroke="none" /><polygon fill="#f4cf3a" points="221.31597483468144,170.86 218.08573137008622,185.35 228.64687046866726,185.35" stroke="none" /><polygon fill="#f7d546" points="221.31597483468144,170.86 256,170.86 218.08573137008622,185.35" stroke="none" /><polygon fill="#f8d851" points="256,170.86 257,185.35 218.08573137008622,185.35" stroke="none" /><polygon fill="#fbdf61" points="256,170.86 257.0,170.86 257,185.35" stroke="none" /><polygon fill="#fadd5d" points="257.0,170.86 258.0,185.35 257,185.35" stroke="none" /><polygon fill="#fbde5c" points="257.0,170.86 267.1057283045551,170.86 258.0,185.35" stroke="none" /><polygon fill="#f9da56" points="267.1057283045551,170.86 266.84170864787154,185.35 258.0,185.35" stroke="none" /><polygon fill="#f9d950" points="267.1057283045551,170.86 279.27673459588476,170.86 266.84170864787154,185.35" stroke="none" /><polygon fill="#f7d54a" points="279.27673459588476,170.86 277.57027580535,185.35 266.84170864787154,185.35" stroke="none" /><polygon fill="#f8d647" points="279.27673459588476,170.86 281.6135396289485,170.86 277.57027580535,185.35" stroke="none" /><polygon fill="#f6d242" points="281.6135396289485,170.86 286.35312953133274,185.35 277.57027580535,185.35" stroke="none" /><polygon fill="#f6d23e" points="281.6135396289485,170.86 293.68402516531853,170.86 286.35312953133274,185.35" stroke="none" /><polygon fill="#f4cd37" points="293.68402516531853,170.86 295.91426862991375,185.35 286.35312953133274,185.35" stroke="none" /><polygon fill="#f8d954" points="257.0,185.35 240.15829135212846,185.35 258.0,197.95" stroke="none" /><polygon fill="#f7d54c" points="240.15829135212846,185.35 238.72269619652596,197.95 258.0,197.95" stroke="none" /><polygon fill="#f5d346" points="240.15829135212846,185.35 234.42972419465002,185.35 238.72269619652596,197.95" stroke="none" /><polygon fill="#f4d041" points="234.42972419465002,185.35 231.14898119389414,197.95 238.72269619652596,197.95" stroke="none" /><polygon fill="#f3cf3f" points="234.42972419465002,185.35 228.64687046866726,185.35 231.14898119389414,197.95" stroke="none" /><polygon fill="#f1cb39" points="228.64687046866726,185.35 218.89000919178866,197.95 231.14898119389414,197.95" stroke="none" /><polygon fill="#f1cb36" points="228.64687046866726,185.35 218.08573137008622,185.35 218.89000919178866,197.95" stroke="none" /><polygon fill="#eec52d" points="218.08573137008622,185.35 206.70513998947263,197.95 218.89000919178866,197.95" stroke="none" /><polygon fill="#f2cd3b" points="218.08573137008622,185.35 257,185.35 206.70513998947263,197.95" stroke="none" /><polygon fill="#f5d347" points="257,185.35 259,197.95 206.70513998947263,197.95" stroke="none" /><polygon fill="#f9db56" points="257,185.35 258.0,185.35 259,197.95" stroke="none" /><polygon fill="#f9da56" points="258.0,185.35 253.0,197.95 259,197.95" stroke="none" /><polygon fill="#f9da55" points="258.0,185.35 266.84170864787154,185.35 253.0,197.95" stroke="none" /><polygon fill="#f7d64e" points="266.84170864787154,185.35 272.277303803474,197.95 253.0,197.95" stroke="none" /><polygon fill="#f5d448" points="266.84170864787154,185.35 277.57027580535,185.35 272.277303803474,197.95" stroke="none" /><polygon fill="#f4d041" points="277.57027580535,185.35 281.85101880610586,197.95 272.277303803474,197.95" stroke="none" /><polygon fill="#f3cf3e" points="277.57027580535,185.35 286.35312953133274,185.35 281.85101880610586,197.95" stroke="none" /><polygon fill="#f1ca37" points="286.35312953133274,185.35 295.10999080821136,197.95 281.85101880610586,197.95" stroke="none" /><polygon fill="#f0ca33" points="286.35312953133274,185.35 295.91426862991375,185.35 295.10999080821136,197.95" stroke="none" /><polygon fill="#eec52c" points="295.91426862991375,185.35 305.2948600105274,197.95 295.10999080821136,197.95" stroke="none" /><polygon fill="#f7d64c" points="258.0,197.95 238.72269619652596,197.95 253.0,208.66" stroke="none" /><polygon fill="#f4d144" points="238.72269619652596,197.95 238.39977928500844,208.66 253.0,208.66" stroke="none" /><polygon fill="#f2cf3f" points="238.72269619652596,197.95 231.14898119389414,197.95 238.39977928500844,208.66" stroke="none" /><polygon fill="#f0ca39" points="231.14898119389414,197.95 223.82385450092391,208.66 238.39977928500844,208.66" stroke="none" /><polygon fill="#efc835" points="231.14898119389414,197.95 218.89000919178866,197.95 223.82385450092391,208.66" stroke="none" /><polygon fill="#ebc32e" points="218.89000919178866,197.95 213.7631146736563,208.66 223.82385450092391,208.66" stroke="none" /><polygon fill="#ebc22a" points="218.89000919178866,197.95 206.70513998947263,197.95 213.7631146736563,208.66" stroke="none" /><polygon fill="#e8be26" points="206.70513998947263,197.95 207.69630086366192,208.66 213.7631146736563,208.66" stroke="none" /><polygon fill="#eec835" points="206.70513998947263,197.95 259,197.95 207.69630086366192,208.66" stroke="none" /><polygon fill="#f3d042" points="259,197.95 257,208.66 207.69630086366192,208.66" stroke="none" /><polygon fill="#f8d951" points="259,197.95 253.0,197.95 257,208.66" stroke="none" /><polygon fill="#f8d84e" points="253.0,197.95 253.0,208.66 257,208.66" stroke="none" /><polygon fill="#f7d84e" points="253.0,197.95 272.277303803474,197.95 253.0,208.66" stroke="none" /><polygon fill="#f5d347" points="272.277303803474,197.95 270.60022071499156,208.66 253.0,208.66" stroke="none" /><polygon fill="#f2cf40" points="272.277303803474,197.95 281.85101880610586,197.95 270.60022071499156,208.66" stroke="none" /><polygon fill="#f0cb3a" points="281.85101880610586,197.95 288.1761454990761,208.66 270.60022071499156,208.66" stroke="none" /><polygon fill="#eec834" points="281.85101880610586,197.95 295.10999080821136,197.95 288.1761454990761,208.66" stroke="none" /><polygon fill="#ebc32e" points="295.10999080821136,197.95 296.23688532634367,208.66 288.1761454990761,208.66" stroke="none" /><polygon fill="#ebc22a" points="295.10999080821136,197.95 305.2948600105274,197.95 296.23688532634367,208.66" stroke="none" /><polygon fill="#e8be26" points="305.2948600105274,197.95 306.3036991363381,208.66 296.23688532634367,208.66" stroke="none" /><polygon fill="#f4d244" points="253.0,208.66 238.39977928500844,208.66 253.0,218.74" stroke="none" /><polygon fill="#f2ce3e" points="238.39977928500844,208.66 236.3036903991273,218.74 253.0,218.74" stroke="none" /><polygon fill="#efc938" points="238.39977928500844,208.66 223.82385450092391,208.66 236.3036903991273,218.74" stroke="none" /><polygon fill="#ecc533" points="223.82385450092391,208.66 224.89739524695102,218.74 236.3036903991273,218.74" stroke="none" /><polygon fill="#eac22e" points="223.82385450092391,208.66 213.7631146736563,208.66 224.89739524695102,218.74" stroke="none" /><polygon fill="#e7bf2b" points="213.7631146736563,208.66 215.17235912521,218.74 224.89739524695102,218.74" stroke="none" /><polygon fill="#e7bc27" points="213.7631146736563,208.66 207.69630086366192,208.66 215.17235912521,218.74" stroke="none" /><polygon fill="#e4ba24" points="207.69630086366192,208.66 203.37481939129486,218.74 215.17235912521,218.74" stroke="none" /><polygon fill="#ebc330" points="207.69630086366192,208.66 257,208.66 203.37481939129486,218.74" stroke="none" /><polygon fill="#f0cc3b" points="257,208.66 257,218.74 203.37481939129486,218.74" stroke="none" /><polygon fill="#f7d64a" points="257,208.66 253.0,208.66 257,218.74" stroke="none" /><polygon fill="#f7d648" points="253.0,208.66 259.0,218.74 257,218.74" stroke="none" /><polygon fill="#f6d447" points="253.0,208.66 270.60022071499156,208.66 259.0,218.74" stroke="none" /><polygon fill="#f3d040" points="270.60022071499156,208.66 270.69630960087267,218.74 259.0,218.74" stroke="none" /><polygon fill="#f0ca3a" points="270.60022071499156,208.66 288.1761454990761,208.66 270.69630960087267,218.74" stroke="none" /><polygon fill="#ecc633" points="288.1761454990761,208.66 290.102604753049,218.74 270.69630960087267,218.74" stroke="none" /><polygon fill="#eac12e" points="288.1761454990761,208.66 296.23688532634367,208.66 290.102604753049,218.74" stroke="none" /><polygon fill="#e7bf2a" points="296.23688532634367,208.66 297.82764087479,218.74 290.102604753049,218.74" stroke="none" /><polygon fill="#e7bc27" points="296.23688532634367,208.66 306.3036991363381,208.66 297.82764087479,218.74" stroke="none" /><polygon fill="#e4ba24" points="306.3036991363381,208.66 307.62518060870514,218.74 297.82764087479,218.74" stroke="none" /><polygon fill="#f3cf3f" points="253.0,218.74 236.3036903991273,218.74 255.0,227.56" stroke="none" /><polygon fill="#f1cb3b" points="236.3036903991273,218.74 239.98406492726681,227.56 255.0,227.56" stroke="none" /><polygon fill="#edc634" points="236.3036903991273,218.74 224.89739524695102,218.74 239.98406492726681,227.56" stroke="none" /><polygon fill="#ebc332" points="224.89739524695102,218.74 226.0932050236811,227.56 239.98406492726681,227.56" stroke="none" /><polygon fill="#e7bf2c" points="224.89739524695102,218.74 215.17235912521,218.74 226.0932050236811,227.56" stroke="none" /><polygon fill="#e5bb2a" points="215.17235912521,218.74 215.7805171008125,227.56 226.0932050236811,227.56" stroke="none" /><polygon fill="#e3b824" points="215.17235912521,218.74 203.37481939129486,218.74 215.7805171008125,227.56" stroke="none" /><polygon fill="#e1b523" points="203.37481939129486,218.74 205.43656038565703,227.56 215.7805171008125,227.56" stroke="none" /><polygon fill="#e7bf2c" points="203.37481939129486,218.74 257,218.74 205.43656038565703,227.56" stroke="none" /><polygon fill="#eec837" points="257,218.74 254,227.56 205.43656038565703,227.56" stroke="none" /><polygon fill="#f6d444" points="257,218.74 259.0,218.74 254,227.56" stroke="none" /><polygon fill="#f6d343" points="259.0,218.74 258.0,227.56 254,227.56" stroke="none" /><polygon fill="#f4d040" points="259.0,218.74 270.69630960087267,218.74 258.0,227.56" stroke="none" /><polygon fill="#f2cd3c" points="270.69630960087267,218.74 270.01593507273316,227.56 258.0,227.56" stroke="none" /><polygon fill="#edc735" points="270.69630960087267,218.74 290.102604753049,218.74 270.01593507273316,227.56" stroke="none" /><polygon fill="#ebc332" points="290.102604753049,218.74 284.9067949763189,227.56 270.01593507273316,227.56" stroke="none" /><polygon fill="#e7be2b" points="290.102604753049,218.74 297.82764087479,218.74 284.9067949763189,227.56" stroke="none" /><polygon fill="#e6bc2a" points="297.82764087479,218.74 293.21948289918754,227.56 284.9067949763189,227.56" stroke="none" /><polygon fill="#e3b925" points="297.82764087479,218.74 307.62518060870514,218.74 293.21948289918754,227.56" stroke="none" /><polygon fill="#e1b523" points="307.62518060870514,218.74 308.563439614343,227.56 293.21948289918754,227.56" stroke="none" /><polygon fill="#f4cf3c" points="255.0,227.56 239.98406492726681,227.56 257.0,237.64" stroke="none" /><polygon fill="#f0cb37" points="239.98406492726681,227.56 241.58939978242043,237.64 257.0,237.64" stroke="none" /><polygon fill="#ecc533" points="239.98406492726681,227.56 226.0932050236811,227.56 241.58939978242043,237.64" stroke="none" /><polygon fill="#eac230" points="226.0932050236811,227.56 232.67227840546622,237.64 241.58939978242043,237.64" stroke="none" /><polygon fill="#e6bd2c" points="226.0932050236811,227.56 215.7805171008125,227.56 232.67227840546622,237.64" stroke="none" /><polygon fill="#e4bb2a" points="215.7805171008125,227.56 222.93858130390285,237.64 232.67227840546622,237.64" stroke="none" /><polygon fill="#e1b625" points="215.7805171008125,227.56 205.43656038565703,227.56 222.93858130390285,237.64" stroke="none" /><polygon fill="#dfb423" points="205.43656038565703,227.56 212.33151449218315,237.64 222.93858130390285,237.64" stroke="none" /><polygon fill="#e5bd2b" points="205.43656038565703,227.56 254,227.56 212.33151449218315,237.64" stroke="none" /><polygon fill="#edc734" points="254,227.56 256,237.64 212.33151449218315,237.64" stroke="none" /><polygon fill="#f7d340" points="254,227.56 258.0,227.56 256,237.64" stroke="none" /><polygon fill="#f5d13d" points="258.0,227.56 257.0,237.64 256,237.64" stroke="none" /><polygon fill="#f3cf3c" points="258.0,227.56 270.01593507273316,227.56 257.0,237.64" stroke="none" /><polygon fill="#f1cb38" points="270.01593507273316,227.56 268.41060021757954,237.64 257.0,237.64" stroke="none" /><polygon fill="#edc634" points="270.01593507273316,227.56 284.9067949763189,227.56 268.41060021757954,237.64" stroke="none" /><polygon fill="#e9c12f" points="284.9067949763189,227.56 284.3277215945338,237.64 268.41060021757954,237.64" stroke="none" /><polygon fill="#e6bd2b" points="284.9067949763189,227.56 293.21948289918754,227.56 284.3277215945338,237.64" stroke="none" /><polygon fill="#e4ba29" points="293.21948289918754,227.56 290.0614186960971,237.64 284.3277215945338,237.64" stroke="none" /><polygon fill="#e1b625" points="293.21948289918754,227.56 308.563439614343,227.56 290.0614186960971,237.64" stroke="none" /><polygon fill="#dfb423" points="308.563439614343,227.56 296.66848550781685,237.64 290.0614186960971,237.64" stroke="none" /><polygon fill="#f3ce38" points="257.0,237.64 241.58939978242043,237.64 259.0,248.35" stroke="none" /><polygon fill="#f0c932" points="241.58939978242043,237.64 243.81201250474956,248.35 259.0,248.35" stroke="none" /><polygon fill="#ecc430" points="241.58939978242043,237.64 232.67227840546622,237.64 243.81201250474956,248.35" stroke="none" /><polygon fill="#e9c12d" points="232.67227840546622,237.64 233.8211128871356,248.35 243.81201250474956,248.35" stroke="none" /><polygon fill="#e6bd2b" points="232.67227840546622,237.64 222.93858130390285,237.64 233.8211128871356,248.35" stroke="none" /><polygon fill="#e4ba28" points="222.93858130390285,237.64 227.8283931930444,248.35 233.8211128871356,248.35" stroke="none" /><polygon fill="#e1b726" points="222.93858130390285,237.64 212.33151449218315,237.64 227.8283931930444,248.35" stroke="none" /><polygon fill="#deb223" points="212.33151449218315,237.64 214.03640152954412,248.35 227.8283931930444,248.35" stroke="none" /><polygon fill="#e5bb2a" points="212.33151449218315,237.64 256,237.64 214.03640152954412,248.35" stroke="none" /><polygon fill="#ecc42f" points="256,237.64 253,248.35 214.03640152954412,248.35" stroke="none" /><polygon fill="#f5d039" points="256,237.64 257.0,237.64 253,248.35" stroke="none" /><polygon fill="#f4cf36" points="257.0,237.64 255.0,248.35 253,248.35" stroke="none" /><polygon fill="#f3cd37" points="257.0,237.64 268.41060021757954,237.64 255.0,248.35" stroke="none" /><polygon fill="#f0c932" points="268.41060021757954,237.64 269.1879874952504,248.35 255.0,248.35" stroke="none" /><polygon fill="#ebc330" points="268.41060021757954,237.64 284.3277215945338,237.64 269.1879874952504,248.35" stroke="none" /><polygon fill="#e7be2b" points="284.3277215945338,237.64 282.1788871128644,248.35 269.1879874952504,248.35" stroke="none" /><polygon fill="#e4bb29" points="284.3277215945338,237.64 290.0614186960971,237.64 282.1788871128644,248.35" stroke="none" /><polygon fill="#e3b927" points="290.0614186960971,237.64 285.1716068069556,248.35 282.1788871128644,248.35" stroke="none" /><polygon fill="#e1b726" points="290.0614186960971,237.64 296.66848550781685,237.64 285.1716068069556,248.35" stroke="none" /><polygon fill="#dfb424" points="296.66848550781685,237.64 292.96359847045585,248.35 285.1716068069556,248.35" stroke="none" /><polygon fill="#f3cc31" points="259.0,248.35 243.81201250474956,248.35 258.0,259.06" stroke="none" /><polygon fill="#efc72d" points="243.81201250474956,248.35 244.72107301160702,259.06 258.0,259.06" stroke="none" /><polygon fill="#eac22c" points="243.81201250474956,248.35 233.8211128871356,248.35 244.72107301160702,259.06" stroke="none" /><polygon fill="#e7bd28" points="233.8211128871356,248.35 232.4188555961578,259.06 244.72107301160702,259.06" stroke="none" /><polygon fill="#e4ba28" points="233.8211128871356,248.35 227.8283931930444,248.35 232.4188555961578,259.06" stroke="none" /><polygon fill="#e1b625" points="227.8283931930444,248.35 223.97708166379843,259.06 232.4188555961578,259.06" stroke="none" /><polygon fill="#deb323" points="227.8283931930444,248.35 214.03640152954412,248.35 223.97708166379843,259.06" stroke="none" /><polygon fill="#dbaf21" points="214.03640152954412,248.35 219.79113033820312,259.06 223.97708166379843,259.06" stroke="none" /><polygon fill="#e3b826" points="214.03640152954412,248.35 253,248.35 219.79113033820312,259.06" stroke="none" /><polygon fill="#ebc22b" points="253,248.35 257,259.06 219.79113033820312,259.06" stroke="none" /><polygon fill="#f4cd32" points="253,248.35 255.0,248.35 257,259.06" stroke="none" /><polygon fill="#f3cc30" points="255.0,248.35 259.0,259.06 257,259.06" stroke="none" /><polygon fill="#f1ca30" points="255.0,248.35 269.1879874952504,248.35 259.0,259.06" stroke="none" /><polygon fill="#edc52c" points="269.1879874952504,248.35 268.278926988393,259.06 259.0,259.06" stroke="none" /><polygon fill="#e9c02b" points="269.1879874952504,248.35 282.1788871128644,248.35 268.278926988393,259.06" stroke="none" /><polygon fill="#e7bd28" points="282.1788871128644,248.35 276.5811444038422,259.06 268.278926988393,259.06" stroke="none" /><polygon fill="#e4ba27" points="282.1788871128644,248.35 285.1716068069556,248.35 276.5811444038422,259.06" stroke="none" /><polygon fill="#e2b725" points="285.1716068069556,248.35 285.0229183362016,259.06 276.5811444038422,259.06" stroke="none" /><polygon fill="#e0b524" points="285.1716068069556,248.35 292.96359847045585,248.35 285.0229183362016,259.06" stroke="none" /><polygon fill="#ddb122" points="292.96359847045585,248.35 291.2088696617969,259.06 285.0229183362016,259.06" stroke="none" /><polygon fill="#f1c82a" points="258.0,259.06 244.72107301160702,259.06 254.0,270.4" stroke="none" /><polygon fill="#edc428" points="244.72107301160702,259.06 241.72210111566883,270.4 254.0,270.4" stroke="none" /><polygon fill="#e8be26" points="244.72107301160702,259.06 232.4188555961578,259.06 241.72210111566883,270.4" stroke="none" /><polygon fill="#e4ba24" points="232.4188555961578,259.06 231.4206625669331,270.4 241.72210111566883,270.4" stroke="none" /><polygon fill="#e0b522" points="232.4188555961578,259.06 223.97708166379843,259.06 231.4206625669331,270.4" stroke="none" /><polygon fill="#e0b422" points="223.97708166379843,259.06 229.9795117279445,270.4 231.4206625669331,270.4" stroke="none" /><polygon fill="#ddb121" points="223.97708166379843,259.06 219.79113033820312,259.06 229.9795117279445,270.4" stroke="none" /><polygon fill="#dcaf20" points="219.79113033820312,259.06 218.79424580505707,270.4 229.9795117279445,270.4" stroke="none" /><polygon fill="#e2b723" points="219.79113033820312,259.06 257,259.06 218.79424580505707,270.4" stroke="none" /><polygon fill="#ecc228" points="257,259.06 259,270.4 218.79424580505707,270.4" stroke="none" /><polygon fill="#f2ca2b" points="257,259.06 259.0,259.06 259,270.4" stroke="none" /><polygon fill="#f1c92a" points="259.0,259.06 259.0,270.4 259,270.4" stroke="none" /><polygon fill="#efc629" points="259.0,259.06 268.278926988393,259.06 259.0,270.4" stroke="none" /><polygon fill="#edc328" points="268.278926988393,259.06 269.2778988843312,270.4 259.0,270.4" stroke="none" /><polygon fill="#e8be26" points="268.278926988393,259.06 276.5811444038422,259.06 269.2778988843312,270.4" stroke="none" /><polygon fill="#e6bc25" points="276.5811444038422,259.06 277.5793374330669,270.4 269.2778988843312,270.4" stroke="none" /><polygon fill="#e2b723" points="276.5811444038422,259.06 285.0229183362016,259.06 277.5793374330669,270.4" stroke="none" /><polygon fill="#e1b623" points="285.0229183362016,259.06 283.0204882720555,270.4 277.5793374330669,270.4" stroke="none" /><polygon fill="#deb221" points="285.0229183362016,259.06 291.2088696617969,259.06 283.0204882720555,270.4" stroke="none" /><polygon fill="#dbae20" points="291.2088696617969,259.06 296.2057541949429,270.4 283.0204882720555,270.4" stroke="none" /><polygon fill="#efc72a" points="254.0,270.4 241.72210111566883,270.4 255.0,283.0" stroke="none" /><polygon fill="#edc429" points="241.72210111566883,270.4 244.813,283.0 255.0,283.0" stroke="none" /><polygon fill="#e7bd26" points="241.72210111566883,270.4 231.4206625669331,270.4 244.813,283.0" stroke="none" /><polygon fill="#e6bc25" points="231.4206625669331,270.4 235.338,283.0 244.813,283.0" stroke="none" /><polygon fill="#e2b723" points="231.4206625669331,270.4 229.9795117279445,270.4 235.338,283.0" stroke="none" /><polygon fill="#e2b723" points="229.9795117279445,270.4 230.558,283.0 235.338,283.0" stroke="none" /><polygon fill="#deb221" points="229.9795117279445,270.4 218.79424580505707,270.4 230.558,283.0" stroke="none" /><polygon fill="#ddb021" points="218.79424580505707,270.4 223.1,283.0 230.558,283.0" stroke="none" /><polygon fill="#e3b824" points="218.79424580505707,270.4 259,270.4 223.1,283.0" stroke="none" /><polygon fill="#ecc328" points="259,270.4 256,283.0 223.1,283.0" stroke="none" /><polygon fill="#f2ca2b" points="259,270.4 259.0,270.4 256,283.0" stroke="none" /><polygon fill="#f3cb2b" points="259.0,270.4 256.0,283.0 256,283.0" stroke="none" /><polygon fill="#f0c72a" points="259.0,270.4 269.2778988843312,270.4 256.0,283.0" stroke="none" /><polygon fill="#edc429" points="269.2778988843312,270.4 268.187,283.0 256.0,283.0" stroke="none" /><polygon fill="#e8be26" points="269.2778988843312,270.4 277.5793374330669,270.4 268.187,283.0" stroke="none" /><polygon fill="#e6bc25" points="277.5793374330669,270.4 276.662,283.0 268.187,283.0" stroke="none" /><polygon fill="#e3b824" points="277.5793374330669,270.4 283.0204882720555,270.4 276.662,283.0" stroke="none" /><polygon fill="#e1b623" points="283.0204882720555,270.4 283.442,283.0 276.662,283.0" stroke="none" /><polygon fill="#ddb121" points="283.0204882720555,270.4 296.2057541949429,270.4 283.442,283.0" stroke="none" /><polygon fill="#dbae20" points="296.2057541949429,270.4 290.9,283.0 283.442,283.0" stroke="none" /><path d="M 244 212 A 10 15 0 0 0 244 226 Z" fill="#f4cc2c" stroke="#d2a41c" stroke-width="1" /><path d="M 268 212 A 10 15 0 0 1 268 226 Z" fill="#f4cc2c" stroke="#d2a41c" stroke-width="1" /><path d="M 222 214 A 16 11 0 0 0 254 214 Z" fill="#e8e0d8" stroke="#3a2a1a" stroke-width="1.5" /><path d="M 233 215 A 5 5 0 0 0 243 215 Z" fill="#3a2a1a" stroke="none" /><circle cx="240" cy="213" fill="white" r="2" stroke="none" /><circle cx="237" cy="215" fill="white" r="1" stroke="none" /><path d="M 220 214 Q 238 211 256 214" fill="none" stroke="#3a2a1a" stroke-width="3" /><line stroke="#3a2a1a" stroke-width="2" x1="230" x2="230" y1="214" y2="211" /><line stroke="#3a2a1a" stroke-width="2" x1="238" x2="238" y1="214" y2="211" /><line stroke="#3a2a1a" stroke-width="2" x1="246" x2="246" y1="214" y2="211" /><path d="M 258 214 A 16 11 0 0 0 290 214 Z" fill="#e8e0d8" stroke="#3a2a1a" stroke-width="1.5" /><path d="M 269 215 A 5 5 0 0 0 279 215 Z" fill="#3a2a1a" stroke="none" /><circle cx="276" cy="213" fill="white" r="2" stroke="none" /><circle cx="273" cy="215" fill="white" r="1" stroke="none" /><path d="M 256 214 Q 274 211 292 214" fill="none" stroke="#3a2a1a" stroke-width="3" /><line stroke="#3a2a1a" stroke-width="2" x1="226" x2="250" y1="209" y2="209" /><line stroke="#3a2a1a" stroke-width="2" x1="265" x2="283" y1="210" y2="210" /><path d="M 224 225 A 6 4 0 0 0 236 225 Z" fill="#e88060" fill-opacity="0.2921384516267839" stroke="none" /><path d="M 274 226 A 6 4 0 0 0 286 226 Z" fill="#e88060" fill-opacity="0.2188713948612775" stroke="none" /><path d="M 254 223 Q 256 221 258 223" fill="none" stroke="#d2a41c" stroke-width="2" /><path d="M 241 233 Q 256 227 271 233" fill="none" stroke="#c06050" stroke-width="3" /><circle cx="241" cy="234" fill="#c06050" r="2" stroke="none" /><circle cx="271" cy="234" fill="#c06050" r="2" stroke="none" /><ellipse cx="245" cy="198" fill="white" fill-opacity="0.18" rx="7" ry="4" stroke="none" /><ellipse cx="267" cy="198" fill="white" fill-opacity="0.18" rx="7" ry="4" stroke="none" /><ellipse cx="256" cy="189" fill="white" fill-opacity="0.18" rx="7" ry="4" stroke="none" /><ellipse cx="237" cy="223" fill="white" fill-opacity="0.18" rx="7" ry="4" stroke="none" /><ellipse cx="275" cy="223" fill="white" fill-opacity="0.18" rx="7" ry="4" stroke="none" /><ellipse cx="248" cy="229" fill="white" fill-opacity="0.18" rx="7" ry="4" stroke="none" /><ellipse cx="264" cy="229" fill="white" fill-opacity="0.18" rx="7" ry="4" stroke="none" /><ellipse cx="256" cy="211" fill="white" fill-opacity="0.12" rx="2" ry="14" stroke="none" /><polygon fill="#b69018" points="249,279.0 263,279.0 263,314.0 249,314.0" stroke="none" /></svg>