<?xml version="1.0" encoding="utf-8" ?>
<svg baseProfile="full" height="512" version="1.1" width="512" xmlns="http://www.w3.org/2000/svg" xmlns:ev="http://www.w3.org/2001/xml-events" xmlns:xlink="http://www.w3.org/1999/xlink"><defs /><polygon fill="#fcdf65" points="255.0,148.5 253.7229,148.5 257.0,164.23" stroke="none" /><polygon fill="#fcde60" points="253.7229,148.5 241.95463091219352,164.23 257.0,164.23" stroke="none" /><polygon fill="#fcdd60" points="253.7229,148.5 254.7554,148.5 241.95463091219352,164.23" stroke="none" /><polygon fill="#fbdc5a" points="254.7554,148.5 237.5869270577947,164.23 241.95463091219352,164.23" stroke="none" /><polygon fill="#fbdd5e" points="254.7554,148.5 252.9814,148.5 237.5869270577947,164.23" stroke="none" /><polygon fill="#fada55" points="252.9814,148.5 228.89276397427562,164.23 237.5869270577947,164.23" stroke="none" /><polygon fill="#fbdc5a" points="252.9814,148.5 253.13,148.5 228.89276397427562,164.23" stroke="none" /><polygon fill="#f9d850" points="253.13,148.5 221.52918458240464,164.23 228.89276397427562,164.23" stroke="none" /><polygon fill="#fbdb59" points="253.13,148.5 257,148.5 221.52918458240464,164.23" stroke="none" /><polygon fill="#fbdb5a" points="257,148.5 255,164.23 221.52918458240464,164.23" stroke="none" /><polygon fill="#fcdf65" points="257,148.5 257.0,148.5 255,164.23" stroke="none" /><polygon fill="#fcdf65" points="257.0,148.5 255.0,164.23 255,164.23" stroke="none" /><polygon fill="#fcdf65" points="257.0,148.5 258.2771,148.5 255.0,164.23" stroke="none" /><polygon fill="#fcde61" points="258.2771,148.5 267.0453690878065,164.23 255.0,164.23" stroke="none" /><polygon fill="#fcde60" points="258.2771,148.5 258.2446,148.5 267.0453690878065,164.23" stroke="none" /><polygon fill="#fbdc5a" points="258.2446,148.5 276.4130729422053,164.23 267.0453690878065,164.23" stroke="none" /><polygon fill="#fbdd5d" points="258.2446,148.5 258.0186,148.5 276.4130729422053,164.23" stroke="none" /><polygon fill="#fada56" points="258.0186,148.5 279.1072360257244,164.23 276.4130729422053,164.23" stroke="none" /><polygon fill="#fbdc5c" points="258.0186,148.5 259.87,148.5 279.1072360257244,164.23" stroke="none" /><polygon fill="#fad952" points="259.87,148.5 287.47081541759536,164.23 279.1072360257244,164.23" stroke="none" /><polygon fill="#fcde62" points="257.0,164.23 241.95463091219352,164.23 258.0,180.675" stroke="none" /><polygon fill="#fadb59" points="241.95463091219352,164.23 237.55915576783406,180.675 258.0,180.675" stroke="none" /><polygon fill="#fada54" points="241.95463091219352,164.23 237.5869270577947,164.23 237.55915576783406,180.675" stroke="none" /><polygon fill="#f8d64d" points="237.5869270577947,164.23 227.1039707434659,180.675 237.55915576783406,180.675" stroke="none" /><polygon fill="#f9d74d" points="237.5869270577947,164.23 228.89276397427562,164.23 227.1039707434659,180.675" stroke="none" /><polygon fill="#f6d244" points="228.89276397427562,164.23 217.1398227239714,180.675 227.1039707434659,180.675" stroke="none" /><polygon fill="#f8d444" points="228.89276397427562,164.23 221.52918458240464,164.23 217.1398227239714,180.675" stroke="none" /><polygon fill="#f5ce3a" points="221.52918458240464,164.23 205.17925990252743,180.675 217.1398227239714,180.675" stroke="none" /><polygon fill="#f8d549" points="221.52918458240464,164.23 255,164.23 205.17925990252743,180.675" stroke="none" /><polygon fill="#f8d751" points="255,164.23 254,180.675 205.17925990252743,180.675" stroke="none" /><polygon fill="#fcdf64" points="255,164.23 255.0,164.23 254,180.675" stroke="none" /><polygon fill="#fbde61" points="255.0,164.23 253.0,180.675 254,180.675" stroke="none" /><polygon fill="#fcdf63" points="255.0,164.23 267.0453690878065,164.23 253.0,180.675" stroke="none" /><polygon fill="#fadc5b" points="267.0453690878065,164.23 270.44084423216594,180.675 253.0,180.675" stroke="none" /><polygon fill="#fada56" points="267.0453690878065,164.23 276.4130729422053,164.23 270.44084423216594,180.675" stroke="none" /><polygon fill="#f8d74f" points="276.4130729422053,164.23 281.89602925653406,180.675 270.44084423216594,180.675" stroke="none" /><polygon fill="#f9d74e" points="276.4130729422053,164.23 279.1072360257244,164.23 281.89602925653406,180.675" stroke="none" /><polygon fill="#f7d347" points="279.1072360257244,164.23 291.8601772760286,180.675 281.89602925653406,180.675" stroke="none" /><polygon fill="#f8d547" points="279.1072360257244,164.23 287.47081541759536,164.23 291.8601772760286,180.675" stroke="none" /><polygon fill="#f5cf3c" points="287.47081541759536,164.23 307.82074009747254,180.675 291.8601772760286,180.675" stroke="none" /><polygon fill="#f9da57" points="258.0,180.675 237.55915576783406,180.675 253.0,194.975" stroke="none" /><polygon fill="#f7d54f" points="237.55915576783406,180.675 236.36191012866914,194.975 253.0,194.975" stroke="none" /><polygon fill="#f6d349" points="237.55915576783406,180.675 227.1039707434659,180.675 236.36191012866914,194.975" stroke="none" /><polygon fill="#f4cf43" points="227.1039707434659,180.675 222.24214507463063,194.975 236.36191012866914,194.975" stroke="none" /><polygon fill="#f3ce3e" points="227.1039707434659,180.675 217.1398227239714,180.675 222.24214507463063,194.975" stroke="none" /><polygon fill="#f1ca38" points="217.1398227239714,180.675 209.9463330313998,194.975 222.24214507463063,194.975" stroke="none" /><polygon fill="#f0c934" points="217.1398227239714,180.675 205.17925990252743,180.675 209.9463330313998,194.975" stroke="none" /><polygon fill="#eec52e" points="205.17925990252743,180.675 198.5209397838459,194.975 209.9463330313998,194.975" stroke="none" /><polygon fill="#f2cd3c" points="205.17925990252743,180.675 254,180.675 198.5209397838459,194.975" stroke="none" /><polygon fill="#f6d349" points="254,180.675 256,194.975 198.5209397838459,194.975" stroke="none" /><polygon fill="#fadc5b" points="254,180.675 253.0,180.675 256,194.975" stroke="none" /><polygon fill="#fadb59" points="253.0,180.675 253.0,194.975 256,194.975" stroke="none" /><polygon fill="#fadb5a" points="253.0,180.675 270.44084423216594,180.675 253.0,194.975" stroke="none" /><polygon fill="#f8d752" points="270.44084423216594,180.675 273.63808987133086,194.975 253.0,194.975" stroke="none" /><polygon fill="#f6d44b" points="270.44084423216594,180.675 281.89602925653406,180.675 273.63808987133086,194.975" stroke="none" /><polygon fill="#f4d043" points="281.89602925653406,180.675 291.7578549253694,194.975 273.63808987133086,194.975" stroke="none" /><polygon fill="#f3cf3f" points="281.89602925653406,180.675 291.8601772760286,180.675 291.7578549253694,194.975" stroke="none" /><polygon fill="#f1ca39" points="291.8601772760286,180.675 299.0536669686002,194.975 291.7578549253694,194.975" stroke="none" /><polygon fill="#f1ca36" points="291.8601772760286,180.675 307.82074009747254,180.675 299.0536669686002,194.975" stroke="none" /><polygon fill="#eec52e" points="307.82074009747254,180.675 314.4790602161541,194.975 299.0536669686002,194.975" stroke="none" /><polygon fill="#f7d64f" points="253.0,194.975 236.36191012866914,194.975 253.0,207.13" stroke="none" /><polygon fill="#f5d148" points="236.36191012866914,194.975 234.15175590974417,207.13 253.0,207.13" stroke="none" /><polygon fill="#f3ce41" points="236.36191012866914,194.975 222.24214507463063,194.975 234.15175590974417,207.13" stroke="none" /><polygon fill="#f0ca3c" points="222.24214507463063,194.975 220.35763159894432,207.13 234.15175590974417,207.13" stroke="none" /><polygon fill="#efc837" points="222.24214507463063,194.975 209.9463330313998,194.975 220.35763159894432,207.13" stroke="none" /><polygon fill="#edc432" points="209.9463330313998,194.975 208.72233215030442,207.13 220.35763159894432,207.13" stroke="none" /><polygon fill="#ebc22d" points="209.9463330313998,194.975 198.5209397838459,194.975 208.72233215030442,207.13" stroke="none" /><polygon fill="#eabf2a" points="198.5209397838459,194.975 192.82350275680056,207.13 208.72233215030442,207.13" stroke="none" /><polygon fill="#eec735" points="198.5209397838459,194.975 256,194.975 192.82350275680056,207.13" stroke="none" /><polygon fill="#f3ce43" points="256,194.975 255,207.13 192.82350275680056,207.13" stroke="none" /><polygon fill="#f9d954" points="256,194.975 253.0,194.975 255,207.13" stroke="none" /><polygon fill="#f9d752" points="253.0,194.975 253.0,207.13 255,207.13" stroke="none" /><polygon fill="#f8d852" points="253.0,194.975 273.63808987133086,194.975 253.0,207.13" stroke="none" /><polygon fill="#f6d34a" points="273.63808987133086,194.975 277.84824409025583,207.13 253.0,207.13" stroke="none" /><polygon fill="#f3ce41" points="273.63808987133086,194.975 291.7578549253694,194.975 277.84824409025583,207.13" stroke="none" /><polygon fill="#f0ca3b" points="291.7578549253694,194.975 290.6423684010557,207.13 277.84824409025583,207.13" stroke="none" /><polygon fill="#efc837" points="291.7578549253694,194.975 299.0536669686002,194.975 290.6423684010557,207.13" stroke="none" /><polygon fill="#edc533" points="299.0536669686002,194.975 302.27766784969555,207.13 290.6423684010557,207.13" stroke="none" /><polygon fill="#ecc32e" points="299.0536669686002,194.975 314.4790602161541,194.975 302.27766784969555,207.13" stroke="none" /><polygon fill="#eabf2a" points="314.4790602161541,194.975 319.17649724319944,207.13 302.27766784969555,207.13" stroke="none" /><polygon fill="#f6d349" points="253.0,207.13 234.15175590974417,207.13 256.0,218.57" stroke="none" /><polygon fill="#f4cf43" points="234.15175590974417,207.13 236.11077586766245,218.57 256.0,218.57" stroke="none" /><polygon fill="#f0ca3c" points="234.15175590974417,207.13 220.35763159894432,207.13 236.11077586766245,218.57" stroke="none" /><polygon fill="#eec637" points="220.35763159894432,207.13 218.28560607043704,218.57 236.11077586766245,218.57" stroke="none" /><polygon fill="#ebc332" points="220.35763159894432,207.13 208.72233215030442,207.13 218.28560607043704,218.57" stroke="none" /><polygon fill="#e8bf2d" points="208.72233215030442,207.13 203.62547023265668,218.57 218.28560607043704,218.57" stroke="none" /><polygon fill="#e7bc29" points="208.72233215030442,207.13 192.82350275680056,207.13 203.62547023265668,218.57" stroke="none" /><polygon fill="#e6bb28" points="192.82350275680056,207.13 192.69932081109832,218.57 203.62547023265668,218.57" stroke="none" /><polygon fill="#eac130" points="192.82350275680056,207.13 255,207.13 192.69932081109832,218.57" stroke="none" /><polygon fill="#f1cc3e" points="255,207.13 259,218.57 192.69932081109832,218.57" stroke="none" /><polygon fill="#f8d74e" points="255,207.13 253.0,207.13 259,218.57" stroke="none" /><polygon fill="#f8d64c" points="253.0,207.13 255.0,218.57 259,218.57" stroke="none" /><polygon fill="#f7d44a" points="253.0,207.13 277.84824409025583,207.13 255.0,218.57" stroke="none" /><polygon fill="#f3cf42" points="277.84824409025583,207.13 278.8892241323376,218.57 255.0,218.57" stroke="none" /><polygon fill="#f0ca3c" points="277.84824409025583,207.13 290.6423684010557,207.13 278.8892241323376,218.57" stroke="none" /><polygon fill="#edc637" points="290.6423684010557,207.13 292.71439392956296,218.57 278.8892241323376,218.57" stroke="none" /><polygon fill="#ebc333" points="290.6423684010557,207.13 302.27766784969555,207.13 292.71439392956296,218.57" stroke="none" /><polygon fill="#e9c02e" points="302.27766784969555,207.13 305.3745297673433,218.57 292.71439392956296,218.57" stroke="none" /><polygon fill="#e7bc29" points="302.27766784969555,207.13 319.17649724319944,207.13 305.3745297673433,218.57" stroke="none" /><polygon fill="#e6bb28" points="319.17649724319944,207.13 319.30067918890165,218.57 305.3745297673433,218.57" stroke="none" /><polygon fill="#f5d245" points="256.0,218.57 236.11077586766245,218.57 259.0,228.58" stroke="none" /><polygon fill="#f2cd40" points="236.11077586766245,218.57 235.07814379915462,228.58 259.0,228.58" stroke="none" /><polygon fill="#edc738" points="236.11077586766245,218.57 218.28560607043704,218.57 235.07814379915462,228.58" stroke="none" /><polygon fill="#ebc335" points="218.28560607043704,218.57 224.74340425305962,228.58 235.07814379915462,228.58" stroke="none" /><polygon fill="#e8bf2f" points="218.28560607043704,218.57 203.62547023265668,218.57 224.74340425305962,228.58" stroke="none" /><polygon fill="#e6bc2d" points="203.62547023265668,218.57 211.27561261618365,228.58 224.74340425305962,228.58" stroke="none" /><polygon fill="#e3b827" points="203.62547023265668,218.57 192.69932081109832,218.57 211.27561261618365,228.58" stroke="none" /><polygon fill="#e2b627" points="192.69932081109832,218.57 197.66104181562005,228.58 211.27561261618365,228.58" stroke="none" /><polygon fill="#e8bf2f" points="192.69932081109832,218.57 259,218.57 197.66104181562005,228.58" stroke="none" /><polygon fill="#f0ca3c" points="259,218.57 257,228.58 197.66104181562005,228.58" stroke="none" /><polygon fill="#f7d548" points="259,218.57 255.0,218.57 257,228.58" stroke="none" /><polygon fill="#f7d447" points="255.0,218.57 255.0,228.58 257,228.58" stroke="none" /><polygon fill="#f5d244" points="255.0,218.57 278.8892241323376,218.57 255.0,228.58" stroke="none" /><polygon fill="#f2cc3f" points="278.8892241323376,218.57 277.92185620084535,228.58 255.0,228.58" stroke="none" /><polygon fill="#edc637" points="278.8892241323376,218.57 292.71439392956296,218.57 277.92185620084535,228.58" stroke="none" /><polygon fill="#ebc335" points="292.71439392956296,218.57 289.2565957469404,228.58 277.92185620084535,228.58" stroke="none" /><polygon fill="#e8bf2f" points="292.71439392956296,218.57 305.3745297673433,218.57 289.2565957469404,228.58" stroke="none" /><polygon fill="#e6bc2d" points="305.3745297673433,218.57 300.72438738381635,228.58 289.2565957469404,228.58" stroke="none" /><polygon fill="#e3b827" points="305.3745297673433,218.57 319.30067918890165,218.57 300.72438738381635,228.58" stroke="none" /><polygon fill="#e2b627" points="319.30067918890165,218.57 315.33895818438,228.58 300.72438738381635,228.58" stroke="none" /><polygon fill="#f4cf40" points="259.0,228.58 235.07814379915462,228.58 253.0,240.02" stroke="none" /><polygon fill="#f0ca3a" points="235.07814379915462,228.58 237.98823261475752,240.02 253.0,240.02" stroke="none" /><polygon fill="#edc636" points="235.07814379915462,228.58 224.74340425305962,228.58 237.98823261475752,240.02" stroke="none" /><polygon fill="#eac233" points="224.74340425305962,228.58 222.34295429260416,240.02 237.98823261475752,240.02" stroke="none" /><polygon fill="#e7be2f" points="224.74340425305962,228.58 211.27561261618365,228.58 222.34295429260416,240.02" stroke="none" /><polygon fill="#e5ba2c" points="211.27561261618365,228.58 214.42673163488143,240.02 222.34295429260416,240.02" stroke="none" /><polygon fill="#e2b729" points="211.27561261618365,228.58 197.66104181562005,228.58 214.42673163488143,240.02" stroke="none" /><polygon fill="#e0b326" points="197.66104181562005,228.58 202.41888671138648,240.02 214.42673163488143,240.02" stroke="none" /><polygon fill="#e7bd2f" points="197.66104181562005,228.58 257,228.58 202.41888671138648,240.02" stroke="none" /><polygon fill="#efc838" points="257,228.58 256,240.02 202.41888671138648,240.02" stroke="none" /><polygon fill="#f8d444" points="257,228.58 255.0,228.58 256,240.02" stroke="none" /><polygon fill="#f6d241" points="255.0,228.58 259.0,240.02 256,240.02" stroke="none" /><polygon fill="#f4cf3f" points="255.0,228.58 277.92185620084535,228.58 259.0,240.02" stroke="none" /><polygon fill="#f0ca3a" points="277.92185620084535,228.58 275.0117673852425,240.02 259.0,240.02" stroke="none" /><polygon fill="#ecc536" points="277.92185620084535,228.58 289.2565957469404,228.58 275.0117673852425,240.02" stroke="none" /><polygon fill="#eac132" points="289.2565957469404,228.58 290.65704570739587,240.02 275.0117673852425,240.02" stroke="none" /><polygon fill="#e7bd2f" points="289.2565957469404,228.58 300.72438738381635,228.58 290.65704570739587,240.02" stroke="none" /><polygon fill="#e5ba2c" points="300.72438738381635,228.58 296.57326836511857,240.02 290.65704570739587,240.02" stroke="none" /><polygon fill="#e2b729" points="300.72438738381635,228.58 315.33895818438,228.58 296.57326836511857,240.02" stroke="none" /><polygon fill="#e0b326" points="315.33895818438,228.58 309.58111328861355,240.02 296.57326836511857,240.02" stroke="none" /><polygon fill="#f3cc3a" points="253.0,240.02 237.98823261475752,240.02 254.0,252.175" stroke="none" /><polygon fill="#efc835" points="237.98823261475752,240.02 237.8243684452869,252.175 254.0,252.175" stroke="none" /><polygon fill="#ebc232" points="237.98823261475752,240.02 222.34295429260416,240.02 237.8243684452869,252.175" stroke="none" /><polygon fill="#e9bf2f" points="222.34295429260416,240.02 230.57010211595878,252.175 237.8243684452869,252.175" stroke="none" /><polygon fill="#e6bb2d" points="222.34295429260416,240.02 214.42673163488143,240.02 230.57010211595878,252.175" stroke="none" /><polygon fill="#e4b92b" points="214.42673163488143,240.02 219.76668905249628,252.175 230.57010211595878,252.175" stroke="none" /><polygon fill="#e1b528" points="214.42673163488143,240.02 202.41888671138648,240.02 219.76668905249628,252.175" stroke="none" /><polygon fill="#dfb226" points="202.41888671138648,240.02 208.98293468268753,252.175 219.76668905249628,252.175" stroke="none" /><polygon fill="#e6bb2d" points="202.41888671138648,240.02 256,240.02 208.98293468268753,252.175" stroke="none" /><polygon fill="#eec634" points="256,240.02 256,252.175 208.98293468268753,252.175" stroke="none" /><polygon fill="#f6d03d" points="256,240.02 259.0,240.02 256,252.175" stroke="none" /><polygon fill="#f5d03a" points="259.0,240.02 254.0,252.175 256,252.175" stroke="none" /><polygon fill="#f3cc3a" points="259.0,240.02 275.0117673852425,240.02 254.0,252.175" stroke="none" /><polygon fill="#f0ca36" points="275.0117673852425,240.02 270.1756315547131,252.175 254.0,252.175" stroke="none" /><polygon fill="#ebc233" points="275.0117673852425,240.02 290.65704570739587,240.02 270.1756315547131,252.175" stroke="none" /><polygon fill="#e9c02f" points="290.65704570739587,240.02 282.4298978840412,252.175 270.1756315547131,252.175" stroke="none" /><polygon fill="#e5bb2d" points="290.65704570739587,240.02 296.57326836511857,240.02 282.4298978840412,252.175" stroke="none" /><polygon fill="#e3b82a" points="296.57326836511857,240.02 297.23331094750375,252.175 282.4298978840412,252.175" stroke="none" /><polygon fill="#e0b428" points="296.57326836511857,240.02 309.58111328861355,240.02 297.23331094750375,252.175" stroke="none" /><polygon fill="#ddb025" points="309.58111328861355,240.02 305.0170653173125,252.175 297.23331094750375,252.175" stroke="none" /><polygon fill="#f2ca34" points="254.0,252.175 237.8243684452869,252.175 256.0,264.33" stroke="none" /><polygon fill="#efc631" points="237.8243684452869,252.175 244.025219469079,264.33 256.0,264.33" stroke="none" /><polygon fill="#ebc22f" points="237.8243684452869,252.175 230.57010211595878,252.175 244.025219469079,264.33" stroke="none" /><polygon fill="#e8be2c" points="230.57010211595878,252.175 227.6806887638358,264.33 244.025219469079,264.33" stroke="none" /><polygon fill="#e5ba2b" points="230.57010211595878,252.175 219.76668905249628,252.175 227.6806887638358,264.33" stroke="none" /><polygon fill="#e2b528" points="219.76668905249628,252.175 218.60506419964128,264.33 227.6806887638358,264.33" stroke="none" /><polygon fill="#dfb327" points="219.76668905249628,252.175 208.98293468268753,252.175 218.60506419964128,264.33" stroke="none" /><polygon fill="#dcaf24" points="208.98293468268753,252.175 210.62187717902725,264.33 218.60506419964128,264.33" stroke="none" /><polygon fill="#e4b92a" points="208.98293468268753,252.175 256,252.175 210.62187717902725,264.33" stroke="none" /><polygon fill="#ecc32f" points="256,252.175 256,264.33 210.62187717902725,264.33" stroke="none" /><polygon fill="#f5ce36" points="256,252.175 254.0,252.175 256,264.33" stroke="none" /><polygon fill="#f4cd34" points="254.0,252.175 254.0,264.33 256,264.33" stroke="none" /><polygon fill="#f4cc35" points="254.0,252.175 270.1756315547131,252.175 254.0,264.33" stroke="none" /><polygon fill="#f0c832" points="270.1756315547131,252.175 267.974780530921,264.33 254.0,264.33" stroke="none" /><polygon fill="#ecc230" points="270.1756315547131,252.175 282.4298978840412,252.175 267.974780530921,264.33" stroke="none" /><polygon fill="#e9bf2d" points="282.4298978840412,252.175 280.3193112361642,264.33 267.974780530921,264.33" stroke="none" /><polygon fill="#e4b92b" points="282.4298978840412,252.175 297.23331094750375,252.175 280.3193112361642,264.33" stroke="none" /><polygon fill="#e1b528" points="297.23331094750375,252.175 294.3949358003587,264.33 280.3193112361642,264.33" stroke="none" /><polygon fill="#deb126" points="297.23331094750375,252.175 305.0170653173125,252.175 294.3949358003587,264.33" stroke="none" /><polygon fill="#dcae24" points="305.0170653173125,252.175 302.37812282097275,264.33 294.3949358003587,264.33" stroke="none" /><polygon fill="#f2ca2e" points="256.0,264.33 244.025219469079,264.33 257.0,277.2" stroke="none" /><polygon fill="#f1c82e" points="244.025219469079,264.33 247.86686366131306,277.2 257.0,277.2" stroke="none" /><polygon fill="#ebc02b" points="244.025219469079,264.33 227.6806887638358,264.33 247.86686366131306,277.2" stroke="none" /><polygon fill="#e9bf2a" points="227.6806887638358,264.33 236.4326694653381,277.2 247.86686366131306,277.2" stroke="none" /><polygon fill="#e3b727" points="227.6806887638358,264.33 218.60506419964128,264.33 236.4326694653381,277.2" stroke="none" /><polygon fill="#e4b827" points="218.60506419964128,264.33 231.68531410855812,277.2 236.4326694653381,277.2" stroke="none" /><polygon fill="#dfb225" points="218.60506419964128,264.33 210.62187717902725,264.33 231.68531410855812,277.2" stroke="none" /><polygon fill="#e0b325" points="210.62187717902725,264.33 223.26322321610016,277.2 231.68531410855812,277.2" stroke="none" /><polygon fill="#e5b928" points="210.62187717902725,264.33 256,264.33 223.26322321610016,277.2" stroke="none" /><polygon fill="#eec42c" points="256,264.33 255,277.2 223.26322321610016,277.2" stroke="none" /><polygon fill="#f4cc2f" points="256,264.33 254.0,264.33 255,277.2" stroke="none" /><polygon fill="#f4cc2f" points="254.0,264.33 257.0,277.2 255,277.2" stroke="none" /><polygon fill="#f2ca2e" points="254.0,264.33 267.974780530921,264.33 257.0,277.2" stroke="none" /><polygon fill="#efc62d" points="267.974780530921,264.33 268.13313633868694,277.2 257.0,277.2" stroke="none" /><polygon fill="#ebc02b" points="267.974780530921,264.33 280.3193112361642,264.33 268.13313633868694,277.2" stroke="none" /><polygon fill="#e9bf2a" points="280.3193112361642,264.33 275.5673305346619,277.2 268.13313633868694,277.2" stroke="none" /><polygon fill="#e4b827" points="280.3193112361642,264.33 294.3949358003587,264.33 275.5673305346619,277.2" stroke="none" /><polygon fill="#e3b827" points="294.3949358003587,264.33 282.31468589144185,277.2 275.5673305346619,277.2" stroke="none" /><polygon fill="#deb124" points="294.3949358003587,264.33 302.37812282097275,264.33 282.31468589144185,277.2" stroke="none" /><polygon fill="#dfb325" points="302.37812282097275,264.33 286.7367767838998,277.2 282.31468589144185,277.2" stroke="none" /><polygon fill="#f3cb2f" points="257.0,277.2 247.86686366131306,277.2 256.0,291.5" stroke="none" /><polygon fill="#f3ca2f" points="247.86686366131306,277.2 254.7229,291.5 256.0,291.5" stroke="none" /><polygon fill="#efc52d" points="247.86686366131306,277.2 236.4326694653381,277.2 254.7229,291.5" stroke="none" /><polygon fill="#f0c72d" points="236.4326694653381,277.2 252.7554,291.5 254.7229,291.5" stroke="none" /><polygon fill="#ebc12b" points="236.4326694653381,277.2 231.68531410855812,277.2 252.7554,291.5" stroke="none" /><polygon fill="#eec52d" points="231.68531410855812,277.2 253.9814,291.5 252.7554,291.5" stroke="none" /><polygon fill="#e8be2a" points="231.68531410855812,277.2 223.26322321610016,277.2 253.9814,291.5" stroke="none" /><polygon fill="#ecc32c" points="223.26322321610016,277.2 251.13,291.5 253.9814,291.5" stroke="none" /><polygon fill="#edc32c" points="223.26322321610016,277.2 255,277.2 251.13,291.5" stroke="none" /><polygon fill="#f4cb2f" points="255,277.2 257,291.5 251.13,291.5" stroke="none" /><polygon fill="#f4cc2f" points="255,277.2 257.0,277.2 257,291.5" stroke="none" /><polygon fill="#f4cc2f" points="257.0,277.2 257.0,291.5 257,291.5" stroke="none" /><polygon fill="#f2c92e" points="257.0,277.2 268.13313633868694,277.2 257.0,291.5" stroke="none" /><polygon fill="#f2c92e" points="268.13313633868694,277.2 257.2771,291.5 257.0,291.5" stroke="none" /><polygon fill="#eec42c" points="268.13313633868694,277.2 275.5673305346619,277.2 257.2771,291.5" stroke="none" /><polygon fill="#f0c72d" points="275.5673305346619,277.2 258.2446,291.5 257.2771,291.5" stroke="none" /><polygon fill="#ebc12b" points="275.5673305346619,277.2 282.31468589144185,277.2 258.2446,291.5" stroke="none" /><polygon fill="#eec52c" points="282.31468589144185,277.2 259.0186,291.5 258.2446,291.5" stroke="none" /><polygon fill="#e8be2a" points="282.31468589144185,277.2 286.7367767838998,277.2 259.0186,291.5" stroke="none" /><polygon fill="#edc32c" points="286.7367767838998,277.2 258.87,291.5 259.0186,291.5" stroke="none" /><path d="M 240 211 A 9 17 0 0 0 240 227 Z" fill="#f5cd30" stroke="#d4a520" stroke-width="1" /><path d="M 272 211 A 9 17 0 0 1 272 227 Z" fill="#f5cd30" stroke="#d4a520" stroke-width="1" /><path d="M 217 215 Q 236 201 255 215 Q 236 229 217 215" fill="#e8e0d8" stroke="#3a2a1a" stroke-width="1.5" /><path d="M 231 217 A 5 5 0 0 0 241 217 Z" fill="#3a2a1a" stroke="none" /><circle cx="238" cy="214" fill="white" r="2" stroke="none" /><path d="M 215 215 Q 236 211 257 215" fill="none" stroke="#3a2a1a" stroke-width="3" /><line stroke="#3a2a1a" stroke-width="2" x1="227" x2="227" y1="214" y2="211" /><line stroke="#3a2a1a" stroke-width="2" x1="236" x2="236" y1="214" y2="211" /><line stroke="#3a2a1a" stroke-width="2" x1="245" x2="245" y1="214" y2="211" /><path d="M 257 215 Q 276 201 295 215 Q 276 229 257 215" fill="#e8e0d8" stroke="#3a2a1a" stroke-width="1.5" /><path d="M 271 217 A 5 5 0 0 0 281 217 Z" fill="#3a2a1a" stroke="none" /><circle cx="278" cy="214" fill="white" r="2" stroke="none" /><path d="M 255 215 Q 276 211 297 215" fill="none" stroke="#3a2a1a" stroke-width="3" /><line stroke="#3a2a1a" stroke-width="2" x1="267" x2="267" y1="214" y2="211" /><line stroke="#3a2a1a" stroke-width="2" x1="276" x2="276" y1="214" y2="211" /><line stroke="#3a2a1a" stroke-width="2" x1="285" x2="285" y1="214" y2="211" /><path d="M 224 210 Q 236 202 248 210" fill="none" stroke="#3a2a1a" stroke-width="3" /><path d="M 264 210 Q 276 202 288 210" fill="none" stroke="#3a2a1a" stroke-width="3" /><path d="M 220 225 A 7 4 0 0 0 234 225 Z" fill="#e88060" fill-opacity="0.25" stroke="none" /><path d="M 278 225 A 7 4 0 0 0 292 225 Z" fill="#e88060" fill-opacity="0.25" stroke="none" /><polygon fill="#d4a520" points="256,219 258,227 256,228 254,227" stroke="none" /><path d="M 239 235 Q 256 228 273 235 Q 256 242 239 235" fill="#c06050" stroke="#3a2a1a" stroke-width="1.5" /><line stroke="#3a2a1a" stroke-width="1.5" x1="241" x2="271" y1="235" y2="235" /><ellipse cx="256" cy="188" fill="white" fill-opacity="0.10" rx="4" ry="3" stroke="none" /><ellipse cx="240" cy="213" fill="white" fill-opacity="0.10" rx="4" ry="3" stroke="none" /><ellipse cx="272" cy="213" fill="white" fill-opacity="0.10" rx="4" ry="3" stroke="none" /><polygon fill="#b8911a" points="246,287.5 266,287.5 266,322.5 246,322.5" stroke="none" /></svg>