<?xml version="1.0" encoding="utf-8" ?>
<svg baseProfile="full" height="512" version="1.1" width="512" xmlns="http://www.w3.org/2000/svg" xmlns:ev="http://www.w3.org/2001/xml-events" xmlns:xlink="http://www.w3.org/1999/xlink"><defs /><polygon fill="#fde36d" points="257.0,132.0 255.6338,132.0 255.0,151.36" stroke="none" /><polygon fill="#fde26a" points="255.6338,132.0 243.5629945442546,151.36 255.0,151.36" stroke="none" /><polygon fill="#fde26a" points="255.6338,132.0 252.5988,132.0 243.5629945442546,151.36" stroke="none" /><polygon fill="#fce065" points="252.5988,132.0 237.14102071414442,151.36 243.5629945442546,151.36" stroke="none" /><polygon fill="#fce167" points="252.5988,132.0 252.7708,132.0 237.14102071414442,151.36" stroke="none" /><polygon fill="#fbde60" points="252.7708,132.0 223.60344165005628,151.36 237.14102071414442,151.36" stroke="none" /><polygon fill="#fcdf64" points="252.7708,132.0 251.86,132.0 223.60344165005628,151.36" stroke="none" /><polygon fill="#fadc5c" points="251.86,132.0 221.31210467955935,151.36 223.60344165005628,151.36" stroke="none" /><polygon fill="#fcdf64" points="251.86,132.0 256,132.0 221.31210467955935,151.36" stroke="none" /><polygon fill="#fce066" points="256,132.0 259,151.36 221.31210467955935,151.36" stroke="none" /><polygon fill="#fde36d" points="256,132.0 257.0,132.0 259,151.36" stroke="none" /><polygon fill="#fde36d" points="257.0,132.0 253.0,151.36 259,151.36" stroke="none" /><polygon fill="#fde36d" points="257.0,132.0 256.3662,132.0 253.0,151.36" stroke="none" /><polygon fill="#fde26a" points="256.3662,132.0 271.4370054557454,151.36 253.0,151.36" stroke="none" /><polygon fill="#fde269" points="256.3662,132.0 257.4012,132.0 271.4370054557454,151.36" stroke="none" /><polygon fill="#fcdf64" points="257.4012,132.0 277.8589792858556,151.36 271.4370054557454,151.36" stroke="none" /><polygon fill="#fce167" points="257.4012,132.0 260.2292,132.0 277.8589792858556,151.36" stroke="none" /><polygon fill="#fbde60" points="260.2292,132.0 283.3965583499437,151.36 277.8589792858556,151.36" stroke="none" /><polygon fill="#fce065" points="260.2292,132.0 261.14,132.0 283.3965583499437,151.36" stroke="none" /><polygon fill="#fadc5d" points="261.14,132.0 290.68789532044065,151.36 283.3965583499437,151.36" stroke="none" /><polygon fill="#fde26a" points="255.0,151.36 243.5629945442546,151.36 256.0,171.6" stroke="none" /><polygon fill="#fbdf63" points="243.5629945442546,151.36 235.3508254323803,171.6 256.0,171.6" stroke="none" /><polygon fill="#fbde61" points="243.5629945442546,151.36 237.14102071414442,151.36 235.3508254323803,171.6" stroke="none" /><polygon fill="#f9db5a" points="237.14102071414442,151.36 226.22266288115327,171.6 235.3508254323803,171.6" stroke="none" /><polygon fill="#fadb5a" points="237.14102071414442,151.36 223.60344165005628,151.36 226.22266288115327,171.6" stroke="none" /><polygon fill="#f7d752" points="223.60344165005628,151.36 210.92013284017165,171.6 226.22266288115327,171.6" stroke="none" /><polygon fill="#f8d852" points="223.60344165005628,151.36 221.31210467955935,151.36 210.92013284017165,171.6" stroke="none" /><polygon fill="#f5d44b" points="221.31210467955935,151.36 201.48734979509186,171.6 210.92013284017165,171.6" stroke="none" /><polygon fill="#fadb59" points="221.31210467955935,151.36 259,151.36 201.48734979509186,171.6" stroke="none" /><polygon fill="#fadd5f" points="259,151.36 259,171.6 201.48734979509186,171.6" stroke="none" /><polygon fill="#fde36d" points="259,151.36 253.0,151.36 259,171.6" stroke="none" /><polygon fill="#fde36b" points="253.0,151.36 256.0,171.6 259,171.6" stroke="none" /><polygon fill="#fde26a" points="253.0,151.36 271.4370054557454,151.36 256.0,171.6" stroke="none" /><polygon fill="#fbdf63" points="271.4370054557454,151.36 272.6491745676197,171.6 256.0,171.6" stroke="none" /><polygon fill="#fbde60" points="271.4370054557454,151.36 277.8589792858556,151.36 272.6491745676197,171.6" stroke="none" /><polygon fill="#f9db5a" points="277.8589792858556,151.36 288.77733711884673,171.6 272.6491745676197,171.6" stroke="none" /><polygon fill="#fadb5a" points="277.8589792858556,151.36 283.3965583499437,151.36 288.77733711884673,171.6" stroke="none" /><polygon fill="#f7d753" points="283.3965583499437,151.36 299.0798671598284,171.6 288.77733711884673,171.6" stroke="none" /><polygon fill="#f9d954" points="283.3965583499437,151.36 290.68789532044065,151.36 299.0798671598284,171.6" stroke="none" /><polygon fill="#f5d34b" points="290.68789532044065,151.36 314.51265020490814,171.6 299.0798671598284,171.6" stroke="none" /><polygon fill="#fade63" points="256.0,171.6 235.3508254323803,171.6 259.0,189.2" stroke="none" /><polygon fill="#f9db5c" points="235.3508254323803,171.6 236.2848462806795,189.2 259.0,189.2" stroke="none" /><polygon fill="#f7d857" points="235.3508254323803,171.6 226.22266288115327,171.6 236.2848462806795,189.2" stroke="none" /><polygon fill="#f5d552" points="226.22266288115327,171.6 221.34912376604274,189.2 236.2848462806795,189.2" stroke="none" /><polygon fill="#f5d34e" points="226.22266288115327,171.6 210.92013284017165,171.6 221.34912376604274,189.2" stroke="none" /><polygon fill="#f2cf49" points="210.92013284017165,171.6 206.4005457543333,189.2 221.34912376604274,189.2" stroke="none" /><polygon fill="#f2ce46" points="210.92013284017165,171.6 201.48734979509186,171.6 206.4005457543333,189.2" stroke="none" /><polygon fill="#efca41" points="201.48734979509186,171.6 194.25710994145297,189.2 206.4005457543333,189.2" stroke="none" /><polygon fill="#f4d34e" points="201.48734979509186,171.6 259,171.6 194.25710994145297,189.2" stroke="none" /><polygon fill="#f7d859" points="259,171.6 259,189.2 194.25710994145297,189.2" stroke="none" /><polygon fill="#fbe065" points="259,171.6 256.0,171.6 259,189.2" stroke="none" /><polygon fill="#fbdf64" points="256.0,171.6 254.0,189.2 259,189.2" stroke="none" /><polygon fill="#fbdf63" points="256.0,171.6 272.6491745676197,171.6 254.0,189.2" stroke="none" /><polygon fill="#f9db5e" points="272.6491745676197,171.6 272.71515371932054,189.2 254.0,189.2" stroke="none" /><polygon fill="#f7d858" points="272.6491745676197,171.6 288.77733711884673,171.6 272.71515371932054,189.2" stroke="none" /><polygon fill="#f5d553" points="288.77733711884673,171.6 289.65087623395726,189.2 272.71515371932054,189.2" stroke="none" /><polygon fill="#f5d34e" points="288.77733711884673,171.6 299.0798671598284,171.6 289.65087623395726,189.2" stroke="none" /><polygon fill="#f2d04a" points="299.0798671598284,171.6 300.59945424566666,189.2 289.65087623395726,189.2" stroke="none" /><polygon fill="#f2cf46" points="299.0798671598284,171.6 314.51265020490814,171.6 300.59945424566666,189.2" stroke="none" /><polygon fill="#efcb42" points="314.51265020490814,171.6 315.742890058547,189.2 300.59945424566666,189.2" stroke="none" /><polygon fill="#f9db5d" points="259.0,189.2 236.2848462806795,189.2 255.0,204.16" stroke="none" /><polygon fill="#f7d858" points="236.2848462806795,189.2 237.81469347425863,204.16 255.0,204.16" stroke="none" /><polygon fill="#f4d452" points="236.2848462806795,189.2 221.34912376604274,189.2 237.81469347425863,204.16" stroke="none" /><polygon fill="#f3d24f" points="221.34912376604274,189.2 223.52279459112123,204.16 237.81469347425863,204.16" stroke="none" /><polygon fill="#f0ce49" points="221.34912376604274,189.2 206.4005457543333,189.2 223.52279459112123,204.16" stroke="none" /><polygon fill="#efcc46" points="206.4005457543333,189.2 209.2892754846113,204.16 223.52279459112123,204.16" stroke="none" /><polygon fill="#edc841" points="206.4005457543333,189.2 194.25710994145297,189.2 209.2892754846113,204.16" stroke="none" /><polygon fill="#ebc63e" points="194.25710994145297,189.2 195.83240446745037,204.16 209.2892754846113,204.16" stroke="none" /><polygon fill="#f0ce49" points="194.25710994145297,189.2 259,189.2 195.83240446745037,204.16" stroke="none" /><polygon fill="#f5d554" points="259,189.2 253,204.16 195.83240446745037,204.16" stroke="none" /><polygon fill="#fadd60" points="259,189.2 254.0,189.2 253,204.16" stroke="none" /><polygon fill="#fadd5f" points="254.0,189.2 258.0,204.16 253,204.16" stroke="none" /><polygon fill="#f9db5d" points="254.0,189.2 272.71515371932054,189.2 258.0,204.16" stroke="none" /><polygon fill="#f7d958" points="272.71515371932054,189.2 273.1853065257414,204.16 258.0,204.16" stroke="none" /><polygon fill="#f5d453" points="272.71515371932054,189.2 289.65087623395726,189.2 273.1853065257414,204.16" stroke="none" /><polygon fill="#f2d14e" points="289.65087623395726,189.2 294.4772054088788,204.16 273.1853065257414,204.16" stroke="none" /><polygon fill="#f0ce49" points="289.65087623395726,189.2 300.59945424566666,189.2 294.4772054088788,204.16" stroke="none" /><polygon fill="#eecb45" points="300.59945424566666,189.2 305.71072451538873,204.16 294.4772054088788,204.16" stroke="none" /><polygon fill="#edc942" points="300.59945424566666,189.2 315.742890058547,189.2 305.71072451538873,204.16" stroke="none" /><polygon fill="#ebc63e" points="315.742890058547,189.2 318.1675955325496,204.16 305.71072451538873,204.16" stroke="none" /><polygon fill="#f8d959" points="255.0,204.16 237.81469347425863,204.16 259.0,218.24" stroke="none" /><polygon fill="#f6d554" points="237.81469347425863,204.16 236.35504279578436,218.24 259.0,218.24" stroke="none" /><polygon fill="#f2d14f" points="237.81469347425863,204.16 223.52279459112123,204.16 236.35504279578436,218.24" stroke="none" /><polygon fill="#f0cd4a" points="223.52279459112123,204.16 218.1997721865301,218.24 236.35504279578436,218.24" stroke="none" /><polygon fill="#edcb46" points="223.52279459112123,204.16 209.2892754846113,204.16 218.1997721865301,218.24" stroke="none" /><polygon fill="#eac541" points="209.2892754846113,204.16 200.4755556991267,218.24 218.1997721865301,218.24" stroke="none" /><polygon fill="#e9c43e" points="209.2892754846113,204.16 195.83240446745037,204.16 200.4755556991267,218.24" stroke="none" /><polygon fill="#e7c13c" points="195.83240446745037,204.16 190.37891756298293,218.24 200.4755556991267,218.24" stroke="none" /><polygon fill="#ecc944" points="195.83240446745037,204.16 253,204.16 190.37891756298293,218.24" stroke="none" /><polygon fill="#f2d04e" points="253,204.16 253,218.24 190.37891756298293,218.24" stroke="none" /><polygon fill="#f9db5b" points="253,204.16 258.0,204.16 253,218.24" stroke="none" /><polygon fill="#f9da5a" points="258.0,204.16 259.0,218.24 253,218.24" stroke="none" /><polygon fill="#f7d858" points="258.0,204.16 273.1853065257414,204.16 259.0,218.24" stroke="none" /><polygon fill="#f5d453" points="273.1853065257414,204.16 275.64495720421564,218.24 259.0,218.24" stroke="none" /><polygon fill="#f2d14e" points="273.1853065257414,204.16 294.4772054088788,204.16 275.64495720421564,218.24" stroke="none" /><polygon fill="#efcc49" points="294.4772054088788,204.16 295.8002278134699,218.24 275.64495720421564,218.24" stroke="none" /><polygon fill="#ecc944" points="294.4772054088788,204.16 305.71072451538873,204.16 295.8002278134699,218.24" stroke="none" /><polygon fill="#eac541" points="305.71072451538873,204.16 308.5244443008733,218.24 295.8002278134699,218.24" stroke="none" /><polygon fill="#e8c43e" points="305.71072451538873,204.16 318.1675955325496,204.16 308.5244443008733,218.24" stroke="none" /><polygon fill="#e7c13c" points="318.1675955325496,204.16 322.6210824370171,218.24 308.5244443008733,218.24" stroke="none" /><polygon fill="#f7d755" points="259.0,218.24 236.35504279578436,218.24 258.0,230.56" stroke="none" /><polygon fill="#f4d34f" points="236.35504279578436,218.24 234.9212509871371,230.56 258.0,230.56" stroke="none" /><polygon fill="#efcd4a" points="236.35504279578436,218.24 218.1997721865301,218.24 234.9212509871371,230.56" stroke="none" /><polygon fill="#edcb47" points="218.1997721865301,218.24 222.71007749254406,230.56 234.9212509871371,230.56" stroke="none" /><polygon fill="#eac642" points="218.1997721865301,218.24 200.4755556991267,218.24 222.71007749254406,230.56" stroke="none" /><polygon fill="#e8c340" points="200.4755556991267,218.24 205.54113869686958,230.56 222.71007749254406,230.56" stroke="none" /><polygon fill="#e5bf3b" points="200.4755556991267,218.24 190.37891756298293,218.24 205.54113869686958,230.56" stroke="none" /><polygon fill="#e4be3b" points="190.37891756298293,218.24 192.15530602162767,230.56 205.54113869686958,230.56" stroke="none" /><polygon fill="#e9c541" points="190.37891756298293,218.24 253,218.24 192.15530602162767,230.56" stroke="none" /><polygon fill="#f0cf4b" points="253,218.24 257,230.56 192.15530602162767,230.56" stroke="none" /><polygon fill="#f8d957" points="253,218.24 259.0,218.24 257,230.56" stroke="none" /><polygon fill="#f8d955" points="259.0,218.24 254.0,230.56 257,230.56" stroke="none" /><polygon fill="#f6d654" points="259.0,218.24 275.64495720421564,218.24 254.0,230.56" stroke="none" /><polygon fill="#f4d450" points="275.64495720421564,218.24 275.0787490128629,230.56 254.0,230.56" stroke="none" /><polygon fill="#efcd4a" points="275.64495720421564,218.24 295.8002278134699,218.24 275.0787490128629,230.56" stroke="none" /><polygon fill="#edcb47" points="295.8002278134699,218.24 289.28992250745597,230.56 275.0787490128629,230.56" stroke="none" /><polygon fill="#eac642" points="295.8002278134699,218.24 308.5244443008733,218.24 289.28992250745597,230.56" stroke="none" /><polygon fill="#e8c440" points="308.5244443008733,218.24 304.45886130313045,230.56 289.28992250745597,230.56" stroke="none" /><polygon fill="#e5bf3b" points="308.5244443008733,218.24 322.6210824370171,218.24 304.45886130313045,230.56" stroke="none" /><polygon fill="#e4be3b" points="322.6210824370171,218.24 313.84469397837233,230.56 304.45886130313045,230.56" stroke="none" /><polygon fill="#f6d450" points="258.0,230.56 234.9212509871371,230.56 257.0,244.64" stroke="none" /><polygon fill="#f2d14c" points="234.9212509871371,230.56 235.97224214878835,244.64 257.0,244.64" stroke="none" /><polygon fill="#efcb48" points="234.9212509871371,230.56 222.71007749254406,230.56 235.97224214878835,244.64" stroke="none" /><polygon fill="#ebc844" points="222.71007749254406,230.56 219.55727407968863,244.64 235.97224214878835,244.64" stroke="none" /><polygon fill="#e8c341" points="222.71007749254406,230.56 205.54113869686958,230.56 219.55727407968863,244.64" stroke="none" /><polygon fill="#e6c13f" points="205.54113869686958,230.56 214.02529962440883,244.64 219.55727407968863,244.64" stroke="none" /><polygon fill="#e4bd3c" points="205.54113869686958,230.56 192.15530602162767,230.56 214.02529962440883,244.64" stroke="none" /><polygon fill="#e1bb3a" points="192.15530602162767,230.56 197.34012772360106,244.64 214.02529962440883,244.64" stroke="none" /><polygon fill="#e8c341" points="192.15530602162767,230.56 257,230.56 197.34012772360106,244.64" stroke="none" /><polygon fill="#efcd49" points="257,230.56 254,244.64 197.34012772360106,244.64" stroke="none" /><polygon fill="#f8d752" points="257,230.56 254.0,230.56 254,244.64" stroke="none" /><polygon fill="#f7d751" points="254.0,230.56 258.0,244.64 254,244.64" stroke="none" /><polygon fill="#f6d450" points="254.0,230.56 275.0787490128629,230.56 258.0,244.64" stroke="none" /><polygon fill="#f2d14c" points="275.0787490128629,230.56 272.0277578512117,244.64 258.0,244.64" stroke="none" /><polygon fill="#efcc49" points="275.0787490128629,230.56 289.28992250745597,230.56 272.0277578512117,244.64" stroke="none" /><polygon fill="#ecc945" points="289.28992250745597,230.56 290.4427259203114,244.64 272.0277578512117,244.64" stroke="none" /><polygon fill="#e9c442" points="289.28992250745597,230.56 304.45886130313045,230.56 290.4427259203114,244.64" stroke="none" /><polygon fill="#e6c23f" points="304.45886130313045,230.56 298.97470037559117,244.64 290.4427259203114,244.64" stroke="none" /><polygon fill="#e5be3d" points="304.45886130313045,230.56 313.84469397837233,230.56 298.97470037559117,244.64" stroke="none" /><polygon fill="#e1bc3a" points="313.84469397837233,230.56 314.6598722763989,244.64 298.97470037559117,244.64" stroke="none" /><polygon fill="#f4d24b" points="257.0,244.64 235.97224214878835,244.64 254.0,259.6" stroke="none" /><polygon fill="#f0cd47" points="235.97224214878835,244.64 236.78117366416467,259.6 254.0,259.6" stroke="none" /><polygon fill="#ecc844" points="235.97224214878835,244.64 219.55727407968863,244.64 236.78117366416467,259.6" stroke="none" /><polygon fill="#e9c441" points="219.55727407968863,244.64 223.22145674307728,259.6 236.78117366416467,259.6" stroke="none" /><polygon fill="#e7c23f" points="219.55727407968863,244.64 214.02529962440883,244.64 223.22145674307728,259.6" stroke="none" /><polygon fill="#e4be3d" points="214.02529962440883,244.64 208.57368320620736,259.6 223.22145674307728,259.6" stroke="none" /><polygon fill="#e1bb3b" points="214.02529962440883,244.64 197.34012772360106,244.64 208.57368320620736,259.6" stroke="none" /><polygon fill="#deb637" points="197.34012772360106,244.64 196.76113231565046,259.6 208.57368320620736,259.6" stroke="none" /><polygon fill="#e5c03e" points="197.34012772360106,244.64 254,244.64 196.76113231565046,259.6" stroke="none" /><polygon fill="#eeca45" points="254,244.64 258,259.6 196.76113231565046,259.6" stroke="none" /><polygon fill="#f7d54d" points="254,244.64 258.0,244.64 258,259.6" stroke="none" /><polygon fill="#f6d44c" points="258.0,244.64 254.0,259.6 258,259.6" stroke="none" /><polygon fill="#f5d34b" points="258.0,244.64 272.0277578512117,244.64 254.0,259.6" stroke="none" /><polygon fill="#f2cf49" points="272.0277578512117,244.64 273.21882633583533,259.6 254.0,259.6" stroke="none" /><polygon fill="#edc945" points="272.0277578512117,244.64 290.4427259203114,244.64 273.21882633583533,259.6" stroke="none" /><polygon fill="#eac542" points="290.4427259203114,244.64 289.7785432569227,259.6 273.21882633583533,259.6" stroke="none" /><polygon fill="#e7c23f" points="290.4427259203114,244.64 298.97470037559117,244.64 289.7785432569227,259.6" stroke="none" /><polygon fill="#e4bd3d" points="298.97470037559117,244.64 303.42631679379264,259.6 289.7785432569227,259.6" stroke="none" /><polygon fill="#e1bb3a" points="298.97470037559117,244.64 314.6598722763989,244.64 303.42631679379264,259.6" stroke="none" /><polygon fill="#ddb637" points="314.6598722763989,244.64 316.23886768434954,259.6 303.42631679379264,259.6" stroke="none" /><polygon fill="#f3cf46" points="254.0,259.6 236.78117366416467,259.6 256.0,274.56" stroke="none" /><polygon fill="#efcb44" points="236.78117366416467,259.6 239.35172759158175,274.56 256.0,274.56" stroke="none" /><polygon fill="#ebc641" points="236.78117366416467,259.6 223.22145674307728,259.6 239.35172759158175,274.56" stroke="none" /><polygon fill="#e9c43f" points="223.22145674307728,259.6 231.49697576702246,274.56 239.35172759158175,274.56" stroke="none" /><polygon fill="#e5bf3d" points="223.22145674307728,259.6 208.57368320620736,259.6 231.49697576702246,274.56" stroke="none" /><polygon fill="#e4bd3c" points="208.57368320620736,259.6 221.013174307375,274.56 231.49697576702246,274.56" stroke="none" /><polygon fill="#dfb839" points="208.57368320620736,259.6 196.76113231565046,259.6 221.013174307375,274.56" stroke="none" /><polygon fill="#deb738" points="196.76113231565046,259.6 211.58099270176285,274.56 221.013174307375,274.56" stroke="none" /><polygon fill="#e5bf3d" points="196.76113231565046,259.6 258,259.6 211.58099270176285,274.56" stroke="none" /><polygon fill="#eeca43" points="258,259.6 256,274.56 211.58099270176285,274.56" stroke="none" /><polygon fill="#f7d449" points="258,259.6 254.0,259.6 256,274.56" stroke="none" /><polygon fill="#f6d348" points="254.0,259.6 258.0,274.56 256,274.56" stroke="none" /><polygon fill="#f4d047" points="254.0,259.6 273.21882633583533,259.6 258.0,274.56" stroke="none" /><polygon fill="#f0cc44" points="273.21882633583533,259.6 270.6482724084183,274.56 258.0,274.56" stroke="none" /><polygon fill="#ebc741" points="273.21882633583533,259.6 289.7785432569227,259.6 270.6482724084183,274.56" stroke="none" /><polygon fill="#e9c43f" points="289.7785432569227,259.6 282.50302423297757,274.56 270.6482724084183,274.56" stroke="none" /><polygon fill="#e4be3d" points="289.7785432569227,259.6 303.42631679379264,259.6 282.50302423297757,274.56" stroke="none" /><polygon fill="#e3bc3b" points="303.42631679379264,259.6 294.98682569262496,274.56 282.50302423297757,274.56" stroke="none" /><polygon fill="#deb738" points="303.42631679379264,259.6 316.23886768434954,259.6 294.98682569262496,274.56" stroke="none" /><polygon fill="#ddb637" points="316.23886768434954,259.6 303.41900729823715,274.56 294.98682569262496,274.56" stroke="none" /><polygon fill="#f3ce42" points="256.0,274.56 239.35172759158175,274.56 257.0,290.4" stroke="none" /><polygon fill="#f1cc41" points="239.35172759158175,274.56 245.45739501191895,290.4 257.0,290.4" stroke="none" /><polygon fill="#ecc73f" points="239.35172759158175,274.56 231.49697576702246,274.56 245.45739501191895,290.4" stroke="none" /><polygon fill="#ecc73f" points="231.49697576702246,274.56 238.71299729367573,290.4 245.45739501191895,290.4" stroke="none" /><polygon fill="#e7c13c" points="231.49697576702246,274.56 221.013174307375,274.56 238.71299729367573,290.4" stroke="none" /><polygon fill="#e6c03c" points="221.013174307375,274.56 225.71747911908113,290.4 238.71299729367573,290.4" stroke="none" /><polygon fill="#e1bb39" points="221.013174307375,274.56 211.58099270176285,274.56 225.71747911908113,290.4" stroke="none" /><polygon fill="#e2bb3a" points="211.58099270176285,274.56 224.0224091270271,290.4 225.71747911908113,290.4" stroke="none" /><polygon fill="#e7c23c" points="211.58099270176285,274.56 256,274.56 224.0224091270271,290.4" stroke="none" /><polygon fill="#f0cb41" points="256,274.56 258,290.4 224.0224091270271,290.4" stroke="none" /><polygon fill="#f5d143" points="256,274.56 258.0,274.56 258,290.4" stroke="none" /><polygon fill="#f4d043" points="258.0,274.56 258.0,290.4 258,290.4" stroke="none" /><polygon fill="#f2ce42" points="258.0,274.56 270.6482724084183,274.56 258.0,290.4" stroke="none" /><polygon fill="#f0cb41" points="270.6482724084183,274.56 270.54260498808105,290.4 258.0,290.4" stroke="none" /><polygon fill="#ebc63e" points="270.6482724084183,274.56 282.50302423297757,274.56 270.54260498808105,290.4" stroke="none" /><polygon fill="#eac43e" points="282.50302423297757,274.56 277.2870027063243,290.4 270.54260498808105,290.4" stroke="none" /><polygon fill="#e5bf3b" points="282.50302423297757,274.56 294.98682569262496,274.56 277.2870027063243,290.4" stroke="none" /><polygon fill="#e5bf3b" points="294.98682569262496,274.56 283.28252088091887,290.4 277.2870027063243,290.4" stroke="none" /><polygon fill="#e0ba39" points="294.98682569262496,274.56 303.41900729823715,274.56 283.28252088091887,290.4" stroke="none" /><polygon fill="#e1ba39" points="303.41900729823715,274.56 291.9775908729729,290.4 283.28252088091887,290.4" stroke="none" /><polygon fill="#f4d043" points="257.0,290.4 245.45739501191895,290.4 256.0,308.0" stroke="none" /><polygon fill="#f3cf42" points="245.45739501191895,290.4 254.6338,308.0 256.0,308.0" stroke="none" /><polygon fill="#f0cb41" points="245.45739501191895,290.4 238.71299729367573,290.4 254.6338,308.0" stroke="none" /><polygon fill="#f2cd42" points="238.71299729367573,290.4 254.5988,308.0 254.6338,308.0" stroke="none" /><polygon fill="#ecc73f" points="238.71299729367573,290.4 225.71747911908113,290.4 254.5988,308.0" stroke="none" /><polygon fill="#efca40" points="225.71747911908113,290.4 253.7708,308.0 254.5988,308.0" stroke="none" /><polygon fill="#eac43e" points="225.71747911908113,290.4 224.0224091270271,290.4 253.7708,308.0" stroke="none" /><polygon fill="#eec940" points="224.0224091270271,290.4 251.86,308.0 253.7708,308.0" stroke="none" /><polygon fill="#efca40" points="224.0224091270271,290.4 258,290.4 251.86,308.0" stroke="none" /><polygon fill="#f5d143" points="258,290.4 257,308.0 251.86,308.0" stroke="none" /><polygon fill="#f5d043" points="258,290.4 258.0,290.4 257,308.0" stroke="none" /><polygon fill="#f5d143" points="258.0,290.4 255.0,308.0 257,308.0" stroke="none" /><polygon fill="#f3ce42" points="258.0,290.4 270.54260498808105,290.4 255.0,308.0" stroke="none" /><polygon fill="#f3ce42" points="270.54260498808105,290.4 258.3662,308.0 255.0,308.0" stroke="none" /><polygon fill="#eeca40" points="270.54260498808105,290.4 277.2870027063243,290.4 258.3662,308.0" stroke="none" /><polygon fill="#f0cc41" points="277.2870027063243,290.4 259.4012,308.0 258.3662,308.0" stroke="none" /><polygon fill="#ecc73f" points="277.2870027063243,290.4 283.28252088091887,290.4 259.4012,308.0" stroke="none" /><polygon fill="#efcb40" points="283.28252088091887,290.4 258.2292,308.0 259.4012,308.0" stroke="none" /><polygon fill="#e9c43d" points="283.28252088091887,290.4 291.9775908729729,290.4 258.2292,308.0" stroke="none" /><polygon fill="#eec940" points="291.9775908729729,290.4 259.14,308.0 258.2292,308.0" stroke="none" /><path d="M 240 208 A 5 22 0 0 0 240 230 Z" fill="#f6d244" stroke="#d6ae34" stroke-width="1" /><path d="M 272 208 A 5 22 0 0 1 272 230 Z" fill="#f6d244" stroke="#d6ae34" stroke-width="1" /><path d="M 214 211 Q 234 200 254 215 Q 234 229 214 211" fill="#e8e0d8" stroke="#3a2a1a" stroke-width="1.5" /><path d="M 231 215 A 4 4 0 0 0 239 215 Z" fill="#3a2a1a" stroke="none" /><circle cx="236" cy="212" fill="white" r="2" stroke="none" /><path d="M 258 210 Q 278 199 298 214 Q 278 228 258 210" fill="#e8e0d8" stroke="#3a2a1a" stroke-width="1.5" /><path d="M 275 214 A 4 4 0 0 0 283 214 Z" fill="#3a2a1a" stroke="none" /><circle cx="280" cy="211" fill="white" r="2" stroke="none" /><line stroke="#3a2a1a" stroke-width="3" x1="223" x2="245" y1="205" y2="205" /><line stroke="#3a2a1a" stroke-width="3" x1="265" x2="291" y1="204" y2="204" /><path d="M 218 227 A 7 4 0 0 0 232 227 Z" fill="#e88060" fill-opacity="0.265563284095953" stroke="none" /><path d="M 277 226 A 9 6 0 0 0 295 226 Z" fill="#e88060" fill-opacity="0.22778347682491912" stroke="none" /><path d="M 256 221 Q 259 226 258 229 Q 256 230 254 229 Q 253 226 256 221" fill="#d6ae34" stroke="none" /><path d="M 237 239 Q 256 248 275 239" fill="none" stroke="#c06050" stroke-width="3" /><path d="M 235 237 Q 256 250 277 237" fill="none" stroke="#a04030" stroke-width="1.5" /><path d="M 235 239 Q 256 246 277 239" fill="none" stroke="#f0a0a0" stroke-width="1" /><path d="M 242 198 Q 245 195 248 198" fill="none" stroke="#d4c0a0" stroke-opacity="0.3" stroke-width="1" /><path d="M 255 182 Q 260 177 265 182" fill="none" stroke="#d4c0a0" stroke-opacity="0.3" stroke-width="1" /><path d="M 278 177 Q 283 172 288 177" fill="none" stroke="#d4c0a0" stroke-opacity="0.3" stroke-width="1" /><path d="M 252 249 Q 256 245 260 249" fill="none" stroke="#d4c0a0" stroke-opacity="0.3" stroke-width="1" /><path d="M 262 253 Q 266 249 270 253" fill="none" stroke="#d4c0a0" stroke-opacity="0.3" stroke-width="1" /><path d="M 218 253 Q 222 249 226 253" fill="none" stroke="#d4c0a0" stroke-opacity="0.3" stroke-width="1" /><path d="M 252 179 Q 260 171 268 179" fill="none" stroke="#d4c0a0" stroke-opacity="0.3" stroke-width="1" /><path d="M 230 177 Q 233 174 236 177" fill="none" stroke="#d4c0a0" stroke-opacity="0.3" stroke-width="1" /><polygon fill="#ba9a28" points="242,304.0 270,304.0 270,339.0 242,339.0" stroke="none" /></svg>