<?xml version="1.0" encoding="utf-8" ?>
<svg baseProfile="full" height="512" version="1.1" width="512" xmlns="http://www.w3.org/2000/svg" xmlns:ev="http://www.w3.org/2001/xml-events" xmlns:xlink="http://www.w3.org/1999/xlink"><defs /><polygon fill="#f8db53" points="255.0,146.5 237.586,146.5 253.0,162.67" stroke="none" /><polygon fill="#f8d84d" points="237.586,146.5 237.73668081605427,162.67 253.0,162.67" stroke="none" /><polygon fill="#f6d543" points="237.586,146.5 224.636,146.5 237.73668081605427,162.67" stroke="none" /><polygon fill="#f6d33f" points="224.636,146.5 225.90083294942875,162.67 237.73668081605427,162.67" stroke="none" /><polygon fill="#f5d036" points="224.636,146.5 213.476,146.5 225.90083294942875,162.67" stroke="none" /><polygon fill="#f4cf32" points="213.476,146.5 212.8321546561283,162.67 225.90083294942875,162.67" stroke="none" /><polygon fill="#f3cb28" points="213.476,146.5 199.2,146.5 212.8321546561283,162.67" stroke="none" /><polygon fill="#f3ca24" points="199.2,146.5 201.65660853349783,162.67 212.8321546561283,162.67" stroke="none" /><polygon fill="#f4cf33" points="199.2,146.5 255,146.5 201.65660853349783,162.67" stroke="none" /><polygon fill="#f7d647" points="255,146.5 255,162.67 201.65660853349783,162.67" stroke="none" /><polygon fill="#f9dd5b" points="255,146.5 257.0,146.5 255,162.67" stroke="none" /><polygon fill="#fade5c" points="257.0,146.5 256.0,162.67 255,162.67" stroke="none" /><polygon fill="#f9db54" points="257.0,146.5 275.414,146.5 256.0,162.67" stroke="none" /><polygon fill="#f8d94e" points="275.414,146.5 273.2633191839457,162.67 256.0,162.67" stroke="none" /><polygon fill="#f6d543" points="275.414,146.5 288.364,146.5 273.2633191839457,162.67" stroke="none" /><polygon fill="#f6d33e" points="288.364,146.5 288.0991670505713,162.67 273.2633191839457,162.67" stroke="none" /><polygon fill="#f5cf34" points="288.364,146.5 300.524,146.5 288.0991670505713,162.67" stroke="none" /><polygon fill="#f4ce31" points="300.524,146.5 298.1678453438717,162.67 288.0991670505713,162.67" stroke="none" /><polygon fill="#f3cb28" points="300.524,146.5 310.8,146.5 298.1678453438717,162.67" stroke="none" /><polygon fill="#f3ca25" points="310.8,146.5 309.34339146650217,162.67 298.1678453438717,162.67" stroke="none" /><polygon fill="#f9db55" points="253.0,162.67 237.73668081605427,162.67 259.0,179.575" stroke="none" /><polygon fill="#f7d74d" points="237.73668081605427,162.67 238.30159596476332,179.575 259.0,179.575" stroke="none" /><polygon fill="#f7d544" points="237.73668081605427,162.67 225.90083294942875,162.67 238.30159596476332,179.575" stroke="none" /><polygon fill="#f5d13e" points="225.90083294942875,162.67 227.6512898774628,179.575 238.30159596476332,179.575" stroke="none" /><polygon fill="#f5d037" points="225.90083294942875,162.67 212.8321546561283,162.67 227.6512898774628,179.575" stroke="none" /><polygon fill="#f3cc31" points="212.8321546561283,162.67 215.5310450076224,179.575 227.6512898774628,179.575" stroke="none" /><polygon fill="#f3cc2a" points="212.8321546561283,162.67 201.65660853349783,162.67 215.5310450076224,179.575" stroke="none" /><polygon fill="#f1c825" points="201.65660853349783,162.67 203.39877565079794,179.575 215.5310450076224,179.575" stroke="none" /><polygon fill="#f5d035" points="201.65660853349783,162.67 255,162.67 203.39877565079794,179.575" stroke="none" /><polygon fill="#f6d445" points="255,162.67 253,179.575 203.39877565079794,179.575" stroke="none" /><polygon fill="#f9dd5a" points="255,162.67 256.0,162.67 253,179.575" stroke="none" /><polygon fill="#f8db57" points="256.0,162.67 255.0,179.575 253,179.575" stroke="none" /><polygon fill="#f9db56" points="256.0,162.67 273.2633191839457,162.67 255.0,179.575" stroke="none" /><polygon fill="#f7d74e" points="273.2633191839457,162.67 270.69840403523665,179.575 255.0,179.575" stroke="none" /><polygon fill="#f7d544" points="273.2633191839457,162.67 288.0991670505713,162.67 270.69840403523665,179.575" stroke="none" /><polygon fill="#f5d23f" points="288.0991670505713,162.67 282.34871012253717,179.575 270.69840403523665,179.575" stroke="none" /><polygon fill="#f5d137" points="288.0991670505713,162.67 298.1678453438717,162.67 282.34871012253717,179.575" stroke="none" /><polygon fill="#f3cd33" points="298.1678453438717,162.67 296.4689549923776,179.575 282.34871012253717,179.575" stroke="none" /><polygon fill="#f3cc2a" points="298.1678453438717,162.67 309.34339146650217,162.67 296.4689549923776,179.575" stroke="none" /><polygon fill="#f1c827" points="309.34339146650217,162.67 303.6012243492021,179.575 296.4689549923776,179.575" stroke="none" /><polygon fill="#f6d74d" points="259.0,179.575 238.30159596476332,179.575 253.0,194.275" stroke="none" /><polygon fill="#f5d345" points="238.30159596476332,179.575 241.9907669289232,194.275 253.0,194.275" stroke="none" /><polygon fill="#f3d140" points="238.30159596476332,179.575 227.6512898774628,179.575 241.9907669289232,194.275" stroke="none" /><polygon fill="#f2ce3a" points="227.6512898774628,179.575 227.86256005689535,194.275 241.9907669289232,194.275" stroke="none" /><polygon fill="#f1cb34" points="227.6512898774628,179.575 215.5310450076224,179.575 227.86256005689535,194.275" stroke="none" /><polygon fill="#efc830" points="215.5310450076224,179.575 220.15999455927303,194.275 227.86256005689535,194.275" stroke="none" /><polygon fill="#eec62a" points="215.5310450076224,179.575 203.39877565079794,179.575 220.15999455927303,194.275" stroke="none" /><polygon fill="#ecc326" points="203.39877565079794,179.575 207.4871725118885,194.275 220.15999455927303,194.275" stroke="none" /><polygon fill="#f0ca32" points="203.39877565079794,179.575 253,179.575 207.4871725118885,194.275" stroke="none" /><polygon fill="#f3d03f" points="253,179.575 254,194.275 207.4871725118885,194.275" stroke="none" /><polygon fill="#f7d951" points="253,179.575 255.0,179.575 254,194.275" stroke="none" /><polygon fill="#f7d84f" points="255.0,179.575 257.0,194.275 254,194.275" stroke="none" /><polygon fill="#f6d74e" points="255.0,179.575 270.69840403523665,179.575 257.0,194.275" stroke="none" /><polygon fill="#f5d446" points="270.69840403523665,179.575 271.0092330710768,194.275 257.0,194.275" stroke="none" /><polygon fill="#f4d141" points="270.69840403523665,179.575 282.34871012253717,179.575 271.0092330710768,194.275" stroke="none" /><polygon fill="#f2ce3b" points="282.34871012253717,179.575 281.13743994310465,194.275 271.0092330710768,194.275" stroke="none" /><polygon fill="#f1cc35" points="282.34871012253717,179.575 296.4689549923776,179.575 281.13743994310465,194.275" stroke="none" /><polygon fill="#efc930" points="296.4689549923776,179.575 292.84000544072694,194.275 281.13743994310465,194.275" stroke="none" /><polygon fill="#efc72b" points="296.4689549923776,179.575 303.6012243492021,179.575 292.84000544072694,194.275" stroke="none" /><polygon fill="#edc428" points="303.6012243492021,179.575 302.5128274881115,194.275 292.84000544072694,194.275" stroke="none" /><polygon fill="#f5d546" points="253.0,194.275 241.9907669289232,194.275 257.0,206.77" stroke="none" /><polygon fill="#f3d140" points="241.9907669289232,194.275 237.82544100601905,206.77 257.0,206.77" stroke="none" /><polygon fill="#f1cd3a" points="241.9907669289232,194.275 227.86256005689535,194.275 237.82544100601905,206.77" stroke="none" /><polygon fill="#efc934" points="227.86256005689535,194.275 225.05683570754866,206.77 237.82544100601905,206.77" stroke="none" /><polygon fill="#edc730" points="227.86256005689535,194.275 220.15999455927303,194.275 225.05683570754866,206.77" stroke="none" /><polygon fill="#ebc42c" points="220.15999455927303,194.275 216.0419514687723,206.77 225.05683570754866,206.77" stroke="none" /><polygon fill="#eac228" points="220.15999455927303,194.275 207.4871725118885,194.275 216.0419514687723,206.77" stroke="none" /><polygon fill="#e8bd23" points="207.4871725118885,194.275 200.92557880611835,206.77 216.0419514687723,206.77" stroke="none" /><polygon fill="#ecc52d" points="207.4871725118885,194.275 254,194.275 200.92557880611835,206.77" stroke="none" /><polygon fill="#f1cd3a" points="254,194.275 259,206.77 200.92557880611835,206.77" stroke="none" /><polygon fill="#f6d74a" points="254,194.275 257.0,194.275 259,206.77" stroke="none" /><polygon fill="#f6d648" points="257.0,194.275 254.0,206.77 259,206.77" stroke="none" /><polygon fill="#f5d547" points="257.0,194.275 271.0092330710768,194.275 254.0,206.77" stroke="none" /><polygon fill="#f3d140" points="271.0092330710768,194.275 274.17455899398095,206.77 254.0,206.77" stroke="none" /><polygon fill="#f1cd3a" points="271.0092330710768,194.275 281.13743994310465,194.275 274.17455899398095,206.77" stroke="none" /><polygon fill="#efca35" points="281.13743994310465,194.275 285.94316429245134,206.77 274.17455899398095,206.77" stroke="none" /><polygon fill="#eec731" points="281.13743994310465,194.275 292.84000544072694,194.275 285.94316429245134,206.77" stroke="none" /><polygon fill="#ebc32b" points="292.84000544072694,194.275 301.9580485312277,206.77 285.94316429245134,206.77" stroke="none" /><polygon fill="#eac127" points="292.84000544072694,194.275 302.5128274881115,194.275 301.9580485312277,206.77" stroke="none" /><polygon fill="#e7bc21" points="302.5128274881115,194.275 314.0744211938816,206.77 301.9580485312277,206.77" stroke="none" /><polygon fill="#f5d241" points="257.0,206.77 237.82544100601905,206.77 258.0,218.53" stroke="none" /><polygon fill="#f2cf3b" points="237.82544100601905,206.77 242.16092018572462,218.53 258.0,218.53" stroke="none" /><polygon fill="#efc935" points="237.82544100601905,206.77 225.05683570754866,206.77 242.16092018572462,218.53" stroke="none" /><polygon fill="#ecc630" points="225.05683570754866,206.77 223.40404153854632,218.53 242.16092018572462,218.53" stroke="none" /><polygon fill="#eac12b" points="225.05683570754866,206.77 216.0419514687723,206.77 223.40404153854632,218.53" stroke="none" /><polygon fill="#e7be27" points="216.0419514687723,206.77 214.19853862080367,218.53 223.40404153854632,218.53" stroke="none" /><polygon fill="#e6bb23" points="216.0419514687723,206.77 200.92557880611835,206.77 214.19853862080367,218.53" stroke="none" /><polygon fill="#e3b81f" points="200.92557880611835,206.77 203.97248541128675,218.53 214.19853862080367,218.53" stroke="none" /><polygon fill="#eac12b" points="200.92557880611835,206.77 259,206.77 203.97248541128675,218.53" stroke="none" /><polygon fill="#efcb36" points="259,206.77 254,218.53 203.97248541128675,218.53" stroke="none" /><polygon fill="#f6d444" points="259,206.77 254.0,206.77 254,218.53" stroke="none" /><polygon fill="#f5d340" points="254.0,206.77 254.0,218.53 254,218.53" stroke="none" /><polygon fill="#f5d241" points="254.0,206.77 274.17455899398095,206.77 254.0,218.53" stroke="none" /><polygon fill="#f2cf3b" points="274.17455899398095,206.77 269.83907981427535,218.53 254.0,218.53" stroke="none" /><polygon fill="#efc935" points="274.17455899398095,206.77 285.94316429245134,206.77 269.83907981427535,218.53" stroke="none" /><polygon fill="#ecc630" points="285.94316429245134,206.77 288.5959584614537,218.53 269.83907981427535,218.53" stroke="none" /><polygon fill="#e9c02a" points="285.94316429245134,206.77 301.9580485312277,206.77 288.5959584614537,218.53" stroke="none" /><polygon fill="#e7be27" points="301.9580485312277,206.77 292.8014613791963,218.53 288.5959584614537,218.53" stroke="none" /><polygon fill="#e5ba22" points="301.9580485312277,206.77 314.0744211938816,206.77 292.8014613791963,218.53" stroke="none" /><polygon fill="#e4b820" points="314.0744211938816,206.77 307.02751458871325,218.53 292.8014613791963,218.53" stroke="none" /><polygon fill="#f3d03a" points="258.0,218.53 242.16092018572462,218.53 253.0,228.82" stroke="none" /><polygon fill="#f1cb36" points="242.16092018572462,218.53 239.87569057154613,228.82 253.0,228.82" stroke="none" /><polygon fill="#edc630" points="242.16092018572462,218.53 223.40404153854632,218.53 239.87569057154613,228.82" stroke="none" /><polygon fill="#eac12c" points="223.40404153854632,218.53 226.14515312574775,228.82 239.87569057154613,228.82" stroke="none" /><polygon fill="#e7be27" points="223.40404153854632,218.53 214.19853862080367,218.53 226.14515312574775,228.82" stroke="none" /><polygon fill="#e5ba25" points="214.19853862080367,218.53 215.16072316910905,228.82 226.14515312574775,228.82" stroke="none" /><polygon fill="#e2b821" points="214.19853862080367,218.53 203.97248541128675,218.53 215.16072316910905,228.82" stroke="none" /><polygon fill="#e0b31e" points="203.97248541128675,218.53 202.0778502168065,228.82 215.16072316910905,228.82" stroke="none" /><polygon fill="#e6bd27" points="203.97248541128675,218.53 254,218.53 202.0778502168065,228.82" stroke="none" /><polygon fill="#edc631" points="254,218.53 258,228.82 202.0778502168065,228.82" stroke="none" /><polygon fill="#f5d23d" points="254,218.53 254.0,218.53 258,228.82" stroke="none" /><polygon fill="#f5d13c" points="254.0,218.53 253.0,228.82 258,228.82" stroke="none" /><polygon fill="#f4d13c" points="254.0,218.53 269.83907981427535,218.53 253.0,228.82" stroke="none" /><polygon fill="#f2cc37" points="269.83907981427535,218.53 271.12430942845384,228.82 253.0,228.82" stroke="none" /><polygon fill="#edc630" points="269.83907981427535,218.53 288.5959584614537,218.53 271.12430942845384,228.82" stroke="none" /><polygon fill="#eac12c" points="288.5959584614537,218.53 288.85484687425225,228.82 271.12430942845384,228.82" stroke="none" /><polygon fill="#e7be28" points="288.5959584614537,218.53 292.8014613791963,218.53 288.85484687425225,228.82" stroke="none" /><polygon fill="#e5ba25" points="292.8014613791963,218.53 298.8392768308909,228.82 288.85484687425225,228.82" stroke="none" /><polygon fill="#e3b822" points="292.8014613791963,218.53 307.02751458871325,218.53 298.8392768308909,228.82" stroke="none" /><polygon fill="#dfb31e" points="307.02751458871325,218.53 310.9221497831935,228.82 298.8392768308909,228.82" stroke="none" /><polygon fill="#f2cd35" points="253.0,228.82 239.87569057154613,228.82 259.0,240.58" stroke="none" /><polygon fill="#efc930" points="239.87569057154613,228.82 237.77270210193595,240.58 259.0,240.58" stroke="none" /><polygon fill="#ebc22c" points="239.87569057154613,228.82 226.14515312574775,228.82 237.77270210193595,240.58" stroke="none" /><polygon fill="#e7be28" points="226.14515312574775,228.82 224.72171884582684,240.58 237.77270210193595,240.58" stroke="none" /><polygon fill="#e5ba25" points="226.14515312574775,228.82 215.16072316910905,228.82 224.72171884582684,240.58" stroke="none" /><polygon fill="#e2b723" points="215.16072316910905,228.82 217.28093224093953,240.58 224.72171884582684,240.58" stroke="none" /><polygon fill="#e0b320" points="215.16072316910905,228.82 202.0778502168065,228.82 217.28093224093953,240.58" stroke="none" /><polygon fill="#dcaf1d" points="202.0778502168065,228.82 201.79606697556352,240.58 217.28093224093953,240.58" stroke="none" /><polygon fill="#e4b925" points="202.0778502168065,228.82 258,228.82 201.79606697556352,240.58" stroke="none" /><polygon fill="#ebc42c" points="258,228.82 254,240.58 201.79606697556352,240.58" stroke="none" /><polygon fill="#f4d038" points="258,228.82 253.0,228.82 254,240.58" stroke="none" /><polygon fill="#f4cf35" points="253.0,228.82 258.0,240.58 254,240.58" stroke="none" /><polygon fill="#f2cd36" points="253.0,228.82 271.12430942845384,228.82 258.0,240.58" stroke="none" /><polygon fill="#efc830" points="271.12430942845384,228.82 273.227297898064,240.58 258.0,240.58" stroke="none" /><polygon fill="#eac22c" points="271.12430942845384,228.82 288.85484687425225,228.82 273.227297898064,240.58" stroke="none" /><polygon fill="#e7be28" points="288.85484687425225,228.82 284.27828115417316,240.58 273.227297898064,240.58" stroke="none" /><polygon fill="#e4ba25" points="288.85484687425225,228.82 298.8392768308909,228.82 284.27828115417316,240.58" stroke="none" /><polygon fill="#e1b622" points="298.8392768308909,228.82 299.71906775906047,240.58 284.27828115417316,240.58" stroke="none" /><polygon fill="#dfb11e" points="298.8392768308909,228.82 310.9221497831935,228.82 299.71906775906047,240.58" stroke="none" /><polygon fill="#dbaf1c" points="310.9221497831935,228.82 307.2039330244365,240.58 299.71906775906047,240.58" stroke="none" /><polygon fill="#f1cb2f" points="259.0,240.58 237.77270210193595,240.58 257.0,253.075" stroke="none" /><polygon fill="#edc62b" points="237.77270210193595,240.58 240.66402798230055,253.075 257.0,253.075" stroke="none" /><polygon fill="#e8bf28" points="237.77270210193595,240.58 224.72171884582684,240.58 240.66402798230055,253.075" stroke="none" /><polygon fill="#e5ba24" points="224.72171884582684,240.58 222.53071584767974,253.075 240.66402798230055,253.075" stroke="none" /><polygon fill="#e1b622" points="224.72171884582684,240.58 217.28093224093953,240.58 222.53071584767974,253.075" stroke="none" /><polygon fill="#deb21f" points="217.28093224093953,240.58 215.02406613998312,253.075 222.53071584767974,253.075" stroke="none" /><polygon fill="#dcaf1e" points="217.28093224093953,240.58 201.79606697556352,240.58 215.02406613998312,253.075" stroke="none" /><polygon fill="#d8ab1b" points="201.79606697556352,240.58 205.46675146151682,253.075 215.02406613998312,253.075" stroke="none" /><polygon fill="#e1b522" points="201.79606697556352,240.58 254,240.58 205.46675146151682,253.075" stroke="none" /><polygon fill="#eac128" points="254,240.58 256,253.075 205.46675146151682,253.075" stroke="none" /><polygon fill="#f4cf32" points="254,240.58 258.0,240.58 256,253.075" stroke="none" /><polygon fill="#f3cd2f" points="258.0,240.58 257.0,253.075 256,253.075" stroke="none" /><polygon fill="#f0ca2e" points="258.0,240.58 273.227297898064,240.58 257.0,253.075" stroke="none" /><polygon fill="#edc52b" points="273.227297898064,240.58 272.3359720176995,253.075 257.0,253.075" stroke="none" /><polygon fill="#e9c028" points="273.227297898064,240.58 284.27828115417316,240.58 272.3359720176995,253.075" stroke="none" /><polygon fill="#e6bc25" points="284.27828115417316,240.58 285.46928415232026,253.075 272.3359720176995,253.075" stroke="none" /><polygon fill="#e2b622" points="284.27828115417316,240.58 299.71906775906047,240.58 285.46928415232026,253.075" stroke="none" /><polygon fill="#deb21f" points="299.71906775906047,240.58 299.9759338600169,253.075 285.46928415232026,253.075" stroke="none" /><polygon fill="#dbad1d" points="299.71906775906047,240.58 307.2039330244365,240.58 299.9759338600169,253.075" stroke="none" /><polygon fill="#d7aa1a" points="307.2039330244365,240.58 311.5332485384832,253.075 299.9759338600169,253.075" stroke="none" /><polygon fill="#f0c829" points="257.0,253.075 240.66402798230055,253.075 257.0,265.57" stroke="none" /><polygon fill="#ecc225" points="240.66402798230055,253.075 238.5156465950977,265.57 257.0,265.57" stroke="none" /><polygon fill="#e5bb23" points="240.66402798230055,253.075 222.53071584767974,253.075 238.5156465950977,265.57" stroke="none" /><polygon fill="#e2b720" points="222.53071584767974,253.075 227.78507583380812,265.57 238.5156465950977,265.57" stroke="none" /><polygon fill="#deb21f" points="222.53071584767974,253.075 215.02406613998312,253.075 227.78507583380812,265.57" stroke="none" /><polygon fill="#ddb01e" points="215.02406613998312,253.075 220.40061922477642,265.57 227.78507583380812,265.57" stroke="none" /><polygon fill="#d9ac1c" points="215.02406613998312,253.075 205.46675146151682,253.075 220.40061922477642,265.57" stroke="none" /><polygon fill="#d7a91b" points="205.46675146151682,253.075 210.07771695484158,265.57 220.40061922477642,265.57" stroke="none" /><polygon fill="#dfb31f" points="205.46675146151682,253.075 256,253.075 210.07771695484158,265.57" stroke="none" /><polygon fill="#e9bf24" points="256,253.075 255,265.57 210.07771695484158,265.57" stroke="none" /><polygon fill="#f3cc2b" points="256,253.075 257.0,253.075 255,265.57" stroke="none" /><polygon fill="#f2ca28" points="257.0,253.075 257.0,265.57 255,265.57" stroke="none" /><polygon fill="#efc728" points="257.0,253.075 272.3359720176995,253.075 257.0,265.57" stroke="none" /><polygon fill="#ecc225" points="272.3359720176995,253.075 270.48435340490227,265.57 257.0,265.57" stroke="none" /><polygon fill="#e6bc23" points="272.3359720176995,253.075 285.46928415232026,253.075 270.48435340490227,265.57" stroke="none" /><polygon fill="#e4b921" points="285.46928415232026,253.075 282.2149241661919,265.57 270.48435340490227,265.57" stroke="none" /><polygon fill="#dfb21f" points="285.46928415232026,253.075 299.9759338600169,253.075 282.2149241661919,265.57" stroke="none" /><polygon fill="#dcaf1d" points="299.9759338600169,253.075 294.5993807752236,265.57 282.2149241661919,265.57" stroke="none" /><polygon fill="#d7a91a" points="299.9759338600169,253.075 311.5332485384832,253.075 294.5993807752236,265.57" stroke="none" /><polygon fill="#d6a71a" points="311.5332485384832,253.075 301.92228304515845,265.57 294.5993807752236,265.57" stroke="none" /><polygon fill="#efc622" points="257.0,265.57 238.5156465950977,265.57 259.0,278.8" stroke="none" /><polygon fill="#edc322" points="238.5156465950977,265.57 245.6355360535194,278.8 259.0,278.8" stroke="none" /><polygon fill="#e6ba1f" points="238.5156465950977,265.57 227.78507583380812,265.57 245.6355360535194,278.8" stroke="none" /><polygon fill="#e5b91f" points="227.78507583380812,265.57 234.51094215467046,278.8 245.6355360535194,278.8" stroke="none" /><polygon fill="#dfb21d" points="227.78507583380812,265.57 220.40061922477642,265.57 234.51094215467046,278.8" stroke="none" /><polygon fill="#dfb21d" points="220.40061922477642,265.57 225.4112670355913,278.8 234.51094215467046,278.8" stroke="none" /><polygon fill="#d9ab1b" points="220.40061922477642,265.57 210.07771695484158,265.57 225.4112670355913,278.8" stroke="none" /><polygon fill="#d8aa1a" points="210.07771695484158,265.57 215.50162440460423,278.8 225.4112670355913,278.8" stroke="none" /><polygon fill="#dfb21d" points="210.07771695484158,265.57 255,265.57 215.50162440460423,278.8" stroke="none" /><polygon fill="#e9be20" points="255,265.57 255,278.8 215.50162440460423,278.8" stroke="none" /><polygon fill="#f2c923" points="255,265.57 257.0,265.57 255,278.8" stroke="none" /><polygon fill="#f2c923" points="257.0,265.57 254.0,278.8 255,278.8" stroke="none" /><polygon fill="#efc622" points="257.0,265.57 270.48435340490227,265.57 254.0,278.8" stroke="none" /><polygon fill="#ecc221" points="270.48435340490227,265.57 271.3644639464806,278.8 254.0,278.8" stroke="none" /><polygon fill="#e6ba1f" points="270.48435340490227,265.57 282.2149241661919,265.57 271.3644639464806,278.8" stroke="none" /><polygon fill="#e4b81e" points="282.2149241661919,265.57 280.48905784532957,278.8 271.3644639464806,278.8" stroke="none" /><polygon fill="#deb11d" points="282.2149241661919,265.57 294.5993807752236,265.57 280.48905784532957,278.8" stroke="none" /><polygon fill="#deb01c" points="294.5993807752236,265.57 285.5887329644087,278.8 280.48905784532957,278.8" stroke="none" /><polygon fill="#d9ab1b" points="294.5993807752236,265.57 301.92228304515845,265.57 285.5887329644087,278.8" stroke="none" /><polygon fill="#d8aa1a" points="301.92228304515845,265.57 297.49837559539577,278.8 285.5887329644087,278.8" stroke="none" /><polygon fill="#f1c823" points="259.0,278.8 245.6355360535194,278.8 256.0,293.5" stroke="none" /><polygon fill="#edc322" points="245.6355360535194,278.8 243.5424,293.5 256.0,293.5" stroke="none" /><polygon fill="#e8bd20" points="245.6355360535194,278.8 234.51094215467046,278.8 243.5424,293.5" stroke="none" /><polygon fill="#e6bb1f" points="234.51094215467046,278.8 235.8624,293.5 243.5424,293.5" stroke="none" /><polygon fill="#e2b61e" points="234.51094215467046,278.8 225.4112670355913,278.8 235.8624,293.5" stroke="none" /><polygon fill="#e1b41d" points="225.4112670355913,278.8 228.9184,293.5 235.8624,293.5" stroke="none" /><polygon fill="#dcaf1c" points="225.4112670355913,278.8 215.50162440460423,278.8 228.9184,293.5" stroke="none" /><polygon fill="#dbae1c" points="215.50162440460423,278.8 220.28,293.5 228.9184,293.5" stroke="none" /><polygon fill="#e1b51e" points="215.50162440460423,278.8 255,278.8 220.28,293.5" stroke="none" /><polygon fill="#eac021" points="255,278.8 256,293.5 220.28,293.5" stroke="none" /><polygon fill="#f2c923" points="255,278.8 254.0,278.8 256,293.5" stroke="none" /><polygon fill="#f2c923" points="254.0,278.8 257.0,293.5 256,293.5" stroke="none" /><polygon fill="#efc622" points="254.0,278.8 271.3644639464806,278.8 257.0,293.5" stroke="none" /><polygon fill="#ecc221" points="271.3644639464806,278.8 267.4576,293.5 257.0,293.5" stroke="none" /><polygon fill="#e7bc20" points="271.3644639464806,278.8 280.48905784532957,278.8 267.4576,293.5" stroke="none" /><polygon fill="#e6ba1f" points="280.48905784532957,278.8 277.1376,293.5 267.4576,293.5" stroke="none" /><polygon fill="#e2b51e" points="280.48905784532957,278.8 285.5887329644087,278.8 277.1376,293.5" stroke="none" /><polygon fill="#e1b41d" points="285.5887329644087,278.8 283.0816,293.5 277.1376,293.5" stroke="none" /><polygon fill="#dcaf1c" points="285.5887329644087,278.8 297.49837559539577,278.8 283.0816,293.5" stroke="none" /><polygon fill="#dbae1c" points="297.49837559539577,278.8 290.72,293.5 283.0816,293.5" stroke="none" /><path d="M 242 210 A 8 12 0 0 0 242 228 Z" fill="#f3ca24" stroke="#d0a018" stroke-width="1" /><circle cx="239" cy="228" fill="#f3ca24" r="3" stroke="#d0a018" stroke-width="1" /><path d="M 270 210 A 8 12 0 0 1 270 228 Z" fill="#f3ca24" stroke="#d0a018" stroke-width="1" /><circle cx="273" cy="228" fill="#f3ca24" r="3" stroke="#d0a018" stroke-width="1" /><path d="M 219 214 Q 237 200 255 214 Q 237 228 219 214" fill="#e8e0d8" stroke="#3a2a1a" stroke-width="1.5" /><path d="M 232 216 A 5 5 0 0 0 242 216 Z" fill="#3a2a1a" stroke="none" /><circle cx="239" cy="213" fill="white" r="2" stroke="none" /><path d="M 217 214 Q 237 210 257 214" fill="none" stroke="#3a2a1a" stroke-width="3" /><path d="M 257 216 Q 275 202 293 216 Q 275 230 257 216" fill="#e8e0d8" stroke="#3a2a1a" stroke-width="1.5" /><path d="M 270 218 A 5 5 0 0 0 280 218 Z" fill="#3a2a1a" stroke="none" /><circle cx="277" cy="215" fill="white" r="2" stroke="none" /><path d="M 255 216 Q 275 212 295 216" fill="none" stroke="#3a2a1a" stroke-width="3" /><line stroke="#3a2a1a" stroke-width="2" x1="266" x2="266" y1="215" y2="212" /><line stroke="#3a2a1a" stroke-width="2" x1="275" x2="275" y1="215" y2="212" /><line stroke="#3a2a1a" stroke-width="2" x1="284" x2="284" y1="215" y2="212" /><line stroke="#3a2a1a" stroke-width="2" x1="225" x2="249" y1="208" y2="208" /><line stroke="#3a2a1a" stroke-width="2" x1="261" x2="289" y1="209" y2="209" /><path d="M 221 226 A 8 5 0 0 0 237 226 Z" fill="#e88060" fill-opacity="0.20959473707293524" stroke="none" /><path d="M 278 226 A 6 4 0 0 0 290 226 Z" fill="#e88060" fill-opacity="0.2500556093434729" stroke="none" /><path d="M 256 220 Q 259 225 258 228 Q 256 229 254 228 Q 253 225 256 220" fill="#d0a018" stroke="none" /><path d="M 240 238 Q 256 231 272 238 Q 256 245 240 238" fill="#c06050" stroke="#3a2a1a" stroke-width="1.5" /><line stroke="#3a2a1a" stroke-width="1.5" x1="242" x2="270" y1="238" y2="238" /><path d="M 234 184 Q 237 181 240 184" fill="none" stroke="#d4c0a0" stroke-opacity="0.3" stroke-width="1" /><path d="M 234 242 Q 237 239 240 242" fill="none" stroke="#d4c0a0" stroke-opacity="0.3" stroke-width="1" /><path d="M 228 232 Q 232 228 236 232" fill="none" stroke="#d4c0a0" stroke-opacity="0.3" stroke-width="1" /><path d="M 225 202 Q 233 194 241 202" fill="none" stroke="#d4c0a0" stroke-opacity="0.3" stroke-width="1" /><path d="M 224 203 Q 232 195 240 203" fill="none" stroke="#d4c0a0" stroke-opacity="0.3" stroke-width="1" /><path d="M 241 194 Q 247 188 253 194" fill="none" stroke="#d4c0a0" stroke-opacity="0.3" stroke-width="1" /><path d="M 226 249 Q 229 246 232 249" fill="none" stroke="#d4c0a0" stroke-opacity="0.3" stroke-width="1" /><path d="M 276 188 Q 283 181 290 188" fill="none" stroke="#d4c0a0" stroke-opacity="0.3" stroke-width="1" /><path d="M 242 190 Q 250 182 258 190" fill="none" stroke="#d4c0a0" stroke-opacity="0.3" stroke-width="1" /><path d="M 254 185 Q 260 179 266 185" fill="none" stroke="#d4c0a0" stroke-opacity="0.3" stroke-width="1" /><path d="M 240 191 Q 247 184 254 191" fill="none" stroke="#d4c0a0" stroke-opacity="0.3" stroke-width="1" /><path d="M 234 243 Q 238 239 242 243" fill="none" stroke="#d4c0a0" stroke-opacity="0.3" stroke-width="1" /><polygon fill="#b48c14" points="237,289.5 275,289.5 275,324.5 237,324.5" stroke="none" /></svg>