<?xml version="1.0" encoding="utf-8" ?>
<svg baseProfile="full" height="512" version="1.1" width="512" xmlns="http://www.w3.org/2000/svg" xmlns:ev="http://www.w3.org/2001/xml-events" xmlns:xlink="http://www.w3.org/1999/xlink"><defs /><polygon fill="#fbdf61" points="256.0,61.5 252.7131,61.5 256.0,96.36999999999999" stroke="none" /><polygon fill="#fbde5e" points="252.7131,61.5 239.4458325722646,96.36999999999999 256.0,96.36999999999999" stroke="none" /><polygon fill="#fbde5d" points="252.7131,61.5 252.9806,61.5 239.4458325722646,96.36999999999999" stroke="none" /><polygon fill="#fadc58" points="252.9806,61.5 227.14722088458632,96.36999999999999 239.4458325722646,96.36999999999999" stroke="none" /><polygon fill="#fadd5b" points="252.9806,61.5 250.5946,61.5 227.14722088458632,96.36999999999999" stroke="none" /><polygon fill="#f9da53" points="250.5946,61.5 211.50833153444364,96.36999999999999 227.14722088458632,96.36999999999999" stroke="none" /><polygon fill="#fadc57" points="250.5946,61.5 249.07,61.5 211.50833153444364,96.36999999999999" stroke="none" /><polygon fill="#f9d84e" points="249.07,61.5 200.80555324928673,96.36999999999999 211.50833153444364,96.36999999999999" stroke="none" /><polygon fill="#fadb56" points="249.07,61.5 256,61.5 200.80555324928673,96.36999999999999" stroke="none" /><polygon fill="#fadc58" points="256,61.5 258,96.36999999999999 200.80555324928673,96.36999999999999" stroke="none" /><polygon fill="#fbdf61" points="256,61.5 256.0,61.5 258,96.36999999999999" stroke="none" /><polygon fill="#fbdf61" points="256.0,61.5 253.0,96.36999999999999 258,96.36999999999999" stroke="none" /><polygon fill="#fbdf61" points="256.0,61.5 259.2869,61.5 253.0,96.36999999999999" stroke="none" /><polygon fill="#fbde5e" points="259.2869,61.5 274.55416742773536,96.36999999999999 253.0,96.36999999999999" stroke="none" /><polygon fill="#fbde5d" points="259.2869,61.5 260.0194,61.5 274.55416742773536,96.36999999999999" stroke="none" /><polygon fill="#fadc58" points="260.0194,61.5 284.8527791154137,96.36999999999999 274.55416742773536,96.36999999999999" stroke="none" /><polygon fill="#fadd5b" points="260.0194,61.5 260.4054,61.5 284.8527791154137,96.36999999999999" stroke="none" /><polygon fill="#f9da54" points="260.4054,61.5 297.49166846555636,96.36999999999999 284.8527791154137,96.36999999999999" stroke="none" /><polygon fill="#fadc58" points="260.4054,61.5 262.93,61.5 297.49166846555636,96.36999999999999" stroke="none" /><polygon fill="#f9d84e" points="262.93,61.5 311.19444675071327,96.36999999999999 297.49166846555636,96.36999999999999" stroke="none" /><polygon fill="#fbde5e" points="256.0,96.36999999999999 239.4458325722646,96.36999999999999 254.0,132.825" stroke="none" /><polygon fill="#f9da56" points="239.4458325722646,96.36999999999999 225.74223471860952,132.825 254.0,132.825" stroke="none" /><polygon fill="#f9da53" points="239.4458325722646,96.36999999999999 227.14722088458632,96.36999999999999 225.74223471860952,132.825" stroke="none" /><polygon fill="#f7d54b" points="227.14722088458632,96.36999999999999 204.57726102058643,132.825 225.74223471860952,132.825" stroke="none" /><polygon fill="#f8d74a" points="227.14722088458632,96.36999999999999 211.50833153444364,96.36999999999999 204.57726102058643,132.825" stroke="none" /><polygon fill="#f5d140" points="211.50833153444364,96.36999999999999 184.845282062168,132.825 204.57726102058643,132.825" stroke="none" /><polygon fill="#f7d442" points="211.50833153444364,96.36999999999999 200.80555324928673,96.36999999999999 184.845282062168,132.825" stroke="none" /><polygon fill="#f4ce38" points="200.80555324928673,96.36999999999999 167.34010520790767,132.825 184.845282062168,132.825" stroke="none" /><polygon fill="#f8d647" points="200.80555324928673,96.36999999999999 258,96.36999999999999 167.34010520790767,132.825" stroke="none" /><polygon fill="#f8d74e" points="258,96.36999999999999 253,132.825 167.34010520790767,132.825" stroke="none" /><polygon fill="#fbdf61" points="258,96.36999999999999 253.0,96.36999999999999 253,132.825" stroke="none" /><polygon fill="#fadd5e" points="253.0,96.36999999999999 259.0,132.825 253,132.825" stroke="none" /><polygon fill="#fbde5e" points="253.0,96.36999999999999 274.55416742773536,96.36999999999999 259.0,132.825" stroke="none" /><polygon fill="#f9da55" points="274.55416742773536,96.36999999999999 287.25776528139045,132.825 259.0,132.825" stroke="none" /><polygon fill="#f9da53" points="274.55416742773536,96.36999999999999 284.8527791154137,96.36999999999999 287.25776528139045,132.825" stroke="none" /><polygon fill="#f7d54a" points="284.8527791154137,96.36999999999999 310.42273897941357,132.825 287.25776528139045,132.825" stroke="none" /><polygon fill="#f8d74a" points="284.8527791154137,96.36999999999999 297.49166846555636,96.36999999999999 310.42273897941357,132.825" stroke="none" /><polygon fill="#f5d140" points="297.49166846555636,96.36999999999999 327.154717937832,132.825 310.42273897941357,132.825" stroke="none" /><polygon fill="#f7d442" points="297.49166846555636,96.36999999999999 311.19444675071327,96.36999999999999 327.154717937832,132.825" stroke="none" /><polygon fill="#f4ce38" points="311.19444675071327,96.36999999999999 343.65989479209236,132.825 327.154717937832,132.825" stroke="none" /><polygon fill="#f8d953" points="254.0,132.825 225.74223471860952,132.825 253.0,164.525" stroke="none" /><polygon fill="#f6d54b" points="225.74223471860952,132.825 219.41958786662852,164.525 253.0,164.525" stroke="none" /><polygon fill="#f5d245" points="225.74223471860952,132.825 204.57726102058643,132.825 219.41958786662852,164.525" stroke="none" /><polygon fill="#f3ce3f" points="204.57726102058643,132.825 197.97988170498348,164.525 219.41958786662852,164.525" stroke="none" /><polygon fill="#f2cd3a" points="204.57726102058643,132.825 184.845282062168,132.825 197.97988170498348,164.525" stroke="none" /><polygon fill="#f0c935" points="184.845282062168,132.825 179.62811677566742,164.525 197.97988170498348,164.525" stroke="none" /><polygon fill="#f0c931" points="184.845282062168,132.825 167.34010520790767,132.825 179.62811677566742,164.525" stroke="none" /><polygon fill="#edc42b" points="167.34010520790767,132.825 152.24117535341978,164.525 179.62811677566742,164.525" stroke="none" /><polygon fill="#f1cc38" points="167.34010520790767,132.825 253,132.825 152.24117535341978,164.525" stroke="none" /><polygon fill="#f5d245" points="253,132.825 258,164.525 152.24117535341978,164.525" stroke="none" /><polygon fill="#f9db58" points="253,132.825 259.0,132.825 258,164.525" stroke="none" /><polygon fill="#f9da56" points="259.0,132.825 257.0,164.525 258,164.525" stroke="none" /><polygon fill="#f8d953" points="259.0,132.825 287.25776528139045,132.825 257.0,164.525" stroke="none" /><polygon fill="#f7d54c" points="287.25776528139045,132.825 289.58041213337145,164.525 257.0,164.525" stroke="none" /><polygon fill="#f5d245" points="287.25776528139045,132.825 310.42273897941357,132.825 289.58041213337145,164.525" stroke="none" /><polygon fill="#f3ce3e" points="310.42273897941357,132.825 316.0201182950165,164.525 289.58041213337145,164.525" stroke="none" /><polygon fill="#f2cd3a" points="310.42273897941357,132.825 327.154717937832,132.825 316.0201182950165,164.525" stroke="none" /><polygon fill="#f0c935" points="327.154717937832,132.825 332.3718832243326,164.525 316.0201182950165,164.525" stroke="none" /><polygon fill="#f0c931" points="327.154717937832,132.825 343.65989479209236,132.825 332.3718832243326,164.525" stroke="none" /><polygon fill="#eec52c" points="343.65989479209236,132.825 354.75882464658025,164.525 332.3718832243326,164.525" stroke="none" /><polygon fill="#f6d64b" points="253.0,164.525 219.41958786662852,164.525 253.0,191.47" stroke="none" /><polygon fill="#f4d145" points="219.41958786662852,164.525 220.31517081810267,191.47 253.0,191.47" stroke="none" /><polygon fill="#f2ce3e" points="219.41958786662852,164.525 197.97988170498348,164.525 220.31517081810267,191.47" stroke="none" /><polygon fill="#efca38" points="197.97988170498348,164.525 191.52363355908955,191.47 220.31517081810267,191.47" stroke="none" /><polygon fill="#eec834" points="197.97988170498348,164.525 179.62811677566742,164.525 191.52363355908955,191.47" stroke="none" /><polygon fill="#ebc32e" points="179.62811677566742,164.525 168.290403751879,191.47 191.52363355908955,191.47" stroke="none" /><polygon fill="#ebc12a" points="179.62811677566742,164.525 152.24117535341978,164.525 168.290403751879,191.47" stroke="none" /><polygon fill="#e8be26" points="152.24117535341978,164.525 147.83385096394747,191.47 168.290403751879,191.47" stroke="none" /><polygon fill="#eec732" points="152.24117535341978,164.525 258,164.525 147.83385096394747,191.47" stroke="none" /><polygon fill="#f2ce40" points="258,164.525 254,191.47 147.83385096394747,191.47" stroke="none" /><polygon fill="#f8d951" points="258,164.525 257.0,164.525 254,191.47" stroke="none" /><polygon fill="#f8d84f" points="257.0,164.525 254.0,191.47 254,191.47" stroke="none" /><polygon fill="#f7d74d" points="257.0,164.525 289.58041213337145,164.525 254.0,191.47" stroke="none" /><polygon fill="#f4d245" points="289.58041213337145,164.525 293.6848291818973,191.47 254.0,191.47" stroke="none" /><polygon fill="#f2ce3e" points="289.58041213337145,164.525 316.0201182950165,164.525 293.6848291818973,191.47" stroke="none" /><polygon fill="#efc938" points="316.0201182950165,164.525 319.47636644091045,191.47 293.6848291818973,191.47" stroke="none" /><polygon fill="#eec834" points="316.0201182950165,164.525 332.3718832243326,164.525 319.47636644091045,191.47" stroke="none" /><polygon fill="#ebc42f" points="332.3718832243326,164.525 340.709596248121,191.47 319.47636644091045,191.47" stroke="none" /><polygon fill="#ebc22b" points="332.3718832243326,164.525 354.75882464658025,164.525 340.709596248121,191.47" stroke="none" /><polygon fill="#e8be26" points="354.75882464658025,164.525 366.1661490360525,191.47 340.709596248121,191.47" stroke="none" /><polygon fill="#f5d245" points="253.0,191.47 220.31517081810267,191.47 253.0,216.83" stroke="none" /><polygon fill="#f2cf3f" points="220.31517081810267,191.47 221.4266251502337,216.83 253.0,216.83" stroke="none" /><polygon fill="#efc939" points="220.31517081810267,191.47 191.52363355908955,191.47 221.4266251502337,216.83" stroke="none" /><polygon fill="#ecc734" points="191.52363355908955,191.47 195.74982602162288,216.83 221.4266251502337,216.83" stroke="none" /><polygon fill="#eac22f" points="191.52363355908955,191.47 168.290403751879,191.47 195.74982602162288,216.83" stroke="none" /><polygon fill="#e8c02c" points="168.290403751879,191.47 180.0083867187342,216.83 195.74982602162288,216.83" stroke="none" /><polygon fill="#e7bc27" points="168.290403751879,191.47 147.83385096394747,191.47 180.0083867187342,216.83" stroke="none" /><polygon fill="#e4ba25" points="147.83385096394747,191.47 160.29280348555668,216.83 180.0083867187342,216.83" stroke="none" /><polygon fill="#ebc32f" points="147.83385096394747,191.47 254,191.47 160.29280348555668,216.83" stroke="none" /><polygon fill="#f1cd3c" points="254,191.47 258,216.83 160.29280348555668,216.83" stroke="none" /><polygon fill="#f7d64a" points="254,191.47 254.0,191.47 258,216.83" stroke="none" /><polygon fill="#f7d648" points="254.0,191.47 257.0,216.83 258,216.83" stroke="none" /><polygon fill="#f5d346" points="254.0,191.47 293.6848291818973,191.47 257.0,216.83" stroke="none" /><polygon fill="#f3cf3f" points="293.6848291818973,191.47 288.5733748497663,216.83 257.0,216.83" stroke="none" /><polygon fill="#efca39" points="293.6848291818973,191.47 319.47636644091045,191.47 288.5733748497663,216.83" stroke="none" /><polygon fill="#edc735" points="319.47636644091045,191.47 315.2501739783771,216.83 288.5733748497663,216.83" stroke="none" /><polygon fill="#ebc22f" points="319.47636644091045,191.47 340.709596248121,191.47 315.2501739783771,216.83" stroke="none" /><polygon fill="#e8c02c" points="340.709596248121,191.47 333.9916132812658,216.83 315.2501739783771,216.83" stroke="none" /><polygon fill="#e6bc27" points="340.709596248121,191.47 366.1661490360525,191.47 333.9916132812658,216.83" stroke="none" /><polygon fill="#e4ba24" points="366.1661490360525,191.47 356.70719651444335,216.83 333.9916132812658,216.83" stroke="none" /><polygon fill="#f4d140" points="253.0,216.83 221.4266251502337,216.83 259.0,239.02" stroke="none" /><polygon fill="#f2cd3c" points="221.4266251502337,216.83 224.47313774755492,239.02 259.0,239.02" stroke="none" /><polygon fill="#edc736" points="221.4266251502337,216.83 195.74982602162288,216.83 224.47313774755492,239.02" stroke="none" /><polygon fill="#ebc433" points="195.74982602162288,216.83 200.8315754350965,239.02 224.47313774755492,239.02" stroke="none" /><polygon fill="#e9c12e" points="195.74982602162288,216.83 180.0083867187342,216.83 200.8315754350965,239.02" stroke="none" /><polygon fill="#e7bd2c" points="180.0083867187342,216.83 178.1183255851298,239.02 200.8315754350965,239.02" stroke="none" /><polygon fill="#e4bb27" points="180.0083867187342,216.83 160.29280348555668,216.83 178.1183255851298,239.02" stroke="none" /><polygon fill="#e2b725" points="160.29280348555668,216.83 160.4337507501664,239.02 178.1183255851298,239.02" stroke="none" /><polygon fill="#e9c12e" points="160.29280348555668,216.83 258,216.83 160.4337507501664,239.02" stroke="none" /><polygon fill="#f0ca39" points="258,216.83 259,239.02 160.4337507501664,239.02" stroke="none" /><polygon fill="#f6d444" points="258,216.83 257.0,216.83 259,239.02" stroke="none" /><polygon fill="#f6d343" points="257.0,216.83 254.0,239.02 259,239.02" stroke="none" /><polygon fill="#f4d141" points="257.0,216.83 288.5733748497663,216.83 254.0,239.02" stroke="none" /><polygon fill="#f1cc3c" points="288.5733748497663,216.83 291.5268622524451,239.02 254.0,239.02" stroke="none" /><polygon fill="#edc736" points="288.5733748497663,216.83 315.2501739783771,216.83 291.5268622524451,239.02" stroke="none" /><polygon fill="#ebc332" points="315.2501739783771,216.83 312.1684245649035,239.02 291.5268622524451,239.02" stroke="none" /><polygon fill="#e8c02e" points="315.2501739783771,216.83 333.9916132812658,216.83 312.1684245649035,239.02" stroke="none" /><polygon fill="#e6bd2b" points="333.9916132812658,216.83 331.8816744148702,239.02 312.1684245649035,239.02" stroke="none" /><polygon fill="#e4ba27" points="333.9916132812658,216.83 356.70719651444335,216.83 331.8816744148702,239.02" stroke="none" /><polygon fill="#e2b624" points="356.70719651444335,216.83 351.5662492498336,239.02 331.8816744148702,239.02" stroke="none" /><polygon fill="#f4cf3c" points="259.0,239.02 224.47313774755492,239.02 254.0,264.38" stroke="none" /><polygon fill="#f0ca37" points="224.47313774755492,239.02 220.60428980790792,264.38 254.0,264.38" stroke="none" /><polygon fill="#ecc533" points="224.47313774755492,239.02 200.8315754350965,239.02 220.60428980790792,264.38" stroke="none" /><polygon fill="#e8c02e" points="200.8315754350965,239.02 191.7893578442018,264.38 220.60428980790792,264.38" stroke="none" /><polygon fill="#e5bd2b" points="200.8315754350965,239.02 178.1183255851298,239.02 191.7893578442018,264.38" stroke="none" /><polygon fill="#e2b727" points="178.1183255851298,239.02 170.33741227323688,264.38 191.7893578442018,264.38" stroke="none" /><polygon fill="#e0b625" points="178.1183255851298,239.02 160.4337507501664,239.02 170.33741227323688,264.38" stroke="none" /><polygon fill="#ddb121" points="160.4337507501664,239.02 147.74027214517548,264.38 170.33741227323688,264.38" stroke="none" /><polygon fill="#e5bc2b" points="160.4337507501664,239.02 259,239.02 147.74027214517548,264.38" stroke="none" /><polygon fill="#ecc533" points="259,239.02 255,264.38 147.74027214517548,264.38" stroke="none" /><polygon fill="#f7d340" points="259,239.02 254.0,239.02 255,264.38" stroke="none" /><polygon fill="#f5d13d" points="254.0,239.02 256.0,264.38 255,264.38" stroke="none" /><polygon fill="#f4cf3c" points="254.0,239.02 291.5268622524451,239.02 256.0,264.38" stroke="none" /><polygon fill="#efc936" points="291.5268622524451,239.02 293.3957101920921,264.38 256.0,264.38" stroke="none" /><polygon fill="#ebc432" points="291.5268622524451,239.02 312.1684245649035,239.02 293.3957101920921,264.38" stroke="none" /><polygon fill="#e8c02e" points="312.1684245649035,239.02 317.2106421557982,264.38 293.3957101920921,264.38" stroke="none" /><polygon fill="#e6bd2b" points="312.1684245649035,239.02 331.8816744148702,239.02 317.2106421557982,264.38" stroke="none" /><polygon fill="#e2b827" points="331.8816744148702,239.02 339.66258772676315,264.38 317.2106421557982,264.38" stroke="none" /><polygon fill="#e0b625" points="331.8816744148702,239.02 351.5662492498336,239.02 339.66258772676315,264.38" stroke="none" /><polygon fill="#ddb121" points="351.5662492498336,239.02 363.2597278548245,264.38 339.66258772676315,264.38" stroke="none" /><polygon fill="#f2cc36" points="254.0,264.38 220.60428980790792,264.38 256.0,291.325" stroke="none" /><polygon fill="#eec731" points="220.60428980790792,264.38 225.4349528653758,291.325 256.0,291.325" stroke="none" /><polygon fill="#e9c12e" points="220.60428980790792,264.38 191.7893578442018,264.38 225.4349528653758,291.325" stroke="none" /><polygon fill="#e7be2b" points="191.7893578442018,264.38 207.0371898845999,291.325 225.4349528653758,291.325" stroke="none" /><polygon fill="#e2b828" points="191.7893578442018,264.38 170.33741227323688,264.38 207.0371898845999,291.325" stroke="none" /><polygon fill="#e1b626" points="170.33741227323688,264.38 187.11897949997922,291.325 207.0371898845999,291.325" stroke="none" /><polygon fill="#dcb122" points="170.33741227323688,264.38 147.74027214517548,264.38 187.11897949997922,291.325" stroke="none" /><polygon fill="#daae20" points="147.74027214517548,264.38 163.40894807689642,291.325 187.11897949997922,291.325" stroke="none" /><polygon fill="#e2b827" points="147.74027214517548,264.38 255,264.38 163.40894807689642,291.325" stroke="none" /><polygon fill="#ecc42f" points="255,264.38 259,291.325 163.40894807689642,291.325" stroke="none" /><polygon fill="#f5d039" points="255,264.38 256.0,264.38 259,291.325" stroke="none" /><polygon fill="#f5d037" points="256.0,264.38 253.0,291.325 259,291.325" stroke="none" /><polygon fill="#f2cc36" points="256.0,264.38 293.3957101920921,264.38 253.0,291.325" stroke="none" /><polygon fill="#eec831" points="293.3957101920921,264.38 283.5650471346242,291.325 253.0,291.325" stroke="none" /><polygon fill="#e9c12e" points="293.3957101920921,264.38 317.2106421557982,264.38 283.5650471346242,291.325" stroke="none" /><polygon fill="#e7be2b" points="317.2106421557982,264.38 308.9628101154001,291.325 283.5650471346242,291.325" stroke="none" /><polygon fill="#e2b928" points="317.2106421557982,264.38 339.66258772676315,264.38 308.9628101154001,291.325" stroke="none" /><polygon fill="#e0b625" points="339.66258772676315,264.38 327.8810205000208,291.325 308.9628101154001,291.325" stroke="none" /><polygon fill="#dcb122" points="339.66258772676315,264.38 363.2597278548245,264.38 327.8810205000208,291.325" stroke="none" /><polygon fill="#dbae20" points="363.2597278548245,264.38 344.5910519231036,291.325 327.8810205000208,291.325" stroke="none" /><polygon fill="#f1ca30" points="256.0,291.325 225.4349528653758,291.325 258.0,318.27" stroke="none" /><polygon fill="#eec62d" points="225.4349528653758,291.325 234.76099864519142,318.27 258.0,318.27" stroke="none" /><polygon fill="#eac12b" points="225.4349528653758,291.325 207.0371898845999,291.325 234.76099864519142,318.27" stroke="none" /><polygon fill="#e7bd28" points="207.0371898845999,291.325 210.3981188309425,318.27 234.76099864519142,318.27" stroke="none" /><polygon fill="#e3b927" points="207.0371898845999,291.325 187.11897949997922,291.325 210.3981188309425,318.27" stroke="none" /><polygon fill="#e1b625" points="187.11897949997922,291.325 199.70781497954334,318.27 210.3981188309425,318.27" stroke="none" /><polygon fill="#ddb223" points="187.11897949997922,291.325 163.40894807689642,291.325 199.70781497954334,318.27" stroke="none" /><polygon fill="#dcaf21" points="163.40894807689642,291.325 183.5484807430043,318.27 199.70781497954334,318.27" stroke="none" /><polygon fill="#e3b927" points="163.40894807689642,291.325 259,291.325 183.5484807430043,318.27" stroke="none" /><polygon fill="#ecc32c" points="259,291.325 257,318.27 183.5484807430043,318.27" stroke="none" /><polygon fill="#f4cd32" points="259,291.325 253.0,291.325 257,318.27" stroke="none" /><polygon fill="#f3cc30" points="253.0,291.325 255.0,318.27 257,318.27" stroke="none" /><polygon fill="#f2ca31" points="253.0,291.325 283.5650471346242,291.325 255.0,318.27" stroke="none" /><polygon fill="#eec62d" points="283.5650471346242,291.325 282.2390013548086,318.27 255.0,318.27" stroke="none" /><polygon fill="#e9c02b" points="283.5650471346242,291.325 308.9628101154001,291.325 282.2390013548086,318.27" stroke="none" /><polygon fill="#e6bc28" points="308.9628101154001,291.325 299.6018811690575,318.27 282.2390013548086,318.27" stroke="none" /><polygon fill="#e2b826" points="308.9628101154001,291.325 327.8810205000208,291.325 299.6018811690575,318.27" stroke="none" /><polygon fill="#e1b625" points="327.8810205000208,291.325 311.29218502045666,318.27 299.6018811690575,318.27" stroke="none" /><polygon fill="#ddb223" points="327.8810205000208,291.325 344.5910519231036,291.325 311.29218502045666,318.27" stroke="none" /><polygon fill="#dcb021" points="344.5910519231036,291.325 330.4515192569957,318.27 311.29218502045666,318.27" stroke="none" /><polygon fill="#f2c92b" points="258.0,318.27 234.76099864519142,318.27 259.0,346.8" stroke="none" /><polygon fill="#efc629" points="234.76099864519142,318.27 237.17869983042397,346.8 259.0,346.8" stroke="none" /><polygon fill="#e9c027" points="234.76099864519142,318.27 210.3981188309425,318.27 237.17869983042397,346.8" stroke="none" /><polygon fill="#e8be26" points="210.3981188309425,318.27 222.67771485347242,346.8 237.17869983042397,346.8" stroke="none" /><polygon fill="#e4b924" points="210.3981188309425,318.27 199.70781497954334,318.27 222.67771485347242,346.8" stroke="none" /><polygon fill="#e4b924" points="199.70781497954334,318.27 212.8769268719112,346.8 222.67771485347242,346.8" stroke="none" /><polygon fill="#dfb422" points="199.70781497954334,318.27 183.5484807430043,318.27 212.8769268719112,346.8" stroke="none" /><polygon fill="#e0b422" points="183.5484807430043,318.27 204.99606009219383,346.8 212.8769268719112,346.8" stroke="none" /><polygon fill="#e5bb25" points="183.5484807430043,318.27 257,318.27 204.99606009219383,346.8" stroke="none" /><polygon fill="#edc429" points="257,318.27 255,346.8 204.99606009219383,346.8" stroke="none" /><polygon fill="#f3cb2b" points="257,318.27 255.0,318.27 255,346.8" stroke="none" /><polygon fill="#f3cb2b" points="255.0,318.27 257.0,346.8 255,346.8" stroke="none" /><polygon fill="#f0c82a" points="255.0,318.27 282.2390013548086,318.27 257.0,346.8" stroke="none" /><polygon fill="#eec529" points="282.2390013548086,318.27 272.82130016957603,346.8 257.0,346.8" stroke="none" /><polygon fill="#e9bf27" points="282.2390013548086,318.27 299.6018811690575,318.27 272.82130016957603,346.8" stroke="none" /><polygon fill="#e9bf26" points="299.6018811690575,318.27 286.3222851465276,346.8 272.82130016957603,346.8" stroke="none" /><polygon fill="#e4ba24" points="299.6018811690575,318.27 311.29218502045666,318.27 286.3222851465276,346.8" stroke="none" /><polygon fill="#e5ba25" points="311.29218502045666,318.27 296.12307312808883,346.8 286.3222851465276,346.8" stroke="none" /><polygon fill="#dfb422" points="311.29218502045666,318.27 330.4515192569957,318.27 296.12307312808883,346.8" stroke="none" /><polygon fill="#dfb422" points="330.4515192569957,318.27 313.00393990780617,346.8 296.12307312808883,346.8" stroke="none" /><polygon fill="#f2c92b" points="259.0,346.8 237.17869983042397,346.8 256.0,378.5" stroke="none" /><polygon fill="#f1c92a" points="237.17869983042397,346.8 254.7131,378.5 256.0,378.5" stroke="none" /><polygon fill="#edc429" points="237.17869983042397,346.8 222.67771485347242,346.8 254.7131,378.5" stroke="none" /><polygon fill="#efc629" points="222.67771485347242,346.8 252.9806,378.5 254.7131,378.5" stroke="none" /><polygon fill="#eac027" points="222.67771485347242,346.8 212.8769268719112,346.8 252.9806,378.5" stroke="none" /><polygon fill="#edc429" points="212.8769268719112,346.8 249.5946,378.5 252.9806,378.5" stroke="none" /><polygon fill="#e8be26" points="212.8769268719112,346.8 204.99606009219383,346.8 249.5946,378.5" stroke="none" /><polygon fill="#ecc228" points="204.99606009219383,346.8 248.07,378.5 249.5946,378.5" stroke="none" /><polygon fill="#ecc328" points="204.99606009219383,346.8 255,346.8 248.07,378.5" stroke="none" /><polygon fill="#f2ca2b" points="255,346.8 255,378.5 248.07,378.5" stroke="none" /><polygon fill="#f3cb2b" points="255,346.8 257.0,346.8 255,378.5" stroke="none" /><polygon fill="#f4cc2c" points="257.0,346.8 256.0,378.5 255,378.5" stroke="none" /><polygon fill="#f1c92b" points="257.0,346.8 272.82130016957603,346.8 256.0,378.5" stroke="none" /><polygon fill="#f1c92a" points="272.82130016957603,346.8 259.2869,378.5 256.0,378.5" stroke="none" /><polygon fill="#eec529" points="272.82130016957603,346.8 286.3222851465276,346.8 259.2869,378.5" stroke="none" /><polygon fill="#efc629" points="286.3222851465276,346.8 259.0194,378.5 259.2869,378.5" stroke="none" /><polygon fill="#ebc127" points="286.3222851465276,346.8 296.12307312808883,346.8 259.0194,378.5" stroke="none" /><polygon fill="#eec529" points="296.12307312808883,346.8 260.4054,378.5 259.0194,378.5" stroke="none" /><polygon fill="#e8bd26" points="296.12307312808883,346.8 313.00393990780617,346.8 260.4054,378.5" stroke="none" /><polygon fill="#ecc228" points="313.00393990780617,346.8 261.93,378.5 260.4054,378.5" stroke="none" /><path d="M 228 198 L 212 217 L 228 236 Z" fill="#f4cc2c" stroke="#d2a41c" stroke-width="1" /><path d="M 284 198 L 300 217 L 284 236 Z" fill="#f4cc2c" stroke="#d2a41c" stroke-width="1" /><path d="M 190 207 A 30 19 0 0 0 250 207 Z" fill="#e8e0d8" stroke="#3a2a1a" stroke-width="1.5" /><path d="M 211 210 A 9 9 0 0 0 229 210 Z" fill="#3a2a1a" stroke="none" /><circle cx="223" cy="204" fill="white" r="4" stroke="none" /><path d="M 188 207 Q 220 200 252 207" fill="none" stroke="#3a2a1a" stroke-width="5" /><path d="M 262 207 A 30 19 0 0 0 322 207 Z" fill="#e8e0d8" stroke="#3a2a1a" stroke-width="1.5" /><path d="M 283 210 A 9 9 0 0 0 301 210 Z" fill="#3a2a1a" stroke="none" /><circle cx="295" cy="204" fill="white" r="4" stroke="none" /><path d="M 260 207 Q 292 200 324 207" fill="none" stroke="#3a2a1a" stroke-width="5" /><line stroke="#3a2a1a" stroke-width="2" x1="277" x2="277" y1="206" y2="200" /><line stroke="#3a2a1a" stroke-width="2" x1="292" x2="292" y1="206" y2="200" /><line stroke="#3a2a1a" stroke-width="2" x1="307" x2="307" y1="206" y2="200" /><line stroke="#3a2a1a" stroke-width="3" x1="197" x2="243" y1="188" y2="188" /><line stroke="#3a2a1a" stroke-width="3" x1="269" x2="315" y1="188" y2="188" /><path d="M 194 235 A 12 8 0 0 0 218 235 Z" fill="#e88060" fill-opacity="0.2013085000270218" stroke="none" /><path d="M 297 229 A 13 9 0 0 0 323 229 Z" fill="#e88060" fill-opacity="0.2845853658628954" stroke="none" /><circle cx="256" cy="233" fill="#d2a41c" r="5" stroke="none" /><line stroke="#a04030" stroke-width="3" x1="225" x2="287" y1="253" y2="253" /><ellipse cx="233" cy="165" fill="white" fill-opacity="0.18" rx="15" ry="9" stroke="none" /><ellipse cx="279" cy="165" fill="white" fill-opacity="0.18" rx="15" ry="9" stroke="none" /><ellipse cx="256" cy="141" fill="white" fill-opacity="0.18" rx="15" ry="9" stroke="none" /><ellipse cx="216" cy="227" fill="white" fill-opacity="0.18" rx="15" ry="9" stroke="none" /><ellipse cx="296" cy="227" fill="white" fill-opacity="0.18" rx="15" ry="9" stroke="none" /><ellipse cx="239" cy="243" fill="white" fill-opacity="0.18" rx="15" ry="9" stroke="none" /><ellipse cx="273" cy="243" fill="white" fill-opacity="0.18" rx="15" ry="9" stroke="none" /><ellipse cx="256" cy="197" fill="white" fill-opacity="0.12" rx="5" ry="28" stroke="none" /><polygon fill="#b69018" points="242,374.5 270,374.5 270,409.5 242,409.5" stroke="none" /><path d="M 253 392.5 Q 256 382.5 259 392.5" fill="none" stroke="#d2a41c" stroke-width="1.5" /></svg>