<?xml version="1.0" encoding="utf-8" ?>
<svg baseProfile="full" height="512" version="1.1" width="512" xmlns="http://www.w3.org/2000/svg" xmlns:ev="http://www.w3.org/2001/xml-events" xmlns:xlink="http://www.w3.org/1999/xlink"><defs /><polygon fill="#fce16c" points="255.0,129.0 253.812,129.0 253.0,149.01999999999998" stroke="none" /><polygon fill="#fce06a" points="253.812,129.0 248.20257262002366,149.01999999999998 253.0,149.01999999999998" stroke="none" /><polygon fill="#fce069" points="253.812,129.0 252.912,129.0 248.20257262002366,149.01999999999998" stroke="none" /><polygon fill="#fbde66" points="252.912,129.0 241.78027915034465,149.01999999999998 248.20257262002366,149.01999999999998" stroke="none" /><polygon fill="#fbdf68" points="252.912,129.0 254.192,129.0 241.78027915034465,149.01999999999998" stroke="none" /><polygon fill="#fbdd62" points="254.192,129.0 234.8424443746014,149.01999999999998 241.78027915034465,149.01999999999998" stroke="none" /><polygon fill="#fbde65" points="254.192,129.0 252.4,129.0 234.8424443746014,149.01999999999998" stroke="none" /><polygon fill="#fadb5d" points="252.4,129.0 226.31082612128387,149.01999999999998 234.8424443746014,149.01999999999998" stroke="none" /><polygon fill="#fbdd63" points="252.4,129.0 255,129.0 226.31082612128387,149.01999999999998" stroke="none" /><polygon fill="#fbde63" points="255,129.0 254,149.01999999999998 226.31082612128387,149.01999999999998" stroke="none" /><polygon fill="#fce16c" points="255,129.0 255.0,129.0 254,149.01999999999998" stroke="none" /><polygon fill="#fce16c" points="255.0,129.0 253.0,149.01999999999998 254,149.01999999999998" stroke="none" /><polygon fill="#fce16c" points="255.0,129.0 256.188,129.0 253.0,149.01999999999998" stroke="none" /><polygon fill="#fce16c" points="256.188,129.0 262.79742737997634,149.01999999999998 253.0,149.01999999999998" stroke="none" /><polygon fill="#fce16b" points="256.188,129.0 257.088,129.0 262.79742737997634,149.01999999999998" stroke="none" /><polygon fill="#fbde65" points="257.088,129.0 276.21972084965535,149.01999999999998 262.79742737997634,149.01999999999998" stroke="none" /><polygon fill="#fbdf66" points="257.088,129.0 257.808,129.0 276.21972084965535,149.01999999999998" stroke="none" /><polygon fill="#fadc60" points="257.808,129.0 277.1575556253986,149.01999999999998 276.21972084965535,149.01999999999998" stroke="none" /><polygon fill="#fbde65" points="257.808,129.0 260.6,129.0 277.1575556253986,149.01999999999998" stroke="none" /><polygon fill="#fadb5c" points="260.6,129.0 285.68917387871613,149.01999999999998 277.1575556253986,149.01999999999998" stroke="none" /><polygon fill="#fce06b" points="253.0,149.01999999999998 248.20257262002366,149.01999999999998 258.0,169.95" stroke="none" /><polygon fill="#fade64" points="248.20257262002366,149.01999999999998 239.32949344790592,169.95 258.0,169.95" stroke="none" /><polygon fill="#fadd62" points="248.20257262002366,149.01999999999998 241.78027915034465,149.01999999999998 239.32949344790592,169.95" stroke="none" /><polygon fill="#f8da5b" points="241.78027915034465,149.01999999999998 233.97304909025888,169.95 239.32949344790592,169.95" stroke="none" /><polygon fill="#f9db5c" points="241.78027915034465,149.01999999999998 234.8424443746014,149.01999999999998 233.97304909025888,169.95" stroke="none" /><polygon fill="#f7d755" points="234.8424443746014,149.01999999999998 225.68789360414127,169.95 233.97304909025888,169.95" stroke="none" /><polygon fill="#f8d855" points="234.8424443746014,149.01999999999998 226.31082612128387,149.01999999999998 225.68789360414127,169.95" stroke="none" /><polygon fill="#f5d44d" points="226.31082612128387,149.01999999999998 215.5742225694119,169.95 225.68789360414127,169.95" stroke="none" /><polygon fill="#f9d957" points="226.31082612128387,149.01999999999998 254,149.01999999999998 215.5742225694119,169.95" stroke="none" /><polygon fill="#f9db5e" points="254,149.01999999999998 257,169.95 215.5742225694119,169.95" stroke="none" /><polygon fill="#fce16c" points="254,149.01999999999998 253.0,149.01999999999998 257,169.95" stroke="none" /><polygon fill="#fce16b" points="253.0,149.01999999999998 258.0,169.95 257,169.95" stroke="none" /><polygon fill="#fce16c" points="253.0,149.01999999999998 262.79742737997634,149.01999999999998 258.0,169.95" stroke="none" /><polygon fill="#fadd63" points="262.79742737997634,149.01999999999998 272.6705065520941,169.95 258.0,169.95" stroke="none" /><polygon fill="#fadc60" points="262.79742737997634,149.01999999999998 276.21972084965535,149.01999999999998 272.6705065520941,169.95" stroke="none" /><polygon fill="#f8d95a" points="276.21972084965535,149.01999999999998 277.0269509097411,169.95 272.6705065520941,169.95" stroke="none" /><polygon fill="#f9da5a" points="276.21972084965535,149.01999999999998 277.1575556253986,149.01999999999998 277.0269509097411,169.95" stroke="none" /><polygon fill="#f7d754" points="277.1575556253986,149.01999999999998 291.31210639585873,169.95 277.0269509097411,169.95" stroke="none" /><polygon fill="#f8d753" points="277.1575556253986,149.01999999999998 285.68917387871613,149.01999999999998 291.31210639585873,169.95" stroke="none" /><polygon fill="#f5d34a" points="285.68917387871613,149.01999999999998 300.42577743058814,169.95 291.31210639585873,169.95" stroke="none" /><polygon fill="#fadd62" points="258.0,169.95 239.32949344790592,169.95 259.0,188.15" stroke="none" /><polygon fill="#f8d95b" points="239.32949344790592,169.95 237.12465372692805,188.15 259.0,188.15" stroke="none" /><polygon fill="#f6d656" points="239.32949344790592,169.95 233.97304909025888,169.95 237.12465372692805,188.15" stroke="none" /><polygon fill="#f4d350" points="233.97304909025888,169.95 223.34030048975234,188.15 237.12465372692805,188.15" stroke="none" /><polygon fill="#f4d34e" points="233.97304909025888,169.95 225.68789360414127,169.95 223.34030048975234,188.15" stroke="none" /><polygon fill="#f1ce48" points="225.68789360414127,169.95 214.11281790001175,188.15 223.34030048975234,188.15" stroke="none" /><polygon fill="#f1cf47" points="225.68789360414127,169.95 215.5742225694119,169.95 214.11281790001175,188.15" stroke="none" /><polygon fill="#efca40" points="215.5742225694119,169.95 206.8625870512971,188.15 214.11281790001175,188.15" stroke="none" /><polygon fill="#f3d24d" points="215.5742225694119,169.95 257,169.95 206.8625870512971,188.15" stroke="none" /><polygon fill="#f6d757" points="257,169.95 257,188.15 206.8625870512971,188.15" stroke="none" /><polygon fill="#fade64" points="257,169.95 258.0,169.95 257,188.15" stroke="none" /><polygon fill="#fadd63" points="258.0,169.95 254.0,188.15 257,188.15" stroke="none" /><polygon fill="#f9dc61" points="258.0,169.95 272.6705065520941,169.95 254.0,188.15" stroke="none" /><polygon fill="#f8d95b" points="272.6705065520941,169.95 274.87534627307195,188.15 254.0,188.15" stroke="none" /><polygon fill="#f6d756" points="272.6705065520941,169.95 277.0269509097411,169.95 274.87534627307195,188.15" stroke="none" /><polygon fill="#f4d351" points="277.0269509097411,169.95 286.65969951024766,188.15 274.87534627307195,188.15" stroke="none" /><polygon fill="#f4d24e" points="277.0269509097411,169.95 291.31210639585873,169.95 286.65969951024766,188.15" stroke="none" /><polygon fill="#f1ce48" points="291.31210639585873,169.95 294.88718209998825,188.15 286.65969951024766,188.15" stroke="none" /><polygon fill="#f1ce45" points="291.31210639585873,169.95 300.42577743058814,169.95 294.88718209998825,188.15" stroke="none" /><polygon fill="#efca40" points="300.42577743058814,169.95 307.1374129487029,188.15 294.88718209998825,188.15" stroke="none" /><polygon fill="#f8d95c" points="259.0,188.15 237.12465372692805,188.15 257.0,203.62" stroke="none" /><polygon fill="#f5d554" points="237.12465372692805,188.15 235.0207020628073,203.62 257.0,203.62" stroke="none" /><polygon fill="#f2d04e" points="237.12465372692805,188.15 223.34030048975234,188.15 235.0207020628073,203.62" stroke="none" /><polygon fill="#f1ce4a" points="223.34030048975234,188.15 226.40002180735826,203.62 235.0207020628073,203.62" stroke="none" /><polygon fill="#efcc46" points="223.34030048975234,188.15 214.11281790001175,188.15 226.40002180735826,203.62" stroke="none" /><polygon fill="#edc942" points="214.11281790001175,188.15 213.50347760299903,203.62 226.40002180735826,203.62" stroke="none" /><polygon fill="#ecc73f" points="214.11281790001175,188.15 206.8625870512971,188.15 213.50347760299903,203.62" stroke="none" /><polygon fill="#eac43a" points="206.8625870512971,188.15 201.51727897820388,203.62 213.50347760299903,203.62" stroke="none" /><polygon fill="#efcc46" points="206.8625870512971,188.15 257,188.15 201.51727897820388,203.62" stroke="none" /><polygon fill="#f4d350" points="257,188.15 255,203.62 201.51727897820388,203.62" stroke="none" /><polygon fill="#f9db5f" points="257,188.15 254.0,188.15 255,203.62" stroke="none" /><polygon fill="#f9db5d" points="254.0,188.15 255.0,203.62 255,203.62" stroke="none" /><polygon fill="#f8d95c" points="254.0,188.15 274.87534627307195,188.15 255.0,203.62" stroke="none" /><polygon fill="#f5d554" points="274.87534627307195,188.15 275.9792979371927,203.62 255.0,203.62" stroke="none" /><polygon fill="#f3d14e" points="274.87534627307195,188.15 286.65969951024766,188.15 275.9792979371927,203.62" stroke="none" /><polygon fill="#f1ce4a" points="286.65969951024766,188.15 287.59997819264174,203.62 275.9792979371927,203.62" stroke="none" /><polygon fill="#efcc47" points="286.65969951024766,188.15 294.88718209998825,188.15 287.59997819264174,203.62" stroke="none" /><polygon fill="#eeca43" points="294.88718209998825,188.15 295.49652239700094,203.62 287.59997819264174,203.62" stroke="none" /><polygon fill="#edc840" points="294.88718209998825,188.15 307.1374129487029,188.15 295.49652239700094,203.62" stroke="none" /><polygon fill="#eac43b" points="307.1374129487029,188.15 310.4827210217961,203.62 295.49652239700094,203.62" stroke="none" /><polygon fill="#f6d655" points="257.0,203.62 235.0207020628073,203.62 253.0,218.18" stroke="none" /><polygon fill="#f3d14e" points="235.0207020628073,203.62 233.84628309232573,218.18 253.0,218.18" stroke="none" /><polygon fill="#f0cd4a" points="235.0207020628073,203.62 226.40002180735826,203.62 233.84628309232573,218.18" stroke="none" /><polygon fill="#edc945" points="226.40002180735826,203.62 220.3358914956028,218.18 233.84628309232573,218.18" stroke="none" /><polygon fill="#ecc842" points="226.40002180735826,203.62 213.50347760299903,203.62 220.3358914956028,218.18" stroke="none" /><polygon fill="#e9c33d" points="213.50347760299903,203.62 210.72757821822444,218.18 220.3358914956028,218.18" stroke="none" /><polygon fill="#e7c23a" points="213.50347760299903,203.62 201.51727897820388,203.62 210.72757821822444,218.18" stroke="none" /><polygon fill="#e6bf38" points="201.51727897820388,203.62 196.95843361310827,218.18 210.72757821822444,218.18" stroke="none" /><polygon fill="#ebc641" points="201.51727897820388,203.62 255,203.62 196.95843361310827,218.18" stroke="none" /><polygon fill="#f1ce4b" points="255,203.62 256,218.18 196.95843361310827,218.18" stroke="none" /><polygon fill="#f8d95a" points="255,203.62 255.0,203.62 256,218.18" stroke="none" /><polygon fill="#f8d858" points="255.0,203.62 253.0,218.18 256,218.18" stroke="none" /><polygon fill="#f7d757" points="255.0,203.62 275.9792979371927,203.62 253.0,218.18" stroke="none" /><polygon fill="#f4d351" points="275.9792979371927,203.62 272.15371690767427,218.18 253.0,218.18" stroke="none" /><polygon fill="#f0ce4b" points="275.9792979371927,203.62 287.59997819264174,203.62 272.15371690767427,218.18" stroke="none" /><polygon fill="#eecb47" points="287.59997819264174,203.62 288.6641085043972,218.18 272.15371690767427,218.18" stroke="none" /><polygon fill="#ecc843" points="287.59997819264174,203.62 295.49652239700094,203.62 288.6641085043972,218.18" stroke="none" /><polygon fill="#eac43f" points="295.49652239700094,203.62 299.27242178177556,218.18 288.6641085043972,218.18" stroke="none" /><polygon fill="#e8c33b" points="295.49652239700094,203.62 310.4827210217961,203.62 299.27242178177556,218.18" stroke="none" /><polygon fill="#e6bf38" points="310.4827210217961,203.62 317.04156638689176,218.18 299.27242178177556,218.18" stroke="none" /><polygon fill="#f4d351" points="253.0,218.18 233.84628309232573,218.18 257.0,230.92" stroke="none" /><polygon fill="#f2d14c" points="233.84628309232573,218.18 240.756435301631,230.92 257.0,230.92" stroke="none" /><polygon fill="#edca46" points="233.84628309232573,218.18 220.3358914956028,218.18 240.756435301631,230.92" stroke="none" /><polygon fill="#ebc843" points="220.3358914956028,218.18 223.6931287119575,230.92 240.756435301631,230.92" stroke="none" /><polygon fill="#e8c33e" points="220.3358914956028,218.18 210.72757821822444,218.18 223.6931287119575,230.92" stroke="none" /><polygon fill="#e6c13c" points="210.72757821822444,218.18 212.2424834402187,230.92 223.6931287119575,230.92" stroke="none" /><polygon fill="#e3bd37" points="210.72757821822444,218.18 196.95843361310827,218.18 212.2424834402187,230.92" stroke="none" /><polygon fill="#e2bc37" points="196.95843361310827,218.18 204.74677364130605,230.92 212.2424834402187,230.92" stroke="none" /><polygon fill="#e8c43f" points="196.95843361310827,218.18 256,218.18 204.74677364130605,230.92" stroke="none" /><polygon fill="#f0ce4a" points="256,218.18 257,230.92 204.74677364130605,230.92" stroke="none" /><polygon fill="#f7d755" points="256,218.18 253.0,218.18 257,230.92" stroke="none" /><polygon fill="#f7d753" points="253.0,218.18 256.0,230.92 257,230.92" stroke="none" /><polygon fill="#f6d553" points="253.0,218.18 272.15371690767427,218.18 256.0,230.92" stroke="none" /><polygon fill="#f2d14d" points="272.15371690767427,218.18 275.243564698369,230.92 256.0,230.92" stroke="none" /><polygon fill="#eecb47" points="272.15371690767427,218.18 288.6641085043972,218.18 275.243564698369,230.92" stroke="none" /><polygon fill="#ebc843" points="288.6641085043972,218.18 289.3068712880425,230.92 275.243564698369,230.92" stroke="none" /><polygon fill="#e8c43f" points="288.6641085043972,218.18 299.27242178177556,218.18 289.3068712880425,230.92" stroke="none" /><polygon fill="#e6c23d" points="299.27242178177556,218.18 295.75751655978127,230.92 289.3068712880425,230.92" stroke="none" /><polygon fill="#e3be38" points="299.27242178177556,218.18 317.04156638689176,218.18 295.75751655978127,230.92" stroke="none" /><polygon fill="#e2bc37" points="317.04156638689176,218.18 310.25322635869395,230.92 295.75751655978127,230.92" stroke="none" /><polygon fill="#f6d34e" points="257.0,230.92 240.756435301631,230.92 258.0,245.48000000000002" stroke="none" /><polygon fill="#f2d04a" points="240.756435301631,230.92 240.6097249535829,245.48000000000002 258.0,245.48000000000002" stroke="none" /><polygon fill="#edc945" points="240.756435301631,230.92 223.6931287119575,230.92 240.6097249535829,245.48000000000002" stroke="none" /><polygon fill="#ebc742" points="223.6931287119575,230.92 229.19284991841846,245.48000000000002 240.6097249535829,245.48000000000002" stroke="none" /><polygon fill="#e7c23e" points="223.6931287119575,230.92 212.2424834402187,230.92 229.19284991841846,245.48000000000002" stroke="none" /><polygon fill="#e5c03c" points="212.2424834402187,230.92 219.2593498902869,245.48000000000002 229.19284991841846,245.48000000000002" stroke="none" /><polygon fill="#e2bc39" points="212.2424834402187,230.92 204.74677364130605,230.92 219.2593498902869,245.48000000000002" stroke="none" /><polygon fill="#e1bb37" points="204.74677364130605,230.92 209.3324998593422,245.48000000000002 219.2593498902869,245.48000000000002" stroke="none" /><polygon fill="#e8c33f" points="204.74677364130605,230.92 257,230.92 209.3324998593422,245.48000000000002" stroke="none" /><polygon fill="#efcc47" points="257,230.92 256,245.48000000000002 209.3324998593422,245.48000000000002" stroke="none" /><polygon fill="#f7d550" points="257,230.92 256.0,230.92 256,245.48000000000002" stroke="none" /><polygon fill="#f6d54e" points="256.0,230.92 253.0,245.48000000000002 256,245.48000000000002" stroke="none" /><polygon fill="#f5d24e" points="256.0,230.92 275.243564698369,230.92 253.0,245.48000000000002" stroke="none" /><polygon fill="#f1cf49" points="275.243564698369,230.92 272.39027504641706,245.48000000000002 253.0,245.48000000000002" stroke="none" /><polygon fill="#ecc844" points="275.243564698369,230.92 289.3068712880425,230.92 272.39027504641706,245.48000000000002" stroke="none" /><polygon fill="#eac541" points="289.3068712880425,230.92 286.80715008158154,245.48000000000002 272.39027504641706,245.48000000000002" stroke="none" /><polygon fill="#e7c13e" points="289.3068712880425,230.92 295.75751655978127,230.92 286.80715008158154,245.48000000000002" stroke="none" /><polygon fill="#e5c03c" points="295.75751655978127,230.92 292.7406501097131,245.48000000000002 286.80715008158154,245.48000000000002" stroke="none" /><polygon fill="#e3bc39" points="295.75751655978127,230.92 310.25322635869395,230.92 292.7406501097131,245.48000000000002" stroke="none" /><polygon fill="#e0b936" points="310.25322635869395,230.92 307.6675001406578,245.48000000000002 292.7406501097131,245.48000000000002" stroke="none" /><polygon fill="#f5d149" points="258.0,245.48000000000002 240.6097249535829,245.48000000000002 259.0,260.95" stroke="none" /><polygon fill="#f0cc45" points="240.6097249535829,245.48000000000002 236.37028090999706,260.95 259.0,260.95" stroke="none" /><polygon fill="#ebc741" points="240.6097249535829,245.48000000000002 229.19284991841846,245.48000000000002 236.37028090999706,260.95" stroke="none" /><polygon fill="#e8c23e" points="229.19284991841846,245.48000000000002 224.77200887211603,260.95 236.37028090999706,260.95" stroke="none" /><polygon fill="#e5c03c" points="229.19284991841846,245.48000000000002 219.2593498902869,245.48000000000002 224.77200887211603,260.95" stroke="none" /><polygon fill="#e2bb39" points="219.2593498902869,245.48000000000002 214.6933912418112,260.95 224.77200887211603,260.95" stroke="none" /><polygon fill="#e0ba37" points="219.2593498902869,245.48000000000002 209.3324998593422,245.48000000000002 214.6933912418112,260.95" stroke="none" /><polygon fill="#dcb534" points="209.3324998593422,245.48000000000002 204.60691184847593,260.95 214.6933912418112,260.95" stroke="none" /><polygon fill="#e5bf3b" points="209.3324998593422,245.48000000000002 256,245.48000000000002 204.60691184847593,260.95" stroke="none" /><polygon fill="#ecc741" points="256,245.48000000000002 254,260.95 204.60691184847593,260.95" stroke="none" /><polygon fill="#f6d24a" points="256,245.48000000000002 253.0,245.48000000000002 254,260.95" stroke="none" /><polygon fill="#f5d249" points="253.0,245.48000000000002 259.0,260.95 254,260.95" stroke="none" /><polygon fill="#f4d048" points="253.0,245.48000000000002 272.39027504641706,245.48000000000002 259.0,260.95" stroke="none" /><polygon fill="#eeca44" points="272.39027504641706,245.48000000000002 275.62971909000294,260.95 259.0,260.95" stroke="none" /><polygon fill="#eac640" points="272.39027504641706,245.48000000000002 286.80715008158154,245.48000000000002 275.62971909000294,260.95" stroke="none" /><polygon fill="#e7c13d" points="286.80715008158154,245.48000000000002 287.22799112788397,260.95 275.62971909000294,260.95" stroke="none" /><polygon fill="#e5bf3b" points="286.80715008158154,245.48000000000002 292.7406501097131,245.48000000000002 287.22799112788397,260.95" stroke="none" /><polygon fill="#e2bc39" points="292.7406501097131,245.48000000000002 294.30660875818876,260.95 287.22799112788397,260.95" stroke="none" /><polygon fill="#e0b937" points="292.7406501097131,245.48000000000002 307.6675001406578,245.48000000000002 294.30660875818876,260.95" stroke="none" /><polygon fill="#dcb434" points="307.6675001406578,245.48000000000002 308.39308815152407,260.95 294.30660875818876,260.95" stroke="none" /><polygon fill="#f3ce44" points="259.0,260.95 236.37028090999706,260.95 258.0,276.42" stroke="none" /><polygon fill="#eec93f" points="236.37028090999706,260.95 240.44896971741048,276.42 258.0,276.42" stroke="none" /><polygon fill="#e8c23d" points="236.37028090999706,260.95 224.77200887211603,260.95 240.44896971741048,276.42" stroke="none" /><polygon fill="#e7c13b" points="224.77200887211603,260.95 235.18303768514568,276.42 240.44896971741048,276.42" stroke="none" /><polygon fill="#e3bc39" points="224.77200887211603,260.95 214.6933912418112,260.95 235.18303768514568,276.42" stroke="none" /><polygon fill="#e2bc38" points="214.6933912418112,260.95 225.97029205933381,276.42 235.18303768514568,276.42" stroke="none" /><polygon fill="#ddb635" points="214.6933912418112,260.95 204.60691184847593,260.95 225.97029205933381,276.42" stroke="none" /><polygon fill="#dcb534" points="204.60691184847593,260.95 213.9362718709408,276.42 225.97029205933381,276.42" stroke="none" /><polygon fill="#e2bc39" points="204.60691184847593,260.95 254,260.95 213.9362718709408,276.42" stroke="none" /><polygon fill="#ecc73e" points="254,260.95 257,276.42 213.9362718709408,276.42" stroke="none" /><polygon fill="#f5d145" points="254,260.95 259.0,260.95 257,276.42" stroke="none" /><polygon fill="#f4cf43" points="259.0,260.95 257.0,276.42 257,276.42" stroke="none" /><polygon fill="#f1cc42" points="259.0,260.95 275.62971909000294,260.95 257.0,276.42" stroke="none" /><polygon fill="#eec93f" points="275.62971909000294,260.95 268.5510302825895,276.42 257.0,276.42" stroke="none" /><polygon fill="#e9c33d" points="275.62971909000294,260.95 287.22799112788397,260.95 268.5510302825895,276.42" stroke="none" /><polygon fill="#e8c23b" points="287.22799112788397,260.95 276.8169623148543,276.42 268.5510302825895,276.42" stroke="none" /><polygon fill="#e3bd39" points="287.22799112788397,260.95 294.30660875818876,260.95 276.8169623148543,276.42" stroke="none" /><polygon fill="#e3bd38" points="294.30660875818876,260.95 285.0297079406662,276.42 276.8169623148543,276.42" stroke="none" /><polygon fill="#deb636" points="294.30660875818876,260.95 308.39308815152407,260.95 285.0297079406662,276.42" stroke="none" /><polygon fill="#ddb534" points="308.39308815152407,260.95 294.0637281290592,276.42 285.0297079406662,276.42" stroke="none" /><polygon fill="#f2cd3e" points="258.0,276.42 240.44896971741048,276.42 258.0,292.8" stroke="none" /><polygon fill="#f0cb3d" points="240.44896971741048,276.42 249.5518941627864,292.8 258.0,292.8" stroke="none" /><polygon fill="#ebc53b" points="240.44896971741048,276.42 235.18303768514568,276.42 249.5518941627864,292.8" stroke="none" /><polygon fill="#ebc53b" points="235.18303768514568,276.42 239.1518139830791,292.8 249.5518941627864,292.8" stroke="none" /><polygon fill="#e6bf38" points="235.18303768514568,276.42 225.97029205933381,276.42 239.1518139830791,292.8" stroke="none" /><polygon fill="#e6c038" points="225.97029205933381,276.42 237.0317498393133,292.8 239.1518139830791,292.8" stroke="none" /><polygon fill="#e0ba36" points="225.97029205933381,276.42 213.9362718709408,276.42 237.0317498393133,292.8" stroke="none" /><polygon fill="#e2bb36" points="213.9362718709408,276.42 232.3996792811709,292.8 237.0317498393133,292.8" stroke="none" /><polygon fill="#e6c039" points="213.9362718709408,276.42 257,276.42 232.3996792811709,292.8" stroke="none" /><polygon fill="#f0cb3d" points="257,276.42 258,292.8 232.3996792811709,292.8" stroke="none" /><polygon fill="#f4cf3f" points="257,276.42 257.0,276.42 258,292.8" stroke="none" /><polygon fill="#f4cf3f" points="257.0,276.42 256.0,292.8 258,292.8" stroke="none" /><polygon fill="#f2cc3e" points="257.0,276.42 268.5510302825895,276.42 256.0,292.8" stroke="none" /><polygon fill="#f0ca3d" points="268.5510302825895,276.42 264.44810583721363,292.8 256.0,292.8" stroke="none" /><polygon fill="#ebc53b" points="268.5510302825895,276.42 276.8169623148543,276.42 264.44810583721363,292.8" stroke="none" /><polygon fill="#eac43a" points="276.8169623148543,276.42 273.84818601692086,292.8 264.44810583721363,292.8" stroke="none" /><polygon fill="#e6bf38" points="276.8169623148543,276.42 285.0297079406662,276.42 273.84818601692086,292.8" stroke="none" /><polygon fill="#e6c038" points="285.0297079406662,276.42 274.9682501606867,292.8 273.84818601692086,292.8" stroke="none" /><polygon fill="#e2bb36" points="285.0297079406662,276.42 294.0637281290592,276.42 274.9682501606867,292.8" stroke="none" /><polygon fill="#e2bb36" points="294.0637281290592,276.42 284.6003207188291,292.8 274.9682501606867,292.8" stroke="none" /><polygon fill="#f4cf3f" points="258.0,292.8 249.5518941627864,292.8 257.0,311.0" stroke="none" /><polygon fill="#f3ce3f" points="249.5518941627864,292.8 254.812,311.0 257.0,311.0" stroke="none" /><polygon fill="#efca3d" points="249.5518941627864,292.8 239.1518139830791,292.8 254.812,311.0" stroke="none" /><polygon fill="#f0cb3d" points="239.1518139830791,292.8 254.912,311.0 254.812,311.0" stroke="none" /><polygon fill="#ecc73c" points="239.1518139830791,292.8 237.0317498393133,292.8 254.912,311.0" stroke="none" /><polygon fill="#efca3d" points="237.0317498393133,292.8 252.192,311.0 254.912,311.0" stroke="none" /><polygon fill="#eac43b" points="237.0317498393133,292.8 232.3996792811709,292.8 252.192,311.0" stroke="none" /><polygon fill="#eec83c" points="232.3996792811709,292.8 252.4,311.0 252.192,311.0" stroke="none" /><polygon fill="#efc93d" points="232.3996792811709,292.8 258,292.8 252.4,311.0" stroke="none" /><polygon fill="#f4cf3f" points="258,292.8 255,311.0 252.4,311.0" stroke="none" /><polygon fill="#f4cf3f" points="258,292.8 256.0,292.8 255,311.0" stroke="none" /><polygon fill="#f4cf3f" points="256.0,292.8 256.0,311.0 255,311.0" stroke="none" /><polygon fill="#f3cd3f" points="256.0,292.8 264.44810583721363,292.8 256.0,311.0" stroke="none" /><polygon fill="#f3cd3f" points="264.44810583721363,292.8 256.188,311.0 256.0,311.0" stroke="none" /><polygon fill="#efc93d" points="264.44810583721363,292.8 273.84818601692086,292.8 256.188,311.0" stroke="none" /><polygon fill="#f0ca3d" points="273.84818601692086,292.8 259.088,311.0 256.188,311.0" stroke="none" /><polygon fill="#ecc63b" points="273.84818601692086,292.8 274.9682501606867,292.8 259.088,311.0" stroke="none" /><polygon fill="#efca3d" points="274.9682501606867,292.8 257.808,311.0 259.088,311.0" stroke="none" /><polygon fill="#eac43a" points="274.9682501606867,292.8 284.6003207188291,292.8 257.808,311.0" stroke="none" /><polygon fill="#edc73c" points="284.6003207188291,292.8 260.6,311.0 257.808,311.0" stroke="none" /><path d="M 242 208 A 8 22 0 0 0 242 230 Z" fill="#f5d040" stroke="#d4ac30" stroke-width="1" /><path d="M 270 208 A 8 22 0 0 1 270 230 Z" fill="#f5d040" stroke="#d4ac30" stroke-width="1" /><path d="M 219 210 Q 237 200 255 214 Q 237 227 219 210" fill="#e8e0d8" stroke="#3a2a1a" stroke-width="1.5" /><path d="M 234 214 A 4 4 0 0 0 242 214 Z" fill="#3a2a1a" stroke="none" /><circle cx="239" cy="211" fill="white" r="2" stroke="none" /><path d="M 257 212 Q 275 202 293 216 Q 275 229 257 212" fill="#e8e0d8" stroke="#3a2a1a" stroke-width="1.5" /><path d="M 272 216 A 4 4 0 0 0 280 216 Z" fill="#3a2a1a" stroke="none" /><circle cx="277" cy="213" fill="white" r="2" stroke="none" /><line stroke="#3a2a1a" stroke-width="3" x1="223" x2="244" y1="202" y2="208" /><line stroke="#3a2a1a" stroke-width="3" x1="261" x2="282" y1="198" y2="204" /><path d="M 224 228 A 6 4 0 0 0 236 228 Z" fill="#e88060" fill-opacity="0.2531502062273314" stroke="none" /><path d="M 277 228 A 6 4 0 0 0 289 228 Z" fill="#e88060" fill-opacity="0.2686321604218936" stroke="none" /><path d="M 256 222 Q 259 227 258 230 Q 256 231 254 230 Q 253 227 256 222" fill="#d4ac30" stroke="none" /><path d="M 239 242 Q 256 250 273 242" fill="none" stroke="#c06050" stroke-width="3" /><path d="M 237 240 Q 256 252 275 240" fill="none" stroke="#a04030" stroke-width="1.5" /><path d="M 237 242 Q 256 248 275 242" fill="none" stroke="#f0a0a0" stroke-width="1" /><ellipse cx="244" cy="189" fill="white" fill-opacity="0.18" rx="8" ry="5" stroke="none" /><ellipse cx="268" cy="189" fill="white" fill-opacity="0.18" rx="8" ry="5" stroke="none" /><ellipse cx="256" cy="175" fill="white" fill-opacity="0.18" rx="8" ry="5" stroke="none" /><ellipse cx="235" cy="224" fill="white" fill-opacity="0.18" rx="8" ry="5" stroke="none" /><ellipse cx="277" cy="224" fill="white" fill-opacity="0.18" rx="8" ry="5" stroke="none" /><ellipse cx="247" cy="233" fill="white" fill-opacity="0.18" rx="8" ry="5" stroke="none" /><ellipse cx="265" cy="233" fill="white" fill-opacity="0.18" rx="8" ry="5" stroke="none" /><ellipse cx="256" cy="207" fill="white" fill-opacity="0.12" rx="3" ry="15" stroke="none" /><polygon fill="#b89824" points="245,307.0 267,307.0 267,342.0 245,342.0" stroke="none" /><path d="M 253 325.0 Q 256 315.0 259 325.0" fill="none" stroke="#d4ac30" stroke-width="1.5" /></svg>