<?xml version="1.0" encoding="utf-8" ?>
<svg baseProfile="full" height="512" version="1.1" width="512" xmlns="http://www.w3.org/2000/svg" xmlns:ev="http://www.w3.org/2001/xml-events" xmlns:xlink="http://www.w3.org/1999/xlink"><defs /><polygon fill="#fbde5e" points="257.0,155.0 247.552,155.0 253.0,169.3" stroke="none" /><polygon fill="#fadc58" points="247.552,155.0 239.2173048140042,169.3 253.0,169.3" stroke="none" /><polygon fill="#f9da54" points="247.552,155.0 241.152,155.0 239.2173048140042,169.3" stroke="none" /><polygon fill="#f9d950" points="241.152,155.0 234.7758690670377,169.3 239.2173048140042,169.3" stroke="none" /><polygon fill="#f9d84f" points="241.152,155.0 236.03199999999998,155.0 234.7758690670377,169.3" stroke="none" /><polygon fill="#f8d749" points="236.03199999999998,155.0 225.42272046946448,169.3 234.7758690670377,169.3" stroke="none" /><polygon fill="#f8d647" points="236.03199999999998,155.0 229.4,155.0 225.42272046946448,169.3" stroke="none" /><polygon fill="#f7d340" points="229.4,155.0 213.23425701213395,169.3 225.42272046946448,169.3" stroke="none" /><polygon fill="#f8d74a" points="229.4,155.0 255,155.0 213.23425701213395,169.3" stroke="none" /><polygon fill="#f9da52" points="255,155.0 254,169.3 213.23425701213395,169.3" stroke="none" /><polygon fill="#fbdf60" points="255,155.0 255.0,155.0 254,169.3" stroke="none" /><polygon fill="#fbdf61" points="255.0,155.0 257.0,169.3 254,169.3" stroke="none" /><polygon fill="#fbde5e" points="255.0,155.0 265.448,155.0 257.0,169.3" stroke="none" /><polygon fill="#fadd5a" points="265.448,155.0 266.7826951859958,169.3 257.0,169.3" stroke="none" /><polygon fill="#fadb56" points="265.448,155.0 270.848,155.0 266.7826951859958,169.3" stroke="none" /><polygon fill="#f9d950" points="270.848,155.0 283.2241309329623,169.3 266.7826951859958,169.3" stroke="none" /><polygon fill="#f8d84d" points="270.848,155.0 275.968,155.0 283.2241309329623,169.3" stroke="none" /><polygon fill="#f8d648" points="275.968,155.0 285.5772795305355,169.3 283.2241309329623,169.3" stroke="none" /><polygon fill="#f8d648" points="275.968,155.0 282.6,155.0 285.5772795305355,169.3" stroke="none" /><polygon fill="#f7d340" points="282.6,155.0 298.765742987866,169.3 285.5772795305355,169.3" stroke="none" /><polygon fill="#fbdd5c" points="253.0,169.3 239.2173048140042,169.3 259.0,184.25" stroke="none" /><polygon fill="#f9d954" points="239.2173048140042,169.3 236.57539694555743,184.25 259.0,184.25" stroke="none" /><polygon fill="#f9d84e" points="239.2173048140042,169.3 234.7758690670377,169.3 236.57539694555743,184.25" stroke="none" /><polygon fill="#f7d548" points="234.7758690670377,169.3 228.132515843707,184.25 236.57539694555743,184.25" stroke="none" /><polygon fill="#f8d647" points="234.7758690670377,169.3 225.42272046946448,169.3 228.132515843707,184.25" stroke="none" /><polygon fill="#f5d13f" points="225.42272046946448,169.3 216.17821096222667,184.25 228.132515843707,184.25" stroke="none" /><polygon fill="#f6d13b" points="225.42272046946448,169.3 213.23425701213395,169.3 216.17821096222667,184.25" stroke="none" /><polygon fill="#f3cc34" points="213.23425701213395,169.3 208.22847559259827,184.25 216.17821096222667,184.25" stroke="none" /><polygon fill="#f7d442" points="213.23425701213395,169.3 254,169.3 208.22847559259827,184.25" stroke="none" /><polygon fill="#f8d74f" points="254,169.3 258,184.25 208.22847559259827,184.25" stroke="none" /><polygon fill="#fbdf61" points="254,169.3 257.0,169.3 258,184.25" stroke="none" /><polygon fill="#fbde5f" points="257.0,169.3 253.0,184.25 258,184.25" stroke="none" /><polygon fill="#fbde5f" points="257.0,169.3 266.7826951859958,169.3 253.0,184.25" stroke="none" /><polygon fill="#f9db57" points="266.7826951859958,169.3 270.42460305444257,184.25 253.0,184.25" stroke="none" /><polygon fill="#f9d950" points="266.7826951859958,169.3 283.2241309329623,169.3 270.42460305444257,184.25" stroke="none" /><polygon fill="#f7d448" points="283.2241309329623,169.3 283.867484156293,184.25 270.42460305444257,184.25" stroke="none" /><polygon fill="#f7d545" points="283.2241309329623,169.3 285.5772795305355,169.3 283.867484156293,184.25" stroke="none" /><polygon fill="#f5d140" points="285.5772795305355,169.3 291.8217890377733,184.25 283.867484156293,184.25" stroke="none" /><polygon fill="#f6d23d" points="285.5772795305355,169.3 298.765742987866,169.3 291.8217890377733,184.25" stroke="none" /><polygon fill="#f3cc34" points="298.765742987866,169.3 307.7715244074017,184.25 291.8217890377733,184.25" stroke="none" /><polygon fill="#f8d954" points="259.0,184.25 236.57539694555743,184.25 257.0,197.25" stroke="none" /><polygon fill="#f7d54c" points="236.57539694555743,184.25 240.0956110724906,197.25 257.0,197.25" stroke="none" /><polygon fill="#f5d246" points="236.57539694555743,184.25 228.132515843707,184.25 240.0956110724906,197.25" stroke="none" /><polygon fill="#f4d041" points="228.132515843707,184.25 227.53168006680167,197.25 240.0956110724906,197.25" stroke="none" /><polygon fill="#f2ce3c" points="228.132515843707,184.25 216.17821096222667,184.25 227.53168006680167,197.25" stroke="none" /><polygon fill="#f1ca37" points="216.17821096222667,184.25 215.68053526225052,197.25 227.53168006680167,197.25" stroke="none" /><polygon fill="#f0c932" points="216.17821096222667,184.25 208.22847559259827,184.25 215.68053526225052,197.25" stroke="none" /><polygon fill="#eec52d" points="208.22847559259827,184.25 203.74427597724426,197.25 215.68053526225052,197.25" stroke="none" /><polygon fill="#f2cd3b" points="208.22847559259827,184.25 258,184.25 203.74427597724426,197.25" stroke="none" /><polygon fill="#f5d347" points="258,184.25 254,197.25 203.74427597724426,197.25" stroke="none" /><polygon fill="#f9db58" points="258,184.25 253.0,184.25 254,197.25" stroke="none" /><polygon fill="#f9da56" points="253.0,184.25 259.0,197.25 254,197.25" stroke="none" /><polygon fill="#f8d954" points="253.0,184.25 270.42460305444257,184.25 259.0,197.25" stroke="none" /><polygon fill="#f7d54c" points="270.42460305444257,184.25 273.9043889275094,197.25 259.0,197.25" stroke="none" /><polygon fill="#f5d346" points="270.42460305444257,184.25 283.867484156293,184.25 273.9043889275094,197.25" stroke="none" /><polygon fill="#f3cf40" points="283.867484156293,184.25 288.46831993319836,197.25 273.9043889275094,197.25" stroke="none" /><polygon fill="#f2ce3c" points="283.867484156293,184.25 291.8217890377733,184.25 288.46831993319836,197.25" stroke="none" /><polygon fill="#f1ca36" points="291.8217890377733,184.25 298.31946473774946,197.25 288.46831993319836,197.25" stroke="none" /><polygon fill="#f0c932" points="291.8217890377733,184.25 307.7715244074017,184.25 298.31946473774946,197.25" stroke="none" /><polygon fill="#eec52c" points="307.7715244074017,184.25 307.25572402275577,197.25 298.31946473774946,197.25" stroke="none" /><polygon fill="#f7d84e" points="257.0,197.25 240.0956110724906,197.25 259.0,208.3" stroke="none" /><polygon fill="#f5d347" points="240.0956110724906,197.25 236.14856719307323,208.3 259.0,208.3" stroke="none" /><polygon fill="#f2cf40" points="240.0956110724906,197.25 227.53168006680167,197.25 236.14856719307323,208.3" stroke="none" /><polygon fill="#f0ca39" points="227.53168006680167,197.25 220.10960294540143,208.3 236.14856719307323,208.3" stroke="none" /><polygon fill="#efc835" points="227.53168006680167,197.25 215.68053526225052,197.25 220.10960294540143,208.3" stroke="none" /><polygon fill="#ecc430" points="215.68053526225052,197.25 212.07843154726402,208.3 220.10960294540143,208.3" stroke="none" /><polygon fill="#ecc32d" points="215.68053526225052,197.25 203.74427597724426,197.25 212.07843154726402,208.3" stroke="none" /><polygon fill="#e8be27" points="203.74427597724426,197.25 196.84414300931283,208.3 212.07843154726402,208.3" stroke="none" /><polygon fill="#eec733" points="203.74427597724426,197.25 254,197.25 196.84414300931283,208.3" stroke="none" /><polygon fill="#f2ce3f" points="254,197.25 253,208.3 196.84414300931283,208.3" stroke="none" /><polygon fill="#f8d951" points="254,197.25 259.0,197.25 253,208.3" stroke="none" /><polygon fill="#f8d84f" points="259.0,197.25 255.0,208.3 253,208.3" stroke="none" /><polygon fill="#f7d64c" points="259.0,197.25 273.9043889275094,197.25 255.0,208.3" stroke="none" /><polygon fill="#f5d246" points="273.9043889275094,197.25 275.85143280692677,208.3 255.0,208.3" stroke="none" /><polygon fill="#f2ce3f" points="273.9043889275094,197.25 288.46831993319836,197.25 275.85143280692677,208.3" stroke="none" /><polygon fill="#efca38" points="288.46831993319836,197.25 291.89039705459857,208.3 275.85143280692677,208.3" stroke="none" /><polygon fill="#eec834" points="288.46831993319836,197.25 298.31946473774946,197.25 291.89039705459857,208.3" stroke="none" /><polygon fill="#ebc32f" points="298.31946473774946,197.25 302.921568452736,208.3 291.89039705459857,208.3" stroke="none" /><polygon fill="#ebc32c" points="298.31946473774946,197.25 307.25572402275577,197.25 302.921568452736,208.3" stroke="none" /><polygon fill="#e8be26" points="307.25572402275577,197.25 315.1558569906872,208.3 302.921568452736,208.3" stroke="none" /><polygon fill="#f6d447" points="259.0,208.3 236.14856719307323,208.3 259.0,218.7" stroke="none" /><polygon fill="#f3d041" points="236.14856719307323,208.3 238.50296363291332,218.7 259.0,218.7" stroke="none" /><polygon fill="#efca39" points="236.14856719307323,208.3 220.10960294540143,208.3 238.50296363291332,218.7" stroke="none" /><polygon fill="#ecc633" points="220.10960294540143,208.3 217.97490577905978,218.7 238.50296363291332,218.7" stroke="none" /><polygon fill="#eac22f" points="220.10960294540143,208.3 212.07843154726402,208.3 217.97490577905978,218.7" stroke="none" /><polygon fill="#e7bf2b" points="212.07843154726402,208.3 208.55245949597696,218.7 217.97490577905978,218.7" stroke="none" /><polygon fill="#e7bc27" points="212.07843154726402,208.3 196.84414300931283,208.3 208.55245949597696,218.7" stroke="none" /><polygon fill="#e4ba24" points="196.84414300931283,208.3 193.88776858458584,218.7 208.55245949597696,218.7" stroke="none" /><polygon fill="#eac12d" points="196.84414300931283,208.3 253,208.3 193.88776858458584,218.7" stroke="none" /><polygon fill="#efcb39" points="253,208.3 256,218.7 193.88776858458584,218.7" stroke="none" /><polygon fill="#f7d64a" points="253,208.3 255.0,208.3 256,218.7" stroke="none" /><polygon fill="#f7d648" points="255.0,208.3 258.0,218.7 256,218.7" stroke="none" /><polygon fill="#f5d346" points="255.0,208.3 275.85143280692677,208.3 258.0,218.7" stroke="none" /><polygon fill="#f3cf3f" points="275.85143280692677,208.3 273.49703636708665,218.7 258.0,218.7" stroke="none" /><polygon fill="#efca39" points="275.85143280692677,208.3 291.89039705459857,208.3 273.49703636708665,218.7" stroke="none" /><polygon fill="#edc735" points="291.89039705459857,208.3 289.0250942209402,218.7 273.49703636708665,218.7" stroke="none" /><polygon fill="#eac22f" points="291.89039705459857,208.3 302.921568452736,208.3 289.0250942209402,218.7" stroke="none" /><polygon fill="#e7bf2a" points="302.921568452736,208.3 306.44754050402304,218.7 289.0250942209402,218.7" stroke="none" /><polygon fill="#e6bb25" points="302.921568452736,208.3 315.1558569906872,208.3 306.44754050402304,218.7" stroke="none" /><polygon fill="#e4ba24" points="315.1558569906872,208.3 316.11223141541416,218.7 306.44754050402304,218.7" stroke="none" /><polygon fill="#f5d242" points="259.0,218.7 238.50296363291332,218.7 258.0,227.8" stroke="none" /><polygon fill="#f2cd3d" points="238.50296363291332,218.7 238.14749191876737,227.8 258.0,227.8" stroke="none" /><polygon fill="#edc735" points="238.50296363291332,218.7 217.97490577905978,218.7 238.14749191876737,227.8" stroke="none" /><polygon fill="#eac231" points="217.97490577905978,218.7 221.1077130693487,227.8 238.14749191876737,227.8" stroke="none" /><polygon fill="#e7be2b" points="217.97490577905978,218.7 208.55245949597696,218.7 221.1077130693487,227.8" stroke="none" /><polygon fill="#e5ba29" points="208.55245949597696,218.7 208.0758899898138,227.8 221.1077130693487,227.8" stroke="none" /><polygon fill="#e2b723" points="208.55245949597696,218.7 193.88776858458584,218.7 208.0758899898138,227.8" stroke="none" /><polygon fill="#e1b523" points="193.88776858458584,218.7 195.84088460232536,227.8 208.0758899898138,227.8" stroke="none" /><polygon fill="#e6be2b" points="193.88776858458584,218.7 256,218.7 195.84088460232536,227.8" stroke="none" /><polygon fill="#eec837" points="256,218.7 255,227.8 195.84088460232536,227.8" stroke="none" /><polygon fill="#f6d444" points="256,218.7 258.0,218.7 255,227.8" stroke="none" /><polygon fill="#f6d343" points="258.0,218.7 254.0,227.8 255,227.8" stroke="none" /><polygon fill="#f4d141" points="258.0,218.7 273.49703636708665,218.7 254.0,227.8" stroke="none" /><polygon fill="#f1cc3c" points="273.49703636708665,218.7 277.85250808123266,227.8 254.0,227.8" stroke="none" /><polygon fill="#edc735" points="273.49703636708665,218.7 289.0250942209402,218.7 277.85250808123266,227.8" stroke="none" /><polygon fill="#eac231" points="289.0250942209402,218.7 290.89228693065127,227.8 277.85250808123266,227.8" stroke="none" /><polygon fill="#e7be2b" points="289.0250942209402,218.7 306.44754050402304,218.7 290.89228693065127,227.8" stroke="none" /><polygon fill="#e4ba28" points="306.44754050402304,218.7 301.9241100101862,227.8 290.89228693065127,227.8" stroke="none" /><polygon fill="#e2b723" points="306.44754050402304,218.7 316.11223141541416,218.7 301.9241100101862,227.8" stroke="none" /><polygon fill="#e1b523" points="316.11223141541416,218.7 315.15911539767467,227.8 301.9241100101862,227.8" stroke="none" /><polygon fill="#f4d03d" points="258.0,227.8 238.14749191876737,227.8 259.0,238.2" stroke="none" /><polygon fill="#f0ca37" points="238.14749191876737,227.8 234.41625329122297,238.2 259.0,238.2" stroke="none" /><polygon fill="#ebc432" points="238.14749191876737,227.8 221.1077130693487,227.8 234.41625329122297,238.2" stroke="none" /><polygon fill="#e7be2c" points="221.1077130693487,227.8 217.82250578457368,238.2 234.41625329122297,238.2" stroke="none" /><polygon fill="#e4ba29" points="221.1077130693487,227.8 208.0758899898138,227.8 217.82250578457368,238.2" stroke="none" /><polygon fill="#e1b626" points="208.0758899898138,227.8 210.34750777925427,238.2 217.82250578457368,238.2" stroke="none" /><polygon fill="#deb423" points="208.0758899898138,227.8 195.84088460232536,227.8 210.34750777925427,238.2" stroke="none" /><polygon fill="#ddb121" points="195.84088460232536,227.8 190.6250099734029,238.2 210.34750777925427,238.2" stroke="none" /><polygon fill="#e3b928" points="195.84088460232536,227.8 255,227.8 190.6250099734029,238.2" stroke="none" /><polygon fill="#ecc432" points="255,227.8 259,238.2 190.6250099734029,238.2" stroke="none" /><polygon fill="#f7d340" points="255,227.8 254.0,227.8 259,238.2" stroke="none" /><polygon fill="#f5d13d" points="254.0,227.8 253.0,238.2 259,238.2" stroke="none" /><polygon fill="#f4cf3c" points="254.0,227.8 277.85250808123266,227.8 253.0,238.2" stroke="none" /><polygon fill="#f0ca37" points="277.85250808123266,227.8 273.583746708777,238.2 253.0,238.2" stroke="none" /><polygon fill="#ebc432" points="277.85250808123266,227.8 290.89228693065127,227.8 273.583746708777,238.2" stroke="none" /><polygon fill="#e7bf2d" points="290.89228693065127,227.8 294.1774942154263,238.2 273.583746708777,238.2" stroke="none" /><polygon fill="#e4bb29" points="290.89228693065127,227.8 301.9241100101862,227.8 294.1774942154263,238.2" stroke="none" /><polygon fill="#e1b625" points="301.9241100101862,227.8 304.6524922207457,238.2 294.1774942154263,238.2" stroke="none" /><polygon fill="#deb423" points="301.9241100101862,227.8 315.15911539767467,227.8 304.6524922207457,238.2" stroke="none" /><polygon fill="#ddb121" points="315.15911539767467,227.8 315.3749900265971,238.2 304.6524922207457,238.2" stroke="none" /><polygon fill="#f2cc36" points="259.0,238.2 234.41625329122297,238.2 253.0,249.25" stroke="none" /><polygon fill="#edc630" points="234.41625329122297,238.2 240.04491358831748,249.25 253.0,249.25" stroke="none" /><polygon fill="#e8c02d" points="234.41625329122297,238.2 217.82250578457368,238.2 240.04491358831748,249.25" stroke="none" /><polygon fill="#e6bd2a" points="217.82250578457368,238.2 229.2001511552247,249.25 240.04491358831748,249.25" stroke="none" /><polygon fill="#e2b828" points="217.82250578457368,238.2 210.34750777925427,238.2 229.2001511552247,249.25" stroke="none" /><polygon fill="#e0b625" points="210.34750777925427,238.2 212.92434120875043,249.25 229.2001511552247,249.25" stroke="none" /><polygon fill="#dbaf20" points="210.34750777925427,238.2 190.6250099734029,238.2 212.92434120875043,249.25" stroke="none" /><polygon fill="#d9ac1f" points="190.6250099734029,238.2 205.62095026762876,249.25 212.92434120875043,249.25" stroke="none" /><polygon fill="#e2b827" points="190.6250099734029,238.2 259,238.2 205.62095026762876,249.25" stroke="none" /><polygon fill="#ecc42f" points="259,238.2 253,249.25 205.62095026762876,249.25" stroke="none" /><polygon fill="#f5d039" points="259,238.2 253.0,238.2 253,249.25" stroke="none" /><polygon fill="#f3cd35" points="253.0,238.2 253.0,249.25 253,249.25" stroke="none" /><polygon fill="#f3ce38" points="253.0,238.2 273.583746708777,238.2 253.0,249.25" stroke="none" /><polygon fill="#eec831" points="273.583746708777,238.2 275.9550864116825,249.25 253.0,249.25" stroke="none" /><polygon fill="#e8c02d" points="273.583746708777,238.2 294.1774942154263,238.2 275.9550864116825,249.25" stroke="none" /><polygon fill="#e5bb29" points="294.1774942154263,238.2 287.79984884477534,249.25 275.9550864116825,249.25" stroke="none" /><polygon fill="#e1b726" points="294.1774942154263,238.2 304.6524922207457,238.2 287.79984884477534,249.25" stroke="none" /><polygon fill="#dfb424" points="304.6524922207457,238.2 299.07565879124957,249.25 287.79984884477534,249.25" stroke="none" /><polygon fill="#dbaf21" points="304.6524922207457,238.2 315.3749900265971,238.2 299.07565879124957,249.25" stroke="none" /><polygon fill="#d9ad1f" points="315.3749900265971,238.2 308.37904973237124,249.25 299.07565879124957,249.25" stroke="none" /><polygon fill="#f0c930" points="253.0,249.25 240.04491358831748,249.25 254.0,260.3" stroke="none" /><polygon fill="#edc42c" points="240.04491358831748,249.25 238.77316477301966,260.3 254.0,260.3" stroke="none" /><polygon fill="#e9c02b" points="240.04491358831748,249.25 229.2001511552247,249.25 238.77316477301966,260.3" stroke="none" /><polygon fill="#e5bb27" points="229.2001511552247,249.25 226.72253202530732,260.3 238.77316477301966,260.3" stroke="none" /><polygon fill="#e1b725" points="229.2001511552247,249.25 212.92434120875043,249.25 226.72253202530732,260.3" stroke="none" /><polygon fill="#deb223" points="212.92434120875043,249.25 217.2820258271374,260.3 226.72253202530732,260.3" stroke="none" /><polygon fill="#dbaf21" points="212.92434120875043,249.25 205.62095026762876,249.25 217.2820258271374,260.3" stroke="none" /><polygon fill="#d8ab1f" points="205.62095026762876,249.25 202.79746900915052,260.3 217.2820258271374,260.3" stroke="none" /><polygon fill="#e0b525" points="205.62095026762876,249.25 253,249.25 202.79746900915052,260.3" stroke="none" /><polygon fill="#e9bf2a" points="253,249.25 257,260.3 202.79746900915052,260.3" stroke="none" /><polygon fill="#f4cc32" points="253,249.25 253.0,249.25 257,260.3" stroke="none" /><polygon fill="#f3cc30" points="253.0,249.25 255.0,260.3 257,260.3" stroke="none" /><polygon fill="#f1ca30" points="253.0,249.25 275.9550864116825,249.25 255.0,260.3" stroke="none" /><polygon fill="#edc52c" points="275.9550864116825,249.25 270.2268352269803,260.3 255.0,260.3" stroke="none" /><polygon fill="#e8be2a" points="275.9550864116825,249.25 287.79984884477534,249.25 270.2268352269803,260.3" stroke="none" /><polygon fill="#e4ba27" points="287.79984884477534,249.25 288.2774679746927,260.3 270.2268352269803,260.3" stroke="none" /><polygon fill="#e0b524" points="287.79984884477534,249.25 299.07565879124957,249.25 288.2774679746927,260.3" stroke="none" /><polygon fill="#ddb022" points="299.07565879124957,249.25 298.71797417286257,260.3 288.2774679746927,260.3" stroke="none" /><polygon fill="#daae20" points="299.07565879124957,249.25 308.37904973237124,249.25 298.71797417286257,260.3" stroke="none" /><polygon fill="#d7aa1e" points="308.37904973237124,249.25 308.2025309908495,260.3 298.71797417286257,260.3" stroke="none" /><polygon fill="#f0c72a" points="254.0,260.3 238.77316477301966,260.3 257.0,272.0" stroke="none" /><polygon fill="#eec429" points="238.77316477301966,260.3 244.2164828026846,272.0 257.0,272.0" stroke="none" /><polygon fill="#e7bd26" points="238.77316477301966,260.3 226.72253202530732,260.3 244.2164828026846,272.0" stroke="none" /><polygon fill="#e6bc25" points="226.72253202530732,260.3 234.7744243198699,272.0 244.2164828026846,272.0" stroke="none" /><polygon fill="#e1b523" points="226.72253202530732,260.3 217.2820258271374,260.3 234.7744243198699,272.0" stroke="none" /><polygon fill="#e0b422" points="217.2820258271374,260.3 222.42077753361815,272.0 234.7744243198699,272.0" stroke="none" /><polygon fill="#d9ac1f" points="217.2820258271374,260.3 202.79746900915052,260.3 222.42077753361815,272.0" stroke="none" /><polygon fill="#d8ab1f" points="202.79746900915052,260.3 213.2317660687412,272.0 222.42077753361815,272.0" stroke="none" /><polygon fill="#dfb422" points="202.79746900915052,260.3 257,260.3 213.2317660687412,272.0" stroke="none" /><polygon fill="#ebc127" points="257,260.3 256,272.0 213.2317660687412,272.0" stroke="none" /><polygon fill="#f4cc2c" points="257,260.3 255.0,260.3 256,272.0" stroke="none" /><polygon fill="#f3cb2b" points="255.0,260.3 253.0,272.0 256,272.0" stroke="none" /><polygon fill="#f1c92a" points="255.0,260.3 270.2268352269803,260.3 253.0,272.0" stroke="none" /><polygon fill="#eec529" points="270.2268352269803,260.3 269.7835171973154,272.0 253.0,272.0" stroke="none" /><polygon fill="#e7bc25" points="270.2268352269803,260.3 288.2774679746927,260.3 269.7835171973154,272.0" stroke="none" /><polygon fill="#e5ba25" points="288.2774679746927,260.3 278.2255756801301,272.0 269.7835171973154,272.0" stroke="none" /><polygon fill="#dfb322" points="288.2774679746927,260.3 298.71797417286257,260.3 278.2255756801301,272.0" stroke="none" /><polygon fill="#dfb322" points="298.71797417286257,260.3 287.57922246638185,272.0 278.2255756801301,272.0" stroke="none" /><polygon fill="#d9ac1f" points="298.71797417286257,260.3 308.2025309908495,260.3 287.57922246638185,272.0" stroke="none" /><polygon fill="#d8ab1f" points="308.2025309908495,260.3 300.7682339312588,272.0 287.57922246638185,272.0" stroke="none" /><polygon fill="#f1c92a" points="257.0,272.0 244.2164828026846,272.0 255.0,285.0" stroke="none" /><polygon fill="#efc629" points="244.2164828026846,272.0 246.552,285.0 255.0,285.0" stroke="none" /><polygon fill="#eac127" points="244.2164828026846,272.0 234.7744243198699,272.0 246.552,285.0" stroke="none" /><polygon fill="#eac027" points="234.7744243198699,272.0 240.152,285.0 246.552,285.0" stroke="none" /><polygon fill="#e4ba24" points="234.7744243198699,272.0 222.42077753361815,272.0 240.152,285.0" stroke="none" /><polygon fill="#e5ba25" points="222.42077753361815,272.0 236.03199999999998,285.0 240.152,285.0" stroke="none" /><polygon fill="#dfb322" points="222.42077753361815,272.0 213.2317660687412,272.0 236.03199999999998,285.0" stroke="none" /><polygon fill="#e1b523" points="213.2317660687412,272.0 229.4,285.0 236.03199999999998,285.0" stroke="none" /><polygon fill="#e5ba25" points="213.2317660687412,272.0 256,272.0 229.4,285.0" stroke="none" /><polygon fill="#eec529" points="256,272.0 255,285.0 229.4,285.0" stroke="none" /><polygon fill="#f3cb2b" points="256,272.0 253.0,272.0 255,285.0" stroke="none" /><polygon fill="#f3cb2b" points="253.0,272.0 257.0,285.0 255,285.0" stroke="none" /><polygon fill="#f1c92a" points="253.0,272.0 269.7835171973154,272.0 257.0,285.0" stroke="none" /><polygon fill="#efc629" points="269.7835171973154,272.0 264.448,285.0 257.0,285.0" stroke="none" /><polygon fill="#eac027" points="269.7835171973154,272.0 278.2255756801301,272.0 264.448,285.0" stroke="none" /><polygon fill="#eac027" points="278.2255756801301,272.0 270.848,285.0 264.448,285.0" stroke="none" /><polygon fill="#e5ba25" points="278.2255756801301,272.0 287.57922246638185,272.0 270.848,285.0" stroke="none" /><polygon fill="#e6bb25" points="287.57922246638185,272.0 274.968,285.0 270.848,285.0" stroke="none" /><polygon fill="#dfb422" points="287.57922246638185,272.0 300.7682339312588,272.0 274.968,285.0" stroke="none" /><polygon fill="#e1b523" points="300.7682339312588,272.0 281.6,285.0 274.968,285.0" stroke="none" /><path d="M 242 211 A 12 16 0 0 0 242 227 Z" fill="#f4cc2c" stroke="#d2a41c" stroke-width="1" /><path d="M 270 211 A 12 16 0 0 1 270 227 Z" fill="#f4cc2c" stroke="#d2a41c" stroke-width="1" /><path d="M 217 214 Q 236 204 255 218 Q 236 231 217 214" fill="#e8e0d8" stroke="#3a2a1a" stroke-width="1.5" /><path d="M 233 218 A 4 4 0 0 0 241 218 Z" fill="#3a2a1a" stroke="none" /><circle cx="238" cy="215" fill="white" r="2" stroke="none" /><path d="M 257 212 Q 276 202 295 216 Q 276 229 257 212" fill="#e8e0d8" stroke="#3a2a1a" stroke-width="1.5" /><path d="M 273 216 A 4 4 0 0 0 281 216 Z" fill="#3a2a1a" stroke="none" /><circle cx="278" cy="213" fill="white" r="2" stroke="none" /><line stroke="#3a2a1a" stroke-width="3" x1="222" x2="250" y1="208" y2="208" /><line stroke="#3a2a1a" stroke-width="3" x1="263" x2="289" y1="208" y2="208" /><path d="M 218 224 A 8 5 0 0 0 234 224 Z" fill="#e88060" fill-opacity="0.2974775566866051" stroke="none" /><path d="M 277 225 A 7 4 0 0 0 291 225 Z" fill="#e88060" fill-opacity="0.2963896384585114" stroke="none" /><path d="M 256 218 Q 259 223 258 226 Q 256 227 254 226 Q 253 223 256 218" fill="#d2a41c" stroke="none" /><path d="M 241 233 Q 244 236 248 233 Q 252 230 256 233 Q 259 236 263 233 Q 267 230 271 233" fill="none" stroke="#c06050" stroke-width="3" /><polygon fill="#b69018" points="237,281.0 275,281.0 275,316.0 237,316.0" stroke="none" /></svg>