<?xml version="1.0" encoding="utf-8" ?>
<svg baseProfile="full" height="512" version="1.1" width="512" xmlns="http://www.w3.org/2000/svg" xmlns:ev="http://www.w3.org/2001/xml-events" xmlns:xlink="http://www.w3.org/1999/xlink"><defs /><polygon fill="#fce16b" points="256.0,140.0 248.5255,140.0 255.0,157.6" stroke="none" /><polygon fill="#fce06a" points="248.5255,140.0 248.76444222477727,157.6 255.0,157.6" stroke="none" /><polygon fill="#fbdf67" points="248.5255,140.0 243.863,140.0 248.76444222477727,157.6" stroke="none" /><polygon fill="#fbde65" points="243.863,140.0 241.2829590617297,157.6 248.76444222477727,157.6" stroke="none" /><polygon fill="#fbdd62" points="243.863,140.0 237.333,140.0 241.2829590617297,157.6" stroke="none" /><polygon fill="#fadd61" points="237.333,140.0 238.8977725312917,157.6 241.2829590617297,157.6" stroke="none" /><polygon fill="#fadc5f" points="237.333,140.0 233.35,140.0 238.8977725312917,157.6" stroke="none" /><polygon fill="#fadc5f" points="233.35,140.0 237.07406734780986,157.6 238.8977725312917,157.6" stroke="none" /><polygon fill="#fbde64" points="233.35,140.0 257,140.0 237.07406734780986,157.6" stroke="none" /><polygon fill="#fce06a" points="257,140.0 258,157.6 237.07406734780986,157.6" stroke="none" /><polygon fill="#fce16d" points="257,140.0 257.0,140.0 258,157.6" stroke="none" /><polygon fill="#fde26e" points="257.0,140.0 253.0,157.6 258,157.6" stroke="none" /><polygon fill="#fce16c" points="257.0,140.0 262.4745,140.0 253.0,157.6" stroke="none" /><polygon fill="#fce16c" points="262.4745,140.0 260.23555777522273,157.6 253.0,157.6" stroke="none" /><polygon fill="#fbdf67" points="262.4745,140.0 270.137,140.0 260.23555777522273,157.6" stroke="none" /><polygon fill="#fbde65" points="270.137,140.0 271.71704093827026,157.6 260.23555777522273,157.6" stroke="none" /><polygon fill="#fadd62" points="270.137,140.0 274.667,140.0 271.71704093827026,157.6" stroke="none" /><polygon fill="#fadc60" points="274.667,140.0 275.1022274687083,157.6 271.71704093827026,157.6" stroke="none" /><polygon fill="#fadc5f" points="274.667,140.0 277.65,140.0 275.1022274687083,157.6" stroke="none" /><polygon fill="#fadb5e" points="277.65,140.0 278.9259326521901,157.6 275.1022274687083,157.6" stroke="none" /><polygon fill="#fce16c" points="255.0,157.6 248.76444222477727,157.6 259.0,176.0" stroke="none" /><polygon fill="#fbdf67" points="248.76444222477727,157.6 247.00711855021805,176.0 259.0,176.0" stroke="none" /><polygon fill="#fbdf66" points="248.76444222477727,157.6 241.2829590617297,157.6 247.00711855021805,176.0" stroke="none" /><polygon fill="#fadc61" points="241.2829590617297,157.6 239.9519053306863,176.0 247.00711855021805,176.0" stroke="none" /><polygon fill="#fadd62" points="241.2829590617297,157.6 238.8977725312917,157.6 239.9519053306863,176.0" stroke="none" /><polygon fill="#f9db5f" points="238.8977725312917,157.6 238.10773475506087,176.0 239.9519053306863,176.0" stroke="none" /><polygon fill="#fadc60" points="238.8977725312917,157.6 237.07406734780986,157.6 238.10773475506087,176.0" stroke="none" /><polygon fill="#f9da5d" points="237.07406734780986,157.6 232.77914712187294,176.0 238.10773475506087,176.0" stroke="none" /><polygon fill="#fbde64" points="237.07406734780986,157.6 258,157.6 232.77914712187294,176.0" stroke="none" /><polygon fill="#fbdf66" points="258,157.6 259,176.0 232.77914712187294,176.0" stroke="none" /><polygon fill="#fce16d" points="258,157.6 253.0,157.6 259,176.0" stroke="none" /><polygon fill="#fbe06a" points="253.0,157.6 257.0,176.0 259,176.0" stroke="none" /><polygon fill="#fce16d" points="253.0,157.6 260.23555777522273,157.6 257.0,176.0" stroke="none" /><polygon fill="#fbdf68" points="260.23555777522273,157.6 262.9928814497819,176.0 257.0,176.0" stroke="none" /><polygon fill="#fbdf67" points="260.23555777522273,157.6 271.71704093827026,157.6 262.9928814497819,176.0" stroke="none" /><polygon fill="#fadd62" points="271.71704093827026,157.6 271.0480946693137,176.0 262.9928814497819,176.0" stroke="none" /><polygon fill="#fadd61" points="271.71704093827026,157.6 275.1022274687083,157.6 271.0480946693137,176.0" stroke="none" /><polygon fill="#f9db5f" points="275.1022274687083,157.6 271.8922652449391,176.0 271.0480946693137,176.0" stroke="none" /><polygon fill="#fadc5f" points="275.1022274687083,157.6 278.9259326521901,157.6 271.8922652449391,176.0" stroke="none" /><polygon fill="#f9da5c" points="278.9259326521901,157.6 278.22085287812706,176.0 271.8922652449391,176.0" stroke="none" /><polygon fill="#fade64" points="259.0,176.0 247.00711855021805,176.0 255.0,192.0" stroke="none" /><polygon fill="#f9da5e" points="247.00711855021805,176.0 239.91909314280554,192.0 255.0,192.0" stroke="none" /><polygon fill="#f8da5d" points="247.00711855021805,176.0 239.9519053306863,176.0 239.91909314280554,192.0" stroke="none" /><polygon fill="#f7d758" points="239.9519053306863,176.0 233.25173946311278,192.0 239.91909314280554,192.0" stroke="none" /><polygon fill="#f7d859" points="239.9519053306863,176.0 238.10773475506087,176.0 233.25173946311278,192.0" stroke="none" /><polygon fill="#f5d553" points="238.10773475506087,176.0 219.71785651935858,192.0 233.25173946311278,192.0" stroke="none" /><polygon fill="#f6d655" points="238.10773475506087,176.0 232.77914712187294,176.0 219.71785651935858,192.0" stroke="none" /><polygon fill="#f4d24e" points="232.77914712187294,176.0 216.33058528122893,192.0 219.71785651935858,192.0" stroke="none" /><polygon fill="#f7d858" points="232.77914712187294,176.0 259,176.0 216.33058528122893,192.0" stroke="none" /><polygon fill="#f8da5c" points="259,176.0 259,192.0 216.33058528122893,192.0" stroke="none" /><polygon fill="#fade64" points="259,176.0 257.0,176.0 259,192.0" stroke="none" /><polygon fill="#fadd63" points="257.0,176.0 255.0,192.0 259,192.0" stroke="none" /><polygon fill="#fade64" points="257.0,176.0 262.9928814497819,176.0 255.0,192.0" stroke="none" /><polygon fill="#f9db60" points="262.9928814497819,176.0 268.08090685719446,192.0 255.0,192.0" stroke="none" /><polygon fill="#f8db5e" points="262.9928814497819,176.0 271.0480946693137,176.0 268.08090685719446,192.0" stroke="none" /><polygon fill="#f7d859" points="271.0480946693137,176.0 278.7482605368872,192.0 268.08090685719446,192.0" stroke="none" /><polygon fill="#f7d95a" points="271.0480946693137,176.0 271.8922652449391,176.0 278.7482605368872,192.0" stroke="none" /><polygon fill="#f5d554" points="271.8922652449391,176.0 290.2821434806414,192.0 278.7482605368872,192.0" stroke="none" /><polygon fill="#f6d656" points="271.8922652449391,176.0 278.22085287812706,176.0 290.2821434806414,192.0" stroke="none" /><polygon fill="#f4d24e" points="278.22085287812706,176.0 298.66941471877107,192.0 290.2821434806414,192.0" stroke="none" /><polygon fill="#f8da5c" points="255.0,192.0 239.91909314280554,192.0 257.0,205.6" stroke="none" /><polygon fill="#f7d858" points="239.91909314280554,192.0 241.31748124842537,205.6 257.0,205.6" stroke="none" /><polygon fill="#f5d555" points="239.91909314280554,192.0 233.25173946311278,192.0 241.31748124842537,205.6" stroke="none" /><polygon fill="#f4d351" points="233.25173946311278,192.0 226.67920946692942,205.6 241.31748124842537,205.6" stroke="none" /><polygon fill="#f2d14e" points="233.25173946311278,192.0 219.71785651935858,192.0 226.67920946692942,205.6" stroke="none" /><polygon fill="#f0ce49" points="219.71785651935858,192.0 214.56859204173267,205.6 226.67920946692942,205.6" stroke="none" /><polygon fill="#f0cd48" points="219.71785651935858,192.0 216.33058528122893,192.0 214.56859204173267,205.6" stroke="none" /><polygon fill="#eecb44" points="216.33058528122893,192.0 205.44691287401622,205.6 214.56859204173267,205.6" stroke="none" /><polygon fill="#f3d14e" points="216.33058528122893,192.0 259,192.0 205.44691287401622,205.6" stroke="none" /><polygon fill="#f5d554" points="259,192.0 256,205.6 205.44691287401622,205.6" stroke="none" /><polygon fill="#f9db5f" points="259,192.0 255.0,192.0 256,205.6" stroke="none" /><polygon fill="#f9db5d" points="255.0,192.0 256.0,205.6 256,205.6" stroke="none" /><polygon fill="#f9da5d" points="255.0,192.0 268.08090685719446,192.0 256.0,205.6" stroke="none" /><polygon fill="#f7d858" points="268.08090685719446,192.0 270.68251875157466,205.6 256.0,205.6" stroke="none" /><polygon fill="#f6d556" points="268.08090685719446,192.0 278.7482605368872,192.0 270.68251875157466,205.6" stroke="none" /><polygon fill="#f4d351" points="278.7482605368872,192.0 285.3207905330706,205.6 270.68251875157466,205.6" stroke="none" /><polygon fill="#f3d14f" points="278.7482605368872,192.0 290.2821434806414,192.0 285.3207905330706,205.6" stroke="none" /><polygon fill="#f1cf4a" points="290.2821434806414,192.0 293.43140795826736,205.6 285.3207905330706,205.6" stroke="none" /><polygon fill="#f0ce49" points="290.2821434806414,192.0 298.66941471877107,192.0 293.43140795826736,205.6" stroke="none" /><polygon fill="#efcb45" points="298.66941471877107,192.0 303.5530871259838,205.6 293.43140795826736,205.6" stroke="none" /><polygon fill="#f7d858" points="257.0,205.6 241.31748124842537,205.6 257.0,218.4" stroke="none" /><polygon fill="#f5d352" points="241.31748124842537,205.6 231.92848671221597,218.4 257.0,218.4" stroke="none" /><polygon fill="#f2d04e" points="241.31748124842537,205.6 226.67920946692942,205.6 231.92848671221597,218.4" stroke="none" /><polygon fill="#f0cc49" points="226.67920946692942,205.6 221.96521906995534,218.4 231.92848671221597,218.4" stroke="none" /><polygon fill="#efcc48" points="226.67920946692942,205.6 214.56859204173267,205.6 221.96521906995534,218.4" stroke="none" /><polygon fill="#ecc843" points="214.56859204173267,205.6 209.19460495614683,218.4 221.96521906995534,218.4" stroke="none" /><polygon fill="#ebc741" points="214.56859204173267,205.6 205.44691287401622,205.6 209.19460495614683,218.4" stroke="none" /><polygon fill="#e8c33d" points="205.44691287401622,205.6 194.14692943095747,218.4 209.19460495614683,218.4" stroke="none" /><polygon fill="#eecb46" points="205.44691287401622,205.6 256,205.6 194.14692943095747,218.4" stroke="none" /><polygon fill="#f2d04e" points="256,205.6 258,218.4 194.14692943095747,218.4" stroke="none" /><polygon fill="#f8d95a" points="256,205.6 256.0,205.6 258,218.4" stroke="none" /><polygon fill="#f8d858" points="256.0,205.6 258.0,218.4 258,218.4" stroke="none" /><polygon fill="#f7d757" points="256.0,205.6 270.68251875157466,205.6 258.0,218.4" stroke="none" /><polygon fill="#f5d452" points="270.68251875157466,205.6 275.07151328778406,218.4 258.0,218.4" stroke="none" /><polygon fill="#f2d14f" points="270.68251875157466,205.6 285.3207905330706,205.6 275.07151328778406,218.4" stroke="none" /><polygon fill="#f0cd4a" points="285.3207905330706,205.6 293.03478093004463,218.4 275.07151328778406,218.4" stroke="none" /><polygon fill="#efcc48" points="285.3207905330706,205.6 293.43140795826736,205.6 293.03478093004463,218.4" stroke="none" /><polygon fill="#ecc742" points="293.43140795826736,205.6 307.80539504385314,218.4 293.03478093004463,218.4" stroke="none" /><polygon fill="#ebc742" points="293.43140795826736,205.6 303.5530871259838,205.6 307.80539504385314,218.4" stroke="none" /><polygon fill="#e8c23c" points="303.5530871259838,205.6 321.85307056904253,218.4 307.80539504385314,218.4" stroke="none" /><polygon fill="#f5d452" points="257.0,218.4 231.92848671221597,218.4 256.0,229.6" stroke="none" /><polygon fill="#f2d14c" points="231.92848671221597,218.4 233.6659751593137,229.6 256.0,229.6" stroke="none" /><polygon fill="#efcc48" points="231.92848671221597,218.4 221.96521906995534,218.4 233.6659751593137,229.6" stroke="none" /><polygon fill="#edca45" points="221.96521906995534,218.4 221.01898664364222,229.6 233.6659751593137,229.6" stroke="none" /><polygon fill="#ebc742" points="221.96521906995534,218.4 209.19460495614683,218.4 221.01898664364222,229.6" stroke="none" /><polygon fill="#e9c540" points="209.19460495614683,218.4 211.30139583110508,229.6 221.01898664364222,229.6" stroke="none" /><polygon fill="#e6c23c" points="209.19460495614683,218.4 194.14692943095747,218.4 211.30139583110508,229.6" stroke="none" /><polygon fill="#e4bf3a" points="194.14692943095747,218.4 199.4120459373142,229.6 211.30139583110508,229.6" stroke="none" /><polygon fill="#ebc742" points="194.14692943095747,218.4 258,218.4 199.4120459373142,229.6" stroke="none" /><polygon fill="#f1cf4b" points="258,218.4 254,229.6 199.4120459373142,229.6" stroke="none" /><polygon fill="#f7d755" points="258,218.4 258.0,218.4 254,229.6" stroke="none" /><polygon fill="#f8d854" points="258.0,218.4 256.0,229.6 254,229.6" stroke="none" /><polygon fill="#f5d452" points="258.0,218.4 275.07151328778406,218.4 256.0,229.6" stroke="none" /><polygon fill="#f3d24e" points="275.07151328778406,218.4 273.3340248406863,229.6 256.0,229.6" stroke="none" /><polygon fill="#efcd49" points="275.07151328778406,218.4 293.03478093004463,218.4 273.3340248406863,229.6" stroke="none" /><polygon fill="#edca45" points="293.03478093004463,218.4 292.9810133563578,229.6 273.3340248406863,229.6" stroke="none" /><polygon fill="#eac641" points="293.03478093004463,218.4 307.80539504385314,218.4 292.9810133563578,229.6" stroke="none" /><polygon fill="#e7c33e" points="307.80539504385314,218.4 304.6986041688949,229.6 292.9810133563578,229.6" stroke="none" /><polygon fill="#e5c03a" points="307.80539504385314,218.4 321.85307056904253,218.4 304.6986041688949,229.6" stroke="none" /><polygon fill="#e3be39" points="321.85307056904253,218.4 314.5879540626858,229.6 304.6986041688949,229.6" stroke="none" /><polygon fill="#f5d24d" points="256.0,229.6 233.6659751593137,229.6 256.0,242.4" stroke="none" /><polygon fill="#f2d049" points="233.6659751593137,229.6 241.31143920950421,242.4 256.0,242.4" stroke="none" /><polygon fill="#eeca46" points="233.6659751593137,229.6 221.01898664364222,229.6 241.31143920950421,242.4" stroke="none" /><polygon fill="#edc944" points="221.01898664364222,229.6 227.42616588337106,242.4 241.31143920950421,242.4" stroke="none" /><polygon fill="#eac541" points="221.01898664364222,229.6 211.30139583110508,229.6 227.42616588337106,242.4" stroke="none" /><polygon fill="#e9c440" points="211.30139583110508,229.6 220.91794722246453,242.4 227.42616588337106,242.4" stroke="none" /><polygon fill="#e6c13d" points="211.30139583110508,229.6 199.4120459373142,229.6 220.91794722246453,242.4" stroke="none" /><polygon fill="#e5c03c" points="199.4120459373142,229.6 210.45890669546736,242.4 220.91794722246453,242.4" stroke="none" /><polygon fill="#eac642" points="199.4120459373142,229.6 254,229.6 210.45890669546736,242.4" stroke="none" /><polygon fill="#f0ce48" points="254,229.6 256,242.4 210.45890669546736,242.4" stroke="none" /><polygon fill="#f7d550" points="254,229.6 256.0,229.6 256,242.4" stroke="none" /><polygon fill="#f6d54e" points="256.0,229.6 253.0,242.4 256,242.4" stroke="none" /><polygon fill="#f6d34e" points="256.0,229.6 273.3340248406863,229.6 253.0,242.4" stroke="none" /><polygon fill="#f3d14a" points="273.3340248406863,229.6 272.6885607904958,242.4 253.0,242.4" stroke="none" /><polygon fill="#eecb46" points="273.3340248406863,229.6 292.9810133563578,229.6 272.6885607904958,242.4" stroke="none" /><polygon fill="#edc944" points="292.9810133563578,229.6 280.5738341166289,242.4 272.6885607904958,242.4" stroke="none" /><polygon fill="#e9c541" points="292.9810133563578,229.6 304.6986041688949,229.6 280.5738341166289,242.4" stroke="none" /><polygon fill="#e8c43f" points="304.6986041688949,229.6 294.08205277753547,242.4 280.5738341166289,242.4" stroke="none" /><polygon fill="#e5bf3c" points="304.6986041688949,229.6 314.5879540626858,229.6 294.08205277753547,242.4" stroke="none" /><polygon fill="#e4bf3b" points="314.5879540626858,229.6 302.54109330453264,242.4 294.08205277753547,242.4" stroke="none" /><polygon fill="#f5d149" points="256.0,242.4 241.31143920950421,242.4 257.0,256.0" stroke="none" /><polygon fill="#f2ce46" points="241.31143920950421,242.4 244.73416842086476,256.0 257.0,256.0" stroke="none" /><polygon fill="#efcb44" points="241.31143920950421,242.4 227.42616588337106,242.4 244.73416842086476,256.0" stroke="none" /><polygon fill="#edc842" points="227.42616588337106,242.4 235.95702328515625,256.0 244.73416842086476,256.0" stroke="none" /><polygon fill="#ebc640" points="227.42616588337106,242.4 220.91794722246453,242.4 235.95702328515625,256.0" stroke="none" /><polygon fill="#eac540" points="220.91794722246453,242.4 232.73530717658946,256.0 235.95702328515625,256.0" stroke="none" /><polygon fill="#e8c23e" points="220.91794722246453,242.4 210.45890669546736,242.4 232.73530717658946,256.0" stroke="none" /><polygon fill="#e8c23e" points="210.45890669546736,242.4 227.89141945716597,256.0 232.73530717658946,256.0" stroke="none" /><polygon fill="#ecc742" points="210.45890669546736,242.4 256,242.4 227.89141945716597,256.0" stroke="none" /><polygon fill="#f2ce46" points="256,242.4 257,256.0 227.89141945716597,256.0" stroke="none" /><polygon fill="#f6d34a" points="256,242.4 253.0,242.4 257,256.0" stroke="none" /><polygon fill="#f6d34a" points="253.0,242.4 258.0,256.0 257,256.0" stroke="none" /><polygon fill="#f4d149" points="253.0,242.4 272.6885607904958,242.4 258.0,256.0" stroke="none" /><polygon fill="#f1cd46" points="272.6885607904958,242.4 269.26583157913524,256.0 258.0,256.0" stroke="none" /><polygon fill="#efcb44" points="272.6885607904958,242.4 280.5738341166289,242.4 269.26583157913524,256.0" stroke="none" /><polygon fill="#eec943" points="280.5738341166289,242.4 272.04297671484375,256.0 269.26583157913524,256.0" stroke="none" /><polygon fill="#ebc741" points="280.5738341166289,242.4 294.08205277753547,242.4 272.04297671484375,256.0" stroke="none" /><polygon fill="#eac540" points="294.08205277753547,242.4 282.26469282341054,256.0 272.04297671484375,256.0" stroke="none" /><polygon fill="#e7c13d" points="294.08205277753547,242.4 302.54109330453264,242.4 282.26469282341054,256.0" stroke="none" /><polygon fill="#e6c13d" points="302.54109330453264,242.4 289.10858054283403,256.0 282.26469282341054,256.0" stroke="none" /><polygon fill="#f4d045" points="257.0,256.0 244.73416842086476,256.0 259.0,269.6" stroke="none" /><polygon fill="#f2cd42" points="244.73416842086476,256.0 246.87697741707348,269.6 259.0,269.6" stroke="none" /><polygon fill="#efca41" points="244.73416842086476,256.0 235.95702328515625,256.0 246.87697741707348,269.6" stroke="none" /><polygon fill="#eeca40" points="235.95702328515625,256.0 246.48074818758366,269.6 246.87697741707348,269.6" stroke="none" /><polygon fill="#edc840" points="235.95702328515625,256.0 232.73530717658946,256.0 246.48074818758366,269.6" stroke="none" /><polygon fill="#edc83f" points="232.73530717658946,256.0 239.16376480399182,269.6 246.48074818758366,269.6" stroke="none" /><polygon fill="#ebc53e" points="232.73530717658946,256.0 227.89141945716597,256.0 239.16376480399182,269.6" stroke="none" /><polygon fill="#e9c43d" points="227.89141945716597,256.0 231.41508308204078,269.6 239.16376480399182,269.6" stroke="none" /><polygon fill="#edc840" points="227.89141945716597,256.0 257,256.0 231.41508308204078,269.6" stroke="none" /><polygon fill="#f0cc41" points="257,256.0 253,269.6 231.41508308204078,269.6" stroke="none" /><polygon fill="#f6d246" points="257,256.0 258.0,256.0 253,269.6" stroke="none" /><polygon fill="#f4d043" points="258.0,256.0 258.0,269.6 253,269.6" stroke="none" /><polygon fill="#f3ce44" points="258.0,256.0 269.26583157913524,256.0 258.0,269.6" stroke="none" /><polygon fill="#f1cc41" points="269.26583157913524,256.0 264.1230225829265,269.6 258.0,269.6" stroke="none" /><polygon fill="#f0cb42" points="269.26583157913524,256.0 272.04297671484375,256.0 264.1230225829265,269.6" stroke="none" /><polygon fill="#efca40" points="272.04297671484375,256.0 268.5192518124163,269.6 264.1230225829265,269.6" stroke="none" /><polygon fill="#edc840" points="272.04297671484375,256.0 282.26469282341054,256.0 268.5192518124163,269.6" stroke="none" /><polygon fill="#ebc63e" points="282.26469282341054,256.0 274.8362351960082,269.6 268.5192518124163,269.6" stroke="none" /><polygon fill="#e9c33d" points="282.26469282341054,256.0 289.10858054283403,256.0 274.8362351960082,269.6" stroke="none" /><polygon fill="#e8c33c" points="289.10858054283403,256.0 280.5849169179592,269.6 274.8362351960082,269.6" stroke="none" /><polygon fill="#f3ce3f" points="259.0,269.6 246.87697741707348,269.6 255.0,284.0" stroke="none" /><polygon fill="#f2cd3e" points="246.87697741707348,269.6 251.95130149112194,284.0 255.0,284.0" stroke="none" /><polygon fill="#f1cb3e" points="246.87697741707348,269.6 246.48074818758366,269.6 251.95130149112194,284.0" stroke="none" /><polygon fill="#efca3d" points="246.48074818758366,269.6 240.6113783783355,284.0 251.95130149112194,284.0" stroke="none" /><polygon fill="#edc83c" points="246.48074818758366,269.6 239.16376480399182,269.6 240.6113783783355,284.0" stroke="none" /><polygon fill="#ecc63b" points="239.16376480399182,269.6 240.33943988810637,284.0 240.6113783783355,284.0" stroke="none" /><polygon fill="#ebc53b" points="239.16376480399182,269.6 231.41508308204078,269.6 240.33943988810637,284.0" stroke="none" /><polygon fill="#eac43a" points="231.41508308204078,269.6 234.64030754885434,284.0 240.33943988810637,284.0" stroke="none" /><polygon fill="#ecc63b" points="231.41508308204078,269.6 253,269.6 234.64030754885434,284.0" stroke="none" /><polygon fill="#f0cb3d" points="253,269.6 256,284.0 234.64030754885434,284.0" stroke="none" /><polygon fill="#f4cf3f" points="253,269.6 258.0,269.6 256,284.0" stroke="none" /><polygon fill="#f4cf3f" points="258.0,269.6 255.0,284.0 256,284.0" stroke="none" /><polygon fill="#f3ce3f" points="258.0,269.6 264.1230225829265,269.6 255.0,284.0" stroke="none" /><polygon fill="#f2cd3e" points="264.1230225829265,269.6 263.0486985088781,284.0 255.0,284.0" stroke="none" /><polygon fill="#f0ca3d" points="264.1230225829265,269.6 268.5192518124163,269.6 263.0486985088781,284.0" stroke="none" /><polygon fill="#efca3d" points="268.5192518124163,269.6 265.38862162166447,284.0 263.0486985088781,284.0" stroke="none" /><polygon fill="#edc83c" points="268.5192518124163,269.6 274.8362351960082,269.6 265.38862162166447,284.0" stroke="none" /><polygon fill="#edc73c" points="274.8362351960082,269.6 272.66056011189363,284.0 265.38862162166447,284.0" stroke="none" /><polygon fill="#eac43a" points="274.8362351960082,269.6 280.5849169179592,269.6 272.66056011189363,284.0" stroke="none" /><polygon fill="#e9c33a" points="280.5849169179592,269.6 280.3596924511457,284.0 272.66056011189363,284.0" stroke="none" /><polygon fill="#f4cf3f" points="255.0,284.0 251.95130149112194,284.0 256.0,300.0" stroke="none" /><polygon fill="#f3cd3f" points="251.95130149112194,284.0 249.5255,300.0 256.0,300.0" stroke="none" /><polygon fill="#f0cb3d" points="251.95130149112194,284.0 240.6113783783355,284.0 249.5255,300.0" stroke="none" /><polygon fill="#eec93d" points="240.6113783783355,284.0 242.863,300.0 249.5255,300.0" stroke="none" /><polygon fill="#edc73c" points="240.6113783783355,284.0 240.33943988810637,284.0 242.863,300.0" stroke="none" /><polygon fill="#ecc73c" points="240.33943988810637,284.0 238.333,300.0 242.863,300.0" stroke="none" /><polygon fill="#ebc53b" points="240.33943988810637,284.0 234.64030754885434,284.0 238.333,300.0" stroke="none" /><polygon fill="#eac43a" points="234.64030754885434,284.0 234.35,300.0 238.333,300.0" stroke="none" /><polygon fill="#edc73c" points="234.64030754885434,284.0 256,284.0 234.35,300.0" stroke="none" /><polygon fill="#f1cc3e" points="256,284.0 257,300.0 234.35,300.0" stroke="none" /><polygon fill="#f5d040" points="256,284.0 255.0,284.0 257,300.0" stroke="none" /><polygon fill="#f4cf3f" points="255.0,284.0 257.0,300.0 257,300.0" stroke="none" /><polygon fill="#f3ce3f" points="255.0,284.0 263.0486985088781,284.0 257.0,300.0" stroke="none" /><polygon fill="#f2cc3e" points="263.0486985088781,284.0 264.4745,300.0 257.0,300.0" stroke="none" /><polygon fill="#f0cb3d" points="263.0486985088781,284.0 265.38862162166447,284.0 264.4745,300.0" stroke="none" /><polygon fill="#efca3d" points="265.38862162166447,284.0 268.137,300.0 264.4745,300.0" stroke="none" /><polygon fill="#eec83c" points="265.38862162166447,284.0 272.66056011189363,284.0 268.137,300.0" stroke="none" /><polygon fill="#edc73c" points="272.66056011189363,284.0 272.667,300.0 268.137,300.0" stroke="none" /><polygon fill="#eac43b" points="272.66056011189363,284.0 280.3596924511457,284.0 272.667,300.0" stroke="none" /><polygon fill="#e9c33a" points="280.3596924511457,284.0 279.65,300.0 272.667,300.0" stroke="none" /><path d="M 238 209 A 15 20 0 0 0 238 229 Z" fill="#f5d040" stroke="#d4ac30" stroke-width="1" /><path d="M 274 209 A 15 20 0 0 1 274 229 Z" fill="#f5d040" stroke="#d4ac30" stroke-width="1" /><path d="M 210 216 A 22 15 0 0 0 254 216 Z" fill="#e8e0d8" stroke="#3a2a1a" stroke-width="1.5" /><path d="M 208 208 A 24 10 0 0 1 256 208 Z" fill="#f5d040" stroke="#3a2a1a" stroke-width="1.5" /><path d="M 229 218 A 3 3 0 0 0 235 218 Z" fill="#3a2a1a" stroke="none" /><circle cx="233" cy="216" fill="white" r="2" stroke="none" /><path d="M 258 215 A 22 15 0 0 0 302 215 Z" fill="#e8e0d8" stroke="#3a2a1a" stroke-width="1.5" /><path d="M 256 207 A 24 10 0 0 1 304 207 Z" fill="#f5d040" stroke="#3a2a1a" stroke-width="1.5" /><path d="M 277 217 A 3 3 0 0 0 283 217 Z" fill="#3a2a1a" stroke="none" /><circle cx="281" cy="215" fill="white" r="2" stroke="none" /><line stroke="#3a2a1a" stroke-width="6" x1="219" x2="245" y1="205" y2="205" /><line stroke="#3a2a1a" stroke-width="6" x1="267" x2="293" y1="204" y2="204" /><path d="M 212 226 A 9 6 0 0 0 230 226 Z" fill="#e88060" fill-opacity="0.23359866531659876" stroke="none" /><path d="M 284 226 A 7 4 0 0 0 298 226 Z" fill="#e88060" fill-opacity="0.24719496136954852" stroke="none" /><circle cx="256" cy="226" fill="#d4ac30" r="3" stroke="none" /><path d="M 235 236 Q 256 253 277 236" fill="#a04030" stroke="#c06050" stroke-width="2" /><line stroke="white" stroke-width="2" x1="246" x2="246" y1="238" y2="246" /><line stroke="white" stroke-width="2" x1="252" x2="252" y1="238" y2="246" /><line stroke="white" stroke-width="2" x1="258" x2="258" y1="238" y2="246" /><line stroke="white" stroke-width="2" x1="264" x2="264" y1="238" y2="246" /><circle cx="297" cy="242" fill="#d4ac30" fill-opacity="0.15" r="0.8286430775011878" stroke="none" /><circle cx="263" cy="189" fill="#d4ac30" fill-opacity="0.15" r="1.5600419547611732" stroke="none" /><circle cx="252" cy="254" fill="#d4ac30" fill-opacity="0.15" r="1.447232204739697" stroke="none" /><circle cx="250" cy="212" fill="#d4ac30" fill-opacity="0.15" r="2.185749756059631" stroke="none" /><circle cx="301" cy="253" fill="#d4ac30" fill-opacity="0.15" r="2.3093416891182095" stroke="none" /><circle cx="263" cy="196" fill="#d4ac30" fill-opacity="0.15" r="1.6412142033296029" stroke="none" /><circle cx="303" cy="245" fill="#d4ac30" fill-opacity="0.15" r="1.4620729414056282" stroke="none" /><circle cx="292" cy="243" fill="#d4ac30" fill-opacity="0.15" r="1.6898603337728024" stroke="none" /><circle cx="302" cy="195" fill="#d4ac30" fill-opacity="0.15" r="1.1135342522210225" stroke="none" /><circle cx="204" cy="209" fill="#d4ac30" fill-opacity="0.15" r="0.7129556287778132" stroke="none" /><circle cx="303" cy="236" fill="#d4ac30" fill-opacity="0.15" r="1.440270196226897" stroke="none" /><circle cx="249" cy="183" fill="#d4ac30" fill-opacity="0.15" r="1.8417177326264684" stroke="none" /><circle cx="282" cy="243" fill="#d4ac30" fill-opacity="0.15" r="1.3538051161452755" stroke="none" /><circle cx="293" cy="238" fill="#d4ac30" fill-opacity="0.15" r="1.3191344927047906" stroke="none" /><circle cx="263" cy="196" fill="#d4ac30" fill-opacity="0.15" r="1.2190814791515105" stroke="none" /><circle cx="220" cy="235" fill="#d4ac30" fill-opacity="0.15" r="2.218019642583032" stroke="none" /><circle cx="298" cy="250" fill="#d4ac30" fill-opacity="0.15" r="1.3830159530814643" stroke="none" /><circle cx="283" cy="194" fill="#d4ac30" fill-opacity="0.15" r="1.709054494181007" stroke="none" /><circle cx="231" cy="236" fill="#d4ac30" fill-opacity="0.15" r="1.0039444890870752" stroke="none" /><circle cx="207" cy="230" fill="#d4ac30" fill-opacity="0.15" r="2.00509759303285" stroke="none" /><circle cx="306" cy="215" fill="#d4ac30" fill-opacity="0.15" r="1.1026537212928345" stroke="none" /><circle cx="294" cy="201" fill="#d4ac30" fill-opacity="0.15" r="1.455105141039595" stroke="none" /><circle cx="296" cy="232" fill="#d4ac30" fill-opacity="0.15" r="2.3693019574066474" stroke="none" /><circle cx="215" cy="250" fill="#d4ac30" fill-opacity="0.15" r="2.0962725795308907" stroke="none" /><circle cx="206" cy="220" fill="#d4ac30" fill-opacity="0.15" r="1.9751145250121676" stroke="none" /><circle cx="215" cy="197" fill="#d4ac30" fill-opacity="0.15" r="2.2755167656153996" stroke="none" /><circle cx="293" cy="234" fill="#d4ac30" fill-opacity="0.15" r="1.5818237297341544" stroke="none" /><circle cx="298" cy="210" fill="#d4ac30" fill-opacity="0.15" r="1.5726857630915747" stroke="none" /><circle cx="233" cy="200" fill="#d4ac30" fill-opacity="0.15" r="1.4519898524440913" stroke="none" /><circle cx="301" cy="198" fill="#d4ac30" fill-opacity="0.15" r="1.43481643153397" stroke="none" /><circle cx="308" cy="248" fill="#d4ac30" fill-opacity="0.15" r="2.3052033122882407" stroke="none" /><circle cx="253" cy="185" fill="#d4ac30" fill-opacity="0.15" r="1.0493661604845843" stroke="none" /><circle cx="213" cy="223" fill="#d4ac30" fill-opacity="0.15" r="2.0614267974464977" stroke="none" /><circle cx="226" cy="192" fill="#d4ac30" fill-opacity="0.15" r="0.998756997456635" stroke="none" /><circle cx="222" cy="174" fill="#d4ac30" fill-opacity="0.15" r="0.8435232778877205" stroke="none" /><circle cx="205" cy="226" fill="#d4ac30" fill-opacity="0.15" r="1.8423773396524883" stroke="none" /><circle cx="297" cy="184" fill="#d4ac30" fill-opacity="0.15" r="1.9604260769374593" stroke="none" /><circle cx="264" cy="181" fill="#d4ac30" fill-opacity="0.15" r="2.3148524149636485" stroke="none" /><circle cx="265" cy="179" fill="#d4ac30" fill-opacity="0.15" r="0.7271614448566428" stroke="none" /><circle cx="247" cy="174" fill="#d4ac30" fill-opacity="0.15" r="1.6600141994513196" stroke="none" /><circle cx="206" cy="230" fill="#d4ac30" fill-opacity="0.15" r="1.0124674818190336" stroke="none" /><circle cx="253" cy="196" fill="#d4ac30" fill-opacity="0.15" r="1.6033550539488808" stroke="none" /><circle cx="305" cy="244" fill="#d4ac30" fill-opacity="0.15" r="1.1686523562349664" stroke="none" /><circle cx="251" cy="202" fill="#d4ac30" fill-opacity="0.15" r="2.3922709262567503" stroke="none" /><circle cx="211" cy="248" fill="#d4ac30" fill-opacity="0.15" r="0.8878177980743015" stroke="none" /><polygon fill="#b89824" points="242,296.0 270,296.0 270,331.0 242,331.0" stroke="none" /><path d="M 253 314.0 Q 256 304.0 259 314.0" fill="none" stroke="#d4ac30" stroke-width="1.5" /></svg>