<?xml version="1.0" encoding="utf-8" ?>
<svg baseProfile="full" height="512" version="1.1" width="512" xmlns="http://www.w3.org/2000/svg" xmlns:ev="http://www.w3.org/2001/xml-events" xmlns:xlink="http://www.w3.org/1999/xlink"><defs /><polygon fill="#f9db56" points="255.0,140.0 242.041,140.0 253.0,157.6" stroke="none" /><polygon fill="#f8da52" points="242.041,140.0 243.0454946099416,157.6 253.0,157.6" stroke="none" /><polygon fill="#f7d84b" points="242.041,140.0 232.466,140.0 243.0454946099416,157.6" stroke="none" /><polygon fill="#f7d748" points="232.466,140.0 231.4738996174731,157.6 243.0454946099416,157.6" stroke="none" /><polygon fill="#f6d442" points="232.466,140.0 223.006,140.0 231.4738996174731,157.6" stroke="none" /><polygon fill="#f6d33f" points="223.006,140.0 223.01662362349833,157.6 231.4738996174731,157.6" stroke="none" /><polygon fill="#f5d139" points="223.006,140.0 213.7,140.0 223.01662362349833,157.6" stroke="none" /><polygon fill="#f5d036" points="213.7,140.0 213.71362003012607,157.6 223.01662362349833,157.6" stroke="none" /><polygon fill="#f6d441" points="213.7,140.0 257,140.0 213.71362003012607,157.6" stroke="none" /><polygon fill="#f8d94e" points="257,140.0 255,157.6 213.71362003012607,157.6" stroke="none" /><polygon fill="#fade5c" points="257,140.0 256.0,140.0 255,157.6" stroke="none" /><polygon fill="#fade5c" points="256.0,140.0 257.0,157.6 255,157.6" stroke="none" /><polygon fill="#f9dc56" points="256.0,140.0 270.959,140.0 257.0,157.6" stroke="none" /><polygon fill="#f8da52" points="270.959,140.0 270.9545053900584,157.6 257.0,157.6" stroke="none" /><polygon fill="#f7d74a" points="270.959,140.0 280.534,140.0 270.9545053900584,157.6" stroke="none" /><polygon fill="#f7d647" points="280.534,140.0 279.52610038252686,157.6 270.9545053900584,157.6" stroke="none" /><polygon fill="#f6d442" points="280.534,140.0 287.994,140.0 279.52610038252686,157.6" stroke="none" /><polygon fill="#f6d33f" points="287.994,140.0 288.98337637650167,157.6 279.52610038252686,157.6" stroke="none" /><polygon fill="#f5d13a" points="287.994,140.0 297.3,140.0 288.98337637650167,157.6" stroke="none" /><polygon fill="#f5d036" points="297.3,140.0 300.2863799698739,157.6 288.98337637650167,157.6" stroke="none" /><polygon fill="#f9db55" points="253.0,157.6 243.0454946099416,157.6 253.0,176.0" stroke="none" /><polygon fill="#f7d84f" points="243.0454946099416,157.6 242.09371932976978,176.0 253.0,176.0" stroke="none" /><polygon fill="#f7d84b" points="243.0454946099416,157.6 231.4738996174731,157.6 242.09371932976978,176.0" stroke="none" /><polygon fill="#f5d343" points="231.4738996174731,157.6 225.0435067008075,176.0 242.09371932976978,176.0" stroke="none" /><polygon fill="#f6d33f" points="231.4738996174731,157.6 223.01662362349833,157.6 225.0435067008075,176.0" stroke="none" /><polygon fill="#f4d03a" points="223.01662362349833,157.6 220.4033365976377,176.0 225.0435067008075,176.0" stroke="none" /><polygon fill="#f5d138" points="223.01662362349833,157.6 213.71362003012607,157.6 220.4033365976377,176.0" stroke="none" /><polygon fill="#f3cc31" points="213.71362003012607,157.6 204.7991494841509,176.0 220.4033365976377,176.0" stroke="none" /><polygon fill="#f6d33d" points="213.71362003012607,157.6 255,157.6 204.7991494841509,176.0" stroke="none" /><polygon fill="#f6d548" points="255,157.6 254,176.0 204.7991494841509,176.0" stroke="none" /><polygon fill="#f9dd5b" points="255,157.6 257.0,157.6 254,176.0" stroke="none" /><polygon fill="#f8db58" points="257.0,157.6 259.0,176.0 254,176.0" stroke="none" /><polygon fill="#f9db55" points="257.0,157.6 270.9545053900584,157.6 259.0,176.0" stroke="none" /><polygon fill="#f7d74e" points="270.9545053900584,157.6 273.9062806702302,176.0 259.0,176.0" stroke="none" /><polygon fill="#f7d74a" points="270.9545053900584,157.6 279.52610038252686,157.6 273.9062806702302,176.0" stroke="none" /><polygon fill="#f5d343" points="279.52610038252686,157.6 284.9564932991925,176.0 273.9062806702302,176.0" stroke="none" /><polygon fill="#f6d440" points="279.52610038252686,157.6 288.98337637650167,157.6 284.9564932991925,176.0" stroke="none" /><polygon fill="#f4d03b" points="288.98337637650167,157.6 290.5966634023623,176.0 284.9564932991925,176.0" stroke="none" /><polygon fill="#f5d138" points="288.98337637650167,157.6 300.2863799698739,157.6 290.5966634023623,176.0" stroke="none" /><polygon fill="#f3cc31" points="300.2863799698739,157.6 307.20085051584914,176.0 290.5966634023623,176.0" stroke="none" /><polygon fill="#f6d74d" points="253.0,176.0 242.09371932976978,176.0 254.0,192.0" stroke="none" /><polygon fill="#f5d446" points="242.09371932976978,176.0 235.20922470879876,192.0 254.0,192.0" stroke="none" /><polygon fill="#f3d140" points="242.09371932976978,176.0 225.0435067008075,176.0 235.20922470879876,192.0" stroke="none" /><polygon fill="#f1cd3a" points="225.0435067008075,176.0 225.97378888213117,192.0 235.20922470879876,192.0" stroke="none" /><polygon fill="#f1cd38" points="225.0435067008075,176.0 220.4033365976377,176.0 225.97378888213117,192.0" stroke="none" /><polygon fill="#efc932" points="220.4033365976377,176.0 209.58544022079707,192.0 225.97378888213117,192.0" stroke="none" /><polygon fill="#efc82d" points="220.4033365976377,176.0 204.7991494841509,176.0 209.58544022079707,192.0" stroke="none" /><polygon fill="#ecc427" points="204.7991494841509,176.0 201.05825669332958,192.0 209.58544022079707,192.0" stroke="none" /><polygon fill="#f1cb34" points="204.7991494841509,176.0 254,176.0 201.05825669332958,192.0" stroke="none" /><polygon fill="#f3d141" points="254,176.0 257,192.0 201.05825669332958,192.0" stroke="none" /><polygon fill="#f7d952" points="254,176.0 259.0,176.0 257,192.0" stroke="none" /><polygon fill="#f7d84f" points="259.0,176.0 253.0,192.0 257,192.0" stroke="none" /><polygon fill="#f6d74e" points="259.0,176.0 273.9062806702302,176.0 253.0,192.0" stroke="none" /><polygon fill="#f5d446" points="273.9062806702302,176.0 275.7907752912012,192.0 253.0,192.0" stroke="none" /><polygon fill="#f3d140" points="273.9062806702302,176.0 284.9564932991925,176.0 275.7907752912012,192.0" stroke="none" /><polygon fill="#f1cd3a" points="284.9564932991925,176.0 289.02621111786885,192.0 275.7907752912012,192.0" stroke="none" /><polygon fill="#f1cd38" points="284.9564932991925,176.0 290.5966634023623,176.0 289.02621111786885,192.0" stroke="none" /><polygon fill="#efc932" points="290.5966634023623,176.0 300.41455977920293,192.0 289.02621111786885,192.0" stroke="none" /><polygon fill="#efc92e" points="290.5966634023623,176.0 307.20085051584914,176.0 300.41455977920293,192.0" stroke="none" /><polygon fill="#ecc326" points="307.20085051584914,176.0 314.9417433066704,192.0 300.41455977920293,192.0" stroke="none" /><polygon fill="#f4d444" points="254.0,192.0 235.20922470879876,192.0 254.0,205.6" stroke="none" /><polygon fill="#f3d03e" points="235.20922470879876,192.0 234.73563990035123,205.6 254.0,205.6" stroke="none" /><polygon fill="#f0cc39" points="235.20922470879876,192.0 225.97378888213117,192.0 234.73563990035123,205.6" stroke="none" /><polygon fill="#eec933" points="225.97378888213117,192.0 216.62627618849612,205.6 234.73563990035123,205.6" stroke="none" /><polygon fill="#edc62e" points="225.97378888213117,192.0 209.58544022079707,192.0 216.62627618849612,205.6" stroke="none" /><polygon fill="#eac229" points="209.58544022079707,192.0 206.73878521901202,205.6 216.62627618849612,205.6" stroke="none" /><polygon fill="#eac026" points="209.58544022079707,192.0 201.05825669332958,192.0 206.73878521901202,205.6" stroke="none" /><polygon fill="#e7bc21" points="201.05825669332958,192.0 189.5625451525795,205.6 206.73878521901202,205.6" stroke="none" /><polygon fill="#ecc52d" points="201.05825669332958,192.0 257,192.0 189.5625451525795,205.6" stroke="none" /><polygon fill="#f1cd3a" points="257,192.0 258,205.6 189.5625451525795,205.6" stroke="none" /><polygon fill="#f7d84b" points="257,192.0 253.0,192.0 258,205.6" stroke="none" /><polygon fill="#f6d648" points="253.0,192.0 256.0,205.6 258,205.6" stroke="none" /><polygon fill="#f5d546" points="253.0,192.0 275.7907752912012,192.0 256.0,205.6" stroke="none" /><polygon fill="#f3d03f" points="275.7907752912012,192.0 277.26436009964874,205.6 256.0,205.6" stroke="none" /><polygon fill="#f0cc38" points="275.7907752912012,192.0 289.02621111786885,192.0 277.26436009964874,205.6" stroke="none" /><polygon fill="#eec933" points="289.02621111786885,192.0 292.3737238115039,205.6 277.26436009964874,205.6" stroke="none" /><polygon fill="#edc62f" points="289.02621111786885,192.0 300.41455977920293,192.0 292.3737238115039,205.6" stroke="none" /><polygon fill="#ebc22a" points="300.41455977920293,192.0 307.261214780988,205.6 292.3737238115039,205.6" stroke="none" /><polygon fill="#e9c025" points="300.41455977920293,192.0 314.9417433066704,192.0 307.261214780988,205.6" stroke="none" /><polygon fill="#e7bc20" points="314.9417433066704,192.0 321.4374548474205,205.6 307.261214780988,205.6" stroke="none" /><polygon fill="#f4d13f" points="254.0,205.6 234.73563990035123,205.6 255.0,218.4" stroke="none" /><polygon fill="#f1ce3a" points="234.73563990035123,205.6 239.28371651896367,218.4 255.0,218.4" stroke="none" /><polygon fill="#eec834" points="234.73563990035123,205.6 216.62627618849612,205.6 239.28371651896367,218.4" stroke="none" /><polygon fill="#ecc52f" points="216.62627618849612,205.6 223.34713812423917,218.4 239.28371651896367,218.4" stroke="none" /><polygon fill="#e9c12a" points="216.62627618849612,205.6 206.73878521901202,205.6 223.34713812423917,218.4" stroke="none" /><polygon fill="#e8bf27" points="206.73878521901202,205.6 210.39787540845956,218.4 223.34713812423917,218.4" stroke="none" /><polygon fill="#e5ba22" points="206.73878521901202,205.6 189.5625451525795,205.6 210.39787540845956,218.4" stroke="none" /><polygon fill="#e3b81f" points="189.5625451525795,205.6 198.253686421102,218.4 210.39787540845956,218.4" stroke="none" /><polygon fill="#e9c02a" points="189.5625451525795,205.6 258,205.6 198.253686421102,218.4" stroke="none" /><polygon fill="#efcb36" points="258,205.6 254,218.4 198.253686421102,218.4" stroke="none" /><polygon fill="#f7d545" points="258,205.6 256.0,205.6 254,218.4" stroke="none" /><polygon fill="#f5d441" points="256.0,205.6 255.0,218.4 254,218.4" stroke="none" /><polygon fill="#f4d140" points="256.0,205.6 277.26436009964874,205.6 255.0,218.4" stroke="none" /><polygon fill="#f1cd39" points="277.26436009964874,205.6 277.7162834810363,218.4 255.0,218.4" stroke="none" /><polygon fill="#eec733" points="277.26436009964874,205.6 292.3737238115039,205.6 277.7162834810363,218.4" stroke="none" /><polygon fill="#ecc52f" points="292.3737238115039,205.6 288.65286187576083,218.4 277.7162834810363,218.4" stroke="none" /><polygon fill="#eac12b" points="292.3737238115039,205.6 307.261214780988,205.6 288.65286187576083,218.4" stroke="none" /><polygon fill="#e8be27" points="307.261214780988,205.6 301.6021245915404,218.4 288.65286187576083,218.4" stroke="none" /><polygon fill="#e5ba22" points="307.261214780988,205.6 321.4374548474205,205.6 301.6021245915404,218.4" stroke="none" /><polygon fill="#e3b71f" points="321.4374548474205,205.6 315.746313578898,218.4 301.6021245915404,218.4" stroke="none" /><polygon fill="#f3d03a" points="255.0,218.4 239.28371651896367,218.4 257.0,229.6" stroke="none" /><polygon fill="#f0ca35" points="239.28371651896367,218.4 232.5747722333397,229.6 257.0,229.6" stroke="none" /><polygon fill="#ecc630" points="239.28371651896367,218.4 223.34713812423917,218.4 232.5747722333397,229.6" stroke="none" /><polygon fill="#e9c02b" points="223.34713812423917,218.4 218.10111483435463,229.6 232.5747722333397,229.6" stroke="none" /><polygon fill="#e7be28" points="223.34713812423917,218.4 210.39787540845956,218.4 218.10111483435463,229.6" stroke="none" /><polygon fill="#e4ba25" points="210.39787540845956,218.4 207.72218891516656,229.6 218.10111483435463,229.6" stroke="none" /><polygon fill="#e3b821" points="210.39787540845956,218.4 198.253686421102,218.4 207.72218891516656,229.6" stroke="none" /><polygon fill="#dfb31e" points="198.253686421102,218.4 192.10537040405967,229.6 207.72218891516656,229.6" stroke="none" /><polygon fill="#e6bd26" points="198.253686421102,218.4 254,218.4 192.10537040405967,229.6" stroke="none" /><polygon fill="#edc631" points="254,218.4 257,229.6 192.10537040405967,229.6" stroke="none" /><polygon fill="#f5d23d" points="254,218.4 255.0,218.4 257,229.6" stroke="none" /><polygon fill="#f5d13c" points="255.0,218.4 257.0,229.6 257,229.6" stroke="none" /><polygon fill="#f3cf39" points="255.0,218.4 277.7162834810363,218.4 257.0,229.6" stroke="none" /><polygon fill="#efc934" points="277.7162834810363,218.4 279.4252277666603,229.6 257.0,229.6" stroke="none" /><polygon fill="#ecc52f" points="277.7162834810363,218.4 288.65286187576083,218.4 279.4252277666603,229.6" stroke="none" /><polygon fill="#eac12c" points="288.65286187576083,218.4 290.89888516564537,229.6 279.4252277666603,229.6" stroke="none" /><polygon fill="#e7bf28" points="288.65286187576083,218.4 301.6021245915404,218.4 290.89888516564537,229.6" stroke="none" /><polygon fill="#e5ba25" points="301.6021245915404,218.4 305.27781108483344,229.6 290.89888516564537,229.6" stroke="none" /><polygon fill="#e2b721" points="301.6021245915404,218.4 315.746313578898,218.4 305.27781108483344,229.6" stroke="none" /><polygon fill="#dfb21d" points="315.746313578898,218.4 320.89462959594033,229.6 305.27781108483344,229.6" stroke="none" /><polygon fill="#f2cc35" points="257.0,229.6 232.5747722333397,229.6 257.0,242.4" stroke="none" /><polygon fill="#eec72f" points="232.5747722333397,229.6 236.63768027797553,242.4 257.0,242.4" stroke="none" /><polygon fill="#eac12b" points="232.5747722333397,229.6 218.10111483435463,229.6 236.63768027797553,242.4" stroke="none" /><polygon fill="#e7be28" points="218.10111483435463,229.6 222.21168048856305,242.4 236.63768027797553,242.4" stroke="none" /><polygon fill="#e4b925" points="218.10111483435463,229.6 207.72218891516656,229.6 222.21168048856305,242.4" stroke="none" /><polygon fill="#e1b722" points="207.72218891516656,229.6 208.87088065703307,242.4 222.21168048856305,242.4" stroke="none" /><polygon fill="#dfb21e" points="207.72218891516656,229.6 192.10537040405967,229.6 208.87088065703307,242.4" stroke="none" /><polygon fill="#dbae1c" points="192.10537040405967,229.6 195.29600084235008,242.4 208.87088065703307,242.4" stroke="none" /><polygon fill="#e4b924" points="192.10537040405967,229.6 257,229.6 195.29600084235008,242.4" stroke="none" /><polygon fill="#ebc32c" points="257,229.6 253,242.4 195.29600084235008,242.4" stroke="none" /><polygon fill="#f4d038" points="257,229.6 257.0,229.6 253,242.4" stroke="none" /><polygon fill="#f4cf35" points="257.0,229.6 255.0,242.4 253,242.4" stroke="none" /><polygon fill="#f1cc35" points="257.0,229.6 279.4252277666603,229.6 255.0,242.4" stroke="none" /><polygon fill="#eec72f" points="279.4252277666603,229.6 277.3623197220245,242.4 255.0,242.4" stroke="none" /><polygon fill="#eac12b" points="279.4252277666603,229.6 290.89888516564537,229.6 277.3623197220245,242.4" stroke="none" /><polygon fill="#e7be28" points="290.89888516564537,229.6 291.78831951143695,242.4 277.3623197220245,242.4" stroke="none" /><polygon fill="#e4b925" points="290.89888516564537,229.6 305.27781108483344,229.6 291.78831951143695,242.4" stroke="none" /><polygon fill="#e1b522" points="305.27781108483344,229.6 306.12911934296693,242.4 291.78831951143695,242.4" stroke="none" /><polygon fill="#deb11d" points="305.27781108483344,229.6 320.89462959594033,229.6 306.12911934296693,242.4" stroke="none" /><polygon fill="#dbae1c" points="320.89462959594033,229.6 314.70399915764995,242.4 306.12911934296693,242.4" stroke="none" /><polygon fill="#f1ca2f" points="257.0,242.4 236.63768027797553,242.4 255.0,256.0" stroke="none" /><polygon fill="#eec62b" points="236.63768027797553,242.4 240.5473122783175,256.0 255.0,256.0" stroke="none" /><polygon fill="#e9c029" points="236.63768027797553,242.4 222.21168048856305,242.4 240.5473122783175,256.0" stroke="none" /><polygon fill="#e7be26" points="222.21168048856305,242.4 230.0831549134065,256.0 240.5473122783175,256.0" stroke="none" /><polygon fill="#e3b824" points="222.21168048856305,242.4 208.87088065703307,242.4 230.0831549134065,256.0" stroke="none" /><polygon fill="#e2b722" points="208.87088065703307,242.4 220.11182902147772,256.0 230.0831549134065,256.0" stroke="none" /><polygon fill="#ddb01f" points="208.87088065703307,242.4 195.29600084235008,242.4 220.11182902147772,256.0" stroke="none" /><polygon fill="#dbae1d" points="195.29600084235008,242.4 204.14337054035605,256.0 220.11182902147772,256.0" stroke="none" /><polygon fill="#e2b622" points="195.29600084235008,242.4 253,242.4 204.14337054035605,256.0" stroke="none" /><polygon fill="#eac128" points="253,242.4 253,256.0 204.14337054035605,256.0" stroke="none" /><polygon fill="#f2cd31" points="253,242.4 255.0,242.4 253,256.0" stroke="none" /><polygon fill="#f3cd2f" points="255.0,242.4 257.0,256.0 253,256.0" stroke="none" /><polygon fill="#f0ca2f" points="255.0,242.4 277.3623197220245,242.4 257.0,256.0" stroke="none" /><polygon fill="#edc62b" points="277.3623197220245,242.4 270.45268772168254,256.0 257.0,256.0" stroke="none" /><polygon fill="#e9bf28" points="277.3623197220245,242.4 291.78831951143695,242.4 270.45268772168254,256.0" stroke="none" /><polygon fill="#e6bc25" points="291.78831951143695,242.4 286.9168450865935,256.0 270.45268772168254,256.0" stroke="none" /><polygon fill="#e2b622" points="291.78831951143695,242.4 306.12911934296693,242.4 286.9168450865935,256.0" stroke="none" /><polygon fill="#e0b521" points="306.12911934296693,242.4 292.8881709785223,256.0 286.9168450865935,256.0" stroke="none" /><polygon fill="#ddb01e" points="306.12911934296693,242.4 314.70399915764995,242.4 292.8881709785223,256.0" stroke="none" /><polygon fill="#dcb01e" points="314.70399915764995,242.4 302.85662945964395,256.0 292.8881709785223,256.0" stroke="none" /><polygon fill="#f0c829" points="255.0,256.0 240.5473122783175,256.0 257.0,269.6" stroke="none" /><polygon fill="#edc326" points="240.5473122783175,256.0 237.5528850768956,269.6 257.0,269.6" stroke="none" /><polygon fill="#e8be24" points="240.5473122783175,256.0 230.0831549134065,256.0 237.5528850768956,269.6" stroke="none" /><polygon fill="#e5b922" points="230.0831549134065,256.0 223.33537377151347,269.6 237.5528850768956,269.6" stroke="none" /><polygon fill="#e2b721" points="230.0831549134065,256.0 220.11182902147772,256.0 223.33537377151347,269.6" stroke="none" /><polygon fill="#deb21e" points="220.11182902147772,256.0 211.7613647272078,269.6 223.33537377151347,269.6" stroke="none" /><polygon fill="#dbae1d" points="220.11182902147772,256.0 204.14337054035605,256.0 211.7613647272078,269.6" stroke="none" /><polygon fill="#d7a91b" points="204.14337054035605,256.0 200.12995477847153,269.6 211.7613647272078,269.6" stroke="none" /><polygon fill="#dfb31f" points="204.14337054035605,256.0 253,256.0 200.12995477847153,269.6" stroke="none" /><polygon fill="#e8be23" points="253,256.0 257,269.6 200.12995477847153,269.6" stroke="none" /><polygon fill="#f2cb2a" points="253,256.0 257.0,256.0 257,269.6" stroke="none" /><polygon fill="#f2ca28" points="257.0,256.0 253.0,269.6 257,269.6" stroke="none" /><polygon fill="#f0c929" points="257.0,256.0 270.45268772168254,256.0 253.0,269.6" stroke="none" /><polygon fill="#edc426" points="270.45268772168254,256.0 275.4471149231044,269.6 253.0,269.6" stroke="none" /><polygon fill="#e7bd24" points="270.45268772168254,256.0 286.9168450865935,256.0 275.4471149231044,269.6" stroke="none" /><polygon fill="#e4b921" points="286.9168450865935,256.0 283.6646262284865,269.6 275.4471149231044,269.6" stroke="none" /><polygon fill="#e2b621" points="286.9168450865935,256.0 292.8881709785223,256.0 283.6646262284865,269.6" stroke="none" /><polygon fill="#dfb21f" points="292.8881709785223,256.0 300.23863527279224,269.6 283.6646262284865,269.6" stroke="none" /><polygon fill="#dcaf1d" points="292.8881709785223,256.0 302.85662945964395,256.0 300.23863527279224,269.6" stroke="none" /><polygon fill="#d9ab1c" points="302.85662945964395,256.0 305.87004522152847,269.6 300.23863527279224,269.6" stroke="none" /><polygon fill="#f0c623" points="257.0,269.6 237.5528850768956,269.6 259.0,284.0" stroke="none" /><polygon fill="#edc322" points="237.5528850768956,269.6 242.83463001663173,284.0 259.0,284.0" stroke="none" /><polygon fill="#e6ba1f" points="237.5528850768956,269.6 223.33537377151347,269.6 242.83463001663173,284.0" stroke="none" /><polygon fill="#e5b91f" points="223.33537377151347,269.6 234.10328912014063,284.0 242.83463001663173,284.0" stroke="none" /><polygon fill="#dfb21d" points="223.33537377151347,269.6 211.7613647272078,269.6 234.10328912014063,284.0" stroke="none" /><polygon fill="#dfb21d" points="211.7613647272078,269.6 221.51821640294776,284.0 234.10328912014063,284.0" stroke="none" /><polygon fill="#d8a91a" points="211.7613647272078,269.6 200.12995477847153,269.6 221.51821640294776,284.0" stroke="none" /><polygon fill="#d8aa1b" points="200.12995477847153,269.6 215.07463641403558,284.0 221.51821640294776,284.0" stroke="none" /><polygon fill="#dfb31d" points="200.12995477847153,269.6 257,269.6 215.07463641403558,284.0" stroke="none" /><polygon fill="#ebc121" points="257,269.6 259,284.0 215.07463641403558,284.0" stroke="none" /><polygon fill="#f2c923" points="257,269.6 253.0,269.6 259,284.0" stroke="none" /><polygon fill="#f2c923" points="253.0,269.6 259.0,284.0 259,284.0" stroke="none" /><polygon fill="#efc522" points="253.0,269.6 275.4471149231044,269.6 259.0,284.0" stroke="none" /><polygon fill="#ebc121" points="275.4471149231044,269.6 269.16536998336824,284.0 259.0,284.0" stroke="none" /><polygon fill="#e7bb1f" points="275.4471149231044,269.6 283.6646262284865,269.6 269.16536998336824,284.0" stroke="none" /><polygon fill="#e5ba1f" points="283.6646262284865,269.6 281.89671087985937,284.0 269.16536998336824,284.0" stroke="none" /><polygon fill="#dfb21d" points="283.6646262284865,269.6 300.23863527279224,269.6 281.89671087985937,284.0" stroke="none" /><polygon fill="#deb11c" points="300.23863527279224,269.6 290.48178359705224,284.0 281.89671087985937,284.0" stroke="none" /><polygon fill="#d9ab1b" points="300.23863527279224,269.6 305.87004522152847,269.6 290.48178359705224,284.0" stroke="none" /><polygon fill="#d9ab1b" points="305.87004522152847,269.6 297.9253635859644,284.0 290.48178359705224,284.0" stroke="none" /><polygon fill="#f0c723" points="259.0,284.0 242.83463001663173,284.0 256.0,300.0" stroke="none" /><polygon fill="#edc322" points="242.83463001663173,284.0 241.041,300.0 256.0,300.0" stroke="none" /><polygon fill="#e9be20" points="242.83463001663173,284.0 234.10328912014063,284.0 241.041,300.0" stroke="none" /><polygon fill="#e7bb1f" points="234.10328912014063,284.0 232.466,300.0 241.041,300.0" stroke="none" /><polygon fill="#e3b61e" points="234.10328912014063,284.0 221.51821640294776,284.0 232.466,300.0" stroke="none" /><polygon fill="#e0b41d" points="221.51821640294776,284.0 223.006,300.0 232.466,300.0" stroke="none" /><polygon fill="#ddb01c" points="221.51821640294776,284.0 215.07463641403558,284.0 223.006,300.0" stroke="none" /><polygon fill="#dbae1c" points="215.07463641403558,284.0 212.7,300.0 223.006,300.0" stroke="none" /><polygon fill="#e2b61e" points="215.07463641403558,284.0 259,284.0 212.7,300.0" stroke="none" /><polygon fill="#ebc021" points="259,284.0 257,300.0 212.7,300.0" stroke="none" /><polygon fill="#f1c823" points="259,284.0 259.0,284.0 257,300.0" stroke="none" /><polygon fill="#f2c823" points="259.0,284.0 257.0,300.0 257,300.0" stroke="none" /><polygon fill="#efc522" points="259.0,284.0 269.16536998336824,284.0 257.0,300.0" stroke="none" /><polygon fill="#edc322" points="269.16536998336824,284.0 268.959,300.0 257.0,300.0" stroke="none" /><polygon fill="#e8bd20" points="269.16536998336824,284.0 281.89671087985937,284.0 268.959,300.0" stroke="none" /><polygon fill="#e6bb1f" points="281.89671087985937,284.0 279.534,300.0 268.959,300.0" stroke="none" /><polygon fill="#e2b61e" points="281.89671087985937,284.0 290.48178359705224,284.0 279.534,300.0" stroke="none" /><polygon fill="#e0b41d" points="290.48178359705224,284.0 288.994,300.0 279.534,300.0" stroke="none" /><polygon fill="#ddaf1c" points="290.48178359705224,284.0 297.9253635859644,284.0 288.994,300.0" stroke="none" /><polygon fill="#dbae1c" points="297.9253635859644,284.0 298.3,300.0 288.994,300.0" stroke="none" /><path d="M 240 209 A 9 14 0 0 0 240 229 Z" fill="#f3ca24" stroke="#d0a018" stroke-width="1" /><circle cx="237" cy="229" fill="#f3ca24" r="3" stroke="#d0a018" stroke-width="1" /><path d="M 272 209 A 9 14 0 0 1 272 229 Z" fill="#f3ca24" stroke="#d0a018" stroke-width="1" /><circle cx="275" cy="229" fill="#f3ca24" r="3" stroke="#d0a018" stroke-width="1" /><line stroke="#3a2a1a" stroke-width="3" x1="211" x2="232" y1="212" y2="214" /><line stroke="#3a2a1a" stroke-width="3" x1="236" x2="257" y1="214" y2="212" /><line stroke="#3a2a1a" stroke-width="3" x1="255" x2="276" y1="212" y2="214" /><line stroke="#3a2a1a" stroke-width="3" x1="280" x2="301" y1="214" y2="212" /><line stroke="#3a2a1a" stroke-width="3" x1="218" x2="250" y1="208" y2="208" /><line stroke="#3a2a1a" stroke-width="3" x1="266" x2="290" y1="212" y2="212" /><path d="M 215 225 A 9 6 0 0 0 233 225 Z" fill="#e88060" fill-opacity="0.21765065271343043" stroke="none" /><path d="M 277 225 A 9 6 0 0 0 295 225 Z" fill="#e88060" fill-opacity="0.24960508675039095" stroke="none" /><circle cx="256" cy="226" fill="#d0a018" r="3" stroke="none" /><path d="M 238 237 Q 256 246 274 237" fill="none" stroke="#c06050" stroke-width="3" /><path d="M 236 235 Q 256 249 276 235" fill="none" stroke="#a04030" stroke-width="1.5" /><path d="M 236 237 Q 256 244 276 237" fill="none" stroke="#f0a0a0" stroke-width="1" /><path d="M 271 187 Q 278 180 285 187" fill="none" stroke="#d4c0a0" stroke-opacity="0.3" stroke-width="1" /><path d="M 283 241 Q 289 235 295 241" fill="none" stroke="#d4c0a0" stroke-opacity="0.3" stroke-width="1" /><path d="M 219 185 Q 225 179 231 185" fill="none" stroke="#d4c0a0" stroke-opacity="0.3" stroke-width="1" /><path d="M 232 196 Q 239 189 246 196" fill="none" stroke="#d4c0a0" stroke-opacity="0.3" stroke-width="1" /><path d="M 295 189 Q 301 183 307 189" fill="none" stroke="#d4c0a0" stroke-opacity="0.3" stroke-width="1" /><path d="M 265 202 Q 271 196 277 202" fill="none" stroke="#d4c0a0" stroke-opacity="0.3" stroke-width="1" /><path d="M 261 252 Q 266 247 271 252" fill="none" stroke="#d4c0a0" stroke-opacity="0.3" stroke-width="1" /><path d="M 284 250 Q 290 244 296 250" fill="none" stroke="#d4c0a0" stroke-opacity="0.3" stroke-width="1" /><path d="M 289 195 Q 295 189 301 195" fill="none" stroke="#d4c0a0" stroke-opacity="0.3" stroke-width="1" /><path d="M 298 238 Q 304 232 310 238" fill="none" stroke="#d4c0a0" stroke-opacity="0.3" stroke-width="1" /><path d="M 220 252 Q 223 249 226 252" fill="none" stroke="#d4c0a0" stroke-opacity="0.3" stroke-width="1" /><path d="M 262 247 Q 269 240 276 247" fill="none" stroke="#d4c0a0" stroke-opacity="0.3" stroke-width="1" /><polygon fill="#b48c14" points="233,296.0 279,296.0 279,331.0 233,331.0" stroke="none" /><path d="M 253 314.0 Q 256 304.0 259 314.0" fill="none" stroke="#d0a018" stroke-width="1.5" /></svg>