<?xml version="1.0" encoding="utf-8" ?>
<svg baseProfile="full" height="512" version="1.1" width="512" xmlns="http://www.w3.org/2000/svg" xmlns:ev="http://www.w3.org/2001/xml-events" xmlns:xlink="http://www.w3.org/1999/xlink"><defs /><polygon fill="#fbdf61" points="255.0,135.0 254.1486,135.0 258.0,153.7" stroke="none" /><polygon fill="#fbde5d" points="254.1486,135.0 246.70293624456482,153.7 258.0,153.7" stroke="none" /><polygon fill="#fbdd5c" points="254.1486,135.0 255.5036,135.0 246.70293624456482,153.7" stroke="none" /><polygon fill="#fadb56" points="255.5036,135.0 242.93243339953818,153.7 246.70293624456482,153.7" stroke="none" /><polygon fill="#fadd5a" points="255.5036,135.0 254.9876,135.0 242.93243339953818,153.7" stroke="none" /><polygon fill="#f9da51" points="254.9876,135.0 238.11603112351688,153.7 242.93243339953818,153.7" stroke="none" /><polygon fill="#fadc57" points="254.9876,135.0 253.42,135.0 238.11603112351688,153.7" stroke="none" /><polygon fill="#f9d94f" points="253.42,135.0 238.91798861989344,153.7 238.11603112351688,153.7" stroke="none" /><polygon fill="#fadc58" points="253.42,135.0 257,135.0 238.91798861989344,153.7" stroke="none" /><polygon fill="#fadc58" points="257,135.0 254,153.7 238.91798861989344,153.7" stroke="none" /><polygon fill="#fbdf61" points="257,135.0 256.0,135.0 254,153.7" stroke="none" /><polygon fill="#fbdf60" points="256.0,135.0 255.0,153.7 254,153.7" stroke="none" /><polygon fill="#fbdf61" points="256.0,135.0 257.8514,135.0 255.0,153.7" stroke="none" /><polygon fill="#fbde5c" points="257.8514,135.0 265.29706375543515,153.7 255.0,153.7" stroke="none" /><polygon fill="#fadd5b" points="257.8514,135.0 258.4964,135.0 265.29706375543515,153.7" stroke="none" /><polygon fill="#fadb55" points="258.4964,135.0 269.0675666004618,153.7 265.29706375543515,153.7" stroke="none" /><polygon fill="#fadc58" points="258.4964,135.0 259.0124,135.0 269.0675666004618,153.7" stroke="none" /><polygon fill="#f9da52" points="259.0124,135.0 269.8839688764831,153.7 269.0675666004618,153.7" stroke="none" /><polygon fill="#fadc57" points="259.0124,135.0 259.58,135.0 269.8839688764831,153.7" stroke="none" /><polygon fill="#f9d950" points="259.58,135.0 273.08201138010656,153.7 269.8839688764831,153.7" stroke="none" /><polygon fill="#fbdf5f" points="258.0,153.7 246.70293624456482,153.7 259.0,173.25" stroke="none" /><polygon fill="#f9da55" points="246.70293624456482,153.7 243.6520929634107,173.25 259.0,173.25" stroke="none" /><polygon fill="#f9d950" points="246.70293624456482,153.7 242.93243339953818,153.7 243.6520929634107,173.25" stroke="none" /><polygon fill="#f7d54a" points="242.93243339953818,153.7 238.812769450843,173.25 243.6520929634107,173.25" stroke="none" /><polygon fill="#f8d749" points="242.93243339953818,153.7 238.11603112351688,153.7 238.812769450843,173.25" stroke="none" /><polygon fill="#f5d140" points="238.11603112351688,153.7 228.54131064078888,173.25 238.812769450843,173.25" stroke="none" /><polygon fill="#f7d442" points="238.11603112351688,153.7 238.91798861989344,153.7 228.54131064078888,173.25" stroke="none" /><polygon fill="#f4ce39" points="238.91798861989344,153.7 223.64270594972936,173.25 228.54131064078888,173.25" stroke="none" /><polygon fill="#f8d648" points="238.91798861989344,153.7 254,153.7 223.64270594972936,173.25" stroke="none" /><polygon fill="#f8d74e" points="254,153.7 256,173.25 223.64270594972936,173.25" stroke="none" /><polygon fill="#fbdf60" points="254,153.7 255.0,153.7 256,173.25" stroke="none" /><polygon fill="#fadd5e" points="255.0,153.7 259.0,173.25 256,173.25" stroke="none" /><polygon fill="#fbdd5c" points="255.0,153.7 265.29706375543515,153.7 259.0,173.25" stroke="none" /><polygon fill="#f8d852" points="265.29706375543515,153.7 269.34790703658933,173.25 259.0,173.25" stroke="none" /><polygon fill="#f9d950" points="265.29706375543515,153.7 269.0675666004618,153.7 269.34790703658933,173.25" stroke="none" /><polygon fill="#f7d54a" points="269.0675666004618,153.7 272.187230549157,173.25 269.34790703658933,173.25" stroke="none" /><polygon fill="#f8d74c" points="269.0675666004618,153.7 269.8839688764831,153.7 272.187230549157,173.25" stroke="none" /><polygon fill="#f6d345" points="269.8839688764831,153.7 279.4586893592111,173.25 272.187230549157,173.25" stroke="none" /><polygon fill="#f7d546" points="269.8839688764831,153.7 273.08201138010656,153.7 279.4586893592111,173.25" stroke="none" /><polygon fill="#f4cf3b" points="273.08201138010656,153.7 289.35729405027064,173.25 279.4586893592111,173.25" stroke="none" /><polygon fill="#f8d953" points="259.0,173.25 243.6520929634107,173.25 254.0,190.25" stroke="none" /><polygon fill="#f7d54c" points="243.6520929634107,173.25 246.85512441698185,190.25 254.0,190.25" stroke="none" /><polygon fill="#f5d347" points="243.6520929634107,173.25 238.812769450843,173.25 246.85512441698185,190.25" stroke="none" /><polygon fill="#f4d043" points="238.812769450843,173.25 237.41203685408934,190.25 246.85512441698185,190.25" stroke="none" /><polygon fill="#f2ce3c" points="238.812769450843,173.25 228.54131064078888,173.25 237.41203685408934,190.25" stroke="none" /><polygon fill="#f1ca36" points="228.54131064078888,173.25 228.6575668037753,190.25 237.41203685408934,190.25" stroke="none" /><polygon fill="#f0c932" points="228.54131064078888,173.25 223.64270594972936,173.25 228.6575668037753,190.25" stroke="none" /><polygon fill="#eec62e" points="223.64270594972936,173.25 222.22764974842988,190.25 228.6575668037753,190.25" stroke="none" /><polygon fill="#f2cd3b" points="223.64270594972936,173.25 256,173.25 222.22764974842988,190.25" stroke="none" /><polygon fill="#f6d449" points="256,173.25 259,190.25 222.22764974842988,190.25" stroke="none" /><polygon fill="#f9da56" points="256,173.25 259.0,173.25 259,190.25" stroke="none" /><polygon fill="#f9d953" points="259.0,173.25 258.0,190.25 259,190.25" stroke="none" /><polygon fill="#f7d850" points="259.0,173.25 269.34790703658933,173.25 258.0,190.25" stroke="none" /><polygon fill="#f6d44a" points="269.34790703658933,173.25 270.1448755830181,190.25 258.0,190.25" stroke="none" /><polygon fill="#f5d245" points="269.34790703658933,173.25 272.187230549157,173.25 270.1448755830181,190.25" stroke="none" /><polygon fill="#f4d042" points="272.187230549157,173.25 273.5879631459107,190.25 270.1448755830181,190.25" stroke="none" /><polygon fill="#f3cf3f" points="272.187230549157,173.25 279.4586893592111,173.25 273.5879631459107,190.25" stroke="none" /><polygon fill="#f2cc3a" points="279.4586893592111,173.25 279.3424331962247,190.25 273.5879631459107,190.25" stroke="none" /><polygon fill="#f1ca35" points="279.4586893592111,173.25 289.35729405027064,173.25 279.3424331962247,190.25" stroke="none" /><polygon fill="#efc72f" points="289.35729405027064,173.25 288.7723502515701,190.25 279.3424331962247,190.25" stroke="none" /><polygon fill="#f7d64c" points="254.0,190.25 246.85512441698185,190.25 254.0,204.7" stroke="none" /><polygon fill="#f4d246" points="246.85512441698185,190.25 241.64939872995734,204.7 254.0,204.7" stroke="none" /><polygon fill="#f3cf41" points="246.85512441698185,190.25 237.41203685408934,190.25 241.64939872995734,204.7" stroke="none" /><polygon fill="#f0cb3a" points="237.41203685408934,190.25 233.53530685871291,204.7 241.64939872995734,204.7" stroke="none" /><polygon fill="#efc936" points="237.41203685408934,190.25 228.6575668037753,190.25 233.53530685871291,204.7" stroke="none" /><polygon fill="#ecc531" points="228.6575668037753,190.25 227.44403336171737,204.7 233.53530685871291,204.7" stroke="none" /><polygon fill="#ecc42e" points="228.6575668037753,190.25 222.22764974842988,190.25 227.44403336171737,204.7" stroke="none" /><polygon fill="#e8be27" points="222.22764974842988,190.25 213.5436325150223,204.7 227.44403336171737,204.7" stroke="none" /><polygon fill="#eec834" points="222.22764974842988,190.25 259,190.25 213.5436325150223,204.7" stroke="none" /><polygon fill="#f2ce3f" points="259,190.25 253,204.7 213.5436325150223,204.7" stroke="none" /><polygon fill="#f8d951" points="259,190.25 258.0,190.25 253,204.7" stroke="none" /><polygon fill="#f8d84f" points="258.0,190.25 259.0,204.7 253,204.7" stroke="none" /><polygon fill="#f6d54a" points="258.0,190.25 270.1448755830181,190.25 259.0,204.7" stroke="none" /><polygon fill="#f4d245" points="270.1448755830181,190.25 266.35060127004266,204.7 259.0,204.7" stroke="none" /><polygon fill="#f3cf41" points="270.1448755830181,190.25 273.5879631459107,190.25 266.35060127004266,204.7" stroke="none" /><polygon fill="#f1cc3c" points="273.5879631459107,190.25 278.46469314128706,204.7 266.35060127004266,204.7" stroke="none" /><polygon fill="#f0ca38" points="273.5879631459107,190.25 279.3424331962247,190.25 278.46469314128706,204.7" stroke="none" /><polygon fill="#ecc530" points="279.3424331962247,190.25 289.5559666382826,204.7 278.46469314128706,204.7" stroke="none" /><polygon fill="#ecc42e" points="279.3424331962247,190.25 288.7723502515701,190.25 289.5559666382826,204.7" stroke="none" /><polygon fill="#e8be26" points="288.7723502515701,190.25 298.4563674849777,204.7 289.5559666382826,204.7" stroke="none" /><polygon fill="#f5d345" points="254.0,204.7 241.64939872995734,204.7 257.0,218.3" stroke="none" /><polygon fill="#f2cf3f" points="241.64939872995734,204.7 240.56242929863149,218.3 257.0,218.3" stroke="none" /><polygon fill="#efc938" points="241.64939872995734,204.7 233.53530685871291,204.7 240.56242929863149,218.3" stroke="none" /><polygon fill="#edc734" points="233.53530685871291,204.7 235.1400272521402,218.3 240.56242929863149,218.3" stroke="none" /><polygon fill="#ebc431" points="233.53530685871291,204.7 227.44403336171737,204.7 235.1400272521402,218.3" stroke="none" /><polygon fill="#e9c22e" points="227.44403336171737,204.7 229.60210561494713,218.3 235.1400272521402,218.3" stroke="none" /><polygon fill="#e7bd28" points="227.44403336171737,204.7 213.5436325150223,204.7 229.60210561494713,218.3" stroke="none" /><polygon fill="#e4ba24" points="213.5436325150223,204.7 219.31039181403477,218.3 229.60210561494713,218.3" stroke="none" /><polygon fill="#eac12d" points="213.5436325150223,204.7 253,204.7 219.31039181403477,218.3" stroke="none" /><polygon fill="#f0cb3a" points="253,204.7 253,218.3 219.31039181403477,218.3" stroke="none" /><polygon fill="#f7d649" points="253,204.7 259.0,204.7 253,218.3" stroke="none" /><polygon fill="#f7d648" points="259.0,204.7 258.0,218.3 253,218.3" stroke="none" /><polygon fill="#f5d345" points="259.0,204.7 266.35060127004266,204.7 258.0,218.3" stroke="none" /><polygon fill="#f3d040" points="266.35060127004266,204.7 267.43757070136854,218.3 258.0,218.3" stroke="none" /><polygon fill="#f0cb3b" points="266.35060127004266,204.7 278.46469314128706,204.7 267.43757070136854,218.3" stroke="none" /><polygon fill="#edc735" points="278.46469314128706,204.7 277.85997274785984,218.3 267.43757070136854,218.3" stroke="none" /><polygon fill="#eac22f" points="278.46469314128706,204.7 289.5559666382826,204.7 277.85997274785984,218.3" stroke="none" /><polygon fill="#e8c02c" points="289.5559666382826,204.7 284.3978943850529,218.3 277.85997274785984,218.3" stroke="none" /><polygon fill="#e6bb26" points="289.5559666382826,204.7 298.4563674849777,204.7 284.3978943850529,218.3" stroke="none" /><polygon fill="#e4ba24" points="298.4563674849777,204.7 295.6896081859652,218.3 284.3978943850529,218.3" stroke="none" /><polygon fill="#f3d03f" points="257.0,218.3 240.56242929863149,218.3 253.0,230.2" stroke="none" /><polygon fill="#f0cb3a" points="240.56242929863149,218.3 244.28671050774904,230.2 253.0,230.2" stroke="none" /><polygon fill="#edc735" points="240.56242929863149,218.3 235.1400272521402,218.3 244.28671050774904,230.2" stroke="none" /><polygon fill="#ebc332" points="235.1400272521402,218.3 230.8978548318013,230.2 244.28671050774904,230.2" stroke="none" /><polygon fill="#e8c02e" points="235.1400272521402,218.3 229.60210561494713,218.3 230.8978548318013,230.2" stroke="none" /><polygon fill="#e5bb29" points="229.60210561494713,218.3 222.58677029104314,230.2 230.8978548318013,230.2" stroke="none" /><polygon fill="#e4ba26" points="229.60210561494713,218.3 219.31039181403477,218.3 222.58677029104314,230.2" stroke="none" /><polygon fill="#e1b523" points="219.31039181403477,218.3 216.44457729620916,230.2 222.58677029104314,230.2" stroke="none" /><polygon fill="#e7be2b" points="219.31039181403477,218.3 253,218.3 216.44457729620916,230.2" stroke="none" /><polygon fill="#eec736" points="253,218.3 256,230.2 216.44457729620916,230.2" stroke="none" /><polygon fill="#f6d444" points="253,218.3 258.0,218.3 256,230.2" stroke="none" /><polygon fill="#f5d242" points="258.0,218.3 259.0,230.2 256,230.2" stroke="none" /><polygon fill="#f3d03f" points="258.0,218.3 267.43757070136854,218.3 259.0,230.2" stroke="none" /><polygon fill="#f1cc3b" points="267.43757070136854,218.3 268.71328949225096,230.2 259.0,230.2" stroke="none" /><polygon fill="#eec836" points="267.43757070136854,218.3 277.85997274785984,218.3 268.71328949225096,230.2" stroke="none" /><polygon fill="#ebc332" points="277.85997274785984,218.3 278.1021451681987,230.2 268.71328949225096,230.2" stroke="none" /><polygon fill="#e8c02e" points="277.85997274785984,218.3 284.3978943850529,218.3 278.1021451681987,230.2" stroke="none" /><polygon fill="#e6bc2b" points="284.3978943850529,218.3 286.41322970895686,230.2 278.1021451681987,230.2" stroke="none" /><polygon fill="#e3b925" points="284.3978943850529,218.3 295.6896081859652,218.3 286.41322970895686,230.2" stroke="none" /><polygon fill="#e1b523" points="295.6896081859652,218.3 294.55542270379084,230.2 286.41322970895686,230.2" stroke="none" /><polygon fill="#f4cf3c" points="253.0,230.2 244.28671050774904,230.2 259.0,243.8" stroke="none" /><polygon fill="#f1cb38" points="244.28671050774904,230.2 243.43175354784918,243.8 259.0,243.8" stroke="none" /><polygon fill="#ebc432" points="244.28671050774904,230.2 230.8978548318013,230.2 243.43175354784918,243.8" stroke="none" /><polygon fill="#e7bf2d" points="230.8978548318013,230.2 231.9103547204622,243.8 243.43175354784918,243.8" stroke="none" /><polygon fill="#e3ba28" points="230.8978548318013,230.2 222.58677029104314,230.2 231.9103547204622,243.8" stroke="none" /><polygon fill="#e2b827" points="222.58677029104314,230.2 229.29323565855265,243.8 231.9103547204622,243.8" stroke="none" /><polygon fill="#dfb524" points="222.58677029104314,230.2 216.44457729620916,230.2 229.29323565855265,243.8" stroke="none" /><polygon fill="#ddb121" points="216.44457729620916,230.2 215.9144046904521,243.8 229.29323565855265,243.8" stroke="none" /><polygon fill="#e4bb29" points="216.44457729620916,230.2 256,230.2 215.9144046904521,243.8" stroke="none" /><polygon fill="#ebc432" points="256,230.2 253,243.8 215.9144046904521,243.8" stroke="none" /><polygon fill="#f7d340" points="256,230.2 259.0,230.2 253,243.8" stroke="none" /><polygon fill="#f5d13d" points="259.0,230.2 253.0,243.8 253,243.8" stroke="none" /><polygon fill="#f4cf3c" points="259.0,230.2 268.71328949225096,230.2 253.0,243.8" stroke="none" /><polygon fill="#f0ca37" points="268.71328949225096,230.2 271.5682464521508,243.8 253.0,243.8" stroke="none" /><polygon fill="#ebc431" points="268.71328949225096,230.2 278.1021451681987,230.2 271.5682464521508,243.8" stroke="none" /><polygon fill="#e7bf2d" points="278.1021451681987,230.2 280.08964527953776,243.8 271.5682464521508,243.8" stroke="none" /><polygon fill="#e5bc2a" points="278.1021451681987,230.2 286.41322970895686,230.2 280.08964527953776,243.8" stroke="none" /><polygon fill="#e2b827" points="286.41322970895686,230.2 285.70676434144735,243.8 280.08964527953776,243.8" stroke="none" /><polygon fill="#e0b524" points="286.41322970895686,230.2 294.55542270379084,230.2 285.70676434144735,243.8" stroke="none" /><polygon fill="#ddb222" points="294.55542270379084,230.2 291.0855953095479,243.8 285.70676434144735,243.8" stroke="none" /><polygon fill="#f3cd37" points="259.0,243.8 243.43175354784918,243.8 256.0,258.25" stroke="none" /><polygon fill="#efc831" points="243.43175354784918,243.8 246.15153507493915,258.25 256.0,258.25" stroke="none" /><polygon fill="#e9c12e" points="243.43175354784918,243.8 231.9103547204622,243.8 246.15153507493915,258.25" stroke="none" /><polygon fill="#e6bd2a" points="231.9103547204622,243.8 234.9330010408021,258.25 246.15153507493915,258.25" stroke="none" /><polygon fill="#e3b928" points="231.9103547204622,243.8 229.29323565855265,243.8 234.9330010408021,258.25" stroke="none" /><polygon fill="#e1b726" points="229.29323565855265,243.8 229.3581738134925,258.25 234.9330010408021,258.25" stroke="none" /><polygon fill="#ddb223" points="229.29323565855265,243.8 215.9144046904521,243.8 229.3581738134925,258.25" stroke="none" /><polygon fill="#dbae20" points="215.9144046904521,243.8 223.1258638634519,258.25 229.3581738134925,258.25" stroke="none" /><polygon fill="#e2b827" points="215.9144046904521,243.8 253,243.8 223.1258638634519,258.25" stroke="none" /><polygon fill="#ebc42f" points="253,243.8 257,258.25 223.1258638634519,258.25" stroke="none" /><polygon fill="#f4cf38" points="253,243.8 253.0,243.8 257,258.25" stroke="none" /><polygon fill="#f3ce35" points="253.0,243.8 253.0,258.25 257,258.25" stroke="none" /><polygon fill="#f3cd37" points="253.0,243.8 271.5682464521508,243.8 253.0,258.25" stroke="none" /><polygon fill="#eec731" points="271.5682464521508,243.8 268.84846492506085,258.25 253.0,258.25" stroke="none" /><polygon fill="#e8bf2d" points="271.5682464521508,243.8 280.08964527953776,243.8 268.84846492506085,258.25" stroke="none" /><polygon fill="#e6bd2a" points="280.08964527953776,243.8 274.06699895919786,258.25 268.84846492506085,258.25" stroke="none" /><polygon fill="#e3b928" points="280.08964527953776,243.8 285.70676434144735,243.8 274.06699895919786,258.25" stroke="none" /><polygon fill="#e1b626" points="285.70676434144735,243.8 283.6418261865075,258.25 274.06699895919786,258.25" stroke="none" /><polygon fill="#ddb223" points="285.70676434144735,243.8 291.0855953095479,243.8 283.6418261865075,258.25" stroke="none" /><polygon fill="#dbaf21" points="291.0855953095479,243.8 289.8741361365481,258.25 283.6418261865075,258.25" stroke="none" /><polygon fill="#f1c930" points="256.0,258.25 246.15153507493915,258.25 254.0,272.7" stroke="none" /><polygon fill="#ecc42c" points="246.15153507493915,258.25 243.2171182167868,272.7 254.0,272.7" stroke="none" /><polygon fill="#e8be2a" points="246.15153507493915,258.25 234.9330010408021,258.25 243.2171182167868,272.7" stroke="none" /><polygon fill="#e5bb27" points="234.9330010408021,258.25 240.80584413859495,272.7 243.2171182167868,272.7" stroke="none" /><polygon fill="#e2b826" points="234.9330010408021,258.25 229.3581738134925,258.25 240.80584413859495,272.7" stroke="none" /><polygon fill="#e0b424" points="229.3581738134925,258.25 229.8768248760415,272.7 240.80584413859495,272.7" stroke="none" /><polygon fill="#dcb022" points="229.3581738134925,258.25 223.1258638634519,258.25 229.8768248760415,272.7" stroke="none" /><polygon fill="#dbae20" points="223.1258638634519,258.25 228.35490368723268,272.7 229.8768248760415,272.7" stroke="none" /><polygon fill="#e3b927" points="223.1258638634519,258.25 257,258.25 228.35490368723268,272.7" stroke="none" /><polygon fill="#ecc32c" points="257,258.25 257,272.7 228.35490368723268,272.7" stroke="none" /><polygon fill="#f4cd32" points="257,258.25 253.0,258.25 257,272.7" stroke="none" /><polygon fill="#f4cd31" points="253.0,258.25 258.0,272.7 257,272.7" stroke="none" /><polygon fill="#f1c930" points="253.0,258.25 268.84846492506085,258.25 258.0,272.7" stroke="none" /><polygon fill="#ecc32c" points="268.84846492506085,258.25 267.7828817832132,272.7 258.0,272.7" stroke="none" /><polygon fill="#e8bf2a" points="268.84846492506085,258.25 274.06699895919786,258.25 267.7828817832132,272.7" stroke="none" /><polygon fill="#e7bd28" points="274.06699895919786,258.25 271.1941558614051,272.7 267.7828817832132,272.7" stroke="none" /><polygon fill="#e3b927" points="274.06699895919786,258.25 283.6418261865075,258.25 271.1941558614051,272.7" stroke="none" /><polygon fill="#e1b624" points="283.6418261865075,258.25 278.1231751239585,272.7 271.1941558614051,272.7" stroke="none" /><polygon fill="#dcb122" points="283.6418261865075,258.25 289.8741361365481,258.25 278.1231751239585,272.7" stroke="none" /><polygon fill="#dbae20" points="289.8741361365481,258.25 286.64509631276735,272.7 278.1231751239585,272.7" stroke="none" /><polygon fill="#f0c72a" points="254.0,272.7 243.2171182167868,272.7 259.0,288.0" stroke="none" /><polygon fill="#efc629" points="243.2171182167868,272.7 250.67875711133627,288.0 259.0,288.0" stroke="none" /><polygon fill="#e9bf27" points="243.2171182167868,272.7 240.80584413859495,272.7 250.67875711133627,288.0" stroke="none" /><polygon fill="#eac027" points="240.80584413859495,272.7 246.8899367411365,288.0 250.67875711133627,288.0" stroke="none" /><polygon fill="#e4b924" points="240.80584413859495,272.7 229.8768248760415,272.7 246.8899367411365,288.0" stroke="none" /><polygon fill="#e4b924" points="229.8768248760415,272.7 241.05888044497667,288.0 246.8899367411365,288.0" stroke="none" /><polygon fill="#deb221" points="229.8768248760415,272.7 228.35490368723268,272.7 241.05888044497667,288.0" stroke="none" /><polygon fill="#dfb422" points="228.35490368723268,272.7 234.84471851920085,288.0 241.05888044497667,288.0" stroke="none" /><polygon fill="#e4ba24" points="228.35490368723268,272.7 257,272.7 234.84471851920085,288.0" stroke="none" /><polygon fill="#eec529" points="257,272.7 258,288.0 234.84471851920085,288.0" stroke="none" /><polygon fill="#f2ca2b" points="257,272.7 258.0,272.7 258,288.0" stroke="none" /><polygon fill="#f3cb2b" points="258.0,272.7 253.0,288.0 258,288.0" stroke="none" /><polygon fill="#f0c72a" points="258.0,272.7 267.7828817832132,272.7 253.0,288.0" stroke="none" /><polygon fill="#eec529" points="267.7828817832132,272.7 265.32124288866373,288.0 253.0,288.0" stroke="none" /><polygon fill="#e8be26" points="267.7828817832132,272.7 271.1941558614051,272.7 265.32124288866373,288.0" stroke="none" /><polygon fill="#e8be26" points="271.1941558614051,272.7 267.11006325886353,288.0 265.32124288866373,288.0" stroke="none" /><polygon fill="#e4b924" points="271.1941558614051,272.7 278.1231751239585,272.7 267.11006325886353,288.0" stroke="none" /><polygon fill="#e3b824" points="278.1231751239585,272.7 273.9411195550233,288.0 267.11006325886353,288.0" stroke="none" /><polygon fill="#ddb121" points="278.1231751239585,272.7 286.64509631276735,272.7 273.9411195550233,288.0" stroke="none" /><polygon fill="#dfb322" points="286.64509631276735,272.7 272.15528148079915,288.0 273.9411195550233,288.0" stroke="none" /><polygon fill="#f2ca2b" points="259.0,288.0 250.67875711133627,288.0 255.0,305.0" stroke="none" /><polygon fill="#f2c92b" points="250.67875711133627,288.0 256.1486,305.0 255.0,305.0" stroke="none" /><polygon fill="#efc629" points="250.67875711133627,288.0 246.8899367411365,288.0 256.1486,305.0" stroke="none" /><polygon fill="#f0c72a" points="246.8899367411365,288.0 253.5036,305.0 256.1486,305.0" stroke="none" /><polygon fill="#ebc228" points="246.8899367411365,288.0 241.05888044497667,288.0 253.5036,305.0" stroke="none" /><polygon fill="#edc428" points="241.05888044497667,288.0 252.9876,305.0 253.5036,305.0" stroke="none" /><polygon fill="#e7bd26" points="241.05888044497667,288.0 234.84471851920085,288.0 252.9876,305.0" stroke="none" /><polygon fill="#ebc228" points="234.84471851920085,288.0 254.42,305.0 252.9876,305.0" stroke="none" /><polygon fill="#edc428" points="234.84471851920085,288.0 258,288.0 254.42,305.0" stroke="none" /><polygon fill="#f3cb2b" points="258,288.0 256,305.0 254.42,305.0" stroke="none" /><polygon fill="#f3cb2b" points="258,288.0 253.0,288.0 256,305.0" stroke="none" /><polygon fill="#f3ca2b" points="253.0,288.0 256.0,305.0 256,305.0" stroke="none" /><polygon fill="#f2c92b" points="253.0,288.0 265.32124288866373,288.0 256.0,305.0" stroke="none" /><polygon fill="#f0c72a" points="265.32124288866373,288.0 257.8514,305.0 256.0,305.0" stroke="none" /><polygon fill="#ecc328" points="265.32124288866373,288.0 267.11006325886353,288.0 257.8514,305.0" stroke="none" /><polygon fill="#efc629" points="267.11006325886353,288.0 258.4964,305.0 257.8514,305.0" stroke="none" /><polygon fill="#eac027" points="267.11006325886353,288.0 273.9411195550233,288.0 258.4964,305.0" stroke="none" /><polygon fill="#ecc328" points="273.9411195550233,288.0 258.0124,305.0 258.4964,305.0" stroke="none" /><polygon fill="#e8be26" points="273.9411195550233,288.0 272.15528148079915,288.0 258.0124,305.0" stroke="none" /><polygon fill="#edc328" points="272.15528148079915,288.0 259.58,305.0 258.0124,305.0" stroke="none" /><path d="M 246 209 L 240 219 L 246 229 Z" fill="#f4cc2c" stroke="#d2a41c" stroke-width="1" /><path d="M 266 209 L 272 219 L 266 229 Z" fill="#f4cc2c" stroke="#d2a41c" stroke-width="1" /><path d="M 231 215 A 12 8 0 0 0 255 215 Z" fill="#e8e0d8" stroke="#3a2a1a" stroke-width="1.5" /><path d="M 239 216 A 4 4 0 0 0 247 216 Z" fill="#3a2a1a" stroke="none" /><circle cx="245" cy="214" fill="white" r="2" stroke="none" /><circle cx="242" cy="216" fill="white" r="1" stroke="none" /><path d="M 229 215 Q 243 213 257 215" fill="none" stroke="#3a2a1a" stroke-width="3" /><path d="M 257 213 A 12 8 0 0 0 281 213 Z" fill="#e8e0d8" stroke="#3a2a1a" stroke-width="1.5" /><path d="M 265 214 A 4 4 0 0 0 273 214 Z" fill="#3a2a1a" stroke="none" /><circle cx="271" cy="212" fill="white" r="2" stroke="none" /><circle cx="268" cy="214" fill="white" r="1" stroke="none" /><path d="M 255 213 Q 269 211 283 213" fill="none" stroke="#3a2a1a" stroke-width="3" /><line stroke="#3a2a1a" stroke-width="2" x1="263" x2="263" y1="213" y2="211" /><line stroke="#3a2a1a" stroke-width="2" x1="269" x2="269" y1="213" y2="211" /><line stroke="#3a2a1a" stroke-width="2" x1="275" x2="275" y1="213" y2="211" /><line stroke="#3a2a1a" stroke-width="6" x1="233" x2="253" y1="204" y2="204" /><line stroke="#3a2a1a" stroke-width="6" x1="259" x2="279" y1="205" y2="205" /><path d="M 234 225 A 4 2 0 0 0 242 225 Z" fill="#e88060" fill-opacity="0.29225741679285844" stroke="none" /><path d="M 270 225 A 5 3 0 0 0 280 225 Z" fill="#e88060" fill-opacity="0.2964113464756375" stroke="none" /><path d="M 246 238 Q 248 240 251 238 Q 253 236 256 238 Q 258 240 261 238 Q 263 236 266 238" fill="none" stroke="#c06050" stroke-width="3" /><path d="M 240 195 Q 247 188 254 195" fill="none" stroke="#d4c0a0" stroke-opacity="0.3" stroke-width="1" /><path d="M 267 227 Q 275 219 283 227" fill="none" stroke="#d4c0a0" stroke-opacity="0.3" stroke-width="1" /><path d="M 266 194 Q 274 186 282 194" fill="none" stroke="#d4c0a0" stroke-opacity="0.3" stroke-width="1" /><path d="M 231 187 Q 234 184 237 187" fill="none" stroke="#d4c0a0" stroke-opacity="0.3" stroke-width="1" /><path d="M 281 228 Q 286 223 291 228" fill="none" stroke="#d4c0a0" stroke-opacity="0.3" stroke-width="1" /><path d="M 245 184 Q 248 181 251 184" fill="none" stroke="#d4c0a0" stroke-opacity="0.3" stroke-width="1" /><path d="M 267 226 Q 273 220 279 226" fill="none" stroke="#d4c0a0" stroke-opacity="0.3" stroke-width="1" /><path d="M 267 224 Q 275 216 283 224" fill="none" stroke="#d4c0a0" stroke-opacity="0.3" stroke-width="1" /><path d="M 263 232 Q 269 226 275 232" fill="none" stroke="#d4c0a0" stroke-opacity="0.3" stroke-width="1" /><path d="M 246 199 Q 250 195 254 199" fill="none" stroke="#d4c0a0" stroke-opacity="0.3" stroke-width="1" /><path d="M 231 227 Q 239 219 247 227" fill="none" stroke="#d4c0a0" stroke-opacity="0.3" stroke-width="1" /><path d="M 265 231 Q 268 228 271 231" fill="none" stroke="#d4c0a0" stroke-opacity="0.3" stroke-width="1" /><path d="M 268 195 Q 271 192 274 195" fill="none" stroke="#d4c0a0" stroke-opacity="0.3" stroke-width="1" /><path d="M 240 233 Q 247 226 254 233" fill="none" stroke="#d4c0a0" stroke-opacity="0.3" stroke-width="1" /><path d="M 242 242 Q 247 237 252 242" fill="none" stroke="#d4c0a0" stroke-opacity="0.3" stroke-width="1" /><polygon fill="#b69018" points="249,301.0 263,301.0 263,336.0 249,336.0" stroke="none" /></svg>