<?xml version="1.0" encoding="utf-8" ?>
<svg baseProfile="full" height="512" version="1.1" width="512" xmlns="http://www.w3.org/2000/svg" xmlns:ev="http://www.w3.org/2001/xml-events" xmlns:xlink="http://www.w3.org/1999/xlink"><defs /><polygon fill="#fde36d" points="256.0,57.0 252.6537,57.0 253.0,92.86" stroke="none" /><polygon fill="#fde26a" points="252.6537,57.0 237.19387929436328,92.86 253.0,92.86" stroke="none" /><polygon fill="#fde26a" points="252.6537,57.0 251.8762,57.0 237.19387929436328,92.86" stroke="none" /><polygon fill="#fce066" points="251.8762,57.0 223.70439391130517,92.86 237.19387929436328,92.86" stroke="none" /><polygon fill="#fce167" points="251.8762,57.0 249.45420000000001,57.0 223.70439391130517,92.86" stroke="none" /><polygon fill="#fbdf62" points="249.45420000000001,57.0 214.91280560485865,92.86 223.70439391130517,92.86" stroke="none" /><polygon fill="#fce066" points="249.45420000000001,57.0 247.89,57.0 214.91280560485865,92.86" stroke="none" /><polygon fill="#fbdd5f" points="247.89,57.0 205.0420584677675,92.86 214.91280560485865,92.86" stroke="none" /><polygon fill="#fce065" points="247.89,57.0 255,57.0 205.0420584677675,92.86" stroke="none" /><polygon fill="#fce066" points="255,57.0 253,92.86 205.0420584677675,92.86" stroke="none" /><polygon fill="#fde36d" points="255,57.0 255.0,57.0 253,92.86" stroke="none" /><polygon fill="#fde36d" points="255.0,57.0 257.0,92.86 253,92.86" stroke="none" /><polygon fill="#fde36d" points="255.0,57.0 258.3463,57.0 257.0,92.86" stroke="none" /><polygon fill="#fde26b" points="258.3463,57.0 273.8061207056367,92.86 257.0,92.86" stroke="none" /><polygon fill="#fde26a" points="258.3463,57.0 261.1238,57.0 273.8061207056367,92.86" stroke="none" /><polygon fill="#fce066" points="261.1238,57.0 288.29560608869485,92.86 273.8061207056367,92.86" stroke="none" /><polygon fill="#fce167" points="261.1238,57.0 262.5458,57.0 288.29560608869485,92.86" stroke="none" /><polygon fill="#fbdf62" points="262.5458,57.0 297.08719439514135,92.86 288.29560608869485,92.86" stroke="none" /><polygon fill="#fce066" points="262.5458,57.0 263.11,57.0 297.08719439514135,92.86" stroke="none" /><polygon fill="#fbdd5f" points="263.11,57.0 308.9579415322325,92.86 297.08719439514135,92.86" stroke="none" /><polygon fill="#fde26b" points="253.0,92.86 237.19387929436328,92.86 259.0,130.35" stroke="none" /><polygon fill="#fbe065" points="237.19387929436328,92.86 231.00304969363492,130.35 259.0,130.35" stroke="none" /><polygon fill="#fbdf63" points="237.19387929436328,92.86 223.70439391130517,92.86 231.00304969363492,130.35" stroke="none" /><polygon fill="#f9dc5c" points="223.70439391130517,92.86 205.55081461305534,130.35 231.00304969363492,130.35" stroke="none" /><polygon fill="#fadc5c" points="223.70439391130517,92.86 214.91280560485865,92.86 205.55081461305534,130.35" stroke="none" /><polygon fill="#f8d956" points="214.91280560485865,92.86 195.18902654859164,130.35 205.55081461305534,130.35" stroke="none" /><polygon fill="#f9da58" points="214.91280560485865,92.86 205.0420584677675,92.86 195.18902654859164,130.35" stroke="none" /><polygon fill="#f7d650" points="205.0420584677675,92.86 173.1910596776816,130.35 195.18902654859164,130.35" stroke="none" /><polygon fill="#fadb5a" points="205.0420584677675,92.86 253,92.86 173.1910596776816,130.35" stroke="none" /><polygon fill="#fadd5f" points="253,92.86 256,130.35 173.1910596776816,130.35" stroke="none" /><polygon fill="#fde36d" points="253,92.86 257.0,92.86 256,130.35" stroke="none" /><polygon fill="#fde36b" points="257.0,92.86 255.0,130.35 256,130.35" stroke="none" /><polygon fill="#fde26b" points="257.0,92.86 273.8061207056367,92.86 255.0,130.35" stroke="none" /><polygon fill="#fbdf64" points="273.8061207056367,92.86 285.9969503063651,130.35 255.0,130.35" stroke="none" /><polygon fill="#fbdf62" points="273.8061207056367,92.86 288.29560608869485,92.86 285.9969503063651,130.35" stroke="none" /><polygon fill="#f9dc5c" points="288.29560608869485,92.86 301.4491853869447,130.35 285.9969503063651,130.35" stroke="none" /><polygon fill="#fadc5d" points="288.29560608869485,92.86 297.08719439514135,92.86 301.4491853869447,130.35" stroke="none" /><polygon fill="#f8d956" points="297.08719439514135,92.86 322.81097345140836,130.35 301.4491853869447,130.35" stroke="none" /><polygon fill="#f9da57" points="297.08719439514135,92.86 308.9579415322325,92.86 322.81097345140836,130.35" stroke="none" /><polygon fill="#f6d54f" points="308.9579415322325,92.86 340.8089403223184,130.35 322.81097345140836,130.35" stroke="none" /><polygon fill="#fbdf63" points="259.0,130.35 231.00304969363492,130.35 254.0,162.95" stroke="none" /><polygon fill="#f9db5d" points="231.00304969363492,130.35 219.85636058376468,162.95 254.0,162.95" stroke="none" /><polygon fill="#f7d958" points="231.00304969363492,130.35 205.55081461305534,130.35 219.85636058376468,162.95" stroke="none" /><polygon fill="#f5d452" points="205.55081461305534,130.35 192.23239132904092,162.95 219.85636058376468,162.95" stroke="none" /><polygon fill="#f5d450" points="205.55081461305534,130.35 195.18902654859164,130.35 192.23239132904092,162.95" stroke="none" /><polygon fill="#f2d04b" points="195.18902654859164,130.35 173.93321592526195,162.95 192.23239132904092,162.95" stroke="none" /><polygon fill="#f3d14a" points="195.18902654859164,130.35 173.1910596776816,130.35 173.93321592526195,162.95" stroke="none" /><polygon fill="#f0cb43" points="173.1910596776816,130.35 149.50412298110507,162.95 173.93321592526195,162.95" stroke="none" /><polygon fill="#f4d34e" points="173.1910596776816,130.35 256,130.35 149.50412298110507,162.95" stroke="none" /><polygon fill="#f7d858" points="256,130.35 259,162.95 149.50412298110507,162.95" stroke="none" /><polygon fill="#fbe066" points="256,130.35 255.0,130.35 259,162.95" stroke="none" /><polygon fill="#fbdf64" points="255.0,130.35 258.0,162.95 259,162.95" stroke="none" /><polygon fill="#fade63" points="255.0,130.35 285.9969503063651,130.35 258.0,162.95" stroke="none" /><polygon fill="#f9db5c" points="285.9969503063651,130.35 291.1436394162353,162.95 258.0,162.95" stroke="none" /><polygon fill="#f7d958" points="285.9969503063651,130.35 301.4491853869447,130.35 291.1436394162353,162.95" stroke="none" /><polygon fill="#f5d552" points="301.4491853869447,130.35 319.7676086709591,162.95 291.1436394162353,162.95" stroke="none" /><polygon fill="#f5d450" points="301.4491853869447,130.35 322.81097345140836,130.35 319.7676086709591,162.95" stroke="none" /><polygon fill="#f2d04a" points="322.81097345140836,130.35 339.06678407473805,162.95 319.7676086709591,162.95" stroke="none" /><polygon fill="#f3d048" points="322.81097345140836,130.35 340.8089403223184,130.35 339.06678407473805,162.95" stroke="none" /><polygon fill="#f0cb42" points="340.8089403223184,130.35 360.49587701889493,162.95 339.06678407473805,162.95" stroke="none" /><polygon fill="#f8da5c" points="254.0,162.95 219.85636058376468,162.95 254.0,190.66" stroke="none" /><polygon fill="#f7d857" points="219.85636058376468,162.95 221.00929096418372,190.66 254.0,190.66" stroke="none" /><polygon fill="#f4d351" points="219.85636058376468,162.95 192.23239132904092,162.95 221.00929096418372,190.66" stroke="none" /><polygon fill="#f2d04d" points="192.23239132904092,162.95 191.98602654311077,190.66 221.00929096418372,190.66" stroke="none" /><polygon fill="#f0cd48" points="192.23239132904092,162.95 173.93321592526195,162.95 191.98602654311077,190.66" stroke="none" /><polygon fill="#eeca44" points="173.93321592526195,162.95 166.56741500625242,190.66 191.98602654311077,190.66" stroke="none" /><polygon fill="#ecc841" points="173.93321592526195,162.95 149.50412298110507,162.95 166.56741500625242,190.66" stroke="none" /><polygon fill="#ebc63e" points="149.50412298110507,162.95 143.90694231570825,190.66 166.56741500625242,190.66" stroke="none" /><polygon fill="#f0cd48" points="149.50412298110507,162.95 259,162.95 143.90694231570825,190.66" stroke="none" /><polygon fill="#f5d553" points="259,162.95 259,190.66 143.90694231570825,190.66" stroke="none" /><polygon fill="#fadd60" points="259,162.95 258.0,162.95 259,190.66" stroke="none" /><polygon fill="#fadd5f" points="258.0,162.95 259.0,190.66 259,190.66" stroke="none" /><polygon fill="#f8da5c" points="258.0,162.95 291.1436394162353,162.95 259.0,190.66" stroke="none" /><polygon fill="#f6d757" points="291.1436394162353,162.95 295.9907090358163,190.66 259.0,190.66" stroke="none" /><polygon fill="#f3d351" points="291.1436394162353,162.95 319.7676086709591,162.95 295.9907090358163,190.66" stroke="none" /><polygon fill="#f1d04c" points="319.7676086709591,162.95 321.01397345688923,190.66 295.9907090358163,190.66" stroke="none" /><polygon fill="#f0cd48" points="319.7676086709591,162.95 339.06678407473805,162.95 321.01397345688923,190.66" stroke="none" /><polygon fill="#eeca44" points="339.06678407473805,162.95 346.4325849937476,190.66 321.01397345688923,190.66" stroke="none" /><polygon fill="#ecc841" points="339.06678407473805,162.95 360.49587701889493,162.95 346.4325849937476,190.66" stroke="none" /><polygon fill="#ebc63e" points="360.49587701889493,162.95 371.09305768429175,190.66 346.4325849937476,190.66" stroke="none" /><polygon fill="#f7d958" points="254.0,190.66 221.00929096418372,190.66 258.0,216.74" stroke="none" /><polygon fill="#f5d453" points="221.00929096418372,190.66 219.31516065481802,216.74 258.0,216.74" stroke="none" /><polygon fill="#f1d04d" points="221.00929096418372,190.66 191.98602654311077,190.66 219.31516065481802,216.74" stroke="none" /><polygon fill="#efcc49" points="191.98602654311077,190.66 193.03876721149834,216.74 219.31516065481802,216.74" stroke="none" /><polygon fill="#ecc945" points="191.98602654311077,190.66 166.56741500625242,190.66 193.03876721149834,216.74" stroke="none" /><polygon fill="#eac642" points="166.56741500625242,190.66 171.0176524568426,216.74 193.03876721149834,216.74" stroke="none" /><polygon fill="#e8c33e" points="166.56741500625242,190.66 143.90694231570825,190.66 171.0176524568426,216.74" stroke="none" /><polygon fill="#e7c13c" points="143.90694231570825,190.66 149.8944262267213,216.74 171.0176524568426,216.74" stroke="none" /><polygon fill="#ecc945" points="143.90694231570825,190.66 259,190.66 149.8944262267213,216.74" stroke="none" /><polygon fill="#f3d150" points="259,190.66 256,216.74 149.8944262267213,216.74" stroke="none" /><polygon fill="#f9db5b" points="259,190.66 259.0,190.66 256,216.74" stroke="none" /><polygon fill="#f9da5a" points="259.0,190.66 259.0,216.74 256,216.74" stroke="none" /><polygon fill="#f7d857" points="259.0,190.66 295.9907090358163,190.66 259.0,216.74" stroke="none" /><polygon fill="#f5d452" points="295.9907090358163,190.66 290.68483934518196,216.74 259.0,216.74" stroke="none" /><polygon fill="#f1d04d" points="295.9907090358163,190.66 321.01397345688923,190.66 290.68483934518196,216.74" stroke="none" /><polygon fill="#efcd4a" points="321.01397345688923,190.66 314.96123278850166,216.74 290.68483934518196,216.74" stroke="none" /><polygon fill="#ecc945" points="321.01397345688923,190.66 346.4325849937476,190.66 314.96123278850166,216.74" stroke="none" /><polygon fill="#ebc642" points="346.4325849937476,190.66 335.9823475431574,216.74 314.96123278850166,216.74" stroke="none" /><polygon fill="#e8c33e" points="346.4325849937476,190.66 371.09305768429175,190.66 335.9823475431574,216.74" stroke="none" /><polygon fill="#e7c13c" points="371.09305768429175,190.66 361.1055737732787,216.74 335.9823475431574,216.74" stroke="none" /><polygon fill="#f6d654" points="258.0,216.74 219.31516065481802,216.74 255.0,239.56" stroke="none" /><polygon fill="#f3d24f" points="219.31516065481802,216.74 217.26405207071988,239.56 255.0,239.56" stroke="none" /><polygon fill="#efcd4a" points="219.31516065481802,216.74 193.03876721149834,216.74 217.26405207071988,239.56" stroke="none" /><polygon fill="#edca47" points="193.03876721149834,216.74 193.19136424550769,239.56 217.26405207071988,239.56" stroke="none" /><polygon fill="#eac643" points="193.03876721149834,216.74 171.0176524568426,216.74 193.19136424550769,239.56" stroke="none" /><polygon fill="#e8c441" points="171.0176524568426,216.74 173.5332139853379,239.56 193.19136424550769,239.56" stroke="none" /><polygon fill="#e6c13d" points="171.0176524568426,216.74 149.8944262267213,216.74 173.5332139853379,239.56" stroke="none" /><polygon fill="#e4be3b" points="149.8944262267213,216.74 146.70924869915115,239.56 173.5332139853379,239.56" stroke="none" /><polygon fill="#eac642" points="149.8944262267213,216.74 256,216.74 146.70924869915115,239.56" stroke="none" /><polygon fill="#f1cf4b" points="256,216.74 253,239.56 146.70924869915115,239.56" stroke="none" /><polygon fill="#f9da58" points="256,216.74 259.0,216.74 253,239.56" stroke="none" /><polygon fill="#f8d955" points="259.0,216.74 253.0,239.56 253,239.56" stroke="none" /><polygon fill="#f6d654" points="259.0,216.74 290.68483934518196,216.74 253.0,239.56" stroke="none" /><polygon fill="#f4d350" points="290.68483934518196,216.74 288.7359479292801,239.56 253.0,239.56" stroke="none" /><polygon fill="#f0ce4b" points="290.68483934518196,216.74 314.96123278850166,216.74 288.7359479292801,239.56" stroke="none" /><polygon fill="#eecb48" points="314.96123278850166,216.74 317.80863575449234,239.56 288.7359479292801,239.56" stroke="none" /><polygon fill="#ebc744" points="314.96123278850166,216.74 335.9823475431574,216.74 317.80863575449234,239.56" stroke="none" /><polygon fill="#e8c441" points="335.9823475431574,216.74 341.4667860146621,239.56 317.80863575449234,239.56" stroke="none" /><polygon fill="#e6c13d" points="335.9823475431574,216.74 361.1055737732787,216.74 341.4667860146621,239.56" stroke="none" /><polygon fill="#e4be3b" points="361.1055737732787,216.74 364.29075130084885,239.56 341.4667860146621,239.56" stroke="none" /><polygon fill="#f5d44f" points="255.0,239.56 217.26405207071988,239.56 257.0,265.64" stroke="none" /><polygon fill="#f2d14c" points="217.26405207071988,239.56 225.68484483644997,265.64 257.0,265.64" stroke="none" /><polygon fill="#eecb47" points="217.26405207071988,239.56 193.19136424550769,239.56 225.68484483644997,265.64" stroke="none" /><polygon fill="#ecc945" points="193.19136424550769,239.56 201.2036666822454,265.64 225.68484483644997,265.64" stroke="none" /><polygon fill="#e9c442" points="193.19136424550769,239.56 173.5332139853379,239.56 201.2036666822454,265.64" stroke="none" /><polygon fill="#e6c240" points="173.5332139853379,239.56 180.61872415888172,265.64 201.2036666822454,265.64" stroke="none" /><polygon fill="#e4bd3c" points="173.5332139853379,239.56 146.70924869915115,239.56 180.61872415888172,265.64" stroke="none" /><polygon fill="#e0bb39" points="146.70924869915115,239.56 156.07528738318172,265.64 180.61872415888172,265.64" stroke="none" /><polygon fill="#e8c341" points="146.70924869915115,239.56 253,239.56 156.07528738318172,265.64" stroke="none" /><polygon fill="#efcd49" points="253,239.56 255,265.64 156.07528738318172,265.64" stroke="none" /><polygon fill="#f8d752" points="253,239.56 253.0,239.56 255,265.64" stroke="none" /><polygon fill="#f7d751" points="253.0,239.56 256.0,265.64 255,265.64" stroke="none" /><polygon fill="#f6d550" points="253.0,239.56 288.7359479292801,239.56 256.0,265.64" stroke="none" /><polygon fill="#f2d14c" points="288.7359479292801,239.56 286.31515516355006,265.64 256.0,265.64" stroke="none" /><polygon fill="#efcb48" points="288.7359479292801,239.56 317.80863575449234,239.56 286.31515516355006,265.64" stroke="none" /><polygon fill="#ebc845" points="317.80863575449234,239.56 315.7963333177546,265.64 286.31515516355006,265.64" stroke="none" /><polygon fill="#e8c341" points="317.80863575449234,239.56 341.4667860146621,239.56 315.7963333177546,265.64" stroke="none" /><polygon fill="#e5c13f" points="341.4667860146621,239.56 333.3812758411183,265.64 315.7963333177546,265.64" stroke="none" /><polygon fill="#e3bd3c" points="341.4667860146621,239.56 364.29075130084885,239.56 333.3812758411183,265.64" stroke="none" /><polygon fill="#e0ba39" points="364.29075130084885,239.56 356.9247126168183,265.64 333.3812758411183,265.64" stroke="none" /><polygon fill="#f5d34b" points="257.0,265.64 225.68484483644997,265.64 258.0,293.35" stroke="none" /><polygon fill="#f1ce48" points="225.68484483644997,265.64 224.96310686315917,293.35 258.0,293.35" stroke="none" /><polygon fill="#edc945" points="225.68484483644997,265.64 201.2036666822454,265.64 224.96310686315917,293.35" stroke="none" /><polygon fill="#eac542" points="201.2036666822454,265.64 201.20788478979492,293.35 224.96310686315917,293.35" stroke="none" /><polygon fill="#e7c240" points="201.2036666822454,265.64 180.61872415888172,265.64 201.20788478979492,293.35" stroke="none" /><polygon fill="#e5bf3e" points="180.61872415888172,265.64 185.0037071311035,293.35 201.20788478979492,293.35" stroke="none" /><polygon fill="#e2bc3b" points="180.61872415888172,265.64 156.07528738318172,265.64 185.0037071311035,293.35" stroke="none" /><polygon fill="#e0b939" points="156.07528738318172,265.64 167.97911170654297,293.35 185.0037071311035,293.35" stroke="none" /><polygon fill="#e7c23f" points="156.07528738318172,265.64 255,265.64 167.97911170654297,293.35" stroke="none" /><polygon fill="#efcb46" points="255,265.64 259,293.35 167.97911170654297,293.35" stroke="none" /><polygon fill="#f7d54d" points="255,265.64 256.0,265.64 259,293.35" stroke="none" /><polygon fill="#f6d44c" points="256.0,265.64 257.0,293.35 259,293.35" stroke="none" /><polygon fill="#f5d24b" points="256.0,265.64 286.31515516355006,265.64 257.0,293.35" stroke="none" /><polygon fill="#f1ce48" points="286.31515516355006,265.64 284.03689313684083,293.35 257.0,293.35" stroke="none" /><polygon fill="#edc945" points="286.31515516355006,265.64 315.7963333177546,265.64 284.03689313684083,293.35" stroke="none" /><polygon fill="#eac642" points="315.7963333177546,265.64 306.79211521020505,293.35 284.03689313684083,293.35" stroke="none" /><polygon fill="#e7c240" points="315.7963333177546,265.64 333.3812758411183,265.64 306.79211521020505,293.35" stroke="none" /><polygon fill="#e5bf3e" points="333.3812758411183,265.64 323.9962928688965,293.35 306.79211521020505,293.35" stroke="none" /><polygon fill="#e2bc3b" points="333.3812758411183,265.64 356.9247126168183,265.64 323.9962928688965,293.35" stroke="none" /><polygon fill="#e0b839" points="356.9247126168183,265.64 347.020888293457,293.35 323.9962928688965,293.35" stroke="none" /><polygon fill="#f3d046" points="258.0,293.35 224.96310686315917,293.35 253.0,321.06" stroke="none" /><polygon fill="#efcb44" points="224.96310686315917,293.35 228.7313245953022,321.06 253.0,321.06" stroke="none" /><polygon fill="#ebc741" points="224.96310686315917,293.35 201.20788478979492,293.35 228.7313245953022,321.06" stroke="none" /><polygon fill="#e9c440" points="201.20788478979492,293.35 215.3459644402281,321.06 228.7313245953022,321.06" stroke="none" /><polygon fill="#e6c03e" points="201.20788478979492,293.35 185.0037071311035,293.35 215.3459644402281,321.06" stroke="none" /><polygon fill="#e5bf3d" points="185.0037071311035,293.35 198.6376763161688,321.06 215.3459644402281,321.06" stroke="none" /><polygon fill="#e1bb3b" points="185.0037071311035,293.35 167.97911170654297,293.35 198.6376763161688,321.06" stroke="none" /><polygon fill="#e0b939" points="167.97911170654297,293.35 180.45855937970362,321.06 198.6376763161688,321.06" stroke="none" /><polygon fill="#e7c13e" points="167.97911170654297,293.35 259,293.35 180.45855937970362,321.06" stroke="none" /><polygon fill="#eeca43" points="259,293.35 256,321.06 180.45855937970362,321.06" stroke="none" /><polygon fill="#f6d348" points="259,293.35 257.0,293.35 256,321.06" stroke="none" /><polygon fill="#f6d348" points="257.0,293.35 255.0,321.06 256,321.06" stroke="none" /><polygon fill="#f4d047" points="257.0,293.35 284.03689313684083,293.35 255.0,321.06" stroke="none" /><polygon fill="#f0cc44" points="284.03689313684083,293.35 281.26867540469783,321.06 255.0,321.06" stroke="none" /><polygon fill="#ecc842" points="284.03689313684083,293.35 306.79211521020505,293.35 281.26867540469783,321.06" stroke="none" /><polygon fill="#eac540" points="306.79211521020505,293.35 297.6540355597719,321.06 281.26867540469783,321.06" stroke="none" /><polygon fill="#e7c13e" points="306.79211521020505,293.35 323.9962928688965,293.35 297.6540355597719,321.06" stroke="none" /><polygon fill="#e5bf3d" points="323.9962928688965,293.35 312.36232368383116,321.06 297.6540355597719,321.06" stroke="none" /><polygon fill="#e1bb3b" points="323.9962928688965,293.35 347.020888293457,293.35 312.36232368383116,321.06" stroke="none" /><polygon fill="#e0b939" points="347.020888293457,293.35 329.5414406202964,321.06 312.36232368383116,321.06" stroke="none" /><polygon fill="#f2ce42" points="253.0,321.06 228.7313245953022,321.06 257.0,350.4" stroke="none" /><polygon fill="#f1cc41" points="228.7313245953022,321.06 239.00240042558272,350.4 257.0,350.4" stroke="none" /><polygon fill="#ecc73f" points="228.7313245953022,321.06 215.3459644402281,321.06 239.00240042558272,350.4" stroke="none" /><polygon fill="#ecc73f" points="215.3459644402281,321.06 223.61027953587268,350.4 239.00240042558272,350.4" stroke="none" /><polygon fill="#e7c23c" points="215.3459644402281,321.06 198.6376763161688,321.06 223.61027953587268,350.4" stroke="none" /><polygon fill="#e7c23c" points="198.6376763161688,321.06 214.09658282410464,350.4 223.61027953587268,350.4" stroke="none" /><polygon fill="#e3bc3a" points="198.6376763161688,321.06 180.45855937970362,321.06 214.09658282410464,350.4" stroke="none" /><polygon fill="#e3bc3a" points="180.45855937970362,321.06 200.4315164411598,350.4 214.09658282410464,350.4" stroke="none" /><polygon fill="#e7c23c" points="180.45855937970362,321.06 256,321.06 200.4315164411598,350.4" stroke="none" /><polygon fill="#efcb40" points="256,321.06 254,350.4 200.4315164411598,350.4" stroke="none" /><polygon fill="#f5d143" points="256,321.06 255.0,321.06 254,350.4" stroke="none" /><polygon fill="#f5d143" points="255.0,321.06 255.0,350.4 254,350.4" stroke="none" /><polygon fill="#f3cf42" points="255.0,321.06 281.26867540469783,321.06 255.0,350.4" stroke="none" /><polygon fill="#f1cc41" points="281.26867540469783,321.06 273.9975995744173,350.4 255.0,350.4" stroke="none" /><polygon fill="#ecc73f" points="281.26867540469783,321.06 297.6540355597719,321.06 273.9975995744173,350.4" stroke="none" /><polygon fill="#ebc63e" points="297.6540355597719,321.06 290.3897204641273,350.4 273.9975995744173,350.4" stroke="none" /><polygon fill="#e7c13c" points="297.6540355597719,321.06 312.36232368383116,321.06 290.3897204641273,350.4" stroke="none" /><polygon fill="#e7c13c" points="312.36232368383116,321.06 301.90341717589536,350.4 290.3897204641273,350.4" stroke="none" /><polygon fill="#e3bc3a" points="312.36232368383116,321.06 329.5414406202964,321.06 301.90341717589536,350.4" stroke="none" /><polygon fill="#e2bc3a" points="329.5414406202964,321.06 315.56848355884017,350.4 301.90341717589536,350.4" stroke="none" /><polygon fill="#f4d043" points="257.0,350.4 239.00240042558272,350.4 256.0,383.0" stroke="none" /><polygon fill="#f3cf42" points="239.00240042558272,350.4 252.6537,383.0 256.0,383.0" stroke="none" /><polygon fill="#f0cb41" points="239.00240042558272,350.4 223.61027953587268,350.4 252.6537,383.0" stroke="none" /><polygon fill="#f1cd41" points="223.61027953587268,350.4 252.8762,383.0 252.6537,383.0" stroke="none" /><polygon fill="#edc83f" points="223.61027953587268,350.4 214.09658282410464,350.4 252.8762,383.0" stroke="none" /><polygon fill="#f0cb41" points="214.09658282410464,350.4 249.45420000000001,383.0 252.8762,383.0" stroke="none" /><polygon fill="#eac53e" points="214.09658282410464,350.4 200.4315164411598,350.4 249.45420000000001,383.0" stroke="none" /><polygon fill="#eec940" points="200.4315164411598,350.4 247.89,383.0 249.45420000000001,383.0" stroke="none" /><polygon fill="#eeca40" points="200.4315164411598,350.4 254,350.4 247.89,383.0" stroke="none" /><polygon fill="#f4d043" points="254,350.4 256,383.0 247.89,383.0" stroke="none" /><polygon fill="#f5d143" points="254,350.4 255.0,350.4 256,383.0" stroke="none" /><polygon fill="#f5d143" points="255.0,350.4 256.0,383.0 256,383.0" stroke="none" /><polygon fill="#f4cf43" points="255.0,350.4 273.9975995744173,350.4 256.0,383.0" stroke="none" /><polygon fill="#f3cf42" points="273.9975995744173,350.4 259.3463,383.0 256.0,383.0" stroke="none" /><polygon fill="#efcb40" points="273.9975995744173,350.4 290.3897204641273,350.4 259.3463,383.0" stroke="none" /><polygon fill="#f1cc41" points="290.3897204641273,350.4 261.1238,383.0 259.3463,383.0" stroke="none" /><polygon fill="#ecc73f" points="290.3897204641273,350.4 301.90341717589536,350.4 261.1238,383.0" stroke="none" /><polygon fill="#efcb40" points="301.90341717589536,350.4 261.5458,383.0 261.1238,383.0" stroke="none" /><polygon fill="#eac43e" points="301.90341717589536,350.4 315.56848355884017,350.4 261.5458,383.0" stroke="none" /><polygon fill="#eec940" points="315.56848355884017,350.4 264.11,383.0 261.5458,383.0" stroke="none" /><path d="M 228 197 A 24 40 0 0 0 228 237 Z" fill="#f6d244" stroke="#d6ae34" stroke-width="1" /><path d="M 284 197 A 24 40 0 0 1 284 237 Z" fill="#f6d244" stroke="#d6ae34" stroke-width="1" /><line stroke="#3a2a1a" stroke-width="3" x1="182" x2="217" y1="203" y2="206" /><line stroke="#3a2a1a" stroke-width="3" x1="221" x2="256" y1="206" y2="203" /><line stroke="#3a2a1a" stroke-width="3" x1="256" x2="291" y1="204" y2="207" /><line stroke="#3a2a1a" stroke-width="3" x1="295" x2="330" y1="207" y2="204" /><line stroke="#3a2a1a" stroke-width="3" x1="196" x2="242" y1="186" y2="186" /><line stroke="#3a2a1a" stroke-width="3" x1="269" x2="317" y1="187" y2="187" /><path d="M 186 236 A 14 9 0 0 0 214 236 Z" fill="#e88060" fill-opacity="0.2955761105881027" stroke="none" /><path d="M 296 234 A 13 9 0 0 0 322 234 Z" fill="#e88060" fill-opacity="0.26476217548398595" stroke="none" /><polygon fill="#d6ae34" points="256,219 259,233 256,235 253,233" stroke="none" /><path d="M 228 254 Q 235 259 242 254 Q 249 249 256 254 Q 263 259 270 254 Q 277 249 284 254" fill="none" stroke="#c06050" stroke-width="3" /><ellipse cx="233" cy="163" fill="white" fill-opacity="0.18" rx="15" ry="9" stroke="none" /><ellipse cx="279" cy="163" fill="white" fill-opacity="0.18" rx="15" ry="9" stroke="none" /><ellipse cx="256" cy="139" fill="white" fill-opacity="0.18" rx="15" ry="9" stroke="none" /><ellipse cx="215" cy="228" fill="white" fill-opacity="0.18" rx="15" ry="9" stroke="none" /><ellipse cx="297" cy="228" fill="white" fill-opacity="0.18" rx="15" ry="9" stroke="none" /><ellipse cx="239" cy="244" fill="white" fill-opacity="0.18" rx="15" ry="9" stroke="none" /><ellipse cx="273" cy="244" fill="white" fill-opacity="0.18" rx="15" ry="9" stroke="none" /><ellipse cx="256" cy="196" fill="white" fill-opacity="0.12" rx="5" ry="29" stroke="none" /><polygon fill="#ba9a28" points="233,379.0 279,379.0 279,414.0 233,414.0" stroke="none" /><path d="M 253 397.0 Q 256 387.0 259 397.0" fill="none" stroke="#d6ae34" stroke-width="1.5" /></svg>