<?xml version="1.0" encoding="utf-8" ?>
<svg baseProfile="full" height="512" version="1.1" width="512" xmlns="http://www.w3.org/2000/svg" xmlns:ev="http://www.w3.org/2001/xml-events" xmlns:xlink="http://www.w3.org/1999/xlink"><defs /><polygon fill="#fddf69" points="257.0,145.5 249.971,145.5 258.0,161.89" stroke="none" /><polygon fill="#fdde66" points="249.971,145.5 248.78348431192987,161.89 258.0,161.89" stroke="none" /><polygon fill="#fcdd62" points="249.971,145.5 243.64600000000002,145.5 248.78348431192987,161.89" stroke="none" /><polygon fill="#fcdd61" points="243.64600000000002,145.5 247.07400273005857,161.89 248.78348431192987,161.89" stroke="none" /><polygon fill="#fcdc5f" points="243.64600000000002,145.5 240.386,145.5 247.07400273005857,161.89" stroke="none" /><polygon fill="#fcdc5e" points="240.386,145.5 241.30641746456155,161.89 247.07400273005857,161.89" stroke="none" /><polygon fill="#fbda5b" points="240.386,145.5 233.7,145.5 241.30641746456155,161.89" stroke="none" /><polygon fill="#fbda59" points="233.7,145.5 235.1620736725148,161.89 241.30641746456155,161.89" stroke="none" /><polygon fill="#fcdb5e" points="233.7,145.5 257,145.5 235.1620736725148,161.89" stroke="none" /><polygon fill="#fddd64" points="257,145.5 255,161.89 235.1620736725148,161.89" stroke="none" /><polygon fill="#fee06a" points="257,145.5 256.0,145.5 255,161.89" stroke="none" /><polygon fill="#fddf68" points="256.0,145.5 253.0,161.89 255,161.89" stroke="none" /><polygon fill="#fddf68" points="256.0,145.5 264.029,145.5 253.0,161.89" stroke="none" /><polygon fill="#fdde66" points="264.029,145.5 262.2165156880701,161.89 253.0,161.89" stroke="none" /><polygon fill="#fcdd62" points="264.029,145.5 267.354,145.5 262.2165156880701,161.89" stroke="none" /><polygon fill="#fcdd62" points="267.354,145.5 265.92599726994143,161.89 262.2165156880701,161.89" stroke="none" /><polygon fill="#fcdc5f" points="267.354,145.5 271.614,145.5 265.92599726994143,161.89" stroke="none" /><polygon fill="#fcdc5f" points="271.614,145.5 268.69358253543845,161.89 265.92599726994143,161.89" stroke="none" /><polygon fill="#fbda5c" points="271.614,145.5 277.3,145.5 268.69358253543845,161.89" stroke="none" /><polygon fill="#fbda5a" points="277.3,145.5 277.8379263274852,161.89 268.69358253543845,161.89" stroke="none" /><polygon fill="#fddf68" points="258.0,161.89 248.78348431192987,161.89 257.0,179.025" stroke="none" /><polygon fill="#fcdd63" points="248.78348431192987,161.89 247.5367056617868,179.025 257.0,179.025" stroke="none" /><polygon fill="#fcdd63" points="248.78348431192987,161.89 247.07400273005857,161.89 247.5367056617868,179.025" stroke="none" /><polygon fill="#fbdc5f" points="247.07400273005857,161.89 245.8826947995041,179.025 247.5367056617868,179.025" stroke="none" /><polygon fill="#fcdc60" points="247.07400273005857,161.89 241.30641746456155,161.89 245.8826947995041,179.025" stroke="none" /><polygon fill="#fada5a" points="241.30641746456155,161.89 236.35948610967793,179.025 245.8826947995041,179.025" stroke="none" /><polygon fill="#fbda5a" points="241.30641746456155,161.89 235.1620736725148,161.89 236.35948610967793,179.025" stroke="none" /><polygon fill="#f9d856" points="235.1620736725148,161.89 236.38395655086913,179.025 236.35948610967793,179.025" stroke="none" /><polygon fill="#fcdb5e" points="235.1620736725148,161.89 255,161.89 236.38395655086913,179.025" stroke="none" /><polygon fill="#fbdc60" points="255,161.89 253,179.025 236.38395655086913,179.025" stroke="none" /><polygon fill="#fddf68" points="255,161.89 253.0,161.89 253,179.025" stroke="none" /><polygon fill="#fcde65" points="253.0,161.89 255.0,179.025 253,179.025" stroke="none" /><polygon fill="#fddf69" points="253.0,161.89 262.2165156880701,161.89 255.0,179.025" stroke="none" /><polygon fill="#fcdd63" points="262.2165156880701,161.89 262.4632943382132,179.025 255.0,179.025" stroke="none" /><polygon fill="#fcdd63" points="262.2165156880701,161.89 265.92599726994143,161.89 262.4632943382132,179.025" stroke="none" /><polygon fill="#fbdb5f" points="265.92599726994143,161.89 269.1173052004959,179.025 262.4632943382132,179.025" stroke="none" /><polygon fill="#fcdc5f" points="265.92599726994143,161.89 268.69358253543845,161.89 269.1173052004959,179.025" stroke="none" /><polygon fill="#fada5c" points="268.69358253543845,161.89 270.6405138903221,179.025 269.1173052004959,179.025" stroke="none" /><polygon fill="#fbdb5c" points="268.69358253543845,161.89 277.8379263274852,161.89 270.6405138903221,179.025" stroke="none" /><polygon fill="#f9d856" points="277.8379263274852,161.89 281.61604344913087,179.025 270.6405138903221,179.025" stroke="none" /><polygon fill="#fbdc60" points="257.0,179.025 247.5367056617868,179.025 256.0,193.925" stroke="none" /><polygon fill="#fad959" points="247.5367056617868,179.025 242.69220614819633,193.925 256.0,193.925" stroke="none" /><polygon fill="#fad959" points="247.5367056617868,179.025 245.8826947995041,179.025 242.69220614819633,193.925" stroke="none" /><polygon fill="#f8d654" points="245.8826947995041,179.025 234.61054413925416,193.925 242.69220614819633,193.925" stroke="none" /><polygon fill="#f8d655" points="245.8826947995041,179.025 236.35948610967793,179.025 234.61054413925416,193.925" stroke="none" /><polygon fill="#f6d24d" points="236.35948610967793,179.025 223.54521453210043,193.925 234.61054413925416,193.925" stroke="none" /><polygon fill="#f7d44f" points="236.35948610967793,179.025 236.38395655086913,179.025 223.54521453210043,193.925" stroke="none" /><polygon fill="#f5d049" points="236.38395655086913,179.025 217.67335196423133,193.925 223.54521453210043,193.925" stroke="none" /><polygon fill="#f8d552" points="236.38395655086913,179.025 253,179.025 217.67335196423133,193.925" stroke="none" /><polygon fill="#f8d654" points="253,179.025 253,193.925 217.67335196423133,193.925" stroke="none" /><polygon fill="#fbdc60" points="253,179.025 255.0,179.025 253,193.925" stroke="none" /><polygon fill="#fbdb5e" points="255.0,179.025 257.0,193.925 253,193.925" stroke="none" /><polygon fill="#fbdc60" points="255.0,179.025 262.4632943382132,179.025 257.0,193.925" stroke="none" /><polygon fill="#fad959" points="262.4632943382132,179.025 269.30779385180364,193.925 257.0,193.925" stroke="none" /><polygon fill="#f9d959" points="262.4632943382132,179.025 269.1173052004959,179.025 269.30779385180364,193.925" stroke="none" /><polygon fill="#f8d653" points="269.1173052004959,179.025 277.38945586074584,193.925 269.30779385180364,193.925" stroke="none" /><polygon fill="#f8d755" points="269.1173052004959,179.025 270.6405138903221,179.025 277.38945586074584,193.925" stroke="none" /><polygon fill="#f6d34d" points="270.6405138903221,179.025 290.45478546789957,193.925 277.38945586074584,193.925" stroke="none" /><polygon fill="#f7d44f" points="270.6405138903221,179.025 281.61604344913087,179.025 290.45478546789957,193.925" stroke="none" /><polygon fill="#f4cf47" points="281.61604344913087,179.025 293.3266480357687,193.925 290.45478546789957,193.925" stroke="none" /><polygon fill="#fad858" points="256.0,193.925 242.69220614819633,193.925 259.0,206.59" stroke="none" /><polygon fill="#f8d552" points="242.69220614819633,193.925 237.60758503033466,206.59 259.0,206.59" stroke="none" /><polygon fill="#f6d24f" points="242.69220614819633,193.925 234.61054413925416,193.925 237.60758503033466,206.59" stroke="none" /><polygon fill="#f4cf49" points="234.61054413925416,193.925 224.18908884119426,206.59 237.60758503033466,206.59" stroke="none" /><polygon fill="#f3ce47" points="234.61054413925416,193.925 223.54521453210043,193.925 224.18908884119426,206.59" stroke="none" /><polygon fill="#f1cb41" points="223.54521453210043,193.925 214.25429188988193,206.59 224.18908884119426,206.59" stroke="none" /><polygon fill="#f1ca41" points="223.54521453210043,193.925 217.67335196423133,193.925 214.25429188988193,206.59" stroke="none" /><polygon fill="#efc73c" points="217.67335196423133,193.925 204.32601524343838,206.59 214.25429188988193,206.59" stroke="none" /><polygon fill="#f3cd46" points="217.67335196423133,193.925 253,193.925 204.32601524343838,206.59" stroke="none" /><polygon fill="#f6d24d" points="253,193.925 258,206.59 204.32601524343838,206.59" stroke="none" /><polygon fill="#fbda5b" points="253,193.925 257.0,193.925 258,206.59" stroke="none" /><polygon fill="#fad958" points="257.0,193.925 257.0,206.59 258,206.59" stroke="none" /><polygon fill="#f9d757" points="257.0,193.925 269.30779385180364,193.925 257.0,206.59" stroke="none" /><polygon fill="#f8d552" points="269.30779385180364,193.925 273.3924149696653,206.59 257.0,206.59" stroke="none" /><polygon fill="#f6d24f" points="269.30779385180364,193.925 277.38945586074584,193.925 273.3924149696653,206.59" stroke="none" /><polygon fill="#f4d04a" points="277.38945586074584,193.925 284.81091115880577,206.59 273.3924149696653,206.59" stroke="none" /><polygon fill="#f3ce47" points="277.38945586074584,193.925 290.45478546789957,193.925 284.81091115880577,206.59" stroke="none" /><polygon fill="#f1cb42" points="290.45478546789957,193.925 295.7457081101181,206.59 284.81091115880577,206.59" stroke="none" /><polygon fill="#f1ca41" points="290.45478546789957,193.925 293.3266480357687,193.925 295.7457081101181,206.59" stroke="none" /><polygon fill="#efc73c" points="293.3266480357687,193.925 307.6739847565616,206.59 295.7457081101181,206.59" stroke="none" /><polygon fill="#f8d551" points="259.0,206.59 237.60758503033466,206.59 255.0,218.51" stroke="none" /><polygon fill="#f5d04a" points="237.60758503033466,206.59 230.40988372169724,218.51 255.0,218.51" stroke="none" /><polygon fill="#f2cc45" points="237.60758503033466,206.59 224.18908884119426,206.59 230.40988372169724,218.51" stroke="none" /><polygon fill="#efc840" points="224.18908884119426,206.59 217.29615926843758,218.51 230.40988372169724,218.51" stroke="none" /><polygon fill="#eec73e" points="224.18908884119426,206.59 214.25429188988193,206.59 217.29615926843758,218.51" stroke="none" /><polygon fill="#ebc339" points="214.25429188988193,206.59 205.60517970582984,218.51 217.29615926843758,218.51" stroke="none" /><polygon fill="#ebc237" points="214.25429188988193,206.59 204.32601524343838,206.59 205.60517970582984,218.51" stroke="none" /><polygon fill="#e7bd31" points="204.32601524343838,206.59 189.54510218696134,218.51 205.60517970582984,218.51" stroke="none" /><polygon fill="#eec63d" points="204.32601524343838,206.59 258,206.59 189.54510218696134,218.51" stroke="none" /><polygon fill="#f3cd46" points="258,206.59 256,218.51 189.54510218696134,218.51" stroke="none" /><polygon fill="#f9d754" points="258,206.59 257.0,206.59 256,218.51" stroke="none" /><polygon fill="#fad753" points="257.0,206.59 255.0,218.51 256,218.51" stroke="none" /><polygon fill="#f8d551" points="257.0,206.59 273.3924149696653,206.59 255.0,218.51" stroke="none" /><polygon fill="#f5d04a" points="273.3924149696653,206.59 280.59011627830273,218.51 255.0,218.51" stroke="none" /><polygon fill="#f2cd46" points="273.3924149696653,206.59 284.81091115880577,206.59 280.59011627830273,218.51" stroke="none" /><polygon fill="#f0c941" points="284.81091115880577,206.59 293.7038407315624,218.51 280.59011627830273,218.51" stroke="none" /><polygon fill="#efc83f" points="284.81091115880577,206.59 295.7457081101181,206.59 293.7038407315624,218.51" stroke="none" /><polygon fill="#ebc239" points="295.7457081101181,206.59 310.39482029417013,218.51 293.7038407315624,218.51" stroke="none" /><polygon fill="#ebc237" points="295.7457081101181,206.59 307.6739847565616,206.59 310.39482029417013,218.51" stroke="none" /><polygon fill="#e7bc30" points="307.6739847565616,206.59 324.45489781303866,218.51 310.39482029417013,218.51" stroke="none" /><polygon fill="#f6d24b" points="255.0,218.51 230.40988372169724,218.51 259.0,228.94" stroke="none" /><polygon fill="#f4cf47" points="230.40988372169724,218.51 241.03101948269452,228.94 259.0,228.94" stroke="none" /><polygon fill="#f0c941" points="230.40988372169724,218.51 217.29615926843758,218.51 241.03101948269452,228.94" stroke="none" /><polygon fill="#eec73e" points="217.29615926843758,218.51 221.4181554544328,228.94 241.03101948269452,228.94" stroke="none" /><polygon fill="#ebc239" points="217.29615926843758,218.51 205.60517970582984,218.51 221.4181554544328,228.94" stroke="none" /><polygon fill="#eac138" points="205.60517970582984,218.51 216.5278642318234,228.94 221.4181554544328,228.94" stroke="none" /><polygon fill="#e7bd32" points="205.60517970582984,218.51 189.54510218696134,218.51 216.5278642318234,228.94" stroke="none" /><polygon fill="#e5bb31" points="189.54510218696134,218.51 200.5485438869531,228.94 216.5278642318234,228.94" stroke="none" /><polygon fill="#ebc239" points="189.54510218696134,218.51 256,218.51 200.5485438869531,228.94" stroke="none" /><polygon fill="#f2cd44" points="256,218.51 257,228.94 200.5485438869531,228.94" stroke="none" /><polygon fill="#f9d650" points="256,218.51 255.0,218.51 257,228.94" stroke="none" /><polygon fill="#f8d54d" points="255.0,218.51 258.0,228.94 257,228.94" stroke="none" /><polygon fill="#f6d14b" points="255.0,218.51 280.59011627830273,218.51 258.0,228.94" stroke="none" /><polygon fill="#f3ce45" points="280.59011627830273,218.51 275.96898051730545,228.94 258.0,228.94" stroke="none" /><polygon fill="#efc940" points="280.59011627830273,218.51 293.7038407315624,218.51 275.96898051730545,228.94" stroke="none" /><polygon fill="#eec73e" points="293.7038407315624,218.51 289.5818445455672,228.94 275.96898051730545,228.94" stroke="none" /><polygon fill="#eac238" points="293.7038407315624,218.51 310.39482029417013,218.51 289.5818445455672,228.94" stroke="none" /><polygon fill="#e9c037" points="310.39482029417013,218.51 298.4721357681766,228.94 289.5818445455672,228.94" stroke="none" /><polygon fill="#e6bb31" points="310.39482029417013,218.51 324.45489781303866,218.51 298.4721357681766,228.94" stroke="none" /><polygon fill="#e5bb31" points="324.45489781303866,218.51 309.4514561130469,228.94 298.4721357681766,228.94" stroke="none" /><polygon fill="#f7d147" points="259.0,228.94 241.03101948269452,228.94 254.0,240.86" stroke="none" /><polygon fill="#f3ce43" points="241.03101948269452,228.94 240.44090903226896,240.86 254.0,240.86" stroke="none" /><polygon fill="#f0c83f" points="241.03101948269452,228.94 221.4181554544328,228.94 240.44090903226896,240.86" stroke="none" /><polygon fill="#edc63c" points="221.4181554544328,228.94 231.16887042035154,240.86 240.44090903226896,240.86" stroke="none" /><polygon fill="#ecc33a" points="221.4181554544328,228.94 216.5278642318234,228.94 231.16887042035154,240.86" stroke="none" /><polygon fill="#eac239" points="216.5278642318234,228.94 221.9512395308176,240.86 231.16887042035154,240.86" stroke="none" /><polygon fill="#e8be35" points="216.5278642318234,228.94 200.5485438869531,228.94 221.9512395308176,240.86" stroke="none" /><polygon fill="#e6bc34" points="200.5485438869531,228.94 215.91184555233025,240.86 221.9512395308176,240.86" stroke="none" /><polygon fill="#ecc43b" points="200.5485438869531,228.94 257,228.94 215.91184555233025,240.86" stroke="none" /><polygon fill="#f2cc41" points="257,228.94 253,240.86 215.91184555233025,240.86" stroke="none" /><polygon fill="#f9d44a" points="257,228.94 258.0,228.94 253,240.86" stroke="none" /><polygon fill="#f7d347" points="258.0,228.94 259.0,240.86 253,240.86" stroke="none" /><polygon fill="#f5cf46" points="258.0,228.94 275.96898051730545,228.94 259.0,240.86" stroke="none" /><polygon fill="#f2cc41" points="275.96898051730545,228.94 272.55909096773104,240.86 259.0,240.86" stroke="none" /><polygon fill="#efc83e" points="275.96898051730545,228.94 289.5818445455672,228.94 272.55909096773104,240.86" stroke="none" /><polygon fill="#eec73d" points="289.5818445455672,228.94 276.83112957964846,240.86 272.55909096773104,240.86" stroke="none" /><polygon fill="#ecc33a" points="289.5818445455672,228.94 298.4721357681766,228.94 276.83112957964846,240.86" stroke="none" /><polygon fill="#ebc239" points="298.4721357681766,228.94 288.0487604691824,240.86 276.83112957964846,240.86" stroke="none" /><polygon fill="#e8be35" points="298.4721357681766,228.94 309.4514561130469,228.94 288.0487604691824,240.86" stroke="none" /><polygon fill="#e6bc34" points="309.4514561130469,228.94 298.08815444766975,240.86 288.0487604691824,240.86" stroke="none" /><polygon fill="#f5ce41" points="254.0,240.86 240.44090903226896,240.86 254.0,253.525" stroke="none" /><polygon fill="#f3cc3e" points="240.44090903226896,240.86 248.6337541654416,253.525 254.0,253.525" stroke="none" /><polygon fill="#f1c93d" points="240.44090903226896,240.86 231.16887042035154,240.86 248.6337541654416,253.525" stroke="none" /><polygon fill="#efc73b" points="231.16887042035154,240.86 238.78053762410946,253.525 248.6337541654416,253.525" stroke="none" /><polygon fill="#ecc339" points="231.16887042035154,240.86 221.9512395308176,240.86 238.78053762410946,253.525" stroke="none" /><polygon fill="#ecc338" points="221.9512395308176,240.86 233.49796439104375,253.525 238.78053762410946,253.525" stroke="none" /><polygon fill="#e9c036" points="221.9512395308176,240.86 215.91184555233025,240.86 233.49796439104375,253.525" stroke="none" /><polygon fill="#e9bf35" points="215.91184555233025,240.86 223.58713383467145,253.525 233.49796439104375,253.525" stroke="none" /><polygon fill="#ecc339" points="215.91184555233025,240.86 253,240.86 223.58713383467145,253.525" stroke="none" /><polygon fill="#f2ca3d" points="253,240.86 259,253.525 223.58713383467145,253.525" stroke="none" /><polygon fill="#f7d143" points="253,240.86 259.0,240.86 259,253.525" stroke="none" /><polygon fill="#f6cf41" points="259.0,240.86 256.0,253.525 259,253.525" stroke="none" /><polygon fill="#f5ce41" points="259.0,240.86 272.55909096773104,240.86 256.0,253.525" stroke="none" /><polygon fill="#f2cb3e" points="272.55909096773104,240.86 269.3662458345584,253.525 256.0,253.525" stroke="none" /><polygon fill="#f0c83d" points="272.55909096773104,240.86 276.83112957964846,240.86 269.3662458345584,253.525" stroke="none" /><polygon fill="#efc73b" points="276.83112957964846,240.86 271.21946237589054,253.525 269.3662458345584,253.525" stroke="none" /><polygon fill="#eec53a" points="276.83112957964846,240.86 288.0487604691824,240.86 271.21946237589054,253.525" stroke="none" /><polygon fill="#ecc338" points="288.0487604691824,240.86 281.50203560895625,253.525 271.21946237589054,253.525" stroke="none" /><polygon fill="#e9bf36" points="288.0487604691824,240.86 298.08815444766975,240.86 281.50203560895625,253.525" stroke="none" /><polygon fill="#e8bf35" points="298.08815444766975,240.86 284.4128661653285,253.525 281.50203560895625,253.525" stroke="none" /><polygon fill="#f5ce3c" points="254.0,253.525 248.6337541654416,253.525 256.0,266.19" stroke="none" /><polygon fill="#f3cc3a" points="248.6337541654416,253.525 250.69468566673638,266.19 256.0,266.19" stroke="none" /><polygon fill="#f2ca3a" points="248.6337541654416,253.525 238.78053762410946,253.525 250.69468566673638,266.19" stroke="none" /><polygon fill="#f0c838" points="238.78053762410946,253.525 246.9179323839609,266.19 250.69468566673638,266.19" stroke="none" /><polygon fill="#efc638" points="238.78053762410946,253.525 233.49796439104375,253.525 246.9179323839609,266.19" stroke="none" /><polygon fill="#edc436" points="233.49796439104375,253.525 238.0965297577405,266.19 246.9179323839609,266.19" stroke="none" /><polygon fill="#ebc135" points="233.49796439104375,253.525 223.58713383467145,253.525 238.0965297577405,266.19" stroke="none" /><polygon fill="#eac034" points="223.58713383467145,253.525 236.89298686889808,266.19 238.0965297577405,266.19" stroke="none" /><polygon fill="#efc638" points="223.58713383467145,253.525 259,253.525 236.89298686889808,266.19" stroke="none" /><polygon fill="#f2cb39" points="259,253.525 253,266.19 236.89298686889808,266.19" stroke="none" /><polygon fill="#f7d03e" points="259,253.525 256.0,253.525 253,266.19" stroke="none" /><polygon fill="#f5ce3b" points="256.0,253.525 255.0,266.19 253,266.19" stroke="none" /><polygon fill="#f4cd3c" points="256.0,253.525 269.3662458345584,253.525 255.0,266.19" stroke="none" /><polygon fill="#f3cb3a" points="269.3662458345584,253.525 259.30531433326365,266.19 255.0,266.19" stroke="none" /><polygon fill="#f1c93a" points="269.3662458345584,253.525 271.21946237589054,253.525 259.30531433326365,266.19" stroke="none" /><polygon fill="#f0c838" points="271.21946237589054,253.525 268.0820676160391,266.19 259.30531433326365,266.19" stroke="none" /><polygon fill="#eec538" points="271.21946237589054,253.525 281.50203560895625,253.525 268.0820676160391,266.19" stroke="none" /><polygon fill="#edc336" points="281.50203560895625,253.525 272.9034702422595,266.19 268.0820676160391,266.19" stroke="none" /><polygon fill="#ebc236" points="281.50203560895625,253.525 284.4128661653285,253.525 272.9034702422595,266.19" stroke="none" /><polygon fill="#ebc235" points="284.4128661653285,253.525 273.1070131311019,266.19 272.9034702422595,266.19" stroke="none" /><polygon fill="#f5cc37" points="256.0,266.19 250.69468566673638,266.19 256.0,279.6" stroke="none" /><polygon fill="#f3cb36" points="250.69468566673638,266.19 248.07803718752925,279.6 256.0,279.6" stroke="none" /><polygon fill="#f1c935" points="250.69468566673638,266.19 246.9179323839609,266.19 248.07803718752925,279.6" stroke="none" /><polygon fill="#f1c835" points="246.9179323839609,266.19 245.8341259659605,279.6 248.07803718752925,279.6" stroke="none" /><polygon fill="#efc634" points="246.9179323839609,266.19 238.0965297577405,266.19 245.8341259659605,279.6" stroke="none" /><polygon fill="#eec434" points="238.0965297577405,266.19 241.63899698870551,279.6 245.8341259659605,279.6" stroke="none" /><polygon fill="#ecc333" points="238.0965297577405,266.19 236.89298686889808,266.19 241.63899698870551,279.6" stroke="none" /><polygon fill="#ebc132" points="236.89298686889808,266.19 232.024355113725,279.6 241.63899698870551,279.6" stroke="none" /><polygon fill="#edc433" points="236.89298686889808,266.19 253,266.19 232.024355113725,279.6" stroke="none" /><polygon fill="#f0c735" points="253,266.19 254,279.6 232.024355113725,279.6" stroke="none" /><polygon fill="#f4cc37" points="253,266.19 255.0,266.19 254,279.6" stroke="none" /><polygon fill="#f4cc37" points="255.0,266.19 253.0,279.6 254,279.6" stroke="none" /><polygon fill="#f5cd37" points="255.0,266.19 259.30531433326365,266.19 253.0,279.6" stroke="none" /><polygon fill="#f4cb37" points="259.30531433326365,266.19 265.9219628124707,279.6 253.0,279.6" stroke="none" /><polygon fill="#f1c835" points="259.30531433326365,266.19 268.0820676160391,266.19 265.9219628124707,279.6" stroke="none" /><polygon fill="#f0c635" points="268.0820676160391,266.19 267.1658740340395,279.6 265.9219628124707,279.6" stroke="none" /><polygon fill="#eec534" points="268.0820676160391,266.19 272.9034702422595,266.19 267.1658740340395,279.6" stroke="none" /><polygon fill="#edc433" points="272.9034702422595,266.19 273.3610030112945,279.6 267.1658740340395,279.6" stroke="none" /><polygon fill="#ecc333" points="272.9034702422595,266.19 273.1070131311019,266.19 273.3610030112945,279.6" stroke="none" /><polygon fill="#ebc132" points="273.1070131311019,266.19 279.975644886275,279.6 273.3610030112945,279.6" stroke="none" /><polygon fill="#f4cc37" points="256.0,279.6 248.07803718752925,279.6 255.0,294.5" stroke="none" /><polygon fill="#f3ca36" points="248.07803718752925,279.6 248.971,294.5 255.0,294.5" stroke="none" /><polygon fill="#f1c835" points="248.07803718752925,279.6 245.8341259659605,279.6 248.971,294.5" stroke="none" /><polygon fill="#f0c735" points="245.8341259659605,279.6 242.64600000000002,294.5 248.971,294.5" stroke="none" /><polygon fill="#efc534" points="245.8341259659605,279.6 241.63899698870551,279.6 242.64600000000002,294.5" stroke="none" /><polygon fill="#eec434" points="241.63899698870551,279.6 239.386,294.5 242.64600000000002,294.5" stroke="none" /><polygon fill="#ecc233" points="241.63899698870551,279.6 232.024355113725,279.6 239.386,294.5" stroke="none" /><polygon fill="#eac032" points="232.024355113725,279.6 233.7,294.5 239.386,294.5" stroke="none" /><polygon fill="#edc333" points="232.024355113725,279.6 254,279.6 233.7,294.5" stroke="none" /><polygon fill="#f1c835" points="254,279.6 255,294.5 233.7,294.5" stroke="none" /><polygon fill="#f4cc37" points="254,279.6 253.0,279.6 255,294.5" stroke="none" /><polygon fill="#f5cd37" points="253.0,279.6 256.0,294.5 255,294.5" stroke="none" /><polygon fill="#f4cc37" points="253.0,279.6 265.9219628124707,279.6 256.0,294.5" stroke="none" /><polygon fill="#f2ca36" points="265.9219628124707,279.6 264.029,294.5 256.0,294.5" stroke="none" /><polygon fill="#f0c735" points="265.9219628124707,279.6 267.1658740340395,279.6 264.029,294.5" stroke="none" /><polygon fill="#f0c735" points="267.1658740340395,279.6 268.354,294.5 264.029,294.5" stroke="none" /><polygon fill="#eec534" points="267.1658740340395,279.6 273.3610030112945,279.6 268.354,294.5" stroke="none" /><polygon fill="#edc433" points="273.3610030112945,279.6 272.614,294.5 268.354,294.5" stroke="none" /><polygon fill="#ebc132" points="273.3610030112945,279.6 279.975644886275,279.6 272.614,294.5" stroke="none" /><polygon fill="#eac032" points="279.975644886275,279.6 278.3,294.5 272.614,294.5" stroke="none" /><path d="M 240 210 A 13 18 0 0 0 240 228 Z" fill="#f6ce38" stroke="#d6a828" stroke-width="1" /><path d="M 272 210 A 13 18 0 0 1 272 228 Z" fill="#f6ce38" stroke="#d6a828" stroke-width="1" /><line stroke="#3a2a1a" stroke-width="3" x1="211" x2="232" y1="214" y2="216" /><line stroke="#3a2a1a" stroke-width="3" x1="236" x2="257" y1="216" y2="214" /><line stroke="#3a2a1a" stroke-width="3" x1="255" x2="276" y1="213" y2="215" /><line stroke="#3a2a1a" stroke-width="3" x1="280" x2="301" y1="215" y2="213" /><path d="M 219 208 Q 234 200 249 208" fill="none" stroke="#3a2a1a" stroke-width="3" /><path d="M 263 210 Q 278 202 293 210" fill="none" stroke="#3a2a1a" stroke-width="3" /><path d="M 215 225 A 8 5 0 0 0 231 225 Z" fill="#e88060" fill-opacity="0.20872838445374006" stroke="none" /><path d="M 283 227 A 7 4 0 0 0 297 227 Z" fill="#e88060" fill-opacity="0.2212571682314194" stroke="none" /><path d="M 253 227 Q 256 223 259 227" fill="none" stroke="#d6a828" stroke-width="2" /><path d="M 238 239 Q 256 248 274 239" fill="none" stroke="#c06050" stroke-width="3" /><path d="M 236 237 Q 256 251 276 237" fill="none" stroke="#a04030" stroke-width="1.5" /><path d="M 236 239 Q 256 246 276 239" fill="none" stroke="#f0a0a0" stroke-width="1" /><ellipse cx="242" cy="194" fill="white" fill-opacity="0.18" rx="9" ry="5" stroke="none" /><ellipse cx="270" cy="194" fill="white" fill-opacity="0.18" rx="9" ry="5" stroke="none" /><ellipse cx="256" cy="183" fill="white" fill-opacity="0.18" rx="9" ry="5" stroke="none" /><ellipse cx="232" cy="223" fill="white" fill-opacity="0.18" rx="9" ry="5" stroke="none" /><ellipse cx="280" cy="223" fill="white" fill-opacity="0.18" rx="9" ry="5" stroke="none" /><ellipse cx="246" cy="231" fill="white" fill-opacity="0.18" rx="9" ry="5" stroke="none" /><ellipse cx="266" cy="231" fill="white" fill-opacity="0.18" rx="9" ry="5" stroke="none" /><ellipse cx="256" cy="209" fill="white" fill-opacity="0.12" rx="3" ry="17" stroke="none" /><polygon fill="#ba9420" points="233,290.5 279,290.5 279,325.5 233,325.5" stroke="none" /><path d="M 253 308.5 Q 256 298.5 259 308.5" fill="none" stroke="#d6a828" stroke-width="1.5" /></svg>