<?xml version="1.0" encoding="utf-8" ?>
<svg baseProfile="full" height="512" version="1.1" width="512" xmlns="http://www.w3.org/2000/svg" xmlns:ev="http://www.w3.org/2001/xml-events" xmlns:xlink="http://www.w3.org/1999/xlink"><defs /><polygon fill="#fbdf61" points="256.0,122.5 255.614,122.5 254.0,143.95" stroke="none" /><polygon fill="#fbde5e" points="255.614,122.5 246.96896705979782,143.95 254.0,143.95" stroke="none" /><polygon fill="#fbde5e" points="255.614,122.5 252.564,122.5 246.96896705979782,143.95" stroke="none" /><polygon fill="#fadb56" points="252.564,122.5 231.8545481657053,143.95 246.96896705979782,143.95" stroke="none" /><polygon fill="#fadc58" points="252.564,122.5 251.724,122.5 231.8545481657053,143.95" stroke="none" /><polygon fill="#f9d951" points="251.724,122.5 229.56301305043124,143.95 231.8545481657053,143.95" stroke="none" /><polygon fill="#fadb56" points="251.724,122.5 250.8,122.5 229.56301305043124,143.95" stroke="none" /><polygon fill="#f9d84d" points="250.8,122.5 222.5423244236298,143.95 229.56301305043124,143.95" stroke="none" /><polygon fill="#fadb55" points="250.8,122.5 255,122.5 222.5423244236298,143.95" stroke="none" /><polygon fill="#fadc57" points="255,122.5 258,143.95 222.5423244236298,143.95" stroke="none" /><polygon fill="#fbdf61" points="255,122.5 256.0,122.5 258,143.95" stroke="none" /><polygon fill="#fbdf61" points="256.0,122.5 253.0,143.95 258,143.95" stroke="none" /><polygon fill="#fbdf61" points="256.0,122.5 258.386,122.5 253.0,143.95" stroke="none" /><polygon fill="#fbde5e" points="258.386,122.5 268.0310329402022,143.95 253.0,143.95" stroke="none" /><polygon fill="#fbde5c" points="258.386,122.5 258.436,122.5 268.0310329402022,143.95" stroke="none" /><polygon fill="#fadb57" points="258.436,122.5 277.1454518342947,143.95 268.0310329402022,143.95" stroke="none" /><polygon fill="#fadc59" points="258.436,122.5 259.276,122.5 277.1454518342947,143.95" stroke="none" /><polygon fill="#f9da51" points="259.276,122.5 283.43698694956873,143.95 277.1454518342947,143.95" stroke="none" /><polygon fill="#fadc57" points="259.276,122.5 260.2,122.5 283.43698694956873,143.95" stroke="none" /><polygon fill="#f9d84d" points="260.2,122.5 289.4576755763702,143.95 283.43698694956873,143.95" stroke="none" /><polygon fill="#fbde5f" points="254.0,143.95 246.96896705979782,143.95 258.0,166.375" stroke="none" /><polygon fill="#f9da56" points="246.96896705979782,143.95 235.7341133569738,166.375 258.0,166.375" stroke="none" /><polygon fill="#f9d951" points="246.96896705979782,143.95 231.8545481657053,143.95 235.7341133569738,166.375" stroke="none" /><polygon fill="#f6d447" points="231.8545481657053,143.95 220.8963204455903,166.375 235.7341133569738,166.375" stroke="none" /><polygon fill="#f8d647" points="231.8545481657053,143.95 229.56301305043124,143.95 220.8963204455903,166.375" stroke="none" /><polygon fill="#f5d13f" points="229.56301305043124,143.95 211.8260861164835,166.375 220.8963204455903,166.375" stroke="none" /><polygon fill="#f7d441" points="229.56301305043124,143.95 222.5423244236298,143.95 211.8260861164835,166.375" stroke="none" /><polygon fill="#f4cd36" points="222.5423244236298,143.95 197.64882835446605,166.375 211.8260861164835,166.375" stroke="none" /><polygon fill="#f7d546" points="222.5423244236298,143.95 258,143.95 197.64882835446605,166.375" stroke="none" /><polygon fill="#f7d64d" points="258,143.95 254,166.375 197.64882835446605,166.375" stroke="none" /><polygon fill="#fbdf61" points="258,143.95 253.0,143.95 254,166.375" stroke="none" /><polygon fill="#fadd5d" points="253.0,143.95 257.0,166.375 254,166.375" stroke="none" /><polygon fill="#fbde5e" points="253.0,143.95 268.0310329402022,143.95 257.0,166.375" stroke="none" /><polygon fill="#f9d954" points="268.0310329402022,143.95 277.2658866430262,166.375 257.0,166.375" stroke="none" /><polygon fill="#f9d951" points="268.0310329402022,143.95 277.1454518342947,143.95 277.2658866430262,166.375" stroke="none" /><polygon fill="#f7d548" points="277.1454518342947,143.95 288.10367955440967,166.375 277.2658866430262,166.375" stroke="none" /><polygon fill="#f8d649" points="277.1454518342947,143.95 283.43698694956873,143.95 288.10367955440967,166.375" stroke="none" /><polygon fill="#f5d13f" points="283.43698694956873,143.95 301.1739138835165,166.375 288.10367955440967,166.375" stroke="none" /><polygon fill="#f7d341" points="283.43698694956873,143.95 289.4576755763702,143.95 301.1739138835165,166.375" stroke="none" /><polygon fill="#f4cd36" points="289.4576755763702,143.95 313.35117164553395,166.375 301.1739138835165,166.375" stroke="none" /><polygon fill="#f8d953" points="258.0,166.375 235.7341133569738,166.375 253.0,185.875" stroke="none" /><polygon fill="#f6d44a" points="235.7341133569738,166.375 233.96507252362355,185.875 253.0,185.875" stroke="none" /><polygon fill="#f4d143" points="235.7341133569738,166.375 220.8963204455903,166.375 233.96507252362355,185.875" stroke="none" /><polygon fill="#f3ce3d" points="220.8963204455903,166.375 219.02952140515652,185.875 233.96507252362355,185.875" stroke="none" /><polygon fill="#f2cc39" points="220.8963204455903,166.375 211.8260861164835,166.375 219.02952140515652,185.875" stroke="none" /><polygon fill="#f0c933" points="211.8260861164835,166.375 206.2810805103829,185.875 219.02952140515652,185.875" stroke="none" /><polygon fill="#efc72f" points="211.8260861164835,166.375 197.64882835446605,166.375 206.2810805103829,185.875" stroke="none" /><polygon fill="#edc328" points="197.64882835446605,166.375 191.25779552613193,185.875 206.2810805103829,185.875" stroke="none" /><polygon fill="#f1cb36" points="197.64882835446605,166.375 254,166.375 191.25779552613193,185.875" stroke="none" /><polygon fill="#f5d145" points="254,166.375 257,185.875 191.25779552613193,185.875" stroke="none" /><polygon fill="#fadc59" points="254,166.375 257.0,166.375 257,185.875" stroke="none" /><polygon fill="#f9da56" points="257.0,166.375 256.0,185.875 257,185.875" stroke="none" /><polygon fill="#f8d952" points="257.0,166.375 277.2658866430262,166.375 256.0,185.875" stroke="none" /><polygon fill="#f6d54b" points="277.2658866430262,166.375 276.0349274763765,185.875 256.0,185.875" stroke="none" /><polygon fill="#f4d244" points="277.2658866430262,166.375 288.10367955440967,166.375 276.0349274763765,185.875" stroke="none" /><polygon fill="#f3ce3e" points="288.10367955440967,166.375 295.9704785948435,185.875 276.0349274763765,185.875" stroke="none" /><polygon fill="#f1cc38" points="288.10367955440967,166.375 301.1739138835165,166.375 295.9704785948435,185.875" stroke="none" /><polygon fill="#f0c833" points="301.1739138835165,166.375 303.71891948961706,185.875 295.9704785948435,185.875" stroke="none" /><polygon fill="#efc82f" points="301.1739138835165,166.375 313.35117164553395,166.375 303.71891948961706,185.875" stroke="none" /><polygon fill="#edc328" points="313.35117164553395,166.375 322.74220447386807,185.875 303.71891948961706,185.875" stroke="none" /><polygon fill="#f6d64c" points="253.0,185.875 233.96507252362355,185.875 257.0,202.45" stroke="none" /><polygon fill="#f4d245" points="233.96507252362355,185.875 233.66355067698578,202.45 257.0,202.45" stroke="none" /><polygon fill="#f2cd3e" points="233.96507252362355,185.875 219.02952140515652,185.875 233.66355067698578,202.45" stroke="none" /><polygon fill="#efc938" points="219.02952140515652,185.875 215.49957391712653,202.45 233.66355067698578,202.45" stroke="none" /><polygon fill="#eec732" points="219.02952140515652,185.875 206.2810805103829,185.875 215.49957391712653,202.45" stroke="none" /><polygon fill="#ebc32e" points="206.2810805103829,185.875 206.56839250923912,202.45 215.49957391712653,202.45" stroke="none" /><polygon fill="#eac129" points="206.2810805103829,185.875 191.25779552613193,185.875 206.56839250923912,202.45" stroke="none" /><polygon fill="#e8be26" points="191.25779552613193,185.875 194.344092960563,202.45 206.56839250923912,202.45" stroke="none" /><polygon fill="#eec733" points="191.25779552613193,185.875 257,185.875 194.344092960563,202.45" stroke="none" /><polygon fill="#f3cf41" points="257,185.875 256,202.45 194.344092960563,202.45" stroke="none" /><polygon fill="#f8d951" points="257,185.875 256.0,185.875 256,202.45" stroke="none" /><polygon fill="#f8d84f" points="256.0,185.875 255.0,202.45 256,202.45" stroke="none" /><polygon fill="#f7d74d" points="256.0,185.875 276.0349274763765,185.875 255.0,202.45" stroke="none" /><polygon fill="#f5d246" points="276.0349274763765,185.875 276.3364493230142,202.45 255.0,202.45" stroke="none" /><polygon fill="#f2ce3e" points="276.0349274763765,185.875 295.9704785948435,185.875 276.3364493230142,202.45" stroke="none" /><polygon fill="#efc938" points="295.9704785948435,185.875 295.50042608287345,202.45 276.3364493230142,202.45" stroke="none" /><polygon fill="#eec732" points="295.9704785948435,185.875 303.71891948961706,185.875 295.50042608287345,202.45" stroke="none" /><polygon fill="#ebc32e" points="303.71891948961706,185.875 309.4316074907609,202.45 295.50042608287345,202.45" stroke="none" /><polygon fill="#eac128" points="303.71891948961706,185.875 322.74220447386807,185.875 309.4316074907609,202.45" stroke="none" /><polygon fill="#e8be26" points="322.74220447386807,185.875 322.655907039437,202.45 309.4316074907609,202.45" stroke="none" /><polygon fill="#f5d346" points="257.0,202.45 233.66355067698578,202.45 257.0,218.05" stroke="none" /><polygon fill="#f3d040" points="233.66355067698578,202.45 237.15075234973537,218.05 257.0,218.05" stroke="none" /><polygon fill="#efc939" points="233.66355067698578,202.45 215.49957391712653,202.45 237.15075234973537,218.05" stroke="none" /><polygon fill="#edc734" points="215.49957391712653,202.45 219.35586776620158,218.05 237.15075234973537,218.05" stroke="none" /><polygon fill="#eac22f" points="215.49957391712653,202.45 206.56839250923912,202.45 219.35586776620158,218.05" stroke="none" /><polygon fill="#e8c02c" points="206.56839250923912,202.45 208.71996009937453,218.05 219.35586776620158,218.05" stroke="none" /><polygon fill="#e7bd28" points="206.56839250923912,202.45 194.344092960563,202.45 208.71996009937453,218.05" stroke="none" /><polygon fill="#e4ba24" points="194.344092960563,202.45 190.8204616658648,218.05 208.71996009937453,218.05" stroke="none" /><polygon fill="#eac22f" points="194.344092960563,202.45 256,202.45 190.8204616658648,218.05" stroke="none" /><polygon fill="#f0cc3b" points="256,202.45 258,218.05 190.8204616658648,218.05" stroke="none" /><polygon fill="#f7d64a" points="256,202.45 255.0,202.45 258,218.05" stroke="none" /><polygon fill="#f7d648" points="255.0,202.45 254.0,218.05 258,218.05" stroke="none" /><polygon fill="#f6d447" points="255.0,202.45 276.3364493230142,202.45 254.0,218.05" stroke="none" /><polygon fill="#f3d040" points="276.3364493230142,202.45 275.8492476502646,218.05 254.0,218.05" stroke="none" /><polygon fill="#efca39" points="276.3364493230142,202.45 295.50042608287345,202.45 275.8492476502646,218.05" stroke="none" /><polygon fill="#edc735" points="295.50042608287345,202.45 290.6441322337984,218.05 275.8492476502646,218.05" stroke="none" /><polygon fill="#eac22f" points="295.50042608287345,202.45 309.4316074907609,202.45 290.6441322337984,218.05" stroke="none" /><polygon fill="#e8c02c" points="309.4316074907609,202.45 304.28003990062547,218.05 290.6441322337984,218.05" stroke="none" /><polygon fill="#e6bc26" points="309.4316074907609,202.45 322.655907039437,202.45 304.28003990062547,218.05" stroke="none" /><polygon fill="#e4ba24" points="322.655907039437,202.45 322.1795383341352,218.05 304.28003990062547,218.05" stroke="none" /><polygon fill="#f4d141" points="257.0,218.05 237.15075234973537,218.05 255.0,231.7" stroke="none" /><polygon fill="#f1cc3c" points="237.15075234973537,218.05 235.372933755087,231.7 255.0,231.7" stroke="none" /><polygon fill="#edc736" points="237.15075234973537,218.05 219.35586776620158,218.05 235.372933755087,231.7" stroke="none" /><polygon fill="#ebc332" points="219.35586776620158,218.05 219.2312169028802,231.7 235.372933755087,231.7" stroke="none" /><polygon fill="#e8c02d" points="219.35586776620158,218.05 208.71996009937453,218.05 219.2312169028802,231.7" stroke="none" /><polygon fill="#e5bb29" points="208.71996009937453,218.05 200.51784342111472,231.7 219.2312169028802,231.7" stroke="none" /><polygon fill="#e2b824" points="208.71996009937453,218.05 190.8204616658648,218.05 200.51784342111472,231.7" stroke="none" /><polygon fill="#e1b523" points="190.8204616658648,218.05 185.43313259117275,231.7 200.51784342111472,231.7" stroke="none" /><polygon fill="#e6be2b" points="190.8204616658648,218.05 258,218.05 185.43313259117275,231.7" stroke="none" /><polygon fill="#eec837" points="258,218.05 258,231.7 185.43313259117275,231.7" stroke="none" /><polygon fill="#f6d444" points="258,218.05 254.0,218.05 258,231.7" stroke="none" /><polygon fill="#f6d343" points="254.0,218.05 259.0,231.7 258,231.7" stroke="none" /><polygon fill="#f4d140" points="254.0,218.05 275.8492476502646,218.05 259.0,231.7" stroke="none" /><polygon fill="#f1cb3b" points="275.8492476502646,218.05 279.627066244913,231.7 259.0,231.7" stroke="none" /><polygon fill="#edc735" points="275.8492476502646,218.05 290.6441322337984,218.05 279.627066244913,231.7" stroke="none" /><polygon fill="#eac231" points="290.6441322337984,218.05 296.7687830971198,231.7 279.627066244913,231.7" stroke="none" /><polygon fill="#e8bf2c" points="290.6441322337984,218.05 304.28003990062547,218.05 296.7687830971198,231.7" stroke="none" /><polygon fill="#e4ba28" points="304.28003990062547,218.05 311.4821565788853,231.7 296.7687830971198,231.7" stroke="none" /><polygon fill="#e2b723" points="304.28003990062547,218.05 322.1795383341352,218.05 311.4821565788853,231.7" stroke="none" /><polygon fill="#e1b523" points="322.1795383341352,218.05 326.56686740882725,231.7 311.4821565788853,231.7" stroke="none" /><polygon fill="#f3ce3b" points="255.0,231.7 235.372933755087,231.7 253.0,247.3" stroke="none" /><polygon fill="#efc936" points="235.372933755087,231.7 232.372241533679,247.3 253.0,247.3" stroke="none" /><polygon fill="#ebc432" points="235.372933755087,231.7 219.2312169028802,231.7 232.372241533679,247.3" stroke="none" /><polygon fill="#e8c02e" points="219.2312169028802,231.7 220.98757602889037,247.3 232.372241533679,247.3" stroke="none" /><polygon fill="#e4bb2a" points="219.2312169028802,231.7 200.51784342111472,231.7 220.98757602889037,247.3" stroke="none" /><polygon fill="#e1b726" points="200.51784342111472,231.7 205.87984362505946,247.3 220.98757602889037,247.3" stroke="none" /><polygon fill="#deb322" points="200.51784342111472,231.7 185.43313259117275,231.7 205.87984362505946,247.3" stroke="none" /><polygon fill="#ddb121" points="185.43313259117275,231.7 189.46133798084546,247.3 205.87984362505946,247.3" stroke="none" /><polygon fill="#e3ba28" points="185.43313259117275,231.7 258,231.7 189.46133798084546,247.3" stroke="none" /><polygon fill="#ecc633" points="258,231.7 257,247.3 189.46133798084546,247.3" stroke="none" /><polygon fill="#f6d13e" points="258,231.7 259.0,231.7 257,247.3" stroke="none" /><polygon fill="#f5d03d" points="259.0,231.7 258.0,247.3 257,247.3" stroke="none" /><polygon fill="#f2cd3b" points="259.0,231.7 279.627066244913,231.7 258.0,247.3" stroke="none" /><polygon fill="#efc936" points="279.627066244913,231.7 274.627758466321,247.3 258.0,247.3" stroke="none" /><polygon fill="#ebc331" points="279.627066244913,231.7 296.7687830971198,231.7 274.627758466321,247.3" stroke="none" /><polygon fill="#e7bf2d" points="296.7687830971198,231.7 296.0124239711096,247.3 274.627758466321,247.3" stroke="none" /><polygon fill="#e3ba28" points="296.7687830971198,231.7 311.4821565788853,231.7 296.0124239711096,247.3" stroke="none" /><polygon fill="#e0b525" points="311.4821565788853,231.7 309.12015637494056,247.3 296.0124239711096,247.3" stroke="none" /><polygon fill="#deb322" points="311.4821565788853,231.7 326.56686740882725,231.7 309.12015637494056,247.3" stroke="none" /><polygon fill="#ddb121" points="326.56686740882725,231.7 322.5386620191546,247.3 309.12015637494056,247.3" stroke="none" /><polygon fill="#f2cc36" points="253.0,247.3 232.372241533679,247.3 258.0,263.875" stroke="none" /><polygon fill="#eec831" points="232.372241533679,247.3 239.50477201416018,263.875 258.0,263.875" stroke="none" /><polygon fill="#e9c12e" points="232.372241533679,247.3 220.98757602889037,247.3 239.50477201416018,263.875" stroke="none" /><polygon fill="#e7bf2b" points="220.98757602889037,247.3 226.250811418827,263.875 239.50477201416018,263.875" stroke="none" /><polygon fill="#e3ba28" points="220.98757602889037,247.3 205.87984362505946,247.3 226.250811418827,263.875" stroke="none" /><polygon fill="#e1b625" points="205.87984362505946,247.3 211.64764294256042,263.875 226.250811418827,263.875" stroke="none" /><polygon fill="#dcb022" points="205.87984362505946,247.3 189.46133798084546,247.3 211.64764294256042,263.875" stroke="none" /><polygon fill="#daad20" points="189.46133798084546,247.3 200.98415761866724,263.875 211.64764294256042,263.875" stroke="none" /><polygon fill="#e2b828" points="189.46133798084546,247.3 257,247.3 200.98415761866724,263.875" stroke="none" /><polygon fill="#ecc42f" points="257,247.3 254,263.875 200.98415761866724,263.875" stroke="none" /><polygon fill="#f5d039" points="257,247.3 258.0,247.3 254,263.875" stroke="none" /><polygon fill="#f4cf36" points="258.0,247.3 259.0,263.875 254,263.875" stroke="none" /><polygon fill="#f2cc36" points="258.0,247.3 274.627758466321,247.3 259.0,263.875" stroke="none" /><polygon fill="#eec731" points="274.627758466321,247.3 273.4952279858398,263.875 259.0,263.875" stroke="none" /><polygon fill="#e9c12e" points="274.627758466321,247.3 296.0124239711096,247.3 273.4952279858398,263.875" stroke="none" /><polygon fill="#e6bd2a" points="296.0124239711096,247.3 287.74918858117303,263.875 273.4952279858398,263.875" stroke="none" /><polygon fill="#e2b827" points="296.0124239711096,247.3 309.12015637494056,247.3 287.74918858117303,263.875" stroke="none" /><polygon fill="#e1b626" points="309.12015637494056,247.3 294.3523570574396,263.875 287.74918858117303,263.875" stroke="none" /><polygon fill="#dcb122" points="309.12015637494056,247.3 322.5386620191546,247.3 294.3523570574396,263.875" stroke="none" /><polygon fill="#dbaf21" points="322.5386620191546,247.3 310.0158423813328,263.875 294.3523570574396,263.875" stroke="none" /><polygon fill="#f2ca31" points="258.0,263.875 239.50477201416018,263.875 254.0,280.45" stroke="none" /><polygon fill="#edc52c" points="239.50477201416018,263.875 238.499257651305,280.45 254.0,280.45" stroke="none" /><polygon fill="#e9c02b" points="239.50477201416018,263.875 226.250811418827,263.875 238.499257651305,280.45" stroke="none" /><polygon fill="#e6bc28" points="226.250811418827,263.875 227.75627102350575,280.45 238.499257651305,280.45" stroke="none" /><polygon fill="#e2b826" points="226.250811418827,263.875 211.64764294256042,263.875 227.75627102350575,280.45" stroke="none" /><polygon fill="#e0b524" points="211.64764294256042,263.875 218.36188172126634,280.45 227.75627102350575,280.45" stroke="none" /><polygon fill="#dcb122" points="211.64764294256042,263.875 200.98415761866724,263.875 218.36188172126634,280.45" stroke="none" /><polygon fill="#dbaf21" points="200.98415761866724,263.875 212.028053488803,280.45 218.36188172126634,280.45" stroke="none" /><polygon fill="#e3b826" points="200.98415761866724,263.875 254,263.875 212.028053488803,280.45" stroke="none" /><polygon fill="#ebc22b" points="254,263.875 253,280.45 212.028053488803,280.45" stroke="none" /><polygon fill="#f4cd32" points="254,263.875 259.0,263.875 253,280.45" stroke="none" /><polygon fill="#f3cc30" points="259.0,263.875 259.0,280.45 253,280.45" stroke="none" /><polygon fill="#f0c930" points="259.0,263.875 273.4952279858398,263.875 259.0,280.45" stroke="none" /><polygon fill="#edc42c" points="273.4952279858398,263.875 272.500742348695,280.45 259.0,280.45" stroke="none" /><polygon fill="#e9c02b" points="273.4952279858398,263.875 287.74918858117303,263.875 272.500742348695,280.45" stroke="none" /><polygon fill="#e6bb28" points="287.74918858117303,263.875 286.24372897649425,280.45 272.500742348695,280.45" stroke="none" /><polygon fill="#e3b826" points="287.74918858117303,263.875 294.3523570574396,263.875 286.24372897649425,280.45" stroke="none" /><polygon fill="#e1b625" points="294.3523570574396,263.875 291.63811827873366,280.45 286.24372897649425,280.45" stroke="none" /><polygon fill="#deb223" points="294.3523570574396,263.875 310.0158423813328,263.875 291.63811827873366,280.45" stroke="none" /><polygon fill="#dcaf21" points="310.0158423813328,263.875 300.971946511197,280.45 291.63811827873366,280.45" stroke="none" /><polygon fill="#f0c72a" points="254.0,280.45 238.499257651305,280.45 257.0,298.0" stroke="none" /><polygon fill="#eec529" points="238.499257651305,280.45 244.44823075672224,298.0 257.0,298.0" stroke="none" /><polygon fill="#e8be26" points="238.499257651305,280.45 227.75627102350575,280.45 244.44823075672224,298.0" stroke="none" /><polygon fill="#e8be26" points="227.75627102350575,280.45 236.69689042090576,298.0 244.44823075672224,298.0" stroke="none" /><polygon fill="#e3b824" points="227.75627102350575,280.45 218.36188172126634,280.45 236.69689042090576,298.0" stroke="none" /><polygon fill="#e3b824" points="218.36188172126634,280.45 225.69581815225257,298.0 236.69689042090576,298.0" stroke="none" /><polygon fill="#deb221" points="218.36188172126634,280.45 212.028053488803,280.45 225.69581815225257,298.0" stroke="none" /><polygon fill="#deb322" points="212.028053488803,280.45 220.99463865673405,298.0 225.69581815225257,298.0" stroke="none" /><polygon fill="#e4b924" points="212.028053488803,280.45 253,280.45 220.99463865673405,298.0" stroke="none" /><polygon fill="#ecc328" points="253,280.45 255,298.0 220.99463865673405,298.0" stroke="none" /><polygon fill="#f3cb2b" points="253,280.45 259.0,280.45 255,298.0" stroke="none" /><polygon fill="#f3ca2b" points="259.0,280.45 259.0,298.0 255,298.0" stroke="none" /><polygon fill="#efc629" points="259.0,280.45 272.500742348695,280.45 259.0,298.0" stroke="none" /><polygon fill="#eec529" points="272.500742348695,280.45 264.55176924327776,298.0 259.0,298.0" stroke="none" /><polygon fill="#e9bf26" points="272.500742348695,280.45 286.24372897649425,280.45 264.55176924327776,298.0" stroke="none" /><polygon fill="#e8be26" points="286.24372897649425,280.45 277.30310957909427,298.0 264.55176924327776,298.0" stroke="none" /><polygon fill="#e3b824" points="286.24372897649425,280.45 291.63811827873366,280.45 277.30310957909427,298.0" stroke="none" /><polygon fill="#e3b824" points="291.63811827873366,280.45 283.30418184774743,298.0 277.30310957909427,298.0" stroke="none" /><polygon fill="#dfb322" points="291.63811827873366,280.45 300.971946511197,280.45 283.30418184774743,298.0" stroke="none" /><polygon fill="#dfb322" points="300.971946511197,280.45 291.0053613432659,298.0 283.30418184774743,298.0" stroke="none" /><polygon fill="#f1c92b" points="257.0,298.0 244.44823075672224,298.0 256.0,317.5" stroke="none" /><polygon fill="#f1c92a" points="244.44823075672224,298.0 254.614,317.5 256.0,317.5" stroke="none" /><polygon fill="#edc429" points="244.44823075672224,298.0 236.69689042090576,298.0 254.614,317.5" stroke="none" /><polygon fill="#efc629" points="236.69689042090576,298.0 254.564,317.5 254.614,317.5" stroke="none" /><polygon fill="#eac027" points="236.69689042090576,298.0 225.69581815225257,298.0 254.564,317.5" stroke="none" /><polygon fill="#edc328" points="225.69581815225257,298.0 251.724,317.5 254.564,317.5" stroke="none" /><polygon fill="#e6bc25" points="225.69581815225257,298.0 220.99463865673405,298.0 251.724,317.5" stroke="none" /><polygon fill="#ebc228" points="220.99463865673405,298.0 252.8,317.5 251.724,317.5" stroke="none" /><polygon fill="#ecc328" points="220.99463865673405,298.0 255,298.0 252.8,317.5" stroke="none" /><polygon fill="#f3cb2b" points="255,298.0 257,317.5 252.8,317.5" stroke="none" /><polygon fill="#f3cb2b" points="255,298.0 259.0,298.0 257,317.5" stroke="none" /><polygon fill="#f3cb2b" points="259.0,298.0 255.0,317.5 257,317.5" stroke="none" /><polygon fill="#f1c92b" points="259.0,298.0 264.55176924327776,298.0 255.0,317.5" stroke="none" /><polygon fill="#f2c92b" points="264.55176924327776,298.0 257.386,317.5 255.0,317.5" stroke="none" /><polygon fill="#edc429" points="264.55176924327776,298.0 277.30310957909427,298.0 257.386,317.5" stroke="none" /><polygon fill="#efc629" points="277.30310957909427,298.0 257.436,317.5 257.386,317.5" stroke="none" /><polygon fill="#eac027" points="277.30310957909427,298.0 283.30418184774743,298.0 257.436,317.5" stroke="none" /><polygon fill="#edc429" points="283.30418184774743,298.0 259.276,317.5 257.436,317.5" stroke="none" /><polygon fill="#e7bd26" points="283.30418184774743,298.0 291.0053613432659,298.0 259.276,317.5" stroke="none" /><polygon fill="#ebc228" points="291.0053613432659,298.0 260.2,317.5 259.276,317.5" stroke="none" /><path d="M 240 207 A 9 24 0 0 0 240 231 Z" fill="#f4cc2c" stroke="#d2a41c" stroke-width="1" /><path d="M 272 207 A 9 24 0 0 1 272 231 Z" fill="#f4cc2c" stroke="#d2a41c" stroke-width="1" /><path d="M 213 213 A 21 14 0 0 0 255 213 Z" fill="#e8e0d8" stroke="#3a2a1a" stroke-width="1.5" /><path d="M 227 215 A 7 7 0 0 0 241 215 Z" fill="#3a2a1a" stroke="none" /><circle cx="237" cy="211" fill="white" r="3" stroke="none" /><circle cx="232" cy="215" fill="white" r="1" stroke="none" /><path d="M 211 213 Q 234 209 257 213" fill="none" stroke="#3a2a1a" stroke-width="3" /><path d="M 257 212 A 21 14 0 0 0 299 212 Z" fill="#e8e0d8" stroke="#3a2a1a" stroke-width="1.5" /><path d="M 271 214 A 7 7 0 0 0 285 214 Z" fill="#3a2a1a" stroke="none" /><circle cx="281" cy="210" fill="white" r="3" stroke="none" /><circle cx="276" cy="214" fill="white" r="1" stroke="none" /><path d="M 255 212 Q 278 208 301 212" fill="none" stroke="#3a2a1a" stroke-width="3" /><line stroke="#3a2a1a" stroke-width="3" x1="218" x2="250" y1="208" y2="208" /><line stroke="#3a2a1a" stroke-width="3" x1="266" x2="290" y1="209" y2="209" /><path d="M 215 225 A 9 6 0 0 0 233 225 Z" fill="#e88060" fill-opacity="0.2981159163038495" stroke="none" /><path d="M 279 228 A 8 5 0 0 0 295 228 Z" fill="#e88060" fill-opacity="0.24265236129754125" stroke="none" /><path d="M 239 243 Q 256 234 273 243 Q 256 252 239 243" fill="#c06050" stroke="#3a2a1a" stroke-width="1.5" /><line stroke="#3a2a1a" stroke-width="1.5" x1="241" x2="271" y1="243" y2="243" /><ellipse cx="242" cy="186" fill="white" fill-opacity="0.18" rx="9" ry="5" stroke="none" /><ellipse cx="270" cy="186" fill="white" fill-opacity="0.18" rx="9" ry="5" stroke="none" /><ellipse cx="256" cy="172" fill="white" fill-opacity="0.18" rx="9" ry="5" stroke="none" /><ellipse cx="232" cy="224" fill="white" fill-opacity="0.18" rx="9" ry="5" stroke="none" /><ellipse cx="280" cy="224" fill="white" fill-opacity="0.18" rx="9" ry="5" stroke="none" /><ellipse cx="246" cy="234" fill="white" fill-opacity="0.18" rx="9" ry="5" stroke="none" /><ellipse cx="266" cy="234" fill="white" fill-opacity="0.18" rx="9" ry="5" stroke="none" /><ellipse cx="256" cy="206" fill="white" fill-opacity="0.12" rx="3" ry="17" stroke="none" /><polygon fill="#b69018" points="237,313.5 275,313.5 275,348.5 237,348.5" stroke="none" /></svg>