<?xml version="1.0" encoding="utf-8" ?>
<svg baseProfile="full" height="512" version="1.1" width="512" xmlns="http://www.w3.org/2000/svg" xmlns:ev="http://www.w3.org/2001/xml-events" xmlns:xlink="http://www.w3.org/1999/xlink"><defs /><polygon fill="#fcdf64" points="255.0,92.5 253.6635,92.5 256.0,120.55" stroke="none" /><polygon fill="#fcde62" points="253.6635,92.5 248.15447155006356,120.55 256.0,120.55" stroke="none" /><polygon fill="#fcde61" points="253.6635,92.5 252.651,92.5 248.15447155006356,120.55" stroke="none" /><polygon fill="#fbdc5c" points="252.651,92.5 236.93816211829352,120.55 248.15447155006356,120.55" stroke="none" /><polygon fill="#fbdd5d" points="252.651,92.5 251.841,92.5 236.93816211829352,120.55" stroke="none" /><polygon fill="#fada57" points="251.841,92.5 232.3651145728775,120.55 236.93816211829352,120.55" stroke="none" /><polygon fill="#fbdc5b" points="251.841,92.5 251.95,92.5 232.3651145728775,120.55" stroke="none" /><polygon fill="#fad952" points="251.95,92.5 222.1347622729199,120.55 232.3651145728775,120.55" stroke="none" /><polygon fill="#fbdb5a" points="251.95,92.5 257,92.5 222.1347622729199,120.55" stroke="none" /><polygon fill="#fbdc5c" points="257,92.5 258,120.55 222.1347622729199,120.55" stroke="none" /><polygon fill="#fcdf64" points="257,92.5 257.0,92.5 258,120.55" stroke="none" /><polygon fill="#fcdf64" points="257.0,92.5 259.0,120.55 258,120.55" stroke="none" /><polygon fill="#fcdf63" points="257.0,92.5 258.3365,92.5 259.0,120.55" stroke="none" /><polygon fill="#fcdd60" points="258.3365,92.5 268.84552844993647,120.55 259.0,120.55" stroke="none" /><polygon fill="#fcdd60" points="258.3365,92.5 259.349,92.5 268.84552844993647,120.55" stroke="none" /><polygon fill="#fbdc5a" points="259.349,92.5 275.0618378817065,120.55 268.84552844993647,120.55" stroke="none" /><polygon fill="#fbdd5d" points="259.349,92.5 260.159,92.5 275.0618378817065,120.55" stroke="none" /><polygon fill="#fada57" points="260.159,92.5 278.6348854271225,120.55 275.0618378817065,120.55" stroke="none" /><polygon fill="#fbdc5c" points="260.159,92.5 260.05,92.5 278.6348854271225,120.55" stroke="none" /><polygon fill="#fad952" points="260.05,92.5 290.8652377270801,120.55 278.6348854271225,120.55" stroke="none" /><polygon fill="#fcdf63" points="256.0,120.55 248.15447155006356,120.55 257.0,149.875" stroke="none" /><polygon fill="#fadb5b" points="248.15447155006356,120.55 237.68114883754436,149.875 257.0,149.875" stroke="none" /><polygon fill="#fada57" points="248.15447155006356,120.55 236.93816211829352,120.55 237.68114883754436,149.875" stroke="none" /><polygon fill="#f8d64e" points="236.93816211829352,120.55 226.31838280538096,149.875 237.68114883754436,149.875" stroke="none" /><polygon fill="#f9d74e" points="236.93816211829352,120.55 232.3651145728775,120.55 226.31838280538096,149.875" stroke="none" /><polygon fill="#f7d346" points="232.3651145728775,120.55 218.42816997965028,149.875 226.31838280538096,149.875" stroke="none" /><polygon fill="#f8d547" points="232.3651145728775,120.55 222.1347622729199,120.55 218.42816997965028,149.875" stroke="none" /><polygon fill="#f5cf3d" points="222.1347622729199,120.55 206.54893587134652,149.875 218.42816997965028,149.875" stroke="none" /><polygon fill="#f9d64b" points="222.1347622729199,120.55 258,120.55 206.54893587134652,149.875" stroke="none" /><polygon fill="#f9d853" points="258,120.55 253,149.875 206.54893587134652,149.875" stroke="none" /><polygon fill="#fcdf65" points="258,120.55 259.0,120.55 253,149.875" stroke="none" /><polygon fill="#fbde62" points="259.0,120.55 257.0,149.875 253,149.875" stroke="none" /><polygon fill="#fcde60" points="259.0,120.55 268.84552844993647,120.55 257.0,149.875" stroke="none" /><polygon fill="#fada58" points="268.84552844993647,120.55 275.31885116245564,149.875 257.0,149.875" stroke="none" /><polygon fill="#fada55" points="268.84552844993647,120.55 275.0618378817065,120.55 275.31885116245564,149.875" stroke="none" /><polygon fill="#f8d64e" points="275.0618378817065,120.55 284.68161719461904,149.875 275.31885116245564,149.875" stroke="none" /><polygon fill="#f9d84f" points="275.0618378817065,120.55 278.6348854271225,120.55 284.68161719461904,149.875" stroke="none" /><polygon fill="#f7d346" points="278.6348854271225,120.55 297.5718300203497,149.875 284.68161719461904,149.875" stroke="none" /><polygon fill="#f8d446" points="278.6348854271225,120.55 290.8652377270801,120.55 297.5718300203497,149.875" stroke="none" /><polygon fill="#f5cf3b" points="290.8652377270801,120.55 307.4510641286535,149.875 297.5718300203497,149.875" stroke="none" /><polygon fill="#f9da57" points="257.0,149.875 237.68114883754436,149.875 253.0,175.375" stroke="none" /><polygon fill="#f7d650" points="237.68114883754436,149.875 238.21013053542808,175.375 253.0,175.375" stroke="none" /><polygon fill="#f6d44a" points="237.68114883754436,149.875 226.31838280538096,149.875 238.21013053542808,175.375" stroke="none" /><polygon fill="#f5d145" points="226.31838280538096,149.875 227.73295669863117,175.375 238.21013053542808,175.375" stroke="none" /><polygon fill="#f4cf41" points="226.31838280538096,149.875 218.42816997965028,149.875 227.73295669863117,175.375" stroke="none" /><polygon fill="#f2cc3c" points="218.42816997965028,149.875 212.95121762919365,175.375 227.73295669863117,175.375" stroke="none" /><polygon fill="#f1cb38" points="218.42816997965028,149.875 206.54893587134652,149.875 212.95121762919365,175.375" stroke="none" /><polygon fill="#efc731" points="206.54893587134652,149.875 201.09130465281237,175.375 212.95121762919365,175.375" stroke="none" /><polygon fill="#f3ce3e" points="206.54893587134652,149.875 253,149.875 201.09130465281237,175.375" stroke="none" /><polygon fill="#f6d34a" points="253,149.875 254,175.375 201.09130465281237,175.375" stroke="none" /><polygon fill="#fadc5b" points="253,149.875 257.0,149.875 254,175.375" stroke="none" /><polygon fill="#fadb5a" points="257.0,149.875 256.0,175.375 254,175.375" stroke="none" /><polygon fill="#f9da57" points="257.0,149.875 275.31885116245564,149.875 256.0,175.375" stroke="none" /><polygon fill="#f8d650" points="275.31885116245564,149.875 273.7898694645719,175.375 256.0,175.375" stroke="none" /><polygon fill="#f6d44a" points="275.31885116245564,149.875 284.68161719461904,149.875 273.7898694645719,175.375" stroke="none" /><polygon fill="#f5d145" points="284.68161719461904,149.875 286.2670433013688,175.375 273.7898694645719,175.375" stroke="none" /><polygon fill="#f3cf40" points="284.68161719461904,149.875 297.5718300203497,149.875 286.2670433013688,175.375" stroke="none" /><polygon fill="#f1cb3a" points="297.5718300203497,149.875 301.04878237080635,175.375 286.2670433013688,175.375" stroke="none" /><polygon fill="#f1ca35" points="297.5718300203497,149.875 307.4510641286535,149.875 301.04878237080635,175.375" stroke="none" /><polygon fill="#efc630" points="307.4510641286535,149.875 311.90869534718763,175.375 301.04878237080635,175.375" stroke="none" /><polygon fill="#f7d650" points="253.0,175.375 238.21013053542808,175.375 254.0,197.05" stroke="none" /><polygon fill="#f6d34a" points="238.21013053542808,175.375 238.64547711214692,197.05 254.0,197.05" stroke="none" /><polygon fill="#f4d045" points="238.21013053542808,175.375 227.73295669863117,175.375 238.64547711214692,197.05" stroke="none" /><polygon fill="#f2cc3f" points="227.73295669863117,175.375 218.98295977286432,197.05 238.64547711214692,197.05" stroke="none" /><polygon fill="#f0c93a" points="227.73295669863117,175.375 212.95121762919365,175.375 218.98295977286432,197.05" stroke="none" /><polygon fill="#edc533" points="212.95121762919365,175.375 207.2529459014382,197.05 218.98295977286432,197.05" stroke="none" /><polygon fill="#ecc430" points="212.95121762919365,175.375 201.09130465281237,175.375 207.2529459014382,197.05" stroke="none" /><polygon fill="#eabf2b" points="201.09130465281237,175.375 197.34993064286948,197.05 207.2529459014382,197.05" stroke="none" /><polygon fill="#efc838" points="201.09130465281237,175.375 254,175.375 197.34993064286948,197.05" stroke="none" /><polygon fill="#f3cf44" points="254,175.375 253,197.05 197.34993064286948,197.05" stroke="none" /><polygon fill="#f9d954" points="254,175.375 256.0,175.375 253,197.05" stroke="none" /><polygon fill="#f9d852" points="256.0,175.375 254.0,197.05 253,197.05" stroke="none" /><polygon fill="#f8d751" points="256.0,175.375 273.7898694645719,175.375 254.0,197.05" stroke="none" /><polygon fill="#f6d34b" points="273.7898694645719,175.375 273.3545228878531,197.05 254.0,197.05" stroke="none" /><polygon fill="#f4d045" points="273.7898694645719,175.375 286.2670433013688,175.375 273.3545228878531,197.05" stroke="none" /><polygon fill="#f2cc3f" points="286.2670433013688,175.375 291.0170402271357,197.05 273.3545228878531,197.05" stroke="none" /><polygon fill="#f0c939" points="286.2670433013688,175.375 301.04878237080635,175.375 291.0170402271357,197.05" stroke="none" /><polygon fill="#edc534" points="301.04878237080635,175.375 303.7470540985618,197.05 291.0170402271357,197.05" stroke="none" /><polygon fill="#ecc330" points="301.04878237080635,175.375 311.90869534718763,175.375 303.7470540985618,197.05" stroke="none" /><polygon fill="#eabf2a" points="311.90869534718763,175.375 317.6500693571305,197.05 303.7470540985618,197.05" stroke="none" /><polygon fill="#f7d54b" points="254.0,197.05 238.64547711214692,197.05 258.0,217.45" stroke="none" /><polygon fill="#f4d044" points="238.64547711214692,197.05 231.835516140082,217.45 258.0,217.45" stroke="none" /><polygon fill="#f0ca3d" points="238.64547711214692,197.05 218.98295977286432,197.05 231.835516140082,217.45" stroke="none" /><polygon fill="#edc636" points="218.98295977286432,197.05 215.044240488629,217.45 231.835516140082,217.45" stroke="none" /><polygon fill="#ebc232" points="218.98295977286432,197.05 207.2529459014382,197.05 215.044240488629,217.45" stroke="none" /><polygon fill="#e8bf2d" points="207.2529459014382,197.05 201.61121996746658,217.45 215.044240488629,217.45" stroke="none" /><polygon fill="#e7bd2a" points="207.2529459014382,197.05 197.34993064286948,197.05 201.61121996746658,217.45" stroke="none" /><polygon fill="#e6bb28" points="197.34993064286948,197.05 186.83489739418792,217.45 201.61121996746658,217.45" stroke="none" /><polygon fill="#ebc231" points="197.34993064286948,197.05 253,197.05 186.83489739418792,217.45" stroke="none" /><polygon fill="#f0ca3c" points="253,197.05 253,217.45 186.83489739418792,217.45" stroke="none" /><polygon fill="#f8d64d" points="253,197.05 254.0,197.05 253,217.45" stroke="none" /><polygon fill="#f8d54b" points="254.0,197.05 254.0,217.45 253,217.45" stroke="none" /><polygon fill="#f7d54b" points="254.0,197.05 273.3545228878531,197.05 254.0,217.45" stroke="none" /><polygon fill="#f4d044" points="273.3545228878531,197.05 279.164483859918,217.45 254.0,217.45" stroke="none" /><polygon fill="#f0cb3d" points="273.3545228878531,197.05 291.0170402271357,197.05 279.164483859918,217.45" stroke="none" /><polygon fill="#edc637" points="291.0170402271357,197.05 297.955759511371,217.45 279.164483859918,217.45" stroke="none" /><polygon fill="#ebc332" points="291.0170402271357,197.05 303.7470540985618,197.05 297.955759511371,217.45" stroke="none" /><polygon fill="#e9bf2d" points="303.7470540985618,197.05 308.3887800325334,217.45 297.955759511371,217.45" stroke="none" /><polygon fill="#e7bd2a" points="303.7470540985618,197.05 317.6500693571305,197.05 308.3887800325334,217.45" stroke="none" /><polygon fill="#e6bb28" points="317.6500693571305,197.05 326.1651026058121,217.45 308.3887800325334,217.45" stroke="none" /><polygon fill="#f5d244" points="258.0,217.45 231.835516140082,217.45 256.0,235.3" stroke="none" /><polygon fill="#f2cc3f" points="231.835516140082,217.45 236.59963130908366,235.3 256.0,235.3" stroke="none" /><polygon fill="#edc637" points="231.835516140082,217.45 215.044240488629,217.45 236.59963130908366,235.3" stroke="none" /><polygon fill="#eac234" points="215.044240488629,217.45 216.38723078566218,235.3 236.59963130908366,235.3" stroke="none" /><polygon fill="#e7be2d" points="215.044240488629,217.45 201.61121996746658,217.45 216.38723078566218,235.3" stroke="none" /><polygon fill="#e5ba2c" points="201.61121996746658,217.45 207.417310366925,235.3 216.38723078566218,235.3" stroke="none" /><polygon fill="#e3b827" points="201.61121996746658,217.45 186.83489739418792,217.45 207.417310366925,235.3" stroke="none" /><polygon fill="#e2b627" points="186.83489739418792,217.45 194.15039790631408,235.3 207.417310366925,235.3" stroke="none" /><polygon fill="#e7be2d" points="186.83489739418792,217.45 253,217.45 194.15039790631408,235.3" stroke="none" /><polygon fill="#efc83b" points="253,217.45 255,235.3 194.15039790631408,235.3" stroke="none" /><polygon fill="#f7d447" points="253,217.45 254.0,217.45 255,235.3" stroke="none" /><polygon fill="#f7d447" points="254.0,217.45 254.0,235.3 255,235.3" stroke="none" /><polygon fill="#f5d245" points="254.0,217.45 279.164483859918,217.45 254.0,235.3" stroke="none" /><polygon fill="#f2cd40" points="279.164483859918,217.45 275.40036869091637,235.3 254.0,235.3" stroke="none" /><polygon fill="#edc637" points="279.164483859918,217.45 297.955759511371,217.45 275.40036869091637,235.3" stroke="none" /><polygon fill="#ebc234" points="297.955759511371,217.45 293.61276921433785,235.3 275.40036869091637,235.3" stroke="none" /><polygon fill="#e7be2e" points="297.955759511371,217.45 308.3887800325334,217.45 293.61276921433785,235.3" stroke="none" /><polygon fill="#e5ba2b" points="308.3887800325334,217.45 309.582689633075,235.3 293.61276921433785,235.3" stroke="none" /><polygon fill="#e3b827" points="308.3887800325334,217.45 326.1651026058121,217.45 309.582689633075,235.3" stroke="none" /><polygon fill="#e2b627" points="326.1651026058121,217.45 320.8496020936859,235.3 309.582689633075,235.3" stroke="none" /><polygon fill="#f5d040" points="256.0,235.3 236.59963130908366,235.3 258.0,255.7" stroke="none" /><polygon fill="#f1cb3b" points="236.59963130908366,235.3 234.1452714215102,255.7 258.0,255.7" stroke="none" /><polygon fill="#ecc435" points="236.59963130908366,235.3 216.38723078566218,235.3 234.1452714215102,255.7" stroke="none" /><polygon fill="#e8bf30" points="216.38723078566218,235.3 218.34623461962394,255.7 234.1452714215102,255.7" stroke="none" /><polygon fill="#e6bc2d" points="216.38723078566218,235.3 207.417310366925,235.3 218.34623461962394,255.7" stroke="none" /><polygon fill="#e4b92b" points="207.417310366925,235.3 209.70700517811497,255.7 218.34623461962394,255.7" stroke="none" /><polygon fill="#e1b628" points="207.417310366925,235.3 194.15039790631408,235.3 209.70700517811497,255.7" stroke="none" /><polygon fill="#dfb225" points="194.15039790631408,235.3 193.80385279245507,255.7 209.70700517811497,255.7" stroke="none" /><polygon fill="#e6bc2d" points="194.15039790631408,235.3 255,235.3 193.80385279245507,255.7" stroke="none" /><polygon fill="#eec737" points="255,235.3 259,255.7 193.80385279245507,255.7" stroke="none" /><polygon fill="#f8d444" points="255,235.3 254.0,235.3 259,255.7" stroke="none" /><polygon fill="#f6d241" points="254.0,235.3 257.0,255.7 259,255.7" stroke="none" /><polygon fill="#f5d040" points="254.0,235.3 275.40036869091637,235.3 257.0,255.7" stroke="none" /><polygon fill="#f1cb3b" points="275.40036869091637,235.3 273.8547285784898,255.7 257.0,255.7" stroke="none" /><polygon fill="#edc536" points="275.40036869091637,235.3 293.61276921433785,235.3 273.8547285784898,255.7" stroke="none" /><polygon fill="#eac132" points="293.61276921433785,235.3 289.65376538037606,255.7 273.8547285784898,255.7" stroke="none" /><polygon fill="#e6bc2d" points="293.61276921433785,235.3 309.582689633075,235.3 289.65376538037606,255.7" stroke="none" /><polygon fill="#e3b82a" points="309.582689633075,235.3 305.29299482188503,255.7 289.65376538037606,255.7" stroke="none" /><polygon fill="#e0b426" points="309.582689633075,235.3 320.8496020936859,235.3 305.29299482188503,255.7" stroke="none" /><polygon fill="#dfb225" points="320.8496020936859,235.3 317.1961472075449,255.7 305.29299482188503,255.7" stroke="none" /><polygon fill="#f3cc3a" points="258.0,255.7 234.1452714215102,255.7 253.0,277.375" stroke="none" /><polygon fill="#efc734" points="234.1452714215102,255.7 237.36838128846475,277.375 253.0,277.375" stroke="none" /><polygon fill="#eac131" points="234.1452714215102,255.7 218.34623461962394,255.7 237.36838128846475,277.375" stroke="none" /><polygon fill="#e7be2e" points="218.34623461962394,255.7 224.7686701433623,277.375 237.36838128846475,277.375" stroke="none" /><polygon fill="#e4b92c" points="218.34623461962394,255.7 209.70700517811497,255.7 224.7686701433623,277.375" stroke="none" /><polygon fill="#e3b72a" points="209.70700517811497,255.7 215.68890122728033,277.375 224.7686701433623,277.375" stroke="none" /><polygon fill="#dfb327" points="209.70700517811497,255.7 193.80385279245507,255.7 215.68890122728033,277.375" stroke="none" /><polygon fill="#deb125" points="193.80385279245507,255.7 208.60115541959019,277.375 215.68890122728033,277.375" stroke="none" /><polygon fill="#e5bb2d" points="193.80385279245507,255.7 259,255.7 208.60115541959019,277.375" stroke="none" /><polygon fill="#eec734" points="259,255.7 256,277.375 208.60115541959019,277.375" stroke="none" /><polygon fill="#f6d03d" points="259,255.7 257.0,255.7 256,277.375" stroke="none" /><polygon fill="#f5d03a" points="257.0,255.7 258.0,277.375 256,277.375" stroke="none" /><polygon fill="#f3cc3a" points="257.0,255.7 273.8547285784898,255.7 258.0,277.375" stroke="none" /><polygon fill="#efc835" points="273.8547285784898,255.7 274.6316187115352,277.375 258.0,277.375" stroke="none" /><polygon fill="#ebc233" points="273.8547285784898,255.7 289.65376538037606,255.7 274.6316187115352,277.375" stroke="none" /><polygon fill="#e8bf2f" points="289.65376538037606,255.7 286.2313298566377,277.375 274.6316187115352,277.375" stroke="none" /><polygon fill="#e4ba2c" points="289.65376538037606,255.7 305.29299482188503,255.7 286.2313298566377,277.375" stroke="none" /><polygon fill="#e2b72a" points="305.29299482188503,255.7 295.3110987727197,277.375 286.2313298566377,277.375" stroke="none" /><polygon fill="#dfb226" points="305.29299482188503,255.7 317.1961472075449,255.7 295.3110987727197,277.375" stroke="none" /><polygon fill="#ddb025" points="317.1961472075449,255.7 307.39884458040984,277.375 295.3110987727197,277.375" stroke="none" /><polygon fill="#f2ca34" points="253.0,277.375 237.36838128846475,277.375 256.0,299.05" stroke="none" /><polygon fill="#efc731" points="237.36838128846475,277.375 244.7398064850256,299.05 256.0,299.05" stroke="none" /><polygon fill="#ebc12f" points="237.36838128846475,277.375 224.7686701433623,277.375 244.7398064850256,299.05" stroke="none" /><polygon fill="#e8be2c" points="224.7686701433623,277.375 227.93662957974198,299.05 244.7398064850256,299.05" stroke="none" /><polygon fill="#e4b92a" points="224.7686701433623,277.375 215.68890122728033,277.375 227.93662957974198,299.05" stroke="none" /><polygon fill="#e3b729" points="215.68890122728033,277.375 225.29408805551503,299.05 227.93662957974198,299.05" stroke="none" /><polygon fill="#e0b528" points="215.68890122728033,277.375 208.60115541959019,277.375 225.29408805551503,299.05" stroke="none" /><polygon fill="#deb226" points="208.60115541959019,277.375 209.78729237886546,299.05 225.29408805551503,299.05" stroke="none" /><polygon fill="#e5ba2b" points="208.60115541959019,277.375 256,277.375 209.78729237886546,299.05" stroke="none" /><polygon fill="#edc42f" points="256,277.375 258,299.05 209.78729237886546,299.05" stroke="none" /><polygon fill="#f5ce36" points="256,277.375 258.0,277.375 258,299.05" stroke="none" /><polygon fill="#f4cc34" points="258.0,277.375 257.0,299.05 258,299.05" stroke="none" /><polygon fill="#f2ca34" points="258.0,277.375 274.6316187115352,277.375 257.0,299.05" stroke="none" /><polygon fill="#efc731" points="274.6316187115352,277.375 267.2601935149744,299.05 257.0,299.05" stroke="none" /><polygon fill="#ebc12f" points="274.6316187115352,277.375 286.2313298566377,277.375 267.2601935149744,299.05" stroke="none" /><polygon fill="#e8be2c" points="286.2313298566377,277.375 283.063370420258,299.05 267.2601935149744,299.05" stroke="none" /><polygon fill="#e4b92a" points="286.2313298566377,277.375 295.3110987727197,277.375 283.063370420258,299.05" stroke="none" /><polygon fill="#e2b628" points="295.3110987727197,277.375 292.70591194448497,299.05 283.063370420258,299.05" stroke="none" /><polygon fill="#dfb327" points="295.3110987727197,277.375 307.39884458040984,277.375 292.70591194448497,299.05" stroke="none" /><polygon fill="#deb125" points="307.39884458040984,277.375 296.21270762113454,299.05 292.70591194448497,299.05" stroke="none" /><polygon fill="#f2ca2e" points="256.0,299.05 244.7398064850256,299.05 256.0,322.0" stroke="none" /><polygon fill="#f1c82e" points="244.7398064850256,299.05 247.31178844024686,322.0 256.0,322.0" stroke="none" /><polygon fill="#ebc12b" points="244.7398064850256,299.05 227.93662957974198,299.05 247.31178844024686,322.0" stroke="none" /><polygon fill="#e9bf2a" points="227.93662957974198,299.05 235.9722342283127,322.0 247.31178844024686,322.0" stroke="none" /><polygon fill="#e5ba28" points="227.93662957974198,299.05 225.29408805551503,299.05 235.9722342283127,322.0" stroke="none" /><polygon fill="#e7bc29" points="225.29408805551503,299.05 236.10059085876532,322.0 235.9722342283127,322.0" stroke="none" /><polygon fill="#e2b626" points="225.29408805551503,299.05 209.78729237886546,299.05 236.10059085876532,322.0" stroke="none" /><polygon fill="#e2b626" points="209.78729237886546,299.05 225.64178315226323,322.0 236.10059085876532,322.0" stroke="none" /><polygon fill="#e6bb28" points="209.78729237886546,299.05 258,299.05 225.64178315226323,322.0" stroke="none" /><polygon fill="#eec52d" points="258,299.05 253,322.0 225.64178315226323,322.0" stroke="none" /><polygon fill="#f5cd30" points="258,299.05 257.0,299.05 253,322.0" stroke="none" /><polygon fill="#f4cc2f" points="257.0,299.05 254.0,322.0 253,322.0" stroke="none" /><polygon fill="#f2ca2f" points="257.0,299.05 267.2601935149744,299.05 254.0,322.0" stroke="none" /><polygon fill="#f0c82e" points="267.2601935149744,299.05 267.68821155975314,322.0 254.0,322.0" stroke="none" /><polygon fill="#ebc12b" points="267.2601935149744,299.05 283.063370420258,299.05 267.68821155975314,322.0" stroke="none" /><polygon fill="#e9bf2a" points="283.063370420258,299.05 276.0277657716873,322.0 267.68821155975314,322.0" stroke="none" /><polygon fill="#e4b928" points="283.063370420258,299.05 292.70591194448497,299.05 276.0277657716873,322.0" stroke="none" /><polygon fill="#e5ba28" points="292.70591194448497,299.05 276.8994091412347,322.0 276.0277657716873,322.0" stroke="none" /><polygon fill="#e1b526" points="292.70591194448497,299.05 296.21270762113454,299.05 276.8994091412347,322.0" stroke="none" /><polygon fill="#e3b727" points="296.21270762113454,299.05 284.35821684773674,322.0 276.8994091412347,322.0" stroke="none" /><polygon fill="#f3ca2f" points="256.0,322.0 247.31178844024686,322.0 256.0,347.5" stroke="none" /><polygon fill="#f2ca2e" points="247.31178844024686,322.0 253.6635,347.5 256.0,347.5" stroke="none" /><polygon fill="#eec52d" points="247.31178844024686,322.0 235.9722342283127,322.0 253.6635,347.5" stroke="none" /><polygon fill="#efc62d" points="235.9722342283127,322.0 252.651,347.5 253.6635,347.5" stroke="none" /><polygon fill="#ecc22b" points="235.9722342283127,322.0 236.10059085876532,322.0 252.651,347.5" stroke="none" /><polygon fill="#f0c62d" points="236.10059085876532,322.0 253.841,347.5 252.651,347.5" stroke="none" /><polygon fill="#eac02b" points="236.10059085876532,322.0 225.64178315226323,322.0 253.841,347.5" stroke="none" /><polygon fill="#eec42c" points="225.64178315226323,322.0 252.95,347.5 253.841,347.5" stroke="none" /><polygon fill="#edc42c" points="225.64178315226323,322.0 253,322.0 252.95,347.5" stroke="none" /><polygon fill="#f3cb2f" points="253,322.0 256,347.5 252.95,347.5" stroke="none" /><polygon fill="#f4cb2f" points="253,322.0 254.0,322.0 256,347.5" stroke="none" /><polygon fill="#f4cc2f" points="254.0,322.0 255.0,347.5 256,347.5" stroke="none" /><polygon fill="#f3ca2f" points="254.0,322.0 267.68821155975314,322.0 255.0,347.5" stroke="none" /><polygon fill="#f2c92e" points="267.68821155975314,322.0 258.3365,347.5 255.0,347.5" stroke="none" /><polygon fill="#eec42c" points="267.68821155975314,322.0 276.0277657716873,322.0 258.3365,347.5" stroke="none" /><polygon fill="#efc62d" points="276.0277657716873,322.0 259.349,347.5 258.3365,347.5" stroke="none" /><polygon fill="#ecc22b" points="276.0277657716873,322.0 276.8994091412347,322.0 259.349,347.5" stroke="none" /><polygon fill="#efc62d" points="276.8994091412347,322.0 260.159,347.5 259.349,347.5" stroke="none" /><polygon fill="#eac02a" points="276.8994091412347,322.0 284.35821684773674,322.0 260.159,347.5" stroke="none" /><polygon fill="#eec42c" points="284.35821684773674,322.0 259.05,347.5 260.159,347.5" stroke="none" /><path d="M 240 203 A 5 31 0 0 0 240 233 Z" fill="#f5cd30" stroke="#d4a520" stroke-width="1" /><path d="M 272 203 A 5 31 0 0 1 272 233 Z" fill="#f5cd30" stroke="#d4a520" stroke-width="1" /><line stroke="#3a2a1a" stroke-width="3" x1="213" x2="233" y1="208" y2="210" /><line stroke="#3a2a1a" stroke-width="3" x1="237" x2="257" y1="210" y2="208" /><line stroke="#3a2a1a" stroke-width="3" x1="255" x2="275" y1="209" y2="211" /><line stroke="#3a2a1a" stroke-width="3" x1="279" x2="299" y1="211" y2="209" /><line stroke="#3a2a1a" stroke-width="6" x1="223" x2="247" y1="194" y2="194" /><line stroke="#3a2a1a" stroke-width="6" x1="264" x2="290" y1="197" y2="197" /><path d="M 217 229 A 7 4 0 0 0 231 229 Z" fill="#e88060" fill-opacity="0.25400077395370196" stroke="none" /><path d="M 276 230 A 8 5 0 0 0 292 230 Z" fill="#e88060" fill-opacity="0.20598332063720248" stroke="none" /><circle cx="256" cy="231" fill="#d4a520" r="3" stroke="none" /><path d="M 238 248 Q 256 257 274 248" fill="none" stroke="#c06050" stroke-width="3" /><path d="M 236 246 Q 256 259 276 246" fill="none" stroke="#a04030" stroke-width="1.5" /><path d="M 236 248 Q 256 255 276 248" fill="none" stroke="#f0a0a0" stroke-width="1" /><path d="M 261 177 Q 265 173 269 177" fill="none" stroke="#d4c0a0" stroke-opacity="0.3" stroke-width="1" /><path d="M 278 245 Q 284 239 290 245" fill="none" stroke="#d4c0a0" stroke-opacity="0.3" stroke-width="1" /><path d="M 280 167 Q 287 160 294 167" fill="none" stroke="#d4c0a0" stroke-opacity="0.3" stroke-width="1" /><path d="M 219 159 Q 224 154 229 159" fill="none" stroke="#d4c0a0" stroke-opacity="0.3" stroke-width="1" /><path d="M 246 239 Q 254 231 262 239" fill="none" stroke="#d4c0a0" stroke-opacity="0.3" stroke-width="1" /><path d="M 234 269 Q 237 266 240 269" fill="none" stroke="#d4c0a0" stroke-opacity="0.3" stroke-width="1" /><path d="M 288 252 Q 296 244 304 252" fill="none" stroke="#d4c0a0" stroke-opacity="0.3" stroke-width="1" /><path d="M 275 182 Q 280 177 285 182" fill="none" stroke="#d4c0a0" stroke-opacity="0.3" stroke-width="1" /><path d="M 243 173 Q 246 170 249 173" fill="none" stroke="#d4c0a0" stroke-opacity="0.3" stroke-width="1" /><path d="M 293 246 Q 300 239 307 246" fill="none" stroke="#d4c0a0" stroke-opacity="0.3" stroke-width="1" /><path d="M 250 259 Q 257 252 264 259" fill="none" stroke="#d4c0a0" stroke-opacity="0.3" stroke-width="1" /><path d="M 264 164 Q 271 157 278 164" fill="none" stroke="#d4c0a0" stroke-opacity="0.3" stroke-width="1" /><path d="M 276 266 Q 282 260 288 266" fill="none" stroke="#d4c0a0" stroke-opacity="0.3" stroke-width="1" /><path d="M 250 197 Q 253 194 256 197" fill="none" stroke="#d4c0a0" stroke-opacity="0.3" stroke-width="1" /><path d="M 242 174 Q 249 167 256 174" fill="none" stroke="#d4c0a0" stroke-opacity="0.3" stroke-width="1" /><path d="M 256 211 Q 264 203 272 211" fill="none" stroke="#d4c0a0" stroke-opacity="0.3" stroke-width="1" /><path d="M 291 196 Q 294 193 297 196" fill="none" stroke="#d4c0a0" stroke-opacity="0.3" stroke-width="1" /><polygon fill="#b8911a" points="245,343.5 267,343.5 267,378.5 245,378.5" stroke="none" /><path d="M 253 361.5 Q 256 351.5 259 361.5" fill="none" stroke="#d4a520" stroke-width="1.5" /></svg>