<?xml version="1.0" encoding="utf-8" ?>
<svg baseProfile="full" height="682" version="1.1" viewBox="0 0 512 682" width="512" xmlns="http://www.w3.org/2000/svg" xmlns:ev="http://www.w3.org/2001/xml-events" xmlns:xlink="http://www.w3.org/1999/xlink"><defs /><polyline fill="none" points="174,240 130,302" stroke="#c0a24b" stroke-linecap="round" stroke-linejoin="round" stroke-width="41" /><polyline fill="none" points="174,240 130,302" stroke="#e2c46d" stroke-linecap="round" stroke-linejoin="round" stroke-width="33" /><polyline fill="none" points="130,302 162,374" stroke="#d2ae89" stroke-linecap="round" stroke-linejoin="round" stroke-width="30" /><polyline fill="none" points="130,302 162,374" stroke="#f4d0ab" stroke-linecap="round" stroke-linejoin="round" stroke-width="22" /><ellipse cx="162" cy="374" fill="#f4d0ab" rx="13.799999999999999" ry="17.25" stroke="#2f2925" stroke-linecap="round" stroke-linejoin="round" stroke-width="2" /><line stroke="#e8c49f" stroke-linecap="round" stroke-width="2.9899999999999998" x1="168.923" x2="171.443" y1="384.35" y2="399.3" /><line stroke="#e8c49f" stroke-linecap="round" stroke-width="2.9899999999999998" x1="163.978" x2="164.698" y1="384.35" y2="399.3" /><line stroke="#e8c49f" stroke-linecap="round" stroke-width="2.9899999999999998" x1="159.033" x2="157.95299999999997" y1="384.35" y2="399.3" /><line stroke="#e8c49f" stroke-linecap="round" stroke-width="2.9899999999999998" x1="154.088" x2="151.208" y1="384.35" y2="399.3" /><circle cx="130" cy="302" fill="#eed079" r="17.5" stroke="#2f2925" stroke-width="2" /><polyline fill="none" points="338,240 382,302" stroke="#c0a24b" stroke-linecap="round" stroke-linejoin="round" stroke-width="41" /><polyline fill="none" points="338,240 382,302" stroke="#e2c46d" stroke-linecap="round" stroke-linejoin="round" stroke-width="33" /><polyline fill="none" points="382,302 350,374" stroke="#d2ae89" stroke-linecap="round" stroke-linejoin="round" stroke-width="30" /><polyline fill="none" points="382,302 350,374" stroke="#f4d0ab" stroke-linecap="round" stroke-linejoin="round" stroke-width="22" /><ellipse cx="350" cy="374" fill="#f4d0ab" rx="13.799999999999999" ry="17.25" stroke="#2f2925" stroke-linecap="round" stroke-linejoin="round" stroke-width="2" /><line stroke="#e8c49f" stroke-linecap="round" stroke-width="2.9899999999999998" x1="343.077" x2="340.557" y1="384.35" y2="399.3" /><line stroke="#e8c49f" stroke-linecap="round" stroke-width="2.9899999999999998" x1="348.022" x2="347.30199999999996" y1="384.35" y2="399.3" /><line stroke="#e8c49f" stroke-linecap="round" stroke-width="2.9899999999999998" x1="352.967" x2="354.04699999999997" y1="384.35" y2="399.3" /><line stroke="#e8c49f" stroke-linecap="round" stroke-width="2.9899999999999998" x1="357.912" x2="360.792" y1="384.35" y2="399.3" /><circle cx="382" cy="302" fill="#eed079" r="17.5" stroke="#2f2925" stroke-width="2" /></svg>