<?xml version="1.0" encoding="utf-8" ?>
<svg baseProfile="full" height="682" version="1.1" viewBox="0 0 512 682" width="512" xmlns="http://www.w3.org/2000/svg" xmlns:ev="http://www.w3.org/2001/xml-events" xmlns:xlink="http://www.w3.org/1999/xlink"><defs /><polyline fill="none" points="176,238 146,320" stroke="#4d6d36" stroke-linecap="round" stroke-linejoin="round" stroke-width="30" /><polyline fill="none" points="176,238 146,320" stroke="#6f8f58" stroke-linecap="round" stroke-linejoin="round" stroke-width="22" /><polyline fill="none" points="146,320 140,414" stroke="#5b3018" stroke-linecap="round" stroke-linejoin="round" stroke-width="22" /><polyline fill="none" points="146,320 140,414" stroke="#7d523a" stroke-linecap="round" stroke-linejoin="round" stroke-width="14" /><circle cx="146" cy="320" fill="#81a16a" r="13.0" stroke="#2f2925" stroke-width="2" /><ellipse cx="140" cy="414" fill="#7d523a" rx="12" ry="15" stroke="#2f2925" stroke-linecap="round" stroke-linejoin="round" stroke-width="2" /><line stroke="#71462e" stroke-linecap="round" stroke-width="2.6" x1="146.02" x2="148.54000000000002" y1="423" y2="436" /><line stroke="#71462e" stroke-linecap="round" stroke-width="2.6" x1="141.72" x2="142.44" y1="423" y2="436" /><line stroke="#71462e" stroke-linecap="round" stroke-width="2.6" x1="137.42" x2="136.33999999999997" y1="423" y2="436" /><line stroke="#71462e" stroke-linecap="round" stroke-width="2.6" x1="133.12" x2="130.24" y1="423" y2="436" /><circle cx="140" cy="414" fill="#7b9b64" r="12.0" stroke="#2f2925" stroke-width="2" /><polyline fill="none" points="336,238 392,174" stroke="#4d6d36" stroke-linecap="round" stroke-linejoin="round" stroke-width="30" /><polyline fill="none" points="336,238 392,174" stroke="#6f8f58" stroke-linecap="round" stroke-linejoin="round" stroke-width="22" /><polyline fill="none" points="392,174 428,108" stroke="#5b3018" stroke-linecap="round" stroke-linejoin="round" stroke-width="22" /><polyline fill="none" points="392,174 428,108" stroke="#7d523a" stroke-linecap="round" stroke-linejoin="round" stroke-width="14" /><circle cx="392" cy="174" fill="#81a16a" r="13.0" stroke="#2f2925" stroke-width="2" /><ellipse cx="428" cy="108" fill="#7d523a" rx="12" ry="15" stroke="#2f2925" stroke-linecap="round" stroke-linejoin="round" stroke-width="2" /><line stroke="#71462e" stroke-linecap="round" stroke-width="2.6" x1="421.98" x2="419.46000000000004" y1="117" y2="130" /><line stroke="#71462e" stroke-linecap="round" stroke-width="2.6" x1="426.28" x2="425.55999999999995" y1="117" y2="130" /><line stroke="#71462e" stroke-linecap="round" stroke-width="2.6" x1="430.58" x2="431.65999999999997" y1="117" y2="130" /><line stroke="#71462e" stroke-linecap="round" stroke-width="2.6" x1="434.88" x2="437.76" y1="117" y2="130" /><path d="M 446 76 Q 465 64 484 76" fill="none" stroke="#74675d" stroke-linecap="round" stroke-linejoin="round" stroke-width="2" /><path d="M 446 90 Q 465 78 484 90" fill="none" stroke="#74675d" stroke-linecap="round" stroke-linejoin="round" stroke-width="2" /><path d="M 446 104 Q 465 92 484 104" fill="none" stroke="#74675d" stroke-linecap="round" stroke-linejoin="round" stroke-width="2" /><circle cx="428" cy="108" fill="#7b9b64" r="12.0" stroke="#2f2925" stroke-width="2" /></svg>