<?xml version="1.0" encoding="utf-8" ?>
<svg baseProfile="full" height="682" version="1.1" viewBox="0 0 512 682" width="512" xmlns="http://www.w3.org/2000/svg" xmlns:ev="http://www.w3.org/2001/xml-events" xmlns:xlink="http://www.w3.org/1999/xlink"><defs /><polyline fill="none" points="151,242 133,314 156,384" stroke="#733c1f" stroke-linecap="round" stroke-linejoin="round" stroke-width="27" /><polyline fill="none" points="151,242 133,314 156,384" stroke="#8f583b" stroke-linecap="round" stroke-linejoin="round" stroke-width="20" /><ellipse cx="156" cy="384" fill="#8f583b" rx="13" ry="15" stroke="#2f2925" stroke-linecap="round" stroke-linejoin="round" stroke-width="2" /><line stroke="#854e31" stroke-linecap="round" stroke-width="3" x1="148.5" x2="145.5" y1="394" y2="407" /><line stroke="#854e31" stroke-linecap="round" stroke-width="3" x1="153.5" x2="152.5" y1="394" y2="407" /><line stroke="#854e31" stroke-linecap="round" stroke-width="3" x1="158.5" x2="159.5" y1="394" y2="407" /><line stroke="#854e31" stroke-linecap="round" stroke-width="3" x1="163.5" x2="166.5" y1="394" y2="407" /><polyline fill="none" points="361,242 385,310 370,396" stroke="#733c1f" stroke-linecap="round" stroke-linejoin="round" stroke-width="27" /><polyline fill="none" points="361,242 385,310 370,396" stroke="#8f583b" stroke-linecap="round" stroke-linejoin="round" stroke-width="20" /><ellipse cx="370" cy="396" fill="#8f583b" rx="13" ry="15" stroke="#2f2925" stroke-linecap="round" stroke-linejoin="round" stroke-width="2" /><line stroke="#854e31" stroke-linecap="round" stroke-width="3" x1="362.5" x2="359.5" y1="406" y2="419" /><line stroke="#854e31" stroke-linecap="round" stroke-width="3" x1="367.5" x2="366.5" y1="406" y2="419" /><line stroke="#854e31" stroke-linecap="round" stroke-width="3" x1="372.5" x2="373.5" y1="406" y2="419" /><line stroke="#854e31" stroke-linecap="round" stroke-width="3" x1="377.5" x2="380.5" y1="406" y2="419" /></svg>