<?xml version="1.0" encoding="utf-8" ?>
<svg baseProfile="full" height="682" version="1.1" viewBox="0 0 512 682" width="512" xmlns="http://www.w3.org/2000/svg" xmlns:ev="http://www.w3.org/2001/xml-events" xmlns:xlink="http://www.w3.org/1999/xlink"><defs /><polyline fill="none" points="174,232 121,244" stroke="#96aebd" stroke-linecap="round" stroke-linejoin="round" stroke-width="35" /><polyline fill="none" points="174,232 121,244" stroke="#b8d0df" stroke-linecap="round" stroke-linejoin="round" stroke-width="27" /><polyline fill="none" points="121,244 98,296" stroke="#ce9d6f" stroke-linecap="round" stroke-linejoin="round" stroke-width="24" /><polyline fill="none" points="121,244 98,296" stroke="#f0bf91" stroke-linecap="round" stroke-linejoin="round" stroke-width="16" /><ellipse cx="98" cy="296" fill="#f0bf91" rx="12" ry="15" stroke="#2f2925" stroke-linecap="round" stroke-linejoin="round" stroke-width="2" /><line stroke="#e4b385" stroke-linecap="round" stroke-width="2.6" x1="104.02" x2="106.53999999999999" y1="305" y2="318" /><line stroke="#e4b385" stroke-linecap="round" stroke-width="2.6" x1="99.72" x2="100.44" y1="305" y2="318" /><line stroke="#e4b385" stroke-linecap="round" stroke-width="2.6" x1="95.42" x2="94.34" y1="305" y2="318" /><line stroke="#e4b385" stroke-linecap="round" stroke-width="2.6" x1="91.12" x2="88.24000000000001" y1="305" y2="318" /><circle cx="121" cy="244" fill="#c4dceb" r="14.5" stroke="#2f2925" stroke-width="2" /><polyline fill="none" points="338,232 391,244" stroke="#96aebd" stroke-linecap="round" stroke-linejoin="round" stroke-width="35" /><polyline fill="none" points="338,232 391,244" stroke="#b8d0df" stroke-linecap="round" stroke-linejoin="round" stroke-width="27" /><polyline fill="none" points="391,244 414,296" stroke="#ce9d6f" stroke-linecap="round" stroke-linejoin="round" stroke-width="24" /><polyline fill="none" points="391,244 414,296" stroke="#f0bf91" stroke-linecap="round" stroke-linejoin="round" stroke-width="16" /><ellipse cx="414" cy="296" fill="#f0bf91" rx="12" ry="15" stroke="#2f2925" stroke-linecap="round" stroke-linejoin="round" stroke-width="2" /><line stroke="#e4b385" stroke-linecap="round" stroke-width="2.6" x1="407.98" x2="405.46000000000004" y1="305" y2="318" /><line stroke="#e4b385" stroke-linecap="round" stroke-width="2.6" x1="412.28" x2="411.55999999999995" y1="305" y2="318" /><line stroke="#e4b385" stroke-linecap="round" stroke-width="2.6" x1="416.58" x2="417.65999999999997" y1="305" y2="318" /><line stroke="#e4b385" stroke-linecap="round" stroke-width="2.6" x1="420.88" x2="423.76" y1="305" y2="318" /><circle cx="391" cy="244" fill="#c4dceb" r="14.5" stroke="#2f2925" stroke-width="2" /></svg>