<?xml version="1.0" encoding="utf-8" ?>
<svg baseProfile="full" height="682" version="1.1" viewBox="0 0 512 682" width="512" xmlns="http://www.w3.org/2000/svg" xmlns:ev="http://www.w3.org/2001/xml-events" xmlns:xlink="http://www.w3.org/1999/xlink"><defs /><polyline fill="none" points="151,246 190,309 230,392" stroke="#733c1f" stroke-linecap="round" stroke-linejoin="round" stroke-width="27" /><polyline fill="none" points="151,246 190,309 230,392" stroke="#8f583b" stroke-linecap="round" stroke-linejoin="round" stroke-width="20" /><ellipse cx="230" cy="392" fill="#8f583b" rx="13" ry="15" stroke="#2f2925" stroke-linecap="round" stroke-linejoin="round" stroke-width="2" /><line stroke="#854e31" stroke-linecap="round" stroke-width="3" x1="222.5" x2="219.5" y1="402" y2="415" /><line stroke="#854e31" stroke-linecap="round" stroke-width="3" x1="227.5" x2="226.5" y1="402" y2="415" /><line stroke="#854e31" stroke-linecap="round" stroke-width="3" x1="232.5" x2="233.5" y1="402" y2="415" /><line stroke="#854e31" stroke-linecap="round" stroke-width="3" x1="237.5" x2="240.5" y1="402" y2="415" /><polyline fill="none" points="361,246 322,309 282,392" stroke="#733c1f" stroke-linecap="round" stroke-linejoin="round" stroke-width="27" /><polyline fill="none" points="361,246 322,309 282,392" stroke="#8f583b" stroke-linecap="round" stroke-linejoin="round" stroke-width="20" /><ellipse cx="282" cy="392" fill="#8f583b" rx="13" ry="15" stroke="#2f2925" stroke-linecap="round" stroke-linejoin="round" stroke-width="2" /><line stroke="#854e31" stroke-linecap="round" stroke-width="3" x1="274.5" x2="271.5" y1="402" y2="415" /><line stroke="#854e31" stroke-linecap="round" stroke-width="3" x1="279.5" x2="278.5" y1="402" y2="415" /><line stroke="#854e31" stroke-linecap="round" stroke-width="3" x1="284.5" x2="285.5" y1="402" y2="415" /><line stroke="#854e31" stroke-linecap="round" stroke-width="3" x1="289.5" x2="292.5" y1="402" y2="415" /><line stroke="#8f583b" stroke-linecap="round" stroke-width="5" x1="274" x2="262" y1="382" y2="350" /><line stroke="#8f583b" stroke-linecap="round" stroke-width="5" x1="284" x2="283" y1="380" y2="346" /></svg>