<?xml version="1.0" encoding="utf-8" ?>
<svg baseProfile="full" height="682" version="1.1" viewBox="0 0 512 682" width="512" xmlns="http://www.w3.org/2000/svg" xmlns:ev="http://www.w3.org/2001/xml-events" xmlns:xlink="http://www.w3.org/1999/xlink"><defs /><polyline fill="none" points="174,240 222,298 311,324" stroke="#1b1d23" stroke-linecap="round" stroke-linejoin="round" stroke-width="41" /><polyline fill="none" points="174,240 222,298 311,324" stroke="#3d3f45" stroke-linecap="round" stroke-linejoin="round" stroke-width="33" /><ellipse cx="311" cy="324" fill="#f6dfc4" rx="13.799999999999999" ry="17.25" stroke="#2f2925" stroke-linecap="round" stroke-linejoin="round" stroke-width="2" /><line stroke="#ead3b8" stroke-linecap="round" stroke-width="2.9899999999999998" x1="317.923" x2="320.443" y1="334.35" y2="349.3" /><line stroke="#ead3b8" stroke-linecap="round" stroke-width="2.9899999999999998" x1="312.978" x2="313.69800000000004" y1="334.35" y2="349.3" /><line stroke="#ead3b8" stroke-linecap="round" stroke-width="2.9899999999999998" x1="308.033" x2="306.95300000000003" y1="334.35" y2="349.3" /><line stroke="#ead3b8" stroke-linecap="round" stroke-width="2.9899999999999998" x1="303.088" x2="300.208" y1="334.35" y2="349.3" /><circle cx="311" cy="324" fill="#494b51" r="17.5" stroke="#2f2925" stroke-width="2" /><polyline fill="none" points="338,240 290,300 203,330" stroke="#1b1d23" stroke-linecap="round" stroke-linejoin="round" stroke-width="41" /><polyline fill="none" points="338,240 290,300 203,330" stroke="#3d3f45" stroke-linecap="round" stroke-linejoin="round" stroke-width="33" /><ellipse cx="203" cy="330" fill="#f6dfc4" rx="13.799999999999999" ry="17.25" stroke="#2f2925" stroke-linecap="round" stroke-linejoin="round" stroke-width="2" /><line stroke="#ead3b8" stroke-linecap="round" stroke-width="2.9899999999999998" x1="196.077" x2="193.557" y1="340.35" y2="355.3" /><line stroke="#ead3b8" stroke-linecap="round" stroke-width="2.9899999999999998" x1="201.022" x2="200.302" y1="340.35" y2="355.3" /><line stroke="#ead3b8" stroke-linecap="round" stroke-width="2.9899999999999998" x1="205.967" x2="207.04700000000003" y1="340.35" y2="355.3" /><line stroke="#ead3b8" stroke-linecap="round" stroke-width="2.9899999999999998" x1="210.912" x2="213.792" y1="340.35" y2="355.3" /><circle cx="203" cy="330" fill="#494b51" r="17.5" stroke="#2f2925" stroke-width="2" /></svg>