<?xml version="1.0" encoding="utf-8" ?>
<svg baseProfile="full" height="682" version="1.1" viewBox="0 0 512 682" width="512" xmlns="http://www.w3.org/2000/svg" xmlns:ev="http://www.w3.org/2001/xml-events" xmlns:xlink="http://www.w3.org/1999/xlink"><defs /><polyline fill="none" points="151,240 124,323 120,407" stroke="#bd7541" stroke-linecap="round" stroke-linejoin="round" stroke-width="27" /><polyline fill="none" points="151,240 124,323 120,407" stroke="#d9915d" stroke-linecap="round" stroke-linejoin="round" stroke-width="20" /><ellipse cx="120" cy="407" fill="#d9915d" rx="13" ry="15" stroke="#2f2925" stroke-linecap="round" stroke-linejoin="round" stroke-width="2" /><line stroke="#cf8753" stroke-linecap="round" stroke-width="3" x1="112.5" x2="109.5" y1="417" y2="430" /><line stroke="#cf8753" stroke-linecap="round" stroke-width="3" x1="117.5" x2="116.5" y1="417" y2="430" /><line stroke="#cf8753" stroke-linecap="round" stroke-width="3" x1="122.5" x2="123.5" y1="417" y2="430" /><line stroke="#cf8753" stroke-linecap="round" stroke-width="3" x1="127.5" x2="130.5" y1="417" y2="430" /><polyline fill="none" points="361,240 388,323 392,407" stroke="#bd7541" stroke-linecap="round" stroke-linejoin="round" stroke-width="27" /><polyline fill="none" points="361,240 388,323 392,407" stroke="#d9915d" stroke-linecap="round" stroke-linejoin="round" stroke-width="20" /><ellipse cx="392" cy="407" fill="#d9915d" rx="13" ry="15" stroke="#2f2925" stroke-linecap="round" stroke-linejoin="round" stroke-width="2" /><line stroke="#cf8753" stroke-linecap="round" stroke-width="3" x1="384.5" x2="381.5" y1="417" y2="430" /><line stroke="#cf8753" stroke-linecap="round" stroke-width="3" x1="389.5" x2="388.5" y1="417" y2="430" /><line stroke="#cf8753" stroke-linecap="round" stroke-width="3" x1="394.5" x2="395.5" y1="417" y2="430" /><line stroke="#cf8753" stroke-linecap="round" stroke-width="3" x1="399.5" x2="402.5" y1="417" y2="430" /></svg>