<?xml version="1.0" encoding="utf-8" ?>
<svg baseProfile="full" height="682" version="1.1" viewBox="0 0 512 682" width="512" xmlns="http://www.w3.org/2000/svg" xmlns:ev="http://www.w3.org/2001/xml-events" xmlns:xlink="http://www.w3.org/1999/xlink"><defs /><polyline fill="none" points="174,238 126,288" stroke="#a87f35" stroke-linecap="round" stroke-linejoin="round" stroke-width="30" /><polyline fill="none" points="174,238 126,288" stroke="#caa157" stroke-linecap="round" stroke-linejoin="round" stroke-width="22" /><polyline fill="none" points="126,288 93,326" stroke="#854221" stroke-linecap="round" stroke-linejoin="round" stroke-width="22" /><polyline fill="none" points="126,288 93,326" stroke="#a76443" stroke-linecap="round" stroke-linejoin="round" stroke-width="14" /><circle cx="126" cy="288" fill="#dcb369" r="13.0" stroke="#2f2925" stroke-width="2" /><ellipse cx="93" cy="326" fill="#a76443" rx="12" ry="15" stroke="#2f2925" stroke-linecap="round" stroke-linejoin="round" stroke-width="2" /><line stroke="#9b5837" stroke-linecap="round" stroke-width="2.6" x1="99.02" x2="101.53999999999999" y1="335" y2="348" /><line stroke="#9b5837" stroke-linecap="round" stroke-width="2.6" x1="94.72" x2="95.44" y1="335" y2="348" /><line stroke="#9b5837" stroke-linecap="round" stroke-width="2.6" x1="90.42" x2="89.34" y1="335" y2="348" /><line stroke="#9b5837" stroke-linecap="round" stroke-width="2.6" x1="86.12" x2="83.24000000000001" y1="335" y2="348" /><circle cx="93" cy="326" fill="#d6ad63" r="12.0" stroke="#2f2925" stroke-width="2" /><polyline fill="none" points="338,238 386,288" stroke="#a87f35" stroke-linecap="round" stroke-linejoin="round" stroke-width="30" /><polyline fill="none" points="338,238 386,288" stroke="#caa157" stroke-linecap="round" stroke-linejoin="round" stroke-width="22" /><polyline fill="none" points="386,288 419,326" stroke="#854221" stroke-linecap="round" stroke-linejoin="round" stroke-width="22" /><polyline fill="none" points="386,288 419,326" stroke="#a76443" stroke-linecap="round" stroke-linejoin="round" stroke-width="14" /><circle cx="386" cy="288" fill="#dcb369" r="13.0" stroke="#2f2925" stroke-width="2" /><ellipse cx="419" cy="326" fill="#a76443" rx="12" ry="15" stroke="#2f2925" stroke-linecap="round" stroke-linejoin="round" stroke-width="2" /><line stroke="#9b5837" stroke-linecap="round" stroke-width="2.6" x1="412.98" x2="410.46000000000004" y1="335" y2="348" /><line stroke="#9b5837" stroke-linecap="round" stroke-width="2.6" x1="417.28" x2="416.55999999999995" y1="335" y2="348" /><line stroke="#9b5837" stroke-linecap="round" stroke-width="2.6" x1="421.58" x2="422.65999999999997" y1="335" y2="348" /><line stroke="#9b5837" stroke-linecap="round" stroke-width="2.6" x1="425.88" x2="428.76" y1="335" y2="348" /><circle cx="419" cy="326" fill="#d6ad63" r="12.0" stroke="#2f2925" stroke-width="2" /></svg>