<?xml version="1.0" encoding="utf-8" ?>
<svg baseProfile="full" height="682" version="1.1" viewBox="0 0 512 682" width="512" xmlns="http://www.w3.org/2000/svg" xmlns:ev="http://www.w3.org/2001/xml-events" xmlns:xlink="http://www.w3.org/1999/xlink"><defs /><polyline fill="none" points="175,232 155,314 142,414" stroke="#1f2e41" stroke-linecap="round" stroke-linejoin="round" stroke-width="30" /><polyline fill="none" points="175,232 155,314 142,414" stroke="#415063" stroke-linecap="round" stroke-linejoin="round" stroke-width="22" /><ellipse cx="142" cy="414" fill="#f0bf91" rx="12" ry="15" stroke="#2f2925" stroke-linecap="round" stroke-linejoin="round" stroke-width="2" /><line stroke="#e4b385" stroke-linecap="round" stroke-width="2.6" x1="148.02" x2="150.54000000000002" y1="423" y2="436" /><line stroke="#e4b385" stroke-linecap="round" stroke-width="2.6" x1="143.72" x2="144.44" y1="423" y2="436" /><line stroke="#e4b385" stroke-linecap="round" stroke-width="2.6" x1="139.42" x2="138.33999999999997" y1="423" y2="436" /><line stroke="#e4b385" stroke-linecap="round" stroke-width="2.6" x1="135.12" x2="132.24" y1="423" y2="436" /><circle cx="142" cy="414" fill="#4d5c6f" r="12.0" stroke="#2f2925" stroke-width="2" /><polyline fill="none" points="337,232 357,314 370,414" stroke="#1f2e41" stroke-linecap="round" stroke-linejoin="round" stroke-width="30" /><polyline fill="none" points="337,232 357,314 370,414" stroke="#415063" stroke-linecap="round" stroke-linejoin="round" stroke-width="22" /><ellipse cx="370" cy="414" fill="#f0bf91" rx="12" ry="15" stroke="#2f2925" stroke-linecap="round" stroke-linejoin="round" stroke-width="2" /><line stroke="#e4b385" stroke-linecap="round" stroke-width="2.6" x1="363.98" x2="361.46000000000004" y1="423" y2="436" /><line stroke="#e4b385" stroke-linecap="round" stroke-width="2.6" x1="368.28" x2="367.55999999999995" y1="423" y2="436" /><line stroke="#e4b385" stroke-linecap="round" stroke-width="2.6" x1="372.58" x2="373.65999999999997" y1="423" y2="436" /><line stroke="#e4b385" stroke-linecap="round" stroke-width="2.6" x1="376.88" x2="379.76" y1="423" y2="436" /><circle cx="370" cy="414" fill="#4d5c6f" r="12.0" stroke="#2f2925" stroke-width="2" /></svg>