<?xml version="1.0" encoding="utf-8" ?>
<svg baseProfile="full" height="682" version="1.1" viewBox="0 0 512 682" width="512" xmlns="http://www.w3.org/2000/svg" xmlns:ev="http://www.w3.org/2001/xml-events" xmlns:xlink="http://www.w3.org/1999/xlink"><defs /><polyline fill="none" points="175,238 125,296 84,350" stroke="#854221" stroke-linecap="round" stroke-linejoin="round" stroke-width="27" /><polyline fill="none" points="175,238 125,296 84,350" stroke="#a76443" stroke-linecap="round" stroke-linejoin="round" stroke-width="19" /><ellipse cx="84" cy="350" fill="#a76443" rx="12" ry="15" stroke="#2f2925" stroke-linecap="round" stroke-linejoin="round" stroke-width="2" /><line stroke="#9b5837" stroke-linecap="round" stroke-width="2.6" x1="90.02" x2="92.53999999999999" y1="359" y2="372" /><line stroke="#9b5837" stroke-linecap="round" stroke-width="2.6" x1="85.72" x2="86.44" y1="359" y2="372" /><line stroke="#9b5837" stroke-linecap="round" stroke-width="2.6" x1="81.42" x2="80.34" y1="359" y2="372" /><line stroke="#9b5837" stroke-linecap="round" stroke-width="2.6" x1="77.12" x2="74.24000000000001" y1="359" y2="372" /><polyline fill="none" points="337,238 387,296 428,350" stroke="#854221" stroke-linecap="round" stroke-linejoin="round" stroke-width="27" /><polyline fill="none" points="337,238 387,296 428,350" stroke="#a76443" stroke-linecap="round" stroke-linejoin="round" stroke-width="19" /><ellipse cx="428" cy="350" fill="#a76443" rx="12" ry="15" stroke="#2f2925" stroke-linecap="round" stroke-linejoin="round" stroke-width="2" /><line stroke="#9b5837" stroke-linecap="round" stroke-width="2.6" x1="421.98" x2="419.46000000000004" y1="359" y2="372" /><line stroke="#9b5837" stroke-linecap="round" stroke-width="2.6" x1="426.28" x2="425.55999999999995" y1="359" y2="372" /><line stroke="#9b5837" stroke-linecap="round" stroke-width="2.6" x1="430.58" x2="431.65999999999997" y1="359" y2="372" /><line stroke="#9b5837" stroke-linecap="round" stroke-width="2.6" x1="434.88" x2="437.76" y1="359" y2="372" /></svg>