<?xml version="1.0" encoding="utf-8" ?>
<svg baseProfile="full" height="682" version="1.1" viewBox="0 0 512 682" width="512" xmlns="http://www.w3.org/2000/svg" xmlns:ev="http://www.w3.org/2001/xml-events" xmlns:xlink="http://www.w3.org/1999/xlink"><defs /><polyline fill="none" points="174,240 130,302" stroke="#693f1c" stroke-linecap="round" stroke-linejoin="round" stroke-width="35" /><polyline fill="none" points="174,240 130,302" stroke="#8b613e" stroke-linecap="round" stroke-linejoin="round" stroke-width="27" /><polyline fill="none" points="130,302 162,374" stroke="#d4bda2" stroke-linecap="round" stroke-linejoin="round" stroke-width="25" /><polyline fill="none" points="130,302 162,374" stroke="#f6dfc4" stroke-linecap="round" stroke-linejoin="round" stroke-width="17" /><circle cx="130" cy="302" fill="#9d7350" r="15.5" stroke="#2f2925" stroke-width="2" /><ellipse cx="162" cy="374" fill="#f6dfc4" rx="12" ry="15" stroke="#2f2925" stroke-linecap="round" stroke-linejoin="round" stroke-width="2" /><line stroke="#ead3b8" stroke-linecap="round" stroke-width="2.6" x1="168.02" x2="170.54000000000002" y1="383" y2="396" /><line stroke="#ead3b8" stroke-linecap="round" stroke-width="2.6" x1="163.72" x2="164.44" y1="383" y2="396" /><line stroke="#ead3b8" stroke-linecap="round" stroke-width="2.6" x1="159.42" x2="158.33999999999997" y1="383" y2="396" /><line stroke="#ead3b8" stroke-linecap="round" stroke-width="2.6" x1="155.12" x2="152.24" y1="383" y2="396" /><circle cx="162" cy="374" fill="#976d4a" r="14.5" stroke="#2f2925" stroke-width="2" /><polyline fill="none" points="338,240 382,302" stroke="#693f1c" stroke-linecap="round" stroke-linejoin="round" stroke-width="35" /><polyline fill="none" points="338,240 382,302" stroke="#8b613e" stroke-linecap="round" stroke-linejoin="round" stroke-width="27" /><polyline fill="none" points="382,302 350,374" stroke="#d4bda2" stroke-linecap="round" stroke-linejoin="round" stroke-width="25" /><polyline fill="none" points="382,302 350,374" stroke="#f6dfc4" stroke-linecap="round" stroke-linejoin="round" stroke-width="17" /><circle cx="382" cy="302" fill="#9d7350" r="15.5" stroke="#2f2925" stroke-width="2" /><ellipse cx="350" cy="374" fill="#f6dfc4" rx="12" ry="15" stroke="#2f2925" stroke-linecap="round" stroke-linejoin="round" stroke-width="2" /><line stroke="#ead3b8" stroke-linecap="round" stroke-width="2.6" x1="343.98" x2="341.46000000000004" y1="383" y2="396" /><line stroke="#ead3b8" stroke-linecap="round" stroke-width="2.6" x1="348.28" x2="347.55999999999995" y1="383" y2="396" /><line stroke="#ead3b8" stroke-linecap="round" stroke-width="2.6" x1="352.58" x2="353.65999999999997" y1="383" y2="396" /><line stroke="#ead3b8" stroke-linecap="round" stroke-width="2.6" x1="356.88" x2="359.76" y1="383" y2="396" /><circle cx="350" cy="374" fill="#976d4a" r="14.5" stroke="#2f2925" stroke-width="2" /></svg>