<?xml version="1.0" encoding="utf-8" ?>
<svg baseProfile="full" height="682" version="1.1" viewBox="0 0 512 682" width="512" xmlns="http://www.w3.org/2000/svg" xmlns:ev="http://www.w3.org/2001/xml-events" xmlns:xlink="http://www.w3.org/1999/xlink"><defs /><polyline fill="none" points="151,240 126,295 110,356" stroke="#bd7541" stroke-linecap="round" stroke-linejoin="round" stroke-width="27" /><polyline fill="none" points="151,240 126,295 110,356" stroke="#d9915d" stroke-linecap="round" stroke-linejoin="round" stroke-width="20" /><ellipse cx="110" cy="356" fill="#d9915d" rx="13" ry="15" stroke="#2f2925" stroke-linecap="round" stroke-linejoin="round" stroke-width="2" /><line stroke="#cf8753" stroke-linecap="round" stroke-width="3" x1="102.5" x2="99.5" y1="366" y2="379" /><line stroke="#cf8753" stroke-linecap="round" stroke-width="3" x1="107.5" x2="106.5" y1="366" y2="379" /><line stroke="#cf8753" stroke-linecap="round" stroke-width="3" x1="112.5" x2="113.5" y1="366" y2="379" /><line stroke="#cf8753" stroke-linecap="round" stroke-width="3" x1="117.5" x2="120.5" y1="366" y2="379" /><polyline fill="none" points="361,240 386,295 402,356" stroke="#bd7541" stroke-linecap="round" stroke-linejoin="round" stroke-width="27" /><polyline fill="none" points="361,240 386,295 402,356" stroke="#d9915d" stroke-linecap="round" stroke-linejoin="round" stroke-width="20" /><ellipse cx="402" cy="356" fill="#d9915d" rx="13" ry="15" stroke="#2f2925" stroke-linecap="round" stroke-linejoin="round" stroke-width="2" /><line stroke="#cf8753" stroke-linecap="round" stroke-width="3" x1="394.5" x2="391.5" y1="366" y2="379" /><line stroke="#cf8753" stroke-linecap="round" stroke-width="3" x1="399.5" x2="398.5" y1="366" y2="379" /><line stroke="#cf8753" stroke-linecap="round" stroke-width="3" x1="404.5" x2="405.5" y1="366" y2="379" /><line stroke="#cf8753" stroke-linecap="round" stroke-width="3" x1="409.5" x2="412.5" y1="366" y2="379" /></svg>