<?xml version="1.0" encoding="utf-8" ?>
<svg baseProfile="full" height="682" version="1.1" viewBox="0 0 512 682" width="512" xmlns="http://www.w3.org/2000/svg" xmlns:ev="http://www.w3.org/2001/xml-events" xmlns:xlink="http://www.w3.org/1999/xlink"><defs /><polyline fill="none" points="174,236 210,308 252,370" stroke="#cdc3ae" stroke-linecap="round" stroke-linejoin="round" stroke-width="38" /><polyline fill="none" points="174,236 210,308 252,370" stroke="#efe5d0" stroke-linecap="round" stroke-linejoin="round" stroke-width="30" /><ellipse cx="252" cy="370" fill="#c5794f" rx="12" ry="15" stroke="#2f2925" stroke-linecap="round" stroke-linejoin="round" stroke-width="2" /><line stroke="#b96d43" stroke-linecap="round" stroke-width="2.6" x1="258.02" x2="260.53999999999996" y1="379" y2="392" /><line stroke="#b96d43" stroke-linecap="round" stroke-width="2.6" x1="253.72" x2="254.44" y1="379" y2="392" /><line stroke="#b96d43" stroke-linecap="round" stroke-width="2.6" x1="249.42" x2="248.33999999999997" y1="379" y2="392" /><line stroke="#b96d43" stroke-linecap="round" stroke-width="2.6" x1="245.12" x2="242.24" y1="379" y2="392" /><circle cx="252" cy="370" fill="#fbf1dc" r="12.0" stroke="#2f2925" stroke-width="2" /><polyline fill="none" points="338,236 302,308 260,370" stroke="#cdc3ae" stroke-linecap="round" stroke-linejoin="round" stroke-width="38" /><polyline fill="none" points="338,236 302,308 260,370" stroke="#efe5d0" stroke-linecap="round" stroke-linejoin="round" stroke-width="30" /><ellipse cx="260" cy="370" fill="#c5794f" rx="12" ry="15" stroke="#2f2925" stroke-linecap="round" stroke-linejoin="round" stroke-width="2" /><line stroke="#b96d43" stroke-linecap="round" stroke-width="2.6" x1="253.98" x2="251.45999999999998" y1="379" y2="392" /><line stroke="#b96d43" stroke-linecap="round" stroke-width="2.6" x1="258.28" x2="257.55999999999995" y1="379" y2="392" /><line stroke="#b96d43" stroke-linecap="round" stroke-width="2.6" x1="262.58" x2="263.65999999999997" y1="379" y2="392" /><line stroke="#b96d43" stroke-linecap="round" stroke-width="2.6" x1="266.88" x2="269.76" y1="379" y2="392" /><circle cx="260" cy="370" fill="#fbf1dc" r="12.0" stroke="#2f2925" stroke-width="2" /></svg>