<?xml version="1.0" encoding="utf-8" ?>
<svg baseProfile="full" height="682" version="1.1" viewBox="0 0 512 682" width="512" xmlns="http://www.w3.org/2000/svg" xmlns:ev="http://www.w3.org/2001/xml-events" xmlns:xlink="http://www.w3.org/1999/xlink"><defs /><polyline fill="none" points="151,242 123,314 101,372" stroke="#733c1f" stroke-linecap="round" stroke-linejoin="round" stroke-width="27" /><polyline fill="none" points="151,242 123,314 101,372" stroke="#8f583b" stroke-linecap="round" stroke-linejoin="round" stroke-width="20" /><ellipse cx="101" cy="372" fill="#8f583b" rx="13" ry="15" stroke="#2f2925" stroke-linecap="round" stroke-linejoin="round" stroke-width="2" /><line stroke="#854e31" stroke-linecap="round" stroke-width="3" x1="93.5" x2="90.5" y1="382" y2="395" /><line stroke="#854e31" stroke-linecap="round" stroke-width="3" x1="98.5" x2="97.5" y1="382" y2="395" /><line stroke="#854e31" stroke-linecap="round" stroke-width="3" x1="103.5" x2="104.5" y1="382" y2="395" /><line stroke="#854e31" stroke-linecap="round" stroke-width="3" x1="108.5" x2="111.5" y1="382" y2="395" /><polyline fill="none" points="361,242 389,314 411,372" stroke="#733c1f" stroke-linecap="round" stroke-linejoin="round" stroke-width="27" /><polyline fill="none" points="361,242 389,314 411,372" stroke="#8f583b" stroke-linecap="round" stroke-linejoin="round" stroke-width="20" /><ellipse cx="411" cy="372" fill="#8f583b" rx="13" ry="15" stroke="#2f2925" stroke-linecap="round" stroke-linejoin="round" stroke-width="2" /><line stroke="#854e31" stroke-linecap="round" stroke-width="3" x1="403.5" x2="400.5" y1="382" y2="395" /><line stroke="#854e31" stroke-linecap="round" stroke-width="3" x1="408.5" x2="407.5" y1="382" y2="395" /><line stroke="#854e31" stroke-linecap="round" stroke-width="3" x1="413.5" x2="414.5" y1="382" y2="395" /><line stroke="#854e31" stroke-linecap="round" stroke-width="3" x1="418.5" x2="421.5" y1="382" y2="395" /><line stroke="#8f583b" stroke-linecap="round" stroke-width="5" x1="403" x2="391" y1="362" y2="330" /><line stroke="#8f583b" stroke-linecap="round" stroke-width="5" x1="413" x2="412" y1="360" y2="326" /></svg>