<?xml version="1.0" encoding="utf-8" ?>
<svg baseProfile="full" height="682" version="1.1" viewBox="0 0 512 682" width="512" xmlns="http://www.w3.org/2000/svg" xmlns:ev="http://www.w3.org/2001/xml-events" xmlns:xlink="http://www.w3.org/1999/xlink"><defs /><polyline fill="none" points="175,238 145,314" stroke="#041724" stroke-linecap="round" stroke-linejoin="round" stroke-width="41" /><polyline fill="none" points="175,238 145,314" stroke="#263946" stroke-linecap="round" stroke-linejoin="round" stroke-width="33" /><polyline fill="none" points="145,314 132,410" stroke="#b76a37" stroke-linecap="round" stroke-linejoin="round" stroke-width="31" /><polyline fill="none" points="145,314 132,410" stroke="#d98c59" stroke-linecap="round" stroke-linejoin="round" stroke-width="23" /><circle cx="145" cy="314" fill="#384b58" r="18.5" stroke="#2f2925" stroke-width="2" /><ellipse cx="132" cy="410" fill="#d98c59" rx="13.799999999999999" ry="17.25" stroke="#2f2925" stroke-linecap="round" stroke-linejoin="round" stroke-width="2" /><line stroke="#cd804d" stroke-linecap="round" stroke-width="2.9899999999999998" x1="138.923" x2="141.443" y1="420.35" y2="435.3" /><line stroke="#cd804d" stroke-linecap="round" stroke-width="2.9899999999999998" x1="133.978" x2="134.698" y1="420.35" y2="435.3" /><line stroke="#cd804d" stroke-linecap="round" stroke-width="2.9899999999999998" x1="129.033" x2="127.95299999999999" y1="420.35" y2="435.3" /><line stroke="#cd804d" stroke-linecap="round" stroke-width="2.9899999999999998" x1="124.088" x2="121.208" y1="420.35" y2="435.3" /><circle cx="132" cy="410" fill="#324552" r="17.5" stroke="#2f2925" stroke-width="2" /><polyline fill="none" points="337,239 393,298" stroke="#041724" stroke-linecap="round" stroke-linejoin="round" stroke-width="41" /><polyline fill="none" points="337,239 393,298" stroke="#263946" stroke-linecap="round" stroke-linejoin="round" stroke-width="33" /><polyline fill="none" points="393,298 456,304" stroke="#b76a37" stroke-linecap="round" stroke-linejoin="round" stroke-width="31" /><polyline fill="none" points="393,298 456,304" stroke="#d98c59" stroke-linecap="round" stroke-linejoin="round" stroke-width="23" /><circle cx="393" cy="298" fill="#384b58" r="18.5" stroke="#2f2925" stroke-width="2" /><line stroke="#d98c59" stroke-linecap="round" stroke-width="6" x1="453" x2="498" y1="302" y2="302" /><line stroke="#2f2925" stroke-linecap="round" stroke-width="2" x1="453" x2="498" y1="302" y2="302" /><circle cx="456" cy="304" fill="#324552" r="17.5" stroke="#2f2925" stroke-width="2" /></svg>