<?xml version="1.0" encoding="utf-8" ?>
<svg baseProfile="full" height="682" version="1.1" viewBox="0 0 512 682" width="512" xmlns="http://www.w3.org/2000/svg" xmlns:ev="http://www.w3.org/2001/xml-events" xmlns:xlink="http://www.w3.org/1999/xlink"><defs /><polyline fill="none" points="174,238 126,288 93,326" stroke="#b76e20" stroke-linecap="round" stroke-linejoin="round" stroke-width="49" /><polyline fill="none" points="174,238 126,288 93,326" stroke="#d99042" stroke-linecap="round" stroke-linejoin="round" stroke-width="41" /><ellipse cx="93" cy="326" fill="#f6dfc4" rx="13.799999999999999" ry="17.25" stroke="#2f2925" stroke-linecap="round" stroke-linejoin="round" stroke-width="2" /><line stroke="#ead3b8" stroke-linecap="round" stroke-width="2.9899999999999998" x1="99.923" x2="102.443" y1="336.35" y2="351.3" /><line stroke="#ead3b8" stroke-linecap="round" stroke-width="2.9899999999999998" x1="94.978" x2="95.698" y1="336.35" y2="351.3" /><line stroke="#ead3b8" stroke-linecap="round" stroke-width="2.9899999999999998" x1="90.033" x2="88.953" y1="336.35" y2="351.3" /><line stroke="#ead3b8" stroke-linecap="round" stroke-width="2.9899999999999998" x1="85.088" x2="82.208" y1="336.35" y2="351.3" /><circle cx="93" cy="326" fill="#e59c4e" r="17.5" stroke="#2f2925" stroke-width="2" /><polyline fill="none" points="338,238 386,288 419,326" stroke="#b76e20" stroke-linecap="round" stroke-linejoin="round" stroke-width="49" /><polyline fill="none" points="338,238 386,288 419,326" stroke="#d99042" stroke-linecap="round" stroke-linejoin="round" stroke-width="41" /><ellipse cx="419" cy="326" fill="#f6dfc4" rx="13.799999999999999" ry="17.25" stroke="#2f2925" stroke-linecap="round" stroke-linejoin="round" stroke-width="2" /><line stroke="#ead3b8" stroke-linecap="round" stroke-width="2.9899999999999998" x1="412.077" x2="409.557" y1="336.35" y2="351.3" /><line stroke="#ead3b8" stroke-linecap="round" stroke-width="2.9899999999999998" x1="417.022" x2="416.30199999999996" y1="336.35" y2="351.3" /><line stroke="#ead3b8" stroke-linecap="round" stroke-width="2.9899999999999998" x1="421.967" x2="423.04699999999997" y1="336.35" y2="351.3" /><line stroke="#ead3b8" stroke-linecap="round" stroke-width="2.9899999999999998" x1="426.912" x2="429.792" y1="336.35" y2="351.3" /><circle cx="419" cy="326" fill="#e59c4e" r="17.5" stroke="#2f2925" stroke-width="2" /></svg>