<?xml version="1.0" encoding="utf-8" ?>
<svg baseProfile="full" height="682" version="1.1" viewBox="0 0 512 682" width="512" xmlns="http://www.w3.org/2000/svg" xmlns:ev="http://www.w3.org/2001/xml-events" xmlns:xlink="http://www.w3.org/1999/xlink"><defs /><polyline fill="none" points="174,240 219,304 275,358" stroke="#5c656e" stroke-linecap="round" stroke-linejoin="round" stroke-width="30" /><polyline fill="none" points="174,240 219,304 275,358" stroke="#7e8790" stroke-linecap="round" stroke-linejoin="round" stroke-width="22" /><ellipse cx="275" cy="358" fill="#f4d0ab" rx="12" ry="15" stroke="#2f2925" stroke-linecap="round" stroke-linejoin="round" stroke-width="2" /><line stroke="#e8c49f" stroke-linecap="round" stroke-width="2.6" x1="281.02" x2="283.53999999999996" y1="367" y2="380" /><line stroke="#e8c49f" stroke-linecap="round" stroke-width="2.6" x1="276.72" x2="277.44000000000005" y1="367" y2="380" /><line stroke="#e8c49f" stroke-linecap="round" stroke-width="2.6" x1="272.42" x2="271.34000000000003" y1="367" y2="380" /><line stroke="#e8c49f" stroke-linecap="round" stroke-width="2.6" x1="268.12" x2="265.24" y1="367" y2="380" /><circle cx="275" cy="358" fill="#8a939c" r="12.0" stroke="#2f2925" stroke-width="2" /><polyline fill="none" points="338,240 300,318 240,376" stroke="#5c656e" stroke-linecap="round" stroke-linejoin="round" stroke-width="30" /><polyline fill="none" points="338,240 300,318 240,376" stroke="#7e8790" stroke-linecap="round" stroke-linejoin="round" stroke-width="22" /><ellipse cx="240" cy="376" fill="#f4d0ab" rx="12" ry="15" stroke="#2f2925" stroke-linecap="round" stroke-linejoin="round" stroke-width="2" /><line stroke="#e8c49f" stroke-linecap="round" stroke-width="2.6" x1="233.98" x2="231.45999999999998" y1="385" y2="398" /><line stroke="#e8c49f" stroke-linecap="round" stroke-width="2.6" x1="238.28" x2="237.56" y1="385" y2="398" /><line stroke="#e8c49f" stroke-linecap="round" stroke-width="2.6" x1="242.58" x2="243.66000000000003" y1="385" y2="398" /><line stroke="#e8c49f" stroke-linecap="round" stroke-width="2.6" x1="246.88" x2="249.76" y1="385" y2="398" /><circle cx="240" cy="376" fill="#8a939c" r="12.0" stroke="#2f2925" stroke-width="2" /></svg>