<?xml version="1.0" encoding="utf-8" ?>
<svg baseProfile="full" height="682" version="1.1" viewBox="0 0 512 682" width="512" xmlns="http://www.w3.org/2000/svg" xmlns:ev="http://www.w3.org/2001/xml-events" xmlns:xlink="http://www.w3.org/1999/xlink"><defs /><polyline fill="none" points="151,240 112,302 88,332" stroke="#733c1f" stroke-linecap="round" stroke-linejoin="round" stroke-width="27" /><polyline fill="none" points="151,240 112,302 88,332" stroke="#8f583b" stroke-linecap="round" stroke-linejoin="round" stroke-width="20" /><ellipse cx="88" cy="332" fill="#8f583b" rx="13" ry="15" stroke="#2f2925" stroke-linecap="round" stroke-linejoin="round" stroke-width="2" /><line stroke="#854e31" stroke-linecap="round" stroke-width="3" x1="80.5" x2="77.5" y1="342" y2="355" /><line stroke="#854e31" stroke-linecap="round" stroke-width="3" x1="85.5" x2="84.5" y1="342" y2="355" /><line stroke="#854e31" stroke-linecap="round" stroke-width="3" x1="90.5" x2="91.5" y1="342" y2="355" /><line stroke="#854e31" stroke-linecap="round" stroke-width="3" x1="95.5" x2="98.5" y1="342" y2="355" /><polyline fill="none" points="361,240 400,302 424,332" stroke="#733c1f" stroke-linecap="round" stroke-linejoin="round" stroke-width="27" /><polyline fill="none" points="361,240 400,302 424,332" stroke="#8f583b" stroke-linecap="round" stroke-linejoin="round" stroke-width="20" /><ellipse cx="424" cy="332" fill="#8f583b" rx="13" ry="15" stroke="#2f2925" stroke-linecap="round" stroke-linejoin="round" stroke-width="2" /><line stroke="#854e31" stroke-linecap="round" stroke-width="3" x1="416.5" x2="413.5" y1="342" y2="355" /><line stroke="#854e31" stroke-linecap="round" stroke-width="3" x1="421.5" x2="420.5" y1="342" y2="355" /><line stroke="#854e31" stroke-linecap="round" stroke-width="3" x1="426.5" x2="427.5" y1="342" y2="355" /><line stroke="#854e31" stroke-linecap="round" stroke-width="3" x1="431.5" x2="434.5" y1="342" y2="355" /></svg>