<?xml version="1.0" encoding="utf-8" ?>
<svg baseProfile="full" height="682" version="1.1" viewBox="0 0 512 682" width="512" xmlns="http://www.w3.org/2000/svg" xmlns:ev="http://www.w3.org/2001/xml-events" xmlns:xlink="http://www.w3.org/1999/xlink"><defs /><polyline fill="none" points="174,240 222,298" stroke="#9c3a18" stroke-linecap="round" stroke-linejoin="round" stroke-width="35" /><polyline fill="none" points="174,240 222,298" stroke="#be5c3a" stroke-linecap="round" stroke-linejoin="round" stroke-width="27" /><polyline fill="none" points="222,298 311,324" stroke="#5b3018" stroke-linecap="round" stroke-linejoin="round" stroke-width="25" /><polyline fill="none" points="222,298 311,324" stroke="#7d523a" stroke-linecap="round" stroke-linejoin="round" stroke-width="17" /><circle cx="222" cy="298" fill="#d06e4c" r="15.5" stroke="#2f2925" stroke-width="2" /><ellipse cx="311" cy="324" fill="#7d523a" rx="12" ry="15" stroke="#2f2925" stroke-linecap="round" stroke-linejoin="round" stroke-width="2" /><line stroke="#71462e" stroke-linecap="round" stroke-width="2.6" x1="317.02" x2="319.53999999999996" y1="333" y2="346" /><line stroke="#71462e" stroke-linecap="round" stroke-width="2.6" x1="312.72" x2="313.44000000000005" y1="333" y2="346" /><line stroke="#71462e" stroke-linecap="round" stroke-width="2.6" x1="308.42" x2="307.34000000000003" y1="333" y2="346" /><line stroke="#71462e" stroke-linecap="round" stroke-width="2.6" x1="304.12" x2="301.24" y1="333" y2="346" /><circle cx="311" cy="324" fill="#ca6846" r="14.5" stroke="#2f2925" stroke-width="2" /><polyline fill="none" points="338,240 290,300" stroke="#9c3a18" stroke-linecap="round" stroke-linejoin="round" stroke-width="35" /><polyline fill="none" points="338,240 290,300" stroke="#be5c3a" stroke-linecap="round" stroke-linejoin="round" stroke-width="27" /><polyline fill="none" points="290,300 203,330" stroke="#5b3018" stroke-linecap="round" stroke-linejoin="round" stroke-width="25" /><polyline fill="none" points="290,300 203,330" stroke="#7d523a" stroke-linecap="round" stroke-linejoin="round" stroke-width="17" /><circle cx="290" cy="300" fill="#d06e4c" r="15.5" stroke="#2f2925" stroke-width="2" /><ellipse cx="203" cy="330" fill="#7d523a" rx="12" ry="15" stroke="#2f2925" stroke-linecap="round" stroke-linejoin="round" stroke-width="2" /><line stroke="#71462e" stroke-linecap="round" stroke-width="2.6" x1="196.98" x2="194.45999999999998" y1="339" y2="352" /><line stroke="#71462e" stroke-linecap="round" stroke-width="2.6" x1="201.28" x2="200.56" y1="339" y2="352" /><line stroke="#71462e" stroke-linecap="round" stroke-width="2.6" x1="205.58" x2="206.66000000000003" y1="339" y2="352" /><line stroke="#71462e" stroke-linecap="round" stroke-width="2.6" x1="209.88" x2="212.76" y1="339" y2="352" /><circle cx="203" cy="330" fill="#ca6846" r="14.5" stroke="#2f2925" stroke-width="2" /></svg>