<?xml version="1.0" encoding="utf-8" ?>
<svg baseProfile="full" height="682" version="1.1" viewBox="0 0 512 682" width="512" xmlns="http://www.w3.org/2000/svg" xmlns:ev="http://www.w3.org/2001/xml-events" xmlns:xlink="http://www.w3.org/1999/xlink"><defs /><polyline fill="none" points="151,240 133,330 137,430" stroke="#bd7541" stroke-linecap="round" stroke-linejoin="round" stroke-width="27" /><polyline fill="none" points="151,240 133,330 137,430" stroke="#d9915d" stroke-linecap="round" stroke-linejoin="round" stroke-width="20" /><ellipse cx="137" cy="430" fill="#d9915d" rx="13" ry="15" stroke="#2f2925" stroke-linecap="round" stroke-linejoin="round" stroke-width="2" /><line stroke="#cf8753" stroke-linecap="round" stroke-width="3" x1="129.5" x2="126.5" y1="440" y2="453" /><line stroke="#cf8753" stroke-linecap="round" stroke-width="3" x1="134.5" x2="133.5" y1="440" y2="453" /><line stroke="#cf8753" stroke-linecap="round" stroke-width="3" x1="139.5" x2="140.5" y1="440" y2="453" /><line stroke="#cf8753" stroke-linecap="round" stroke-width="3" x1="144.5" x2="147.5" y1="440" y2="453" /><polyline fill="none" points="361,240 379,330 375,430" stroke="#bd7541" stroke-linecap="round" stroke-linejoin="round" stroke-width="27" /><polyline fill="none" points="361,240 379,330 375,430" stroke="#d9915d" stroke-linecap="round" stroke-linejoin="round" stroke-width="20" /><ellipse cx="375" cy="430" fill="#d9915d" rx="13" ry="15" stroke="#2f2925" stroke-linecap="round" stroke-linejoin="round" stroke-width="2" /><line stroke="#cf8753" stroke-linecap="round" stroke-width="3" x1="367.5" x2="364.5" y1="440" y2="453" /><line stroke="#cf8753" stroke-linecap="round" stroke-width="3" x1="372.5" x2="371.5" y1="440" y2="453" /><line stroke="#cf8753" stroke-linecap="round" stroke-width="3" x1="377.5" x2="378.5" y1="440" y2="453" /><line stroke="#cf8753" stroke-linecap="round" stroke-width="3" x1="382.5" x2="385.5" y1="440" y2="453" /></svg>