<?xml version="1.0" encoding="utf-8" ?>
<svg baseProfile="full" height="682" version="1.1" viewBox="0 0 512 682" width="512" xmlns="http://www.w3.org/2000/svg" xmlns:ev="http://www.w3.org/2001/xml-events" xmlns:xlink="http://www.w3.org/1999/xlink"><defs /><polyline fill="none" points="171,244 214,312 300,350" stroke="#0d1218" stroke-linecap="round" stroke-linejoin="round" stroke-width="35" /><polyline fill="none" points="171,244 214,312 300,350" stroke="#2f343a" stroke-linecap="round" stroke-linejoin="round" stroke-width="27" /><ellipse cx="300" cy="350" fill="#a76443" rx="12" ry="15" stroke="#2f2925" stroke-linecap="round" stroke-linejoin="round" stroke-width="2" /><line stroke="#9b5837" stroke-linecap="round" stroke-width="2.6" x1="306.02" x2="308.53999999999996" y1="359" y2="372" /><line stroke="#9b5837" stroke-linecap="round" stroke-width="2.6" x1="301.72" x2="302.44000000000005" y1="359" y2="372" /><line stroke="#9b5837" stroke-linecap="round" stroke-width="2.6" x1="297.42" x2="296.34000000000003" y1="359" y2="372" /><line stroke="#9b5837" stroke-linecap="round" stroke-width="2.6" x1="293.12" x2="290.24" y1="359" y2="372" /><circle cx="300" cy="350" fill="#3b4046" r="14.5" stroke="#2f2925" stroke-width="2" /><polyline fill="none" points="341,244 300,312 210,350" stroke="#0d1218" stroke-linecap="round" stroke-linejoin="round" stroke-width="35" /><polyline fill="none" points="341,244 300,312 210,350" stroke="#2f343a" stroke-linecap="round" stroke-linejoin="round" stroke-width="27" /><ellipse cx="210" cy="350" fill="#a76443" rx="12" ry="15" stroke="#2f2925" stroke-linecap="round" stroke-linejoin="round" stroke-width="2" /><line stroke="#9b5837" stroke-linecap="round" stroke-width="2.6" x1="203.98" x2="201.45999999999998" y1="359" y2="372" /><line stroke="#9b5837" stroke-linecap="round" stroke-width="2.6" x1="208.28" x2="207.56" y1="359" y2="372" /><line stroke="#9b5837" stroke-linecap="round" stroke-width="2.6" x1="212.58" x2="213.66000000000003" y1="359" y2="372" /><line stroke="#9b5837" stroke-linecap="round" stroke-width="2.6" x1="216.88" x2="219.76" y1="359" y2="372" /><circle cx="210" cy="350" fill="#3b4046" r="14.5" stroke="#2f2925" stroke-width="2" /></svg>