<?xml version="1.0" encoding="utf-8" ?>
<svg baseProfile="full" height="682" version="1.1" viewBox="0 0 512 682" width="512" xmlns="http://www.w3.org/2000/svg" xmlns:ev="http://www.w3.org/2001/xml-events" xmlns:xlink="http://www.w3.org/1999/xlink"><defs /><polyline fill="none" points="176,236 170,314 205,400" stroke="#0b3d50" stroke-linecap="round" stroke-linejoin="round" stroke-width="35" /><polyline fill="none" points="176,236 170,314 205,400" stroke="#2d5f72" stroke-linecap="round" stroke-linejoin="round" stroke-width="27" /><ellipse cx="205" cy="400" fill="#d98c59" rx="12" ry="15" stroke="#2f2925" stroke-linecap="round" stroke-linejoin="round" stroke-width="2" /><line stroke="#cd804d" stroke-linecap="round" stroke-width="2.6" x1="211.02" x2="213.54000000000002" y1="409" y2="422" /><line stroke="#cd804d" stroke-linecap="round" stroke-width="2.6" x1="206.72" x2="207.44" y1="409" y2="422" /><line stroke="#cd804d" stroke-linecap="round" stroke-width="2.6" x1="202.42" x2="201.33999999999997" y1="409" y2="422" /><line stroke="#cd804d" stroke-linecap="round" stroke-width="2.6" x1="198.12" x2="195.24" y1="409" y2="422" /><circle cx="205" cy="400" fill="#396b7e" r="14.5" stroke="#2f2925" stroke-width="2" /><polyline fill="none" points="336,236 342,314 307,400" stroke="#0b3d50" stroke-linecap="round" stroke-linejoin="round" stroke-width="35" /><polyline fill="none" points="336,236 342,314 307,400" stroke="#2d5f72" stroke-linecap="round" stroke-linejoin="round" stroke-width="27" /><ellipse cx="307" cy="400" fill="#d98c59" rx="12" ry="15" stroke="#2f2925" stroke-linecap="round" stroke-linejoin="round" stroke-width="2" /><line stroke="#cd804d" stroke-linecap="round" stroke-width="2.6" x1="300.98" x2="298.46000000000004" y1="409" y2="422" /><line stroke="#cd804d" stroke-linecap="round" stroke-width="2.6" x1="305.28" x2="304.55999999999995" y1="409" y2="422" /><line stroke="#cd804d" stroke-linecap="round" stroke-width="2.6" x1="309.58" x2="310.65999999999997" y1="409" y2="422" /><line stroke="#cd804d" stroke-linecap="round" stroke-width="2.6" x1="313.88" x2="316.76" y1="409" y2="422" /><circle cx="307" cy="400" fill="#396b7e" r="14.5" stroke="#2f2925" stroke-width="2" /></svg>