<?xml version="1.0" encoding="utf-8" ?>
<svg baseProfile="full" height="682" version="1.1" viewBox="0 0 512 682" width="512" xmlns="http://www.w3.org/2000/svg" xmlns:ev="http://www.w3.org/2001/xml-events" xmlns:xlink="http://www.w3.org/1999/xlink"><defs /><polyline fill="none" points="176,236 170,314 205,400" stroke="#000208" stroke-linecap="round" stroke-linejoin="round" stroke-width="49" /><polyline fill="none" points="176,236 170,314 205,400" stroke="#20242a" stroke-linecap="round" stroke-linejoin="round" stroke-width="41" /><ellipse cx="205" cy="400" fill="#e7a66f" rx="13.799999999999999" ry="17.25" stroke="#2f2925" stroke-linecap="round" stroke-linejoin="round" stroke-width="2" /><line stroke="#db9a63" stroke-linecap="round" stroke-width="2.9899999999999998" x1="211.923" x2="214.443" y1="410.35" y2="425.3" /><line stroke="#db9a63" stroke-linecap="round" stroke-width="2.9899999999999998" x1="206.978" x2="207.698" y1="410.35" y2="425.3" /><line stroke="#db9a63" stroke-linecap="round" stroke-width="2.9899999999999998" x1="202.033" x2="200.95299999999997" y1="410.35" y2="425.3" /><line stroke="#db9a63" stroke-linecap="round" stroke-width="2.9899999999999998" x1="197.088" x2="194.208" y1="410.35" y2="425.3" /><circle cx="205" cy="400" fill="#2c3036" r="17.5" stroke="#2f2925" stroke-width="2" /><polyline fill="none" points="336,236 342,314 307,400" stroke="#000208" stroke-linecap="round" stroke-linejoin="round" stroke-width="49" /><polyline fill="none" points="336,236 342,314 307,400" stroke="#20242a" stroke-linecap="round" stroke-linejoin="round" stroke-width="41" /><ellipse cx="307" cy="400" fill="#e7a66f" rx="13.799999999999999" ry="17.25" stroke="#2f2925" stroke-linecap="round" stroke-linejoin="round" stroke-width="2" /><line stroke="#db9a63" stroke-linecap="round" stroke-width="2.9899999999999998" x1="300.077" x2="297.557" y1="410.35" y2="425.3" /><line stroke="#db9a63" stroke-linecap="round" stroke-width="2.9899999999999998" x1="305.022" x2="304.30199999999996" y1="410.35" y2="425.3" /><line stroke="#db9a63" stroke-linecap="round" stroke-width="2.9899999999999998" x1="309.967" x2="311.04699999999997" y1="410.35" y2="425.3" /><line stroke="#db9a63" stroke-linecap="round" stroke-width="2.9899999999999998" x1="314.912" x2="317.792" y1="410.35" y2="425.3" /><circle cx="307" cy="400" fill="#2c3036" r="17.5" stroke="#2f2925" stroke-width="2" /></svg>