<?xml version="1.0" encoding="utf-8" ?>
<svg baseProfile="full" height="682" version="1.1" viewBox="0 0 512 682" width="512" xmlns="http://www.w3.org/2000/svg" xmlns:ev="http://www.w3.org/2001/xml-events" xmlns:xlink="http://www.w3.org/1999/xlink"><defs /><polyline fill="none" points="151,252 200,323 235,343" stroke="#bd7541" stroke-linecap="round" stroke-linejoin="round" stroke-width="27" /><polyline fill="none" points="151,252 200,323 235,343" stroke="#d9915d" stroke-linecap="round" stroke-linejoin="round" stroke-width="20" /><ellipse cx="235" cy="343" fill="#d9915d" rx="13" ry="15" stroke="#2f2925" stroke-linecap="round" stroke-linejoin="round" stroke-width="2" /><line stroke="#cf8753" stroke-linecap="round" stroke-width="3" x1="227.5" x2="224.5" y1="353" y2="366" /><line stroke="#cf8753" stroke-linecap="round" stroke-width="3" x1="232.5" x2="231.5" y1="353" y2="366" /><line stroke="#cf8753" stroke-linecap="round" stroke-width="3" x1="237.5" x2="238.5" y1="353" y2="366" /><line stroke="#cf8753" stroke-linecap="round" stroke-width="3" x1="242.5" x2="245.5" y1="353" y2="366" /><polyline fill="none" points="361,252 312,323 277,343" stroke="#bd7541" stroke-linecap="round" stroke-linejoin="round" stroke-width="27" /><polyline fill="none" points="361,252 312,323 277,343" stroke="#d9915d" stroke-linecap="round" stroke-linejoin="round" stroke-width="20" /><ellipse cx="277" cy="343" fill="#d9915d" rx="13" ry="15" stroke="#2f2925" stroke-linecap="round" stroke-linejoin="round" stroke-width="2" /><line stroke="#cf8753" stroke-linecap="round" stroke-width="3" x1="269.5" x2="266.5" y1="353" y2="366" /><line stroke="#cf8753" stroke-linecap="round" stroke-width="3" x1="274.5" x2="273.5" y1="353" y2="366" /><line stroke="#cf8753" stroke-linecap="round" stroke-width="3" x1="279.5" x2="280.5" y1="353" y2="366" /><line stroke="#cf8753" stroke-linecap="round" stroke-width="3" x1="284.5" x2="287.5" y1="353" y2="366" /></svg>