<?xml version="1.0" encoding="utf-8" ?>
<svg baseProfile="full" height="682" version="1.1" viewBox="0 0 512 682" width="512" xmlns="http://www.w3.org/2000/svg" xmlns:ev="http://www.w3.org/2001/xml-events" xmlns:xlink="http://www.w3.org/1999/xlink"><defs /><polyline fill="none" points="175,232 155,314 142,414" stroke="#383a40" stroke-linecap="round" stroke-linejoin="round" stroke-width="41" /><polyline fill="none" points="175,232 155,314 142,414" stroke="#5a5c62" stroke-linecap="round" stroke-linejoin="round" stroke-width="33" /><ellipse cx="142" cy="414" fill="#7d523a" rx="13.799999999999999" ry="17.25" stroke="#2f2925" stroke-linecap="round" stroke-linejoin="round" stroke-width="2" /><line stroke="#71462e" stroke-linecap="round" stroke-width="2.9899999999999998" x1="148.923" x2="151.443" y1="424.35" y2="439.3" /><line stroke="#71462e" stroke-linecap="round" stroke-width="2.9899999999999998" x1="143.978" x2="144.698" y1="424.35" y2="439.3" /><line stroke="#71462e" stroke-linecap="round" stroke-width="2.9899999999999998" x1="139.033" x2="137.95299999999997" y1="424.35" y2="439.3" /><line stroke="#71462e" stroke-linecap="round" stroke-width="2.9899999999999998" x1="134.088" x2="131.208" y1="424.35" y2="439.3" /><circle cx="142" cy="414" fill="#66686e" r="17.5" stroke="#2f2925" stroke-width="2" /><polyline fill="none" points="337,232 357,314 370,414" stroke="#383a40" stroke-linecap="round" stroke-linejoin="round" stroke-width="41" /><polyline fill="none" points="337,232 357,314 370,414" stroke="#5a5c62" stroke-linecap="round" stroke-linejoin="round" stroke-width="33" /><ellipse cx="370" cy="414" fill="#7d523a" rx="13.799999999999999" ry="17.25" stroke="#2f2925" stroke-linecap="round" stroke-linejoin="round" stroke-width="2" /><line stroke="#71462e" stroke-linecap="round" stroke-width="2.9899999999999998" x1="363.077" x2="360.557" y1="424.35" y2="439.3" /><line stroke="#71462e" stroke-linecap="round" stroke-width="2.9899999999999998" x1="368.022" x2="367.30199999999996" y1="424.35" y2="439.3" /><line stroke="#71462e" stroke-linecap="round" stroke-width="2.9899999999999998" x1="372.967" x2="374.04699999999997" y1="424.35" y2="439.3" /><line stroke="#71462e" stroke-linecap="round" stroke-width="2.9899999999999998" x1="377.912" x2="380.792" y1="424.35" y2="439.3" /><circle cx="370" cy="414" fill="#66686e" r="17.5" stroke="#2f2925" stroke-width="2" /></svg>