<?xml version="1.0" encoding="utf-8" ?>
<svg baseProfile="full" height="682" version="1.1" viewBox="0 0 512 682" width="512" xmlns="http://www.w3.org/2000/svg" xmlns:ev="http://www.w3.org/2001/xml-events" xmlns:xlink="http://www.w3.org/1999/xlink"><defs /><polyline fill="none" points="175,238 145,314 132,410" stroke="#7b1a12" stroke-linecap="round" stroke-linejoin="round" stroke-width="35" /><polyline fill="none" points="175,238 145,314 132,410" stroke="#9d3c34" stroke-linecap="round" stroke-linejoin="round" stroke-width="27" /><ellipse cx="132" cy="410" fill="#e7a66f" rx="12" ry="15" stroke="#2f2925" stroke-linecap="round" stroke-linejoin="round" stroke-width="2" /><line stroke="#db9a63" stroke-linecap="round" stroke-width="2.6" x1="138.02" x2="140.54000000000002" y1="419" y2="432" /><line stroke="#db9a63" stroke-linecap="round" stroke-width="2.6" x1="133.72" x2="134.44" y1="419" y2="432" /><line stroke="#db9a63" stroke-linecap="round" stroke-width="2.6" x1="129.42" x2="128.33999999999997" y1="419" y2="432" /><line stroke="#db9a63" stroke-linecap="round" stroke-width="2.6" x1="125.12" x2="122.24000000000001" y1="419" y2="432" /><circle cx="132" cy="410" fill="#a94840" r="14.5" stroke="#2f2925" stroke-width="2" /><polyline fill="none" points="337,239 393,298 456,304" stroke="#7b1a12" stroke-linecap="round" stroke-linejoin="round" stroke-width="35" /><polyline fill="none" points="337,239 393,298 456,304" stroke="#9d3c34" stroke-linecap="round" stroke-linejoin="round" stroke-width="27" /><line stroke="#e7a66f" stroke-linecap="round" stroke-width="6" x1="453" x2="498" y1="302" y2="302" /><line stroke="#2f2925" stroke-linecap="round" stroke-width="2" x1="453" x2="498" y1="302" y2="302" /><circle cx="456" cy="304" fill="#a94840" r="14.5" stroke="#2f2925" stroke-width="2" /></svg>