<?xml version="1.0" encoding="utf-8" ?>
<svg baseProfile="full" height="682" version="1.1" viewBox="0 0 512 682" width="512" xmlns="http://www.w3.org/2000/svg" xmlns:ev="http://www.w3.org/2001/xml-events" xmlns:xlink="http://www.w3.org/1999/xlink"><defs /><polygon fill="#5d5f63" points="175.0,214 337.0,214 310.0,456 202.0,456" stroke="#2f2925" stroke-linecap="round" stroke-linejoin="round" stroke-width="4" /><ellipse cx="180.0" cy="232" fill="#5d5f63" rx="24" ry="28" stroke="#2f2925" stroke-width="3" /><ellipse cx="332.0" cy="232" fill="#5d5f63" rx="24" ry="28" stroke="#2f2925" stroke-width="3" /><polygon fill="#282a2d" points="214,195 298,195 286,240 226,240" stroke="#2f2925" stroke-linecap="round" stroke-linejoin="round" stroke-width="2" /><polygon fill="#4b4d51" points="250,230 187.0,224 216.0,450 238,450" stroke="#2f2925" stroke-linecap="round" stroke-linejoin="round" stroke-width="2.5" /><polygon fill="#4b4d51" points="262,230 325.0,224 296.0,450 274,450" stroke="#2f2925" stroke-linecap="round" stroke-linejoin="round" stroke-width="2.5" /><path d="M 210 212 L 256 278 L 302 212" fill="#282a2d" stroke="#74675d" stroke-linecap="round" stroke-linejoin="round" stroke-width="2" /><line stroke="#333539" stroke-linecap="round" stroke-width="2.5" x1="256" x2="256" y1="238" y2="444" /><circle cx="264" cy="274" fill="#1d1f23" r="4" stroke="#2f2925" stroke-width="1" /><circle cx="264" cy="312" fill="#1d1f23" r="4" stroke="#2f2925" stroke-width="1" /><circle cx="264" cy="350" fill="#1d1f23" r="4" stroke="#2f2925" stroke-width="1" /><circle cx="264" cy="388" fill="#1d1f23" r="4" stroke="#2f2925" stroke-width="1" /><circle cx="264" cy="426" fill="#1d1f23" r="4" stroke="#2f2925" stroke-width="1" /></svg>