<?xml version="1.0" encoding="utf-8" ?>
<svg baseProfile="full" height="682" version="1.1" viewBox="0 0 512 682" width="512" xmlns="http://www.w3.org/2000/svg" xmlns:ev="http://www.w3.org/2001/xml-events" xmlns:xlink="http://www.w3.org/1999/xlink"><defs /><polygon fill="#efe2c6" points="169.0,240 343.0,240 319.0,430 193.0,430" stroke="#2f2925" stroke-linecap="round" stroke-linejoin="round" stroke-width="4" /><polygon fill="#263137" points="212,224 300,224 290,262 222,262" stroke="#2f2925" stroke-linecap="round" stroke-linejoin="round" stroke-width="2" /><path d="M 225 234 L 256 300 L 287 234" fill="#263137" stroke="#6f6258" stroke-linejoin="round" stroke-width="2" /><line stroke="#c7ba9e" stroke-linecap="round" stroke-width="3" x1="256" x2="256" y1="257" y2="421" /><polygon fill="#e7dabe" points="169.0,242 144.0,302 173.0,394 193.0,414" stroke="#2f2925" stroke-linecap="round" stroke-linejoin="round" stroke-width="3" /><polygon fill="#e7dabe" points="343.0,242 368.0,302 339.0,394 319.0,414" stroke="#2f2925" stroke-linecap="round" stroke-linejoin="round" stroke-width="3" /><polygon fill="#ddd0b4" points="174,246 228,241 238,422 194,418" stroke="#2f2925" stroke-linecap="round" stroke-linejoin="round" stroke-width="2.5" /><polygon fill="#ddd0b4" points="338,246 284,241 274,422 318,418" stroke="#2f2925" stroke-linecap="round" stroke-linejoin="round" stroke-width="2.5" /><circle cx="263" cy="304" fill="#b3a68a" r="4" stroke="#2f2925" stroke-width="1" /><circle cx="263" cy="339" fill="#b3a68a" r="4" stroke="#2f2925" stroke-width="1" /><circle cx="263" cy="374" fill="#b3a68a" r="4" stroke="#2f2925" stroke-width="1" /></svg>