<?xml version="1.0" encoding="utf-8" ?>
<svg baseProfile="full" height="682" version="1.1" viewBox="0 0 512 682" width="512" xmlns="http://www.w3.org/2000/svg" xmlns:ev="http://www.w3.org/2001/xml-events" xmlns:xlink="http://www.w3.org/1999/xlink"><defs /><polygon fill="#6f774d" points="143.0,234 369.0,234 324.0,430 188.0,430" stroke="#2f2925" stroke-linecap="round" stroke-linejoin="round" stroke-width="4" /><line stroke="#99a177" stroke-linecap="round" stroke-width="4" x1="159.0" x2="353.0" y1="272" y2="272" /><line stroke="#8f976d" stroke-linecap="round" stroke-width="3" x1="171.0" x2="341.0" y1="296" y2="296" /><ellipse cx="148.0" cy="252" fill="#6f774d" rx="24" ry="28" stroke="#2f2925" stroke-width="3" /><ellipse cx="364.0" cy="252" fill="#6f774d" rx="24" ry="28" stroke="#2f2925" stroke-width="3" /><polygon fill="#f5edd6" points="214,215 298,215 286,260 226,260" stroke="#2f2925" stroke-linecap="round" stroke-linejoin="round" stroke-width="2" /><rect fill="#60683e" height="42" rx="6" stroke="#2f2925" stroke-width="2" width="44" x="200" y="296" /><rect fill="#7b8359" height="36" rx="5" stroke="#2f2925" stroke-width="2" width="36" x="206" y="358" /><rect fill="#60683e" height="42" rx="6" stroke="#2f2925" stroke-width="2" width="44" x="268" y="296" /><rect fill="#7b8359" height="36" rx="5" stroke="#2f2925" stroke-width="2" width="36" x="270" y="358" /><line stroke="#454d23" stroke-linecap="round" stroke-width="2.5" x1="256" x2="256" y1="258" y2="418" /><circle cx="264" cy="294" fill="#2f370d" r="4" stroke="#2f2925" stroke-width="1" /><circle cx="264" cy="332" fill="#2f370d" r="4" stroke="#2f2925" stroke-width="1" /><circle cx="264" cy="370" fill="#2f370d" r="4" stroke="#2f2925" stroke-width="1" /></svg>