<?xml version="1.0" encoding="utf-8" ?>
<svg baseProfile="full" height="682" version="1.1" viewBox="0 0 512 682" width="512" xmlns="http://www.w3.org/2000/svg" xmlns:ev="http://www.w3.org/2001/xml-events" xmlns:xlink="http://www.w3.org/1999/xlink"><defs /><polygon fill="#6f5948" points="187.0,238 325.0,238 300.0,420 212.0,420" stroke="#2f2925" stroke-linecap="round" stroke-linejoin="round" stroke-width="4" /><path d="M 214 330 Q 236 320 249 330" fill="none" stroke="#9d8776" stroke-linecap="round" stroke-linejoin="round" stroke-width="2" /><path d="M 298 330 Q 276 320 263 330" fill="none" stroke="#9d8776" stroke-linecap="round" stroke-linejoin="round" stroke-width="2" /><path d="M 214 359 Q 236 349 249 359" fill="none" stroke="#9d8776" stroke-linecap="round" stroke-linejoin="round" stroke-width="2" /><path d="M 298 359 Q 276 349 263 359" fill="none" stroke="#9d8776" stroke-linecap="round" stroke-linejoin="round" stroke-width="2" /><path d="M 208 374 Q 256 400 304 374" fill="none" stroke="#4d3726" stroke-linecap="round" stroke-linejoin="round" stroke-width="2" /><ellipse cx="192.0" cy="256" fill="#6f5948" rx="24" ry="28" stroke="#2f2925" stroke-width="3" /><ellipse cx="320.0" cy="256" fill="#6f5948" rx="24" ry="28" stroke="#2f2925" stroke-width="3" /><polygon fill="#eee7d8" points="214,219 298,219 286,264 226,264" stroke="#2f2925" stroke-linecap="round" stroke-linejoin="round" stroke-width="2" /><polygon fill="#5d4736" points="250,254 199.0,248 226.0,414 238,414" stroke="#2f2925" stroke-linecap="round" stroke-linejoin="round" stroke-width="2.5" /><polygon fill="#5d4736" points="262,254 313.0,248 286.0,414 274,414" stroke="#2f2925" stroke-linecap="round" stroke-linejoin="round" stroke-width="2.5" /><path d="M 210 236 L 256 302 L 302 236" fill="#eee7d8" stroke="#74675d" stroke-linecap="round" stroke-linejoin="round" stroke-width="2" /><line stroke="#452f1e" stroke-linecap="round" stroke-width="2.5" x1="256" x2="256" y1="262" y2="408" /><circle cx="264" cy="298" fill="#2f1908" r="4" stroke="#2f2925" stroke-width="1" /><circle cx="264" cy="336" fill="#2f1908" r="4" stroke="#2f2925" stroke-width="1" /><circle cx="264" cy="374" fill="#2f1908" r="4" stroke="#2f2925" stroke-width="1" /></svg>