<?xml version="1.0" encoding="utf-8" ?>
<svg baseProfile="full" height="682" version="1.1" viewBox="0 0 512 682" width="512" xmlns="http://www.w3.org/2000/svg" xmlns:ev="http://www.w3.org/2001/xml-events" xmlns:xlink="http://www.w3.org/1999/xlink"><defs /><polygon fill="#dfd0b4" points="160.0,240 352.0,240 324.0,430 188.0,430" stroke="#2f2925" stroke-linecap="round" stroke-linejoin="round" stroke-width="4" /><polygon fill="#6f5236" points="212,224 300,224 290,262 222,262" stroke="#2f2925" stroke-linecap="round" stroke-linejoin="round" stroke-width="2" /><path d="M 225 234 L 256 300 L 287 234" fill="#6f5236" stroke="#6f6258" stroke-linejoin="round" stroke-width="2" /><line stroke="#b7a88c" stroke-linecap="round" stroke-width="3" x1="256" x2="256" y1="257" y2="421" /><polygon fill="#d7c8ac" points="160.0,242 135.0,302 168.0,394 188.0,414" stroke="#2f2925" stroke-linecap="round" stroke-linejoin="round" stroke-width="3" /><polygon fill="#d7c8ac" points="352.0,242 377.0,302 344.0,394 324.0,414" stroke="#2f2925" stroke-linecap="round" stroke-linejoin="round" stroke-width="3" /><line stroke="#f7e8cc" stroke-linecap="round" stroke-width="2" x1="191" x2="205" y1="260" y2="412" /><line stroke="#f7e8cc" stroke-linecap="round" stroke-width="2" x1="215" x2="229" y1="260" y2="412" /><line stroke="#f7e8cc" stroke-linecap="round" stroke-width="2" x1="239" x2="253" y1="260" y2="412" /><line stroke="#f7e8cc" stroke-linecap="round" stroke-width="2" x1="263" x2="277" y1="260" y2="412" /><line stroke="#f7e8cc" stroke-linecap="round" stroke-width="2" x1="287" x2="301" y1="260" y2="412" /><line stroke="#f7e8cc" stroke-linecap="round" stroke-width="2" x1="311" x2="325" y1="260" y2="412" /><circle cx="263" cy="304" fill="#a39478" r="4" stroke="#2f2925" stroke-width="1" /><circle cx="263" cy="339" fill="#a39478" r="4" stroke="#2f2925" stroke-width="1" /><circle cx="263" cy="374" fill="#a39478" r="4" stroke="#2f2925" stroke-width="1" /></svg>