<?xml version="1.0" encoding="utf-8" ?>
<svg baseProfile="full" height="682" version="1.1" viewBox="0 0 512 682" width="512" xmlns="http://www.w3.org/2000/svg" xmlns:ev="http://www.w3.org/2001/xml-events" xmlns:xlink="http://www.w3.org/1999/xlink"><defs /><polygon fill="#bc4e37" points="158.0,240 354.0,240 350.0,448 162.0,448" stroke="#2f2925" stroke-linecap="round" stroke-linejoin="round" stroke-width="4" /><path d="M 180.0 376 Q 256 412 332.0 376" fill="none" stroke="#e2745d" stroke-linecap="round" stroke-linejoin="round" stroke-width="4" /><path d="M 170.0 412 Q 256 441 342.0 412" fill="none" stroke="#a0321b" stroke-linecap="round" stroke-linejoin="round" stroke-width="2" /><ellipse cx="163.0" cy="258" fill="#bc4e37" rx="24" ry="28" stroke="#2f2925" stroke-width="3" /><ellipse cx="349.0" cy="258" fill="#bc4e37" rx="24" ry="28" stroke="#2f2925" stroke-width="3" /><polygon fill="#f3e7cf" points="214,221 298,221 286,266 226,266" stroke="#2f2925" stroke-linecap="round" stroke-linejoin="round" stroke-width="2" /><line stroke="#f3e7cf" stroke-linecap="round" stroke-width="7" x1="176.0" x2="336.0" y1="278" y2="278" /><line stroke="#f3e7cf" stroke-linecap="round" stroke-width="7" x1="176.0" x2="336.0" y1="309" y2="309" /><line stroke="#f3e7cf" stroke-linecap="round" stroke-width="7" x1="176.0" x2="336.0" y1="340" y2="340" /><line stroke="#f3e7cf" stroke-linecap="round" stroke-width="7" x1="176.0" x2="336.0" y1="371" y2="371" /><line stroke="#f3e7cf" stroke-linecap="round" stroke-width="7" x1="176.0" x2="336.0" y1="402" y2="402" /><line stroke="#92240d" stroke-linecap="round" stroke-width="2.5" x1="256" x2="256" y1="264" y2="436" /><circle cx="264" cy="300" fill="#7c0e00" r="4" stroke="#2f2925" stroke-width="1" /><circle cx="264" cy="338" fill="#7c0e00" r="4" stroke="#2f2925" stroke-width="1" /><circle cx="264" cy="376" fill="#7c0e00" r="4" stroke="#2f2925" stroke-width="1" /><circle cx="264" cy="414" fill="#7c0e00" r="4" stroke="#2f2925" stroke-width="1" /></svg>