<?xml version="1.0" encoding="utf-8" ?>
<svg baseProfile="full" height="682" version="1.1" viewBox="0 0 512 682" width="512" xmlns="http://www.w3.org/2000/svg" xmlns:ev="http://www.w3.org/2001/xml-events" xmlns:xlink="http://www.w3.org/1999/xlink"><defs /><polygon fill="#345d5b" points="153.0,238 359.0,238 343.0,442 169.0,442" stroke="#2f2925" stroke-linecap="round" stroke-linejoin="round" stroke-width="4" /><path d="M 187.0 360 Q 256 396 325.0 360" fill="none" stroke="#5a8381" stroke-linecap="round" stroke-linejoin="round" stroke-width="4" /><path d="M 177.0 406 Q 256 435 335.0 406" fill="none" stroke="#18413f" stroke-linecap="round" stroke-linejoin="round" stroke-width="2" /><ellipse cx="158.0" cy="256" fill="#345d5b" rx="24" ry="28" stroke="#2f2925" stroke-width="3" /><ellipse cx="354.0" cy="256" fill="#345d5b" rx="24" ry="28" stroke="#2f2925" stroke-width="3" /><polygon fill="#eadfbd" points="214,219 298,219 286,264 226,264" stroke="#2f2925" stroke-linecap="round" stroke-linejoin="round" stroke-width="2" /><line stroke="#eadfbd" stroke-linecap="round" stroke-width="7" x1="171.0" x2="341.0" y1="276" y2="276" /><line stroke="#eadfbd" stroke-linecap="round" stroke-width="7" x1="171.0" x2="341.0" y1="307" y2="307" /><line stroke="#eadfbd" stroke-linecap="round" stroke-width="7" x1="171.0" x2="341.0" y1="338" y2="338" /><line stroke="#eadfbd" stroke-linecap="round" stroke-width="7" x1="171.0" x2="341.0" y1="369" y2="369" /><line stroke="#eadfbd" stroke-linecap="round" stroke-width="7" x1="171.0" x2="341.0" y1="400" y2="400" /><line stroke="#0a3331" stroke-linecap="round" stroke-width="2.5" x1="256" x2="256" y1="262" y2="430" /><circle cx="264" cy="298" fill="#001d1b" r="4" stroke="#2f2925" stroke-width="1" /><circle cx="264" cy="336" fill="#001d1b" r="4" stroke="#2f2925" stroke-width="1" /><circle cx="264" cy="374" fill="#001d1b" r="4" stroke="#2f2925" stroke-width="1" /><circle cx="264" cy="412" fill="#001d1b" r="4" stroke="#2f2925" stroke-width="1" /></svg>