<?xml version="1.0" encoding="utf-8" ?>
<svg baseProfile="full" height="682" version="1.1" viewBox="0 0 512 682" width="512" xmlns="http://www.w3.org/2000/svg" xmlns:ev="http://www.w3.org/2001/xml-events" xmlns:xlink="http://www.w3.org/1999/xlink"><defs /><polygon fill="#6f5948" points="180.0,238 332.0,238 308.0,420 204.0,420" stroke="#2f2925" stroke-linecap="round" stroke-linejoin="round" stroke-width="4" /><ellipse cx="185.0" cy="256" fill="#6f5948" rx="24" ry="28" stroke="#2f2925" stroke-width="3" /><ellipse cx="327.0" cy="256" fill="#6f5948" rx="24" ry="28" stroke="#2f2925" stroke-width="3" /><polygon fill="#eee7d8" points="214,219 298,219 286,264 226,264" stroke="#2f2925" stroke-linecap="round" stroke-linejoin="round" stroke-width="2" /><polygon fill="#5d4736" points="250,254 192.0,248 218.0,414 238,414" stroke="#2f2925" stroke-linecap="round" stroke-linejoin="round" stroke-width="2.5" /><polygon fill="#5d4736" points="262,254 320.0,248 294.0,414 274,414" stroke="#2f2925" stroke-linecap="round" stroke-linejoin="round" stroke-width="2.5" /><path d="M 210 236 L 256 302 L 302 236" fill="#eee7d8" stroke="#74675d" stroke-linecap="round" stroke-linejoin="round" stroke-width="2" /><line stroke="#452f1e" stroke-linecap="round" stroke-width="2.5" x1="256" x2="256" y1="262" y2="408" /><circle cx="264" cy="298" fill="#2f1908" r="4" stroke="#2f2925" stroke-width="1" /><circle cx="264" cy="336" fill="#2f1908" r="4" stroke="#2f2925" stroke-width="1" /><circle cx="264" cy="374" fill="#2f1908" r="4" stroke="#2f2925" stroke-width="1" /></svg>