<?xml version="1.0" encoding="utf-8" ?>
<svg baseProfile="full" height="682" version="1.1" viewBox="0 0 512 682" width="512" xmlns="http://www.w3.org/2000/svg" xmlns:ev="http://www.w3.org/2001/xml-events" xmlns:xlink="http://www.w3.org/1999/xlink"><defs /><polygon fill="#78472e" points="160.0,240 352.0,240 326.5,430 185.5,430" stroke="#2f2925" stroke-linecap="round" stroke-linejoin="round" stroke-width="4" /><polygon fill="#f4ecde" points="212,224 300,224 290,262 222,262" stroke="#2f2925" stroke-linecap="round" stroke-linejoin="round" stroke-width="2" /><path d="M 225 234 L 256 300 L 287 234" fill="#f4ecde" stroke="#6f6258" stroke-linejoin="round" stroke-width="2" /><line stroke="#501f06" stroke-linecap="round" stroke-width="3" x1="256" x2="256" y1="257" y2="421" /><polygon fill="#703f26" points="160.0,242 135.0,302 165.5,394 185.5,414" stroke="#2f2925" stroke-linecap="round" stroke-linejoin="round" stroke-width="3" /><polygon fill="#703f26" points="352.0,242 377.0,302 346.5,394 326.5,414" stroke="#2f2925" stroke-linecap="round" stroke-linejoin="round" stroke-width="3" /><polygon fill="#66351c" points="174,246 228,241 238,422 194,418" stroke="#2f2925" stroke-linecap="round" stroke-linejoin="round" stroke-width="2.5" /><polygon fill="#66351c" points="338,246 284,241 274,422 318,418" stroke="#2f2925" stroke-linecap="round" stroke-linejoin="round" stroke-width="2.5" /><circle cx="263" cy="304" fill="#3c0b00" r="4" stroke="#2f2925" stroke-width="1" /><circle cx="263" cy="339" fill="#3c0b00" r="4" stroke="#2f2925" stroke-width="1" /><circle cx="263" cy="374" fill="#3c0b00" r="4" stroke="#2f2925" stroke-width="1" /></svg>