<?xml version="1.0" encoding="utf-8" ?>
<svg baseProfile="full" height="682" version="1.1" viewBox="0 0 512 682" width="512" xmlns="http://www.w3.org/2000/svg" xmlns:ev="http://www.w3.org/2001/xml-events" xmlns:xlink="http://www.w3.org/1999/xlink"><defs /><polygon fill="#f5f3e9" points="158.0,240 354.0,240 350.0,448 162.0,448" stroke="#2f2925" stroke-linecap="round" stroke-linejoin="round" stroke-width="4" /><path d="M 180.0 376 Q 256 412 332.0 376" fill="none" stroke="#ffffff" stroke-linecap="round" stroke-linejoin="round" stroke-width="4" /><path d="M 170.0 412 Q 256 441 342.0 412" fill="none" stroke="#d9d7cd" stroke-linecap="round" stroke-linejoin="round" stroke-width="2" /><ellipse cx="163.0" cy="258" fill="#f5f3e9" rx="24" ry="28" stroke="#2f2925" stroke-width="3" /><ellipse cx="349.0" cy="258" fill="#f5f3e9" rx="24" ry="28" stroke="#2f2925" stroke-width="3" /><polygon fill="#b64535" points="214,221 298,221 286,266 226,266" stroke="#2f2925" stroke-linecap="round" stroke-linejoin="round" stroke-width="2" /><polygon fill="#b64535" points="202,260 310,260 324,436 188,436" stroke="#2f2925" stroke-linecap="round" stroke-linejoin="round" stroke-width="3" /><line stroke="#2f2925" stroke-linecap="round" stroke-width="2" x1="202" x2="164" y1="260" y2="236" /><line stroke="#2f2925" stroke-linecap="round" stroke-width="2" x1="310" x2="348" y1="260" y2="236" /><line stroke="#cbc9bf" stroke-linecap="round" stroke-width="2.5" x1="256" x2="256" y1="264" y2="436" /><circle cx="264" cy="300" fill="#b5b3a9" r="4" stroke="#2f2925" stroke-width="1" /><circle cx="264" cy="338" fill="#b5b3a9" r="4" stroke="#2f2925" stroke-width="1" /><circle cx="264" cy="376" fill="#b5b3a9" r="4" stroke="#2f2925" stroke-width="1" /><circle cx="264" cy="414" fill="#b5b3a9" r="4" stroke="#2f2925" stroke-width="1" /></svg>