<?xml version="1.0" encoding="utf-8" ?>
<svg baseProfile="full" height="682" version="1.1" viewBox="0 0 512 682" width="512" xmlns="http://www.w3.org/2000/svg" xmlns:ev="http://www.w3.org/2001/xml-events" xmlns:xlink="http://www.w3.org/1999/xlink"><defs /><polygon fill="#30343a" points="149.0,234 363.0,234 322.0,428 190.0,428" stroke="#2f2925" stroke-linecap="round" stroke-linejoin="round" stroke-width="4" /><ellipse cx="154.0" cy="252" fill="#30343a" rx="24" ry="28" stroke="#2f2925" stroke-width="3" /><ellipse cx="358.0" cy="252" fill="#30343a" rx="24" ry="28" stroke="#2f2925" stroke-width="3" /><polygon fill="#f5f2e8" points="214,215 298,215 286,260 226,260" stroke="#2f2925" stroke-linecap="round" stroke-linejoin="round" stroke-width="2" /><polygon fill="#1e2228" points="250,250 161.0,244 204.0,422 238,422" stroke="#2f2925" stroke-linecap="round" stroke-linejoin="round" stroke-width="2.5" /><polygon fill="#1e2228" points="262,250 351.0,244 308.0,422 274,422" stroke="#2f2925" stroke-linecap="round" stroke-linejoin="round" stroke-width="2.5" /><path d="M 210 232 L 256 298 L 302 232" fill="#f5f2e8" stroke="#74675d" stroke-linecap="round" stroke-linejoin="round" stroke-width="2" /><line stroke="#060a10" stroke-linecap="round" stroke-width="2.5" x1="256" x2="256" y1="258" y2="416" /><circle cx="264" cy="294" fill="#000000" r="4" stroke="#2f2925" stroke-width="1" /><circle cx="264" cy="332" fill="#000000" r="4" stroke="#2f2925" stroke-width="1" /><circle cx="264" cy="370" fill="#000000" r="4" stroke="#2f2925" stroke-width="1" /></svg>