<?xml version="1.0" encoding="utf-8" ?>
<svg baseProfile="full" height="682" version="1.1" viewBox="0 0 512 682" width="512" xmlns="http://www.w3.org/2000/svg" xmlns:ev="http://www.w3.org/2001/xml-events" xmlns:xlink="http://www.w3.org/1999/xlink"><defs /><polygon fill="#f4f1e8" points="187.0,238 325.0,238 300.0,420 212.0,420" stroke="#2f2925" stroke-linecap="round" stroke-linejoin="round" stroke-width="4" /><path d="M 214 330 Q 236 320 249 330" fill="none" stroke="#ffffff" stroke-linecap="round" stroke-linejoin="round" stroke-width="2" /><path d="M 298 330 Q 276 320 263 330" fill="none" stroke="#ffffff" stroke-linecap="round" stroke-linejoin="round" stroke-width="2" /><path d="M 214 359 Q 236 349 249 359" fill="none" stroke="#ffffff" stroke-linecap="round" stroke-linejoin="round" stroke-width="2" /><path d="M 298 359 Q 276 349 263 359" fill="none" stroke="#ffffff" stroke-linecap="round" stroke-linejoin="round" stroke-width="2" /><path d="M 208 374 Q 256 400 304 374" fill="none" stroke="#d2cfc6" stroke-linecap="round" stroke-linejoin="round" stroke-width="2" /><ellipse cx="192.0" cy="256" fill="#f4f1e8" rx="24" ry="28" stroke="#2f2925" stroke-width="3" /><ellipse cx="320.0" cy="256" fill="#f4f1e8" rx="24" ry="28" stroke="#2f2925" stroke-width="3" /><polygon fill="#44586b" points="214,219 298,219 286,264 226,264" stroke="#2f2925" stroke-linecap="round" stroke-linejoin="round" stroke-width="2" /><line stroke="#ffffff" stroke-linecap="round" stroke-width="2" x1="215.0" x2="297.0" y1="284" y2="284" /><line stroke="#ffffff" stroke-linecap="round" stroke-width="2" x1="215.0" x2="297.0" y1="328" y2="328" /><line stroke="#ffffff" stroke-linecap="round" stroke-width="2" x1="215.0" x2="297.0" y1="372" y2="372" /><line stroke="#cac7be" stroke-linecap="round" stroke-width="2.5" x1="256" x2="256" y1="262" y2="408" /><circle cx="264" cy="298" fill="#b4b1a8" r="4" stroke="#2f2925" stroke-width="1" /><circle cx="264" cy="336" fill="#b4b1a8" r="4" stroke="#2f2925" stroke-width="1" /><circle cx="264" cy="374" fill="#b4b1a8" r="4" stroke="#2f2925" stroke-width="1" /></svg>