<?xml version="1.0" encoding="utf-8" ?>
<svg baseProfile="full" height="682" version="1.1" viewBox="0 0 512 682" width="512" xmlns="http://www.w3.org/2000/svg" xmlns:ev="http://www.w3.org/2001/xml-events" xmlns:xlink="http://www.w3.org/1999/xlink"><defs /><polygon fill="#263e5c" points="143.0,234 369.0,234 324.0,430 188.0,430" stroke="#2f2925" stroke-linecap="round" stroke-linejoin="round" stroke-width="4" /><line stroke="#506886" stroke-linecap="round" stroke-width="4" x1="159.0" x2="353.0" y1="272" y2="272" /><line stroke="#465e7c" stroke-linecap="round" stroke-width="3" x1="171.0" x2="341.0" y1="296" y2="296" /><ellipse cx="148.0" cy="252" fill="#263e5c" rx="24" ry="28" stroke="#2f2925" stroke-width="3" /><ellipse cx="364.0" cy="252" fill="#263e5c" rx="24" ry="28" stroke="#2f2925" stroke-width="3" /><polygon fill="#f4f0e5" points="214,215 298,215 286,260 226,260" stroke="#2f2925" stroke-linecap="round" stroke-linejoin="round" stroke-width="2" /><polygon fill="#142c4a" points="250,250 155.0,244 202.0,424 238,424" stroke="#2f2925" stroke-linecap="round" stroke-linejoin="round" stroke-width="2.5" /><polygon fill="#142c4a" points="262,250 357.0,244 310.0,424 274,424" stroke="#2f2925" stroke-linecap="round" stroke-linejoin="round" stroke-width="2.5" /><path d="M 210 232 L 256 298 L 302 232" fill="#f4f0e5" stroke="#74675d" stroke-linecap="round" stroke-linejoin="round" stroke-width="2" /><line stroke="#001432" stroke-linecap="round" stroke-width="2.5" x1="256" x2="256" y1="258" y2="418" /><circle cx="264" cy="294" fill="#00001c" r="4" stroke="#2f2925" stroke-width="1" /><circle cx="264" cy="332" fill="#00001c" r="4" stroke="#2f2925" stroke-width="1" /><circle cx="264" cy="370" fill="#00001c" r="4" stroke="#2f2925" stroke-width="1" /></svg>