<?xml version="1.0" encoding="utf-8" ?>
<svg baseProfile="full" height="682" version="1.1" viewBox="0 0 512 682" width="512" xmlns="http://www.w3.org/2000/svg" xmlns:ev="http://www.w3.org/2001/xml-events" xmlns:xlink="http://www.w3.org/1999/xlink"><defs /><polygon fill="#5d5f63" points="174.0,222 338.0,222 314.0,452 198.0,452" stroke="#2f2925" stroke-linecap="round" stroke-linejoin="round" stroke-width="4" /><ellipse cx="179.0" cy="240" fill="#5d5f63" rx="24" ry="28" stroke="#2f2925" stroke-width="3" /><ellipse cx="333.0" cy="240" fill="#5d5f63" rx="24" ry="28" stroke="#2f2925" stroke-width="3" /><polygon fill="#282a2d" points="214,203 298,203 286,248 226,248" stroke="#2f2925" stroke-linecap="round" stroke-linejoin="round" stroke-width="2" /><polygon fill="#4b4d51" points="250,238 186.0,232 212.0,446 238,446" stroke="#2f2925" stroke-linecap="round" stroke-linejoin="round" stroke-width="2.5" /><polygon fill="#4b4d51" points="262,238 326.0,232 300.0,446 274,446" stroke="#2f2925" stroke-linecap="round" stroke-linejoin="round" stroke-width="2.5" /><path d="M 210 220 L 256 286 L 302 220" fill="#282a2d" stroke="#74675d" stroke-linecap="round" stroke-linejoin="round" stroke-width="2" /><line stroke="#333539" stroke-linecap="round" stroke-width="2.5" x1="256" x2="256" y1="246" y2="440" /><circle cx="264" cy="282" fill="#1d1f23" r="4" stroke="#2f2925" stroke-width="1" /><circle cx="264" cy="320" fill="#1d1f23" r="4" stroke="#2f2925" stroke-width="1" /><circle cx="264" cy="358" fill="#1d1f23" r="4" stroke="#2f2925" stroke-width="1" /><circle cx="264" cy="396" fill="#1d1f23" r="4" stroke="#2f2925" stroke-width="1" /></svg>