<?xml version="1.0" encoding="utf-8" ?>
<svg baseProfile="full" height="682" version="1.1" viewBox="0 0 512 682" width="512" xmlns="http://www.w3.org/2000/svg" xmlns:ev="http://www.w3.org/2001/xml-events" xmlns:xlink="http://www.w3.org/1999/xlink"><defs /><polygon fill="#c99436" points="163.0,240 349.0,240 326.5,430 185.5,430" stroke="#2f2925" stroke-linecap="round" stroke-linejoin="round" stroke-width="4" /><polygon fill="#2b4b6e" points="212,224 300,224 290,262 222,262" stroke="#2f2925" stroke-linecap="round" stroke-linejoin="round" stroke-width="2" /><path d="M 225 234 L 256 300 L 287 234" fill="#2b4b6e" stroke="#6f6258" stroke-linejoin="round" stroke-width="2" /><line stroke="#a16c0e" stroke-linecap="round" stroke-width="3" x1="256" x2="256" y1="257" y2="421" /><polygon fill="#c18c2e" points="163.0,242 138.0,302 165.5,394 185.5,414" stroke="#2f2925" stroke-linecap="round" stroke-linejoin="round" stroke-width="3" /><polygon fill="#c18c2e" points="349.0,242 374.0,302 346.5,394 326.5,414" stroke="#2f2925" stroke-linecap="round" stroke-linejoin="round" stroke-width="3" /><line stroke="#faf7ef" stroke-linecap="round" stroke-width="7" x1="176" x2="336" y1="278" y2="278" /><line stroke="#faf7ef" stroke-linecap="round" stroke-width="4" x1="172" x2="340" y1="306" y2="306" /><circle cx="263" cy="304" fill="#8d5800" r="4" stroke="#2f2925" stroke-width="1" /><circle cx="263" cy="339" fill="#8d5800" r="4" stroke="#2f2925" stroke-width="1" /><circle cx="263" cy="374" fill="#8d5800" r="4" stroke="#2f2925" stroke-width="1" /></svg>