<?xml version="1.0" encoding="utf-8" ?>
<svg baseProfile="full" height="682" version="1.1" viewBox="0 0 512 682" width="512" xmlns="http://www.w3.org/2000/svg" xmlns:ev="http://www.w3.org/2001/xml-events" xmlns:xlink="http://www.w3.org/1999/xlink"><defs /><polygon fill="#30393c" points="160.0,240 352.0,240 329.0,430 183.0,430" stroke="#2f2925" stroke-linecap="round" stroke-linejoin="round" stroke-width="4" /><polygon fill="#ebeeee" points="212,224 300,224 290,262 222,262" stroke="#2f2925" stroke-linecap="round" stroke-linejoin="round" stroke-width="2" /><path d="M 225 234 L 256 300 L 287 234" fill="#ebeeee" stroke="#6f6258" stroke-linejoin="round" stroke-width="2" /><line stroke="#081114" stroke-linecap="round" stroke-width="3" x1="256" x2="256" y1="257" y2="421" /><polygon fill="#283134" points="160.0,242 135.0,302 163.0,394 183.0,414" stroke="#2f2925" stroke-linecap="round" stroke-linejoin="round" stroke-width="3" /><polygon fill="#283134" points="352.0,242 377.0,302 349.0,394 329.0,414" stroke="#2f2925" stroke-linecap="round" stroke-linejoin="round" stroke-width="3" /><line stroke="#ebeeee" stroke-linecap="round" stroke-width="7" x1="178" x2="334" y1="278" y2="278" /><line stroke="#ebeeee" stroke-linecap="round" stroke-width="7" x1="178" x2="334" y1="307" y2="307" /><line stroke="#ebeeee" stroke-linecap="round" stroke-width="7" x1="178" x2="334" y1="336" y2="336" /><line stroke="#ebeeee" stroke-linecap="round" stroke-width="7" x1="178" x2="334" y1="365" y2="365" /><line stroke="#ebeeee" stroke-linecap="round" stroke-width="7" x1="178" x2="334" y1="394" y2="394" /><circle cx="263" cy="304" fill="#000000" r="4" stroke="#2f2925" stroke-width="1" /><circle cx="263" cy="339" fill="#000000" r="4" stroke="#2f2925" stroke-width="1" /><circle cx="263" cy="374" fill="#000000" r="4" stroke="#2f2925" stroke-width="1" /></svg>