<?xml version="1.0" encoding="utf-8" ?>
<svg baseProfile="full" height="682" version="1.1" viewBox="0 0 512 682" width="512" xmlns="http://www.w3.org/2000/svg" xmlns:ev="http://www.w3.org/2001/xml-events" xmlns:xlink="http://www.w3.org/1999/xlink"><defs /><polygon fill="#4d6588" points="174.0,222 338.0,222 314.0,452 198.0,452" stroke="#2f2925" stroke-linecap="round" stroke-linejoin="round" stroke-width="4" /><ellipse cx="179.0" cy="240" fill="#4d6588" rx="24" ry="28" stroke="#2f2925" stroke-width="3" /><ellipse cx="333.0" cy="240" fill="#4d6588" rx="24" ry="28" stroke="#2f2925" stroke-width="3" /><polygon fill="#f7e9d2" points="214,203 298,203 286,248 226,248" stroke="#2f2925" stroke-linecap="round" stroke-linejoin="round" stroke-width="2" /><polygon fill="#4d6588" points="202,272 310,272 332.0,492 180.0,492" stroke="#2f2925" stroke-linecap="round" stroke-linejoin="round" stroke-width="3" /><line stroke="#2b4366" stroke-linecap="round" stroke-width="2" x1="201" x2="211" y1="280" y2="480" /><line stroke="#2b4366" stroke-linecap="round" stroke-width="2" x1="225" x2="235" y1="280" y2="480" /><line stroke="#2b4366" stroke-linecap="round" stroke-width="2" x1="249" x2="259" y1="280" y2="480" /><line stroke="#2b4366" stroke-linecap="round" stroke-width="2" x1="273" x2="283" y1="280" y2="480" /><line stroke="#2b4366" stroke-linecap="round" stroke-width="2" x1="297" x2="307" y1="280" y2="480" /><line stroke="#233b5e" stroke-linecap="round" stroke-width="2.5" x1="256" x2="256" y1="246" y2="440" /><circle cx="264" cy="282" fill="#0d2548" r="4" stroke="#2f2925" stroke-width="1" /><circle cx="264" cy="320" fill="#0d2548" r="4" stroke="#2f2925" stroke-width="1" /><circle cx="264" cy="358" fill="#0d2548" r="4" stroke="#2f2925" stroke-width="1" /><circle cx="264" cy="396" fill="#0d2548" r="4" stroke="#2f2925" stroke-width="1" /></svg>