<?xml version="1.0" encoding="utf-8" ?>
<svg baseProfile="full" height="682" version="1.1" viewBox="0 0 512 682" width="512" xmlns="http://www.w3.org/2000/svg" xmlns:ev="http://www.w3.org/2001/xml-events" xmlns:xlink="http://www.w3.org/1999/xlink"><defs /><polygon fill="#4d6588" points="175.0,214 337.0,214 310.0,456 202.0,456" stroke="#2f2925" stroke-linecap="round" stroke-linejoin="round" stroke-width="4" /><ellipse cx="180.0" cy="232" fill="#4d6588" rx="24" ry="28" stroke="#2f2925" stroke-width="3" /><ellipse cx="332.0" cy="232" fill="#4d6588" rx="24" ry="28" stroke="#2f2925" stroke-width="3" /><polygon fill="#f7e9d2" points="214,195 298,195 286,240 226,240" stroke="#2f2925" stroke-linecap="round" stroke-linejoin="round" stroke-width="2" /><polygon fill="#4d6588" points="202,264 310,264 328.0,496 184.0,496" stroke="#2f2925" stroke-linecap="round" stroke-linejoin="round" stroke-width="3" /><line stroke="#2b4366" stroke-linecap="round" stroke-width="2" x1="201" x2="211" y1="272" y2="484" /><line stroke="#2b4366" stroke-linecap="round" stroke-width="2" x1="225" x2="235" y1="272" y2="484" /><line stroke="#2b4366" stroke-linecap="round" stroke-width="2" x1="249" x2="259" y1="272" y2="484" /><line stroke="#2b4366" stroke-linecap="round" stroke-width="2" x1="273" x2="283" y1="272" y2="484" /><line stroke="#2b4366" stroke-linecap="round" stroke-width="2" x1="297" x2="307" y1="272" y2="484" /><line stroke="#233b5e" stroke-linecap="round" stroke-width="2.5" x1="256" x2="256" y1="238" y2="444" /><circle cx="264" cy="274" fill="#0d2548" r="4" stroke="#2f2925" stroke-width="1" /><circle cx="264" cy="312" fill="#0d2548" r="4" stroke="#2f2925" stroke-width="1" /><circle cx="264" cy="350" fill="#0d2548" r="4" stroke="#2f2925" stroke-width="1" /><circle cx="264" cy="388" fill="#0d2548" r="4" stroke="#2f2925" stroke-width="1" /><circle cx="264" cy="426" fill="#0d2548" r="4" stroke="#2f2925" stroke-width="1" /></svg>