<?xml version="1.0" encoding="utf-8" ?>
<svg baseProfile="full" height="682" version="1.1" viewBox="0 0 512 682" width="512" xmlns="http://www.w3.org/2000/svg" xmlns:ev="http://www.w3.org/2001/xml-events" xmlns:xlink="http://www.w3.org/1999/xlink"><defs /><polygon fill="#9d4553" points="163.0,240 349.0,240 344.0,442 168.0,442" stroke="#2f2925" stroke-linecap="round" stroke-linejoin="round" stroke-width="4" /><ellipse cx="168.0" cy="258" fill="#9d4553" rx="24" ry="28" stroke="#2f2925" stroke-width="3" /><ellipse cx="344.0" cy="258" fill="#9d4553" rx="24" ry="28" stroke="#2f2925" stroke-width="3" /><polygon fill="#f6e7d2" points="214,221 298,221 286,266 226,266" stroke="#2f2925" stroke-linecap="round" stroke-linejoin="round" stroke-width="2" /><polygon fill="#9d4553" points="202,290 310,290 362.0,482 150.0,482" stroke="#2f2925" stroke-linecap="round" stroke-linejoin="round" stroke-width="3" /><line stroke="#7b2331" stroke-linecap="round" stroke-width="2" x1="201" x2="211" y1="298" y2="470" /><line stroke="#7b2331" stroke-linecap="round" stroke-width="2" x1="225" x2="235" y1="298" y2="470" /><line stroke="#7b2331" stroke-linecap="round" stroke-width="2" x1="249" x2="259" y1="298" y2="470" /><line stroke="#7b2331" stroke-linecap="round" stroke-width="2" x1="273" x2="283" y1="298" y2="470" /><line stroke="#7b2331" stroke-linecap="round" stroke-width="2" x1="297" x2="307" y1="298" y2="470" /><line stroke="#731b29" stroke-linecap="round" stroke-width="2.5" x1="256" x2="256" y1="264" y2="430" /><circle cx="264" cy="300" fill="#5d0513" r="4" stroke="#2f2925" stroke-width="1" /><circle cx="264" cy="338" fill="#5d0513" r="4" stroke="#2f2925" stroke-width="1" /><circle cx="264" cy="376" fill="#5d0513" r="4" stroke="#2f2925" stroke-width="1" /><circle cx="264" cy="414" fill="#5d0513" r="4" stroke="#2f2925" stroke-width="1" /></svg>