<?xml version="1.0" encoding="utf-8" ?>
<svg baseProfile="full" height="512" version="1.1" width="512" xmlns="http://www.w3.org/2000/svg" xmlns:ev="http://www.w3.org/2001/xml-events" xmlns:xlink="http://www.w3.org/1999/xlink"><defs /><polygon fill="#c8c8be" points="245,80 250,80 183,112" stroke="none" /><polygon fill="#c8c8be" points="250,80 203,112 183,112" stroke="none" /><polygon fill="#e2e2d8" points="250,80 257,80 203,112" stroke="none" /><polygon fill="#e2e2d8" points="257,80 256,112 203,112" stroke="none" /><polygon fill="#f2f2ec" points="257,80 261,80 256,112" stroke="none" /><polygon fill="#e2e2d8" points="261,80 305,112 256,112" stroke="none" /><polygon fill="#c8c8be" points="261,80 267,80 305,112" stroke="none" /><polygon fill="#c8c8be" points="267,80 327,112 305,112" stroke="none" /><polygon fill="#c8c8be" points="183,112 203,112 194,155" stroke="none" /><polygon fill="#c8c8be" points="203,112 224,155 194,155" stroke="none" /><polygon fill="#c8c8be" points="203,112 256,112 224,155" stroke="none" /><polygon fill="#f2f2ec" points="256,112 257,155 224,155" stroke="none" /><polygon fill="#e2e2d8" points="256,112 305,112 257,155" stroke="none" /><polygon fill="#c8c8be" points="305,112 290,155 257,155" stroke="none" /><polygon fill="#c8c8be" points="305,112 327,112 290,155" stroke="none" /><polygon fill="#c8c8be" points="327,112 318,155 290,155" stroke="none" /><polygon fill="#c8c8be" points="194,155 224,155 225,200" stroke="none" /><polygon fill="#c8c8be" points="224,155 245,200 225,200" stroke="none" /><polygon fill="#e2e2d8" points="224,155 257,155 245,200" stroke="none" /><polygon fill="#f2f2ec" points="257,155 256,200 245,200" stroke="none" /><polygon fill="#f2f2ec" points="257,155 290,155 256,200" stroke="none" /><polygon fill="#e2e2d8" points="290,155 267,200 256,200" stroke="none" /><polygon fill="#c8c8be" points="290,155 318,155 267,200" stroke="none" /><polygon fill="#c8c8be" points="318,155 290,200 267,200" stroke="none" /><polygon fill="#c8c8be" points="225,200 245,200 218,300" stroke="none" /><polygon fill="#c8c8be" points="245,200 241,300 218,300" stroke="none" /><polygon fill="#f2f2ec" points="245,200 256,200 241,300" stroke="none" /><polygon fill="#f2f2ec" points="256,200 256,300 241,300" stroke="none" /><polygon fill="#f2f2ec" points="256,200 267,200 256,300" stroke="none" /><polygon fill="#f2f2ec" points="267,200 266,300 256,300" stroke="none" /><polygon fill="#e2e2d8" points="267,200 290,200 266,300" stroke="none" /><polygon fill="#c8c8be" points="290,200 289,300 266,300" stroke="none" /><polygon fill="#c8c8be" points="218,300 241,300 223,370" stroke="none" /><polygon fill="#e2e2d8" points="241,300 248,370 223,370" stroke="none" /><polygon fill="#f2f2ec" points="241,300 256,300 248,370" stroke="none" /><polygon fill="#f2f2ec" points="256,300 254,370 248,370" stroke="none" /><polygon fill="#f2f2ec" points="256,300 266,300 254,370" stroke="none" /><polygon fill="#f2f2ec" points="266,300 269,370 254,370" stroke="none" /><polygon fill="#e2e2d8" points="266,300 289,300 269,370" stroke="none" /><polygon fill="#c8c8be" points="289,300 290,370 269,370" stroke="none" /><polygon fill="#c8c8be" points="223,370 248,370 220,430" stroke="none" /><polygon fill="#e2e2d8" points="248,370 244,430 220,430" stroke="none" /><polygon fill="#f2f2ec" points="248,370 254,370 244,430" stroke="none" /><polygon fill="#f2f2ec" points="254,370 257,430 244,430" stroke="none" /><polygon fill="#f2f2ec" points="254,370 269,370 257,430" stroke="none" /><polygon fill="#f2f2ec" points="269,370 267,430 257,430" stroke="none" /><polygon fill="#e2e2d8" points="269,370 290,370 267,430" stroke="none" /><polygon fill="#c8c8be" points="290,370 293,430 267,430" stroke="none" /><polygon fill="#c8c8be" points="243,95 256,110 269,95" stroke="#999" stroke-width="1.5" /><circle cx="256" cy="135" fill="#ddd" r="3" stroke="#999" stroke-width="1" /><circle cx="256" cy="165" fill="#ddd" r="3" stroke="#999" stroke-width="1" /><circle cx="256" cy="195" fill="#ddd" r="3" stroke="#999" stroke-width="1" /><rect fill="#e2e2d8" height="8" stroke="#aaa89e" stroke-width="1.5" width="10" x="234" y="145" /><line stroke="#aaa89e" stroke-width="2" x1="238" x2="274" y1="420" y2="420" /><polygon fill="#c8c8be" points="178,112 186,112 170,171" stroke="none" /><polygon fill="#c8c8be" points="186,112 186,171 170,171" stroke="none" /><polygon fill="#e2e2d8" points="186,112 194,112 186,171" stroke="none" /><polygon fill="#e2e2d8" points="194,112 202,171 186,171" stroke="none" /><polygon fill="#aaa89e" points="170,171 186,171 170,201.55" stroke="none" /><polygon fill="#aaa89e" points="186,171 186,201.55 170,201.55" stroke="none" /><polygon fill="#e2e2d8" points="186,171 202,171 186,201.55" stroke="none" /><polygon fill="#e2e2d8" points="202,171 202,201.55 186,201.55" stroke="none" /><polygon fill="#f4cc2a" points="170,201.55 186,201.55 176,311" stroke="none" /><polygon fill="#f4cc2a" points="186,201.55 186,311 176,311" stroke="none" /><polygon fill="#f4cc2a" points="186,201.55 202,201.55 186,311" stroke="none" /><polygon fill="#f4cc2a" points="202,201.55 196,311 186,311" stroke="none" /><line stroke="#aaa89e" stroke-width="2" x1="172" x2="200" y1="173" y2="173" /><polygon fill="#c8c8be" points="318,112 326,112 310,169" stroke="none" /><polygon fill="#c8c8be" points="326,112 326,169 310,169" stroke="none" /><polygon fill="#e2e2d8" points="326,112 334,112 326,169" stroke="none" /><polygon fill="#e2e2d8" points="334,112 342,169 326,169" stroke="none" /><polygon fill="#aaa89e" points="310,169 326,169 310,197.5" stroke="none" /><polygon fill="#aaa89e" points="326,169 326,197.5 310,197.5" stroke="none" /><polygon fill="#e2e2d8" points="326,169 342,169 326,197.5" stroke="none" /><polygon fill="#e2e2d8" points="342,169 342,197.5 326,197.5" stroke="none" /><polygon fill="#f4cc2a" points="310,197.5 326,197.5 316,302" stroke="none" /><polygon fill="#f4cc2a" points="326,197.5 326,302 316,302" stroke="none" /><polygon fill="#f4cc2a" points="326,197.5 342,197.5 326,302" stroke="none" /><polygon fill="#f4cc2a" points="342,197.5 336,302 326,302" stroke="none" /><line stroke="#aaa89e" stroke-width="2" x1="312" x2="340" y1="171" y2="171" /></svg>