<?xml version="1.0" encoding="utf-8" ?>
<svg baseProfile="full" height="512" version="1.1" width="512" xmlns="http://www.w3.org/2000/svg" xmlns:ev="http://www.w3.org/2001/xml-events" xmlns:xlink="http://www.w3.org/1999/xlink"><defs /><polygon fill="#c8c8be" points="243,80 250,80 159,112" stroke="none" /><polygon fill="#c8c8be" points="250,80 186,112 159,112" stroke="none" /><polygon fill="#e2e2d8" points="250,80 257,80 186,112" stroke="none" /><polygon fill="#e2e2d8" points="257,80 254,112 186,112" stroke="none" /><polygon fill="#f2f2ec" points="257,80 262,80 254,112" stroke="none" /><polygon fill="#e2e2d8" points="262,80 320,112 254,112" stroke="none" /><polygon fill="#e2e2d8" points="262,80 268,80 320,112" stroke="none" /><polygon fill="#c8c8be" points="268,80 352,112 320,112" stroke="none" /><polygon fill="#c8c8be" points="159,112 186,112 173,155" stroke="none" /><polygon fill="#c8c8be" points="186,112 214,155 173,155" stroke="none" /><polygon fill="#c8c8be" points="186,112 254,112 214,155" stroke="none" /><polygon fill="#f2f2ec" points="254,112 253,155 214,155" stroke="none" /><polygon fill="#f2f2ec" points="254,112 320,112 253,155" stroke="none" /><polygon fill="#c8c8be" points="320,112 298,155 253,155" stroke="none" /><polygon fill="#c8c8be" points="320,112 352,112 298,155" stroke="none" /><polygon fill="#c8c8be" points="352,112 338,155 298,155" stroke="none" /><polygon fill="#c8c8be" points="173,155 214,155 203,200" stroke="none" /><polygon fill="#c8c8be" points="214,155 235,200 203,200" stroke="none" /><polygon fill="#e2e2d8" points="214,155 253,155 235,200" stroke="none" /><polygon fill="#f2f2ec" points="253,155 259,200 235,200" stroke="none" /><polygon fill="#f2f2ec" points="253,155 298,155 259,200" stroke="none" /><polygon fill="#e2e2d8" points="298,155 277,200 259,200" stroke="none" /><polygon fill="#c8c8be" points="298,155 338,155 277,200" stroke="none" /><polygon fill="#c8c8be" points="338,155 306,200 277,200" stroke="none" /><polygon fill="#c8c8be" points="203,200 235,200 199,300" stroke="none" /><polygon fill="#c8c8be" points="235,200 236,300 199,300" stroke="none" /><polygon fill="#f2f2ec" points="235,200 259,200 236,300" stroke="none" /><polygon fill="#f2f2ec" points="259,200 256,300 236,300" stroke="none" /><polygon fill="#f2f2ec" points="259,200 277,200 256,300" stroke="none" /><polygon fill="#f2f2ec" points="277,200 274,300 256,300" stroke="none" /><polygon fill="#e2e2d8" points="277,200 306,200 274,300" stroke="none" /><polygon fill="#c8c8be" points="306,200 314,300 274,300" stroke="none" /><polygon fill="#c8c8be" points="199,300 236,300 203,370" stroke="none" /><polygon fill="#e2e2d8" points="236,300 241,370 203,370" stroke="none" /><polygon fill="#f2f2ec" points="236,300 256,300 241,370" stroke="none" /><polygon fill="#f2f2ec" points="256,300 257,370 241,370" stroke="none" /><polygon fill="#f2f2ec" points="256,300 274,300 257,370" stroke="none" /><polygon fill="#f2f2ec" points="274,300 270,370 257,370" stroke="none" /><polygon fill="#e2e2d8" points="274,300 314,300 270,370" stroke="none" /><polygon fill="#c8c8be" points="314,300 311,370 270,370" stroke="none" /><polygon fill="#c8c8be" points="203,370 241,370 196,430" stroke="none" /><polygon fill="#e2e2d8" points="241,370 239,430 196,430" stroke="none" /><polygon fill="#f2f2ec" points="241,370 257,370 239,430" stroke="none" /><polygon fill="#f2f2ec" points="257,370 255,430 239,430" stroke="none" /><polygon fill="#f2f2ec" points="257,370 270,370 255,430" stroke="none" /><polygon fill="#f2f2ec" points="270,370 273,430 255,430" stroke="none" /><polygon fill="#e2e2d8" points="270,370 311,370 273,430" stroke="none" /><polygon fill="#c8c8be" points="311,370 316,430 273,430" stroke="none" /><polygon fill="#c8c8be" points="239,95 256,110 273,95" stroke="#999" stroke-width="1.5" /><circle cx="256" cy="135" fill="#ddd" r="3" stroke="#999" stroke-width="1" /><circle cx="256" cy="165" fill="#ddd" r="3" stroke="#999" stroke-width="1" /><circle cx="256" cy="195" fill="#ddd" r="3" stroke="#999" stroke-width="1" /><rect fill="#e2e2d8" height="11" stroke="#aaa89e" stroke-width="1.5" width="13" x="227" y="145" /><line stroke="#aaa89e" stroke-width="2" x1="227" x2="285" y1="420" y2="420" /><polygon fill="#c8c8be" points="155,112 163,112 128,165" stroke="none" /><polygon fill="#c8c8be" points="163,112 146,165 128,165" stroke="none" /><polygon fill="#e2e2d8" points="163,112 171,112 146,165" stroke="none" /><polygon fill="#e2e2d8" points="171,112 164,165 146,165" stroke="none" /><polygon fill="#aaa89e" points="128,165 146,165 128,192.55" stroke="none" /><polygon fill="#aaa89e" points="146,165 146,192.55 128,192.55" stroke="none" /><polygon fill="#e2e2d8" points="146,165 164,165 146,192.55" stroke="none" /><polygon fill="#e2e2d8" points="164,165 164,192.55 146,192.55" stroke="none" /><polygon fill="#f6ce38" points="128,192.55 146,192.55 128,291" stroke="none" /><polygon fill="#f6ce38" points="146,192.55 146,291 128,291" stroke="none" /><polygon fill="#f6ce38" points="146,192.55 164,192.55 146,291" stroke="none" /><polygon fill="#f6ce38" points="164,192.55 154,291 146,291" stroke="none" /><line stroke="#aaa89e" stroke-width="2" x1="143" x2="183" y1="167" y2="167" /><path d="M 164 271 Q 168 267 172 271" fill="none" stroke="#d4c0a0" stroke-opacity="0.3" stroke-width="1" /><path d="M 169 197 Q 171 195 173 197" fill="none" stroke="#d4c0a0" stroke-opacity="0.3" stroke-width="1" /><path d="M 176 277 Q 179 274 182 277" fill="none" stroke="#d4c0a0" stroke-opacity="0.3" stroke-width="1" /><polygon fill="#c8c8be" points="341,112 349,112 351,163" stroke="none" /><polygon fill="#c8c8be" points="349,112 369,163 351,163" stroke="none" /><polygon fill="#e2e2d8" points="349,112 357,112 369,163" stroke="none" /><polygon fill="#e2e2d8" points="357,112 387,163 369,163" stroke="none" /><polygon fill="#aaa89e" points="351,163 369,163 351,189.4" stroke="none" /><polygon fill="#aaa89e" points="369,163 369,189.4 351,189.4" stroke="none" /><polygon fill="#e2e2d8" points="369,163 387,163 369,189.4" stroke="none" /><polygon fill="#e2e2d8" points="387,163 387,189.4 369,189.4" stroke="none" /><polygon fill="#f6ce38" points="351,189.4 369,189.4 361,284" stroke="none" /><polygon fill="#f6ce38" points="369,189.4 369,284 361,284" stroke="none" /><polygon fill="#f6ce38" points="369,189.4 387,189.4 369,284" stroke="none" /><polygon fill="#f6ce38" points="387,189.4 387,284 369,284" stroke="none" /><line stroke="#aaa89e" stroke-width="2" x1="329" x2="369" y1="165" y2="165" /><path d="M 336 201 Q 340 197 344 201" fill="none" stroke="#d4c0a0" stroke-opacity="0.3" stroke-width="1" /><path d="M 348 224 Q 351 221 354 224" fill="none" stroke="#d4c0a0" stroke-opacity="0.3" stroke-width="1" /><path d="M 346 235 Q 351 230 356 235" fill="none" stroke="#d4c0a0" stroke-opacity="0.3" stroke-width="1" /><path d="M 359 246 Q 363 242 367 246" fill="none" stroke="#d4c0a0" stroke-opacity="0.3" stroke-width="1" /><path d="M 338 174 Q 343 169 348 174" fill="none" stroke="#d4c0a0" stroke-opacity="0.3" stroke-width="1" /></svg>