<?xml version="1.0" encoding="utf-8" ?>
<svg baseProfile="full" height="512" version="1.1" width="512" xmlns="http://www.w3.org/2000/svg" xmlns:ev="http://www.w3.org/2001/xml-events" xmlns:xlink="http://www.w3.org/1999/xlink"><defs /><polygon fill="#c8c8be" points="244,80 251,80 142,112" stroke="none" /><polygon fill="#c8c8be" points="251,80 177,112 142,112" stroke="none" /><polygon fill="#e2e2d8" points="251,80 255,80 177,112" stroke="none" /><polygon fill="#f2f2ec" points="255,80 259,112 177,112" stroke="none" /><polygon fill="#f2f2ec" points="255,80 262,80 259,112" stroke="none" /><polygon fill="#e2e2d8" points="262,80 335,112 259,112" stroke="none" /><polygon fill="#e2e2d8" points="262,80 268,80 335,112" stroke="none" /><polygon fill="#c8c8be" points="268,80 372,112 335,112" stroke="none" /><polygon fill="#c8c8be" points="142,112 177,112 160,155" stroke="none" /><polygon fill="#c8c8be" points="177,112 208,155 160,155" stroke="none" /><polygon fill="#c8c8be" points="177,112 259,112 208,155" stroke="none" /><polygon fill="#f2f2ec" points="259,112 257,155 208,155" stroke="none" /><polygon fill="#e2e2d8" points="259,112 335,112 257,155" stroke="none" /><polygon fill="#c8c8be" points="335,112 310,155 257,155" stroke="none" /><polygon fill="#c8c8be" points="335,112 372,112 310,155" stroke="none" /><polygon fill="#c8c8be" points="372,112 353,155 310,155" stroke="none" /><polygon fill="#c8c8be" points="160,155 208,155 187,200" stroke="none" /><polygon fill="#c8c8be" points="208,155 224,200 187,200" stroke="none" /><polygon fill="#e2e2d8" points="208,155 257,155 224,200" stroke="none" /><polygon fill="#f2f2ec" points="257,155 258,200 224,200" stroke="none" /><polygon fill="#f2f2ec" points="257,155 310,155 258,200" stroke="none" /><polygon fill="#e2e2d8" points="310,155 287,200 258,200" stroke="none" /><polygon fill="#c8c8be" points="310,155 353,155 287,200" stroke="none" /><polygon fill="#c8c8be" points="353,155 324,200 287,200" stroke="none" /><polygon fill="#c8c8be" points="187,200 224,200 184,300" stroke="none" /><polygon fill="#c8c8be" points="224,200 231,300 184,300" stroke="none" /><polygon fill="#f2f2ec" points="224,200 258,200 231,300" stroke="none" /><polygon fill="#f2f2ec" points="258,200 254,300 231,300" stroke="none" /><polygon fill="#f2f2ec" points="258,200 287,200 254,300" stroke="none" /><polygon fill="#f2f2ec" points="287,200 281,300 254,300" stroke="none" /><polygon fill="#c8c8be" points="287,200 324,200 281,300" stroke="none" /><polygon fill="#c8c8be" points="324,200 329,300 281,300" stroke="none" /><polygon fill="#c8c8be" points="184,300 231,300 188,370" stroke="none" /><polygon fill="#e2e2d8" points="231,300 232,370 188,370" stroke="none" /><polygon fill="#f2f2ec" points="231,300 254,300 232,370" stroke="none" /><polygon fill="#f2f2ec" points="254,300 258,370 232,370" stroke="none" /><polygon fill="#f2f2ec" points="254,300 281,300 258,370" stroke="none" /><polygon fill="#f2f2ec" points="281,300 281,370 258,370" stroke="none" /><polygon fill="#c8c8be" points="281,300 329,300 281,370" stroke="none" /><polygon fill="#c8c8be" points="329,300 324,370 281,370" stroke="none" /><polygon fill="#c8c8be" points="188,370 232,370 183,430" stroke="none" /><polygon fill="#e2e2d8" points="232,370 234,430 183,430" stroke="none" /><polygon fill="#f2f2ec" points="232,370 258,370 234,430" stroke="none" /><polygon fill="#f2f2ec" points="258,370 256,430 234,430" stroke="none" /><polygon fill="#f2f2ec" points="258,370 281,370 256,430" stroke="none" /><polygon fill="#f2f2ec" points="281,370 278,430 256,430" stroke="none" /><polygon fill="#e2e2d8" points="281,370 324,370 278,430" stroke="none" /><polygon fill="#c8c8be" points="324,370 331,430 278,430" stroke="none" /><polygon fill="#c8c8be" points="236,95 256,110 276,95" stroke="#999" stroke-width="1.5" /><circle cx="256" cy="135" fill="#ddd" r="3" stroke="#999" stroke-width="1" /><circle cx="256" cy="165" fill="#ddd" r="3" stroke="#999" stroke-width="1" /><circle cx="256" cy="195" fill="#ddd" r="3" stroke="#999" stroke-width="1" /><rect fill="#e2e2d8" height="13" stroke="#aaa89e" stroke-width="1.5" width="15" x="222" y="145" /><line stroke="#aaa89e" stroke-width="2" x1="219" x2="293" y1="420" y2="420" /><path d="M 217 152 Q 231 166 245 152" fill="none" stroke="#aaa89e" stroke-width="1.5" /><path d="M 267 152 Q 281 166 295 152" fill="none" stroke="#aaa89e" stroke-width="1.5" /><line stroke="#aaa89e" stroke-width="1.2" x1="244" x2="226" y1="215" y2="215" /><line stroke="#aaa89e" stroke-width="1.2" x1="268" x2="286" y1="215" y2="215" /><line stroke="#aaa89e" stroke-width="1.2" x1="244" x2="226" y1="240" y2="240" /><line stroke="#aaa89e" stroke-width="1.2" x1="268" x2="286" y1="240" y2="240" /><line stroke="#aaa89e" stroke-width="1.2" x1="244" x2="226" y1="265" y2="265" /><line stroke="#aaa89e" stroke-width="1.2" x1="268" x2="286" y1="265" y2="265" /><line stroke="#aaa89e" stroke-width="1.2" x1="244" x2="226" y1="290" y2="290" /><line stroke="#aaa89e" stroke-width="1.2" x1="268" x2="286" y1="290" y2="290" /><path d="M 234 260 Q 256 278 278 260" fill="none" stroke="#aaa89e" stroke-width="1.5" /><polygon fill="#c8c8be" points="138,112 146,112 70,167" stroke="none" /><polygon fill="#c8c8be" points="146,112 112,167 70,167" stroke="none" /><polygon fill="#e2e2d8" points="146,112 154,112 112,167" stroke="none" /><polygon fill="#e2e2d8" points="154,112 154,167 112,167" stroke="none" /><polygon fill="#aaa89e" points="70,167 112,167 70,195.7" stroke="none" /><polygon fill="#aaa89e" points="112,167 112,195.7 70,195.7" stroke="none" /><polygon fill="#e2e2d8" points="112,167 154,167 112,195.7" stroke="none" /><polygon fill="#e2e2d8" points="154,167 154,195.7 112,195.7" stroke="none" /><polygon fill="#f4cc2c" points="70,195.7 112,195.7 77,298" stroke="none" /><polygon fill="#f4cc2c" points="112,195.7 112,298 77,298" stroke="none" /><polygon fill="#f4cc2c" points="112,195.7 154,195.7 112,298" stroke="none" /><polygon fill="#f4cc2c" points="154,195.7 137,298 112,298" stroke="none" /><line stroke="#aaa89e" stroke-width="2" x1="98" x2="194" y1="169" y2="169" /><circle cx="101" cy="196" fill="#d2a41c" fill-opacity="0.15" r="0.9837737286967294" stroke="none" /><circle cx="159" cy="264" fill="#d2a41c" fill-opacity="0.15" r="0.8120035225875645" stroke="none" /><circle cx="127" cy="254" fill="#d2a41c" fill-opacity="0.15" r="1.2005802676057389" stroke="none" /><circle cx="98" cy="199" fill="#d2a41c" fill-opacity="0.15" r="0.9262157557748752" stroke="none" /><circle cx="188" cy="207" fill="#d2a41c" fill-opacity="0.15" r="1.4755944841021371" stroke="none" /><polygon fill="#c8c8be" points="358,112 366,112 346,163" stroke="none" /><polygon fill="#c8c8be" points="366,112 388,163 346,163" stroke="none" /><polygon fill="#e2e2d8" points="366,112 374,112 388,163" stroke="none" /><polygon fill="#e2e2d8" points="374,112 430,163 388,163" stroke="none" /><polygon fill="#aaa89e" points="346,163 388,163 346,188.5" stroke="none" /><polygon fill="#aaa89e" points="388,163 388,188.5 346,188.5" stroke="none" /><polygon fill="#e2e2d8" points="388,163 430,163 388,188.5" stroke="none" /><polygon fill="#e2e2d8" points="430,163 430,188.5 388,188.5" stroke="none" /><polygon fill="#f4cc2c" points="346,188.5 388,188.5 363,282" stroke="none" /><polygon fill="#f4cc2c" points="388,188.5 388,282 363,282" stroke="none" /><polygon fill="#f4cc2c" points="388,188.5 430,188.5 388,282" stroke="none" /><polygon fill="#f4cc2c" points="430,188.5 423,282 388,282" stroke="none" /><line stroke="#aaa89e" stroke-width="2" x1="318" x2="414" y1="165" y2="165" /><circle cx="392" cy="276" fill="#d2a41c" fill-opacity="0.15" r="0.6193051149386042" stroke="none" /><circle cx="364" cy="262" fill="#d2a41c" fill-opacity="0.15" r="1.245275501698586" stroke="none" /><circle cx="403" cy="200" fill="#d2a41c" fill-opacity="0.15" r="0.7842176243636463" stroke="none" /><circle cx="400" cy="192" fill="#d2a41c" fill-opacity="0.15" r="1.0590379889669372" stroke="none" /><circle cx="346" cy="179" fill="#d2a41c" fill-opacity="0.15" r="1.3549421138906175" stroke="none" /></svg>