<?xml version="1.0" encoding="utf-8" ?>
<svg baseProfile="full" height="512" version="1.1" width="512" xmlns="http://www.w3.org/2000/svg" xmlns:ev="http://www.w3.org/2001/xml-events" xmlns:xlink="http://www.w3.org/1999/xlink"><defs /><polygon fill="#c8c8be" points="244,80 249,80 163,112" stroke="none" /><polygon fill="#c8c8be" points="249,80 191,112 163,112" stroke="none" /><polygon fill="#e2e2d8" points="249,80 257,80 191,112" stroke="none" /><polygon fill="#e2e2d8" points="257,80 253,112 191,112" stroke="none" /><polygon fill="#f2f2ec" points="257,80 262,80 253,112" stroke="none" /><polygon fill="#e2e2d8" points="262,80 319,112 253,112" stroke="none" /><polygon fill="#e2e2d8" points="262,80 269,80 319,112" stroke="none" /><polygon fill="#c8c8be" points="269,80 345,112 319,112" stroke="none" /><polygon fill="#c8c8be" points="163,112 191,112 177,155" stroke="none" /><polygon fill="#c8c8be" points="191,112 213,155 177,155" stroke="none" /><polygon fill="#c8c8be" points="191,112 253,112 213,155" stroke="none" /><polygon fill="#f2f2ec" points="253,112 257,155 213,155" stroke="none" /><polygon fill="#e2e2d8" points="253,112 319,112 257,155" stroke="none" /><polygon fill="#c8c8be" points="319,112 295,155 257,155" stroke="none" /><polygon fill="#c8c8be" points="319,112 345,112 295,155" stroke="none" /><polygon fill="#c8c8be" points="345,112 334,155 295,155" stroke="none" /><polygon fill="#aaa89e" points="177,155 213,155 213,200" stroke="none" /><polygon fill="#aaa89e" points="213,155 238,200 213,200" stroke="none" /><polygon fill="#e2e2d8" points="213,155 257,155 238,200" stroke="none" /><polygon fill="#f2f2ec" points="257,155 257,200 238,200" stroke="none" /><polygon fill="#f2f2ec" points="257,155 295,155 257,200" stroke="none" /><polygon fill="#e2e2d8" points="295,155 274,200 257,200" stroke="none" /><polygon fill="#aaa89e" points="295,155 334,155 274,200" stroke="none" /><polygon fill="#aaa89e" points="334,155 300,200 274,200" stroke="none" /><polygon fill="#c8c8be" points="213,200 238,200 208,300" stroke="none" /><polygon fill="#e2e2d8" points="238,200 241,300 208,300" stroke="none" /><polygon fill="#f2f2ec" points="238,200 257,200 241,300" stroke="none" /><polygon fill="#f2f2ec" points="257,200 253,300 241,300" stroke="none" /><polygon fill="#f2f2ec" points="257,200 274,200 253,300" stroke="none" /><polygon fill="#f2f2ec" points="274,200 272,300 253,300" stroke="none" /><polygon fill="#e2e2d8" points="274,200 300,200 272,300" stroke="none" /><polygon fill="#c8c8be" points="300,200 307,300 272,300" stroke="none" /><polygon fill="#c8c8be" points="208,300 241,300 212,370" stroke="none" /><polygon fill="#e2e2d8" points="241,300 244,370 212,370" stroke="none" /><polygon fill="#f2f2ec" points="241,300 253,300 244,370" stroke="none" /><polygon fill="#f2f2ec" points="253,300 259,370 244,370" stroke="none" /><polygon fill="#f2f2ec" points="253,300 272,300 259,370" stroke="none" /><polygon fill="#f2f2ec" points="272,300 272,370 259,370" stroke="none" /><polygon fill="#e2e2d8" points="272,300 307,300 272,370" stroke="none" /><polygon fill="#c8c8be" points="307,300 304,370 272,370" stroke="none" /><polygon fill="#c8c8be" points="212,370 244,370 205,430" stroke="none" /><polygon fill="#e2e2d8" points="244,370 241,430 205,430" stroke="none" /><polygon fill="#f2f2ec" points="244,370 259,370 241,430" stroke="none" /><polygon fill="#f2f2ec" points="259,370 255,430 241,430" stroke="none" /><polygon fill="#f2f2ec" points="259,370 272,370 255,430" stroke="none" /><polygon fill="#f2f2ec" points="272,370 270,430 255,430" stroke="none" /><polygon fill="#e2e2d8" points="272,370 304,370 270,430" stroke="none" /><polygon fill="#c8c8be" points="304,370 307,430 270,430" stroke="none" /><polygon fill="#c8c8be" points="240,95 256,110 272,95" stroke="#999" stroke-width="1.5" /><circle cx="256" cy="135" fill="#ddd" r="3" stroke="#999" stroke-width="1" /><circle cx="256" cy="165" fill="#ddd" r="3" stroke="#999" stroke-width="1" /><circle cx="256" cy="195" fill="#ddd" r="3" stroke="#999" stroke-width="1" /><rect fill="#e2e2d8" height="10" stroke="#aaa89e" stroke-width="1.5" width="12" x="229" y="145" /><line stroke="#aaa89e" stroke-width="2" x1="231" x2="281" y1="420" y2="420" /><path d="M 225 152 Q 239 166 253 152" fill="none" stroke="#aaa89e" stroke-width="1.5" /><path d="M 259 152 Q 273 166 287 152" fill="none" stroke="#aaa89e" stroke-width="1.5" /><line stroke="#aaa89e" stroke-width="1.2" x1="244" x2="226" y1="215" y2="215" /><line stroke="#aaa89e" stroke-width="1.2" x1="268" x2="286" y1="215" y2="215" /><line stroke="#aaa89e" stroke-width="1.2" x1="244" x2="226" y1="240" y2="240" /><line stroke="#aaa89e" stroke-width="1.2" x1="268" x2="286" y1="240" y2="240" /><line stroke="#aaa89e" stroke-width="1.2" x1="244" x2="226" y1="265" y2="265" /><line stroke="#aaa89e" stroke-width="1.2" x1="268" x2="286" y1="265" y2="265" /><line stroke="#aaa89e" stroke-width="1.2" x1="244" x2="226" y1="290" y2="290" /><line stroke="#aaa89e" stroke-width="1.2" x1="268" x2="286" y1="290" y2="290" /><path d="M 222 165 Q 234 186 246 165" fill="none" stroke="#aaa89e" stroke-width="1.5" /><path d="M 266 165 Q 278 186 290 165" fill="none" stroke="#aaa89e" stroke-width="1.5" /><polygon fill="#c8c8be" points="162,112 170,112 113,168" stroke="none" /><polygon fill="#c8c8be" points="170,112 138,168 113,168" stroke="none" /><polygon fill="#e2e2d8" points="170,112 178,112 138,168" stroke="none" /><polygon fill="#e2e2d8" points="178,112 163,168 138,168" stroke="none" /><polygon fill="#aaa89e" points="113,168 138,168 113,197.05" stroke="none" /><polygon fill="#aaa89e" points="138,168 138,197.05 113,197.05" stroke="none" /><polygon fill="#e2e2d8" points="138,168 163,168 138,197.05" stroke="none" /><polygon fill="#e2e2d8" points="163,168 163,197.05 138,197.05" stroke="none" /><polygon fill="#f6d244" points="113,197.05 138,197.05 115,301" stroke="none" /><polygon fill="#f6d244" points="138,197.05 138,301 115,301" stroke="none" /><polygon fill="#f6d244" points="138,197.05 163,197.05 138,301" stroke="none" /><polygon fill="#f6d244" points="163,197.05 151,301 138,301" stroke="none" /><line stroke="#aaa89e" stroke-width="2" x1="142" x2="198" y1="170" y2="170" /><circle cx="164" cy="256" fill="#d6ae34" fill-opacity="0.15" r="1.4413413732051281" stroke="none" /><circle cx="183" cy="185" fill="#d6ae34" fill-opacity="0.15" r="1.175229841282011" stroke="none" /><circle cx="166" cy="212" fill="#d6ae34" fill-opacity="0.15" r="0.620076095589264" stroke="none" /><circle cx="171" cy="208" fill="#d6ae34" fill-opacity="0.15" r="1.4676416476130685" stroke="none" /><circle cx="183" cy="209" fill="#d6ae34" fill-opacity="0.15" r="0.7914206256473386" stroke="none" /><circle cx="161" cy="254" fill="#d6ae34" fill-opacity="0.15" r="0.6692965248934961" stroke="none" /><polygon fill="#c8c8be" points="334,112 342,112 348,169" stroke="none" /><polygon fill="#c8c8be" points="342,112 373,169 348,169" stroke="none" /><polygon fill="#e2e2d8" points="342,112 350,112 373,169" stroke="none" /><polygon fill="#e2e2d8" points="350,112 398,169 373,169" stroke="none" /><polygon fill="#aaa89e" points="348,169 373,169 348,197.95" stroke="none" /><polygon fill="#aaa89e" points="373,169 373,197.95 348,197.95" stroke="none" /><polygon fill="#e2e2d8" points="373,169 398,169 373,197.95" stroke="none" /><polygon fill="#e2e2d8" points="398,169 398,197.95 373,197.95" stroke="none" /><polygon fill="#f6d244" points="348,197.95 373,197.95 360,303" stroke="none" /><polygon fill="#f6d244" points="373,197.95 373,303 360,303" stroke="none" /><polygon fill="#f6d244" points="373,197.95 398,197.95 373,303" stroke="none" /><polygon fill="#f6d244" points="398,197.95 396,303 373,303" stroke="none" /><line stroke="#aaa89e" stroke-width="2" x1="314" x2="370" y1="171" y2="171" /><circle cx="335" cy="246" fill="#d6ae34" fill-opacity="0.15" r="0.7410056818626158" stroke="none" /><circle cx="337" cy="237" fill="#d6ae34" fill-opacity="0.15" r="1.3024475411206837" stroke="none" /><circle cx="365" cy="201" fill="#d6ae34" fill-opacity="0.15" r="0.9382791005952702" stroke="none" /><circle cx="326" cy="230" fill="#d6ae34" fill-opacity="0.15" r="1.4846322423363607" stroke="none" /><circle cx="317" cy="275" fill="#d6ae34" fill-opacity="0.15" r="1.4205432502177224" stroke="none" /><circle cx="332" cy="270" fill="#d6ae34" fill-opacity="0.15" r="0.5038053348554212" stroke="none" /><circle cx="347" cy="194" fill="#d6ae34" fill-opacity="0.15" r="0.7732529344034177" stroke="none" /><circle cx="339" cy="182" fill="#d6ae34" fill-opacity="0.15" r="0.5950522821833006" stroke="none" /><circle cx="348" cy="230" fill="#d6ae34" fill-opacity="0.15" r="0.8973946274149207" stroke="none" /><circle cx="317" cy="211" fill="#d6ae34" fill-opacity="0.15" r="1.053581592818164" stroke="none" /></svg>