<?xml version="1.0" encoding="utf-8" ?>
<svg baseProfile="full" height="512" version="1.1" width="512" xmlns="http://www.w3.org/2000/svg" xmlns:ev="http://www.w3.org/2001/xml-events" xmlns:xlink="http://www.w3.org/1999/xlink"><defs /><polygon fill="#c8c8be" points="244,80 250,80 159,112" stroke="none" /><polygon fill="#c8c8be" points="250,80 187,112 159,112" stroke="none" /><polygon fill="#e2e2d8" points="250,80 257,80 187,112" stroke="none" /><polygon fill="#e2e2d8" points="257,80 255,112 187,112" stroke="none" /><polygon fill="#f2f2ec" points="257,80 263,80 255,112" stroke="none" /><polygon fill="#e2e2d8" points="263,80 319,112 255,112" stroke="none" /><polygon fill="#e2e2d8" points="263,80 268,80 319,112" stroke="none" /><polygon fill="#c8c8be" points="268,80 349,112 319,112" stroke="none" /><polygon fill="#c8c8be" points="159,112 187,112 175,155" stroke="none" /><polygon fill="#c8c8be" points="187,112 214,155 175,155" stroke="none" /><polygon fill="#c8c8be" points="187,112 255,112 214,155" stroke="none" /><polygon fill="#f2f2ec" points="255,112 259,155 214,155" stroke="none" /><polygon fill="#f2f2ec" points="255,112 319,112 259,155" stroke="none" /><polygon fill="#c8c8be" points="319,112 296,155 259,155" stroke="none" /><polygon fill="#c8c8be" points="319,112 349,112 296,155" stroke="none" /><polygon fill="#c8c8be" points="349,112 333,155 296,155" stroke="none" /><polygon fill="#c8c8be" points="175,155 214,155 204,200" stroke="none" /><polygon fill="#c8c8be" points="214,155 230,200 204,200" stroke="none" /><polygon fill="#f2f2ec" points="214,155 259,155 230,200" stroke="none" /><polygon fill="#f2f2ec" points="259,155 255,200 230,200" stroke="none" /><polygon fill="#f2f2ec" points="259,155 296,155 255,200" stroke="none" /><polygon fill="#e2e2d8" points="296,155 283,200 255,200" stroke="none" /><polygon fill="#c8c8be" points="296,155 333,155 283,200" stroke="none" /><polygon fill="#c8c8be" points="333,155 314,200 283,200" stroke="none" /><polygon fill="#c8c8be" points="204,200 230,200 201,300" stroke="none" /><polygon fill="#e2e2d8" points="230,200 238,300 201,300" stroke="none" /><polygon fill="#f2f2ec" points="230,200 255,200 238,300" stroke="none" /><polygon fill="#f2f2ec" points="255,200 253,300 238,300" stroke="none" /><polygon fill="#f2f2ec" points="255,200 283,200 253,300" stroke="none" /><polygon fill="#f2f2ec" points="283,200 278,300 253,300" stroke="none" /><polygon fill="#c8c8be" points="283,200 314,200 278,300" stroke="none" /><polygon fill="#c8c8be" points="314,200 311,300 278,300" stroke="none" /><polygon fill="#c8c8be" points="201,300 238,300 204,370" stroke="none" /><polygon fill="#e2e2d8" points="238,300 237,370 204,370" stroke="none" /><polygon fill="#f2f2ec" points="238,300 253,300 237,370" stroke="none" /><polygon fill="#f2f2ec" points="253,300 254,370 237,370" stroke="none" /><polygon fill="#f2f2ec" points="253,300 278,300 254,370" stroke="none" /><polygon fill="#f2f2ec" points="278,300 273,370 254,370" stroke="none" /><polygon fill="#e2e2d8" points="278,300 311,300 273,370" stroke="none" /><polygon fill="#c8c8be" points="311,300 308,370 273,370" stroke="none" /><polygon fill="#c8c8be" points="204,370 237,370 193,430" stroke="none" /><polygon fill="#e2e2d8" points="237,370 238,430 193,430" stroke="none" /><polygon fill="#f2f2ec" points="237,370 254,370 238,430" stroke="none" /><polygon fill="#f2f2ec" points="254,370 256,430 238,430" stroke="none" /><polygon fill="#f2f2ec" points="254,370 273,370 256,430" stroke="none" /><polygon fill="#f2f2ec" points="273,370 274,430 256,430" stroke="none" /><polygon fill="#e2e2d8" points="273,370 308,370 274,430" stroke="none" /><polygon fill="#c8c8be" points="308,370 318,430 274,430" stroke="none" /><polygon fill="#c8c8be" points="239,95 256,110 273,95" stroke="#999" stroke-width="1.5" /><circle cx="256" cy="135" fill="#ddd" r="3" stroke="#999" stroke-width="1" /><circle cx="256" cy="165" fill="#ddd" r="3" stroke="#999" stroke-width="1" /><circle cx="256" cy="195" fill="#ddd" r="3" stroke="#999" stroke-width="1" /><rect fill="#e2e2d8" height="11" stroke="#aaa89e" stroke-width="1.5" width="13" x="228" y="145" /><line stroke="#aaa89e" stroke-width="2" x1="225" x2="287" y1="420" y2="420" /><path d="M 221 152 Q 235 166 249 152" fill="none" stroke="#aaa89e" stroke-width="1.5" /><path d="M 263 152 Q 277 166 291 152" fill="none" stroke="#aaa89e" stroke-width="1.5" /><line stroke="#aaa89e" stroke-width="1.2" x1="244" x2="226" y1="215" y2="215" /><line stroke="#aaa89e" stroke-width="1.2" x1="268" x2="286" y1="215" y2="215" /><line stroke="#aaa89e" stroke-width="1.2" x1="244" x2="226" y1="240" y2="240" /><line stroke="#aaa89e" stroke-width="1.2" x1="268" x2="286" y1="240" y2="240" /><line stroke="#aaa89e" stroke-width="1.2" x1="244" x2="226" y1="265" y2="265" /><line stroke="#aaa89e" stroke-width="1.2" x1="268" x2="286" y1="265" y2="265" /><line stroke="#aaa89e" stroke-width="1.2" x1="244" x2="226" y1="290" y2="290" /><line stroke="#aaa89e" stroke-width="1.2" x1="268" x2="286" y1="290" y2="290" /><polygon fill="#c8c8be" points="157,112 165,112 123,168" stroke="none" /><polygon fill="#c8c8be" points="165,112 148,168 123,168" stroke="none" /><polygon fill="#e2e2d8" points="165,112 173,112 148,168" stroke="none" /><polygon fill="#e2e2d8" points="173,112 173,168 148,168" stroke="none" /><polygon fill="#aaa89e" points="123,168 148,168 123,196.15" stroke="none" /><polygon fill="#aaa89e" points="148,168 148,196.15 123,196.15" stroke="none" /><polygon fill="#e2e2d8" points="148,168 173,168 148,196.15" stroke="none" /><polygon fill="#e2e2d8" points="173,168 173,196.15 148,196.15" stroke="none" /><polygon fill="#f5d040" points="123,196.15 148,196.15 125,299" stroke="none" /><polygon fill="#f5d040" points="148,196.15 148,299 125,299" stroke="none" /><polygon fill="#f5d040" points="148,196.15 173,196.15 148,299" stroke="none" /><polygon fill="#f5d040" points="173,196.15 161,299 148,299" stroke="none" /><line stroke="#aaa89e" stroke-width="2" x1="137" x2="193" y1="170" y2="170" /><path d="M 152 287 Q 156 283 160 287" fill="none" stroke="#d4c0a0" stroke-opacity="0.3" stroke-width="1" /><path d="M 169 252 Q 173 248 177 252" fill="none" stroke="#d4c0a0" stroke-opacity="0.3" stroke-width="1" /><path d="M 185 190 Q 189 186 193 190" fill="none" stroke="#d4c0a0" stroke-opacity="0.3" stroke-width="1" /><path d="M 145 248 Q 150 243 155 248" fill="none" stroke="#d4c0a0" stroke-opacity="0.3" stroke-width="1" /><path d="M 178 225 Q 181 222 184 225" fill="none" stroke="#d4c0a0" stroke-opacity="0.3" stroke-width="1" /><polygon fill="#c8c8be" points="339,112 347,112 341,172" stroke="none" /><polygon fill="#c8c8be" points="347,112 366,172 341,172" stroke="none" /><polygon fill="#e2e2d8" points="347,112 355,112 366,172" stroke="none" /><polygon fill="#e2e2d8" points="355,112 391,172 366,172" stroke="none" /><polygon fill="#aaa89e" points="341,172 366,172 341,202.9" stroke="none" /><polygon fill="#aaa89e" points="366,172 366,202.9 341,202.9" stroke="none" /><polygon fill="#e2e2d8" points="366,172 391,172 366,202.9" stroke="none" /><polygon fill="#e2e2d8" points="391,172 391,202.9 366,202.9" stroke="none" /><polygon fill="#f5d040" points="341,202.9 366,202.9 353,314" stroke="none" /><polygon fill="#f5d040" points="366,202.9 366,314 353,314" stroke="none" /><polygon fill="#f5d040" points="366,202.9 391,202.9 366,314" stroke="none" /><polygon fill="#f5d040" points="391,202.9 389,314 366,314" stroke="none" /><line stroke="#aaa89e" stroke-width="2" x1="319" x2="375" y1="174" y2="174" /><path d="M 347 215 Q 350 212 353 215" fill="none" stroke="#d4c0a0" stroke-opacity="0.3" stroke-width="1" /><path d="M 354 244 Q 356 242 358 244" fill="none" stroke="#d4c0a0" stroke-opacity="0.3" stroke-width="1" /><path d="M 326 228 Q 329 225 332 228" fill="none" stroke="#d4c0a0" stroke-opacity="0.3" stroke-width="1" /><path d="M 346 205 Q 349 202 352 205" fill="none" stroke="#d4c0a0" stroke-opacity="0.3" stroke-width="1" /></svg>