<?xml version="1.0" encoding="utf-8" ?>
<svg baseProfile="full" height="512" version="1.1" width="512" xmlns="http://www.w3.org/2000/svg" xmlns:ev="http://www.w3.org/2001/xml-events" xmlns:xlink="http://www.w3.org/1999/xlink"><defs /><polygon fill="#c8c8be" points="245,80 250,80 147,112" stroke="none" /><polygon fill="#c8c8be" points="250,80 181,112 147,112" stroke="none" /><polygon fill="#e2e2d8" points="250,80 255,80 181,112" stroke="none" /><polygon fill="#e2e2d8" points="255,80 258,112 181,112" stroke="none" /><polygon fill="#f2f2ec" points="255,80 261,80 258,112" stroke="none" /><polygon fill="#e2e2d8" points="261,80 330,112 258,112" stroke="none" /><polygon fill="#e2e2d8" points="261,80 267,80 330,112" stroke="none" /><polygon fill="#c8c8be" points="267,80 366,112 330,112" stroke="none" /><polygon fill="#c8c8be" points="147,112 181,112 163,155" stroke="none" /><polygon fill="#c8c8be" points="181,112 206,155 163,155" stroke="none" /><polygon fill="#c8c8be" points="181,112 258,112 206,155" stroke="none" /><polygon fill="#f2f2ec" points="258,112 259,155 206,155" stroke="none" /><polygon fill="#e2e2d8" points="258,112 330,112 259,155" stroke="none" /><polygon fill="#c8c8be" points="330,112 307,155 259,155" stroke="none" /><polygon fill="#c8c8be" points="330,112 366,112 307,155" stroke="none" /><polygon fill="#c8c8be" points="366,112 344,155 307,155" stroke="none" /><polygon fill="#c8c8be" points="163,155 206,155 198,200" stroke="none" /><polygon fill="#c8c8be" points="206,155 232,200 198,200" stroke="none" /><polygon fill="#e2e2d8" points="206,155 259,155 232,200" stroke="none" /><polygon fill="#f2f2ec" points="259,155 257,200 232,200" stroke="none" /><polygon fill="#f2f2ec" points="259,155 307,155 257,200" stroke="none" /><polygon fill="#e2e2d8" points="307,155 281,200 257,200" stroke="none" /><polygon fill="#c8c8be" points="307,155 344,155 281,200" stroke="none" /><polygon fill="#c8c8be" points="344,155 312,200 281,200" stroke="none" /><polygon fill="#c8c8be" points="198,200 232,200 198,300" stroke="none" /><polygon fill="#e2e2d8" points="232,200 235,300 198,300" stroke="none" /><polygon fill="#f2f2ec" points="232,200 257,200 235,300" stroke="none" /><polygon fill="#f2f2ec" points="257,200 255,300 235,300" stroke="none" /><polygon fill="#f2f2ec" points="257,200 281,200 255,300" stroke="none" /><polygon fill="#f2f2ec" points="281,200 278,300 255,300" stroke="none" /><polygon fill="#e2e2d8" points="281,200 312,200 278,300" stroke="none" /><polygon fill="#c8c8be" points="312,200 315,300 278,300" stroke="none" /><polygon fill="#c8c8be" points="198,300 235,300 198,370" stroke="none" /><polygon fill="#e2e2d8" points="235,300 240,370 198,370" stroke="none" /><polygon fill="#f2f2ec" points="235,300 255,300 240,370" stroke="none" /><polygon fill="#f2f2ec" points="255,300 259,370 240,370" stroke="none" /><polygon fill="#f2f2ec" points="255,300 278,300 259,370" stroke="none" /><polygon fill="#f2f2ec" points="278,300 278,370 259,370" stroke="none" /><polygon fill="#e2e2d8" points="278,300 315,300 278,370" stroke="none" /><polygon fill="#c8c8be" points="315,300 311,370 278,370" stroke="none" /><polygon fill="#c8c8be" points="198,370 240,370 190,430" stroke="none" /><polygon fill="#e2e2d8" points="240,370 237,430 190,430" stroke="none" /><polygon fill="#f2f2ec" points="240,370 259,370 237,430" stroke="none" /><polygon fill="#f2f2ec" points="259,370 257,430 237,430" stroke="none" /><polygon fill="#f2f2ec" points="259,370 278,370 257,430" stroke="none" /><polygon fill="#f2f2ec" points="278,370 274,430 257,430" stroke="none" /><polygon fill="#e2e2d8" points="278,370 311,370 274,430" stroke="none" /><polygon fill="#c8c8be" points="311,370 321,430 274,430" stroke="none" /><polygon fill="#c8c8be" points="237,95 256,110 275,95" stroke="#999" stroke-width="1.5" /><circle cx="256" cy="135" fill="#ddd" r="3" stroke="#999" stroke-width="1" /><circle cx="256" cy="165" fill="#ddd" r="3" stroke="#999" stroke-width="1" /><circle cx="256" cy="195" fill="#ddd" r="3" stroke="#999" stroke-width="1" /><rect fill="#e2e2d8" height="12" stroke="#aaa89e" stroke-width="1.5" width="15" x="224" y="145" /><line stroke="#aaa89e" stroke-width="2" x1="224" x2="288" y1="420" y2="420" /><path d="M 220 152 Q 234 166 248 152" fill="none" stroke="#aaa89e" stroke-width="1.5" /><path d="M 264 152 Q 278 166 292 152" fill="none" stroke="#aaa89e" stroke-width="1.5" /><line stroke="#aaa89e" stroke-width="1.2" x1="244" x2="226" y1="215" y2="215" /><line stroke="#aaa89e" stroke-width="1.2" x1="268" x2="286" y1="215" y2="215" /><line stroke="#aaa89e" stroke-width="1.2" x1="244" x2="226" y1="240" y2="240" /><line stroke="#aaa89e" stroke-width="1.2" x1="268" x2="286" y1="240" y2="240" /><line stroke="#aaa89e" stroke-width="1.2" x1="244" x2="226" y1="265" y2="265" /><line stroke="#aaa89e" stroke-width="1.2" x1="268" x2="286" y1="265" y2="265" /><line stroke="#aaa89e" stroke-width="1.2" x1="244" x2="226" y1="290" y2="290" /><line stroke="#aaa89e" stroke-width="1.2" x1="268" x2="286" y1="290" y2="290" /><polygon fill="#c8c8be" points="144,112 152,112 100,172" stroke="none" /><polygon fill="#c8c8be" points="152,112 133,172 100,172" stroke="none" /><polygon fill="#e2e2d8" points="152,112 160,112 133,172" stroke="none" /><polygon fill="#e2e2d8" points="160,112 166,172 133,172" stroke="none" /><polygon fill="#aaa89e" points="100,172 133,172 100,203.35000000000002" stroke="none" /><polygon fill="#aaa89e" points="133,172 133,203.35000000000002 100,203.35000000000002" stroke="none" /><polygon fill="#e2e2d8" points="133,172 166,172 133,203.35000000000002" stroke="none" /><polygon fill="#e2e2d8" points="166,172 166,203.35000000000002 133,203.35000000000002" stroke="none" /><polygon fill="#f4cc2a" points="100,203.35000000000002 133,203.35000000000002 104,315" stroke="none" /><polygon fill="#f4cc2a" points="133,203.35000000000002 133,315 104,315" stroke="none" /><polygon fill="#f4cc2a" points="133,203.35000000000002 166,203.35000000000002 133,315" stroke="none" /><polygon fill="#f4cc2a" points="166,203.35000000000002 152,315 133,315" stroke="none" /><line stroke="#aaa89e" stroke-width="2" x1="114" x2="190" y1="174" y2="174" /><ellipse cx="138" cy="236" fill="white" fill-opacity="0.12" rx="3" ry="2" stroke="none" /><ellipse cx="153" cy="214" fill="white" fill-opacity="0.12" rx="3" ry="2" stroke="none" /><polygon fill="#c8c8be" points="352,112 360,112 349,177" stroke="none" /><polygon fill="#c8c8be" points="360,112 382,177 349,177" stroke="none" /><polygon fill="#e2e2d8" points="360,112 368,112 382,177" stroke="none" /><polygon fill="#e2e2d8" points="368,112 415,177 382,177" stroke="none" /><polygon fill="#aaa89e" points="349,177 382,177 349,209.65" stroke="none" /><polygon fill="#aaa89e" points="382,177 382,209.65 349,209.65" stroke="none" /><polygon fill="#e2e2d8" points="382,177 415,177 382,209.65" stroke="none" /><polygon fill="#e2e2d8" points="415,177 415,209.65 382,209.65" stroke="none" /><polygon fill="#f4cc2a" points="349,209.65 382,209.65 363,329" stroke="none" /><polygon fill="#f4cc2a" points="382,209.65 382,329 363,329" stroke="none" /><polygon fill="#f4cc2a" points="382,209.65 415,209.65 382,329" stroke="none" /><polygon fill="#f4cc2a" points="415,209.65 411,329 382,329" stroke="none" /><line stroke="#aaa89e" stroke-width="2" x1="322" x2="398" y1="179" y2="179" /><ellipse cx="360" cy="247" fill="white" fill-opacity="0.12" rx="3" ry="2" stroke="none" /><ellipse cx="346" cy="270" fill="white" fill-opacity="0.12" rx="3" ry="2" stroke="none" /><ellipse cx="343" cy="275" fill="white" fill-opacity="0.12" rx="3" ry="2" stroke="none" /><ellipse cx="343" cy="253" fill="white" fill-opacity="0.12" rx="3" ry="2" stroke="none" /></svg>