<?xml version="1.0" encoding="utf-8" ?>
<svg baseProfile="full" height="512" version="1.1" width="512" xmlns="http://www.w3.org/2000/svg" xmlns:ev="http://www.w3.org/2001/xml-events" xmlns:xlink="http://www.w3.org/1999/xlink"><defs /><polygon fill="#c8c8be" points="243,80 249,80 159,112" stroke="none" /><polygon fill="#c8c8be" points="249,80 189,112 159,112" stroke="none" /><polygon fill="#e2e2d8" points="249,80 256,80 189,112" stroke="none" /><polygon fill="#e2e2d8" points="256,80 258,112 189,112" stroke="none" /><polygon fill="#f2f2ec" points="256,80 262,80 258,112" stroke="none" /><polygon fill="#e2e2d8" points="262,80 324,112 258,112" stroke="none" /><polygon fill="#c8c8be" points="262,80 269,80 324,112" stroke="none" /><polygon fill="#c8c8be" points="269,80 352,112 324,112" stroke="none" /><polygon fill="#c8c8be" points="159,112 189,112 170,155" stroke="none" /><polygon fill="#c8c8be" points="189,112 212,155 170,155" stroke="none" /><polygon fill="#c8c8be" points="189,112 258,112 212,155" stroke="none" /><polygon fill="#f2f2ec" points="258,112 258,155 212,155" stroke="none" /><polygon fill="#e2e2d8" points="258,112 324,112 258,155" stroke="none" /><polygon fill="#c8c8be" points="324,112 302,155 258,155" stroke="none" /><polygon fill="#c8c8be" points="324,112 352,112 302,155" stroke="none" /><polygon fill="#c8c8be" points="352,112 336,155 302,155" stroke="none" /><polygon fill="#aaa89e" points="170,155 212,155 208,200" stroke="none" /><polygon fill="#aaa89e" points="212,155 234,200 208,200" stroke="none" /><polygon fill="#e2e2d8" points="212,155 258,155 234,200" stroke="none" /><polygon fill="#f2f2ec" points="258,155 256,200 234,200" stroke="none" /><polygon fill="#f2f2ec" points="258,155 302,155 256,200" stroke="none" /><polygon fill="#e2e2d8" points="302,155 278,200 256,200" stroke="none" /><polygon fill="#aaa89e" points="302,155 336,155 278,200" stroke="none" /><polygon fill="#aaa89e" points="336,155 298,200 278,200" stroke="none" /><polygon fill="#c8c8be" points="208,200 234,200 212,300" stroke="none" /><polygon fill="#c8c8be" points="234,200 239,300 212,300" stroke="none" /><polygon fill="#f2f2ec" points="234,200 256,200 239,300" stroke="none" /><polygon fill="#f2f2ec" points="256,200 259,300 239,300" stroke="none" /><polygon fill="#f2f2ec" points="256,200 278,200 259,300" stroke="none" /><polygon fill="#f2f2ec" points="278,200 276,300 259,300" stroke="none" /><polygon fill="#c8c8be" points="278,200 298,200 276,300" stroke="none" /><polygon fill="#c8c8be" points="298,200 301,300 276,300" stroke="none" /><polygon fill="#c8c8be" points="212,300 239,300 211,370" stroke="none" /><polygon fill="#e2e2d8" points="239,300 241,370 211,370" stroke="none" /><polygon fill="#f2f2ec" points="239,300 259,300 241,370" stroke="none" /><polygon fill="#f2f2ec" points="259,300 258,370 241,370" stroke="none" /><polygon fill="#f2f2ec" points="259,300 276,300 258,370" stroke="none" /><polygon fill="#f2f2ec" points="276,300 274,370 258,370" stroke="none" /><polygon fill="#c8c8be" points="276,300 301,300 274,370" stroke="none" /><polygon fill="#c8c8be" points="301,300 298,370 274,370" stroke="none" /><polygon fill="#c8c8be" points="211,370 241,370 205,430" stroke="none" /><polygon fill="#e2e2d8" points="241,370 241,430 205,430" stroke="none" /><polygon fill="#f2f2ec" points="241,370 258,370 241,430" stroke="none" /><polygon fill="#f2f2ec" points="258,370 256,430 241,430" stroke="none" /><polygon fill="#f2f2ec" points="258,370 274,370 256,430" stroke="none" /><polygon fill="#f2f2ec" points="274,370 270,430 256,430" stroke="none" /><polygon fill="#e2e2d8" points="274,370 298,370 270,430" stroke="none" /><polygon fill="#c8c8be" points="298,370 306,430 270,430" stroke="none" /><polygon fill="#c8c8be" points="239,95 256,110 273,95" stroke="#999" stroke-width="1.5" /><circle cx="256" cy="135" fill="#ddd" r="3" stroke="#999" stroke-width="1" /><circle cx="256" cy="165" fill="#ddd" r="3" stroke="#999" stroke-width="1" /><circle cx="256" cy="195" fill="#ddd" r="3" stroke="#999" stroke-width="1" /><rect fill="#e2e2d8" height="11" stroke="#aaa89e" stroke-width="1.5" width="13" x="227" y="145" /><line stroke="#aaa89e" stroke-width="2" x1="231" x2="281" y1="420" y2="420" /><path d="M 225 152 Q 239 166 253 152" fill="none" stroke="#aaa89e" stroke-width="1.5" /><path d="M 259 152 Q 273 166 287 152" fill="none" stroke="#aaa89e" stroke-width="1.5" /><line stroke="#aaa89e" stroke-width="1.2" x1="244" x2="226" y1="215" y2="215" /><line stroke="#aaa89e" stroke-width="1.2" x1="268" x2="286" y1="215" y2="215" /><line stroke="#aaa89e" stroke-width="1.2" x1="244" x2="226" y1="240" y2="240" /><line stroke="#aaa89e" stroke-width="1.2" x1="268" x2="286" y1="240" y2="240" /><line stroke="#aaa89e" stroke-width="1.2" x1="244" x2="226" y1="265" y2="265" /><line stroke="#aaa89e" stroke-width="1.2" x1="268" x2="286" y1="265" y2="265" /><line stroke="#aaa89e" stroke-width="1.2" x1="244" x2="226" y1="290" y2="290" /><line stroke="#aaa89e" stroke-width="1.2" x1="268" x2="286" y1="290" y2="290" /><path d="M 222 165 Q 234 186 246 165" fill="none" stroke="#aaa89e" stroke-width="1.5" /><path d="M 266 165 Q 278 186 290 165" fill="none" stroke="#aaa89e" stroke-width="1.5" /><polygon fill="#c8c8be" points="154,112 162,112 130,166" stroke="none" /><polygon fill="#c8c8be" points="162,112 162,166 130,166" stroke="none" /><polygon fill="#e2e2d8" points="162,112 170,112 162,166" stroke="none" /><polygon fill="#e2e2d8" points="170,112 194,166 162,166" stroke="none" /><polygon fill="#aaa89e" points="130,166 162,166 130,193.9" stroke="none" /><polygon fill="#aaa89e" points="162,166 162,193.9 130,193.9" stroke="none" /><polygon fill="#e2e2d8" points="162,166 194,166 162,193.9" stroke="none" /><polygon fill="#e2e2d8" points="194,166 194,193.9 162,193.9" stroke="none" /><polygon fill="#f5ce2e" points="130,193.9 162,193.9 141,294" stroke="none" /><polygon fill="#f5ce2e" points="162,193.9 162,294 141,294" stroke="none" /><polygon fill="#f5ce2e" points="162,193.9 194,193.9 162,294" stroke="none" /><polygon fill="#f5ce2e" points="194,193.9 183,294 162,294" stroke="none" /><line stroke="#aaa89e" stroke-width="2" x1="134" x2="190" y1="168" y2="168" /><ellipse cx="177" cy="246" fill="white" fill-opacity="0.12" rx="3" ry="2" stroke="none" /><ellipse cx="168" cy="261" fill="white" fill-opacity="0.12" rx="3" ry="2" stroke="none" /><polygon fill="#c8c8be" points="342,112 350,112 318,171" stroke="none" /><polygon fill="#c8c8be" points="350,112 350,171 318,171" stroke="none" /><polygon fill="#e2e2d8" points="350,112 358,112 350,171" stroke="none" /><polygon fill="#e2e2d8" points="358,112 382,171 350,171" stroke="none" /><polygon fill="#aaa89e" points="318,171 350,171 318,201.10000000000002" stroke="none" /><polygon fill="#aaa89e" points="350,171 350,201.10000000000002 318,201.10000000000002" stroke="none" /><polygon fill="#e2e2d8" points="350,171 382,171 350,201.10000000000002" stroke="none" /><polygon fill="#e2e2d8" points="382,171 382,201.10000000000002 350,201.10000000000002" stroke="none" /><polygon fill="#f5ce2e" points="318,201.10000000000002 350,201.10000000000002 329,310" stroke="none" /><polygon fill="#f5ce2e" points="350,201.10000000000002 350,310 329,310" stroke="none" /><polygon fill="#f5ce2e" points="350,201.10000000000002 382,201.10000000000002 350,310" stroke="none" /><polygon fill="#f5ce2e" points="382,201.10000000000002 371,310 350,310" stroke="none" /><line stroke="#aaa89e" stroke-width="2" x1="322" x2="378" y1="173" y2="173" /><ellipse cx="360" cy="207" fill="white" fill-opacity="0.12" rx="3" ry="2" stroke="none" /><ellipse cx="356" cy="236" fill="white" fill-opacity="0.12" rx="3" ry="2" stroke="none" /><ellipse cx="355" cy="248" fill="white" fill-opacity="0.12" rx="3" ry="2" stroke="none" /></svg>