<?xml version="1.0" encoding="utf-8" ?>
<svg baseProfile="full" height="512" version="1.1" width="512" xmlns="http://www.w3.org/2000/svg" xmlns:ev="http://www.w3.org/2001/xml-events" xmlns:xlink="http://www.w3.org/1999/xlink"><defs /><polygon fill="#c8c8be" points="245,80 250,80 127,112" stroke="none" /><polygon fill="#c8c8be" points="250,80 169,112 127,112" stroke="none" /><polygon fill="#e2e2d8" points="250,80 257,80 169,112" stroke="none" /><polygon fill="#f2f2ec" points="257,80 258,112 169,112" stroke="none" /><polygon fill="#f2f2ec" points="257,80 261,80 258,112" stroke="none" /><polygon fill="#e2e2d8" points="261,80 342,112 258,112" stroke="none" /><polygon fill="#e2e2d8" points="261,80 267,80 342,112" stroke="none" /><polygon fill="#c8c8be" points="267,80 383,112 342,112" stroke="none" /><polygon fill="#c8c8be" points="127,112 169,112 151,155" stroke="none" /><polygon fill="#c8c8be" points="169,112 198,155 151,155" stroke="none" /><polygon fill="#c8c8be" points="169,112 258,112 198,155" stroke="none" /><polygon fill="#f2f2ec" points="258,112 255,155 198,155" stroke="none" /><polygon fill="#e2e2d8" points="258,112 342,112 255,155" stroke="none" /><polygon fill="#c8c8be" points="342,112 309,155 255,155" stroke="none" /><polygon fill="#c8c8be" points="342,112 383,112 309,155" stroke="none" /><polygon fill="#c8c8be" points="383,112 362,155 309,155" stroke="none" /><polygon fill="#c8c8be" points="151,155 198,155 183,200" stroke="none" /><polygon fill="#c8c8be" points="198,155 226,200 183,200" stroke="none" /><polygon fill="#e2e2d8" points="198,155 255,155 226,200" stroke="none" /><polygon fill="#f2f2ec" points="255,155 258,200 226,200" stroke="none" /><polygon fill="#f2f2ec" points="255,155 309,155 258,200" stroke="none" /><polygon fill="#e2e2d8" points="309,155 288,200 258,200" stroke="none" /><polygon fill="#c8c8be" points="309,155 362,155 288,200" stroke="none" /><polygon fill="#c8c8be" points="362,155 332,200 288,200" stroke="none" /><polygon fill="#c8c8be" points="183,200 226,200 180,300" stroke="none" /><polygon fill="#e2e2d8" points="226,200 227,300 180,300" stroke="none" /><polygon fill="#f2f2ec" points="226,200 258,200 227,300" stroke="none" /><polygon fill="#f2f2ec" points="258,200 256,300 227,300" stroke="none" /><polygon fill="#f2f2ec" points="258,200 288,200 256,300" stroke="none" /><polygon fill="#f2f2ec" points="288,200 285,300 256,300" stroke="none" /><polygon fill="#c8c8be" points="288,200 332,200 285,300" stroke="none" /><polygon fill="#c8c8be" points="332,200 332,300 285,300" stroke="none" /><polygon fill="#c8c8be" points="180,300 227,300 182,370" stroke="none" /><polygon fill="#e2e2d8" points="227,300 234,370 182,370" stroke="none" /><polygon fill="#f2f2ec" points="227,300 256,300 234,370" stroke="none" /><polygon fill="#f2f2ec" points="256,300 253,370 234,370" stroke="none" /><polygon fill="#f2f2ec" points="256,300 285,300 253,370" stroke="none" /><polygon fill="#f2f2ec" points="285,300 277,370 253,370" stroke="none" /><polygon fill="#e2e2d8" points="285,300 332,300 277,370" stroke="none" /><polygon fill="#c8c8be" points="332,300 331,370 277,370" stroke="none" /><polygon fill="#c8c8be" points="182,370 234,370 174,430" stroke="none" /><polygon fill="#e2e2d8" points="234,370 233,430 174,430" stroke="none" /><polygon fill="#f2f2ec" points="234,370 253,370 233,430" stroke="none" /><polygon fill="#f2f2ec" points="253,370 257,430 233,430" stroke="none" /><polygon fill="#f2f2ec" points="253,370 277,370 257,430" stroke="none" /><polygon fill="#f2f2ec" points="277,370 280,430 257,430" stroke="none" /><polygon fill="#e2e2d8" points="277,370 331,370 280,430" stroke="none" /><polygon fill="#c8c8be" points="331,370 338,430 280,430" stroke="none" /><polygon fill="#c8c8be" points="234,95 256,110 278,95" stroke="#999" stroke-width="1.5" /><circle cx="256" cy="135" fill="#ddd" r="3" stroke="#999" stroke-width="1" /><circle cx="256" cy="165" fill="#ddd" r="3" stroke="#999" stroke-width="1" /><circle cx="256" cy="195" fill="#ddd" r="3" stroke="#999" stroke-width="1" /><rect fill="#e2e2d8" height="15" stroke="#aaa89e" stroke-width="1.5" width="17" x="219" y="145" /><line stroke="#aaa89e" stroke-width="2" x1="215" x2="297" y1="420" y2="420" /><path d="M 214 152 Q 228 166 242 152" fill="none" stroke="#aaa89e" stroke-width="1.5" /><path d="M 270 152 Q 284 166 298 152" fill="none" stroke="#aaa89e" stroke-width="1.5" /><line stroke="#aaa89e" stroke-width="1.2" x1="244" x2="226" y1="215" y2="215" /><line stroke="#aaa89e" stroke-width="1.2" x1="268" x2="286" y1="215" y2="215" /><line stroke="#aaa89e" stroke-width="1.2" x1="244" x2="226" y1="240" y2="240" /><line stroke="#aaa89e" stroke-width="1.2" x1="268" x2="286" y1="240" y2="240" /><line stroke="#aaa89e" stroke-width="1.2" x1="244" x2="226" y1="265" y2="265" /><line stroke="#aaa89e" stroke-width="1.2" x1="268" x2="286" y1="265" y2="265" /><line stroke="#aaa89e" stroke-width="1.2" x1="244" x2="226" y1="290" y2="290" /><line stroke="#aaa89e" stroke-width="1.2" x1="268" x2="286" y1="290" y2="290" /><path d="M 232 260 Q 256 278 280 260" fill="none" stroke="#aaa89e" stroke-width="1.5" /><polygon fill="#c8c8be" points="126,112 134,112 80,179" stroke="none" /><polygon fill="#c8c8be" points="134,112 134,179 80,179" stroke="none" /><polygon fill="#e2e2d8" points="134,112 142,112 134,179" stroke="none" /><polygon fill="#e2e2d8" points="142,112 188,179 134,179" stroke="none" /><polygon fill="#aaa89e" points="80,179 134,179 80,212.8" stroke="none" /><polygon fill="#aaa89e" points="134,179 134,212.8 80,212.8" stroke="none" /><polygon fill="#e2e2d8" points="134,179 188,179 134,212.8" stroke="none" /><polygon fill="#e2e2d8" points="188,179 188,212.8 134,212.8" stroke="none" /><polygon fill="#f3ca24" points="80,212.8 134,212.8 98,336" stroke="none" /><polygon fill="#f3ca24" points="134,212.8 134,336 98,336" stroke="none" /><polygon fill="#f3ca24" points="134,212.8 188,212.8 134,336" stroke="none" /><polygon fill="#f3ca24" points="188,212.8 170,336 134,336" stroke="none" /><line stroke="#aaa89e" stroke-width="2" x1="86" x2="182" y1="181" y2="181" /><polygon fill="#c8c8be" points="370,112 378,112 324,179" stroke="none" /><polygon fill="#c8c8be" points="378,112 378,179 324,179" stroke="none" /><polygon fill="#e2e2d8" points="378,112 386,112 378,179" stroke="none" /><polygon fill="#e2e2d8" points="386,112 432,179 378,179" stroke="none" /><polygon fill="#aaa89e" points="324,179 378,179 324,213.25" stroke="none" /><polygon fill="#aaa89e" points="378,179 378,213.25 324,213.25" stroke="none" /><polygon fill="#e2e2d8" points="378,179 432,179 378,213.25" stroke="none" /><polygon fill="#e2e2d8" points="432,179 432,213.25 378,213.25" stroke="none" /><polygon fill="#f3ca24" points="324,213.25 378,213.25 342,337" stroke="none" /><polygon fill="#f3ca24" points="378,213.25 378,337 342,337" stroke="none" /><polygon fill="#f3ca24" points="378,213.25 432,213.25 378,337" stroke="none" /><polygon fill="#f3ca24" points="432,213.25 414,337 378,337" stroke="none" /><line stroke="#aaa89e" stroke-width="2" x1="330" x2="426" y1="181" y2="181" /></svg>