<?xml version="1.0" encoding="utf-8" ?>
<svg baseProfile="full" height="512" version="1.1" width="512" xmlns="http://www.w3.org/2000/svg" xmlns:ev="http://www.w3.org/2001/xml-events" xmlns:xlink="http://www.w3.org/1999/xlink"><defs /><polygon fill="#c8c8be" points="245,80 249,80 156,112" stroke="none" /><polygon fill="#c8c8be" points="249,80 188,112 156,112" stroke="none" /><polygon fill="#c8c8be" points="249,80 256,80 188,112" stroke="none" /><polygon fill="#c8c8be" points="256,80 254,112 188,112" stroke="none" /><polygon fill="#f2f2ec" points="256,80 263,80 254,112" stroke="none" /><polygon fill="#c8c8be" points="263,80 328,112 254,112" stroke="none" /><polygon fill="#c8c8be" points="263,80 267,80 328,112" stroke="none" /><polygon fill="#c8c8be" points="267,80 357,112 328,112" stroke="none" /><polygon fill="#c8c8be" points="156,112 188,112 172,155" stroke="none" /><polygon fill="#c8c8be" points="188,112 213,155 172,155" stroke="none" /><polygon fill="#c8c8be" points="188,112 254,112 213,155" stroke="none" /><polygon fill="#e2e2d8" points="254,112 255,155 213,155" stroke="none" /><polygon fill="#c8c8be" points="254,112 328,112 255,155" stroke="none" /><polygon fill="#c8c8be" points="328,112 297,155 255,155" stroke="none" /><polygon fill="#c8c8be" points="328,112 357,112 297,155" stroke="none" /><polygon fill="#c8c8be" points="357,112 340,155 297,155" stroke="none" /><polygon fill="#c8c8be" points="172,155 213,155 218,200" stroke="none" /><polygon fill="#c8c8be" points="213,155 240,200 218,200" stroke="none" /><polygon fill="#e2e2d8" points="213,155 255,155 240,200" stroke="none" /><polygon fill="#f2f2ec" points="255,155 258,200 240,200" stroke="none" /><polygon fill="#f2f2ec" points="255,155 297,155 258,200" stroke="none" /><polygon fill="#e2e2d8" points="297,155 269,200 258,200" stroke="none" /><polygon fill="#c8c8be" points="297,155 340,155 269,200" stroke="none" /><polygon fill="#c8c8be" points="340,155 295,200 269,200" stroke="none" /><polygon fill="#c8c8be" points="218,200 240,200 216,300" stroke="none" /><polygon fill="#c8c8be" points="240,200 241,300 216,300" stroke="none" /><polygon fill="#f2f2ec" points="240,200 258,200 241,300" stroke="none" /><polygon fill="#f2f2ec" points="258,200 257,300 241,300" stroke="none" /><polygon fill="#f2f2ec" points="258,200 269,200 257,300" stroke="none" /><polygon fill="#f2f2ec" points="269,200 270,300 257,300" stroke="none" /><polygon fill="#e2e2d8" points="269,200 295,200 270,300" stroke="none" /><polygon fill="#c8c8be" points="295,200 297,300 270,300" stroke="none" /><polygon fill="#c8c8be" points="216,300 241,300 220,370" stroke="none" /><polygon fill="#e2e2d8" points="241,300 243,370 220,370" stroke="none" /><polygon fill="#f2f2ec" points="241,300 257,300 243,370" stroke="none" /><polygon fill="#f2f2ec" points="257,300 258,370 243,370" stroke="none" /><polygon fill="#f2f2ec" points="257,300 270,300 258,370" stroke="none" /><polygon fill="#f2f2ec" points="270,300 270,370 258,370" stroke="none" /><polygon fill="#c8c8be" points="270,300 297,300 270,370" stroke="none" /><polygon fill="#c8c8be" points="297,300 290,370 270,370" stroke="none" /><polygon fill="#c8c8be" points="220,370 243,370 216,430" stroke="none" /><polygon fill="#e2e2d8" points="243,370 243,430 216,430" stroke="none" /><polygon fill="#f2f2ec" points="243,370 258,370 243,430" stroke="none" /><polygon fill="#f2f2ec" points="258,370 256,430 243,430" stroke="none" /><polygon fill="#f2f2ec" points="258,370 270,370 256,430" stroke="none" /><polygon fill="#f2f2ec" points="270,370 268,430 256,430" stroke="none" /><polygon fill="#e2e2d8" points="270,370 290,370 268,430" stroke="none" /><polygon fill="#c8c8be" points="290,370 298,430 268,430" stroke="none" /><polygon fill="#c8c8be" points="239,95 256,110 273,95" stroke="#999" stroke-width="1.5" /><circle cx="256" cy="135" fill="#ddd" r="3" stroke="#999" stroke-width="1" /><circle cx="256" cy="165" fill="#ddd" r="3" stroke="#999" stroke-width="1" /><circle cx="256" cy="195" fill="#ddd" r="3" stroke="#999" stroke-width="1" /><rect fill="#e2e2d8" height="11" stroke="#aaa89e" stroke-width="1.5" width="13" x="227" y="145" /><line stroke="#aaa89e" stroke-width="2" x1="236" x2="276" y1="420" y2="420" /><path d="M 228 152 Q 242 166 256 152" fill="none" stroke="#aaa89e" stroke-width="1.5" /><path d="M 256 152 Q 270 166 284 152" fill="none" stroke="#aaa89e" stroke-width="1.5" /><line stroke="#aaa89e" stroke-width="1.2" x1="244" x2="226" y1="215" y2="215" /><line stroke="#aaa89e" stroke-width="1.2" x1="268" x2="286" y1="215" y2="215" /><line stroke="#aaa89e" stroke-width="1.2" x1="244" x2="226" y1="240" y2="240" /><line stroke="#aaa89e" stroke-width="1.2" x1="268" x2="286" y1="240" y2="240" /><line stroke="#aaa89e" stroke-width="1.2" x1="244" x2="226" y1="265" y2="265" /><line stroke="#aaa89e" stroke-width="1.2" x1="268" x2="286" y1="265" y2="265" /><line stroke="#aaa89e" stroke-width="1.2" x1="244" x2="226" y1="290" y2="290" /><line stroke="#aaa89e" stroke-width="1.2" x1="268" x2="286" y1="290" y2="290" /><path d="M 226 165 Q 238 186 250 165" fill="none" stroke="#aaa89e" stroke-width="1.5" /><path d="M 262 165 Q 274 186 286 165" fill="none" stroke="#aaa89e" stroke-width="1.5" /><polygon fill="#c8c8be" points="153,112 161,112 118,183" stroke="none" /><polygon fill="#c8c8be" points="161,112 146,183 118,183" stroke="none" /><polygon fill="#e2e2d8" points="161,112 169,112 146,183" stroke="none" /><polygon fill="#e2e2d8" points="169,112 174,183 146,183" stroke="none" /><polygon fill="#aaa89e" points="118,183 146,183 118,219.10000000000002" stroke="none" /><polygon fill="#aaa89e" points="146,183 146,219.10000000000002 118,219.10000000000002" stroke="none" /><polygon fill="#e2e2d8" points="146,183 174,183 146,219.10000000000002" stroke="none" /><polygon fill="#e2e2d8" points="174,183 174,219.10000000000002 146,219.10000000000002" stroke="none" /><polygon fill="#f4cc2a" points="118,219.10000000000002 146,219.10000000000002 121,350" stroke="none" /><polygon fill="#f4cc2a" points="146,219.10000000000002 146,350 121,350" stroke="none" /><polygon fill="#f4cc2a" points="146,219.10000000000002 174,219.10000000000002 146,350" stroke="none" /><polygon fill="#f4cc2a" points="174,219.10000000000002 161,350 146,350" stroke="none" /><line stroke="#aaa89e" stroke-width="2" x1="129" x2="193" y1="185" y2="185" /><path d="M 142 303 Q 146 299 150 303" fill="none" stroke="#d4c0a0" stroke-opacity="0.3" stroke-width="1" /><path d="M 151 229 Q 156 224 161 229" fill="none" stroke="#d4c0a0" stroke-opacity="0.3" stroke-width="1" /><path d="M 146 202 Q 148 200 150 202" fill="none" stroke="#d4c0a0" stroke-opacity="0.3" stroke-width="1" /><path d="M 171 319 Q 176 314 181 319" fill="none" stroke="#d4c0a0" stroke-opacity="0.3" stroke-width="1" /><path d="M 161 294 Q 166 289 171 294" fill="none" stroke="#d4c0a0" stroke-opacity="0.3" stroke-width="1" /><polygon fill="#c8c8be" points="343,112 351,112 358,180" stroke="none" /><polygon fill="#c8c8be" points="351,112 386,180 358,180" stroke="none" /><polygon fill="#e2e2d8" points="351,112 359,112 386,180" stroke="none" /><polygon fill="#e2e2d8" points="359,112 414,180 386,180" stroke="none" /><polygon fill="#aaa89e" points="358,180 386,180 358,215.05" stroke="none" /><polygon fill="#aaa89e" points="386,180 386,215.05 358,215.05" stroke="none" /><polygon fill="#e2e2d8" points="386,180 414,180 386,215.05" stroke="none" /><polygon fill="#e2e2d8" points="414,180 414,215.05 386,215.05" stroke="none" /><polygon fill="#f4cc2a" points="358,215.05 386,215.05 371,341" stroke="none" /><polygon fill="#f4cc2a" points="386,215.05 386,341 371,341" stroke="none" /><polygon fill="#f4cc2a" points="386,215.05 414,215.05 386,341" stroke="none" /><polygon fill="#f4cc2a" points="414,215.05 411,341 386,341" stroke="none" /><line stroke="#aaa89e" stroke-width="2" x1="319" x2="383" y1="182" y2="182" /><path d="M 344 290 Q 349 285 354 290" fill="none" stroke="#d4c0a0" stroke-opacity="0.3" stroke-width="1" /><path d="M 328 282 Q 332 278 336 282" fill="none" stroke="#d4c0a0" stroke-opacity="0.3" stroke-width="1" /><path d="M 334 236 Q 339 231 344 236" fill="none" stroke="#d4c0a0" stroke-opacity="0.3" stroke-width="1" /><path d="M 353 326 Q 358 321 363 326" fill="none" stroke="#d4c0a0" stroke-opacity="0.3" stroke-width="1" /><path d="M 329 196 Q 333 192 337 196" fill="none" stroke="#d4c0a0" stroke-opacity="0.3" stroke-width="1" /></svg>