<?xml version="1.0" encoding="utf-8" ?>
<svg baseProfile="full" height="512" version="1.1" width="512" xmlns="http://www.w3.org/2000/svg" xmlns:ev="http://www.w3.org/2001/xml-events" xmlns:xlink="http://www.w3.org/1999/xlink"><defs /><polygon fill="#e2e2d8" points="244,80 250,80 158,112" stroke="none" /><polygon fill="#c8c8be" points="250,80 184,112 158,112" stroke="none" /><polygon fill="#f2f2ec" points="250,80 257,80 184,112" stroke="none" /><polygon fill="#f2f2ec" points="257,80 258,112 184,112" stroke="none" /><polygon fill="#f2f2ec" points="257,80 262,80 258,112" stroke="none" /><polygon fill="#e2e2d8" points="262,80 326,112 258,112" stroke="none" /><polygon fill="#e2e2d8" points="262,80 268,80 326,112" stroke="none" /><polygon fill="#c8c8be" points="268,80 359,112 326,112" stroke="none" /><polygon fill="#c8c8be" points="158,112 184,112 174,155" stroke="none" /><polygon fill="#c8c8be" points="184,112 211,155 174,155" stroke="none" /><polygon fill="#e2e2d8" points="184,112 258,112 211,155" stroke="none" /><polygon fill="#f2f2ec" points="258,112 256,155 211,155" stroke="none" /><polygon fill="#f2f2ec" points="258,112 326,112 256,155" stroke="none" /><polygon fill="#e2e2d8" points="326,112 303,155 256,155" stroke="none" /><polygon fill="#c8c8be" points="326,112 359,112 303,155" stroke="none" /><polygon fill="#c8c8be" points="359,112 343,155 303,155" stroke="none" /><polygon fill="#c8c8be" points="174,155 211,155 189,200" stroke="none" /><polygon fill="#c8c8be" points="211,155 229,200 189,200" stroke="none" /><polygon fill="#f2f2ec" points="211,155 256,155 229,200" stroke="none" /><polygon fill="#f2f2ec" points="256,155 255,200 229,200" stroke="none" /><polygon fill="#f2f2ec" points="256,155 303,155 255,200" stroke="none" /><polygon fill="#f2f2ec" points="303,155 282,200 255,200" stroke="none" /><polygon fill="#c8c8be" points="303,155 343,155 282,200" stroke="none" /><polygon fill="#c8c8be" points="343,155 323,200 282,200" stroke="none" /><polygon fill="#c8c8be" points="189,200 229,200 183,300" stroke="none" /><polygon fill="#c8c8be" points="229,200 229,300 183,300" stroke="none" /><polygon fill="#f2f2ec" points="229,200 255,200 229,300" stroke="none" /><polygon fill="#f2f2ec" points="255,200 255,300 229,300" stroke="none" /><polygon fill="#f2f2ec" points="255,200 282,200 255,300" stroke="none" /><polygon fill="#f2f2ec" points="282,200 280,300 255,300" stroke="none" /><polygon fill="#e2e2d8" points="282,200 323,200 280,300" stroke="none" /><polygon fill="#c8c8be" points="323,200 323,300 280,300" stroke="none" /><polygon fill="#c8c8be" points="183,300 229,300 188,370" stroke="none" /><polygon fill="#e2e2d8" points="229,300 233,370 188,370" stroke="none" /><polygon fill="#f2f2ec" points="229,300 255,300 233,370" stroke="none" /><polygon fill="#f2f2ec" points="255,300 259,370 233,370" stroke="none" /><polygon fill="#f2f2ec" points="255,300 280,300 259,370" stroke="none" /><polygon fill="#f2f2ec" points="280,300 279,370 259,370" stroke="none" /><polygon fill="#e2e2d8" points="280,300 323,300 279,370" stroke="none" /><polygon fill="#c8c8be" points="323,300 322,370 279,370" stroke="none" /><polygon fill="#c8c8be" points="188,370 233,370 182,430" stroke="none" /><polygon fill="#e2e2d8" points="233,370 234,430 182,430" stroke="none" /><polygon fill="#f2f2ec" points="233,370 259,370 234,430" stroke="none" /><polygon fill="#f2f2ec" points="259,370 255,430 234,430" stroke="none" /><polygon fill="#f2f2ec" points="259,370 279,370 255,430" stroke="none" /><polygon fill="#f2f2ec" points="279,370 279,430 255,430" stroke="none" /><polygon fill="#e2e2d8" points="279,370 322,370 279,430" stroke="none" /><polygon fill="#c8c8be" points="322,370 329,430 279,430" stroke="none" /><polygon fill="#c8c8be" points="238,95 256,110 274,95" stroke="#999" stroke-width="1.5" /><circle cx="256" cy="135" fill="#ddd" r="3" stroke="#999" stroke-width="1" /><circle cx="256" cy="165" fill="#ddd" r="3" stroke="#999" stroke-width="1" /><circle cx="256" cy="195" fill="#ddd" r="3" stroke="#999" stroke-width="1" /><rect fill="#e2e2d8" height="12" stroke="#aaa89e" stroke-width="1.5" width="14" x="226" y="145" /><line stroke="#aaa89e" stroke-width="2" x1="219" x2="293" y1="420" y2="420" /><path d="M 234 260 Q 256 278 278 260" fill="none" stroke="#aaa89e" stroke-width="1.5" /><polygon fill="#c8c8be" points="151,112 159,112 125,173" stroke="none" /><polygon fill="#c8c8be" points="159,112 159,173 125,173" stroke="none" /><polygon fill="#e2e2d8" points="159,112 167,112 159,173" stroke="none" /><polygon fill="#e2e2d8" points="167,112 193,173 159,173" stroke="none" /><polygon fill="#aaa89e" points="125,173 159,173 125,204.25" stroke="none" /><polygon fill="#aaa89e" points="159,173 159,204.25 125,204.25" stroke="none" /><polygon fill="#e2e2d8" points="159,173 193,173 159,204.25" stroke="none" /><polygon fill="#e2e2d8" points="193,173 193,204.25 159,204.25" stroke="none" /><polygon fill="#f5d040" points="125,204.25 159,204.25 137,317" stroke="none" /><polygon fill="#f5d040" points="159,204.25 159,317 137,317" stroke="none" /><polygon fill="#f5d040" points="159,204.25 193,204.25 159,317" stroke="none" /><polygon fill="#f5d040" points="193,204.25 181,317 159,317" stroke="none" /><line stroke="#aaa89e" stroke-width="2" x1="129" x2="189" y1="175" y2="175" /><ellipse cx="170" cy="290" fill="white" fill-opacity="0.12" rx="3" ry="2" stroke="none" /><ellipse cx="151" cy="301" fill="white" fill-opacity="0.12" rx="3" ry="2" stroke="none" /><ellipse cx="149" cy="304" fill="white" fill-opacity="0.12" rx="3" ry="2" stroke="none" /><polygon fill="#c8c8be" points="345,112 353,112 319,174" stroke="none" /><polygon fill="#c8c8be" points="353,112 353,174 319,174" stroke="none" /><polygon fill="#e2e2d8" points="353,112 361,112 353,174" stroke="none" /><polygon fill="#e2e2d8" points="361,112 387,174 353,174" stroke="none" /><polygon fill="#aaa89e" points="319,174 353,174 319,205.15" stroke="none" /><polygon fill="#aaa89e" points="353,174 353,205.15 319,205.15" stroke="none" /><polygon fill="#e2e2d8" points="353,174 387,174 353,205.15" stroke="none" /><polygon fill="#e2e2d8" points="387,174 387,205.15 353,205.15" stroke="none" /><polygon fill="#f5d040" points="319,205.15 353,205.15 331,319" stroke="none" /><polygon fill="#f5d040" points="353,205.15 353,319 331,319" stroke="none" /><polygon fill="#f5d040" points="353,205.15 387,205.15 353,319" stroke="none" /><polygon fill="#f5d040" points="387,205.15 375,319 353,319" stroke="none" /><line stroke="#aaa89e" stroke-width="2" x1="323" x2="383" y1="176" y2="176" /><ellipse cx="353" cy="249" fill="white" fill-opacity="0.12" rx="3" ry="2" stroke="none" /><ellipse cx="371" cy="230" fill="white" fill-opacity="0.12" rx="3" ry="2" stroke="none" /><ellipse cx="350" cy="278" fill="white" fill-opacity="0.12" rx="3" ry="2" stroke="none" /></svg>