<?xml version="1.0" encoding="utf-8" ?>
<svg baseProfile="full" height="512" version="1.1" width="512" xmlns="http://www.w3.org/2000/svg" xmlns:ev="http://www.w3.org/2001/xml-events" xmlns:xlink="http://www.w3.org/1999/xlink"><defs /><polygon fill="#c8c8be" points="245,80 249,80 134,112" stroke="none" /><polygon fill="#c8c8be" points="249,80 172,112 134,112" stroke="none" /><polygon fill="#e2e2d8" points="249,80 257,80 172,112" stroke="none" /><polygon fill="#e2e2d8" points="257,80 255,112 172,112" stroke="none" /><polygon fill="#f2f2ec" points="257,80 262,80 255,112" stroke="none" /><polygon fill="#e2e2d8" points="262,80 341,112 255,112" stroke="none" /><polygon fill="#e2e2d8" points="262,80 267,80 341,112" stroke="none" /><polygon fill="#c8c8be" points="267,80 381,112 341,112" stroke="none" /><polygon fill="#c8c8be" points="134,112 172,112 149,155" stroke="none" /><polygon fill="#c8c8be" points="172,112 202,155 149,155" stroke="none" /><polygon fill="#c8c8be" points="172,112 255,112 202,155" stroke="none" /><polygon fill="#f2f2ec" points="255,112 259,155 202,155" stroke="none" /><polygon fill="#e2e2d8" points="255,112 341,112 259,155" stroke="none" /><polygon fill="#c8c8be" points="341,112 308,155 259,155" stroke="none" /><polygon fill="#c8c8be" points="341,112 381,112 308,155" stroke="none" /><polygon fill="#c8c8be" points="381,112 362,155 308,155" stroke="none" /><polygon fill="#c8c8be" points="149,155 202,155 193,200" stroke="none" /><polygon fill="#c8c8be" points="202,155 231,200 193,200" stroke="none" /><polygon fill="#e2e2d8" points="202,155 259,155 231,200" stroke="none" /><polygon fill="#f2f2ec" points="259,155 255,200 231,200" stroke="none" /><polygon fill="#f2f2ec" points="259,155 308,155 255,200" stroke="none" /><polygon fill="#e2e2d8" points="308,155 281,200 255,200" stroke="none" /><polygon fill="#c8c8be" points="308,155 362,155 281,200" stroke="none" /><polygon fill="#c8c8be" points="362,155 315,200 281,200" stroke="none" /><polygon fill="#c8c8be" points="193,200 231,200 193,300" stroke="none" /><polygon fill="#c8c8be" points="231,200 231,300 193,300" stroke="none" /><polygon fill="#f2f2ec" points="231,200 255,200 231,300" stroke="none" /><polygon fill="#f2f2ec" points="255,200 258,300 231,300" stroke="none" /><polygon fill="#f2f2ec" points="255,200 281,200 258,300" stroke="none" /><polygon fill="#f2f2ec" points="281,200 280,300 258,300" stroke="none" /><polygon fill="#e2e2d8" points="281,200 315,200 280,300" stroke="none" /><polygon fill="#c8c8be" points="315,200 317,300 280,300" stroke="none" /><polygon fill="#c8c8be" points="193,300 231,300 199,370" stroke="none" /><polygon fill="#e2e2d8" points="231,300 239,370 199,370" stroke="none" /><polygon fill="#f2f2ec" points="231,300 258,300 239,370" stroke="none" /><polygon fill="#f2f2ec" points="258,300 253,370 239,370" stroke="none" /><polygon fill="#f2f2ec" points="258,300 280,300 253,370" stroke="none" /><polygon fill="#f2f2ec" points="280,300 279,370 253,370" stroke="none" /><polygon fill="#e2e2d8" points="280,300 317,300 279,370" stroke="none" /><polygon fill="#c8c8be" points="317,300 313,370 279,370" stroke="none" /><polygon fill="#c8c8be" points="199,370 239,370 190,430" stroke="none" /><polygon fill="#e2e2d8" points="239,370 235,430 190,430" stroke="none" /><polygon fill="#f2f2ec" points="239,370 253,370 235,430" stroke="none" /><polygon fill="#f2f2ec" points="253,370 255,430 235,430" stroke="none" /><polygon fill="#f2f2ec" points="253,370 279,370 255,430" stroke="none" /><polygon fill="#f2f2ec" points="279,370 277,430 255,430" stroke="none" /><polygon fill="#e2e2d8" points="279,370 313,370 277,430" stroke="none" /><polygon fill="#c8c8be" points="313,370 324,430 277,430" stroke="none" /><polygon fill="#c8c8be" points="234,95 256,110 278,95" stroke="#999" stroke-width="1.5" /><circle cx="256" cy="135" fill="#ddd" r="3" stroke="#999" stroke-width="1" /><circle cx="256" cy="165" fill="#ddd" r="3" stroke="#999" stroke-width="1" /><circle cx="256" cy="195" fill="#ddd" r="3" stroke="#999" stroke-width="1" /><rect fill="#e2e2d8" height="14" stroke="#aaa89e" stroke-width="1.5" width="17" x="219" y="145" /><line stroke="#aaa89e" stroke-width="2" x1="223" x2="289" y1="420" y2="420" /><path d="M 219 152 Q 233 166 247 152" fill="none" stroke="#aaa89e" stroke-width="1.5" /><path d="M 265 152 Q 279 166 293 152" fill="none" stroke="#aaa89e" stroke-width="1.5" /><line stroke="#aaa89e" stroke-width="1.2" x1="244" x2="226" y1="215" y2="215" /><line stroke="#aaa89e" stroke-width="1.2" x1="268" x2="286" y1="215" y2="215" /><line stroke="#aaa89e" stroke-width="1.2" x1="244" x2="226" y1="240" y2="240" /><line stroke="#aaa89e" stroke-width="1.2" x1="268" x2="286" y1="240" y2="240" /><line stroke="#aaa89e" stroke-width="1.2" x1="244" x2="226" y1="265" y2="265" /><line stroke="#aaa89e" stroke-width="1.2" x1="268" x2="286" y1="265" y2="265" /><line stroke="#aaa89e" stroke-width="1.2" x1="244" x2="226" y1="290" y2="290" /><line stroke="#aaa89e" stroke-width="1.2" x1="268" x2="286" y1="290" y2="290" /><polygon fill="#c8c8be" points="128,112 136,112 81,163" stroke="none" /><polygon fill="#c8c8be" points="136,112 114,163 81,163" stroke="none" /><polygon fill="#e2e2d8" points="136,112 144,112 114,163" stroke="none" /><polygon fill="#e2e2d8" points="144,112 147,163 114,163" stroke="none" /><polygon fill="#aaa89e" points="81,163 114,163 81,189.85000000000002" stroke="none" /><polygon fill="#aaa89e" points="114,163 114,189.85000000000002 81,189.85000000000002" stroke="none" /><polygon fill="#e2e2d8" points="114,163 147,163 114,189.85000000000002" stroke="none" /><polygon fill="#e2e2d8" points="147,163 147,189.85000000000002 114,189.85000000000002" stroke="none" /><polygon fill="#f5d040" points="81,189.85000000000002 114,189.85000000000002 85,285" stroke="none" /><polygon fill="#f5d040" points="114,189.85000000000002 114,285 85,285" stroke="none" /><polygon fill="#f5d040" points="114,189.85000000000002 147,189.85000000000002 114,285" stroke="none" /><polygon fill="#f5d040" points="147,189.85000000000002 133,285 114,285" stroke="none" /><line stroke="#aaa89e" stroke-width="2" x1="98" x2="174" y1="165" y2="165" /><ellipse cx="144" cy="273" fill="white" fill-opacity="0.12" rx="3" ry="2" stroke="none" /><ellipse cx="142" cy="219" fill="white" fill-opacity="0.12" rx="3" ry="2" stroke="none" /><polygon fill="#c8c8be" points="368,112 376,112 365,163" stroke="none" /><polygon fill="#c8c8be" points="376,112 398,163 365,163" stroke="none" /><polygon fill="#e2e2d8" points="376,112 384,112 398,163" stroke="none" /><polygon fill="#e2e2d8" points="384,112 431,163 398,163" stroke="none" /><polygon fill="#aaa89e" points="365,163 398,163 365,188.5" stroke="none" /><polygon fill="#aaa89e" points="398,163 398,188.5 365,188.5" stroke="none" /><polygon fill="#e2e2d8" points="398,163 431,163 398,188.5" stroke="none" /><polygon fill="#e2e2d8" points="431,163 431,188.5 398,188.5" stroke="none" /><polygon fill="#f5d040" points="365,188.5 398,188.5 379,282" stroke="none" /><polygon fill="#f5d040" points="398,188.5 398,282 379,282" stroke="none" /><polygon fill="#f5d040" points="398,188.5 431,188.5 398,282" stroke="none" /><polygon fill="#f5d040" points="431,188.5 427,282 398,282" stroke="none" /><line stroke="#aaa89e" stroke-width="2" x1="338" x2="414" y1="165" y2="165" /><ellipse cx="400" cy="180" fill="white" fill-opacity="0.12" rx="3" ry="2" stroke="none" /><ellipse cx="393" cy="227" fill="white" fill-opacity="0.12" rx="3" ry="2" stroke="none" /><ellipse cx="355" cy="178" fill="white" fill-opacity="0.12" rx="3" ry="2" stroke="none" /></svg>