<?xml version="1.0" encoding="utf-8" ?>
<svg baseProfile="full" height="512" version="1.1" width="512" xmlns="http://www.w3.org/2000/svg" xmlns:ev="http://www.w3.org/2001/xml-events" xmlns:xlink="http://www.w3.org/1999/xlink"><defs /><polygon fill="#c8c8be" points="244,80 250,80 173,112" stroke="none" /><polygon fill="#c8c8be" points="250,80 201,112 173,112" stroke="none" /><polygon fill="#e2e2d8" points="250,80 257,80 201,112" stroke="none" /><polygon fill="#f2f2ec" points="257,80 255,112 201,112" stroke="none" /><polygon fill="#f2f2ec" points="257,80 261,80 255,112" stroke="none" /><polygon fill="#e2e2d8" points="261,80 313,112 255,112" stroke="none" /><polygon fill="#e2e2d8" points="261,80 269,80 313,112" stroke="none" /><polygon fill="#c8c8be" points="269,80 339,112 313,112" stroke="none" /><polygon fill="#c8c8be" points="173,112 201,112 188,155" stroke="none" /><polygon fill="#c8c8be" points="201,112 218,155 188,155" stroke="none" /><polygon fill="#c8c8be" points="201,112 255,112 218,155" stroke="none" /><polygon fill="#f2f2ec" points="255,112 253,155 218,155" stroke="none" /><polygon fill="#f2f2ec" points="255,112 313,112 253,155" stroke="none" /><polygon fill="#c8c8be" points="313,112 294,155 253,155" stroke="none" /><polygon fill="#c8c8be" points="313,112 339,112 294,155" stroke="none" /><polygon fill="#c8c8be" points="339,112 324,155 294,155" stroke="none" /><polygon fill="#c8c8be" points="188,155 218,155 206,200" stroke="none" /><polygon fill="#c8c8be" points="218,155 234,200 206,200" stroke="none" /><polygon fill="#e2e2d8" points="218,155 253,155 234,200" stroke="none" /><polygon fill="#f2f2ec" points="253,155 256,200 234,200" stroke="none" /><polygon fill="#f2f2ec" points="253,155 294,155 256,200" stroke="none" /><polygon fill="#e2e2d8" points="294,155 278,200 256,200" stroke="none" /><polygon fill="#c8c8be" points="294,155 324,155 278,200" stroke="none" /><polygon fill="#c8c8be" points="324,155 306,200 278,200" stroke="none" /><polygon fill="#c8c8be" points="206,200 234,200 206,300" stroke="none" /><polygon fill="#c8c8be" points="234,200 237,300 206,300" stroke="none" /><polygon fill="#f2f2ec" points="234,200 256,200 237,300" stroke="none" /><polygon fill="#f2f2ec" points="256,200 257,300 237,300" stroke="none" /><polygon fill="#f2f2ec" points="256,200 278,200 257,300" stroke="none" /><polygon fill="#f2f2ec" points="278,200 274,300 257,300" stroke="none" /><polygon fill="#c8c8be" points="278,200 306,200 274,300" stroke="none" /><polygon fill="#c8c8be" points="306,200 309,300 274,300" stroke="none" /><polygon fill="#c8c8be" points="206,300 237,300 210,370" stroke="none" /><polygon fill="#e2e2d8" points="237,300 237,370 210,370" stroke="none" /><polygon fill="#f2f2ec" points="237,300 257,300 237,370" stroke="none" /><polygon fill="#f2f2ec" points="257,300 259,370 237,370" stroke="none" /><polygon fill="#f2f2ec" points="257,300 274,300 259,370" stroke="none" /><polygon fill="#f2f2ec" points="274,300 269,370 259,370" stroke="none" /><polygon fill="#e2e2d8" points="274,300 309,300 269,370" stroke="none" /><polygon fill="#c8c8be" points="309,300 305,370 269,370" stroke="none" /><polygon fill="#c8c8be" points="210,370 237,370 203,430" stroke="none" /><polygon fill="#e2e2d8" points="237,370 240,430 203,430" stroke="none" /><polygon fill="#f2f2ec" points="237,370 259,370 240,430" stroke="none" /><polygon fill="#f2f2ec" points="259,370 255,430 240,430" stroke="none" /><polygon fill="#f2f2ec" points="259,370 269,370 255,430" stroke="none" /><polygon fill="#f2f2ec" points="269,370 271,430 255,430" stroke="none" /><polygon fill="#e2e2d8" points="269,370 305,370 271,430" stroke="none" /><polygon fill="#c8c8be" points="305,370 311,430 271,430" stroke="none" /><polygon fill="#c8c8be" points="241,95 256,110 271,95" stroke="#999" stroke-width="1.5" /><circle cx="256" cy="135" fill="#ddd" r="3" stroke="#999" stroke-width="1" /><circle cx="256" cy="165" fill="#ddd" r="3" stroke="#999" stroke-width="1" /><circle cx="256" cy="195" fill="#ddd" r="3" stroke="#999" stroke-width="1" /><rect fill="#e2e2d8" height="10" stroke="#aaa89e" stroke-width="1.5" width="11" x="231" y="145" /><line stroke="#aaa89e" stroke-width="2" x1="229" x2="283" y1="420" y2="420" /><polygon fill="#c8c8be" points="168,112 176,112 153,180" stroke="none" /><polygon fill="#c8c8be" points="176,112 176,180 153,180" stroke="none" /><polygon fill="#e2e2d8" points="176,112 184,112 176,180" stroke="none" /><polygon fill="#e2e2d8" points="184,112 199,180 176,180" stroke="none" /><polygon fill="#aaa89e" points="153,180 176,180 153,214.15" stroke="none" /><polygon fill="#aaa89e" points="176,180 176,214.15 153,214.15" stroke="none" /><polygon fill="#e2e2d8" points="176,180 199,180 176,214.15" stroke="none" /><polygon fill="#e2e2d8" points="199,180 199,214.15 176,214.15" stroke="none" /><polygon fill="#f5ce2e" points="153,214.15 176,214.15 161,339" stroke="none" /><polygon fill="#f5ce2e" points="176,214.15 176,339 161,339" stroke="none" /><polygon fill="#f5ce2e" points="176,214.15 199,214.15 176,339" stroke="none" /><polygon fill="#f5ce2e" points="199,214.15 191,339 176,339" stroke="none" /><line stroke="#aaa89e" stroke-width="2" x1="156" x2="196" y1="182" y2="182" /><polygon fill="#c8c8be" points="328,112 336,112 313,180" stroke="none" /><polygon fill="#c8c8be" points="336,112 336,180 313,180" stroke="none" /><polygon fill="#e2e2d8" points="336,112 344,112 336,180" stroke="none" /><polygon fill="#e2e2d8" points="344,112 359,180 336,180" stroke="none" /><polygon fill="#aaa89e" points="313,180 336,180 313,214.15" stroke="none" /><polygon fill="#aaa89e" points="336,180 336,214.15 313,214.15" stroke="none" /><polygon fill="#e2e2d8" points="336,180 359,180 336,214.15" stroke="none" /><polygon fill="#e2e2d8" points="359,180 359,214.15 336,214.15" stroke="none" /><polygon fill="#f5ce2e" points="313,214.15 336,214.15 321,339" stroke="none" /><polygon fill="#f5ce2e" points="336,214.15 336,339 321,339" stroke="none" /><polygon fill="#f5ce2e" points="336,214.15 359,214.15 336,339" stroke="none" /><polygon fill="#f5ce2e" points="359,214.15 351,339 336,339" stroke="none" /><line stroke="#aaa89e" stroke-width="2" x1="316" x2="356" y1="182" y2="182" /></svg>