<?xml version="1.0" encoding="utf-8" ?>
<svg baseProfile="full" height="512" version="1.1" width="512" xmlns="http://www.w3.org/2000/svg" xmlns:ev="http://www.w3.org/2001/xml-events" xmlns:xlink="http://www.w3.org/1999/xlink"><defs /><polygon fill="#c8c8be" points="244,80 250,80 153,112" stroke="none" /><polygon fill="#c8c8be" points="250,80 179,112 153,112" stroke="none" /><polygon fill="#e2e2d8" points="250,80 256,80 179,112" stroke="none" /><polygon fill="#e2e2d8" points="256,80 253,112 179,112" stroke="none" /><polygon fill="#f2f2ec" points="256,80 261,80 253,112" stroke="none" /><polygon fill="#e2e2d8" points="261,80 327,112 253,112" stroke="none" /><polygon fill="#e2e2d8" points="261,80 269,80 327,112" stroke="none" /><polygon fill="#c8c8be" points="269,80 361,112 327,112" stroke="none" /><polygon fill="#c8c8be" points="153,112 179,112 163,155" stroke="none" /><polygon fill="#c8c8be" points="179,112 209,155 163,155" stroke="none" /><polygon fill="#c8c8be" points="179,112 253,112 209,155" stroke="none" /><polygon fill="#f2f2ec" points="253,112 259,155 209,155" stroke="none" /><polygon fill="#e2e2d8" points="253,112 327,112 259,155" stroke="none" /><polygon fill="#c8c8be" points="327,112 306,155 259,155" stroke="none" /><polygon fill="#c8c8be" points="327,112 361,112 306,155" stroke="none" /><polygon fill="#c8c8be" points="361,112 347,155 306,155" stroke="none" /><polygon fill="#c8c8be" points="163,155 209,155 207,200" stroke="none" /><polygon fill="#c8c8be" points="209,155 235,200 207,200" stroke="none" /><polygon fill="#e2e2d8" points="209,155 259,155 235,200" stroke="none" /><polygon fill="#f2f2ec" points="259,155 253,200 235,200" stroke="none" /><polygon fill="#f2f2ec" points="259,155 306,155 253,200" stroke="none" /><polygon fill="#e2e2d8" points="306,155 280,200 253,200" stroke="none" /><polygon fill="#c8c8be" points="306,155 347,155 280,200" stroke="none" /><polygon fill="#c8c8be" points="347,155 307,200 280,200" stroke="none" /><polygon fill="#c8c8be" points="207,200 235,200 205,300" stroke="none" /><polygon fill="#e2e2d8" points="235,200 235,300 205,300" stroke="none" /><polygon fill="#f2f2ec" points="235,200 253,200 235,300" stroke="none" /><polygon fill="#f2f2ec" points="253,200 254,300 235,300" stroke="none" /><polygon fill="#f2f2ec" points="253,200 280,200 254,300" stroke="none" /><polygon fill="#f2f2ec" points="280,200 273,300 254,300" stroke="none" /><polygon fill="#e2e2d8" points="280,200 307,200 273,300" stroke="none" /><polygon fill="#c8c8be" points="307,200 307,300 273,300" stroke="none" /><polygon fill="#c8c8be" points="205,300 235,300 205,370" stroke="none" /><polygon fill="#e2e2d8" points="235,300 239,370 205,370" stroke="none" /><polygon fill="#f2f2ec" points="235,300 254,300 239,370" stroke="none" /><polygon fill="#f2f2ec" points="254,300 255,370 239,370" stroke="none" /><polygon fill="#f2f2ec" points="254,300 273,300 255,370" stroke="none" /><polygon fill="#f2f2ec" points="273,300 274,370 255,370" stroke="none" /><polygon fill="#e2e2d8" points="273,300 307,300 274,370" stroke="none" /><polygon fill="#c8c8be" points="307,300 304,370 274,370" stroke="none" /><polygon fill="#c8c8be" points="205,370 239,370 200,430" stroke="none" /><polygon fill="#e2e2d8" points="239,370 238,430 200,430" stroke="none" /><polygon fill="#f2f2ec" points="239,370 255,370 238,430" stroke="none" /><polygon fill="#f2f2ec" points="255,370 257,430 238,430" stroke="none" /><polygon fill="#f2f2ec" points="255,370 274,370 257,430" stroke="none" /><polygon fill="#f2f2ec" points="274,370 273,430 257,430" stroke="none" /><polygon fill="#e2e2d8" points="274,370 304,370 273,430" stroke="none" /><polygon fill="#c8c8be" points="304,370 312,430 273,430" stroke="none" /><polygon fill="#c8c8be" points="237,95 256,110 275,95" stroke="#999" stroke-width="1.5" /><circle cx="256" cy="135" fill="#ddd" r="3" stroke="#999" stroke-width="1" /><circle cx="256" cy="165" fill="#ddd" r="3" stroke="#999" stroke-width="1" /><circle cx="256" cy="195" fill="#ddd" r="3" stroke="#999" stroke-width="1" /><rect fill="#e2e2d8" height="12" stroke="#aaa89e" stroke-width="1.5" width="14" x="225" y="145" /><line stroke="#aaa89e" stroke-width="2" x1="228" x2="284" y1="420" y2="420" /><path d="M 223 152 Q 237 166 251 152" fill="none" stroke="#aaa89e" stroke-width="1.5" /><path d="M 261 152 Q 275 166 289 152" fill="none" stroke="#aaa89e" stroke-width="1.5" /><line stroke="#aaa89e" stroke-width="1.2" x1="244" x2="226" y1="215" y2="215" /><line stroke="#aaa89e" stroke-width="1.2" x1="268" x2="286" y1="215" y2="215" /><line stroke="#aaa89e" stroke-width="1.2" x1="244" x2="226" y1="240" y2="240" /><line stroke="#aaa89e" stroke-width="1.2" x1="268" x2="286" y1="240" y2="240" /><line stroke="#aaa89e" stroke-width="1.2" x1="244" x2="226" y1="265" y2="265" /><line stroke="#aaa89e" stroke-width="1.2" x1="268" x2="286" y1="265" y2="265" /><line stroke="#aaa89e" stroke-width="1.2" x1="244" x2="226" y1="290" y2="290" /><line stroke="#aaa89e" stroke-width="1.2" x1="268" x2="286" y1="290" y2="290" /><polygon fill="#c8c8be" points="146,112 154,112 95,181" stroke="none" /><polygon fill="#c8c8be" points="154,112 123,181 95,181" stroke="none" /><polygon fill="#e2e2d8" points="154,112 162,112 123,181" stroke="none" /><polygon fill="#e2e2d8" points="162,112 151,181 123,181" stroke="none" /><polygon fill="#aaa89e" points="95,181 123,181 95,215.5" stroke="none" /><polygon fill="#aaa89e" points="123,181 123,215.5 95,215.5" stroke="none" /><polygon fill="#e2e2d8" points="123,181 151,181 123,215.5" stroke="none" /><polygon fill="#e2e2d8" points="151,181 151,215.5 123,215.5" stroke="none" /><polygon fill="#f5ce2e" points="95,215.5 123,215.5 98,342" stroke="none" /><polygon fill="#f5ce2e" points="123,215.5 123,342 98,342" stroke="none" /><polygon fill="#f5ce2e" points="123,215.5 151,215.5 123,342" stroke="none" /><polygon fill="#f5ce2e" points="151,215.5 138,342 123,342" stroke="none" /><line stroke="#aaa89e" stroke-width="2" x1="122" x2="186" y1="183" y2="183" /><polygon fill="#c8c8be" points="350,112 358,112 361,178" stroke="none" /><polygon fill="#c8c8be" points="358,112 389,178 361,178" stroke="none" /><polygon fill="#e2e2d8" points="358,112 366,112 389,178" stroke="none" /><polygon fill="#e2e2d8" points="366,112 417,178 389,178" stroke="none" /><polygon fill="#aaa89e" points="361,178 389,178 361,211.9" stroke="none" /><polygon fill="#aaa89e" points="389,178 389,211.9 361,211.9" stroke="none" /><polygon fill="#e2e2d8" points="389,178 417,178 389,211.9" stroke="none" /><polygon fill="#e2e2d8" points="417,178 417,211.9 389,211.9" stroke="none" /><polygon fill="#f5ce2e" points="361,211.9 389,211.9 374,334" stroke="none" /><polygon fill="#f5ce2e" points="389,211.9 389,334 374,334" stroke="none" /><polygon fill="#f5ce2e" points="389,211.9 417,211.9 389,334" stroke="none" /><polygon fill="#f5ce2e" points="417,211.9 414,334 389,334" stroke="none" /><line stroke="#aaa89e" stroke-width="2" x1="326" x2="390" y1="180" y2="180" /></svg>