<?xml version="1.0" encoding="utf-8" ?>
<svg baseProfile="full" height="512" version="1.1" width="512" xmlns="http://www.w3.org/2000/svg" xmlns:ev="http://www.w3.org/2001/xml-events" xmlns:xlink="http://www.w3.org/1999/xlink"><defs /><polygon fill="#c8c8be" points="245,80 249,80 142,112" stroke="none" /><polygon fill="#c8c8be" points="249,80 177,112 142,112" stroke="none" /><polygon fill="#e2e2d8" points="249,80 256,80 177,112" stroke="none" /><polygon fill="#e2e2d8" points="256,80 257,112 177,112" stroke="none" /><polygon fill="#f2f2ec" points="256,80 263,80 257,112" stroke="none" /><polygon fill="#e2e2d8" points="263,80 336,112 257,112" stroke="none" /><polygon fill="#e2e2d8" points="263,80 268,80 336,112" stroke="none" /><polygon fill="#c8c8be" points="268,80 368,112 336,112" stroke="none" /><polygon fill="#c8c8be" points="142,112 177,112 163,155" stroke="none" /><polygon fill="#c8c8be" points="177,112 203,155 163,155" stroke="none" /><polygon fill="#c8c8be" points="177,112 257,112 203,155" stroke="none" /><polygon fill="#f2f2ec" points="257,112 253,155 203,155" stroke="none" /><polygon fill="#e2e2d8" points="257,112 336,112 253,155" stroke="none" /><polygon fill="#c8c8be" points="336,112 303,155 253,155" stroke="none" /><polygon fill="#c8c8be" points="336,112 368,112 303,155" stroke="none" /><polygon fill="#c8c8be" points="368,112 348,155 303,155" stroke="none" /><polygon fill="#c8c8be" points="163,155 203,155 196,200" stroke="none" /><polygon fill="#c8c8be" points="203,155 230,200 196,200" stroke="none" /><polygon fill="#e2e2d8" points="203,155 253,155 230,200" stroke="none" /><polygon fill="#f2f2ec" points="253,155 254,200 230,200" stroke="none" /><polygon fill="#f2f2ec" points="253,155 303,155 254,200" stroke="none" /><polygon fill="#e2e2d8" points="303,155 286,200 254,200" stroke="none" /><polygon fill="#c8c8be" points="303,155 348,155 286,200" stroke="none" /><polygon fill="#c8c8be" points="348,155 316,200 286,200" stroke="none" /><polygon fill="#c8c8be" points="196,200 230,200 195,300" stroke="none" /><polygon fill="#e2e2d8" points="230,200 236,300 195,300" stroke="none" /><polygon fill="#f2f2ec" points="230,200 254,200 236,300" stroke="none" /><polygon fill="#f2f2ec" points="254,200 255,300 236,300" stroke="none" /><polygon fill="#f2f2ec" points="254,200 286,200 255,300" stroke="none" /><polygon fill="#f2f2ec" points="286,200 281,300 255,300" stroke="none" /><polygon fill="#c8c8be" points="286,200 316,200 281,300" stroke="none" /><polygon fill="#c8c8be" points="316,200 317,300 281,300" stroke="none" /><polygon fill="#c8c8be" points="195,300 236,300 195,370" stroke="none" /><polygon fill="#e2e2d8" points="236,300 234,370 195,370" stroke="none" /><polygon fill="#f2f2ec" points="236,300 255,300 234,370" stroke="none" /><polygon fill="#f2f2ec" points="255,300 254,370 234,370" stroke="none" /><polygon fill="#f2f2ec" points="255,300 281,300 254,370" stroke="none" /><polygon fill="#f2f2ec" points="281,300 276,370 254,370" stroke="none" /><polygon fill="#e2e2d8" points="281,300 317,300 276,370" stroke="none" /><polygon fill="#c8c8be" points="317,300 315,370 276,370" stroke="none" /><polygon fill="#c8c8be" points="195,370 234,370 189,430" stroke="none" /><polygon fill="#e2e2d8" points="234,370 235,430 189,430" stroke="none" /><polygon fill="#f2f2ec" points="234,370 254,370 235,430" stroke="none" /><polygon fill="#f2f2ec" points="254,370 255,430 235,430" stroke="none" /><polygon fill="#f2f2ec" points="254,370 276,370 255,430" stroke="none" /><polygon fill="#f2f2ec" points="276,370 276,430 255,430" stroke="none" /><polygon fill="#e2e2d8" points="276,370 315,370 276,430" stroke="none" /><polygon fill="#c8c8be" points="315,370 325,430 276,430" stroke="none" /><polygon fill="#c8c8be" points="236,95 256,110 276,95" stroke="#999" stroke-width="1.5" /><circle cx="256" cy="135" fill="#ddd" r="3" stroke="#999" stroke-width="1" /><circle cx="256" cy="165" fill="#ddd" r="3" stroke="#999" stroke-width="1" /><circle cx="256" cy="195" fill="#ddd" r="3" stroke="#999" stroke-width="1" /><rect fill="#e2e2d8" height="13" stroke="#aaa89e" stroke-width="1.5" width="15" x="223" y="145" /><line stroke="#aaa89e" stroke-width="2" x1="222" x2="290" y1="420" y2="420" /><path d="M 219 152 Q 233 166 247 152" fill="none" stroke="#aaa89e" stroke-width="1.5" /><path d="M 265 152 Q 279 166 293 152" fill="none" stroke="#aaa89e" stroke-width="1.5" /><line stroke="#aaa89e" stroke-width="1.2" x1="244" x2="226" y1="215" y2="215" /><line stroke="#aaa89e" stroke-width="1.2" x1="268" x2="286" y1="215" y2="215" /><line stroke="#aaa89e" stroke-width="1.2" x1="244" x2="226" y1="240" y2="240" /><line stroke="#aaa89e" stroke-width="1.2" x1="268" x2="286" y1="240" y2="240" /><line stroke="#aaa89e" stroke-width="1.2" x1="244" x2="226" y1="265" y2="265" /><line stroke="#aaa89e" stroke-width="1.2" x1="268" x2="286" y1="265" y2="265" /><line stroke="#aaa89e" stroke-width="1.2" x1="244" x2="226" y1="290" y2="290" /><line stroke="#aaa89e" stroke-width="1.2" x1="268" x2="286" y1="290" y2="290" /><polygon fill="#c8c8be" points="140,112 148,112 103,173" stroke="none" /><polygon fill="#c8c8be" points="148,112 128,173 103,173" stroke="none" /><polygon fill="#e2e2d8" points="148,112 156,112 128,173" stroke="none" /><polygon fill="#e2e2d8" points="156,112 153,173 128,173" stroke="none" /><polygon fill="#aaa89e" points="103,173 128,173 103,204.7" stroke="none" /><polygon fill="#aaa89e" points="128,173 128,204.7 103,204.7" stroke="none" /><polygon fill="#e2e2d8" points="128,173 153,173 128,204.7" stroke="none" /><polygon fill="#e2e2d8" points="153,173 153,204.7 128,204.7" stroke="none" /><polygon fill="#f5cd30" points="103,204.7 128,204.7 105,318" stroke="none" /><polygon fill="#f5cd30" points="128,204.7 128,318 105,318" stroke="none" /><polygon fill="#f5cd30" points="128,204.7 153,204.7 128,318" stroke="none" /><polygon fill="#f5cd30" points="153,204.7 141,318 128,318" stroke="none" /><line stroke="#aaa89e" stroke-width="2" x1="120" x2="176" y1="175" y2="175" /><polygon fill="#c8c8be" points="356,112 364,112 356,170" stroke="none" /><polygon fill="#c8c8be" points="364,112 381,170 356,170" stroke="none" /><polygon fill="#e2e2d8" points="364,112 372,112 381,170" stroke="none" /><polygon fill="#e2e2d8" points="372,112 406,170 381,170" stroke="none" /><polygon fill="#aaa89e" points="356,170 381,170 356,199.75" stroke="none" /><polygon fill="#aaa89e" points="381,170 381,199.75 356,199.75" stroke="none" /><polygon fill="#e2e2d8" points="381,170 406,170 381,199.75" stroke="none" /><polygon fill="#e2e2d8" points="406,170 406,199.75 381,199.75" stroke="none" /><polygon fill="#f5cd30" points="356,199.75 381,199.75 368,307" stroke="none" /><polygon fill="#f5cd30" points="381,199.75 381,307 368,307" stroke="none" /><polygon fill="#f5cd30" points="381,199.75 406,199.75 381,307" stroke="none" /><polygon fill="#f5cd30" points="406,199.75 404,307 381,307" stroke="none" /><line stroke="#aaa89e" stroke-width="2" x1="336" x2="392" y1="172" y2="172" /></svg>