<?xml version="1.0" encoding="utf-8" ?>
<svg baseProfile="full" height="512" version="1.1" width="512" xmlns="http://www.w3.org/2000/svg" xmlns:ev="http://www.w3.org/2001/xml-events" xmlns:xlink="http://www.w3.org/1999/xlink"><defs /><polygon fill="#c8c8be" points="243,80 251,80 165,112" stroke="none" /><polygon fill="#c8c8be" points="251,80 189,112 165,112" stroke="none" /><polygon fill="#e2e2d8" points="251,80 257,80 189,112" stroke="none" /><polygon fill="#e2e2d8" points="257,80 255,112 189,112" stroke="none" /><polygon fill="#f2f2ec" points="257,80 261,80 255,112" stroke="none" /><polygon fill="#e2e2d8" points="261,80 319,112 255,112" stroke="none" /><polygon fill="#e2e2d8" points="261,80 267,80 319,112" stroke="none" /><polygon fill="#c8c8be" points="267,80 350,112 319,112" stroke="none" /><polygon fill="#c8c8be" points="165,112 189,112 174,155" stroke="none" /><polygon fill="#c8c8be" points="189,112 216,155 174,155" stroke="none" /><polygon fill="#c8c8be" points="189,112 255,112 216,155" stroke="none" /><polygon fill="#f2f2ec" points="255,112 253,155 216,155" stroke="none" /><polygon fill="#f2f2ec" points="255,112 319,112 253,155" stroke="none" /><polygon fill="#c8c8be" points="319,112 297,155 253,155" stroke="none" /><polygon fill="#c8c8be" points="319,112 350,112 297,155" stroke="none" /><polygon fill="#c8c8be" points="350,112 332,155 297,155" stroke="none" /><polygon fill="#c8c8be" points="174,155 216,155 208,200" stroke="none" /><polygon fill="#c8c8be" points="216,155 233,200 208,200" stroke="none" /><polygon fill="#e2e2d8" points="216,155 253,155 233,200" stroke="none" /><polygon fill="#f2f2ec" points="253,155 253,200 233,200" stroke="none" /><polygon fill="#f2f2ec" points="253,155 297,155 253,200" stroke="none" /><polygon fill="#e2e2d8" points="297,155 281,200 253,200" stroke="none" /><polygon fill="#c8c8be" points="297,155 332,155 281,200" stroke="none" /><polygon fill="#c8c8be" points="332,155 309,200 281,200" stroke="none" /><polygon fill="#c8c8be" points="208,200 233,200 205,300" stroke="none" /><polygon fill="#c8c8be" points="233,200 235,300 205,300" stroke="none" /><polygon fill="#f2f2ec" points="233,200 253,200 235,300" stroke="none" /><polygon fill="#f2f2ec" points="253,200 256,300 235,300" stroke="none" /><polygon fill="#f2f2ec" points="253,200 281,200 256,300" stroke="none" /><polygon fill="#f2f2ec" points="281,200 278,300 256,300" stroke="none" /><polygon fill="#c8c8be" points="281,200 309,200 278,300" stroke="none" /><polygon fill="#c8c8be" points="309,200 309,300 278,300" stroke="none" /><polygon fill="#c8c8be" points="205,300 235,300 207,370" stroke="none" /><polygon fill="#e2e2d8" points="235,300 242,370 207,370" stroke="none" /><polygon fill="#f2f2ec" points="235,300 256,300 242,370" stroke="none" /><polygon fill="#f2f2ec" points="256,300 258,370 242,370" stroke="none" /><polygon fill="#f2f2ec" points="256,300 278,300 258,370" stroke="none" /><polygon fill="#f2f2ec" points="278,300 276,370 258,370" stroke="none" /><polygon fill="#c8c8be" points="278,300 309,300 276,370" stroke="none" /><polygon fill="#c8c8be" points="309,300 309,370 276,370" stroke="none" /><polygon fill="#c8c8be" points="207,370 242,370 198,430" stroke="none" /><polygon fill="#e2e2d8" points="242,370 238,430 198,430" stroke="none" /><polygon fill="#f2f2ec" points="242,370 258,370 238,430" stroke="none" /><polygon fill="#f2f2ec" points="258,370 255,430 238,430" stroke="none" /><polygon fill="#f2f2ec" points="258,370 276,370 255,430" stroke="none" /><polygon fill="#f2f2ec" points="276,370 274,430 255,430" stroke="none" /><polygon fill="#e2e2d8" points="276,370 309,370 274,430" stroke="none" /><polygon fill="#c8c8be" points="309,370 313,430 274,430" stroke="none" /><polygon fill="#c8c8be" points="240,95 256,110 272,95" stroke="#999" stroke-width="1.5" /><circle cx="256" cy="135" fill="#ddd" r="3" stroke="#999" stroke-width="1" /><circle cx="256" cy="165" fill="#ddd" r="3" stroke="#999" stroke-width="1" /><circle cx="256" cy="195" fill="#ddd" r="3" stroke="#999" stroke-width="1" /><rect fill="#e2e2d8" height="11" stroke="#aaa89e" stroke-width="1.5" width="13" x="229" y="145" /><line stroke="#aaa89e" stroke-width="2" x1="228" x2="284" y1="420" y2="420" /><polygon fill="#c8c8be" points="159,112 167,112 144,164" stroke="none" /><polygon fill="#c8c8be" points="167,112 167,164 144,164" stroke="none" /><polygon fill="#e2e2d8" points="167,112 175,112 167,164" stroke="none" /><polygon fill="#e2e2d8" points="175,112 190,164 167,164" stroke="none" /><polygon fill="#aaa89e" points="144,164 167,164 144,190.75" stroke="none" /><polygon fill="#aaa89e" points="167,164 167,190.75 144,190.75" stroke="none" /><polygon fill="#e2e2d8" points="167,164 190,164 167,190.75" stroke="none" /><polygon fill="#e2e2d8" points="190,164 190,190.75 167,190.75" stroke="none" /><polygon fill="#f4cc2a" points="144,190.75 167,190.75 152,287" stroke="none" /><polygon fill="#f4cc2a" points="167,190.75 167,287 152,287" stroke="none" /><polygon fill="#f4cc2a" points="167,190.75 190,190.75 167,287" stroke="none" /><polygon fill="#f4cc2a" points="190,190.75 182,287 167,287" stroke="none" /><line stroke="#aaa89e" stroke-width="2" x1="147" x2="187" y1="166" y2="166" /><polygon fill="#c8c8be" points="337,112 345,112 322,164" stroke="none" /><polygon fill="#c8c8be" points="345,112 345,164 322,164" stroke="none" /><polygon fill="#e2e2d8" points="345,112 353,112 345,164" stroke="none" /><polygon fill="#e2e2d8" points="353,112 368,164 345,164" stroke="none" /><polygon fill="#aaa89e" points="322,164 345,164 322,190.75" stroke="none" /><polygon fill="#aaa89e" points="345,164 345,190.75 322,190.75" stroke="none" /><polygon fill="#e2e2d8" points="345,164 368,164 345,190.75" stroke="none" /><polygon fill="#e2e2d8" points="368,164 368,190.75 345,190.75" stroke="none" /><polygon fill="#f4cc2a" points="322,190.75 345,190.75 330,287" stroke="none" /><polygon fill="#f4cc2a" points="345,190.75 345,287 330,287" stroke="none" /><polygon fill="#f4cc2a" points="345,190.75 368,190.75 345,287" stroke="none" /><polygon fill="#f4cc2a" points="368,190.75 360,287 345,287" stroke="none" /><line stroke="#aaa89e" stroke-width="2" x1="325" x2="365" y1="166" y2="166" /></svg>