<?xml version="1.0" encoding="utf-8" ?>
<svg baseProfile="full" height="512" version="1.1" width="512" xmlns="http://www.w3.org/2000/svg" xmlns:ev="http://www.w3.org/2001/xml-events" xmlns:xlink="http://www.w3.org/1999/xlink"><defs /><polygon fill="#e2e2d8" points="243,80 251,80 140,112" stroke="none" /><polygon fill="#c8c8be" points="251,80 174,112 140,112" stroke="none" /><polygon fill="#f2f2ec" points="251,80 256,80 174,112" stroke="none" /><polygon fill="#f2f2ec" points="256,80 258,112 174,112" stroke="none" /><polygon fill="#f2f2ec" points="256,80 261,80 258,112" stroke="none" /><polygon fill="#f2f2ec" points="261,80 334,112 258,112" stroke="none" /><polygon fill="#e2e2d8" points="261,80 269,80 334,112" stroke="none" /><polygon fill="#c8c8be" points="269,80 370,112 334,112" stroke="none" /><polygon fill="#c8c8be" points="140,112 174,112 158,155" stroke="none" /><polygon fill="#c8c8be" points="174,112 203,155 158,155" stroke="none" /><polygon fill="#e2e2d8" points="174,112 258,112 203,155" stroke="none" /><polygon fill="#f2f2ec" points="258,112 259,155 203,155" stroke="none" /><polygon fill="#f2f2ec" points="258,112 334,112 259,155" stroke="none" /><polygon fill="#e2e2d8" points="334,112 306,155 259,155" stroke="none" /><polygon fill="#c8c8be" points="334,112 370,112 306,155" stroke="none" /><polygon fill="#c8c8be" points="370,112 353,155 306,155" stroke="none" /><polygon fill="#c8c8be" points="158,155 203,155 179,200" stroke="none" /><polygon fill="#c8c8be" points="203,155 222,200 179,200" stroke="none" /><polygon fill="#f2f2ec" points="203,155 259,155 222,200" stroke="none" /><polygon fill="#f2f2ec" points="259,155 255,200 222,200" stroke="none" /><polygon fill="#f2f2ec" points="259,155 306,155 255,200" stroke="none" /><polygon fill="#f2f2ec" points="306,155 289,200 255,200" stroke="none" /><polygon fill="#c8c8be" points="306,155 353,155 289,200" stroke="none" /><polygon fill="#c8c8be" points="353,155 329,200 289,200" stroke="none" /><polygon fill="#c8c8be" points="179,200 222,200 180,300" stroke="none" /><polygon fill="#e2e2d8" points="222,200 229,300 180,300" stroke="none" /><polygon fill="#f2f2ec" points="222,200 255,200 229,300" stroke="none" /><polygon fill="#f2f2ec" points="255,200 259,300 229,300" stroke="none" /><polygon fill="#f2f2ec" points="255,200 289,200 259,300" stroke="none" /><polygon fill="#f2f2ec" points="289,200 285,300 259,300" stroke="none" /><polygon fill="#e2e2d8" points="289,200 329,200 285,300" stroke="none" /><polygon fill="#c8c8be" points="329,200 336,300 285,300" stroke="none" /><polygon fill="#c8c8be" points="180,300 229,300 184,370" stroke="none" /><polygon fill="#e2e2d8" points="229,300 233,370 184,370" stroke="none" /><polygon fill="#f2f2ec" points="229,300 259,300 233,370" stroke="none" /><polygon fill="#f2f2ec" points="259,300 255,370 233,370" stroke="none" /><polygon fill="#f2f2ec" points="259,300 285,300 255,370" stroke="none" /><polygon fill="#f2f2ec" points="285,300 283,370 255,370" stroke="none" /><polygon fill="#e2e2d8" points="285,300 336,300 283,370" stroke="none" /><polygon fill="#c8c8be" points="336,300 330,370 283,370" stroke="none" /><polygon fill="#c8c8be" points="184,370 233,370 171,430" stroke="none" /><polygon fill="#e2e2d8" points="233,370 231,430 171,430" stroke="none" /><polygon fill="#f2f2ec" points="233,370 255,370 231,430" stroke="none" /><polygon fill="#f2f2ec" points="255,370 256,430 231,430" stroke="none" /><polygon fill="#f2f2ec" points="255,370 283,370 256,430" stroke="none" /><polygon fill="#f2f2ec" points="283,370 280,430 256,430" stroke="none" /><polygon fill="#e2e2d8" points="283,370 330,370 280,430" stroke="none" /><polygon fill="#c8c8be" points="330,370 340,430 280,430" stroke="none" /><polygon fill="#c8c8be" points="236,95 256,110 276,95" stroke="#999" stroke-width="1.5" /><circle cx="256" cy="135" fill="#ddd" r="3" stroke="#999" stroke-width="1" /><circle cx="256" cy="165" fill="#ddd" r="3" stroke="#999" stroke-width="1" /><circle cx="256" cy="195" fill="#ddd" r="3" stroke="#999" stroke-width="1" /><rect fill="#e2e2d8" height="13" stroke="#aaa89e" stroke-width="1.5" width="16" x="222" y="145" /><line stroke="#aaa89e" stroke-width="2" x1="214" x2="298" y1="420" y2="420" /><path d="M 213 152 Q 227 166 241 152" fill="none" stroke="#aaa89e" stroke-width="1.5" /><path d="M 271 152 Q 285 166 299 152" fill="none" stroke="#aaa89e" stroke-width="1.5" /><line stroke="#aaa89e" stroke-width="1.2" x1="244" x2="226" y1="215" y2="215" /><line stroke="#aaa89e" stroke-width="1.2" x1="268" x2="286" y1="215" y2="215" /><line stroke="#aaa89e" stroke-width="1.2" x1="244" x2="226" y1="240" y2="240" /><line stroke="#aaa89e" stroke-width="1.2" x1="268" x2="286" y1="240" y2="240" /><line stroke="#aaa89e" stroke-width="1.2" x1="244" x2="226" y1="265" y2="265" /><line stroke="#aaa89e" stroke-width="1.2" x1="268" x2="286" y1="265" y2="265" /><line stroke="#aaa89e" stroke-width="1.2" x1="244" x2="226" y1="290" y2="290" /><line stroke="#aaa89e" stroke-width="1.2" x1="268" x2="286" y1="290" y2="290" /><path d="M 231 260 Q 256 278 281 260" fill="none" stroke="#aaa89e" stroke-width="1.5" /><polygon fill="#c8c8be" points="136,112 144,112 90,162" stroke="none" /><polygon fill="#c8c8be" points="144,112 144,162 90,162" stroke="none" /><polygon fill="#e2e2d8" points="144,112 152,112 144,162" stroke="none" /><polygon fill="#e2e2d8" points="152,112 198,162 144,162" stroke="none" /><polygon fill="#aaa89e" points="90,162 144,162 90,187.60000000000002" stroke="none" /><polygon fill="#aaa89e" points="144,162 144,187.60000000000002 90,187.60000000000002" stroke="none" /><polygon fill="#e2e2d8" points="144,162 198,162 144,187.60000000000002" stroke="none" /><polygon fill="#e2e2d8" points="198,162 198,187.60000000000002 144,187.60000000000002" stroke="none" /><polygon fill="#f4cc2a" points="90,187.60000000000002 144,187.60000000000002 108,280" stroke="none" /><polygon fill="#f4cc2a" points="144,187.60000000000002 144,280 108,280" stroke="none" /><polygon fill="#f4cc2a" points="144,187.60000000000002 198,187.60000000000002 144,280" stroke="none" /><polygon fill="#f4cc2a" points="198,187.60000000000002 180,280 144,280" stroke="none" /><line stroke="#aaa89e" stroke-width="2" x1="96" x2="192" y1="164" y2="164" /><ellipse cx="153" cy="247" fill="white" fill-opacity="0.12" rx="3" ry="2" stroke="none" /><ellipse cx="151" cy="233" fill="white" fill-opacity="0.12" rx="3" ry="2" stroke="none" /><ellipse cx="116" cy="180" fill="white" fill-opacity="0.12" rx="3" ry="2" stroke="none" /><ellipse cx="118" cy="219" fill="white" fill-opacity="0.12" rx="3" ry="2" stroke="none" /><polygon fill="#c8c8be" points="360,112 368,112 314,166" stroke="none" /><polygon fill="#c8c8be" points="368,112 368,166 314,166" stroke="none" /><polygon fill="#e2e2d8" points="368,112 376,112 368,166" stroke="none" /><polygon fill="#e2e2d8" points="376,112 422,166 368,166" stroke="none" /><polygon fill="#aaa89e" points="314,166 368,166 314,194.35000000000002" stroke="none" /><polygon fill="#aaa89e" points="368,166 368,194.35000000000002 314,194.35000000000002" stroke="none" /><polygon fill="#e2e2d8" points="368,166 422,166 368,194.35000000000002" stroke="none" /><polygon fill="#e2e2d8" points="422,166 422,194.35000000000002 368,194.35000000000002" stroke="none" /><polygon fill="#f4cc2a" points="314,194.35000000000002 368,194.35000000000002 332,295" stroke="none" /><polygon fill="#f4cc2a" points="368,194.35000000000002 368,295 332,295" stroke="none" /><polygon fill="#f4cc2a" points="368,194.35000000000002 422,194.35000000000002 368,295" stroke="none" /><polygon fill="#f4cc2a" points="422,194.35000000000002 404,295 368,295" stroke="none" /><line stroke="#aaa89e" stroke-width="2" x1="320" x2="416" y1="168" y2="168" /><ellipse cx="368" cy="182" fill="white" fill-opacity="0.12" rx="3" ry="2" stroke="none" /><ellipse cx="370" cy="275" fill="white" fill-opacity="0.12" rx="3" ry="2" stroke="none" /><ellipse cx="368" cy="215" fill="white" fill-opacity="0.12" rx="3" ry="2" stroke="none" /><ellipse cx="384" cy="258" fill="white" fill-opacity="0.12" rx="3" ry="2" stroke="none" /></svg>