<?xml version="1.0" encoding="utf-8" ?>
<svg baseProfile="full" height="512" version="1.1" width="512" xmlns="http://www.w3.org/2000/svg" xmlns:ev="http://www.w3.org/2001/xml-events" xmlns:xlink="http://www.w3.org/1999/xlink"><defs /><polygon fill="#c8c8be" points="244,80 249,80 139,112" stroke="none" /><polygon fill="#c8c8be" points="249,80 174,112 139,112" stroke="none" /><polygon fill="#e2e2d8" points="249,80 256,80 174,112" stroke="none" /><polygon fill="#e2e2d8" points="256,80 259,112 174,112" stroke="none" /><polygon fill="#f2f2ec" points="256,80 262,80 259,112" stroke="none" /><polygon fill="#e2e2d8" points="262,80 335,112 259,112" stroke="none" /><polygon fill="#e2e2d8" points="262,80 268,80 335,112" stroke="none" /><polygon fill="#c8c8be" points="268,80 371,112 335,112" stroke="none" /><polygon fill="#c8c8be" points="139,112 174,112 160,155" stroke="none" /><polygon fill="#c8c8be" points="174,112 201,155 160,155" stroke="none" /><polygon fill="#c8c8be" points="174,112 259,112 201,155" stroke="none" /><polygon fill="#f2f2ec" points="259,112 255,155 201,155" stroke="none" /><polygon fill="#e2e2d8" points="259,112 335,112 255,155" stroke="none" /><polygon fill="#c8c8be" points="335,112 310,155 255,155" stroke="none" /><polygon fill="#c8c8be" points="335,112 371,112 310,155" stroke="none" /><polygon fill="#c8c8be" points="371,112 357,155 310,155" stroke="none" /><polygon fill="#c8c8be" points="160,155 201,155 198,200" stroke="none" /><polygon fill="#c8c8be" points="201,155 229,200 198,200" stroke="none" /><polygon fill="#e2e2d8" points="201,155 255,155 229,200" stroke="none" /><polygon fill="#f2f2ec" points="255,155 259,200 229,200" stroke="none" /><polygon fill="#f2f2ec" points="255,155 310,155 259,200" stroke="none" /><polygon fill="#e2e2d8" points="310,155 282,200 259,200" stroke="none" /><polygon fill="#c8c8be" points="310,155 357,155 282,200" stroke="none" /><polygon fill="#c8c8be" points="357,155 310,200 282,200" stroke="none" /><polygon fill="#c8c8be" points="198,200 229,200 198,300" stroke="none" /><polygon fill="#c8c8be" points="229,200 232,300 198,300" stroke="none" /><polygon fill="#f2f2ec" points="229,200 259,200 232,300" stroke="none" /><polygon fill="#f2f2ec" points="259,200 258,300 232,300" stroke="none" /><polygon fill="#f2f2ec" points="259,200 282,200 258,300" stroke="none" /><polygon fill="#f2f2ec" points="282,200 275,300 258,300" stroke="none" /><polygon fill="#e2e2d8" points="282,200 310,200 275,300" stroke="none" /><polygon fill="#c8c8be" points="310,200 314,300 275,300" stroke="none" /><polygon fill="#c8c8be" points="198,300 232,300 202,370" stroke="none" /><polygon fill="#e2e2d8" points="232,300 240,370 202,370" stroke="none" /><polygon fill="#f2f2ec" points="232,300 258,300 240,370" stroke="none" /><polygon fill="#f2f2ec" points="258,300 255,370 240,370" stroke="none" /><polygon fill="#f2f2ec" points="258,300 275,300 255,370" stroke="none" /><polygon fill="#f2f2ec" points="275,300 277,370 255,370" stroke="none" /><polygon fill="#e2e2d8" points="275,300 314,300 277,370" stroke="none" /><polygon fill="#c8c8be" points="314,300 315,370 277,370" stroke="none" /><polygon fill="#c8c8be" points="202,370 240,370 194,430" stroke="none" /><polygon fill="#e2e2d8" points="240,370 237,430 194,430" stroke="none" /><polygon fill="#f2f2ec" points="240,370 255,370 237,430" stroke="none" /><polygon fill="#f2f2ec" points="255,370 256,430 237,430" stroke="none" /><polygon fill="#f2f2ec" points="255,370 277,370 256,430" stroke="none" /><polygon fill="#f2f2ec" points="277,370 274,430 256,430" stroke="none" /><polygon fill="#e2e2d8" points="277,370 315,370 274,430" stroke="none" /><polygon fill="#c8c8be" points="315,370 318,430 274,430" stroke="none" /><polygon fill="#c8c8be" points="235,95 256,110 277,95" stroke="#999" stroke-width="1.5" /><circle cx="256" cy="135" fill="#ddd" r="3" stroke="#999" stroke-width="1" /><circle cx="256" cy="165" fill="#ddd" r="3" stroke="#999" stroke-width="1" /><circle cx="256" cy="195" fill="#ddd" r="3" stroke="#999" stroke-width="1" /><rect fill="#e2e2d8" height="14" stroke="#aaa89e" stroke-width="1.5" width="16" x="221" y="145" /><line stroke="#aaa89e" stroke-width="2" x1="225" x2="287" y1="420" y2="420" /><path d="M 220 152 Q 234 166 248 152" fill="none" stroke="#aaa89e" stroke-width="1.5" /><path d="M 264 152 Q 278 166 292 152" fill="none" stroke="#aaa89e" stroke-width="1.5" /><line stroke="#aaa89e" stroke-width="1.2" x1="244" x2="226" y1="215" y2="215" /><line stroke="#aaa89e" stroke-width="1.2" x1="268" x2="286" y1="215" y2="215" /><line stroke="#aaa89e" stroke-width="1.2" x1="244" x2="226" y1="240" y2="240" /><line stroke="#aaa89e" stroke-width="1.2" x1="268" x2="286" y1="240" y2="240" /><line stroke="#aaa89e" stroke-width="1.2" x1="244" x2="226" y1="265" y2="265" /><line stroke="#aaa89e" stroke-width="1.2" x1="268" x2="286" y1="265" y2="265" /><line stroke="#aaa89e" stroke-width="1.2" x1="244" x2="226" y1="290" y2="290" /><line stroke="#aaa89e" stroke-width="1.2" x1="268" x2="286" y1="290" y2="290" /><polygon fill="#c8c8be" points="135,112 143,112 107,172" stroke="none" /><polygon fill="#c8c8be" points="143,112 143,172 107,172" stroke="none" /><polygon fill="#e2e2d8" points="143,112 151,112 143,172" stroke="none" /><polygon fill="#e2e2d8" points="151,112 179,172 143,172" stroke="none" /><polygon fill="#aaa89e" points="107,172 143,172 107,202.9" stroke="none" /><polygon fill="#aaa89e" points="143,172 143,202.9 107,202.9" stroke="none" /><polygon fill="#e2e2d8" points="143,172 179,172 143,202.9" stroke="none" /><polygon fill="#e2e2d8" points="179,172 179,202.9 143,202.9" stroke="none" /><polygon fill="#f5d040" points="107,202.9 143,202.9 119,314" stroke="none" /><polygon fill="#f5d040" points="143,202.9 143,314 119,314" stroke="none" /><polygon fill="#f5d040" points="143,202.9 179,202.9 143,314" stroke="none" /><polygon fill="#f5d040" points="179,202.9 167,314 143,314" stroke="none" /><line stroke="#aaa89e" stroke-width="2" x1="111" x2="175" y1="174" y2="174" /><ellipse cx="124" cy="248" fill="white" fill-opacity="0.12" rx="3" ry="2" stroke="none" /><ellipse cx="137" cy="230" fill="white" fill-opacity="0.12" rx="3" ry="2" stroke="none" /><ellipse cx="144" cy="260" fill="white" fill-opacity="0.12" rx="3" ry="2" stroke="none" /><ellipse cx="153" cy="283" fill="white" fill-opacity="0.12" rx="3" ry="2" stroke="none" /><polygon fill="#c8c8be" points="361,112 369,112 333,172" stroke="none" /><polygon fill="#c8c8be" points="369,112 369,172 333,172" stroke="none" /><polygon fill="#e2e2d8" points="369,112 377,112 369,172" stroke="none" /><polygon fill="#e2e2d8" points="377,112 405,172 369,172" stroke="none" /><polygon fill="#aaa89e" points="333,172 369,172 333,202.9" stroke="none" /><polygon fill="#aaa89e" points="369,172 369,202.9 333,202.9" stroke="none" /><polygon fill="#e2e2d8" points="369,172 405,172 369,202.9" stroke="none" /><polygon fill="#e2e2d8" points="405,172 405,202.9 369,202.9" stroke="none" /><polygon fill="#f5d040" points="333,202.9 369,202.9 345,314" stroke="none" /><polygon fill="#f5d040" points="369,202.9 369,314 345,314" stroke="none" /><polygon fill="#f5d040" points="369,202.9 405,202.9 369,314" stroke="none" /><polygon fill="#f5d040" points="405,202.9 393,314 369,314" stroke="none" /><line stroke="#aaa89e" stroke-width="2" x1="337" x2="401" y1="174" y2="174" /><ellipse cx="388" cy="276" fill="white" fill-opacity="0.12" rx="3" ry="2" stroke="none" /><ellipse cx="371" cy="203" fill="white" fill-opacity="0.12" rx="3" ry="2" stroke="none" /><ellipse cx="362" cy="279" fill="white" fill-opacity="0.12" rx="3" ry="2" stroke="none" /><ellipse cx="363" cy="277" fill="white" fill-opacity="0.12" rx="3" ry="2" stroke="none" /><ellipse cx="378" cy="209" fill="white" fill-opacity="0.12" rx="3" ry="2" stroke="none" /></svg>