<?xml version="1.0" encoding="utf-8" ?>
<svg baseProfile="full" height="512" version="1.1" width="512" xmlns="http://www.w3.org/2000/svg" xmlns:ev="http://www.w3.org/2001/xml-events" xmlns:xlink="http://www.w3.org/1999/xlink"><defs /><polygon fill="#c8c8be" points="244,80 250,80 174,112" stroke="none" /><polygon fill="#c8c8be" points="250,80 203,112 174,112" stroke="none" /><polygon fill="#e2e2d8" points="250,80 256,80 203,112" stroke="none" /><polygon fill="#e2e2d8" points="256,80 257,112 203,112" stroke="none" /><polygon fill="#f2f2ec" points="256,80 263,80 257,112" stroke="none" /><polygon fill="#e2e2d8" points="263,80 312,112 257,112" stroke="none" /><polygon fill="#c8c8be" points="263,80 269,80 312,112" stroke="none" /><polygon fill="#c8c8be" points="269,80 338,112 312,112" stroke="none" /><polygon fill="#c8c8be" points="174,112 203,112 186,155" stroke="none" /><polygon fill="#c8c8be" points="203,112 217,155 186,155" stroke="none" /><polygon fill="#c8c8be" points="203,112 257,112 217,155" stroke="none" /><polygon fill="#f2f2ec" points="257,112 256,155 217,155" stroke="none" /><polygon fill="#e2e2d8" points="257,112 312,112 256,155" stroke="none" /><polygon fill="#c8c8be" points="312,112 293,155 256,155" stroke="none" /><polygon fill="#c8c8be" points="312,112 338,112 293,155" stroke="none" /><polygon fill="#c8c8be" points="338,112 321,155 293,155" stroke="none" /><polygon fill="#aaa89e" points="186,155 217,155 216,200" stroke="none" /><polygon fill="#aaa89e" points="217,155 239,200 216,200" stroke="none" /><polygon fill="#e2e2d8" points="217,155 256,155 239,200" stroke="none" /><polygon fill="#f2f2ec" points="256,155 254,200 239,200" stroke="none" /><polygon fill="#f2f2ec" points="256,155 293,155 254,200" stroke="none" /><polygon fill="#e2e2d8" points="293,155 272,200 254,200" stroke="none" /><polygon fill="#aaa89e" points="293,155 321,155 272,200" stroke="none" /><polygon fill="#aaa89e" points="321,155 300,200 272,200" stroke="none" /><polygon fill="#c8c8be" points="216,200 239,200 210,300" stroke="none" /><polygon fill="#c8c8be" points="239,200 239,300 210,300" stroke="none" /><polygon fill="#f2f2ec" points="239,200 254,200 239,300" stroke="none" /><polygon fill="#f2f2ec" points="254,200 255,300 239,300" stroke="none" /><polygon fill="#f2f2ec" points="254,200 272,200 255,300" stroke="none" /><polygon fill="#f2f2ec" points="272,200 272,300 255,300" stroke="none" /><polygon fill="#c8c8be" points="272,200 300,200 272,300" stroke="none" /><polygon fill="#c8c8be" points="300,200 302,300 272,300" stroke="none" /><polygon fill="#c8c8be" points="210,300 239,300 217,370" stroke="none" /><polygon fill="#e2e2d8" points="239,300 245,370 217,370" stroke="none" /><polygon fill="#f2f2ec" points="239,300 255,300 245,370" stroke="none" /><polygon fill="#f2f2ec" points="255,300 255,370 245,370" stroke="none" /><polygon fill="#f2f2ec" points="255,300 272,300 255,370" stroke="none" /><polygon fill="#f2f2ec" points="272,300 271,370 255,370" stroke="none" /><polygon fill="#c8c8be" points="272,300 302,300 271,370" stroke="none" /><polygon fill="#c8c8be" points="302,300 295,370 271,370" stroke="none" /><polygon fill="#c8c8be" points="217,370 245,370 209,430" stroke="none" /><polygon fill="#e2e2d8" points="245,370 244,430 209,430" stroke="none" /><polygon fill="#f2f2ec" points="245,370 255,370 244,430" stroke="none" /><polygon fill="#f2f2ec" points="255,370 256,430 244,430" stroke="none" /><polygon fill="#f2f2ec" points="255,370 271,370 256,430" stroke="none" /><polygon fill="#f2f2ec" points="271,370 270,430 256,430" stroke="none" /><polygon fill="#e2e2d8" points="271,370 295,370 270,430" stroke="none" /><polygon fill="#c8c8be" points="295,370 301,430 270,430" stroke="none" /><polygon fill="#c8c8be" points="242,95 256,110 270,95" stroke="#999" stroke-width="1.5" /><circle cx="256" cy="135" fill="#ddd" r="3" stroke="#999" stroke-width="1" /><circle cx="256" cy="165" fill="#ddd" r="3" stroke="#999" stroke-width="1" /><circle cx="256" cy="195" fill="#ddd" r="3" stroke="#999" stroke-width="1" /><rect fill="#e2e2d8" height="9" stroke="#aaa89e" stroke-width="1.5" width="11" x="232" y="145" /><line stroke="#aaa89e" stroke-width="2" x1="233" x2="279" y1="420" y2="420" /><path d="M 224 165 Q 236 186 248 165" fill="none" stroke="#aaa89e" stroke-width="1.5" /><path d="M 264 165 Q 276 186 288 165" fill="none" stroke="#aaa89e" stroke-width="1.5" /><polygon fill="#c8c8be" points="172,112 180,112 157,166" stroke="none" /><polygon fill="#c8c8be" points="180,112 180,166 157,166" stroke="none" /><polygon fill="#e2e2d8" points="180,112 188,112 180,166" stroke="none" /><polygon fill="#e2e2d8" points="188,112 203,166 180,166" stroke="none" /><polygon fill="#aaa89e" points="157,166 180,166 157,193.0" stroke="none" /><polygon fill="#aaa89e" points="180,166 180,193.0 157,193.0" stroke="none" /><polygon fill="#e2e2d8" points="180,166 203,166 180,193.0" stroke="none" /><polygon fill="#e2e2d8" points="203,166 203,193.0 180,193.0" stroke="none" /><polygon fill="#f4cc2a" points="157,193.0 180,193.0 165,292" stroke="none" /><polygon fill="#f4cc2a" points="180,193.0 180,292 165,292" stroke="none" /><polygon fill="#f4cc2a" points="180,193.0 203,193.0 180,292" stroke="none" /><polygon fill="#f4cc2a" points="203,193.0 195,292 180,292" stroke="none" /><line stroke="#aaa89e" stroke-width="2" x1="160" x2="200" y1="168" y2="168" /><path d="M 192 252 Q 195 249 198 252" fill="none" stroke="#d4c0a0" stroke-opacity="0.3" stroke-width="1" /><path d="M 178 213 Q 181 210 184 213" fill="none" stroke="#d4c0a0" stroke-opacity="0.3" stroke-width="1" /><path d="M 181 267 Q 186 262 191 267" fill="none" stroke="#d4c0a0" stroke-opacity="0.3" stroke-width="1" /><polygon fill="#c8c8be" points="324,112 332,112 309,164" stroke="none" /><polygon fill="#c8c8be" points="332,112 332,164 309,164" stroke="none" /><polygon fill="#e2e2d8" points="332,112 340,112 332,164" stroke="none" /><polygon fill="#e2e2d8" points="340,112 355,164 332,164" stroke="none" /><polygon fill="#aaa89e" points="309,164 332,164 309,191.2" stroke="none" /><polygon fill="#aaa89e" points="332,164 332,191.2 309,191.2" stroke="none" /><polygon fill="#e2e2d8" points="332,164 355,164 332,191.2" stroke="none" /><polygon fill="#e2e2d8" points="355,164 355,191.2 332,191.2" stroke="none" /><polygon fill="#f4cc2a" points="309,191.2 332,191.2 317,288" stroke="none" /><polygon fill="#f4cc2a" points="332,191.2 332,288 317,288" stroke="none" /><polygon fill="#f4cc2a" points="332,191.2 355,191.2 332,288" stroke="none" /><polygon fill="#f4cc2a" points="355,191.2 347,288 332,288" stroke="none" /><line stroke="#aaa89e" stroke-width="2" x1="312" x2="352" y1="166" y2="166" /><path d="M 321 209 Q 324 206 327 209" fill="none" stroke="#d4c0a0" stroke-opacity="0.3" stroke-width="1" /><path d="M 341 233 Q 343 231 345 233" fill="none" stroke="#d4c0a0" stroke-opacity="0.3" stroke-width="1" /><path d="M 342 186 Q 346 182 350 186" fill="none" stroke="#d4c0a0" stroke-opacity="0.3" stroke-width="1" /></svg>