<?xml version="1.0" encoding="utf-8" ?>
<svg baseProfile="full" height="512" version="1.1" width="512" xmlns="http://www.w3.org/2000/svg" xmlns:ev="http://www.w3.org/2001/xml-events" xmlns:xlink="http://www.w3.org/1999/xlink"><defs /><polygon fill="#e2e2d8" points="243,80 250,80 180,112" stroke="none" /><polygon fill="#c8c8be" points="250,80 200,112 180,112" stroke="none" /><polygon fill="#f2f2ec" points="250,80 257,80 200,112" stroke="none" /><polygon fill="#f2f2ec" points="257,80 256,112 200,112" stroke="none" /><polygon fill="#f2f2ec" points="257,80 263,80 256,112" stroke="none" /><polygon fill="#f2f2ec" points="263,80 313,112 256,112" stroke="none" /><polygon fill="#e2e2d8" points="263,80 268,80 313,112" stroke="none" /><polygon fill="#c8c8be" points="268,80 333,112 313,112" stroke="none" /><polygon fill="#c8c8be" points="180,112 200,112 192,155" stroke="none" /><polygon fill="#c8c8be" points="200,112 219,155 192,155" stroke="none" /><polygon fill="#e2e2d8" points="200,112 256,112 219,155" stroke="none" /><polygon fill="#f2f2ec" points="256,112 256,155 219,155" stroke="none" /><polygon fill="#f2f2ec" points="256,112 313,112 256,155" stroke="none" /><polygon fill="#e2e2d8" points="313,112 288,155 256,155" stroke="none" /><polygon fill="#c8c8be" points="313,112 333,112 288,155" stroke="none" /><polygon fill="#c8c8be" points="333,112 321,155 288,155" stroke="none" /><polygon fill="#c8c8be" points="192,155 219,155 201,200" stroke="none" /><polygon fill="#c8c8be" points="219,155 232,200 201,200" stroke="none" /><polygon fill="#f2f2ec" points="219,155 256,155 232,200" stroke="none" /><polygon fill="#f2f2ec" points="256,155 256,200 232,200" stroke="none" /><polygon fill="#f2f2ec" points="256,155 288,155 256,200" stroke="none" /><polygon fill="#f2f2ec" points="288,155 279,200 256,200" stroke="none" /><polygon fill="#c8c8be" points="288,155 321,155 279,200" stroke="none" /><polygon fill="#c8c8be" points="321,155 313,200 279,200" stroke="none" /><polygon fill="#c8c8be" points="201,200 232,200 202,300" stroke="none" /><polygon fill="#e2e2d8" points="232,200 235,300 202,300" stroke="none" /><polygon fill="#f2f2ec" points="232,200 256,200 235,300" stroke="none" /><polygon fill="#f2f2ec" points="256,200 258,300 235,300" stroke="none" /><polygon fill="#f2f2ec" points="256,200 279,200 258,300" stroke="none" /><polygon fill="#f2f2ec" points="279,200 278,300 258,300" stroke="none" /><polygon fill="#c8c8be" points="279,200 313,200 278,300" stroke="none" /><polygon fill="#c8c8be" points="313,200 314,300 278,300" stroke="none" /><polygon fill="#c8c8be" points="202,300 235,300 199,370" stroke="none" /><polygon fill="#e2e2d8" points="235,300 235,370 199,370" stroke="none" /><polygon fill="#f2f2ec" points="235,300 258,300 235,370" stroke="none" /><polygon fill="#f2f2ec" points="258,300 258,370 235,370" stroke="none" /><polygon fill="#f2f2ec" points="258,300 278,300 258,370" stroke="none" /><polygon fill="#f2f2ec" points="278,300 274,370 258,370" stroke="none" /><polygon fill="#e2e2d8" points="278,300 314,300 274,370" stroke="none" /><polygon fill="#c8c8be" points="314,300 307,370 274,370" stroke="none" /><polygon fill="#c8c8be" points="199,370 235,370 196,430" stroke="none" /><polygon fill="#e2e2d8" points="235,370 237,430 196,430" stroke="none" /><polygon fill="#f2f2ec" points="235,370 258,370 237,430" stroke="none" /><polygon fill="#f2f2ec" points="258,370 256,430 237,430" stroke="none" /><polygon fill="#f2f2ec" points="258,370 274,370 256,430" stroke="none" /><polygon fill="#f2f2ec" points="274,370 273,430 256,430" stroke="none" /><polygon fill="#e2e2d8" points="274,370 307,370 273,430" stroke="none" /><polygon fill="#c8c8be" points="307,370 317,430 273,430" stroke="none" /><polygon fill="#c8c8be" points="242,95 256,110 270,95" stroke="#999" stroke-width="1.5" /><circle cx="256" cy="135" fill="#ddd" r="3" stroke="#999" stroke-width="1" /><circle cx="256" cy="165" fill="#ddd" r="3" stroke="#999" stroke-width="1" /><circle cx="256" cy="195" fill="#ddd" r="3" stroke="#999" stroke-width="1" /><rect fill="#e2e2d8" height="9" stroke="#aaa89e" stroke-width="1.5" width="11" x="233" y="145" /><line stroke="#aaa89e" stroke-width="2" x1="226" x2="286" y1="420" y2="420" /><polygon fill="#c8c8be" points="173,112 181,112 143,178" stroke="none" /><polygon fill="#c8c8be" points="181,112 157,178 143,178" stroke="none" /><polygon fill="#e2e2d8" points="181,112 189,112 157,178" stroke="none" /><polygon fill="#e2e2d8" points="189,112 171,178 157,178" stroke="none" /><polygon fill="#aaa89e" points="143,178 157,178 143,211.0" stroke="none" /><polygon fill="#aaa89e" points="157,178 157,211.0 143,211.0" stroke="none" /><polygon fill="#e2e2d8" points="157,178 171,178 157,211.0" stroke="none" /><polygon fill="#e2e2d8" points="171,178 171,211.0 157,211.0" stroke="none" /><polygon fill="#f3ca24" points="143,211.0 157,211.0 142,332" stroke="none" /><polygon fill="#f3ca24" points="157,211.0 157,332 142,332" stroke="none" /><polygon fill="#f3ca24" points="157,211.0 171,211.0 157,332" stroke="none" /><polygon fill="#f3ca24" points="171,211.0 162,332 157,332" stroke="none" /><line stroke="#aaa89e" stroke-width="2" x1="165" x2="197" y1="180" y2="180" /><path d="M 175 194 Q 177 192 179 194" fill="none" stroke="#d4c0a0" stroke-opacity="0.3" stroke-width="1" /><path d="M 184 230 Q 188 226 192 230" fill="none" stroke="#d4c0a0" stroke-opacity="0.3" stroke-width="1" /><polygon fill="#c8c8be" points="323,112 331,112 345,182" stroke="none" /><polygon fill="#c8c8be" points="331,112 359,182 345,182" stroke="none" /><polygon fill="#e2e2d8" points="331,112 339,112 359,182" stroke="none" /><polygon fill="#e2e2d8" points="339,112 373,182 359,182" stroke="none" /><polygon fill="#aaa89e" points="345,182 359,182 345,217.3" stroke="none" /><polygon fill="#aaa89e" points="359,182 359,217.3 345,217.3" stroke="none" /><polygon fill="#e2e2d8" points="359,182 373,182 359,217.3" stroke="none" /><polygon fill="#e2e2d8" points="373,182 373,217.3 359,217.3" stroke="none" /><polygon fill="#f3ca24" points="345,217.3 359,217.3 354,346" stroke="none" /><polygon fill="#f3ca24" points="359,217.3 359,346 354,346" stroke="none" /><polygon fill="#f3ca24" points="359,217.3 373,217.3 359,346" stroke="none" /><polygon fill="#f3ca24" points="373,217.3 374,346 359,346" stroke="none" /><line stroke="#aaa89e" stroke-width="2" x1="315" x2="347" y1="184" y2="184" /><path d="M 329 235 Q 334 230 339 235" fill="none" stroke="#d4c0a0" stroke-opacity="0.3" stroke-width="1" /><path d="M 322 279 Q 325 276 328 279" fill="none" stroke="#d4c0a0" stroke-opacity="0.3" stroke-width="1" /><path d="M 323 339 Q 328 334 333 339" fill="none" stroke="#d4c0a0" stroke-opacity="0.3" stroke-width="1" /><path d="M 328 206 Q 333 201 338 206" fill="none" stroke="#d4c0a0" stroke-opacity="0.3" stroke-width="1" /></svg>