<?xml version="1.0" encoding="utf-8" ?>
<svg baseProfile="full" height="512" version="1.1" width="512" xmlns="http://www.w3.org/2000/svg" xmlns:ev="http://www.w3.org/2001/xml-events" xmlns:xlink="http://www.w3.org/1999/xlink"><defs /><polygon fill="#c8c8be" points="243,80 250,80 182,112" stroke="none" /><polygon fill="#c8c8be" points="250,80 208,112 182,112" stroke="none" /><polygon fill="#e2e2d8" points="250,80 256,80 208,112" stroke="none" /><polygon fill="#f2f2ec" points="256,80 259,112 208,112" stroke="none" /><polygon fill="#f2f2ec" points="256,80 262,80 259,112" stroke="none" /><polygon fill="#e2e2d8" points="262,80 307,112 259,112" stroke="none" /><polygon fill="#e2e2d8" points="262,80 269,80 307,112" stroke="none" /><polygon fill="#c8c8be" points="269,80 328,112 307,112" stroke="none" /><polygon fill="#c8c8be" points="182,112 208,112 196,155" stroke="none" /><polygon fill="#c8c8be" points="208,112 224,155 196,155" stroke="none" /><polygon fill="#c8c8be" points="208,112 259,112 224,155" stroke="none" /><polygon fill="#f2f2ec" points="259,112 259,155 224,155" stroke="none" /><polygon fill="#e2e2d8" points="259,112 307,112 259,155" stroke="none" /><polygon fill="#c8c8be" points="307,112 289,155 259,155" stroke="none" /><polygon fill="#c8c8be" points="307,112 328,112 289,155" stroke="none" /><polygon fill="#c8c8be" points="328,112 320,155 289,155" stroke="none" /><polygon fill="#aaa89e" points="196,155 224,155 217,200" stroke="none" /><polygon fill="#aaa89e" points="224,155 235,200 217,200" stroke="none" /><polygon fill="#e2e2d8" points="224,155 259,155 235,200" stroke="none" /><polygon fill="#f2f2ec" points="259,155 255,200 235,200" stroke="none" /><polygon fill="#f2f2ec" points="259,155 289,155 255,200" stroke="none" /><polygon fill="#e2e2d8" points="289,155 273,200 255,200" stroke="none" /><polygon fill="#aaa89e" points="289,155 320,155 273,200" stroke="none" /><polygon fill="#aaa89e" points="320,155 299,200 273,200" stroke="none" /><polygon fill="#c8c8be" points="217,200 235,200 214,300" stroke="none" /><polygon fill="#c8c8be" points="235,200 239,300 214,300" stroke="none" /><polygon fill="#f2f2ec" points="235,200 255,200 239,300" stroke="none" /><polygon fill="#f2f2ec" points="255,200 257,300 239,300" stroke="none" /><polygon fill="#f2f2ec" points="255,200 273,200 257,300" stroke="none" /><polygon fill="#f2f2ec" points="273,200 272,300 257,300" stroke="none" /><polygon fill="#c8c8be" points="273,200 299,200 272,300" stroke="none" /><polygon fill="#c8c8be" points="299,200 299,300 272,300" stroke="none" /><polygon fill="#c8c8be" points="214,300 239,300 213,370" stroke="none" /><polygon fill="#c8c8be" points="239,300 241,370 213,370" stroke="none" /><polygon fill="#f2f2ec" points="239,300 257,300 241,370" stroke="none" /><polygon fill="#f2f2ec" points="257,300 258,370 241,370" stroke="none" /><polygon fill="#f2f2ec" points="257,300 272,300 258,370" stroke="none" /><polygon fill="#f2f2ec" points="272,300 272,370 258,370" stroke="none" /><polygon fill="#c8c8be" points="272,300 299,300 272,370" stroke="none" /><polygon fill="#c8c8be" points="299,300 293,370 272,370" stroke="none" /><polygon fill="#c8c8be" points="213,370 241,370 211,430" stroke="none" /><polygon fill="#e2e2d8" points="241,370 243,430 211,430" stroke="none" /><polygon fill="#f2f2ec" points="241,370 258,370 243,430" stroke="none" /><polygon fill="#f2f2ec" points="258,370 256,430 243,430" stroke="none" /><polygon fill="#f2f2ec" points="258,370 272,370 256,430" stroke="none" /><polygon fill="#f2f2ec" points="272,370 270,430 256,430" stroke="none" /><polygon fill="#e2e2d8" points="272,370 293,370 270,430" stroke="none" /><polygon fill="#c8c8be" points="293,370 302,430 270,430" stroke="none" /><polygon fill="#c8c8be" points="243,95 256,110 269,95" stroke="#999" stroke-width="1.5" /><circle cx="256" cy="135" fill="#ddd" r="3" stroke="#999" stroke-width="1" /><circle cx="256" cy="165" fill="#ddd" r="3" stroke="#999" stroke-width="1" /><circle cx="256" cy="195" fill="#ddd" r="3" stroke="#999" stroke-width="1" /><rect fill="#e2e2d8" height="8" stroke="#aaa89e" stroke-width="1.5" width="10" x="234" y="145" /><line stroke="#aaa89e" stroke-width="2" x1="234" x2="278" y1="420" y2="420" /><path d="M 224 165 Q 236 186 248 165" fill="none" stroke="#aaa89e" stroke-width="1.5" /><path d="M 264 165 Q 276 186 288 165" fill="none" stroke="#aaa89e" stroke-width="1.5" /><polygon fill="#c8c8be" points="178,112 186,112 163,170" stroke="none" /><polygon fill="#c8c8be" points="186,112 186,170 163,170" stroke="none" /><polygon fill="#e2e2d8" points="186,112 194,112 186,170" stroke="none" /><polygon fill="#e2e2d8" points="194,112 209,170 186,170" stroke="none" /><polygon fill="#aaa89e" points="163,170 186,170 163,200.2" stroke="none" /><polygon fill="#aaa89e" points="186,170 186,200.2 163,200.2" stroke="none" /><polygon fill="#e2e2d8" points="186,170 209,170 186,200.2" stroke="none" /><polygon fill="#e2e2d8" points="209,170 209,200.2 186,200.2" stroke="none" /><polygon fill="#f5ce2e" points="163,200.2 186,200.2 171,308" stroke="none" /><polygon fill="#f5ce2e" points="186,200.2 186,308 171,308" stroke="none" /><polygon fill="#f5ce2e" points="186,200.2 209,200.2 186,308" stroke="none" /><polygon fill="#f5ce2e" points="209,200.2 201,308 186,308" stroke="none" /><line stroke="#aaa89e" stroke-width="2" x1="166" x2="206" y1="172" y2="172" /><ellipse cx="173" cy="242" fill="white" fill-opacity="0.12" rx="3" ry="2" stroke="none" /><ellipse cx="175" cy="189" fill="white" fill-opacity="0.12" rx="3" ry="2" stroke="none" /><ellipse cx="179" cy="196" fill="white" fill-opacity="0.12" rx="3" ry="2" stroke="none" /><ellipse cx="199" cy="192" fill="white" fill-opacity="0.12" rx="3" ry="2" stroke="none" /><ellipse cx="179" cy="273" fill="white" fill-opacity="0.12" rx="3" ry="2" stroke="none" /><polygon fill="#c8c8be" points="318,112 326,112 303,167" stroke="none" /><polygon fill="#c8c8be" points="326,112 326,167 303,167" stroke="none" /><polygon fill="#e2e2d8" points="326,112 334,112 326,167" stroke="none" /><polygon fill="#e2e2d8" points="334,112 349,167 326,167" stroke="none" /><polygon fill="#aaa89e" points="303,167 326,167 303,194.8" stroke="none" /><polygon fill="#aaa89e" points="326,167 326,194.8 303,194.8" stroke="none" /><polygon fill="#e2e2d8" points="326,167 349,167 326,194.8" stroke="none" /><polygon fill="#e2e2d8" points="349,167 349,194.8 326,194.8" stroke="none" /><polygon fill="#f5ce2e" points="303,194.8 326,194.8 311,296" stroke="none" /><polygon fill="#f5ce2e" points="326,194.8 326,296 311,296" stroke="none" /><polygon fill="#f5ce2e" points="326,194.8 349,194.8 326,296" stroke="none" /><polygon fill="#f5ce2e" points="349,194.8 341,296 326,296" stroke="none" /><line stroke="#aaa89e" stroke-width="2" x1="306" x2="346" y1="169" y2="169" /><ellipse cx="328" cy="280" fill="white" fill-opacity="0.12" rx="3" ry="2" stroke="none" /><ellipse cx="317" cy="201" fill="white" fill-opacity="0.12" rx="3" ry="2" stroke="none" /><ellipse cx="336" cy="214" fill="white" fill-opacity="0.12" rx="3" ry="2" stroke="none" /><ellipse cx="315" cy="182" fill="white" fill-opacity="0.12" rx="3" ry="2" stroke="none" /><ellipse cx="313" cy="272" fill="white" fill-opacity="0.12" rx="3" ry="2" stroke="none" /></svg>