<?xml version="1.0" encoding="utf-8" ?>
<svg baseProfile="full" height="512" version="1.1" width="512" xmlns="http://www.w3.org/2000/svg" xmlns:ev="http://www.w3.org/2001/xml-events" xmlns:xlink="http://www.w3.org/1999/xlink"><defs /><polygon fill="#c8c8be" points="245,80 251,80 176,112" stroke="none" /><polygon fill="#c8c8be" points="251,80 199,112 176,112" stroke="none" /><polygon fill="#e2e2d8" points="251,80 256,80 199,112" stroke="none" /><polygon fill="#e2e2d8" points="256,80 253,112 199,112" stroke="none" /><polygon fill="#f2f2ec" points="256,80 263,80 253,112" stroke="none" /><polygon fill="#f2f2ec" points="263,80 308,112 253,112" stroke="none" /><polygon fill="#e2e2d8" points="263,80 267,80 308,112" stroke="none" /><polygon fill="#c8c8be" points="267,80 334,112 308,112" stroke="none" /><polygon fill="#c8c8be" points="176,112 199,112 187,155" stroke="none" /><polygon fill="#c8c8be" points="199,112 218,155 187,155" stroke="none" /><polygon fill="#c8c8be" points="199,112 253,112 218,155" stroke="none" /><polygon fill="#f2f2ec" points="253,112 256,155 218,155" stroke="none" /><polygon fill="#f2f2ec" points="253,112 308,112 256,155" stroke="none" /><polygon fill="#e2e2d8" points="308,112 292,155 256,155" stroke="none" /><polygon fill="#c8c8be" points="308,112 334,112 292,155" stroke="none" /><polygon fill="#c8c8be" points="334,112 323,155 292,155" stroke="none" /><polygon fill="#c8c8be" points="187,155 218,155 208,200" stroke="none" /><polygon fill="#c8c8be" points="218,155 233,200 208,200" stroke="none" /><polygon fill="#e2e2d8" points="218,155 256,155 233,200" stroke="none" /><polygon fill="#f2f2ec" points="256,155 253,200 233,200" stroke="none" /><polygon fill="#f2f2ec" points="256,155 292,155 253,200" stroke="none" /><polygon fill="#f2f2ec" points="292,155 279,200 253,200" stroke="none" /><polygon fill="#c8c8be" points="292,155 323,155 279,200" stroke="none" /><polygon fill="#c8c8be" points="323,155 308,200 279,200" stroke="none" /><polygon fill="#c8c8be" points="208,200 233,200 204,300" stroke="none" /><polygon fill="#c8c8be" points="233,200 237,300 204,300" stroke="none" /><polygon fill="#f2f2ec" points="233,200 253,200 237,300" stroke="none" /><polygon fill="#f2f2ec" points="253,200 256,300 237,300" stroke="none" /><polygon fill="#f2f2ec" points="253,200 279,200 256,300" stroke="none" /><polygon fill="#f2f2ec" points="279,200 274,300 256,300" stroke="none" /><polygon fill="#c8c8be" points="279,200 308,200 274,300" stroke="none" /><polygon fill="#c8c8be" points="308,200 306,300 274,300" stroke="none" /><polygon fill="#c8c8be" points="204,300 237,300 205,370" stroke="none" /><polygon fill="#e2e2d8" points="237,300 238,370 205,370" stroke="none" /><polygon fill="#f2f2ec" points="237,300 256,300 238,370" stroke="none" /><polygon fill="#f2f2ec" points="256,300 253,370 238,370" stroke="none" /><polygon fill="#f2f2ec" points="256,300 274,300 253,370" stroke="none" /><polygon fill="#f2f2ec" points="274,300 269,370 253,370" stroke="none" /><polygon fill="#e2e2d8" points="274,300 306,300 269,370" stroke="none" /><polygon fill="#c8c8be" points="306,300 303,370 269,370" stroke="none" /><polygon fill="#c8c8be" points="205,370 238,370 199,430" stroke="none" /><polygon fill="#e2e2d8" points="238,370 241,430 199,430" stroke="none" /><polygon fill="#f2f2ec" points="238,370 253,370 241,430" stroke="none" /><polygon fill="#f2f2ec" points="253,370 257,430 241,430" stroke="none" /><polygon fill="#f2f2ec" points="253,370 269,370 257,430" stroke="none" /><polygon fill="#f2f2ec" points="269,370 272,430 257,430" stroke="none" /><polygon fill="#e2e2d8" points="269,370 303,370 272,430" stroke="none" /><polygon fill="#c8c8be" points="303,370 313,430 272,430" stroke="none" /><polygon fill="#c8c8be" points="242,95 256,110 270,95" stroke="#999" stroke-width="1.5" /><circle cx="256" cy="135" fill="#ddd" r="3" stroke="#999" stroke-width="1" /><circle cx="256" cy="165" fill="#ddd" r="3" stroke="#999" stroke-width="1" /><circle cx="256" cy="195" fill="#ddd" r="3" stroke="#999" stroke-width="1" /><rect fill="#e2e2d8" height="9" stroke="#aaa89e" stroke-width="1.5" width="10" x="233" y="145" /><line stroke="#aaa89e" stroke-width="2" x1="228" x2="284" y1="420" y2="420" /><polygon fill="#c8c8be" points="174,112 182,112 159,176" stroke="none" /><polygon fill="#c8c8be" points="182,112 182,176 159,176" stroke="none" /><polygon fill="#e2e2d8" points="182,112 190,112 182,176" stroke="none" /><polygon fill="#e2e2d8" points="190,112 205,176 182,176" stroke="none" /><polygon fill="#aaa89e" points="159,176 182,176 159,208.3" stroke="none" /><polygon fill="#aaa89e" points="182,176 182,208.3 159,208.3" stroke="none" /><polygon fill="#e2e2d8" points="182,176 205,176 182,208.3" stroke="none" /><polygon fill="#e2e2d8" points="205,176 205,208.3 182,208.3" stroke="none" /><polygon fill="#f6d244" points="159,208.3 182,208.3 167,326" stroke="none" /><polygon fill="#f6d244" points="182,208.3 182,326 167,326" stroke="none" /><polygon fill="#f6d244" points="182,208.3 205,208.3 182,326" stroke="none" /><polygon fill="#f6d244" points="205,208.3 197,326 182,326" stroke="none" /><line stroke="#aaa89e" stroke-width="2" x1="162" x2="202" y1="178" y2="178" /><ellipse cx="172" cy="269" fill="white" fill-opacity="0.12" rx="3" ry="2" stroke="none" /><ellipse cx="179" cy="256" fill="white" fill-opacity="0.12" rx="3" ry="2" stroke="none" /><ellipse cx="185" cy="253" fill="white" fill-opacity="0.12" rx="3" ry="2" stroke="none" /><ellipse cx="179" cy="233" fill="white" fill-opacity="0.12" rx="3" ry="2" stroke="none" /><ellipse cx="184" cy="234" fill="white" fill-opacity="0.12" rx="3" ry="2" stroke="none" /><polygon fill="#c8c8be" points="322,112 330,112 307,173" stroke="none" /><polygon fill="#c8c8be" points="330,112 330,173 307,173" stroke="none" /><polygon fill="#e2e2d8" points="330,112 338,112 330,173" stroke="none" /><polygon fill="#e2e2d8" points="338,112 353,173 330,173" stroke="none" /><polygon fill="#aaa89e" points="307,173 330,173 307,203.8" stroke="none" /><polygon fill="#aaa89e" points="330,173 330,203.8 307,203.8" stroke="none" /><polygon fill="#e2e2d8" points="330,173 353,173 330,203.8" stroke="none" /><polygon fill="#e2e2d8" points="353,173 353,203.8 330,203.8" stroke="none" /><polygon fill="#f6d244" points="307,203.8 330,203.8 315,316" stroke="none" /><polygon fill="#f6d244" points="330,203.8 330,316 315,316" stroke="none" /><polygon fill="#f6d244" points="330,203.8 353,203.8 330,316" stroke="none" /><polygon fill="#f6d244" points="353,203.8 345,316 330,316" stroke="none" /><line stroke="#aaa89e" stroke-width="2" x1="310" x2="350" y1="175" y2="175" /><ellipse cx="339" cy="235" fill="white" fill-opacity="0.12" rx="3" ry="2" stroke="none" /><ellipse cx="337" cy="236" fill="white" fill-opacity="0.12" rx="3" ry="2" stroke="none" /><ellipse cx="323" cy="201" fill="white" fill-opacity="0.12" rx="3" ry="2" stroke="none" /><ellipse cx="330" cy="257" fill="white" fill-opacity="0.12" rx="3" ry="2" stroke="none" /><ellipse cx="319" cy="256" fill="white" fill-opacity="0.12" rx="3" ry="2" stroke="none" /></svg>