<?xml version="1.0" encoding="utf-8" ?>
<svg baseProfile="full" height="512" version="1.1" width="512" xmlns="http://www.w3.org/2000/svg" xmlns:ev="http://www.w3.org/2001/xml-events" xmlns:xlink="http://www.w3.org/1999/xlink"><defs /><polygon fill="#c8c8be" points="244,80 249,80 186,112" stroke="none" /><polygon fill="#c8c8be" points="249,80 203,112 186,112" stroke="none" /><polygon fill="#e2e2d8" points="249,80 256,80 203,112" stroke="none" /><polygon fill="#e2e2d8" points="256,80 257,112 203,112" stroke="none" /><polygon fill="#f2f2ec" points="256,80 261,80 257,112" stroke="none" /><polygon fill="#e2e2d8" points="261,80 304,112 257,112" stroke="none" /><polygon fill="#e2e2d8" points="261,80 267,80 304,112" stroke="none" /><polygon fill="#c8c8be" points="267,80 332,112 304,112" stroke="none" /><polygon fill="#c8c8be" points="186,112 203,112 193,155" stroke="none" /><polygon fill="#c8c8be" points="203,112 222,155 193,155" stroke="none" /><polygon fill="#c8c8be" points="203,112 257,112 222,155" stroke="none" /><polygon fill="#f2f2ec" points="257,112 259,155 222,155" stroke="none" /><polygon fill="#e2e2d8" points="257,112 304,112 259,155" stroke="none" /><polygon fill="#c8c8be" points="304,112 289,155 259,155" stroke="none" /><polygon fill="#c8c8be" points="304,112 332,112 289,155" stroke="none" /><polygon fill="#c8c8be" points="332,112 318,155 289,155" stroke="none" /><polygon fill="#aaa89e" points="193,155 222,155 220,200" stroke="none" /><polygon fill="#e2e2d8" points="222,155 240,200 220,200" stroke="none" /><polygon fill="#e2e2d8" points="222,155 259,155 240,200" stroke="none" /><polygon fill="#f2f2ec" points="259,155 259,200 240,200" stroke="none" /><polygon fill="#f2f2ec" points="259,155 289,155 259,200" stroke="none" /><polygon fill="#e2e2d8" points="289,155 275,200 259,200" stroke="none" /><polygon fill="#aaa89e" points="289,155 318,155 275,200" stroke="none" /><polygon fill="#aaa89e" points="318,155 295,200 275,200" stroke="none" /><polygon fill="#c8c8be" points="220,200 240,200 218,300" stroke="none" /><polygon fill="#e2e2d8" points="240,200 241,300 218,300" stroke="none" /><polygon fill="#f2f2ec" points="240,200 259,200 241,300" stroke="none" /><polygon fill="#f2f2ec" points="259,200 256,300 241,300" stroke="none" /><polygon fill="#f2f2ec" points="259,200 275,200 256,300" stroke="none" /><polygon fill="#f2f2ec" points="275,200 269,300 256,300" stroke="none" /><polygon fill="#c8c8be" points="275,200 295,200 269,300" stroke="none" /><polygon fill="#c8c8be" points="295,200 295,300 269,300" stroke="none" /><polygon fill="#c8c8be" points="218,300 241,300 217,370" stroke="none" /><polygon fill="#e2e2d8" points="241,300 245,370 217,370" stroke="none" /><polygon fill="#f2f2ec" points="241,300 256,300 245,370" stroke="none" /><polygon fill="#f2f2ec" points="256,300 257,370 245,370" stroke="none" /><polygon fill="#f2f2ec" points="256,300 269,300 257,370" stroke="none" /><polygon fill="#f2f2ec" points="269,300 271,370 257,370" stroke="none" /><polygon fill="#e2e2d8" points="269,300 295,300 271,370" stroke="none" /><polygon fill="#c8c8be" points="295,300 296,370 271,370" stroke="none" /><polygon fill="#c8c8be" points="217,370 245,370 213,430" stroke="none" /><polygon fill="#e2e2d8" points="245,370 243,430 213,430" stroke="none" /><polygon fill="#f2f2ec" points="245,370 257,370 243,430" stroke="none" /><polygon fill="#f2f2ec" points="257,370 256,430 243,430" stroke="none" /><polygon fill="#f2f2ec" points="257,370 271,370 256,430" stroke="none" /><polygon fill="#f2f2ec" points="271,370 269,430 256,430" stroke="none" /><polygon fill="#e2e2d8" points="271,370 296,370 269,430" stroke="none" /><polygon fill="#c8c8be" points="296,370 299,430 269,430" stroke="none" /><polygon fill="#c8c8be" points="243,95 256,110 269,95" stroke="#999" stroke-width="1.5" /><circle cx="256" cy="135" fill="#ddd" r="3" stroke="#999" stroke-width="1" /><circle cx="256" cy="165" fill="#ddd" r="3" stroke="#999" stroke-width="1" /><circle cx="256" cy="195" fill="#ddd" r="3" stroke="#999" stroke-width="1" /><rect fill="#e2e2d8" height="8" stroke="#aaa89e" stroke-width="1.5" width="10" x="235" y="145" /><line stroke="#aaa89e" stroke-width="2" x1="235" x2="277" y1="420" y2="420" /><path d="M 225 165 Q 237 186 249 165" fill="none" stroke="#aaa89e" stroke-width="1.5" /><path d="M 263 165 Q 275 186 287 165" fill="none" stroke="#aaa89e" stroke-width="1.5" /><polygon fill="#c8c8be" points="179,112 187,112 164,179" stroke="none" /><polygon fill="#c8c8be" points="187,112 187,179 164,179" stroke="none" /><polygon fill="#e2e2d8" points="187,112 195,112 187,179" stroke="none" /><polygon fill="#e2e2d8" points="195,112 210,179 187,179" stroke="none" /><polygon fill="#aaa89e" points="164,179 187,179 164,213.7" stroke="none" /><polygon fill="#aaa89e" points="187,179 187,213.7 164,213.7" stroke="none" /><polygon fill="#e2e2d8" points="187,179 210,179 187,213.7" stroke="none" /><polygon fill="#e2e2d8" points="210,179 210,213.7 187,213.7" stroke="none" /><polygon fill="#f4cc2a" points="164,213.7 187,213.7 172,338" stroke="none" /><polygon fill="#f4cc2a" points="187,213.7 187,338 172,338" stroke="none" /><polygon fill="#f4cc2a" points="187,213.7 210,213.7 187,338" stroke="none" /><polygon fill="#f4cc2a" points="210,213.7 202,338 187,338" stroke="none" /><line stroke="#aaa89e" stroke-width="2" x1="167" x2="207" y1="181" y2="181" /><polygon fill="#c8c8be" points="317,112 325,112 302,179" stroke="none" /><polygon fill="#c8c8be" points="325,112 325,179 302,179" stroke="none" /><polygon fill="#e2e2d8" points="325,112 333,112 325,179" stroke="none" /><polygon fill="#e2e2d8" points="333,112 348,179 325,179" stroke="none" /><polygon fill="#aaa89e" points="302,179 325,179 302,213.7" stroke="none" /><polygon fill="#aaa89e" points="325,179 325,213.7 302,213.7" stroke="none" /><polygon fill="#e2e2d8" points="325,179 348,179 325,213.7" stroke="none" /><polygon fill="#e2e2d8" points="348,179 348,213.7 325,213.7" stroke="none" /><polygon fill="#f4cc2a" points="302,213.7 325,213.7 310,338" stroke="none" /><polygon fill="#f4cc2a" points="325,213.7 325,338 310,338" stroke="none" /><polygon fill="#f4cc2a" points="325,213.7 348,213.7 325,338" stroke="none" /><polygon fill="#f4cc2a" points="348,213.7 340,338 325,338" stroke="none" /><line stroke="#aaa89e" stroke-width="2" x1="305" x2="345" y1="181" y2="181" /></svg>