<?xml version="1.0" encoding="utf-8" ?>
<svg baseProfile="full" height="512" version="1.1" width="512" xmlns="http://www.w3.org/2000/svg" xmlns:ev="http://www.w3.org/2001/xml-events" xmlns:xlink="http://www.w3.org/1999/xlink"><defs /><polygon fill="#e2e2d8" points="243,80 251,80 182,112" stroke="none" /><polygon fill="#c8c8be" points="251,80 205,112 182,112" stroke="none" /><polygon fill="#f2f2ec" points="251,80 256,80 205,112" stroke="none" /><polygon fill="#f2f2ec" points="256,80 254,112 205,112" stroke="none" /><polygon fill="#f2f2ec" points="256,80 261,80 254,112" stroke="none" /><polygon fill="#f2f2ec" points="261,80 310,112 254,112" stroke="none" /><polygon fill="#e2e2d8" points="261,80 267,80 310,112" stroke="none" /><polygon fill="#c8c8be" points="267,80 331,112 310,112" stroke="none" /><polygon fill="#c8c8be" points="182,112 205,112 194,155" stroke="none" /><polygon fill="#c8c8be" points="205,112 226,155 194,155" stroke="none" /><polygon fill="#e2e2d8" points="205,112 254,112 226,155" stroke="none" /><polygon fill="#f2f2ec" points="254,112 258,155 226,155" stroke="none" /><polygon fill="#f2f2ec" points="254,112 310,112 258,155" stroke="none" /><polygon fill="#e2e2d8" points="310,112 289,155 258,155" stroke="none" /><polygon fill="#c8c8be" points="310,112 331,112 289,155" stroke="none" /><polygon fill="#c8c8be" points="331,112 318,155 289,155" stroke="none" /><polygon fill="#c8c8be" points="194,155 226,155 204,200" stroke="none" /><polygon fill="#c8c8be" points="226,155 232,200 204,200" stroke="none" /><polygon fill="#f2f2ec" points="226,155 258,155 232,200" stroke="none" /><polygon fill="#f2f2ec" points="258,155 253,200 232,200" stroke="none" /><polygon fill="#f2f2ec" points="258,155 289,155 253,200" stroke="none" /><polygon fill="#f2f2ec" points="289,155 282,200 253,200" stroke="none" /><polygon fill="#c8c8be" points="289,155 318,155 282,200" stroke="none" /><polygon fill="#c8c8be" points="318,155 308,200 282,200" stroke="none" /><polygon fill="#c8c8be" points="204,200 232,200 197,300" stroke="none" /><polygon fill="#c8c8be" points="232,200 233,300 197,300" stroke="none" /><polygon fill="#f2f2ec" points="232,200 253,200 233,300" stroke="none" /><polygon fill="#f2f2ec" points="253,200 255,300 233,300" stroke="none" /><polygon fill="#f2f2ec" points="253,200 282,200 255,300" stroke="none" /><polygon fill="#f2f2ec" points="282,200 274,300 255,300" stroke="none" /><polygon fill="#e2e2d8" points="282,200 308,200 274,300" stroke="none" /><polygon fill="#c8c8be" points="308,200 311,300 274,300" stroke="none" /><polygon fill="#c8c8be" points="197,300 233,300 204,370" stroke="none" /><polygon fill="#e2e2d8" points="233,300 239,370 204,370" stroke="none" /><polygon fill="#f2f2ec" points="233,300 255,300 239,370" stroke="none" /><polygon fill="#f2f2ec" points="255,300 257,370 239,370" stroke="none" /><polygon fill="#f2f2ec" points="255,300 274,300 257,370" stroke="none" /><polygon fill="#f2f2ec" points="274,300 276,370 257,370" stroke="none" /><polygon fill="#e2e2d8" points="274,300 311,300 276,370" stroke="none" /><polygon fill="#c8c8be" points="311,300 307,370 276,370" stroke="none" /><polygon fill="#c8c8be" points="204,370 239,370 195,430" stroke="none" /><polygon fill="#e2e2d8" points="239,370 239,430 195,430" stroke="none" /><polygon fill="#f2f2ec" points="239,370 257,370 239,430" stroke="none" /><polygon fill="#f2f2ec" points="257,370 257,430 239,430" stroke="none" /><polygon fill="#f2f2ec" points="257,370 276,370 257,430" stroke="none" /><polygon fill="#f2f2ec" points="276,370 273,430 257,430" stroke="none" /><polygon fill="#e2e2d8" points="276,370 307,370 273,430" stroke="none" /><polygon fill="#c8c8be" points="307,370 318,430 273,430" stroke="none" /><polygon fill="#c8c8be" points="243,95 256,110 269,95" stroke="#999" stroke-width="1.5" /><circle cx="256" cy="135" fill="#ddd" r="3" stroke="#999" stroke-width="1" /><circle cx="256" cy="165" fill="#ddd" r="3" stroke="#999" stroke-width="1" /><circle cx="256" cy="195" fill="#ddd" r="3" stroke="#999" stroke-width="1" /><rect fill="#e2e2d8" height="8" stroke="#aaa89e" stroke-width="1.5" width="10" x="234" y="145" /><line stroke="#aaa89e" stroke-width="2" x1="226" x2="286" y1="420" y2="420" /><polygon fill="#c8c8be" points="178,112 186,112 168,179" stroke="none" /><polygon fill="#c8c8be" points="186,112 186,179 168,179" stroke="none" /><polygon fill="#e2e2d8" points="186,112 194,112 186,179" stroke="none" /><polygon fill="#e2e2d8" points="194,112 204,179 186,179" stroke="none" /><polygon fill="#aaa89e" points="168,179 186,179 168,213.7" stroke="none" /><polygon fill="#aaa89e" points="186,179 186,213.7 168,213.7" stroke="none" /><polygon fill="#e2e2d8" points="186,179 204,179 186,213.7" stroke="none" /><polygon fill="#e2e2d8" points="204,179 204,213.7 186,213.7" stroke="none" /><polygon fill="#f6ce38" points="168,213.7 186,213.7 174,338" stroke="none" /><polygon fill="#f6ce38" points="186,213.7 186,338 174,338" stroke="none" /><polygon fill="#f6ce38" points="186,213.7 204,213.7 186,338" stroke="none" /><polygon fill="#f6ce38" points="204,213.7 198,338 186,338" stroke="none" /><line stroke="#aaa89e" stroke-width="2" x1="170" x2="202" y1="181" y2="181" /><ellipse cx="180" cy="201" fill="white" fill-opacity="0.12" rx="3" ry="2" stroke="none" /><ellipse cx="177" cy="257" fill="white" fill-opacity="0.12" rx="3" ry="2" stroke="none" /><polygon fill="#c8c8be" points="318,112 326,112 308,181" stroke="none" /><polygon fill="#c8c8be" points="326,112 326,181 308,181" stroke="none" /><polygon fill="#e2e2d8" points="326,112 334,112 326,181" stroke="none" /><polygon fill="#e2e2d8" points="334,112 344,181 326,181" stroke="none" /><polygon fill="#aaa89e" points="308,181 326,181 308,216.4" stroke="none" /><polygon fill="#aaa89e" points="326,181 326,216.4 308,216.4" stroke="none" /><polygon fill="#e2e2d8" points="326,181 344,181 326,216.4" stroke="none" /><polygon fill="#e2e2d8" points="344,181 344,216.4 326,216.4" stroke="none" /><polygon fill="#f6ce38" points="308,216.4 326,216.4 314,344" stroke="none" /><polygon fill="#f6ce38" points="326,216.4 326,344 314,344" stroke="none" /><polygon fill="#f6ce38" points="326,216.4 344,216.4 326,344" stroke="none" /><polygon fill="#f6ce38" points="344,216.4 338,344 326,344" stroke="none" /><line stroke="#aaa89e" stroke-width="2" x1="310" x2="342" y1="183" y2="183" /><ellipse cx="316" cy="260" fill="white" fill-opacity="0.12" rx="3" ry="2" stroke="none" /><ellipse cx="317" cy="278" fill="white" fill-opacity="0.12" rx="3" ry="2" stroke="none" /><ellipse cx="320" cy="278" fill="white" fill-opacity="0.12" rx="3" ry="2" stroke="none" /><ellipse cx="333" cy="225" fill="white" fill-opacity="0.12" rx="3" ry="2" stroke="none" /><ellipse cx="335" cy="276" fill="white" fill-opacity="0.12" rx="3" ry="2" stroke="none" /></svg>