<?xml version="1.0" encoding="utf-8" ?>
<svg baseProfile="full" height="512" version="1.1" width="512" xmlns="http://www.w3.org/2000/svg" xmlns:ev="http://www.w3.org/2001/xml-events" xmlns:xlink="http://www.w3.org/1999/xlink"><defs /><polygon fill="#c8c8be" points="244,80 250,80 143,112" stroke="none" /><polygon fill="#c8c8be" points="250,80 177,112 143,112" stroke="none" /><polygon fill="#e2e2d8" points="250,80 257,80 177,112" stroke="none" /><polygon fill="#f2f2ec" points="257,80 258,112 177,112" stroke="none" /><polygon fill="#f2f2ec" points="257,80 261,80 258,112" stroke="none" /><polygon fill="#e2e2d8" points="261,80 335,112 258,112" stroke="none" /><polygon fill="#e2e2d8" points="261,80 269,80 335,112" stroke="none" /><polygon fill="#c8c8be" points="269,80 371,112 335,112" stroke="none" /><polygon fill="#c8c8be" points="143,112 177,112 158,155" stroke="none" /><polygon fill="#c8c8be" points="177,112 203,155 158,155" stroke="none" /><polygon fill="#c8c8be" points="177,112 258,112 203,155" stroke="none" /><polygon fill="#f2f2ec" points="258,112 253,155 203,155" stroke="none" /><polygon fill="#f2f2ec" points="258,112 335,112 253,155" stroke="none" /><polygon fill="#c8c8be" points="335,112 309,155 253,155" stroke="none" /><polygon fill="#c8c8be" points="335,112 371,112 309,155" stroke="none" /><polygon fill="#c8c8be" points="371,112 356,155 309,155" stroke="none" /><polygon fill="#c8c8be" points="158,155 203,155 186,200" stroke="none" /><polygon fill="#c8c8be" points="203,155 229,200 186,200" stroke="none" /><polygon fill="#e2e2d8" points="203,155 253,155 229,200" stroke="none" /><polygon fill="#f2f2ec" points="253,155 256,200 229,200" stroke="none" /><polygon fill="#f2f2ec" points="253,155 309,155 256,200" stroke="none" /><polygon fill="#e2e2d8" points="309,155 285,200 256,200" stroke="none" /><polygon fill="#c8c8be" points="309,155 356,155 285,200" stroke="none" /><polygon fill="#c8c8be" points="356,155 326,200 285,200" stroke="none" /><polygon fill="#c8c8be" points="186,200 229,200 181,300" stroke="none" /><polygon fill="#e2e2d8" points="229,200 233,300 181,300" stroke="none" /><polygon fill="#f2f2ec" points="229,200 256,200 233,300" stroke="none" /><polygon fill="#f2f2ec" points="256,200 253,300 233,300" stroke="none" /><polygon fill="#f2f2ec" points="256,200 285,200 253,300" stroke="none" /><polygon fill="#f2f2ec" points="285,200 284,300 253,300" stroke="none" /><polygon fill="#e2e2d8" points="285,200 326,200 284,300" stroke="none" /><polygon fill="#c8c8be" points="326,200 327,300 284,300" stroke="none" /><polygon fill="#c8c8be" points="181,300 233,300 188,370" stroke="none" /><polygon fill="#e2e2d8" points="233,300 234,370 188,370" stroke="none" /><polygon fill="#f2f2ec" points="233,300 253,300 234,370" stroke="none" /><polygon fill="#f2f2ec" points="253,300 253,370 234,370" stroke="none" /><polygon fill="#f2f2ec" points="253,300 284,300 253,370" stroke="none" /><polygon fill="#f2f2ec" points="284,300 279,370 253,370" stroke="none" /><polygon fill="#e2e2d8" points="284,300 327,300 279,370" stroke="none" /><polygon fill="#c8c8be" points="327,300 323,370 279,370" stroke="none" /><polygon fill="#c8c8be" points="188,370 234,370 179,430" stroke="none" /><polygon fill="#e2e2d8" points="234,370 232,430 179,430" stroke="none" /><polygon fill="#f2f2ec" points="234,370 253,370 232,430" stroke="none" /><polygon fill="#f2f2ec" points="253,370 257,430 232,430" stroke="none" /><polygon fill="#f2f2ec" points="253,370 279,370 257,430" stroke="none" /><polygon fill="#f2f2ec" points="279,370 280,430 257,430" stroke="none" /><polygon fill="#e2e2d8" points="279,370 323,370 280,430" stroke="none" /><polygon fill="#c8c8be" points="323,370 332,430 280,430" stroke="none" /><polygon fill="#c8c8be" points="236,95 256,110 276,95" stroke="#999" stroke-width="1.5" /><circle cx="256" cy="135" fill="#ddd" r="3" stroke="#999" stroke-width="1" /><circle cx="256" cy="165" fill="#ddd" r="3" stroke="#999" stroke-width="1" /><circle cx="256" cy="195" fill="#ddd" r="3" stroke="#999" stroke-width="1" /><rect fill="#e2e2d8" height="13" stroke="#aaa89e" stroke-width="1.5" width="16" x="222" y="145" /><line stroke="#aaa89e" stroke-width="2" x1="218" x2="294" y1="420" y2="420" /><path d="M 216 152 Q 230 166 244 152" fill="none" stroke="#aaa89e" stroke-width="1.5" /><path d="M 268 152 Q 282 166 296 152" fill="none" stroke="#aaa89e" stroke-width="1.5" /><line stroke="#aaa89e" stroke-width="1.2" x1="244" x2="226" y1="215" y2="215" /><line stroke="#aaa89e" stroke-width="1.2" x1="268" x2="286" y1="215" y2="215" /><line stroke="#aaa89e" stroke-width="1.2" x1="244" x2="226" y1="240" y2="240" /><line stroke="#aaa89e" stroke-width="1.2" x1="268" x2="286" y1="240" y2="240" /><line stroke="#aaa89e" stroke-width="1.2" x1="244" x2="226" y1="265" y2="265" /><line stroke="#aaa89e" stroke-width="1.2" x1="268" x2="286" y1="265" y2="265" /><line stroke="#aaa89e" stroke-width="1.2" x1="244" x2="226" y1="290" y2="290" /><line stroke="#aaa89e" stroke-width="1.2" x1="268" x2="286" y1="290" y2="290" /><path d="M 233 260 Q 256 278 279 260" fill="none" stroke="#aaa89e" stroke-width="1.5" /><polygon fill="#c8c8be" points="136,112 144,112 83,169" stroke="none" /><polygon fill="#c8c8be" points="144,112 116,169 83,169" stroke="none" /><polygon fill="#e2e2d8" points="144,112 152,112 116,169" stroke="none" /><polygon fill="#e2e2d8" points="152,112 149,169 116,169" stroke="none" /><polygon fill="#aaa89e" points="83,169 116,169 83,197.5" stroke="none" /><polygon fill="#aaa89e" points="116,169 116,197.5 83,197.5" stroke="none" /><polygon fill="#e2e2d8" points="116,169 149,169 116,197.5" stroke="none" /><polygon fill="#e2e2d8" points="149,169 149,197.5 116,197.5" stroke="none" /><polygon fill="#f4cc2a" points="83,197.5 116,197.5 87,302" stroke="none" /><polygon fill="#f4cc2a" points="116,197.5 116,302 87,302" stroke="none" /><polygon fill="#f4cc2a" points="116,197.5 149,197.5 116,302" stroke="none" /><polygon fill="#f4cc2a" points="149,197.5 135,302 116,302" stroke="none" /><line stroke="#aaa89e" stroke-width="2" x1="106" x2="182" y1="171" y2="171" /><ellipse cx="139" cy="216" fill="white" fill-opacity="0.12" rx="3" ry="2" stroke="none" /><ellipse cx="152" cy="272" fill="white" fill-opacity="0.12" rx="3" ry="2" stroke="none" /><ellipse cx="158" cy="255" fill="white" fill-opacity="0.12" rx="3" ry="2" stroke="none" /><ellipse cx="143" cy="275" fill="white" fill-opacity="0.12" rx="3" ry="2" stroke="none" /><ellipse cx="145" cy="275" fill="white" fill-opacity="0.12" rx="3" ry="2" stroke="none" /><polygon fill="#c8c8be" points="360,112 368,112 356,171" stroke="none" /><polygon fill="#c8c8be" points="368,112 389,171 356,171" stroke="none" /><polygon fill="#e2e2d8" points="368,112 376,112 389,171" stroke="none" /><polygon fill="#e2e2d8" points="376,112 422,171 389,171" stroke="none" /><polygon fill="#aaa89e" points="356,171 389,171 356,201.10000000000002" stroke="none" /><polygon fill="#aaa89e" points="389,171 389,201.10000000000002 356,201.10000000000002" stroke="none" /><polygon fill="#e2e2d8" points="389,171 422,171 389,201.10000000000002" stroke="none" /><polygon fill="#e2e2d8" points="422,171 422,201.10000000000002 389,201.10000000000002" stroke="none" /><polygon fill="#f4cc2a" points="356,201.10000000000002 389,201.10000000000002 370,310" stroke="none" /><polygon fill="#f4cc2a" points="389,201.10000000000002 389,310 370,310" stroke="none" /><polygon fill="#f4cc2a" points="389,201.10000000000002 422,201.10000000000002 389,310" stroke="none" /><polygon fill="#f4cc2a" points="422,201.10000000000002 418,310 389,310" stroke="none" /><line stroke="#aaa89e" stroke-width="2" x1="330" x2="406" y1="173" y2="173" /><ellipse cx="386" cy="206" fill="white" fill-opacity="0.12" rx="3" ry="2" stroke="none" /><ellipse cx="381" cy="243" fill="white" fill-opacity="0.12" rx="3" ry="2" stroke="none" /><ellipse cx="347" cy="285" fill="white" fill-opacity="0.12" rx="3" ry="2" stroke="none" /><ellipse cx="377" cy="269" fill="white" fill-opacity="0.12" rx="3" ry="2" stroke="none" /></svg>