<?xml version="1.0" encoding="utf-8" ?>
<svg baseProfile="full" height="512" version="1.1" width="512" xmlns="http://www.w3.org/2000/svg" xmlns:ev="http://www.w3.org/2001/xml-events" xmlns:xlink="http://www.w3.org/1999/xlink"><defs /><polygon fill="#c8c8be" points="244,80 251,80 176,112" stroke="none" /><polygon fill="#c8c8be" points="251,80 199,112 176,112" stroke="none" /><polygon fill="#e2e2d8" points="251,80 256,80 199,112" stroke="none" /><polygon fill="#e2e2d8" points="256,80 254,112 199,112" stroke="none" /><polygon fill="#f2f2ec" points="256,80 262,80 254,112" stroke="none" /><polygon fill="#e2e2d8" points="262,80 308,112 254,112" stroke="none" /><polygon fill="#e2e2d8" points="262,80 269,80 308,112" stroke="none" /><polygon fill="#c8c8be" points="269,80 333,112 308,112" stroke="none" /><polygon fill="#c8c8be" points="176,112 199,112 190,155" stroke="none" /><polygon fill="#c8c8be" points="199,112 224,155 190,155" stroke="none" /><polygon fill="#c8c8be" points="199,112 254,112 224,155" stroke="none" /><polygon fill="#f2f2ec" points="254,112 257,155 224,155" stroke="none" /><polygon fill="#f2f2ec" points="254,112 308,112 257,155" stroke="none" /><polygon fill="#c8c8be" points="308,112 294,155 257,155" stroke="none" /><polygon fill="#c8c8be" points="308,112 333,112 294,155" stroke="none" /><polygon fill="#c8c8be" points="333,112 320,155 294,155" stroke="none" /><polygon fill="#aaa89e" points="190,155 224,155 212,200" stroke="none" /><polygon fill="#aaa89e" points="224,155 234,200 212,200" stroke="none" /><polygon fill="#e2e2d8" points="224,155 257,155 234,200" stroke="none" /><polygon fill="#f2f2ec" points="257,155 259,200 234,200" stroke="none" /><polygon fill="#f2f2ec" points="257,155 294,155 259,200" stroke="none" /><polygon fill="#e2e2d8" points="294,155 276,200 259,200" stroke="none" /><polygon fill="#aaa89e" points="294,155 320,155 276,200" stroke="none" /><polygon fill="#aaa89e" points="320,155 303,200 276,200" stroke="none" /><polygon fill="#c8c8be" points="212,200 234,200 207,300" stroke="none" /><polygon fill="#c8c8be" points="234,200 241,300 207,300" stroke="none" /><polygon fill="#f2f2ec" points="234,200 259,200 241,300" stroke="none" /><polygon fill="#f2f2ec" points="259,200 258,300 241,300" stroke="none" /><polygon fill="#f2f2ec" points="259,200 276,200 258,300" stroke="none" /><polygon fill="#f2f2ec" points="276,200 274,300 258,300" stroke="none" /><polygon fill="#c8c8be" points="276,200 303,200 274,300" stroke="none" /><polygon fill="#c8c8be" points="303,200 302,300 274,300" stroke="none" /><polygon fill="#c8c8be" points="207,300 241,300 209,370" stroke="none" /><polygon fill="#e2e2d8" points="241,300 240,370 209,370" stroke="none" /><polygon fill="#f2f2ec" points="241,300 258,300 240,370" stroke="none" /><polygon fill="#f2f2ec" points="258,300 254,370 240,370" stroke="none" /><polygon fill="#f2f2ec" points="258,300 274,300 254,370" stroke="none" /><polygon fill="#f2f2ec" points="274,300 270,370 254,370" stroke="none" /><polygon fill="#e2e2d8" points="274,300 302,300 270,370" stroke="none" /><polygon fill="#c8c8be" points="302,300 300,370 270,370" stroke="none" /><polygon fill="#c8c8be" points="209,370 240,370 206,430" stroke="none" /><polygon fill="#e2e2d8" points="240,370 243,430 206,430" stroke="none" /><polygon fill="#f2f2ec" points="240,370 254,370 243,430" stroke="none" /><polygon fill="#f2f2ec" points="254,370 256,430 243,430" stroke="none" /><polygon fill="#f2f2ec" points="254,370 270,370 256,430" stroke="none" /><polygon fill="#f2f2ec" points="270,370 270,430 256,430" stroke="none" /><polygon fill="#e2e2d8" points="270,370 300,370 270,430" stroke="none" /><polygon fill="#c8c8be" points="300,370 304,430 270,430" stroke="none" /><polygon fill="#c8c8be" points="242,95 256,110 270,95" stroke="#999" stroke-width="1.5" /><circle cx="256" cy="135" fill="#ddd" r="3" stroke="#999" stroke-width="1" /><circle cx="256" cy="165" fill="#ddd" r="3" stroke="#999" stroke-width="1" /><circle cx="256" cy="195" fill="#ddd" r="3" stroke="#999" stroke-width="1" /><rect fill="#e2e2d8" height="9" stroke="#aaa89e" stroke-width="1.5" width="11" x="233" y="145" /><line stroke="#aaa89e" stroke-width="2" x1="232" x2="280" y1="420" y2="420" /><path d="M 242 260 Q 256 278 270 260" fill="none" stroke="#aaa89e" stroke-width="1.5" /><path d="M 222 165 Q 234 186 246 165" fill="none" stroke="#aaa89e" stroke-width="1.5" /><path d="M 266 165 Q 278 186 290 165" fill="none" stroke="#aaa89e" stroke-width="1.5" /><polygon fill="#c8c8be" points="173,112 181,112 139,177" stroke="none" /><polygon fill="#c8c8be" points="181,112 161,177 139,177" stroke="none" /><polygon fill="#e2e2d8" points="181,112 189,112 161,177" stroke="none" /><polygon fill="#e2e2d8" points="189,112 183,177 161,177" stroke="none" /><polygon fill="#aaa89e" points="139,177 161,177 139,210.55" stroke="none" /><polygon fill="#aaa89e" points="161,177 161,210.55 139,210.55" stroke="none" /><polygon fill="#e2e2d8" points="161,177 183,177 161,210.55" stroke="none" /><polygon fill="#e2e2d8" points="183,177 183,210.55 161,210.55" stroke="none" /><polygon fill="#f6ce38" points="139,210.55 161,210.55 140,331" stroke="none" /><polygon fill="#f6ce38" points="161,210.55 161,331 140,331" stroke="none" /><polygon fill="#f6ce38" points="161,210.55 183,210.55 161,331" stroke="none" /><polygon fill="#f6ce38" points="183,210.55 172,331 161,331" stroke="none" /><line stroke="#aaa89e" stroke-width="2" x1="156" x2="206" y1="179" y2="179" /><path d="M 200 325 Q 204 321 208 325" fill="none" stroke="#d4c0a0" stroke-opacity="0.3" stroke-width="1" /><path d="M 195 187 Q 197 185 199 187" fill="none" stroke="#d4c0a0" stroke-opacity="0.3" stroke-width="1" /><path d="M 183 247 Q 188 242 193 247" fill="none" stroke="#d4c0a0" stroke-opacity="0.3" stroke-width="1" /><polygon fill="#c8c8be" points="323,112 331,112 337,179" stroke="none" /><polygon fill="#c8c8be" points="331,112 359,179 337,179" stroke="none" /><polygon fill="#e2e2d8" points="331,112 339,112 359,179" stroke="none" /><polygon fill="#e2e2d8" points="339,112 381,179 359,179" stroke="none" /><polygon fill="#aaa89e" points="337,179 359,179 337,213.25" stroke="none" /><polygon fill="#aaa89e" points="359,179 359,213.25 337,213.25" stroke="none" /><polygon fill="#e2e2d8" points="359,179 381,179 359,213.25" stroke="none" /><polygon fill="#e2e2d8" points="381,179 381,213.25 359,213.25" stroke="none" /><polygon fill="#f6ce38" points="337,213.25 359,213.25 348,337" stroke="none" /><polygon fill="#f6ce38" points="359,213.25 359,337 348,337" stroke="none" /><polygon fill="#f6ce38" points="359,213.25 381,213.25 359,337" stroke="none" /><polygon fill="#f6ce38" points="381,213.25 380,337 359,337" stroke="none" /><line stroke="#aaa89e" stroke-width="2" x1="306" x2="356" y1="181" y2="181" /><path d="M 346 280 Q 351 275 356 280" fill="none" stroke="#d4c0a0" stroke-opacity="0.3" stroke-width="1" /><path d="M 349 318 Q 352 315 355 318" fill="none" stroke="#d4c0a0" stroke-opacity="0.3" stroke-width="1" /><path d="M 349 300 Q 354 295 359 300" fill="none" stroke="#d4c0a0" stroke-opacity="0.3" stroke-width="1" /><path d="M 327 191 Q 330 188 333 191" fill="none" stroke="#d4c0a0" stroke-opacity="0.3" stroke-width="1" /><path d="M 339 250 Q 342 247 345 250" fill="none" stroke="#d4c0a0" stroke-opacity="0.3" stroke-width="1" /></svg>