<?xml version="1.0" encoding="utf-8" ?>
<svg baseProfile="full" height="512" version="1.1" width="512" xmlns="http://www.w3.org/2000/svg" xmlns:ev="http://www.w3.org/2001/xml-events" xmlns:xlink="http://www.w3.org/1999/xlink"><defs /><polygon fill="#c8c8be" points="243,80 249,80 157,112" stroke="none" /><polygon fill="#c8c8be" points="249,80 186,112 157,112" stroke="none" /><polygon fill="#e2e2d8" points="249,80 256,80 186,112" stroke="none" /><polygon fill="#e2e2d8" points="256,80 255,112 186,112" stroke="none" /><polygon fill="#f2f2ec" points="256,80 262,80 255,112" stroke="none" /><polygon fill="#e2e2d8" points="262,80 320,112 255,112" stroke="none" /><polygon fill="#c8c8be" points="262,80 268,80 320,112" stroke="none" /><polygon fill="#c8c8be" points="268,80 352,112 320,112" stroke="none" /><polygon fill="#c8c8be" points="157,112 186,112 178,155" stroke="none" /><polygon fill="#c8c8be" points="186,112 216,155 178,155" stroke="none" /><polygon fill="#c8c8be" points="186,112 255,112 216,155" stroke="none" /><polygon fill="#f2f2ec" points="255,112 254,155 216,155" stroke="none" /><polygon fill="#e2e2d8" points="255,112 320,112 254,155" stroke="none" /><polygon fill="#c8c8be" points="320,112 301,155 254,155" stroke="none" /><polygon fill="#c8c8be" points="320,112 352,112 301,155" stroke="none" /><polygon fill="#c8c8be" points="352,112 336,155 301,155" stroke="none" /><polygon fill="#c8c8be" points="178,155 216,155 213,200" stroke="none" /><polygon fill="#c8c8be" points="216,155 239,200 213,200" stroke="none" /><polygon fill="#e2e2d8" points="216,155 254,155 239,200" stroke="none" /><polygon fill="#f2f2ec" points="254,155 256,200 239,200" stroke="none" /><polygon fill="#f2f2ec" points="254,155 301,155 256,200" stroke="none" /><polygon fill="#e2e2d8" points="301,155 275,200 256,200" stroke="none" /><polygon fill="#c8c8be" points="301,155 336,155 275,200" stroke="none" /><polygon fill="#c8c8be" points="336,155 296,200 275,200" stroke="none" /><polygon fill="#c8c8be" points="213,200 239,200 212,300" stroke="none" /><polygon fill="#e2e2d8" points="239,200 241,300 212,300" stroke="none" /><polygon fill="#f2f2ec" points="239,200 256,200 241,300" stroke="none" /><polygon fill="#f2f2ec" points="256,200 256,300 241,300" stroke="none" /><polygon fill="#f2f2ec" points="256,200 275,200 256,300" stroke="none" /><polygon fill="#f2f2ec" points="275,200 273,300 256,300" stroke="none" /><polygon fill="#e2e2d8" points="275,200 296,200 273,300" stroke="none" /><polygon fill="#c8c8be" points="296,200 300,300 273,300" stroke="none" /><polygon fill="#c8c8be" points="212,300 241,300 210,370" stroke="none" /><polygon fill="#e2e2d8" points="241,300 242,370 210,370" stroke="none" /><polygon fill="#f2f2ec" points="241,300 256,300 242,370" stroke="none" /><polygon fill="#f2f2ec" points="256,300 258,370 242,370" stroke="none" /><polygon fill="#f2f2ec" points="256,300 273,300 258,370" stroke="none" /><polygon fill="#f2f2ec" points="273,300 269,370 258,370" stroke="none" /><polygon fill="#e2e2d8" points="273,300 300,300 269,370" stroke="none" /><polygon fill="#c8c8be" points="300,300 302,370 269,370" stroke="none" /><polygon fill="#c8c8be" points="210,370 242,370 207,430" stroke="none" /><polygon fill="#e2e2d8" points="242,370 241,430 207,430" stroke="none" /><polygon fill="#f2f2ec" points="242,370 258,370 241,430" stroke="none" /><polygon fill="#f2f2ec" points="258,370 256,430 241,430" stroke="none" /><polygon fill="#f2f2ec" points="258,370 269,370 256,430" stroke="none" /><polygon fill="#f2f2ec" points="269,370 269,430 256,430" stroke="none" /><polygon fill="#e2e2d8" points="269,370 302,370 269,430" stroke="none" /><polygon fill="#c8c8be" points="302,370 304,430 269,430" stroke="none" /><polygon fill="#c8c8be" points="239,95 256,110 273,95" stroke="#999" stroke-width="1.5" /><circle cx="256" cy="135" fill="#ddd" r="3" stroke="#999" stroke-width="1" /><circle cx="256" cy="165" fill="#ddd" r="3" stroke="#999" stroke-width="1" /><circle cx="256" cy="195" fill="#ddd" r="3" stroke="#999" stroke-width="1" /><rect fill="#e2e2d8" height="11" stroke="#aaa89e" stroke-width="1.5" width="13" x="228" y="145" /><line stroke="#aaa89e" stroke-width="2" x1="232" x2="280" y1="420" y2="420" /><path d="M 226 152 Q 240 166 254 152" fill="none" stroke="#aaa89e" stroke-width="1.5" /><path d="M 258 152 Q 272 166 286 152" fill="none" stroke="#aaa89e" stroke-width="1.5" /><line stroke="#aaa89e" stroke-width="1.2" x1="244" x2="226" y1="215" y2="215" /><line stroke="#aaa89e" stroke-width="1.2" x1="268" x2="286" y1="215" y2="215" /><line stroke="#aaa89e" stroke-width="1.2" x1="244" x2="226" y1="240" y2="240" /><line stroke="#aaa89e" stroke-width="1.2" x1="268" x2="286" y1="240" y2="240" /><line stroke="#aaa89e" stroke-width="1.2" x1="244" x2="226" y1="265" y2="265" /><line stroke="#aaa89e" stroke-width="1.2" x1="268" x2="286" y1="265" y2="265" /><line stroke="#aaa89e" stroke-width="1.2" x1="244" x2="226" y1="290" y2="290" /><line stroke="#aaa89e" stroke-width="1.2" x1="268" x2="286" y1="290" y2="290" /><polygon fill="#c8c8be" points="156,112 164,112 139,178" stroke="none" /><polygon fill="#c8c8be" points="164,112 164,178 139,178" stroke="none" /><polygon fill="#e2e2d8" points="164,112 172,112 164,178" stroke="none" /><polygon fill="#e2e2d8" points="172,112 189,178 164,178" stroke="none" /><polygon fill="#aaa89e" points="139,178 164,178 139,211.9" stroke="none" /><polygon fill="#aaa89e" points="164,178 164,211.9 139,211.9" stroke="none" /><polygon fill="#e2e2d8" points="164,178 189,178 164,211.9" stroke="none" /><polygon fill="#e2e2d8" points="189,178 189,211.9 164,211.9" stroke="none" /><polygon fill="#f4cc2a" points="139,211.9 164,211.9 148,334" stroke="none" /><polygon fill="#f4cc2a" points="164,211.9 164,334 148,334" stroke="none" /><polygon fill="#f4cc2a" points="164,211.9 189,211.9 164,334" stroke="none" /><polygon fill="#f4cc2a" points="189,211.9 180,334 164,334" stroke="none" /><line stroke="#aaa89e" stroke-width="2" x1="142" x2="186" y1="180" y2="180" /><ellipse cx="172" cy="210" fill="white" fill-opacity="0.12" rx="3" ry="2" stroke="none" /><ellipse cx="178" cy="264" fill="white" fill-opacity="0.12" rx="3" ry="2" stroke="none" /><ellipse cx="150" cy="197" fill="white" fill-opacity="0.12" rx="3" ry="2" stroke="none" /><ellipse cx="163" cy="323" fill="white" fill-opacity="0.12" rx="3" ry="2" stroke="none" /><ellipse cx="172" cy="214" fill="white" fill-opacity="0.12" rx="3" ry="2" stroke="none" /><polygon fill="#c8c8be" points="340,112 348,112 323,175" stroke="none" /><polygon fill="#c8c8be" points="348,112 348,175 323,175" stroke="none" /><polygon fill="#e2e2d8" points="348,112 356,112 348,175" stroke="none" /><polygon fill="#e2e2d8" points="356,112 373,175 348,175" stroke="none" /><polygon fill="#aaa89e" points="323,175 348,175 323,207.4" stroke="none" /><polygon fill="#aaa89e" points="348,175 348,207.4 323,207.4" stroke="none" /><polygon fill="#e2e2d8" points="348,175 373,175 348,207.4" stroke="none" /><polygon fill="#e2e2d8" points="373,175 373,207.4 348,207.4" stroke="none" /><polygon fill="#f4cc2a" points="323,207.4 348,207.4 332,324" stroke="none" /><polygon fill="#f4cc2a" points="348,207.4 348,324 332,324" stroke="none" /><polygon fill="#f4cc2a" points="348,207.4 373,207.4 348,324" stroke="none" /><polygon fill="#f4cc2a" points="373,207.4 364,324 348,324" stroke="none" /><line stroke="#aaa89e" stroke-width="2" x1="326" x2="370" y1="177" y2="177" /><ellipse cx="341" cy="264" fill="white" fill-opacity="0.12" rx="3" ry="2" stroke="none" /><ellipse cx="337" cy="306" fill="white" fill-opacity="0.12" rx="3" ry="2" stroke="none" /><ellipse cx="349" cy="262" fill="white" fill-opacity="0.12" rx="3" ry="2" stroke="none" /><ellipse cx="354" cy="223" fill="white" fill-opacity="0.12" rx="3" ry="2" stroke="none" /></svg>