<?xml version="1.0" encoding="utf-8" ?>
<svg baseProfile="full" height="512" version="1.1" width="512" xmlns="http://www.w3.org/2000/svg" xmlns:ev="http://www.w3.org/2001/xml-events" xmlns:xlink="http://www.w3.org/1999/xlink"><defs /><polygon fill="#c8c8be" points="245,80 249,80 168,112" stroke="none" /><polygon fill="#c8c8be" points="249,80 198,112 168,112" stroke="none" /><polygon fill="#e2e2d8" points="249,80 257,80 198,112" stroke="none" /><polygon fill="#f2f2ec" points="257,80 258,112 198,112" stroke="none" /><polygon fill="#f2f2ec" points="257,80 261,80 258,112" stroke="none" /><polygon fill="#e2e2d8" points="261,80 316,112 258,112" stroke="none" /><polygon fill="#e2e2d8" points="261,80 267,80 316,112" stroke="none" /><polygon fill="#c8c8be" points="267,80 345,112 316,112" stroke="none" /><polygon fill="#c8c8be" points="168,112 198,112 185,155" stroke="none" /><polygon fill="#c8c8be" points="198,112 215,155 185,155" stroke="none" /><polygon fill="#e2e2d8" points="198,112 258,112 215,155" stroke="none" /><polygon fill="#f2f2ec" points="258,112 257,155 215,155" stroke="none" /><polygon fill="#e2e2d8" points="258,112 316,112 257,155" stroke="none" /><polygon fill="#c8c8be" points="316,112 295,155 257,155" stroke="none" /><polygon fill="#c8c8be" points="316,112 345,112 295,155" stroke="none" /><polygon fill="#c8c8be" points="345,112 326,155 295,155" stroke="none" /><polygon fill="#aaa89e" points="185,155 215,155 199,200" stroke="none" /><polygon fill="#aaa89e" points="215,155 232,200 199,200" stroke="none" /><polygon fill="#e2e2d8" points="215,155 257,155 232,200" stroke="none" /><polygon fill="#f2f2ec" points="257,155 257,200 232,200" stroke="none" /><polygon fill="#f2f2ec" points="257,155 295,155 257,200" stroke="none" /><polygon fill="#e2e2d8" points="295,155 279,200 257,200" stroke="none" /><polygon fill="#aaa89e" points="295,155 326,155 279,200" stroke="none" /><polygon fill="#aaa89e" points="326,155 307,200 279,200" stroke="none" /><polygon fill="#c8c8be" points="199,200 232,200 202,300" stroke="none" /><polygon fill="#c8c8be" points="232,200 234,300 202,300" stroke="none" /><polygon fill="#f2f2ec" points="232,200 257,200 234,300" stroke="none" /><polygon fill="#f2f2ec" points="257,200 256,300 234,300" stroke="none" /><polygon fill="#f2f2ec" points="257,200 279,200 256,300" stroke="none" /><polygon fill="#f2f2ec" points="279,200 274,300 256,300" stroke="none" /><polygon fill="#e2e2d8" points="279,200 307,200 274,300" stroke="none" /><polygon fill="#c8c8be" points="307,200 314,300 274,300" stroke="none" /><polygon fill="#c8c8be" points="202,300 234,300 202,370" stroke="none" /><polygon fill="#e2e2d8" points="234,300 240,370 202,370" stroke="none" /><polygon fill="#f2f2ec" points="234,300 256,300 240,370" stroke="none" /><polygon fill="#f2f2ec" points="256,300 258,370 240,370" stroke="none" /><polygon fill="#f2f2ec" points="256,300 274,300 258,370" stroke="none" /><polygon fill="#f2f2ec" points="274,300 277,370 258,370" stroke="none" /><polygon fill="#e2e2d8" points="274,300 314,300 277,370" stroke="none" /><polygon fill="#c8c8be" points="314,300 311,370 277,370" stroke="none" /><polygon fill="#c8c8be" points="202,370 240,370 196,430" stroke="none" /><polygon fill="#e2e2d8" points="240,370 238,430 196,430" stroke="none" /><polygon fill="#f2f2ec" points="240,370 258,370 238,430" stroke="none" /><polygon fill="#f2f2ec" points="258,370 257,430 238,430" stroke="none" /><polygon fill="#f2f2ec" points="258,370 277,370 257,430" stroke="none" /><polygon fill="#f2f2ec" points="277,370 274,430 257,430" stroke="none" /><polygon fill="#e2e2d8" points="277,370 311,370 274,430" stroke="none" /><polygon fill="#c8c8be" points="311,370 315,430 274,430" stroke="none" /><polygon fill="#c8c8be" points="241,95 256,110 271,95" stroke="#999" stroke-width="1.5" /><circle cx="256" cy="135" fill="#ddd" r="3" stroke="#999" stroke-width="1" /><circle cx="256" cy="165" fill="#ddd" r="3" stroke="#999" stroke-width="1" /><circle cx="256" cy="195" fill="#ddd" r="3" stroke="#999" stroke-width="1" /><rect fill="#e2e2d8" height="10" stroke="#aaa89e" stroke-width="1.5" width="12" x="231" y="145" /><line stroke="#aaa89e" stroke-width="2" x1="226" x2="286" y1="420" y2="420" /><path d="M 238 260 Q 256 278 274 260" fill="none" stroke="#aaa89e" stroke-width="1.5" /><path d="M 217 165 Q 229 186 241 165" fill="none" stroke="#aaa89e" stroke-width="1.5" /><path d="M 271 165 Q 283 186 295 165" fill="none" stroke="#aaa89e" stroke-width="1.5" /><polygon fill="#c8c8be" points="166,112 174,112 117,174" stroke="none" /><polygon fill="#c8c8be" points="174,112 143,174 117,174" stroke="none" /><polygon fill="#e2e2d8" points="174,112 182,112 143,174" stroke="none" /><polygon fill="#e2e2d8" points="182,112 169,174 143,174" stroke="none" /><polygon fill="#aaa89e" points="117,174 143,174 117,205.15" stroke="none" /><polygon fill="#aaa89e" points="143,174 143,205.15 117,205.15" stroke="none" /><polygon fill="#e2e2d8" points="143,174 169,174 143,205.15" stroke="none" /><polygon fill="#e2e2d8" points="169,174 169,205.15 143,205.15" stroke="none" /><polygon fill="#f5d040" points="117,205.15 143,205.15 119,319" stroke="none" /><polygon fill="#f5d040" points="143,205.15 143,319 119,319" stroke="none" /><polygon fill="#f5d040" points="143,205.15 169,205.15 143,319" stroke="none" /><polygon fill="#f5d040" points="169,205.15 157,319 143,319" stroke="none" /><line stroke="#aaa89e" stroke-width="2" x1="144" x2="204" y1="176" y2="176" /><path d="M 152 213 Q 157 208 162 213" fill="none" stroke="#d4c0a0" stroke-opacity="0.3" stroke-width="1" /><path d="M 167 223 Q 171 219 175 223" fill="none" stroke="#d4c0a0" stroke-opacity="0.3" stroke-width="1" /><path d="M 173 289 Q 177 285 181 289" fill="none" stroke="#d4c0a0" stroke-opacity="0.3" stroke-width="1" /><path d="M 176 227 Q 180 223 184 227" fill="none" stroke="#d4c0a0" stroke-opacity="0.3" stroke-width="1" /><polygon fill="#c8c8be" points="330,112 338,112 340,171" stroke="none" /><polygon fill="#c8c8be" points="338,112 366,171 340,171" stroke="none" /><polygon fill="#e2e2d8" points="338,112 346,112 366,171" stroke="none" /><polygon fill="#e2e2d8" points="346,112 392,171 366,171" stroke="none" /><polygon fill="#aaa89e" points="340,171 366,171 340,200.65" stroke="none" /><polygon fill="#aaa89e" points="366,171 366,200.65 340,200.65" stroke="none" /><polygon fill="#e2e2d8" points="366,171 392,171 366,200.65" stroke="none" /><polygon fill="#e2e2d8" points="392,171 392,200.65 366,200.65" stroke="none" /><polygon fill="#f5d040" points="340,200.65 366,200.65 352,309" stroke="none" /><polygon fill="#f5d040" points="366,200.65 366,309 352,309" stroke="none" /><polygon fill="#f5d040" points="366,200.65 392,200.65 366,309" stroke="none" /><polygon fill="#f5d040" points="392,200.65 390,309 366,309" stroke="none" /><line stroke="#aaa89e" stroke-width="2" x1="308" x2="368" y1="173" y2="173" /><path d="M 353 290 Q 355 288 357 290" fill="none" stroke="#d4c0a0" stroke-opacity="0.3" stroke-width="1" /><path d="M 337 214 Q 339 212 341 214" fill="none" stroke="#d4c0a0" stroke-opacity="0.3" stroke-width="1" /><path d="M 327 274 Q 331 270 335 274" fill="none" stroke="#d4c0a0" stroke-opacity="0.3" stroke-width="1" /></svg>