<?xml version="1.0" encoding="utf-8" ?>
<svg baseProfile="full" height="512" version="1.1" width="512" xmlns="http://www.w3.org/2000/svg" xmlns:ev="http://www.w3.org/2001/xml-events" xmlns:xlink="http://www.w3.org/1999/xlink"><defs /><polygon fill="#c8c8be" points="244,80 249,80 185,112" stroke="none" /><polygon fill="#c8c8be" points="249,80 209,112 185,112" stroke="none" /><polygon fill="#e2e2d8" points="249,80 257,80 209,112" stroke="none" /><polygon fill="#e2e2d8" points="257,80 256,112 209,112" stroke="none" /><polygon fill="#f2f2ec" points="257,80 263,80 256,112" stroke="none" /><polygon fill="#e2e2d8" points="263,80 303,112 256,112" stroke="none" /><polygon fill="#c8c8be" points="263,80 269,80 303,112" stroke="none" /><polygon fill="#c8c8be" points="269,80 330,112 303,112" stroke="none" /><polygon fill="#c8c8be" points="185,112 209,112 196,155" stroke="none" /><polygon fill="#c8c8be" points="209,112 224,155 196,155" stroke="none" /><polygon fill="#c8c8be" points="209,112 256,112 224,155" stroke="none" /><polygon fill="#f2f2ec" points="256,112 257,155 224,155" stroke="none" /><polygon fill="#e2e2d8" points="256,112 303,112 257,155" stroke="none" /><polygon fill="#c8c8be" points="303,112 286,155 257,155" stroke="none" /><polygon fill="#c8c8be" points="303,112 330,112 286,155" stroke="none" /><polygon fill="#c8c8be" points="330,112 318,155 286,155" stroke="none" /><polygon fill="#c8c8be" points="196,155 224,155 219,200" stroke="none" /><polygon fill="#c8c8be" points="224,155 239,200 219,200" stroke="none" /><polygon fill="#e2e2d8" points="224,155 257,155 239,200" stroke="none" /><polygon fill="#f2f2ec" points="257,155 255,200 239,200" stroke="none" /><polygon fill="#f2f2ec" points="257,155 286,155 255,200" stroke="none" /><polygon fill="#e2e2d8" points="286,155 271,200 255,200" stroke="none" /><polygon fill="#c8c8be" points="286,155 318,155 271,200" stroke="none" /><polygon fill="#c8c8be" points="318,155 290,200 271,200" stroke="none" /><polygon fill="#c8c8be" points="219,200 239,200 220,300" stroke="none" /><polygon fill="#c8c8be" points="239,200 243,300 220,300" stroke="none" /><polygon fill="#f2f2ec" points="239,200 255,200 243,300" stroke="none" /><polygon fill="#f2f2ec" points="255,200 259,300 243,300" stroke="none" /><polygon fill="#f2f2ec" points="255,200 271,200 259,300" stroke="none" /><polygon fill="#f2f2ec" points="271,200 272,300 259,300" stroke="none" /><polygon fill="#c8c8be" points="271,200 290,200 272,300" stroke="none" /><polygon fill="#c8c8be" points="290,200 290,300 272,300" stroke="none" /><polygon fill="#c8c8be" points="220,300 243,300 223,370" stroke="none" /><polygon fill="#e2e2d8" points="243,300 244,370 223,370" stroke="none" /><polygon fill="#f2f2ec" points="243,300 259,300 244,370" stroke="none" /><polygon fill="#f2f2ec" points="259,300 258,370 244,370" stroke="none" /><polygon fill="#f2f2ec" points="259,300 272,300 258,370" stroke="none" /><polygon fill="#f2f2ec" points="272,300 266,370 258,370" stroke="none" /><polygon fill="#e2e2d8" points="272,300 290,300 266,370" stroke="none" /><polygon fill="#c8c8be" points="290,300 290,370 266,370" stroke="none" /><polygon fill="#c8c8be" points="223,370 244,370 217,430" stroke="none" /><polygon fill="#e2e2d8" points="244,370 246,430 217,430" stroke="none" /><polygon fill="#f2f2ec" points="244,370 258,370 246,430" stroke="none" /><polygon fill="#f2f2ec" points="258,370 255,430 246,430" stroke="none" /><polygon fill="#f2f2ec" points="258,370 266,370 255,430" stroke="none" /><polygon fill="#f2f2ec" points="266,370 267,430 255,430" stroke="none" /><polygon fill="#e2e2d8" points="266,370 290,370 267,430" stroke="none" /><polygon fill="#c8c8be" points="290,370 294,430 267,430" stroke="none" /><polygon fill="#c8c8be" points="244,95 256,110 268,95" stroke="#999" stroke-width="1.5" /><circle cx="256" cy="135" fill="#ddd" r="3" stroke="#999" stroke-width="1" /><circle cx="256" cy="165" fill="#ddd" r="3" stroke="#999" stroke-width="1" /><circle cx="256" cy="195" fill="#ddd" r="3" stroke="#999" stroke-width="1" /><rect fill="#e2e2d8" height="8" stroke="#aaa89e" stroke-width="1.5" width="9" x="235" y="145" /><line stroke="#aaa89e" stroke-width="2" x1="237" x2="275" y1="420" y2="420" /><path d="M 227 165 Q 239 186 251 165" fill="none" stroke="#aaa89e" stroke-width="1.5" /><path d="M 261 165 Q 273 186 285 165" fill="none" stroke="#aaa89e" stroke-width="1.5" /><polygon fill="#c8c8be" points="181,112 189,112 173,170" stroke="none" /><polygon fill="#c8c8be" points="189,112 189,170 173,170" stroke="none" /><polygon fill="#e2e2d8" points="189,112 197,112 189,170" stroke="none" /><polygon fill="#e2e2d8" points="197,112 205,170 189,170" stroke="none" /><polygon fill="#aaa89e" points="173,170 189,170 173,200.2" stroke="none" /><polygon fill="#aaa89e" points="189,170 189,200.2 173,200.2" stroke="none" /><polygon fill="#e2e2d8" points="189,170 205,170 189,200.2" stroke="none" /><polygon fill="#e2e2d8" points="205,170 205,200.2 189,200.2" stroke="none" /><polygon fill="#f6ce38" points="173,200.2 189,200.2 179,308" stroke="none" /><polygon fill="#f6ce38" points="189,200.2 189,308 179,308" stroke="none" /><polygon fill="#f6ce38" points="189,200.2 205,200.2 189,308" stroke="none" /><polygon fill="#f6ce38" points="205,200.2 199,308 189,308" stroke="none" /><line stroke="#aaa89e" stroke-width="2" x1="175" x2="203" y1="172" y2="172" /><path d="M 192 296 Q 194 294 196 296" fill="none" stroke="#d4c0a0" stroke-opacity="0.3" stroke-width="1" /><path d="M 198 216 Q 203 211 208 216" fill="none" stroke="#d4c0a0" stroke-opacity="0.3" stroke-width="1" /><polygon fill="#c8c8be" points="315,112 323,112 307,172" stroke="none" /><polygon fill="#c8c8be" points="323,112 323,172 307,172" stroke="none" /><polygon fill="#e2e2d8" points="323,112 331,112 323,172" stroke="none" /><polygon fill="#e2e2d8" points="331,112 339,172 323,172" stroke="none" /><polygon fill="#aaa89e" points="307,172 323,172 307,202.0" stroke="none" /><polygon fill="#aaa89e" points="323,172 323,202.0 307,202.0" stroke="none" /><polygon fill="#e2e2d8" points="323,172 339,172 323,202.0" stroke="none" /><polygon fill="#e2e2d8" points="339,172 339,202.0 323,202.0" stroke="none" /><polygon fill="#f6ce38" points="307,202.0 323,202.0 313,312" stroke="none" /><polygon fill="#f6ce38" points="323,202.0 323,312 313,312" stroke="none" /><polygon fill="#f6ce38" points="323,202.0 339,202.0 323,312" stroke="none" /><polygon fill="#f6ce38" points="339,202.0 333,312 323,312" stroke="none" /><line stroke="#aaa89e" stroke-width="2" x1="309" x2="337" y1="174" y2="174" /><path d="M 332 210 Q 335 207 338 210" fill="none" stroke="#d4c0a0" stroke-opacity="0.3" stroke-width="1" /><path d="M 331 206 Q 336 201 341 206" fill="none" stroke="#d4c0a0" stroke-opacity="0.3" stroke-width="1" /><path d="M 327 276 Q 332 271 337 276" fill="none" stroke="#d4c0a0" stroke-opacity="0.3" stroke-width="1" /></svg>