<?xml version="1.0" encoding="utf-8" ?>
<svg baseProfile="full" height="512" version="1.1" width="512" xmlns="http://www.w3.org/2000/svg" xmlns:ev="http://www.w3.org/2001/xml-events" xmlns:xlink="http://www.w3.org/1999/xlink"><defs /><polygon fill="#c8c8be" points="244,80 251,80 131,112" stroke="none" /><polygon fill="#c8c8be" points="251,80 168,112 131,112" stroke="none" /><polygon fill="#c8c8be" points="251,80 255,80 168,112" stroke="none" /><polygon fill="#e2e2d8" points="255,80 253,112 168,112" stroke="none" /><polygon fill="#f2f2ec" points="255,80 263,80 253,112" stroke="none" /><polygon fill="#e2e2d8" points="263,80 339,112 253,112" stroke="none" /><polygon fill="#c8c8be" points="263,80 267,80 339,112" stroke="none" /><polygon fill="#c8c8be" points="267,80 381,112 339,112" stroke="none" /><polygon fill="#c8c8be" points="131,112 168,112 151,155" stroke="none" /><polygon fill="#c8c8be" points="168,112 204,155 151,155" stroke="none" /><polygon fill="#c8c8be" points="168,112 253,112 204,155" stroke="none" /><polygon fill="#f2f2ec" points="253,112 256,155 204,155" stroke="none" /><polygon fill="#e2e2d8" points="253,112 339,112 256,155" stroke="none" /><polygon fill="#c8c8be" points="339,112 308,155 256,155" stroke="none" /><polygon fill="#c8c8be" points="339,112 381,112 308,155" stroke="none" /><polygon fill="#c8c8be" points="381,112 362,155 308,155" stroke="none" /><polygon fill="#c8c8be" points="151,155 204,155 203,200" stroke="none" /><polygon fill="#c8c8be" points="204,155 234,200 203,200" stroke="none" /><polygon fill="#e2e2d8" points="204,155 256,155 234,200" stroke="none" /><polygon fill="#f2f2ec" points="256,155 253,200 234,200" stroke="none" /><polygon fill="#f2f2ec" points="256,155 308,155 253,200" stroke="none" /><polygon fill="#e2e2d8" points="308,155 278,200 253,200" stroke="none" /><polygon fill="#c8c8be" points="308,155 362,155 278,200" stroke="none" /><polygon fill="#c8c8be" points="362,155 308,200 278,200" stroke="none" /><polygon fill="#c8c8be" points="203,200 234,200 202,300" stroke="none" /><polygon fill="#c8c8be" points="234,200 236,300 202,300" stroke="none" /><polygon fill="#f2f2ec" points="234,200 253,200 236,300" stroke="none" /><polygon fill="#f2f2ec" points="253,200 259,300 236,300" stroke="none" /><polygon fill="#f2f2ec" points="253,200 278,200 259,300" stroke="none" /><polygon fill="#f2f2ec" points="278,200 274,300 259,300" stroke="none" /><polygon fill="#e2e2d8" points="278,200 308,200 274,300" stroke="none" /><polygon fill="#c8c8be" points="308,200 310,300 274,300" stroke="none" /><polygon fill="#c8c8be" points="202,300 236,300 209,370" stroke="none" /><polygon fill="#e2e2d8" points="236,300 238,370 209,370" stroke="none" /><polygon fill="#f2f2ec" points="236,300 259,300 238,370" stroke="none" /><polygon fill="#f2f2ec" points="259,300 253,370 238,370" stroke="none" /><polygon fill="#f2f2ec" points="259,300 274,300 253,370" stroke="none" /><polygon fill="#f2f2ec" points="274,300 270,370 253,370" stroke="none" /><polygon fill="#e2e2d8" points="274,300 310,300 270,370" stroke="none" /><polygon fill="#c8c8be" points="310,300 306,370 270,370" stroke="none" /><polygon fill="#c8c8be" points="209,370 238,370 199,430" stroke="none" /><polygon fill="#e2e2d8" points="238,370 240,430 199,430" stroke="none" /><polygon fill="#f2f2ec" points="238,370 253,370 240,430" stroke="none" /><polygon fill="#f2f2ec" points="253,370 255,430 240,430" stroke="none" /><polygon fill="#f2f2ec" points="253,370 270,370 255,430" stroke="none" /><polygon fill="#f2f2ec" points="270,370 273,430 255,430" stroke="none" /><polygon fill="#e2e2d8" points="270,370 306,370 273,430" stroke="none" /><polygon fill="#c8c8be" points="306,370 311,430 273,430" stroke="none" /><polygon fill="#c8c8be" points="235,95 256,110 277,95" stroke="#999" stroke-width="1.5" /><circle cx="256" cy="135" fill="#ddd" r="3" stroke="#999" stroke-width="1" /><circle cx="256" cy="165" fill="#ddd" r="3" stroke="#999" stroke-width="1" /><circle cx="256" cy="195" fill="#ddd" r="3" stroke="#999" stroke-width="1" /><rect fill="#e2e2d8" height="14" stroke="#aaa89e" stroke-width="1.5" width="17" x="220" y="145" /><line stroke="#aaa89e" stroke-width="2" x1="228" x2="284" y1="420" y2="420" /><path d="M 223 152 Q 237 166 251 152" fill="none" stroke="#aaa89e" stroke-width="1.5" /><path d="M 261 152 Q 275 166 289 152" fill="none" stroke="#aaa89e" stroke-width="1.5" /><line stroke="#aaa89e" stroke-width="1.2" x1="244" x2="226" y1="215" y2="215" /><line stroke="#aaa89e" stroke-width="1.2" x1="268" x2="286" y1="215" y2="215" /><line stroke="#aaa89e" stroke-width="1.2" x1="244" x2="226" y1="240" y2="240" /><line stroke="#aaa89e" stroke-width="1.2" x1="268" x2="286" y1="240" y2="240" /><line stroke="#aaa89e" stroke-width="1.2" x1="244" x2="226" y1="265" y2="265" /><line stroke="#aaa89e" stroke-width="1.2" x1="268" x2="286" y1="265" y2="265" /><line stroke="#aaa89e" stroke-width="1.2" x1="244" x2="226" y1="290" y2="290" /><line stroke="#aaa89e" stroke-width="1.2" x1="268" x2="286" y1="290" y2="290" /><polygon fill="#c8c8be" points="130,112 138,112 102,176" stroke="none" /><polygon fill="#c8c8be" points="138,112 138,176 102,176" stroke="none" /><polygon fill="#e2e2d8" points="138,112 146,112 138,176" stroke="none" /><polygon fill="#e2e2d8" points="146,112 174,176 138,176" stroke="none" /><polygon fill="#aaa89e" points="102,176 138,176 102,208.3" stroke="none" /><polygon fill="#aaa89e" points="138,176 138,208.3 102,208.3" stroke="none" /><polygon fill="#e2e2d8" points="138,176 174,176 138,208.3" stroke="none" /><polygon fill="#e2e2d8" points="174,176 174,208.3 138,208.3" stroke="none" /><polygon fill="#f5ce2e" points="102,208.3 138,208.3 114,326" stroke="none" /><polygon fill="#f5ce2e" points="138,208.3 138,326 114,326" stroke="none" /><polygon fill="#f5ce2e" points="138,208.3 174,208.3 138,326" stroke="none" /><polygon fill="#f5ce2e" points="174,208.3 162,326 138,326" stroke="none" /><line stroke="#aaa89e" stroke-width="2" x1="106" x2="170" y1="178" y2="178" /><circle cx="159" cy="269" fill="#d4a41e" fill-opacity="0.15" r="0.5464203815364177" stroke="none" /><circle cx="163" cy="247" fill="#d4a41e" fill-opacity="0.15" r="0.5621743299001464" stroke="none" /><circle cx="141" cy="221" fill="#d4a41e" fill-opacity="0.15" r="1.2752024634874548" stroke="none" /><circle cx="133" cy="249" fill="#d4a41e" fill-opacity="0.15" r="1.3299060790626391" stroke="none" /><circle cx="117" cy="193" fill="#d4a41e" fill-opacity="0.15" r="1.267213651738043" stroke="none" /><polygon fill="#c8c8be" points="366,112 374,112 338,176" stroke="none" /><polygon fill="#c8c8be" points="374,112 374,176 338,176" stroke="none" /><polygon fill="#e2e2d8" points="374,112 382,112 374,176" stroke="none" /><polygon fill="#e2e2d8" points="382,112 410,176 374,176" stroke="none" /><polygon fill="#aaa89e" points="338,176 374,176 338,208.75" stroke="none" /><polygon fill="#aaa89e" points="374,176 374,208.75 338,208.75" stroke="none" /><polygon fill="#e2e2d8" points="374,176 410,176 374,208.75" stroke="none" /><polygon fill="#e2e2d8" points="410,176 410,208.75 374,208.75" stroke="none" /><polygon fill="#f5ce2e" points="338,208.75 374,208.75 350,327" stroke="none" /><polygon fill="#f5ce2e" points="374,208.75 374,327 350,327" stroke="none" /><polygon fill="#f5ce2e" points="374,208.75 410,208.75 374,327" stroke="none" /><polygon fill="#f5ce2e" points="410,208.75 398,327 374,327" stroke="none" /><line stroke="#aaa89e" stroke-width="2" x1="342" x2="406" y1="178" y2="178" /><circle cx="388" cy="201" fill="#d4a41e" fill-opacity="0.15" r="0.861033650003017" stroke="none" /><circle cx="366" cy="268" fill="#d4a41e" fill-opacity="0.15" r="0.727555732928463" stroke="none" /><circle cx="371" cy="319" fill="#d4a41e" fill-opacity="0.15" r="0.8906644037541538" stroke="none" /><circle cx="391" cy="193" fill="#d4a41e" fill-opacity="0.15" r="0.5726929587416018" stroke="none" /><circle cx="368" cy="308" fill="#d4a41e" fill-opacity="0.15" r="1.3290148489758957" stroke="none" /></svg>