<?xml version="1.0" encoding="utf-8" ?>
<svg baseProfile="full" height="512" version="1.1" width="512" xmlns="http://www.w3.org/2000/svg" xmlns:ev="http://www.w3.org/2001/xml-events" xmlns:xlink="http://www.w3.org/1999/xlink"><defs /><polygon fill="#c8c8be" points="244,80 250,80 154,112" stroke="none" /><polygon fill="#c8c8be" points="250,80 180,112 154,112" stroke="none" /><polygon fill="#e2e2d8" points="250,80 255,80 180,112" stroke="none" /><polygon fill="#e2e2d8" points="255,80 255,112 180,112" stroke="none" /><polygon fill="#f2f2ec" points="255,80 263,80 255,112" stroke="none" /><polygon fill="#e2e2d8" points="263,80 327,112 255,112" stroke="none" /><polygon fill="#c8c8be" points="263,80 268,80 327,112" stroke="none" /><polygon fill="#c8c8be" points="268,80 361,112 327,112" stroke="none" /><polygon fill="#c8c8be" points="154,112 180,112 169,155" stroke="none" /><polygon fill="#c8c8be" points="180,112 207,155 169,155" stroke="none" /><polygon fill="#c8c8be" points="180,112 255,112 207,155" stroke="none" /><polygon fill="#f2f2ec" points="255,112 258,155 207,155" stroke="none" /><polygon fill="#e2e2d8" points="255,112 327,112 258,155" stroke="none" /><polygon fill="#c8c8be" points="327,112 300,155 258,155" stroke="none" /><polygon fill="#c8c8be" points="327,112 361,112 300,155" stroke="none" /><polygon fill="#c8c8be" points="361,112 346,155 300,155" stroke="none" /><polygon fill="#c8c8be" points="169,155 207,155 211,200" stroke="none" /><polygon fill="#c8c8be" points="207,155 234,200 211,200" stroke="none" /><polygon fill="#e2e2d8" points="207,155 258,155 234,200" stroke="none" /><polygon fill="#f2f2ec" points="258,155 257,200 234,200" stroke="none" /><polygon fill="#f2f2ec" points="258,155 300,155 257,200" stroke="none" /><polygon fill="#e2e2d8" points="300,155 275,200 257,200" stroke="none" /><polygon fill="#c8c8be" points="300,155 346,155 275,200" stroke="none" /><polygon fill="#c8c8be" points="346,155 301,200 275,200" stroke="none" /><polygon fill="#c8c8be" points="211,200 234,200 204,300" stroke="none" /><polygon fill="#c8c8be" points="234,200 237,300 204,300" stroke="none" /><polygon fill="#f2f2ec" points="234,200 257,200 237,300" stroke="none" /><polygon fill="#f2f2ec" points="257,200 258,300 237,300" stroke="none" /><polygon fill="#f2f2ec" points="257,200 275,200 258,300" stroke="none" /><polygon fill="#f2f2ec" points="275,200 271,300 258,300" stroke="none" /><polygon fill="#e2e2d8" points="275,200 301,200 271,300" stroke="none" /><polygon fill="#c8c8be" points="301,200 303,300 271,300" stroke="none" /><polygon fill="#c8c8be" points="204,300 237,300 208,370" stroke="none" /><polygon fill="#e2e2d8" points="237,300 239,370 208,370" stroke="none" /><polygon fill="#f2f2ec" points="237,300 258,300 239,370" stroke="none" /><polygon fill="#f2f2ec" points="258,300 257,370 239,370" stroke="none" /><polygon fill="#f2f2ec" points="258,300 271,300 257,370" stroke="none" /><polygon fill="#f2f2ec" points="271,300 270,370 257,370" stroke="none" /><polygon fill="#e2e2d8" points="271,300 303,300 270,370" stroke="none" /><polygon fill="#c8c8be" points="303,300 305,370 270,370" stroke="none" /><polygon fill="#c8c8be" points="208,370 239,370 203,430" stroke="none" /><polygon fill="#e2e2d8" points="239,370 242,430 203,430" stroke="none" /><polygon fill="#f2f2ec" points="239,370 257,370 242,430" stroke="none" /><polygon fill="#f2f2ec" points="257,370 255,430 242,430" stroke="none" /><polygon fill="#f2f2ec" points="257,370 270,370 255,430" stroke="none" /><polygon fill="#f2f2ec" points="270,370 272,430 255,430" stroke="none" /><polygon fill="#e2e2d8" points="270,370 305,370 272,430" stroke="none" /><polygon fill="#c8c8be" points="305,370 309,430 272,430" stroke="none" /><polygon fill="#c8c8be" points="238,95 256,110 274,95" stroke="#999" stroke-width="1.5" /><circle cx="256" cy="135" fill="#ddd" r="3" stroke="#999" stroke-width="1" /><circle cx="256" cy="165" fill="#ddd" r="3" stroke="#999" stroke-width="1" /><circle cx="256" cy="195" fill="#ddd" r="3" stroke="#999" stroke-width="1" /><rect fill="#e2e2d8" height="12" stroke="#aaa89e" stroke-width="1.5" width="14" x="225" y="145" /><line stroke="#aaa89e" stroke-width="2" x1="230" x2="282" y1="420" y2="420" /><path d="M 224 152 Q 238 166 252 152" fill="none" stroke="#aaa89e" stroke-width="1.5" /><path d="M 260 152 Q 274 166 288 152" fill="none" stroke="#aaa89e" stroke-width="1.5" /><line stroke="#aaa89e" stroke-width="1.2" x1="244" x2="226" y1="215" y2="215" /><line stroke="#aaa89e" stroke-width="1.2" x1="268" x2="286" y1="215" y2="215" /><line stroke="#aaa89e" stroke-width="1.2" x1="244" x2="226" y1="240" y2="240" /><line stroke="#aaa89e" stroke-width="1.2" x1="268" x2="286" y1="240" y2="240" /><line stroke="#aaa89e" stroke-width="1.2" x1="244" x2="226" y1="265" y2="265" /><line stroke="#aaa89e" stroke-width="1.2" x1="268" x2="286" y1="265" y2="265" /><line stroke="#aaa89e" stroke-width="1.2" x1="244" x2="226" y1="290" y2="290" /><line stroke="#aaa89e" stroke-width="1.2" x1="268" x2="286" y1="290" y2="290" /><polygon fill="#c8c8be" points="147,112 155,112 130,174" stroke="none" /><polygon fill="#c8c8be" points="155,112 155,174 130,174" stroke="none" /><polygon fill="#e2e2d8" points="155,112 163,112 155,174" stroke="none" /><polygon fill="#e2e2d8" points="163,112 180,174 155,174" stroke="none" /><polygon fill="#aaa89e" points="130,174 155,174 130,206.05" stroke="none" /><polygon fill="#aaa89e" points="155,174 155,206.05 130,206.05" stroke="none" /><polygon fill="#e2e2d8" points="155,174 180,174 155,206.05" stroke="none" /><polygon fill="#e2e2d8" points="180,174 180,206.05 155,206.05" stroke="none" /><polygon fill="#f6d244" points="130,206.05 155,206.05 139,321" stroke="none" /><polygon fill="#f6d244" points="155,206.05 155,321 139,321" stroke="none" /><polygon fill="#f6d244" points="155,206.05 180,206.05 155,321" stroke="none" /><polygon fill="#f6d244" points="180,206.05 171,321 155,321" stroke="none" /><line stroke="#aaa89e" stroke-width="2" x1="133" x2="177" y1="176" y2="176" /><polygon fill="#c8c8be" points="349,112 357,112 332,172" stroke="none" /><polygon fill="#c8c8be" points="357,112 357,172 332,172" stroke="none" /><polygon fill="#e2e2d8" points="357,112 365,112 357,172" stroke="none" /><polygon fill="#e2e2d8" points="365,112 382,172 357,172" stroke="none" /><polygon fill="#aaa89e" points="332,172 357,172 332,202.45" stroke="none" /><polygon fill="#aaa89e" points="357,172 357,202.45 332,202.45" stroke="none" /><polygon fill="#e2e2d8" points="357,172 382,172 357,202.45" stroke="none" /><polygon fill="#e2e2d8" points="382,172 382,202.45 357,202.45" stroke="none" /><polygon fill="#f6d244" points="332,202.45 357,202.45 341,313" stroke="none" /><polygon fill="#f6d244" points="357,202.45 357,313 341,313" stroke="none" /><polygon fill="#f6d244" points="357,202.45 382,202.45 357,313" stroke="none" /><polygon fill="#f6d244" points="382,202.45 373,313 357,313" stroke="none" /><line stroke="#aaa89e" stroke-width="2" x1="335" x2="379" y1="174" y2="174" /></svg>