<?xml version="1.0" encoding="utf-8" ?>
<svg baseProfile="full" height="512" version="1.1" width="512" xmlns="http://www.w3.org/2000/svg" xmlns:ev="http://www.w3.org/2001/xml-events" xmlns:xlink="http://www.w3.org/1999/xlink"><defs /><polygon fill="#c8c8be" points="244,80 249,80 138,112" stroke="none" /><polygon fill="#c8c8be" points="249,80 173,112 138,112" stroke="none" /><polygon fill="#e2e2d8" points="249,80 256,80 173,112" stroke="none" /><polygon fill="#e2e2d8" points="256,80 253,112 173,112" stroke="none" /><polygon fill="#f2f2ec" points="256,80 262,80 253,112" stroke="none" /><polygon fill="#e2e2d8" points="262,80 338,112 253,112" stroke="none" /><polygon fill="#e2e2d8" points="262,80 268,80 338,112" stroke="none" /><polygon fill="#c8c8be" points="268,80 369,112 338,112" stroke="none" /><polygon fill="#c8c8be" points="138,112 173,112 157,155" stroke="none" /><polygon fill="#c8c8be" points="173,112 205,155 157,155" stroke="none" /><polygon fill="#c8c8be" points="173,112 253,112 205,155" stroke="none" /><polygon fill="#f2f2ec" points="253,112 258,155 205,155" stroke="none" /><polygon fill="#e2e2d8" points="253,112 338,112 258,155" stroke="none" /><polygon fill="#c8c8be" points="338,112 304,155 258,155" stroke="none" /><polygon fill="#c8c8be" points="338,112 369,112 304,155" stroke="none" /><polygon fill="#c8c8be" points="369,112 354,155 304,155" stroke="none" /><polygon fill="#aaa89e" points="157,155 205,155 203,200" stroke="none" /><polygon fill="#aaa89e" points="205,155 230,200 203,200" stroke="none" /><polygon fill="#e2e2d8" points="205,155 258,155 230,200" stroke="none" /><polygon fill="#f2f2ec" points="258,155 258,200 230,200" stroke="none" /><polygon fill="#f2f2ec" points="258,155 304,155 258,200" stroke="none" /><polygon fill="#e2e2d8" points="304,155 281,200 258,200" stroke="none" /><polygon fill="#aaa89e" points="304,155 354,155 281,200" stroke="none" /><polygon fill="#aaa89e" points="354,155 309,200 281,200" stroke="none" /><polygon fill="#c8c8be" points="203,200 230,200 198,300" stroke="none" /><polygon fill="#c8c8be" points="230,200 237,300 198,300" stroke="none" /><polygon fill="#f2f2ec" points="230,200 258,200 237,300" stroke="none" /><polygon fill="#f2f2ec" points="258,200 253,300 237,300" stroke="none" /><polygon fill="#f2f2ec" points="258,200 281,200 253,300" stroke="none" /><polygon fill="#f2f2ec" points="281,200 274,300 253,300" stroke="none" /><polygon fill="#e2e2d8" points="281,200 309,200 274,300" stroke="none" /><polygon fill="#c8c8be" points="309,200 312,300 274,300" stroke="none" /><polygon fill="#c8c8be" points="198,300 237,300 201,370" stroke="none" /><polygon fill="#e2e2d8" points="237,300 238,370 201,370" stroke="none" /><polygon fill="#f2f2ec" points="237,300 253,300 238,370" stroke="none" /><polygon fill="#f2f2ec" points="253,300 257,370 238,370" stroke="none" /><polygon fill="#f2f2ec" points="253,300 274,300 257,370" stroke="none" /><polygon fill="#f2f2ec" points="274,300 271,370 257,370" stroke="none" /><polygon fill="#e2e2d8" points="274,300 312,300 271,370" stroke="none" /><polygon fill="#c8c8be" points="312,300 309,370 271,370" stroke="none" /><polygon fill="#c8c8be" points="201,370 238,370 193,430" stroke="none" /><polygon fill="#e2e2d8" points="238,370 237,430 193,430" stroke="none" /><polygon fill="#f2f2ec" points="238,370 257,370 237,430" stroke="none" /><polygon fill="#f2f2ec" points="257,370 256,430 237,430" stroke="none" /><polygon fill="#f2f2ec" points="257,370 271,370 256,430" stroke="none" /><polygon fill="#f2f2ec" points="271,370 273,430 256,430" stroke="none" /><polygon fill="#e2e2d8" points="271,370 309,370 273,430" stroke="none" /><polygon fill="#c8c8be" points="309,370 318,430 273,430" stroke="none" /><polygon fill="#c8c8be" points="236,95 256,110 276,95" stroke="#999" stroke-width="1.5" /><circle cx="256" cy="135" fill="#ddd" r="3" stroke="#999" stroke-width="1" /><circle cx="256" cy="165" fill="#ddd" r="3" stroke="#999" stroke-width="1" /><circle cx="256" cy="195" fill="#ddd" r="3" stroke="#999" stroke-width="1" /><rect fill="#e2e2d8" height="13" stroke="#aaa89e" stroke-width="1.5" width="16" x="222" y="145" /><line stroke="#aaa89e" stroke-width="2" x1="225" x2="287" y1="420" y2="420" /><path d="M 221 152 Q 235 166 249 152" fill="none" stroke="#aaa89e" stroke-width="1.5" /><path d="M 263 152 Q 277 166 291 152" fill="none" stroke="#aaa89e" stroke-width="1.5" /><line stroke="#aaa89e" stroke-width="1.2" x1="244" x2="226" y1="215" y2="215" /><line stroke="#aaa89e" stroke-width="1.2" x1="268" x2="286" y1="215" y2="215" /><line stroke="#aaa89e" stroke-width="1.2" x1="244" x2="226" y1="240" y2="240" /><line stroke="#aaa89e" stroke-width="1.2" x1="268" x2="286" y1="240" y2="240" /><line stroke="#aaa89e" stroke-width="1.2" x1="244" x2="226" y1="265" y2="265" /><line stroke="#aaa89e" stroke-width="1.2" x1="268" x2="286" y1="265" y2="265" /><line stroke="#aaa89e" stroke-width="1.2" x1="244" x2="226" y1="290" y2="290" /><line stroke="#aaa89e" stroke-width="1.2" x1="268" x2="286" y1="290" y2="290" /><path d="M 238 260 Q 256 278 274 260" fill="none" stroke="#aaa89e" stroke-width="1.5" /><path d="M 217 165 Q 229 186 241 165" fill="none" stroke="#aaa89e" stroke-width="1.5" /><path d="M 271 165 Q 283 186 295 165" fill="none" stroke="#aaa89e" stroke-width="1.5" /><polygon fill="#c8c8be" points="137,112 145,112 91,173" stroke="none" /><polygon fill="#c8c8be" points="145,112 145,173 91,173" stroke="none" /><polygon fill="#e2e2d8" points="145,112 153,112 145,173" stroke="none" /><polygon fill="#e2e2d8" points="153,112 199,173 145,173" stroke="none" /><polygon fill="#aaa89e" points="91,173 145,173 91,203.8" stroke="none" /><polygon fill="#aaa89e" points="145,173 145,203.8 91,203.8" stroke="none" /><polygon fill="#e2e2d8" points="145,173 199,173 145,203.8" stroke="none" /><polygon fill="#e2e2d8" points="199,173 199,203.8 145,203.8" stroke="none" /><polygon fill="#f4cc2c" points="91,203.8 145,203.8 109,316" stroke="none" /><polygon fill="#f4cc2c" points="145,203.8 145,316 109,316" stroke="none" /><polygon fill="#f4cc2c" points="145,203.8 199,203.8 145,316" stroke="none" /><polygon fill="#f4cc2c" points="199,203.8 181,316 145,316" stroke="none" /><line stroke="#aaa89e" stroke-width="2" x1="97" x2="193" y1="175" y2="175" /><ellipse cx="135" cy="260" fill="white" fill-opacity="0.12" rx="3" ry="2" stroke="none" /><ellipse cx="153" cy="224" fill="white" fill-opacity="0.12" rx="3" ry="2" stroke="none" /><ellipse cx="134" cy="189" fill="white" fill-opacity="0.12" rx="3" ry="2" stroke="none" /><ellipse cx="170" cy="247" fill="white" fill-opacity="0.12" rx="3" ry="2" stroke="none" /><ellipse cx="162" cy="279" fill="white" fill-opacity="0.12" rx="3" ry="2" stroke="none" /><polygon fill="#c8c8be" points="359,112 367,112 313,170" stroke="none" /><polygon fill="#c8c8be" points="367,112 367,170 313,170" stroke="none" /><polygon fill="#e2e2d8" points="367,112 375,112 367,170" stroke="none" /><polygon fill="#e2e2d8" points="375,112 421,170 367,170" stroke="none" /><polygon fill="#aaa89e" points="313,170 367,170 313,199.3" stroke="none" /><polygon fill="#aaa89e" points="367,170 367,199.3 313,199.3" stroke="none" /><polygon fill="#e2e2d8" points="367,170 421,170 367,199.3" stroke="none" /><polygon fill="#e2e2d8" points="421,170 421,199.3 367,199.3" stroke="none" /><polygon fill="#f4cc2c" points="313,199.3 367,199.3 331,306" stroke="none" /><polygon fill="#f4cc2c" points="367,199.3 367,306 331,306" stroke="none" /><polygon fill="#f4cc2c" points="367,199.3 421,199.3 367,306" stroke="none" /><polygon fill="#f4cc2c" points="421,199.3 403,306 367,306" stroke="none" /><line stroke="#aaa89e" stroke-width="2" x1="319" x2="415" y1="172" y2="172" /><ellipse cx="383" cy="270" fill="white" fill-opacity="0.12" rx="3" ry="2" stroke="none" /><ellipse cx="361" cy="249" fill="white" fill-opacity="0.12" rx="3" ry="2" stroke="none" /></svg>