<?xml version="1.0" encoding="utf-8" ?>
<svg baseProfile="full" height="512" version="1.1" width="512" xmlns="http://www.w3.org/2000/svg" xmlns:ev="http://www.w3.org/2001/xml-events" xmlns:xlink="http://www.w3.org/1999/xlink"><defs /><polygon fill="#c8c8be" points="244,80 250,80 165,112" stroke="none" /><polygon fill="#c8c8be" points="250,80 193,112 165,112" stroke="none" /><polygon fill="#e2e2d8" points="250,80 257,80 193,112" stroke="none" /><polygon fill="#f2f2ec" points="257,80 255,112 193,112" stroke="none" /><polygon fill="#f2f2ec" points="257,80 262,80 255,112" stroke="none" /><polygon fill="#f2f2ec" points="262,80 317,112 255,112" stroke="none" /><polygon fill="#e2e2d8" points="262,80 267,80 317,112" stroke="none" /><polygon fill="#c8c8be" points="267,80 344,112 317,112" stroke="none" /><polygon fill="#c8c8be" points="165,112 193,112 184,155" stroke="none" /><polygon fill="#c8c8be" points="193,112 217,155 184,155" stroke="none" /><polygon fill="#e2e2d8" points="193,112 255,112 217,155" stroke="none" /><polygon fill="#f2f2ec" points="255,112 255,155 217,155" stroke="none" /><polygon fill="#f2f2ec" points="255,112 317,112 255,155" stroke="none" /><polygon fill="#e2e2d8" points="317,112 297,155 255,155" stroke="none" /><polygon fill="#c8c8be" points="317,112 344,112 297,155" stroke="none" /><polygon fill="#c8c8be" points="344,112 331,155 297,155" stroke="none" /><polygon fill="#c8c8be" points="184,155 217,155 198,200" stroke="none" /><polygon fill="#c8c8be" points="217,155 229,200 198,200" stroke="none" /><polygon fill="#f2f2ec" points="217,155 255,155 229,200" stroke="none" /><polygon fill="#f2f2ec" points="255,155 255,200 229,200" stroke="none" /><polygon fill="#f2f2ec" points="255,155 297,155 255,200" stroke="none" /><polygon fill="#e2e2d8" points="297,155 284,200 255,200" stroke="none" /><polygon fill="#c8c8be" points="297,155 331,155 284,200" stroke="none" /><polygon fill="#c8c8be" points="331,155 315,200 284,200" stroke="none" /><polygon fill="#c8c8be" points="198,200 229,200 195,300" stroke="none" /><polygon fill="#c8c8be" points="229,200 235,300 195,300" stroke="none" /><polygon fill="#f2f2ec" points="229,200 255,200 235,300" stroke="none" /><polygon fill="#f2f2ec" points="255,200 258,300 235,300" stroke="none" /><polygon fill="#f2f2ec" points="255,200 284,200 258,300" stroke="none" /><polygon fill="#f2f2ec" points="284,200 280,300 258,300" stroke="none" /><polygon fill="#c8c8be" points="284,200 315,200 280,300" stroke="none" /><polygon fill="#c8c8be" points="315,200 319,300 280,300" stroke="none" /><polygon fill="#c8c8be" points="195,300 235,300 200,370" stroke="none" /><polygon fill="#e2e2d8" points="235,300 235,370 200,370" stroke="none" /><polygon fill="#f2f2ec" points="235,300 258,300 235,370" stroke="none" /><polygon fill="#f2f2ec" points="258,300 258,370 235,370" stroke="none" /><polygon fill="#f2f2ec" points="258,300 280,300 258,370" stroke="none" /><polygon fill="#f2f2ec" points="280,300 272,370 258,370" stroke="none" /><polygon fill="#e2e2d8" points="280,300 319,300 272,370" stroke="none" /><polygon fill="#c8c8be" points="319,300 312,370 272,370" stroke="none" /><polygon fill="#c8c8be" points="200,370 235,370 192,430" stroke="none" /><polygon fill="#e2e2d8" points="235,370 238,430 192,430" stroke="none" /><polygon fill="#f2f2ec" points="235,370 258,370 238,430" stroke="none" /><polygon fill="#f2f2ec" points="258,370 255,430 238,430" stroke="none" /><polygon fill="#f2f2ec" points="258,370 272,370 255,430" stroke="none" /><polygon fill="#f2f2ec" points="272,370 274,430 255,430" stroke="none" /><polygon fill="#e2e2d8" points="272,370 312,370 274,430" stroke="none" /><polygon fill="#c8c8be" points="312,370 319,430 274,430" stroke="none" /><polygon fill="#c8c8be" points="241,95 256,110 271,95" stroke="#999" stroke-width="1.5" /><circle cx="256" cy="135" fill="#ddd" r="3" stroke="#999" stroke-width="1" /><circle cx="256" cy="165" fill="#ddd" r="3" stroke="#999" stroke-width="1" /><circle cx="256" cy="195" fill="#ddd" r="3" stroke="#999" stroke-width="1" /><rect fill="#e2e2d8" height="10" stroke="#aaa89e" stroke-width="1.5" width="12" x="230" y="145" /><line stroke="#aaa89e" stroke-width="2" x1="224" x2="288" y1="420" y2="420" /><polygon fill="#c8c8be" points="164,112 172,112 149,176" stroke="none" /><polygon fill="#c8c8be" points="172,112 172,176 149,176" stroke="none" /><polygon fill="#e2e2d8" points="172,112 180,112 172,176" stroke="none" /><polygon fill="#e2e2d8" points="180,112 195,176 172,176" stroke="none" /><polygon fill="#aaa89e" points="149,176 172,176 149,209.2" stroke="none" /><polygon fill="#aaa89e" points="172,176 172,209.2 149,209.2" stroke="none" /><polygon fill="#e2e2d8" points="172,176 195,176 172,209.2" stroke="none" /><polygon fill="#e2e2d8" points="195,176 195,209.2 172,209.2" stroke="none" /><polygon fill="#f4cc2c" points="149,209.2 172,209.2 157,328" stroke="none" /><polygon fill="#f4cc2c" points="172,209.2 172,328 157,328" stroke="none" /><polygon fill="#f4cc2c" points="172,209.2 195,209.2 172,328" stroke="none" /><polygon fill="#f4cc2c" points="195,209.2 187,328 172,328" stroke="none" /><line stroke="#aaa89e" stroke-width="2" x1="152" x2="192" y1="178" y2="178" /><polygon fill="#c8c8be" points="332,112 340,112 317,176" stroke="none" /><polygon fill="#c8c8be" points="340,112 340,176 317,176" stroke="none" /><polygon fill="#e2e2d8" points="340,112 348,112 340,176" stroke="none" /><polygon fill="#e2e2d8" points="348,112 363,176 340,176" stroke="none" /><polygon fill="#aaa89e" points="317,176 340,176 317,209.2" stroke="none" /><polygon fill="#aaa89e" points="340,176 340,209.2 317,209.2" stroke="none" /><polygon fill="#e2e2d8" points="340,176 363,176 340,209.2" stroke="none" /><polygon fill="#e2e2d8" points="363,176 363,209.2 340,209.2" stroke="none" /><polygon fill="#f4cc2c" points="317,209.2 340,209.2 325,328" stroke="none" /><polygon fill="#f4cc2c" points="340,209.2 340,328 325,328" stroke="none" /><polygon fill="#f4cc2c" points="340,209.2 363,209.2 340,328" stroke="none" /><polygon fill="#f4cc2c" points="363,209.2 355,328 340,328" stroke="none" /><line stroke="#aaa89e" stroke-width="2" x1="320" x2="360" y1="178" y2="178" /></svg>