<?xml version="1.0" encoding="utf-8" ?>
<svg baseProfile="full" height="512" version="1.1" width="512" xmlns="http://www.w3.org/2000/svg" xmlns:ev="http://www.w3.org/2001/xml-events" xmlns:xlink="http://www.w3.org/1999/xlink"><defs /><polygon fill="#c8c8be" points="243,80 249,80 141,112" stroke="none" /><polygon fill="#c8c8be" points="249,80 177,112 141,112" stroke="none" /><polygon fill="#e2e2d8" points="249,80 257,80 177,112" stroke="none" /><polygon fill="#e2e2d8" points="257,80 255,112 177,112" stroke="none" /><polygon fill="#f2f2ec" points="257,80 263,80 255,112" stroke="none" /><polygon fill="#e2e2d8" points="263,80 334,112 255,112" stroke="none" /><polygon fill="#e2e2d8" points="263,80 268,80 334,112" stroke="none" /><polygon fill="#c8c8be" points="268,80 368,112 334,112" stroke="none" /><polygon fill="#c8c8be" points="141,112 177,112 162,155" stroke="none" /><polygon fill="#c8c8be" points="177,112 208,155 162,155" stroke="none" /><polygon fill="#c8c8be" points="177,112 255,112 208,155" stroke="none" /><polygon fill="#f2f2ec" points="255,112 256,155 208,155" stroke="none" /><polygon fill="#e2e2d8" points="255,112 334,112 256,155" stroke="none" /><polygon fill="#c8c8be" points="334,112 305,155 256,155" stroke="none" /><polygon fill="#c8c8be" points="334,112 368,112 305,155" stroke="none" /><polygon fill="#c8c8be" points="368,112 354,155 305,155" stroke="none" /><polygon fill="#c8c8be" points="162,155 208,155 196,200" stroke="none" /><polygon fill="#c8c8be" points="208,155 233,200 196,200" stroke="none" /><polygon fill="#e2e2d8" points="208,155 256,155 233,200" stroke="none" /><polygon fill="#f2f2ec" points="256,155 259,200 233,200" stroke="none" /><polygon fill="#f2f2ec" points="256,155 305,155 259,200" stroke="none" /><polygon fill="#e2e2d8" points="305,155 280,200 259,200" stroke="none" /><polygon fill="#c8c8be" points="305,155 354,155 280,200" stroke="none" /><polygon fill="#c8c8be" points="354,155 313,200 280,200" stroke="none" /><polygon fill="#c8c8be" points="196,200 233,200 198,300" stroke="none" /><polygon fill="#e2e2d8" points="233,200 236,300 198,300" stroke="none" /><polygon fill="#f2f2ec" points="233,200 259,200 236,300" stroke="none" /><polygon fill="#f2f2ec" points="259,200 255,300 236,300" stroke="none" /><polygon fill="#f2f2ec" points="259,200 280,200 255,300" stroke="none" /><polygon fill="#f2f2ec" points="280,200 279,300 255,300" stroke="none" /><polygon fill="#e2e2d8" points="280,200 313,200 279,300" stroke="none" /><polygon fill="#c8c8be" points="313,200 315,300 279,300" stroke="none" /><polygon fill="#c8c8be" points="198,300 236,300 201,370" stroke="none" /><polygon fill="#e2e2d8" points="236,300 237,370 201,370" stroke="none" /><polygon fill="#f2f2ec" points="236,300 255,300 237,370" stroke="none" /><polygon fill="#f2f2ec" points="255,300 254,370 237,370" stroke="none" /><polygon fill="#f2f2ec" points="255,300 279,300 254,370" stroke="none" /><polygon fill="#f2f2ec" points="279,300 277,370 254,370" stroke="none" /><polygon fill="#e2e2d8" points="279,300 315,300 277,370" stroke="none" /><polygon fill="#c8c8be" points="315,300 315,370 277,370" stroke="none" /><polygon fill="#c8c8be" points="201,370 237,370 192,430" stroke="none" /><polygon fill="#e2e2d8" points="237,370 236,430 192,430" stroke="none" /><polygon fill="#f2f2ec" points="237,370 254,370 236,430" stroke="none" /><polygon fill="#f2f2ec" points="254,370 256,430 236,430" stroke="none" /><polygon fill="#f2f2ec" points="254,370 277,370 256,430" stroke="none" /><polygon fill="#f2f2ec" points="277,370 276,430 256,430" stroke="none" /><polygon fill="#e2e2d8" points="277,370 315,370 276,430" stroke="none" /><polygon fill="#c8c8be" points="315,370 321,430 276,430" stroke="none" /><polygon fill="#c8c8be" points="236,95 256,110 276,95" stroke="#999" stroke-width="1.5" /><circle cx="256" cy="135" fill="#ddd" r="3" stroke="#999" stroke-width="1" /><circle cx="256" cy="165" fill="#ddd" r="3" stroke="#999" stroke-width="1" /><circle cx="256" cy="195" fill="#ddd" r="3" stroke="#999" stroke-width="1" /><rect fill="#e2e2d8" height="13" stroke="#aaa89e" stroke-width="1.5" width="15" x="223" y="145" /><line stroke="#aaa89e" stroke-width="2" x1="224" x2="288" y1="420" y2="420" /><path d="M 220 152 Q 234 166 248 152" fill="none" stroke="#aaa89e" stroke-width="1.5" /><path d="M 264 152 Q 278 166 292 152" fill="none" stroke="#aaa89e" stroke-width="1.5" /><line stroke="#aaa89e" stroke-width="1.2" x1="244" x2="226" y1="215" y2="215" /><line stroke="#aaa89e" stroke-width="1.2" x1="268" x2="286" y1="215" y2="215" /><line stroke="#aaa89e" stroke-width="1.2" x1="244" x2="226" y1="240" y2="240" /><line stroke="#aaa89e" stroke-width="1.2" x1="268" x2="286" y1="240" y2="240" /><line stroke="#aaa89e" stroke-width="1.2" x1="244" x2="226" y1="265" y2="265" /><line stroke="#aaa89e" stroke-width="1.2" x1="268" x2="286" y1="265" y2="265" /><line stroke="#aaa89e" stroke-width="1.2" x1="244" x2="226" y1="290" y2="290" /><line stroke="#aaa89e" stroke-width="1.2" x1="268" x2="286" y1="290" y2="290" /><polygon fill="#c8c8be" points="139,112 147,112 104,169" stroke="none" /><polygon fill="#c8c8be" points="147,112 147,169 104,169" stroke="none" /><polygon fill="#e2e2d8" points="147,112 155,112 147,169" stroke="none" /><polygon fill="#e2e2d8" points="155,112 190,169 147,169" stroke="none" /><polygon fill="#aaa89e" points="104,169 147,169 104,197.5" stroke="none" /><polygon fill="#aaa89e" points="147,169 147,197.5 104,197.5" stroke="none" /><polygon fill="#e2e2d8" points="147,169 190,169 147,197.5" stroke="none" /><polygon fill="#e2e2d8" points="190,169 190,197.5 147,197.5" stroke="none" /><polygon fill="#f3ca24" points="104,197.5 147,197.5 119,302" stroke="none" /><polygon fill="#f3ca24" points="147,197.5 147,302 119,302" stroke="none" /><polygon fill="#f3ca24" points="147,197.5 190,197.5 147,302" stroke="none" /><polygon fill="#f3ca24" points="190,197.5 175,302 147,302" stroke="none" /><line stroke="#aaa89e" stroke-width="2" x1="109" x2="185" y1="171" y2="171" /><ellipse cx="157" cy="254" fill="white" fill-opacity="0.12" rx="3" ry="2" stroke="none" /><ellipse cx="156" cy="219" fill="white" fill-opacity="0.12" rx="3" ry="2" stroke="none" /><polygon fill="#c8c8be" points="357,112 365,112 322,170" stroke="none" /><polygon fill="#c8c8be" points="365,112 365,170 322,170" stroke="none" /><polygon fill="#e2e2d8" points="365,112 373,112 365,170" stroke="none" /><polygon fill="#e2e2d8" points="373,112 408,170 365,170" stroke="none" /><polygon fill="#aaa89e" points="322,170 365,170 322,200.2" stroke="none" /><polygon fill="#aaa89e" points="365,170 365,200.2 322,200.2" stroke="none" /><polygon fill="#e2e2d8" points="365,170 408,170 365,200.2" stroke="none" /><polygon fill="#e2e2d8" points="408,170 408,200.2 365,200.2" stroke="none" /><polygon fill="#f3ca24" points="322,200.2 365,200.2 337,308" stroke="none" /><polygon fill="#f3ca24" points="365,200.2 365,308 337,308" stroke="none" /><polygon fill="#f3ca24" points="365,200.2 408,200.2 365,308" stroke="none" /><polygon fill="#f3ca24" points="408,200.2 393,308 365,308" stroke="none" /><line stroke="#aaa89e" stroke-width="2" x1="327" x2="403" y1="172" y2="172" /><ellipse cx="357" cy="201" fill="white" fill-opacity="0.12" rx="3" ry="2" stroke="none" /><ellipse cx="387" cy="270" fill="white" fill-opacity="0.12" rx="3" ry="2" stroke="none" /><ellipse cx="347" cy="186" fill="white" fill-opacity="0.12" rx="3" ry="2" stroke="none" /><ellipse cx="349" cy="254" fill="white" fill-opacity="0.12" rx="3" ry="2" stroke="none" /></svg>