<?xml version="1.0" encoding="utf-8" ?>
<svg baseProfile="full" height="512" version="1.1" width="512" xmlns="http://www.w3.org/2000/svg" xmlns:ev="http://www.w3.org/2001/xml-events" xmlns:xlink="http://www.w3.org/1999/xlink"><defs /><polygon fill="#c8c8be" points="245,80 250,80 176,112" stroke="none" /><polygon fill="#c8c8be" points="250,80 198,112 176,112" stroke="none" /><polygon fill="#e2e2d8" points="250,80 257,80 198,112" stroke="none" /><polygon fill="#e2e2d8" points="257,80 258,112 198,112" stroke="none" /><polygon fill="#f2f2ec" points="257,80 262,80 258,112" stroke="none" /><polygon fill="#e2e2d8" points="262,80 311,112 258,112" stroke="none" /><polygon fill="#e2e2d8" points="262,80 267,80 311,112" stroke="none" /><polygon fill="#c8c8be" points="267,80 341,112 311,112" stroke="none" /><polygon fill="#c8c8be" points="176,112 198,112 189,155" stroke="none" /><polygon fill="#c8c8be" points="198,112 217,155 189,155" stroke="none" /><polygon fill="#c8c8be" points="198,112 258,112 217,155" stroke="none" /><polygon fill="#f2f2ec" points="258,112 253,155 217,155" stroke="none" /><polygon fill="#e2e2d8" points="258,112 311,112 253,155" stroke="none" /><polygon fill="#c8c8be" points="311,112 289,155 253,155" stroke="none" /><polygon fill="#c8c8be" points="311,112 341,112 289,155" stroke="none" /><polygon fill="#c8c8be" points="341,112 328,155 289,155" stroke="none" /><polygon fill="#c8c8be" points="189,155 217,155 209,200" stroke="none" /><polygon fill="#c8c8be" points="217,155 236,200 209,200" stroke="none" /><polygon fill="#e2e2d8" points="217,155 253,155 236,200" stroke="none" /><polygon fill="#f2f2ec" points="253,155 253,200 236,200" stroke="none" /><polygon fill="#f2f2ec" points="253,155 289,155 253,200" stroke="none" /><polygon fill="#f2f2ec" points="289,155 277,200 253,200" stroke="none" /><polygon fill="#c8c8be" points="289,155 328,155 277,200" stroke="none" /><polygon fill="#c8c8be" points="328,155 299,200 277,200" stroke="none" /><polygon fill="#c8c8be" points="209,200 236,200 208,300" stroke="none" /><polygon fill="#c8c8be" points="236,200 237,300 208,300" stroke="none" /><polygon fill="#f2f2ec" points="236,200 253,200 237,300" stroke="none" /><polygon fill="#f2f2ec" points="253,200 253,300 237,300" stroke="none" /><polygon fill="#f2f2ec" points="253,200 277,200 253,300" stroke="none" /><polygon fill="#f2f2ec" points="277,200 272,300 253,300" stroke="none" /><polygon fill="#e2e2d8" points="277,200 299,200 272,300" stroke="none" /><polygon fill="#c8c8be" points="299,200 301,300 272,300" stroke="none" /><polygon fill="#c8c8be" points="208,300 237,300 208,370" stroke="none" /><polygon fill="#e2e2d8" points="237,300 243,370 208,370" stroke="none" /><polygon fill="#f2f2ec" points="237,300 253,300 243,370" stroke="none" /><polygon fill="#f2f2ec" points="253,300 256,370 243,370" stroke="none" /><polygon fill="#f2f2ec" points="253,300 272,300 256,370" stroke="none" /><polygon fill="#f2f2ec" points="272,300 269,370 256,370" stroke="none" /><polygon fill="#e2e2d8" points="272,300 301,300 269,370" stroke="none" /><polygon fill="#c8c8be" points="301,300 302,370 269,370" stroke="none" /><polygon fill="#c8c8be" points="208,370 243,370 207,430" stroke="none" /><polygon fill="#e2e2d8" points="243,370 240,430 207,430" stroke="none" /><polygon fill="#f2f2ec" points="243,370 256,370 240,430" stroke="none" /><polygon fill="#f2f2ec" points="256,370 255,430 240,430" stroke="none" /><polygon fill="#f2f2ec" points="256,370 269,370 255,430" stroke="none" /><polygon fill="#f2f2ec" points="269,370 272,430 255,430" stroke="none" /><polygon fill="#e2e2d8" points="269,370 302,370 272,430" stroke="none" /><polygon fill="#c8c8be" points="302,370 305,430 272,430" stroke="none" /><polygon fill="#c8c8be" points="242,95 256,110 270,95" stroke="#999" stroke-width="1.5" /><circle cx="256" cy="135" fill="#ddd" r="3" stroke="#999" stroke-width="1" /><circle cx="256" cy="165" fill="#ddd" r="3" stroke="#999" stroke-width="1" /><circle cx="256" cy="195" fill="#ddd" r="3" stroke="#999" stroke-width="1" /><rect fill="#e2e2d8" height="9" stroke="#aaa89e" stroke-width="1.5" width="11" x="232" y="145" /><line stroke="#aaa89e" stroke-width="2" x1="231" x2="281" y1="420" y2="420" /><polygon fill="#c8c8be" points="170,112 178,112 155,183" stroke="none" /><polygon fill="#c8c8be" points="178,112 178,183 155,183" stroke="none" /><polygon fill="#e2e2d8" points="178,112 186,112 178,183" stroke="none" /><polygon fill="#e2e2d8" points="186,112 201,183 178,183" stroke="none" /><polygon fill="#aaa89e" points="155,183 178,183 155,219.55" stroke="none" /><polygon fill="#aaa89e" points="178,183 178,219.55 155,219.55" stroke="none" /><polygon fill="#e2e2d8" points="178,183 201,183 178,219.55" stroke="none" /><polygon fill="#e2e2d8" points="201,183 201,219.55 178,219.55" stroke="none" /><polygon fill="#f5d040" points="155,219.55 178,219.55 163,351" stroke="none" /><polygon fill="#f5d040" points="178,219.55 178,351 163,351" stroke="none" /><polygon fill="#f5d040" points="178,219.55 201,219.55 178,351" stroke="none" /><polygon fill="#f5d040" points="201,219.55 193,351 178,351" stroke="none" /><line stroke="#aaa89e" stroke-width="2" x1="158" x2="198" y1="185" y2="185" /><polygon fill="#c8c8be" points="326,112 334,112 311,179" stroke="none" /><polygon fill="#c8c8be" points="334,112 334,179 311,179" stroke="none" /><polygon fill="#e2e2d8" points="334,112 342,112 334,179" stroke="none" /><polygon fill="#e2e2d8" points="342,112 357,179 334,179" stroke="none" /><polygon fill="#aaa89e" points="311,179 334,179 311,213.25" stroke="none" /><polygon fill="#aaa89e" points="334,179 334,213.25 311,213.25" stroke="none" /><polygon fill="#e2e2d8" points="334,179 357,179 334,213.25" stroke="none" /><polygon fill="#e2e2d8" points="357,179 357,213.25 334,213.25" stroke="none" /><polygon fill="#f5d040" points="311,213.25 334,213.25 319,337" stroke="none" /><polygon fill="#f5d040" points="334,213.25 334,337 319,337" stroke="none" /><polygon fill="#f5d040" points="334,213.25 357,213.25 334,337" stroke="none" /><polygon fill="#f5d040" points="357,213.25 349,337 334,337" stroke="none" /><line stroke="#aaa89e" stroke-width="2" x1="314" x2="354" y1="181" y2="181" /></svg>