<?xml version="1.0" encoding="utf-8" ?>
<svg baseProfile="full" height="512" version="1.1" width="512" xmlns="http://www.w3.org/2000/svg" xmlns:ev="http://www.w3.org/2001/xml-events" xmlns:xlink="http://www.w3.org/1999/xlink"><defs /><polygon fill="#e2e2d8" points="243,80 249,80 184,112" stroke="none" /><polygon fill="#c8c8be" points="249,80 207,112 184,112" stroke="none" /><polygon fill="#f2f2ec" points="249,80 257,80 207,112" stroke="none" /><polygon fill="#f2f2ec" points="257,80 259,112 207,112" stroke="none" /><polygon fill="#f2f2ec" points="257,80 263,80 259,112" stroke="none" /><polygon fill="#e2e2d8" points="263,80 309,112 259,112" stroke="none" /><polygon fill="#e2e2d8" points="263,80 268,80 309,112" stroke="none" /><polygon fill="#c8c8be" points="268,80 328,112 309,112" stroke="none" /><polygon fill="#c8c8be" points="184,112 207,112 196,155" stroke="none" /><polygon fill="#c8c8be" points="207,112 226,155 196,155" stroke="none" /><polygon fill="#e2e2d8" points="207,112 259,112 226,155" stroke="none" /><polygon fill="#f2f2ec" points="259,112 256,155 226,155" stroke="none" /><polygon fill="#f2f2ec" points="259,112 309,112 256,155" stroke="none" /><polygon fill="#e2e2d8" points="309,112 291,155 256,155" stroke="none" /><polygon fill="#c8c8be" points="309,112 328,112 291,155" stroke="none" /><polygon fill="#c8c8be" points="328,112 321,155 291,155" stroke="none" /><polygon fill="#c8c8be" points="196,155 226,155 205,200" stroke="none" /><polygon fill="#c8c8be" points="226,155 230,200 205,200" stroke="none" /><polygon fill="#f2f2ec" points="226,155 256,155 230,200" stroke="none" /><polygon fill="#f2f2ec" points="256,155 255,200 230,200" stroke="none" /><polygon fill="#f2f2ec" points="256,155 291,155 255,200" stroke="none" /><polygon fill="#f2f2ec" points="291,155 281,200 255,200" stroke="none" /><polygon fill="#c8c8be" points="291,155 321,155 281,200" stroke="none" /><polygon fill="#c8c8be" points="321,155 306,200 281,200" stroke="none" /><polygon fill="#c8c8be" points="205,200 230,200 202,300" stroke="none" /><polygon fill="#c8c8be" points="230,200 237,300 202,300" stroke="none" /><polygon fill="#f2f2ec" points="230,200 255,200 237,300" stroke="none" /><polygon fill="#f2f2ec" points="255,200 255,300 237,300" stroke="none" /><polygon fill="#f2f2ec" points="255,200 281,200 255,300" stroke="none" /><polygon fill="#f2f2ec" points="281,200 278,300 255,300" stroke="none" /><polygon fill="#c8c8be" points="281,200 306,200 278,300" stroke="none" /><polygon fill="#c8c8be" points="306,200 312,300 278,300" stroke="none" /><polygon fill="#c8c8be" points="202,300 237,300 202,370" stroke="none" /><polygon fill="#e2e2d8" points="237,300 241,370 202,370" stroke="none" /><polygon fill="#f2f2ec" points="237,300 255,300 241,370" stroke="none" /><polygon fill="#f2f2ec" points="255,300 259,370 241,370" stroke="none" /><polygon fill="#f2f2ec" points="255,300 278,300 259,370" stroke="none" /><polygon fill="#f2f2ec" points="278,300 275,370 259,370" stroke="none" /><polygon fill="#c8c8be" points="278,300 312,300 275,370" stroke="none" /><polygon fill="#c8c8be" points="312,300 306,370 275,370" stroke="none" /><polygon fill="#c8c8be" points="202,370 241,370 198,430" stroke="none" /><polygon fill="#e2e2d8" points="241,370 238,430 198,430" stroke="none" /><polygon fill="#f2f2ec" points="241,370 259,370 238,430" stroke="none" /><polygon fill="#f2f2ec" points="259,370 256,430 238,430" stroke="none" /><polygon fill="#f2f2ec" points="259,370 275,370 256,430" stroke="none" /><polygon fill="#f2f2ec" points="275,370 273,430 256,430" stroke="none" /><polygon fill="#e2e2d8" points="275,370 306,370 273,430" stroke="none" /><polygon fill="#c8c8be" points="306,370 313,430 273,430" stroke="none" /><polygon fill="#c8c8be" points="243,95 256,110 269,95" stroke="#999" stroke-width="1.5" /><circle cx="256" cy="135" fill="#ddd" r="3" stroke="#999" stroke-width="1" /><circle cx="256" cy="165" fill="#ddd" r="3" stroke="#999" stroke-width="1" /><circle cx="256" cy="195" fill="#ddd" r="3" stroke="#999" stroke-width="1" /><rect fill="#e2e2d8" height="8" stroke="#aaa89e" stroke-width="1.5" width="10" x="235" y="145" /><line stroke="#aaa89e" stroke-width="2" x1="227" x2="285" y1="420" y2="420" /><polygon fill="#c8c8be" points="179,112 187,112 164,179" stroke="none" /><polygon fill="#c8c8be" points="187,112 187,179 164,179" stroke="none" /><polygon fill="#e2e2d8" points="187,112 195,112 187,179" stroke="none" /><polygon fill="#e2e2d8" points="195,112 210,179 187,179" stroke="none" /><polygon fill="#aaa89e" points="164,179 187,179 164,213.25" stroke="none" /><polygon fill="#aaa89e" points="187,179 187,213.25 164,213.25" stroke="none" /><polygon fill="#e2e2d8" points="187,179 210,179 187,213.25" stroke="none" /><polygon fill="#e2e2d8" points="210,179 210,213.25 187,213.25" stroke="none" /><polygon fill="#f6ce38" points="164,213.25 187,213.25 172,337" stroke="none" /><polygon fill="#f6ce38" points="187,213.25 187,337 172,337" stroke="none" /><polygon fill="#f6ce38" points="187,213.25 210,213.25 187,337" stroke="none" /><polygon fill="#f6ce38" points="210,213.25 202,337 187,337" stroke="none" /><line stroke="#aaa89e" stroke-width="2" x1="167" x2="207" y1="181" y2="181" /><polygon fill="#c8c8be" points="317,112 325,112 302,179" stroke="none" /><polygon fill="#c8c8be" points="325,112 325,179 302,179" stroke="none" /><polygon fill="#e2e2d8" points="325,112 333,112 325,179" stroke="none" /><polygon fill="#e2e2d8" points="333,112 348,179 325,179" stroke="none" /><polygon fill="#aaa89e" points="302,179 325,179 302,213.25" stroke="none" /><polygon fill="#aaa89e" points="325,179 325,213.25 302,213.25" stroke="none" /><polygon fill="#e2e2d8" points="325,179 348,179 325,213.25" stroke="none" /><polygon fill="#e2e2d8" points="348,179 348,213.25 325,213.25" stroke="none" /><polygon fill="#f6ce38" points="302,213.25 325,213.25 310,337" stroke="none" /><polygon fill="#f6ce38" points="325,213.25 325,337 310,337" stroke="none" /><polygon fill="#f6ce38" points="325,213.25 348,213.25 325,337" stroke="none" /><polygon fill="#f6ce38" points="348,213.25 340,337 325,337" stroke="none" /><line stroke="#aaa89e" stroke-width="2" x1="305" x2="345" y1="181" y2="181" /></svg>