<?xml version="1.0" encoding="utf-8" ?>
<svg baseProfile="full" height="512" version="1.1" width="512" xmlns="http://www.w3.org/2000/svg" xmlns:ev="http://www.w3.org/2001/xml-events" xmlns:xlink="http://www.w3.org/1999/xlink"><defs /><polygon fill="#c8c8be" points="243,80 250,80 169,112" stroke="none" /><polygon fill="#c8c8be" points="250,80 197,112 169,112" stroke="none" /><polygon fill="#c8c8be" points="250,80 255,80 197,112" stroke="none" /><polygon fill="#e2e2d8" points="255,80 259,112 197,112" stroke="none" /><polygon fill="#f2f2ec" points="255,80 263,80 259,112" stroke="none" /><polygon fill="#c8c8be" points="263,80 318,112 259,112" stroke="none" /><polygon fill="#c8c8be" points="263,80 269,80 318,112" stroke="none" /><polygon fill="#c8c8be" points="269,80 344,112 318,112" stroke="none" /><polygon fill="#c8c8be" points="169,112 197,112 181,155" stroke="none" /><polygon fill="#c8c8be" points="197,112 219,155 181,155" stroke="none" /><polygon fill="#c8c8be" points="197,112 259,112 219,155" stroke="none" /><polygon fill="#f2f2ec" points="259,112 254,155 219,155" stroke="none" /><polygon fill="#c8c8be" points="259,112 318,112 254,155" stroke="none" /><polygon fill="#c8c8be" points="318,112 296,155 254,155" stroke="none" /><polygon fill="#c8c8be" points="318,112 344,112 296,155" stroke="none" /><polygon fill="#c8c8be" points="344,112 331,155 296,155" stroke="none" /><polygon fill="#c8c8be" points="181,155 219,155 226,200" stroke="none" /><polygon fill="#c8c8be" points="219,155 239,200 226,200" stroke="none" /><polygon fill="#e2e2d8" points="219,155 254,155 239,200" stroke="none" /><polygon fill="#f2f2ec" points="254,155 253,200 239,200" stroke="none" /><polygon fill="#f2f2ec" points="254,155 296,155 253,200" stroke="none" /><polygon fill="#e2e2d8" points="296,155 270,200 253,200" stroke="none" /><polygon fill="#c8c8be" points="296,155 331,155 270,200" stroke="none" /><polygon fill="#c8c8be" points="331,155 286,200 270,200" stroke="none" /><polygon fill="#c8c8be" points="226,200 239,200 224,300" stroke="none" /><polygon fill="#c8c8be" points="239,200 244,300 224,300" stroke="none" /><polygon fill="#f2f2ec" points="239,200 253,200 244,300" stroke="none" /><polygon fill="#f2f2ec" points="253,200 258,300 244,300" stroke="none" /><polygon fill="#f2f2ec" points="253,200 270,200 258,300" stroke="none" /><polygon fill="#f2f2ec" points="270,200 271,300 258,300" stroke="none" /><polygon fill="#e2e2d8" points="270,200 286,200 271,300" stroke="none" /><polygon fill="#c8c8be" points="286,200 288,300 271,300" stroke="none" /><polygon fill="#c8c8be" points="224,300 244,300 227,370" stroke="none" /><polygon fill="#e2e2d8" points="244,300 243,370 227,370" stroke="none" /><polygon fill="#f2f2ec" points="244,300 258,300 243,370" stroke="none" /><polygon fill="#f2f2ec" points="258,300 259,370 243,370" stroke="none" /><polygon fill="#f2f2ec" points="258,300 271,300 259,370" stroke="none" /><polygon fill="#f2f2ec" points="271,300 264,370 259,370" stroke="none" /><polygon fill="#e2e2d8" points="271,300 288,300 264,370" stroke="none" /><polygon fill="#c8c8be" points="288,300 285,370 264,370" stroke="none" /><polygon fill="#c8c8be" points="227,370 243,370 220,430" stroke="none" /><polygon fill="#c8c8be" points="243,370 245,430 220,430" stroke="none" /><polygon fill="#f2f2ec" points="243,370 259,370 245,430" stroke="none" /><polygon fill="#f2f2ec" points="259,370 256,430 245,430" stroke="none" /><polygon fill="#f2f2ec" points="259,370 264,370 256,430" stroke="none" /><polygon fill="#f2f2ec" points="264,370 265,430 256,430" stroke="none" /><polygon fill="#e2e2d8" points="264,370 285,370 265,430" stroke="none" /><polygon fill="#c8c8be" points="285,370 292,430 265,430" stroke="none" /><polygon fill="#c8c8be" points="241,95 256,110 271,95" stroke="#999" stroke-width="1.5" /><circle cx="256" cy="135" fill="#ddd" r="3" stroke="#999" stroke-width="1" /><circle cx="256" cy="165" fill="#ddd" r="3" stroke="#999" stroke-width="1" /><circle cx="256" cy="195" fill="#ddd" r="3" stroke="#999" stroke-width="1" /><rect fill="#e2e2d8" height="10" stroke="#aaa89e" stroke-width="1.5" width="12" x="230" y="145" /><line stroke="#aaa89e" stroke-width="2" x1="238" x2="274" y1="420" y2="420" /><path d="M 230 152 Q 244 166 258 152" fill="none" stroke="#aaa89e" stroke-width="1.5" /><path d="M 254 152 Q 268 166 282 152" fill="none" stroke="#aaa89e" stroke-width="1.5" /><line stroke="#aaa89e" stroke-width="1.2" x1="244" x2="226" y1="215" y2="215" /><line stroke="#aaa89e" stroke-width="1.2" x1="268" x2="286" y1="215" y2="215" /><line stroke="#aaa89e" stroke-width="1.2" x1="244" x2="226" y1="240" y2="240" /><line stroke="#aaa89e" stroke-width="1.2" x1="268" x2="286" y1="240" y2="240" /><line stroke="#aaa89e" stroke-width="1.2" x1="244" x2="226" y1="265" y2="265" /><line stroke="#aaa89e" stroke-width="1.2" x1="268" x2="286" y1="265" y2="265" /><line stroke="#aaa89e" stroke-width="1.2" x1="244" x2="226" y1="290" y2="290" /><line stroke="#aaa89e" stroke-width="1.2" x1="268" x2="286" y1="290" y2="290" /><path d="M 228 165 Q 240 186 252 165" fill="none" stroke="#aaa89e" stroke-width="1.5" /><path d="M 260 165 Q 272 186 284 165" fill="none" stroke="#aaa89e" stroke-width="1.5" /><polygon fill="#c8c8be" points="164,112 172,112 147,167" stroke="none" /><polygon fill="#c8c8be" points="172,112 172,167 147,167" stroke="none" /><polygon fill="#e2e2d8" points="172,112 180,112 172,167" stroke="none" /><polygon fill="#e2e2d8" points="180,112 197,167 172,167" stroke="none" /><polygon fill="#aaa89e" points="147,167 172,167 147,195.25" stroke="none" /><polygon fill="#aaa89e" points="172,167 172,195.25 147,195.25" stroke="none" /><polygon fill="#e2e2d8" points="172,167 197,167 172,195.25" stroke="none" /><polygon fill="#e2e2d8" points="197,167 197,195.25 172,195.25" stroke="none" /><polygon fill="#f3ca24" points="147,195.25 172,195.25 156,297" stroke="none" /><polygon fill="#f3ca24" points="172,195.25 172,297 156,297" stroke="none" /><polygon fill="#f3ca24" points="172,195.25 197,195.25 172,297" stroke="none" /><polygon fill="#f3ca24" points="197,195.25 188,297 172,297" stroke="none" /><line stroke="#aaa89e" stroke-width="2" x1="150" x2="194" y1="169" y2="169" /><circle cx="194" cy="285" fill="#d0a018" fill-opacity="0.15" r="0.9081581915142423" stroke="none" /><circle cx="193" cy="202" fill="#d0a018" fill-opacity="0.15" r="1.010144453425051" stroke="none" /><circle cx="190" cy="236" fill="#d0a018" fill-opacity="0.15" r="0.7779782546876921" stroke="none" /><circle cx="172" cy="216" fill="#d0a018" fill-opacity="0.15" r="0.746152106421309" stroke="none" /><circle cx="171" cy="225" fill="#d0a018" fill-opacity="0.15" r="0.9719196901539152" stroke="none" /><circle cx="173" cy="284" fill="#d0a018" fill-opacity="0.15" r="0.8946262603405943" stroke="none" /><circle cx="175" cy="279" fill="#d0a018" fill-opacity="0.15" r="0.7072034551515399" stroke="none" /><circle cx="154" cy="247" fill="#d0a018" fill-opacity="0.15" r="1.3524336158274828" stroke="none" /><circle cx="162" cy="233" fill="#d0a018" fill-opacity="0.15" r="0.5315639398591601" stroke="none" /><circle cx="176" cy="212" fill="#d0a018" fill-opacity="0.15" r="1.3163017796545275" stroke="none" /><polygon fill="#c8c8be" points="332,112 340,112 315,165" stroke="none" /><polygon fill="#c8c8be" points="340,112 340,165 315,165" stroke="none" /><polygon fill="#e2e2d8" points="340,112 348,112 340,165" stroke="none" /><polygon fill="#e2e2d8" points="348,112 365,165 340,165" stroke="none" /><polygon fill="#aaa89e" points="315,165 340,165 315,192.10000000000002" stroke="none" /><polygon fill="#aaa89e" points="340,165 340,192.10000000000002 315,192.10000000000002" stroke="none" /><polygon fill="#e2e2d8" points="340,165 365,165 340,192.10000000000002" stroke="none" /><polygon fill="#e2e2d8" points="365,165 365,192.10000000000002 340,192.10000000000002" stroke="none" /><polygon fill="#f3ca24" points="315,192.10000000000002 340,192.10000000000002 324,290" stroke="none" /><polygon fill="#f3ca24" points="340,192.10000000000002 340,290 324,290" stroke="none" /><polygon fill="#f3ca24" points="340,192.10000000000002 365,192.10000000000002 340,290" stroke="none" /><polygon fill="#f3ca24" points="365,192.10000000000002 356,290 340,290" stroke="none" /><line stroke="#aaa89e" stroke-width="2" x1="318" x2="362" y1="167" y2="167" /><circle cx="325" cy="192" fill="#d0a018" fill-opacity="0.15" r="1.2939189132981608" stroke="none" /><circle cx="359" cy="215" fill="#d0a018" fill-opacity="0.15" r="0.6374332113936494" stroke="none" /><circle cx="354" cy="212" fill="#d0a018" fill-opacity="0.15" r="1.4803739441416481" stroke="none" /><circle cx="362" cy="184" fill="#d0a018" fill-opacity="0.15" r="0.6936998676933063" stroke="none" /><circle cx="338" cy="192" fill="#d0a018" fill-opacity="0.15" r="1.2762415676266587" stroke="none" /><circle cx="361" cy="186" fill="#d0a018" fill-opacity="0.15" r="1.333356357800803" stroke="none" /><circle cx="351" cy="261" fill="#d0a018" fill-opacity="0.15" r="0.8543822471444777" stroke="none" /><circle cx="318" cy="193" fill="#d0a018" fill-opacity="0.15" r="0.5073326455041283" stroke="none" /><circle cx="334" cy="257" fill="#d0a018" fill-opacity="0.15" r="0.5769280082663705" stroke="none" /><circle cx="328" cy="236" fill="#d0a018" fill-opacity="0.15" r="0.6233358266258885" stroke="none" /></svg>