<?xml version="1.0" encoding="utf-8" ?>
<svg baseProfile="full" height="512" version="1.1" width="512" xmlns="http://www.w3.org/2000/svg" xmlns:ev="http://www.w3.org/2001/xml-events" xmlns:xlink="http://www.w3.org/1999/xlink"><defs /><polygon fill="#c8c8be" points="245,80 249,80 156,112" stroke="none" /><polygon fill="#c8c8be" points="249,80 184,112 156,112" stroke="none" /><polygon fill="#e2e2d8" points="249,80 257,80 184,112" stroke="none" /><polygon fill="#e2e2d8" points="257,80 255,112 184,112" stroke="none" /><polygon fill="#f2f2ec" points="257,80 263,80 255,112" stroke="none" /><polygon fill="#e2e2d8" points="263,80 326,112 255,112" stroke="none" /><polygon fill="#c8c8be" points="263,80 269,80 326,112" stroke="none" /><polygon fill="#c8c8be" points="269,80 357,112 326,112" stroke="none" /><polygon fill="#c8c8be" points="156,112 184,112 169,155" stroke="none" /><polygon fill="#c8c8be" points="184,112 208,155 169,155" stroke="none" /><polygon fill="#c8c8be" points="184,112 255,112 208,155" stroke="none" /><polygon fill="#f2f2ec" points="255,112 259,155 208,155" stroke="none" /><polygon fill="#e2e2d8" points="255,112 326,112 259,155" stroke="none" /><polygon fill="#c8c8be" points="326,112 303,155 259,155" stroke="none" /><polygon fill="#c8c8be" points="326,112 357,112 303,155" stroke="none" /><polygon fill="#c8c8be" points="357,112 344,155 303,155" stroke="none" /><polygon fill="#c8c8be" points="169,155 208,155 206,200" stroke="none" /><polygon fill="#c8c8be" points="208,155 233,200 206,200" stroke="none" /><polygon fill="#e2e2d8" points="208,155 259,155 233,200" stroke="none" /><polygon fill="#f2f2ec" points="259,155 257,200 233,200" stroke="none" /><polygon fill="#f2f2ec" points="259,155 303,155 257,200" stroke="none" /><polygon fill="#e2e2d8" points="303,155 279,200 257,200" stroke="none" /><polygon fill="#c8c8be" points="303,155 344,155 279,200" stroke="none" /><polygon fill="#c8c8be" points="344,155 301,200 279,200" stroke="none" /><polygon fill="#c8c8be" points="206,200 233,200 205,300" stroke="none" /><polygon fill="#c8c8be" points="233,200 238,300 205,300" stroke="none" /><polygon fill="#f2f2ec" points="233,200 257,200 238,300" stroke="none" /><polygon fill="#f2f2ec" points="257,200 253,300 238,300" stroke="none" /><polygon fill="#f2f2ec" points="257,200 279,200 253,300" stroke="none" /><polygon fill="#f2f2ec" points="279,200 271,300 253,300" stroke="none" /><polygon fill="#e2e2d8" points="279,200 301,200 271,300" stroke="none" /><polygon fill="#c8c8be" points="301,200 304,300 271,300" stroke="none" /><polygon fill="#c8c8be" points="205,300 238,300 205,370" stroke="none" /><polygon fill="#e2e2d8" points="238,300 238,370 205,370" stroke="none" /><polygon fill="#f2f2ec" points="238,300 253,300 238,370" stroke="none" /><polygon fill="#f2f2ec" points="253,300 255,370 238,370" stroke="none" /><polygon fill="#f2f2ec" points="253,300 271,300 255,370" stroke="none" /><polygon fill="#f2f2ec" points="271,300 270,370 255,370" stroke="none" /><polygon fill="#e2e2d8" points="271,300 304,300 270,370" stroke="none" /><polygon fill="#c8c8be" points="304,300 305,370 270,370" stroke="none" /><polygon fill="#c8c8be" points="205,370 238,370 201,430" stroke="none" /><polygon fill="#e2e2d8" points="238,370 241,430 201,430" stroke="none" /><polygon fill="#f2f2ec" points="238,370 255,370 241,430" stroke="none" /><polygon fill="#f2f2ec" points="255,370 257,430 241,430" stroke="none" /><polygon fill="#f2f2ec" points="255,370 270,370 257,430" stroke="none" /><polygon fill="#f2f2ec" points="270,370 271,430 257,430" stroke="none" /><polygon fill="#e2e2d8" points="270,370 305,370 271,430" stroke="none" /><polygon fill="#c8c8be" points="305,370 310,430 271,430" stroke="none" /><polygon fill="#c8c8be" points="238,95 256,110 274,95" stroke="#999" stroke-width="1.5" /><circle cx="256" cy="135" fill="#ddd" r="3" stroke="#999" stroke-width="1" /><circle cx="256" cy="165" fill="#ddd" r="3" stroke="#999" stroke-width="1" /><circle cx="256" cy="195" fill="#ddd" r="3" stroke="#999" stroke-width="1" /><rect fill="#e2e2d8" height="12" stroke="#aaa89e" stroke-width="1.5" width="14" x="226" y="145" /><line stroke="#aaa89e" stroke-width="2" x1="229" x2="283" y1="420" y2="420" /><path d="M 224 152 Q 238 166 252 152" fill="none" stroke="#aaa89e" stroke-width="1.5" /><path d="M 260 152 Q 274 166 288 152" fill="none" stroke="#aaa89e" stroke-width="1.5" /><line stroke="#aaa89e" stroke-width="1.2" x1="244" x2="226" y1="215" y2="215" /><line stroke="#aaa89e" stroke-width="1.2" x1="268" x2="286" y1="215" y2="215" /><line stroke="#aaa89e" stroke-width="1.2" x1="244" x2="226" y1="240" y2="240" /><line stroke="#aaa89e" stroke-width="1.2" x1="268" x2="286" y1="240" y2="240" /><line stroke="#aaa89e" stroke-width="1.2" x1="244" x2="226" y1="265" y2="265" /><line stroke="#aaa89e" stroke-width="1.2" x1="268" x2="286" y1="265" y2="265" /><line stroke="#aaa89e" stroke-width="1.2" x1="244" x2="226" y1="290" y2="290" /><line stroke="#aaa89e" stroke-width="1.2" x1="268" x2="286" y1="290" y2="290" /><polygon fill="#c8c8be" points="149,112 157,112 112,162" stroke="none" /><polygon fill="#c8c8be" points="157,112 131,162 112,162" stroke="none" /><polygon fill="#e2e2d8" points="157,112 165,112 131,162" stroke="none" /><polygon fill="#e2e2d8" points="165,112 150,162 131,162" stroke="none" /><polygon fill="#aaa89e" points="112,162 131,162 112,187.60000000000002" stroke="none" /><polygon fill="#aaa89e" points="131,162 131,187.60000000000002 112,187.60000000000002" stroke="none" /><polygon fill="#e2e2d8" points="131,162 150,162 131,187.60000000000002" stroke="none" /><polygon fill="#e2e2d8" points="150,162 150,187.60000000000002 131,187.60000000000002" stroke="none" /><polygon fill="#f6ce38" points="112,187.60000000000002 131,187.60000000000002 112,280" stroke="none" /><polygon fill="#f6ce38" points="131,187.60000000000002 131,280 112,280" stroke="none" /><polygon fill="#f6ce38" points="131,187.60000000000002 150,187.60000000000002 131,280" stroke="none" /><polygon fill="#f6ce38" points="150,187.60000000000002 140,280 131,280" stroke="none" /><line stroke="#aaa89e" stroke-width="2" x1="135" x2="179" y1="164" y2="164" /><ellipse cx="143" cy="263" fill="white" fill-opacity="0.12" rx="3" ry="2" stroke="none" /><ellipse cx="146" cy="239" fill="white" fill-opacity="0.12" rx="3" ry="2" stroke="none" /><ellipse cx="164" cy="261" fill="white" fill-opacity="0.12" rx="3" ry="2" stroke="none" /><polygon fill="#c8c8be" points="347,112 355,112 360,166" stroke="none" /><polygon fill="#c8c8be" points="355,112 379,166 360,166" stroke="none" /><polygon fill="#e2e2d8" points="355,112 363,112 379,166" stroke="none" /><polygon fill="#e2e2d8" points="363,112 398,166 379,166" stroke="none" /><polygon fill="#aaa89e" points="360,166 379,166 360,193.0" stroke="none" /><polygon fill="#aaa89e" points="379,166 379,193.0 360,193.0" stroke="none" /><polygon fill="#e2e2d8" points="379,166 398,166 379,193.0" stroke="none" /><polygon fill="#e2e2d8" points="398,166 398,193.0 379,193.0" stroke="none" /><polygon fill="#f6ce38" points="360,193.0 379,193.0 370,292" stroke="none" /><polygon fill="#f6ce38" points="379,193.0 379,292 370,292" stroke="none" /><polygon fill="#f6ce38" points="379,193.0 398,193.0 379,292" stroke="none" /><polygon fill="#f6ce38" points="398,193.0 398,292 379,292" stroke="none" /><line stroke="#aaa89e" stroke-width="2" x1="333" x2="377" y1="168" y2="168" /><ellipse cx="344" cy="208" fill="white" fill-opacity="0.12" rx="3" ry="2" stroke="none" /><ellipse cx="359" cy="264" fill="white" fill-opacity="0.12" rx="3" ry="2" stroke="none" /></svg>