<?xml version="1.0" encoding="utf-8" ?>
<svg baseProfile="full" height="512" version="1.1" width="512" xmlns="http://www.w3.org/2000/svg" xmlns:ev="http://www.w3.org/2001/xml-events" xmlns:xlink="http://www.w3.org/1999/xlink"><defs /><polygon fill="#c8c8be" points="243,80 250,80 143,112" stroke="none" /><polygon fill="#c8c8be" points="250,80 179,112 143,112" stroke="none" /><polygon fill="#c8c8be" points="250,80 255,80 179,112" stroke="none" /><polygon fill="#c8c8be" points="255,80 255,112 179,112" stroke="none" /><polygon fill="#f2f2ec" points="255,80 261,80 255,112" stroke="none" /><polygon fill="#c8c8be" points="261,80 336,112 255,112" stroke="none" /><polygon fill="#c8c8be" points="261,80 268,80 336,112" stroke="none" /><polygon fill="#c8c8be" points="268,80 368,112 336,112" stroke="none" /><polygon fill="#c8c8be" points="143,112 179,112 159,155" stroke="none" /><polygon fill="#c8c8be" points="179,112 204,155 159,155" stroke="none" /><polygon fill="#c8c8be" points="179,112 255,112 204,155" stroke="none" /><polygon fill="#e2e2d8" points="255,112 253,155 204,155" stroke="none" /><polygon fill="#c8c8be" points="255,112 336,112 253,155" stroke="none" /><polygon fill="#c8c8be" points="336,112 305,155 253,155" stroke="none" /><polygon fill="#c8c8be" points="336,112 368,112 305,155" stroke="none" /><polygon fill="#c8c8be" points="368,112 350,155 305,155" stroke="none" /><polygon fill="#aaa89e" points="159,155 204,155 223,200" stroke="none" /><polygon fill="#aaa89e" points="204,155 240,200 223,200" stroke="none" /><polygon fill="#e2e2d8" points="204,155 253,155 240,200" stroke="none" /><polygon fill="#f2f2ec" points="253,155 255,200 240,200" stroke="none" /><polygon fill="#e2e2d8" points="253,155 305,155 255,200" stroke="none" /><polygon fill="#e2e2d8" points="305,155 274,200 255,200" stroke="none" /><polygon fill="#aaa89e" points="305,155 350,155 274,200" stroke="none" /><polygon fill="#aaa89e" points="350,155 294,200 274,200" stroke="none" /><polygon fill="#c8c8be" points="223,200 240,200 217,300" stroke="none" /><polygon fill="#c8c8be" points="240,200 242,300 217,300" stroke="none" /><polygon fill="#f2f2ec" points="240,200 255,200 242,300" stroke="none" /><polygon fill="#f2f2ec" points="255,200 254,300 242,300" stroke="none" /><polygon fill="#f2f2ec" points="255,200 274,200 254,300" stroke="none" /><polygon fill="#f2f2ec" points="274,200 272,300 254,300" stroke="none" /><polygon fill="#c8c8be" points="274,200 294,200 272,300" stroke="none" /><polygon fill="#c8c8be" points="294,200 290,300 272,300" stroke="none" /><polygon fill="#c8c8be" points="217,300 242,300 219,370" stroke="none" /><polygon fill="#e2e2d8" points="242,300 245,370 219,370" stroke="none" /><polygon fill="#f2f2ec" points="242,300 254,300 245,370" stroke="none" /><polygon fill="#f2f2ec" points="254,300 255,370 245,370" stroke="none" /><polygon fill="#f2f2ec" points="254,300 272,300 255,370" stroke="none" /><polygon fill="#f2f2ec" points="272,300 265,370 255,370" stroke="none" /><polygon fill="#e2e2d8" points="272,300 290,300 265,370" stroke="none" /><polygon fill="#c8c8be" points="290,300 289,370 265,370" stroke="none" /><polygon fill="#c8c8be" points="219,370 245,370 218,430" stroke="none" /><polygon fill="#e2e2d8" points="245,370 244,430 218,430" stroke="none" /><polygon fill="#f2f2ec" points="245,370 255,370 244,430" stroke="none" /><polygon fill="#f2f2ec" points="255,370 256,430 244,430" stroke="none" /><polygon fill="#f2f2ec" points="255,370 265,370 256,430" stroke="none" /><polygon fill="#f2f2ec" points="265,370 266,430 256,430" stroke="none" /><polygon fill="#e2e2d8" points="265,370 289,370 266,430" stroke="none" /><polygon fill="#c8c8be" points="289,370 295,430 266,430" stroke="none" /><polygon fill="#c8c8be" points="236,95 256,110 276,95" stroke="#999" stroke-width="1.5" /><circle cx="256" cy="135" fill="#ddd" r="3" stroke="#999" stroke-width="1" /><circle cx="256" cy="165" fill="#ddd" r="3" stroke="#999" stroke-width="1" /><circle cx="256" cy="195" fill="#ddd" r="3" stroke="#999" stroke-width="1" /><rect fill="#e2e2d8" height="13" stroke="#aaa89e" stroke-width="1.5" width="15" x="223" y="145" /><line stroke="#aaa89e" stroke-width="2" x1="237" x2="275" y1="420" y2="420" /><path d="M 229 152 Q 243 166 257 152" fill="none" stroke="#aaa89e" stroke-width="1.5" /><path d="M 255 152 Q 269 166 283 152" fill="none" stroke="#aaa89e" stroke-width="1.5" /><line stroke="#aaa89e" stroke-width="1.2" x1="244" x2="226" y1="215" y2="215" /><line stroke="#aaa89e" stroke-width="1.2" x1="268" x2="286" y1="215" y2="215" /><line stroke="#aaa89e" stroke-width="1.2" x1="244" x2="226" y1="240" y2="240" /><line stroke="#aaa89e" stroke-width="1.2" x1="268" x2="286" y1="240" y2="240" /><line stroke="#aaa89e" stroke-width="1.2" x1="244" x2="226" y1="265" y2="265" /><line stroke="#aaa89e" stroke-width="1.2" x1="268" x2="286" y1="265" y2="265" /><line stroke="#aaa89e" stroke-width="1.2" x1="244" x2="226" y1="290" y2="290" /><line stroke="#aaa89e" stroke-width="1.2" x1="268" x2="286" y1="290" y2="290" /><path d="M 227 165 Q 239 186 251 165" fill="none" stroke="#aaa89e" stroke-width="1.5" /><path d="M 261 165 Q 273 186 285 165" fill="none" stroke="#aaa89e" stroke-width="1.5" /><polygon fill="#c8c8be" points="140,112 148,112 88,175" stroke="none" /><polygon fill="#c8c8be" points="148,112 121,175 88,175" stroke="none" /><polygon fill="#e2e2d8" points="148,112 156,112 121,175" stroke="none" /><polygon fill="#e2e2d8" points="156,112 154,175 121,175" stroke="none" /><polygon fill="#aaa89e" points="88,175 121,175 88,206.5" stroke="none" /><polygon fill="#aaa89e" points="121,175 121,206.5 88,206.5" stroke="none" /><polygon fill="#e2e2d8" points="121,175 154,175 121,206.5" stroke="none" /><polygon fill="#e2e2d8" points="154,175 154,206.5 121,206.5" stroke="none" /><polygon fill="#f3ca24" points="88,206.5 121,206.5 92,322" stroke="none" /><polygon fill="#f3ca24" points="121,206.5 121,322 92,322" stroke="none" /><polygon fill="#f3ca24" points="121,206.5 154,206.5 121,322" stroke="none" /><polygon fill="#f3ca24" points="154,206.5 140,322 121,322" stroke="none" /><line stroke="#aaa89e" stroke-width="2" x1="110" x2="186" y1="177" y2="177" /><ellipse cx="137" cy="302" fill="white" fill-opacity="0.12" rx="3" ry="2" stroke="none" /><ellipse cx="168" cy="219" fill="white" fill-opacity="0.12" rx="3" ry="2" stroke="none" /><ellipse cx="154" cy="281" fill="white" fill-opacity="0.12" rx="3" ry="2" stroke="none" /><ellipse cx="139" cy="303" fill="white" fill-opacity="0.12" rx="3" ry="2" stroke="none" /><polygon fill="#c8c8be" points="356,112 364,112 359,177" stroke="none" /><polygon fill="#c8c8be" points="364,112 392,177 359,177" stroke="none" /><polygon fill="#e2e2d8" points="364,112 372,112 392,177" stroke="none" /><polygon fill="#e2e2d8" points="372,112 425,177 392,177" stroke="none" /><polygon fill="#aaa89e" points="359,177 392,177 359,210.55" stroke="none" /><polygon fill="#aaa89e" points="392,177 392,210.55 359,210.55" stroke="none" /><polygon fill="#e2e2d8" points="392,177 425,177 392,210.55" stroke="none" /><polygon fill="#e2e2d8" points="425,177 425,210.55 392,210.55" stroke="none" /><polygon fill="#f3ca24" points="359,210.55 392,210.55 373,331" stroke="none" /><polygon fill="#f3ca24" points="392,210.55 392,331 373,331" stroke="none" /><polygon fill="#f3ca24" points="392,210.55 425,210.55 392,331" stroke="none" /><polygon fill="#f3ca24" points="425,210.55 421,331 392,331" stroke="none" /><line stroke="#aaa89e" stroke-width="2" x1="326" x2="402" y1="179" y2="179" /><ellipse cx="371" cy="290" fill="white" fill-opacity="0.12" rx="3" ry="2" stroke="none" /><ellipse cx="366" cy="312" fill="white" fill-opacity="0.12" rx="3" ry="2" stroke="none" /><ellipse cx="373" cy="287" fill="white" fill-opacity="0.12" rx="3" ry="2" stroke="none" /><ellipse cx="353" cy="232" fill="white" fill-opacity="0.12" rx="3" ry="2" stroke="none" /><ellipse cx="341" cy="271" fill="white" fill-opacity="0.12" rx="3" ry="2" stroke="none" /></svg>