<?xml version="1.0" encoding="utf-8" ?>
<svg baseProfile="full" height="512" version="1.1" width="512" xmlns="http://www.w3.org/2000/svg" xmlns:ev="http://www.w3.org/2001/xml-events" xmlns:xlink="http://www.w3.org/1999/xlink"><defs /><polygon fill="#e2e2d8" points="244,80 250,80 178,112" stroke="none" /><polygon fill="#c8c8be" points="250,80 205,112 178,112" stroke="none" /><polygon fill="#f2f2ec" points="250,80 257,80 205,112" stroke="none" /><polygon fill="#f2f2ec" points="257,80 254,112 205,112" stroke="none" /><polygon fill="#f2f2ec" points="257,80 261,80 254,112" stroke="none" /><polygon fill="#f2f2ec" points="261,80 311,112 254,112" stroke="none" /><polygon fill="#f2f2ec" points="261,80 269,80 311,112" stroke="none" /><polygon fill="#c8c8be" points="269,80 335,112 311,112" stroke="none" /><polygon fill="#c8c8be" points="178,112 205,112 187,155" stroke="none" /><polygon fill="#c8c8be" points="205,112 219,155 187,155" stroke="none" /><polygon fill="#e2e2d8" points="205,112 254,112 219,155" stroke="none" /><polygon fill="#f2f2ec" points="254,112 259,155 219,155" stroke="none" /><polygon fill="#f2f2ec" points="254,112 311,112 259,155" stroke="none" /><polygon fill="#e2e2d8" points="311,112 288,155 259,155" stroke="none" /><polygon fill="#c8c8be" points="311,112 335,112 288,155" stroke="none" /><polygon fill="#c8c8be" points="335,112 325,155 288,155" stroke="none" /><polygon fill="#c8c8be" points="187,155 219,155 191,200" stroke="none" /><polygon fill="#c8c8be" points="219,155 229,200 191,200" stroke="none" /><polygon fill="#f2f2ec" points="219,155 259,155 229,200" stroke="none" /><polygon fill="#f2f2ec" points="259,155 258,200 229,200" stroke="none" /><polygon fill="#f2f2ec" points="259,155 288,155 258,200" stroke="none" /><polygon fill="#f2f2ec" points="288,155 286,200 258,200" stroke="none" /><polygon fill="#c8c8be" points="288,155 325,155 286,200" stroke="none" /><polygon fill="#c8c8be" points="325,155 324,200 286,200" stroke="none" /><polygon fill="#c8c8be" points="191,200 229,200 189,300" stroke="none" /><polygon fill="#e2e2d8" points="229,200 228,300 189,300" stroke="none" /><polygon fill="#f2f2ec" points="229,200 258,200 228,300" stroke="none" /><polygon fill="#f2f2ec" points="258,200 257,300 228,300" stroke="none" /><polygon fill="#f2f2ec" points="258,200 286,200 257,300" stroke="none" /><polygon fill="#f2f2ec" points="286,200 284,300 257,300" stroke="none" /><polygon fill="#c8c8be" points="286,200 324,200 284,300" stroke="none" /><polygon fill="#c8c8be" points="324,200 326,300 284,300" stroke="none" /><polygon fill="#c8c8be" points="189,300 228,300 191,370" stroke="none" /><polygon fill="#e2e2d8" points="228,300 234,370 191,370" stroke="none" /><polygon fill="#f2f2ec" points="228,300 257,300 234,370" stroke="none" /><polygon fill="#f2f2ec" points="257,300 254,370 234,370" stroke="none" /><polygon fill="#f2f2ec" points="257,300 284,300 254,370" stroke="none" /><polygon fill="#f2f2ec" points="284,300 275,370 254,370" stroke="none" /><polygon fill="#e2e2d8" points="284,300 326,300 275,370" stroke="none" /><polygon fill="#c8c8be" points="326,300 323,370 275,370" stroke="none" /><polygon fill="#c8c8be" points="191,370 234,370 181,430" stroke="none" /><polygon fill="#e2e2d8" points="234,370 233,430 181,430" stroke="none" /><polygon fill="#f2f2ec" points="234,370 254,370 233,430" stroke="none" /><polygon fill="#f2f2ec" points="254,370 256,430 233,430" stroke="none" /><polygon fill="#f2f2ec" points="254,370 275,370 256,430" stroke="none" /><polygon fill="#f2f2ec" points="275,370 278,430 256,430" stroke="none" /><polygon fill="#e2e2d8" points="275,370 323,370 278,430" stroke="none" /><polygon fill="#c8c8be" points="323,370 331,430 278,430" stroke="none" /><polygon fill="#c8c8be" points="242,95 256,110 270,95" stroke="#999" stroke-width="1.5" /><circle cx="256" cy="135" fill="#ddd" r="3" stroke="#999" stroke-width="1" /><circle cx="256" cy="165" fill="#ddd" r="3" stroke="#999" stroke-width="1" /><circle cx="256" cy="195" fill="#ddd" r="3" stroke="#999" stroke-width="1" /><rect fill="#e2e2d8" height="9" stroke="#aaa89e" stroke-width="1.5" width="10" x="233" y="145" /><line stroke="#aaa89e" stroke-width="2" x1="219" x2="293" y1="420" y2="420" /><path d="M 234 260 Q 256 278 278 260" fill="none" stroke="#aaa89e" stroke-width="1.5" /><polygon fill="#c8c8be" points="174,112 182,112 154,161" stroke="none" /><polygon fill="#c8c8be" points="182,112 182,161 154,161" stroke="none" /><polygon fill="#e2e2d8" points="182,112 190,112 182,161" stroke="none" /><polygon fill="#e2e2d8" points="190,112 210,161 182,161" stroke="none" /><polygon fill="#aaa89e" points="154,161 182,161 154,186.7" stroke="none" /><polygon fill="#aaa89e" points="182,161 182,186.7 154,186.7" stroke="none" /><polygon fill="#e2e2d8" points="182,161 210,161 182,186.7" stroke="none" /><polygon fill="#e2e2d8" points="210,161 210,186.7 182,186.7" stroke="none" /><polygon fill="#f5d040" points="154,186.7 182,186.7 163,278" stroke="none" /><polygon fill="#f5d040" points="182,186.7 182,278 163,278" stroke="none" /><polygon fill="#f5d040" points="182,186.7 210,186.7 182,278" stroke="none" /><polygon fill="#f5d040" points="210,186.7 201,278 182,278" stroke="none" /><line stroke="#aaa89e" stroke-width="2" x1="157" x2="207" y1="163" y2="163" /><ellipse cx="168" cy="209" fill="white" fill-opacity="0.12" rx="3" ry="2" stroke="none" /><ellipse cx="180" cy="189" fill="white" fill-opacity="0.12" rx="3" ry="2" stroke="none" /><ellipse cx="197" cy="214" fill="white" fill-opacity="0.12" rx="3" ry="2" stroke="none" /><polygon fill="#c8c8be" points="322,112 330,112 302,163" stroke="none" /><polygon fill="#c8c8be" points="330,112 330,163 302,163" stroke="none" /><polygon fill="#e2e2d8" points="330,112 338,112 330,163" stroke="none" /><polygon fill="#e2e2d8" points="338,112 358,163 330,163" stroke="none" /><polygon fill="#aaa89e" points="302,163 330,163 302,188.95" stroke="none" /><polygon fill="#aaa89e" points="330,163 330,188.95 302,188.95" stroke="none" /><polygon fill="#e2e2d8" points="330,163 358,163 330,188.95" stroke="none" /><polygon fill="#e2e2d8" points="358,163 358,188.95 330,188.95" stroke="none" /><polygon fill="#f5d040" points="302,188.95 330,188.95 311,283" stroke="none" /><polygon fill="#f5d040" points="330,188.95 330,283 311,283" stroke="none" /><polygon fill="#f5d040" points="330,188.95 358,188.95 330,283" stroke="none" /><polygon fill="#f5d040" points="358,188.95 349,283 330,283" stroke="none" /><line stroke="#aaa89e" stroke-width="2" x1="305" x2="355" y1="165" y2="165" /><ellipse cx="324" cy="212" fill="white" fill-opacity="0.12" rx="3" ry="2" stroke="none" /><ellipse cx="336" cy="232" fill="white" fill-opacity="0.12" rx="3" ry="2" stroke="none" /><ellipse cx="346" cy="204" fill="white" fill-opacity="0.12" rx="3" ry="2" stroke="none" /></svg>