<?xml version="1.0" encoding="utf-8" ?>
<svg baseProfile="full" height="512" version="1.1" width="512" xmlns="http://www.w3.org/2000/svg" xmlns:ev="http://www.w3.org/2001/xml-events" xmlns:xlink="http://www.w3.org/1999/xlink"><defs /><polygon fill="#e2e2d8" points="243,80 250,80 141,112" stroke="none" /><polygon fill="#c8c8be" points="250,80 179,112 141,112" stroke="none" /><polygon fill="#f2f2ec" points="250,80 257,80 179,112" stroke="none" /><polygon fill="#f2f2ec" points="257,80 253,112 179,112" stroke="none" /><polygon fill="#f2f2ec" points="257,80 261,80 253,112" stroke="none" /><polygon fill="#f2f2ec" points="261,80 337,112 253,112" stroke="none" /><polygon fill="#e2e2d8" points="261,80 267,80 337,112" stroke="none" /><polygon fill="#c8c8be" points="267,80 372,112 337,112" stroke="none" /><polygon fill="#c8c8be" points="141,112 179,112 156,155" stroke="none" /><polygon fill="#c8c8be" points="179,112 208,155 156,155" stroke="none" /><polygon fill="#e2e2d8" points="179,112 253,112 208,155" stroke="none" /><polygon fill="#f2f2ec" points="253,112 254,155 208,155" stroke="none" /><polygon fill="#f2f2ec" points="253,112 337,112 254,155" stroke="none" /><polygon fill="#e2e2d8" points="337,112 304,155 254,155" stroke="none" /><polygon fill="#c8c8be" points="337,112 372,112 304,155" stroke="none" /><polygon fill="#c8c8be" points="372,112 350,155 304,155" stroke="none" /><polygon fill="#c8c8be" points="156,155 208,155 183,200" stroke="none" /><polygon fill="#c8c8be" points="208,155 225,200 183,200" stroke="none" /><polygon fill="#f2f2ec" points="208,155 254,155 225,200" stroke="none" /><polygon fill="#f2f2ec" points="254,155 254,200 225,200" stroke="none" /><polygon fill="#f2f2ec" points="254,155 304,155 254,200" stroke="none" /><polygon fill="#f2f2ec" points="304,155 286,200 254,200" stroke="none" /><polygon fill="#c8c8be" points="304,155 350,155 286,200" stroke="none" /><polygon fill="#c8c8be" points="350,155 328,200 286,200" stroke="none" /><polygon fill="#c8c8be" points="183,200 225,200 177,300" stroke="none" /><polygon fill="#e2e2d8" points="225,200 230,300 177,300" stroke="none" /><polygon fill="#f2f2ec" points="225,200 254,200 230,300" stroke="none" /><polygon fill="#f2f2ec" points="254,200 258,300 230,300" stroke="none" /><polygon fill="#f2f2ec" points="254,200 286,200 258,300" stroke="none" /><polygon fill="#f2f2ec" points="286,200 286,300 258,300" stroke="none" /><polygon fill="#e2e2d8" points="286,200 328,200 286,300" stroke="none" /><polygon fill="#c8c8be" points="328,200 332,300 286,300" stroke="none" /><polygon fill="#c8c8be" points="177,300 230,300 181,370" stroke="none" /><polygon fill="#e2e2d8" points="230,300 230,370 181,370" stroke="none" /><polygon fill="#f2f2ec" points="230,300 258,300 230,370" stroke="none" /><polygon fill="#f2f2ec" points="258,300 256,370 230,370" stroke="none" /><polygon fill="#f2f2ec" points="258,300 286,300 256,370" stroke="none" /><polygon fill="#f2f2ec" points="286,300 282,370 256,370" stroke="none" /><polygon fill="#e2e2d8" points="286,300 332,300 282,370" stroke="none" /><polygon fill="#c8c8be" points="332,300 330,370 282,370" stroke="none" /><polygon fill="#c8c8be" points="181,370 230,370 173,430" stroke="none" /><polygon fill="#e2e2d8" points="230,370 231,430 173,430" stroke="none" /><polygon fill="#f2f2ec" points="230,370 256,370 231,430" stroke="none" /><polygon fill="#f2f2ec" points="256,370 256,430 231,430" stroke="none" /><polygon fill="#f2f2ec" points="256,370 282,370 256,430" stroke="none" /><polygon fill="#f2f2ec" points="282,370 279,430 256,430" stroke="none" /><polygon fill="#e2e2d8" points="282,370 330,370 279,430" stroke="none" /><polygon fill="#c8c8be" points="330,370 339,430 279,430" stroke="none" /><polygon fill="#c8c8be" points="236,95 256,110 276,95" stroke="#999" stroke-width="1.5" /><circle cx="256" cy="135" fill="#ddd" r="3" stroke="#999" stroke-width="1" /><circle cx="256" cy="165" fill="#ddd" r="3" stroke="#999" stroke-width="1" /><circle cx="256" cy="195" fill="#ddd" r="3" stroke="#999" stroke-width="1" /><rect fill="#e2e2d8" height="13" stroke="#aaa89e" stroke-width="1.5" width="16" x="222" y="145" /><line stroke="#aaa89e" stroke-width="2" x1="215" x2="297" y1="420" y2="420" /><path d="M 213 152 Q 227 166 241 152" fill="none" stroke="#aaa89e" stroke-width="1.5" /><path d="M 271 152 Q 285 166 299 152" fill="none" stroke="#aaa89e" stroke-width="1.5" /><line stroke="#aaa89e" stroke-width="1.2" x1="244" x2="226" y1="215" y2="215" /><line stroke="#aaa89e" stroke-width="1.2" x1="268" x2="286" y1="215" y2="215" /><line stroke="#aaa89e" stroke-width="1.2" x1="244" x2="226" y1="240" y2="240" /><line stroke="#aaa89e" stroke-width="1.2" x1="268" x2="286" y1="240" y2="240" /><line stroke="#aaa89e" stroke-width="1.2" x1="244" x2="226" y1="265" y2="265" /><line stroke="#aaa89e" stroke-width="1.2" x1="268" x2="286" y1="265" y2="265" /><line stroke="#aaa89e" stroke-width="1.2" x1="244" x2="226" y1="290" y2="290" /><line stroke="#aaa89e" stroke-width="1.2" x1="268" x2="286" y1="290" y2="290" /><path d="M 232 260 Q 256 278 280 260" fill="none" stroke="#aaa89e" stroke-width="1.5" /><polygon fill="#c8c8be" points="137,112 145,112 102,178" stroke="none" /><polygon fill="#c8c8be" points="145,112 145,178 102,178" stroke="none" /><polygon fill="#e2e2d8" points="145,112 153,112 145,178" stroke="none" /><polygon fill="#e2e2d8" points="153,112 188,178 145,178" stroke="none" /><polygon fill="#aaa89e" points="102,178 145,178 102,211.0" stroke="none" /><polygon fill="#aaa89e" points="145,178 145,211.0 102,211.0" stroke="none" /><polygon fill="#e2e2d8" points="145,178 188,178 145,211.0" stroke="none" /><polygon fill="#e2e2d8" points="188,178 188,211.0 145,211.0" stroke="none" /><polygon fill="#f6d244" points="102,211.0 145,211.0 117,332" stroke="none" /><polygon fill="#f6d244" points="145,211.0 145,332 117,332" stroke="none" /><polygon fill="#f6d244" points="145,211.0 188,211.0 145,332" stroke="none" /><polygon fill="#f6d244" points="188,211.0 173,332 145,332" stroke="none" /><line stroke="#aaa89e" stroke-width="2" x1="107" x2="183" y1="180" y2="180" /><ellipse cx="160" cy="228" fill="white" fill-opacity="0.12" rx="3" ry="2" stroke="none" /><ellipse cx="125" cy="222" fill="white" fill-opacity="0.12" rx="3" ry="2" stroke="none" /><ellipse cx="134" cy="312" fill="white" fill-opacity="0.12" rx="3" ry="2" stroke="none" /><polygon fill="#c8c8be" points="359,112 367,112 324,181" stroke="none" /><polygon fill="#c8c8be" points="367,112 367,181 324,181" stroke="none" /><polygon fill="#e2e2d8" points="367,112 375,112 367,181" stroke="none" /><polygon fill="#e2e2d8" points="375,112 410,181 367,181" stroke="none" /><polygon fill="#aaa89e" points="324,181 367,181 324,215.95" stroke="none" /><polygon fill="#aaa89e" points="367,181 367,215.95 324,215.95" stroke="none" /><polygon fill="#e2e2d8" points="367,181 410,181 367,215.95" stroke="none" /><polygon fill="#e2e2d8" points="410,181 410,215.95 367,215.95" stroke="none" /><polygon fill="#f6d244" points="324,215.95 367,215.95 339,343" stroke="none" /><polygon fill="#f6d244" points="367,215.95 367,343 339,343" stroke="none" /><polygon fill="#f6d244" points="367,215.95 410,215.95 367,343" stroke="none" /><polygon fill="#f6d244" points="410,215.95 395,343 367,343" stroke="none" /><line stroke="#aaa89e" stroke-width="2" x1="329" x2="405" y1="183" y2="183" /><ellipse cx="346" cy="208" fill="white" fill-opacity="0.12" rx="3" ry="2" stroke="none" /><ellipse cx="357" cy="213" fill="white" fill-opacity="0.12" rx="3" ry="2" stroke="none" /><ellipse cx="343" cy="279" fill="white" fill-opacity="0.12" rx="3" ry="2" stroke="none" /><ellipse cx="349" cy="243" fill="white" fill-opacity="0.12" rx="3" ry="2" stroke="none" /></svg>