<?xml version="1.0" encoding="utf-8" ?>
<svg baseProfile="full" height="512" version="1.1" width="512" xmlns="http://www.w3.org/2000/svg" xmlns:ev="http://www.w3.org/2001/xml-events" xmlns:xlink="http://www.w3.org/1999/xlink"><defs /><polygon fill="#c8c8be" points="243,80 249,80 151,112" stroke="none" /><polygon fill="#c8c8be" points="249,80 182,112 151,112" stroke="none" /><polygon fill="#e2e2d8" points="249,80 256,80 182,112" stroke="none" /><polygon fill="#e2e2d8" points="256,80 254,112 182,112" stroke="none" /><polygon fill="#f2f2ec" points="256,80 262,80 254,112" stroke="none" /><polygon fill="#e2e2d8" points="262,80 325,112 254,112" stroke="none" /><polygon fill="#c8c8be" points="262,80 268,80 325,112" stroke="none" /><polygon fill="#c8c8be" points="268,80 362,112 325,112" stroke="none" /><polygon fill="#c8c8be" points="151,112 182,112 170,155" stroke="none" /><polygon fill="#c8c8be" points="182,112 213,155 170,155" stroke="none" /><polygon fill="#c8c8be" points="182,112 254,112 213,155" stroke="none" /><polygon fill="#f2f2ec" points="254,112 255,155 213,155" stroke="none" /><polygon fill="#e2e2d8" points="254,112 325,112 255,155" stroke="none" /><polygon fill="#c8c8be" points="325,112 299,155 255,155" stroke="none" /><polygon fill="#c8c8be" points="325,112 362,112 299,155" stroke="none" /><polygon fill="#c8c8be" points="362,112 343,155 299,155" stroke="none" /><polygon fill="#c8c8be" points="170,155 213,155 212,200" stroke="none" /><polygon fill="#c8c8be" points="213,155 238,200 212,200" stroke="none" /><polygon fill="#e2e2d8" points="213,155 255,155 238,200" stroke="none" /><polygon fill="#f2f2ec" points="255,155 253,200 238,200" stroke="none" /><polygon fill="#f2f2ec" points="255,155 299,155 253,200" stroke="none" /><polygon fill="#e2e2d8" points="299,155 276,200 253,200" stroke="none" /><polygon fill="#c8c8be" points="299,155 343,155 276,200" stroke="none" /><polygon fill="#c8c8be" points="343,155 300,200 276,200" stroke="none" /><polygon fill="#c8c8be" points="212,200 238,200 207,300" stroke="none" /><polygon fill="#c8c8be" points="238,200 239,300 207,300" stroke="none" /><polygon fill="#f2f2ec" points="238,200 253,200 239,300" stroke="none" /><polygon fill="#f2f2ec" points="253,200 254,300 239,300" stroke="none" /><polygon fill="#f2f2ec" points="253,200 276,200 254,300" stroke="none" /><polygon fill="#f2f2ec" points="276,200 274,300 254,300" stroke="none" /><polygon fill="#e2e2d8" points="276,200 300,200 274,300" stroke="none" /><polygon fill="#c8c8be" points="300,200 303,300 274,300" stroke="none" /><polygon fill="#c8c8be" points="207,300 239,300 208,370" stroke="none" /><polygon fill="#e2e2d8" points="239,300 239,370 208,370" stroke="none" /><polygon fill="#f2f2ec" points="239,300 254,300 239,370" stroke="none" /><polygon fill="#f2f2ec" points="254,300 257,370 239,370" stroke="none" /><polygon fill="#f2f2ec" points="254,300 274,300 257,370" stroke="none" /><polygon fill="#f2f2ec" points="274,300 274,370 257,370" stroke="none" /><polygon fill="#c8c8be" points="274,300 303,300 274,370" stroke="none" /><polygon fill="#c8c8be" points="303,300 302,370 274,370" stroke="none" /><polygon fill="#c8c8be" points="208,370 239,370 207,430" stroke="none" /><polygon fill="#e2e2d8" points="239,370 240,430 207,430" stroke="none" /><polygon fill="#f2f2ec" points="239,370 257,370 240,430" stroke="none" /><polygon fill="#f2f2ec" points="257,370 255,430 240,430" stroke="none" /><polygon fill="#f2f2ec" points="257,370 274,370 255,430" stroke="none" /><polygon fill="#f2f2ec" points="274,370 270,430 255,430" stroke="none" /><polygon fill="#e2e2d8" points="274,370 302,370 270,430" stroke="none" /><polygon fill="#c8c8be" points="302,370 305,430 270,430" stroke="none" /><polygon fill="#c8c8be" points="238,95 256,110 274,95" stroke="#999" stroke-width="1.5" /><circle cx="256" cy="135" fill="#ddd" r="3" stroke="#999" stroke-width="1" /><circle cx="256" cy="165" fill="#ddd" r="3" stroke="#999" stroke-width="1" /><circle cx="256" cy="195" fill="#ddd" r="3" stroke="#999" stroke-width="1" /><rect fill="#e2e2d8" height="12" stroke="#aaa89e" stroke-width="1.5" width="14" x="226" y="145" /><line stroke="#aaa89e" stroke-width="2" x1="231" x2="281" y1="420" y2="420" /><path d="M 225 152 Q 239 166 253 152" fill="none" stroke="#aaa89e" stroke-width="1.5" /><path d="M 259 152 Q 273 166 287 152" fill="none" stroke="#aaa89e" stroke-width="1.5" /><line stroke="#aaa89e" stroke-width="1.2" x1="244" x2="226" y1="215" y2="215" /><line stroke="#aaa89e" stroke-width="1.2" x1="268" x2="286" y1="215" y2="215" /><line stroke="#aaa89e" stroke-width="1.2" x1="244" x2="226" y1="240" y2="240" /><line stroke="#aaa89e" stroke-width="1.2" x1="268" x2="286" y1="240" y2="240" /><line stroke="#aaa89e" stroke-width="1.2" x1="244" x2="226" y1="265" y2="265" /><line stroke="#aaa89e" stroke-width="1.2" x1="268" x2="286" y1="265" y2="265" /><line stroke="#aaa89e" stroke-width="1.2" x1="244" x2="226" y1="290" y2="290" /><line stroke="#aaa89e" stroke-width="1.2" x1="268" x2="286" y1="290" y2="290" /><polygon fill="#c8c8be" points="149,112 157,112 121,175" stroke="none" /><polygon fill="#c8c8be" points="157,112 157,175 121,175" stroke="none" /><polygon fill="#e2e2d8" points="157,112 165,112 157,175" stroke="none" /><polygon fill="#e2e2d8" points="165,112 193,175 157,175" stroke="none" /><polygon fill="#aaa89e" points="121,175 157,175 121,206.95" stroke="none" /><polygon fill="#aaa89e" points="157,175 157,206.95 121,206.95" stroke="none" /><polygon fill="#e2e2d8" points="157,175 193,175 157,206.95" stroke="none" /><polygon fill="#e2e2d8" points="193,175 193,206.95 157,206.95" stroke="none" /><polygon fill="#f4cc2a" points="121,206.95 157,206.95 133,323" stroke="none" /><polygon fill="#f4cc2a" points="157,206.95 157,323 133,323" stroke="none" /><polygon fill="#f4cc2a" points="157,206.95 193,206.95 157,323" stroke="none" /><polygon fill="#f4cc2a" points="193,206.95 181,323 157,323" stroke="none" /><line stroke="#aaa89e" stroke-width="2" x1="125" x2="189" y1="177" y2="177" /><ellipse cx="145" cy="310" fill="white" fill-opacity="0.12" rx="3" ry="2" stroke="none" /><ellipse cx="153" cy="294" fill="white" fill-opacity="0.12" rx="3" ry="2" stroke="none" /><polygon fill="#c8c8be" points="347,112 355,112 319,173" stroke="none" /><polygon fill="#c8c8be" points="355,112 355,173 319,173" stroke="none" /><polygon fill="#e2e2d8" points="355,112 363,112 355,173" stroke="none" /><polygon fill="#e2e2d8" points="363,112 391,173 355,173" stroke="none" /><polygon fill="#aaa89e" points="319,173 355,173 319,204.25" stroke="none" /><polygon fill="#aaa89e" points="355,173 355,204.25 319,204.25" stroke="none" /><polygon fill="#e2e2d8" points="355,173 391,173 355,204.25" stroke="none" /><polygon fill="#e2e2d8" points="391,173 391,204.25 355,204.25" stroke="none" /><polygon fill="#f4cc2a" points="319,204.25 355,204.25 331,317" stroke="none" /><polygon fill="#f4cc2a" points="355,204.25 355,317 331,317" stroke="none" /><polygon fill="#f4cc2a" points="355,204.25 391,204.25 355,317" stroke="none" /><polygon fill="#f4cc2a" points="391,204.25 379,317 355,317" stroke="none" /><line stroke="#aaa89e" stroke-width="2" x1="323" x2="387" y1="175" y2="175" /><ellipse cx="340" cy="198" fill="white" fill-opacity="0.12" rx="3" ry="2" stroke="none" /><ellipse cx="360" cy="253" fill="white" fill-opacity="0.12" rx="3" ry="2" stroke="none" /><ellipse cx="366" cy="269" fill="white" fill-opacity="0.12" rx="3" ry="2" stroke="none" /></svg>