<?xml version="1.0" encoding="utf-8" ?>
<svg baseProfile="full" height="512" version="1.1" width="512" xmlns="http://www.w3.org/2000/svg" xmlns:ev="http://www.w3.org/2001/xml-events" xmlns:xlink="http://www.w3.org/1999/xlink"><defs /><polygon fill="#c8c8be" points="244,80 249,80 186,112" stroke="none" /><polygon fill="#c8c8be" points="249,80 206,112 186,112" stroke="none" /><polygon fill="#e2e2d8" points="249,80 255,80 206,112" stroke="none" /><polygon fill="#e2e2d8" points="255,80 254,112 206,112" stroke="none" /><polygon fill="#f2f2ec" points="255,80 262,80 254,112" stroke="none" /><polygon fill="#e2e2d8" points="262,80 304,112 254,112" stroke="none" /><polygon fill="#c8c8be" points="262,80 267,80 304,112" stroke="none" /><polygon fill="#c8c8be" points="267,80 326,112 304,112" stroke="none" /><polygon fill="#c8c8be" points="186,112 206,112 194,155" stroke="none" /><polygon fill="#c8c8be" points="206,112 223,155 194,155" stroke="none" /><polygon fill="#c8c8be" points="206,112 254,112 223,155" stroke="none" /><polygon fill="#f2f2ec" points="254,112 253,155 223,155" stroke="none" /><polygon fill="#e2e2d8" points="254,112 304,112 253,155" stroke="none" /><polygon fill="#c8c8be" points="304,112 289,155 253,155" stroke="none" /><polygon fill="#c8c8be" points="304,112 326,112 289,155" stroke="none" /><polygon fill="#c8c8be" points="326,112 314,155 289,155" stroke="none" /><polygon fill="#aaa89e" points="194,155 223,155 220,200" stroke="none" /><polygon fill="#e2e2d8" points="223,155 241,200 220,200" stroke="none" /><polygon fill="#e2e2d8" points="223,155 253,155 241,200" stroke="none" /><polygon fill="#f2f2ec" points="253,155 254,200 241,200" stroke="none" /><polygon fill="#f2f2ec" points="253,155 289,155 254,200" stroke="none" /><polygon fill="#e2e2d8" points="289,155 268,200 254,200" stroke="none" /><polygon fill="#aaa89e" points="289,155 314,155 268,200" stroke="none" /><polygon fill="#aaa89e" points="314,155 288,200 268,200" stroke="none" /><polygon fill="#c8c8be" points="220,200 241,200 218,300" stroke="none" /><polygon fill="#c8c8be" points="241,200 244,300 218,300" stroke="none" /><polygon fill="#f2f2ec" points="241,200 254,200 244,300" stroke="none" /><polygon fill="#f2f2ec" points="254,200 253,300 244,300" stroke="none" /><polygon fill="#f2f2ec" points="254,200 268,200 253,300" stroke="none" /><polygon fill="#f2f2ec" points="268,200 266,300 253,300" stroke="none" /><polygon fill="#e2e2d8" points="268,200 288,200 266,300" stroke="none" /><polygon fill="#c8c8be" points="288,200 294,300 266,300" stroke="none" /><polygon fill="#c8c8be" points="218,300 244,300 225,370" stroke="none" /><polygon fill="#e2e2d8" points="244,300 242,370 225,370" stroke="none" /><polygon fill="#f2f2ec" points="244,300 253,300 242,370" stroke="none" /><polygon fill="#f2f2ec" points="253,300 256,370 242,370" stroke="none" /><polygon fill="#f2f2ec" points="253,300 266,300 256,370" stroke="none" /><polygon fill="#f2f2ec" points="266,300 266,370 256,370" stroke="none" /><polygon fill="#e2e2d8" points="266,300 294,300 266,370" stroke="none" /><polygon fill="#c8c8be" points="294,300 292,370 266,370" stroke="none" /><polygon fill="#c8c8be" points="225,370 242,370 218,430" stroke="none" /><polygon fill="#c8c8be" points="242,370 246,430 218,430" stroke="none" /><polygon fill="#f2f2ec" points="242,370 256,370 246,430" stroke="none" /><polygon fill="#f2f2ec" points="256,370 255,430 246,430" stroke="none" /><polygon fill="#f2f2ec" points="256,370 266,370 255,430" stroke="none" /><polygon fill="#f2f2ec" points="266,370 268,430 255,430" stroke="none" /><polygon fill="#e2e2d8" points="266,370 292,370 268,430" stroke="none" /><polygon fill="#c8c8be" points="292,370 292,430 268,430" stroke="none" /><polygon fill="#c8c8be" points="244,95 256,110 268,95" stroke="#999" stroke-width="1.5" /><circle cx="256" cy="135" fill="#ddd" r="3" stroke="#999" stroke-width="1" /><circle cx="256" cy="165" fill="#ddd" r="3" stroke="#999" stroke-width="1" /><circle cx="256" cy="195" fill="#ddd" r="3" stroke="#999" stroke-width="1" /><rect fill="#e2e2d8" height="8" stroke="#aaa89e" stroke-width="1.5" width="10" x="235" y="145" /><line stroke="#aaa89e" stroke-width="2" x1="238" x2="274" y1="420" y2="420" /><path d="M 228 165 Q 240 186 252 165" fill="none" stroke="#aaa89e" stroke-width="1.5" /><path d="M 260 165 Q 272 186 284 165" fill="none" stroke="#aaa89e" stroke-width="1.5" /><polygon fill="#c8c8be" points="180,112 188,112 165,168" stroke="none" /><polygon fill="#c8c8be" points="188,112 188,168 165,168" stroke="none" /><polygon fill="#e2e2d8" points="188,112 196,112 188,168" stroke="none" /><polygon fill="#e2e2d8" points="196,112 211,168 188,168" stroke="none" /><polygon fill="#aaa89e" points="165,168 188,168 165,197.05" stroke="none" /><polygon fill="#aaa89e" points="188,168 188,197.05 165,197.05" stroke="none" /><polygon fill="#e2e2d8" points="188,168 211,168 188,197.05" stroke="none" /><polygon fill="#e2e2d8" points="211,168 211,197.05 188,197.05" stroke="none" /><polygon fill="#f5d040" points="165,197.05 188,197.05 173,301" stroke="none" /><polygon fill="#f5d040" points="188,197.05 188,301 173,301" stroke="none" /><polygon fill="#f5d040" points="188,197.05 211,197.05 188,301" stroke="none" /><polygon fill="#f5d040" points="211,197.05 203,301 188,301" stroke="none" /><line stroke="#aaa89e" stroke-width="2" x1="168" x2="208" y1="170" y2="170" /><ellipse cx="178" cy="216" fill="white" fill-opacity="0.12" rx="3" ry="2" stroke="none" /><ellipse cx="190" cy="288" fill="white" fill-opacity="0.12" rx="3" ry="2" stroke="none" /><ellipse cx="186" cy="189" fill="white" fill-opacity="0.12" rx="3" ry="2" stroke="none" /><polygon fill="#c8c8be" points="316,112 324,112 301,169" stroke="none" /><polygon fill="#c8c8be" points="324,112 324,169 301,169" stroke="none" /><polygon fill="#e2e2d8" points="324,112 332,112 324,169" stroke="none" /><polygon fill="#e2e2d8" points="332,112 347,169 324,169" stroke="none" /><polygon fill="#aaa89e" points="301,169 324,169 301,197.5" stroke="none" /><polygon fill="#aaa89e" points="324,169 324,197.5 301,197.5" stroke="none" /><polygon fill="#e2e2d8" points="324,169 347,169 324,197.5" stroke="none" /><polygon fill="#e2e2d8" points="347,169 347,197.5 324,197.5" stroke="none" /><polygon fill="#f5d040" points="301,197.5 324,197.5 309,302" stroke="none" /><polygon fill="#f5d040" points="324,197.5 324,302 309,302" stroke="none" /><polygon fill="#f5d040" points="324,197.5 347,197.5 324,302" stroke="none" /><polygon fill="#f5d040" points="347,197.5 339,302 324,302" stroke="none" /><line stroke="#aaa89e" stroke-width="2" x1="304" x2="344" y1="171" y2="171" /><ellipse cx="316" cy="282" fill="white" fill-opacity="0.12" rx="3" ry="2" stroke="none" /><ellipse cx="325" cy="292" fill="white" fill-opacity="0.12" rx="3" ry="2" stroke="none" /><ellipse cx="316" cy="249" fill="white" fill-opacity="0.12" rx="3" ry="2" stroke="none" /></svg>