<?xml version="1.0" encoding="utf-8" ?>
<svg baseProfile="full" height="512" version="1.1" width="512" xmlns="http://www.w3.org/2000/svg" xmlns:ev="http://www.w3.org/2001/xml-events" xmlns:xlink="http://www.w3.org/1999/xlink"><defs /><polygon fill="#e2e2d8" points="245,80 249,80 164,112" stroke="none" /><polygon fill="#c8c8be" points="249,80 192,112 164,112" stroke="none" /><polygon fill="#f2f2ec" points="249,80 255,80 192,112" stroke="none" /><polygon fill="#f2f2ec" points="255,80 258,112 192,112" stroke="none" /><polygon fill="#f2f2ec" points="255,80 262,80 258,112" stroke="none" /><polygon fill="#e2e2d8" points="262,80 321,112 258,112" stroke="none" /><polygon fill="#e2e2d8" points="262,80 267,80 321,112" stroke="none" /><polygon fill="#c8c8be" points="267,80 345,112 321,112" stroke="none" /><polygon fill="#c8c8be" points="164,112 192,112 182,155" stroke="none" /><polygon fill="#c8c8be" points="192,112 219,155 182,155" stroke="none" /><polygon fill="#e2e2d8" points="192,112 258,112 219,155" stroke="none" /><polygon fill="#f2f2ec" points="258,112 256,155 219,155" stroke="none" /><polygon fill="#f2f2ec" points="258,112 321,112 256,155" stroke="none" /><polygon fill="#e2e2d8" points="321,112 297,155 256,155" stroke="none" /><polygon fill="#c8c8be" points="321,112 345,112 297,155" stroke="none" /><polygon fill="#c8c8be" points="345,112 331,155 297,155" stroke="none" /><polygon fill="#aaa89e" points="182,155 219,155 192,200" stroke="none" /><polygon fill="#aaa89e" points="219,155 226,200 192,200" stroke="none" /><polygon fill="#e2e2d8" points="219,155 256,155 226,200" stroke="none" /><polygon fill="#f2f2ec" points="256,155 253,200 226,200" stroke="none" /><polygon fill="#f2f2ec" points="256,155 297,155 253,200" stroke="none" /><polygon fill="#e2e2d8" points="297,155 281,200 253,200" stroke="none" /><polygon fill="#aaa89e" points="297,155 331,155 281,200" stroke="none" /><polygon fill="#aaa89e" points="331,155 317,200 281,200" stroke="none" /><polygon fill="#c8c8be" points="192,200 226,200 189,300" stroke="none" /><polygon fill="#c8c8be" points="226,200 234,300 189,300" stroke="none" /><polygon fill="#f2f2ec" points="226,200 253,200 234,300" stroke="none" /><polygon fill="#f2f2ec" points="253,200 258,300 234,300" stroke="none" /><polygon fill="#f2f2ec" points="253,200 281,200 258,300" stroke="none" /><polygon fill="#f2f2ec" points="281,200 283,300 258,300" stroke="none" /><polygon fill="#e2e2d8" points="281,200 317,200 283,300" stroke="none" /><polygon fill="#c8c8be" points="317,200 323,300 283,300" stroke="none" /><polygon fill="#c8c8be" points="189,300 234,300 196,370" stroke="none" /><polygon fill="#e2e2d8" points="234,300 239,370 196,370" stroke="none" /><polygon fill="#f2f2ec" points="234,300 258,300 239,370" stroke="none" /><polygon fill="#f2f2ec" points="258,300 254,370 239,370" stroke="none" /><polygon fill="#f2f2ec" points="258,300 283,300 254,370" stroke="none" /><polygon fill="#f2f2ec" points="283,300 276,370 254,370" stroke="none" /><polygon fill="#c8c8be" points="283,300 323,300 276,370" stroke="none" /><polygon fill="#c8c8be" points="323,300 321,370 276,370" stroke="none" /><polygon fill="#c8c8be" points="196,370 239,370 186,430" stroke="none" /><polygon fill="#e2e2d8" points="239,370 237,430 186,430" stroke="none" /><polygon fill="#f2f2ec" points="239,370 254,370 237,430" stroke="none" /><polygon fill="#f2f2ec" points="254,370 257,430 237,430" stroke="none" /><polygon fill="#f2f2ec" points="254,370 276,370 257,430" stroke="none" /><polygon fill="#f2f2ec" points="276,370 276,430 257,430" stroke="none" /><polygon fill="#e2e2d8" points="276,370 321,370 276,430" stroke="none" /><polygon fill="#c8c8be" points="321,370 325,430 276,430" stroke="none" /><polygon fill="#c8c8be" points="240,95 256,110 272,95" stroke="#999" stroke-width="1.5" /><circle cx="256" cy="135" fill="#ddd" r="3" stroke="#999" stroke-width="1" /><circle cx="256" cy="165" fill="#ddd" r="3" stroke="#999" stroke-width="1" /><circle cx="256" cy="195" fill="#ddd" r="3" stroke="#999" stroke-width="1" /><rect fill="#e2e2d8" height="10" stroke="#aaa89e" stroke-width="1.5" width="12" x="229" y="145" /><line stroke="#aaa89e" stroke-width="2" x1="222" x2="290" y1="420" y2="420" /><path d="M 218 152 Q 232 166 246 152" fill="none" stroke="#aaa89e" stroke-width="1.5" /><path d="M 266 152 Q 280 166 294 152" fill="none" stroke="#aaa89e" stroke-width="1.5" /><line stroke="#aaa89e" stroke-width="1.2" x1="244" x2="226" y1="215" y2="215" /><line stroke="#aaa89e" stroke-width="1.2" x1="268" x2="286" y1="215" y2="215" /><line stroke="#aaa89e" stroke-width="1.2" x1="244" x2="226" y1="240" y2="240" /><line stroke="#aaa89e" stroke-width="1.2" x1="268" x2="286" y1="240" y2="240" /><line stroke="#aaa89e" stroke-width="1.2" x1="244" x2="226" y1="265" y2="265" /><line stroke="#aaa89e" stroke-width="1.2" x1="268" x2="286" y1="265" y2="265" /><line stroke="#aaa89e" stroke-width="1.2" x1="244" x2="226" y1="290" y2="290" /><line stroke="#aaa89e" stroke-width="1.2" x1="268" x2="286" y1="290" y2="290" /><path d="M 236 260 Q 256 278 276 260" fill="none" stroke="#aaa89e" stroke-width="1.5" /><path d="M 213 165 Q 225 186 237 165" fill="none" stroke="#aaa89e" stroke-width="1.5" /><path d="M 275 165 Q 287 186 299 165" fill="none" stroke="#aaa89e" stroke-width="1.5" /><polygon fill="#c8c8be" points="161,112 169,112 126,173" stroke="none" /><polygon fill="#c8c8be" points="169,112 169,173 126,173" stroke="none" /><polygon fill="#e2e2d8" points="169,112 177,112 169,173" stroke="none" /><polygon fill="#e2e2d8" points="177,112 212,173 169,173" stroke="none" /><polygon fill="#aaa89e" points="126,173 169,173 126,203.8" stroke="none" /><polygon fill="#aaa89e" points="169,173 169,203.8 126,203.8" stroke="none" /><polygon fill="#e2e2d8" points="169,173 212,173 169,203.8" stroke="none" /><polygon fill="#e2e2d8" points="212,173 212,203.8 169,203.8" stroke="none" /><polygon fill="#f4cc2a" points="126,203.8 169,203.8 141,316" stroke="none" /><polygon fill="#f4cc2a" points="169,203.8 169,316 141,316" stroke="none" /><polygon fill="#f4cc2a" points="169,203.8 212,203.8 169,316" stroke="none" /><polygon fill="#f4cc2a" points="212,203.8 197,316 169,316" stroke="none" /><line stroke="#aaa89e" stroke-width="2" x1="131" x2="207" y1="175" y2="175" /><polygon fill="#c8c8be" points="335,112 343,112 300,176" stroke="none" /><polygon fill="#c8c8be" points="343,112 343,176 300,176" stroke="none" /><polygon fill="#e2e2d8" points="343,112 351,112 343,176" stroke="none" /><polygon fill="#e2e2d8" points="351,112 386,176 343,176" stroke="none" /><polygon fill="#aaa89e" points="300,176 343,176 300,208.75" stroke="none" /><polygon fill="#aaa89e" points="343,176 343,208.75 300,208.75" stroke="none" /><polygon fill="#e2e2d8" points="343,176 386,176 343,208.75" stroke="none" /><polygon fill="#e2e2d8" points="386,176 386,208.75 343,208.75" stroke="none" /><polygon fill="#f4cc2a" points="300,208.75 343,208.75 315,327" stroke="none" /><polygon fill="#f4cc2a" points="343,208.75 343,327 315,327" stroke="none" /><polygon fill="#f4cc2a" points="343,208.75 386,208.75 343,327" stroke="none" /><polygon fill="#f4cc2a" points="386,208.75 371,327 343,327" stroke="none" /><line stroke="#aaa89e" stroke-width="2" x1="305" x2="381" y1="178" y2="178" /></svg>