<?xml version="1.0" encoding="utf-8" ?>
<svg baseProfile="full" height="512" version="1.1" width="512" xmlns="http://www.w3.org/2000/svg" xmlns:ev="http://www.w3.org/2001/xml-events" xmlns:xlink="http://www.w3.org/1999/xlink"><defs /><polygon fill="#c8c8be" points="244,80 250,80 198,112" stroke="none" /><polygon fill="#c8c8be" points="250,80 213,112 198,112" stroke="none" /><polygon fill="#e2e2d8" points="250,80 257,80 213,112" stroke="none" /><polygon fill="#f2f2ec" points="257,80 256,112 213,112" stroke="none" /><polygon fill="#f2f2ec" points="257,80 261,80 256,112" stroke="none" /><polygon fill="#e2e2d8" points="261,80 295,112 256,112" stroke="none" /><polygon fill="#e2e2d8" points="261,80 268,80 295,112" stroke="none" /><polygon fill="#c8c8be" points="268,80 314,112 295,112" stroke="none" /><polygon fill="#c8c8be" points="198,112 213,112 209,155" stroke="none" /><polygon fill="#c8c8be" points="213,112 231,155 209,155" stroke="none" /><polygon fill="#c8c8be" points="213,112 256,112 231,155" stroke="none" /><polygon fill="#f2f2ec" points="256,112 254,155 231,155" stroke="none" /><polygon fill="#f2f2ec" points="256,112 295,112 254,155" stroke="none" /><polygon fill="#e2e2d8" points="295,112 279,155 254,155" stroke="none" /><polygon fill="#c8c8be" points="295,112 314,112 279,155" stroke="none" /><polygon fill="#c8c8be" points="314,112 305,155 279,155" stroke="none" /><polygon fill="#c8c8be" points="209,155 231,155 217,200" stroke="none" /><polygon fill="#c8c8be" points="231,155 239,200 217,200" stroke="none" /><polygon fill="#e2e2d8" points="231,155 254,155 239,200" stroke="none" /><polygon fill="#f2f2ec" points="254,155 257,200 239,200" stroke="none" /><polygon fill="#f2f2ec" points="254,155 279,155 257,200" stroke="none" /><polygon fill="#f2f2ec" points="279,155 271,200 257,200" stroke="none" /><polygon fill="#c8c8be" points="279,155 305,155 271,200" stroke="none" /><polygon fill="#c8c8be" points="305,155 291,200 271,200" stroke="none" /><polygon fill="#c8c8be" points="217,200 239,200 217,300" stroke="none" /><polygon fill="#c8c8be" points="239,200 244,300 217,300" stroke="none" /><polygon fill="#f2f2ec" points="239,200 257,200 244,300" stroke="none" /><polygon fill="#f2f2ec" points="257,200 254,300 244,300" stroke="none" /><polygon fill="#f2f2ec" points="257,200 271,200 254,300" stroke="none" /><polygon fill="#f2f2ec" points="271,200 270,300 254,300" stroke="none" /><polygon fill="#e2e2d8" points="271,200 291,200 270,300" stroke="none" /><polygon fill="#c8c8be" points="291,200 294,300 270,300" stroke="none" /><polygon fill="#c8c8be" points="217,300 244,300 223,370" stroke="none" /><polygon fill="#e2e2d8" points="244,300 242,370 223,370" stroke="none" /><polygon fill="#f2f2ec" points="244,300 254,300 242,370" stroke="none" /><polygon fill="#f2f2ec" points="254,300 258,370 242,370" stroke="none" /><polygon fill="#f2f2ec" points="254,300 270,300 258,370" stroke="none" /><polygon fill="#f2f2ec" points="270,300 271,370 258,370" stroke="none" /><polygon fill="#e2e2d8" points="270,300 294,300 271,370" stroke="none" /><polygon fill="#c8c8be" points="294,300 295,370 271,370" stroke="none" /><polygon fill="#c8c8be" points="223,370 242,370 216,430" stroke="none" /><polygon fill="#e2e2d8" points="242,370 244,430 216,430" stroke="none" /><polygon fill="#f2f2ec" points="242,370 258,370 244,430" stroke="none" /><polygon fill="#f2f2ec" points="258,370 257,430 244,430" stroke="none" /><polygon fill="#f2f2ec" points="258,370 271,370 257,430" stroke="none" /><polygon fill="#f2f2ec" points="271,370 267,430 257,430" stroke="none" /><polygon fill="#e2e2d8" points="271,370 295,370 267,430" stroke="none" /><polygon fill="#c8c8be" points="295,370 298,430 267,430" stroke="none" /><polygon fill="#c8c8be" points="246,95 256,110 266,95" stroke="#999" stroke-width="1.5" /><circle cx="256" cy="135" fill="#ddd" r="3" stroke="#999" stroke-width="1" /><circle cx="256" cy="165" fill="#ddd" r="3" stroke="#999" stroke-width="1" /><circle cx="256" cy="195" fill="#ddd" r="3" stroke="#999" stroke-width="1" /><rect fill="#e2e2d8" height="7" stroke="#aaa89e" stroke-width="1.5" width="8" x="239" y="145" /><line stroke="#aaa89e" stroke-width="2" x1="236" x2="276" y1="420" y2="420" /><polygon fill="#c8c8be" points="193,112 201,112 178,177" stroke="none" /><polygon fill="#c8c8be" points="201,112 186,177 178,177" stroke="none" /><polygon fill="#e2e2d8" points="201,112 209,112 186,177" stroke="none" /><polygon fill="#e2e2d8" points="209,112 194,177 186,177" stroke="none" /><polygon fill="#aaa89e" points="178,177 186,177 178,210.10000000000002" stroke="none" /><polygon fill="#aaa89e" points="186,177 186,210.10000000000002 178,210.10000000000002" stroke="none" /><polygon fill="#e2e2d8" points="186,177 194,177 186,210.10000000000002" stroke="none" /><polygon fill="#e2e2d8" points="194,177 194,210.10000000000002 186,210.10000000000002" stroke="none" /><polygon fill="#f5d040" points="178,210.10000000000002 186,210.10000000000002 175,330" stroke="none" /><polygon fill="#f5d040" points="186,210.10000000000002 186,330 175,330" stroke="none" /><polygon fill="#f5d040" points="186,210.10000000000002 194,210.10000000000002 186,330" stroke="none" /><polygon fill="#f5d040" points="194,210.10000000000002 187,330 186,330" stroke="none" /><line stroke="#aaa89e" stroke-width="2" x1="192" x2="210" y1="179" y2="179" /><ellipse cx="207" cy="240" fill="white" fill-opacity="0.12" rx="3" ry="2" stroke="none" /><ellipse cx="205" cy="248" fill="white" fill-opacity="0.12" rx="3" ry="2" stroke="none" /><ellipse cx="201" cy="275" fill="white" fill-opacity="0.12" rx="3" ry="2" stroke="none" /><polygon fill="#c8c8be" points="303,112 311,112 330,176" stroke="none" /><polygon fill="#c8c8be" points="311,112 338,176 330,176" stroke="none" /><polygon fill="#e2e2d8" points="311,112 319,112 338,176" stroke="none" /><polygon fill="#e2e2d8" points="319,112 346,176 338,176" stroke="none" /><polygon fill="#aaa89e" points="330,176 338,176 330,209.2" stroke="none" /><polygon fill="#aaa89e" points="338,176 338,209.2 330,209.2" stroke="none" /><polygon fill="#e2e2d8" points="338,176 346,176 338,209.2" stroke="none" /><polygon fill="#e2e2d8" points="346,176 346,209.2 338,209.2" stroke="none" /><polygon fill="#f5d040" points="330,209.2 338,209.2 337,328" stroke="none" /><polygon fill="#f5d040" points="338,209.2 338,328 337,328" stroke="none" /><polygon fill="#f5d040" points="338,209.2 346,209.2 338,328" stroke="none" /><polygon fill="#f5d040" points="346,209.2 349,328 338,328" stroke="none" /><line stroke="#aaa89e" stroke-width="2" x1="302" x2="320" y1="178" y2="178" /><ellipse cx="312" cy="277" fill="white" fill-opacity="0.12" rx="3" ry="2" stroke="none" /><ellipse cx="311" cy="245" fill="white" fill-opacity="0.12" rx="3" ry="2" stroke="none" /></svg>