<?xml version="1.0" encoding="utf-8" ?>
<svg baseProfile="full" height="512" version="1.1" width="512" xmlns="http://www.w3.org/2000/svg" xmlns:ev="http://www.w3.org/2001/xml-events" xmlns:xlink="http://www.w3.org/1999/xlink"><defs /><polygon fill="#c8c8be" points="245,80 250,80 164,112" stroke="none" /><polygon fill="#c8c8be" points="250,80 189,112 164,112" stroke="none" /><polygon fill="#e2e2d8" points="250,80 255,80 189,112" stroke="none" /><polygon fill="#e2e2d8" points="255,80 255,112 189,112" stroke="none" /><polygon fill="#f2f2ec" points="255,80 262,80 255,112" stroke="none" /><polygon fill="#e2e2d8" points="262,80 319,112 255,112" stroke="none" /><polygon fill="#e2e2d8" points="262,80 269,80 319,112" stroke="none" /><polygon fill="#c8c8be" points="269,80 346,112 319,112" stroke="none" /><polygon fill="#c8c8be" points="164,112 189,112 176,155" stroke="none" /><polygon fill="#c8c8be" points="189,112 217,155 176,155" stroke="none" /><polygon fill="#c8c8be" points="189,112 255,112 217,155" stroke="none" /><polygon fill="#f2f2ec" points="255,112 256,155 217,155" stroke="none" /><polygon fill="#e2e2d8" points="255,112 319,112 256,155" stroke="none" /><polygon fill="#c8c8be" points="319,112 296,155 256,155" stroke="none" /><polygon fill="#c8c8be" points="319,112 346,112 296,155" stroke="none" /><polygon fill="#c8c8be" points="346,112 333,155 296,155" stroke="none" /><polygon fill="#aaa89e" points="176,155 217,155 209,200" stroke="none" /><polygon fill="#aaa89e" points="217,155 237,200 209,200" stroke="none" /><polygon fill="#f2f2ec" points="217,155 256,155 237,200" stroke="none" /><polygon fill="#f2f2ec" points="256,155 256,200 237,200" stroke="none" /><polygon fill="#f2f2ec" points="256,155 296,155 256,200" stroke="none" /><polygon fill="#e2e2d8" points="296,155 280,200 256,200" stroke="none" /><polygon fill="#aaa89e" points="296,155 333,155 280,200" stroke="none" /><polygon fill="#aaa89e" points="333,155 305,200 280,200" stroke="none" /><polygon fill="#c8c8be" points="209,200 237,200 200,300" stroke="none" /><polygon fill="#e2e2d8" points="237,200 240,300 200,300" stroke="none" /><polygon fill="#f2f2ec" points="237,200 256,200 240,300" stroke="none" /><polygon fill="#f2f2ec" points="256,200 253,300 240,300" stroke="none" /><polygon fill="#f2f2ec" points="256,200 280,200 253,300" stroke="none" /><polygon fill="#f2f2ec" points="280,200 276,300 253,300" stroke="none" /><polygon fill="#c8c8be" points="280,200 305,200 276,300" stroke="none" /><polygon fill="#c8c8be" points="305,200 309,300 276,300" stroke="none" /><polygon fill="#c8c8be" points="200,300 240,300 204,370" stroke="none" /><polygon fill="#e2e2d8" points="240,300 239,370 204,370" stroke="none" /><polygon fill="#f2f2ec" points="240,300 253,300 239,370" stroke="none" /><polygon fill="#f2f2ec" points="253,300 258,370 239,370" stroke="none" /><polygon fill="#f2f2ec" points="253,300 276,300 258,370" stroke="none" /><polygon fill="#f2f2ec" points="276,300 270,370 258,370" stroke="none" /><polygon fill="#e2e2d8" points="276,300 309,300 270,370" stroke="none" /><polygon fill="#c8c8be" points="309,300 309,370 270,370" stroke="none" /><polygon fill="#c8c8be" points="204,370 239,370 201,430" stroke="none" /><polygon fill="#e2e2d8" points="239,370 240,430 201,430" stroke="none" /><polygon fill="#f2f2ec" points="239,370 258,370 240,430" stroke="none" /><polygon fill="#f2f2ec" points="258,370 257,430 240,430" stroke="none" /><polygon fill="#f2f2ec" points="258,370 270,370 257,430" stroke="none" /><polygon fill="#f2f2ec" points="270,370 271,430 257,430" stroke="none" /><polygon fill="#e2e2d8" points="270,370 309,370 271,430" stroke="none" /><polygon fill="#c8c8be" points="309,370 313,430 271,430" stroke="none" /><polygon fill="#c8c8be" points="240,95 256,110 272,95" stroke="#999" stroke-width="1.5" /><circle cx="256" cy="135" fill="#ddd" r="3" stroke="#999" stroke-width="1" /><circle cx="256" cy="165" fill="#ddd" r="3" stroke="#999" stroke-width="1" /><circle cx="256" cy="195" fill="#ddd" r="3" stroke="#999" stroke-width="1" /><rect fill="#e2e2d8" height="11" stroke="#aaa89e" stroke-width="1.5" width="12" x="229" y="145" /><line stroke="#aaa89e" stroke-width="2" x1="228" x2="284" y1="420" y2="420" /><path d="M 223 152 Q 237 166 251 152" fill="none" stroke="#aaa89e" stroke-width="1.5" /><path d="M 261 152 Q 275 166 289 152" fill="none" stroke="#aaa89e" stroke-width="1.5" /><line stroke="#aaa89e" stroke-width="1.2" x1="244" x2="226" y1="215" y2="215" /><line stroke="#aaa89e" stroke-width="1.2" x1="268" x2="286" y1="215" y2="215" /><line stroke="#aaa89e" stroke-width="1.2" x1="244" x2="226" y1="240" y2="240" /><line stroke="#aaa89e" stroke-width="1.2" x1="268" x2="286" y1="240" y2="240" /><line stroke="#aaa89e" stroke-width="1.2" x1="244" x2="226" y1="265" y2="265" /><line stroke="#aaa89e" stroke-width="1.2" x1="268" x2="286" y1="265" y2="265" /><line stroke="#aaa89e" stroke-width="1.2" x1="244" x2="226" y1="290" y2="290" /><line stroke="#aaa89e" stroke-width="1.2" x1="268" x2="286" y1="290" y2="290" /><path d="M 240 260 Q 256 278 272 260" fill="none" stroke="#aaa89e" stroke-width="1.5" /><path d="M 219 165 Q 231 186 243 165" fill="none" stroke="#aaa89e" stroke-width="1.5" /><path d="M 269 165 Q 281 186 293 165" fill="none" stroke="#aaa89e" stroke-width="1.5" /><polygon fill="#c8c8be" points="160,112 168,112 125,178" stroke="none" /><polygon fill="#c8c8be" points="168,112 168,178 125,178" stroke="none" /><polygon fill="#e2e2d8" points="168,112 176,112 168,178" stroke="none" /><polygon fill="#e2e2d8" points="176,112 211,178 168,178" stroke="none" /><polygon fill="#aaa89e" points="125,178 168,178 125,211.0" stroke="none" /><polygon fill="#aaa89e" points="168,178 168,211.0 125,211.0" stroke="none" /><polygon fill="#e2e2d8" points="168,178 211,178 168,211.0" stroke="none" /><polygon fill="#e2e2d8" points="211,178 211,211.0 168,211.0" stroke="none" /><polygon fill="#f3ca24" points="125,211.0 168,211.0 140,332" stroke="none" /><polygon fill="#f3ca24" points="168,211.0 168,332 140,332" stroke="none" /><polygon fill="#f3ca24" points="168,211.0 211,211.0 168,332" stroke="none" /><polygon fill="#f3ca24" points="211,211.0 196,332 168,332" stroke="none" /><line stroke="#aaa89e" stroke-width="2" x1="130" x2="206" y1="180" y2="180" /><polygon fill="#c8c8be" points="336,112 344,112 301,178" stroke="none" /><polygon fill="#c8c8be" points="344,112 344,178 301,178" stroke="none" /><polygon fill="#e2e2d8" points="344,112 352,112 344,178" stroke="none" /><polygon fill="#e2e2d8" points="352,112 387,178 344,178" stroke="none" /><polygon fill="#aaa89e" points="301,178 344,178 301,211.9" stroke="none" /><polygon fill="#aaa89e" points="344,178 344,211.9 301,211.9" stroke="none" /><polygon fill="#e2e2d8" points="344,178 387,178 344,211.9" stroke="none" /><polygon fill="#e2e2d8" points="387,178 387,211.9 344,211.9" stroke="none" /><polygon fill="#f3ca24" points="301,211.9 344,211.9 316,334" stroke="none" /><polygon fill="#f3ca24" points="344,211.9 344,334 316,334" stroke="none" /><polygon fill="#f3ca24" points="344,211.9 387,211.9 344,334" stroke="none" /><polygon fill="#f3ca24" points="387,211.9 372,334 344,334" stroke="none" /><line stroke="#aaa89e" stroke-width="2" x1="306" x2="382" y1="180" y2="180" /></svg>