<?xml version="1.0" encoding="utf-8" ?>
<svg baseProfile="full" height="512" version="1.1" width="512" xmlns="http://www.w3.org/2000/svg" xmlns:ev="http://www.w3.org/2001/xml-events" xmlns:xlink="http://www.w3.org/1999/xlink"><defs /><polygon fill="#e2e2d8" points="245,80 249,80 172,112" stroke="none" /><polygon fill="#c8c8be" points="249,80 198,112 172,112" stroke="none" /><polygon fill="#f2f2ec" points="249,80 257,80 198,112" stroke="none" /><polygon fill="#f2f2ec" points="257,80 259,112 198,112" stroke="none" /><polygon fill="#f2f2ec" points="257,80 262,80 259,112" stroke="none" /><polygon fill="#e2e2d8" points="262,80 313,112 259,112" stroke="none" /><polygon fill="#e2e2d8" points="262,80 267,80 313,112" stroke="none" /><polygon fill="#c8c8be" points="267,80 340,112 313,112" stroke="none" /><polygon fill="#c8c8be" points="172,112 198,112 187,155" stroke="none" /><polygon fill="#c8c8be" points="198,112 216,155 187,155" stroke="none" /><polygon fill="#e2e2d8" points="198,112 259,112 216,155" stroke="none" /><polygon fill="#f2f2ec" points="259,112 258,155 216,155" stroke="none" /><polygon fill="#f2f2ec" points="259,112 313,112 258,155" stroke="none" /><polygon fill="#e2e2d8" points="313,112 292,155 258,155" stroke="none" /><polygon fill="#c8c8be" points="313,112 340,112 292,155" stroke="none" /><polygon fill="#c8c8be" points="340,112 325,155 292,155" stroke="none" /><polygon fill="#aaa89e" points="187,155 216,155 198,200" stroke="none" /><polygon fill="#aaa89e" points="216,155 229,200 198,200" stroke="none" /><polygon fill="#e2e2d8" points="216,155 258,155 229,200" stroke="none" /><polygon fill="#f2f2ec" points="258,155 259,200 229,200" stroke="none" /><polygon fill="#f2f2ec" points="258,155 292,155 259,200" stroke="none" /><polygon fill="#e2e2d8" points="292,155 283,200 259,200" stroke="none" /><polygon fill="#aaa89e" points="292,155 325,155 283,200" stroke="none" /><polygon fill="#aaa89e" points="325,155 313,200 283,200" stroke="none" /><polygon fill="#c8c8be" points="198,200 229,200 200,300" stroke="none" /><polygon fill="#c8c8be" points="229,200 234,300 200,300" stroke="none" /><polygon fill="#f2f2ec" points="229,200 259,200 234,300" stroke="none" /><polygon fill="#f2f2ec" points="259,200 253,300 234,300" stroke="none" /><polygon fill="#f2f2ec" points="259,200 283,200 253,300" stroke="none" /><polygon fill="#f2f2ec" points="283,200 279,300 253,300" stroke="none" /><polygon fill="#c8c8be" points="283,200 313,200 279,300" stroke="none" /><polygon fill="#c8c8be" points="313,200 313,300 279,300" stroke="none" /><polygon fill="#c8c8be" points="200,300 234,300 203,370" stroke="none" /><polygon fill="#e2e2d8" points="234,300 238,370 203,370" stroke="none" /><polygon fill="#f2f2ec" points="234,300 253,300 238,370" stroke="none" /><polygon fill="#f2f2ec" points="253,300 256,370 238,370" stroke="none" /><polygon fill="#f2f2ec" points="253,300 279,300 256,370" stroke="none" /><polygon fill="#f2f2ec" points="279,300 277,370 256,370" stroke="none" /><polygon fill="#e2e2d8" points="279,300 313,300 277,370" stroke="none" /><polygon fill="#c8c8be" points="313,300 308,370 277,370" stroke="none" /><polygon fill="#c8c8be" points="203,370 238,370 193,430" stroke="none" /><polygon fill="#e2e2d8" points="238,370 238,430 193,430" stroke="none" /><polygon fill="#f2f2ec" points="238,370 256,370 238,430" stroke="none" /><polygon fill="#f2f2ec" points="256,370 256,430 238,430" stroke="none" /><polygon fill="#f2f2ec" points="256,370 277,370 256,430" stroke="none" /><polygon fill="#f2f2ec" points="277,370 273,430 256,430" stroke="none" /><polygon fill="#e2e2d8" points="277,370 308,370 273,430" stroke="none" /><polygon fill="#c8c8be" points="308,370 318,430 273,430" stroke="none" /><polygon fill="#c8c8be" points="241,95 256,110 271,95" stroke="#999" stroke-width="1.5" /><circle cx="256" cy="135" fill="#ddd" r="3" stroke="#999" stroke-width="1" /><circle cx="256" cy="165" fill="#ddd" r="3" stroke="#999" stroke-width="1" /><circle cx="256" cy="195" fill="#ddd" r="3" stroke="#999" stroke-width="1" /><rect fill="#e2e2d8" height="10" stroke="#aaa89e" stroke-width="1.5" width="11" x="231" y="145" /><line stroke="#aaa89e" stroke-width="2" x1="225" x2="287" y1="420" y2="420" /><path d="M 238 260 Q 256 278 274 260" fill="none" stroke="#aaa89e" stroke-width="1.5" /><path d="M 217 165 Q 229 186 241 165" fill="none" stroke="#aaa89e" stroke-width="1.5" /><path d="M 271 165 Q 283 186 295 165" fill="none" stroke="#aaa89e" stroke-width="1.5" /><polygon fill="#c8c8be" points="167,112 175,112 147,173" stroke="none" /><polygon fill="#c8c8be" points="175,112 175,173 147,173" stroke="none" /><polygon fill="#e2e2d8" points="175,112 183,112 175,173" stroke="none" /><polygon fill="#e2e2d8" points="183,112 203,173 175,173" stroke="none" /><polygon fill="#aaa89e" points="147,173 175,173 147,204.7" stroke="none" /><polygon fill="#aaa89e" points="175,173 175,204.7 147,204.7" stroke="none" /><polygon fill="#e2e2d8" points="175,173 203,173 175,204.7" stroke="none" /><polygon fill="#e2e2d8" points="203,173 203,204.7 175,204.7" stroke="none" /><polygon fill="#f5cd30" points="147,204.7 175,204.7 156,318" stroke="none" /><polygon fill="#f5cd30" points="175,204.7 175,318 156,318" stroke="none" /><polygon fill="#f5cd30" points="175,204.7 203,204.7 175,318" stroke="none" /><polygon fill="#f5cd30" points="203,204.7 194,318 175,318" stroke="none" /><line stroke="#aaa89e" stroke-width="2" x1="150" x2="200" y1="175" y2="175" /><circle cx="182" cy="197" fill="#d4a520" fill-opacity="0.15" r="1.4801809787425366" stroke="none" /><circle cx="161" cy="234" fill="#d4a520" fill-opacity="0.15" r="0.6958780255004285" stroke="none" /><circle cx="168" cy="201" fill="#d4a520" fill-opacity="0.15" r="0.8385835335944484" stroke="none" /><circle cx="186" cy="311" fill="#d4a520" fill-opacity="0.15" r="0.9793598517733548" stroke="none" /><circle cx="159" cy="307" fill="#d4a520" fill-opacity="0.15" r="1.2634475687507325" stroke="none" /><circle cx="183" cy="218" fill="#d4a520" fill-opacity="0.15" r="0.7681123745375757" stroke="none" /><circle cx="156" cy="232" fill="#d4a520" fill-opacity="0.15" r="0.9623362070736334" stroke="none" /><circle cx="168" cy="201" fill="#d4a520" fill-opacity="0.15" r="1.3338298775272595" stroke="none" /><circle cx="181" cy="289" fill="#d4a520" fill-opacity="0.15" r="0.8690899366317321" stroke="none" /><circle cx="163" cy="296" fill="#d4a520" fill-opacity="0.15" r="0.7540611544669" stroke="none" /><polygon fill="#c8c8be" points="329,112 337,112 309,172" stroke="none" /><polygon fill="#c8c8be" points="337,112 337,172 309,172" stroke="none" /><polygon fill="#e2e2d8" points="337,112 345,112 337,172" stroke="none" /><polygon fill="#e2e2d8" points="345,112 365,172 337,172" stroke="none" /><polygon fill="#aaa89e" points="309,172 337,172 309,202.0" stroke="none" /><polygon fill="#aaa89e" points="337,172 337,202.0 309,202.0" stroke="none" /><polygon fill="#e2e2d8" points="337,172 365,172 337,202.0" stroke="none" /><polygon fill="#e2e2d8" points="365,172 365,202.0 337,202.0" stroke="none" /><polygon fill="#f5cd30" points="309,202.0 337,202.0 318,312" stroke="none" /><polygon fill="#f5cd30" points="337,202.0 337,312 318,312" stroke="none" /><polygon fill="#f5cd30" points="337,202.0 365,202.0 337,312" stroke="none" /><polygon fill="#f5cd30" points="365,202.0 356,312 337,312" stroke="none" /><line stroke="#aaa89e" stroke-width="2" x1="312" x2="362" y1="174" y2="174" /><circle cx="352" cy="280" fill="#d4a520" fill-opacity="0.15" r="0.9595597846472695" stroke="none" /><circle cx="320" cy="220" fill="#d4a520" fill-opacity="0.15" r="0.5311424715406021" stroke="none" /><circle cx="353" cy="204" fill="#d4a520" fill-opacity="0.15" r="1.3588137504833129" stroke="none" /><circle cx="347" cy="196" fill="#d4a520" fill-opacity="0.15" r="0.6471669262945888" stroke="none" /><circle cx="335" cy="284" fill="#d4a520" fill-opacity="0.15" r="0.565839735325185" stroke="none" /><circle cx="316" cy="299" fill="#d4a520" fill-opacity="0.15" r="1.386387082744578" stroke="none" /><circle cx="344" cy="253" fill="#d4a520" fill-opacity="0.15" r="1.0500094209157376" stroke="none" /><circle cx="343" cy="290" fill="#d4a520" fill-opacity="0.15" r="0.6744390866049521" stroke="none" /><circle cx="340" cy="219" fill="#d4a520" fill-opacity="0.15" r="1.4915896378620315" stroke="none" /></svg>