<?xml version="1.0" encoding="utf-8" ?>
<svg baseProfile="full" height="512" version="1.1" width="512" xmlns="http://www.w3.org/2000/svg" xmlns:ev="http://www.w3.org/2001/xml-events" xmlns:xlink="http://www.w3.org/1999/xlink"><defs /><polygon fill="#c8c8be" points="245,80 251,80 161,112" stroke="none" /><polygon fill="#c8c8be" points="251,80 191,112 161,112" stroke="none" /><polygon fill="#e2e2d8" points="251,80 257,80 191,112" stroke="none" /><polygon fill="#e2e2d8" points="257,80 253,112 191,112" stroke="none" /><polygon fill="#f2f2ec" points="257,80 263,80 253,112" stroke="none" /><polygon fill="#e2e2d8" points="263,80 321,112 253,112" stroke="none" /><polygon fill="#c8c8be" points="263,80 267,80 321,112" stroke="none" /><polygon fill="#c8c8be" points="267,80 356,112 321,112" stroke="none" /><polygon fill="#c8c8be" points="161,112 191,112 175,155" stroke="none" /><polygon fill="#c8c8be" points="191,112 214,155 175,155" stroke="none" /><polygon fill="#c8c8be" points="191,112 253,112 214,155" stroke="none" /><polygon fill="#f2f2ec" points="253,112 254,155 214,155" stroke="none" /><polygon fill="#e2e2d8" points="253,112 321,112 254,155" stroke="none" /><polygon fill="#c8c8be" points="321,112 299,155 254,155" stroke="none" /><polygon fill="#c8c8be" points="321,112 356,112 299,155" stroke="none" /><polygon fill="#c8c8be" points="356,112 337,155 299,155" stroke="none" /><polygon fill="#c8c8be" points="175,155 214,155 212,200" stroke="none" /><polygon fill="#c8c8be" points="214,155 238,200 212,200" stroke="none" /><polygon fill="#e2e2d8" points="214,155 254,155 238,200" stroke="none" /><polygon fill="#f2f2ec" points="254,155 257,200 238,200" stroke="none" /><polygon fill="#f2f2ec" points="254,155 299,155 257,200" stroke="none" /><polygon fill="#e2e2d8" points="299,155 275,200 257,200" stroke="none" /><polygon fill="#c8c8be" points="299,155 337,155 275,200" stroke="none" /><polygon fill="#c8c8be" points="337,155 302,200 275,200" stroke="none" /><polygon fill="#c8c8be" points="212,200 238,200 206,300" stroke="none" /><polygon fill="#c8c8be" points="238,200 239,300 206,300" stroke="none" /><polygon fill="#f2f2ec" points="238,200 257,200 239,300" stroke="none" /><polygon fill="#f2f2ec" points="257,200 253,300 239,300" stroke="none" /><polygon fill="#f2f2ec" points="257,200 275,200 253,300" stroke="none" /><polygon fill="#f2f2ec" points="275,200 273,300 253,300" stroke="none" /><polygon fill="#e2e2d8" points="275,200 302,200 273,300" stroke="none" /><polygon fill="#c8c8be" points="302,200 300,300 273,300" stroke="none" /><polygon fill="#c8c8be" points="206,300 239,300 208,370" stroke="none" /><polygon fill="#e2e2d8" points="239,300 240,370 208,370" stroke="none" /><polygon fill="#f2f2ec" points="239,300 253,300 240,370" stroke="none" /><polygon fill="#f2f2ec" points="253,300 258,370 240,370" stroke="none" /><polygon fill="#f2f2ec" points="253,300 273,300 258,370" stroke="none" /><polygon fill="#f2f2ec" points="273,300 274,370 258,370" stroke="none" /><polygon fill="#e2e2d8" points="273,300 300,300 274,370" stroke="none" /><polygon fill="#c8c8be" points="300,300 299,370 274,370" stroke="none" /><polygon fill="#c8c8be" points="208,370 240,370 205,430" stroke="none" /><polygon fill="#e2e2d8" points="240,370 241,430 205,430" stroke="none" /><polygon fill="#f2f2ec" points="240,370 258,370 241,430" stroke="none" /><polygon fill="#f2f2ec" points="258,370 257,430 241,430" stroke="none" /><polygon fill="#f2f2ec" points="258,370 274,370 257,430" stroke="none" /><polygon fill="#f2f2ec" points="274,370 271,430 257,430" stroke="none" /><polygon fill="#e2e2d8" points="274,370 299,370 271,430" stroke="none" /><polygon fill="#c8c8be" points="299,370 305,430 271,430" stroke="none" /><polygon fill="#c8c8be" points="239,95 256,110 273,95" stroke="#999" stroke-width="1.5" /><circle cx="256" cy="135" fill="#ddd" r="3" stroke="#999" stroke-width="1" /><circle cx="256" cy="165" fill="#ddd" r="3" stroke="#999" stroke-width="1" /><circle cx="256" cy="195" fill="#ddd" r="3" stroke="#999" stroke-width="1" /><rect fill="#e2e2d8" height="11" stroke="#aaa89e" stroke-width="1.5" width="13" x="227" y="145" /><line stroke="#aaa89e" stroke-width="2" x1="231" x2="281" y1="420" y2="420" /><path d="M 225 152 Q 239 166 253 152" fill="none" stroke="#aaa89e" stroke-width="1.5" /><path d="M 259 152 Q 273 166 287 152" fill="none" stroke="#aaa89e" stroke-width="1.5" /><line stroke="#aaa89e" stroke-width="1.2" x1="244" x2="226" y1="215" y2="215" /><line stroke="#aaa89e" stroke-width="1.2" x1="268" x2="286" y1="215" y2="215" /><line stroke="#aaa89e" stroke-width="1.2" x1="244" x2="226" y1="240" y2="240" /><line stroke="#aaa89e" stroke-width="1.2" x1="268" x2="286" y1="240" y2="240" /><line stroke="#aaa89e" stroke-width="1.2" x1="244" x2="226" y1="265" y2="265" /><line stroke="#aaa89e" stroke-width="1.2" x1="268" x2="286" y1="265" y2="265" /><line stroke="#aaa89e" stroke-width="1.2" x1="244" x2="226" y1="290" y2="290" /><line stroke="#aaa89e" stroke-width="1.2" x1="268" x2="286" y1="290" y2="290" /><polygon fill="#c8c8be" points="154,112 162,112 126,165" stroke="none" /><polygon fill="#c8c8be" points="162,112 162,165 126,165" stroke="none" /><polygon fill="#e2e2d8" points="162,112 170,112 162,165" stroke="none" /><polygon fill="#e2e2d8" points="170,112 198,165 162,165" stroke="none" /><polygon fill="#aaa89e" points="126,165 162,165 126,191.65" stroke="none" /><polygon fill="#aaa89e" points="162,165 162,191.65 126,191.65" stroke="none" /><polygon fill="#e2e2d8" points="162,165 198,165 162,191.65" stroke="none" /><polygon fill="#e2e2d8" points="198,165 198,191.65 162,191.65" stroke="none" /><polygon fill="#f5d040" points="126,191.65 162,191.65 138,289" stroke="none" /><polygon fill="#f5d040" points="162,191.65 162,289 138,289" stroke="none" /><polygon fill="#f5d040" points="162,191.65 198,191.65 162,289" stroke="none" /><polygon fill="#f5d040" points="198,191.65 186,289 162,289" stroke="none" /><line stroke="#aaa89e" stroke-width="2" x1="130" x2="194" y1="167" y2="167" /><ellipse cx="174" cy="276" fill="white" fill-opacity="0.12" rx="3" ry="2" stroke="none" /><ellipse cx="172" cy="272" fill="white" fill-opacity="0.12" rx="3" ry="2" stroke="none" /><polygon fill="#c8c8be" points="342,112 350,112 314,169" stroke="none" /><polygon fill="#c8c8be" points="350,112 350,169 314,169" stroke="none" /><polygon fill="#e2e2d8" points="350,112 358,112 350,169" stroke="none" /><polygon fill="#e2e2d8" points="358,112 386,169 350,169" stroke="none" /><polygon fill="#aaa89e" points="314,169 350,169 314,197.95" stroke="none" /><polygon fill="#aaa89e" points="350,169 350,197.95 314,197.95" stroke="none" /><polygon fill="#e2e2d8" points="350,169 386,169 350,197.95" stroke="none" /><polygon fill="#e2e2d8" points="386,169 386,197.95 350,197.95" stroke="none" /><polygon fill="#f5d040" points="314,197.95 350,197.95 326,303" stroke="none" /><polygon fill="#f5d040" points="350,197.95 350,303 326,303" stroke="none" /><polygon fill="#f5d040" points="350,197.95 386,197.95 350,303" stroke="none" /><polygon fill="#f5d040" points="386,197.95 374,303 350,303" stroke="none" /><line stroke="#aaa89e" stroke-width="2" x1="318" x2="382" y1="171" y2="171" /><ellipse cx="339" cy="208" fill="white" fill-opacity="0.12" rx="3" ry="2" stroke="none" /><ellipse cx="352" cy="246" fill="white" fill-opacity="0.12" rx="3" ry="2" stroke="none" /><ellipse cx="364" cy="191" fill="white" fill-opacity="0.12" rx="3" ry="2" stroke="none" /><ellipse cx="339" cy="211" fill="white" fill-opacity="0.12" rx="3" ry="2" stroke="none" /></svg>