<?xml version="1.0" encoding="utf-8" ?>
<svg baseProfile="full" height="512" version="1.1" width="512" xmlns="http://www.w3.org/2000/svg" xmlns:ev="http://www.w3.org/2001/xml-events" xmlns:xlink="http://www.w3.org/1999/xlink"><defs /><polygon fill="#c8c8be" points="245,80 251,80 128,112" stroke="none" /><polygon fill="#c8c8be" points="251,80 170,112 128,112" stroke="none" /><polygon fill="#e2e2d8" points="251,80 255,80 170,112" stroke="none" /><polygon fill="#e2e2d8" points="255,80 257,112 170,112" stroke="none" /><polygon fill="#f2f2ec" points="255,80 262,80 257,112" stroke="none" /><polygon fill="#e2e2d8" points="262,80 342,112 257,112" stroke="none" /><polygon fill="#e2e2d8" points="262,80 268,80 342,112" stroke="none" /><polygon fill="#c8c8be" points="268,80 382,112 342,112" stroke="none" /><polygon fill="#c8c8be" points="128,112 170,112 151,155" stroke="none" /><polygon fill="#c8c8be" points="170,112 202,155 151,155" stroke="none" /><polygon fill="#c8c8be" points="170,112 257,112 202,155" stroke="none" /><polygon fill="#f2f2ec" points="257,112 258,155 202,155" stroke="none" /><polygon fill="#e2e2d8" points="257,112 342,112 258,155" stroke="none" /><polygon fill="#c8c8be" points="342,112 314,155 258,155" stroke="none" /><polygon fill="#c8c8be" points="342,112 382,112 314,155" stroke="none" /><polygon fill="#c8c8be" points="382,112 365,155 314,155" stroke="none" /><polygon fill="#c8c8be" points="151,155 202,155 195,200" stroke="none" /><polygon fill="#c8c8be" points="202,155 229,200 195,200" stroke="none" /><polygon fill="#e2e2d8" points="202,155 258,155 229,200" stroke="none" /><polygon fill="#f2f2ec" points="258,155 257,200 229,200" stroke="none" /><polygon fill="#f2f2ec" points="258,155 314,155 257,200" stroke="none" /><polygon fill="#e2e2d8" points="314,155 283,200 257,200" stroke="none" /><polygon fill="#c8c8be" points="314,155 365,155 283,200" stroke="none" /><polygon fill="#c8c8be" points="365,155 315,200 283,200" stroke="none" /><polygon fill="#c8c8be" points="195,200 229,200 191,300" stroke="none" /><polygon fill="#c8c8be" points="229,200 232,300 191,300" stroke="none" /><polygon fill="#f2f2ec" points="229,200 257,200 232,300" stroke="none" /><polygon fill="#f2f2ec" points="257,200 258,300 232,300" stroke="none" /><polygon fill="#f2f2ec" points="257,200 283,200 258,300" stroke="none" /><polygon fill="#f2f2ec" points="283,200 276,300 258,300" stroke="none" /><polygon fill="#e2e2d8" points="283,200 315,200 276,300" stroke="none" /><polygon fill="#c8c8be" points="315,200 321,300 276,300" stroke="none" /><polygon fill="#c8c8be" points="191,300 232,300 195,370" stroke="none" /><polygon fill="#e2e2d8" points="232,300 238,370 195,370" stroke="none" /><polygon fill="#f2f2ec" points="232,300 258,300 238,370" stroke="none" /><polygon fill="#f2f2ec" points="258,300 254,370 238,370" stroke="none" /><polygon fill="#f2f2ec" points="258,300 276,300 254,370" stroke="none" /><polygon fill="#f2f2ec" points="276,300 277,370 254,370" stroke="none" /><polygon fill="#e2e2d8" points="276,300 321,300 277,370" stroke="none" /><polygon fill="#c8c8be" points="321,300 318,370 277,370" stroke="none" /><polygon fill="#c8c8be" points="195,370 238,370 189,430" stroke="none" /><polygon fill="#e2e2d8" points="238,370 237,430 189,430" stroke="none" /><polygon fill="#f2f2ec" points="238,370 254,370 237,430" stroke="none" /><polygon fill="#f2f2ec" points="254,370 255,430 237,430" stroke="none" /><polygon fill="#f2f2ec" points="254,370 277,370 255,430" stroke="none" /><polygon fill="#f2f2ec" points="277,370 275,430 255,430" stroke="none" /><polygon fill="#e2e2d8" points="277,370 318,370 275,430" stroke="none" /><polygon fill="#c8c8be" points="318,370 324,430 275,430" stroke="none" /><polygon fill="#c8c8be" points="234,95 256,110 278,95" stroke="#999" stroke-width="1.5" /><circle cx="256" cy="135" fill="#ddd" r="3" stroke="#999" stroke-width="1" /><circle cx="256" cy="165" fill="#ddd" r="3" stroke="#999" stroke-width="1" /><circle cx="256" cy="195" fill="#ddd" r="3" stroke="#999" stroke-width="1" /><rect fill="#e2e2d8" height="15" stroke="#aaa89e" stroke-width="1.5" width="17" x="219" y="145" /><line stroke="#aaa89e" stroke-width="2" x1="223" x2="289" y1="420" y2="420" /><path d="M 219 152 Q 233 166 247 152" fill="none" stroke="#aaa89e" stroke-width="1.5" /><path d="M 265 152 Q 279 166 293 152" fill="none" stroke="#aaa89e" stroke-width="1.5" /><line stroke="#aaa89e" stroke-width="1.2" x1="244" x2="226" y1="215" y2="215" /><line stroke="#aaa89e" stroke-width="1.2" x1="268" x2="286" y1="215" y2="215" /><line stroke="#aaa89e" stroke-width="1.2" x1="244" x2="226" y1="240" y2="240" /><line stroke="#aaa89e" stroke-width="1.2" x1="268" x2="286" y1="240" y2="240" /><line stroke="#aaa89e" stroke-width="1.2" x1="244" x2="226" y1="265" y2="265" /><line stroke="#aaa89e" stroke-width="1.2" x1="268" x2="286" y1="265" y2="265" /><line stroke="#aaa89e" stroke-width="1.2" x1="244" x2="226" y1="290" y2="290" /><line stroke="#aaa89e" stroke-width="1.2" x1="268" x2="286" y1="290" y2="290" /><polygon fill="#c8c8be" points="127,112 135,112 67,172" stroke="none" /><polygon fill="#c8c8be" points="135,112 100,172 67,172" stroke="none" /><polygon fill="#e2e2d8" points="135,112 143,112 100,172" stroke="none" /><polygon fill="#e2e2d8" points="143,112 133,172 100,172" stroke="none" /><polygon fill="#aaa89e" points="67,172 100,172 67,203.35000000000002" stroke="none" /><polygon fill="#aaa89e" points="100,172 100,203.35000000000002 67,203.35000000000002" stroke="none" /><polygon fill="#e2e2d8" points="100,172 133,172 100,203.35000000000002" stroke="none" /><polygon fill="#e2e2d8" points="133,172 133,203.35000000000002 100,203.35000000000002" stroke="none" /><polygon fill="#f5ce2e" points="67,203.35000000000002 100,203.35000000000002 71,315" stroke="none" /><polygon fill="#f5ce2e" points="100,203.35000000000002 100,315 71,315" stroke="none" /><polygon fill="#f5ce2e" points="100,203.35000000000002 133,203.35000000000002 100,315" stroke="none" /><polygon fill="#f5ce2e" points="133,203.35000000000002 119,315 100,315" stroke="none" /><line stroke="#aaa89e" stroke-width="2" x1="97" x2="173" y1="174" y2="174" /><circle cx="165" cy="277" fill="#d4a41e" fill-opacity="0.15" r="1.3572083436125197" stroke="none" /><circle cx="172" cy="197" fill="#d4a41e" fill-opacity="0.15" r="0.8069367232766119" stroke="none" /><circle cx="152" cy="218" fill="#d4a41e" fill-opacity="0.15" r="0.8087970797633929" stroke="none" /><circle cx="131" cy="280" fill="#d4a41e" fill-opacity="0.15" r="0.9970303619330225" stroke="none" /><circle cx="125" cy="288" fill="#d4a41e" fill-opacity="0.15" r="0.5035605800671202" stroke="none" /><circle cx="117" cy="268" fill="#d4a41e" fill-opacity="0.15" r="0.5251868222484843" stroke="none" /><circle cx="155" cy="222" fill="#d4a41e" fill-opacity="0.15" r="0.5942363506622915" stroke="none" /><circle cx="134" cy="232" fill="#d4a41e" fill-opacity="0.15" r="1.3747204294963762" stroke="none" /><circle cx="101" cy="274" fill="#d4a41e" fill-opacity="0.15" r="0.6966218527008032" stroke="none" /><polygon fill="#c8c8be" points="369,112 377,112 364,168" stroke="none" /><polygon fill="#c8c8be" points="377,112 397,168 364,168" stroke="none" /><polygon fill="#e2e2d8" points="377,112 385,112 397,168" stroke="none" /><polygon fill="#e2e2d8" points="385,112 430,168 397,168" stroke="none" /><polygon fill="#aaa89e" points="364,168 397,168 364,197.05" stroke="none" /><polygon fill="#aaa89e" points="397,168 397,197.05 364,197.05" stroke="none" /><polygon fill="#e2e2d8" points="397,168 430,168 397,197.05" stroke="none" /><polygon fill="#e2e2d8" points="430,168 430,197.05 397,197.05" stroke="none" /><polygon fill="#f5ce2e" points="364,197.05 397,197.05 378,301" stroke="none" /><polygon fill="#f5ce2e" points="397,197.05 397,301 378,301" stroke="none" /><polygon fill="#f5ce2e" points="397,197.05 430,197.05 397,301" stroke="none" /><polygon fill="#f5ce2e" points="430,197.05 426,301 397,301" stroke="none" /><line stroke="#aaa89e" stroke-width="2" x1="339" x2="415" y1="170" y2="170" /><circle cx="371" cy="186" fill="#d4a41e" fill-opacity="0.15" r="1.0129711545178735" stroke="none" /><circle cx="404" cy="202" fill="#d4a41e" fill-opacity="0.15" r="0.65300750288361" stroke="none" /><circle cx="386" cy="254" fill="#d4a41e" fill-opacity="0.15" r="1.254428853345688" stroke="none" /><circle cx="413" cy="219" fill="#d4a41e" fill-opacity="0.15" r="0.7415149072424265" stroke="none" /><circle cx="351" cy="225" fill="#d4a41e" fill-opacity="0.15" r="1.37767296255921" stroke="none" /></svg>