<?xml version="1.0" encoding="utf-8" ?>
<svg baseProfile="full" height="512" version="1.1" width="512" xmlns="http://www.w3.org/2000/svg" xmlns:ev="http://www.w3.org/2001/xml-events" xmlns:xlink="http://www.w3.org/1999/xlink"><defs /><polygon fill="#c8c8be" points="243,80 251,80 151,112" stroke="none" /><polygon fill="#c8c8be" points="251,80 182,112 151,112" stroke="none" /><polygon fill="#c8c8be" points="251,80 256,80 182,112" stroke="none" /><polygon fill="#e2e2d8" points="256,80 255,112 182,112" stroke="none" /><polygon fill="#f2f2ec" points="256,80 262,80 255,112" stroke="none" /><polygon fill="#e2e2d8" points="262,80 326,112 255,112" stroke="none" /><polygon fill="#c8c8be" points="262,80 269,80 326,112" stroke="none" /><polygon fill="#c8c8be" points="269,80 358,112 326,112" stroke="none" /><polygon fill="#c8c8be" points="151,112 182,112 169,155" stroke="none" /><polygon fill="#c8c8be" points="182,112 207,155 169,155" stroke="none" /><polygon fill="#c8c8be" points="182,112 255,112 207,155" stroke="none" /><polygon fill="#e2e2d8" points="255,112 253,155 207,155" stroke="none" /><polygon fill="#e2e2d8" points="255,112 326,112 253,155" stroke="none" /><polygon fill="#c8c8be" points="326,112 304,155 253,155" stroke="none" /><polygon fill="#c8c8be" points="326,112 358,112 304,155" stroke="none" /><polygon fill="#c8c8be" points="358,112 343,155 304,155" stroke="none" /><polygon fill="#c8c8be" points="169,155 207,155 213,200" stroke="none" /><polygon fill="#c8c8be" points="207,155 238,200 213,200" stroke="none" /><polygon fill="#e2e2d8" points="207,155 253,155 238,200" stroke="none" /><polygon fill="#f2f2ec" points="253,155 258,200 238,200" stroke="none" /><polygon fill="#f2f2ec" points="253,155 304,155 258,200" stroke="none" /><polygon fill="#e2e2d8" points="304,155 274,200 258,200" stroke="none" /><polygon fill="#c8c8be" points="304,155 343,155 274,200" stroke="none" /><polygon fill="#c8c8be" points="343,155 300,200 274,200" stroke="none" /><polygon fill="#c8c8be" points="213,200 238,200 212,300" stroke="none" /><polygon fill="#c8c8be" points="238,200 242,300 212,300" stroke="none" /><polygon fill="#f2f2ec" points="238,200 258,200 242,300" stroke="none" /><polygon fill="#f2f2ec" points="258,200 253,300 242,300" stroke="none" /><polygon fill="#f2f2ec" points="258,200 274,200 253,300" stroke="none" /><polygon fill="#f2f2ec" points="274,200 275,300 253,300" stroke="none" /><polygon fill="#c8c8be" points="274,200 300,200 275,300" stroke="none" /><polygon fill="#c8c8be" points="300,200 299,300 275,300" stroke="none" /><polygon fill="#c8c8be" points="212,300 242,300 215,370" stroke="none" /><polygon fill="#e2e2d8" points="242,300 244,370 215,370" stroke="none" /><polygon fill="#f2f2ec" points="242,300 253,300 244,370" stroke="none" /><polygon fill="#f2f2ec" points="253,300 254,370 244,370" stroke="none" /><polygon fill="#f2f2ec" points="253,300 275,300 254,370" stroke="none" /><polygon fill="#f2f2ec" points="275,300 271,370 254,370" stroke="none" /><polygon fill="#c8c8be" points="275,300 299,300 271,370" stroke="none" /><polygon fill="#c8c8be" points="299,300 295,370 271,370" stroke="none" /><polygon fill="#c8c8be" points="215,370 244,370 210,430" stroke="none" /><polygon fill="#e2e2d8" points="244,370 244,430 210,430" stroke="none" /><polygon fill="#f2f2ec" points="244,370 254,370 244,430" stroke="none" /><polygon fill="#f2f2ec" points="254,370 257,430 244,430" stroke="none" /><polygon fill="#f2f2ec" points="254,370 271,370 257,430" stroke="none" /><polygon fill="#f2f2ec" points="271,370 268,430 257,430" stroke="none" /><polygon fill="#e2e2d8" points="271,370 295,370 268,430" stroke="none" /><polygon fill="#c8c8be" points="295,370 303,430 268,430" stroke="none" /><polygon fill="#c8c8be" points="238,95 256,110 274,95" stroke="#999" stroke-width="1.5" /><circle cx="256" cy="135" fill="#ddd" r="3" stroke="#999" stroke-width="1" /><circle cx="256" cy="165" fill="#ddd" r="3" stroke="#999" stroke-width="1" /><circle cx="256" cy="195" fill="#ddd" r="3" stroke="#999" stroke-width="1" /><rect fill="#e2e2d8" height="12" stroke="#aaa89e" stroke-width="1.5" width="14" x="225" y="145" /><line stroke="#aaa89e" stroke-width="2" x1="233" x2="279" y1="420" y2="420" /><path d="M 226 152 Q 240 166 254 152" fill="none" stroke="#aaa89e" stroke-width="1.5" /><path d="M 258 152 Q 272 166 286 152" fill="none" stroke="#aaa89e" stroke-width="1.5" /><line stroke="#aaa89e" stroke-width="1.2" x1="244" x2="226" y1="215" y2="215" /><line stroke="#aaa89e" stroke-width="1.2" x1="268" x2="286" y1="215" y2="215" /><line stroke="#aaa89e" stroke-width="1.2" x1="244" x2="226" y1="240" y2="240" /><line stroke="#aaa89e" stroke-width="1.2" x1="268" x2="286" y1="240" y2="240" /><line stroke="#aaa89e" stroke-width="1.2" x1="244" x2="226" y1="265" y2="265" /><line stroke="#aaa89e" stroke-width="1.2" x1="268" x2="286" y1="265" y2="265" /><line stroke="#aaa89e" stroke-width="1.2" x1="244" x2="226" y1="290" y2="290" /><line stroke="#aaa89e" stroke-width="1.2" x1="268" x2="286" y1="290" y2="290" /><polygon fill="#c8c8be" points="148,112 156,112 97,162" stroke="none" /><polygon fill="#c8c8be" points="156,112 125,162 97,162" stroke="none" /><polygon fill="#e2e2d8" points="156,112 164,112 125,162" stroke="none" /><polygon fill="#e2e2d8" points="164,112 153,162 125,162" stroke="none" /><polygon fill="#aaa89e" points="97,162 125,162 97,187.60000000000002" stroke="none" /><polygon fill="#aaa89e" points="125,162 125,187.60000000000002 97,187.60000000000002" stroke="none" /><polygon fill="#e2e2d8" points="125,162 153,162 125,187.60000000000002" stroke="none" /><polygon fill="#e2e2d8" points="153,162 153,187.60000000000002 125,187.60000000000002" stroke="none" /><polygon fill="#f5ce2e" points="97,187.60000000000002 125,187.60000000000002 100,280" stroke="none" /><polygon fill="#f5ce2e" points="125,187.60000000000002 125,280 100,280" stroke="none" /><polygon fill="#f5ce2e" points="125,187.60000000000002 153,187.60000000000002 125,280" stroke="none" /><polygon fill="#f5ce2e" points="153,187.60000000000002 140,280 125,280" stroke="none" /><line stroke="#aaa89e" stroke-width="2" x1="124" x2="188" y1="164" y2="164" /><ellipse cx="151" cy="230" fill="white" fill-opacity="0.12" rx="3" ry="2" stroke="none" /><ellipse cx="169" cy="246" fill="white" fill-opacity="0.12" rx="3" ry="2" stroke="none" /><polygon fill="#c8c8be" points="348,112 356,112 343,164" stroke="none" /><polygon fill="#c8c8be" points="356,112 371,164 343,164" stroke="none" /><polygon fill="#e2e2d8" points="356,112 364,112 371,164" stroke="none" /><polygon fill="#e2e2d8" points="364,112 399,164 371,164" stroke="none" /><polygon fill="#aaa89e" points="343,164 371,164 343,191.2" stroke="none" /><polygon fill="#aaa89e" points="371,164 371,191.2 343,191.2" stroke="none" /><polygon fill="#e2e2d8" points="371,164 399,164 371,191.2" stroke="none" /><polygon fill="#e2e2d8" points="399,164 399,191.2 371,191.2" stroke="none" /><polygon fill="#f5ce2e" points="343,191.2 371,191.2 356,288" stroke="none" /><polygon fill="#f5ce2e" points="371,191.2 371,288 356,288" stroke="none" /><polygon fill="#f5ce2e" points="371,191.2 399,191.2 371,288" stroke="none" /><polygon fill="#f5ce2e" points="399,191.2 396,288 371,288" stroke="none" /><line stroke="#aaa89e" stroke-width="2" x1="324" x2="388" y1="166" y2="166" /><ellipse cx="344" cy="205" fill="white" fill-opacity="0.12" rx="3" ry="2" stroke="none" /><ellipse cx="365" cy="217" fill="white" fill-opacity="0.12" rx="3" ry="2" stroke="none" /></svg>