<?xml version="1.0" encoding="utf-8" ?>
<svg baseProfile="full" height="512" version="1.1" width="512" xmlns="http://www.w3.org/2000/svg" xmlns:ev="http://www.w3.org/2001/xml-events" xmlns:xlink="http://www.w3.org/1999/xlink"><defs /><polygon fill="#c8c8be" points="243,80 251,80 196,112" stroke="none" /><polygon fill="#c8c8be" points="251,80 210,112 196,112" stroke="none" /><polygon fill="#c8c8be" points="251,80 255,80 210,112" stroke="none" /><polygon fill="#e2e2d8" points="255,80 258,112 210,112" stroke="none" /><polygon fill="#f2f2ec" points="255,80 262,80 258,112" stroke="none" /><polygon fill="#c8c8be" points="262,80 301,112 258,112" stroke="none" /><polygon fill="#c8c8be" points="262,80 269,80 301,112" stroke="none" /><polygon fill="#c8c8be" points="269,80 317,112 301,112" stroke="none" /><polygon fill="#c8c8be" points="196,112 210,112 206,155" stroke="none" /><polygon fill="#c8c8be" points="210,112 225,155 206,155" stroke="none" /><polygon fill="#c8c8be" points="210,112 258,112 225,155" stroke="none" /><polygon fill="#e2e2d8" points="258,112 253,155 225,155" stroke="none" /><polygon fill="#e2e2d8" points="258,112 301,112 253,155" stroke="none" /><polygon fill="#c8c8be" points="301,112 283,155 253,155" stroke="none" /><polygon fill="#c8c8be" points="301,112 317,112 283,155" stroke="none" /><polygon fill="#c8c8be" points="317,112 309,155 283,155" stroke="none" /><polygon fill="#c8c8be" points="206,155 225,155 227,200" stroke="none" /><polygon fill="#c8c8be" points="225,155 245,200 227,200" stroke="none" /><polygon fill="#e2e2d8" points="225,155 253,155 245,200" stroke="none" /><polygon fill="#f2f2ec" points="253,155 254,200 245,200" stroke="none" /><polygon fill="#f2f2ec" points="253,155 283,155 254,200" stroke="none" /><polygon fill="#e2e2d8" points="283,155 265,200 254,200" stroke="none" /><polygon fill="#c8c8be" points="283,155 309,155 265,200" stroke="none" /><polygon fill="#c8c8be" points="309,155 281,200 265,200" stroke="none" /><polygon fill="#c8c8be" points="227,200 245,200 227,300" stroke="none" /><polygon fill="#c8c8be" points="245,200 248,300 227,300" stroke="none" /><polygon fill="#f2f2ec" points="245,200 254,200 248,300" stroke="none" /><polygon fill="#f2f2ec" points="254,200 257,300 248,300" stroke="none" /><polygon fill="#f2f2ec" points="254,200 265,200 257,300" stroke="none" /><polygon fill="#f2f2ec" points="265,200 267,300 257,300" stroke="none" /><polygon fill="#e2e2d8" points="265,200 281,200 267,300" stroke="none" /><polygon fill="#c8c8be" points="281,200 286,300 267,300" stroke="none" /><polygon fill="#c8c8be" points="227,300 248,300 232,370" stroke="none" /><polygon fill="#e2e2d8" points="248,300 247,370 232,370" stroke="none" /><polygon fill="#f2f2ec" points="248,300 257,300 247,370" stroke="none" /><polygon fill="#f2f2ec" points="257,300 257,370 247,370" stroke="none" /><polygon fill="#f2f2ec" points="257,300 267,300 257,370" stroke="none" /><polygon fill="#f2f2ec" points="267,300 263,370 257,370" stroke="none" /><polygon fill="#c8c8be" points="267,300 286,300 263,370" stroke="none" /><polygon fill="#c8c8be" points="286,300 283,370 263,370" stroke="none" /><polygon fill="#c8c8be" points="232,370 247,370 226,430" stroke="none" /><polygon fill="#c8c8be" points="247,370 247,430 226,430" stroke="none" /><polygon fill="#f2f2ec" points="247,370 257,370 247,430" stroke="none" /><polygon fill="#f2f2ec" points="257,370 257,430 247,430" stroke="none" /><polygon fill="#f2f2ec" points="257,370 263,370 257,430" stroke="none" /><polygon fill="#f2f2ec" points="263,370 264,430 257,430" stroke="none" /><polygon fill="#e2e2d8" points="263,370 283,370 264,430" stroke="none" /><polygon fill="#c8c8be" points="283,370 286,430 264,430" stroke="none" /><polygon fill="#c8c8be" points="245,95 256,110 267,95" stroke="#999" stroke-width="1.5" /><circle cx="256" cy="135" fill="#ddd" r="3" stroke="#999" stroke-width="1" /><circle cx="256" cy="165" fill="#ddd" r="3" stroke="#999" stroke-width="1" /><circle cx="256" cy="195" fill="#ddd" r="3" stroke="#999" stroke-width="1" /><rect fill="#e2e2d8" height="7" stroke="#aaa89e" stroke-width="1.5" width="8" x="238" y="145" /><line stroke="#aaa89e" stroke-width="2" x1="242" x2="270" y1="420" y2="420" /><path d="M 231 165 Q 243 186 255 165" fill="none" stroke="#aaa89e" stroke-width="1.5" /><path d="M 257 165 Q 269 186 281 165" fill="none" stroke="#aaa89e" stroke-width="1.5" /><polygon fill="#c8c8be" points="189,112 197,112 187,174" stroke="none" /><polygon fill="#c8c8be" points="197,112 197,174 187,174" stroke="none" /><polygon fill="#e2e2d8" points="197,112 205,112 197,174" stroke="none" /><polygon fill="#e2e2d8" points="205,112 207,174 197,174" stroke="none" /><polygon fill="#aaa89e" points="187,174 197,174 187,205.60000000000002" stroke="none" /><polygon fill="#aaa89e" points="197,174 197,205.60000000000002 187,205.60000000000002" stroke="none" /><polygon fill="#e2e2d8" points="197,174 207,174 197,205.60000000000002" stroke="none" /><polygon fill="#e2e2d8" points="207,174 207,205.60000000000002 197,205.60000000000002" stroke="none" /><polygon fill="#f4cc2a" points="187,205.60000000000002 197,205.60000000000002 190,320" stroke="none" /><polygon fill="#f4cc2a" points="197,205.60000000000002 197,320 190,320" stroke="none" /><polygon fill="#f4cc2a" points="197,205.60000000000002 207,205.60000000000002 197,320" stroke="none" /><polygon fill="#f4cc2a" points="207,205.60000000000002 204,320 197,320" stroke="none" /><line stroke="#aaa89e" stroke-width="2" x1="188" x2="206" y1="176" y2="176" /><polygon fill="#c8c8be" points="307,112 315,112 305,175" stroke="none" /><polygon fill="#c8c8be" points="315,112 315,175 305,175" stroke="none" /><polygon fill="#e2e2d8" points="315,112 323,112 315,175" stroke="none" /><polygon fill="#e2e2d8" points="323,112 325,175 315,175" stroke="none" /><polygon fill="#aaa89e" points="305,175 315,175 305,206.95" stroke="none" /><polygon fill="#aaa89e" points="315,175 315,206.95 305,206.95" stroke="none" /><polygon fill="#e2e2d8" points="315,175 325,175 315,206.95" stroke="none" /><polygon fill="#e2e2d8" points="325,175 325,206.95 315,206.95" stroke="none" /><polygon fill="#f4cc2a" points="305,206.95 315,206.95 308,323" stroke="none" /><polygon fill="#f4cc2a" points="315,206.95 315,323 308,323" stroke="none" /><polygon fill="#f4cc2a" points="315,206.95 325,206.95 315,323" stroke="none" /><polygon fill="#f4cc2a" points="325,206.95 322,323 315,323" stroke="none" /><line stroke="#aaa89e" stroke-width="2" x1="306" x2="324" y1="177" y2="177" /></svg>