<?xml version="1.0" encoding="utf-8" ?>
<svg baseProfile="full" height="512" version="1.1" width="512" xmlns="http://www.w3.org/2000/svg" xmlns:ev="http://www.w3.org/2001/xml-events" xmlns:xlink="http://www.w3.org/1999/xlink"><defs /><polygon fill="#ccccbe" points="192,80 204,80 201,130" stroke="none" /><polygon fill="#ccccbe" points="204,80 216,130 201,130" stroke="none" /><polygon fill="#e0e0d4" points="204,80 217,80 216,130" stroke="none" /><polygon fill="#e0e0d4" points="217,80 228,130 216,130" stroke="none" /><polygon fill="#e0e0d4" points="217,80 230,80 228,130" stroke="none" /><polygon fill="#f0f0e8" points="230,80 244,130 228,130" stroke="none" /><polygon fill="#e0e0d4" points="230,80 244,80 244,130" stroke="none" /><polygon fill="#e0e0d4" points="244,80 258,130 244,130" stroke="none" /><polygon fill="#ccccbe" points="201,130 216,130 211,185" stroke="none" /><polygon fill="#ccccbe" points="216,130 223,185 211,185" stroke="none" /><polygon fill="#e0e0d4" points="216,130 228,130 223,185" stroke="none" /><polygon fill="#e0e0d4" points="228,130 235,185 223,185" stroke="none" /><polygon fill="#e0e0d4" points="228,130 244,130 235,185" stroke="none" /><polygon fill="#e0e0d4" points="244,130 248,185 235,185" stroke="none" /><polygon fill="#e0e0d4" points="244,130 258,130 248,185" stroke="none" /><polygon fill="#e0e0d4" points="258,130 259,185 248,185" stroke="none" /><polygon fill="#d4ac30" points="211,185 223,185 219,248" stroke="none" /><polygon fill="#d4ac30" points="223,185 229,248 219,248" stroke="none" /><polygon fill="#f5d040" points="223,185 235,185 229,248" stroke="none" /><polygon fill="#f5d040" points="235,185 235,248 229,248" stroke="none" /><polygon fill="#fde26e" points="235,185 248,185 235,248" stroke="none" /><polygon fill="#fde26e" points="248,185 246,248 235,248" stroke="none" /><polygon fill="#f5d040" points="248,185 259,185 246,248" stroke="none" /><polygon fill="#f5d040" points="259,185 252,248 246,248" stroke="none" /><polygon fill="#d4ac30" points="219,248 229,248 213,318" stroke="none" /><polygon fill="#d4ac30" points="229,248 223,318 213,318" stroke="none" /><polygon fill="#d4ac30" points="229,248 235,248 223,318" stroke="none" /><polygon fill="#d4ac30" points="235,248 232,318 223,318" stroke="none" /><polygon fill="#f5d040" points="235,248 246,248 232,318" stroke="none" /><polygon fill="#f5d040" points="246,248 239,318 232,318" stroke="none" /><polygon fill="#d4ac30" points="246,248 252,248 239,318" stroke="none" /><polygon fill="#d4ac30" points="252,248 247,318 239,318" stroke="none" /><polygon fill="#b89824" points="213,318 223,318 206,430" stroke="none" /><polygon fill="#b89824" points="223,318 210,430 206,430" stroke="none" /><polygon fill="#d4ac30" points="223,318 232,318 210,430" stroke="none" /><polygon fill="#d4ac30" points="232,318 219,430 210,430" stroke="none" /><polygon fill="#b89824" points="232,318 239,318 219,430" stroke="none" /><polygon fill="#b89824" points="239,318 226,430 219,430" stroke="none" /><polygon fill="#d4ac30" points="239,318 247,318 226,430" stroke="none" /><polygon fill="#d4ac30" points="247,318 232,430 226,430" stroke="none" /><line stroke="#b0b0a0" stroke-width="2.5" x1="191" x2="245" y1="192" y2="192" /><line stroke="#b0b0a0" stroke-width="3" x1="189" x2="247" y1="86" y2="86" /><ellipse cx="218" cy="228" fill="white" fill-opacity="0.12" rx="3" ry="2" stroke="none" /><ellipse cx="215" cy="280" fill="white" fill-opacity="0.12" rx="3" ry="2" stroke="none" /><ellipse cx="230" cy="332" fill="white" fill-opacity="0.12" rx="3" ry="2" stroke="none" /><ellipse cx="218" cy="204" fill="white" fill-opacity="0.12" rx="3" ry="2" stroke="none" /><ellipse cx="224" cy="205" fill="white" fill-opacity="0.12" rx="3" ry="2" stroke="none" /><polygon fill="#ccccbe" points="270,80 280,80 256,130" stroke="none" /><polygon fill="#ccccbe" points="280,80 269,130 256,130" stroke="none" /><polygon fill="#e0e0d4" points="280,80 293,80 269,130" stroke="none" /><polygon fill="#e0e0d4" points="293,80 283,130 269,130" stroke="none" /><polygon fill="#e0e0d4" points="293,80 305,80 283,130" stroke="none" /><polygon fill="#f0f0e8" points="305,80 294,130 283,130" stroke="none" /><polygon fill="#e0e0d4" points="305,80 320,80 294,130" stroke="none" /><polygon fill="#e0e0d4" points="320,80 312,130 294,130" stroke="none" /><polygon fill="#ccccbe" points="256,130 269,130 255,185" stroke="none" /><polygon fill="#ccccbe" points="269,130 264,185 255,185" stroke="none" /><polygon fill="#e0e0d4" points="269,130 283,130 264,185" stroke="none" /><polygon fill="#e0e0d4" points="283,130 278,185 264,185" stroke="none" /><polygon fill="#e0e0d4" points="283,130 294,130 278,185" stroke="none" /><polygon fill="#e0e0d4" points="294,130 288,185 278,185" stroke="none" /><polygon fill="#e0e0d4" points="294,130 312,130 288,185" stroke="none" /><polygon fill="#e0e0d4" points="312,130 305,185 288,185" stroke="none" /><polygon fill="#d4ac30" points="255,185 264,185 262,248" stroke="none" /><polygon fill="#d4ac30" points="264,185 272,248 262,248" stroke="none" /><polygon fill="#f5d040" points="264,185 278,185 272,248" stroke="none" /><polygon fill="#f5d040" points="278,185 278,248 272,248" stroke="none" /><polygon fill="#fde26e" points="278,185 288,185 278,248" stroke="none" /><polygon fill="#fde26e" points="288,185 287,248 278,248" stroke="none" /><polygon fill="#f5d040" points="288,185 305,185 287,248" stroke="none" /><polygon fill="#f5d040" points="305,185 295,248 287,248" stroke="none" /><polygon fill="#d4ac30" points="262,248 272,248 265,318" stroke="none" /><polygon fill="#d4ac30" points="272,248 273,318 265,318" stroke="none" /><polygon fill="#d4ac30" points="272,248 278,248 273,318" stroke="none" /><polygon fill="#d4ac30" points="278,248 284,318 273,318" stroke="none" /><polygon fill="#f5d040" points="278,248 287,248 284,318" stroke="none" /><polygon fill="#f5d040" points="287,248 289,318 284,318" stroke="none" /><polygon fill="#d4ac30" points="287,248 295,248 289,318" stroke="none" /><polygon fill="#d4ac30" points="295,248 298,318 289,318" stroke="none" /><polygon fill="#b89824" points="265,318 273,318 280,430" stroke="none" /><polygon fill="#b89824" points="273,318 284,430 280,430" stroke="none" /><polygon fill="#d4ac30" points="273,318 284,318 284,430" stroke="none" /><polygon fill="#d4ac30" points="284,318 293,430 284,430" stroke="none" /><polygon fill="#b89824" points="284,318 289,318 293,430" stroke="none" /><polygon fill="#b89824" points="289,318 302,430 293,430" stroke="none" /><polygon fill="#d4ac30" points="289,318 298,318 302,430" stroke="none" /><polygon fill="#d4ac30" points="298,318 306,430 302,430" stroke="none" /><line stroke="#b0b0a0" stroke-width="2.5" x1="267" x2="321" y1="192" y2="192" /><line stroke="#b0b0a0" stroke-width="3" x1="265" x2="323" y1="86" y2="86" /><ellipse cx="282" cy="234" fill="white" fill-opacity="0.12" rx="3" ry="2" stroke="none" /><ellipse cx="302" cy="252" fill="white" fill-opacity="0.12" rx="3" ry="2" stroke="none" /><ellipse cx="286" cy="353" fill="white" fill-opacity="0.12" rx="3" ry="2" stroke="none" /><ellipse cx="295" cy="296" fill="white" fill-opacity="0.12" rx="3" ry="2" stroke="none" /><path d="M 212 237 Q 224 243 224 255" fill="none" stroke="#8a6840" stroke-width="1.5" /><path d="M 288 237 Q 300 243 300 255" fill="none" stroke="#8a6840" stroke-width="1.5" /></svg>