<?xml version="1.0" encoding="utf-8" ?>
<svg baseProfile="full" height="512" version="1.1" width="512" xmlns="http://www.w3.org/2000/svg" xmlns:ev="http://www.w3.org/2001/xml-events" xmlns:xlink="http://www.w3.org/1999/xlink"><defs /><polygon fill="#ccccbe" points="180,80 202,80 175,130" stroke="none" /><polygon fill="#ccccbe" points="202,80 200,130 175,130" stroke="none" /><polygon fill="#e0e0d4" points="202,80 224,80 200,130" stroke="none" /><polygon fill="#e0e0d4" points="224,80 223,130 200,130" stroke="none" /><polygon fill="#e0e0d4" points="224,80 243,80 223,130" stroke="none" /><polygon fill="#f0f0e8" points="243,80 244,130 223,130" stroke="none" /><polygon fill="#e0e0d4" points="243,80 266,80 244,130" stroke="none" /><polygon fill="#e0e0d4" points="266,80 267,130 244,130" stroke="none" /><polygon fill="#ccccbe" points="175,130 200,130 183,185" stroke="none" /><polygon fill="#ccccbe" points="200,130 204,185 183,185" stroke="none" /><polygon fill="#e0e0d4" points="200,130 223,130 204,185" stroke="none" /><polygon fill="#e0e0d4" points="223,130 221,185 204,185" stroke="none" /><polygon fill="#e0e0d4" points="223,130 244,130 221,185" stroke="none" /><polygon fill="#e0e0d4" points="244,130 245,185 221,185" stroke="none" /><polygon fill="#e0e0d4" points="244,130 267,130 245,185" stroke="none" /><polygon fill="#e0e0d4" points="267,130 265,185 245,185" stroke="none" /><polygon fill="#d4a520" points="183,185 204,185 194,248" stroke="none" /><polygon fill="#d4a520" points="204,185 209,248 194,248" stroke="none" /><polygon fill="#f5cd30" points="204,185 221,185 209,248" stroke="none" /><polygon fill="#f5cd30" points="221,185 223,248 209,248" stroke="none" /><polygon fill="#fde066" points="221,185 245,185 223,248" stroke="none" /><polygon fill="#fde066" points="245,185 239,248 223,248" stroke="none" /><polygon fill="#f5cd30" points="245,185 265,185 239,248" stroke="none" /><polygon fill="#f5cd30" points="265,185 253,248 239,248" stroke="none" /><polygon fill="#d4a520" points="194,248 209,248 214,318" stroke="none" /><polygon fill="#d4a520" points="209,248 219,318 214,318" stroke="none" /><polygon fill="#d4a520" points="209,248 223,248 219,318" stroke="none" /><polygon fill="#d4a520" points="223,248 221,318 219,318" stroke="none" /><polygon fill="#f5cd30" points="223,248 239,248 221,318" stroke="none" /><polygon fill="#f5cd30" points="239,248 230,318 221,318" stroke="none" /><polygon fill="#d4a520" points="239,248 253,248 230,318" stroke="none" /><polygon fill="#d4a520" points="253,248 232,318 230,318" stroke="none" /><polygon fill="#b8911a" points="214,318 219,318 216,430" stroke="none" /><polygon fill="#b8911a" points="219,318 217,430 216,430" stroke="none" /><polygon fill="#d4a520" points="219,318 221,318 217,430" stroke="none" /><polygon fill="#d4a520" points="221,318 224,430 217,430" stroke="none" /><polygon fill="#b8911a" points="221,318 230,318 224,430" stroke="none" /><polygon fill="#b8911a" points="230,318 229,430 224,430" stroke="none" /><polygon fill="#d4a520" points="230,318 232,318 229,430" stroke="none" /><polygon fill="#d4a520" points="232,318 229,430 229,430" stroke="none" /><line stroke="#b0b0a0" stroke-width="2.5" x1="179" x2="267" y1="192" y2="192" /><line stroke="#b0b0a0" stroke-width="3" x1="177" x2="269" y1="86" y2="86" /><ellipse cx="219" cy="376" fill="white" fill-opacity="0.12" rx="3" ry="2" stroke="none" /><ellipse cx="220" cy="361" fill="white" fill-opacity="0.12" rx="3" ry="2" stroke="none" /><ellipse cx="234" cy="260" fill="white" fill-opacity="0.12" rx="3" ry="2" stroke="none" /><ellipse cx="221" cy="295" fill="white" fill-opacity="0.12" rx="3" ry="2" stroke="none" /><ellipse cx="236" cy="265" fill="white" fill-opacity="0.12" rx="3" ry="2" stroke="none" /><polygon fill="#ccccbe" points="246,80 267,80 242,130" stroke="none" /><polygon fill="#ccccbe" points="267,80 269,130 242,130" stroke="none" /><polygon fill="#e0e0d4" points="267,80 290,80 269,130" stroke="none" /><polygon fill="#e0e0d4" points="290,80 289,130 269,130" stroke="none" /><polygon fill="#e0e0d4" points="290,80 311,80 289,130" stroke="none" /><polygon fill="#f0f0e8" points="311,80 309,130 289,130" stroke="none" /><polygon fill="#e0e0d4" points="311,80 331,80 309,130" stroke="none" /><polygon fill="#e0e0d4" points="331,80 335,130 309,130" stroke="none" /><polygon fill="#ccccbe" points="242,130 269,130 245,185" stroke="none" /><polygon fill="#ccccbe" points="269,130 270,185 245,185" stroke="none" /><polygon fill="#e0e0d4" points="269,130 289,130 270,185" stroke="none" /><polygon fill="#e0e0d4" points="289,130 291,185 270,185" stroke="none" /><polygon fill="#e0e0d4" points="289,130 309,130 291,185" stroke="none" /><polygon fill="#e0e0d4" points="309,130 308,185 291,185" stroke="none" /><polygon fill="#e0e0d4" points="309,130 335,130 308,185" stroke="none" /><polygon fill="#e0e0d4" points="335,130 329,185 308,185" stroke="none" /><polygon fill="#d4a520" points="245,185 270,185 262,248" stroke="none" /><polygon fill="#d4a520" points="270,185 276,248 262,248" stroke="none" /><polygon fill="#f5cd30" points="270,185 291,185 276,248" stroke="none" /><polygon fill="#f5cd30" points="291,185 291,248 276,248" stroke="none" /><polygon fill="#fde066" points="291,185 308,185 291,248" stroke="none" /><polygon fill="#fde066" points="308,185 305,248 291,248" stroke="none" /><polygon fill="#f5cd30" points="308,185 329,185 305,248" stroke="none" /><polygon fill="#f5cd30" points="329,185 317,248 305,248" stroke="none" /><polygon fill="#d4a520" points="262,248 276,248 278,318" stroke="none" /><polygon fill="#d4a520" points="276,248 281,318 278,318" stroke="none" /><polygon fill="#d4a520" points="276,248 291,248 281,318" stroke="none" /><polygon fill="#d4a520" points="291,248 287,318 281,318" stroke="none" /><polygon fill="#f5cd30" points="291,248 305,248 287,318" stroke="none" /><polygon fill="#f5cd30" points="305,248 294,318 287,318" stroke="none" /><polygon fill="#d4a520" points="305,248 317,248 294,318" stroke="none" /><polygon fill="#d4a520" points="317,248 301,318 294,318" stroke="none" /><polygon fill="#b8911a" points="278,318 281,318 282,430" stroke="none" /><polygon fill="#b8911a" points="281,318 282,430 282,430" stroke="none" /><polygon fill="#d4a520" points="281,318 287,318 282,430" stroke="none" /><polygon fill="#d4a520" points="287,318 290,430 282,430" stroke="none" /><polygon fill="#b8911a" points="287,318 294,318 290,430" stroke="none" /><polygon fill="#b8911a" points="294,318 294,430 290,430" stroke="none" /><polygon fill="#d4a520" points="294,318 301,318 294,430" stroke="none" /><polygon fill="#d4a520" points="301,318 295,430 294,430" stroke="none" /><line stroke="#b0b0a0" stroke-width="2.5" x1="245" x2="333" y1="192" y2="192" /><line stroke="#b0b0a0" stroke-width="3" x1="243" x2="335" y1="86" y2="86" /><ellipse cx="292" cy="324" fill="white" fill-opacity="0.12" rx="3" ry="2" stroke="none" /><ellipse cx="295" cy="365" fill="white" fill-opacity="0.12" rx="3" ry="2" stroke="none" /><ellipse cx="286" cy="369" fill="white" fill-opacity="0.12" rx="3" ry="2" stroke="none" /><path d="M 185 82 Q 173 100 185 118" fill="none" stroke="#b0b0a0" stroke-width="1.5" /><path d="M 251 82 Q 239 100 251 118" fill="none" stroke="#b0b0a0" stroke-width="1.5" /></svg>