<?xml version="1.0" encoding="utf-8" ?>
<svg baseProfile="full" height="512" version="1.1" width="512" xmlns="http://www.w3.org/2000/svg" xmlns:ev="http://www.w3.org/2001/xml-events" xmlns:xlink="http://www.w3.org/1999/xlink"><defs /><polygon fill="#ccccbe" points="196,80 208,80 195,130" stroke="none" /><polygon fill="#ccccbe" points="208,80 210,130 195,130" stroke="none" /><polygon fill="#e0e0d4" points="208,80 220,80 210,130" stroke="none" /><polygon fill="#e0e0d4" points="220,80 223,130 210,130" stroke="none" /><polygon fill="#e0e0d4" points="220,80 232,80 223,130" stroke="none" /><polygon fill="#f0f0e8" points="232,80 235,130 223,130" stroke="none" /><polygon fill="#e0e0d4" points="232,80 244,80 235,130" stroke="none" /><polygon fill="#e0e0d4" points="244,80 254,130 235,130" stroke="none" /><polygon fill="#ccccbe" points="195,130 210,130 202,185" stroke="none" /><polygon fill="#ccccbe" points="210,130 214,185 202,185" stroke="none" /><polygon fill="#e0e0d4" points="210,130 223,130 214,185" stroke="none" /><polygon fill="#e0e0d4" points="223,130 224,185 214,185" stroke="none" /><polygon fill="#e0e0d4" points="223,130 235,130 224,185" stroke="none" /><polygon fill="#e0e0d4" points="235,130 238,185 224,185" stroke="none" /><polygon fill="#e0e0d4" points="235,130 254,130 238,185" stroke="none" /><polygon fill="#e0e0d4" points="254,130 252,185 238,185" stroke="none" /><polygon fill="#d4ac30" points="202,185 214,185 208,248" stroke="none" /><polygon fill="#d4ac30" points="214,185 219,248 208,248" stroke="none" /><polygon fill="#f5d040" points="214,185 224,185 219,248" stroke="none" /><polygon fill="#f5d040" points="224,185 227,248 219,248" stroke="none" /><polygon fill="#fde26e" points="224,185 238,185 227,248" stroke="none" /><polygon fill="#fde26e" points="238,185 233,248 227,248" stroke="none" /><polygon fill="#f5d040" points="238,185 252,185 233,248" stroke="none" /><polygon fill="#f5d040" points="252,185 243,248 233,248" stroke="none" /><polygon fill="#d4ac30" points="208,248 219,248 206,318" stroke="none" /><polygon fill="#d4ac30" points="219,248 213,318 206,318" stroke="none" /><polygon fill="#d4ac30" points="219,248 227,248 213,318" stroke="none" /><polygon fill="#d4ac30" points="227,248 223,318 213,318" stroke="none" /><polygon fill="#f5d040" points="227,248 233,248 223,318" stroke="none" /><polygon fill="#f5d040" points="233,248 231,318 223,318" stroke="none" /><polygon fill="#d4ac30" points="233,248 243,248 231,318" stroke="none" /><polygon fill="#d4ac30" points="243,248 243,318 231,318" stroke="none" /><polygon fill="#b89824" points="206,318 213,318 206,430" stroke="none" /><polygon fill="#b89824" points="213,318 211,430 206,430" stroke="none" /><polygon fill="#d4ac30" points="213,318 223,318 211,430" stroke="none" /><polygon fill="#d4ac30" points="223,318 220,430 211,430" stroke="none" /><polygon fill="#b89824" points="223,318 231,318 220,430" stroke="none" /><polygon fill="#b89824" points="231,318 227,430 220,430" stroke="none" /><polygon fill="#d4ac30" points="231,318 243,318 227,430" stroke="none" /><polygon fill="#d4ac30" points="243,318 234,430 227,430" stroke="none" /><line stroke="#b0b0a0" stroke-width="2.5" x1="193" x2="245" y1="192" y2="192" /><line stroke="#b0b0a0" stroke-width="3" x1="191" x2="247" y1="86" y2="86" /><ellipse cx="219" cy="269" fill="white" fill-opacity="0.12" rx="3" ry="2" stroke="none" /><ellipse cx="207" cy="348" fill="white" fill-opacity="0.12" rx="3" ry="2" stroke="none" /><ellipse cx="220" cy="416" fill="white" fill-opacity="0.12" rx="3" ry="2" stroke="none" /><polygon fill="#ccccbe" points="268,80 281,80 256,130" stroke="none" /><polygon fill="#ccccbe" points="281,80 269,130 256,130" stroke="none" /><polygon fill="#e0e0d4" points="281,80 292,80 269,130" stroke="none" /><polygon fill="#e0e0d4" points="292,80 283,130 269,130" stroke="none" /><polygon fill="#e0e0d4" points="292,80 304,80 283,130" stroke="none" /><polygon fill="#f0f0e8" points="304,80 297,130 283,130" stroke="none" /><polygon fill="#e0e0d4" points="304,80 316,80 297,130" stroke="none" /><polygon fill="#e0e0d4" points="316,80 309,130 297,130" stroke="none" /><polygon fill="#ccccbe" points="256,130 269,130 255,185" stroke="none" /><polygon fill="#ccccbe" points="269,130 269,185 255,185" stroke="none" /><polygon fill="#e0e0d4" points="269,130 283,130 269,185" stroke="none" /><polygon fill="#e0e0d4" points="283,130 278,185 269,185" stroke="none" /><polygon fill="#e0e0d4" points="283,130 297,130 278,185" stroke="none" /><polygon fill="#e0e0d4" points="297,130 289,185 278,185" stroke="none" /><polygon fill="#e0e0d4" points="297,130 309,130 289,185" stroke="none" /><polygon fill="#e0e0d4" points="309,130 301,185 289,185" stroke="none" /><polygon fill="#d4ac30" points="255,185 269,185 263,248" stroke="none" /><polygon fill="#d4ac30" points="269,185 271,248 263,248" stroke="none" /><polygon fill="#f5d040" points="269,185 278,185 271,248" stroke="none" /><polygon fill="#f5d040" points="278,185 279,248 271,248" stroke="none" /><polygon fill="#fde26e" points="278,185 289,185 279,248" stroke="none" /><polygon fill="#fde26e" points="289,185 286,248 279,248" stroke="none" /><polygon fill="#f5d040" points="289,185 301,185 286,248" stroke="none" /><polygon fill="#f5d040" points="301,185 294,248 286,248" stroke="none" /><polygon fill="#d4ac30" points="263,248 271,248 266,318" stroke="none" /><polygon fill="#d4ac30" points="271,248 276,318 266,318" stroke="none" /><polygon fill="#d4ac30" points="271,248 279,248 276,318" stroke="none" /><polygon fill="#d4ac30" points="279,248 281,318 276,318" stroke="none" /><polygon fill="#f5d040" points="279,248 286,248 281,318" stroke="none" /><polygon fill="#f5d040" points="286,248 292,318 281,318" stroke="none" /><polygon fill="#d4ac30" points="286,248 294,248 292,318" stroke="none" /><polygon fill="#d4ac30" points="294,248 302,318 292,318" stroke="none" /><polygon fill="#b89824" points="266,318 276,318 280,430" stroke="none" /><polygon fill="#b89824" points="276,318 283,430 280,430" stroke="none" /><polygon fill="#d4ac30" points="276,318 281,318 283,430" stroke="none" /><polygon fill="#d4ac30" points="281,318 292,430 283,430" stroke="none" /><polygon fill="#b89824" points="281,318 292,318 292,430" stroke="none" /><polygon fill="#b89824" points="292,318 301,430 292,430" stroke="none" /><polygon fill="#d4ac30" points="292,318 302,318 301,430" stroke="none" /><polygon fill="#d4ac30" points="302,318 308,430 301,430" stroke="none" /><line stroke="#b0b0a0" stroke-width="2.5" x1="267" x2="319" y1="192" y2="192" /><line stroke="#b0b0a0" stroke-width="3" x1="265" x2="321" y1="86" y2="86" /><ellipse cx="282" cy="318" fill="white" fill-opacity="0.12" rx="3" ry="2" stroke="none" /><ellipse cx="302" cy="290" fill="white" fill-opacity="0.12" rx="3" ry="2" stroke="none" /><path d="M 213 237 Q 225 243 225 255" fill="none" stroke="#8a6840" stroke-width="1.5" /><path d="M 287 237 Q 299 243 299 255" fill="none" stroke="#8a6840" stroke-width="1.5" /></svg>