<?xml version="1.0" encoding="utf-8" ?>
<svg baseProfile="full" height="512" version="1.1" width="512" xmlns="http://www.w3.org/2000/svg" xmlns:ev="http://www.w3.org/2001/xml-events" xmlns:xlink="http://www.w3.org/1999/xlink"><defs /><polygon fill="#ccccbe" points="187,80 199,80 180,130" stroke="none" /><polygon fill="#ccccbe" points="199,80 198,130 180,130" stroke="none" /><polygon fill="#e0e0d4" points="199,80 215,80 198,130" stroke="none" /><polygon fill="#e0e0d4" points="215,80 215,130 198,130" stroke="none" /><polygon fill="#e0e0d4" points="215,80 230,80 215,130" stroke="none" /><polygon fill="#f0f0e8" points="230,80 230,130 215,130" stroke="none" /><polygon fill="#e0e0d4" points="230,80 245,80 230,130" stroke="none" /><polygon fill="#e0e0d4" points="245,80 250,130 230,130" stroke="none" /><polygon fill="#ccccbe" points="180,130 198,130 187,185" stroke="none" /><polygon fill="#ccccbe" points="198,130 202,185 187,185" stroke="none" /><polygon fill="#e0e0d4" points="198,130 215,130 202,185" stroke="none" /><polygon fill="#e0e0d4" points="215,130 214,185 202,185" stroke="none" /><polygon fill="#e0e0d4" points="215,130 230,130 214,185" stroke="none" /><polygon fill="#e0e0d4" points="230,130 231,185 214,185" stroke="none" /><polygon fill="#e0e0d4" points="230,130 250,130 231,185" stroke="none" /><polygon fill="#e0e0d4" points="250,130 244,185 231,185" stroke="none" /><polygon fill="#d2a41c" points="187,185 202,185 194,248" stroke="none" /><polygon fill="#d2a41c" points="202,185 204,248 194,248" stroke="none" /><polygon fill="#f4cc2c" points="202,185 214,185 204,248" stroke="none" /><polygon fill="#f4cc2c" points="214,185 217,248 204,248" stroke="none" /><polygon fill="#fce062" points="214,185 231,185 217,248" stroke="none" /><polygon fill="#fce062" points="231,185 224,248 217,248" stroke="none" /><polygon fill="#f4cc2c" points="231,185 244,185 224,248" stroke="none" /><polygon fill="#f4cc2c" points="244,185 233,248 224,248" stroke="none" /><polygon fill="#d2a41c" points="194,248 204,248 192,318" stroke="none" /><polygon fill="#d2a41c" points="204,248 204,318 192,318" stroke="none" /><polygon fill="#d2a41c" points="204,248 217,248 204,318" stroke="none" /><polygon fill="#d2a41c" points="217,248 216,318 204,318" stroke="none" /><polygon fill="#f4cc2c" points="217,248 224,248 216,318" stroke="none" /><polygon fill="#f4cc2c" points="224,248 227,318 216,318" stroke="none" /><polygon fill="#d2a41c" points="224,248 233,248 227,318" stroke="none" /><polygon fill="#d2a41c" points="233,248 238,318 227,318" stroke="none" /><polygon fill="#b69018" points="192,318 204,318 196,430" stroke="none" /><polygon fill="#b69018" points="204,318 202,430 196,430" stroke="none" /><polygon fill="#d2a41c" points="204,318 216,318 202,430" stroke="none" /><polygon fill="#d2a41c" points="216,318 215,430 202,430" stroke="none" /><polygon fill="#b69018" points="216,318 227,318 215,430" stroke="none" /><polygon fill="#b69018" points="227,318 227,430 215,430" stroke="none" /><polygon fill="#d2a41c" points="227,318 238,318 227,430" stroke="none" /><polygon fill="#d2a41c" points="238,318 234,430 227,430" stroke="none" /><line stroke="#b0b0a0" stroke-width="2.5" x1="184" x2="246" y1="192" y2="192" /><line stroke="#b0b0a0" stroke-width="3" x1="182" x2="248" y1="86" y2="86" /><ellipse cx="206" cy="398" fill="white" fill-opacity="0.12" rx="3" ry="2" stroke="none" /><ellipse cx="204" cy="349" fill="white" fill-opacity="0.12" rx="3" ry="2" stroke="none" /><ellipse cx="206" cy="211" fill="white" fill-opacity="0.12" rx="3" ry="2" stroke="none" /><polygon fill="#ccccbe" points="269,80 282,80 263,130" stroke="none" /><polygon fill="#ccccbe" points="282,80 283,130 263,130" stroke="none" /><polygon fill="#e0e0d4" points="282,80 298,80 283,130" stroke="none" /><polygon fill="#e0e0d4" points="298,80 298,130 283,130" stroke="none" /><polygon fill="#e0e0d4" points="298,80 311,80 298,130" stroke="none" /><polygon fill="#f0f0e8" points="311,80 312,130 298,130" stroke="none" /><polygon fill="#e0e0d4" points="311,80 327,80 312,130" stroke="none" /><polygon fill="#e0e0d4" points="327,80 332,130 312,130" stroke="none" /><polygon fill="#ccccbe" points="263,130 283,130 268,185" stroke="none" /><polygon fill="#ccccbe" points="283,130 284,185 268,185" stroke="none" /><polygon fill="#e0e0d4" points="283,130 298,130 284,185" stroke="none" /><polygon fill="#e0e0d4" points="298,130 296,185 284,185" stroke="none" /><polygon fill="#e0e0d4" points="298,130 312,130 296,185" stroke="none" /><polygon fill="#e0e0d4" points="312,130 312,185 296,185" stroke="none" /><polygon fill="#e0e0d4" points="312,130 332,130 312,185" stroke="none" /><polygon fill="#e0e0d4" points="332,130 324,185 312,185" stroke="none" /><polygon fill="#d2a41c" points="268,185 284,185 275,248" stroke="none" /><polygon fill="#d2a41c" points="284,185 289,248 275,248" stroke="none" /><polygon fill="#f4cc2c" points="284,185 296,185 289,248" stroke="none" /><polygon fill="#f4cc2c" points="296,185 297,248 289,248" stroke="none" /><polygon fill="#fce062" points="296,185 312,185 297,248" stroke="none" /><polygon fill="#fce062" points="312,185 307,248 297,248" stroke="none" /><polygon fill="#f4cc2c" points="312,185 324,185 307,248" stroke="none" /><polygon fill="#f4cc2c" points="324,185 317,248 307,248" stroke="none" /><polygon fill="#d2a41c" points="275,248 289,248 273,318" stroke="none" /><polygon fill="#d2a41c" points="289,248 285,318 273,318" stroke="none" /><polygon fill="#d2a41c" points="289,248 297,248 285,318" stroke="none" /><polygon fill="#d2a41c" points="297,248 298,318 285,318" stroke="none" /><polygon fill="#f4cc2c" points="297,248 307,248 298,318" stroke="none" /><polygon fill="#f4cc2c" points="307,248 308,318 298,318" stroke="none" /><polygon fill="#d2a41c" points="307,248 317,248 308,318" stroke="none" /><polygon fill="#d2a41c" points="317,248 321,318 308,318" stroke="none" /><polygon fill="#b69018" points="273,318 285,318 277,430" stroke="none" /><polygon fill="#b69018" points="285,318 286,430 277,430" stroke="none" /><polygon fill="#d2a41c" points="285,318 298,318 286,430" stroke="none" /><polygon fill="#d2a41c" points="298,318 297,430 286,430" stroke="none" /><polygon fill="#b69018" points="298,318 308,318 297,430" stroke="none" /><polygon fill="#b69018" points="308,318 307,430 297,430" stroke="none" /><polygon fill="#d2a41c" points="308,318 321,318 307,430" stroke="none" /><polygon fill="#d2a41c" points="321,318 316,430 307,430" stroke="none" /><line stroke="#b0b0a0" stroke-width="2.5" x1="266" x2="328" y1="192" y2="192" /><line stroke="#b0b0a0" stroke-width="3" x1="264" x2="330" y1="86" y2="86" /><ellipse cx="307" cy="226" fill="white" fill-opacity="0.12" rx="3" ry="2" stroke="none" /><ellipse cx="309" cy="318" fill="white" fill-opacity="0.12" rx="3" ry="2" stroke="none" /><path d="M 209 237 Q 221 243 221 255" fill="none" stroke="#8a6840" stroke-width="1.5" /><path d="M 291 237 Q 303 243 303 255" fill="none" stroke="#8a6840" stroke-width="1.5" /></svg>