<?xml version="1.0" encoding="utf-8" ?>
<svg baseProfile="full" height="512" version="1.1" width="512" xmlns="http://www.w3.org/2000/svg" xmlns:ev="http://www.w3.org/2001/xml-events" xmlns:xlink="http://www.w3.org/1999/xlink"><defs /><polygon fill="#ccccbe" points="148,80 175,80 152,130" stroke="none" /><polygon fill="#ccccbe" points="175,80 181,130 152,130" stroke="none" /><polygon fill="#e0e0d4" points="175,80 201,80 181,130" stroke="none" /><polygon fill="#e0e0d4" points="201,80 210,130 181,130" stroke="none" /><polygon fill="#e0e0d4" points="201,80 230,80 210,130" stroke="none" /><polygon fill="#f0f0e8" points="230,80 236,130 210,130" stroke="none" /><polygon fill="#e0e0d4" points="230,80 256,80 236,130" stroke="none" /><polygon fill="#e0e0d4" points="256,80 269,130 236,130" stroke="none" /><polygon fill="#ccccbe" points="152,130 181,130 157,185" stroke="none" /><polygon fill="#ccccbe" points="181,130 186,185 157,185" stroke="none" /><polygon fill="#e0e0d4" points="181,130 210,130 186,185" stroke="none" /><polygon fill="#e0e0d4" points="210,130 216,185 186,185" stroke="none" /><polygon fill="#e0e0d4" points="210,130 236,130 216,185" stroke="none" /><polygon fill="#e0e0d4" points="236,130 240,185 216,185" stroke="none" /><polygon fill="#e0e0d4" points="236,130 269,130 240,185" stroke="none" /><polygon fill="#e0e0d4" points="269,130 268,185 240,185" stroke="none" /><polygon fill="#d0a018" points="157,185 186,185 176,248" stroke="none" /><polygon fill="#d0a018" points="186,185 193,248 176,248" stroke="none" /><polygon fill="#f3ca24" points="186,185 216,185 193,248" stroke="none" /><polygon fill="#f3ca24" points="216,185 215,248 193,248" stroke="none" /><polygon fill="#fade5c" points="216,185 240,185 215,248" stroke="none" /><polygon fill="#fade5c" points="240,185 235,248 215,248" stroke="none" /><polygon fill="#f3ca24" points="240,185 268,185 235,248" stroke="none" /><polygon fill="#f3ca24" points="268,185 251,248 235,248" stroke="none" /><polygon fill="#d0a018" points="176,248 193,248 187,318" stroke="none" /><polygon fill="#d0a018" points="193,248 199,318 187,318" stroke="none" /><polygon fill="#d0a018" points="193,248 215,248 199,318" stroke="none" /><polygon fill="#d0a018" points="215,248 210,318 199,318" stroke="none" /><polygon fill="#f3ca24" points="215,248 235,248 210,318" stroke="none" /><polygon fill="#f3ca24" points="235,248 219,318 210,318" stroke="none" /><polygon fill="#d0a018" points="235,248 251,248 219,318" stroke="none" /><polygon fill="#d0a018" points="251,248 234,318 219,318" stroke="none" /><polygon fill="#b48c14" points="187,318 199,318 183,430" stroke="none" /><polygon fill="#b48c14" points="199,318 190,430 183,430" stroke="none" /><polygon fill="#d0a018" points="199,318 210,318 190,430" stroke="none" /><polygon fill="#d0a018" points="210,318 202,430 190,430" stroke="none" /><polygon fill="#b48c14" points="210,318 219,318 202,430" stroke="none" /><polygon fill="#b48c14" points="219,318 212,430 202,430" stroke="none" /><polygon fill="#d0a018" points="219,318 234,318 212,430" stroke="none" /><polygon fill="#d0a018" points="234,318 220,430 212,430" stroke="none" /><line stroke="#b0b0a0" stroke-width="2.5" x1="145" x2="259" y1="192" y2="192" /><line stroke="#b0b0a0" stroke-width="3" x1="143" x2="261" y1="86" y2="86" /><path d="M 213 400 Q 218 395 223 400" fill="none" stroke="#d4c0a0" stroke-opacity="0.3" stroke-width="1" /><path d="M 216 328 Q 219 325 222 328" fill="none" stroke="#d4c0a0" stroke-opacity="0.3" stroke-width="1" /><polygon fill="#ccccbe" points="254,80 282,80 244,130" stroke="none" /><polygon fill="#ccccbe" points="282,80 279,130 244,130" stroke="none" /><polygon fill="#e0e0d4" points="282,80 311,80 279,130" stroke="none" /><polygon fill="#e0e0d4" points="311,80 307,130 279,130" stroke="none" /><polygon fill="#e0e0d4" points="311,80 338,80 307,130" stroke="none" /><polygon fill="#f0f0e8" points="338,80 330,130 307,130" stroke="none" /><polygon fill="#e0e0d4" points="338,80 366,80 330,130" stroke="none" /><polygon fill="#e0e0d4" points="366,80 365,130 330,130" stroke="none" /><polygon fill="#ccccbe" points="244,130 279,130 250,185" stroke="none" /><polygon fill="#ccccbe" points="279,130 276,185 250,185" stroke="none" /><polygon fill="#e0e0d4" points="279,130 307,130 276,185" stroke="none" /><polygon fill="#e0e0d4" points="307,130 305,185 276,185" stroke="none" /><polygon fill="#e0e0d4" points="307,130 330,130 305,185" stroke="none" /><polygon fill="#e0e0d4" points="330,130 328,185 305,185" stroke="none" /><polygon fill="#e0e0d4" points="330,130 365,130 328,185" stroke="none" /><polygon fill="#e0e0d4" points="365,130 359,185 328,185" stroke="none" /><polygon fill="#d0a018" points="250,185 276,185 267,248" stroke="none" /><polygon fill="#d0a018" points="276,185 284,248 267,248" stroke="none" /><polygon fill="#f3ca24" points="276,185 305,185 284,248" stroke="none" /><polygon fill="#f3ca24" points="305,185 304,248 284,248" stroke="none" /><polygon fill="#fade5c" points="305,185 328,185 304,248" stroke="none" /><polygon fill="#fade5c" points="328,185 324,248 304,248" stroke="none" /><polygon fill="#f3ca24" points="328,185 359,185 324,248" stroke="none" /><polygon fill="#f3ca24" points="359,185 343,248 324,248" stroke="none" /><polygon fill="#d0a018" points="267,248 284,248 281,318" stroke="none" /><polygon fill="#d0a018" points="284,248 293,318 281,318" stroke="none" /><polygon fill="#d0a018" points="284,248 304,248 293,318" stroke="none" /><polygon fill="#d0a018" points="304,248 303,318 293,318" stroke="none" /><polygon fill="#f3ca24" points="304,248 324,248 303,318" stroke="none" /><polygon fill="#f3ca24" points="324,248 317,318 303,318" stroke="none" /><polygon fill="#d0a018" points="324,248 343,248 317,318" stroke="none" /><polygon fill="#d0a018" points="343,248 329,318 317,318" stroke="none" /><polygon fill="#b48c14" points="281,318 293,318 291,430" stroke="none" /><polygon fill="#b48c14" points="293,318 299,430 291,430" stroke="none" /><polygon fill="#d0a018" points="293,318 303,318 299,430" stroke="none" /><polygon fill="#d0a018" points="303,318 309,430 299,430" stroke="none" /><polygon fill="#b48c14" points="303,318 317,318 309,430" stroke="none" /><polygon fill="#b48c14" points="317,318 322,430 309,430" stroke="none" /><polygon fill="#d0a018" points="317,318 329,318 322,430" stroke="none" /><polygon fill="#d0a018" points="329,318 329,430 322,430" stroke="none" /><line stroke="#b0b0a0" stroke-width="2.5" x1="253" x2="367" y1="192" y2="192" /><line stroke="#b0b0a0" stroke-width="3" x1="251" x2="369" y1="86" y2="86" /><path d="M 309 401 Q 314 396 319 401" fill="none" stroke="#d4c0a0" stroke-opacity="0.3" stroke-width="1" /><path d="M 326 221 Q 331 216 336 221" fill="none" stroke="#d4c0a0" stroke-opacity="0.3" stroke-width="1" /><path d="M 299 201 Q 304 196 309 201" fill="none" stroke="#d4c0a0" stroke-opacity="0.3" stroke-width="1" /><path d="M 196 237 Q 208 243 208 255" fill="none" stroke="#8a6840" stroke-width="1.5" /><path d="M 304 237 Q 316 243 316 255" fill="none" stroke="#8a6840" stroke-width="1.5" /><path d="M 151 82 Q 139 100 151 118" fill="none" stroke="#b0b0a0" stroke-width="1.5" /><path d="M 259 82 Q 247 100 259 118" fill="none" stroke="#b0b0a0" stroke-width="1.5" /></svg>