<?xml version="1.0" encoding="utf-8" ?>
<svg baseProfile="full" height="512" version="1.1" width="512" xmlns="http://www.w3.org/2000/svg" xmlns:ev="http://www.w3.org/2001/xml-events" xmlns:xlink="http://www.w3.org/1999/xlink"><defs /><polygon fill="#ccccbe" points="176,80 191,80 163,130" stroke="none" /><polygon fill="#ccccbe" points="191,80 183,130 163,130" stroke="none" /><polygon fill="#e0e0d4" points="191,80 209,80 183,130" stroke="none" /><polygon fill="#e0e0d4" points="209,80 200,130 183,130" stroke="none" /><polygon fill="#e0e0d4" points="209,80 225,80 200,130" stroke="none" /><polygon fill="#f0f0e8" points="225,80 219,130 200,130" stroke="none" /><polygon fill="#e0e0d4" points="225,80 241,80 219,130" stroke="none" /><polygon fill="#e0e0d4" points="241,80 239,130 219,130" stroke="none" /><polygon fill="#ccccbe" points="163,130 183,130 163,185" stroke="none" /><polygon fill="#ccccbe" points="183,130 179,185 163,185" stroke="none" /><polygon fill="#e0e0d4" points="183,130 200,130 179,185" stroke="none" /><polygon fill="#e0e0d4" points="200,130 197,185 179,185" stroke="none" /><polygon fill="#e0e0d4" points="200,130 219,130 197,185" stroke="none" /><polygon fill="#e0e0d4" points="219,130 212,185 197,185" stroke="none" /><polygon fill="#e0e0d4" points="219,130 239,130 212,185" stroke="none" /><polygon fill="#e0e0d4" points="239,130 231,185 212,185" stroke="none" /><polygon fill="#d0a018" points="163,185 179,185 173,248" stroke="none" /><polygon fill="#d0a018" points="179,185 186,248 173,248" stroke="none" /><polygon fill="#f3ca24" points="179,185 197,185 186,248" stroke="none" /><polygon fill="#f3ca24" points="197,185 195,248 186,248" stroke="none" /><polygon fill="#fade5c" points="197,185 212,185 195,248" stroke="none" /><polygon fill="#fade5c" points="212,185 209,248 195,248" stroke="none" /><polygon fill="#f3ca24" points="212,185 231,185 209,248" stroke="none" /><polygon fill="#f3ca24" points="231,185 219,248 209,248" stroke="none" /><polygon fill="#d0a018" points="173,248 186,248 173,318" stroke="none" /><polygon fill="#d0a018" points="186,248 187,318 173,318" stroke="none" /><polygon fill="#d0a018" points="186,248 195,248 187,318" stroke="none" /><polygon fill="#d0a018" points="195,248 200,318 187,318" stroke="none" /><polygon fill="#f3ca24" points="195,248 209,248 200,318" stroke="none" /><polygon fill="#f3ca24" points="209,248 214,318 200,318" stroke="none" /><polygon fill="#d0a018" points="209,248 219,248 214,318" stroke="none" /><polygon fill="#d0a018" points="219,248 226,318 214,318" stroke="none" /><polygon fill="#b48c14" points="173,318 187,318 187,430" stroke="none" /><polygon fill="#b48c14" points="187,318 194,430 187,430" stroke="none" /><polygon fill="#d0a018" points="187,318 200,318 194,430" stroke="none" /><polygon fill="#d0a018" points="200,318 209,430 194,430" stroke="none" /><polygon fill="#b48c14" points="200,318 214,318 209,430" stroke="none" /><polygon fill="#b48c14" points="214,318 223,430 209,430" stroke="none" /><polygon fill="#d0a018" points="214,318 226,318 223,430" stroke="none" /><polygon fill="#d0a018" points="226,318 231,430 223,430" stroke="none" /><line stroke="#b0b0a0" stroke-width="2.5" x1="174" x2="244" y1="192" y2="192" /><line stroke="#b0b0a0" stroke-width="3" x1="172" x2="246" y1="86" y2="86" /><circle cx="177" cy="341" fill="#d0a018" fill-opacity="0.15" r="0.997333143931703" stroke="none" /><circle cx="221" cy="358" fill="#d0a018" fill-opacity="0.15" r="0.7533692725070841" stroke="none" /><circle cx="222" cy="346" fill="#d0a018" fill-opacity="0.15" r="1.1490822670445837" stroke="none" /><circle cx="205" cy="253" fill="#d0a018" fill-opacity="0.15" r="1.4065558874077067" stroke="none" /><circle cx="239" cy="242" fill="#d0a018" fill-opacity="0.15" r="0.8246980004350564" stroke="none" /><circle cx="228" cy="382" fill="#d0a018" fill-opacity="0.15" r="0.5658333373865084" stroke="none" /><circle cx="185" cy="329" fill="#d0a018" fill-opacity="0.15" r="0.5965092302168438" stroke="none" /><circle cx="240" cy="234" fill="#d0a018" fill-opacity="0.15" r="1.4303774421991577" stroke="none" /><polygon fill="#ccccbe" points="271,80 287,80 274,130" stroke="none" /><polygon fill="#ccccbe" points="287,80 294,130 274,130" stroke="none" /><polygon fill="#e0e0d4" points="287,80 304,80 294,130" stroke="none" /><polygon fill="#e0e0d4" points="304,80 313,130 294,130" stroke="none" /><polygon fill="#e0e0d4" points="304,80 320,80 313,130" stroke="none" /><polygon fill="#f0f0e8" points="320,80 329,130 313,130" stroke="none" /><polygon fill="#e0e0d4" points="320,80 336,80 329,130" stroke="none" /><polygon fill="#e0e0d4" points="336,80 350,130 329,130" stroke="none" /><polygon fill="#ccccbe" points="274,130 294,130 284,185" stroke="none" /><polygon fill="#ccccbe" points="294,130 296,185 284,185" stroke="none" /><polygon fill="#e0e0d4" points="294,130 313,130 296,185" stroke="none" /><polygon fill="#e0e0d4" points="313,130 316,185 296,185" stroke="none" /><polygon fill="#e0e0d4" points="313,130 329,130 316,185" stroke="none" /><polygon fill="#e0e0d4" points="329,130 331,185 316,185" stroke="none" /><polygon fill="#e0e0d4" points="329,130 350,130 331,185" stroke="none" /><polygon fill="#e0e0d4" points="350,130 346,185 331,185" stroke="none" /><polygon fill="#d0a018" points="284,185 296,185 290,248" stroke="none" /><polygon fill="#d0a018" points="296,185 302,248 290,248" stroke="none" /><polygon fill="#f3ca24" points="296,185 316,185 302,248" stroke="none" /><polygon fill="#f3ca24" points="316,185 317,248 302,248" stroke="none" /><polygon fill="#fade5c" points="316,185 331,185 317,248" stroke="none" /><polygon fill="#fade5c" points="331,185 325,248 317,248" stroke="none" /><polygon fill="#f3ca24" points="331,185 346,185 325,248" stroke="none" /><polygon fill="#f3ca24" points="346,185 340,248 325,248" stroke="none" /><polygon fill="#d0a018" points="290,248 302,248 282,318" stroke="none" /><polygon fill="#d0a018" points="302,248 297,318 282,318" stroke="none" /><polygon fill="#d0a018" points="302,248 317,248 297,318" stroke="none" /><polygon fill="#d0a018" points="317,248 313,318 297,318" stroke="none" /><polygon fill="#f3ca24" points="317,248 325,248 313,318" stroke="none" /><polygon fill="#f3ca24" points="325,248 325,318 313,318" stroke="none" /><polygon fill="#d0a018" points="325,248 340,248 325,318" stroke="none" /><polygon fill="#d0a018" points="340,248 337,318 325,318" stroke="none" /><polygon fill="#b48c14" points="282,318 297,318 280,430" stroke="none" /><polygon fill="#b48c14" points="297,318 290,430 280,430" stroke="none" /><polygon fill="#d0a018" points="297,318 313,318 290,430" stroke="none" /><polygon fill="#d0a018" points="313,318 304,430 290,430" stroke="none" /><polygon fill="#b48c14" points="313,318 325,318 304,430" stroke="none" /><polygon fill="#b48c14" points="325,318 317,430 304,430" stroke="none" /><polygon fill="#d0a018" points="325,318 337,318 317,430" stroke="none" /><polygon fill="#d0a018" points="337,318 326,430 317,430" stroke="none" /><line stroke="#b0b0a0" stroke-width="2.5" x1="268" x2="338" y1="192" y2="192" /><line stroke="#b0b0a0" stroke-width="3" x1="266" x2="340" y1="86" y2="86" /><circle cx="298" cy="391" fill="#d0a018" fill-opacity="0.15" r="0.7867040244228042" stroke="none" /><circle cx="323" cy="332" fill="#d0a018" fill-opacity="0.15" r="0.729069172688158" stroke="none" /><circle cx="322" cy="228" fill="#d0a018" fill-opacity="0.15" r="1.001169586155151" stroke="none" /><circle cx="336" cy="264" fill="#d0a018" fill-opacity="0.15" r="1.1253864907407762" stroke="none" /><circle cx="312" cy="386" fill="#d0a018" fill-opacity="0.15" r="1.1216621289750126" stroke="none" /><circle cx="288" cy="360" fill="#d0a018" fill-opacity="0.15" r="0.5071033815025372" stroke="none" /><circle cx="336" cy="405" fill="#d0a018" fill-opacity="0.15" r="1.3630075576044796" stroke="none" /><circle cx="279" cy="237" fill="#d0a018" fill-opacity="0.15" r="1.3553198133374367" stroke="none" /><circle cx="313" cy="261" fill="#d0a018" fill-opacity="0.15" r="1.2758509913833427" stroke="none" /><path d="M 203 237 Q 215 243 215 255" fill="none" stroke="#8a6840" stroke-width="1.5" /><path d="M 297 237 Q 309 243 309 255" fill="none" stroke="#8a6840" stroke-width="1.5" /></svg>