<?xml version="1.0" encoding="utf-8" ?>
<svg baseProfile="full" height="512" version="1.1" width="512" xmlns="http://www.w3.org/2000/svg" xmlns:ev="http://www.w3.org/2001/xml-events" xmlns:xlink="http://www.w3.org/1999/xlink"><defs /><polygon fill="#ccccbe" points="145,80 172,80 142,130" stroke="none" /><polygon fill="#ccccbe" points="172,80 171,130 142,130" stroke="none" /><polygon fill="#e0e0d4" points="172,80 198,80 171,130" stroke="none" /><polygon fill="#e0e0d4" points="198,80 197,130 171,130" stroke="none" /><polygon fill="#e0e0d4" points="198,80 225,80 197,130" stroke="none" /><polygon fill="#f0f0e8" points="225,80 225,130 197,130" stroke="none" /><polygon fill="#e0e0d4" points="225,80 252,80 225,130" stroke="none" /><polygon fill="#e0e0d4" points="252,80 258,130 225,130" stroke="none" /><polygon fill="#ccccbe" points="142,130 171,130 146,185" stroke="none" /><polygon fill="#ccccbe" points="171,130 174,185 146,185" stroke="none" /><polygon fill="#e0e0d4" points="171,130 197,130 174,185" stroke="none" /><polygon fill="#e0e0d4" points="197,130 198,185 174,185" stroke="none" /><polygon fill="#e0e0d4" points="197,130 225,130 198,185" stroke="none" /><polygon fill="#e0e0d4" points="225,130 225,185 198,185" stroke="none" /><polygon fill="#e0e0d4" points="225,130 258,130 225,185" stroke="none" /><polygon fill="#e0e0d4" points="258,130 252,185 225,185" stroke="none" /><polygon fill="#d2a41c" points="146,185 174,185 161,248" stroke="none" /><polygon fill="#d2a41c" points="174,185 179,248 161,248" stroke="none" /><polygon fill="#f4cc2c" points="174,185 198,185 179,248" stroke="none" /><polygon fill="#f4cc2c" points="198,185 201,248 179,248" stroke="none" /><polygon fill="#fce062" points="198,185 225,185 201,248" stroke="none" /><polygon fill="#fce062" points="225,185 218,248 201,248" stroke="none" /><polygon fill="#f4cc2c" points="225,185 252,185 218,248" stroke="none" /><polygon fill="#f4cc2c" points="252,185 235,248 218,248" stroke="none" /><polygon fill="#d2a41c" points="161,248 179,248 177,318" stroke="none" /><polygon fill="#d2a41c" points="179,248 187,318 177,318" stroke="none" /><polygon fill="#d2a41c" points="179,248 201,248 187,318" stroke="none" /><polygon fill="#d2a41c" points="201,248 199,318 187,318" stroke="none" /><polygon fill="#f4cc2c" points="201,248 218,248 199,318" stroke="none" /><polygon fill="#f4cc2c" points="218,248 209,318 199,318" stroke="none" /><polygon fill="#d2a41c" points="218,248 235,248 209,318" stroke="none" /><polygon fill="#d2a41c" points="235,248 221,318 209,318" stroke="none" /><polygon fill="#b69018" points="177,318 187,318 178,430" stroke="none" /><polygon fill="#b69018" points="187,318 187,430 178,430" stroke="none" /><polygon fill="#d2a41c" points="187,318 199,318 187,430" stroke="none" /><polygon fill="#d2a41c" points="199,318 199,430 187,430" stroke="none" /><polygon fill="#b69018" points="199,318 209,318 199,430" stroke="none" /><polygon fill="#b69018" points="209,318 210,430 199,430" stroke="none" /><polygon fill="#d2a41c" points="209,318 221,318 210,430" stroke="none" /><polygon fill="#d2a41c" points="221,318 218,430 210,430" stroke="none" /><line stroke="#b0b0a0" stroke-width="2.5" x1="143" x2="255" y1="192" y2="192" /><line stroke="#b0b0a0" stroke-width="3" x1="141" x2="257" y1="86" y2="86" /><path d="M 176 275 Q 181 270 186 275" fill="none" stroke="#d4c0a0" stroke-opacity="0.3" stroke-width="1" /><path d="M 219 370 Q 222 367 225 370" fill="none" stroke="#d4c0a0" stroke-opacity="0.3" stroke-width="1" /><path d="M 173 220 Q 175 218 177 220" fill="none" stroke="#d4c0a0" stroke-opacity="0.3" stroke-width="1" /><path d="M 192 226 Q 196 222 200 226" fill="none" stroke="#d4c0a0" stroke-opacity="0.3" stroke-width="1" /><polygon fill="#ccccbe" points="259,80 285,80 256,130" stroke="none" /><polygon fill="#ccccbe" points="285,80 285,130 256,130" stroke="none" /><polygon fill="#e0e0d4" points="285,80 312,80 285,130" stroke="none" /><polygon fill="#e0e0d4" points="312,80 312,130 285,130" stroke="none" /><polygon fill="#e0e0d4" points="312,80 339,80 312,130" stroke="none" /><polygon fill="#f0f0e8" points="339,80 341,130 312,130" stroke="none" /><polygon fill="#e0e0d4" points="339,80 366,80 341,130" stroke="none" /><polygon fill="#e0e0d4" points="366,80 373,130 341,130" stroke="none" /><polygon fill="#ccccbe" points="256,130 285,130 257,185" stroke="none" /><polygon fill="#ccccbe" points="285,130 288,185 257,185" stroke="none" /><polygon fill="#e0e0d4" points="285,130 312,130 288,185" stroke="none" /><polygon fill="#e0e0d4" points="312,130 314,185 288,185" stroke="none" /><polygon fill="#e0e0d4" points="312,130 341,130 314,185" stroke="none" /><polygon fill="#e0e0d4" points="341,130 342,185 314,185" stroke="none" /><polygon fill="#e0e0d4" points="341,130 373,130 342,185" stroke="none" /><polygon fill="#e0e0d4" points="373,130 368,185 342,185" stroke="none" /><polygon fill="#d2a41c" points="257,185 288,185 274,248" stroke="none" /><polygon fill="#d2a41c" points="288,185 293,248 274,248" stroke="none" /><polygon fill="#f4cc2c" points="288,185 314,185 293,248" stroke="none" /><polygon fill="#f4cc2c" points="314,185 311,248 293,248" stroke="none" /><polygon fill="#fce062" points="314,185 342,185 311,248" stroke="none" /><polygon fill="#fce062" points="342,185 330,248 311,248" stroke="none" /><polygon fill="#f4cc2c" points="342,185 368,185 330,248" stroke="none" /><polygon fill="#f4cc2c" points="368,185 351,248 330,248" stroke="none" /><polygon fill="#d2a41c" points="274,248 293,248 291,318" stroke="none" /><polygon fill="#d2a41c" points="293,248 303,318 291,318" stroke="none" /><polygon fill="#d2a41c" points="293,248 311,248 303,318" stroke="none" /><polygon fill="#d2a41c" points="311,248 312,318 303,318" stroke="none" /><polygon fill="#f4cc2c" points="311,248 330,248 312,318" stroke="none" /><polygon fill="#f4cc2c" points="330,248 325,318 312,318" stroke="none" /><polygon fill="#d2a41c" points="330,248 351,248 325,318" stroke="none" /><polygon fill="#d2a41c" points="351,248 339,318 325,318" stroke="none" /><polygon fill="#b69018" points="291,318 303,318 292,430" stroke="none" /><polygon fill="#b69018" points="303,318 302,430 292,430" stroke="none" /><polygon fill="#d2a41c" points="303,318 312,318 302,430" stroke="none" /><polygon fill="#d2a41c" points="312,318 312,430 302,430" stroke="none" /><polygon fill="#b69018" points="312,318 325,318 312,430" stroke="none" /><polygon fill="#b69018" points="325,318 326,430 312,430" stroke="none" /><polygon fill="#d2a41c" points="325,318 339,318 326,430" stroke="none" /><polygon fill="#d2a41c" points="339,318 334,430 326,430" stroke="none" /><line stroke="#b0b0a0" stroke-width="2.5" x1="257" x2="369" y1="192" y2="192" /><line stroke="#b0b0a0" stroke-width="3" x1="255" x2="371" y1="86" y2="86" /><path d="M 327 389 Q 331 385 335 389" fill="none" stroke="#d4c0a0" stroke-opacity="0.3" stroke-width="1" /><path d="M 283 292 Q 288 287 293 292" fill="none" stroke="#d4c0a0" stroke-opacity="0.3" stroke-width="1" /><path d="M 193 237 Q 205 243 205 255" fill="none" stroke="#8a6840" stroke-width="1.5" /><path d="M 307 237 Q 319 243 319 255" fill="none" stroke="#8a6840" stroke-width="1.5" /><path d="M 149 82 Q 137 100 149 118" fill="none" stroke="#b0b0a0" stroke-width="1.5" /><path d="M 263 82 Q 251 100 263 118" fill="none" stroke="#b0b0a0" stroke-width="1.5" /></svg>