<?xml version="1.0" encoding="utf-8" ?>
<svg baseProfile="full" height="512" version="1.1" width="512" xmlns="http://www.w3.org/2000/svg" xmlns:ev="http://www.w3.org/2001/xml-events" xmlns:xlink="http://www.w3.org/1999/xlink"><defs /><polygon fill="#ccccbe" points="157,80 182,80 153,130" stroke="none" /><polygon fill="#ccccbe" points="182,80 181,130 153,130" stroke="none" /><polygon fill="#e0e0d4" points="182,80 205,80 181,130" stroke="none" /><polygon fill="#e0e0d4" points="205,80 207,130 181,130" stroke="none" /><polygon fill="#e0e0d4" points="205,80 229,80 207,130" stroke="none" /><polygon fill="#f0f0e8" points="229,80 228,130 207,130" stroke="none" /><polygon fill="#e0e0d4" points="229,80 255,80 228,130" stroke="none" /><polygon fill="#e0e0d4" points="255,80 258,130 228,130" stroke="none" /><polygon fill="#ccccbe" points="153,130 181,130 159,185" stroke="none" /><polygon fill="#ccccbe" points="181,130 183,185 159,185" stroke="none" /><polygon fill="#e0e0d4" points="181,130 207,130 183,185" stroke="none" /><polygon fill="#e0e0d4" points="207,130 206,185 183,185" stroke="none" /><polygon fill="#e0e0d4" points="207,130 228,130 206,185" stroke="none" /><polygon fill="#e0e0d4" points="228,130 229,185 206,185" stroke="none" /><polygon fill="#e0e0d4" points="228,130 258,130 229,185" stroke="none" /><polygon fill="#e0e0d4" points="258,130 256,185 229,185" stroke="none" /><polygon fill="#d2a21a" points="159,185 183,185 173,248" stroke="none" /><polygon fill="#d2a21a" points="183,185 192,248 173,248" stroke="none" /><polygon fill="#f4cc2a" points="183,185 206,185 192,248" stroke="none" /><polygon fill="#f4cc2a" points="206,185 208,248 192,248" stroke="none" /><polygon fill="#fbe060" points="206,185 229,185 208,248" stroke="none" /><polygon fill="#fbe060" points="229,185 224,248 208,248" stroke="none" /><polygon fill="#f4cc2a" points="229,185 256,185 224,248" stroke="none" /><polygon fill="#f4cc2a" points="256,185 240,248 224,248" stroke="none" /><polygon fill="#d2a21a" points="173,248 192,248 192,318" stroke="none" /><polygon fill="#d2a21a" points="192,248 200,318 192,318" stroke="none" /><polygon fill="#d2a21a" points="192,248 208,248 200,318" stroke="none" /><polygon fill="#d2a21a" points="208,248 208,318 200,318" stroke="none" /><polygon fill="#f4cc2a" points="208,248 224,248 208,318" stroke="none" /><polygon fill="#f4cc2a" points="224,248 215,318 208,318" stroke="none" /><polygon fill="#d2a21a" points="224,248 240,248 215,318" stroke="none" /><polygon fill="#d2a21a" points="240,248 218,318 215,318" stroke="none" /><polygon fill="#b68e16" points="192,318 200,318 195,430" stroke="none" /><polygon fill="#b68e16" points="200,318 200,430 195,430" stroke="none" /><polygon fill="#d2a21a" points="200,318 208,318 200,430" stroke="none" /><polygon fill="#d2a21a" points="208,318 207,430 200,430" stroke="none" /><polygon fill="#b68e16" points="208,318 215,318 207,430" stroke="none" /><polygon fill="#b68e16" points="215,318 213,430 207,430" stroke="none" /><polygon fill="#d2a21a" points="215,318 218,318 213,430" stroke="none" /><polygon fill="#d2a21a" points="218,318 217,430 213,430" stroke="none" /><line stroke="#b0b0a0" stroke-width="2.5" x1="156" x2="256" y1="192" y2="192" /><line stroke="#b0b0a0" stroke-width="3" x1="154" x2="258" y1="86" y2="86" /><polygon fill="#ccccbe" points="257,80 282,80 254,130" stroke="none" /><polygon fill="#ccccbe" points="282,80 281,130 254,130" stroke="none" /><polygon fill="#e0e0d4" points="282,80 305,80 281,130" stroke="none" /><polygon fill="#e0e0d4" points="305,80 306,130 281,130" stroke="none" /><polygon fill="#e0e0d4" points="305,80 329,80 306,130" stroke="none" /><polygon fill="#f0f0e8" points="329,80 329,130 306,130" stroke="none" /><polygon fill="#e0e0d4" points="329,80 355,80 329,130" stroke="none" /><polygon fill="#e0e0d4" points="355,80 356,130 329,130" stroke="none" /><polygon fill="#ccccbe" points="254,130 281,130 259,185" stroke="none" /><polygon fill="#ccccbe" points="281,130 282,185 259,185" stroke="none" /><polygon fill="#e0e0d4" points="281,130 306,130 282,185" stroke="none" /><polygon fill="#e0e0d4" points="306,130 308,185 282,185" stroke="none" /><polygon fill="#e0e0d4" points="306,130 329,130 308,185" stroke="none" /><polygon fill="#e0e0d4" points="329,130 331,185 308,185" stroke="none" /><polygon fill="#e0e0d4" points="329,130 356,130 331,185" stroke="none" /><polygon fill="#e0e0d4" points="356,130 354,185 331,185" stroke="none" /><polygon fill="#d2a21a" points="259,185 282,185 271,248" stroke="none" /><polygon fill="#d2a21a" points="282,185 288,248 271,248" stroke="none" /><polygon fill="#f4cc2a" points="282,185 308,185 288,248" stroke="none" /><polygon fill="#f4cc2a" points="308,185 307,248 288,248" stroke="none" /><polygon fill="#fbe060" points="308,185 331,185 307,248" stroke="none" /><polygon fill="#fbe060" points="331,185 320,248 307,248" stroke="none" /><polygon fill="#f4cc2a" points="331,185 354,185 320,248" stroke="none" /><polygon fill="#f4cc2a" points="354,185 339,248 320,248" stroke="none" /><polygon fill="#d2a21a" points="271,248 288,248 291,318" stroke="none" /><polygon fill="#d2a21a" points="288,248 299,318 291,318" stroke="none" /><polygon fill="#d2a21a" points="288,248 307,248 299,318" stroke="none" /><polygon fill="#d2a21a" points="307,248 307,318 299,318" stroke="none" /><polygon fill="#f4cc2a" points="307,248 320,248 307,318" stroke="none" /><polygon fill="#f4cc2a" points="320,248 313,318 307,318" stroke="none" /><polygon fill="#d2a21a" points="320,248 339,248 313,318" stroke="none" /><polygon fill="#d2a21a" points="339,248 322,318 313,318" stroke="none" /><polygon fill="#b68e16" points="291,318 299,318 297,430" stroke="none" /><polygon fill="#b68e16" points="299,318 299,430 297,430" stroke="none" /><polygon fill="#d2a21a" points="299,318 307,318 299,430" stroke="none" /><polygon fill="#d2a21a" points="307,318 305,430 299,430" stroke="none" /><polygon fill="#b68e16" points="307,318 313,318 305,430" stroke="none" /><polygon fill="#b68e16" points="313,318 312,430 305,430" stroke="none" /><polygon fill="#d2a21a" points="313,318 322,318 312,430" stroke="none" /><polygon fill="#d2a21a" points="322,318 316,430 312,430" stroke="none" /><line stroke="#b0b0a0" stroke-width="2.5" x1="256" x2="356" y1="192" y2="192" /><line stroke="#b0b0a0" stroke-width="3" x1="254" x2="358" y1="86" y2="86" /><path d="M 162 82 Q 150 100 162 118" fill="none" stroke="#b0b0a0" stroke-width="1.5" /><path d="M 262 82 Q 250 100 262 118" fill="none" stroke="#b0b0a0" stroke-width="1.5" /></svg>