<?xml version="1.0" encoding="utf-8" ?>
<svg baseProfile="full" height="512" version="1.1" width="512" xmlns="http://www.w3.org/2000/svg" xmlns:ev="http://www.w3.org/2001/xml-events" xmlns:xlink="http://www.w3.org/1999/xlink"><defs /><polygon fill="#ccccbe" points="217,80 226,80 216,130" stroke="none" /><polygon fill="#ccccbe" points="226,80 226,130 216,130" stroke="none" /><polygon fill="#e0e0d4" points="226,80 235,80 226,130" stroke="none" /><polygon fill="#e0e0d4" points="235,80 233,130 226,130" stroke="none" /><polygon fill="#e0e0d4" points="235,80 243,80 233,130" stroke="none" /><polygon fill="#f0f0e8" points="243,80 244,130 233,130" stroke="none" /><polygon fill="#e0e0d4" points="243,80 249,80 244,130" stroke="none" /><polygon fill="#e0e0d4" points="249,80 252,130 244,130" stroke="none" /><polygon fill="#ccccbe" points="216,130 226,130 219,185" stroke="none" /><polygon fill="#ccccbe" points="226,130 227,185 219,185" stroke="none" /><polygon fill="#e0e0d4" points="226,130 233,130 227,185" stroke="none" /><polygon fill="#e0e0d4" points="233,130 236,185 227,185" stroke="none" /><polygon fill="#e0e0d4" points="233,130 244,130 236,185" stroke="none" /><polygon fill="#e0e0d4" points="244,130 244,185 236,185" stroke="none" /><polygon fill="#e0e0d4" points="244,130 252,130 244,185" stroke="none" /><polygon fill="#e0e0d4" points="252,130 250,185 244,185" stroke="none" /><polygon fill="#d2a41c" points="219,185 227,185 223,248" stroke="none" /><polygon fill="#d2a41c" points="227,185 231,248 223,248" stroke="none" /><polygon fill="#f4cc2c" points="227,185 236,185 231,248" stroke="none" /><polygon fill="#f4cc2c" points="236,185 236,248 231,248" stroke="none" /><polygon fill="#fce062" points="236,185 244,185 236,248" stroke="none" /><polygon fill="#fce062" points="244,185 241,248 236,248" stroke="none" /><polygon fill="#f4cc2c" points="244,185 250,185 241,248" stroke="none" /><polygon fill="#f4cc2c" points="250,185 243,248 241,248" stroke="none" /><polygon fill="#d2a41c" points="223,248 231,248 219,318" stroke="none" /><polygon fill="#d2a41c" points="231,248 223,318 219,318" stroke="none" /><polygon fill="#d2a41c" points="231,248 236,248 223,318" stroke="none" /><polygon fill="#d2a41c" points="236,248 233,318 223,318" stroke="none" /><polygon fill="#f4cc2c" points="236,248 241,248 233,318" stroke="none" /><polygon fill="#f4cc2c" points="241,248 242,318 233,318" stroke="none" /><polygon fill="#d2a41c" points="241,248 243,248 242,318" stroke="none" /><polygon fill="#d2a41c" points="243,248 250,318 242,318" stroke="none" /><polygon fill="#b69018" points="219,318 223,318 220,430" stroke="none" /><polygon fill="#b69018" points="223,318 224,430 220,430" stroke="none" /><polygon fill="#d2a41c" points="223,318 233,318 224,430" stroke="none" /><polygon fill="#d2a41c" points="233,318 233,430 224,430" stroke="none" /><polygon fill="#b69018" points="233,318 242,318 233,430" stroke="none" /><polygon fill="#b69018" points="242,318 242,430 233,430" stroke="none" /><polygon fill="#d2a41c" points="242,318 250,318 242,430" stroke="none" /><polygon fill="#d2a41c" points="250,318 246,430 242,430" stroke="none" /><line stroke="#b0b0a0" stroke-width="2.5" x1="216" x2="252" y1="192" y2="192" /><line stroke="#b0b0a0" stroke-width="3" x1="214" x2="254" y1="86" y2="86" /><polygon fill="#ccccbe" points="263,80 271,80 257,130" stroke="none" /><polygon fill="#ccccbe" points="271,80 271,130 257,130" stroke="none" /><polygon fill="#e0e0d4" points="271,80 278,80 271,130" stroke="none" /><polygon fill="#e0e0d4" points="278,80 277,130 271,130" stroke="none" /><polygon fill="#e0e0d4" points="278,80 285,80 277,130" stroke="none" /><polygon fill="#f0f0e8" points="285,80 285,130 277,130" stroke="none" /><polygon fill="#e0e0d4" points="285,80 295,80 285,130" stroke="none" /><polygon fill="#e0e0d4" points="295,80 297,130 285,130" stroke="none" /><polygon fill="#ccccbe" points="257,130 271,130 264,185" stroke="none" /><polygon fill="#ccccbe" points="271,130 272,185 264,185" stroke="none" /><polygon fill="#e0e0d4" points="271,130 277,130 272,185" stroke="none" /><polygon fill="#e0e0d4" points="277,130 278,185 272,185" stroke="none" /><polygon fill="#e0e0d4" points="277,130 285,130 278,185" stroke="none" /><polygon fill="#e0e0d4" points="285,130 287,185 278,185" stroke="none" /><polygon fill="#e0e0d4" points="285,130 297,130 287,185" stroke="none" /><polygon fill="#e0e0d4" points="297,130 293,185 287,185" stroke="none" /><polygon fill="#d2a41c" points="264,185 272,185 269,248" stroke="none" /><polygon fill="#d2a41c" points="272,185 272,248 269,248" stroke="none" /><polygon fill="#f4cc2c" points="272,185 278,185 272,248" stroke="none" /><polygon fill="#f4cc2c" points="278,185 278,248 272,248" stroke="none" /><polygon fill="#fce062" points="278,185 287,185 278,248" stroke="none" /><polygon fill="#fce062" points="287,185 281,248 278,248" stroke="none" /><polygon fill="#f4cc2c" points="287,185 293,185 281,248" stroke="none" /><polygon fill="#f4cc2c" points="293,185 288,248 281,248" stroke="none" /><polygon fill="#d2a41c" points="269,248 272,248 262,318" stroke="none" /><polygon fill="#d2a41c" points="272,248 269,318 262,318" stroke="none" /><polygon fill="#d2a41c" points="272,248 278,248 269,318" stroke="none" /><polygon fill="#d2a41c" points="278,248 277,318 269,318" stroke="none" /><polygon fill="#f4cc2c" points="278,248 281,248 277,318" stroke="none" /><polygon fill="#f4cc2c" points="281,248 286,318 277,318" stroke="none" /><polygon fill="#d2a41c" points="281,248 288,248 286,318" stroke="none" /><polygon fill="#d2a41c" points="288,248 294,318 286,318" stroke="none" /><polygon fill="#b69018" points="262,318 269,318 266,430" stroke="none" /><polygon fill="#b69018" points="269,318 269,430 266,430" stroke="none" /><polygon fill="#d2a41c" points="269,318 277,318 269,430" stroke="none" /><polygon fill="#d2a41c" points="277,318 279,430 269,430" stroke="none" /><polygon fill="#b69018" points="277,318 286,318 279,430" stroke="none" /><polygon fill="#b69018" points="286,318 287,430 279,430" stroke="none" /><polygon fill="#d2a41c" points="286,318 294,318 287,430" stroke="none" /><polygon fill="#d2a41c" points="294,318 292,430 287,430" stroke="none" /><line stroke="#b0b0a0" stroke-width="2.5" x1="260" x2="296" y1="192" y2="192" /><line stroke="#b0b0a0" stroke-width="3" x1="258" x2="298" y1="86" y2="86" /></svg>