<?xml version="1.0" encoding="utf-8" ?>
<svg baseProfile="full" height="512" version="1.1" width="512" xmlns="http://www.w3.org/2000/svg" xmlns:ev="http://www.w3.org/2001/xml-events" xmlns:xlink="http://www.w3.org/1999/xlink"><defs /><polygon fill="#ccccbe" points="222,80 227,80 221,130" stroke="none" /><polygon fill="#ccccbe" points="227,80 231,130 221,130" stroke="none" /><polygon fill="#e0e0d4" points="227,80 235,80 231,130" stroke="none" /><polygon fill="#e0e0d4" points="235,80 236,130 231,130" stroke="none" /><polygon fill="#e0e0d4" points="235,80 239,80 236,130" stroke="none" /><polygon fill="#f0f0e8" points="239,80 245,130 236,130" stroke="none" /><polygon fill="#e0e0d4" points="239,80 247,80 245,130" stroke="none" /><polygon fill="#e0e0d4" points="247,80 253,130 245,130" stroke="none" /><polygon fill="#ccccbe" points="221,130 231,130 229,185" stroke="none" /><polygon fill="#ccccbe" points="231,130 232,185 229,185" stroke="none" /><polygon fill="#e0e0d4" points="231,130 236,130 232,185" stroke="none" /><polygon fill="#e0e0d4" points="236,130 240,185 232,185" stroke="none" /><polygon fill="#e0e0d4" points="236,130 245,130 240,185" stroke="none" /><polygon fill="#e0e0d4" points="245,130 246,185 240,185" stroke="none" /><polygon fill="#e0e0d4" points="245,130 253,130 246,185" stroke="none" /><polygon fill="#e0e0d4" points="253,130 254,185 246,185" stroke="none" /><polygon fill="#d6ae34" points="229,185 232,185 232,248" stroke="none" /><polygon fill="#d6ae34" points="232,185 238,248 232,248" stroke="none" /><polygon fill="#f6d244" points="232,185 240,185 238,248" stroke="none" /><polygon fill="#f6d244" points="240,185 242,248 238,248" stroke="none" /><polygon fill="#fee46e" points="240,185 246,185 242,248" stroke="none" /><polygon fill="#fee46e" points="246,185 246,248 242,248" stroke="none" /><polygon fill="#f6d244" points="246,185 254,185 246,248" stroke="none" /><polygon fill="#f6d244" points="254,185 246,248 246,248" stroke="none" /><polygon fill="#d6ae34" points="232,248 238,248 227,318" stroke="none" /><polygon fill="#d6ae34" points="238,248 232,318 227,318" stroke="none" /><polygon fill="#d6ae34" points="238,248 242,248 232,318" stroke="none" /><polygon fill="#d6ae34" points="242,248 238,318 232,318" stroke="none" /><polygon fill="#f6d244" points="242,248 246,248 238,318" stroke="none" /><polygon fill="#f6d244" points="246,248 245,318 238,318" stroke="none" /><polygon fill="#d6ae34" points="246,248 246,248 245,318" stroke="none" /><polygon fill="#d6ae34" points="246,248 249,318 245,318" stroke="none" /><polygon fill="#ba9a28" points="227,318 232,318 227,430" stroke="none" /><polygon fill="#ba9a28" points="232,318 229,430 227,430" stroke="none" /><polygon fill="#d6ae34" points="232,318 238,318 229,430" stroke="none" /><polygon fill="#d6ae34" points="238,318 233,430 229,430" stroke="none" /><polygon fill="#ba9a28" points="238,318 245,318 233,430" stroke="none" /><polygon fill="#ba9a28" points="245,318 240,430 233,430" stroke="none" /><polygon fill="#d6ae34" points="245,318 249,318 240,430" stroke="none" /><polygon fill="#d6ae34" points="249,318 242,430 240,430" stroke="none" /><line stroke="#b0b0a0" stroke-width="2.5" x1="220" x2="248" y1="192" y2="192" /><line stroke="#b0b0a0" stroke-width="3" x1="218" x2="250" y1="86" y2="86" /><path d="M 227 358 Q 231 354 235 358" fill="none" stroke="#d4c0a0" stroke-opacity="0.3" stroke-width="1" /><path d="M 234 218 Q 236 216 238 218" fill="none" stroke="#d4c0a0" stroke-opacity="0.3" stroke-width="1" /><path d="M 236 363 Q 241 358 246 363" fill="none" stroke="#d4c0a0" stroke-opacity="0.3" stroke-width="1" /><path d="M 229 319 Q 231 317 233 319" fill="none" stroke="#d4c0a0" stroke-opacity="0.3" stroke-width="1" /><path d="M 231 378 Q 236 373 241 378" fill="none" stroke="#d4c0a0" stroke-opacity="0.3" stroke-width="1" /><polygon fill="#ccccbe" points="265,80 271,80 257,130" stroke="none" /><polygon fill="#ccccbe" points="271,80 263,130 257,130" stroke="none" /><polygon fill="#e0e0d4" points="271,80 279,80 263,130" stroke="none" /><polygon fill="#e0e0d4" points="279,80 273,130 263,130" stroke="none" /><polygon fill="#e0e0d4" points="279,80 284,80 273,130" stroke="none" /><polygon fill="#f0f0e8" points="284,80 276,130 273,130" stroke="none" /><polygon fill="#e0e0d4" points="284,80 291,80 276,130" stroke="none" /><polygon fill="#e0e0d4" points="291,80 288,130 276,130" stroke="none" /><polygon fill="#ccccbe" points="257,130 263,130 256,185" stroke="none" /><polygon fill="#ccccbe" points="263,130 261,185 256,185" stroke="none" /><polygon fill="#e0e0d4" points="263,130 273,130 261,185" stroke="none" /><polygon fill="#e0e0d4" points="273,130 267,185 261,185" stroke="none" /><polygon fill="#e0e0d4" points="273,130 276,130 267,185" stroke="none" /><polygon fill="#e0e0d4" points="276,130 274,185 267,185" stroke="none" /><polygon fill="#e0e0d4" points="276,130 288,130 274,185" stroke="none" /><polygon fill="#e0e0d4" points="288,130 281,185 274,185" stroke="none" /><polygon fill="#d6ae34" points="256,185 261,185 262,248" stroke="none" /><polygon fill="#d6ae34" points="261,185 266,248 262,248" stroke="none" /><polygon fill="#f6d244" points="261,185 267,185 266,248" stroke="none" /><polygon fill="#f6d244" points="267,185 270,248 266,248" stroke="none" /><polygon fill="#fee46e" points="267,185 274,185 270,248" stroke="none" /><polygon fill="#fee46e" points="274,185 271,248 270,248" stroke="none" /><polygon fill="#f6d244" points="274,185 281,185 271,248" stroke="none" /><polygon fill="#f6d244" points="281,185 276,248 271,248" stroke="none" /><polygon fill="#d6ae34" points="262,248 266,248 261,318" stroke="none" /><polygon fill="#d6ae34" points="266,248 263,318 261,318" stroke="none" /><polygon fill="#d6ae34" points="266,248 270,248 263,318" stroke="none" /><polygon fill="#d6ae34" points="270,248 272,318 263,318" stroke="none" /><polygon fill="#f6d244" points="270,248 271,248 272,318" stroke="none" /><polygon fill="#f6d244" points="271,248 278,318 272,318" stroke="none" /><polygon fill="#d6ae34" points="271,248 276,248 278,318" stroke="none" /><polygon fill="#d6ae34" points="276,248 285,318 278,318" stroke="none" /><polygon fill="#ba9a28" points="261,318 263,318 270,430" stroke="none" /><polygon fill="#ba9a28" points="263,318 273,430 270,430" stroke="none" /><polygon fill="#d6ae34" points="263,318 272,318 273,430" stroke="none" /><polygon fill="#d6ae34" points="272,318 277,430 273,430" stroke="none" /><polygon fill="#ba9a28" points="272,318 278,318 277,430" stroke="none" /><polygon fill="#ba9a28" points="278,318 285,430 277,430" stroke="none" /><polygon fill="#d6ae34" points="278,318 285,318 285,430" stroke="none" /><polygon fill="#d6ae34" points="285,318 286,430 285,430" stroke="none" /><line stroke="#b0b0a0" stroke-width="2.5" x1="264" x2="292" y1="192" y2="192" /><line stroke="#b0b0a0" stroke-width="3" x1="262" x2="294" y1="86" y2="86" /><path d="M 276 259 Q 281 254 286 259" fill="none" stroke="#d4c0a0" stroke-opacity="0.3" stroke-width="1" /><path d="M 274 402 Q 277 399 280 402" fill="none" stroke="#d4c0a0" stroke-opacity="0.3" stroke-width="1" /></svg>