<?xml version="1.0" encoding="utf-8" ?>
<svg baseProfile="full" height="512" version="1.1" width="512" xmlns="http://www.w3.org/2000/svg" xmlns:ev="http://www.w3.org/2001/xml-events" xmlns:xlink="http://www.w3.org/1999/xlink"><defs /><polygon fill="#ccccbe" points="202,80 214,80 201,130" stroke="none" /><polygon fill="#ccccbe" points="214,80 217,130 201,130" stroke="none" /><polygon fill="#e0e0d4" points="214,80 228,80 217,130" stroke="none" /><polygon fill="#e0e0d4" points="228,80 231,130 217,130" stroke="none" /><polygon fill="#e0e0d4" points="228,80 240,80 231,130" stroke="none" /><polygon fill="#f0f0e8" points="240,80 243,130 231,130" stroke="none" /><polygon fill="#e0e0d4" points="240,80 255,80 243,130" stroke="none" /><polygon fill="#e0e0d4" points="255,80 265,130 243,130" stroke="none" /><polygon fill="#ccccbe" points="201,130 217,130 208,185" stroke="none" /><polygon fill="#ccccbe" points="217,130 222,185 208,185" stroke="none" /><polygon fill="#e0e0d4" points="217,130 231,130 222,185" stroke="none" /><polygon fill="#e0e0d4" points="231,130 234,185 222,185" stroke="none" /><polygon fill="#e0e0d4" points="231,130 243,130 234,185" stroke="none" /><polygon fill="#e0e0d4" points="243,130 246,185 234,185" stroke="none" /><polygon fill="#e0e0d4" points="243,130 265,130 246,185" stroke="none" /><polygon fill="#e0e0d4" points="265,130 262,185 246,185" stroke="none" /><polygon fill="#d6ae34" points="208,185 222,185 216,248" stroke="none" /><polygon fill="#d6ae34" points="222,185 225,248 216,248" stroke="none" /><polygon fill="#f6d244" points="222,185 234,185 225,248" stroke="none" /><polygon fill="#f6d244" points="234,185 233,248 225,248" stroke="none" /><polygon fill="#fee46e" points="234,185 246,185 233,248" stroke="none" /><polygon fill="#fee46e" points="246,185 241,248 233,248" stroke="none" /><polygon fill="#f6d244" points="246,185 262,185 241,248" stroke="none" /><polygon fill="#f6d244" points="262,185 251,248 241,248" stroke="none" /><polygon fill="#d6ae34" points="216,248 225,248 209,318" stroke="none" /><polygon fill="#d6ae34" points="225,248 220,318 209,318" stroke="none" /><polygon fill="#d6ae34" points="225,248 233,248 220,318" stroke="none" /><polygon fill="#d6ae34" points="233,248 234,318 220,318" stroke="none" /><polygon fill="#f6d244" points="233,248 241,248 234,318" stroke="none" /><polygon fill="#f6d244" points="241,248 241,318 234,318" stroke="none" /><polygon fill="#d6ae34" points="241,248 251,248 241,318" stroke="none" /><polygon fill="#d6ae34" points="251,248 252,318 241,318" stroke="none" /><polygon fill="#ba9a28" points="209,318 220,318 210,430" stroke="none" /><polygon fill="#ba9a28" points="220,318 217,430 210,430" stroke="none" /><polygon fill="#d6ae34" points="220,318 234,318 217,430" stroke="none" /><polygon fill="#d6ae34" points="234,318 228,430 217,430" stroke="none" /><polygon fill="#ba9a28" points="234,318 241,318 228,430" stroke="none" /><polygon fill="#ba9a28" points="241,318 237,430 228,430" stroke="none" /><polygon fill="#d6ae34" points="241,318 252,318 237,430" stroke="none" /><polygon fill="#d6ae34" points="252,318 244,430 237,430" stroke="none" /><line stroke="#b0b0a0" stroke-width="2.5" x1="199" x2="257" y1="192" y2="192" /><line stroke="#b0b0a0" stroke-width="3" x1="197" x2="259" y1="86" y2="86" /><ellipse cx="235" cy="387" fill="white" fill-opacity="0.12" rx="3" ry="2" stroke="none" /><ellipse cx="215" cy="337" fill="white" fill-opacity="0.12" rx="3" ry="2" stroke="none" /><ellipse cx="237" cy="309" fill="white" fill-opacity="0.12" rx="3" ry="2" stroke="none" /><ellipse cx="229" cy="200" fill="white" fill-opacity="0.12" rx="3" ry="2" stroke="none" /><polygon fill="#ccccbe" points="256,80 270,80 238,130" stroke="none" /><polygon fill="#ccccbe" points="270,80 259,130 238,130" stroke="none" /><polygon fill="#e0e0d4" points="270,80 283,80 259,130" stroke="none" /><polygon fill="#e0e0d4" points="283,80 269,130 259,130" stroke="none" /><polygon fill="#e0e0d4" points="283,80 297,80 269,130" stroke="none" /><polygon fill="#f0f0e8" points="297,80 286,130 269,130" stroke="none" /><polygon fill="#e0e0d4" points="297,80 311,80 286,130" stroke="none" /><polygon fill="#e0e0d4" points="311,80 301,130 286,130" stroke="none" /><polygon fill="#ccccbe" points="238,130 259,130 238,185" stroke="none" /><polygon fill="#ccccbe" points="259,130 252,185 238,185" stroke="none" /><polygon fill="#e0e0d4" points="259,130 269,130 252,185" stroke="none" /><polygon fill="#e0e0d4" points="269,130 264,185 252,185" stroke="none" /><polygon fill="#e0e0d4" points="269,130 286,130 264,185" stroke="none" /><polygon fill="#e0e0d4" points="286,130 280,185 264,185" stroke="none" /><polygon fill="#e0e0d4" points="286,130 301,130 280,185" stroke="none" /><polygon fill="#e0e0d4" points="301,130 290,185 280,185" stroke="none" /><polygon fill="#d6ae34" points="238,185 252,185 249,248" stroke="none" /><polygon fill="#d6ae34" points="252,185 254,248 249,248" stroke="none" /><polygon fill="#f6d244" points="252,185 264,185 254,248" stroke="none" /><polygon fill="#f6d244" points="264,185 265,248 254,248" stroke="none" /><polygon fill="#fee46e" points="264,185 280,185 265,248" stroke="none" /><polygon fill="#fee46e" points="280,185 272,248 265,248" stroke="none" /><polygon fill="#f6d244" points="280,185 290,185 272,248" stroke="none" /><polygon fill="#f6d244" points="290,185 283,248 272,248" stroke="none" /><polygon fill="#d6ae34" points="249,248 254,248 249,318" stroke="none" /><polygon fill="#d6ae34" points="254,248 258,318 249,318" stroke="none" /><polygon fill="#d6ae34" points="254,248 265,248 258,318" stroke="none" /><polygon fill="#d6ae34" points="265,248 271,318 258,318" stroke="none" /><polygon fill="#f6d244" points="265,248 272,248 271,318" stroke="none" /><polygon fill="#f6d244" points="272,248 283,318 271,318" stroke="none" /><polygon fill="#d6ae34" points="272,248 283,248 283,318" stroke="none" /><polygon fill="#d6ae34" points="283,248 293,318 283,318" stroke="none" /><polygon fill="#ba9a28" points="249,318 258,318 268,430" stroke="none" /><polygon fill="#ba9a28" points="258,318 273,430 268,430" stroke="none" /><polygon fill="#d6ae34" points="258,318 271,318 273,430" stroke="none" /><polygon fill="#d6ae34" points="271,318 283,430 273,430" stroke="none" /><polygon fill="#ba9a28" points="271,318 283,318 283,430" stroke="none" /><polygon fill="#ba9a28" points="283,318 294,430 283,430" stroke="none" /><polygon fill="#d6ae34" points="283,318 293,318 294,430" stroke="none" /><polygon fill="#d6ae34" points="293,318 301,430 294,430" stroke="none" /><line stroke="#b0b0a0" stroke-width="2.5" x1="255" x2="313" y1="192" y2="192" /><line stroke="#b0b0a0" stroke-width="3" x1="253" x2="315" y1="86" y2="86" /><ellipse cx="273" cy="261" fill="white" fill-opacity="0.12" rx="3" ry="2" stroke="none" /><ellipse cx="281" cy="245" fill="white" fill-opacity="0.12" rx="3" ry="2" stroke="none" /><ellipse cx="288" cy="295" fill="white" fill-opacity="0.12" rx="3" ry="2" stroke="none" /><ellipse cx="272" cy="351" fill="white" fill-opacity="0.12" rx="3" ry="2" stroke="none" /><path d="M 222 237 Q 234 243 234 255" fill="none" stroke="#8a6840" stroke-width="1.5" /><path d="M 278 237 Q 290 243 290 255" fill="none" stroke="#8a6840" stroke-width="1.5" /></svg>