<?xml version="1.0" encoding="utf-8" ?>
<svg baseProfile="full" height="512" version="1.1" width="512" xmlns="http://www.w3.org/2000/svg" xmlns:ev="http://www.w3.org/2001/xml-events" xmlns:xlink="http://www.w3.org/1999/xlink"><defs /><polygon fill="#ccccbe" points="175,80 196,80 173,130" stroke="none" /><polygon fill="#ccccbe" points="196,80 194,130 173,130" stroke="none" /><polygon fill="#e0e0d4" points="196,80 216,80 194,130" stroke="none" /><polygon fill="#e0e0d4" points="216,80 215,130 194,130" stroke="none" /><polygon fill="#e0e0d4" points="216,80 234,80 215,130" stroke="none" /><polygon fill="#f0f0e8" points="234,80 234,130 215,130" stroke="none" /><polygon fill="#e0e0d4" points="234,80 253,80 234,130" stroke="none" /><polygon fill="#e0e0d4" points="253,80 257,130 234,130" stroke="none" /><polygon fill="#ccccbe" points="173,130 194,130 174,185" stroke="none" /><polygon fill="#ccccbe" points="194,130 194,185 174,185" stroke="none" /><polygon fill="#e0e0d4" points="194,130 215,130 194,185" stroke="none" /><polygon fill="#e0e0d4" points="215,130 215,185 194,185" stroke="none" /><polygon fill="#e0e0d4" points="215,130 234,130 215,185" stroke="none" /><polygon fill="#e0e0d4" points="234,130 234,185 215,185" stroke="none" /><polygon fill="#e0e0d4" points="234,130 257,130 234,185" stroke="none" /><polygon fill="#e0e0d4" points="257,130 256,185 234,185" stroke="none" /><polygon fill="#d4a520" points="174,185 194,185 186,248" stroke="none" /><polygon fill="#d4a520" points="194,185 202,248 186,248" stroke="none" /><polygon fill="#f5cd30" points="194,185 215,185 202,248" stroke="none" /><polygon fill="#f5cd30" points="215,185 215,248 202,248" stroke="none" /><polygon fill="#fde066" points="215,185 234,185 215,248" stroke="none" /><polygon fill="#fde066" points="234,185 230,248 215,248" stroke="none" /><polygon fill="#f5cd30" points="234,185 256,185 230,248" stroke="none" /><polygon fill="#f5cd30" points="256,185 243,248 230,248" stroke="none" /><polygon fill="#d4a520" points="186,248 202,248 200,318" stroke="none" /><polygon fill="#d4a520" points="202,248 210,318 200,318" stroke="none" /><polygon fill="#d4a520" points="202,248 215,248 210,318" stroke="none" /><polygon fill="#d4a520" points="215,248 215,318 210,318" stroke="none" /><polygon fill="#f5cd30" points="215,248 230,248 215,318" stroke="none" /><polygon fill="#f5cd30" points="230,248 220,318 215,318" stroke="none" /><polygon fill="#d4a520" points="230,248 243,248 220,318" stroke="none" /><polygon fill="#d4a520" points="243,248 227,318 220,318" stroke="none" /><polygon fill="#b8911a" points="200,318 210,318 207,430" stroke="none" /><polygon fill="#b8911a" points="210,318 209,430 207,430" stroke="none" /><polygon fill="#d4a520" points="210,318 215,318 209,430" stroke="none" /><polygon fill="#d4a520" points="215,318 214,430 209,430" stroke="none" /><polygon fill="#b8911a" points="215,318 220,318 214,430" stroke="none" /><polygon fill="#b8911a" points="220,318 220,430 214,430" stroke="none" /><polygon fill="#d4a520" points="220,318 227,318 220,430" stroke="none" /><polygon fill="#d4a520" points="227,318 223,430 220,430" stroke="none" /><line stroke="#b0b0a0" stroke-width="2.5" x1="174" x2="256" y1="192" y2="192" /><line stroke="#b0b0a0" stroke-width="3" x1="172" x2="258" y1="86" y2="86" /><circle cx="189" cy="383" fill="#d4a520" fill-opacity="0.15" r="1.4062194990155972" stroke="none" /><circle cx="213" cy="337" fill="#d4a520" fill-opacity="0.15" r="1.3096858138540404" stroke="none" /><circle cx="178" cy="250" fill="#d4a520" fill-opacity="0.15" r="1.4739499834690881" stroke="none" /><circle cx="211" cy="344" fill="#d4a520" fill-opacity="0.15" r="0.5930978393156403" stroke="none" /><circle cx="237" cy="297" fill="#d4a520" fill-opacity="0.15" r="1.390588597537731" stroke="none" /><circle cx="211" cy="408" fill="#d4a520" fill-opacity="0.15" r="0.6516229431921563" stroke="none" /><circle cx="177" cy="239" fill="#d4a520" fill-opacity="0.15" r="1.0841240416973188" stroke="none" /><circle cx="229" cy="237" fill="#d4a520" fill-opacity="0.15" r="1.2856940608758114" stroke="none" /><circle cx="218" cy="271" fill="#d4a520" fill-opacity="0.15" r="1.0511969379787955" stroke="none" /><circle cx="183" cy="340" fill="#d4a520" fill-opacity="0.15" r="0.8389147713958011" stroke="none" /><circle cx="200" cy="419" fill="#d4a520" fill-opacity="0.15" r="1.4131948325030512" stroke="none" /><circle cx="203" cy="197" fill="#d4a520" fill-opacity="0.15" r="1.3968308274418906" stroke="none" /><polygon fill="#ccccbe" points="259,80 277,80 256,130" stroke="none" /><polygon fill="#ccccbe" points="277,80 277,130 256,130" stroke="none" /><polygon fill="#e0e0d4" points="277,80 297,80 277,130" stroke="none" /><polygon fill="#e0e0d4" points="297,80 295,130 277,130" stroke="none" /><polygon fill="#e0e0d4" points="297,80 316,80 295,130" stroke="none" /><polygon fill="#f0f0e8" points="316,80 317,130 295,130" stroke="none" /><polygon fill="#e0e0d4" points="316,80 336,80 317,130" stroke="none" /><polygon fill="#e0e0d4" points="336,80 339,130 317,130" stroke="none" /><polygon fill="#ccccbe" points="256,130 277,130 257,185" stroke="none" /><polygon fill="#ccccbe" points="277,130 279,185 257,185" stroke="none" /><polygon fill="#e0e0d4" points="277,130 295,130 279,185" stroke="none" /><polygon fill="#e0e0d4" points="295,130 299,185 279,185" stroke="none" /><polygon fill="#e0e0d4" points="295,130 317,130 299,185" stroke="none" /><polygon fill="#e0e0d4" points="317,130 317,185 299,185" stroke="none" /><polygon fill="#e0e0d4" points="317,130 339,130 317,185" stroke="none" /><polygon fill="#e0e0d4" points="339,130 335,185 317,185" stroke="none" /><polygon fill="#d4a520" points="257,185 279,185 272,248" stroke="none" /><polygon fill="#d4a520" points="279,185 282,248 272,248" stroke="none" /><polygon fill="#f5cd30" points="279,185 299,185 282,248" stroke="none" /><polygon fill="#f5cd30" points="299,185 296,248 282,248" stroke="none" /><polygon fill="#fde066" points="299,185 317,185 296,248" stroke="none" /><polygon fill="#fde066" points="317,185 308,248 296,248" stroke="none" /><polygon fill="#f5cd30" points="317,185 335,185 308,248" stroke="none" /><polygon fill="#f5cd30" points="335,185 323,248 308,248" stroke="none" /><polygon fill="#d4a520" points="272,248 282,248 284,318" stroke="none" /><polygon fill="#d4a520" points="282,248 290,318 284,318" stroke="none" /><polygon fill="#d4a520" points="282,248 296,248 290,318" stroke="none" /><polygon fill="#d4a520" points="296,248 295,318 290,318" stroke="none" /><polygon fill="#f5cd30" points="296,248 308,248 295,318" stroke="none" /><polygon fill="#f5cd30" points="308,248 303,318 295,318" stroke="none" /><polygon fill="#d4a520" points="308,248 323,248 303,318" stroke="none" /><polygon fill="#d4a520" points="323,248 308,318 303,318" stroke="none" /><polygon fill="#b8911a" points="284,318 290,318 287,430" stroke="none" /><polygon fill="#b8911a" points="290,318 289,430 287,430" stroke="none" /><polygon fill="#d4a520" points="290,318 295,318 289,430" stroke="none" /><polygon fill="#d4a520" points="295,318 298,430 289,430" stroke="none" /><polygon fill="#b8911a" points="295,318 303,318 298,430" stroke="none" /><polygon fill="#b8911a" points="303,318 303,430 298,430" stroke="none" /><polygon fill="#d4a520" points="303,318 308,318 303,430" stroke="none" /><polygon fill="#d4a520" points="308,318 306,430 303,430" stroke="none" /><line stroke="#b0b0a0" stroke-width="2.5" x1="256" x2="338" y1="192" y2="192" /><line stroke="#b0b0a0" stroke-width="3" x1="254" x2="340" y1="86" y2="86" /><circle cx="325" cy="291" fill="#d4a520" fill-opacity="0.15" r="1.4823972341946834" stroke="none" /><circle cx="261" cy="396" fill="#d4a520" fill-opacity="0.15" r="1.2122536466002822" stroke="none" /><circle cx="300" cy="259" fill="#d4a520" fill-opacity="0.15" r="0.6304459226815361" stroke="none" /><circle cx="333" cy="410" fill="#d4a520" fill-opacity="0.15" r="1.1840655651701275" stroke="none" /><circle cx="284" cy="359" fill="#d4a520" fill-opacity="0.15" r="1.4564326807784473" stroke="none" /><circle cx="327" cy="271" fill="#d4a520" fill-opacity="0.15" r="1.1673768527670656" stroke="none" /><circle cx="267" cy="261" fill="#d4a520" fill-opacity="0.15" r="0.565582107945548" stroke="none" /><path d="M 180 82 Q 168 100 180 118" fill="none" stroke="#b0b0a0" stroke-width="1.5" /><path d="M 262 82 Q 250 100 262 118" fill="none" stroke="#b0b0a0" stroke-width="1.5" /></svg>