<?xml version="1.0" encoding="utf-8" ?>
<svg baseProfile="full" height="512" version="1.1" width="512" xmlns="http://www.w3.org/2000/svg" xmlns:ev="http://www.w3.org/2001/xml-events" xmlns:xlink="http://www.w3.org/1999/xlink"><defs /><polygon fill="#ccccbe" points="169,80 189,80 164,130" stroke="none" /><polygon fill="#ccccbe" points="189,80 189,130 164,130" stroke="none" /><polygon fill="#e0e0d4" points="189,80 210,80 189,130" stroke="none" /><polygon fill="#e0e0d4" points="210,80 212,130 189,130" stroke="none" /><polygon fill="#e0e0d4" points="210,80 229,80 212,130" stroke="none" /><polygon fill="#f0f0e8" points="229,80 228,130 212,130" stroke="none" /><polygon fill="#e0e0d4" points="229,80 252,80 228,130" stroke="none" /><polygon fill="#e0e0d4" points="252,80 253,130 228,130" stroke="none" /><polygon fill="#ccccbe" points="164,130 189,130 167,185" stroke="none" /><polygon fill="#ccccbe" points="189,130 188,185 167,185" stroke="none" /><polygon fill="#e0e0d4" points="189,130 212,130 188,185" stroke="none" /><polygon fill="#e0e0d4" points="212,130 209,185 188,185" stroke="none" /><polygon fill="#e0e0d4" points="212,130 228,130 209,185" stroke="none" /><polygon fill="#e0e0d4" points="228,130 228,185 209,185" stroke="none" /><polygon fill="#e0e0d4" points="228,130 253,130 228,185" stroke="none" /><polygon fill="#e0e0d4" points="253,130 250,185 228,185" stroke="none" /><polygon fill="#d4ac30" points="167,185 188,185 181,248" stroke="none" /><polygon fill="#d4ac30" points="188,185 195,248 181,248" stroke="none" /><polygon fill="#f5d040" points="188,185 209,185 195,248" stroke="none" /><polygon fill="#f5d040" points="209,185 212,248 195,248" stroke="none" /><polygon fill="#fde26e" points="209,185 228,185 212,248" stroke="none" /><polygon fill="#fde26e" points="228,185 223,248 212,248" stroke="none" /><polygon fill="#f5d040" points="228,185 250,185 223,248" stroke="none" /><polygon fill="#f5d040" points="250,185 240,248 223,248" stroke="none" /><polygon fill="#d4ac30" points="181,248 195,248 197,318" stroke="none" /><polygon fill="#d4ac30" points="195,248 204,318 197,318" stroke="none" /><polygon fill="#d4ac30" points="195,248 212,248 204,318" stroke="none" /><polygon fill="#d4ac30" points="212,248 208,318 204,318" stroke="none" /><polygon fill="#f5d040" points="212,248 223,248 208,318" stroke="none" /><polygon fill="#f5d040" points="223,248 216,318 208,318" stroke="none" /><polygon fill="#d4ac30" points="223,248 240,248 216,318" stroke="none" /><polygon fill="#d4ac30" points="240,248 222,318 216,318" stroke="none" /><polygon fill="#b89824" points="197,318 204,318 201,430" stroke="none" /><polygon fill="#b89824" points="204,318 203,430 201,430" stroke="none" /><polygon fill="#d4ac30" points="204,318 208,318 203,430" stroke="none" /><polygon fill="#d4ac30" points="208,318 211,430 203,430" stroke="none" /><polygon fill="#b89824" points="208,318 216,318 211,430" stroke="none" /><polygon fill="#b89824" points="216,318 217,430 211,430" stroke="none" /><polygon fill="#d4ac30" points="216,318 222,318 217,430" stroke="none" /><polygon fill="#d4ac30" points="222,318 221,430 217,430" stroke="none" /><line stroke="#b0b0a0" stroke-width="2.5" x1="167" x2="253" y1="192" y2="192" /><line stroke="#b0b0a0" stroke-width="3" x1="165" x2="255" y1="86" y2="86" /><polygon fill="#ccccbe" points="262,80 280,80 259,130" stroke="none" /><polygon fill="#ccccbe" points="280,80 283,130 259,130" stroke="none" /><polygon fill="#e0e0d4" points="280,80 301,80 283,130" stroke="none" /><polygon fill="#e0e0d4" points="301,80 301,130 283,130" stroke="none" /><polygon fill="#e0e0d4" points="301,80 322,80 301,130" stroke="none" /><polygon fill="#f0f0e8" points="322,80 324,130 301,130" stroke="none" /><polygon fill="#e0e0d4" points="322,80 343,80 324,130" stroke="none" /><polygon fill="#e0e0d4" points="343,80 349,130 324,130" stroke="none" /><polygon fill="#ccccbe" points="259,130 283,130 262,185" stroke="none" /><polygon fill="#ccccbe" points="283,130 280,185 262,185" stroke="none" /><polygon fill="#e0e0d4" points="283,130 301,130 280,185" stroke="none" /><polygon fill="#e0e0d4" points="301,130 303,185 280,185" stroke="none" /><polygon fill="#e0e0d4" points="301,130 324,130 303,185" stroke="none" /><polygon fill="#e0e0d4" points="324,130 322,185 303,185" stroke="none" /><polygon fill="#e0e0d4" points="324,130 349,130 322,185" stroke="none" /><polygon fill="#e0e0d4" points="349,130 343,185 322,185" stroke="none" /><polygon fill="#d4ac30" points="262,185 280,185 274,248" stroke="none" /><polygon fill="#d4ac30" points="280,185 290,248 274,248" stroke="none" /><polygon fill="#f5d040" points="280,185 303,185 290,248" stroke="none" /><polygon fill="#f5d040" points="303,185 304,248 290,248" stroke="none" /><polygon fill="#fde26e" points="303,185 322,185 304,248" stroke="none" /><polygon fill="#fde26e" points="322,185 314,248 304,248" stroke="none" /><polygon fill="#f5d040" points="322,185 343,185 314,248" stroke="none" /><polygon fill="#f5d040" points="343,185 330,248 314,248" stroke="none" /><polygon fill="#d4ac30" points="274,248 290,248 289,318" stroke="none" /><polygon fill="#d4ac30" points="290,248 296,318 289,318" stroke="none" /><polygon fill="#d4ac30" points="290,248 304,248 296,318" stroke="none" /><polygon fill="#d4ac30" points="304,248 300,318 296,318" stroke="none" /><polygon fill="#f5d040" points="304,248 314,248 300,318" stroke="none" /><polygon fill="#f5d040" points="314,248 310,318 300,318" stroke="none" /><polygon fill="#d4ac30" points="314,248 330,248 310,318" stroke="none" /><polygon fill="#d4ac30" points="330,248 317,318 310,318" stroke="none" /><polygon fill="#b89824" points="289,318 296,318 291,430" stroke="none" /><polygon fill="#b89824" points="296,318 295,430 291,430" stroke="none" /><polygon fill="#d4ac30" points="296,318 300,318 295,430" stroke="none" /><polygon fill="#d4ac30" points="300,318 302,430 295,430" stroke="none" /><polygon fill="#b89824" points="300,318 310,318 302,430" stroke="none" /><polygon fill="#b89824" points="310,318 308,430 302,430" stroke="none" /><polygon fill="#d4ac30" points="310,318 317,318 308,430" stroke="none" /><polygon fill="#d4ac30" points="317,318 311,430 308,430" stroke="none" /><line stroke="#b0b0a0" stroke-width="2.5" x1="259" x2="345" y1="192" y2="192" /><line stroke="#b0b0a0" stroke-width="3" x1="257" x2="347" y1="86" y2="86" /><path d="M 173 82 Q 161 100 173 118" fill="none" stroke="#b0b0a0" stroke-width="1.5" /><path d="M 265 82 Q 253 100 265 118" fill="none" stroke="#b0b0a0" stroke-width="1.5" /></svg>