<?xml version="1.0" encoding="utf-8" ?>
<svg baseProfile="full" height="512" version="1.1" width="512" xmlns="http://www.w3.org/2000/svg" xmlns:ev="http://www.w3.org/2001/xml-events" xmlns:xlink="http://www.w3.org/1999/xlink"><defs /><polygon fill="#ccccbe" points="179,80 200,80 177,130" stroke="none" /><polygon fill="#ccccbe" points="200,80 200,130 177,130" stroke="none" /><polygon fill="#e0e0d4" points="200,80 220,80 200,130" stroke="none" /><polygon fill="#e0e0d4" points="220,80 218,130 200,130" stroke="none" /><polygon fill="#e0e0d4" points="220,80 241,80 218,130" stroke="none" /><polygon fill="#f0f0e8" points="241,80 241,130 218,130" stroke="none" /><polygon fill="#e0e0d4" points="241,80 259,80 241,130" stroke="none" /><polygon fill="#e0e0d4" points="259,80 264,130 241,130" stroke="none" /><polygon fill="#ccccbe" points="177,130 200,130 182,185" stroke="none" /><polygon fill="#ccccbe" points="200,130 199,185 182,185" stroke="none" /><polygon fill="#e0e0d4" points="200,130 218,130 199,185" stroke="none" /><polygon fill="#e0e0d4" points="218,130 219,185 199,185" stroke="none" /><polygon fill="#e0e0d4" points="218,130 241,130 219,185" stroke="none" /><polygon fill="#e0e0d4" points="241,130 241,185 219,185" stroke="none" /><polygon fill="#e0e0d4" points="241,130 264,130 241,185" stroke="none" /><polygon fill="#e0e0d4" points="264,130 259,185 241,185" stroke="none" /><polygon fill="#d6ae34" points="182,185 199,185 191,248" stroke="none" /><polygon fill="#d6ae34" points="199,185 204,248 191,248" stroke="none" /><polygon fill="#f6d244" points="199,185 219,185 204,248" stroke="none" /><polygon fill="#f6d244" points="219,185 219,248 204,248" stroke="none" /><polygon fill="#fee46e" points="219,185 241,185 219,248" stroke="none" /><polygon fill="#fee46e" points="241,185 234,248 219,248" stroke="none" /><polygon fill="#f6d244" points="241,185 259,185 234,248" stroke="none" /><polygon fill="#f6d244" points="259,185 247,248 234,248" stroke="none" /><polygon fill="#d6ae34" points="191,248 204,248 205,318" stroke="none" /><polygon fill="#d6ae34" points="204,248 214,318 205,318" stroke="none" /><polygon fill="#d6ae34" points="204,248 219,248 214,318" stroke="none" /><polygon fill="#d6ae34" points="219,248 218,318 214,318" stroke="none" /><polygon fill="#f6d244" points="219,248 234,248 218,318" stroke="none" /><polygon fill="#f6d244" points="234,248 226,318 218,318" stroke="none" /><polygon fill="#d6ae34" points="234,248 247,248 226,318" stroke="none" /><polygon fill="#d6ae34" points="247,248 233,318 226,318" stroke="none" /><polygon fill="#ba9a28" points="205,318 214,318 210,430" stroke="none" /><polygon fill="#ba9a28" points="214,318 212,430 210,430" stroke="none" /><polygon fill="#d6ae34" points="214,318 218,318 212,430" stroke="none" /><polygon fill="#d6ae34" points="218,318 221,430 212,430" stroke="none" /><polygon fill="#ba9a28" points="218,318 226,318 221,430" stroke="none" /><polygon fill="#ba9a28" points="226,318 226,430 221,430" stroke="none" /><polygon fill="#d6ae34" points="226,318 233,318 226,430" stroke="none" /><polygon fill="#d6ae34" points="233,318 228,430 226,430" stroke="none" /><line stroke="#b0b0a0" stroke-width="2.5" x1="178" x2="262" y1="192" y2="192" /><line stroke="#b0b0a0" stroke-width="3" x1="176" x2="264" y1="86" y2="86" /><ellipse cx="225" cy="302" fill="white" fill-opacity="0.12" rx="3" ry="2" stroke="none" /><ellipse cx="217" cy="299" fill="white" fill-opacity="0.12" rx="3" ry="2" stroke="none" /><ellipse cx="233" cy="258" fill="white" fill-opacity="0.12" rx="3" ry="2" stroke="none" /><ellipse cx="219" cy="223" fill="white" fill-opacity="0.12" rx="3" ry="2" stroke="none" /><ellipse cx="213" cy="222" fill="white" fill-opacity="0.12" rx="3" ry="2" stroke="none" /><polygon fill="#ccccbe" points="252,80 271,80 248,130" stroke="none" /><polygon fill="#ccccbe" points="271,80 270,130 248,130" stroke="none" /><polygon fill="#e0e0d4" points="271,80 292,80 270,130" stroke="none" /><polygon fill="#e0e0d4" points="292,80 291,130 270,130" stroke="none" /><polygon fill="#e0e0d4" points="292,80 311,80 291,130" stroke="none" /><polygon fill="#f0f0e8" points="311,80 314,130 291,130" stroke="none" /><polygon fill="#e0e0d4" points="311,80 332,80 314,130" stroke="none" /><polygon fill="#e0e0d4" points="332,80 338,130 314,130" stroke="none" /><polygon fill="#ccccbe" points="248,130 270,130 252,185" stroke="none" /><polygon fill="#ccccbe" points="270,130 271,185 252,185" stroke="none" /><polygon fill="#e0e0d4" points="270,130 291,130 271,185" stroke="none" /><polygon fill="#e0e0d4" points="291,130 291,185 271,185" stroke="none" /><polygon fill="#e0e0d4" points="291,130 314,130 291,185" stroke="none" /><polygon fill="#e0e0d4" points="314,130 310,185 291,185" stroke="none" /><polygon fill="#e0e0d4" points="314,130 338,130 310,185" stroke="none" /><polygon fill="#e0e0d4" points="338,130 331,185 310,185" stroke="none" /><polygon fill="#d6ae34" points="252,185 271,185 262,248" stroke="none" /><polygon fill="#d6ae34" points="271,185 277,248 262,248" stroke="none" /><polygon fill="#f6d244" points="271,185 291,185 277,248" stroke="none" /><polygon fill="#f6d244" points="291,185 293,248 277,248" stroke="none" /><polygon fill="#fee46e" points="291,185 310,185 293,248" stroke="none" /><polygon fill="#fee46e" points="310,185 305,248 293,248" stroke="none" /><polygon fill="#f6d244" points="310,185 331,185 305,248" stroke="none" /><polygon fill="#f6d244" points="331,185 318,248 305,248" stroke="none" /><polygon fill="#d6ae34" points="262,248 277,248 279,318" stroke="none" /><polygon fill="#d6ae34" points="277,248 287,318 279,318" stroke="none" /><polygon fill="#d6ae34" points="277,248 293,248 287,318" stroke="none" /><polygon fill="#d6ae34" points="293,248 294,318 287,318" stroke="none" /><polygon fill="#f6d244" points="293,248 305,248 294,318" stroke="none" /><polygon fill="#f6d244" points="305,248 297,318 294,318" stroke="none" /><polygon fill="#d6ae34" points="305,248 318,248 297,318" stroke="none" /><polygon fill="#d6ae34" points="318,248 307,318 297,318" stroke="none" /><polygon fill="#ba9a28" points="279,318 287,318 282,430" stroke="none" /><polygon fill="#ba9a28" points="287,318 284,430 282,430" stroke="none" /><polygon fill="#d6ae34" points="287,318 294,318 284,430" stroke="none" /><polygon fill="#d6ae34" points="294,318 291,430 284,430" stroke="none" /><polygon fill="#ba9a28" points="294,318 297,318 291,430" stroke="none" /><polygon fill="#ba9a28" points="297,318 297,430 291,430" stroke="none" /><polygon fill="#d6ae34" points="297,318 307,318 297,430" stroke="none" /><polygon fill="#d6ae34" points="307,318 300,430 297,430" stroke="none" /><line stroke="#b0b0a0" stroke-width="2.5" x1="250" x2="334" y1="192" y2="192" /><line stroke="#b0b0a0" stroke-width="3" x1="248" x2="336" y1="86" y2="86" /><ellipse cx="285" cy="233" fill="white" fill-opacity="0.12" rx="3" ry="2" stroke="none" /><ellipse cx="293" cy="416" fill="white" fill-opacity="0.12" rx="3" ry="2" stroke="none" /><path d="M 184 82 Q 172 100 184 118" fill="none" stroke="#b0b0a0" stroke-width="1.5" /><path d="M 256 82 Q 244 100 256 118" fill="none" stroke="#b0b0a0" stroke-width="1.5" /></svg>