<?xml version="1.0" encoding="utf-8" ?>
<svg baseProfile="full" height="512" version="1.1" width="512" xmlns="http://www.w3.org/2000/svg" xmlns:ev="http://www.w3.org/2001/xml-events" xmlns:xlink="http://www.w3.org/1999/xlink"><defs /><polygon fill="#ccccbe" points="212,80 224,80 198,130" stroke="none" /><polygon fill="#ccccbe" points="224,80 212,130 198,130" stroke="none" /><polygon fill="#e0e0d4" points="224,80 235,80 212,130" stroke="none" /><polygon fill="#e0e0d4" points="235,80 227,130 212,130" stroke="none" /><polygon fill="#e0e0d4" points="235,80 246,80 227,130" stroke="none" /><polygon fill="#f0f0e8" points="246,80 235,130 227,130" stroke="none" /><polygon fill="#e0e0d4" points="246,80 255,80 235,130" stroke="none" /><polygon fill="#e0e0d4" points="255,80 253,130 235,130" stroke="none" /><polygon fill="#ccccbe" points="198,130 212,130 198,185" stroke="none" /><polygon fill="#ccccbe" points="212,130 209,185 198,185" stroke="none" /><polygon fill="#e0e0d4" points="212,130 227,130 209,185" stroke="none" /><polygon fill="#e0e0d4" points="227,130 220,185 209,185" stroke="none" /><polygon fill="#e0e0d4" points="227,130 235,130 220,185" stroke="none" /><polygon fill="#e0e0d4" points="235,130 232,185 220,185" stroke="none" /><polygon fill="#e0e0d4" points="235,130 253,130 232,185" stroke="none" /><polygon fill="#e0e0d4" points="253,130 245,185 232,185" stroke="none" /><polygon fill="#d6ae34" points="198,185 209,185 205,248" stroke="none" /><polygon fill="#d6ae34" points="209,185 216,248 205,248" stroke="none" /><polygon fill="#f6d244" points="209,185 220,185 216,248" stroke="none" /><polygon fill="#f6d244" points="220,185 220,248 216,248" stroke="none" /><polygon fill="#fee46e" points="220,185 232,185 220,248" stroke="none" /><polygon fill="#fee46e" points="232,185 230,248 220,248" stroke="none" /><polygon fill="#f6d244" points="232,185 245,185 230,248" stroke="none" /><polygon fill="#f6d244" points="245,185 237,248 230,248" stroke="none" /><polygon fill="#d6ae34" points="205,248 216,248 204,318" stroke="none" /><polygon fill="#d6ae34" points="216,248 216,318 204,318" stroke="none" /><polygon fill="#d6ae34" points="216,248 220,248 216,318" stroke="none" /><polygon fill="#d6ae34" points="220,248 224,318 216,318" stroke="none" /><polygon fill="#f6d244" points="220,248 230,248 224,318" stroke="none" /><polygon fill="#f6d244" points="230,248 235,318 224,318" stroke="none" /><polygon fill="#d6ae34" points="230,248 237,248 235,318" stroke="none" /><polygon fill="#d6ae34" points="237,248 248,318 235,318" stroke="none" /><polygon fill="#ba9a28" points="204,318 216,318 217,430" stroke="none" /><polygon fill="#ba9a28" points="216,318 224,430 217,430" stroke="none" /><polygon fill="#d6ae34" points="216,318 224,318 224,430" stroke="none" /><polygon fill="#d6ae34" points="224,318 233,430 224,430" stroke="none" /><polygon fill="#ba9a28" points="224,318 235,318 233,430" stroke="none" /><polygon fill="#ba9a28" points="235,318 243,430 233,430" stroke="none" /><polygon fill="#d6ae34" points="235,318 248,318 243,430" stroke="none" /><polygon fill="#d6ae34" points="248,318 252,430 243,430" stroke="none" /><line stroke="#b0b0a0" stroke-width="2.5" x1="210" x2="258" y1="192" y2="192" /><line stroke="#b0b0a0" stroke-width="3" x1="208" x2="260" y1="86" y2="86" /><path d="M 225 305 Q 228 302 231 305" fill="none" stroke="#d4c0a0" stroke-opacity="0.3" stroke-width="1" /><path d="M 241 358 Q 246 353 251 358" fill="none" stroke="#d4c0a0" stroke-opacity="0.3" stroke-width="1" /><polygon fill="#ccccbe" points="257,80 268,80 263,130" stroke="none" /><polygon fill="#ccccbe" points="268,80 277,130 263,130" stroke="none" /><polygon fill="#e0e0d4" points="268,80 277,80 277,130" stroke="none" /><polygon fill="#e0e0d4" points="277,80 287,130 277,130" stroke="none" /><polygon fill="#e0e0d4" points="277,80 288,80 287,130" stroke="none" /><polygon fill="#f0f0e8" points="288,80 301,130 287,130" stroke="none" /><polygon fill="#e0e0d4" points="288,80 300,80 301,130" stroke="none" /><polygon fill="#e0e0d4" points="300,80 314,130 301,130" stroke="none" /><polygon fill="#ccccbe" points="263,130 277,130 271,185" stroke="none" /><polygon fill="#ccccbe" points="277,130 284,185 271,185" stroke="none" /><polygon fill="#e0e0d4" points="277,130 287,130 284,185" stroke="none" /><polygon fill="#e0e0d4" points="287,130 296,185 284,185" stroke="none" /><polygon fill="#e0e0d4" points="287,130 301,130 296,185" stroke="none" /><polygon fill="#e0e0d4" points="301,130 308,185 296,185" stroke="none" /><polygon fill="#e0e0d4" points="301,130 314,130 308,185" stroke="none" /><polygon fill="#e0e0d4" points="314,130 316,185 308,185" stroke="none" /><polygon fill="#d6ae34" points="271,185 284,185 280,248" stroke="none" /><polygon fill="#d6ae34" points="284,185 290,248 280,248" stroke="none" /><polygon fill="#f6d244" points="284,185 296,185 290,248" stroke="none" /><polygon fill="#f6d244" points="296,185 296,248 290,248" stroke="none" /><polygon fill="#fee46e" points="296,185 308,185 296,248" stroke="none" /><polygon fill="#fee46e" points="308,185 303,248 296,248" stroke="none" /><polygon fill="#f6d244" points="308,185 316,185 303,248" stroke="none" /><polygon fill="#f6d244" points="316,185 309,248 303,248" stroke="none" /><polygon fill="#d6ae34" points="280,248 290,248 269,318" stroke="none" /><polygon fill="#d6ae34" points="290,248 277,318 269,318" stroke="none" /><polygon fill="#d6ae34" points="290,248 296,248 277,318" stroke="none" /><polygon fill="#d6ae34" points="296,248 290,318 277,318" stroke="none" /><polygon fill="#f6d244" points="296,248 303,248 290,318" stroke="none" /><polygon fill="#f6d244" points="303,248 297,318 290,318" stroke="none" /><polygon fill="#d6ae34" points="303,248 309,248 297,318" stroke="none" /><polygon fill="#d6ae34" points="309,248 312,318 297,318" stroke="none" /><polygon fill="#ba9a28" points="269,318 277,318 260,430" stroke="none" /><polygon fill="#ba9a28" points="277,318 268,430 260,430" stroke="none" /><polygon fill="#d6ae34" points="277,318 290,318 268,430" stroke="none" /><polygon fill="#d6ae34" points="290,318 279,430 268,430" stroke="none" /><polygon fill="#ba9a28" points="290,318 297,318 279,430" stroke="none" /><polygon fill="#ba9a28" points="297,318 288,430 279,430" stroke="none" /><polygon fill="#d6ae34" points="297,318 312,318 288,430" stroke="none" /><polygon fill="#d6ae34" points="312,318 296,430 288,430" stroke="none" /><line stroke="#b0b0a0" stroke-width="2.5" x1="254" x2="302" y1="192" y2="192" /><line stroke="#b0b0a0" stroke-width="3" x1="252" x2="304" y1="86" y2="86" /><path d="M 269 267 Q 274 262 279 267" fill="none" stroke="#d4c0a0" stroke-opacity="0.3" stroke-width="1" /><path d="M 266 258 Q 270 254 274 258" fill="none" stroke="#d4c0a0" stroke-opacity="0.3" stroke-width="1" /><path d="M 288 268 Q 292 264 296 268" fill="none" stroke="#d4c0a0" stroke-opacity="0.3" stroke-width="1" /><path d="M 228 237 Q 240 243 240 255" fill="none" stroke="#8a6840" stroke-width="1.5" /><path d="M 272 237 Q 284 243 284 255" fill="none" stroke="#8a6840" stroke-width="1.5" /></svg>