<?xml version="1.0" encoding="utf-8" ?>
<svg baseProfile="full" height="512" version="1.1" width="512" xmlns="http://www.w3.org/2000/svg" xmlns:ev="http://www.w3.org/2001/xml-events" xmlns:xlink="http://www.w3.org/1999/xlink"><defs /><polygon fill="#ccccbe" points="164,80 186,80 148,130" stroke="none" /><polygon fill="#ccccbe" points="186,80 173,130 148,130" stroke="none" /><polygon fill="#e0e0d4" points="186,80 209,80 173,130" stroke="none" /><polygon fill="#e0e0d4" points="209,80 194,130 173,130" stroke="none" /><polygon fill="#e0e0d4" points="209,80 229,80 194,130" stroke="none" /><polygon fill="#f0f0e8" points="229,80 215,130 194,130" stroke="none" /><polygon fill="#e0e0d4" points="229,80 254,80 215,130" stroke="none" /><polygon fill="#e0e0d4" points="254,80 244,130 215,130" stroke="none" /><polygon fill="#ccccbe" points="148,130 173,130 143,185" stroke="none" /><polygon fill="#ccccbe" points="173,130 166,185 143,185" stroke="none" /><polygon fill="#e0e0d4" points="173,130 194,130 166,185" stroke="none" /><polygon fill="#e0e0d4" points="194,130 187,185 166,185" stroke="none" /><polygon fill="#e0e0d4" points="194,130 215,130 187,185" stroke="none" /><polygon fill="#e0e0d4" points="215,130 208,185 187,185" stroke="none" /><polygon fill="#e0e0d4" points="215,130 244,130 208,185" stroke="none" /><polygon fill="#e0e0d4" points="244,130 233,185 208,185" stroke="none" /><polygon fill="#d6ae34" points="143,185 166,185 157,248" stroke="none" /><polygon fill="#d6ae34" points="166,185 172,248 157,248" stroke="none" /><polygon fill="#f6d244" points="166,185 187,185 172,248" stroke="none" /><polygon fill="#f6d244" points="187,185 186,248 172,248" stroke="none" /><polygon fill="#fee46e" points="187,185 208,185 186,248" stroke="none" /><polygon fill="#fee46e" points="208,185 201,248 186,248" stroke="none" /><polygon fill="#f6d244" points="208,185 233,185 201,248" stroke="none" /><polygon fill="#f6d244" points="233,185 217,248 201,248" stroke="none" /><polygon fill="#d6ae34" points="157,248 172,248 178,318" stroke="none" /><polygon fill="#d6ae34" points="172,248 188,318 178,318" stroke="none" /><polygon fill="#d6ae34" points="172,248 186,248 188,318" stroke="none" /><polygon fill="#d6ae34" points="186,248 195,318 188,318" stroke="none" /><polygon fill="#f6d244" points="186,248 201,248 195,318" stroke="none" /><polygon fill="#f6d244" points="201,248 204,318 195,318" stroke="none" /><polygon fill="#d6ae34" points="201,248 217,248 204,318" stroke="none" /><polygon fill="#d6ae34" points="217,248 213,318 204,318" stroke="none" /><polygon fill="#ba9a28" points="178,318 188,318 195,430" stroke="none" /><polygon fill="#ba9a28" points="188,318 198,430 195,430" stroke="none" /><polygon fill="#d6ae34" points="188,318 195,318 198,430" stroke="none" /><polygon fill="#d6ae34" points="195,318 207,430 198,430" stroke="none" /><polygon fill="#ba9a28" points="195,318 204,318 207,430" stroke="none" /><polygon fill="#ba9a28" points="204,318 216,430 207,430" stroke="none" /><polygon fill="#d6ae34" points="204,318 213,318 216,430" stroke="none" /><polygon fill="#d6ae34" points="213,318 222,430 216,430" stroke="none" /><line stroke="#b0b0a0" stroke-width="2.5" x1="161" x2="255" y1="192" y2="192" /><line stroke="#b0b0a0" stroke-width="3" x1="159" x2="257" y1="86" y2="86" /><ellipse cx="204" cy="330" fill="white" fill-opacity="0.12" rx="3" ry="2" stroke="none" /><ellipse cx="198" cy="333" fill="white" fill-opacity="0.12" rx="3" ry="2" stroke="none" /><ellipse cx="199" cy="279" fill="white" fill-opacity="0.12" rx="3" ry="2" stroke="none" /><ellipse cx="199" cy="320" fill="white" fill-opacity="0.12" rx="3" ry="2" stroke="none" /><ellipse cx="192" cy="378" fill="white" fill-opacity="0.12" rx="3" ry="2" stroke="none" /><polygon fill="#ccccbe" points="260,80 281,80 266,130" stroke="none" /><polygon fill="#ccccbe" points="281,80 293,130 266,130" stroke="none" /><polygon fill="#e0e0d4" points="281,80 304,80 293,130" stroke="none" /><polygon fill="#e0e0d4" points="304,80 316,130 293,130" stroke="none" /><polygon fill="#e0e0d4" points="304,80 326,80 316,130" stroke="none" /><polygon fill="#f0f0e8" points="326,80 338,130 316,130" stroke="none" /><polygon fill="#e0e0d4" points="326,80 348,80 338,130" stroke="none" /><polygon fill="#e0e0d4" points="348,80 368,130 338,130" stroke="none" /><polygon fill="#ccccbe" points="266,130 293,130 279,185" stroke="none" /><polygon fill="#ccccbe" points="293,130 300,185 279,185" stroke="none" /><polygon fill="#e0e0d4" points="293,130 316,130 300,185" stroke="none" /><polygon fill="#e0e0d4" points="316,130 323,185 300,185" stroke="none" /><polygon fill="#e0e0d4" points="316,130 338,130 323,185" stroke="none" /><polygon fill="#e0e0d4" points="338,130 345,185 323,185" stroke="none" /><polygon fill="#e0e0d4" points="338,130 368,130 345,185" stroke="none" /><polygon fill="#e0e0d4" points="368,130 368,185 345,185" stroke="none" /><polygon fill="#d6ae34" points="279,185 300,185 294,248" stroke="none" /><polygon fill="#d6ae34" points="300,185 309,248 294,248" stroke="none" /><polygon fill="#f6d244" points="300,185 323,185 309,248" stroke="none" /><polygon fill="#f6d244" points="323,185 322,248 309,248" stroke="none" /><polygon fill="#fee46e" points="323,185 345,185 322,248" stroke="none" /><polygon fill="#fee46e" points="345,185 336,248 322,248" stroke="none" /><polygon fill="#f6d244" points="345,185 368,185 336,248" stroke="none" /><polygon fill="#f6d244" points="368,185 356,248 336,248" stroke="none" /><polygon fill="#d6ae34" points="294,248 309,248 297,318" stroke="none" /><polygon fill="#d6ae34" points="309,248 308,318 297,318" stroke="none" /><polygon fill="#d6ae34" points="309,248 322,248 308,318" stroke="none" /><polygon fill="#d6ae34" points="322,248 318,318 308,318" stroke="none" /><polygon fill="#f6d244" points="322,248 336,248 318,318" stroke="none" /><polygon fill="#f6d244" points="336,248 326,318 318,318" stroke="none" /><polygon fill="#d6ae34" points="336,248 356,248 326,318" stroke="none" /><polygon fill="#d6ae34" points="356,248 334,318 326,318" stroke="none" /><polygon fill="#ba9a28" points="297,318 308,318 291,430" stroke="none" /><polygon fill="#ba9a28" points="308,318 295,430 291,430" stroke="none" /><polygon fill="#d6ae34" points="308,318 318,318 295,430" stroke="none" /><polygon fill="#d6ae34" points="318,318 303,430 295,430" stroke="none" /><polygon fill="#ba9a28" points="318,318 326,318 303,430" stroke="none" /><polygon fill="#ba9a28" points="326,318 313,430 303,430" stroke="none" /><polygon fill="#d6ae34" points="326,318 334,318 313,430" stroke="none" /><polygon fill="#d6ae34" points="334,318 319,430 313,430" stroke="none" /><line stroke="#b0b0a0" stroke-width="2.5" x1="257" x2="351" y1="192" y2="192" /><line stroke="#b0b0a0" stroke-width="3" x1="255" x2="353" y1="86" y2="86" /><ellipse cx="313" cy="403" fill="white" fill-opacity="0.12" rx="3" ry="2" stroke="none" /><ellipse cx="321" cy="385" fill="white" fill-opacity="0.12" rx="3" ry="2" stroke="none" /><ellipse cx="297" cy="415" fill="white" fill-opacity="0.12" rx="3" ry="2" stroke="none" /><ellipse cx="306" cy="268" fill="white" fill-opacity="0.12" rx="3" ry="2" stroke="none" /><ellipse cx="294" cy="211" fill="white" fill-opacity="0.12" rx="3" ry="2" stroke="none" /><path d="M 202 237 Q 214 243 214 255" fill="none" stroke="#8a6840" stroke-width="1.5" /><path d="M 298 237 Q 310 243 310 255" fill="none" stroke="#8a6840" stroke-width="1.5" /><path d="M 167 82 Q 155 100 167 118" fill="none" stroke="#b0b0a0" stroke-width="1.5" /><path d="M 263 82 Q 251 100 263 118" fill="none" stroke="#b0b0a0" stroke-width="1.5" /></svg>