<?xml version="1.0" encoding="utf-8" ?>
<svg baseProfile="full" height="512" version="1.1" width="512" xmlns="http://www.w3.org/2000/svg" xmlns:ev="http://www.w3.org/2001/xml-events" xmlns:xlink="http://www.w3.org/1999/xlink"><defs /><polygon fill="#ccccbe" points="174,80 194,80 160,130" stroke="none" /><polygon fill="#ccccbe" points="194,80 187,130 160,130" stroke="none" /><polygon fill="#e0e0d4" points="194,80 218,80 187,130" stroke="none" /><polygon fill="#e0e0d4" points="218,80 211,130 187,130" stroke="none" /><polygon fill="#e0e0d4" points="218,80 239,80 211,130" stroke="none" /><polygon fill="#f0f0e8" points="239,80 232,130 211,130" stroke="none" /><polygon fill="#e0e0d4" points="239,80 260,80 232,130" stroke="none" /><polygon fill="#e0e0d4" points="260,80 259,130 232,130" stroke="none" /><polygon fill="#ccccbe" points="160,130 187,130 162,185" stroke="none" /><polygon fill="#ccccbe" points="187,130 183,185 162,185" stroke="none" /><polygon fill="#e0e0d4" points="187,130 211,130 183,185" stroke="none" /><polygon fill="#e0e0d4" points="211,130 207,185 183,185" stroke="none" /><polygon fill="#e0e0d4" points="211,130 232,130 207,185" stroke="none" /><polygon fill="#e0e0d4" points="232,130 230,185 207,185" stroke="none" /><polygon fill="#e0e0d4" points="232,130 259,130 230,185" stroke="none" /><polygon fill="#e0e0d4" points="259,130 251,185 230,185" stroke="none" /><polygon fill="#d0a018" points="162,185 183,185 178,248" stroke="none" /><polygon fill="#d0a018" points="183,185 192,248 178,248" stroke="none" /><polygon fill="#f3ca24" points="183,185 207,185 192,248" stroke="none" /><polygon fill="#f3ca24" points="207,185 205,248 192,248" stroke="none" /><polygon fill="#fade5c" points="207,185 230,185 205,248" stroke="none" /><polygon fill="#fade5c" points="230,185 222,248 205,248" stroke="none" /><polygon fill="#f3ca24" points="230,185 251,185 222,248" stroke="none" /><polygon fill="#f3ca24" points="251,185 238,248 222,248" stroke="none" /><polygon fill="#d0a018" points="178,248 192,248 196,318" stroke="none" /><polygon fill="#d0a018" points="192,248 202,318 196,318" stroke="none" /><polygon fill="#d0a018" points="192,248 205,248 202,318" stroke="none" /><polygon fill="#d0a018" points="205,248 212,318 202,318" stroke="none" /><polygon fill="#f3ca24" points="205,248 222,248 212,318" stroke="none" /><polygon fill="#f3ca24" points="222,248 216,318 212,318" stroke="none" /><polygon fill="#d0a018" points="222,248 238,248 216,318" stroke="none" /><polygon fill="#d0a018" points="238,248 224,318 216,318" stroke="none" /><polygon fill="#b48c14" points="196,318 202,318 205,430" stroke="none" /><polygon fill="#b48c14" points="202,318 208,430 205,430" stroke="none" /><polygon fill="#d0a018" points="202,318 212,318 208,430" stroke="none" /><polygon fill="#d0a018" points="212,318 216,430 208,430" stroke="none" /><polygon fill="#b48c14" points="212,318 216,318 216,430" stroke="none" /><polygon fill="#b48c14" points="216,318 225,430 216,430" stroke="none" /><polygon fill="#d0a018" points="216,318 224,318 225,430" stroke="none" /><polygon fill="#d0a018" points="224,318 228,430 225,430" stroke="none" /><line stroke="#b0b0a0" stroke-width="2.5" x1="171" x2="263" y1="192" y2="192" /><line stroke="#b0b0a0" stroke-width="3" x1="169" x2="265" y1="86" y2="86" /><ellipse cx="227" cy="200" fill="white" fill-opacity="0.12" rx="3" ry="2" stroke="none" /><ellipse cx="238" cy="365" fill="white" fill-opacity="0.12" rx="3" ry="2" stroke="none" /><polygon fill="#ccccbe" points="250,80 274,80 262,130" stroke="none" /><polygon fill="#ccccbe" points="274,80 288,130 262,130" stroke="none" /><polygon fill="#e0e0d4" points="274,80 295,80 288,130" stroke="none" /><polygon fill="#e0e0d4" points="295,80 308,130 288,130" stroke="none" /><polygon fill="#e0e0d4" points="295,80 317,80 308,130" stroke="none" /><polygon fill="#f0f0e8" points="317,80 332,130 308,130" stroke="none" /><polygon fill="#e0e0d4" points="317,80 340,80 332,130" stroke="none" /><polygon fill="#e0e0d4" points="340,80 355,130 332,130" stroke="none" /><polygon fill="#ccccbe" points="262,130 288,130 272,185" stroke="none" /><polygon fill="#ccccbe" points="288,130 296,185 272,185" stroke="none" /><polygon fill="#e0e0d4" points="288,130 308,130 296,185" stroke="none" /><polygon fill="#e0e0d4" points="308,130 316,185 296,185" stroke="none" /><polygon fill="#e0e0d4" points="308,130 332,130 316,185" stroke="none" /><polygon fill="#e0e0d4" points="332,130 340,185 316,185" stroke="none" /><polygon fill="#e0e0d4" points="332,130 355,130 340,185" stroke="none" /><polygon fill="#e0e0d4" points="355,130 360,185 340,185" stroke="none" /><polygon fill="#d0a018" points="272,185 296,185 287,248" stroke="none" /><polygon fill="#d0a018" points="296,185 301,248 287,248" stroke="none" /><polygon fill="#f3ca24" points="296,185 316,185 301,248" stroke="none" /><polygon fill="#f3ca24" points="316,185 317,248 301,248" stroke="none" /><polygon fill="#fade5c" points="316,185 340,185 317,248" stroke="none" /><polygon fill="#fade5c" points="340,185 332,248 317,248" stroke="none" /><polygon fill="#f3ca24" points="340,185 360,185 332,248" stroke="none" /><polygon fill="#f3ca24" points="360,185 347,248 332,248" stroke="none" /><polygon fill="#d0a018" points="287,248 301,248 292,318" stroke="none" /><polygon fill="#d0a018" points="301,248 300,318 292,318" stroke="none" /><polygon fill="#d0a018" points="301,248 317,248 300,318" stroke="none" /><polygon fill="#d0a018" points="317,248 308,318 300,318" stroke="none" /><polygon fill="#f3ca24" points="317,248 332,248 308,318" stroke="none" /><polygon fill="#f3ca24" points="332,248 317,318 308,318" stroke="none" /><polygon fill="#d0a018" points="332,248 347,248 317,318" stroke="none" /><polygon fill="#d0a018" points="347,248 322,318 317,318" stroke="none" /><polygon fill="#b48c14" points="292,318 300,318 283,430" stroke="none" /><polygon fill="#b48c14" points="300,318 288,430 283,430" stroke="none" /><polygon fill="#d0a018" points="300,318 308,318 288,430" stroke="none" /><polygon fill="#d0a018" points="308,318 295,430 288,430" stroke="none" /><polygon fill="#b48c14" points="308,318 317,318 295,430" stroke="none" /><polygon fill="#b48c14" points="317,318 303,430 295,430" stroke="none" /><polygon fill="#d0a018" points="317,318 322,318 303,430" stroke="none" /><polygon fill="#d0a018" points="322,318 305,430 303,430" stroke="none" /><line stroke="#b0b0a0" stroke-width="2.5" x1="249" x2="341" y1="192" y2="192" /><line stroke="#b0b0a0" stroke-width="3" x1="247" x2="343" y1="86" y2="86" /><ellipse cx="277" cy="298" fill="white" fill-opacity="0.12" rx="3" ry="2" stroke="none" /><ellipse cx="298" cy="238" fill="white" fill-opacity="0.12" rx="3" ry="2" stroke="none" /><ellipse cx="284" cy="289" fill="white" fill-opacity="0.12" rx="3" ry="2" stroke="none" /><ellipse cx="292" cy="328" fill="white" fill-opacity="0.12" rx="3" ry="2" stroke="none" /><path d="M 177 82 Q 165 100 177 118" fill="none" stroke="#b0b0a0" stroke-width="1.5" /><path d="M 255 82 Q 243 100 255 118" fill="none" stroke="#b0b0a0" stroke-width="1.5" /></svg>