<?xml version="1.0" encoding="utf-8" ?>
<svg baseProfile="full" height="512" version="1.1" width="512" xmlns="http://www.w3.org/2000/svg" xmlns:ev="http://www.w3.org/2001/xml-events" xmlns:xlink="http://www.w3.org/1999/xlink"><defs /><polygon fill="#ccccbe" points="161,80 183,80 159,130" stroke="none" /><polygon fill="#ccccbe" points="183,80 182,130 159,130" stroke="none" /><polygon fill="#e0e0d4" points="183,80 209,80 182,130" stroke="none" /><polygon fill="#e0e0d4" points="209,80 208,130 182,130" stroke="none" /><polygon fill="#e0e0d4" points="209,80 232,80 208,130" stroke="none" /><polygon fill="#f0f0e8" points="232,80 230,130 208,130" stroke="none" /><polygon fill="#e0e0d4" points="232,80 256,80 230,130" stroke="none" /><polygon fill="#e0e0d4" points="256,80 260,130 230,130" stroke="none" /><polygon fill="#ccccbe" points="159,130 182,130 159,185" stroke="none" /><polygon fill="#ccccbe" points="182,130 184,185 159,185" stroke="none" /><polygon fill="#e0e0d4" points="182,130 208,130 184,185" stroke="none" /><polygon fill="#e0e0d4" points="208,130 207,185 184,185" stroke="none" /><polygon fill="#e0e0d4" points="208,130 230,130 207,185" stroke="none" /><polygon fill="#e0e0d4" points="230,130 232,185 207,185" stroke="none" /><polygon fill="#e0e0d4" points="230,130 260,130 232,185" stroke="none" /><polygon fill="#e0e0d4" points="260,130 256,185 232,185" stroke="none" /><polygon fill="#d6a828" points="159,185 184,185 175,248" stroke="none" /><polygon fill="#d6a828" points="184,185 193,248 175,248" stroke="none" /><polygon fill="#f6ce38" points="184,185 207,185 193,248" stroke="none" /><polygon fill="#f6ce38" points="207,185 207,248 193,248" stroke="none" /><polygon fill="#fee06a" points="207,185 232,185 207,248" stroke="none" /><polygon fill="#fee06a" points="232,185 225,248 207,248" stroke="none" /><polygon fill="#f6ce38" points="232,185 256,185 225,248" stroke="none" /><polygon fill="#f6ce38" points="256,185 242,248 225,248" stroke="none" /><polygon fill="#d6a828" points="175,248 193,248 190,318" stroke="none" /><polygon fill="#d6a828" points="193,248 196,318 190,318" stroke="none" /><polygon fill="#d6a828" points="193,248 207,248 196,318" stroke="none" /><polygon fill="#d6a828" points="207,248 209,318 196,318" stroke="none" /><polygon fill="#f6ce38" points="207,248 225,248 209,318" stroke="none" /><polygon fill="#f6ce38" points="225,248 217,318 209,318" stroke="none" /><polygon fill="#d6a828" points="225,248 242,248 217,318" stroke="none" /><polygon fill="#d6a828" points="242,248 229,318 217,318" stroke="none" /><polygon fill="#ba9420" points="190,318 196,318 194,430" stroke="none" /><polygon fill="#ba9420" points="196,318 197,430 194,430" stroke="none" /><polygon fill="#d6a828" points="196,318 209,318 197,430" stroke="none" /><polygon fill="#d6a828" points="209,318 209,430 197,430" stroke="none" /><polygon fill="#ba9420" points="209,318 217,318 209,430" stroke="none" /><polygon fill="#ba9420" points="217,318 217,430 209,430" stroke="none" /><polygon fill="#d6a828" points="217,318 229,318 217,430" stroke="none" /><polygon fill="#d6a828" points="229,318 223,430 217,430" stroke="none" /><line stroke="#b0b0a0" stroke-width="2.5" x1="159" x2="257" y1="192" y2="192" /><line stroke="#b0b0a0" stroke-width="3" x1="157" x2="259" y1="86" y2="86" /><ellipse cx="214" cy="313" fill="white" fill-opacity="0.12" rx="3" ry="2" stroke="none" /><ellipse cx="187" cy="258" fill="white" fill-opacity="0.12" rx="3" ry="2" stroke="none" /><ellipse cx="227" cy="248" fill="white" fill-opacity="0.12" rx="3" ry="2" stroke="none" /><ellipse cx="225" cy="299" fill="white" fill-opacity="0.12" rx="3" ry="2" stroke="none" /><polygon fill="#ccccbe" points="256,80 280,80 254,130" stroke="none" /><polygon fill="#ccccbe" points="280,80 279,130 254,130" stroke="none" /><polygon fill="#e0e0d4" points="280,80 305,80 279,130" stroke="none" /><polygon fill="#e0e0d4" points="305,80 306,130 279,130" stroke="none" /><polygon fill="#e0e0d4" points="305,80 327,80 306,130" stroke="none" /><polygon fill="#f0f0e8" points="327,80 329,130 306,130" stroke="none" /><polygon fill="#e0e0d4" points="327,80 351,80 329,130" stroke="none" /><polygon fill="#e0e0d4" points="351,80 357,130 329,130" stroke="none" /><polygon fill="#ccccbe" points="254,130 279,130 255,185" stroke="none" /><polygon fill="#ccccbe" points="279,130 279,185 255,185" stroke="none" /><polygon fill="#e0e0d4" points="279,130 306,130 279,185" stroke="none" /><polygon fill="#e0e0d4" points="306,130 306,185 279,185" stroke="none" /><polygon fill="#e0e0d4" points="306,130 329,130 306,185" stroke="none" /><polygon fill="#e0e0d4" points="329,130 327,185 306,185" stroke="none" /><polygon fill="#e0e0d4" points="329,130 357,130 327,185" stroke="none" /><polygon fill="#e0e0d4" points="357,130 349,185 327,185" stroke="none" /><polygon fill="#d6a828" points="255,185 279,185 273,248" stroke="none" /><polygon fill="#d6a828" points="279,185 287,248 273,248" stroke="none" /><polygon fill="#f6ce38" points="279,185 306,185 287,248" stroke="none" /><polygon fill="#f6ce38" points="306,185 303,248 287,248" stroke="none" /><polygon fill="#fee06a" points="306,185 327,185 303,248" stroke="none" /><polygon fill="#fee06a" points="327,185 319,248 303,248" stroke="none" /><polygon fill="#f6ce38" points="327,185 349,185 319,248" stroke="none" /><polygon fill="#f6ce38" points="349,185 337,248 319,248" stroke="none" /><polygon fill="#d6a828" points="273,248 287,248 286,318" stroke="none" /><polygon fill="#d6a828" points="287,248 294,318 286,318" stroke="none" /><polygon fill="#d6a828" points="287,248 303,248 294,318" stroke="none" /><polygon fill="#d6a828" points="303,248 305,318 294,318" stroke="none" /><polygon fill="#f6ce38" points="303,248 319,248 305,318" stroke="none" /><polygon fill="#f6ce38" points="319,248 312,318 305,318" stroke="none" /><polygon fill="#d6a828" points="319,248 337,248 312,318" stroke="none" /><polygon fill="#d6a828" points="337,248 321,318 312,318" stroke="none" /><polygon fill="#ba9420" points="286,318 294,318 288,430" stroke="none" /><polygon fill="#ba9420" points="294,318 293,430 288,430" stroke="none" /><polygon fill="#d6a828" points="294,318 305,318 293,430" stroke="none" /><polygon fill="#d6a828" points="305,318 305,430 293,430" stroke="none" /><polygon fill="#ba9420" points="305,318 312,318 305,430" stroke="none" /><polygon fill="#ba9420" points="312,318 314,430 305,430" stroke="none" /><polygon fill="#d6a828" points="312,318 321,318 314,430" stroke="none" /><polygon fill="#d6a828" points="321,318 319,430 314,430" stroke="none" /><line stroke="#b0b0a0" stroke-width="2.5" x1="255" x2="353" y1="192" y2="192" /><line stroke="#b0b0a0" stroke-width="3" x1="253" x2="355" y1="86" y2="86" /><ellipse cx="307" cy="269" fill="white" fill-opacity="0.12" rx="3" ry="2" stroke="none" /><ellipse cx="318" cy="350" fill="white" fill-opacity="0.12" rx="3" ry="2" stroke="none" /><ellipse cx="285" cy="229" fill="white" fill-opacity="0.12" rx="3" ry="2" stroke="none" /><ellipse cx="300" cy="291" fill="white" fill-opacity="0.12" rx="3" ry="2" stroke="none" /><ellipse cx="292" cy="296" fill="white" fill-opacity="0.12" rx="3" ry="2" stroke="none" /><path d="M 202 237 Q 214 243 214 255" fill="none" stroke="#8a6840" stroke-width="1.5" /><path d="M 298 237 Q 310 243 310 255" fill="none" stroke="#8a6840" stroke-width="1.5" /><path d="M 165 82 Q 153 100 165 118" fill="none" stroke="#b0b0a0" stroke-width="1.5" /><path d="M 261 82 Q 249 100 261 118" fill="none" stroke="#b0b0a0" stroke-width="1.5" /></svg>