<?xml version="1.0" encoding="utf-8" ?>
<svg baseProfile="full" height="512" version="1.1" width="512" xmlns="http://www.w3.org/2000/svg" xmlns:ev="http://www.w3.org/2001/xml-events" xmlns:xlink="http://www.w3.org/1999/xlink"><defs /><polygon fill="#ccccbe" points="196,80 210,80 182,130" stroke="none" /><polygon fill="#ccccbe" points="210,80 198,130 182,130" stroke="none" /><polygon fill="#e0e0d4" points="210,80 223,80 198,130" stroke="none" /><polygon fill="#e0e0d4" points="223,80 212,130 198,130" stroke="none" /><polygon fill="#e0e0d4" points="223,80 235,80 212,130" stroke="none" /><polygon fill="#f0f0e8" points="235,80 225,130 212,130" stroke="none" /><polygon fill="#e0e0d4" points="235,80 250,80 225,130" stroke="none" /><polygon fill="#e0e0d4" points="250,80 243,130 225,130" stroke="none" /><polygon fill="#ccccbe" points="182,130 198,130 181,185" stroke="none" /><polygon fill="#ccccbe" points="198,130 195,185 181,185" stroke="none" /><polygon fill="#e0e0d4" points="198,130 212,130 195,185" stroke="none" /><polygon fill="#e0e0d4" points="212,130 205,185 195,185" stroke="none" /><polygon fill="#e0e0d4" points="212,130 225,130 205,185" stroke="none" /><polygon fill="#e0e0d4" points="225,130 219,185 205,185" stroke="none" /><polygon fill="#e0e0d4" points="225,130 243,130 219,185" stroke="none" /><polygon fill="#e0e0d4" points="243,130 232,185 219,185" stroke="none" /><polygon fill="#d4a520" points="181,185 195,185 187,248" stroke="none" /><polygon fill="#d4a520" points="195,185 196,248 187,248" stroke="none" /><polygon fill="#f5cd30" points="195,185 205,185 196,248" stroke="none" /><polygon fill="#f5cd30" points="205,185 209,248 196,248" stroke="none" /><polygon fill="#fde066" points="205,185 219,185 209,248" stroke="none" /><polygon fill="#fde066" points="219,185 216,248 209,248" stroke="none" /><polygon fill="#f5cd30" points="219,185 232,185 216,248" stroke="none" /><polygon fill="#f5cd30" points="232,185 223,248 216,248" stroke="none" /><polygon fill="#d4a520" points="187,248 196,248 190,318" stroke="none" /><polygon fill="#d4a520" points="196,248 200,318 190,318" stroke="none" /><polygon fill="#d4a520" points="196,248 209,248 200,318" stroke="none" /><polygon fill="#d4a520" points="209,248 210,318 200,318" stroke="none" /><polygon fill="#f5cd30" points="209,248 216,248 210,318" stroke="none" /><polygon fill="#f5cd30" points="216,248 224,318 210,318" stroke="none" /><polygon fill="#d4a520" points="216,248 223,248 224,318" stroke="none" /><polygon fill="#d4a520" points="223,248 234,318 224,318" stroke="none" /><polygon fill="#b8911a" points="190,318 200,318 205,430" stroke="none" /><polygon fill="#b8911a" points="200,318 211,430 205,430" stroke="none" /><polygon fill="#d4a520" points="200,318 210,318 211,430" stroke="none" /><polygon fill="#d4a520" points="210,318 223,430 211,430" stroke="none" /><polygon fill="#b8911a" points="210,318 224,318 223,430" stroke="none" /><polygon fill="#b8911a" points="224,318 233,430 223,430" stroke="none" /><polygon fill="#d4a520" points="224,318 234,318 233,430" stroke="none" /><polygon fill="#d4a520" points="234,318 241,430 233,430" stroke="none" /><line stroke="#b0b0a0" stroke-width="2.5" x1="195" x2="251" y1="192" y2="192" /><line stroke="#b0b0a0" stroke-width="3" x1="193" x2="253" y1="86" y2="86" /><circle cx="205" cy="417" fill="#d4a520" fill-opacity="0.15" r="1.0572431627521048" stroke="none" /><circle cx="249" cy="215" fill="#d4a520" fill-opacity="0.15" r="1.3898867895745854" stroke="none" /><circle cx="241" cy="365" fill="#d4a520" fill-opacity="0.15" r="1.169554237661448" stroke="none" /><circle cx="249" cy="363" fill="#d4a520" fill-opacity="0.15" r="0.8726107415639592" stroke="none" /><circle cx="235" cy="379" fill="#d4a520" fill-opacity="0.15" r="0.5991811151320735" stroke="none" /><circle cx="226" cy="310" fill="#d4a520" fill-opacity="0.15" r="1.0531755341048583" stroke="none" /><circle cx="214" cy="276" fill="#d4a520" fill-opacity="0.15" r="0.7815485546981576" stroke="none" /><circle cx="230" cy="392" fill="#d4a520" fill-opacity="0.15" r="0.7694744444789728" stroke="none" /><circle cx="225" cy="228" fill="#d4a520" fill-opacity="0.15" r="0.7706081820222366" stroke="none" /><circle cx="201" cy="273" fill="#d4a520" fill-opacity="0.15" r="1.4144151114335246" stroke="none" /><polygon fill="#ccccbe" points="263,80 275,80 270,130" stroke="none" /><polygon fill="#ccccbe" points="275,80 289,130 270,130" stroke="none" /><polygon fill="#e0e0d4" points="275,80 288,80 289,130" stroke="none" /><polygon fill="#e0e0d4" points="288,80 301,130 289,130" stroke="none" /><polygon fill="#e0e0d4" points="288,80 301,80 301,130" stroke="none" /><polygon fill="#f0f0e8" points="301,80 317,130 301,130" stroke="none" /><polygon fill="#e0e0d4" points="301,80 314,80 317,130" stroke="none" /><polygon fill="#e0e0d4" points="314,80 334,130 317,130" stroke="none" /><polygon fill="#ccccbe" points="270,130 289,130 282,185" stroke="none" /><polygon fill="#ccccbe" points="289,130 295,185 282,185" stroke="none" /><polygon fill="#e0e0d4" points="289,130 301,130 295,185" stroke="none" /><polygon fill="#e0e0d4" points="301,130 306,185 295,185" stroke="none" /><polygon fill="#e0e0d4" points="301,130 317,130 306,185" stroke="none" /><polygon fill="#e0e0d4" points="317,130 323,185 306,185" stroke="none" /><polygon fill="#e0e0d4" points="317,130 334,130 323,185" stroke="none" /><polygon fill="#e0e0d4" points="334,130 336,185 323,185" stroke="none" /><polygon fill="#d4a520" points="282,185 295,185 292,248" stroke="none" /><polygon fill="#d4a520" points="295,185 300,248 292,248" stroke="none" /><polygon fill="#f5cd30" points="295,185 306,185 300,248" stroke="none" /><polygon fill="#f5cd30" points="306,185 309,248 300,248" stroke="none" /><polygon fill="#fde066" points="306,185 323,185 309,248" stroke="none" /><polygon fill="#fde066" points="323,185 315,248 309,248" stroke="none" /><polygon fill="#f5cd30" points="323,185 336,185 315,248" stroke="none" /><polygon fill="#f5cd30" points="336,185 326,248 315,248" stroke="none" /><polygon fill="#d4a520" points="292,248 300,248 282,318" stroke="none" /><polygon fill="#d4a520" points="300,248 293,318 282,318" stroke="none" /><polygon fill="#d4a520" points="300,248 309,248 293,318" stroke="none" /><polygon fill="#d4a520" points="309,248 304,318 293,318" stroke="none" /><polygon fill="#f5cd30" points="309,248 315,248 304,318" stroke="none" /><polygon fill="#f5cd30" points="315,248 314,318 304,318" stroke="none" /><polygon fill="#d4a520" points="315,248 326,248 314,318" stroke="none" /><polygon fill="#d4a520" points="326,248 325,318 314,318" stroke="none" /><polygon fill="#b8911a" points="282,318 293,318 272,430" stroke="none" /><polygon fill="#b8911a" points="293,318 278,430 272,430" stroke="none" /><polygon fill="#d4a520" points="293,318 304,318 278,430" stroke="none" /><polygon fill="#d4a520" points="304,318 290,430 278,430" stroke="none" /><polygon fill="#b8911a" points="304,318 314,318 290,430" stroke="none" /><polygon fill="#b8911a" points="314,318 300,430 290,430" stroke="none" /><polygon fill="#d4a520" points="314,318 325,318 300,430" stroke="none" /><polygon fill="#d4a520" points="325,318 308,430 300,430" stroke="none" /><line stroke="#b0b0a0" stroke-width="2.5" x1="261" x2="317" y1="192" y2="192" /><line stroke="#b0b0a0" stroke-width="3" x1="259" x2="319" y1="86" y2="86" /><circle cx="293" cy="413" fill="#d4a520" fill-opacity="0.15" r="0.7306198409763547" stroke="none" /><circle cx="306" cy="321" fill="#d4a520" fill-opacity="0.15" r="1.058376372755927" stroke="none" /><circle cx="286" cy="412" fill="#d4a520" fill-opacity="0.15" r="0.672566021973209" stroke="none" /><circle cx="278" cy="381" fill="#d4a520" fill-opacity="0.15" r="1.3578197186784113" stroke="none" /><circle cx="290" cy="209" fill="#d4a520" fill-opacity="0.15" r="1.4109110798508895" stroke="none" /><circle cx="274" cy="355" fill="#d4a520" fill-opacity="0.15" r="0.5613317872371628" stroke="none" /></svg>