<?xml version="1.0" encoding="utf-8" ?>
<svg baseProfile="full" height="512" version="1.1" width="512" xmlns="http://www.w3.org/2000/svg" xmlns:ev="http://www.w3.org/2001/xml-events" xmlns:xlink="http://www.w3.org/1999/xlink"><defs /><polygon fill="#ccccbe" points="232,80 237,80 218,130" stroke="none" /><polygon fill="#ccccbe" points="237,80 227,130 218,130" stroke="none" /><polygon fill="#e0e0d4" points="237,80 242,80 227,130" stroke="none" /><polygon fill="#e0e0d4" points="242,80 230,130 227,130" stroke="none" /><polygon fill="#e0e0d4" points="242,80 248,80 230,130" stroke="none" /><polygon fill="#f0f0e8" points="248,80 235,130 230,130" stroke="none" /><polygon fill="#e0e0d4" points="248,80 251,80 235,130" stroke="none" /><polygon fill="#e0e0d4" points="251,80 246,130 235,130" stroke="none" /><polygon fill="#ccccbe" points="218,130 227,130 215,185" stroke="none" /><polygon fill="#ccccbe" points="227,130 218,185 215,185" stroke="none" /><polygon fill="#e0e0d4" points="227,130 230,130 218,185" stroke="none" /><polygon fill="#e0e0d4" points="230,130 226,185 218,185" stroke="none" /><polygon fill="#e0e0d4" points="230,130 235,130 226,185" stroke="none" /><polygon fill="#e0e0d4" points="235,130 228,185 226,185" stroke="none" /><polygon fill="#e0e0d4" points="235,130 246,130 228,185" stroke="none" /><polygon fill="#e0e0d4" points="246,130 233,185 228,185" stroke="none" /><polygon fill="#d4a520" points="215,185 218,185 218,248" stroke="none" /><polygon fill="#d4a520" points="218,185 223,248 218,248" stroke="none" /><polygon fill="#f5cd30" points="218,185 226,185 223,248" stroke="none" /><polygon fill="#f5cd30" points="226,185 225,248 223,248" stroke="none" /><polygon fill="#fde066" points="226,185 228,185 225,248" stroke="none" /><polygon fill="#fde066" points="228,185 226,248 225,248" stroke="none" /><polygon fill="#f5cd30" points="228,185 233,185 226,248" stroke="none" /><polygon fill="#f5cd30" points="233,185 232,248 226,248" stroke="none" /><polygon fill="#d4a520" points="218,248 223,248 221,318" stroke="none" /><polygon fill="#d4a520" points="223,248 227,318 221,318" stroke="none" /><polygon fill="#d4a520" points="223,248 225,248 227,318" stroke="none" /><polygon fill="#d4a520" points="225,248 230,318 227,318" stroke="none" /><polygon fill="#f5cd30" points="225,248 226,248 230,318" stroke="none" /><polygon fill="#f5cd30" points="226,248 237,318 230,318" stroke="none" /><polygon fill="#d4a520" points="226,248 232,248 237,318" stroke="none" /><polygon fill="#d4a520" points="232,248 238,318 237,318" stroke="none" /><polygon fill="#b8911a" points="221,318 227,318 235,430" stroke="none" /><polygon fill="#b8911a" points="227,318 238,430 235,430" stroke="none" /><polygon fill="#d4a520" points="227,318 230,318 238,430" stroke="none" /><polygon fill="#d4a520" points="230,318 241,430 238,430" stroke="none" /><polygon fill="#b8911a" points="230,318 237,318 241,430" stroke="none" /><polygon fill="#b8911a" points="237,318 246,430 241,430" stroke="none" /><polygon fill="#d4a520" points="237,318 238,318 246,430" stroke="none" /><polygon fill="#d4a520" points="238,318 247,430 246,430" stroke="none" /><line stroke="#b0b0a0" stroke-width="2.5" x1="230" x2="254" y1="192" y2="192" /><line stroke="#b0b0a0" stroke-width="3" x1="228" x2="256" y1="86" y2="86" /><ellipse cx="244" cy="383" fill="white" fill-opacity="0.12" rx="3" ry="2" stroke="none" /><ellipse cx="247" cy="243" fill="white" fill-opacity="0.12" rx="3" ry="2" stroke="none" /><ellipse cx="247" cy="294" fill="white" fill-opacity="0.12" rx="3" ry="2" stroke="none" /><ellipse cx="241" cy="208" fill="white" fill-opacity="0.12" rx="3" ry="2" stroke="none" /><polygon fill="#ccccbe" points="260,80 264,80 262,130" stroke="none" /><polygon fill="#ccccbe" points="264,80 270,130 262,130" stroke="none" /><polygon fill="#e0e0d4" points="264,80 270,80 270,130" stroke="none" /><polygon fill="#e0e0d4" points="270,80 279,130 270,130" stroke="none" /><polygon fill="#e0e0d4" points="270,80 275,80 279,130" stroke="none" /><polygon fill="#f0f0e8" points="275,80 284,130 279,130" stroke="none" /><polygon fill="#e0e0d4" points="275,80 281,80 284,130" stroke="none" /><polygon fill="#e0e0d4" points="281,80 290,130 284,130" stroke="none" /><polygon fill="#ccccbe" points="262,130 270,130 272,185" stroke="none" /><polygon fill="#ccccbe" points="270,130 275,185 272,185" stroke="none" /><polygon fill="#e0e0d4" points="270,130 279,130 275,185" stroke="none" /><polygon fill="#e0e0d4" points="279,130 279,185 275,185" stroke="none" /><polygon fill="#e0e0d4" points="279,130 284,130 279,185" stroke="none" /><polygon fill="#e0e0d4" points="284,130 288,185 279,185" stroke="none" /><polygon fill="#e0e0d4" points="284,130 290,130 288,185" stroke="none" /><polygon fill="#e0e0d4" points="290,130 292,185 288,185" stroke="none" /><polygon fill="#d4a520" points="272,185 275,185 274,248" stroke="none" /><polygon fill="#d4a520" points="275,185 277,248 274,248" stroke="none" /><polygon fill="#f5cd30" points="275,185 279,185 277,248" stroke="none" /><polygon fill="#f5cd30" points="279,185 280,248 277,248" stroke="none" /><polygon fill="#fde066" points="279,185 288,185 280,248" stroke="none" /><polygon fill="#fde066" points="288,185 286,248 280,248" stroke="none" /><polygon fill="#f5cd30" points="288,185 292,185 286,248" stroke="none" /><polygon fill="#f5cd30" points="292,185 290,248 286,248" stroke="none" /><polygon fill="#d4a520" points="274,248 277,248 269,318" stroke="none" /><polygon fill="#d4a520" points="277,248 273,318 269,318" stroke="none" /><polygon fill="#d4a520" points="277,248 280,248 273,318" stroke="none" /><polygon fill="#d4a520" points="280,248 279,318 273,318" stroke="none" /><polygon fill="#f5cd30" points="280,248 286,248 279,318" stroke="none" /><polygon fill="#f5cd30" points="286,248 283,318 279,318" stroke="none" /><polygon fill="#d4a520" points="286,248 290,248 283,318" stroke="none" /><polygon fill="#d4a520" points="290,248 285,318 283,318" stroke="none" /><polygon fill="#b8911a" points="269,318 273,318 263,430" stroke="none" /><polygon fill="#b8911a" points="273,318 266,430 263,430" stroke="none" /><polygon fill="#d4a520" points="273,318 279,318 266,430" stroke="none" /><polygon fill="#d4a520" points="279,318 270,430 266,430" stroke="none" /><polygon fill="#b8911a" points="279,318 283,318 270,430" stroke="none" /><polygon fill="#b8911a" points="283,318 276,430 270,430" stroke="none" /><polygon fill="#d4a520" points="283,318 285,318 276,430" stroke="none" /><polygon fill="#d4a520" points="285,318 277,430 276,430" stroke="none" /><line stroke="#b0b0a0" stroke-width="2.5" x1="258" x2="282" y1="192" y2="192" /><line stroke="#b0b0a0" stroke-width="3" x1="256" x2="284" y1="86" y2="86" /><ellipse cx="273" cy="371" fill="white" fill-opacity="0.12" rx="3" ry="2" stroke="none" /><ellipse cx="265" cy="317" fill="white" fill-opacity="0.12" rx="3" ry="2" stroke="none" /><ellipse cx="270" cy="387" fill="white" fill-opacity="0.12" rx="3" ry="2" stroke="none" /></svg>