<?xml version="1.0" encoding="utf-8" ?>
<svg baseProfile="full" height="512" version="1.1" width="512" xmlns="http://www.w3.org/2000/svg" xmlns:ev="http://www.w3.org/2001/xml-events" xmlns:xlink="http://www.w3.org/1999/xlink"><defs /><polygon fill="#ccccbe" points="148,80 174,80 132,130" stroke="none" /><polygon fill="#ccccbe" points="174,80 161,130 132,130" stroke="none" /><polygon fill="#e0e0d4" points="174,80 196,80 161,130" stroke="none" /><polygon fill="#e0e0d4" points="196,80 185,130 161,130" stroke="none" /><polygon fill="#e0e0d4" points="196,80 221,80 185,130" stroke="none" /><polygon fill="#f0f0e8" points="221,80 210,130 185,130" stroke="none" /><polygon fill="#e0e0d4" points="221,80 245,80 210,130" stroke="none" /><polygon fill="#e0e0d4" points="245,80 235,130 210,130" stroke="none" /><polygon fill="#ccccbe" points="132,130 161,130 133,185" stroke="none" /><polygon fill="#ccccbe" points="161,130 155,185 133,185" stroke="none" /><polygon fill="#e0e0d4" points="161,130 185,130 155,185" stroke="none" /><polygon fill="#e0e0d4" points="185,130 177,185 155,185" stroke="none" /><polygon fill="#e0e0d4" points="185,130 210,130 177,185" stroke="none" /><polygon fill="#e0e0d4" points="210,130 203,185 177,185" stroke="none" /><polygon fill="#e0e0d4" points="210,130 235,130 203,185" stroke="none" /><polygon fill="#e0e0d4" points="235,130 229,185 203,185" stroke="none" /><polygon fill="#d4a41e" points="133,185 155,185 146,248" stroke="none" /><polygon fill="#d4a41e" points="155,185 164,248 146,248" stroke="none" /><polygon fill="#f5ce2e" points="155,185 177,185 164,248" stroke="none" /><polygon fill="#f5ce2e" points="177,185 179,248 164,248" stroke="none" /><polygon fill="#fde064" points="177,185 203,185 179,248" stroke="none" /><polygon fill="#fde064" points="203,185 197,248 179,248" stroke="none" /><polygon fill="#f5ce2e" points="203,185 229,185 197,248" stroke="none" /><polygon fill="#f5ce2e" points="229,185 211,248 197,248" stroke="none" /><polygon fill="#d4a41e" points="146,248 164,248 164,318" stroke="none" /><polygon fill="#d4a41e" points="164,248 176,318 164,318" stroke="none" /><polygon fill="#d4a41e" points="164,248 179,248 176,318" stroke="none" /><polygon fill="#d4a41e" points="179,248 183,318 176,318" stroke="none" /><polygon fill="#f5ce2e" points="179,248 197,248 183,318" stroke="none" /><polygon fill="#f5ce2e" points="197,248 193,318 183,318" stroke="none" /><polygon fill="#d4a41e" points="197,248 211,248 193,318" stroke="none" /><polygon fill="#d4a41e" points="211,248 206,318 193,318" stroke="none" /><polygon fill="#b89218" points="164,318 176,318 182,430" stroke="none" /><polygon fill="#b89218" points="176,318 187,430 182,430" stroke="none" /><polygon fill="#d4a41e" points="176,318 183,318 187,430" stroke="none" /><polygon fill="#d4a41e" points="183,318 197,430 187,430" stroke="none" /><polygon fill="#b89218" points="183,318 193,318 197,430" stroke="none" /><polygon fill="#b89218" points="193,318 208,430 197,430" stroke="none" /><polygon fill="#d4a41e" points="193,318 206,318 208,430" stroke="none" /><polygon fill="#d4a41e" points="206,318 212,430 208,430" stroke="none" /><line stroke="#b0b0a0" stroke-width="2.5" x1="147" x2="247" y1="192" y2="192" /><line stroke="#b0b0a0" stroke-width="3" x1="145" x2="249" y1="86" y2="86" /><path d="M 181 357 Q 183 355 185 357" fill="none" stroke="#d4c0a0" stroke-opacity="0.3" stroke-width="1" /><path d="M 198 376 Q 200 374 202 376" fill="none" stroke="#d4c0a0" stroke-opacity="0.3" stroke-width="1" /><path d="M 182 418 Q 186 414 190 418" fill="none" stroke="#d4c0a0" stroke-opacity="0.3" stroke-width="1" /><path d="M 201 275 Q 205 271 209 275" fill="none" stroke="#d4c0a0" stroke-opacity="0.3" stroke-width="1" /><path d="M 187 242 Q 191 238 195 242" fill="none" stroke="#d4c0a0" stroke-opacity="0.3" stroke-width="1" /><polygon fill="#ccccbe" points="266,80 290,80 270,130" stroke="none" /><polygon fill="#ccccbe" points="290,80 297,130 270,130" stroke="none" /><polygon fill="#e0e0d4" points="290,80 316,80 297,130" stroke="none" /><polygon fill="#e0e0d4" points="316,80 320,130 297,130" stroke="none" /><polygon fill="#e0e0d4" points="316,80 339,80 320,130" stroke="none" /><polygon fill="#f0f0e8" points="339,80 347,130 320,130" stroke="none" /><polygon fill="#e0e0d4" points="339,80 364,80 347,130" stroke="none" /><polygon fill="#e0e0d4" points="364,80 372,130 347,130" stroke="none" /><polygon fill="#ccccbe" points="270,130 297,130 278,185" stroke="none" /><polygon fill="#ccccbe" points="297,130 304,185 278,185" stroke="none" /><polygon fill="#e0e0d4" points="297,130 320,130 304,185" stroke="none" /><polygon fill="#e0e0d4" points="320,130 328,185 304,185" stroke="none" /><polygon fill="#e0e0d4" points="320,130 347,130 328,185" stroke="none" /><polygon fill="#e0e0d4" points="347,130 351,185 328,185" stroke="none" /><polygon fill="#e0e0d4" points="347,130 372,130 351,185" stroke="none" /><polygon fill="#e0e0d4" points="372,130 374,185 351,185" stroke="none" /><polygon fill="#d4a41e" points="278,185 304,185 292,248" stroke="none" /><polygon fill="#d4a41e" points="304,185 312,248 292,248" stroke="none" /><polygon fill="#f5ce2e" points="304,185 328,185 312,248" stroke="none" /><polygon fill="#f5ce2e" points="328,185 327,248 312,248" stroke="none" /><polygon fill="#fde064" points="328,185 351,185 327,248" stroke="none" /><polygon fill="#fde064" points="351,185 342,248 327,248" stroke="none" /><polygon fill="#f5ce2e" points="351,185 374,185 342,248" stroke="none" /><polygon fill="#f5ce2e" points="374,185 360,248 342,248" stroke="none" /><polygon fill="#d4a41e" points="292,248 312,248 302,318" stroke="none" /><polygon fill="#d4a41e" points="312,248 313,318 302,318" stroke="none" /><polygon fill="#d4a41e" points="312,248 327,248 313,318" stroke="none" /><polygon fill="#d4a41e" points="327,248 320,318 313,318" stroke="none" /><polygon fill="#f5ce2e" points="327,248 342,248 320,318" stroke="none" /><polygon fill="#f5ce2e" points="342,248 331,318 320,318" stroke="none" /><polygon fill="#d4a41e" points="342,248 360,248 331,318" stroke="none" /><polygon fill="#d4a41e" points="360,248 341,318 331,318" stroke="none" /><polygon fill="#b89218" points="302,318 313,318 298,430" stroke="none" /><polygon fill="#b89218" points="313,318 304,430 298,430" stroke="none" /><polygon fill="#d4a41e" points="313,318 320,318 304,430" stroke="none" /><polygon fill="#d4a41e" points="320,318 315,430 304,430" stroke="none" /><polygon fill="#b89218" points="320,318 331,318 315,430" stroke="none" /><polygon fill="#b89218" points="331,318 325,430 315,430" stroke="none" /><polygon fill="#d4a41e" points="331,318 341,318 325,430" stroke="none" /><polygon fill="#d4a41e" points="341,318 330,430 325,430" stroke="none" /><line stroke="#b0b0a0" stroke-width="2.5" x1="265" x2="365" y1="192" y2="192" /><line stroke="#b0b0a0" stroke-width="3" x1="263" x2="367" y1="86" y2="86" /><path d="M 320 425 Q 322 423 324 425" fill="none" stroke="#d4c0a0" stroke-opacity="0.3" stroke-width="1" /><path d="M 311 351 Q 316 346 321 351" fill="none" stroke="#d4c0a0" stroke-opacity="0.3" stroke-width="1" /><path d="M 340 346 Q 345 341 350 346" fill="none" stroke="#d4c0a0" stroke-opacity="0.3" stroke-width="1" /><path d="M 153 82 Q 141 100 153 118" fill="none" stroke="#b0b0a0" stroke-width="1.5" /><path d="M 271 82 Q 259 100 271 118" fill="none" stroke="#b0b0a0" stroke-width="1.5" /></svg>