<?xml version="1.0" encoding="utf-8" ?>
<svg baseProfile="full" height="512" version="1.1" width="512" xmlns="http://www.w3.org/2000/svg" xmlns:ev="http://www.w3.org/2001/xml-events" xmlns:xlink="http://www.w3.org/1999/xlink"><defs /><polygon fill="#ccccbe" points="138,80 165,80 131,130" stroke="none" /><polygon fill="#ccccbe" points="165,80 165,130 131,130" stroke="none" /><polygon fill="#e0e0d4" points="165,80 197,80 165,130" stroke="none" /><polygon fill="#e0e0d4" points="197,80 194,130 165,130" stroke="none" /><polygon fill="#e0e0d4" points="197,80 225,80 194,130" stroke="none" /><polygon fill="#f0f0e8" points="225,80 223,130 194,130" stroke="none" /><polygon fill="#e0e0d4" points="225,80 255,80 223,130" stroke="none" /><polygon fill="#e0e0d4" points="255,80 260,130 223,130" stroke="none" /><polygon fill="#ccccbe" points="131,130 165,130 139,185" stroke="none" /><polygon fill="#ccccbe" points="165,130 165,185 139,185" stroke="none" /><polygon fill="#e0e0d4" points="165,130 194,130 165,185" stroke="none" /><polygon fill="#e0e0d4" points="194,130 195,185 165,185" stroke="none" /><polygon fill="#e0e0d4" points="194,130 223,130 195,185" stroke="none" /><polygon fill="#e0e0d4" points="223,130 225,185 195,185" stroke="none" /><polygon fill="#e0e0d4" points="223,130 260,130 225,185" stroke="none" /><polygon fill="#e0e0d4" points="260,130 255,185 225,185" stroke="none" /><polygon fill="#d4a520" points="139,185 165,185 156,248" stroke="none" /><polygon fill="#d4a520" points="165,185 175,248 156,248" stroke="none" /><polygon fill="#f5cd30" points="165,185 195,185 175,248" stroke="none" /><polygon fill="#f5cd30" points="195,185 197,248 175,248" stroke="none" /><polygon fill="#fde066" points="195,185 225,185 197,248" stroke="none" /><polygon fill="#fde066" points="225,185 218,248 197,248" stroke="none" /><polygon fill="#f5cd30" points="225,185 255,185 218,248" stroke="none" /><polygon fill="#f5cd30" points="255,185 238,248 218,248" stroke="none" /><polygon fill="#d4a520" points="156,248 175,248 172,318" stroke="none" /><polygon fill="#d4a520" points="175,248 184,318 172,318" stroke="none" /><polygon fill="#d4a520" points="175,248 197,248 184,318" stroke="none" /><polygon fill="#d4a520" points="197,248 194,318 184,318" stroke="none" /><polygon fill="#f5cd30" points="197,248 218,248 194,318" stroke="none" /><polygon fill="#f5cd30" points="218,248 210,318 194,318" stroke="none" /><polygon fill="#d4a520" points="218,248 238,248 210,318" stroke="none" /><polygon fill="#d4a520" points="238,248 224,318 210,318" stroke="none" /><polygon fill="#b8911a" points="172,318 184,318 173,430" stroke="none" /><polygon fill="#b8911a" points="184,318 182,430 173,430" stroke="none" /><polygon fill="#d4a520" points="184,318 194,318 182,430" stroke="none" /><polygon fill="#d4a520" points="194,318 197,430 182,430" stroke="none" /><polygon fill="#b8911a" points="194,318 210,318 197,430" stroke="none" /><polygon fill="#b8911a" points="210,318 210,430 197,430" stroke="none" /><polygon fill="#d4a520" points="210,318 224,318 210,430" stroke="none" /><polygon fill="#d4a520" points="224,318 217,430 210,430" stroke="none" /><line stroke="#b0b0a0" stroke-width="2.5" x1="135" x2="257" y1="192" y2="192" /><line stroke="#b0b0a0" stroke-width="3" x1="133" x2="259" y1="86" y2="86" /><polygon fill="#ccccbe" points="256,80 286,80 253,130" stroke="none" /><polygon fill="#ccccbe" points="286,80 285,130 253,130" stroke="none" /><polygon fill="#e0e0d4" points="286,80 316,80 285,130" stroke="none" /><polygon fill="#e0e0d4" points="316,80 316,130 285,130" stroke="none" /><polygon fill="#e0e0d4" points="316,80 345,80 316,130" stroke="none" /><polygon fill="#f0f0e8" points="345,80 346,130 316,130" stroke="none" /><polygon fill="#e0e0d4" points="345,80 376,80 346,130" stroke="none" /><polygon fill="#e0e0d4" points="376,80 381,130 346,130" stroke="none" /><polygon fill="#ccccbe" points="253,130 285,130 256,185" stroke="none" /><polygon fill="#ccccbe" points="285,130 284,185 256,185" stroke="none" /><polygon fill="#e0e0d4" points="285,130 316,130 284,185" stroke="none" /><polygon fill="#e0e0d4" points="316,130 316,185 284,185" stroke="none" /><polygon fill="#e0e0d4" points="316,130 346,130 316,185" stroke="none" /><polygon fill="#e0e0d4" points="346,130 344,185 316,185" stroke="none" /><polygon fill="#e0e0d4" points="346,130 381,130 344,185" stroke="none" /><polygon fill="#e0e0d4" points="381,130 377,185 344,185" stroke="none" /><polygon fill="#d4a520" points="256,185 284,185 273,248" stroke="none" /><polygon fill="#d4a520" points="284,185 298,248 273,248" stroke="none" /><polygon fill="#f5cd30" points="284,185 316,185 298,248" stroke="none" /><polygon fill="#f5cd30" points="316,185 316,248 298,248" stroke="none" /><polygon fill="#fde066" points="316,185 344,185 316,248" stroke="none" /><polygon fill="#fde066" points="344,185 338,248 316,248" stroke="none" /><polygon fill="#f5cd30" points="344,185 377,185 338,248" stroke="none" /><polygon fill="#f5cd30" points="377,185 356,248 338,248" stroke="none" /><polygon fill="#d4a520" points="273,248 298,248 290,318" stroke="none" /><polygon fill="#d4a520" points="298,248 305,318 290,318" stroke="none" /><polygon fill="#d4a520" points="298,248 316,248 305,318" stroke="none" /><polygon fill="#d4a520" points="316,248 318,318 305,318" stroke="none" /><polygon fill="#f5cd30" points="316,248 338,248 318,318" stroke="none" /><polygon fill="#f5cd30" points="338,248 328,318 318,318" stroke="none" /><polygon fill="#d4a520" points="338,248 356,248 328,318" stroke="none" /><polygon fill="#d4a520" points="356,248 344,318 328,318" stroke="none" /><polygon fill="#b8911a" points="290,318 305,318 294,430" stroke="none" /><polygon fill="#b8911a" points="305,318 304,430 294,430" stroke="none" /><polygon fill="#d4a520" points="305,318 318,318 304,430" stroke="none" /><polygon fill="#d4a520" points="318,318 315,430 304,430" stroke="none" /><polygon fill="#b8911a" points="318,318 328,318 315,430" stroke="none" /><polygon fill="#b8911a" points="328,318 328,430 315,430" stroke="none" /><polygon fill="#d4a520" points="328,318 344,318 328,430" stroke="none" /><polygon fill="#d4a520" points="344,318 339,430 328,430" stroke="none" /><line stroke="#b0b0a0" stroke-width="2.5" x1="255" x2="377" y1="192" y2="192" /><line stroke="#b0b0a0" stroke-width="3" x1="253" x2="379" y1="86" y2="86" /><path d="M 190 237 Q 202 243 202 255" fill="none" stroke="#8a6840" stroke-width="1.5" /><path d="M 310 237 Q 322 243 322 255" fill="none" stroke="#8a6840" stroke-width="1.5" /><path d="M 141 82 Q 129 100 141 118" fill="none" stroke="#b0b0a0" stroke-width="1.5" /><path d="M 261 82 Q 249 100 261 118" fill="none" stroke="#b0b0a0" stroke-width="1.5" /></svg>