<?xml version="1.0" encoding="utf-8" ?>
<svg baseProfile="full" height="512" version="1.1" width="512" xmlns="http://www.w3.org/2000/svg" xmlns:ev="http://www.w3.org/2001/xml-events" xmlns:xlink="http://www.w3.org/1999/xlink"><defs /><polygon fill="#ccccbe" points="226,80 230,80 209,130" stroke="none" /><polygon fill="#ccccbe" points="230,80 217,130 209,130" stroke="none" /><polygon fill="#e0e0d4" points="230,80 237,80 217,130" stroke="none" /><polygon fill="#e0e0d4" points="237,80 221,130 217,130" stroke="none" /><polygon fill="#e0e0d4" points="237,80 242,80 221,130" stroke="none" /><polygon fill="#f0f0e8" points="242,80 228,130 221,130" stroke="none" /><polygon fill="#e0e0d4" points="242,80 247,80 228,130" stroke="none" /><polygon fill="#e0e0d4" points="247,80 235,130 228,130" stroke="none" /><polygon fill="#ccccbe" points="209,130 217,130 207,185" stroke="none" /><polygon fill="#ccccbe" points="217,130 211,185 207,185" stroke="none" /><polygon fill="#e0e0d4" points="217,130 221,130 211,185" stroke="none" /><polygon fill="#e0e0d4" points="221,130 218,185 211,185" stroke="none" /><polygon fill="#e0e0d4" points="221,130 228,130 218,185" stroke="none" /><polygon fill="#e0e0d4" points="228,130 221,185 218,185" stroke="none" /><polygon fill="#e0e0d4" points="228,130 235,130 221,185" stroke="none" /><polygon fill="#e0e0d4" points="235,130 229,185 221,185" stroke="none" /><polygon fill="#d4a41e" points="207,185 211,185 210,248" stroke="none" /><polygon fill="#d4a41e" points="211,185 216,248 210,248" stroke="none" /><polygon fill="#f5ce2e" points="211,185 218,185 216,248" stroke="none" /><polygon fill="#f5ce2e" points="218,185 219,248 216,248" stroke="none" /><polygon fill="#fde064" points="218,185 221,185 219,248" stroke="none" /><polygon fill="#fde064" points="221,185 222,248 219,248" stroke="none" /><polygon fill="#f5ce2e" points="221,185 229,185 222,248" stroke="none" /><polygon fill="#f5ce2e" points="229,185 222,248 222,248" stroke="none" /><polygon fill="#d4a41e" points="210,248 216,248 209,318" stroke="none" /><polygon fill="#d4a41e" points="216,248 218,318 209,318" stroke="none" /><polygon fill="#d4a41e" points="216,248 219,248 218,318" stroke="none" /><polygon fill="#d4a41e" points="219,248 223,318 218,318" stroke="none" /><polygon fill="#f5ce2e" points="219,248 222,248 223,318" stroke="none" /><polygon fill="#f5ce2e" points="222,248 228,318 223,318" stroke="none" /><polygon fill="#d4a41e" points="222,248 222,248 228,318" stroke="none" /><polygon fill="#d4a41e" points="222,248 235,318 228,318" stroke="none" /><polygon fill="#b89218" points="209,318 218,318 227,430" stroke="none" /><polygon fill="#b89218" points="218,318 229,430 227,430" stroke="none" /><polygon fill="#d4a41e" points="218,318 223,318 229,430" stroke="none" /><polygon fill="#d4a41e" points="223,318 235,430 229,430" stroke="none" /><polygon fill="#b89218" points="223,318 228,318 235,430" stroke="none" /><polygon fill="#b89218" points="228,318 243,430 235,430" stroke="none" /><polygon fill="#d4a41e" points="228,318 235,318 243,430" stroke="none" /><polygon fill="#d4a41e" points="235,318 247,430 243,430" stroke="none" /><line stroke="#b0b0a0" stroke-width="2.5" x1="224" x2="248" y1="192" y2="192" /><line stroke="#b0b0a0" stroke-width="3" x1="222" x2="250" y1="86" y2="86" /><ellipse cx="234" cy="360" fill="white" fill-opacity="0.12" rx="3" ry="2" stroke="none" /><ellipse cx="235" cy="212" fill="white" fill-opacity="0.12" rx="3" ry="2" stroke="none" /><ellipse cx="233" cy="247" fill="white" fill-opacity="0.12" rx="3" ry="2" stroke="none" /><ellipse cx="235" cy="330" fill="white" fill-opacity="0.12" rx="3" ry="2" stroke="none" /><ellipse cx="233" cy="418" fill="white" fill-opacity="0.12" rx="3" ry="2" stroke="none" /><polygon fill="#ccccbe" points="265,80 271,80 269,130" stroke="none" /><polygon fill="#ccccbe" points="271,80 278,130 269,130" stroke="none" /><polygon fill="#e0e0d4" points="271,80 276,80 278,130" stroke="none" /><polygon fill="#e0e0d4" points="276,80 283,130 278,130" stroke="none" /><polygon fill="#e0e0d4" points="276,80 281,80 283,130" stroke="none" /><polygon fill="#f0f0e8" points="281,80 285,130 283,130" stroke="none" /><polygon fill="#e0e0d4" points="281,80 286,80 285,130" stroke="none" /><polygon fill="#e0e0d4" points="286,80 294,130 285,130" stroke="none" /><polygon fill="#ccccbe" points="269,130 278,130 276,185" stroke="none" /><polygon fill="#ccccbe" points="278,130 277,185 276,185" stroke="none" /><polygon fill="#e0e0d4" points="278,130 283,130 277,185" stroke="none" /><polygon fill="#e0e0d4" points="283,130 283,185 277,185" stroke="none" /><polygon fill="#e0e0d4" points="283,130 285,130 283,185" stroke="none" /><polygon fill="#e0e0d4" points="285,130 289,185 283,185" stroke="none" /><polygon fill="#e0e0d4" points="285,130 294,130 289,185" stroke="none" /><polygon fill="#e0e0d4" points="294,130 293,185 289,185" stroke="none" /><polygon fill="#d4a41e" points="276,185 277,185 277,248" stroke="none" /><polygon fill="#d4a41e" points="277,185 279,248 277,248" stroke="none" /><polygon fill="#f5ce2e" points="277,185 283,185 279,248" stroke="none" /><polygon fill="#f5ce2e" points="283,185 286,248 279,248" stroke="none" /><polygon fill="#fde064" points="283,185 289,185 286,248" stroke="none" /><polygon fill="#fde064" points="289,185 287,248 286,248" stroke="none" /><polygon fill="#f5ce2e" points="289,185 293,185 287,248" stroke="none" /><polygon fill="#f5ce2e" points="293,185 291,248 287,248" stroke="none" /><polygon fill="#d4a41e" points="277,248 279,248 269,318" stroke="none" /><polygon fill="#d4a41e" points="279,248 276,318 269,318" stroke="none" /><polygon fill="#d4a41e" points="279,248 286,248 276,318" stroke="none" /><polygon fill="#d4a41e" points="286,248 280,318 276,318" stroke="none" /><polygon fill="#f5ce2e" points="286,248 287,248 280,318" stroke="none" /><polygon fill="#f5ce2e" points="287,248 289,318 280,318" stroke="none" /><polygon fill="#d4a41e" points="287,248 291,248 289,318" stroke="none" /><polygon fill="#d4a41e" points="291,248 297,318 289,318" stroke="none" /><polygon fill="#b89218" points="269,318 276,318 267,430" stroke="none" /><polygon fill="#b89218" points="276,318 270,430 267,430" stroke="none" /><polygon fill="#d4a41e" points="276,318 280,318 270,430" stroke="none" /><polygon fill="#d4a41e" points="280,318 277,430 270,430" stroke="none" /><polygon fill="#b89218" points="280,318 289,318 277,430" stroke="none" /><polygon fill="#b89218" points="289,318 284,430 277,430" stroke="none" /><polygon fill="#d4a41e" points="289,318 297,318 284,430" stroke="none" /><polygon fill="#d4a41e" points="297,318 287,430 284,430" stroke="none" /><line stroke="#b0b0a0" stroke-width="2.5" x1="264" x2="288" y1="192" y2="192" /><line stroke="#b0b0a0" stroke-width="3" x1="262" x2="290" y1="86" y2="86" /><ellipse cx="280" cy="228" fill="white" fill-opacity="0.12" rx="3" ry="2" stroke="none" /><ellipse cx="276" cy="319" fill="white" fill-opacity="0.12" rx="3" ry="2" stroke="none" /><ellipse cx="275" cy="305" fill="white" fill-opacity="0.12" rx="3" ry="2" stroke="none" /><ellipse cx="271" cy="381" fill="white" fill-opacity="0.12" rx="3" ry="2" stroke="none" /></svg>