<?xml version="1.0" encoding="utf-8" ?>
<svg baseProfile="full" height="512" version="1.1" width="512" xmlns="http://www.w3.org/2000/svg" xmlns:ev="http://www.w3.org/2001/xml-events" xmlns:xlink="http://www.w3.org/1999/xlink"><defs /><polygon fill="#ccccbe" points="197,80 210,80 198,130" stroke="none" /><polygon fill="#ccccbe" points="210,80 216,130 198,130" stroke="none" /><polygon fill="#e0e0d4" points="210,80 223,80 216,130" stroke="none" /><polygon fill="#e0e0d4" points="223,80 229,130 216,130" stroke="none" /><polygon fill="#e0e0d4" points="223,80 237,80 229,130" stroke="none" /><polygon fill="#f0f0e8" points="237,80 242,130 229,130" stroke="none" /><polygon fill="#e0e0d4" points="237,80 252,80 242,130" stroke="none" /><polygon fill="#e0e0d4" points="252,80 262,130 242,130" stroke="none" /><polygon fill="#ccccbe" points="198,130 216,130 202,185" stroke="none" /><polygon fill="#ccccbe" points="216,130 215,185 202,185" stroke="none" /><polygon fill="#e0e0d4" points="216,130 229,130 215,185" stroke="none" /><polygon fill="#e0e0d4" points="229,130 230,185 215,185" stroke="none" /><polygon fill="#e0e0d4" points="229,130 242,130 230,185" stroke="none" /><polygon fill="#e0e0d4" points="242,130 243,185 230,185" stroke="none" /><polygon fill="#e0e0d4" points="242,130 262,130 243,185" stroke="none" /><polygon fill="#e0e0d4" points="262,130 259,185 243,185" stroke="none" /><polygon fill="#d4a520" points="202,185 215,185 211,248" stroke="none" /><polygon fill="#d4a520" points="215,185 222,248 211,248" stroke="none" /><polygon fill="#f5cd30" points="215,185 230,185 222,248" stroke="none" /><polygon fill="#f5cd30" points="230,185 230,248 222,248" stroke="none" /><polygon fill="#fde066" points="230,185 243,185 230,248" stroke="none" /><polygon fill="#fde066" points="243,185 239,248 230,248" stroke="none" /><polygon fill="#f5cd30" points="243,185 259,185 239,248" stroke="none" /><polygon fill="#f5cd30" points="259,185 248,248 239,248" stroke="none" /><polygon fill="#d4a520" points="211,248 222,248 209,318" stroke="none" /><polygon fill="#d4a520" points="222,248 220,318 209,318" stroke="none" /><polygon fill="#d4a520" points="222,248 230,248 220,318" stroke="none" /><polygon fill="#d4a520" points="230,248 231,318 220,318" stroke="none" /><polygon fill="#f5cd30" points="230,248 239,248 231,318" stroke="none" /><polygon fill="#f5cd30" points="239,248 239,318 231,318" stroke="none" /><polygon fill="#d4a520" points="239,248 248,248 239,318" stroke="none" /><polygon fill="#d4a520" points="248,248 250,318 239,318" stroke="none" /><polygon fill="#b8911a" points="209,318 220,318 207,430" stroke="none" /><polygon fill="#b8911a" points="220,318 213,430 207,430" stroke="none" /><polygon fill="#d4a520" points="220,318 231,318 213,430" stroke="none" /><polygon fill="#d4a520" points="231,318 224,430 213,430" stroke="none" /><polygon fill="#b8911a" points="231,318 239,318 224,430" stroke="none" /><polygon fill="#b8911a" points="239,318 234,430 224,430" stroke="none" /><polygon fill="#d4a520" points="239,318 250,318 234,430" stroke="none" /><polygon fill="#d4a520" points="250,318 243,430 234,430" stroke="none" /><line stroke="#b0b0a0" stroke-width="2.5" x1="194" x2="254" y1="192" y2="192" /><line stroke="#b0b0a0" stroke-width="3" x1="192" x2="256" y1="86" y2="86" /><circle cx="199" cy="396" fill="#d4a520" fill-opacity="0.15" r="1.1445983028919893" stroke="none" /><circle cx="211" cy="233" fill="#d4a520" fill-opacity="0.15" r="1.3511024746045361" stroke="none" /><circle cx="220" cy="224" fill="#d4a520" fill-opacity="0.15" r="0.753474558524923" stroke="none" /><circle cx="238" cy="233" fill="#d4a520" fill-opacity="0.15" r="1.3046104914374892" stroke="none" /><circle cx="238" cy="258" fill="#d4a520" fill-opacity="0.15" r="0.5513892038705295" stroke="none" /><circle cx="226" cy="277" fill="#d4a520" fill-opacity="0.15" r="1.1474480632187458" stroke="none" /><circle cx="245" cy="344" fill="#d4a520" fill-opacity="0.15" r="1.359633665998873" stroke="none" /><polygon fill="#ccccbe" points="260,80 275,80 244,130" stroke="none" /><polygon fill="#ccccbe" points="275,80 263,130 244,130" stroke="none" /><polygon fill="#e0e0d4" points="275,80 288,80 263,130" stroke="none" /><polygon fill="#e0e0d4" points="288,80 278,130 263,130" stroke="none" /><polygon fill="#e0e0d4" points="288,80 303,80 278,130" stroke="none" /><polygon fill="#f0f0e8" points="303,80 292,130 278,130" stroke="none" /><polygon fill="#e0e0d4" points="303,80 317,80 292,130" stroke="none" /><polygon fill="#e0e0d4" points="317,80 307,130 292,130" stroke="none" /><polygon fill="#ccccbe" points="244,130 263,130 245,185" stroke="none" /><polygon fill="#ccccbe" points="263,130 258,185 245,185" stroke="none" /><polygon fill="#e0e0d4" points="263,130 278,130 258,185" stroke="none" /><polygon fill="#e0e0d4" points="278,130 273,185 258,185" stroke="none" /><polygon fill="#e0e0d4" points="278,130 292,130 273,185" stroke="none" /><polygon fill="#e0e0d4" points="292,130 288,185 273,185" stroke="none" /><polygon fill="#e0e0d4" points="292,130 307,130 288,185" stroke="none" /><polygon fill="#e0e0d4" points="307,130 299,185 288,185" stroke="none" /><polygon fill="#d4a520" points="245,185 258,185 255,248" stroke="none" /><polygon fill="#d4a520" points="258,185 262,248 255,248" stroke="none" /><polygon fill="#f5cd30" points="258,185 273,185 262,248" stroke="none" /><polygon fill="#f5cd30" points="273,185 273,248 262,248" stroke="none" /><polygon fill="#fde066" points="273,185 288,185 273,248" stroke="none" /><polygon fill="#fde066" points="288,185 282,248 273,248" stroke="none" /><polygon fill="#f5cd30" points="288,185 299,185 282,248" stroke="none" /><polygon fill="#f5cd30" points="299,185 291,248 282,248" stroke="none" /><polygon fill="#d4a520" points="255,248 262,248 254,318" stroke="none" /><polygon fill="#d4a520" points="262,248 265,318 254,318" stroke="none" /><polygon fill="#d4a520" points="262,248 273,248 265,318" stroke="none" /><polygon fill="#d4a520" points="273,248 275,318 265,318" stroke="none" /><polygon fill="#f5cd30" points="273,248 282,248 275,318" stroke="none" /><polygon fill="#f5cd30" points="282,248 289,318 275,318" stroke="none" /><polygon fill="#d4a520" points="282,248 291,248 289,318" stroke="none" /><polygon fill="#d4a520" points="291,248 299,318 289,318" stroke="none" /><polygon fill="#b8911a" points="254,318 265,318 269,430" stroke="none" /><polygon fill="#b8911a" points="265,318 278,430 269,430" stroke="none" /><polygon fill="#d4a520" points="265,318 275,318 278,430" stroke="none" /><polygon fill="#d4a520" points="275,318 289,430 278,430" stroke="none" /><polygon fill="#b8911a" points="275,318 289,318 289,430" stroke="none" /><polygon fill="#b8911a" points="289,318 299,430 289,430" stroke="none" /><polygon fill="#d4a520" points="289,318 299,318 299,430" stroke="none" /><polygon fill="#d4a520" points="299,318 306,430 299,430" stroke="none" /><line stroke="#b0b0a0" stroke-width="2.5" x1="258" x2="318" y1="192" y2="192" /><line stroke="#b0b0a0" stroke-width="3" x1="256" x2="320" y1="86" y2="86" /><circle cx="275" cy="215" fill="#d4a520" fill-opacity="0.15" r="1.0260890653485175" stroke="none" /><circle cx="308" cy="351" fill="#d4a520" fill-opacity="0.15" r="0.5342393481487032" stroke="none" /><circle cx="272" cy="397" fill="#d4a520" fill-opacity="0.15" r="1.2760285233230242" stroke="none" /><circle cx="267" cy="341" fill="#d4a520" fill-opacity="0.15" r="1.00954524504853" stroke="none" /><circle cx="298" cy="226" fill="#d4a520" fill-opacity="0.15" r="1.4924349813837567" stroke="none" /><circle cx="292" cy="217" fill="#d4a520" fill-opacity="0.15" r="1.3170938864765238" stroke="none" /><circle cx="267" cy="217" fill="#d4a520" fill-opacity="0.15" r="0.9760218498918781" stroke="none" /><circle cx="285" cy="391" fill="#d4a520" fill-opacity="0.15" r="1.2371818473872407" stroke="none" /></svg>