<?xml version="1.0" encoding="utf-8" ?>
<svg baseProfile="full" height="512" version="1.1" width="512" xmlns="http://www.w3.org/2000/svg" xmlns:ev="http://www.w3.org/2001/xml-events" xmlns:xlink="http://www.w3.org/1999/xlink"><defs /><polygon fill="#ccccbe" points="211,80 221,80 209,130" stroke="none" /><polygon fill="#ccccbe" points="221,80 222,130 209,130" stroke="none" /><polygon fill="#e0e0d4" points="221,80 231,80 222,130" stroke="none" /><polygon fill="#e0e0d4" points="231,80 230,130 222,130" stroke="none" /><polygon fill="#e0e0d4" points="231,80 240,80 230,130" stroke="none" /><polygon fill="#f0f0e8" points="240,80 242,130 230,130" stroke="none" /><polygon fill="#e0e0d4" points="240,80 251,80 242,130" stroke="none" /><polygon fill="#e0e0d4" points="251,80 253,130 242,130" stroke="none" /><polygon fill="#ccccbe" points="209,130 222,130 210,185" stroke="none" /><polygon fill="#ccccbe" points="222,130 223,185 210,185" stroke="none" /><polygon fill="#e0e0d4" points="222,130 230,130 223,185" stroke="none" /><polygon fill="#e0e0d4" points="230,130 230,185 223,185" stroke="none" /><polygon fill="#e0e0d4" points="230,130 242,130 230,185" stroke="none" /><polygon fill="#e0e0d4" points="242,130 238,185 230,185" stroke="none" /><polygon fill="#e0e0d4" points="242,130 253,130 238,185" stroke="none" /><polygon fill="#e0e0d4" points="253,130 248,185 238,185" stroke="none" /><polygon fill="#d6ae34" points="210,185 223,185 220,248" stroke="none" /><polygon fill="#d6ae34" points="223,185 223,248 220,248" stroke="none" /><polygon fill="#f6d244" points="223,185 230,185 223,248" stroke="none" /><polygon fill="#f6d244" points="230,185 233,248 223,248" stroke="none" /><polygon fill="#fee46e" points="230,185 238,185 233,248" stroke="none" /><polygon fill="#fee46e" points="238,185 239,248 233,248" stroke="none" /><polygon fill="#f6d244" points="238,185 248,185 239,248" stroke="none" /><polygon fill="#f6d244" points="248,185 244,248 239,248" stroke="none" /><polygon fill="#d6ae34" points="220,248 223,248 217,318" stroke="none" /><polygon fill="#d6ae34" points="223,248 226,318 217,318" stroke="none" /><polygon fill="#d6ae34" points="223,248 233,248 226,318" stroke="none" /><polygon fill="#d6ae34" points="233,248 230,318 226,318" stroke="none" /><polygon fill="#f6d244" points="233,248 239,248 230,318" stroke="none" /><polygon fill="#f6d244" points="239,248 237,318 230,318" stroke="none" /><polygon fill="#d6ae34" points="239,248 244,248 237,318" stroke="none" /><polygon fill="#d6ae34" points="244,248 241,318 237,318" stroke="none" /><polygon fill="#ba9a28" points="217,318 226,318 223,430" stroke="none" /><polygon fill="#ba9a28" points="226,318 226,430 223,430" stroke="none" /><polygon fill="#d6ae34" points="226,318 230,318 226,430" stroke="none" /><polygon fill="#d6ae34" points="230,318 230,430 226,430" stroke="none" /><polygon fill="#ba9a28" points="230,318 237,318 230,430" stroke="none" /><polygon fill="#ba9a28" points="237,318 236,430 230,430" stroke="none" /><polygon fill="#d6ae34" points="237,318 241,318 236,430" stroke="none" /><polygon fill="#d6ae34" points="241,318 239,430 236,430" stroke="none" /><line stroke="#b0b0a0" stroke-width="2.5" x1="210" x2="252" y1="192" y2="192" /><line stroke="#b0b0a0" stroke-width="3" x1="208" x2="254" y1="86" y2="86" /><circle cx="227" cy="411" fill="#d6ae34" fill-opacity="0.15" r="0.7889597093126858" stroke="none" /><circle cx="219" cy="392" fill="#d6ae34" fill-opacity="0.15" r="0.5736263160365936" stroke="none" /><circle cx="250" cy="248" fill="#d6ae34" fill-opacity="0.15" r="1.2459770338125362" stroke="none" /><circle cx="236" cy="223" fill="#d6ae34" fill-opacity="0.15" r="0.8071084686389789" stroke="none" /><circle cx="220" cy="256" fill="#d6ae34" fill-opacity="0.15" r="1.2275341676266849" stroke="none" /><polygon fill="#ccccbe" points="263,80 270,80 256,130" stroke="none" /><polygon fill="#ccccbe" points="270,80 272,130 256,130" stroke="none" /><polygon fill="#e0e0d4" points="270,80 281,80 272,130" stroke="none" /><polygon fill="#e0e0d4" points="281,80 279,130 272,130" stroke="none" /><polygon fill="#e0e0d4" points="281,80 290,80 279,130" stroke="none" /><polygon fill="#f0f0e8" points="290,80 291,130 279,130" stroke="none" /><polygon fill="#e0e0d4" points="290,80 301,80 291,130" stroke="none" /><polygon fill="#e0e0d4" points="301,80 302,130 291,130" stroke="none" /><polygon fill="#ccccbe" points="256,130 272,130 260,185" stroke="none" /><polygon fill="#ccccbe" points="272,130 271,185 260,185" stroke="none" /><polygon fill="#e0e0d4" points="272,130 279,130 271,185" stroke="none" /><polygon fill="#e0e0d4" points="279,130 282,185 271,185" stroke="none" /><polygon fill="#e0e0d4" points="279,130 291,130 282,185" stroke="none" /><polygon fill="#e0e0d4" points="291,130 288,185 282,185" stroke="none" /><polygon fill="#e0e0d4" points="291,130 302,130 288,185" stroke="none" /><polygon fill="#e0e0d4" points="302,130 298,185 288,185" stroke="none" /><polygon fill="#d6ae34" points="260,185 271,185 269,248" stroke="none" /><polygon fill="#d6ae34" points="271,185 274,248 269,248" stroke="none" /><polygon fill="#f6d244" points="271,185 282,185 274,248" stroke="none" /><polygon fill="#f6d244" points="282,185 281,248 274,248" stroke="none" /><polygon fill="#fee46e" points="282,185 288,185 281,248" stroke="none" /><polygon fill="#fee46e" points="288,185 287,248 281,248" stroke="none" /><polygon fill="#f6d244" points="288,185 298,185 287,248" stroke="none" /><polygon fill="#f6d244" points="298,185 292,248 287,248" stroke="none" /><polygon fill="#d6ae34" points="269,248 274,248 270,318" stroke="none" /><polygon fill="#d6ae34" points="274,248 276,318 270,318" stroke="none" /><polygon fill="#d6ae34" points="274,248 281,248 276,318" stroke="none" /><polygon fill="#d6ae34" points="281,248 282,318 276,318" stroke="none" /><polygon fill="#f6d244" points="281,248 287,248 282,318" stroke="none" /><polygon fill="#f6d244" points="287,248 288,318 282,318" stroke="none" /><polygon fill="#d6ae34" points="287,248 292,248 288,318" stroke="none" /><polygon fill="#d6ae34" points="292,248 293,318 288,318" stroke="none" /><polygon fill="#ba9a28" points="270,318 276,318 273,430" stroke="none" /><polygon fill="#ba9a28" points="276,318 274,430 273,430" stroke="none" /><polygon fill="#d6ae34" points="276,318 282,318 274,430" stroke="none" /><polygon fill="#d6ae34" points="282,318 282,430 274,430" stroke="none" /><polygon fill="#ba9a28" points="282,318 288,318 282,430" stroke="none" /><polygon fill="#ba9a28" points="288,318 287,430 282,430" stroke="none" /><polygon fill="#d6ae34" points="288,318 293,318 287,430" stroke="none" /><polygon fill="#d6ae34" points="293,318 290,430 287,430" stroke="none" /><line stroke="#b0b0a0" stroke-width="2.5" x1="260" x2="302" y1="192" y2="192" /><line stroke="#b0b0a0" stroke-width="3" x1="258" x2="304" y1="86" y2="86" /><circle cx="284" cy="304" fill="#d6ae34" fill-opacity="0.15" r="0.6802837055038794" stroke="none" /><circle cx="279" cy="416" fill="#d6ae34" fill-opacity="0.15" r="0.6203383055596113" stroke="none" /><circle cx="279" cy="259" fill="#d6ae34" fill-opacity="0.15" r="0.6881396756883432" stroke="none" /><circle cx="283" cy="323" fill="#d6ae34" fill-opacity="0.15" r="1.3500512085673924" stroke="none" /><circle cx="284" cy="234" fill="#d6ae34" fill-opacity="0.15" r="0.6698515093631402" stroke="none" /><circle cx="296" cy="251" fill="#d6ae34" fill-opacity="0.15" r="0.8799937525025225" stroke="none" /><circle cx="300" cy="337" fill="#d6ae34" fill-opacity="0.15" r="1.1970508345673425" stroke="none" /><circle cx="263" cy="198" fill="#d6ae34" fill-opacity="0.15" r="1.3292310354385255" stroke="none" /><circle cx="270" cy="421" fill="#d6ae34" fill-opacity="0.15" r="1.017632414121397" stroke="none" /><circle cx="263" cy="255" fill="#d6ae34" fill-opacity="0.15" r="1.2040622048300087" stroke="none" /><circle cx="274" cy="217" fill="#d6ae34" fill-opacity="0.15" r="1.340672430446205" stroke="none" /><circle cx="286" cy="337" fill="#d6ae34" fill-opacity="0.15" r="0.7143649856099566" stroke="none" /></svg>