<?xml version="1.0" encoding="utf-8" ?>
<svg baseProfile="full" height="512" version="1.1" width="512" xmlns="http://www.w3.org/2000/svg" xmlns:ev="http://www.w3.org/2001/xml-events" xmlns:xlink="http://www.w3.org/1999/xlink"><defs /><polygon fill="#ccccbe" points="191,80 204,80 189,130" stroke="none" /><polygon fill="#ccccbe" points="204,80 209,130 189,130" stroke="none" /><polygon fill="#e0e0d4" points="204,80 216,80 209,130" stroke="none" /><polygon fill="#e0e0d4" points="216,80 219,130 209,130" stroke="none" /><polygon fill="#e0e0d4" points="216,80 231,80 219,130" stroke="none" /><polygon fill="#f0f0e8" points="231,80 236,130 219,130" stroke="none" /><polygon fill="#e0e0d4" points="231,80 244,80 236,130" stroke="none" /><polygon fill="#e0e0d4" points="244,80 252,130 236,130" stroke="none" /><polygon fill="#ccccbe" points="189,130 209,130 199,185" stroke="none" /><polygon fill="#ccccbe" points="209,130 212,185 199,185" stroke="none" /><polygon fill="#e0e0d4" points="209,130 219,130 212,185" stroke="none" /><polygon fill="#e0e0d4" points="219,130 224,185 212,185" stroke="none" /><polygon fill="#e0e0d4" points="219,130 236,130 224,185" stroke="none" /><polygon fill="#e0e0d4" points="236,130 239,185 224,185" stroke="none" /><polygon fill="#e0e0d4" points="236,130 252,130 239,185" stroke="none" /><polygon fill="#e0e0d4" points="252,130 250,185 239,185" stroke="none" /><polygon fill="#d2a21a" points="199,185 212,185 207,248" stroke="none" /><polygon fill="#d2a21a" points="212,185 214,248 207,248" stroke="none" /><polygon fill="#f4cc2a" points="212,185 224,185 214,248" stroke="none" /><polygon fill="#f4cc2a" points="224,185 225,248 214,248" stroke="none" /><polygon fill="#fbe060" points="224,185 239,185 225,248" stroke="none" /><polygon fill="#fbe060" points="239,185 234,248 225,248" stroke="none" /><polygon fill="#f4cc2a" points="239,185 250,185 234,248" stroke="none" /><polygon fill="#f4cc2a" points="250,185 241,248 234,248" stroke="none" /><polygon fill="#d2a21a" points="207,248 214,248 201,318" stroke="none" /><polygon fill="#d2a21a" points="214,248 210,318 201,318" stroke="none" /><polygon fill="#d2a21a" points="214,248 225,248 210,318" stroke="none" /><polygon fill="#d2a21a" points="225,248 223,318 210,318" stroke="none" /><polygon fill="#f4cc2a" points="225,248 234,248 223,318" stroke="none" /><polygon fill="#f4cc2a" points="234,248 231,318 223,318" stroke="none" /><polygon fill="#d2a21a" points="234,248 241,248 231,318" stroke="none" /><polygon fill="#d2a21a" points="241,248 242,318 231,318" stroke="none" /><polygon fill="#b68e16" points="201,318 210,318 201,430" stroke="none" /><polygon fill="#b68e16" points="210,318 207,430 201,430" stroke="none" /><polygon fill="#d2a21a" points="210,318 223,318 207,430" stroke="none" /><polygon fill="#d2a21a" points="223,318 218,430 207,430" stroke="none" /><polygon fill="#b68e16" points="223,318 231,318 218,430" stroke="none" /><polygon fill="#b68e16" points="231,318 226,430 218,430" stroke="none" /><polygon fill="#d2a21a" points="231,318 242,318 226,430" stroke="none" /><polygon fill="#d2a21a" points="242,318 232,430 226,430" stroke="none" /><line stroke="#b0b0a0" stroke-width="2.5" x1="189" x2="245" y1="192" y2="192" /><line stroke="#b0b0a0" stroke-width="3" x1="187" x2="247" y1="86" y2="86" /><path d="M 227 210 Q 230 207 233 210" fill="none" stroke="#d4c0a0" stroke-opacity="0.3" stroke-width="1" /><path d="M 224 299 Q 226 297 228 299" fill="none" stroke="#d4c0a0" stroke-opacity="0.3" stroke-width="1" /><path d="M 231 230 Q 233 228 235 230" fill="none" stroke="#d4c0a0" stroke-opacity="0.3" stroke-width="1" /><path d="M 213 395 Q 215 393 217 395" fill="none" stroke="#d4c0a0" stroke-opacity="0.3" stroke-width="1" /><path d="M 222 289 Q 224 287 226 289" fill="none" stroke="#d4c0a0" stroke-opacity="0.3" stroke-width="1" /><polygon fill="#ccccbe" points="269,80 282,80 257,130" stroke="none" /><polygon fill="#ccccbe" points="282,80 273,130 257,130" stroke="none" /><polygon fill="#e0e0d4" points="282,80 295,80 273,130" stroke="none" /><polygon fill="#e0e0d4" points="295,80 288,130 273,130" stroke="none" /><polygon fill="#e0e0d4" points="295,80 309,80 288,130" stroke="none" /><polygon fill="#f0f0e8" points="309,80 298,130 288,130" stroke="none" /><polygon fill="#e0e0d4" points="309,80 321,80 298,130" stroke="none" /><polygon fill="#e0e0d4" points="321,80 314,130 298,130" stroke="none" /><polygon fill="#ccccbe" points="257,130 273,130 258,185" stroke="none" /><polygon fill="#ccccbe" points="273,130 269,185 258,185" stroke="none" /><polygon fill="#e0e0d4" points="273,130 288,130 269,185" stroke="none" /><polygon fill="#e0e0d4" points="288,130 283,185 269,185" stroke="none" /><polygon fill="#e0e0d4" points="288,130 298,130 283,185" stroke="none" /><polygon fill="#e0e0d4" points="298,130 293,185 283,185" stroke="none" /><polygon fill="#e0e0d4" points="298,130 314,130 293,185" stroke="none" /><polygon fill="#e0e0d4" points="314,130 308,185 293,185" stroke="none" /><polygon fill="#d2a21a" points="258,185 269,185 264,248" stroke="none" /><polygon fill="#d2a21a" points="269,185 271,248 264,248" stroke="none" /><polygon fill="#f4cc2a" points="269,185 283,185 271,248" stroke="none" /><polygon fill="#f4cc2a" points="283,185 282,248 271,248" stroke="none" /><polygon fill="#fbe060" points="283,185 293,185 282,248" stroke="none" /><polygon fill="#fbe060" points="293,185 291,248 282,248" stroke="none" /><polygon fill="#f4cc2a" points="293,185 308,185 291,248" stroke="none" /><polygon fill="#f4cc2a" points="308,185 300,248 291,248" stroke="none" /><polygon fill="#d2a21a" points="264,248 271,248 266,318" stroke="none" /><polygon fill="#d2a21a" points="271,248 275,318 266,318" stroke="none" /><polygon fill="#d2a21a" points="271,248 282,248 275,318" stroke="none" /><polygon fill="#d2a21a" points="282,248 285,318 275,318" stroke="none" /><polygon fill="#f4cc2a" points="282,248 291,248 285,318" stroke="none" /><polygon fill="#f4cc2a" points="291,248 297,318 285,318" stroke="none" /><polygon fill="#d2a21a" points="291,248 300,248 297,318" stroke="none" /><polygon fill="#d2a21a" points="300,248 307,318 297,318" stroke="none" /><polygon fill="#b68e16" points="266,318 275,318 279,430" stroke="none" /><polygon fill="#b68e16" points="275,318 286,430 279,430" stroke="none" /><polygon fill="#d2a21a" points="275,318 285,318 286,430" stroke="none" /><polygon fill="#d2a21a" points="285,318 294,430 286,430" stroke="none" /><polygon fill="#b68e16" points="285,318 297,318 294,430" stroke="none" /><polygon fill="#b68e16" points="297,318 304,430 294,430" stroke="none" /><polygon fill="#d2a21a" points="297,318 307,318 304,430" stroke="none" /><polygon fill="#d2a21a" points="307,318 310,430 304,430" stroke="none" /><line stroke="#b0b0a0" stroke-width="2.5" x1="267" x2="323" y1="192" y2="192" /><line stroke="#b0b0a0" stroke-width="3" x1="265" x2="325" y1="86" y2="86" /><path d="M 299 309 Q 302 306 305 309" fill="none" stroke="#d4c0a0" stroke-opacity="0.3" stroke-width="1" /><path d="M 285 268 Q 290 263 295 268" fill="none" stroke="#d4c0a0" stroke-opacity="0.3" stroke-width="1" /><path d="M 295 276 Q 299 272 303 276" fill="none" stroke="#d4c0a0" stroke-opacity="0.3" stroke-width="1" /><path d="M 294 351 Q 296 349 298 351" fill="none" stroke="#d4c0a0" stroke-opacity="0.3" stroke-width="1" /><path d="M 290 388 Q 294 384 298 388" fill="none" stroke="#d4c0a0" stroke-opacity="0.3" stroke-width="1" /><path d="M 211 237 Q 223 243 223 255" fill="none" stroke="#8a6840" stroke-width="1.5" /><path d="M 289 237 Q 301 243 301 255" fill="none" stroke="#8a6840" stroke-width="1.5" /></svg>