<?xml version="1.0" encoding="utf-8" ?>
<svg baseProfile="full" height="512" version="1.1" width="512" xmlns="http://www.w3.org/2000/svg" xmlns:ev="http://www.w3.org/2001/xml-events" xmlns:xlink="http://www.w3.org/1999/xlink"><defs /><polygon fill="#ccccbe" points="201,80 211,80 197,130" stroke="none" /><polygon fill="#ccccbe" points="211,80 212,130 197,130" stroke="none" /><polygon fill="#e0e0d4" points="211,80 222,80 212,130" stroke="none" /><polygon fill="#e0e0d4" points="222,80 223,130 212,130" stroke="none" /><polygon fill="#e0e0d4" points="222,80 232,80 223,130" stroke="none" /><polygon fill="#f0f0e8" points="232,80 232,130 223,130" stroke="none" /><polygon fill="#e0e0d4" points="232,80 243,80 232,130" stroke="none" /><polygon fill="#e0e0d4" points="243,80 246,130 232,130" stroke="none" /><polygon fill="#ccccbe" points="197,130 212,130 201,185" stroke="none" /><polygon fill="#ccccbe" points="212,130 211,185 201,185" stroke="none" /><polygon fill="#e0e0d4" points="212,130 223,130 211,185" stroke="none" /><polygon fill="#e0e0d4" points="223,130 221,185 211,185" stroke="none" /><polygon fill="#e0e0d4" points="223,130 232,130 221,185" stroke="none" /><polygon fill="#e0e0d4" points="232,130 231,185 221,185" stroke="none" /><polygon fill="#e0e0d4" points="232,130 246,130 231,185" stroke="none" /><polygon fill="#e0e0d4" points="246,130 242,185 231,185" stroke="none" /><polygon fill="#d2a21a" points="201,185 211,185 206,248" stroke="none" /><polygon fill="#d2a21a" points="211,185 213,248 206,248" stroke="none" /><polygon fill="#f4cc2a" points="211,185 221,185 213,248" stroke="none" /><polygon fill="#f4cc2a" points="221,185 223,248 213,248" stroke="none" /><polygon fill="#fbe060" points="221,185 231,185 223,248" stroke="none" /><polygon fill="#fbe060" points="231,185 229,248 223,248" stroke="none" /><polygon fill="#f4cc2a" points="231,185 242,185 229,248" stroke="none" /><polygon fill="#f4cc2a" points="242,185 237,248 229,248" stroke="none" /><polygon fill="#d2a21a" points="206,248 213,248 202,318" stroke="none" /><polygon fill="#d2a21a" points="213,248 212,318 202,318" stroke="none" /><polygon fill="#d2a21a" points="213,248 223,248 212,318" stroke="none" /><polygon fill="#d2a21a" points="223,248 221,318 212,318" stroke="none" /><polygon fill="#f4cc2a" points="223,248 229,248 221,318" stroke="none" /><polygon fill="#f4cc2a" points="229,248 229,318 221,318" stroke="none" /><polygon fill="#d2a21a" points="229,248 237,248 229,318" stroke="none" /><polygon fill="#d2a21a" points="237,248 240,318 229,318" stroke="none" /><polygon fill="#b68e16" points="202,318 212,318 208,430" stroke="none" /><polygon fill="#b68e16" points="212,318 211,430 208,430" stroke="none" /><polygon fill="#d2a21a" points="212,318 221,318 211,430" stroke="none" /><polygon fill="#d2a21a" points="221,318 220,430 211,430" stroke="none" /><polygon fill="#b68e16" points="221,318 229,318 220,430" stroke="none" /><polygon fill="#b68e16" points="229,318 230,430 220,430" stroke="none" /><polygon fill="#d2a21a" points="229,318 240,318 230,430" stroke="none" /><polygon fill="#d2a21a" points="240,318 234,430 230,430" stroke="none" /><line stroke="#b0b0a0" stroke-width="2.5" x1="198" x2="244" y1="192" y2="192" /><line stroke="#b0b0a0" stroke-width="3" x1="196" x2="246" y1="86" y2="86" /><polygon fill="#ccccbe" points="271,80 279,80 266,130" stroke="none" /><polygon fill="#ccccbe" points="279,80 282,130 266,130" stroke="none" /><polygon fill="#e0e0d4" points="279,80 291,80 282,130" stroke="none" /><polygon fill="#e0e0d4" points="291,80 292,130 282,130" stroke="none" /><polygon fill="#e0e0d4" points="291,80 302,80 292,130" stroke="none" /><polygon fill="#f0f0e8" points="302,80 302,130 292,130" stroke="none" /><polygon fill="#e0e0d4" points="302,80 313,80 302,130" stroke="none" /><polygon fill="#e0e0d4" points="313,80 317,130 302,130" stroke="none" /><polygon fill="#ccccbe" points="266,130 282,130 272,185" stroke="none" /><polygon fill="#ccccbe" points="282,130 279,185 272,185" stroke="none" /><polygon fill="#e0e0d4" points="282,130 292,130 279,185" stroke="none" /><polygon fill="#e0e0d4" points="292,130 293,185 279,185" stroke="none" /><polygon fill="#e0e0d4" points="292,130 302,130 293,185" stroke="none" /><polygon fill="#e0e0d4" points="302,130 299,185 293,185" stroke="none" /><polygon fill="#e0e0d4" points="302,130 317,130 299,185" stroke="none" /><polygon fill="#e0e0d4" points="317,130 314,185 299,185" stroke="none" /><polygon fill="#d2a21a" points="272,185 279,185 279,248" stroke="none" /><polygon fill="#d2a21a" points="279,185 285,248 279,248" stroke="none" /><polygon fill="#f4cc2a" points="279,185 293,185 285,248" stroke="none" /><polygon fill="#f4cc2a" points="293,185 292,248 285,248" stroke="none" /><polygon fill="#fbe060" points="293,185 299,185 292,248" stroke="none" /><polygon fill="#fbe060" points="299,185 296,248 292,248" stroke="none" /><polygon fill="#f4cc2a" points="299,185 314,185 296,248" stroke="none" /><polygon fill="#f4cc2a" points="314,185 305,248 296,248" stroke="none" /><polygon fill="#d2a21a" points="279,248 285,248 276,318" stroke="none" /><polygon fill="#d2a21a" points="285,248 282,318 276,318" stroke="none" /><polygon fill="#d2a21a" points="285,248 292,248 282,318" stroke="none" /><polygon fill="#d2a21a" points="292,248 293,318 282,318" stroke="none" /><polygon fill="#f4cc2a" points="292,248 296,248 293,318" stroke="none" /><polygon fill="#f4cc2a" points="296,248 298,318 293,318" stroke="none" /><polygon fill="#d2a21a" points="296,248 305,248 298,318" stroke="none" /><polygon fill="#d2a21a" points="305,248 307,318 298,318" stroke="none" /><polygon fill="#b68e16" points="276,318 282,318 279,430" stroke="none" /><polygon fill="#b68e16" points="282,318 282,430 279,430" stroke="none" /><polygon fill="#d2a21a" points="282,318 293,318 282,430" stroke="none" /><polygon fill="#d2a21a" points="293,318 291,430 282,430" stroke="none" /><polygon fill="#b68e16" points="293,318 298,318 291,430" stroke="none" /><polygon fill="#b68e16" points="298,318 300,430 291,430" stroke="none" /><polygon fill="#d2a21a" points="298,318 307,318 300,430" stroke="none" /><polygon fill="#d2a21a" points="307,318 303,430 300,430" stroke="none" /><line stroke="#b0b0a0" stroke-width="2.5" x1="268" x2="314" y1="192" y2="192" /><line stroke="#b0b0a0" stroke-width="3" x1="266" x2="316" y1="86" y2="86" /></svg>