<?xml version="1.0" encoding="utf-8" ?>
<svg baseProfile="full" height="512" version="1.1" width="512" xmlns="http://www.w3.org/2000/svg" xmlns:ev="http://www.w3.org/2001/xml-events" xmlns:xlink="http://www.w3.org/1999/xlink"><defs /><polygon fill="#ccccbe" points="191,80 206,80 187,130" stroke="none" /><polygon fill="#ccccbe" points="206,80 205,130 187,130" stroke="none" /><polygon fill="#e0e0d4" points="206,80 222,80 205,130" stroke="none" /><polygon fill="#e0e0d4" points="222,80 221,130 205,130" stroke="none" /><polygon fill="#e0e0d4" points="222,80 236,80 221,130" stroke="none" /><polygon fill="#f0f0e8" points="236,80 239,130 221,130" stroke="none" /><polygon fill="#e0e0d4" points="236,80 253,80 239,130" stroke="none" /><polygon fill="#e0e0d4" points="253,80 256,130 239,130" stroke="none" /><polygon fill="#ccccbe" points="187,130 205,130 193,185" stroke="none" /><polygon fill="#ccccbe" points="205,130 205,185 193,185" stroke="none" /><polygon fill="#e0e0d4" points="205,130 221,130 205,185" stroke="none" /><polygon fill="#e0e0d4" points="221,130 223,185 205,185" stroke="none" /><polygon fill="#e0e0d4" points="221,130 239,130 223,185" stroke="none" /><polygon fill="#e0e0d4" points="239,130 239,185 223,185" stroke="none" /><polygon fill="#e0e0d4" points="239,130 256,130 239,185" stroke="none" /><polygon fill="#e0e0d4" points="256,130 251,185 239,185" stroke="none" /><polygon fill="#d4a41e" points="193,185 205,185 203,248" stroke="none" /><polygon fill="#d4a41e" points="205,185 212,248 203,248" stroke="none" /><polygon fill="#f5ce2e" points="205,185 223,185 212,248" stroke="none" /><polygon fill="#f5ce2e" points="223,185 223,248 212,248" stroke="none" /><polygon fill="#fde064" points="223,185 239,185 223,248" stroke="none" /><polygon fill="#fde064" points="239,185 232,248 223,248" stroke="none" /><polygon fill="#f5ce2e" points="239,185 251,185 232,248" stroke="none" /><polygon fill="#f5ce2e" points="251,185 243,248 232,248" stroke="none" /><polygon fill="#d4a41e" points="203,248 212,248 201,318" stroke="none" /><polygon fill="#d4a41e" points="212,248 212,318 201,318" stroke="none" /><polygon fill="#d4a41e" points="212,248 223,248 212,318" stroke="none" /><polygon fill="#d4a41e" points="223,248 221,318 212,318" stroke="none" /><polygon fill="#f5ce2e" points="223,248 232,248 221,318" stroke="none" /><polygon fill="#f5ce2e" points="232,248 231,318 221,318" stroke="none" /><polygon fill="#d4a41e" points="232,248 243,248 231,318" stroke="none" /><polygon fill="#d4a41e" points="243,248 244,318 231,318" stroke="none" /><polygon fill="#b89218" points="201,318 212,318 205,430" stroke="none" /><polygon fill="#b89218" points="212,318 211,430 205,430" stroke="none" /><polygon fill="#d4a41e" points="212,318 221,318 211,430" stroke="none" /><polygon fill="#d4a41e" points="221,318 221,430 211,430" stroke="none" /><polygon fill="#b89218" points="221,318 231,318 221,430" stroke="none" /><polygon fill="#b89218" points="231,318 232,430 221,430" stroke="none" /><polygon fill="#d4a41e" points="231,318 244,318 232,430" stroke="none" /><polygon fill="#d4a41e" points="244,318 241,430 232,430" stroke="none" /><line stroke="#b0b0a0" stroke-width="2.5" x1="190" x2="254" y1="192" y2="192" /><line stroke="#b0b0a0" stroke-width="3" x1="188" x2="256" y1="86" y2="86" /><ellipse cx="230" cy="271" fill="white" fill-opacity="0.12" rx="3" ry="2" stroke="none" /><ellipse cx="237" cy="341" fill="white" fill-opacity="0.12" rx="3" ry="2" stroke="none" /><ellipse cx="235" cy="236" fill="white" fill-opacity="0.12" rx="3" ry="2" stroke="none" /><ellipse cx="233" cy="259" fill="white" fill-opacity="0.12" rx="3" ry="2" stroke="none" /><polygon fill="#ccccbe" points="261,80 274,80 258,130" stroke="none" /><polygon fill="#ccccbe" points="274,80 274,130 258,130" stroke="none" /><polygon fill="#e0e0d4" points="274,80 290,80 274,130" stroke="none" /><polygon fill="#e0e0d4" points="290,80 291,130 274,130" stroke="none" /><polygon fill="#e0e0d4" points="290,80 304,80 291,130" stroke="none" /><polygon fill="#f0f0e8" points="304,80 305,130 291,130" stroke="none" /><polygon fill="#e0e0d4" points="304,80 319,80 305,130" stroke="none" /><polygon fill="#e0e0d4" points="319,80 325,130 305,130" stroke="none" /><polygon fill="#ccccbe" points="258,130 274,130 259,185" stroke="none" /><polygon fill="#ccccbe" points="274,130 276,185 259,185" stroke="none" /><polygon fill="#e0e0d4" points="274,130 291,130 276,185" stroke="none" /><polygon fill="#e0e0d4" points="291,130 292,185 276,185" stroke="none" /><polygon fill="#e0e0d4" points="291,130 305,130 292,185" stroke="none" /><polygon fill="#e0e0d4" points="305,130 303,185 292,185" stroke="none" /><polygon fill="#e0e0d4" points="305,130 325,130 303,185" stroke="none" /><polygon fill="#e0e0d4" points="325,130 322,185 303,185" stroke="none" /><polygon fill="#d4a41e" points="259,185 276,185 270,248" stroke="none" /><polygon fill="#d4a41e" points="276,185 280,248 270,248" stroke="none" /><polygon fill="#f5ce2e" points="276,185 292,185 280,248" stroke="none" /><polygon fill="#f5ce2e" points="292,185 289,248 280,248" stroke="none" /><polygon fill="#fde064" points="292,185 303,185 289,248" stroke="none" /><polygon fill="#fde064" points="303,185 299,248 289,248" stroke="none" /><polygon fill="#f5ce2e" points="303,185 322,185 299,248" stroke="none" /><polygon fill="#f5ce2e" points="322,185 312,248 299,248" stroke="none" /><polygon fill="#d4a41e" points="270,248 280,248 269,318" stroke="none" /><polygon fill="#d4a41e" points="280,248 278,318 269,318" stroke="none" /><polygon fill="#d4a41e" points="280,248 289,248 278,318" stroke="none" /><polygon fill="#d4a41e" points="289,248 292,318 278,318" stroke="none" /><polygon fill="#f5ce2e" points="289,248 299,248 292,318" stroke="none" /><polygon fill="#f5ce2e" points="299,248 303,318 292,318" stroke="none" /><polygon fill="#d4a41e" points="299,248 312,248 303,318" stroke="none" /><polygon fill="#d4a41e" points="312,248 313,318 303,318" stroke="none" /><polygon fill="#b89218" points="269,318 278,318 273,430" stroke="none" /><polygon fill="#b89218" points="278,318 278,430 273,430" stroke="none" /><polygon fill="#d4a41e" points="278,318 292,318 278,430" stroke="none" /><polygon fill="#d4a41e" points="292,318 291,430 278,430" stroke="none" /><polygon fill="#b89218" points="292,318 303,318 291,430" stroke="none" /><polygon fill="#b89218" points="303,318 301,430 291,430" stroke="none" /><polygon fill="#d4a41e" points="303,318 313,318 301,430" stroke="none" /><polygon fill="#d4a41e" points="313,318 308,430 301,430" stroke="none" /><line stroke="#b0b0a0" stroke-width="2.5" x1="258" x2="322" y1="192" y2="192" /><line stroke="#b0b0a0" stroke-width="3" x1="256" x2="324" y1="86" y2="86" /><ellipse cx="291" cy="318" fill="white" fill-opacity="0.12" rx="3" ry="2" stroke="none" /><ellipse cx="283" cy="373" fill="white" fill-opacity="0.12" rx="3" ry="2" stroke="none" /><ellipse cx="291" cy="209" fill="white" fill-opacity="0.12" rx="3" ry="2" stroke="none" /><ellipse cx="280" cy="307" fill="white" fill-opacity="0.12" rx="3" ry="2" stroke="none" /></svg>