<?xml version="1.0" encoding="utf-8" ?>
<svg baseProfile="full" height="512" version="1.1" width="512" xmlns="http://www.w3.org/2000/svg" xmlns:ev="http://www.w3.org/2001/xml-events" xmlns:xlink="http://www.w3.org/1999/xlink"><defs /><polygon fill="#ccccbe" points="211,80 220,80 195,130" stroke="none" /><polygon fill="#ccccbe" points="220,80 208,130 195,130" stroke="none" /><polygon fill="#e0e0d4" points="220,80 229,80 208,130" stroke="none" /><polygon fill="#e0e0d4" points="229,80 219,130 208,130" stroke="none" /><polygon fill="#e0e0d4" points="229,80 240,80 219,130" stroke="none" /><polygon fill="#f0f0e8" points="240,80 230,130 219,130" stroke="none" /><polygon fill="#e0e0d4" points="240,80 248,80 230,130" stroke="none" /><polygon fill="#e0e0d4" points="248,80 243,130 230,130" stroke="none" /><polygon fill="#ccccbe" points="195,130 208,130 199,185" stroke="none" /><polygon fill="#ccccbe" points="208,130 207,185 199,185" stroke="none" /><polygon fill="#e0e0d4" points="208,130 219,130 207,185" stroke="none" /><polygon fill="#e0e0d4" points="219,130 215,185 207,185" stroke="none" /><polygon fill="#e0e0d4" points="219,130 230,130 215,185" stroke="none" /><polygon fill="#e0e0d4" points="230,130 224,185 215,185" stroke="none" /><polygon fill="#e0e0d4" points="230,130 243,130 224,185" stroke="none" /><polygon fill="#e0e0d4" points="243,130 237,185 224,185" stroke="none" /><polygon fill="#d0a018" points="199,185 207,185 204,248" stroke="none" /><polygon fill="#d0a018" points="207,185 212,248 204,248" stroke="none" /><polygon fill="#f3ca24" points="207,185 215,185 212,248" stroke="none" /><polygon fill="#f3ca24" points="215,185 218,248 212,248" stroke="none" /><polygon fill="#fade5c" points="215,185 224,185 218,248" stroke="none" /><polygon fill="#fade5c" points="224,185 222,248 218,248" stroke="none" /><polygon fill="#f3ca24" points="224,185 237,185 222,248" stroke="none" /><polygon fill="#f3ca24" points="237,185 230,248 222,248" stroke="none" /><polygon fill="#d0a018" points="204,248 212,248 202,318" stroke="none" /><polygon fill="#d0a018" points="212,248 212,318 202,318" stroke="none" /><polygon fill="#d0a018" points="212,248 218,248 212,318" stroke="none" /><polygon fill="#d0a018" points="218,248 221,318 212,318" stroke="none" /><polygon fill="#f3ca24" points="218,248 222,248 221,318" stroke="none" /><polygon fill="#f3ca24" points="222,248 228,318 221,318" stroke="none" /><polygon fill="#d0a018" points="222,248 230,248 228,318" stroke="none" /><polygon fill="#d0a018" points="230,248 238,318 228,318" stroke="none" /><polygon fill="#b48c14" points="202,318 212,318 217,430" stroke="none" /><polygon fill="#b48c14" points="212,318 221,430 217,430" stroke="none" /><polygon fill="#d0a018" points="212,318 221,318 221,430" stroke="none" /><polygon fill="#d0a018" points="221,318 231,430 221,430" stroke="none" /><polygon fill="#b48c14" points="221,318 228,318 231,430" stroke="none" /><polygon fill="#b48c14" points="228,318 237,430 231,430" stroke="none" /><polygon fill="#d0a018" points="228,318 238,318 237,430" stroke="none" /><polygon fill="#d0a018" points="238,318 243,430 237,430" stroke="none" /><line stroke="#b0b0a0" stroke-width="2.5" x1="209" x2="251" y1="192" y2="192" /><line stroke="#b0b0a0" stroke-width="3" x1="207" x2="253" y1="86" y2="86" /><polygon fill="#ccccbe" points="264,80 271,80 267,130" stroke="none" /><polygon fill="#ccccbe" points="271,80 278,130 267,130" stroke="none" /><polygon fill="#e0e0d4" points="271,80 282,80 278,130" stroke="none" /><polygon fill="#e0e0d4" points="282,80 290,130 278,130" stroke="none" /><polygon fill="#e0e0d4" points="282,80 292,80 290,130" stroke="none" /><polygon fill="#f0f0e8" points="292,80 296,130 290,130" stroke="none" /><polygon fill="#e0e0d4" points="292,80 300,80 296,130" stroke="none" /><polygon fill="#e0e0d4" points="300,80 309,130 296,130" stroke="none" /><polygon fill="#ccccbe" points="267,130 278,130 271,185" stroke="none" /><polygon fill="#ccccbe" points="278,130 284,185 271,185" stroke="none" /><polygon fill="#e0e0d4" points="278,130 290,130 284,185" stroke="none" /><polygon fill="#e0e0d4" points="290,130 290,185 284,185" stroke="none" /><polygon fill="#e0e0d4" points="290,130 296,130 290,185" stroke="none" /><polygon fill="#e0e0d4" points="296,130 303,185 290,185" stroke="none" /><polygon fill="#e0e0d4" points="296,130 309,130 303,185" stroke="none" /><polygon fill="#e0e0d4" points="309,130 313,185 303,185" stroke="none" /><polygon fill="#d0a018" points="271,185 284,185 278,248" stroke="none" /><polygon fill="#d0a018" points="284,185 287,248 278,248" stroke="none" /><polygon fill="#f3ca24" points="284,185 290,185 287,248" stroke="none" /><polygon fill="#f3ca24" points="290,185 293,248 287,248" stroke="none" /><polygon fill="#fade5c" points="290,185 303,185 293,248" stroke="none" /><polygon fill="#fade5c" points="303,185 298,248 293,248" stroke="none" /><polygon fill="#f3ca24" points="303,185 313,185 298,248" stroke="none" /><polygon fill="#f3ca24" points="313,185 306,248 298,248" stroke="none" /><polygon fill="#d0a018" points="278,248 287,248 269,318" stroke="none" /><polygon fill="#d0a018" points="287,248 277,318 269,318" stroke="none" /><polygon fill="#d0a018" points="287,248 293,248 277,318" stroke="none" /><polygon fill="#d0a018" points="293,248 287,318 277,318" stroke="none" /><polygon fill="#f3ca24" points="293,248 298,248 287,318" stroke="none" /><polygon fill="#f3ca24" points="298,248 297,318 287,318" stroke="none" /><polygon fill="#d0a018" points="298,248 306,248 297,318" stroke="none" /><polygon fill="#d0a018" points="306,248 303,318 297,318" stroke="none" /><polygon fill="#b48c14" points="269,318 277,318 270,430" stroke="none" /><polygon fill="#b48c14" points="277,318 273,430 270,430" stroke="none" /><polygon fill="#d0a018" points="277,318 287,318 273,430" stroke="none" /><polygon fill="#d0a018" points="287,318 282,430 273,430" stroke="none" /><polygon fill="#b48c14" points="287,318 297,318 282,430" stroke="none" /><polygon fill="#b48c14" points="297,318 291,430 282,430" stroke="none" /><polygon fill="#d0a018" points="297,318 303,318 291,430" stroke="none" /><polygon fill="#d0a018" points="303,318 295,430 291,430" stroke="none" /><line stroke="#b0b0a0" stroke-width="2.5" x1="261" x2="303" y1="192" y2="192" /><line stroke="#b0b0a0" stroke-width="3" x1="259" x2="305" y1="86" y2="86" /><path d="M 224 237 Q 236 243 236 255" fill="none" stroke="#8a6840" stroke-width="1.5" /><path d="M 276 237 Q 288 243 288 255" fill="none" stroke="#8a6840" stroke-width="1.5" /></svg>