<?xml version="1.0" encoding="utf-8" ?>
<svg baseProfile="full" height="512" version="1.1" width="512" xmlns="http://www.w3.org/2000/svg" xmlns:ev="http://www.w3.org/2001/xml-events" xmlns:xlink="http://www.w3.org/1999/xlink"><defs /><polygon fill="#ccccbe" points="204,80 212,80 187,130" stroke="none" /><polygon fill="#ccccbe" points="212,80 200,130 187,130" stroke="none" /><polygon fill="#e0e0d4" points="212,80 223,80 200,130" stroke="none" /><polygon fill="#e0e0d4" points="223,80 213,130 200,130" stroke="none" /><polygon fill="#e0e0d4" points="223,80 234,80 213,130" stroke="none" /><polygon fill="#f0f0e8" points="234,80 221,130 213,130" stroke="none" /><polygon fill="#e0e0d4" points="234,80 246,80 221,130" stroke="none" /><polygon fill="#e0e0d4" points="246,80 238,130 221,130" stroke="none" /><polygon fill="#ccccbe" points="187,130 200,130 187,185" stroke="none" /><polygon fill="#ccccbe" points="200,130 196,185 187,185" stroke="none" /><polygon fill="#e0e0d4" points="200,130 213,130 196,185" stroke="none" /><polygon fill="#e0e0d4" points="213,130 205,185 196,185" stroke="none" /><polygon fill="#e0e0d4" points="213,130 221,130 205,185" stroke="none" /><polygon fill="#e0e0d4" points="221,130 219,185 205,185" stroke="none" /><polygon fill="#e0e0d4" points="221,130 238,130 219,185" stroke="none" /><polygon fill="#e0e0d4" points="238,130 226,185 219,185" stroke="none" /><polygon fill="#d6a828" points="187,185 196,185 194,248" stroke="none" /><polygon fill="#d6a828" points="196,185 198,248 194,248" stroke="none" /><polygon fill="#f6ce38" points="196,185 205,185 198,248" stroke="none" /><polygon fill="#f6ce38" points="205,185 208,248 198,248" stroke="none" /><polygon fill="#fee06a" points="205,185 219,185 208,248" stroke="none" /><polygon fill="#fee06a" points="219,185 212,248 208,248" stroke="none" /><polygon fill="#f6ce38" points="219,185 226,185 212,248" stroke="none" /><polygon fill="#f6ce38" points="226,185 222,248 212,248" stroke="none" /><polygon fill="#d6a828" points="194,248 198,248 196,318" stroke="none" /><polygon fill="#d6a828" points="198,248 205,318 196,318" stroke="none" /><polygon fill="#d6a828" points="198,248 208,248 205,318" stroke="none" /><polygon fill="#d6a828" points="208,248 212,318 205,318" stroke="none" /><polygon fill="#f6ce38" points="208,248 212,248 212,318" stroke="none" /><polygon fill="#f6ce38" points="212,248 218,318 212,318" stroke="none" /><polygon fill="#d6a828" points="212,248 222,248 218,318" stroke="none" /><polygon fill="#d6a828" points="222,248 226,318 218,318" stroke="none" /><polygon fill="#ba9420" points="196,318 205,318 213,430" stroke="none" /><polygon fill="#ba9420" points="205,318 215,430 213,430" stroke="none" /><polygon fill="#d6a828" points="205,318 212,318 215,430" stroke="none" /><polygon fill="#d6a828" points="212,318 224,430 215,430" stroke="none" /><polygon fill="#ba9420" points="212,318 218,318 224,430" stroke="none" /><polygon fill="#ba9420" points="218,318 232,430 224,430" stroke="none" /><polygon fill="#d6a828" points="218,318 226,318 232,430" stroke="none" /><polygon fill="#d6a828" points="226,318 235,430 232,430" stroke="none" /><line stroke="#b0b0a0" stroke-width="2.5" x1="201" x2="247" y1="192" y2="192" /><line stroke="#b0b0a0" stroke-width="3" x1="199" x2="249" y1="86" y2="86" /><ellipse cx="221" cy="265" fill="white" fill-opacity="0.12" rx="3" ry="2" stroke="none" /><ellipse cx="229" cy="267" fill="white" fill-opacity="0.12" rx="3" ry="2" stroke="none" /><ellipse cx="228" cy="236" fill="white" fill-opacity="0.12" rx="3" ry="2" stroke="none" /><ellipse cx="218" cy="386" fill="white" fill-opacity="0.12" rx="3" ry="2" stroke="none" /><polygon fill="#ccccbe" points="266,80 276,80 268,130" stroke="none" /><polygon fill="#ccccbe" points="276,80 282,130 268,130" stroke="none" /><polygon fill="#e0e0d4" points="276,80 288,80 282,130" stroke="none" /><polygon fill="#e0e0d4" points="288,80 294,130 282,130" stroke="none" /><polygon fill="#e0e0d4" points="288,80 299,80 294,130" stroke="none" /><polygon fill="#f0f0e8" points="299,80 301,130 294,130" stroke="none" /><polygon fill="#e0e0d4" points="299,80 308,80 301,130" stroke="none" /><polygon fill="#e0e0d4" points="308,80 320,130 301,130" stroke="none" /><polygon fill="#ccccbe" points="268,130 282,130 274,185" stroke="none" /><polygon fill="#ccccbe" points="282,130 285,185 274,185" stroke="none" /><polygon fill="#e0e0d4" points="282,130 294,130 285,185" stroke="none" /><polygon fill="#e0e0d4" points="294,130 295,185 285,185" stroke="none" /><polygon fill="#e0e0d4" points="294,130 301,130 295,185" stroke="none" /><polygon fill="#e0e0d4" points="301,130 307,185 295,185" stroke="none" /><polygon fill="#e0e0d4" points="301,130 320,130 307,185" stroke="none" /><polygon fill="#e0e0d4" points="320,130 319,185 307,185" stroke="none" /><polygon fill="#d6a828" points="274,185 285,185 282,248" stroke="none" /><polygon fill="#d6a828" points="285,185 287,248 282,248" stroke="none" /><polygon fill="#f6ce38" points="285,185 295,185 287,248" stroke="none" /><polygon fill="#f6ce38" points="295,185 296,248 287,248" stroke="none" /><polygon fill="#fee06a" points="295,185 307,185 296,248" stroke="none" /><polygon fill="#fee06a" points="307,185 305,248 296,248" stroke="none" /><polygon fill="#f6ce38" points="307,185 319,185 305,248" stroke="none" /><polygon fill="#f6ce38" points="319,185 311,248 305,248" stroke="none" /><polygon fill="#d6a828" points="282,248 287,248 276,318" stroke="none" /><polygon fill="#d6a828" points="287,248 287,318 276,318" stroke="none" /><polygon fill="#d6a828" points="287,248 296,248 287,318" stroke="none" /><polygon fill="#d6a828" points="296,248 292,318 287,318" stroke="none" /><polygon fill="#f6ce38" points="296,248 305,248 292,318" stroke="none" /><polygon fill="#f6ce38" points="305,248 302,318 292,318" stroke="none" /><polygon fill="#d6a828" points="305,248 311,248 302,318" stroke="none" /><polygon fill="#d6a828" points="311,248 309,318 302,318" stroke="none" /><polygon fill="#ba9420" points="276,318 287,318 277,430" stroke="none" /><polygon fill="#ba9420" points="287,318 279,430 277,430" stroke="none" /><polygon fill="#d6a828" points="287,318 292,318 279,430" stroke="none" /><polygon fill="#d6a828" points="292,318 287,430 279,430" stroke="none" /><polygon fill="#ba9420" points="292,318 302,318 287,430" stroke="none" /><polygon fill="#ba9420" points="302,318 294,430 287,430" stroke="none" /><polygon fill="#d6a828" points="302,318 309,318 294,430" stroke="none" /><polygon fill="#d6a828" points="309,318 300,430 294,430" stroke="none" /><line stroke="#b0b0a0" stroke-width="2.5" x1="265" x2="311" y1="192" y2="192" /><line stroke="#b0b0a0" stroke-width="3" x1="263" x2="313" y1="86" y2="86" /><ellipse cx="293" cy="263" fill="white" fill-opacity="0.12" rx="3" ry="2" stroke="none" /><ellipse cx="280" cy="334" fill="white" fill-opacity="0.12" rx="3" ry="2" stroke="none" /><ellipse cx="282" cy="392" fill="white" fill-opacity="0.12" rx="3" ry="2" stroke="none" /></svg>