<?xml version="1.0" encoding="utf-8" ?>
<svg baseProfile="full" height="512" version="1.1" width="512" xmlns="http://www.w3.org/2000/svg" xmlns:ev="http://www.w3.org/2001/xml-events" xmlns:xlink="http://www.w3.org/1999/xlink"><defs /><polygon fill="#ccccbe" points="174,80 193,80 163,130" stroke="none" /><polygon fill="#ccccbe" points="193,80 186,130 163,130" stroke="none" /><polygon fill="#e0e0d4" points="193,80 213,80 186,130" stroke="none" /><polygon fill="#e0e0d4" points="213,80 205,130 186,130" stroke="none" /><polygon fill="#e0e0d4" points="213,80 232,80 205,130" stroke="none" /><polygon fill="#f0f0e8" points="232,80 224,130 205,130" stroke="none" /><polygon fill="#e0e0d4" points="232,80 250,80 224,130" stroke="none" /><polygon fill="#e0e0d4" points="250,80 245,130 224,130" stroke="none" /><polygon fill="#ccccbe" points="163,130 186,130 162,185" stroke="none" /><polygon fill="#ccccbe" points="186,130 181,185 162,185" stroke="none" /><polygon fill="#e0e0d4" points="186,130 205,130 181,185" stroke="none" /><polygon fill="#e0e0d4" points="205,130 199,185 181,185" stroke="none" /><polygon fill="#e0e0d4" points="205,130 224,130 199,185" stroke="none" /><polygon fill="#e0e0d4" points="224,130 219,185 199,185" stroke="none" /><polygon fill="#e0e0d4" points="224,130 245,130 219,185" stroke="none" /><polygon fill="#e0e0d4" points="245,130 238,185 219,185" stroke="none" /><polygon fill="#d2a41c" points="162,185 181,185 173,248" stroke="none" /><polygon fill="#d2a41c" points="181,185 185,248 173,248" stroke="none" /><polygon fill="#f4cc2c" points="181,185 199,185 185,248" stroke="none" /><polygon fill="#f4cc2c" points="199,185 199,248 185,248" stroke="none" /><polygon fill="#fce062" points="199,185 219,185 199,248" stroke="none" /><polygon fill="#fce062" points="219,185 211,248 199,248" stroke="none" /><polygon fill="#f4cc2c" points="219,185 238,185 211,248" stroke="none" /><polygon fill="#f4cc2c" points="238,185 228,248 211,248" stroke="none" /><polygon fill="#d2a41c" points="173,248 185,248 190,318" stroke="none" /><polygon fill="#d2a41c" points="185,248 196,318 190,318" stroke="none" /><polygon fill="#d2a41c" points="185,248 199,248 196,318" stroke="none" /><polygon fill="#d2a41c" points="199,248 204,318 196,318" stroke="none" /><polygon fill="#f4cc2c" points="199,248 211,248 204,318" stroke="none" /><polygon fill="#f4cc2c" points="211,248 210,318 204,318" stroke="none" /><polygon fill="#d2a41c" points="211,248 228,248 210,318" stroke="none" /><polygon fill="#d2a41c" points="228,248 219,318 210,318" stroke="none" /><polygon fill="#b69018" points="190,318 196,318 200,430" stroke="none" /><polygon fill="#b69018" points="196,318 205,430 200,430" stroke="none" /><polygon fill="#d2a41c" points="196,318 204,318 205,430" stroke="none" /><polygon fill="#d2a41c" points="204,318 212,430 205,430" stroke="none" /><polygon fill="#b69018" points="204,318 210,318 212,430" stroke="none" /><polygon fill="#b69018" points="210,318 218,430 212,430" stroke="none" /><polygon fill="#d2a41c" points="210,318 219,318 218,430" stroke="none" /><polygon fill="#d2a41c" points="219,318 223,430 218,430" stroke="none" /><line stroke="#b0b0a0" stroke-width="2.5" x1="171" x2="253" y1="192" y2="192" /><line stroke="#b0b0a0" stroke-width="3" x1="169" x2="255" y1="86" y2="86" /><circle cx="243" cy="235" fill="#d2a41c" fill-opacity="0.15" r="1.2132267818671505" stroke="none" /><circle cx="214" cy="213" fill="#d2a41c" fill-opacity="0.15" r="1.2659524425541613" stroke="none" /><circle cx="186" cy="297" fill="#d2a41c" fill-opacity="0.15" r="0.7350789248536908" stroke="none" /><circle cx="193" cy="272" fill="#d2a41c" fill-opacity="0.15" r="0.6395519337650509" stroke="none" /><circle cx="228" cy="269" fill="#d2a41c" fill-opacity="0.15" r="1.3848566626938235" stroke="none" /><circle cx="193" cy="357" fill="#d2a41c" fill-opacity="0.15" r="0.789999639211786" stroke="none" /><circle cx="215" cy="260" fill="#d2a41c" fill-opacity="0.15" r="1.3439268147385017" stroke="none" /><circle cx="220" cy="349" fill="#d2a41c" fill-opacity="0.15" r="0.9749386172935836" stroke="none" /><circle cx="191" cy="318" fill="#d2a41c" fill-opacity="0.15" r="1.1710276069725962" stroke="none" /><polygon fill="#ccccbe" points="262,80 279,80 267,130" stroke="none" /><polygon fill="#ccccbe" points="279,80 287,130 267,130" stroke="none" /><polygon fill="#e0e0d4" points="279,80 300,80 287,130" stroke="none" /><polygon fill="#e0e0d4" points="300,80 310,130 287,130" stroke="none" /><polygon fill="#e0e0d4" points="300,80 319,80 310,130" stroke="none" /><polygon fill="#f0f0e8" points="319,80 328,130 310,130" stroke="none" /><polygon fill="#e0e0d4" points="319,80 340,80 328,130" stroke="none" /><polygon fill="#e0e0d4" points="340,80 353,130 328,130" stroke="none" /><polygon fill="#ccccbe" points="267,130 287,130 275,185" stroke="none" /><polygon fill="#ccccbe" points="287,130 293,185 275,185" stroke="none" /><polygon fill="#e0e0d4" points="287,130 310,130 293,185" stroke="none" /><polygon fill="#e0e0d4" points="310,130 314,185 293,185" stroke="none" /><polygon fill="#e0e0d4" points="310,130 328,130 314,185" stroke="none" /><polygon fill="#e0e0d4" points="328,130 330,185 314,185" stroke="none" /><polygon fill="#e0e0d4" points="328,130 353,130 330,185" stroke="none" /><polygon fill="#e0e0d4" points="353,130 353,185 330,185" stroke="none" /><polygon fill="#d2a41c" points="275,185 293,185 286,248" stroke="none" /><polygon fill="#d2a41c" points="293,185 300,248 286,248" stroke="none" /><polygon fill="#f4cc2c" points="293,185 314,185 300,248" stroke="none" /><polygon fill="#f4cc2c" points="314,185 312,248 300,248" stroke="none" /><polygon fill="#fce062" points="314,185 330,185 312,248" stroke="none" /><polygon fill="#fce062" points="330,185 326,248 312,248" stroke="none" /><polygon fill="#f4cc2c" points="330,185 353,185 326,248" stroke="none" /><polygon fill="#f4cc2c" points="353,185 337,248 326,248" stroke="none" /><polygon fill="#d2a41c" points="286,248 300,248 293,318" stroke="none" /><polygon fill="#d2a41c" points="300,248 299,318 293,318" stroke="none" /><polygon fill="#d2a41c" points="300,248 312,248 299,318" stroke="none" /><polygon fill="#d2a41c" points="312,248 310,318 299,318" stroke="none" /><polygon fill="#f4cc2c" points="312,248 326,248 310,318" stroke="none" /><polygon fill="#f4cc2c" points="326,248 315,318 310,318" stroke="none" /><polygon fill="#d2a41c" points="326,248 337,248 315,318" stroke="none" /><polygon fill="#d2a41c" points="337,248 323,318 315,318" stroke="none" /><polygon fill="#b69018" points="293,318 299,318 288,430" stroke="none" /><polygon fill="#b69018" points="299,318 293,430 288,430" stroke="none" /><polygon fill="#d2a41c" points="299,318 310,318 293,430" stroke="none" /><polygon fill="#d2a41c" points="310,318 301,430 293,430" stroke="none" /><polygon fill="#b69018" points="310,318 315,318 301,430" stroke="none" /><polygon fill="#b69018" points="315,318 306,430 301,430" stroke="none" /><polygon fill="#d2a41c" points="315,318 323,318 306,430" stroke="none" /><polygon fill="#d2a41c" points="323,318 310,430 306,430" stroke="none" /><line stroke="#b0b0a0" stroke-width="2.5" x1="259" x2="341" y1="192" y2="192" /><line stroke="#b0b0a0" stroke-width="3" x1="257" x2="343" y1="86" y2="86" /><circle cx="313" cy="393" fill="#d2a41c" fill-opacity="0.15" r="1.3478041269339154" stroke="none" /><circle cx="337" cy="278" fill="#d2a41c" fill-opacity="0.15" r="1.3652135803427492" stroke="none" /><circle cx="313" cy="353" fill="#d2a41c" fill-opacity="0.15" r="0.7563481748012527" stroke="none" /><circle cx="329" cy="239" fill="#d2a41c" fill-opacity="0.15" r="0.637182356284592" stroke="none" /><circle cx="300" cy="233" fill="#d2a41c" fill-opacity="0.15" r="0.5244123788021785" stroke="none" /><circle cx="336" cy="339" fill="#d2a41c" fill-opacity="0.15" r="1.4744976031691648" stroke="none" /><circle cx="262" cy="356" fill="#d2a41c" fill-opacity="0.15" r="0.6323584142477036" stroke="none" /><circle cx="300" cy="214" fill="#d2a41c" fill-opacity="0.15" r="0.8287271190627832" stroke="none" /><circle cx="261" cy="360" fill="#d2a41c" fill-opacity="0.15" r="1.2995240565324706" stroke="none" /><circle cx="299" cy="237" fill="#d2a41c" fill-opacity="0.15" r="0.6031687573528903" stroke="none" /><path d="M 206 237 Q 218 243 218 255" fill="none" stroke="#8a6840" stroke-width="1.5" /><path d="M 294 237 Q 306 243 306 255" fill="none" stroke="#8a6840" stroke-width="1.5" /><path d="M 177 82 Q 165 100 177 118" fill="none" stroke="#b0b0a0" stroke-width="1.5" /><path d="M 265 82 Q 253 100 265 118" fill="none" stroke="#b0b0a0" stroke-width="1.5" /></svg>