<?xml version="1.0" encoding="utf-8" ?>
<svg baseProfile="full" height="512" version="1.1" width="512" xmlns="http://www.w3.org/2000/svg" xmlns:ev="http://www.w3.org/2001/xml-events" xmlns:xlink="http://www.w3.org/1999/xlink"><defs /><polygon fill="#ccccbe" points="205,80 213,80 200,130" stroke="none" /><polygon fill="#ccccbe" points="213,80 214,130 200,130" stroke="none" /><polygon fill="#e0e0d4" points="213,80 224,80 214,130" stroke="none" /><polygon fill="#e0e0d4" points="224,80 223,130 214,130" stroke="none" /><polygon fill="#e0e0d4" points="224,80 233,80 223,130" stroke="none" /><polygon fill="#f0f0e8" points="233,80 231,130 223,130" stroke="none" /><polygon fill="#e0e0d4" points="233,80 242,80 231,130" stroke="none" /><polygon fill="#e0e0d4" points="242,80 245,130 231,130" stroke="none" /><polygon fill="#ccccbe" points="200,130 214,130 202,185" stroke="none" /><polygon fill="#ccccbe" points="214,130 212,185 202,185" stroke="none" /><polygon fill="#e0e0d4" points="214,130 223,130 212,185" stroke="none" /><polygon fill="#e0e0d4" points="223,130 224,185 212,185" stroke="none" /><polygon fill="#e0e0d4" points="223,130 231,130 224,185" stroke="none" /><polygon fill="#e0e0d4" points="231,130 233,185 224,185" stroke="none" /><polygon fill="#e0e0d4" points="231,130 245,130 233,185" stroke="none" /><polygon fill="#e0e0d4" points="245,130 241,185 233,185" stroke="none" /><polygon fill="#d6ae34" points="202,185 212,185 210,248" stroke="none" /><polygon fill="#d6ae34" points="212,185 216,248 210,248" stroke="none" /><polygon fill="#f6d244" points="212,185 224,185 216,248" stroke="none" /><polygon fill="#f6d244" points="224,185 221,248 216,248" stroke="none" /><polygon fill="#fee46e" points="224,185 233,185 221,248" stroke="none" /><polygon fill="#fee46e" points="233,185 228,248 221,248" stroke="none" /><polygon fill="#f6d244" points="233,185 241,185 228,248" stroke="none" /><polygon fill="#f6d244" points="241,185 236,248 228,248" stroke="none" /><polygon fill="#d6ae34" points="210,248 216,248 207,318" stroke="none" /><polygon fill="#d6ae34" points="216,248 212,318 207,318" stroke="none" /><polygon fill="#d6ae34" points="216,248 221,248 212,318" stroke="none" /><polygon fill="#d6ae34" points="221,248 221,318 212,318" stroke="none" /><polygon fill="#f6d244" points="221,248 228,248 221,318" stroke="none" /><polygon fill="#f6d244" points="228,248 231,318 221,318" stroke="none" /><polygon fill="#d6ae34" points="228,248 236,248 231,318" stroke="none" /><polygon fill="#d6ae34" points="236,248 239,318 231,318" stroke="none" /><polygon fill="#ba9a28" points="207,318 212,318 208,430" stroke="none" /><polygon fill="#ba9a28" points="212,318 213,430 208,430" stroke="none" /><polygon fill="#d6ae34" points="212,318 221,318 213,430" stroke="none" /><polygon fill="#d6ae34" points="221,318 223,430 213,430" stroke="none" /><polygon fill="#ba9a28" points="221,318 231,318 223,430" stroke="none" /><polygon fill="#ba9a28" points="231,318 232,430 223,430" stroke="none" /><polygon fill="#d6ae34" points="231,318 239,318 232,430" stroke="none" /><polygon fill="#d6ae34" points="239,318 238,430 232,430" stroke="none" /><line stroke="#b0b0a0" stroke-width="2.5" x1="202" x2="244" y1="192" y2="192" /><line stroke="#b0b0a0" stroke-width="3" x1="200" x2="246" y1="86" y2="86" /><polygon fill="#ccccbe" points="269,80 279,80 267,130" stroke="none" /><polygon fill="#ccccbe" points="279,80 281,130 267,130" stroke="none" /><polygon fill="#e0e0d4" points="279,80 288,80 281,130" stroke="none" /><polygon fill="#e0e0d4" points="288,80 288,130 281,130" stroke="none" /><polygon fill="#e0e0d4" points="288,80 299,80 288,130" stroke="none" /><polygon fill="#f0f0e8" points="299,80 300,130 288,130" stroke="none" /><polygon fill="#e0e0d4" points="299,80 309,80 300,130" stroke="none" /><polygon fill="#e0e0d4" points="309,80 312,130 300,130" stroke="none" /><polygon fill="#ccccbe" points="267,130 281,130 269,185" stroke="none" /><polygon fill="#ccccbe" points="281,130 279,185 269,185" stroke="none" /><polygon fill="#e0e0d4" points="281,130 288,130 279,185" stroke="none" /><polygon fill="#e0e0d4" points="288,130 289,185 279,185" stroke="none" /><polygon fill="#e0e0d4" points="288,130 300,130 289,185" stroke="none" /><polygon fill="#e0e0d4" points="300,130 296,185 289,185" stroke="none" /><polygon fill="#e0e0d4" points="300,130 312,130 296,185" stroke="none" /><polygon fill="#e0e0d4" points="312,130 308,185 296,185" stroke="none" /><polygon fill="#d6ae34" points="269,185 279,185 274,248" stroke="none" /><polygon fill="#d6ae34" points="279,185 285,248 274,248" stroke="none" /><polygon fill="#f6d244" points="279,185 289,185 285,248" stroke="none" /><polygon fill="#f6d244" points="289,185 287,248 285,248" stroke="none" /><polygon fill="#fee46e" points="289,185 296,185 287,248" stroke="none" /><polygon fill="#fee46e" points="296,185 295,248 287,248" stroke="none" /><polygon fill="#f6d244" points="296,185 308,185 295,248" stroke="none" /><polygon fill="#f6d244" points="308,185 301,248 295,248" stroke="none" /><polygon fill="#d6ae34" points="274,248 285,248 272,318" stroke="none" /><polygon fill="#d6ae34" points="285,248 282,318 272,318" stroke="none" /><polygon fill="#d6ae34" points="285,248 287,248 282,318" stroke="none" /><polygon fill="#d6ae34" points="287,248 288,318 282,318" stroke="none" /><polygon fill="#f6d244" points="287,248 295,248 288,318" stroke="none" /><polygon fill="#f6d244" points="295,248 297,318 288,318" stroke="none" /><polygon fill="#d6ae34" points="295,248 301,248 297,318" stroke="none" /><polygon fill="#d6ae34" points="301,248 308,318 297,318" stroke="none" /><polygon fill="#ba9a28" points="272,318 282,318 275,430" stroke="none" /><polygon fill="#ba9a28" points="282,318 280,430 275,430" stroke="none" /><polygon fill="#d6ae34" points="282,318 288,318 280,430" stroke="none" /><polygon fill="#d6ae34" points="288,318 289,430 280,430" stroke="none" /><polygon fill="#ba9a28" points="288,318 297,318 289,430" stroke="none" /><polygon fill="#ba9a28" points="297,318 298,430 289,430" stroke="none" /><polygon fill="#d6ae34" points="297,318 308,318 298,430" stroke="none" /><polygon fill="#d6ae34" points="308,318 302,430 298,430" stroke="none" /><line stroke="#b0b0a0" stroke-width="2.5" x1="268" x2="310" y1="192" y2="192" /><line stroke="#b0b0a0" stroke-width="3" x1="266" x2="312" y1="86" y2="86" /></svg>