<?xml version="1.0" encoding="utf-8" ?>
<svg baseProfile="full" height="512" version="1.1" width="512" xmlns="http://www.w3.org/2000/svg" xmlns:ev="http://www.w3.org/2001/xml-events" xmlns:xlink="http://www.w3.org/1999/xlink"><defs /><polygon fill="#ccccbe" points="193,80 207,80 178,130" stroke="none" /><polygon fill="#ccccbe" points="207,80 191,130 178,130" stroke="none" /><polygon fill="#e0e0d4" points="207,80 217,80 191,130" stroke="none" /><polygon fill="#e0e0d4" points="217,80 206,130 191,130" stroke="none" /><polygon fill="#e0e0d4" points="217,80 231,80 206,130" stroke="none" /><polygon fill="#f0f0e8" points="231,80 219,130 206,130" stroke="none" /><polygon fill="#e0e0d4" points="231,80 243,80 219,130" stroke="none" /><polygon fill="#e0e0d4" points="243,80 231,130 219,130" stroke="none" /><polygon fill="#ccccbe" points="178,130 191,130 175,185" stroke="none" /><polygon fill="#ccccbe" points="191,130 186,185 175,185" stroke="none" /><polygon fill="#e0e0d4" points="191,130 206,130 186,185" stroke="none" /><polygon fill="#e0e0d4" points="206,130 196,185 186,185" stroke="none" /><polygon fill="#e0e0d4" points="206,130 219,130 196,185" stroke="none" /><polygon fill="#e0e0d4" points="219,130 210,185 196,185" stroke="none" /><polygon fill="#e0e0d4" points="219,130 231,130 210,185" stroke="none" /><polygon fill="#e0e0d4" points="231,130 223,185 210,185" stroke="none" /><polygon fill="#d6ae34" points="175,185 186,185 184,248" stroke="none" /><polygon fill="#d6ae34" points="186,185 192,248 184,248" stroke="none" /><polygon fill="#f6d244" points="186,185 196,185 192,248" stroke="none" /><polygon fill="#f6d244" points="196,185 197,248 192,248" stroke="none" /><polygon fill="#fee46e" points="196,185 210,185 197,248" stroke="none" /><polygon fill="#fee46e" points="210,185 206,248 197,248" stroke="none" /><polygon fill="#f6d244" points="210,185 223,185 206,248" stroke="none" /><polygon fill="#f6d244" points="223,185 216,248 206,248" stroke="none" /><polygon fill="#d6ae34" points="184,248 192,248 189,318" stroke="none" /><polygon fill="#d6ae34" points="192,248 197,318 189,318" stroke="none" /><polygon fill="#d6ae34" points="192,248 197,248 197,318" stroke="none" /><polygon fill="#d6ae34" points="197,248 203,318 197,318" stroke="none" /><polygon fill="#f6d244" points="197,248 206,248 203,318" stroke="none" /><polygon fill="#f6d244" points="206,248 213,318 203,318" stroke="none" /><polygon fill="#d6ae34" points="206,248 216,248 213,318" stroke="none" /><polygon fill="#d6ae34" points="216,248 222,318 213,318" stroke="none" /><polygon fill="#ba9a28" points="189,318 197,318 205,430" stroke="none" /><polygon fill="#ba9a28" points="197,318 209,430 205,430" stroke="none" /><polygon fill="#d6ae34" points="197,318 203,318 209,430" stroke="none" /><polygon fill="#d6ae34" points="203,318 217,430 209,430" stroke="none" /><polygon fill="#ba9a28" points="203,318 213,318 217,430" stroke="none" /><polygon fill="#ba9a28" points="213,318 228,430 217,430" stroke="none" /><polygon fill="#d6ae34" points="213,318 222,318 228,430" stroke="none" /><polygon fill="#d6ae34" points="222,318 232,430 228,430" stroke="none" /><line stroke="#b0b0a0" stroke-width="2.5" x1="192" x2="244" y1="192" y2="192" /><line stroke="#b0b0a0" stroke-width="3" x1="190" x2="246" y1="86" y2="86" /><circle cx="210" cy="347" fill="#d6ae34" fill-opacity="0.15" r="0.7794418322530717" stroke="none" /><circle cx="224" cy="242" fill="#d6ae34" fill-opacity="0.15" r="0.7984665303457259" stroke="none" /><circle cx="206" cy="386" fill="#d6ae34" fill-opacity="0.15" r="1.4178385696994433" stroke="none" /><circle cx="231" cy="229" fill="#d6ae34" fill-opacity="0.15" r="0.9931435735064119" stroke="none" /><circle cx="238" cy="373" fill="#d6ae34" fill-opacity="0.15" r="0.6019805037401552" stroke="none" /><circle cx="221" cy="252" fill="#d6ae34" fill-opacity="0.15" r="0.6628071228596946" stroke="none" /><circle cx="234" cy="204" fill="#d6ae34" fill-opacity="0.15" r="1.2778980231324626" stroke="none" /><polygon fill="#ccccbe" points="269,80 283,80 274,130" stroke="none" /><polygon fill="#ccccbe" points="283,80 291,130 274,130" stroke="none" /><polygon fill="#e0e0d4" points="283,80 295,80 291,130" stroke="none" /><polygon fill="#e0e0d4" points="295,80 306,130 291,130" stroke="none" /><polygon fill="#e0e0d4" points="295,80 307,80 306,130" stroke="none" /><polygon fill="#f0f0e8" points="307,80 315,130 306,130" stroke="none" /><polygon fill="#e0e0d4" points="307,80 317,80 315,130" stroke="none" /><polygon fill="#e0e0d4" points="317,80 331,130 315,130" stroke="none" /><polygon fill="#ccccbe" points="274,130 291,130 283,185" stroke="none" /><polygon fill="#ccccbe" points="291,130 299,185 283,185" stroke="none" /><polygon fill="#e0e0d4" points="291,130 306,130 299,185" stroke="none" /><polygon fill="#e0e0d4" points="306,130 307,185 299,185" stroke="none" /><polygon fill="#e0e0d4" points="306,130 315,130 307,185" stroke="none" /><polygon fill="#e0e0d4" points="315,130 319,185 307,185" stroke="none" /><polygon fill="#e0e0d4" points="315,130 331,130 319,185" stroke="none" /><polygon fill="#e0e0d4" points="331,130 335,185 319,185" stroke="none" /><polygon fill="#d6ae34" points="283,185 299,185 293,248" stroke="none" /><polygon fill="#d6ae34" points="299,185 301,248 293,248" stroke="none" /><polygon fill="#f6d244" points="299,185 307,185 301,248" stroke="none" /><polygon fill="#f6d244" points="307,185 308,248 301,248" stroke="none" /><polygon fill="#fee46e" points="307,185 319,185 308,248" stroke="none" /><polygon fill="#fee46e" points="319,185 316,248 308,248" stroke="none" /><polygon fill="#f6d244" points="319,185 335,185 316,248" stroke="none" /><polygon fill="#f6d244" points="335,185 325,248 316,248" stroke="none" /><polygon fill="#d6ae34" points="293,248 301,248 288,318" stroke="none" /><polygon fill="#d6ae34" points="301,248 297,318 288,318" stroke="none" /><polygon fill="#d6ae34" points="301,248 308,248 297,318" stroke="none" /><polygon fill="#d6ae34" points="308,248 302,318 297,318" stroke="none" /><polygon fill="#f6d244" points="308,248 316,248 302,318" stroke="none" /><polygon fill="#f6d244" points="316,248 313,318 302,318" stroke="none" /><polygon fill="#d6ae34" points="316,248 325,248 313,318" stroke="none" /><polygon fill="#d6ae34" points="325,248 324,318 313,318" stroke="none" /><polygon fill="#ba9a28" points="288,318 297,318 280,430" stroke="none" /><polygon fill="#ba9a28" points="297,318 284,430 280,430" stroke="none" /><polygon fill="#d6ae34" points="297,318 302,318 284,430" stroke="none" /><polygon fill="#d6ae34" points="302,318 295,430 284,430" stroke="none" /><polygon fill="#ba9a28" points="302,318 313,318 295,430" stroke="none" /><polygon fill="#ba9a28" points="313,318 303,430 295,430" stroke="none" /><polygon fill="#d6ae34" points="313,318 324,318 303,430" stroke="none" /><polygon fill="#d6ae34" points="324,318 309,430 303,430" stroke="none" /><line stroke="#b0b0a0" stroke-width="2.5" x1="268" x2="320" y1="192" y2="192" /><line stroke="#b0b0a0" stroke-width="3" x1="266" x2="322" y1="86" y2="86" /><circle cx="278" cy="266" fill="#d6ae34" fill-opacity="0.15" r="0.5937128576708427" stroke="none" /><circle cx="311" cy="324" fill="#d6ae34" fill-opacity="0.15" r="0.8952529854457612" stroke="none" /><circle cx="299" cy="317" fill="#d6ae34" fill-opacity="0.15" r="1.2185672706981783" stroke="none" /><circle cx="279" cy="249" fill="#d6ae34" fill-opacity="0.15" r="1.4552026163151441" stroke="none" /><circle cx="277" cy="387" fill="#d6ae34" fill-opacity="0.15" r="1.1502131805335418" stroke="none" /><circle cx="295" cy="387" fill="#d6ae34" fill-opacity="0.15" r="1.0031089541299374" stroke="none" /><circle cx="314" cy="364" fill="#d6ae34" fill-opacity="0.15" r="0.9853106553399723" stroke="none" /><circle cx="273" cy="368" fill="#d6ae34" fill-opacity="0.15" r="1.037164136973618" stroke="none" /><path d="M 212 237 Q 224 243 224 255" fill="none" stroke="#8a6840" stroke-width="1.5" /><path d="M 288 237 Q 300 243 300 255" fill="none" stroke="#8a6840" stroke-width="1.5" /></svg>