<?xml version="1.0" encoding="utf-8" ?>
<svg baseProfile="full" height="512" version="1.1" width="512" xmlns="http://www.w3.org/2000/svg" xmlns:ev="http://www.w3.org/2001/xml-events" xmlns:xlink="http://www.w3.org/1999/xlink"><defs /><polygon fill="#ccccbe" points="207,80 217,80 204,130" stroke="none" /><polygon fill="#ccccbe" points="217,80 216,130 204,130" stroke="none" /><polygon fill="#e0e0d4" points="217,80 228,80 216,130" stroke="none" /><polygon fill="#e0e0d4" points="228,80 231,130 216,130" stroke="none" /><polygon fill="#e0e0d4" points="228,80 241,80 231,130" stroke="none" /><polygon fill="#f0f0e8" points="241,80 241,130 231,130" stroke="none" /><polygon fill="#e0e0d4" points="241,80 252,80 241,130" stroke="none" /><polygon fill="#e0e0d4" points="252,80 256,130 241,130" stroke="none" /><polygon fill="#ccccbe" points="204,130 216,130 206,185" stroke="none" /><polygon fill="#ccccbe" points="216,130 219,185 206,185" stroke="none" /><polygon fill="#e0e0d4" points="216,130 231,130 219,185" stroke="none" /><polygon fill="#e0e0d4" points="231,130 227,185 219,185" stroke="none" /><polygon fill="#e0e0d4" points="231,130 241,130 227,185" stroke="none" /><polygon fill="#e0e0d4" points="241,130 239,185 227,185" stroke="none" /><polygon fill="#e0e0d4" points="241,130 256,130 239,185" stroke="none" /><polygon fill="#e0e0d4" points="256,130 253,185 239,185" stroke="none" /><polygon fill="#d6ae34" points="206,185 219,185 212,248" stroke="none" /><polygon fill="#d6ae34" points="219,185 220,248 212,248" stroke="none" /><polygon fill="#f6d244" points="219,185 227,185 220,248" stroke="none" /><polygon fill="#f6d244" points="227,185 227,248 220,248" stroke="none" /><polygon fill="#fee46e" points="227,185 239,185 227,248" stroke="none" /><polygon fill="#fee46e" points="239,185 237,248 227,248" stroke="none" /><polygon fill="#f6d244" points="239,185 253,185 237,248" stroke="none" /><polygon fill="#f6d244" points="253,185 245,248 237,248" stroke="none" /><polygon fill="#d6ae34" points="212,248 220,248 214,318" stroke="none" /><polygon fill="#d6ae34" points="220,248 222,318 214,318" stroke="none" /><polygon fill="#d6ae34" points="220,248 227,248 222,318" stroke="none" /><polygon fill="#d6ae34" points="227,248 230,318 222,318" stroke="none" /><polygon fill="#f6d244" points="227,248 237,248 230,318" stroke="none" /><polygon fill="#f6d244" points="237,248 238,318 230,318" stroke="none" /><polygon fill="#d6ae34" points="237,248 245,248 238,318" stroke="none" /><polygon fill="#d6ae34" points="245,248 245,318 238,318" stroke="none" /><polygon fill="#ba9a28" points="214,318 222,318 219,430" stroke="none" /><polygon fill="#ba9a28" points="222,318 222,430 219,430" stroke="none" /><polygon fill="#d6ae34" points="222,318 230,318 222,430" stroke="none" /><polygon fill="#d6ae34" points="230,318 230,430 222,430" stroke="none" /><polygon fill="#ba9a28" points="230,318 238,318 230,430" stroke="none" /><polygon fill="#ba9a28" points="238,318 236,430 230,430" stroke="none" /><polygon fill="#d6ae34" points="238,318 245,318 236,430" stroke="none" /><polygon fill="#d6ae34" points="245,318 239,430 236,430" stroke="none" /><line stroke="#b0b0a0" stroke-width="2.5" x1="205" x2="253" y1="192" y2="192" /><line stroke="#b0b0a0" stroke-width="3" x1="203" x2="255" y1="86" y2="86" /><polygon fill="#ccccbe" points="260,80 272,80 258,130" stroke="none" /><polygon fill="#ccccbe" points="272,80 271,130 258,130" stroke="none" /><polygon fill="#e0e0d4" points="272,80 284,80 271,130" stroke="none" /><polygon fill="#e0e0d4" points="284,80 281,130 271,130" stroke="none" /><polygon fill="#e0e0d4" points="284,80 294,80 281,130" stroke="none" /><polygon fill="#f0f0e8" points="294,80 296,130 281,130" stroke="none" /><polygon fill="#e0e0d4" points="294,80 306,80 296,130" stroke="none" /><polygon fill="#e0e0d4" points="306,80 307,130 296,130" stroke="none" /><polygon fill="#ccccbe" points="258,130 271,130 262,185" stroke="none" /><polygon fill="#ccccbe" points="271,130 270,185 262,185" stroke="none" /><polygon fill="#e0e0d4" points="271,130 281,130 270,185" stroke="none" /><polygon fill="#e0e0d4" points="281,130 282,185 270,185" stroke="none" /><polygon fill="#e0e0d4" points="281,130 296,130 282,185" stroke="none" /><polygon fill="#e0e0d4" points="296,130 293,185 282,185" stroke="none" /><polygon fill="#e0e0d4" points="296,130 307,130 293,185" stroke="none" /><polygon fill="#e0e0d4" points="307,130 305,185 293,185" stroke="none" /><polygon fill="#d6ae34" points="262,185 270,185 268,248" stroke="none" /><polygon fill="#d6ae34" points="270,185 276,248 268,248" stroke="none" /><polygon fill="#f6d244" points="270,185 282,185 276,248" stroke="none" /><polygon fill="#f6d244" points="282,185 281,248 276,248" stroke="none" /><polygon fill="#fee46e" points="282,185 293,185 281,248" stroke="none" /><polygon fill="#fee46e" points="293,185 289,248 281,248" stroke="none" /><polygon fill="#f6d244" points="293,185 305,185 289,248" stroke="none" /><polygon fill="#f6d244" points="305,185 299,248 289,248" stroke="none" /><polygon fill="#d6ae34" points="268,248 276,248 269,318" stroke="none" /><polygon fill="#d6ae34" points="276,248 276,318 269,318" stroke="none" /><polygon fill="#d6ae34" points="276,248 281,248 276,318" stroke="none" /><polygon fill="#d6ae34" points="281,248 284,318 276,318" stroke="none" /><polygon fill="#f6d244" points="281,248 289,248 284,318" stroke="none" /><polygon fill="#f6d244" points="289,248 291,318 284,318" stroke="none" /><polygon fill="#d6ae34" points="289,248 299,248 291,318" stroke="none" /><polygon fill="#d6ae34" points="299,248 299,318 291,318" stroke="none" /><polygon fill="#ba9a28" points="269,318 276,318 273,430" stroke="none" /><polygon fill="#ba9a28" points="276,318 276,430 273,430" stroke="none" /><polygon fill="#d6ae34" points="276,318 284,318 276,430" stroke="none" /><polygon fill="#d6ae34" points="284,318 282,430 276,430" stroke="none" /><polygon fill="#ba9a28" points="284,318 291,318 282,430" stroke="none" /><polygon fill="#ba9a28" points="291,318 291,430 282,430" stroke="none" /><polygon fill="#d6ae34" points="291,318 299,318 291,430" stroke="none" /><polygon fill="#d6ae34" points="299,318 293,430 291,430" stroke="none" /><line stroke="#b0b0a0" stroke-width="2.5" x1="259" x2="307" y1="192" y2="192" /><line stroke="#b0b0a0" stroke-width="3" x1="257" x2="309" y1="86" y2="86" /></svg>