<?xml version="1.0" encoding="utf-8" ?>
<svg baseProfile="full" height="512" version="1.1" width="512" xmlns="http://www.w3.org/2000/svg" xmlns:ev="http://www.w3.org/2001/xml-events" xmlns:xlink="http://www.w3.org/1999/xlink"><defs /><polygon fill="#ccccbe" points="169,80 190,80 156,130" stroke="none" /><polygon fill="#ccccbe" points="190,80 176,130 156,130" stroke="none" /><polygon fill="#e0e0d4" points="190,80 209,80 176,130" stroke="none" /><polygon fill="#e0e0d4" points="209,80 200,130 176,130" stroke="none" /><polygon fill="#e0e0d4" points="209,80 230,80 200,130" stroke="none" /><polygon fill="#f0f0e8" points="230,80 216,130 200,130" stroke="none" /><polygon fill="#e0e0d4" points="230,80 248,80 216,130" stroke="none" /><polygon fill="#e0e0d4" points="248,80 243,130 216,130" stroke="none" /><polygon fill="#ccccbe" points="156,130 176,130 154,185" stroke="none" /><polygon fill="#ccccbe" points="176,130 171,185 154,185" stroke="none" /><polygon fill="#e0e0d4" points="176,130 200,130 171,185" stroke="none" /><polygon fill="#e0e0d4" points="200,130 191,185 171,185" stroke="none" /><polygon fill="#e0e0d4" points="200,130 216,130 191,185" stroke="none" /><polygon fill="#e0e0d4" points="216,130 210,185 191,185" stroke="none" /><polygon fill="#e0e0d4" points="216,130 243,130 210,185" stroke="none" /><polygon fill="#e0e0d4" points="243,130 234,185 210,185" stroke="none" /><polygon fill="#d4a520" points="154,185 171,185 163,248" stroke="none" /><polygon fill="#d4a520" points="171,185 177,248 163,248" stroke="none" /><polygon fill="#f5cd30" points="171,185 191,185 177,248" stroke="none" /><polygon fill="#f5cd30" points="191,185 190,248 177,248" stroke="none" /><polygon fill="#fde066" points="191,185 210,185 190,248" stroke="none" /><polygon fill="#fde066" points="210,185 206,248 190,248" stroke="none" /><polygon fill="#f5cd30" points="210,185 234,185 206,248" stroke="none" /><polygon fill="#f5cd30" points="234,185 219,248 206,248" stroke="none" /><polygon fill="#d4a520" points="163,248 177,248 171,318" stroke="none" /><polygon fill="#d4a520" points="177,248 182,318 171,318" stroke="none" /><polygon fill="#d4a520" points="177,248 190,248 182,318" stroke="none" /><polygon fill="#d4a520" points="190,248 198,318 182,318" stroke="none" /><polygon fill="#f5cd30" points="190,248 206,248 198,318" stroke="none" /><polygon fill="#f5cd30" points="206,248 211,318 198,318" stroke="none" /><polygon fill="#d4a520" points="206,248 219,248 211,318" stroke="none" /><polygon fill="#d4a520" points="219,248 224,318 211,318" stroke="none" /><polygon fill="#b8911a" points="171,318 182,318 186,430" stroke="none" /><polygon fill="#b8911a" points="182,318 196,430 186,430" stroke="none" /><polygon fill="#d4a520" points="182,318 198,318 196,430" stroke="none" /><polygon fill="#d4a520" points="198,318 210,430 196,430" stroke="none" /><polygon fill="#b8911a" points="198,318 211,318 210,430" stroke="none" /><polygon fill="#b8911a" points="211,318 223,430 210,430" stroke="none" /><polygon fill="#d4a520" points="211,318 224,318 223,430" stroke="none" /><polygon fill="#d4a520" points="224,318 234,430 223,430" stroke="none" /><line stroke="#b0b0a0" stroke-width="2.5" x1="167" x2="251" y1="192" y2="192" /><line stroke="#b0b0a0" stroke-width="3" x1="165" x2="253" y1="86" y2="86" /><path d="M 208 273 Q 211 270 214 273" fill="none" stroke="#d4c0a0" stroke-opacity="0.3" stroke-width="1" /><path d="M 195 409 Q 200 404 205 409" fill="none" stroke="#d4c0a0" stroke-opacity="0.3" stroke-width="1" /><path d="M 211 251 Q 214 248 217 251" fill="none" stroke="#d4c0a0" stroke-opacity="0.3" stroke-width="1" /><path d="M 204 196 Q 208 192 212 196" fill="none" stroke="#d4c0a0" stroke-opacity="0.3" stroke-width="1" /><polygon fill="#ccccbe" points="264,80 283,80 264,130" stroke="none" /><polygon fill="#ccccbe" points="283,80 288,130 264,130" stroke="none" /><polygon fill="#e0e0d4" points="283,80 303,80 288,130" stroke="none" /><polygon fill="#e0e0d4" points="303,80 308,130 288,130" stroke="none" /><polygon fill="#e0e0d4" points="303,80 322,80 308,130" stroke="none" /><polygon fill="#f0f0e8" points="322,80 331,130 308,130" stroke="none" /><polygon fill="#e0e0d4" points="322,80 342,80 331,130" stroke="none" /><polygon fill="#e0e0d4" points="342,80 352,130 331,130" stroke="none" /><polygon fill="#ccccbe" points="264,130 288,130 276,185" stroke="none" /><polygon fill="#ccccbe" points="288,130 293,185 276,185" stroke="none" /><polygon fill="#e0e0d4" points="288,130 308,130 293,185" stroke="none" /><polygon fill="#e0e0d4" points="308,130 316,185 293,185" stroke="none" /><polygon fill="#e0e0d4" points="308,130 331,130 316,185" stroke="none" /><polygon fill="#e0e0d4" points="331,130 335,185 316,185" stroke="none" /><polygon fill="#e0e0d4" points="331,130 352,130 335,185" stroke="none" /><polygon fill="#e0e0d4" points="352,130 352,185 335,185" stroke="none" /><polygon fill="#d4a520" points="276,185 293,185 287,248" stroke="none" /><polygon fill="#d4a520" points="293,185 298,248 287,248" stroke="none" /><polygon fill="#f5cd30" points="293,185 316,185 298,248" stroke="none" /><polygon fill="#f5cd30" points="316,185 312,248 298,248" stroke="none" /><polygon fill="#fde066" points="316,185 335,185 312,248" stroke="none" /><polygon fill="#fde066" points="335,185 328,248 312,248" stroke="none" /><polygon fill="#f5cd30" points="335,185 352,185 328,248" stroke="none" /><polygon fill="#f5cd30" points="352,185 343,248 328,248" stroke="none" /><polygon fill="#d4a520" points="287,248 298,248 280,318" stroke="none" /><polygon fill="#d4a520" points="298,248 298,318 280,318" stroke="none" /><polygon fill="#d4a520" points="298,248 312,248 298,318" stroke="none" /><polygon fill="#d4a520" points="312,248 311,318 298,318" stroke="none" /><polygon fill="#f5cd30" points="312,248 328,248 311,318" stroke="none" /><polygon fill="#f5cd30" points="328,248 323,318 311,318" stroke="none" /><polygon fill="#d4a520" points="328,248 343,248 323,318" stroke="none" /><polygon fill="#d4a520" points="343,248 340,318 323,318" stroke="none" /><polygon fill="#b8911a" points="280,318 298,318 280,430" stroke="none" /><polygon fill="#b8911a" points="298,318 290,430 280,430" stroke="none" /><polygon fill="#d4a520" points="298,318 311,318 290,430" stroke="none" /><polygon fill="#d4a520" points="311,318 303,430 290,430" stroke="none" /><polygon fill="#b8911a" points="311,318 323,318 303,430" stroke="none" /><polygon fill="#b8911a" points="323,318 317,430 303,430" stroke="none" /><polygon fill="#d4a520" points="323,318 340,318 317,430" stroke="none" /><polygon fill="#d4a520" points="340,318 326,430 317,430" stroke="none" /><line stroke="#b0b0a0" stroke-width="2.5" x1="261" x2="345" y1="192" y2="192" /><line stroke="#b0b0a0" stroke-width="3" x1="259" x2="347" y1="86" y2="86" /><path d="M 327 227 Q 330 224 333 227" fill="none" stroke="#d4c0a0" stroke-opacity="0.3" stroke-width="1" /><path d="M 321 413 Q 324 410 327 413" fill="none" stroke="#d4c0a0" stroke-opacity="0.3" stroke-width="1" /><path d="M 327 217 Q 332 212 337 217" fill="none" stroke="#d4c0a0" stroke-opacity="0.3" stroke-width="1" /><path d="M 310 366 Q 313 363 316 366" fill="none" stroke="#d4c0a0" stroke-opacity="0.3" stroke-width="1" /><path d="M 203 237 Q 215 243 215 255" fill="none" stroke="#8a6840" stroke-width="1.5" /><path d="M 297 237 Q 309 243 309 255" fill="none" stroke="#8a6840" stroke-width="1.5" /></svg>