<?xml version="1.0" encoding="utf-8" ?>
<svg baseProfile="full" height="512" version="1.1" width="512" xmlns="http://www.w3.org/2000/svg" xmlns:ev="http://www.w3.org/2001/xml-events" xmlns:xlink="http://www.w3.org/1999/xlink"><defs /><polygon fill="#ccccbe" points="198,80 213,80 192,130" stroke="none" /><polygon fill="#ccccbe" points="213,80 214,130 192,130" stroke="none" /><polygon fill="#e0e0d4" points="213,80 228,80 214,130" stroke="none" /><polygon fill="#e0e0d4" points="228,80 228,130 214,130" stroke="none" /><polygon fill="#e0e0d4" points="228,80 243,80 228,130" stroke="none" /><polygon fill="#f0f0e8" points="243,80 243,130 228,130" stroke="none" /><polygon fill="#e0e0d4" points="243,80 258,80 243,130" stroke="none" /><polygon fill="#e0e0d4" points="258,80 260,130 243,130" stroke="none" /><polygon fill="#ccccbe" points="192,130 214,130 197,185" stroke="none" /><polygon fill="#ccccbe" points="214,130 213,185 197,185" stroke="none" /><polygon fill="#e0e0d4" points="214,130 228,130 213,185" stroke="none" /><polygon fill="#e0e0d4" points="228,130 227,185 213,185" stroke="none" /><polygon fill="#e0e0d4" points="228,130 243,130 227,185" stroke="none" /><polygon fill="#e0e0d4" points="243,130 241,185 227,185" stroke="none" /><polygon fill="#e0e0d4" points="243,130 260,130 241,185" stroke="none" /><polygon fill="#e0e0d4" points="260,130 257,185 241,185" stroke="none" /><polygon fill="#d4a520" points="197,185 213,185 207,248" stroke="none" /><polygon fill="#d4a520" points="213,185 218,248 207,248" stroke="none" /><polygon fill="#f5cd30" points="213,185 227,185 218,248" stroke="none" /><polygon fill="#f5cd30" points="227,185 227,248 218,248" stroke="none" /><polygon fill="#fde066" points="227,185 241,185 227,248" stroke="none" /><polygon fill="#fde066" points="241,185 237,248 227,248" stroke="none" /><polygon fill="#f5cd30" points="241,185 257,185 237,248" stroke="none" /><polygon fill="#f5cd30" points="257,185 249,248 237,248" stroke="none" /><polygon fill="#d4a520" points="207,248 218,248 217,318" stroke="none" /><polygon fill="#d4a520" points="218,248 223,318 217,318" stroke="none" /><polygon fill="#d4a520" points="218,248 227,248 223,318" stroke="none" /><polygon fill="#d4a520" points="227,248 226,318 223,318" stroke="none" /><polygon fill="#f5cd30" points="227,248 237,248 226,318" stroke="none" /><polygon fill="#f5cd30" points="237,248 230,318 226,318" stroke="none" /><polygon fill="#d4a520" points="237,248 249,248 230,318" stroke="none" /><polygon fill="#d4a520" points="249,248 237,318 230,318" stroke="none" /><polygon fill="#b8911a" points="217,318 223,318 220,430" stroke="none" /><polygon fill="#b8911a" points="223,318 220,430 220,430" stroke="none" /><polygon fill="#d4a520" points="223,318 226,318 220,430" stroke="none" /><polygon fill="#d4a520" points="226,318 226,430 220,430" stroke="none" /><polygon fill="#b8911a" points="226,318 230,318 226,430" stroke="none" /><polygon fill="#b8911a" points="230,318 232,430 226,430" stroke="none" /><polygon fill="#d4a520" points="230,318 237,318 232,430" stroke="none" /><polygon fill="#d4a520" points="237,318 233,430 232,430" stroke="none" /><line stroke="#b0b0a0" stroke-width="2.5" x1="195" x2="259" y1="192" y2="192" /><line stroke="#b0b0a0" stroke-width="3" x1="193" x2="261" y1="86" y2="86" /><path d="M 223 223 Q 227 219 231 223" fill="none" stroke="#d4c0a0" stroke-opacity="0.3" stroke-width="1" /><path d="M 238 265 Q 240 263 242 265" fill="none" stroke="#d4c0a0" stroke-opacity="0.3" stroke-width="1" /><polygon fill="#ccccbe" points="254,80 270,80 252,130" stroke="none" /><polygon fill="#ccccbe" points="270,80 268,130 252,130" stroke="none" /><polygon fill="#e0e0d4" points="270,80 286,80 268,130" stroke="none" /><polygon fill="#e0e0d4" points="286,80 284,130 268,130" stroke="none" /><polygon fill="#e0e0d4" points="286,80 299,80 284,130" stroke="none" /><polygon fill="#f0f0e8" points="299,80 302,130 284,130" stroke="none" /><polygon fill="#e0e0d4" points="299,80 314,80 302,130" stroke="none" /><polygon fill="#e0e0d4" points="314,80 321,130 302,130" stroke="none" /><polygon fill="#ccccbe" points="252,130 268,130 253,185" stroke="none" /><polygon fill="#ccccbe" points="268,130 270,185 253,185" stroke="none" /><polygon fill="#e0e0d4" points="268,130 284,130 270,185" stroke="none" /><polygon fill="#e0e0d4" points="284,130 283,185 270,185" stroke="none" /><polygon fill="#e0e0d4" points="284,130 302,130 283,185" stroke="none" /><polygon fill="#e0e0d4" points="302,130 298,185 283,185" stroke="none" /><polygon fill="#e0e0d4" points="302,130 321,130 298,185" stroke="none" /><polygon fill="#e0e0d4" points="321,130 314,185 298,185" stroke="none" /><polygon fill="#d4a520" points="253,185 270,185 265,248" stroke="none" /><polygon fill="#d4a520" points="270,185 273,248 265,248" stroke="none" /><polygon fill="#f5cd30" points="270,185 283,185 273,248" stroke="none" /><polygon fill="#f5cd30" points="283,185 286,248 273,248" stroke="none" /><polygon fill="#fde066" points="283,185 298,185 286,248" stroke="none" /><polygon fill="#fde066" points="298,185 293,248 286,248" stroke="none" /><polygon fill="#f5cd30" points="298,185 314,185 293,248" stroke="none" /><polygon fill="#f5cd30" points="314,185 305,248 293,248" stroke="none" /><polygon fill="#d4a520" points="265,248 273,248 275,318" stroke="none" /><polygon fill="#d4a520" points="273,248 280,318 275,318" stroke="none" /><polygon fill="#d4a520" points="273,248 286,248 280,318" stroke="none" /><polygon fill="#d4a520" points="286,248 284,318 280,318" stroke="none" /><polygon fill="#f5cd30" points="286,248 293,248 284,318" stroke="none" /><polygon fill="#f5cd30" points="293,248 289,318 284,318" stroke="none" /><polygon fill="#d4a520" points="293,248 305,248 289,318" stroke="none" /><polygon fill="#d4a520" points="305,248 294,318 289,318" stroke="none" /><polygon fill="#b8911a" points="275,318 280,318 278,430" stroke="none" /><polygon fill="#b8911a" points="280,318 278,430 278,430" stroke="none" /><polygon fill="#d4a520" points="280,318 284,318 278,430" stroke="none" /><polygon fill="#d4a520" points="284,318 286,430 278,430" stroke="none" /><polygon fill="#b8911a" points="284,318 289,318 286,430" stroke="none" /><polygon fill="#b8911a" points="289,318 291,430 286,430" stroke="none" /><polygon fill="#d4a520" points="289,318 294,318 291,430" stroke="none" /><polygon fill="#d4a520" points="294,318 291,430 291,430" stroke="none" /><line stroke="#b0b0a0" stroke-width="2.5" x1="253" x2="317" y1="192" y2="192" /><line stroke="#b0b0a0" stroke-width="3" x1="251" x2="319" y1="86" y2="86" /><path d="M 299 303 Q 303 299 307 303" fill="none" stroke="#d4c0a0" stroke-opacity="0.3" stroke-width="1" /><path d="M 276 238 Q 281 233 286 238" fill="none" stroke="#d4c0a0" stroke-opacity="0.3" stroke-width="1" /><path d="M 270 340 Q 275 335 280 340" fill="none" stroke="#d4c0a0" stroke-opacity="0.3" stroke-width="1" /><path d="M 269 326 Q 271 324 273 326" fill="none" stroke="#d4c0a0" stroke-opacity="0.3" stroke-width="1" /><path d="M 201 82 Q 189 100 201 118" fill="none" stroke="#b0b0a0" stroke-width="1.5" /><path d="M 259 82 Q 247 100 259 118" fill="none" stroke="#b0b0a0" stroke-width="1.5" /></svg>