<?xml version="1.0" encoding="utf-8" ?>
<svg baseProfile="full" height="512" version="1.1" width="512" xmlns="http://www.w3.org/2000/svg" xmlns:ev="http://www.w3.org/2001/xml-events" xmlns:xlink="http://www.w3.org/1999/xlink"><defs /><polygon fill="#ccccbe" points="175,80 195,80 186,130" stroke="none" /><polygon fill="#ccccbe" points="195,80 207,130 186,130" stroke="none" /><polygon fill="#e0e0d4" points="195,80 217,80 207,130" stroke="none" /><polygon fill="#e0e0d4" points="217,80 229,130 207,130" stroke="none" /><polygon fill="#e0e0d4" points="217,80 238,80 229,130" stroke="none" /><polygon fill="#f0f0e8" points="238,80 247,130 229,130" stroke="none" /><polygon fill="#e0e0d4" points="238,80 257,80 247,130" stroke="none" /><polygon fill="#e0e0d4" points="257,80 276,130 247,130" stroke="none" /><polygon fill="#ccccbe" points="186,130 207,130 193,185" stroke="none" /><polygon fill="#ccccbe" points="207,130 212,185 193,185" stroke="none" /><polygon fill="#e0e0d4" points="207,130 229,130 212,185" stroke="none" /><polygon fill="#e0e0d4" points="229,130 233,185 212,185" stroke="none" /><polygon fill="#e0e0d4" points="229,130 247,130 233,185" stroke="none" /><polygon fill="#e0e0d4" points="247,130 257,185 233,185" stroke="none" /><polygon fill="#e0e0d4" points="247,130 276,130 257,185" stroke="none" /><polygon fill="#e0e0d4" points="276,130 277,185 257,185" stroke="none" /><polygon fill="#d2a21a" points="193,185 212,185 209,248" stroke="none" /><polygon fill="#d2a21a" points="212,185 219,248 209,248" stroke="none" /><polygon fill="#f4cc2a" points="212,185 233,185 219,248" stroke="none" /><polygon fill="#f4cc2a" points="233,185 234,248 219,248" stroke="none" /><polygon fill="#fbe060" points="233,185 257,185 234,248" stroke="none" /><polygon fill="#fbe060" points="257,185 251,248 234,248" stroke="none" /><polygon fill="#f4cc2a" points="257,185 277,185 251,248" stroke="none" /><polygon fill="#f4cc2a" points="277,185 263,248 251,248" stroke="none" /><polygon fill="#d2a21a" points="209,248 219,248 213,318" stroke="none" /><polygon fill="#d2a21a" points="219,248 223,318 213,318" stroke="none" /><polygon fill="#d2a21a" points="219,248 234,248 223,318" stroke="none" /><polygon fill="#d2a21a" points="234,248 229,318 223,318" stroke="none" /><polygon fill="#f4cc2a" points="234,248 251,248 229,318" stroke="none" /><polygon fill="#f4cc2a" points="251,248 236,318 229,318" stroke="none" /><polygon fill="#d2a21a" points="251,248 263,248 236,318" stroke="none" /><polygon fill="#d2a21a" points="263,248 243,318 236,318" stroke="none" /><polygon fill="#b68e16" points="213,318 223,318 205,430" stroke="none" /><polygon fill="#b68e16" points="223,318 208,430 205,430" stroke="none" /><polygon fill="#d2a21a" points="223,318 229,318 208,430" stroke="none" /><polygon fill="#d2a21a" points="229,318 217,430 208,430" stroke="none" /><polygon fill="#b68e16" points="229,318 236,318 217,430" stroke="none" /><polygon fill="#b68e16" points="236,318 226,430 217,430" stroke="none" /><polygon fill="#d2a21a" points="236,318 243,318 226,430" stroke="none" /><polygon fill="#d2a21a" points="243,318 228,430 226,430" stroke="none" /><line stroke="#b0b0a0" stroke-width="2.5" x1="174" x2="260" y1="192" y2="192" /><line stroke="#b0b0a0" stroke-width="3" x1="172" x2="262" y1="86" y2="86" /><circle cx="181" cy="292" fill="#d2a21a" fill-opacity="0.15" r="1.3482739565764796" stroke="none" /><circle cx="258" cy="306" fill="#d2a21a" fill-opacity="0.15" r="0.7400774590514189" stroke="none" /><circle cx="249" cy="348" fill="#d2a21a" fill-opacity="0.15" r="0.5767036615071991" stroke="none" /><circle cx="250" cy="420" fill="#d2a21a" fill-opacity="0.15" r="1.1815617396571163" stroke="none" /><circle cx="250" cy="266" fill="#d2a21a" fill-opacity="0.15" r="1.2911631741380858" stroke="none" /><polygon fill="#ccccbe" points="255,80 273,80 240,130" stroke="none" /><polygon fill="#ccccbe" points="273,80 266,130 240,130" stroke="none" /><polygon fill="#e0e0d4" points="273,80 294,80 266,130" stroke="none" /><polygon fill="#e0e0d4" points="294,80 285,130 266,130" stroke="none" /><polygon fill="#e0e0d4" points="294,80 316,80 285,130" stroke="none" /><polygon fill="#f0f0e8" points="316,80 306,130 285,130" stroke="none" /><polygon fill="#e0e0d4" points="316,80 335,80 306,130" stroke="none" /><polygon fill="#e0e0d4" points="335,80 333,130 306,130" stroke="none" /><polygon fill="#ccccbe" points="240,130 266,130 242,185" stroke="none" /><polygon fill="#ccccbe" points="266,130 260,185 242,185" stroke="none" /><polygon fill="#e0e0d4" points="266,130 285,130 260,185" stroke="none" /><polygon fill="#e0e0d4" points="285,130 282,185 260,185" stroke="none" /><polygon fill="#e0e0d4" points="285,130 306,130 282,185" stroke="none" /><polygon fill="#e0e0d4" points="306,130 302,185 282,185" stroke="none" /><polygon fill="#e0e0d4" points="306,130 333,130 302,185" stroke="none" /><polygon fill="#e0e0d4" points="333,130 324,185 302,185" stroke="none" /><polygon fill="#d2a21a" points="242,185 260,185 256,248" stroke="none" /><polygon fill="#d2a21a" points="260,185 267,248 256,248" stroke="none" /><polygon fill="#f4cc2a" points="260,185 282,185 267,248" stroke="none" /><polygon fill="#f4cc2a" points="282,185 284,248 267,248" stroke="none" /><polygon fill="#fbe060" points="282,185 302,185 284,248" stroke="none" /><polygon fill="#fbe060" points="302,185 298,248 284,248" stroke="none" /><polygon fill="#f4cc2a" points="302,185 324,185 298,248" stroke="none" /><polygon fill="#f4cc2a" points="324,185 312,248 298,248" stroke="none" /><polygon fill="#d2a21a" points="256,248 267,248 273,318" stroke="none" /><polygon fill="#d2a21a" points="267,248 278,318 273,318" stroke="none" /><polygon fill="#d2a21a" points="267,248 284,248 278,318" stroke="none" /><polygon fill="#d2a21a" points="284,248 285,318 278,318" stroke="none" /><polygon fill="#f4cc2a" points="284,248 298,248 285,318" stroke="none" /><polygon fill="#f4cc2a" points="298,248 296,318 285,318" stroke="none" /><polygon fill="#d2a21a" points="298,248 312,248 296,318" stroke="none" /><polygon fill="#d2a21a" points="312,248 303,318 296,318" stroke="none" /><polygon fill="#b68e16" points="273,318 278,318 283,430" stroke="none" /><polygon fill="#b68e16" points="278,318 287,430 283,430" stroke="none" /><polygon fill="#d2a21a" points="278,318 285,318 287,430" stroke="none" /><polygon fill="#d2a21a" points="285,318 296,430 287,430" stroke="none" /><polygon fill="#b68e16" points="285,318 296,318 296,430" stroke="none" /><polygon fill="#b68e16" points="296,318 303,430 296,430" stroke="none" /><polygon fill="#d2a21a" points="296,318 303,318 303,430" stroke="none" /><polygon fill="#d2a21a" points="303,318 307,430 303,430" stroke="none" /><line stroke="#b0b0a0" stroke-width="2.5" x1="252" x2="338" y1="192" y2="192" /><line stroke="#b0b0a0" stroke-width="3" x1="250" x2="340" y1="86" y2="86" /><circle cx="320" cy="382" fill="#d2a21a" fill-opacity="0.15" r="1.227521038989051" stroke="none" /><circle cx="301" cy="318" fill="#d2a21a" fill-opacity="0.15" r="1.301234006748071" stroke="none" /><circle cx="326" cy="214" fill="#d2a21a" fill-opacity="0.15" r="1.112734699904018" stroke="none" /><circle cx="310" cy="358" fill="#d2a21a" fill-opacity="0.15" r="1.3102468503394147" stroke="none" /><circle cx="314" cy="413" fill="#d2a21a" fill-opacity="0.15" r="1.4215102695411166" stroke="none" /><circle cx="282" cy="267" fill="#d2a21a" fill-opacity="0.15" r="1.2177524353234472" stroke="none" /><circle cx="315" cy="277" fill="#d2a21a" fill-opacity="0.15" r="0.6855284985725943" stroke="none" /><circle cx="295" cy="411" fill="#d2a21a" fill-opacity="0.15" r="0.8524655610928729" stroke="none" /><circle cx="271" cy="214" fill="#d2a21a" fill-opacity="0.15" r="1.48234755262959" stroke="none" /><circle cx="332" cy="321" fill="#d2a21a" fill-opacity="0.15" r="0.5665421393157751" stroke="none" /><circle cx="276" cy="327" fill="#d2a21a" fill-opacity="0.15" r="1.2113617983541514" stroke="none" /><path d="M 211 237 Q 223 243 223 255" fill="none" stroke="#8a6840" stroke-width="1.5" /><path d="M 289 237 Q 301 243 301 255" fill="none" stroke="#8a6840" stroke-width="1.5" /><path d="M 180 82 Q 168 100 180 118" fill="none" stroke="#b0b0a0" stroke-width="1.5" /><path d="M 258 82 Q 246 100 258 118" fill="none" stroke="#b0b0a0" stroke-width="1.5" /></svg>