<?xml version="1.0" encoding="utf-8" ?>
<svg baseProfile="full" height="512" version="1.1" width="512" xmlns="http://www.w3.org/2000/svg" xmlns:ev="http://www.w3.org/2001/xml-events" xmlns:xlink="http://www.w3.org/1999/xlink"><defs /><polygon fill="#ccccbe" points="160,80 181,80 144,130" stroke="none" /><polygon fill="#ccccbe" points="181,80 171,130 144,130" stroke="none" /><polygon fill="#e0e0d4" points="181,80 200,80 171,130" stroke="none" /><polygon fill="#e0e0d4" points="200,80 192,130 171,130" stroke="none" /><polygon fill="#e0e0d4" points="200,80 220,80 192,130" stroke="none" /><polygon fill="#f0f0e8" points="220,80 212,130 192,130" stroke="none" /><polygon fill="#e0e0d4" points="220,80 242,80 212,130" stroke="none" /><polygon fill="#e0e0d4" points="242,80 235,130 212,130" stroke="none" /><polygon fill="#ccccbe" points="144,130 171,130 144,185" stroke="none" /><polygon fill="#ccccbe" points="171,130 164,185 144,185" stroke="none" /><polygon fill="#e0e0d4" points="171,130 192,130 164,185" stroke="none" /><polygon fill="#e0e0d4" points="192,130 184,185 164,185" stroke="none" /><polygon fill="#e0e0d4" points="192,130 212,130 184,185" stroke="none" /><polygon fill="#e0e0d4" points="212,130 205,185 184,185" stroke="none" /><polygon fill="#e0e0d4" points="212,130 235,130 205,185" stroke="none" /><polygon fill="#e0e0d4" points="235,130 229,185 205,185" stroke="none" /><polygon fill="#d4ac30" points="144,185 164,185 156,248" stroke="none" /><polygon fill="#d4ac30" points="164,185 171,248 156,248" stroke="none" /><polygon fill="#f5d040" points="164,185 184,185 171,248" stroke="none" /><polygon fill="#f5d040" points="184,185 187,248 171,248" stroke="none" /><polygon fill="#fde26e" points="184,185 205,185 187,248" stroke="none" /><polygon fill="#fde26e" points="205,185 202,248 187,248" stroke="none" /><polygon fill="#f5d040" points="205,185 229,185 202,248" stroke="none" /><polygon fill="#f5d040" points="229,185 215,248 202,248" stroke="none" /><polygon fill="#d4ac30" points="156,248 171,248 165,318" stroke="none" /><polygon fill="#d4ac30" points="171,248 180,318 165,318" stroke="none" /><polygon fill="#d4ac30" points="171,248 187,248 180,318" stroke="none" /><polygon fill="#d4ac30" points="187,248 189,318 180,318" stroke="none" /><polygon fill="#f5d040" points="187,248 202,248 189,318" stroke="none" /><polygon fill="#f5d040" points="202,248 205,318 189,318" stroke="none" /><polygon fill="#d4ac30" points="202,248 215,248 205,318" stroke="none" /><polygon fill="#d4ac30" points="215,248 217,318 205,318" stroke="none" /><polygon fill="#b89824" points="165,318 180,318 181,430" stroke="none" /><polygon fill="#b89824" points="180,318 188,430 181,430" stroke="none" /><polygon fill="#d4ac30" points="180,318 189,318 188,430" stroke="none" /><polygon fill="#d4ac30" points="189,318 201,430 188,430" stroke="none" /><polygon fill="#b89824" points="189,318 205,318 201,430" stroke="none" /><polygon fill="#b89824" points="205,318 213,430 201,430" stroke="none" /><polygon fill="#d4ac30" points="205,318 217,318 213,430" stroke="none" /><polygon fill="#d4ac30" points="217,318 221,430 213,430" stroke="none" /><line stroke="#b0b0a0" stroke-width="2.5" x1="158" x2="244" y1="192" y2="192" /><line stroke="#b0b0a0" stroke-width="3" x1="156" x2="246" y1="86" y2="86" /><ellipse cx="213" cy="260" fill="white" fill-opacity="0.12" rx="3" ry="2" stroke="none" /><ellipse cx="213" cy="329" fill="white" fill-opacity="0.12" rx="3" ry="2" stroke="none" /><ellipse cx="215" cy="337" fill="white" fill-opacity="0.12" rx="3" ry="2" stroke="none" /><ellipse cx="207" cy="272" fill="white" fill-opacity="0.12" rx="3" ry="2" stroke="none" /><ellipse cx="199" cy="212" fill="white" fill-opacity="0.12" rx="3" ry="2" stroke="none" /><polygon fill="#ccccbe" points="270,80 291,80 282,130" stroke="none" /><polygon fill="#ccccbe" points="291,80 306,130 282,130" stroke="none" /><polygon fill="#e0e0d4" points="291,80 311,80 306,130" stroke="none" /><polygon fill="#e0e0d4" points="311,80 323,130 306,130" stroke="none" /><polygon fill="#e0e0d4" points="311,80 332,80 323,130" stroke="none" /><polygon fill="#f0f0e8" points="332,80 343,130 323,130" stroke="none" /><polygon fill="#e0e0d4" points="332,80 353,80 343,130" stroke="none" /><polygon fill="#e0e0d4" points="353,80 372,130 343,130" stroke="none" /><polygon fill="#ccccbe" points="282,130 306,130 292,185" stroke="none" /><polygon fill="#ccccbe" points="306,130 309,185 292,185" stroke="none" /><polygon fill="#e0e0d4" points="306,130 323,130 309,185" stroke="none" /><polygon fill="#e0e0d4" points="323,130 333,185 309,185" stroke="none" /><polygon fill="#e0e0d4" points="323,130 343,130 333,185" stroke="none" /><polygon fill="#e0e0d4" points="343,130 352,185 333,185" stroke="none" /><polygon fill="#e0e0d4" points="343,130 372,130 352,185" stroke="none" /><polygon fill="#e0e0d4" points="372,130 372,185 352,185" stroke="none" /><polygon fill="#d4ac30" points="292,185 309,185 304,248" stroke="none" /><polygon fill="#d4ac30" points="309,185 320,248 304,248" stroke="none" /><polygon fill="#f5d040" points="309,185 333,185 320,248" stroke="none" /><polygon fill="#f5d040" points="333,185 334,248 320,248" stroke="none" /><polygon fill="#fde26e" points="333,185 352,185 334,248" stroke="none" /><polygon fill="#fde26e" points="352,185 344,248 334,248" stroke="none" /><polygon fill="#f5d040" points="352,185 372,185 344,248" stroke="none" /><polygon fill="#f5d040" points="372,185 360,248 344,248" stroke="none" /><polygon fill="#d4ac30" points="304,248 320,248 299,318" stroke="none" /><polygon fill="#d4ac30" points="320,248 313,318 299,318" stroke="none" /><polygon fill="#d4ac30" points="320,248 334,248 313,318" stroke="none" /><polygon fill="#d4ac30" points="334,248 326,318 313,318" stroke="none" /><polygon fill="#f5d040" points="334,248 344,248 326,318" stroke="none" /><polygon fill="#f5d040" points="344,248 339,318 326,318" stroke="none" /><polygon fill="#d4ac30" points="344,248 360,248 339,318" stroke="none" /><polygon fill="#d4ac30" points="360,248 350,318 339,318" stroke="none" /><polygon fill="#b89824" points="299,318 313,318 289,430" stroke="none" /><polygon fill="#b89824" points="313,318 297,430 289,430" stroke="none" /><polygon fill="#d4ac30" points="313,318 326,318 297,430" stroke="none" /><polygon fill="#d4ac30" points="326,318 312,430 297,430" stroke="none" /><polygon fill="#b89824" points="326,318 339,318 312,430" stroke="none" /><polygon fill="#b89824" points="339,318 324,430 312,430" stroke="none" /><polygon fill="#d4ac30" points="339,318 350,318 324,430" stroke="none" /><polygon fill="#d4ac30" points="350,318 333,430 324,430" stroke="none" /><line stroke="#b0b0a0" stroke-width="2.5" x1="268" x2="354" y1="192" y2="192" /><line stroke="#b0b0a0" stroke-width="3" x1="266" x2="356" y1="86" y2="86" /><ellipse cx="306" cy="351" fill="white" fill-opacity="0.12" rx="3" ry="2" stroke="none" /><ellipse cx="324" cy="417" fill="white" fill-opacity="0.12" rx="3" ry="2" stroke="none" /><ellipse cx="304" cy="226" fill="white" fill-opacity="0.12" rx="3" ry="2" stroke="none" /><path d="M 195 237 Q 207 243 207 255" fill="none" stroke="#8a6840" stroke-width="1.5" /><path d="M 305 237 Q 317 243 317 255" fill="none" stroke="#8a6840" stroke-width="1.5" /></svg>