<?xml version="1.0" encoding="utf-8" ?>
<svg baseProfile="full" height="512" version="1.1" width="512" xmlns="http://www.w3.org/2000/svg" xmlns:ev="http://www.w3.org/2001/xml-events" xmlns:xlink="http://www.w3.org/1999/xlink"><defs /><polygon fill="#ccccbe" points="217,80 228,80 206,130" stroke="none" /><polygon fill="#ccccbe" points="228,80 215,130 206,130" stroke="none" /><polygon fill="#e0e0d4" points="228,80 236,80 215,130" stroke="none" /><polygon fill="#e0e0d4" points="236,80 225,130 215,130" stroke="none" /><polygon fill="#e0e0d4" points="236,80 247,80 225,130" stroke="none" /><polygon fill="#f0f0e8" points="247,80 236,130 225,130" stroke="none" /><polygon fill="#e0e0d4" points="247,80 257,80 236,130" stroke="none" /><polygon fill="#e0e0d4" points="257,80 252,130 236,130" stroke="none" /><polygon fill="#ccccbe" points="206,130 215,130 203,185" stroke="none" /><polygon fill="#ccccbe" points="215,130 212,185 203,185" stroke="none" /><polygon fill="#e0e0d4" points="215,130 225,130 212,185" stroke="none" /><polygon fill="#e0e0d4" points="225,130 224,185 212,185" stroke="none" /><polygon fill="#e0e0d4" points="225,130 236,130 224,185" stroke="none" /><polygon fill="#e0e0d4" points="236,130 232,185 224,185" stroke="none" /><polygon fill="#e0e0d4" points="236,130 252,130 232,185" stroke="none" /><polygon fill="#e0e0d4" points="252,130 242,185 232,185" stroke="none" /><polygon fill="#d4ac30" points="203,185 212,185 208,248" stroke="none" /><polygon fill="#d4ac30" points="212,185 217,248 208,248" stroke="none" /><polygon fill="#f5d040" points="212,185 224,185 217,248" stroke="none" /><polygon fill="#f5d040" points="224,185 221,248 217,248" stroke="none" /><polygon fill="#fde26e" points="224,185 232,185 221,248" stroke="none" /><polygon fill="#fde26e" points="232,185 230,248 221,248" stroke="none" /><polygon fill="#f5d040" points="232,185 242,185 230,248" stroke="none" /><polygon fill="#f5d040" points="242,185 237,248 230,248" stroke="none" /><polygon fill="#d4ac30" points="208,248 217,248 210,318" stroke="none" /><polygon fill="#d4ac30" points="217,248 217,318 210,318" stroke="none" /><polygon fill="#d4ac30" points="217,248 221,248 217,318" stroke="none" /><polygon fill="#d4ac30" points="221,248 225,318 217,318" stroke="none" /><polygon fill="#f5d040" points="221,248 230,248 225,318" stroke="none" /><polygon fill="#f5d040" points="230,248 235,318 225,318" stroke="none" /><polygon fill="#d4ac30" points="230,248 237,248 235,318" stroke="none" /><polygon fill="#d4ac30" points="237,248 242,318 235,318" stroke="none" /><polygon fill="#b89824" points="210,318 217,318 224,430" stroke="none" /><polygon fill="#b89824" points="217,318 228,430 224,430" stroke="none" /><polygon fill="#d4ac30" points="217,318 225,318 228,430" stroke="none" /><polygon fill="#d4ac30" points="225,318 237,430 228,430" stroke="none" /><polygon fill="#b89824" points="225,318 235,318 237,430" stroke="none" /><polygon fill="#b89824" points="235,318 244,430 237,430" stroke="none" /><polygon fill="#d4ac30" points="235,318 242,318 244,430" stroke="none" /><polygon fill="#d4ac30" points="242,318 249,430 244,430" stroke="none" /><line stroke="#b0b0a0" stroke-width="2.5" x1="216" x2="258" y1="192" y2="192" /><line stroke="#b0b0a0" stroke-width="3" x1="214" x2="260" y1="86" y2="86" /><path d="M 242 322 Q 247 317 252 322" fill="none" stroke="#d4c0a0" stroke-opacity="0.3" stroke-width="1" /><path d="M 238 249 Q 240 247 242 249" fill="none" stroke="#d4c0a0" stroke-opacity="0.3" stroke-width="1" /><polygon fill="#ccccbe" points="257,80 266,80 261,130" stroke="none" /><polygon fill="#ccccbe" points="266,80 275,130 261,130" stroke="none" /><polygon fill="#e0e0d4" points="266,80 276,80 275,130" stroke="none" /><polygon fill="#e0e0d4" points="276,80 285,130 275,130" stroke="none" /><polygon fill="#e0e0d4" points="276,80 285,80 285,130" stroke="none" /><polygon fill="#f0f0e8" points="285,80 291,130 285,130" stroke="none" /><polygon fill="#e0e0d4" points="285,80 293,80 291,130" stroke="none" /><polygon fill="#e0e0d4" points="293,80 305,130 291,130" stroke="none" /><polygon fill="#ccccbe" points="261,130 275,130 268,185" stroke="none" /><polygon fill="#ccccbe" points="275,130 277,185 268,185" stroke="none" /><polygon fill="#e0e0d4" points="275,130 285,130 277,185" stroke="none" /><polygon fill="#e0e0d4" points="285,130 290,185 277,185" stroke="none" /><polygon fill="#e0e0d4" points="285,130 291,130 290,185" stroke="none" /><polygon fill="#e0e0d4" points="291,130 298,185 290,185" stroke="none" /><polygon fill="#e0e0d4" points="291,130 305,130 298,185" stroke="none" /><polygon fill="#e0e0d4" points="305,130 310,185 298,185" stroke="none" /><polygon fill="#d4ac30" points="268,185 277,185 274,248" stroke="none" /><polygon fill="#d4ac30" points="277,185 284,248 274,248" stroke="none" /><polygon fill="#f5d040" points="277,185 290,185 284,248" stroke="none" /><polygon fill="#f5d040" points="290,185 289,248 284,248" stroke="none" /><polygon fill="#fde26e" points="290,185 298,185 289,248" stroke="none" /><polygon fill="#fde26e" points="298,185 296,248 289,248" stroke="none" /><polygon fill="#f5d040" points="298,185 310,185 296,248" stroke="none" /><polygon fill="#f5d040" points="310,185 302,248 296,248" stroke="none" /><polygon fill="#d4ac30" points="274,248 284,248 266,318" stroke="none" /><polygon fill="#d4ac30" points="284,248 273,318 266,318" stroke="none" /><polygon fill="#d4ac30" points="284,248 289,248 273,318" stroke="none" /><polygon fill="#d4ac30" points="289,248 286,318 273,318" stroke="none" /><polygon fill="#f5d040" points="289,248 296,248 286,318" stroke="none" /><polygon fill="#f5d040" points="296,248 290,318 286,318" stroke="none" /><polygon fill="#d4ac30" points="296,248 302,248 290,318" stroke="none" /><polygon fill="#d4ac30" points="302,248 303,318 290,318" stroke="none" /><polygon fill="#b89824" points="266,318 273,318 263,430" stroke="none" /><polygon fill="#b89824" points="273,318 267,430 263,430" stroke="none" /><polygon fill="#d4ac30" points="273,318 286,318 267,430" stroke="none" /><polygon fill="#d4ac30" points="286,318 276,430 267,430" stroke="none" /><polygon fill="#b89824" points="286,318 290,318 276,430" stroke="none" /><polygon fill="#b89824" points="290,318 282,430 276,430" stroke="none" /><polygon fill="#d4ac30" points="290,318 303,318 282,430" stroke="none" /><polygon fill="#d4ac30" points="303,318 288,430 282,430" stroke="none" /><line stroke="#b0b0a0" stroke-width="2.5" x1="254" x2="296" y1="192" y2="192" /><line stroke="#b0b0a0" stroke-width="3" x1="252" x2="298" y1="86" y2="86" /><path d="M 268 329 Q 270 327 272 329" fill="none" stroke="#d4c0a0" stroke-opacity="0.3" stroke-width="1" /><path d="M 280 345 Q 284 341 288 345" fill="none" stroke="#d4c0a0" stroke-opacity="0.3" stroke-width="1" /><path d="M 286 249 Q 289 246 292 249" fill="none" stroke="#d4c0a0" stroke-opacity="0.3" stroke-width="1" /><path d="M 272 268 Q 277 263 282 268" fill="none" stroke="#d4c0a0" stroke-opacity="0.3" stroke-width="1" /><path d="M 282 421 Q 287 416 292 421" fill="none" stroke="#d4c0a0" stroke-opacity="0.3" stroke-width="1" /><path d="M 231 237 Q 243 243 243 255" fill="none" stroke="#8a6840" stroke-width="1.5" /><path d="M 269 237 Q 281 243 281 255" fill="none" stroke="#8a6840" stroke-width="1.5" /></svg>