<?xml version="1.0" encoding="utf-8" ?>
<svg baseProfile="full" height="512" version="1.1" width="512" xmlns="http://www.w3.org/2000/svg" xmlns:ev="http://www.w3.org/2001/xml-events" xmlns:xlink="http://www.w3.org/1999/xlink"><defs /><polygon fill="#ccccbe" points="157,80 183,80 146,130" stroke="none" /><polygon fill="#ccccbe" points="183,80 175,130 146,130" stroke="none" /><polygon fill="#e0e0d4" points="183,80 207,80 175,130" stroke="none" /><polygon fill="#e0e0d4" points="207,80 200,130 175,130" stroke="none" /><polygon fill="#e0e0d4" points="207,80 232,80 200,130" stroke="none" /><polygon fill="#f0f0e8" points="232,80 225,130 200,130" stroke="none" /><polygon fill="#e0e0d4" points="232,80 258,80 225,130" stroke="none" /><polygon fill="#e0e0d4" points="258,80 250,130 225,130" stroke="none" /><polygon fill="#ccccbe" points="146,130 175,130 142,185" stroke="none" /><polygon fill="#ccccbe" points="175,130 169,185 142,185" stroke="none" /><polygon fill="#e0e0d4" points="175,130 200,130 169,185" stroke="none" /><polygon fill="#e0e0d4" points="200,130 194,185 169,185" stroke="none" /><polygon fill="#e0e0d4" points="200,130 225,130 194,185" stroke="none" /><polygon fill="#e0e0d4" points="225,130 218,185 194,185" stroke="none" /><polygon fill="#e0e0d4" points="225,130 250,130 218,185" stroke="none" /><polygon fill="#e0e0d4" points="250,130 243,185 218,185" stroke="none" /><polygon fill="#d4a41e" points="142,185 169,185 161,248" stroke="none" /><polygon fill="#d4a41e" points="169,185 178,248 161,248" stroke="none" /><polygon fill="#f5ce2e" points="169,185 194,185 178,248" stroke="none" /><polygon fill="#f5ce2e" points="194,185 192,248 178,248" stroke="none" /><polygon fill="#fde064" points="194,185 218,185 192,248" stroke="none" /><polygon fill="#fde064" points="218,185 210,248 192,248" stroke="none" /><polygon fill="#f5ce2e" points="218,185 243,185 210,248" stroke="none" /><polygon fill="#f5ce2e" points="243,185 231,248 210,248" stroke="none" /><polygon fill="#d4a41e" points="161,248 178,248 182,318" stroke="none" /><polygon fill="#d4a41e" points="178,248 192,318 182,318" stroke="none" /><polygon fill="#d4a41e" points="178,248 192,248 192,318" stroke="none" /><polygon fill="#d4a41e" points="192,248 198,318 192,318" stroke="none" /><polygon fill="#f5ce2e" points="192,248 210,248 198,318" stroke="none" /><polygon fill="#f5ce2e" points="210,248 204,318 198,318" stroke="none" /><polygon fill="#d4a41e" points="210,248 231,248 204,318" stroke="none" /><polygon fill="#d4a41e" points="231,248 213,318 204,318" stroke="none" /><polygon fill="#b89218" points="182,318 192,318 197,430" stroke="none" /><polygon fill="#b89218" points="192,318 198,430 197,430" stroke="none" /><polygon fill="#d4a41e" points="192,318 198,318 198,430" stroke="none" /><polygon fill="#d4a41e" points="198,318 206,430 198,430" stroke="none" /><polygon fill="#b89218" points="198,318 204,318 206,430" stroke="none" /><polygon fill="#b89218" points="204,318 213,430 206,430" stroke="none" /><polygon fill="#d4a41e" points="204,318 213,318 213,430" stroke="none" /><polygon fill="#d4a41e" points="213,318 218,430 213,430" stroke="none" /><line stroke="#b0b0a0" stroke-width="2.5" x1="155" x2="259" y1="192" y2="192" /><line stroke="#b0b0a0" stroke-width="3" x1="153" x2="261" y1="86" y2="86" /><path d="M 186 218 Q 188 216 190 218" fill="none" stroke="#d4c0a0" stroke-opacity="0.3" stroke-width="1" /><path d="M 210 317 Q 212 315 214 317" fill="none" stroke="#d4c0a0" stroke-opacity="0.3" stroke-width="1" /><path d="M 183 210 Q 185 208 187 210" fill="none" stroke="#d4c0a0" stroke-opacity="0.3" stroke-width="1" /><path d="M 214 279 Q 217 276 220 279" fill="none" stroke="#d4c0a0" stroke-opacity="0.3" stroke-width="1" /><path d="M 199 255 Q 202 252 205 255" fill="none" stroke="#d4c0a0" stroke-opacity="0.3" stroke-width="1" /><polygon fill="#ccccbe" points="256,80 280,80 259,130" stroke="none" /><polygon fill="#ccccbe" points="280,80 286,130 259,130" stroke="none" /><polygon fill="#e0e0d4" points="280,80 304,80 286,130" stroke="none" /><polygon fill="#e0e0d4" points="304,80 312,130 286,130" stroke="none" /><polygon fill="#e0e0d4" points="304,80 330,80 312,130" stroke="none" /><polygon fill="#f0f0e8" points="330,80 337,130 312,130" stroke="none" /><polygon fill="#e0e0d4" points="330,80 354,80 337,130" stroke="none" /><polygon fill="#e0e0d4" points="354,80 369,130 337,130" stroke="none" /><polygon fill="#ccccbe" points="259,130 286,130 266,185" stroke="none" /><polygon fill="#ccccbe" points="286,130 291,185 266,185" stroke="none" /><polygon fill="#e0e0d4" points="286,130 312,130 291,185" stroke="none" /><polygon fill="#e0e0d4" points="312,130 316,185 291,185" stroke="none" /><polygon fill="#e0e0d4" points="312,130 337,130 316,185" stroke="none" /><polygon fill="#e0e0d4" points="337,130 342,185 316,185" stroke="none" /><polygon fill="#e0e0d4" points="337,130 369,130 342,185" stroke="none" /><polygon fill="#e0e0d4" points="369,130 368,185 342,185" stroke="none" /><polygon fill="#d4a41e" points="266,185 291,185 282,248" stroke="none" /><polygon fill="#d4a41e" points="291,185 298,248 282,248" stroke="none" /><polygon fill="#f5ce2e" points="291,185 316,185 298,248" stroke="none" /><polygon fill="#f5ce2e" points="316,185 319,248 298,248" stroke="none" /><polygon fill="#fde064" points="316,185 342,185 319,248" stroke="none" /><polygon fill="#fde064" points="342,185 333,248 319,248" stroke="none" /><polygon fill="#f5ce2e" points="342,185 368,185 333,248" stroke="none" /><polygon fill="#f5ce2e" points="368,185 354,248 333,248" stroke="none" /><polygon fill="#d4a41e" points="282,248 298,248 296,318" stroke="none" /><polygon fill="#d4a41e" points="298,248 307,318 296,318" stroke="none" /><polygon fill="#d4a41e" points="298,248 319,248 307,318" stroke="none" /><polygon fill="#d4a41e" points="319,248 313,318 307,318" stroke="none" /><polygon fill="#f5ce2e" points="319,248 333,248 313,318" stroke="none" /><polygon fill="#f5ce2e" points="333,248 318,318 313,318" stroke="none" /><polygon fill="#d4a41e" points="333,248 354,248 318,318" stroke="none" /><polygon fill="#d4a41e" points="354,248 329,318 318,318" stroke="none" /><polygon fill="#b89218" points="296,318 307,318 294,430" stroke="none" /><polygon fill="#b89218" points="307,318 297,430 294,430" stroke="none" /><polygon fill="#d4a41e" points="307,318 313,318 297,430" stroke="none" /><polygon fill="#d4a41e" points="313,318 304,430 297,430" stroke="none" /><polygon fill="#b89218" points="313,318 318,318 304,430" stroke="none" /><polygon fill="#b89218" points="318,318 311,430 304,430" stroke="none" /><polygon fill="#d4a41e" points="318,318 329,318 311,430" stroke="none" /><polygon fill="#d4a41e" points="329,318 316,430 311,430" stroke="none" /><line stroke="#b0b0a0" stroke-width="2.5" x1="253" x2="357" y1="192" y2="192" /><line stroke="#b0b0a0" stroke-width="3" x1="251" x2="359" y1="86" y2="86" /><path d="M 327 306 Q 329 304 331 306" fill="none" stroke="#d4c0a0" stroke-opacity="0.3" stroke-width="1" /><path d="M 296 210 Q 300 206 304 210" fill="none" stroke="#d4c0a0" stroke-opacity="0.3" stroke-width="1" /><path d="M 161 82 Q 149 100 161 118" fill="none" stroke="#b0b0a0" stroke-width="1.5" /><path d="M 259 82 Q 247 100 259 118" fill="none" stroke="#b0b0a0" stroke-width="1.5" /></svg>