<?xml version="1.0" encoding="utf-8" ?>
<svg baseProfile="full" height="512" version="1.1" width="512" xmlns="http://www.w3.org/2000/svg" xmlns:ev="http://www.w3.org/2001/xml-events" xmlns:xlink="http://www.w3.org/1999/xlink"><defs /><polygon fill="#ccccbe" points="206,80 215,80 209,130" stroke="none" /><polygon fill="#ccccbe" points="215,80 224,130 209,130" stroke="none" /><polygon fill="#e0e0d4" points="215,80 226,80 224,130" stroke="none" /><polygon fill="#e0e0d4" points="226,80 233,130 224,130" stroke="none" /><polygon fill="#e0e0d4" points="226,80 236,80 233,130" stroke="none" /><polygon fill="#f0f0e8" points="236,80 247,130 233,130" stroke="none" /><polygon fill="#e0e0d4" points="236,80 244,80 247,130" stroke="none" /><polygon fill="#e0e0d4" points="244,80 260,130 247,130" stroke="none" /><polygon fill="#ccccbe" points="209,130 224,130 221,185" stroke="none" /><polygon fill="#ccccbe" points="224,130 231,185 221,185" stroke="none" /><polygon fill="#e0e0d4" points="224,130 233,130 231,185" stroke="none" /><polygon fill="#e0e0d4" points="233,130 240,185 231,185" stroke="none" /><polygon fill="#e0e0d4" points="233,130 247,130 240,185" stroke="none" /><polygon fill="#e0e0d4" points="247,130 248,185 240,185" stroke="none" /><polygon fill="#e0e0d4" points="247,130 260,130 248,185" stroke="none" /><polygon fill="#e0e0d4" points="260,130 262,185 248,185" stroke="none" /><polygon fill="#d4a41e" points="221,185 231,185 228,248" stroke="none" /><polygon fill="#d4a41e" points="231,185 235,248 228,248" stroke="none" /><polygon fill="#f5ce2e" points="231,185 240,185 235,248" stroke="none" /><polygon fill="#f5ce2e" points="240,185 239,248 235,248" stroke="none" /><polygon fill="#fde064" points="240,185 248,185 239,248" stroke="none" /><polygon fill="#fde064" points="248,185 248,248 239,248" stroke="none" /><polygon fill="#f5ce2e" points="248,185 262,185 248,248" stroke="none" /><polygon fill="#f5ce2e" points="262,185 254,248 248,248" stroke="none" /><polygon fill="#d4a41e" points="228,248 235,248 220,318" stroke="none" /><polygon fill="#d4a41e" points="235,248 229,318 220,318" stroke="none" /><polygon fill="#d4a41e" points="235,248 239,248 229,318" stroke="none" /><polygon fill="#d4a41e" points="239,248 237,318 229,318" stroke="none" /><polygon fill="#f5ce2e" points="239,248 248,248 237,318" stroke="none" /><polygon fill="#f5ce2e" points="248,248 243,318 237,318" stroke="none" /><polygon fill="#d4a41e" points="248,248 254,248 243,318" stroke="none" /><polygon fill="#d4a41e" points="254,248 251,318 243,318" stroke="none" /><polygon fill="#b89218" points="220,318 229,318 215,430" stroke="none" /><polygon fill="#b89218" points="229,318 217,430 215,430" stroke="none" /><polygon fill="#d4a41e" points="229,318 237,318 217,430" stroke="none" /><polygon fill="#d4a41e" points="237,318 226,430 217,430" stroke="none" /><polygon fill="#b89218" points="237,318 243,318 226,430" stroke="none" /><polygon fill="#b89218" points="243,318 232,430 226,430" stroke="none" /><polygon fill="#d4a41e" points="243,318 251,318 232,430" stroke="none" /><polygon fill="#d4a41e" points="251,318 235,430 232,430" stroke="none" /><line stroke="#b0b0a0" stroke-width="2.5" x1="203" x2="247" y1="192" y2="192" /><line stroke="#b0b0a0" stroke-width="3" x1="201" x2="249" y1="86" y2="86" /><ellipse cx="226" cy="362" fill="white" fill-opacity="0.12" rx="3" ry="2" stroke="none" /><ellipse cx="216" cy="376" fill="white" fill-opacity="0.12" rx="3" ry="2" stroke="none" /><ellipse cx="220" cy="354" fill="white" fill-opacity="0.12" rx="3" ry="2" stroke="none" /><ellipse cx="228" cy="374" fill="white" fill-opacity="0.12" rx="3" ry="2" stroke="none" /><ellipse cx="223" cy="278" fill="white" fill-opacity="0.12" rx="3" ry="2" stroke="none" /><polygon fill="#ccccbe" points="266,80 276,80 256,130" stroke="none" /><polygon fill="#ccccbe" points="276,80 268,130 256,130" stroke="none" /><polygon fill="#e0e0d4" points="276,80 288,80 268,130" stroke="none" /><polygon fill="#e0e0d4" points="288,80 278,130 268,130" stroke="none" /><polygon fill="#e0e0d4" points="288,80 296,80 278,130" stroke="none" /><polygon fill="#f0f0e8" points="296,80 290,130 278,130" stroke="none" /><polygon fill="#e0e0d4" points="296,80 308,80 290,130" stroke="none" /><polygon fill="#e0e0d4" points="308,80 304,130 290,130" stroke="none" /><polygon fill="#ccccbe" points="256,130 268,130 258,185" stroke="none" /><polygon fill="#ccccbe" points="268,130 264,185 258,185" stroke="none" /><polygon fill="#e0e0d4" points="268,130 278,130 264,185" stroke="none" /><polygon fill="#e0e0d4" points="278,130 277,185 264,185" stroke="none" /><polygon fill="#e0e0d4" points="278,130 290,130 277,185" stroke="none" /><polygon fill="#e0e0d4" points="290,130 287,185 277,185" stroke="none" /><polygon fill="#e0e0d4" points="290,130 304,130 287,185" stroke="none" /><polygon fill="#e0e0d4" points="304,130 296,185 287,185" stroke="none" /><polygon fill="#d4a41e" points="258,185 264,185 264,248" stroke="none" /><polygon fill="#d4a41e" points="264,185 268,248 264,248" stroke="none" /><polygon fill="#f5ce2e" points="264,185 277,185 268,248" stroke="none" /><polygon fill="#f5ce2e" points="277,185 274,248 268,248" stroke="none" /><polygon fill="#fde064" points="277,185 287,185 274,248" stroke="none" /><polygon fill="#fde064" points="287,185 281,248 274,248" stroke="none" /><polygon fill="#f5ce2e" points="287,185 296,185 281,248" stroke="none" /><polygon fill="#f5ce2e" points="296,185 289,248 281,248" stroke="none" /><polygon fill="#d4a41e" points="264,248 268,248 266,318" stroke="none" /><polygon fill="#d4a41e" points="268,248 273,318 266,318" stroke="none" /><polygon fill="#d4a41e" points="268,248 274,248 273,318" stroke="none" /><polygon fill="#d4a41e" points="274,248 281,318 273,318" stroke="none" /><polygon fill="#f5ce2e" points="274,248 281,248 281,318" stroke="none" /><polygon fill="#f5ce2e" points="281,248 287,318 281,318" stroke="none" /><polygon fill="#d4a41e" points="281,248 289,248 287,318" stroke="none" /><polygon fill="#d4a41e" points="289,248 291,318 287,318" stroke="none" /><polygon fill="#b89218" points="266,318 273,318 276,430" stroke="none" /><polygon fill="#b89218" points="273,318 280,430 276,430" stroke="none" /><polygon fill="#d4a41e" points="273,318 281,318 280,430" stroke="none" /><polygon fill="#d4a41e" points="281,318 286,430 280,430" stroke="none" /><polygon fill="#b89218" points="281,318 287,318 286,430" stroke="none" /><polygon fill="#b89218" points="287,318 294,430 286,430" stroke="none" /><polygon fill="#d4a41e" points="287,318 291,318 294,430" stroke="none" /><polygon fill="#d4a41e" points="291,318 296,430 294,430" stroke="none" /><line stroke="#b0b0a0" stroke-width="2.5" x1="265" x2="309" y1="192" y2="192" /><line stroke="#b0b0a0" stroke-width="3" x1="263" x2="311" y1="86" y2="86" /><ellipse cx="296" cy="284" fill="white" fill-opacity="0.12" rx="3" ry="2" stroke="none" /><ellipse cx="279" cy="413" fill="white" fill-opacity="0.12" rx="3" ry="2" stroke="none" /><ellipse cx="286" cy="242" fill="white" fill-opacity="0.12" rx="3" ry="2" stroke="none" /><ellipse cx="281" cy="344" fill="white" fill-opacity="0.12" rx="3" ry="2" stroke="none" /></svg>