<?xml version="1.0" encoding="utf-8" ?>
<svg baseProfile="full" height="512" version="1.1" width="512" xmlns="http://www.w3.org/2000/svg" xmlns:ev="http://www.w3.org/2001/xml-events" xmlns:xlink="http://www.w3.org/1999/xlink"><defs /><polygon fill="#ccccbe" points="183,80 204,80 181,130" stroke="none" /><polygon fill="#ccccbe" points="204,80 203,130 181,130" stroke="none" /><polygon fill="#e0e0d4" points="204,80 222,80 203,130" stroke="none" /><polygon fill="#e0e0d4" points="222,80 223,130 203,130" stroke="none" /><polygon fill="#e0e0d4" points="222,80 241,80 223,130" stroke="none" /><polygon fill="#f0f0e8" points="241,80 243,130 223,130" stroke="none" /><polygon fill="#e0e0d4" points="241,80 262,80 243,130" stroke="none" /><polygon fill="#e0e0d4" points="262,80 266,130 243,130" stroke="none" /><polygon fill="#ccccbe" points="181,130 203,130 183,185" stroke="none" /><polygon fill="#ccccbe" points="203,130 205,185 183,185" stroke="none" /><polygon fill="#e0e0d4" points="203,130 223,130 205,185" stroke="none" /><polygon fill="#e0e0d4" points="223,130 224,185 205,185" stroke="none" /><polygon fill="#e0e0d4" points="223,130 243,130 224,185" stroke="none" /><polygon fill="#e0e0d4" points="243,130 240,185 224,185" stroke="none" /><polygon fill="#e0e0d4" points="243,130 266,130 240,185" stroke="none" /><polygon fill="#e0e0d4" points="266,130 263,185 240,185" stroke="none" /><polygon fill="#d0a018" points="183,185 205,185 198,248" stroke="none" /><polygon fill="#d0a018" points="205,185 212,248 198,248" stroke="none" /><polygon fill="#f3ca24" points="205,185 224,185 212,248" stroke="none" /><polygon fill="#f3ca24" points="224,185 223,248 212,248" stroke="none" /><polygon fill="#fade5c" points="224,185 240,185 223,248" stroke="none" /><polygon fill="#fade5c" points="240,185 237,248 223,248" stroke="none" /><polygon fill="#f3ca24" points="240,185 263,185 237,248" stroke="none" /><polygon fill="#f3ca24" points="263,185 252,248 237,248" stroke="none" /><polygon fill="#d0a018" points="198,248 212,248 208,318" stroke="none" /><polygon fill="#d0a018" points="212,248 216,318 208,318" stroke="none" /><polygon fill="#d0a018" points="212,248 223,248 216,318" stroke="none" /><polygon fill="#d0a018" points="223,248 222,318 216,318" stroke="none" /><polygon fill="#f3ca24" points="223,248 237,248 222,318" stroke="none" /><polygon fill="#f3ca24" points="237,248 231,318 222,318" stroke="none" /><polygon fill="#d0a018" points="237,248 252,248 231,318" stroke="none" /><polygon fill="#d0a018" points="252,248 238,318 231,318" stroke="none" /><polygon fill="#b48c14" points="208,318 216,318 214,430" stroke="none" /><polygon fill="#b48c14" points="216,318 217,430 214,430" stroke="none" /><polygon fill="#d0a018" points="216,318 222,318 217,430" stroke="none" /><polygon fill="#d0a018" points="222,318 224,430 217,430" stroke="none" /><polygon fill="#b48c14" points="222,318 231,318 224,430" stroke="none" /><polygon fill="#b48c14" points="231,318 229,430 224,430" stroke="none" /><polygon fill="#d0a018" points="231,318 238,318 229,430" stroke="none" /><polygon fill="#d0a018" points="238,318 231,430 229,430" stroke="none" /><line stroke="#b0b0a0" stroke-width="2.5" x1="182" x2="264" y1="192" y2="192" /><line stroke="#b0b0a0" stroke-width="3" x1="180" x2="266" y1="86" y2="86" /><path d="M 209 287 Q 212 284 215 287" fill="none" stroke="#d4c0a0" stroke-opacity="0.3" stroke-width="1" /><path d="M 200 343 Q 204 339 208 343" fill="none" stroke="#d4c0a0" stroke-opacity="0.3" stroke-width="1" /><path d="M 238 205 Q 241 202 244 205" fill="none" stroke="#d4c0a0" stroke-opacity="0.3" stroke-width="1" /><path d="M 218 295 Q 223 290 228 295" fill="none" stroke="#d4c0a0" stroke-opacity="0.3" stroke-width="1" /><path d="M 231 248 Q 235 244 239 248" fill="none" stroke="#d4c0a0" stroke-opacity="0.3" stroke-width="1" /><polygon fill="#ccccbe" points="249,80 268,80 248,130" stroke="none" /><polygon fill="#ccccbe" points="268,80 267,130 248,130" stroke="none" /><polygon fill="#e0e0d4" points="268,80 289,80 267,130" stroke="none" /><polygon fill="#e0e0d4" points="289,80 290,130 267,130" stroke="none" /><polygon fill="#e0e0d4" points="289,80 308,80 290,130" stroke="none" /><polygon fill="#f0f0e8" points="308,80 310,130 290,130" stroke="none" /><polygon fill="#e0e0d4" points="308,80 329,80 310,130" stroke="none" /><polygon fill="#e0e0d4" points="329,80 331,130 310,130" stroke="none" /><polygon fill="#ccccbe" points="248,130 267,130 249,185" stroke="none" /><polygon fill="#ccccbe" points="267,130 267,185 249,185" stroke="none" /><polygon fill="#e0e0d4" points="267,130 290,130 267,185" stroke="none" /><polygon fill="#e0e0d4" points="290,130 289,185 267,185" stroke="none" /><polygon fill="#e0e0d4" points="290,130 310,130 289,185" stroke="none" /><polygon fill="#e0e0d4" points="310,130 309,185 289,185" stroke="none" /><polygon fill="#e0e0d4" points="310,130 331,130 309,185" stroke="none" /><polygon fill="#e0e0d4" points="331,130 330,185 309,185" stroke="none" /><polygon fill="#d0a018" points="249,185 267,185 261,248" stroke="none" /><polygon fill="#d0a018" points="267,185 278,248 261,248" stroke="none" /><polygon fill="#f3ca24" points="267,185 289,185 278,248" stroke="none" /><polygon fill="#f3ca24" points="289,185 288,248 278,248" stroke="none" /><polygon fill="#fade5c" points="289,185 309,185 288,248" stroke="none" /><polygon fill="#fade5c" points="309,185 303,248 288,248" stroke="none" /><polygon fill="#f3ca24" points="309,185 330,185 303,248" stroke="none" /><polygon fill="#f3ca24" points="330,185 316,248 303,248" stroke="none" /><polygon fill="#d0a018" points="261,248 278,248 278,318" stroke="none" /><polygon fill="#d0a018" points="278,248 280,318 278,318" stroke="none" /><polygon fill="#d0a018" points="278,248 288,248 280,318" stroke="none" /><polygon fill="#d0a018" points="288,248 287,318 280,318" stroke="none" /><polygon fill="#f3ca24" points="288,248 303,248 287,318" stroke="none" /><polygon fill="#f3ca24" points="303,248 297,318 287,318" stroke="none" /><polygon fill="#d0a018" points="303,248 316,248 297,318" stroke="none" /><polygon fill="#d0a018" points="316,248 302,318 297,318" stroke="none" /><polygon fill="#b48c14" points="278,318 280,318 279,430" stroke="none" /><polygon fill="#b48c14" points="280,318 282,430 279,430" stroke="none" /><polygon fill="#d0a018" points="280,318 287,318 282,430" stroke="none" /><polygon fill="#d0a018" points="287,318 288,430 282,430" stroke="none" /><polygon fill="#b48c14" points="287,318 297,318 288,430" stroke="none" /><polygon fill="#b48c14" points="297,318 296,430 288,430" stroke="none" /><polygon fill="#d0a018" points="297,318 302,318 296,430" stroke="none" /><polygon fill="#d0a018" points="302,318 299,430 296,430" stroke="none" /><line stroke="#b0b0a0" stroke-width="2.5" x1="248" x2="330" y1="192" y2="192" /><line stroke="#b0b0a0" stroke-width="3" x1="246" x2="332" y1="86" y2="86" /><path d="M 298 381 Q 301 378 304 381" fill="none" stroke="#d4c0a0" stroke-opacity="0.3" stroke-width="1" /><path d="M 292 316 Q 294 314 296 316" fill="none" stroke="#d4c0a0" stroke-opacity="0.3" stroke-width="1" /><path d="M 311 206 Q 314 203 317 206" fill="none" stroke="#d4c0a0" stroke-opacity="0.3" stroke-width="1" /><path d="M 188 82 Q 176 100 188 118" fill="none" stroke="#b0b0a0" stroke-width="1.5" /><path d="M 254 82 Q 242 100 254 118" fill="none" stroke="#b0b0a0" stroke-width="1.5" /></svg>