<?xml version="1.0" encoding="utf-8" ?>
<svg baseProfile="full" height="512" version="1.1" width="512" xmlns="http://www.w3.org/2000/svg" xmlns:ev="http://www.w3.org/2001/xml-events" xmlns:xlink="http://www.w3.org/1999/xlink"><defs /><polygon fill="#ccccbe" points="193,80 207,80 189,130" stroke="none" /><polygon fill="#ccccbe" points="207,80 204,130 189,130" stroke="none" /><polygon fill="#e0e0d4" points="207,80 220,80 204,130" stroke="none" /><polygon fill="#e0e0d4" points="220,80 221,130 204,130" stroke="none" /><polygon fill="#e0e0d4" points="220,80 231,80 221,130" stroke="none" /><polygon fill="#f0f0e8" points="231,80 232,130 221,130" stroke="none" /><polygon fill="#e0e0d4" points="231,80 244,80 232,130" stroke="none" /><polygon fill="#e0e0d4" points="244,80 249,130 232,130" stroke="none" /><polygon fill="#ccccbe" points="189,130 204,130 196,185" stroke="none" /><polygon fill="#ccccbe" points="204,130 208,185 196,185" stroke="none" /><polygon fill="#e0e0d4" points="204,130 221,130 208,185" stroke="none" /><polygon fill="#e0e0d4" points="221,130 220,185 208,185" stroke="none" /><polygon fill="#e0e0d4" points="221,130 232,130 220,185" stroke="none" /><polygon fill="#e0e0d4" points="232,130 233,185 220,185" stroke="none" /><polygon fill="#e0e0d4" points="232,130 249,130 233,185" stroke="none" /><polygon fill="#e0e0d4" points="249,130 242,185 233,185" stroke="none" /><polygon fill="#d4a520" points="196,185 208,185 203,248" stroke="none" /><polygon fill="#d4a520" points="208,185 210,248 203,248" stroke="none" /><polygon fill="#f5cd30" points="208,185 220,185 210,248" stroke="none" /><polygon fill="#f5cd30" points="220,185 218,248 210,248" stroke="none" /><polygon fill="#fde066" points="220,185 233,185 218,248" stroke="none" /><polygon fill="#fde066" points="233,185 227,248 218,248" stroke="none" /><polygon fill="#f5cd30" points="233,185 242,185 227,248" stroke="none" /><polygon fill="#f5cd30" points="242,185 237,248 227,248" stroke="none" /><polygon fill="#d4a520" points="203,248 210,248 196,318" stroke="none" /><polygon fill="#d4a520" points="210,248 206,318 196,318" stroke="none" /><polygon fill="#d4a520" points="210,248 218,248 206,318" stroke="none" /><polygon fill="#d4a520" points="218,248 218,318 206,318" stroke="none" /><polygon fill="#f5cd30" points="218,248 227,248 218,318" stroke="none" /><polygon fill="#f5cd30" points="227,248 231,318 218,318" stroke="none" /><polygon fill="#d4a520" points="227,248 237,248 231,318" stroke="none" /><polygon fill="#d4a520" points="237,248 239,318 231,318" stroke="none" /><polygon fill="#b8911a" points="196,318 206,318 202,430" stroke="none" /><polygon fill="#b8911a" points="206,318 208,430 202,430" stroke="none" /><polygon fill="#d4a520" points="206,318 218,318 208,430" stroke="none" /><polygon fill="#d4a520" points="218,318 219,430 208,430" stroke="none" /><polygon fill="#b8911a" points="218,318 231,318 219,430" stroke="none" /><polygon fill="#b8911a" points="231,318 228,430 219,430" stroke="none" /><polygon fill="#d4a520" points="231,318 239,318 228,430" stroke="none" /><polygon fill="#d4a520" points="239,318 237,430 228,430" stroke="none" /><line stroke="#b0b0a0" stroke-width="2.5" x1="192" x2="246" y1="192" y2="192" /><line stroke="#b0b0a0" stroke-width="3" x1="190" x2="248" y1="86" y2="86" /><path d="M 206 286 Q 210 282 214 286" fill="none" stroke="#d4c0a0" stroke-opacity="0.3" stroke-width="1" /><path d="M 218 250 Q 222 246 226 250" fill="none" stroke="#d4c0a0" stroke-opacity="0.3" stroke-width="1" /><polygon fill="#ccccbe" points="268,80 280,80 266,130" stroke="none" /><polygon fill="#ccccbe" points="280,80 280,130 266,130" stroke="none" /><polygon fill="#e0e0d4" points="280,80 294,80 280,130" stroke="none" /><polygon fill="#e0e0d4" points="294,80 294,130 280,130" stroke="none" /><polygon fill="#e0e0d4" points="294,80 304,80 294,130" stroke="none" /><polygon fill="#f0f0e8" points="304,80 303,130 294,130" stroke="none" /><polygon fill="#e0e0d4" points="304,80 318,80 303,130" stroke="none" /><polygon fill="#e0e0d4" points="318,80 323,130 303,130" stroke="none" /><polygon fill="#ccccbe" points="266,130 280,130 269,185" stroke="none" /><polygon fill="#ccccbe" points="280,130 279,185 269,185" stroke="none" /><polygon fill="#e0e0d4" points="280,130 294,130 279,185" stroke="none" /><polygon fill="#e0e0d4" points="294,130 291,185 279,185" stroke="none" /><polygon fill="#e0e0d4" points="294,130 303,130 291,185" stroke="none" /><polygon fill="#e0e0d4" points="303,130 305,185 291,185" stroke="none" /><polygon fill="#e0e0d4" points="303,130 323,130 305,185" stroke="none" /><polygon fill="#e0e0d4" points="323,130 320,185 305,185" stroke="none" /><polygon fill="#d4a520" points="269,185 279,185 274,248" stroke="none" /><polygon fill="#d4a520" points="279,185 284,248 274,248" stroke="none" /><polygon fill="#f5cd30" points="279,185 291,185 284,248" stroke="none" /><polygon fill="#f5cd30" points="291,185 295,248 284,248" stroke="none" /><polygon fill="#fde066" points="291,185 305,185 295,248" stroke="none" /><polygon fill="#fde066" points="305,185 300,248 295,248" stroke="none" /><polygon fill="#f5cd30" points="305,185 320,185 300,248" stroke="none" /><polygon fill="#f5cd30" points="320,185 310,248 300,248" stroke="none" /><polygon fill="#d4a520" points="274,248 284,248 271,318" stroke="none" /><polygon fill="#d4a520" points="284,248 283,318 271,318" stroke="none" /><polygon fill="#d4a520" points="284,248 295,248 283,318" stroke="none" /><polygon fill="#d4a520" points="295,248 292,318 283,318" stroke="none" /><polygon fill="#f5cd30" points="295,248 300,248 292,318" stroke="none" /><polygon fill="#f5cd30" points="300,248 304,318 292,318" stroke="none" /><polygon fill="#d4a520" points="300,248 310,248 304,318" stroke="none" /><polygon fill="#d4a520" points="310,248 313,318 304,318" stroke="none" /><polygon fill="#b8911a" points="271,318 283,318 276,430" stroke="none" /><polygon fill="#b8911a" points="283,318 282,430 276,430" stroke="none" /><polygon fill="#d4a520" points="283,318 292,318 282,430" stroke="none" /><polygon fill="#d4a520" points="292,318 293,430 282,430" stroke="none" /><polygon fill="#b8911a" points="292,318 304,318 293,430" stroke="none" /><polygon fill="#b8911a" points="304,318 304,430 293,430" stroke="none" /><polygon fill="#d4a520" points="304,318 313,318 304,430" stroke="none" /><polygon fill="#d4a520" points="313,318 310,430 304,430" stroke="none" /><line stroke="#b0b0a0" stroke-width="2.5" x1="266" x2="320" y1="192" y2="192" /><line stroke="#b0b0a0" stroke-width="3" x1="264" x2="322" y1="86" y2="86" /><path d="M 308 288 Q 310 286 312 288" fill="none" stroke="#d4c0a0" stroke-opacity="0.3" stroke-width="1" /><path d="M 296 252 Q 301 247 306 252" fill="none" stroke="#d4c0a0" stroke-opacity="0.3" stroke-width="1" /><path d="M 291 397 Q 296 392 301 397" fill="none" stroke="#d4c0a0" stroke-opacity="0.3" stroke-width="1" /><path d="M 290 227 Q 292 225 294 227" fill="none" stroke="#d4c0a0" stroke-opacity="0.3" stroke-width="1" /><path d="M 213 237 Q 225 243 225 255" fill="none" stroke="#8a6840" stroke-width="1.5" /><path d="M 287 237 Q 299 243 299 255" fill="none" stroke="#8a6840" stroke-width="1.5" /></svg>