<?xml version="1.0" encoding="utf-8" ?>
<svg baseProfile="full" height="512" version="1.1" width="512" xmlns="http://www.w3.org/2000/svg" xmlns:ev="http://www.w3.org/2001/xml-events" xmlns:xlink="http://www.w3.org/1999/xlink"><defs /><polygon fill="#ccccbe" points="216,80 227,80 199,130" stroke="none" /><polygon fill="#ccccbe" points="227,80 213,130 199,130" stroke="none" /><polygon fill="#e0e0d4" points="227,80 237,80 213,130" stroke="none" /><polygon fill="#e0e0d4" points="237,80 220,130 213,130" stroke="none" /><polygon fill="#e0e0d4" points="237,80 245,80 220,130" stroke="none" /><polygon fill="#f0f0e8" points="245,80 231,130 220,130" stroke="none" /><polygon fill="#e0e0d4" points="245,80 257,80 231,130" stroke="none" /><polygon fill="#e0e0d4" points="257,80 246,130 231,130" stroke="none" /><polygon fill="#ccccbe" points="199,130 213,130 197,185" stroke="none" /><polygon fill="#ccccbe" points="213,130 204,185 197,185" stroke="none" /><polygon fill="#e0e0d4" points="213,130 220,130 204,185" stroke="none" /><polygon fill="#e0e0d4" points="220,130 214,185 204,185" stroke="none" /><polygon fill="#e0e0d4" points="220,130 231,130 214,185" stroke="none" /><polygon fill="#e0e0d4" points="231,130 227,185 214,185" stroke="none" /><polygon fill="#e0e0d4" points="231,130 246,130 227,185" stroke="none" /><polygon fill="#e0e0d4" points="246,130 234,185 227,185" stroke="none" /><polygon fill="#d6ae34" points="197,185 204,185 202,248" stroke="none" /><polygon fill="#d6ae34" points="204,185 210,248 202,248" stroke="none" /><polygon fill="#f6d244" points="204,185 214,185 210,248" stroke="none" /><polygon fill="#f6d244" points="214,185 217,248 210,248" stroke="none" /><polygon fill="#fee46e" points="214,185 227,185 217,248" stroke="none" /><polygon fill="#fee46e" points="227,185 222,248 217,248" stroke="none" /><polygon fill="#f6d244" points="227,185 234,185 222,248" stroke="none" /><polygon fill="#f6d244" points="234,185 229,248 222,248" stroke="none" /><polygon fill="#d6ae34" points="202,248 210,248 207,318" stroke="none" /><polygon fill="#d6ae34" points="210,248 216,318 207,318" stroke="none" /><polygon fill="#d6ae34" points="210,248 217,248 216,318" stroke="none" /><polygon fill="#d6ae34" points="217,248 224,318 216,318" stroke="none" /><polygon fill="#f6d244" points="217,248 222,248 224,318" stroke="none" /><polygon fill="#f6d244" points="222,248 227,318 224,318" stroke="none" /><polygon fill="#d6ae34" points="222,248 229,248 227,318" stroke="none" /><polygon fill="#d6ae34" points="229,248 235,318 227,318" stroke="none" /><polygon fill="#ba9a28" points="207,318 216,318 224,430" stroke="none" /><polygon fill="#ba9a28" points="216,318 229,430 224,430" stroke="none" /><polygon fill="#d6ae34" points="216,318 224,318 229,430" stroke="none" /><polygon fill="#d6ae34" points="224,318 237,430 229,430" stroke="none" /><polygon fill="#ba9a28" points="224,318 227,318 237,430" stroke="none" /><polygon fill="#ba9a28" points="227,318 243,430 237,430" stroke="none" /><polygon fill="#d6ae34" points="227,318 235,318 243,430" stroke="none" /><polygon fill="#d6ae34" points="235,318 248,430 243,430" stroke="none" /><line stroke="#b0b0a0" stroke-width="2.5" x1="214" x2="258" y1="192" y2="192" /><line stroke="#b0b0a0" stroke-width="3" x1="212" x2="260" y1="86" y2="86" /><polygon fill="#ccccbe" points="257,80 266,80 259,130" stroke="none" /><polygon fill="#ccccbe" points="266,80 272,130 259,130" stroke="none" /><polygon fill="#e0e0d4" points="266,80 276,80 272,130" stroke="none" /><polygon fill="#e0e0d4" points="276,80 281,130 272,130" stroke="none" /><polygon fill="#e0e0d4" points="276,80 285,80 281,130" stroke="none" /><polygon fill="#f0f0e8" points="285,80 294,130 281,130" stroke="none" /><polygon fill="#e0e0d4" points="285,80 296,80 294,130" stroke="none" /><polygon fill="#e0e0d4" points="296,80 306,130 294,130" stroke="none" /><polygon fill="#ccccbe" points="259,130 272,130 263,185" stroke="none" /><polygon fill="#ccccbe" points="272,130 274,185 263,185" stroke="none" /><polygon fill="#e0e0d4" points="272,130 281,130 274,185" stroke="none" /><polygon fill="#e0e0d4" points="281,130 285,185 274,185" stroke="none" /><polygon fill="#e0e0d4" points="281,130 294,130 285,185" stroke="none" /><polygon fill="#e0e0d4" points="294,130 295,185 285,185" stroke="none" /><polygon fill="#e0e0d4" points="294,130 306,130 295,185" stroke="none" /><polygon fill="#e0e0d4" points="306,130 306,185 295,185" stroke="none" /><polygon fill="#d6ae34" points="263,185 274,185 269,248" stroke="none" /><polygon fill="#d6ae34" points="274,185 278,248 269,248" stroke="none" /><polygon fill="#f6d244" points="274,185 285,185 278,248" stroke="none" /><polygon fill="#f6d244" points="285,185 284,248 278,248" stroke="none" /><polygon fill="#fee46e" points="285,185 295,185 284,248" stroke="none" /><polygon fill="#fee46e" points="295,185 291,248 284,248" stroke="none" /><polygon fill="#f6d244" points="295,185 306,185 291,248" stroke="none" /><polygon fill="#f6d244" points="306,185 301,248 291,248" stroke="none" /><polygon fill="#d6ae34" points="269,248 278,248 269,318" stroke="none" /><polygon fill="#d6ae34" points="278,248 274,318 269,318" stroke="none" /><polygon fill="#d6ae34" points="278,248 284,248 274,318" stroke="none" /><polygon fill="#d6ae34" points="284,248 282,318 274,318" stroke="none" /><polygon fill="#f6d244" points="284,248 291,248 282,318" stroke="none" /><polygon fill="#f6d244" points="291,248 290,318 282,318" stroke="none" /><polygon fill="#d6ae34" points="291,248 301,248 290,318" stroke="none" /><polygon fill="#d6ae34" points="301,248 295,318 290,318" stroke="none" /><polygon fill="#ba9a28" points="269,318 274,318 265,430" stroke="none" /><polygon fill="#ba9a28" points="274,318 268,430 265,430" stroke="none" /><polygon fill="#d6ae34" points="274,318 282,318 268,430" stroke="none" /><polygon fill="#d6ae34" points="282,318 275,430 268,430" stroke="none" /><polygon fill="#ba9a28" points="282,318 290,318 275,430" stroke="none" /><polygon fill="#ba9a28" points="290,318 284,430 275,430" stroke="none" /><polygon fill="#d6ae34" points="290,318 295,318 284,430" stroke="none" /><polygon fill="#d6ae34" points="295,318 287,430 284,430" stroke="none" /><line stroke="#b0b0a0" stroke-width="2.5" x1="254" x2="298" y1="192" y2="192" /><line stroke="#b0b0a0" stroke-width="3" x1="252" x2="300" y1="86" y2="86" /></svg>