<?xml version="1.0" encoding="utf-8" ?>
<svg baseProfile="full" height="512" version="1.1" width="512" xmlns="http://www.w3.org/2000/svg" xmlns:ev="http://www.w3.org/2001/xml-events" xmlns:xlink="http://www.w3.org/1999/xlink"><defs /><polygon fill="#ccccbe" points="193,80 206,80 193,130" stroke="none" /><polygon fill="#ccccbe" points="206,80 209,130 193,130" stroke="none" /><polygon fill="#e0e0d4" points="206,80 218,80 209,130" stroke="none" /><polygon fill="#e0e0d4" points="218,80 226,130 209,130" stroke="none" /><polygon fill="#e0e0d4" points="218,80 233,80 226,130" stroke="none" /><polygon fill="#f0f0e8" points="233,80 237,130 226,130" stroke="none" /><polygon fill="#e0e0d4" points="233,80 244,80 237,130" stroke="none" /><polygon fill="#e0e0d4" points="244,80 252,130 237,130" stroke="none" /><polygon fill="#ccccbe" points="193,130 209,130 200,185" stroke="none" /><polygon fill="#ccccbe" points="209,130 213,185 200,185" stroke="none" /><polygon fill="#e0e0d4" points="209,130 226,130 213,185" stroke="none" /><polygon fill="#e0e0d4" points="226,130 226,185 213,185" stroke="none" /><polygon fill="#e0e0d4" points="226,130 237,130 226,185" stroke="none" /><polygon fill="#e0e0d4" points="237,130 238,185 226,185" stroke="none" /><polygon fill="#e0e0d4" points="237,130 252,130 238,185" stroke="none" /><polygon fill="#e0e0d4" points="252,130 251,185 238,185" stroke="none" /><polygon fill="#d4ac30" points="200,185 213,185 210,248" stroke="none" /><polygon fill="#d4ac30" points="213,185 215,248 210,248" stroke="none" /><polygon fill="#f5d040" points="213,185 226,185 215,248" stroke="none" /><polygon fill="#f5d040" points="226,185 228,248 215,248" stroke="none" /><polygon fill="#fde26e" points="226,185 238,185 228,248" stroke="none" /><polygon fill="#fde26e" points="238,185 236,248 228,248" stroke="none" /><polygon fill="#f5d040" points="238,185 251,185 236,248" stroke="none" /><polygon fill="#f5d040" points="251,185 245,248 236,248" stroke="none" /><polygon fill="#d4ac30" points="210,248 215,248 205,318" stroke="none" /><polygon fill="#d4ac30" points="215,248 212,318 205,318" stroke="none" /><polygon fill="#d4ac30" points="215,248 228,248 212,318" stroke="none" /><polygon fill="#d4ac30" points="228,248 226,318 212,318" stroke="none" /><polygon fill="#f5d040" points="228,248 236,248 226,318" stroke="none" /><polygon fill="#f5d040" points="236,248 235,318 226,318" stroke="none" /><polygon fill="#d4ac30" points="236,248 245,248 235,318" stroke="none" /><polygon fill="#d4ac30" points="245,248 247,318 235,318" stroke="none" /><polygon fill="#b89824" points="205,318 212,318 202,430" stroke="none" /><polygon fill="#b89824" points="212,318 209,430 202,430" stroke="none" /><polygon fill="#d4ac30" points="212,318 226,318 209,430" stroke="none" /><polygon fill="#d4ac30" points="226,318 219,430 209,430" stroke="none" /><polygon fill="#b89824" points="226,318 235,318 219,430" stroke="none" /><polygon fill="#b89824" points="235,318 228,430 219,430" stroke="none" /><polygon fill="#d4ac30" points="235,318 247,318 228,430" stroke="none" /><polygon fill="#d4ac30" points="247,318 235,430 228,430" stroke="none" /><line stroke="#b0b0a0" stroke-width="2.5" x1="191" x2="247" y1="192" y2="192" /><line stroke="#b0b0a0" stroke-width="3" x1="189" x2="249" y1="86" y2="86" /><circle cx="206" cy="350" fill="#d4ac30" fill-opacity="0.15" r="1.2526073267064337" stroke="none" /><circle cx="218" cy="354" fill="#d4ac30" fill-opacity="0.15" r="1.040081337339116" stroke="none" /><circle cx="197" cy="304" fill="#d4ac30" fill-opacity="0.15" r="0.741655223210614" stroke="none" /><circle cx="200" cy="294" fill="#d4ac30" fill-opacity="0.15" r="0.5973797772165383" stroke="none" /><circle cx="231" cy="363" fill="#d4ac30" fill-opacity="0.15" r="1.1582650258008886" stroke="none" /><circle cx="224" cy="227" fill="#d4ac30" fill-opacity="0.15" r="1.4788277268669534" stroke="none" /><circle cx="213" cy="282" fill="#d4ac30" fill-opacity="0.15" r="0.6618931215567845" stroke="none" /><circle cx="211" cy="337" fill="#d4ac30" fill-opacity="0.15" r="1.3037773538635207" stroke="none" /><circle cx="211" cy="415" fill="#d4ac30" fill-opacity="0.15" r="1.0559560942479367" stroke="none" /><circle cx="218" cy="333" fill="#d4ac30" fill-opacity="0.15" r="1.4769854946033845" stroke="none" /><circle cx="208" cy="421" fill="#d4ac30" fill-opacity="0.15" r="1.1077984683358406" stroke="none" /><polygon fill="#ccccbe" points="267,80 281,80 252,130" stroke="none" /><polygon fill="#ccccbe" points="281,80 272,130 252,130" stroke="none" /><polygon fill="#e0e0d4" points="281,80 292,80 272,130" stroke="none" /><polygon fill="#e0e0d4" points="292,80 282,130 272,130" stroke="none" /><polygon fill="#e0e0d4" points="292,80 307,80 282,130" stroke="none" /><polygon fill="#f0f0e8" points="307,80 294,130 282,130" stroke="none" /><polygon fill="#e0e0d4" points="307,80 320,80 294,130" stroke="none" /><polygon fill="#e0e0d4" points="320,80 315,130 294,130" stroke="none" /><polygon fill="#ccccbe" points="252,130 272,130 250,185" stroke="none" /><polygon fill="#ccccbe" points="272,130 264,185 250,185" stroke="none" /><polygon fill="#e0e0d4" points="272,130 282,130 264,185" stroke="none" /><polygon fill="#e0e0d4" points="282,130 278,185 264,185" stroke="none" /><polygon fill="#e0e0d4" points="282,130 294,130 278,185" stroke="none" /><polygon fill="#e0e0d4" points="294,130 293,185 278,185" stroke="none" /><polygon fill="#e0e0d4" points="294,130 315,130 293,185" stroke="none" /><polygon fill="#e0e0d4" points="315,130 304,185 293,185" stroke="none" /><polygon fill="#d4ac30" points="250,185 264,185 260,248" stroke="none" /><polygon fill="#d4ac30" points="264,185 271,248 260,248" stroke="none" /><polygon fill="#f5d040" points="264,185 278,185 271,248" stroke="none" /><polygon fill="#f5d040" points="278,185 280,248 271,248" stroke="none" /><polygon fill="#fde26e" points="278,185 293,185 280,248" stroke="none" /><polygon fill="#fde26e" points="293,185 286,248 280,248" stroke="none" /><polygon fill="#f5d040" points="293,185 304,185 286,248" stroke="none" /><polygon fill="#f5d040" points="304,185 295,248 286,248" stroke="none" /><polygon fill="#d4ac30" points="260,248 271,248 263,318" stroke="none" /><polygon fill="#d4ac30" points="271,248 271,318 263,318" stroke="none" /><polygon fill="#d4ac30" points="271,248 280,248 271,318" stroke="none" /><polygon fill="#d4ac30" points="280,248 283,318 271,318" stroke="none" /><polygon fill="#f5d040" points="280,248 286,248 283,318" stroke="none" /><polygon fill="#f5d040" points="286,248 292,318 283,318" stroke="none" /><polygon fill="#d4ac30" points="286,248 295,248 292,318" stroke="none" /><polygon fill="#d4ac30" points="295,248 302,318 292,318" stroke="none" /><polygon fill="#b89824" points="263,318 271,318 276,430" stroke="none" /><polygon fill="#b89824" points="271,318 283,430 276,430" stroke="none" /><polygon fill="#d4ac30" points="271,318 283,318 283,430" stroke="none" /><polygon fill="#d4ac30" points="283,318 294,430 283,430" stroke="none" /><polygon fill="#b89824" points="283,318 292,318 294,430" stroke="none" /><polygon fill="#b89824" points="292,318 303,430 294,430" stroke="none" /><polygon fill="#d4ac30" points="292,318 302,318 303,430" stroke="none" /><polygon fill="#d4ac30" points="302,318 309,430 303,430" stroke="none" /><line stroke="#b0b0a0" stroke-width="2.5" x1="265" x2="321" y1="192" y2="192" /><line stroke="#b0b0a0" stroke-width="3" x1="263" x2="323" y1="86" y2="86" /><circle cx="280" cy="327" fill="#d4ac30" fill-opacity="0.15" r="0.5857477689150402" stroke="none" /><circle cx="309" cy="336" fill="#d4ac30" fill-opacity="0.15" r="0.5792458082896652" stroke="none" /><circle cx="302" cy="347" fill="#d4ac30" fill-opacity="0.15" r="0.7296039487997084" stroke="none" /><circle cx="295" cy="379" fill="#d4ac30" fill-opacity="0.15" r="1.2183773466331926" stroke="none" /><circle cx="310" cy="328" fill="#d4ac30" fill-opacity="0.15" r="1.3832942488163522" stroke="none" /><circle cx="315" cy="360" fill="#d4ac30" fill-opacity="0.15" r="0.862865631608023" stroke="none" /><circle cx="307" cy="252" fill="#d4ac30" fill-opacity="0.15" r="1.2895807229134117" stroke="none" /><circle cx="270" cy="398" fill="#d4ac30" fill-opacity="0.15" r="0.8524976208844556" stroke="none" /><circle cx="281" cy="323" fill="#d4ac30" fill-opacity="0.15" r="0.8589706580354335" stroke="none" /><path d="M 213 237 Q 225 243 225 255" fill="none" stroke="#8a6840" stroke-width="1.5" /><path d="M 287 237 Q 299 243 299 255" fill="none" stroke="#8a6840" stroke-width="1.5" /></svg>