<?xml version="1.0" encoding="utf-8" ?>
<svg baseProfile="full" height="512" version="1.1" width="512" xmlns="http://www.w3.org/2000/svg" xmlns:ev="http://www.w3.org/2001/xml-events" xmlns:xlink="http://www.w3.org/1999/xlink"><defs /><polygon fill="#ccccbe" points="207,80 219,80 196,130" stroke="none" /><polygon fill="#ccccbe" points="219,80 210,130 196,130" stroke="none" /><polygon fill="#e0e0d4" points="219,80 231,80 210,130" stroke="none" /><polygon fill="#e0e0d4" points="231,80 222,130 210,130" stroke="none" /><polygon fill="#e0e0d4" points="231,80 241,80 222,130" stroke="none" /><polygon fill="#f0f0e8" points="241,80 234,130 222,130" stroke="none" /><polygon fill="#e0e0d4" points="241,80 251,80 234,130" stroke="none" /><polygon fill="#e0e0d4" points="251,80 249,130 234,130" stroke="none" /><polygon fill="#ccccbe" points="196,130 210,130 195,185" stroke="none" /><polygon fill="#ccccbe" points="210,130 207,185 195,185" stroke="none" /><polygon fill="#e0e0d4" points="210,130 222,130 207,185" stroke="none" /><polygon fill="#e0e0d4" points="222,130 219,185 207,185" stroke="none" /><polygon fill="#e0e0d4" points="222,130 234,130 219,185" stroke="none" /><polygon fill="#e0e0d4" points="234,130 226,185 219,185" stroke="none" /><polygon fill="#e0e0d4" points="234,130 249,130 226,185" stroke="none" /><polygon fill="#e0e0d4" points="249,130 239,185 226,185" stroke="none" /><polygon fill="#d6ae34" points="195,185 207,185 203,248" stroke="none" /><polygon fill="#d6ae34" points="207,185 212,248 203,248" stroke="none" /><polygon fill="#f6d244" points="207,185 219,185 212,248" stroke="none" /><polygon fill="#f6d244" points="219,185 219,248 212,248" stroke="none" /><polygon fill="#fee46e" points="219,185 226,185 219,248" stroke="none" /><polygon fill="#fee46e" points="226,185 225,248 219,248" stroke="none" /><polygon fill="#f6d244" points="226,185 239,185 225,248" stroke="none" /><polygon fill="#f6d244" points="239,185 230,248 225,248" stroke="none" /><polygon fill="#d6ae34" points="203,248 212,248 202,318" stroke="none" /><polygon fill="#d6ae34" points="212,248 210,318 202,318" stroke="none" /><polygon fill="#d6ae34" points="212,248 219,248 210,318" stroke="none" /><polygon fill="#d6ae34" points="219,248 221,318 210,318" stroke="none" /><polygon fill="#f6d244" points="219,248 225,248 221,318" stroke="none" /><polygon fill="#f6d244" points="225,248 231,318 221,318" stroke="none" /><polygon fill="#d6ae34" points="225,248 230,248 231,318" stroke="none" /><polygon fill="#d6ae34" points="230,248 240,318 231,318" stroke="none" /><polygon fill="#ba9a28" points="202,318 210,318 216,430" stroke="none" /><polygon fill="#ba9a28" points="210,318 220,430 216,430" stroke="none" /><polygon fill="#d6ae34" points="210,318 221,318 220,430" stroke="none" /><polygon fill="#d6ae34" points="221,318 231,430 220,430" stroke="none" /><polygon fill="#ba9a28" points="221,318 231,318 231,430" stroke="none" /><polygon fill="#ba9a28" points="231,318 239,430 231,430" stroke="none" /><polygon fill="#d6ae34" points="231,318 240,318 239,430" stroke="none" /><polygon fill="#d6ae34" points="240,318 244,430 239,430" stroke="none" /><line stroke="#b0b0a0" stroke-width="2.5" x1="206" x2="254" y1="192" y2="192" /><line stroke="#b0b0a0" stroke-width="3" x1="204" x2="256" y1="86" y2="86" /><ellipse cx="237" cy="277" fill="white" fill-opacity="0.12" rx="3" ry="2" stroke="none" /><ellipse cx="221" cy="323" fill="white" fill-opacity="0.12" rx="3" ry="2" stroke="none" /><ellipse cx="223" cy="278" fill="white" fill-opacity="0.12" rx="3" ry="2" stroke="none" /><ellipse cx="234" cy="249" fill="white" fill-opacity="0.12" rx="3" ry="2" stroke="none" /><polygon fill="#ccccbe" points="259,80 272,80 267,130" stroke="none" /><polygon fill="#ccccbe" points="272,80 279,130 267,130" stroke="none" /><polygon fill="#e0e0d4" points="272,80 281,80 279,130" stroke="none" /><polygon fill="#e0e0d4" points="281,80 293,130 279,130" stroke="none" /><polygon fill="#e0e0d4" points="281,80 292,80 293,130" stroke="none" /><polygon fill="#f0f0e8" points="292,80 305,130 293,130" stroke="none" /><polygon fill="#e0e0d4" points="292,80 305,80 305,130" stroke="none" /><polygon fill="#e0e0d4" points="305,80 317,130 305,130" stroke="none" /><polygon fill="#ccccbe" points="267,130 279,130 276,185" stroke="none" /><polygon fill="#ccccbe" points="279,130 284,185 276,185" stroke="none" /><polygon fill="#e0e0d4" points="279,130 293,130 284,185" stroke="none" /><polygon fill="#e0e0d4" points="293,130 298,185 284,185" stroke="none" /><polygon fill="#e0e0d4" points="293,130 305,130 298,185" stroke="none" /><polygon fill="#e0e0d4" points="305,130 308,185 298,185" stroke="none" /><polygon fill="#e0e0d4" points="305,130 317,130 308,185" stroke="none" /><polygon fill="#e0e0d4" points="317,130 321,185 308,185" stroke="none" /><polygon fill="#d6ae34" points="276,185 284,185 280,248" stroke="none" /><polygon fill="#d6ae34" points="284,185 291,248 280,248" stroke="none" /><polygon fill="#f6d244" points="284,185 298,185 291,248" stroke="none" /><polygon fill="#f6d244" points="298,185 298,248 291,248" stroke="none" /><polygon fill="#fee46e" points="298,185 308,185 298,248" stroke="none" /><polygon fill="#fee46e" points="308,185 304,248 298,248" stroke="none" /><polygon fill="#f6d244" points="308,185 321,185 304,248" stroke="none" /><polygon fill="#f6d244" points="321,185 312,248 304,248" stroke="none" /><polygon fill="#d6ae34" points="280,248 291,248 274,318" stroke="none" /><polygon fill="#d6ae34" points="291,248 280,318 274,318" stroke="none" /><polygon fill="#d6ae34" points="291,248 298,248 280,318" stroke="none" /><polygon fill="#d6ae34" points="298,248 294,318 280,318" stroke="none" /><polygon fill="#f6d244" points="298,248 304,248 294,318" stroke="none" /><polygon fill="#f6d244" points="304,248 300,318 294,318" stroke="none" /><polygon fill="#d6ae34" points="304,248 312,248 300,318" stroke="none" /><polygon fill="#d6ae34" points="312,248 313,318 300,318" stroke="none" /><polygon fill="#ba9a28" points="274,318 280,318 267,430" stroke="none" /><polygon fill="#ba9a28" points="280,318 273,430 267,430" stroke="none" /><polygon fill="#d6ae34" points="280,318 294,318 273,430" stroke="none" /><polygon fill="#d6ae34" points="294,318 283,430 273,430" stroke="none" /><polygon fill="#ba9a28" points="294,318 300,318 283,430" stroke="none" /><polygon fill="#ba9a28" points="300,318 291,430 283,430" stroke="none" /><polygon fill="#d6ae34" points="300,318 313,318 291,430" stroke="none" /><polygon fill="#d6ae34" points="313,318 298,430 291,430" stroke="none" /><line stroke="#b0b0a0" stroke-width="2.5" x1="258" x2="306" y1="192" y2="192" /><line stroke="#b0b0a0" stroke-width="3" x1="256" x2="308" y1="86" y2="86" /><ellipse cx="278" cy="316" fill="white" fill-opacity="0.12" rx="3" ry="2" stroke="none" /><ellipse cx="273" cy="393" fill="white" fill-opacity="0.12" rx="3" ry="2" stroke="none" /><ellipse cx="277" cy="202" fill="white" fill-opacity="0.12" rx="3" ry="2" stroke="none" /><path d="M 224 237 Q 236 243 236 255" fill="none" stroke="#8a6840" stroke-width="1.5" /><path d="M 276 237 Q 288 243 288 255" fill="none" stroke="#8a6840" stroke-width="1.5" /></svg>