<?xml version="1.0" encoding="utf-8" ?>
<svg baseProfile="full" height="512" version="1.1" width="512" xmlns="http://www.w3.org/2000/svg" xmlns:ev="http://www.w3.org/2001/xml-events" xmlns:xlink="http://www.w3.org/1999/xlink"><defs /><polygon fill="#ccccbe" points="178,80 196,80 173,130" stroke="none" /><polygon fill="#ccccbe" points="196,80 199,130 173,130" stroke="none" /><polygon fill="#e0e0d4" points="196,80 219,80 199,130" stroke="none" /><polygon fill="#e0e0d4" points="219,80 216,130 199,130" stroke="none" /><polygon fill="#e0e0d4" points="219,80 238,80 216,130" stroke="none" /><polygon fill="#f0f0e8" points="238,80 237,130 216,130" stroke="none" /><polygon fill="#e0e0d4" points="238,80 260,80 237,130" stroke="none" /><polygon fill="#e0e0d4" points="260,80 263,130 237,130" stroke="none" /><polygon fill="#ccccbe" points="173,130 199,130 177,185" stroke="none" /><polygon fill="#ccccbe" points="199,130 196,185 177,185" stroke="none" /><polygon fill="#e0e0d4" points="199,130 216,130 196,185" stroke="none" /><polygon fill="#e0e0d4" points="216,130 216,185 196,185" stroke="none" /><polygon fill="#e0e0d4" points="216,130 237,130 216,185" stroke="none" /><polygon fill="#e0e0d4" points="237,130 240,185 216,185" stroke="none" /><polygon fill="#e0e0d4" points="237,130 263,130 240,185" stroke="none" /><polygon fill="#e0e0d4" points="263,130 261,185 240,185" stroke="none" /><polygon fill="#d2a41c" points="177,185 196,185 188,248" stroke="none" /><polygon fill="#d2a41c" points="196,185 206,248 188,248" stroke="none" /><polygon fill="#f4cc2c" points="196,185 216,185 206,248" stroke="none" /><polygon fill="#f4cc2c" points="216,185 220,248 206,248" stroke="none" /><polygon fill="#fce062" points="216,185 240,185 220,248" stroke="none" /><polygon fill="#fce062" points="240,185 232,248 220,248" stroke="none" /><polygon fill="#f4cc2c" points="240,185 261,185 232,248" stroke="none" /><polygon fill="#f4cc2c" points="261,185 246,248 232,248" stroke="none" /><polygon fill="#d2a41c" points="188,248 206,248 207,318" stroke="none" /><polygon fill="#d2a41c" points="206,248 211,318 207,318" stroke="none" /><polygon fill="#d2a41c" points="206,248 220,248 211,318" stroke="none" /><polygon fill="#d2a41c" points="220,248 218,318 211,318" stroke="none" /><polygon fill="#f4cc2c" points="220,248 232,248 218,318" stroke="none" /><polygon fill="#f4cc2c" points="232,248 226,318 218,318" stroke="none" /><polygon fill="#d2a41c" points="232,248 246,248 226,318" stroke="none" /><polygon fill="#d2a41c" points="246,248 233,318 226,318" stroke="none" /><polygon fill="#b69018" points="207,318 211,318 208,430" stroke="none" /><polygon fill="#b69018" points="211,318 211,430 208,430" stroke="none" /><polygon fill="#d2a41c" points="211,318 218,318 211,430" stroke="none" /><polygon fill="#d2a41c" points="218,318 217,430 211,430" stroke="none" /><polygon fill="#b69018" points="218,318 226,318 217,430" stroke="none" /><polygon fill="#b69018" points="226,318 223,430 217,430" stroke="none" /><polygon fill="#d2a41c" points="226,318 233,318 223,430" stroke="none" /><polygon fill="#d2a41c" points="233,318 228,430 223,430" stroke="none" /><line stroke="#b0b0a0" stroke-width="2.5" x1="175" x2="261" y1="192" y2="192" /><line stroke="#b0b0a0" stroke-width="3" x1="173" x2="263" y1="86" y2="86" /><circle cx="243" cy="389" fill="#d2a41c" fill-opacity="0.15" r="0.7160308593467517" stroke="none" /><circle cx="178" cy="214" fill="#d2a41c" fill-opacity="0.15" r="1.2444864149177104" stroke="none" /><circle cx="188" cy="399" fill="#d2a41c" fill-opacity="0.15" r="1.1642039080776456" stroke="none" /><circle cx="238" cy="239" fill="#d2a41c" fill-opacity="0.15" r="0.9646449039860949" stroke="none" /><circle cx="245" cy="388" fill="#d2a41c" fill-opacity="0.15" r="1.3646967657643927" stroke="none" /><circle cx="242" cy="417" fill="#d2a41c" fill-opacity="0.15" r="1.216311969879249" stroke="none" /><circle cx="243" cy="254" fill="#d2a41c" fill-opacity="0.15" r="0.5453107641434438" stroke="none" /><circle cx="246" cy="413" fill="#d2a41c" fill-opacity="0.15" r="1.1722145706248206" stroke="none" /><circle cx="221" cy="378" fill="#d2a41c" fill-opacity="0.15" r="0.6734357343527841" stroke="none" /><circle cx="201" cy="405" fill="#d2a41c" fill-opacity="0.15" r="0.5228136513571586" stroke="none" /><polygon fill="#ccccbe" points="254,80 273,80 249,130" stroke="none" /><polygon fill="#ccccbe" points="273,80 272,130 249,130" stroke="none" /><polygon fill="#e0e0d4" points="273,80 293,80 272,130" stroke="none" /><polygon fill="#e0e0d4" points="293,80 293,130 272,130" stroke="none" /><polygon fill="#e0e0d4" points="293,80 314,80 293,130" stroke="none" /><polygon fill="#f0f0e8" points="314,80 314,130 293,130" stroke="none" /><polygon fill="#e0e0d4" points="314,80 334,80 314,130" stroke="none" /><polygon fill="#e0e0d4" points="334,80 340,130 314,130" stroke="none" /><polygon fill="#ccccbe" points="249,130 272,130 254,185" stroke="none" /><polygon fill="#ccccbe" points="272,130 275,185 254,185" stroke="none" /><polygon fill="#e0e0d4" points="272,130 293,130 275,185" stroke="none" /><polygon fill="#e0e0d4" points="293,130 293,185 275,185" stroke="none" /><polygon fill="#e0e0d4" points="293,130 314,130 293,185" stroke="none" /><polygon fill="#e0e0d4" points="314,130 314,185 293,185" stroke="none" /><polygon fill="#e0e0d4" points="314,130 340,130 314,185" stroke="none" /><polygon fill="#e0e0d4" points="340,130 333,185 314,185" stroke="none" /><polygon fill="#d2a41c" points="254,185 275,185 264,248" stroke="none" /><polygon fill="#d2a41c" points="275,185 279,248 264,248" stroke="none" /><polygon fill="#f4cc2c" points="275,185 293,185 279,248" stroke="none" /><polygon fill="#f4cc2c" points="293,185 295,248 279,248" stroke="none" /><polygon fill="#fce062" points="293,185 314,185 295,248" stroke="none" /><polygon fill="#fce062" points="314,185 306,248 295,248" stroke="none" /><polygon fill="#f4cc2c" points="314,185 333,185 306,248" stroke="none" /><polygon fill="#f4cc2c" points="333,185 320,248 306,248" stroke="none" /><polygon fill="#d2a41c" points="264,248 279,248 280,318" stroke="none" /><polygon fill="#d2a41c" points="279,248 288,318 280,318" stroke="none" /><polygon fill="#d2a41c" points="279,248 295,248 288,318" stroke="none" /><polygon fill="#d2a41c" points="295,248 294,318 288,318" stroke="none" /><polygon fill="#f4cc2c" points="295,248 306,248 294,318" stroke="none" /><polygon fill="#f4cc2c" points="306,248 299,318 294,318" stroke="none" /><polygon fill="#d2a41c" points="306,248 320,248 299,318" stroke="none" /><polygon fill="#d2a41c" points="320,248 308,318 299,318" stroke="none" /><polygon fill="#b69018" points="280,318 288,318 285,430" stroke="none" /><polygon fill="#b69018" points="288,318 287,430 285,430" stroke="none" /><polygon fill="#d2a41c" points="288,318 294,318 287,430" stroke="none" /><polygon fill="#d2a41c" points="294,318 295,430 287,430" stroke="none" /><polygon fill="#b69018" points="294,318 299,318 295,430" stroke="none" /><polygon fill="#b69018" points="299,318 300,430 295,430" stroke="none" /><polygon fill="#d2a41c" points="299,318 308,318 300,430" stroke="none" /><polygon fill="#d2a41c" points="308,318 304,430 300,430" stroke="none" /><line stroke="#b0b0a0" stroke-width="2.5" x1="251" x2="337" y1="192" y2="192" /><line stroke="#b0b0a0" stroke-width="3" x1="249" x2="339" y1="86" y2="86" /><circle cx="328" cy="387" fill="#d2a41c" fill-opacity="0.15" r="0.7937311278328669" stroke="none" /><circle cx="314" cy="376" fill="#d2a41c" fill-opacity="0.15" r="1.1731202817093702" stroke="none" /><circle cx="300" cy="333" fill="#d2a41c" fill-opacity="0.15" r="0.6398175348046777" stroke="none" /><circle cx="299" cy="263" fill="#d2a41c" fill-opacity="0.15" r="1.2905110742039796" stroke="none" /><circle cx="265" cy="303" fill="#d2a41c" fill-opacity="0.15" r="1.3286949528143719" stroke="none" /><circle cx="265" cy="350" fill="#d2a41c" fill-opacity="0.15" r="1.013890920127078" stroke="none" /><circle cx="280" cy="245" fill="#d2a41c" fill-opacity="0.15" r="0.9436001714051114" stroke="none" /><circle cx="274" cy="364" fill="#d2a41c" fill-opacity="0.15" r="1.238608893114859" stroke="none" /><circle cx="273" cy="277" fill="#d2a41c" fill-opacity="0.15" r="0.7643042274736077" stroke="none" /><path d="M 181 82 Q 169 100 181 118" fill="none" stroke="#b0b0a0" stroke-width="1.5" /><path d="M 257 82 Q 245 100 257 118" fill="none" stroke="#b0b0a0" stroke-width="1.5" /></svg>