<?xml version="1.0" encoding="utf-8" ?>
<svg baseProfile="full" height="512" version="1.1" width="512" xmlns="http://www.w3.org/2000/svg" xmlns:ev="http://www.w3.org/2001/xml-events" xmlns:xlink="http://www.w3.org/1999/xlink"><defs /><polygon fill="#ccccbe" points="184,80 201,80 166,130" stroke="none" /><polygon fill="#ccccbe" points="201,80 187,130 166,130" stroke="none" /><polygon fill="#e0e0d4" points="201,80 218,80 187,130" stroke="none" /><polygon fill="#e0e0d4" points="218,80 203,130 187,130" stroke="none" /><polygon fill="#e0e0d4" points="218,80 235,80 203,130" stroke="none" /><polygon fill="#f0f0e8" points="235,80 221,130 203,130" stroke="none" /><polygon fill="#e0e0d4" points="235,80 255,80 221,130" stroke="none" /><polygon fill="#e0e0d4" points="255,80 242,130 221,130" stroke="none" /><polygon fill="#ccccbe" points="166,130 187,130 163,185" stroke="none" /><polygon fill="#ccccbe" points="187,130 180,185 163,185" stroke="none" /><polygon fill="#e0e0d4" points="187,130 203,130 180,185" stroke="none" /><polygon fill="#e0e0d4" points="203,130 199,185 180,185" stroke="none" /><polygon fill="#e0e0d4" points="203,130 221,130 199,185" stroke="none" /><polygon fill="#e0e0d4" points="221,130 214,185 199,185" stroke="none" /><polygon fill="#e0e0d4" points="221,130 242,130 214,185" stroke="none" /><polygon fill="#e0e0d4" points="242,130 235,185 214,185" stroke="none" /><polygon fill="#d2a41c" points="163,185 180,185 173,248" stroke="none" /><polygon fill="#d2a41c" points="180,185 188,248 173,248" stroke="none" /><polygon fill="#f4cc2c" points="180,185 199,185 188,248" stroke="none" /><polygon fill="#f4cc2c" points="199,185 200,248 188,248" stroke="none" /><polygon fill="#fce062" points="199,185 214,185 200,248" stroke="none" /><polygon fill="#fce062" points="214,185 212,248 200,248" stroke="none" /><polygon fill="#f4cc2c" points="214,185 235,185 212,248" stroke="none" /><polygon fill="#f4cc2c" points="235,185 221,248 212,248" stroke="none" /><polygon fill="#d2a41c" points="173,248 188,248 193,318" stroke="none" /><polygon fill="#d2a41c" points="188,248 198,318 193,318" stroke="none" /><polygon fill="#d2a41c" points="188,248 200,248 198,318" stroke="none" /><polygon fill="#d2a41c" points="200,248 205,318 198,318" stroke="none" /><polygon fill="#f4cc2c" points="200,248 212,248 205,318" stroke="none" /><polygon fill="#f4cc2c" points="212,248 209,318 205,318" stroke="none" /><polygon fill="#d2a41c" points="212,248 221,248 209,318" stroke="none" /><polygon fill="#d2a41c" points="221,248 215,318 209,318" stroke="none" /><polygon fill="#b69018" points="193,318 198,318 210,430" stroke="none" /><polygon fill="#b69018" points="198,318 214,430 210,430" stroke="none" /><polygon fill="#d2a41c" points="198,318 205,318 214,430" stroke="none" /><polygon fill="#d2a41c" points="205,318 220,430 214,430" stroke="none" /><polygon fill="#b69018" points="205,318 209,318 220,430" stroke="none" /><polygon fill="#b69018" points="209,318 224,430 220,430" stroke="none" /><polygon fill="#d2a41c" points="209,318 215,318 224,430" stroke="none" /><polygon fill="#d2a41c" points="215,318 226,430 224,430" stroke="none" /><line stroke="#b0b0a0" stroke-width="2.5" x1="182" x2="256" y1="192" y2="192" /><line stroke="#b0b0a0" stroke-width="3" x1="180" x2="258" y1="86" y2="86" /><ellipse cx="213" cy="299" fill="white" fill-opacity="0.12" rx="3" ry="2" stroke="none" /><ellipse cx="236" cy="350" fill="white" fill-opacity="0.12" rx="3" ry="2" stroke="none" /><ellipse cx="220" cy="224" fill="white" fill-opacity="0.12" rx="3" ry="2" stroke="none" /><ellipse cx="217" cy="398" fill="white" fill-opacity="0.12" rx="3" ry="2" stroke="none" /><ellipse cx="205" cy="293" fill="white" fill-opacity="0.12" rx="3" ry="2" stroke="none" /><polygon fill="#ccccbe" points="259,80 275,80 261,130" stroke="none" /><polygon fill="#ccccbe" points="275,80 278,130 261,130" stroke="none" /><polygon fill="#e0e0d4" points="275,80 292,80 278,130" stroke="none" /><polygon fill="#e0e0d4" points="292,80 296,130 278,130" stroke="none" /><polygon fill="#e0e0d4" points="292,80 310,80 296,130" stroke="none" /><polygon fill="#f0f0e8" points="310,80 316,130 296,130" stroke="none" /><polygon fill="#e0e0d4" points="310,80 329,80 316,130" stroke="none" /><polygon fill="#e0e0d4" points="329,80 337,130 316,130" stroke="none" /><polygon fill="#ccccbe" points="261,130 278,130 265,185" stroke="none" /><polygon fill="#ccccbe" points="278,130 281,185 265,185" stroke="none" /><polygon fill="#e0e0d4" points="278,130 296,130 281,185" stroke="none" /><polygon fill="#e0e0d4" points="296,130 298,185 281,185" stroke="none" /><polygon fill="#e0e0d4" points="296,130 316,130 298,185" stroke="none" /><polygon fill="#e0e0d4" points="316,130 316,185 298,185" stroke="none" /><polygon fill="#e0e0d4" points="316,130 337,130 316,185" stroke="none" /><polygon fill="#e0e0d4" points="337,130 335,185 316,185" stroke="none" /><polygon fill="#d2a41c" points="265,185 281,185 274,248" stroke="none" /><polygon fill="#d2a41c" points="281,185 287,248 274,248" stroke="none" /><polygon fill="#f4cc2c" points="281,185 298,185 287,248" stroke="none" /><polygon fill="#f4cc2c" points="298,185 299,248 287,248" stroke="none" /><polygon fill="#fce062" points="298,185 316,185 299,248" stroke="none" /><polygon fill="#fce062" points="316,185 312,248 299,248" stroke="none" /><polygon fill="#f4cc2c" points="316,185 335,185 312,248" stroke="none" /><polygon fill="#f4cc2c" points="335,185 324,248 312,248" stroke="none" /><polygon fill="#d2a41c" points="274,248 287,248 284,318" stroke="none" /><polygon fill="#d2a41c" points="287,248 290,318 284,318" stroke="none" /><polygon fill="#d2a41c" points="287,248 299,248 290,318" stroke="none" /><polygon fill="#d2a41c" points="299,248 297,318 290,318" stroke="none" /><polygon fill="#f4cc2c" points="299,248 312,248 297,318" stroke="none" /><polygon fill="#f4cc2c" points="312,248 303,318 297,318" stroke="none" /><polygon fill="#d2a41c" points="312,248 324,248 303,318" stroke="none" /><polygon fill="#d2a41c" points="324,248 310,318 303,318" stroke="none" /><polygon fill="#b69018" points="284,318 290,318 284,430" stroke="none" /><polygon fill="#b69018" points="290,318 287,430 284,430" stroke="none" /><polygon fill="#d2a41c" points="290,318 297,318 287,430" stroke="none" /><polygon fill="#d2a41c" points="297,318 292,430 287,430" stroke="none" /><polygon fill="#b69018" points="297,318 303,318 292,430" stroke="none" /><polygon fill="#b69018" points="303,318 300,430 292,430" stroke="none" /><polygon fill="#d2a41c" points="303,318 310,318 300,430" stroke="none" /><polygon fill="#d2a41c" points="310,318 302,430 300,430" stroke="none" /><line stroke="#b0b0a0" stroke-width="2.5" x1="256" x2="330" y1="192" y2="192" /><line stroke="#b0b0a0" stroke-width="3" x1="254" x2="332" y1="86" y2="86" /><ellipse cx="292" cy="215" fill="white" fill-opacity="0.12" rx="3" ry="2" stroke="none" /><ellipse cx="284" cy="222" fill="white" fill-opacity="0.12" rx="3" ry="2" stroke="none" /><ellipse cx="284" cy="369" fill="white" fill-opacity="0.12" rx="3" ry="2" stroke="none" /><ellipse cx="310" cy="418" fill="white" fill-opacity="0.12" rx="3" ry="2" stroke="none" /><ellipse cx="286" cy="346" fill="white" fill-opacity="0.12" rx="3" ry="2" stroke="none" /><path d="M 188 82 Q 176 100 188 118" fill="none" stroke="#b0b0a0" stroke-width="1.5" /><path d="M 262 82 Q 250 100 262 118" fill="none" stroke="#b0b0a0" stroke-width="1.5" /></svg>