<?xml version="1.0" encoding="utf-8" ?>
<svg baseProfile="full" height="512" version="1.1" width="512" xmlns="http://www.w3.org/2000/svg" xmlns:ev="http://www.w3.org/2001/xml-events" xmlns:xlink="http://www.w3.org/1999/xlink"><defs /><polygon fill="#ccccbe" points="182,80 198,80 175,130" stroke="none" /><polygon fill="#ccccbe" points="198,80 195,130 175,130" stroke="none" /><polygon fill="#e0e0d4" points="198,80 215,80 195,130" stroke="none" /><polygon fill="#e0e0d4" points="215,80 210,130 195,130" stroke="none" /><polygon fill="#e0e0d4" points="215,80 231,80 210,130" stroke="none" /><polygon fill="#f0f0e8" points="231,80 224,130 210,130" stroke="none" /><polygon fill="#e0e0d4" points="231,80 246,80 224,130" stroke="none" /><polygon fill="#e0e0d4" points="246,80 246,130 224,130" stroke="none" /><polygon fill="#ccccbe" points="175,130 195,130 174,185" stroke="none" /><polygon fill="#ccccbe" points="195,130 193,185 174,185" stroke="none" /><polygon fill="#e0e0d4" points="195,130 210,130 193,185" stroke="none" /><polygon fill="#e0e0d4" points="210,130 207,185 193,185" stroke="none" /><polygon fill="#e0e0d4" points="210,130 224,130 207,185" stroke="none" /><polygon fill="#e0e0d4" points="224,130 221,185 207,185" stroke="none" /><polygon fill="#e0e0d4" points="224,130 246,130 221,185" stroke="none" /><polygon fill="#e0e0d4" points="246,130 239,185 221,185" stroke="none" /><polygon fill="#d4a41e" points="174,185 193,185 183,248" stroke="none" /><polygon fill="#d4a41e" points="193,185 198,248 183,248" stroke="none" /><polygon fill="#f5ce2e" points="193,185 207,185 198,248" stroke="none" /><polygon fill="#f5ce2e" points="207,185 206,248 198,248" stroke="none" /><polygon fill="#fde064" points="207,185 221,185 206,248" stroke="none" /><polygon fill="#fde064" points="221,185 217,248 206,248" stroke="none" /><polygon fill="#f5ce2e" points="221,185 239,185 217,248" stroke="none" /><polygon fill="#f5ce2e" points="239,185 227,248 217,248" stroke="none" /><polygon fill="#d4a41e" points="183,248 198,248 184,318" stroke="none" /><polygon fill="#d4a41e" points="198,248 198,318 184,318" stroke="none" /><polygon fill="#d4a41e" points="198,248 206,248 198,318" stroke="none" /><polygon fill="#d4a41e" points="206,248 211,318 198,318" stroke="none" /><polygon fill="#f5ce2e" points="206,248 217,248 211,318" stroke="none" /><polygon fill="#f5ce2e" points="217,248 221,318 211,318" stroke="none" /><polygon fill="#d4a41e" points="217,248 227,248 221,318" stroke="none" /><polygon fill="#d4a41e" points="227,248 234,318 221,318" stroke="none" /><polygon fill="#b89218" points="184,318 198,318 195,430" stroke="none" /><polygon fill="#b89218" points="198,318 204,430 195,430" stroke="none" /><polygon fill="#d4a41e" points="198,318 211,318 204,430" stroke="none" /><polygon fill="#d4a41e" points="211,318 215,430 204,430" stroke="none" /><polygon fill="#b89218" points="211,318 221,318 215,430" stroke="none" /><polygon fill="#b89218" points="221,318 227,430 215,430" stroke="none" /><polygon fill="#d4a41e" points="221,318 234,318 227,430" stroke="none" /><polygon fill="#d4a41e" points="234,318 234,430 227,430" stroke="none" /><line stroke="#b0b0a0" stroke-width="2.5" x1="181" x2="249" y1="192" y2="192" /><line stroke="#b0b0a0" stroke-width="3" x1="179" x2="251" y1="86" y2="86" /><ellipse cx="209" cy="231" fill="white" fill-opacity="0.12" rx="3" ry="2" stroke="none" /><ellipse cx="215" cy="369" fill="white" fill-opacity="0.12" rx="3" ry="2" stroke="none" /><ellipse cx="228" cy="320" fill="white" fill-opacity="0.12" rx="3" ry="2" stroke="none" /><ellipse cx="227" cy="384" fill="white" fill-opacity="0.12" rx="3" ry="2" stroke="none" /><polygon fill="#ccccbe" points="264,80 281,80 268,130" stroke="none" /><polygon fill="#ccccbe" points="281,80 288,130 268,130" stroke="none" /><polygon fill="#e0e0d4" points="281,80 297,80 288,130" stroke="none" /><polygon fill="#e0e0d4" points="297,80 305,130 288,130" stroke="none" /><polygon fill="#e0e0d4" points="297,80 313,80 305,130" stroke="none" /><polygon fill="#f0f0e8" points="313,80 321,130 305,130" stroke="none" /><polygon fill="#e0e0d4" points="313,80 330,80 321,130" stroke="none" /><polygon fill="#e0e0d4" points="330,80 342,130 321,130" stroke="none" /><polygon fill="#ccccbe" points="268,130 288,130 281,185" stroke="none" /><polygon fill="#ccccbe" points="288,130 294,185 281,185" stroke="none" /><polygon fill="#e0e0d4" points="288,130 305,130 294,185" stroke="none" /><polygon fill="#e0e0d4" points="305,130 310,185 294,185" stroke="none" /><polygon fill="#e0e0d4" points="305,130 321,130 310,185" stroke="none" /><polygon fill="#e0e0d4" points="321,130 326,185 310,185" stroke="none" /><polygon fill="#e0e0d4" points="321,130 342,130 326,185" stroke="none" /><polygon fill="#e0e0d4" points="342,130 341,185 326,185" stroke="none" /><polygon fill="#d4a41e" points="281,185 294,185 290,248" stroke="none" /><polygon fill="#d4a41e" points="294,185 302,248 290,248" stroke="none" /><polygon fill="#f5ce2e" points="294,185 310,185 302,248" stroke="none" /><polygon fill="#f5ce2e" points="310,185 309,248 302,248" stroke="none" /><polygon fill="#fde064" points="310,185 326,185 309,248" stroke="none" /><polygon fill="#fde064" points="326,185 320,248 309,248" stroke="none" /><polygon fill="#f5ce2e" points="326,185 341,185 320,248" stroke="none" /><polygon fill="#f5ce2e" points="341,185 331,248 320,248" stroke="none" /><polygon fill="#d4a41e" points="290,248 302,248 281,318" stroke="none" /><polygon fill="#d4a41e" points="302,248 296,318 281,318" stroke="none" /><polygon fill="#d4a41e" points="302,248 309,248 296,318" stroke="none" /><polygon fill="#d4a41e" points="309,248 308,318 296,318" stroke="none" /><polygon fill="#f5ce2e" points="309,248 320,248 308,318" stroke="none" /><polygon fill="#f5ce2e" points="320,248 320,318 308,318" stroke="none" /><polygon fill="#d4a41e" points="320,248 331,248 320,318" stroke="none" /><polygon fill="#d4a41e" points="331,248 329,318 320,318" stroke="none" /><polygon fill="#b89218" points="281,318 296,318 278,430" stroke="none" /><polygon fill="#b89218" points="296,318 284,430 278,430" stroke="none" /><polygon fill="#d4a41e" points="296,318 308,318 284,430" stroke="none" /><polygon fill="#d4a41e" points="308,318 296,430 284,430" stroke="none" /><polygon fill="#b89218" points="308,318 320,318 296,430" stroke="none" /><polygon fill="#b89218" points="320,318 308,430 296,430" stroke="none" /><polygon fill="#d4a41e" points="320,318 329,318 308,430" stroke="none" /><polygon fill="#d4a41e" points="329,318 317,430 308,430" stroke="none" /><line stroke="#b0b0a0" stroke-width="2.5" x1="263" x2="331" y1="192" y2="192" /><line stroke="#b0b0a0" stroke-width="3" x1="261" x2="333" y1="86" y2="86" /><ellipse cx="303" cy="229" fill="white" fill-opacity="0.12" rx="3" ry="2" stroke="none" /><ellipse cx="281" cy="327" fill="white" fill-opacity="0.12" rx="3" ry="2" stroke="none" /><path d="M 209 237 Q 221 243 221 255" fill="none" stroke="#8a6840" stroke-width="1.5" /><path d="M 291 237 Q 303 243 303 255" fill="none" stroke="#8a6840" stroke-width="1.5" /></svg>