<?xml version="1.0" encoding="utf-8" ?>
<svg baseProfile="full" height="512" version="1.1" width="512" xmlns="http://www.w3.org/2000/svg" xmlns:ev="http://www.w3.org/2001/xml-events" xmlns:xlink="http://www.w3.org/1999/xlink"><defs /><polygon fill="#ccccbe" points="214,80 224,80 208,130" stroke="none" /><polygon fill="#ccccbe" points="224,80 223,130 208,130" stroke="none" /><polygon fill="#e0e0d4" points="224,80 232,80 223,130" stroke="none" /><polygon fill="#e0e0d4" points="232,80 235,130 223,130" stroke="none" /><polygon fill="#e0e0d4" points="232,80 243,80 235,130" stroke="none" /><polygon fill="#f0f0e8" points="243,80 244,130 235,130" stroke="none" /><polygon fill="#e0e0d4" points="243,80 252,80 244,130" stroke="none" /><polygon fill="#e0e0d4" points="252,80 257,130 244,130" stroke="none" /><polygon fill="#ccccbe" points="208,130 223,130 214,185" stroke="none" /><polygon fill="#ccccbe" points="223,130 221,185 214,185" stroke="none" /><polygon fill="#e0e0d4" points="223,130 235,130 221,185" stroke="none" /><polygon fill="#e0e0d4" points="235,130 231,185 221,185" stroke="none" /><polygon fill="#e0e0d4" points="235,130 244,130 231,185" stroke="none" /><polygon fill="#e0e0d4" points="244,130 243,185 231,185" stroke="none" /><polygon fill="#e0e0d4" points="244,130 257,130 243,185" stroke="none" /><polygon fill="#e0e0d4" points="257,130 254,185 243,185" stroke="none" /><polygon fill="#d2a41c" points="214,185 221,185 221,248" stroke="none" /><polygon fill="#d2a41c" points="221,185 225,248 221,248" stroke="none" /><polygon fill="#f4cc2c" points="221,185 231,185 225,248" stroke="none" /><polygon fill="#f4cc2c" points="231,185 231,248 225,248" stroke="none" /><polygon fill="#fce062" points="231,185 243,185 231,248" stroke="none" /><polygon fill="#fce062" points="243,185 240,248 231,248" stroke="none" /><polygon fill="#f4cc2c" points="243,185 254,185 240,248" stroke="none" /><polygon fill="#f4cc2c" points="254,185 247,248 240,248" stroke="none" /><polygon fill="#d2a41c" points="221,248 225,248 218,318" stroke="none" /><polygon fill="#d2a41c" points="225,248 226,318 218,318" stroke="none" /><polygon fill="#d2a41c" points="225,248 231,248 226,318" stroke="none" /><polygon fill="#d2a41c" points="231,248 234,318 226,318" stroke="none" /><polygon fill="#f4cc2c" points="231,248 240,248 234,318" stroke="none" /><polygon fill="#f4cc2c" points="240,248 240,318 234,318" stroke="none" /><polygon fill="#d2a41c" points="240,248 247,248 240,318" stroke="none" /><polygon fill="#d2a41c" points="247,248 251,318 240,318" stroke="none" /><polygon fill="#b69018" points="218,318 226,318 220,430" stroke="none" /><polygon fill="#b69018" points="226,318 225,430 220,430" stroke="none" /><polygon fill="#d2a41c" points="226,318 234,318 225,430" stroke="none" /><polygon fill="#d2a41c" points="234,318 232,430 225,430" stroke="none" /><polygon fill="#b69018" points="234,318 240,318 232,430" stroke="none" /><polygon fill="#b69018" points="240,318 240,430 232,430" stroke="none" /><polygon fill="#d2a41c" points="240,318 251,318 240,430" stroke="none" /><polygon fill="#d2a41c" points="251,318 244,430 240,430" stroke="none" /><line stroke="#b0b0a0" stroke-width="2.5" x1="212" x2="254" y1="192" y2="192" /><line stroke="#b0b0a0" stroke-width="3" x1="210" x2="256" y1="86" y2="86" /><path d="M 226 345 Q 228 343 230 345" fill="none" stroke="#d4c0a0" stroke-opacity="0.3" stroke-width="1" /><path d="M 239 397 Q 243 393 247 397" fill="none" stroke="#d4c0a0" stroke-opacity="0.3" stroke-width="1" /><path d="M 237 383 Q 240 380 243 383" fill="none" stroke="#d4c0a0" stroke-opacity="0.3" stroke-width="1" /><path d="M 244 322 Q 247 319 250 322" fill="none" stroke="#d4c0a0" stroke-opacity="0.3" stroke-width="1" /><polygon fill="#ccccbe" points="260,80 268,80 256,130" stroke="none" /><polygon fill="#ccccbe" points="268,80 271,130 256,130" stroke="none" /><polygon fill="#e0e0d4" points="268,80 280,80 271,130" stroke="none" /><polygon fill="#e0e0d4" points="280,80 279,130 271,130" stroke="none" /><polygon fill="#e0e0d4" points="280,80 289,80 279,130" stroke="none" /><polygon fill="#f0f0e8" points="289,80 289,130 279,130" stroke="none" /><polygon fill="#e0e0d4" points="289,80 297,80 289,130" stroke="none" /><polygon fill="#e0e0d4" points="297,80 302,130 289,130" stroke="none" /><polygon fill="#ccccbe" points="256,130 271,130 260,185" stroke="none" /><polygon fill="#ccccbe" points="271,130 267,185 260,185" stroke="none" /><polygon fill="#e0e0d4" points="271,130 279,130 267,185" stroke="none" /><polygon fill="#e0e0d4" points="279,130 279,185 267,185" stroke="none" /><polygon fill="#e0e0d4" points="279,130 289,130 279,185" stroke="none" /><polygon fill="#e0e0d4" points="289,130 289,185 279,185" stroke="none" /><polygon fill="#e0e0d4" points="289,130 302,130 289,185" stroke="none" /><polygon fill="#e0e0d4" points="302,130 298,185 289,185" stroke="none" /><polygon fill="#d2a41c" points="260,185 267,185 264,248" stroke="none" /><polygon fill="#d2a41c" points="267,185 273,248 264,248" stroke="none" /><polygon fill="#f4cc2c" points="267,185 279,185 273,248" stroke="none" /><polygon fill="#f4cc2c" points="279,185 279,248 273,248" stroke="none" /><polygon fill="#fce062" points="279,185 289,185 279,248" stroke="none" /><polygon fill="#fce062" points="289,185 287,248 279,248" stroke="none" /><polygon fill="#f4cc2c" points="289,185 298,185 287,248" stroke="none" /><polygon fill="#f4cc2c" points="298,185 294,248 287,248" stroke="none" /><polygon fill="#d2a41c" points="264,248 273,248 264,318" stroke="none" /><polygon fill="#d2a41c" points="273,248 271,318 264,318" stroke="none" /><polygon fill="#d2a41c" points="273,248 279,248 271,318" stroke="none" /><polygon fill="#d2a41c" points="279,248 280,318 271,318" stroke="none" /><polygon fill="#f4cc2c" points="279,248 287,248 280,318" stroke="none" /><polygon fill="#f4cc2c" points="287,248 285,318 280,318" stroke="none" /><polygon fill="#d2a41c" points="287,248 294,248 285,318" stroke="none" /><polygon fill="#d2a41c" points="294,248 294,318 285,318" stroke="none" /><polygon fill="#b69018" points="264,318 271,318 267,430" stroke="none" /><polygon fill="#b69018" points="271,318 272,430 267,430" stroke="none" /><polygon fill="#d2a41c" points="271,318 280,318 272,430" stroke="none" /><polygon fill="#d2a41c" points="280,318 278,430 272,430" stroke="none" /><polygon fill="#b69018" points="280,318 285,318 278,430" stroke="none" /><polygon fill="#b69018" points="285,318 286,430 278,430" stroke="none" /><polygon fill="#d2a41c" points="285,318 294,318 286,430" stroke="none" /><polygon fill="#d2a41c" points="294,318 291,430 286,430" stroke="none" /><line stroke="#b0b0a0" stroke-width="2.5" x1="258" x2="300" y1="192" y2="192" /><line stroke="#b0b0a0" stroke-width="3" x1="256" x2="302" y1="86" y2="86" /><path d="M 271 258 Q 275 254 279 258" fill="none" stroke="#d4c0a0" stroke-opacity="0.3" stroke-width="1" /><path d="M 277 268 Q 281 264 285 268" fill="none" stroke="#d4c0a0" stroke-opacity="0.3" stroke-width="1" /><path d="M 227 237 Q 239 243 239 255" fill="none" stroke="#8a6840" stroke-width="1.5" /><path d="M 273 237 Q 285 243 285 255" fill="none" stroke="#8a6840" stroke-width="1.5" /></svg>