<?xml version="1.0" encoding="utf-8" ?>
<svg baseProfile="full" height="682" version="1.1" viewBox="0 0 512 682" width="512" xmlns="http://www.w3.org/2000/svg" xmlns:ev="http://www.w3.org/2001/xml-events" xmlns:xlink="http://www.w3.org/1999/xlink"><defs /><rect fill="#e8b789" height="58" rx="12" stroke="#74675d" stroke-linecap="round" stroke-linejoin="round" stroke-width="2" width="38" x="234.0" y="193" /><ellipse cx="191" cy="96" fill="#6d2726" rx="21" ry="20" stroke="#2f2925" stroke-linecap="round" stroke-linejoin="round" stroke-width="2" /><ellipse cx="203" cy="92" fill="#6d2726" rx="21" ry="20" stroke="#2f2925" stroke-linecap="round" stroke-linejoin="round" stroke-width="2" /><ellipse cx="215" cy="88" fill="#6d2726" rx="21" ry="20" stroke="#2f2925" stroke-linecap="round" stroke-linejoin="round" stroke-width="2" /><ellipse cx="227" cy="84" fill="#6d2726" rx="21" ry="20" stroke="#2f2925" stroke-linecap="round" stroke-linejoin="round" stroke-width="2" /><ellipse cx="239" cy="80" fill="#6d2726" rx="21" ry="20" stroke="#2f2925" stroke-linecap="round" stroke-linejoin="round" stroke-width="2" /><ellipse cx="251" cy="76" fill="#6d2726" rx="21" ry="20" stroke="#2f2925" stroke-linecap="round" stroke-linejoin="round" stroke-width="2" /><ellipse cx="263" cy="80" fill="#6d2726" rx="21" ry="20" stroke="#2f2925" stroke-linecap="round" stroke-linejoin="round" stroke-width="2" /><ellipse cx="275" cy="84" fill="#6d2726" rx="21" ry="20" stroke="#2f2925" stroke-linecap="round" stroke-linejoin="round" stroke-width="2" /><ellipse cx="287" cy="88" fill="#6d2726" rx="21" ry="20" stroke="#2f2925" stroke-linecap="round" stroke-linejoin="round" stroke-width="2" /><ellipse cx="299" cy="92" fill="#6d2726" rx="21" ry="20" stroke="#2f2925" stroke-linecap="round" stroke-linejoin="round" stroke-width="2" /><ellipse cx="311" cy="96" fill="#6d2726" rx="21" ry="20" stroke="#2f2925" stroke-linecap="round" stroke-linejoin="round" stroke-width="2" /><circle cx="188.5" cy="117" fill="#6d2726" r="15" stroke="#2f2925" stroke-linecap="round" stroke-linejoin="round" stroke-width="2" /><circle cx="184.5" cy="140" fill="#6d2726" r="15" stroke="#2f2925" stroke-linecap="round" stroke-linejoin="round" stroke-width="2" /><circle cx="180.5" cy="163" fill="#6d2726" r="15" stroke="#2f2925" stroke-linecap="round" stroke-linejoin="round" stroke-width="2" /><circle cx="176.5" cy="186" fill="#6d2726" r="15" stroke="#2f2925" stroke-linecap="round" stroke-linejoin="round" stroke-width="2" /><circle cx="317.5" cy="117" fill="#6d2726" r="15" stroke="#2f2925" stroke-linecap="round" stroke-linejoin="round" stroke-width="2" /><circle cx="321.5" cy="140" fill="#6d2726" r="15" stroke="#2f2925" stroke-linecap="round" stroke-linejoin="round" stroke-width="2" /><circle cx="325.5" cy="163" fill="#6d2726" r="15" stroke="#2f2925" stroke-linecap="round" stroke-linejoin="round" stroke-width="2" /><circle cx="329.5" cy="186" fill="#6d2726" r="15" stroke="#2f2925" stroke-linecap="round" stroke-linejoin="round" stroke-width="2" /><ellipse cx="253" cy="148.5" fill="#f0bf91" rx="56.5" ry="63.5" stroke="#2f2925" stroke-linecap="round" stroke-linejoin="round" stroke-width="3" /><ellipse cx="192.5" cy="147" fill="#f0bf91" rx="10" ry="15" stroke="#74675d" stroke-linecap="round" stroke-linejoin="round" stroke-width="2" /><ellipse cx="313.5" cy="147" fill="#f0bf91" rx="10" ry="15" stroke="#74675d" stroke-linecap="round" stroke-linejoin="round" stroke-width="2" /><ellipse cx="224" cy="151" fill="#fbf8ef" rx="16" ry="9" stroke="#2f2925" stroke-linecap="round" stroke-linejoin="round" stroke-width="2.2" /><circle cx="222" cy="152" fill="#3f633f" r="4.8" stroke="#2f2925" stroke-width="1.2" /><path d="M 242 133 Q 224 123 206 133" fill="none" stroke="#2f2925" stroke-linecap="round" stroke-linejoin="round" stroke-width="3" /><ellipse cx="282" cy="151" fill="#fbf8ef" rx="16" ry="9" stroke="#2f2925" stroke-linecap="round" stroke-linejoin="round" stroke-width="2.2" /><circle cx="284" cy="152" fill="#3f633f" r="4.8" stroke="#2f2925" stroke-width="1.2" /><path d="M 264 133 Q 282 123 300 133" fill="none" stroke="#2f2925" stroke-linecap="round" stroke-linejoin="round" stroke-width="3" /><path d="M 255 163 L 248 177 L 259 178" fill="none" stroke="#c49365" stroke-linecap="round" stroke-linejoin="round" stroke-width="2" /><path d="M 231 191 Q 253 212 276 191" fill="none" stroke="#8a443d" stroke-linecap="round" stroke-linejoin="round" stroke-width="3" /></svg>