<?xml version="1.0" encoding="utf-8" ?>
<svg baseProfile="full" height="682" version="1.1" viewBox="0 0 512 682" width="512" xmlns="http://www.w3.org/2000/svg" xmlns:ev="http://www.w3.org/2001/xml-events" xmlns:xlink="http://www.w3.org/1999/xlink"><defs /><rect fill="#e9b583" height="48" rx="12" stroke="#6f6258" stroke-linecap="round" stroke-linejoin="round" stroke-width="2" width="40" x="237" y="209" /><ellipse cx="257" cy="146.0" fill="#f1bd8b" rx="56.0" ry="69.0" stroke="#2f2925" stroke-linecap="round" stroke-linejoin="round" stroke-width="3" /><ellipse cx="197.0" cy="147" fill="#f1bd8b" rx="12" ry="16" stroke="#6f6258" stroke-linecap="round" stroke-linejoin="round" stroke-width="2" /><ellipse cx="317.0" cy="147" fill="#f1bd8b" rx="12" ry="16" stroke="#6f6258" stroke-linecap="round" stroke-linejoin="round" stroke-width="2" /><path d="M 181.0 109 Q 257 41 333.0 109 L 329.0 147 Q 257 107 185.0 147 Z" fill="#d89447" stroke="#2f2925" stroke-linecap="round" stroke-linejoin="round" stroke-width="3" /><path d="M 207.0 89 L 224.0 89 L 201.0 145 Z" fill="#d89447" stroke="#bc782b" stroke-linecap="round" stroke-linejoin="round" stroke-width="1.5" /><path d="M 228.0 89 L 245.0 89 L 251.0 151 Z" fill="#d89447" stroke="#bc782b" stroke-linecap="round" stroke-linejoin="round" stroke-width="1.5" /><path d="M 249.0 89 L 266.0 89 L 268.0 149 Z" fill="#d89447" stroke="#bc782b" stroke-linecap="round" stroke-linejoin="round" stroke-width="1.5" /><path d="M 270.0 89 L 287.0 89 L 273.0 144 Z" fill="#d89447" stroke="#bc782b" stroke-linecap="round" stroke-linejoin="round" stroke-width="1.5" /><path d="M 291.0 89 L 308.0 89 L 314.0 156 Z" fill="#d89447" stroke="#bc782b" stroke-linecap="round" stroke-linejoin="round" stroke-width="1.5" /><ellipse cx="229" cy="153" fill="#faf7ef" rx="17" ry="10" stroke="#2f2925" stroke-linecap="round" stroke-linejoin="round" stroke-width="2" /><circle cx="227" cy="154" fill="#3f5f7b" r="5" stroke="#2f2925" stroke-width="1.2" /><path d="M 247 139 Q 229 132 210 139" fill="none" stroke="#2f2925" stroke-linecap="round" stroke-width="3" /><ellipse cx="285" cy="153" fill="#faf7ef" rx="17" ry="10" stroke="#2f2925" stroke-linecap="round" stroke-linejoin="round" stroke-width="2" /><circle cx="287" cy="154" fill="#3f5f7b" r="5" stroke="#2f2925" stroke-width="1.2" /><path d="M 267 139 Q 285 132 304 139" fill="none" stroke="#2f2925" stroke-linecap="round" stroke-width="3" /><path d="M 257 165 L 253 184 L 261 184" fill="none" stroke="#c79361" stroke-linejoin="round" stroke-width="2" /><path d="M 239 199 Q 257 209 277 199" fill="none" stroke="#7a423c" stroke-linecap="round" stroke-width="2.4" /><ellipse cx="184.0" cy="185" fill="#c99a42" rx="5" ry="10" stroke="#2f2925" stroke-width="2" /><ellipse cx="330.0" cy="185" fill="#c99a42" rx="5" ry="10" stroke="#2f2925" stroke-width="2" /></svg>