<?xml version="1.0" encoding="utf-8" ?>
<svg baseProfile="full" height="682" version="1.1" viewBox="0 0 512 682" width="512" xmlns="http://www.w3.org/2000/svg" xmlns:ev="http://www.w3.org/2001/xml-events" xmlns:xlink="http://www.w3.org/1999/xlink"><defs /><rect fill="#e0a26b" height="48" rx="12" stroke="#6f6258" stroke-linecap="round" stroke-linejoin="round" stroke-width="2" width="40" x="238" y="204" /><ellipse cx="258" cy="145.0" fill="#e8aa73" rx="55.5" ry="65.0" stroke="#2f2925" stroke-linecap="round" stroke-linejoin="round" stroke-width="3" /><ellipse cx="198.5" cy="150" fill="#e8aa73" rx="12" ry="16" stroke="#6f6258" stroke-linecap="round" stroke-linejoin="round" stroke-width="2" /><ellipse cx="317.5" cy="150" fill="#e8aa73" rx="12" ry="16" stroke="#6f6258" stroke-linecap="round" stroke-linejoin="round" stroke-width="2" /><path d="M 186.5 108 Q 258 50 329.5 108 L 323.5 158 Q 258 130 192.5 158 Z" fill="#322721" stroke="#2f2925" stroke-linecap="round" stroke-linejoin="round" stroke-width="3" /><path d="M 208.5 92 L 225.5 92 L 215.5 146 Z" fill="#322721" stroke="#160b05" stroke-linecap="round" stroke-linejoin="round" stroke-width="1.5" /><path d="M 222.33333333333334 92 L 239.33333333333334 92 L 226.33333333333334 147 Z" fill="#322721" stroke="#160b05" stroke-linecap="round" stroke-linejoin="round" stroke-width="1.5" /><path d="M 236.16666666666666 92 L 253.16666666666666 92 L 238.16666666666666 154 Z" fill="#322721" stroke="#160b05" stroke-linecap="round" stroke-linejoin="round" stroke-width="1.5" /><path d="M 250.0 92 L 267.0 92 L 270.0 145 Z" fill="#322721" stroke="#160b05" stroke-linecap="round" stroke-linejoin="round" stroke-width="1.5" /><path d="M 263.8333333333333 92 L 280.8333333333333 92 L 270.8333333333333 158 Z" fill="#322721" stroke="#160b05" stroke-linecap="round" stroke-linejoin="round" stroke-width="1.5" /><path d="M 277.6666666666667 92 L 294.6666666666667 92 L 279.6666666666667 149 Z" fill="#322721" stroke="#160b05" stroke-linecap="round" stroke-linejoin="round" stroke-width="1.5" /><path d="M 291.5 92 L 308.5 92 L 312.5 150 Z" fill="#322721" stroke="#160b05" stroke-linecap="round" stroke-linejoin="round" stroke-width="1.5" /><ellipse cx="230" cy="156" fill="#faf7ef" rx="17" ry="10" stroke="#2f2925" stroke-linecap="round" stroke-linejoin="round" stroke-width="2" /><circle cx="228" cy="157" fill="#56406e" r="5" stroke="#2f2925" stroke-width="1.2" /><path d="M 248 142 Q 230 135 211 142" fill="none" stroke="#2f2925" stroke-linecap="round" stroke-width="3" /><ellipse cx="286" cy="156" fill="#faf7ef" rx="17" ry="10" stroke="#2f2925" stroke-linecap="round" stroke-linejoin="round" stroke-width="2" /><circle cx="288" cy="157" fill="#56406e" r="5" stroke="#2f2925" stroke-width="1.2" /><path d="M 268 142 Q 286 135 305 142" fill="none" stroke="#2f2925" stroke-linecap="round" stroke-width="3" /><path d="M 258 168 L 254 187 L 262 187" fill="none" stroke="#be8049" stroke-linejoin="round" stroke-width="2" /><path d="M 240 202 Q 258 212 278 202" fill="none" stroke="#7a423c" stroke-linecap="round" stroke-width="2.4" /></svg>