<?xml version="1.0" encoding="utf-8" ?>
<svg baseProfile="full" height="682" version="1.1" viewBox="0 0 512 682" width="512" xmlns="http://www.w3.org/2000/svg" xmlns:ev="http://www.w3.org/2001/xml-events" xmlns:xlink="http://www.w3.org/1999/xlink"><defs /><rect fill="#e8b789" height="58" rx="12" stroke="#74675d" stroke-linecap="round" stroke-linejoin="round" stroke-width="2" width="38" x="234.0" y="198" /><path d="M 182.0 107 Q 253 42 327.0 107 L 315.0 148 Q 253 112 189.0 148 Z" fill="#2d231f" stroke="#2f2925" stroke-linecap="round" stroke-linejoin="round" stroke-width="3" /><rect fill="#f0bf91" height="129" rx="18" stroke="#2f2925" stroke-linecap="round" stroke-linejoin="round" stroke-width="3" width="112" x="197.0" y="92" /><ellipse cx="193.0" cy="150" fill="#f0bf91" rx="10" ry="15" stroke="#74675d" stroke-linecap="round" stroke-linejoin="round" stroke-width="2" /><ellipse cx="313.0" cy="150" fill="#f0bf91" rx="10" ry="15" stroke="#74675d" stroke-linecap="round" stroke-linejoin="round" stroke-width="2" /><ellipse cx="224" cy="154" fill="#fbf8ef" rx="15" ry="7" stroke="#2f2925" stroke-linecap="round" stroke-linejoin="round" stroke-width="2.2" /><circle cx="222" cy="155" fill="#22262a" r="4.8" stroke="#2f2925" stroke-width="1.2" /><line stroke="#2f2925" stroke-linecap="round" stroke-width="6" x1="244" x2="205" y1="132" y2="139" /><ellipse cx="282" cy="154" fill="#fbf8ef" rx="15" ry="7" stroke="#2f2925" stroke-linecap="round" stroke-linejoin="round" stroke-width="2.2" /><circle cx="284" cy="155" fill="#22262a" r="4.8" stroke="#2f2925" stroke-width="1.2" /><line stroke="#2f2925" stroke-linecap="round" stroke-width="6" x1="262" x2="301" y1="132" y2="139" /><path d="M 255 166 L 248 180 L 259 181" fill="none" stroke="#c49365" stroke-linecap="round" stroke-linejoin="round" stroke-width="2" /><line stroke="#713d38" stroke-linecap="round" stroke-width="3" x1="235" x2="270" y1="199" y2="198" /><circle cx="229" cy="125" fill="#b95a58" opacity="0.82" r="3.2" /><circle cx="244" cy="119" fill="#b95a58" opacity="0.82" r="2.7" /><circle cx="264" cy="123" fill="#b95a58" opacity="0.82" r="3.4" /><circle cx="280" cy="130" fill="#b95a58" opacity="0.82" r="2.5" /><circle cx="185.0" cy="182" fill="#c99a42" r="5" stroke="#2f2925" stroke-width="1.5" /><circle cx="321.0" cy="182" fill="#c99a42" r="5" stroke="#2f2925" stroke-width="1.5" /></svg>