<?xml version="1.0" encoding="utf-8" ?>
<svg baseProfile="full" height="682" version="1.1" viewBox="0 0 512 682" width="512" xmlns="http://www.w3.org/2000/svg" xmlns:ev="http://www.w3.org/2001/xml-events" xmlns:xlink="http://www.w3.org/1999/xlink"><defs /><rect fill="#ecc8a3" height="58" rx="12" stroke="#74675d" stroke-linecap="round" stroke-linejoin="round" stroke-width="2" width="46" x="232.0" y="188" /><ellipse cx="255" cy="92" fill="#5a3828" rx="78.0" ry="47" stroke="#2f2925" stroke-linecap="round" stroke-linejoin="round" stroke-width="3" /><path d="M 260 56 Q 253 97 211 138" fill="none" stroke="#361404" stroke-linecap="round" stroke-linejoin="round" stroke-width="3" /><ellipse cx="255" cy="148.0" fill="#f4d0ab" rx="62.0" ry="59.0" stroke="#2f2925" stroke-linecap="round" stroke-linejoin="round" stroke-width="3" /><ellipse cx="189.0" cy="151" fill="#f4d0ab" rx="10" ry="15" stroke="#74675d" stroke-linecap="round" stroke-linejoin="round" stroke-width="2" /><ellipse cx="321.0" cy="151" fill="#f4d0ab" rx="10" ry="15" stroke="#74675d" stroke-linecap="round" stroke-linejoin="round" stroke-width="2" /><ellipse cx="226" cy="155" fill="#fbf8ef" rx="18" ry="12" stroke="#2f2925" stroke-linecap="round" stroke-linejoin="round" stroke-width="2.2" /><circle cx="224" cy="156" fill="#57406d" r="4.8" stroke="#2f2925" stroke-width="1.2" /><path d="M 244 137 Q 226 127 208 137" fill="none" stroke="#2f2925" stroke-linecap="round" stroke-linejoin="round" stroke-width="3" /><ellipse cx="284" cy="155" fill="#fbf8ef" rx="18" ry="12" stroke="#2f2925" stroke-linecap="round" stroke-linejoin="round" stroke-width="2.2" /><circle cx="286" cy="156" fill="#57406d" r="4.8" stroke="#2f2925" stroke-width="1.2" /><path d="M 266 137 Q 284 127 302 137" fill="none" stroke="#2f2925" stroke-linecap="round" stroke-linejoin="round" stroke-width="3" /><path d="M 257 167 L 250 181 L 261 182" fill="none" stroke="#c8a47f" stroke-linecap="round" stroke-linejoin="round" stroke-width="2" /><ellipse cx="255" cy="192" fill="#6c3734" rx="12" ry="16" stroke="#2f2925" stroke-width="2" /><line stroke="#d9e1e3" stroke-linecap="round" stroke-width="2.2" x1="237" x2="273" y1="192" y2="192" /><rect fill="#fbf8ef" height="5.2" rx="1" stroke="#74675d" stroke-width="0.8" width="4.4" x="240.8" y="189.4" /><rect fill="#fbf8ef" height="5.2" rx="1" stroke="#74675d" stroke-width="0.8" width="4.4" x="248.8" y="189.4" /><rect fill="#fbf8ef" height="5.2" rx="1" stroke="#74675d" stroke-width="0.8" width="4.4" x="256.8" y="189.4" /><rect fill="#fbf8ef" height="5.2" rx="1" stroke="#74675d" stroke-width="0.8" width="4.4" x="264.8" y="189.4" /></svg>