<?xml version="1.0" encoding="utf-8" ?>
<svg baseProfile="full" height="682" version="1.1" viewBox="0 0 512 682" width="512" xmlns="http://www.w3.org/2000/svg" xmlns:ev="http://www.w3.org/2001/xml-events" xmlns:xlink="http://www.w3.org/1999/xlink"><defs /><rect fill="#eed7bc" height="58" rx="12" stroke="#74675d" stroke-linecap="round" stroke-linejoin="round" stroke-width="2" width="38" x="235.0" y="220" /><rect fill="#e0d7c6" height="117.0" rx="34" stroke="#2f2925" stroke-linecap="round" stroke-linejoin="round" stroke-width="3" width="132" x="188.0" y="61" /><rect fill="#e0d7c6" height="40" rx="8" stroke="#e0d7c6" stroke-width="1" width="114" x="197.0" y="121" /><ellipse cx="254" cy="164.0" fill="#f6dfc4" rx="49.0" ry="75.0" stroke="#2f2925" stroke-linecap="round" stroke-linejoin="round" stroke-width="3" /><ellipse cx="201.0" cy="151" fill="#f6dfc4" rx="10" ry="15" stroke="#74675d" stroke-linecap="round" stroke-linejoin="round" stroke-width="2" /><ellipse cx="307.0" cy="151" fill="#f6dfc4" rx="10" ry="15" stroke="#74675d" stroke-linecap="round" stroke-linejoin="round" stroke-width="2" /><ellipse cx="225" cy="155" fill="#fbf8ef" rx="14" ry="6" stroke="#2f2925" stroke-linecap="round" stroke-linejoin="round" stroke-width="2.2" /><circle cx="223" cy="156" fill="#654630" r="4.8" stroke="#2f2925" stroke-width="1.2" /><line stroke="#2f2925" stroke-linecap="round" stroke-width="3" x1="207" x2="243" y1="138" y2="138" /><ellipse cx="283" cy="155" fill="#fbf8ef" rx="14" ry="6" stroke="#2f2925" stroke-linecap="round" stroke-linejoin="round" stroke-width="2.2" /><circle cx="285" cy="156" fill="#654630" r="4.8" stroke="#2f2925" stroke-width="1.2" /><line stroke="#2f2925" stroke-linecap="round" stroke-width="3" x1="265" x2="301" y1="138" y2="138" /><path d="M 256 167 L 249 186 L 260 187" fill="none" stroke="#cab398" stroke-linecap="round" stroke-linejoin="round" stroke-width="2" /><path d="M 239 221 Q 254 226 269 221" fill="none" stroke="#713d38" stroke-linecap="round" stroke-linejoin="round" stroke-width="2.6" /></svg>