<?xml version="1.0" encoding="utf-8" ?>
<svg baseProfile="full" height="682" version="1.1" viewBox="0 0 512 682" width="512" xmlns="http://www.w3.org/2000/svg" xmlns:ev="http://www.w3.org/2001/xml-events" xmlns:xlink="http://www.w3.org/1999/xlink"><defs /><rect fill="#edc9a4" height="48" rx="12" stroke="#6f6258" stroke-linecap="round" stroke-linejoin="round" stroke-width="2" width="40" x="239" y="201" /><ellipse cx="259" cy="141.5" fill="#f5d1ac" rx="57.0" ry="65.5" stroke="#2f2925" stroke-linecap="round" stroke-linejoin="round" stroke-width="3" /><ellipse cx="198.0" cy="146" fill="#f5d1ac" rx="12" ry="16" stroke="#6f6258" stroke-linecap="round" stroke-linejoin="round" stroke-width="2" /><ellipse cx="320.0" cy="146" fill="#f5d1ac" rx="12" ry="16" stroke="#6f6258" stroke-linecap="round" stroke-linejoin="round" stroke-width="2" /><ellipse cx="259" cy="92" fill="#322721" rx="73.0" ry="50" stroke="#2f2925" stroke-linecap="round" stroke-linejoin="round" stroke-width="3" /><path d="M 247 58 L 261 24 L 277 66 Z" fill="#322721" stroke="#2f2925" stroke-linecap="round" stroke-linejoin="round" stroke-width="2" /><path d="M 208.0 88 L 225.0 88 L 229.0 151 Z" fill="#322721" stroke="#160b05" stroke-linecap="round" stroke-linejoin="round" stroke-width="1.5" /><path d="M 229.5 88 L 246.5 88 L 243.5 146 Z" fill="#322721" stroke="#160b05" stroke-linecap="round" stroke-linejoin="round" stroke-width="1.5" /><path d="M 251.0 88 L 268.0 88 L 267.0 146 Z" fill="#322721" stroke="#160b05" stroke-linecap="round" stroke-linejoin="round" stroke-width="1.5" /><path d="M 272.5 88 L 289.5 88 L 292.5 147 Z" fill="#322721" stroke="#160b05" stroke-linecap="round" stroke-linejoin="round" stroke-width="1.5" /><path d="M 294.0 88 L 311.0 88 L 314.0 143 Z" fill="#322721" stroke="#160b05" stroke-linecap="round" stroke-linejoin="round" stroke-width="1.5" /><ellipse cx="231" cy="152" fill="#faf7ef" rx="17" ry="10" stroke="#2f2925" stroke-linecap="round" stroke-linejoin="round" stroke-width="2" /><circle cx="229" cy="153" fill="#56406e" r="5" stroke="#2f2925" stroke-width="1.2" /><path d="M 249 138 Q 231 131 212 138" fill="none" stroke="#2f2925" stroke-linecap="round" stroke-width="3" /><ellipse cx="287" cy="152" fill="#faf7ef" rx="17" ry="10" stroke="#2f2925" stroke-linecap="round" stroke-linejoin="round" stroke-width="2" /><circle cx="289" cy="153" fill="#56406e" r="5" stroke="#2f2925" stroke-width="1.2" /><path d="M 269 138 Q 287 131 306 138" fill="none" stroke="#2f2925" stroke-linecap="round" stroke-width="3" /><path d="M 259 164 L 255 183 L 263 183" fill="none" stroke="#cba782" stroke-linejoin="round" stroke-width="2" /><path d="M 241 198 Q 259 208 279 198" fill="none" stroke="#7a423c" stroke-linecap="round" stroke-width="2.4" /><ellipse cx="185.0" cy="184" fill="#c99a42" rx="5" ry="10" stroke="#2f2925" stroke-width="2" /><ellipse cx="333.0" cy="184" fill="#c99a42" rx="5" ry="10" stroke="#2f2925" stroke-width="2" /></svg>