<?xml version="1.0" encoding="utf-8" ?>
<svg baseProfile="full" height="682" version="1.1" viewBox="0 0 512 682" width="512" xmlns="http://www.w3.org/2000/svg" xmlns:ev="http://www.w3.org/2001/xml-events" xmlns:xlink="http://www.w3.org/1999/xlink"><defs /><rect fill="#bd7147" height="58" rx="12" stroke="#74675d" stroke-linecap="round" stroke-linejoin="round" stroke-width="2" width="38" x="236.0" y="201" /><rect fill="#8e4d2e" height="102.18" rx="34" stroke="#2f2925" stroke-linecap="round" stroke-linejoin="round" stroke-width="3" width="144" x="183.0" y="61" /><rect fill="#8e4d2e" height="40" rx="8" stroke="#8e4d2e" stroke-width="1" width="126" x="192.0" y="121" /><rect fill="#c5794f" height="131" rx="18" stroke="#2f2925" stroke-linecap="round" stroke-linejoin="round" stroke-width="3" width="110" x="200.0" y="93" /><ellipse cx="196.0" cy="151" fill="#c5794f" rx="10" ry="15" stroke="#74675d" stroke-linecap="round" stroke-linejoin="round" stroke-width="2" /><ellipse cx="314.0" cy="151" fill="#c5794f" rx="10" ry="15" stroke="#74675d" stroke-linecap="round" stroke-linejoin="round" stroke-width="2" /><ellipse cx="226" cy="155" fill="#fbf8ef" rx="14" ry="6" stroke="#2f2925" stroke-linecap="round" stroke-linejoin="round" stroke-width="2.2" /><circle cx="224" cy="156" fill="#3f633f" r="4.8" stroke="#2f2925" stroke-width="1.2" /><line stroke="#2f2925" stroke-linecap="round" stroke-width="3" x1="208" x2="244" y1="138" y2="138" /><ellipse cx="284" cy="155" fill="#fbf8ef" rx="14" ry="6" stroke="#2f2925" stroke-linecap="round" stroke-linejoin="round" stroke-width="2.2" /><circle cx="286" cy="156" fill="#3f633f" r="4.8" stroke="#2f2925" stroke-width="1.2" /><line stroke="#2f2925" stroke-linecap="round" stroke-width="3" x1="266" x2="302" y1="138" y2="138" /><path d="M 257 167 L 250 181 L 261 182" fill="none" stroke="#994d23" stroke-linecap="round" stroke-linejoin="round" stroke-width="2" /><path d="M 240 202 Q 255 207 270 202" fill="none" stroke="#713d38" stroke-linecap="round" stroke-linejoin="round" stroke-width="2.6" /><circle cx="282.5" cy="185" fill="#4d342c" r="3.2" stroke="#2f2925" stroke-width="0.8" /></svg>