<?xml version="1.0" encoding="utf-8" ?>
<svg baseProfile="full" height="682" version="1.1" viewBox="0 0 512 682" width="512" xmlns="http://www.w3.org/2000/svg" xmlns:ev="http://www.w3.org/2001/xml-events" xmlns:xlink="http://www.w3.org/1999/xlink"><defs /><rect fill="#df9e67" height="58" rx="12" stroke="#74675d" stroke-linecap="round" stroke-linejoin="round" stroke-width="2" width="38" x="239.0" y="218" /><ellipse cx="258" cy="91" fill="#5a3828" rx="66.5" ry="50" stroke="#2f2925" stroke-linecap="round" stroke-linejoin="round" stroke-width="3" /><path d="M 210 108 C 178 161, 184 223, 212 251" fill="none" stroke="#5a3828" stroke-linecap="round" stroke-width="20" /><path d="M 306 108 C 338 161, 332 223, 304 251" fill="none" stroke="#5a3828" stroke-linecap="round" stroke-width="20" /><ellipse cx="258" cy="163.0" fill="#e7a66f" rx="46.5" ry="74.0" stroke="#2f2925" stroke-linecap="round" stroke-linejoin="round" stroke-width="3" /><ellipse cx="207.5" cy="151" fill="#e7a66f" rx="10" ry="15" stroke="#74675d" stroke-linecap="round" stroke-linejoin="round" stroke-width="2" /><ellipse cx="308.5" cy="151" fill="#e7a66f" rx="10" ry="15" stroke="#74675d" stroke-linecap="round" stroke-linejoin="round" stroke-width="2" /><ellipse cx="229" cy="155" fill="#fbf8ef" rx="14" ry="8" stroke="#2f2925" stroke-linecap="round" stroke-linejoin="round" stroke-width="2.2" /><circle cx="227" cy="156" fill="#3f633f" r="4.8" stroke="#2f2925" stroke-width="1.2" /><line stroke="#2f2925" stroke-linecap="round" stroke-width="3.5" x1="247" x2="211" y1="136" y2="142" /><ellipse cx="287" cy="155" fill="#fbf8ef" rx="14" ry="8" stroke="#2f2925" stroke-linecap="round" stroke-linejoin="round" stroke-width="2.2" /><circle cx="289" cy="156" fill="#3f633f" r="4.8" stroke="#2f2925" stroke-width="1.2" /><line stroke="#2f2925" stroke-linecap="round" stroke-width="3.5" x1="269" x2="305" y1="136" y2="142" /><path d="M 260 167 L 253 186 L 264 187" fill="none" stroke="#bb7a43" stroke-linecap="round" stroke-linejoin="round" stroke-width="2" /><path d="M 240 227 Q 258 214 276 227" fill="none" stroke="#713d38" stroke-linecap="round" stroke-linejoin="round" stroke-width="3" /><path d="M 243 168 Q 229 176 215 169" fill="none" stroke="#8b756a" stroke-linecap="round" stroke-linejoin="round" stroke-width="2" /><path d="M 273 168 Q 287 176 301 169" fill="none" stroke="#8b756a" stroke-linecap="round" stroke-linejoin="round" stroke-width="2" /></svg>