<?xml version="1.0" encoding="utf-8" ?>
<svg baseProfile="full" height="682" version="1.1" viewBox="0 0 512 682" width="512" xmlns="http://www.w3.org/2000/svg" xmlns:ev="http://www.w3.org/2001/xml-events" xmlns:xlink="http://www.w3.org/1999/xlink"><defs /><rect fill="#d18451" height="58" rx="12" stroke="#74675d" stroke-linecap="round" stroke-linejoin="round" stroke-width="2" width="38" x="235.0" y="210" /><ellipse cx="254" cy="92" fill="#1f343a" rx="64.0" ry="47" stroke="#2f2925" stroke-linecap="round" stroke-linejoin="round" stroke-width="3" /><path d="M 259 56 Q 252 97 210 138" fill="none" stroke="#001016" stroke-linecap="round" stroke-linejoin="round" stroke-width="3" /><polygon fill="#d98c59" points="206.0,115 214.0,189 254,218.0 294.0,189 302.0,115" stroke="#2f2925" stroke-linecap="round" stroke-linejoin="round" stroke-width="3" /><ellipse cx="202.0" cy="151" fill="#d98c59" rx="10" ry="15" stroke="#74675d" stroke-linecap="round" stroke-linejoin="round" stroke-width="2" /><ellipse cx="306.0" cy="151" fill="#d98c59" rx="10" ry="15" stroke="#74675d" stroke-linecap="round" stroke-linejoin="round" stroke-width="2" /><ellipse cx="225" cy="155" fill="#fbf8ef" rx="16" ry="5" stroke="#2f2925" stroke-linecap="round" stroke-linejoin="round" stroke-width="2.2" /><circle cx="223" cy="156" fill="#654630" r="4.8" stroke="#2f2925" stroke-width="1.2" /><line stroke="#2f2925" stroke-linecap="round" stroke-width="2" x1="243" x2="208" y1="137" y2="135" /><ellipse cx="283" cy="155" fill="#fbf8ef" rx="16" ry="5" stroke="#2f2925" stroke-linecap="round" stroke-linejoin="round" stroke-width="2.2" /><circle cx="285" cy="156" fill="#654630" r="4.8" stroke="#2f2925" stroke-width="1.2" /><line stroke="#2f2925" stroke-linecap="round" stroke-width="2" x1="265" x2="300" y1="137" y2="135" /><path d="M 256 167 L 249 181 L 260 182" fill="none" stroke="#ad602d" stroke-linecap="round" stroke-linejoin="round" stroke-width="2" /><path d="M 237 213 Q 256 222 278 208" fill="none" stroke="#713d38" stroke-linecap="round" stroke-linejoin="round" stroke-width="3" /><rect fill="none" height="22" rx="10" stroke="#2f2925" stroke-width="3" width="90" x="209" y="145" /><line stroke="#2f2925" stroke-linecap="round" stroke-width="2" x1="246" x2="262" y1="156" y2="156" /></svg>