<?xml version="1.0" encoding="utf-8" ?>
<svg baseProfile="full" height="682" version="1.1" viewBox="0 0 512 682" width="512" xmlns="http://www.w3.org/2000/svg" xmlns:ev="http://www.w3.org/2001/xml-events" xmlns:xlink="http://www.w3.org/1999/xlink"><defs /><rect fill="#e9b583" height="48" rx="12" stroke="#6f6258" stroke-linecap="round" stroke-linejoin="round" stroke-width="2" width="40" x="235" y="204" /><ellipse cx="255" cy="144.0" fill="#f1bd8b" rx="55.5" ry="66.0" stroke="#2f2925" stroke-linecap="round" stroke-linejoin="round" stroke-width="3" /><ellipse cx="195.5" cy="148" fill="#f1bd8b" rx="12" ry="16" stroke="#6f6258" stroke-linecap="round" stroke-linejoin="round" stroke-width="2" /><ellipse cx="314.5" cy="148" fill="#f1bd8b" rx="12" ry="16" stroke="#6f6258" stroke-linecap="round" stroke-linejoin="round" stroke-width="2" /><path d="M 179.5 110 Q 255 42 330.5 110 L 326.5 148 Q 255 108 183.5 148 Z" fill="#5f3d2d" stroke="#2f2925" stroke-linecap="round" stroke-linejoin="round" stroke-width="3" /><path d="M 205.5 90 L 222.5 90 L 222.5 153 Z" fill="#5f3d2d" stroke="#432111" stroke-linecap="round" stroke-linejoin="round" stroke-width="1.5" /><path d="M 226.25 90 L 243.25 90 L 242.25 150 Z" fill="#5f3d2d" stroke="#432111" stroke-linecap="round" stroke-linejoin="round" stroke-width="1.5" /><path d="M 247.0 90 L 264.0 90 L 271.0 149 Z" fill="#5f3d2d" stroke="#432111" stroke-linecap="round" stroke-linejoin="round" stroke-width="1.5" /><path d="M 267.75 90 L 284.75 90 L 268.75 147 Z" fill="#5f3d2d" stroke="#432111" stroke-linecap="round" stroke-linejoin="round" stroke-width="1.5" /><path d="M 288.5 90 L 305.5 90 L 286.5 150 Z" fill="#5f3d2d" stroke="#432111" stroke-linecap="round" stroke-linejoin="round" stroke-width="1.5" /><ellipse cx="227" cy="154" fill="#faf7ef" rx="17" ry="10" stroke="#2f2925" stroke-linecap="round" stroke-linejoin="round" stroke-width="2" /><circle cx="225" cy="155" fill="#6b4632" r="5" stroke="#2f2925" stroke-width="1.2" /><path d="M 245 140 Q 227 133 208 140" fill="none" stroke="#2f2925" stroke-linecap="round" stroke-width="3" /><ellipse cx="283" cy="154" fill="#faf7ef" rx="17" ry="10" stroke="#2f2925" stroke-linecap="round" stroke-linejoin="round" stroke-width="2" /><circle cx="285" cy="155" fill="#6b4632" r="5" stroke="#2f2925" stroke-width="1.2" /><path d="M 265 140 Q 283 133 302 140" fill="none" stroke="#2f2925" stroke-linecap="round" stroke-width="3" /><path d="M 255 166 L 251 185 L 259 185" fill="none" stroke="#c79361" stroke-linejoin="round" stroke-width="2" /><path d="M 237 200 Q 255 210 275 200" fill="none" stroke="#7a423c" stroke-linecap="round" stroke-width="2.4" /><ellipse cx="182.5" cy="186" fill="#c99a42" rx="5" ry="10" stroke="#2f2925" stroke-width="2" /><ellipse cx="327.5" cy="186" fill="#c99a42" rx="5" ry="10" stroke="#2f2925" stroke-width="2" /></svg>