<?xml version="1.0" encoding="utf-8" ?>
<svg baseProfile="full" height="682" version="1.1" viewBox="0 0 512 682" width="512" xmlns="http://www.w3.org/2000/svg" xmlns:ev="http://www.w3.org/2001/xml-events" xmlns:xlink="http://www.w3.org/1999/xlink"><defs /><rect fill="#ae653d" height="48" rx="12" stroke="#6f6258" stroke-linecap="round" stroke-linejoin="round" stroke-width="2" width="40" x="238" y="206" /><ellipse cx="258" cy="144.0" fill="#b66d45" rx="54.0" ry="68.0" stroke="#2f2925" stroke-linecap="round" stroke-linejoin="round" stroke-width="3" /><ellipse cx="200.0" cy="146" fill="#b66d45" rx="12" ry="16" stroke="#6f6258" stroke-linecap="round" stroke-linejoin="round" stroke-width="2" /><ellipse cx="316.0" cy="146" fill="#b66d45" rx="12" ry="16" stroke="#6f6258" stroke-linecap="round" stroke-linejoin="round" stroke-width="2" /><ellipse cx="200" cy="103.0" fill="#322721" rx="24" ry="22" stroke="#2f2925" stroke-linecap="round" stroke-linejoin="round" stroke-width="2" /><ellipse cx="216" cy="97.0" fill="#322721" rx="24" ry="22" stroke="#2f2925" stroke-linecap="round" stroke-linejoin="round" stroke-width="2" /><ellipse cx="232" cy="91.0" fill="#322721" rx="24" ry="22" stroke="#2f2925" stroke-linecap="round" stroke-linejoin="round" stroke-width="2" /><ellipse cx="248" cy="85.0" fill="#322721" rx="24" ry="22" stroke="#2f2925" stroke-linecap="round" stroke-linejoin="round" stroke-width="2" /><ellipse cx="264" cy="85.0" fill="#322721" rx="24" ry="22" stroke="#2f2925" stroke-linecap="round" stroke-linejoin="round" stroke-width="2" /><ellipse cx="280" cy="91.0" fill="#322721" rx="24" ry="22" stroke="#2f2925" stroke-linecap="round" stroke-linejoin="round" stroke-width="2" /><ellipse cx="296" cy="97.0" fill="#322721" rx="24" ry="22" stroke="#2f2925" stroke-linecap="round" stroke-linejoin="round" stroke-width="2" /><ellipse cx="312" cy="103.0" fill="#322721" rx="24" ry="22" stroke="#2f2925" stroke-linecap="round" stroke-linejoin="round" stroke-width="2" /><path d="M 210.0 88 L 227.0 88 L 230.0 150 Z" fill="#322721" stroke="#160b05" stroke-linecap="round" stroke-linejoin="round" stroke-width="1.5" /><path d="M 223.33333333333334 88 L 240.33333333333334 88 L 247.33333333333334 142 Z" fill="#322721" stroke="#160b05" stroke-linecap="round" stroke-linejoin="round" stroke-width="1.5" /><path d="M 236.66666666666666 88 L 253.66666666666666 88 L 239.66666666666666 144 Z" fill="#322721" stroke="#160b05" stroke-linecap="round" stroke-linejoin="round" stroke-width="1.5" /><path d="M 250.0 88 L 267.0 88 L 263.0 144 Z" fill="#322721" stroke="#160b05" stroke-linecap="round" stroke-linejoin="round" stroke-width="1.5" /><path d="M 263.3333333333333 88 L 280.3333333333333 88 L 264.3333333333333 140 Z" fill="#322721" stroke="#160b05" stroke-linecap="round" stroke-linejoin="round" stroke-width="1.5" /><path d="M 276.6666666666667 88 L 293.6666666666667 88 L 282.6666666666667 149 Z" fill="#322721" stroke="#160b05" stroke-linecap="round" stroke-linejoin="round" stroke-width="1.5" /><path d="M 290.0 88 L 307.0 88 L 294.0 149 Z" fill="#322721" stroke="#160b05" stroke-linecap="round" stroke-linejoin="round" stroke-width="1.5" /><ellipse cx="230" cy="152" fill="#faf7ef" rx="17" ry="10" stroke="#2f2925" stroke-linecap="round" stroke-linejoin="round" stroke-width="2" /><circle cx="228" cy="153" fill="#3f5f7b" r="5" stroke="#2f2925" stroke-width="1.2" /><path d="M 248 138 Q 230 131 211 138" fill="none" stroke="#2f2925" stroke-linecap="round" stroke-width="3" /><ellipse cx="286" cy="152" fill="#faf7ef" rx="17" ry="10" stroke="#2f2925" stroke-linecap="round" stroke-linejoin="round" stroke-width="2" /><circle cx="288" cy="153" fill="#3f5f7b" r="5" stroke="#2f2925" stroke-width="1.2" /><path d="M 268 138 Q 286 131 305 138" fill="none" stroke="#2f2925" stroke-linecap="round" stroke-width="3" /><path d="M 258 164 L 254 183 L 262 183" fill="none" stroke="#8c431b" stroke-linejoin="round" stroke-width="2" /><path d="M 240 198 Q 258 208 278 198" fill="none" stroke="#7a423c" stroke-linecap="round" stroke-width="2.4" /></svg>