<?xml version="1.0" encoding="utf-8" ?>
<svg baseProfile="full" height="682" version="1.1" viewBox="0 0 512 682" width="512" xmlns="http://www.w3.org/2000/svg" xmlns:ev="http://www.w3.org/2001/xml-events" xmlns:xlink="http://www.w3.org/1999/xlink"><defs /><rect fill="#875033" height="48" rx="12" stroke="#6f6258" stroke-linecap="round" stroke-linejoin="round" stroke-width="2" width="40" x="236" y="204" /><ellipse cx="256" cy="144.5" fill="#8f583b" rx="50.0" ry="65.5" stroke="#2f2925" stroke-linecap="round" stroke-linejoin="round" stroke-width="3" /><ellipse cx="202.0" cy="149" fill="#8f583b" rx="12" ry="16" stroke="#6f6258" stroke-linecap="round" stroke-linejoin="round" stroke-width="2" /><ellipse cx="310.0" cy="149" fill="#8f583b" rx="12" ry="16" stroke="#6f6258" stroke-linecap="round" stroke-linejoin="round" stroke-width="2" /><ellipse cx="256" cy="91" fill="#d89447" rx="70.0" ry="48" stroke="#2f2925" stroke-linecap="round" stroke-linejoin="round" stroke-width="3" /><path d="M 210 113 Q 186 171 208 217" fill="none" stroke="#d89447" stroke-linecap="round" stroke-width="18" /><path d="M 302 113 Q 326 171 304 217" fill="none" stroke="#d89447" stroke-linecap="round" stroke-width="18" /><path d="M 212.0 91 L 229.0 91 L 215.0 156 Z" fill="#d89447" stroke="#bc782b" stroke-linecap="round" stroke-linejoin="round" stroke-width="1.5" /><path d="M 226.4 91 L 243.4 91 L 243.4 148 Z" fill="#d89447" stroke="#bc782b" stroke-linecap="round" stroke-linejoin="round" stroke-width="1.5" /><path d="M 240.8 91 L 257.8 91 L 256.8 142 Z" fill="#d89447" stroke="#bc782b" stroke-linecap="round" stroke-linejoin="round" stroke-width="1.5" /><path d="M 255.2 91 L 272.2 91 L 268.2 156 Z" fill="#d89447" stroke="#bc782b" stroke-linecap="round" stroke-linejoin="round" stroke-width="1.5" /><path d="M 269.6 91 L 286.6 91 L 283.6 156 Z" fill="#d89447" stroke="#bc782b" stroke-linecap="round" stroke-linejoin="round" stroke-width="1.5" /><path d="M 284.0 91 L 301.0 91 L 282.0 153 Z" fill="#d89447" stroke="#bc782b" stroke-linecap="round" stroke-linejoin="round" stroke-width="1.5" /><ellipse cx="228" cy="155" fill="#faf7ef" rx="17" ry="10" stroke="#2f2925" stroke-linecap="round" stroke-linejoin="round" stroke-width="2" /><circle cx="226" cy="156" fill="#3f5f7b" r="5" stroke="#2f2925" stroke-width="1.2" /><path d="M 246 141 Q 228 134 209 141" fill="none" stroke="#2f2925" stroke-linecap="round" stroke-width="3" /><ellipse cx="284" cy="155" fill="#faf7ef" rx="17" ry="10" stroke="#2f2925" stroke-linecap="round" stroke-linejoin="round" stroke-width="2" /><circle cx="286" cy="156" fill="#3f5f7b" r="5" stroke="#2f2925" stroke-width="1.2" /><path d="M 266 141 Q 284 134 303 141" fill="none" stroke="#2f2925" stroke-linecap="round" stroke-width="3" /><path d="M 256 167 L 252 186 L 260 186" fill="none" stroke="#652e11" stroke-linejoin="round" stroke-width="2" /><path d="M 238 201 Q 256 211 276 201" fill="none" stroke="#7a423c" stroke-linecap="round" stroke-width="2.4" /></svg>