<?xml version="1.0" encoding="utf-8" ?>
<svg baseProfile="full" height="682" version="1.1" viewBox="0 0 512 682" width="512" xmlns="http://www.w3.org/2000/svg" xmlns:ev="http://www.w3.org/2001/xml-events" xmlns:xlink="http://www.w3.org/1999/xlink"><defs /><rect fill="#e0a26b" height="48" rx="12" stroke="#6f6258" stroke-linecap="round" stroke-linejoin="round" stroke-width="2" width="40" x="233" y="197" /><ellipse cx="253" cy="138.5" fill="#e8aa73" rx="57.0" ry="64.5" stroke="#2f2925" stroke-linecap="round" stroke-linejoin="round" stroke-width="3" /><ellipse cx="192.0" cy="144" fill="#e8aa73" rx="12" ry="16" stroke="#6f6258" stroke-linecap="round" stroke-linejoin="round" stroke-width="2" /><ellipse cx="314.0" cy="144" fill="#e8aa73" rx="12" ry="16" stroke="#6f6258" stroke-linecap="round" stroke-linejoin="round" stroke-width="2" /><path d="M 180.0 102 Q 253 44 326.0 102 L 320.0 152 Q 253 124 186.0 152 Z" fill="#a35c34" stroke="#2f2925" stroke-linecap="round" stroke-linejoin="round" stroke-width="3" /><path d="M 202.0 86 L 219.0 86 L 225.0 147 Z" fill="#a35c34" stroke="#874018" stroke-linecap="round" stroke-linejoin="round" stroke-width="1.5" /><path d="M 216.33333333333334 86 L 233.33333333333334 86 L 213.33333333333334 149 Z" fill="#a35c34" stroke="#874018" stroke-linecap="round" stroke-linejoin="round" stroke-width="1.5" /><path d="M 230.66666666666666 86 L 247.66666666666666 86 L 252.66666666666666 136 Z" fill="#a35c34" stroke="#874018" stroke-linecap="round" stroke-linejoin="round" stroke-width="1.5" /><path d="M 245.0 86 L 262.0 86 L 268.0 145 Z" fill="#a35c34" stroke="#874018" stroke-linecap="round" stroke-linejoin="round" stroke-width="1.5" /><path d="M 259.3333333333333 86 L 276.3333333333333 86 L 265.3333333333333 152 Z" fill="#a35c34" stroke="#874018" stroke-linecap="round" stroke-linejoin="round" stroke-width="1.5" /><path d="M 273.6666666666667 86 L 290.6666666666667 86 L 273.6666666666667 144 Z" fill="#a35c34" stroke="#874018" stroke-linecap="round" stroke-linejoin="round" stroke-width="1.5" /><path d="M 288.0 86 L 305.0 86 L 304.0 139 Z" fill="#a35c34" stroke="#874018" stroke-linecap="round" stroke-linejoin="round" stroke-width="1.5" /><ellipse cx="225" cy="150" fill="#faf7ef" rx="17" ry="10" stroke="#2f2925" stroke-linecap="round" stroke-linejoin="round" stroke-width="2" /><circle cx="223" cy="151" fill="#496c48" r="5" stroke="#2f2925" stroke-width="1.2" /><path d="M 243 136 Q 225 129 206 136" fill="none" stroke="#2f2925" stroke-linecap="round" stroke-width="3" /><ellipse cx="281" cy="150" fill="#faf7ef" rx="17" ry="10" stroke="#2f2925" stroke-linecap="round" stroke-linejoin="round" stroke-width="2" /><circle cx="283" cy="151" fill="#496c48" r="5" stroke="#2f2925" stroke-width="1.2" /><path d="M 263 136 Q 281 129 300 136" fill="none" stroke="#2f2925" stroke-linecap="round" stroke-width="3" /><path d="M 253 162 L 249 181 L 257 181" fill="none" stroke="#be8049" stroke-linejoin="round" stroke-width="2" /><path d="M 235 196 Q 253 206 273 196" fill="none" stroke="#7a423c" stroke-linecap="round" stroke-width="2.4" /></svg>