<?xml version="1.0" encoding="utf-8" ?>
<svg baseProfile="full" height="682" version="1.1" viewBox="0 0 512 682" width="512" xmlns="http://www.w3.org/2000/svg" xmlns:ev="http://www.w3.org/2001/xml-events" xmlns:xlink="http://www.w3.org/1999/xlink"><defs /><rect fill="#d18451" height="58" rx="12" stroke="#74675d" stroke-linecap="round" stroke-linejoin="round" stroke-width="2" width="38" x="237.0" y="204" /><ellipse cx="256" cy="92" fill="#2d231f" rx="73.5" ry="50" stroke="#2f2925" stroke-linecap="round" stroke-linejoin="round" stroke-width="3" /><path d="M 208 109 C 176 162, 182 224, 210 252" fill="none" stroke="#2d231f" stroke-linecap="round" stroke-width="20" /><path d="M 304 109 C 336 162, 330 224, 302 252" fill="none" stroke="#2d231f" stroke-linecap="round" stroke-width="20" /><polygon fill="#d98c59" points="202.5,116 210.5,183 256,221.0 301.5,183 309.5,116" stroke="#2f2925" stroke-linecap="round" stroke-linejoin="round" stroke-width="3" /><ellipse cx="198.5" cy="152" fill="#d98c59" rx="10" ry="15" stroke="#74675d" stroke-linecap="round" stroke-linejoin="round" stroke-width="2" /><ellipse cx="313.5" cy="152" fill="#d98c59" rx="10" ry="15" stroke="#74675d" stroke-linecap="round" stroke-linejoin="round" stroke-width="2" /><ellipse cx="227" cy="156" fill="#fbf8ef" rx="16" ry="5" stroke="#2f2925" stroke-linecap="round" stroke-linejoin="round" stroke-width="2.2" /><circle cx="225" cy="157" fill="#22262a" r="4.8" stroke="#2f2925" stroke-width="1.2" /><line stroke="#2f2925" stroke-linecap="round" stroke-width="2" x1="245" x2="210" y1="138" y2="136" /><ellipse cx="285" cy="156" fill="#fbf8ef" rx="16" ry="5" stroke="#2f2925" stroke-linecap="round" stroke-linejoin="round" stroke-width="2.2" /><circle cx="287" cy="157" fill="#22262a" r="4.8" stroke="#2f2925" stroke-width="1.2" /><line stroke="#2f2925" stroke-linecap="round" stroke-width="2" x1="267" x2="302" y1="138" y2="136" /><path d="M 258 168 L 251 182 L 262 183" fill="none" stroke="#ad602d" stroke-linecap="round" stroke-linejoin="round" stroke-width="2" /><path d="M 239 207 Q 258 216 280 202" fill="none" stroke="#713d38" stroke-linecap="round" stroke-linejoin="round" stroke-width="3" /><circle cx="223" cy="168" fill="#b95a58" opacity="0.8" r="3.2" /><circle cx="215" cy="183" fill="#b95a58" opacity="0.8" r="3.2" /><circle cx="230" cy="192" fill="#b95a58" opacity="0.8" r="3.2" /><circle cx="289" cy="168" fill="#b95a58" opacity="0.8" r="3.2" /><circle cx="297" cy="183" fill="#b95a58" opacity="0.8" r="3.2" /><circle cx="282" cy="192" fill="#b95a58" opacity="0.8" r="3.2" /></svg>