<?xml version="1.0" encoding="utf-8" ?>
<svg baseProfile="full" height="682" version="1.1" viewBox="0 0 512 682" width="512" xmlns="http://www.w3.org/2000/svg" xmlns:ev="http://www.w3.org/2001/xml-events" xmlns:xlink="http://www.w3.org/1999/xlink"><defs /><rect fill="#bd7147" height="58" rx="12" stroke="#74675d" stroke-linecap="round" stroke-linejoin="round" stroke-width="2" width="38" x="236.0" y="210" /><ellipse cx="193" cy="100" fill="#c47235" rx="21" ry="20" stroke="#2f2925" stroke-linecap="round" stroke-linejoin="round" stroke-width="2" /><ellipse cx="205" cy="96" fill="#c47235" rx="21" ry="20" stroke="#2f2925" stroke-linecap="round" stroke-linejoin="round" stroke-width="2" /><ellipse cx="217" cy="92" fill="#c47235" rx="21" ry="20" stroke="#2f2925" stroke-linecap="round" stroke-linejoin="round" stroke-width="2" /><ellipse cx="229" cy="88" fill="#c47235" rx="21" ry="20" stroke="#2f2925" stroke-linecap="round" stroke-linejoin="round" stroke-width="2" /><ellipse cx="241" cy="84" fill="#c47235" rx="21" ry="20" stroke="#2f2925" stroke-linecap="round" stroke-linejoin="round" stroke-width="2" /><ellipse cx="253" cy="80" fill="#c47235" rx="21" ry="20" stroke="#2f2925" stroke-linecap="round" stroke-linejoin="round" stroke-width="2" /><ellipse cx="265" cy="84" fill="#c47235" rx="21" ry="20" stroke="#2f2925" stroke-linecap="round" stroke-linejoin="round" stroke-width="2" /><ellipse cx="277" cy="88" fill="#c47235" rx="21" ry="20" stroke="#2f2925" stroke-linecap="round" stroke-linejoin="round" stroke-width="2" /><ellipse cx="289" cy="92" fill="#c47235" rx="21" ry="20" stroke="#2f2925" stroke-linecap="round" stroke-linejoin="round" stroke-width="2" /><ellipse cx="301" cy="96" fill="#c47235" rx="21" ry="20" stroke="#2f2925" stroke-linecap="round" stroke-linejoin="round" stroke-width="2" /><ellipse cx="313" cy="100" fill="#c47235" rx="21" ry="20" stroke="#2f2925" stroke-linecap="round" stroke-linejoin="round" stroke-width="2" /><circle cx="198.0" cy="121" fill="#c47235" r="15" stroke="#2f2925" stroke-linecap="round" stroke-linejoin="round" stroke-width="2" /><circle cx="194.0" cy="144" fill="#c47235" r="15" stroke="#2f2925" stroke-linecap="round" stroke-linejoin="round" stroke-width="2" /><circle cx="190.0" cy="167" fill="#c47235" r="15" stroke="#2f2925" stroke-linecap="round" stroke-linejoin="round" stroke-width="2" /><circle cx="186.0" cy="190" fill="#c47235" r="15" stroke="#2f2925" stroke-linecap="round" stroke-linejoin="round" stroke-width="2" /><circle cx="312.0" cy="121" fill="#c47235" r="15" stroke="#2f2925" stroke-linecap="round" stroke-linejoin="round" stroke-width="2" /><circle cx="316.0" cy="144" fill="#c47235" r="15" stroke="#2f2925" stroke-linecap="round" stroke-linejoin="round" stroke-width="2" /><circle cx="320.0" cy="167" fill="#c47235" r="15" stroke="#2f2925" stroke-linecap="round" stroke-linejoin="round" stroke-width="2" /><circle cx="324.0" cy="190" fill="#c47235" r="15" stroke="#2f2925" stroke-linecap="round" stroke-linejoin="round" stroke-width="2" /><polygon fill="#c5794f" points="206.0,115 214.0,189 255,218.0 296.0,189 304.0,115" stroke="#2f2925" stroke-linecap="round" stroke-linejoin="round" stroke-width="3" /><ellipse cx="202.0" cy="151" fill="#c5794f" rx="10" ry="15" stroke="#74675d" stroke-linecap="round" stroke-linejoin="round" stroke-width="2" /><ellipse cx="308.0" cy="151" fill="#c5794f" rx="10" ry="15" stroke="#74675d" stroke-linecap="round" stroke-linejoin="round" stroke-width="2" /><ellipse cx="226" cy="155" fill="#fbf8ef" rx="15" ry="6" stroke="#2f2925" stroke-linecap="round" stroke-linejoin="round" stroke-width="2.2" /><circle cx="224" cy="156" fill="#334e67" r="4.8" stroke="#2f2925" stroke-width="1.2" /><line stroke="#2f2925" stroke-linecap="round" stroke-width="3.4" x1="245" x2="225" y1="133" y2="137" /><line stroke="#2f2925" stroke-linecap="round" stroke-width="3.4" x1="219" x2="206" y1="138" y2="141" /><ellipse cx="284" cy="155" fill="#fbf8ef" rx="15" ry="6" stroke="#2f2925" stroke-linecap="round" stroke-linejoin="round" stroke-width="2.2" /><circle cx="286" cy="156" fill="#334e67" r="4.8" stroke="#2f2925" stroke-width="1.2" /><line stroke="#2f2925" stroke-linecap="round" stroke-width="3.4" x1="265" x2="285" y1="133" y2="137" /><line stroke="#2f2925" stroke-linecap="round" stroke-width="3.4" x1="291" x2="304" y1="138" y2="141" /><path d="M 257 167 L 250 181 L 261 182" fill="none" stroke="#994d23" stroke-linecap="round" stroke-linejoin="round" stroke-width="2" /><path d="M 236 213 Q 257 215 276 204" fill="none" stroke="#713d38" stroke-linecap="round" stroke-linejoin="round" stroke-width="3" /></svg>