<?xml version="1.0" encoding="utf-8" ?>
<svg baseProfile="full" height="682" version="1.1" viewBox="0 0 512 682" width="512" xmlns="http://www.w3.org/2000/svg" xmlns:ev="http://www.w3.org/2001/xml-events" xmlns:xlink="http://www.w3.org/1999/xlink"><defs /><rect fill="#d18451" height="58" rx="12" stroke="#74675d" stroke-linecap="round" stroke-linejoin="round" stroke-width="2" width="38" x="237.0" y="198" /><ellipse cx="194" cy="100" fill="#c47235" rx="21" ry="20" stroke="#2f2925" stroke-linecap="round" stroke-linejoin="round" stroke-width="2" /><ellipse cx="206" cy="96" fill="#c47235" rx="21" ry="20" stroke="#2f2925" stroke-linecap="round" stroke-linejoin="round" stroke-width="2" /><ellipse cx="218" cy="92" fill="#c47235" rx="21" ry="20" stroke="#2f2925" stroke-linecap="round" stroke-linejoin="round" stroke-width="2" /><ellipse cx="230" cy="88" fill="#c47235" rx="21" ry="20" stroke="#2f2925" stroke-linecap="round" stroke-linejoin="round" stroke-width="2" /><ellipse cx="242" cy="84" fill="#c47235" rx="21" ry="20" stroke="#2f2925" stroke-linecap="round" stroke-linejoin="round" stroke-width="2" /><ellipse cx="254" cy="80" fill="#c47235" rx="21" ry="20" stroke="#2f2925" stroke-linecap="round" stroke-linejoin="round" stroke-width="2" /><ellipse cx="266" cy="84" fill="#c47235" rx="21" ry="20" stroke="#2f2925" stroke-linecap="round" stroke-linejoin="round" stroke-width="2" /><ellipse cx="278" cy="88" fill="#c47235" rx="21" ry="20" stroke="#2f2925" stroke-linecap="round" stroke-linejoin="round" stroke-width="2" /><ellipse cx="290" cy="92" fill="#c47235" rx="21" ry="20" stroke="#2f2925" stroke-linecap="round" stroke-linejoin="round" stroke-width="2" /><ellipse cx="302" cy="96" fill="#c47235" rx="21" ry="20" stroke="#2f2925" stroke-linecap="round" stroke-linejoin="round" stroke-width="2" /><ellipse cx="314" cy="100" fill="#c47235" rx="21" ry="20" stroke="#2f2925" stroke-linecap="round" stroke-linejoin="round" stroke-width="2" /><circle cx="192.0" cy="121" fill="#c47235" r="15" stroke="#2f2925" stroke-linecap="round" stroke-linejoin="round" stroke-width="2" /><circle cx="188.0" cy="144" fill="#c47235" r="15" stroke="#2f2925" stroke-linecap="round" stroke-linejoin="round" stroke-width="2" /><circle cx="184.0" cy="167" fill="#c47235" r="15" stroke="#2f2925" stroke-linecap="round" stroke-linejoin="round" stroke-width="2" /><circle cx="180.0" cy="190" fill="#c47235" r="15" stroke="#2f2925" stroke-linecap="round" stroke-linejoin="round" stroke-width="2" /><circle cx="320.0" cy="121" fill="#c47235" r="15" stroke="#2f2925" stroke-linecap="round" stroke-linejoin="round" stroke-width="2" /><circle cx="324.0" cy="144" fill="#c47235" r="15" stroke="#2f2925" stroke-linecap="round" stroke-linejoin="round" stroke-width="2" /><circle cx="328.0" cy="167" fill="#c47235" r="15" stroke="#2f2925" stroke-linecap="round" stroke-linejoin="round" stroke-width="2" /><circle cx="332.0" cy="190" fill="#c47235" r="15" stroke="#2f2925" stroke-linecap="round" stroke-linejoin="round" stroke-width="2" /><ellipse cx="256" cy="153.0" fill="#d98c59" rx="56.0" ry="64.0" stroke="#2f2925" stroke-linecap="round" stroke-linejoin="round" stroke-width="3" /><ellipse cx="196.0" cy="151" fill="#d98c59" rx="10" ry="15" stroke="#74675d" stroke-linecap="round" stroke-linejoin="round" stroke-width="2" /><ellipse cx="316.0" cy="151" fill="#d98c59" rx="10" ry="15" stroke="#74675d" stroke-linecap="round" stroke-linejoin="round" stroke-width="2" /><ellipse cx="227" cy="155" fill="#fbf8ef" rx="16" ry="9" stroke="#2f2925" stroke-linecap="round" stroke-linejoin="round" stroke-width="2.2" /><circle cx="225" cy="156" fill="#3f633f" r="4.8" stroke="#2f2925" stroke-width="1.2" /><path d="M 245 137 Q 227 127 209 137" fill="none" stroke="#2f2925" stroke-linecap="round" stroke-linejoin="round" stroke-width="3" /><ellipse cx="285" cy="155" fill="#fbf8ef" rx="16" ry="9" stroke="#2f2925" stroke-linecap="round" stroke-linejoin="round" stroke-width="2.2" /><circle cx="287" cy="156" fill="#3f633f" r="4.8" stroke="#2f2925" stroke-width="1.2" /><path d="M 267 137 Q 285 127 303 137" fill="none" stroke="#2f2925" stroke-linecap="round" stroke-linejoin="round" stroke-width="3" /><path d="M 258 167 L 251 181 L 262 182" fill="none" stroke="#ad602d" stroke-linecap="round" stroke-linejoin="round" stroke-width="2" /><path d="M 234 196 Q 256 217 279 196" fill="none" stroke="#8a443d" stroke-linecap="round" stroke-linejoin="round" stroke-width="3" /><line stroke="#d9e1e3" stroke-linecap="round" stroke-width="2.2" x1="238" x2="274" y1="202" y2="202" /><rect fill="#fbf8ef" height="5.2" rx="1" stroke="#74675d" stroke-width="0.8" width="4.4" x="241.8" y="199.4" /><rect fill="#fbf8ef" height="5.2" rx="1" stroke="#74675d" stroke-width="0.8" width="4.4" x="249.8" y="199.4" /><rect fill="#fbf8ef" height="5.2" rx="1" stroke="#74675d" stroke-width="0.8" width="4.4" x="257.8" y="199.4" /><rect fill="#fbf8ef" height="5.2" rx="1" stroke="#74675d" stroke-width="0.8" width="4.4" x="265.8" y="199.4" /></svg>