<?xml version="1.0" encoding="utf-8" ?>
<svg baseProfile="full" height="682" version="1.1" viewBox="0 0 512 682" width="512" xmlns="http://www.w3.org/2000/svg" xmlns:ev="http://www.w3.org/2001/xml-events" xmlns:xlink="http://www.w3.org/1999/xlink"><defs /><rect fill="#e0a26b" height="48" rx="12" stroke="#6f6258" stroke-linecap="round" stroke-linejoin="round" stroke-width="2" width="40" x="237" y="208" /><ellipse cx="257" cy="146.0" fill="#e8aa73" rx="55.0" ry="68.0" stroke="#2f2925" stroke-linecap="round" stroke-linejoin="round" stroke-width="3" /><ellipse cx="198.0" cy="148" fill="#e8aa73" rx="12" ry="16" stroke="#6f6258" stroke-linecap="round" stroke-linejoin="round" stroke-width="2" /><ellipse cx="316.0" cy="148" fill="#e8aa73" rx="12" ry="16" stroke="#6f6258" stroke-linecap="round" stroke-linejoin="round" stroke-width="2" /><path d="M 186.0 106 Q 257 48 328.0 106 L 322.0 156 Q 257 128 192.0 156 Z" fill="#22363d" stroke="#2f2925" stroke-linecap="round" stroke-linejoin="round" stroke-width="3" /><path d="M 208.0 90 L 225.0 90 L 209.0 148 Z" fill="#22363d" stroke="#061a21" stroke-linecap="round" stroke-linejoin="round" stroke-width="1.5" /><path d="M 221.66666666666666 90 L 238.66666666666666 90 L 242.66666666666666 145 Z" fill="#22363d" stroke="#061a21" stroke-linecap="round" stroke-linejoin="round" stroke-width="1.5" /><path d="M 235.33333333333334 90 L 252.33333333333334 90 L 256.33333333333337 142 Z" fill="#22363d" stroke="#061a21" stroke-linecap="round" stroke-linejoin="round" stroke-width="1.5" /><path d="M 249.0 90 L 266.0 90 L 259.0 140 Z" fill="#22363d" stroke="#061a21" stroke-linecap="round" stroke-linejoin="round" stroke-width="1.5" /><path d="M 262.6666666666667 90 L 279.6666666666667 90 L 259.6666666666667 147 Z" fill="#22363d" stroke="#061a21" stroke-linecap="round" stroke-linejoin="round" stroke-width="1.5" /><path d="M 276.3333333333333 90 L 293.3333333333333 90 L 281.3333333333333 152 Z" fill="#22363d" stroke="#061a21" stroke-linecap="round" stroke-linejoin="round" stroke-width="1.5" /><path d="M 290.0 90 L 307.0 90 L 283.0 144 Z" fill="#22363d" stroke="#061a21" stroke-linecap="round" stroke-linejoin="round" stroke-width="1.5" /><ellipse cx="229" cy="154" fill="#faf7ef" rx="17" ry="10" stroke="#2f2925" stroke-linecap="round" stroke-linejoin="round" stroke-width="2" /><circle cx="227" cy="155" fill="#496c48" r="5" stroke="#2f2925" stroke-width="1.2" /><path d="M 247 140 Q 229 133 210 140" fill="none" stroke="#2f2925" stroke-linecap="round" stroke-width="3" /><ellipse cx="285" cy="154" fill="#faf7ef" rx="17" ry="10" stroke="#2f2925" stroke-linecap="round" stroke-linejoin="round" stroke-width="2" /><circle cx="287" cy="155" fill="#496c48" r="5" stroke="#2f2925" stroke-width="1.2" /><path d="M 267 140 Q 285 133 304 140" fill="none" stroke="#2f2925" stroke-linecap="round" stroke-width="3" /><path d="M 257 166 L 253 185 L 261 185" fill="none" stroke="#be8049" stroke-linejoin="round" stroke-width="2" /><path d="M 239 200 Q 257 210 277 200" fill="none" stroke="#7a423c" stroke-linecap="round" stroke-width="2.4" /></svg>