<?xml version="1.0" encoding="utf-8" ?>
<svg baseProfile="full" height="682" version="1.1" viewBox="0 0 512 682" width="512" xmlns="http://www.w3.org/2000/svg" xmlns:ev="http://www.w3.org/2001/xml-events" xmlns:xlink="http://www.w3.org/1999/xlink"><defs /><rect fill="#9f5c3b" height="58" rx="12" stroke="#74675d" stroke-linecap="round" stroke-linejoin="round" stroke-width="2" width="38" x="235.0" y="200" /><path d="M 184.5 105 Q 254 40 326.5 105 L 314.5 146 Q 254 110 191.5 146 Z" fill="#2d231f" stroke="#2f2925" stroke-linecap="round" stroke-linejoin="round" stroke-width="3" /><polygon fill="#a76443" points="199.5,112 207.5,179 254,217.0 300.5,179 308.5,112" stroke="#2f2925" stroke-linecap="round" stroke-linejoin="round" stroke-width="3" /><ellipse cx="195.5" cy="148" fill="#a76443" rx="10" ry="15" stroke="#74675d" stroke-linecap="round" stroke-linejoin="round" stroke-width="2" /><ellipse cx="312.5" cy="148" fill="#a76443" rx="10" ry="15" stroke="#74675d" stroke-linecap="round" stroke-linejoin="round" stroke-width="2" /><ellipse cx="225" cy="152" fill="#fbf8ef" rx="14" ry="8" stroke="#2f2925" stroke-linecap="round" stroke-linejoin="round" stroke-width="2.2" /><circle cx="223" cy="153" fill="#3f633f" r="4.8" stroke="#2f2925" stroke-width="1.2" /><line stroke="#2f2925" stroke-linecap="round" stroke-width="3.5" x1="243" x2="207" y1="133" y2="139" /><ellipse cx="283" cy="152" fill="#fbf8ef" rx="14" ry="8" stroke="#2f2925" stroke-linecap="round" stroke-linejoin="round" stroke-width="2.2" /><circle cx="285" cy="153" fill="#3f633f" r="4.8" stroke="#2f2925" stroke-width="1.2" /><line stroke="#2f2925" stroke-linecap="round" stroke-width="3.5" x1="265" x2="301" y1="133" y2="139" /><path d="M 256 164 L 249 178 L 260 179" fill="none" stroke="#7b3817" stroke-linecap="round" stroke-linejoin="round" stroke-width="2" /><path d="M 236 209 Q 254 196 272 209" fill="none" stroke="#713d38" stroke-linecap="round" stroke-linejoin="round" stroke-width="3" /><rect fill="#dfeee9" height="12" rx="4" stroke="#74675d" stroke-width="1.5" width="14" x="217" y="168" /><line stroke="#74675d" stroke-linecap="round" stroke-width="1.4" x1="220" x2="228" y1="174" y2="174" /><line stroke="#74675d" stroke-linecap="round" stroke-width="1.4" x1="224" x2="224" y1="170" y2="178" /><rect fill="#dfeee9" height="12" rx="4" stroke="#74675d" stroke-width="1.5" width="14" x="271" y="158" /><line stroke="#74675d" stroke-linecap="round" stroke-width="1.4" x1="274" x2="282" y1="164" y2="164" /><line stroke="#74675d" stroke-linecap="round" stroke-width="1.4" x1="278" x2="278" y1="160" y2="168" /></svg>