<?xml version="1.0" encoding="utf-8" ?>
<svg baseProfile="full" height="682" version="1.1" viewBox="0 0 512 682" width="512" xmlns="http://www.w3.org/2000/svg" xmlns:ev="http://www.w3.org/2001/xml-events" xmlns:xlink="http://www.w3.org/1999/xlink"><defs /><rect fill="#bd7147" height="58" rx="12" stroke="#74675d" stroke-linecap="round" stroke-linejoin="round" stroke-width="2" width="46" x="231.0" y="185" /><ellipse cx="254" cy="90" fill="#8e4d2e" rx="79.0" ry="47" stroke="#2f2925" stroke-linecap="round" stroke-linejoin="round" stroke-width="3" /><path d="M 259 54 Q 252 95 210 136" fill="none" stroke="#6a290a" stroke-linecap="round" stroke-linejoin="round" stroke-width="3" /><ellipse cx="254" cy="145.5" fill="#c5794f" rx="63.0" ry="58.5" stroke="#2f2925" stroke-linecap="round" stroke-linejoin="round" stroke-width="3" /><ellipse cx="187.0" cy="149" fill="#c5794f" rx="10" ry="15" stroke="#74675d" stroke-linecap="round" stroke-linejoin="round" stroke-width="2" /><ellipse cx="321.0" cy="149" fill="#c5794f" rx="10" ry="15" stroke="#74675d" stroke-linecap="round" stroke-linejoin="round" stroke-width="2" /><ellipse cx="225" cy="153" fill="#fbf8ef" rx="18" ry="12" stroke="#2f2925" stroke-linecap="round" stroke-linejoin="round" stroke-width="2.2" /><circle cx="223" cy="154" fill="#8a5d2a" r="4.8" stroke="#2f2925" stroke-width="1.2" /><line stroke="#2f2925" stroke-linecap="round" stroke-width="3.4" x1="244" x2="224" y1="131" y2="135" /><line stroke="#2f2925" stroke-linecap="round" stroke-width="3.4" x1="218" x2="205" y1="136" y2="139" /><ellipse cx="283" cy="153" fill="#fbf8ef" rx="18" ry="12" stroke="#2f2925" stroke-linecap="round" stroke-linejoin="round" stroke-width="2.2" /><circle cx="285" cy="154" fill="#8a5d2a" r="4.8" stroke="#2f2925" stroke-width="1.2" /><line stroke="#2f2925" stroke-linecap="round" stroke-width="3.4" x1="264" x2="284" y1="131" y2="135" /><line stroke="#2f2925" stroke-linecap="round" stroke-width="3.4" x1="290" x2="303" y1="136" y2="139" /><path d="M 256 165 L 249 179 L 260 180" fill="none" stroke="#994d23" stroke-linecap="round" stroke-linejoin="round" stroke-width="2" /><ellipse cx="254" cy="189" fill="#6c3734" rx="12" ry="16" stroke="#2f2925" stroke-width="2" /><circle cx="230" cy="124" fill="#b95a58" opacity="0.82" r="3.2" /><circle cx="245" cy="118" fill="#b95a58" opacity="0.82" r="2.7" /><circle cx="265" cy="122" fill="#b95a58" opacity="0.82" r="3.4" /><circle cx="281" cy="129" fill="#b95a58" opacity="0.82" r="2.5" /></svg>