<?xml version="1.0" encoding="utf-8" ?>
<svg baseProfile="full" height="682" version="1.1" viewBox="0 0 512 682" width="512" xmlns="http://www.w3.org/2000/svg" xmlns:ev="http://www.w3.org/2001/xml-events" xmlns:xlink="http://www.w3.org/1999/xlink"><defs /><rect fill="#875033" height="48" rx="12" stroke="#6f6258" stroke-linecap="round" stroke-linejoin="round" stroke-width="2" width="40" x="238" y="205" /><ellipse cx="258" cy="143.0" fill="#8f583b" rx="54.0" ry="68.0" stroke="#2f2925" stroke-linecap="round" stroke-linejoin="round" stroke-width="3" /><ellipse cx="200.0" cy="145" fill="#8f583b" rx="12" ry="16" stroke="#6f6258" stroke-linecap="round" stroke-linejoin="round" stroke-width="2" /><ellipse cx="316.0" cy="145" fill="#8f583b" rx="12" ry="16" stroke="#6f6258" stroke-linecap="round" stroke-linejoin="round" stroke-width="2" /><ellipse cx="258" cy="87" fill="#322721" rx="74.0" ry="48" stroke="#2f2925" stroke-linecap="round" stroke-linejoin="round" stroke-width="3" /><path d="M 212 109 Q 188 167 210 213" fill="none" stroke="#322721" stroke-linecap="round" stroke-width="18" /><path d="M 304 109 Q 328 167 306 213" fill="none" stroke="#322721" stroke-linecap="round" stroke-width="18" /><path d="M 210.0 87 L 227.0 87 L 214.0 148 Z" fill="#322721" stroke="#160b05" stroke-linecap="round" stroke-linejoin="round" stroke-width="1.5" /><path d="M 226.0 87 L 243.0 87 L 220.0 152 Z" fill="#322721" stroke="#160b05" stroke-linecap="round" stroke-linejoin="round" stroke-width="1.5" /><path d="M 242.0 87 L 259.0 87 L 260.0 140 Z" fill="#322721" stroke="#160b05" stroke-linecap="round" stroke-linejoin="round" stroke-width="1.5" /><path d="M 258.0 87 L 275.0 87 L 271.0 150 Z" fill="#322721" stroke="#160b05" stroke-linecap="round" stroke-linejoin="round" stroke-width="1.5" /><path d="M 274.0 87 L 291.0 87 L 296.0 141 Z" fill="#322721" stroke="#160b05" stroke-linecap="round" stroke-linejoin="round" stroke-width="1.5" /><path d="M 290.0 87 L 307.0 87 L 286.0 138 Z" fill="#322721" stroke="#160b05" stroke-linecap="round" stroke-linejoin="round" stroke-width="1.5" /><ellipse cx="230" cy="151" fill="#faf7ef" rx="17" ry="10" stroke="#2f2925" stroke-linecap="round" stroke-linejoin="round" stroke-width="2" /><circle cx="228" cy="152" fill="#3f5f7b" r="5" stroke="#2f2925" stroke-width="1.2" /><path d="M 248 137 Q 230 130 211 137" fill="none" stroke="#2f2925" stroke-linecap="round" stroke-width="3" /><ellipse cx="286" cy="151" fill="#faf7ef" rx="17" ry="10" stroke="#2f2925" stroke-linecap="round" stroke-linejoin="round" stroke-width="2" /><circle cx="288" cy="152" fill="#3f5f7b" r="5" stroke="#2f2925" stroke-width="1.2" /><path d="M 268 137 Q 286 130 305 137" fill="none" stroke="#2f2925" stroke-linecap="round" stroke-width="3" /><path d="M 258 163 L 254 182 L 262 182" fill="none" stroke="#652e11" stroke-linejoin="round" stroke-width="2" /><path d="M 240 197 Q 258 207 278 197" fill="none" stroke="#7a423c" stroke-linecap="round" stroke-width="2.4" /></svg>