<?xml version="1.0" encoding="utf-8" ?>
<svg baseProfile="full" height="682" version="1.1" viewBox="0 0 512 682" width="512" xmlns="http://www.w3.org/2000/svg" xmlns:ev="http://www.w3.org/2001/xml-events" xmlns:xlink="http://www.w3.org/1999/xlink"><defs /><rect fill="#875033" height="48" rx="12" stroke="#6f6258" stroke-linecap="round" stroke-linejoin="round" stroke-width="2" width="40" x="239" y="204" /><ellipse cx="259" cy="145.0" fill="#8f583b" rx="50.5" ry="65.0" stroke="#2f2925" stroke-linecap="round" stroke-linejoin="round" stroke-width="3" /><ellipse cx="204.5" cy="150" fill="#8f583b" rx="12" ry="16" stroke="#6f6258" stroke-linecap="round" stroke-linejoin="round" stroke-width="2" /><ellipse cx="313.5" cy="150" fill="#8f583b" rx="12" ry="16" stroke="#6f6258" stroke-linecap="round" stroke-linejoin="round" stroke-width="2" /><ellipse cx="259" cy="92" fill="#dfdacd" rx="70.5" ry="48" stroke="#2f2925" stroke-linecap="round" stroke-linejoin="round" stroke-width="3" /><path d="M 213 114 Q 189 172 211 218" fill="none" stroke="#dfdacd" stroke-linecap="round" stroke-width="18" /><path d="M 305 114 Q 329 172 307 218" fill="none" stroke="#dfdacd" stroke-linecap="round" stroke-width="18" /><path d="M 214.5 92 L 231.5 92 L 238.5 143 Z" fill="#dfdacd" stroke="#c3beb1" stroke-linecap="round" stroke-linejoin="round" stroke-width="1.5" /><path d="M 229.1 92 L 246.1 92 L 244.1 143 Z" fill="#dfdacd" stroke="#c3beb1" stroke-linecap="round" stroke-linejoin="round" stroke-width="1.5" /><path d="M 243.7 92 L 260.7 92 L 238.7 150 Z" fill="#dfdacd" stroke="#c3beb1" stroke-linecap="round" stroke-linejoin="round" stroke-width="1.5" /><path d="M 258.3 92 L 275.3 92 L 267.3 157 Z" fill="#dfdacd" stroke="#c3beb1" stroke-linecap="round" stroke-linejoin="round" stroke-width="1.5" /><path d="M 272.9 92 L 289.9 92 L 284.9 152 Z" fill="#dfdacd" stroke="#c3beb1" stroke-linecap="round" stroke-linejoin="round" stroke-width="1.5" /><path d="M 287.5 92 L 304.5 92 L 300.5 150 Z" fill="#dfdacd" stroke="#c3beb1" stroke-linecap="round" stroke-linejoin="round" stroke-width="1.5" /><ellipse cx="231" cy="156" fill="#faf7ef" rx="17" ry="10" stroke="#2f2925" stroke-linecap="round" stroke-linejoin="round" stroke-width="2" /><circle cx="229" cy="157" fill="#6b4632" r="5" stroke="#2f2925" stroke-width="1.2" /><path d="M 249 142 Q 231 135 212 142" fill="none" stroke="#2f2925" stroke-linecap="round" stroke-width="3" /><ellipse cx="287" cy="156" fill="#faf7ef" rx="17" ry="10" stroke="#2f2925" stroke-linecap="round" stroke-linejoin="round" stroke-width="2" /><circle cx="289" cy="157" fill="#6b4632" r="5" stroke="#2f2925" stroke-width="1.2" /><path d="M 269 142 Q 287 135 306 142" fill="none" stroke="#2f2925" stroke-linecap="round" stroke-width="3" /><path d="M 259 168 L 255 187 L 263 187" fill="none" stroke="#652e11" stroke-linejoin="round" stroke-width="2" /><path d="M 241 202 Q 259 212 279 202" fill="none" stroke="#7a423c" stroke-linecap="round" stroke-width="2.4" /></svg>