<?xml version="1.0" encoding="utf-8" ?>
<svg baseProfile="full" height="682" version="1.1" viewBox="0 0 512 682" width="512" xmlns="http://www.w3.org/2000/svg" xmlns:ev="http://www.w3.org/2001/xml-events" xmlns:xlink="http://www.w3.org/1999/xlink"><defs /><rect fill="#d18955" height="48" rx="12" stroke="#6f6258" stroke-linecap="round" stroke-linejoin="round" stroke-width="2" width="40" x="234" y="206" /><ellipse cx="254" cy="144.5" fill="#d9915d" rx="53.5" ry="67.5" stroke="#2f2925" stroke-linecap="round" stroke-linejoin="round" stroke-width="3" /><ellipse cx="196.5" cy="147" fill="#d9915d" rx="12" ry="16" stroke="#6f6258" stroke-linecap="round" stroke-linejoin="round" stroke-width="2" /><ellipse cx="311.5" cy="147" fill="#d9915d" rx="12" ry="16" stroke="#6f6258" stroke-linecap="round" stroke-linejoin="round" stroke-width="2" /><rect fill="#22363d" height="72" rx="28" stroke="#2f2925" stroke-linecap="round" stroke-linejoin="round" stroke-width="3" width="133" x="187.5" y="59" /><rect fill="#22363d" height="34" stroke="#22363d" stroke-linecap="round" stroke-linejoin="round" stroke-width="1" width="127" x="190.5" y="107" /><path d="M 206.5 89 L 223.5 89 L 204.5 149 Z" fill="#22363d" stroke="#061a21" stroke-linecap="round" stroke-linejoin="round" stroke-width="1.5" /><path d="M 222.3 89 L 239.3 89 L 237.3 140 Z" fill="#22363d" stroke="#061a21" stroke-linecap="round" stroke-linejoin="round" stroke-width="1.5" /><path d="M 238.1 89 L 255.1 89 L 239.1 146 Z" fill="#22363d" stroke="#061a21" stroke-linecap="round" stroke-linejoin="round" stroke-width="1.5" /><path d="M 253.89999999999998 89 L 270.9 89 L 270.9 144 Z" fill="#22363d" stroke="#061a21" stroke-linecap="round" stroke-linejoin="round" stroke-width="1.5" /><path d="M 269.7 89 L 286.7 89 L 265.7 151 Z" fill="#22363d" stroke="#061a21" stroke-linecap="round" stroke-linejoin="round" stroke-width="1.5" /><path d="M 285.5 89 L 302.5 89 L 288.5 142 Z" fill="#22363d" stroke="#061a21" stroke-linecap="round" stroke-linejoin="round" stroke-width="1.5" /><ellipse cx="226" cy="153" fill="#faf7ef" rx="17" ry="10" stroke="#2f2925" stroke-linecap="round" stroke-linejoin="round" stroke-width="2" /><circle cx="224" cy="154" fill="#496c48" r="5" stroke="#2f2925" stroke-width="1.2" /><path d="M 244 139 Q 226 132 207 139" fill="none" stroke="#2f2925" stroke-linecap="round" stroke-width="3" /><ellipse cx="282" cy="153" fill="#faf7ef" rx="17" ry="10" stroke="#2f2925" stroke-linecap="round" stroke-linejoin="round" stroke-width="2" /><circle cx="284" cy="154" fill="#496c48" r="5" stroke="#2f2925" stroke-width="1.2" /><path d="M 264 139 Q 282 132 301 139" fill="none" stroke="#2f2925" stroke-linecap="round" stroke-width="3" /><path d="M 254 165 L 250 184 L 258 184" fill="none" stroke="#af6733" stroke-linejoin="round" stroke-width="2" /><path d="M 236 199 Q 254 209 274 199" fill="none" stroke="#7a423c" stroke-linecap="round" stroke-width="2.4" /></svg>