<?xml version="1.0" encoding="utf-8" ?>
<svg baseProfile="full" height="682" version="1.1" viewBox="0 0 512 682" width="512" xmlns="http://www.w3.org/2000/svg" xmlns:ev="http://www.w3.org/2001/xml-events" xmlns:xlink="http://www.w3.org/1999/xlink"><defs /><rect fill="#e9b583" height="48" rx="12" stroke="#6f6258" stroke-linecap="round" stroke-linejoin="round" stroke-width="2" width="40" x="235" y="199" /><ellipse cx="255" cy="139.5" fill="#f1bd8b" rx="50.5" ry="65.5" stroke="#2f2925" stroke-linecap="round" stroke-linejoin="round" stroke-width="3" /><ellipse cx="200.5" cy="144" fill="#f1bd8b" rx="12" ry="16" stroke="#6f6258" stroke-linecap="round" stroke-linejoin="round" stroke-width="2" /><ellipse cx="309.5" cy="144" fill="#f1bd8b" rx="12" ry="16" stroke="#6f6258" stroke-linecap="round" stroke-linejoin="round" stroke-width="2" /><path d="M 184.5 106 Q 255 38 325.5 106 L 321.5 144 Q 255 104 188.5 144 Z" fill="#dfdacd" stroke="#2f2925" stroke-linecap="round" stroke-linejoin="round" stroke-width="3" /><path d="M 210.5 86 L 227.5 86 L 207.5 153 Z" fill="#dfdacd" stroke="#c3beb1" stroke-linecap="round" stroke-linejoin="round" stroke-width="1.5" /><path d="M 228.75 86 L 245.75 86 L 239.75 139 Z" fill="#dfdacd" stroke="#c3beb1" stroke-linecap="round" stroke-linejoin="round" stroke-width="1.5" /><path d="M 247.0 86 L 264.0 86 L 242.0 137 Z" fill="#dfdacd" stroke="#c3beb1" stroke-linecap="round" stroke-linejoin="round" stroke-width="1.5" /><path d="M 265.25 86 L 282.25 86 L 258.25 141 Z" fill="#dfdacd" stroke="#c3beb1" stroke-linecap="round" stroke-linejoin="round" stroke-width="1.5" /><path d="M 283.5 86 L 300.5 86 L 293.5 148 Z" fill="#dfdacd" stroke="#c3beb1" stroke-linecap="round" stroke-linejoin="round" stroke-width="1.5" /><ellipse cx="227" cy="150" fill="#faf7ef" rx="17" ry="10" stroke="#2f2925" stroke-linecap="round" stroke-linejoin="round" stroke-width="2" /><circle cx="225" cy="151" fill="#6b4632" r="5" stroke="#2f2925" stroke-width="1.2" /><path d="M 245 136 Q 227 129 208 136" fill="none" stroke="#2f2925" stroke-linecap="round" stroke-width="3" /><ellipse cx="283" cy="150" fill="#faf7ef" rx="17" ry="10" stroke="#2f2925" stroke-linecap="round" stroke-linejoin="round" stroke-width="2" /><circle cx="285" cy="151" fill="#6b4632" r="5" stroke="#2f2925" stroke-width="1.2" /><path d="M 265 136 Q 283 129 302 136" fill="none" stroke="#2f2925" stroke-linecap="round" stroke-width="3" /><path d="M 255 162 L 251 181 L 259 181" fill="none" stroke="#c79361" stroke-linejoin="round" stroke-width="2" /><path d="M 237 196 Q 255 206 275 196" fill="none" stroke="#7a423c" stroke-linecap="round" stroke-width="2.4" /><ellipse cx="187.5" cy="182" fill="#c99a42" rx="5" ry="10" stroke="#2f2925" stroke-width="2" /><ellipse cx="322.5" cy="182" fill="#c99a42" rx="5" ry="10" stroke="#2f2925" stroke-width="2" /></svg>