<?xml version="1.0" encoding="utf-8" ?>
<svg baseProfile="full" height="682" version="1.1" viewBox="0 0 512 682" width="512" xmlns="http://www.w3.org/2000/svg" xmlns:ev="http://www.w3.org/2001/xml-events" xmlns:xlink="http://www.w3.org/1999/xlink"><defs /><rect fill="#d18955" height="48" rx="12" stroke="#6f6258" stroke-linecap="round" stroke-linejoin="round" stroke-width="2" width="40" x="235" y="210" /><ellipse cx="255" cy="147.0" fill="#d9915d" rx="53.5" ry="69.0" stroke="#2f2925" stroke-linecap="round" stroke-linejoin="round" stroke-width="3" /><ellipse cx="197.5" cy="148" fill="#d9915d" rx="12" ry="16" stroke="#6f6258" stroke-linecap="round" stroke-linejoin="round" stroke-width="2" /><ellipse cx="312.5" cy="148" fill="#d9915d" rx="12" ry="16" stroke="#6f6258" stroke-linecap="round" stroke-linejoin="round" stroke-width="2" /><rect fill="#322721" height="72" rx="28" stroke="#2f2925" stroke-linecap="round" stroke-linejoin="round" stroke-width="3" width="133" x="188.5" y="60" /><rect fill="#322721" height="34" stroke="#322721" stroke-linecap="round" stroke-linejoin="round" stroke-width="1" width="127" x="191.5" y="108" /><path d="M 207.5 90 L 224.5 90 L 205.5 142 Z" fill="#322721" stroke="#160b05" stroke-linecap="round" stroke-linejoin="round" stroke-width="1.5" /><path d="M 223.3 90 L 240.3 90 L 217.3 149 Z" fill="#322721" stroke="#160b05" stroke-linecap="round" stroke-linejoin="round" stroke-width="1.5" /><path d="M 239.1 90 L 256.1 90 L 258.1 153 Z" fill="#322721" stroke="#160b05" stroke-linecap="round" stroke-linejoin="round" stroke-width="1.5" /><path d="M 254.89999999999998 90 L 271.9 90 L 255.89999999999998 145 Z" fill="#322721" stroke="#160b05" stroke-linecap="round" stroke-linejoin="round" stroke-width="1.5" /><path d="M 270.7 90 L 287.7 90 L 289.7 147 Z" fill="#322721" stroke="#160b05" stroke-linecap="round" stroke-linejoin="round" stroke-width="1.5" /><path d="M 286.5 90 L 303.5 90 L 280.5 145 Z" fill="#322721" stroke="#160b05" stroke-linecap="round" stroke-linejoin="round" stroke-width="1.5" /><ellipse cx="227" cy="154" fill="#faf7ef" rx="17" ry="10" stroke="#2f2925" stroke-linecap="round" stroke-linejoin="round" stroke-width="2" /><circle cx="225" cy="155" fill="#56406e" r="5" stroke="#2f2925" stroke-width="1.2" /><path d="M 245 140 Q 227 133 208 140" fill="none" stroke="#2f2925" stroke-linecap="round" stroke-width="3" /><ellipse cx="283" cy="154" fill="#faf7ef" rx="17" ry="10" stroke="#2f2925" stroke-linecap="round" stroke-linejoin="round" stroke-width="2" /><circle cx="285" cy="155" fill="#56406e" r="5" stroke="#2f2925" stroke-width="1.2" /><path d="M 265 140 Q 283 133 302 140" fill="none" stroke="#2f2925" stroke-linecap="round" stroke-width="3" /><path d="M 255 166 L 251 185 L 259 185" fill="none" stroke="#af6733" stroke-linejoin="round" stroke-width="2" /><path d="M 237 200 Q 255 210 275 200" fill="none" stroke="#7a423c" stroke-linecap="round" stroke-width="2.4" /></svg>