<?xml version="1.0" encoding="utf-8" ?>
<svg baseProfile="full" height="682" version="1.1" viewBox="0 0 512 682" width="512" xmlns="http://www.w3.org/2000/svg" xmlns:ev="http://www.w3.org/2001/xml-events" xmlns:xlink="http://www.w3.org/1999/xlink"><defs /><rect fill="#9f5c3b" height="58" rx="12" stroke="#74675d" stroke-linecap="round" stroke-linejoin="round" stroke-width="2" width="46" x="234.0" y="189" /><path d="M 179.0 109 L 215 66 L 239 81 L 255 41 L 274 83 L 302 67 L 336.0 111 Q 257 93 179.0 109 Z" fill="#2d231f" stroke="#2f2925" stroke-linecap="round" stroke-linejoin="round" stroke-width="3" /><ellipse cx="257" cy="146.5" fill="#a76443" rx="64.0" ry="61.5" stroke="#2f2925" stroke-linecap="round" stroke-linejoin="round" stroke-width="3" /><ellipse cx="189.0" cy="147" fill="#a76443" rx="10" ry="15" stroke="#74675d" stroke-linecap="round" stroke-linejoin="round" stroke-width="2" /><ellipse cx="325.0" cy="147" fill="#a76443" rx="10" ry="15" stroke="#74675d" stroke-linecap="round" stroke-linejoin="round" stroke-width="2" /><ellipse cx="228" cy="151" fill="#fbf8ef" rx="15" ry="6" stroke="#2f2925" stroke-linecap="round" stroke-linejoin="round" stroke-width="2.2" /><circle cx="226" cy="152" fill="#8a5d2a" r="4.8" stroke="#2f2925" stroke-width="1.2" /><line stroke="#2f2925" stroke-linecap="round" stroke-width="3.4" x1="247" x2="227" y1="129" y2="133" /><line stroke="#2f2925" stroke-linecap="round" stroke-width="3.4" x1="221" x2="208" y1="134" y2="137" /><ellipse cx="286" cy="151" fill="#fbf8ef" rx="15" ry="6" stroke="#2f2925" stroke-linecap="round" stroke-linejoin="round" stroke-width="2.2" /><circle cx="288" cy="152" fill="#8a5d2a" r="4.8" stroke="#2f2925" stroke-width="1.2" /><line stroke="#2f2925" stroke-linecap="round" stroke-width="3.4" x1="267" x2="287" y1="129" y2="133" /><line stroke="#2f2925" stroke-linecap="round" stroke-width="3.4" x1="293" x2="306" y1="134" y2="137" /><path d="M 259 163 L 252 177 L 263 178" fill="none" stroke="#7b3817" stroke-linecap="round" stroke-linejoin="round" stroke-width="2" /><path d="M 238 192 Q 259 194 278 183" fill="none" stroke="#713d38" stroke-linecap="round" stroke-linejoin="round" stroke-width="3" /></svg>