<?xml version="1.0" encoding="utf-8" ?>
<svg baseProfile="full" height="682" version="1.1" viewBox="0 0 512 682" width="512" xmlns="http://www.w3.org/2000/svg" xmlns:ev="http://www.w3.org/2001/xml-events" xmlns:xlink="http://www.w3.org/1999/xlink"><defs /><rect fill="#edc9a4" height="48" rx="12" stroke="#6f6258" stroke-linecap="round" stroke-linejoin="round" stroke-width="2" width="40" x="237" y="208" /><ellipse cx="257" cy="144.5" fill="#f5d1ac" rx="49.5" ry="69.5" stroke="#2f2925" stroke-linecap="round" stroke-linejoin="round" stroke-width="3" /><ellipse cx="203.5" cy="145" fill="#f5d1ac" rx="12" ry="16" stroke="#6f6258" stroke-linecap="round" stroke-linejoin="round" stroke-width="2" /><ellipse cx="310.5" cy="145" fill="#f5d1ac" rx="12" ry="16" stroke="#6f6258" stroke-linecap="round" stroke-linejoin="round" stroke-width="2" /><ellipse cx="257" cy="91" fill="#22363d" rx="65.5" ry="50" stroke="#2f2925" stroke-linecap="round" stroke-linejoin="round" stroke-width="3" /><path d="M 245 57 L 259 23 L 275 65 Z" fill="#22363d" stroke="#2f2925" stroke-linecap="round" stroke-linejoin="round" stroke-width="2" /><path d="M 213.5 87 L 230.5 87 L 220.5 140 Z" fill="#22363d" stroke="#061a21" stroke-linecap="round" stroke-linejoin="round" stroke-width="1.5" /><path d="M 231.25 87 L 248.25 87 L 255.25 153 Z" fill="#22363d" stroke="#061a21" stroke-linecap="round" stroke-linejoin="round" stroke-width="1.5" /><path d="M 249.0 87 L 266.0 87 L 249.0 140 Z" fill="#22363d" stroke="#061a21" stroke-linecap="round" stroke-linejoin="round" stroke-width="1.5" /><path d="M 266.75 87 L 283.75 87 L 289.75 149 Z" fill="#22363d" stroke="#061a21" stroke-linecap="round" stroke-linejoin="round" stroke-width="1.5" /><path d="M 284.5 87 L 301.5 87 L 277.5 153 Z" fill="#22363d" stroke="#061a21" stroke-linecap="round" stroke-linejoin="round" stroke-width="1.5" /><ellipse cx="229" cy="151" fill="#faf7ef" rx="17" ry="10" stroke="#2f2925" stroke-linecap="round" stroke-linejoin="round" stroke-width="2" /><circle cx="227" cy="152" fill="#496c48" r="5" stroke="#2f2925" stroke-width="1.2" /><path d="M 247 137 Q 229 130 210 137" fill="none" stroke="#2f2925" stroke-linecap="round" stroke-width="3" /><ellipse cx="285" cy="151" fill="#faf7ef" rx="17" ry="10" stroke="#2f2925" stroke-linecap="round" stroke-linejoin="round" stroke-width="2" /><circle cx="287" cy="152" fill="#496c48" r="5" stroke="#2f2925" stroke-width="1.2" /><path d="M 267 137 Q 285 130 304 137" fill="none" stroke="#2f2925" stroke-linecap="round" stroke-width="3" /><path d="M 257 163 L 253 182 L 261 182" fill="none" stroke="#cba782" stroke-linejoin="round" stroke-width="2" /><path d="M 239 197 Q 257 207 277 197" fill="none" stroke="#7a423c" stroke-linecap="round" stroke-width="2.4" /><ellipse cx="190.5" cy="183" fill="#c99a42" rx="5" ry="10" stroke="#2f2925" stroke-width="2" /><ellipse cx="323.5" cy="183" fill="#c99a42" rx="5" ry="10" stroke="#2f2925" stroke-width="2" /></svg>