<?xml version="1.0" encoding="utf-8" ?>
<svg baseProfile="full" height="682" version="1.1" viewBox="0 0 512 682" width="512" xmlns="http://www.w3.org/2000/svg" xmlns:ev="http://www.w3.org/2001/xml-events" xmlns:xlink="http://www.w3.org/1999/xlink"><defs /><rect fill="#e9b583" height="48" rx="12" stroke="#6f6258" stroke-linecap="round" stroke-linejoin="round" stroke-width="2" width="40" x="236" y="199" /><ellipse cx="256" cy="141.5" fill="#f1bd8b" rx="48.5" ry="63.5" stroke="#2f2925" stroke-linecap="round" stroke-linejoin="round" stroke-width="3" /><ellipse cx="203.5" cy="148" fill="#f1bd8b" rx="12" ry="16" stroke="#6f6258" stroke-linecap="round" stroke-linejoin="round" stroke-width="2" /><ellipse cx="308.5" cy="148" fill="#f1bd8b" rx="12" ry="16" stroke="#6f6258" stroke-linecap="round" stroke-linejoin="round" stroke-width="2" /><path d="M 187.5 110 Q 256 42 324.5 110 L 320.5 148 Q 256 108 191.5 148 Z" fill="#322721" stroke="#2f2925" stroke-linecap="round" stroke-linejoin="round" stroke-width="3" /><path d="M 213.5 90 L 230.5 90 L 224.5 154 Z" fill="#322721" stroke="#160b05" stroke-linecap="round" stroke-linejoin="round" stroke-width="1.5" /><path d="M 230.75 90 L 247.75 90 L 243.75 154 Z" fill="#322721" stroke="#160b05" stroke-linecap="round" stroke-linejoin="round" stroke-width="1.5" /><path d="M 248.0 90 L 265.0 90 L 248.0 157 Z" fill="#322721" stroke="#160b05" stroke-linecap="round" stroke-linejoin="round" stroke-width="1.5" /><path d="M 265.25 90 L 282.25 90 L 271.25 142 Z" fill="#322721" stroke="#160b05" stroke-linecap="round" stroke-linejoin="round" stroke-width="1.5" /><path d="M 282.5 90 L 299.5 90 L 280.5 151 Z" fill="#322721" stroke="#160b05" stroke-linecap="round" stroke-linejoin="round" stroke-width="1.5" /><ellipse cx="228" cy="154" fill="#faf7ef" rx="17" ry="10" stroke="#2f2925" stroke-linecap="round" stroke-linejoin="round" stroke-width="2" /><circle cx="226" cy="155" fill="#3f5f7b" r="5" stroke="#2f2925" stroke-width="1.2" /><path d="M 246 140 Q 228 133 209 140" fill="none" stroke="#2f2925" stroke-linecap="round" stroke-width="3" /><ellipse cx="284" cy="154" fill="#faf7ef" rx="17" ry="10" stroke="#2f2925" stroke-linecap="round" stroke-linejoin="round" stroke-width="2" /><circle cx="286" cy="155" fill="#3f5f7b" r="5" stroke="#2f2925" stroke-width="1.2" /><path d="M 266 140 Q 284 133 303 140" fill="none" stroke="#2f2925" stroke-linecap="round" stroke-width="3" /><path d="M 256 166 L 252 185 L 260 185" fill="none" stroke="#c79361" stroke-linejoin="round" stroke-width="2" /><path d="M 238 200 Q 256 210 276 200" fill="none" stroke="#7a423c" stroke-linecap="round" stroke-width="2.4" /><ellipse cx="190.5" cy="186" fill="#c99a42" rx="5" ry="10" stroke="#2f2925" stroke-width="2" /><ellipse cx="321.5" cy="186" fill="#c99a42" rx="5" ry="10" stroke="#2f2925" stroke-width="2" /></svg>