<?xml version="1.0" encoding="utf-8" ?>
<svg baseProfile="full" height="682" version="1.1" viewBox="0 0 512 682" width="512" xmlns="http://www.w3.org/2000/svg" xmlns:ev="http://www.w3.org/2001/xml-events" xmlns:xlink="http://www.w3.org/1999/xlink"><defs /><rect fill="#d18955" height="48" rx="12" stroke="#6f6258" stroke-linecap="round" stroke-linejoin="round" stroke-width="2" width="40" x="233" y="213" /><ellipse cx="253" cy="149.5" fill="#d9915d" rx="53.5" ry="69.5" stroke="#2f2925" stroke-linecap="round" stroke-linejoin="round" stroke-width="3" /><ellipse cx="195.5" cy="150" fill="#d9915d" rx="12" ry="16" stroke="#6f6258" stroke-linecap="round" stroke-linejoin="round" stroke-width="2" /><ellipse cx="310.5" cy="150" fill="#d9915d" rx="12" ry="16" stroke="#6f6258" stroke-linecap="round" stroke-linejoin="round" stroke-width="2" /><rect fill="#d89447" height="72" rx="28" stroke="#2f2925" stroke-linecap="round" stroke-linejoin="round" stroke-width="3" width="133" x="186.5" y="62" /><rect fill="#d89447" height="34" stroke="#d89447" stroke-linecap="round" stroke-linejoin="round" stroke-width="1" width="127" x="189.5" y="110" /><path d="M 205.5 92 L 222.5 92 L 209.5 153 Z" fill="#d89447" stroke="#bc782b" stroke-linecap="round" stroke-linejoin="round" stroke-width="1.5" /><path d="M 221.3 92 L 238.3 92 L 232.3 159 Z" fill="#d89447" stroke="#bc782b" stroke-linecap="round" stroke-linejoin="round" stroke-width="1.5" /><path d="M 237.1 92 L 254.1 92 L 231.1 157 Z" fill="#d89447" stroke="#bc782b" stroke-linecap="round" stroke-linejoin="round" stroke-width="1.5" /><path d="M 252.89999999999998 92 L 269.9 92 L 265.9 154 Z" fill="#d89447" stroke="#bc782b" stroke-linecap="round" stroke-linejoin="round" stroke-width="1.5" /><path d="M 268.7 92 L 285.7 92 L 269.7 154 Z" fill="#d89447" stroke="#bc782b" stroke-linecap="round" stroke-linejoin="round" stroke-width="1.5" /><path d="M 284.5 92 L 301.5 92 L 282.5 148 Z" fill="#d89447" stroke="#bc782b" stroke-linecap="round" stroke-linejoin="round" stroke-width="1.5" /><ellipse cx="225" cy="156" fill="#faf7ef" rx="17" ry="10" stroke="#2f2925" stroke-linecap="round" stroke-linejoin="round" stroke-width="2" /><circle cx="223" cy="157" fill="#56406e" r="5" stroke="#2f2925" stroke-width="1.2" /><path d="M 243 142 Q 225 135 206 142" fill="none" stroke="#2f2925" stroke-linecap="round" stroke-width="3" /><ellipse cx="281" cy="156" fill="#faf7ef" rx="17" ry="10" stroke="#2f2925" stroke-linecap="round" stroke-linejoin="round" stroke-width="2" /><circle cx="283" cy="157" fill="#56406e" r="5" stroke="#2f2925" stroke-width="1.2" /><path d="M 263 142 Q 281 135 300 142" fill="none" stroke="#2f2925" stroke-linecap="round" stroke-width="3" /><path d="M 253 168 L 249 187 L 257 187" fill="none" stroke="#af6733" stroke-linejoin="round" stroke-width="2" /><path d="M 235 202 Q 253 212 273 202" fill="none" stroke="#7a423c" stroke-linecap="round" stroke-width="2.4" /></svg>