<?xml version="1.0" encoding="utf-8" ?>
<svg baseProfile="full" height="682" version="1.1" viewBox="0 0 512 682" width="512" xmlns="http://www.w3.org/2000/svg" xmlns:ev="http://www.w3.org/2001/xml-events" xmlns:xlink="http://www.w3.org/1999/xlink"><defs /><rect fill="#edc9a4" height="48" rx="12" stroke="#6f6258" stroke-linecap="round" stroke-linejoin="round" stroke-width="2" width="40" x="233" y="205" /><ellipse cx="253" cy="145.5" fill="#f5d1ac" rx="50.5" ry="65.5" stroke="#2f2925" stroke-linecap="round" stroke-linejoin="round" stroke-width="3" /><ellipse cx="198.5" cy="150" fill="#f5d1ac" rx="12" ry="16" stroke="#6f6258" stroke-linecap="round" stroke-linejoin="round" stroke-width="2" /><ellipse cx="307.5" cy="150" fill="#f5d1ac" rx="12" ry="16" stroke="#6f6258" stroke-linecap="round" stroke-linejoin="round" stroke-width="2" /><ellipse cx="253" cy="96" fill="#a35c34" rx="66.5" ry="50" stroke="#2f2925" stroke-linecap="round" stroke-linejoin="round" stroke-width="3" /><path d="M 241 62 L 255 28 L 271 70 Z" fill="#a35c34" stroke="#2f2925" stroke-linecap="round" stroke-linejoin="round" stroke-width="2" /><path d="M 208.5 92 L 225.5 92 L 214.5 144 Z" fill="#a35c34" stroke="#874018" stroke-linecap="round" stroke-linejoin="round" stroke-width="1.5" /><path d="M 226.75 92 L 243.75 92 L 241.75 142 Z" fill="#a35c34" stroke="#874018" stroke-linecap="round" stroke-linejoin="round" stroke-width="1.5" /><path d="M 245.0 92 L 262.0 92 L 264.0 151 Z" fill="#a35c34" stroke="#874018" stroke-linecap="round" stroke-linejoin="round" stroke-width="1.5" /><path d="M 263.25 92 L 280.25 92 L 270.25 153 Z" fill="#a35c34" stroke="#874018" stroke-linecap="round" stroke-linejoin="round" stroke-width="1.5" /><path d="M 281.5 92 L 298.5 92 L 285.5 155 Z" fill="#a35c34" stroke="#874018" stroke-linecap="round" stroke-linejoin="round" stroke-width="1.5" /><ellipse cx="225" cy="156" fill="#faf7ef" rx="17" ry="10" stroke="#2f2925" stroke-linecap="round" stroke-linejoin="round" stroke-width="2" /><circle cx="223" cy="157" fill="#496c48" r="5" stroke="#2f2925" stroke-width="1.2" /><path d="M 243 142 Q 225 135 206 142" fill="none" stroke="#2f2925" stroke-linecap="round" stroke-width="3" /><ellipse cx="281" cy="156" fill="#faf7ef" rx="17" ry="10" stroke="#2f2925" stroke-linecap="round" stroke-linejoin="round" stroke-width="2" /><circle cx="283" cy="157" fill="#496c48" r="5" stroke="#2f2925" stroke-width="1.2" /><path d="M 263 142 Q 281 135 300 142" fill="none" stroke="#2f2925" stroke-linecap="round" stroke-width="3" /><path d="M 253 168 L 249 187 L 257 187" fill="none" stroke="#cba782" stroke-linejoin="round" stroke-width="2" /><path d="M 235 202 Q 253 212 273 202" fill="none" stroke="#7a423c" stroke-linecap="round" stroke-width="2.4" /><ellipse cx="185.5" cy="188" fill="#c99a42" rx="5" ry="10" stroke="#2f2925" stroke-width="2" /><ellipse cx="320.5" cy="188" fill="#c99a42" rx="5" ry="10" stroke="#2f2925" stroke-width="2" /></svg>