<?xml version="1.0" encoding="utf-8" ?>
<svg baseProfile="full" height="682" version="1.1" viewBox="0 0 512 682" width="512" xmlns="http://www.w3.org/2000/svg" xmlns:ev="http://www.w3.org/2001/xml-events" xmlns:xlink="http://www.w3.org/1999/xlink"><defs /><rect fill="#ecc8a3" height="58" rx="12" stroke="#74675d" stroke-linecap="round" stroke-linejoin="round" stroke-width="2" width="38" x="240.0" y="197" /><rect fill="#c47235" height="101.4" rx="34" stroke="#2f2925" stroke-linecap="round" stroke-linejoin="round" stroke-width="3" width="150" x="184.0" y="58" /><rect fill="#c47235" height="40" rx="8" stroke="#c47235" stroke-width="1" width="132" x="193.0" y="118" /><ellipse cx="259" cy="151.0" fill="#f4d0ab" rx="58.0" ry="65.0" stroke="#2f2925" stroke-linecap="round" stroke-linejoin="round" stroke-width="3" /><ellipse cx="197.0" cy="148" fill="#f4d0ab" rx="10" ry="15" stroke="#74675d" stroke-linecap="round" stroke-linejoin="round" stroke-width="2" /><ellipse cx="321.0" cy="148" fill="#f4d0ab" rx="10" ry="15" stroke="#74675d" stroke-linecap="round" stroke-linejoin="round" stroke-width="2" /><ellipse cx="230" cy="152" fill="#fbf8ef" rx="18" ry="12" stroke="#2f2925" stroke-linecap="round" stroke-linejoin="round" stroke-width="2.2" /><circle cx="228" cy="153" fill="#334e67" r="4.8" stroke="#2f2925" stroke-width="1.2" /><path d="M 248 134 Q 230 124 212 134" fill="none" stroke="#2f2925" stroke-linecap="round" stroke-linejoin="round" stroke-width="3" /><ellipse cx="288" cy="152" fill="#fbf8ef" rx="18" ry="12" stroke="#2f2925" stroke-linecap="round" stroke-linejoin="round" stroke-width="2.2" /><circle cx="290" cy="153" fill="#334e67" r="4.8" stroke="#2f2925" stroke-width="1.2" /><path d="M 270 134 Q 288 124 306 134" fill="none" stroke="#2f2925" stroke-linecap="round" stroke-linejoin="round" stroke-width="3" /><path d="M 261 164 L 254 178 L 265 179" fill="none" stroke="#c8a47f" stroke-linecap="round" stroke-linejoin="round" stroke-width="2" /><ellipse cx="259" cy="201" fill="#6c3734" rx="12" ry="16" stroke="#2f2925" stroke-width="2" /></svg>