<?xml version="1.0" encoding="utf-8" ?>
<svg baseProfile="full" height="682" version="1.1" viewBox="0 0 512 682" width="512" xmlns="http://www.w3.org/2000/svg" xmlns:ev="http://www.w3.org/2001/xml-events" xmlns:xlink="http://www.w3.org/1999/xlink"><defs /><rect fill="#ae653d" height="48" rx="12" stroke="#6f6258" stroke-linecap="round" stroke-linejoin="round" stroke-width="2" width="40" x="234" y="199" /><ellipse cx="254" cy="141.0" fill="#b66d45" rx="53.0" ry="64.0" stroke="#2f2925" stroke-linecap="round" stroke-linejoin="round" stroke-width="3" /><ellipse cx="197.0" cy="147" fill="#b66d45" rx="12" ry="16" stroke="#6f6258" stroke-linecap="round" stroke-linejoin="round" stroke-width="2" /><ellipse cx="311.0" cy="147" fill="#b66d45" rx="12" ry="16" stroke="#6f6258" stroke-linecap="round" stroke-linejoin="round" stroke-width="2" /><ellipse cx="196" cy="104.0" fill="#dfdacd" rx="24" ry="22" stroke="#2f2925" stroke-linecap="round" stroke-linejoin="round" stroke-width="2" /><ellipse cx="212" cy="98.0" fill="#dfdacd" rx="24" ry="22" stroke="#2f2925" stroke-linecap="round" stroke-linejoin="round" stroke-width="2" /><ellipse cx="228" cy="92.0" fill="#dfdacd" rx="24" ry="22" stroke="#2f2925" stroke-linecap="round" stroke-linejoin="round" stroke-width="2" /><ellipse cx="244" cy="86.0" fill="#dfdacd" rx="24" ry="22" stroke="#2f2925" stroke-linecap="round" stroke-linejoin="round" stroke-width="2" /><ellipse cx="260" cy="86.0" fill="#dfdacd" rx="24" ry="22" stroke="#2f2925" stroke-linecap="round" stroke-linejoin="round" stroke-width="2" /><ellipse cx="276" cy="92.0" fill="#dfdacd" rx="24" ry="22" stroke="#2f2925" stroke-linecap="round" stroke-linejoin="round" stroke-width="2" /><ellipse cx="292" cy="98.0" fill="#dfdacd" rx="24" ry="22" stroke="#2f2925" stroke-linecap="round" stroke-linejoin="round" stroke-width="2" /><ellipse cx="308" cy="104.0" fill="#dfdacd" rx="24" ry="22" stroke="#2f2925" stroke-linecap="round" stroke-linejoin="round" stroke-width="2" /><path d="M 207.0 89 L 224.0 89 L 222.0 145 Z" fill="#dfdacd" stroke="#c3beb1" stroke-linecap="round" stroke-linejoin="round" stroke-width="1.5" /><path d="M 220.0 89 L 237.0 89 L 226.0 148 Z" fill="#dfdacd" stroke="#c3beb1" stroke-linecap="round" stroke-linejoin="round" stroke-width="1.5" /><path d="M 233.0 89 L 250.0 89 L 225.0 144 Z" fill="#dfdacd" stroke="#c3beb1" stroke-linecap="round" stroke-linejoin="round" stroke-width="1.5" /><path d="M 246.0 89 L 263.0 89 L 247.0 139 Z" fill="#dfdacd" stroke="#c3beb1" stroke-linecap="round" stroke-linejoin="round" stroke-width="1.5" /><path d="M 259.0 89 L 276.0 89 L 271.0 146 Z" fill="#dfdacd" stroke="#c3beb1" stroke-linecap="round" stroke-linejoin="round" stroke-width="1.5" /><path d="M 272.0 89 L 289.0 89 L 282.0 140 Z" fill="#dfdacd" stroke="#c3beb1" stroke-linecap="round" stroke-linejoin="round" stroke-width="1.5" /><path d="M 285.0 89 L 302.0 89 L 284.0 154 Z" fill="#dfdacd" stroke="#c3beb1" stroke-linecap="round" stroke-linejoin="round" stroke-width="1.5" /><ellipse cx="226" cy="153" fill="#faf7ef" rx="17" ry="10" stroke="#2f2925" stroke-linecap="round" stroke-linejoin="round" stroke-width="2" /><circle cx="224" cy="154" fill="#6b4632" r="5" stroke="#2f2925" stroke-width="1.2" /><path d="M 244 139 Q 226 132 207 139" fill="none" stroke="#2f2925" stroke-linecap="round" stroke-width="3" /><ellipse cx="282" cy="153" fill="#faf7ef" rx="17" ry="10" stroke="#2f2925" stroke-linecap="round" stroke-linejoin="round" stroke-width="2" /><circle cx="284" cy="154" fill="#6b4632" r="5" stroke="#2f2925" stroke-width="1.2" /><path d="M 264 139 Q 282 132 301 139" fill="none" stroke="#2f2925" stroke-linecap="round" stroke-width="3" /><path d="M 254 165 L 250 184 L 258 184" fill="none" stroke="#8c431b" stroke-linejoin="round" stroke-width="2" /><path d="M 236 199 Q 254 209 274 199" fill="none" stroke="#7a423c" stroke-linecap="round" stroke-width="2.4" /></svg>