<?xml version="1.0" encoding="utf-8" ?>
<svg baseProfile="full" height="682" version="1.1" viewBox="0 0 512 682" width="512" xmlns="http://www.w3.org/2000/svg" xmlns:ev="http://www.w3.org/2001/xml-events" xmlns:xlink="http://www.w3.org/1999/xlink"><defs /><rect fill="#ecc8a3" height="58" rx="12" stroke="#74675d" stroke-linecap="round" stroke-linejoin="round" stroke-width="2" width="38" x="237.0" y="192" /><path d="M 184.0 104 Q 256 39 331.0 104 L 319.0 145 Q 256 109 191.0 145 Z" fill="#15191d" stroke="#2f2925" stroke-linecap="round" stroke-linejoin="round" stroke-width="3" /><rect fill="#f4d0ab" height="126" rx="18" stroke="#2f2925" stroke-linecap="round" stroke-linejoin="round" stroke-width="3" width="114" x="199.0" y="89" /><ellipse cx="195.0" cy="147" fill="#f4d0ab" rx="10" ry="15" stroke="#74675d" stroke-linecap="round" stroke-linejoin="round" stroke-width="2" /><ellipse cx="317.0" cy="147" fill="#f4d0ab" rx="10" ry="15" stroke="#74675d" stroke-linecap="round" stroke-linejoin="round" stroke-width="2" /><ellipse cx="227" cy="151" fill="#fbf8ef" rx="16" ry="5" stroke="#2f2925" stroke-linecap="round" stroke-linejoin="round" stroke-width="2.2" /><circle cx="225" cy="152" fill="#8a5d2a" r="4.8" stroke="#2f2925" stroke-width="1.2" /><line stroke="#2f2925" stroke-linecap="round" stroke-width="6" x1="247" x2="208" y1="129" y2="136" /><ellipse cx="285" cy="151" fill="#fbf8ef" rx="16" ry="5" stroke="#2f2925" stroke-linecap="round" stroke-linejoin="round" stroke-width="2.2" /><circle cx="287" cy="152" fill="#8a5d2a" r="4.8" stroke="#2f2925" stroke-width="1.2" /><line stroke="#2f2925" stroke-linecap="round" stroke-width="6" x1="265" x2="304" y1="129" y2="136" /><path d="M 258 163 L 251 177 L 262 178" fill="none" stroke="#c8a47f" stroke-linecap="round" stroke-linejoin="round" stroke-width="2" /><path d="M 239 195 Q 258 204 280 190" fill="none" stroke="#713d38" stroke-linecap="round" stroke-linejoin="round" stroke-width="3" /><circle cx="234" cy="173" fill="#b95a58" opacity="0.82" r="4" /><circle cx="247" cy="183" fill="#b95a58" opacity="0.82" r="3" /><circle cx="275" cy="177" fill="#b95a58" opacity="0.82" r="3.5" /><circle cx="263" cy="195" fill="#b95a58" opacity="0.82" r="3" /><circle cx="285" cy="190" fill="#b95a58" opacity="0.82" r="2.6" /><rect fill="none" height="22" rx="10" stroke="#2f2925" stroke-width="3" width="90" x="211" y="141" /><line stroke="#2f2925" stroke-linecap="round" stroke-width="2" x1="248" x2="264" y1="152" y2="152" /></svg>