<?xml version="1.0" encoding="utf-8" ?>
<svg baseProfile="full" height="682" version="1.1" viewBox="0 0 512 682" width="512" xmlns="http://www.w3.org/2000/svg" xmlns:ev="http://www.w3.org/2001/xml-events" xmlns:xlink="http://www.w3.org/1999/xlink"><defs /><rect fill="#d18955" height="48" rx="12" stroke="#6f6258" stroke-linecap="round" stroke-linejoin="round" stroke-width="2" width="40" x="235" y="207" /><ellipse cx="255" cy="143.5" fill="#d9915d" rx="57.0" ry="69.5" stroke="#2f2925" stroke-linecap="round" stroke-linejoin="round" stroke-width="3" /><ellipse cx="194.0" cy="144" fill="#d9915d" rx="12" ry="16" stroke="#6f6258" stroke-linecap="round" stroke-linejoin="round" stroke-width="2" /><ellipse cx="316.0" cy="144" fill="#d9915d" rx="12" ry="16" stroke="#6f6258" stroke-linecap="round" stroke-linejoin="round" stroke-width="2" /><rect fill="#a35c34" height="72" rx="28" stroke="#2f2925" stroke-linecap="round" stroke-linejoin="round" stroke-width="3" width="140" x="185.0" y="56" /><rect fill="#a35c34" height="34" stroke="#a35c34" stroke-linecap="round" stroke-linejoin="round" stroke-width="1" width="134" x="188.0" y="104" /><path d="M 204.0 86 L 221.0 86 L 227.0 146 Z" fill="#a35c34" stroke="#874018" stroke-linecap="round" stroke-linejoin="round" stroke-width="1.5" /><path d="M 221.2 86 L 238.2 86 L 216.2 151 Z" fill="#a35c34" stroke="#874018" stroke-linecap="round" stroke-linejoin="round" stroke-width="1.5" /><path d="M 238.4 86 L 255.4 86 L 254.4 152 Z" fill="#a35c34" stroke="#874018" stroke-linecap="round" stroke-linejoin="round" stroke-width="1.5" /><path d="M 255.60000000000002 86 L 272.6 86 L 273.6 150 Z" fill="#a35c34" stroke="#874018" stroke-linecap="round" stroke-linejoin="round" stroke-width="1.5" /><path d="M 272.8 86 L 289.8 86 L 285.8 145 Z" fill="#a35c34" stroke="#874018" stroke-linecap="round" stroke-linejoin="round" stroke-width="1.5" /><path d="M 290.0 86 L 307.0 86 L 292.0 137 Z" fill="#a35c34" stroke="#874018" stroke-linecap="round" stroke-linejoin="round" stroke-width="1.5" /><ellipse cx="227" cy="150" fill="#faf7ef" rx="17" ry="10" stroke="#2f2925" stroke-linecap="round" stroke-linejoin="round" stroke-width="2" /><circle cx="225" cy="151" fill="#496c48" r="5" stroke="#2f2925" stroke-width="1.2" /><path d="M 245 136 Q 227 129 208 136" fill="none" stroke="#2f2925" stroke-linecap="round" stroke-width="3" /><ellipse cx="283" cy="150" fill="#faf7ef" rx="17" ry="10" stroke="#2f2925" stroke-linecap="round" stroke-linejoin="round" stroke-width="2" /><circle cx="285" cy="151" fill="#496c48" r="5" stroke="#2f2925" stroke-width="1.2" /><path d="M 265 136 Q 283 129 302 136" fill="none" stroke="#2f2925" stroke-linecap="round" stroke-width="3" /><path d="M 255 162 L 251 181 L 259 181" fill="none" stroke="#af6733" stroke-linejoin="round" stroke-width="2" /><path d="M 237 196 Q 255 206 275 196" fill="none" stroke="#7a423c" stroke-linecap="round" stroke-width="2.4" /></svg>