<?xml version="1.0" encoding="utf-8" ?>
<svg baseProfile="full" height="682" version="1.1" viewBox="0 0 512 682" width="512" xmlns="http://www.w3.org/2000/svg" xmlns:ev="http://www.w3.org/2001/xml-events" xmlns:xlink="http://www.w3.org/1999/xlink"><defs /><rect fill="#edc9a4" height="48" rx="12" stroke="#6f6258" stroke-linecap="round" stroke-linejoin="round" stroke-width="2" width="40" x="234" y="200" /><ellipse cx="254" cy="143.0" fill="#f5d1ac" rx="48.5" ry="63.0" stroke="#2f2925" stroke-linecap="round" stroke-linejoin="round" stroke-width="3" /><ellipse cx="201.5" cy="150" fill="#f5d1ac" rx="12" ry="16" stroke="#6f6258" stroke-linecap="round" stroke-linejoin="round" stroke-width="2" /><ellipse cx="306.5" cy="150" fill="#f5d1ac" rx="12" ry="16" stroke="#6f6258" stroke-linecap="round" stroke-linejoin="round" stroke-width="2" /><ellipse cx="254" cy="96" fill="#d89447" rx="64.5" ry="50" stroke="#2f2925" stroke-linecap="round" stroke-linejoin="round" stroke-width="3" /><path d="M 242 62 L 256 28 L 272 70 Z" fill="#d89447" stroke="#2f2925" stroke-linecap="round" stroke-linejoin="round" stroke-width="2" /><path d="M 211.5 92 L 228.5 92 L 214.5 146 Z" fill="#d89447" stroke="#bc782b" stroke-linecap="round" stroke-linejoin="round" stroke-width="1.5" /><path d="M 228.75 92 L 245.75 92 L 245.75 148 Z" fill="#d89447" stroke="#bc782b" stroke-linecap="round" stroke-linejoin="round" stroke-width="1.5" /><path d="M 246.0 92 L 263.0 92 L 255.0 153 Z" fill="#d89447" stroke="#bc782b" stroke-linecap="round" stroke-linejoin="round" stroke-width="1.5" /><path d="M 263.25 92 L 280.25 92 L 257.25 144 Z" fill="#d89447" stroke="#bc782b" stroke-linecap="round" stroke-linejoin="round" stroke-width="1.5" /><path d="M 280.5 92 L 297.5 92 L 295.5 152 Z" fill="#d89447" stroke="#bc782b" stroke-linecap="round" stroke-linejoin="round" stroke-width="1.5" /><ellipse cx="226" cy="156" fill="#faf7ef" rx="17" ry="10" stroke="#2f2925" stroke-linecap="round" stroke-linejoin="round" stroke-width="2" /><circle cx="224" cy="157" fill="#56406e" r="5" stroke="#2f2925" stroke-width="1.2" /><path d="M 244 142 Q 226 135 207 142" fill="none" stroke="#2f2925" stroke-linecap="round" stroke-width="3" /><ellipse cx="282" cy="156" fill="#faf7ef" rx="17" ry="10" stroke="#2f2925" stroke-linecap="round" stroke-linejoin="round" stroke-width="2" /><circle cx="284" cy="157" fill="#56406e" r="5" stroke="#2f2925" stroke-width="1.2" /><path d="M 264 142 Q 282 135 301 142" fill="none" stroke="#2f2925" stroke-linecap="round" stroke-width="3" /><path d="M 254 168 L 250 187 L 258 187" fill="none" stroke="#cba782" stroke-linejoin="round" stroke-width="2" /><path d="M 236 202 Q 254 212 274 202" fill="none" stroke="#7a423c" stroke-linecap="round" stroke-width="2.4" /><ellipse cx="188.5" cy="188" fill="#c99a42" rx="5" ry="10" stroke="#2f2925" stroke-width="2" /><ellipse cx="319.5" cy="188" fill="#c99a42" rx="5" ry="10" stroke="#2f2925" stroke-width="2" /></svg>