<?xml version="1.0" encoding="utf-8" ?>
<svg baseProfile="full" height="682" version="1.1" viewBox="0 0 512 682" width="512" xmlns="http://www.w3.org/2000/svg" xmlns:ev="http://www.w3.org/2001/xml-events" xmlns:xlink="http://www.w3.org/1999/xlink"><defs /><rect fill="#754a32" height="58" rx="12" stroke="#74675d" stroke-linecap="round" stroke-linejoin="round" stroke-width="2" width="38" x="240.0" y="211" /><path d="M 207.5 124 Q 259 54 310.5 124 Q 279 105 259 106 Q 239 105 207.5 124 Z" fill="#15191d" stroke="#2f2925" stroke-linecap="round" stroke-linejoin="round" stroke-width="3" /><ellipse cx="259" cy="158.0" fill="#7d523a" rx="47.5" ry="72.0" stroke="#2f2925" stroke-linecap="round" stroke-linejoin="round" stroke-width="3" /><ellipse cx="207.5" cy="148" fill="#7d523a" rx="10" ry="15" stroke="#74675d" stroke-linecap="round" stroke-linejoin="round" stroke-width="2" /><ellipse cx="310.5" cy="148" fill="#7d523a" rx="10" ry="15" stroke="#74675d" stroke-linecap="round" stroke-linejoin="round" stroke-width="2" /><path d="M 214 152 Q 230 156 246 152" fill="none" stroke="#2f2925" stroke-linecap="round" stroke-linejoin="round" stroke-width="2.4" /><line stroke="#2f2925" stroke-linecap="round" stroke-width="3" x1="212" x2="248" y1="135" y2="135" /><path d="M 272 152 Q 288 156 304 152" fill="none" stroke="#2f2925" stroke-linecap="round" stroke-linejoin="round" stroke-width="2.4" /><line stroke="#2f2925" stroke-linecap="round" stroke-width="3" x1="270" x2="306" y1="135" y2="135" /><path d="M 261 164 L 254 183 L 265 184" fill="none" stroke="#51260e" stroke-linecap="round" stroke-linejoin="round" stroke-width="2" /><line stroke="#713d38" stroke-linecap="round" stroke-width="2" x1="244" x2="274" y1="213" y2="213" /><rect fill="none" height="22" rx="10" stroke="#2f2925" stroke-width="3" width="90" x="214" y="142" /><line stroke="#2f2925" stroke-linecap="round" stroke-width="2" x1="251" x2="267" y1="153" y2="153" /></svg>