<?xml version="1.0" encoding="utf-8" ?>
<svg baseProfile="full" height="682" version="1.1" viewBox="0 0 512 682" width="512" xmlns="http://www.w3.org/2000/svg" xmlns:ev="http://www.w3.org/2001/xml-events" xmlns:xlink="http://www.w3.org/1999/xlink"><defs /><rect fill="#754a32" height="58" rx="12" stroke="#74675d" stroke-linecap="round" stroke-linejoin="round" stroke-width="2" width="46" x="234.0" y="191" /><rect fill="#8e4d2e" height="94.38000000000001" rx="34" stroke="#2f2925" stroke-linecap="round" stroke-linejoin="round" stroke-width="3" width="160" x="177.0" y="61" /><rect fill="#8e4d2e" height="40" rx="8" stroke="#8e4d2e" stroke-width="1" width="142" x="186.0" y="121" /><ellipse cx="257" cy="149.5" fill="#7d523a" rx="63.0" ry="60.5" stroke="#2f2925" stroke-linecap="round" stroke-linejoin="round" stroke-width="3" /><ellipse cx="190.0" cy="151" fill="#7d523a" rx="10" ry="15" stroke="#74675d" stroke-linecap="round" stroke-linejoin="round" stroke-width="2" /><ellipse cx="324.0" cy="151" fill="#7d523a" rx="10" ry="15" stroke="#74675d" stroke-linecap="round" stroke-linejoin="round" stroke-width="2" /><ellipse cx="228" cy="155" fill="#fbf8ef" rx="16" ry="9" stroke="#2f2925" stroke-linecap="round" stroke-linejoin="round" stroke-width="2.2" /><circle cx="226" cy="156" fill="#3f633f" r="4.8" stroke="#2f2925" stroke-width="1.2" /><path d="M 246 137 Q 228 127 210 137" fill="none" stroke="#2f2925" stroke-linecap="round" stroke-linejoin="round" stroke-width="3" /><ellipse cx="286" cy="155" fill="#fbf8ef" rx="16" ry="9" stroke="#2f2925" stroke-linecap="round" stroke-linejoin="round" stroke-width="2.2" /><circle cx="288" cy="156" fill="#3f633f" r="4.8" stroke="#2f2925" stroke-width="1.2" /><path d="M 268 137 Q 286 127 304 137" fill="none" stroke="#2f2925" stroke-linecap="round" stroke-linejoin="round" stroke-width="3" /><path d="M 259 167 L 252 181 L 263 182" fill="none" stroke="#51260e" stroke-linecap="round" stroke-linejoin="round" stroke-width="2" /><path d="M 235 189 Q 257 210 280 189" fill="none" stroke="#8a443d" stroke-linecap="round" stroke-linejoin="round" stroke-width="3" /><circle cx="224" cy="167" fill="#b95a58" opacity="0.8" r="3.2" /><circle cx="216" cy="182" fill="#b95a58" opacity="0.8" r="3.2" /><circle cx="231" cy="191" fill="#b95a58" opacity="0.8" r="3.2" /><circle cx="290" cy="167" fill="#b95a58" opacity="0.8" r="3.2" /><circle cx="298" cy="182" fill="#b95a58" opacity="0.8" r="3.2" /><circle cx="283" cy="191" fill="#b95a58" opacity="0.8" r="3.2" /></svg>