<?xml version="1.0" encoding="utf-8" ?>
<svg baseProfile="full" height="682" version="1.1" viewBox="0 0 512 682" width="512" xmlns="http://www.w3.org/2000/svg" xmlns:ev="http://www.w3.org/2001/xml-events" xmlns:xlink="http://www.w3.org/1999/xlink"><defs /><rect fill="#9f5c3b" height="58" rx="12" stroke="#74675d" stroke-linecap="round" stroke-linejoin="round" stroke-width="2" width="38" x="235.0" y="201" /><path d="M 197.5 126 Q 254 56 310.5 126 Q 274 107 254 108 Q 234 107 197.5 126 Z" fill="#2d231f" stroke="#2f2925" stroke-linecap="round" stroke-linejoin="round" stroke-width="3" /><polygon fill="#a76443" points="201.5,114 209.5,180 254,218.0 298.5,180 306.5,114" stroke="#2f2925" stroke-linecap="round" stroke-linejoin="round" stroke-width="3" /><ellipse cx="197.5" cy="150" fill="#a76443" rx="10" ry="15" stroke="#74675d" stroke-linecap="round" stroke-linejoin="round" stroke-width="2" /><ellipse cx="310.5" cy="150" fill="#a76443" rx="10" ry="15" stroke="#74675d" stroke-linecap="round" stroke-linejoin="round" stroke-width="2" /><ellipse cx="225" cy="154" fill="#fbf8ef" rx="14" ry="6" stroke="#2f2925" stroke-linecap="round" stroke-linejoin="round" stroke-width="2.2" /><circle cx="223" cy="155" fill="#22262a" r="4.8" stroke="#2f2925" stroke-width="1.2" /><line stroke="#2f2925" stroke-linecap="round" stroke-width="3" x1="207" x2="243" y1="137" y2="137" /><ellipse cx="283" cy="154" fill="#fbf8ef" rx="14" ry="6" stroke="#2f2925" stroke-linecap="round" stroke-linejoin="round" stroke-width="2.2" /><circle cx="285" cy="155" fill="#22262a" r="4.8" stroke="#2f2925" stroke-width="1.2" /><line stroke="#2f2925" stroke-linecap="round" stroke-width="3" x1="265" x2="301" y1="137" y2="137" /><path d="M 256 166 L 249 180 L 260 181" fill="none" stroke="#7b3817" stroke-linecap="round" stroke-linejoin="round" stroke-width="2" /><path d="M 239 202 Q 254 207 269 202" fill="none" stroke="#713d38" stroke-linecap="round" stroke-linejoin="round" stroke-width="2.6" /></svg>