<?xml version="1.0" encoding="utf-8" ?>
<svg baseProfile="full" height="682" version="1.1" viewBox="0 0 512 682" width="512" xmlns="http://www.w3.org/2000/svg" xmlns:ev="http://www.w3.org/2001/xml-events" xmlns:xlink="http://www.w3.org/1999/xlink"><defs /><rect fill="#875033" height="48" rx="12" stroke="#6f6258" stroke-linecap="round" stroke-linejoin="round" stroke-width="2" width="40" x="237" y="203" /><ellipse cx="257" cy="144.5" fill="#8f583b" rx="55.5" ry="64.5" stroke="#2f2925" stroke-linecap="round" stroke-linejoin="round" stroke-width="3" /><ellipse cx="197.5" cy="150" fill="#8f583b" rx="12" ry="16" stroke="#6f6258" stroke-linecap="round" stroke-linejoin="round" stroke-width="2" /><ellipse cx="316.5" cy="150" fill="#8f583b" rx="12" ry="16" stroke="#6f6258" stroke-linecap="round" stroke-linejoin="round" stroke-width="2" /><ellipse cx="257" cy="92" fill="#5f3d2d" rx="75.5" ry="48" stroke="#2f2925" stroke-linecap="round" stroke-linejoin="round" stroke-width="3" /><path d="M 211 114 Q 187 172 209 218" fill="none" stroke="#5f3d2d" stroke-linecap="round" stroke-width="18" /><path d="M 303 114 Q 327 172 305 218" fill="none" stroke="#5f3d2d" stroke-linecap="round" stroke-width="18" /><path d="M 207.5 92 L 224.5 92 L 212.5 146 Z" fill="#5f3d2d" stroke="#432111" stroke-linecap="round" stroke-linejoin="round" stroke-width="1.5" /><path d="M 224.1 92 L 241.1 92 L 236.1 147 Z" fill="#5f3d2d" stroke="#432111" stroke-linecap="round" stroke-linejoin="round" stroke-width="1.5" /><path d="M 240.7 92 L 257.7 92 L 240.7 156 Z" fill="#5f3d2d" stroke="#432111" stroke-linecap="round" stroke-linejoin="round" stroke-width="1.5" /><path d="M 257.3 92 L 274.3 92 L 278.3 152 Z" fill="#5f3d2d" stroke="#432111" stroke-linecap="round" stroke-linejoin="round" stroke-width="1.5" /><path d="M 273.9 92 L 290.9 92 L 293.9 156 Z" fill="#5f3d2d" stroke="#432111" stroke-linecap="round" stroke-linejoin="round" stroke-width="1.5" /><path d="M 290.5 92 L 307.5 92 L 282.5 144 Z" fill="#5f3d2d" stroke="#432111" stroke-linecap="round" stroke-linejoin="round" stroke-width="1.5" /><ellipse cx="229" cy="156" fill="#faf7ef" rx="17" ry="10" stroke="#2f2925" stroke-linecap="round" stroke-linejoin="round" stroke-width="2" /><circle cx="227" cy="157" fill="#6b4632" r="5" stroke="#2f2925" stroke-width="1.2" /><path d="M 247 142 Q 229 135 210 142" fill="none" stroke="#2f2925" stroke-linecap="round" stroke-width="3" /><ellipse cx="285" cy="156" fill="#faf7ef" rx="17" ry="10" stroke="#2f2925" stroke-linecap="round" stroke-linejoin="round" stroke-width="2" /><circle cx="287" cy="157" fill="#6b4632" r="5" stroke="#2f2925" stroke-width="1.2" /><path d="M 267 142 Q 285 135 304 142" fill="none" stroke="#2f2925" stroke-linecap="round" stroke-width="3" /><path d="M 257 168 L 253 187 L 261 187" fill="none" stroke="#652e11" stroke-linejoin="round" stroke-width="2" /><path d="M 239 202 Q 257 212 277 202" fill="none" stroke="#7a423c" stroke-linecap="round" stroke-width="2.4" /></svg>