<?xml version="1.0" encoding="utf-8" ?>
<svg baseProfile="full" height="682" version="1.1" viewBox="0 0 512 682" width="512" xmlns="http://www.w3.org/2000/svg" xmlns:ev="http://www.w3.org/2001/xml-events" xmlns:xlink="http://www.w3.org/1999/xlink"><defs /><rect fill="#ae653d" height="48" rx="12" stroke="#6f6258" stroke-linecap="round" stroke-linejoin="round" stroke-width="2" width="40" x="239" y="200" /><ellipse cx="259" cy="143.0" fill="#b66d45" rx="51.0" ry="63.0" stroke="#2f2925" stroke-linecap="round" stroke-linejoin="round" stroke-width="3" /><ellipse cx="204.0" cy="150" fill="#b66d45" rx="12" ry="16" stroke="#6f6258" stroke-linecap="round" stroke-linejoin="round" stroke-width="2" /><ellipse cx="314.0" cy="150" fill="#b66d45" rx="12" ry="16" stroke="#6f6258" stroke-linecap="round" stroke-linejoin="round" stroke-width="2" /><ellipse cx="201" cy="107.0" fill="#d89447" rx="24" ry="22" stroke="#2f2925" stroke-linecap="round" stroke-linejoin="round" stroke-width="2" /><ellipse cx="217" cy="101.0" fill="#d89447" rx="24" ry="22" stroke="#2f2925" stroke-linecap="round" stroke-linejoin="round" stroke-width="2" /><ellipse cx="233" cy="95.0" fill="#d89447" rx="24" ry="22" stroke="#2f2925" stroke-linecap="round" stroke-linejoin="round" stroke-width="2" /><ellipse cx="249" cy="89.0" fill="#d89447" rx="24" ry="22" stroke="#2f2925" stroke-linecap="round" stroke-linejoin="round" stroke-width="2" /><ellipse cx="265" cy="89.0" fill="#d89447" rx="24" ry="22" stroke="#2f2925" stroke-linecap="round" stroke-linejoin="round" stroke-width="2" /><ellipse cx="281" cy="95.0" fill="#d89447" rx="24" ry="22" stroke="#2f2925" stroke-linecap="round" stroke-linejoin="round" stroke-width="2" /><ellipse cx="297" cy="101.0" fill="#d89447" rx="24" ry="22" stroke="#2f2925" stroke-linecap="round" stroke-linejoin="round" stroke-width="2" /><ellipse cx="313" cy="107.0" fill="#d89447" rx="24" ry="22" stroke="#2f2925" stroke-linecap="round" stroke-linejoin="round" stroke-width="2" /><path d="M 214.0 92 L 231.0 92 L 236.0 156 Z" fill="#d89447" stroke="#bc782b" stroke-linecap="round" stroke-linejoin="round" stroke-width="1.5" /><path d="M 226.33333333333334 92 L 243.33333333333334 92 L 244.33333333333334 152 Z" fill="#d89447" stroke="#bc782b" stroke-linecap="round" stroke-linejoin="round" stroke-width="1.5" /><path d="M 238.66666666666666 92 L 255.66666666666666 92 L 252.66666666666666 152 Z" fill="#d89447" stroke="#bc782b" stroke-linecap="round" stroke-linejoin="round" stroke-width="1.5" /><path d="M 251.0 92 L 268.0 92 L 251.0 145 Z" fill="#d89447" stroke="#bc782b" stroke-linecap="round" stroke-linejoin="round" stroke-width="1.5" /><path d="M 263.3333333333333 92 L 280.3333333333333 92 L 271.3333333333333 156 Z" fill="#d89447" stroke="#bc782b" stroke-linecap="round" stroke-linejoin="round" stroke-width="1.5" /><path d="M 275.6666666666667 92 L 292.6666666666667 92 L 276.6666666666667 146 Z" fill="#d89447" stroke="#bc782b" stroke-linecap="round" stroke-linejoin="round" stroke-width="1.5" /><path d="M 288.0 92 L 305.0 92 L 293.0 149 Z" fill="#d89447" stroke="#bc782b" stroke-linecap="round" stroke-linejoin="round" stroke-width="1.5" /><ellipse cx="231" cy="156" fill="#faf7ef" rx="17" ry="10" stroke="#2f2925" stroke-linecap="round" stroke-linejoin="round" stroke-width="2" /><circle cx="229" cy="157" fill="#3f5f7b" r="5" stroke="#2f2925" stroke-width="1.2" /><path d="M 249 142 Q 231 135 212 142" fill="none" stroke="#2f2925" stroke-linecap="round" stroke-width="3" /><ellipse cx="287" cy="156" fill="#faf7ef" rx="17" ry="10" stroke="#2f2925" stroke-linecap="round" stroke-linejoin="round" stroke-width="2" /><circle cx="289" cy="157" fill="#3f5f7b" r="5" stroke="#2f2925" stroke-width="1.2" /><path d="M 269 142 Q 287 135 306 142" fill="none" stroke="#2f2925" stroke-linecap="round" stroke-width="3" /><path d="M 259 168 L 255 187 L 263 187" fill="none" stroke="#8c431b" stroke-linejoin="round" stroke-width="2" /><path d="M 241 202 Q 259 212 279 202" fill="none" stroke="#7a423c" stroke-linecap="round" stroke-width="2.4" /></svg>