<?xml version="1.0" encoding="utf-8" ?>
<svg baseProfile="full" height="682" version="1.1" viewBox="0 0 512 682" width="512" xmlns="http://www.w3.org/2000/svg" xmlns:ev="http://www.w3.org/2001/xml-events" xmlns:xlink="http://www.w3.org/1999/xlink"><defs /><rect fill="#df9e67" height="58" rx="12" stroke="#74675d" stroke-linecap="round" stroke-linejoin="round" stroke-width="2" width="38" x="235.0" y="191" /><ellipse cx="254" cy="86" fill="#1f343a" rx="77.0" ry="50" stroke="#2f2925" stroke-linecap="round" stroke-linejoin="round" stroke-width="3" /><path d="M 206 103 C 174 156, 180 218, 208 246" fill="none" stroke="#1f343a" stroke-linecap="round" stroke-width="20" /><path d="M 302 103 C 334 156, 328 218, 300 246" fill="none" stroke="#1f343a" stroke-linecap="round" stroke-width="20" /><ellipse cx="254" cy="147.0" fill="#e7a66f" rx="57.0" ry="63.0" stroke="#2f2925" stroke-linecap="round" stroke-linejoin="round" stroke-width="3" /><ellipse cx="193.0" cy="146" fill="#e7a66f" rx="10" ry="15" stroke="#74675d" stroke-linecap="round" stroke-linejoin="round" stroke-width="2" /><ellipse cx="315.0" cy="146" fill="#e7a66f" rx="10" ry="15" stroke="#74675d" stroke-linecap="round" stroke-linejoin="round" stroke-width="2" /><path d="M 209 150 Q 225 154 241 150" fill="none" stroke="#2f2925" stroke-linecap="round" stroke-linejoin="round" stroke-width="2.4" /><line stroke="#2f2925" stroke-linecap="round" stroke-width="3.5" x1="243" x2="207" y1="131" y2="137" /><path d="M 267 150 Q 283 154 299 150" fill="none" stroke="#2f2925" stroke-linecap="round" stroke-linejoin="round" stroke-width="2.4" /><line stroke="#2f2925" stroke-linecap="round" stroke-width="3.5" x1="265" x2="301" y1="131" y2="137" /><path d="M 256 162 L 249 176 L 260 177" fill="none" stroke="#bb7a43" stroke-linecap="round" stroke-linejoin="round" stroke-width="2" /><line stroke="#713d38" stroke-linecap="round" stroke-width="2" x1="239" x2="269" y1="193" y2="193" /></svg>