<?xml version="1.0" encoding="utf-8" ?>
<svg baseProfile="full" height="682" version="1.1" viewBox="0 0 512 682" width="512" xmlns="http://www.w3.org/2000/svg" xmlns:ev="http://www.w3.org/2001/xml-events" xmlns:xlink="http://www.w3.org/1999/xlink"><defs /><rect fill="#df9e67" height="58" rx="12" stroke="#74675d" stroke-linecap="round" stroke-linejoin="round" stroke-width="2" width="38" x="235.0" y="195" /><path d="M 185.5 113 L 212 70 L 236 85 L 252 45 L 271 87 L 299 71 L 323.5 115 Q 254 97 185.5 113 Z" fill="#15191d" stroke="#2f2925" stroke-linecap="round" stroke-linejoin="round" stroke-width="3" /><rect fill="#e7a66f" height="125" rx="18" stroke="#2f2925" stroke-linecap="round" stroke-linejoin="round" stroke-width="3" width="109" x="199.5" y="93" /><ellipse cx="195.5" cy="151" fill="#e7a66f" rx="10" ry="15" stroke="#74675d" stroke-linecap="round" stroke-linejoin="round" stroke-width="2" /><ellipse cx="312.5" cy="151" fill="#e7a66f" rx="10" ry="15" stroke="#74675d" stroke-linecap="round" stroke-linejoin="round" stroke-width="2" /><ellipse cx="225" cy="155" fill="#fbf8ef" rx="15" ry="7" stroke="#2f2925" stroke-linecap="round" stroke-linejoin="round" stroke-width="2.2" /><circle cx="223" cy="156" fill="#8a5d2a" r="4.8" stroke="#2f2925" stroke-width="1.2" /><line stroke="#2f2925" stroke-linecap="round" stroke-width="6" x1="245" x2="206" y1="133" y2="140" /><ellipse cx="283" cy="155" fill="#fbf8ef" rx="15" ry="7" stroke="#2f2925" stroke-linecap="round" stroke-linejoin="round" stroke-width="2.2" /><circle cx="285" cy="156" fill="#8a5d2a" r="4.8" stroke="#2f2925" stroke-width="1.2" /><line stroke="#2f2925" stroke-linecap="round" stroke-width="6" x1="263" x2="302" y1="133" y2="140" /><path d="M 256 167 L 249 181 L 260 182" fill="none" stroke="#bb7a43" stroke-linecap="round" stroke-linejoin="round" stroke-width="2" /><line stroke="#713d38" stroke-linecap="round" stroke-width="3" x1="236" x2="271" y1="196" y2="195" /><circle cx="230" cy="126" fill="#b95a58" opacity="0.82" r="3.2" /><circle cx="245" cy="120" fill="#b95a58" opacity="0.82" r="2.7" /><circle cx="265" cy="124" fill="#b95a58" opacity="0.82" r="3.4" /><circle cx="281" cy="131" fill="#b95a58" opacity="0.82" r="2.5" /><circle cx="187.5" cy="183" fill="#c99a42" r="5" stroke="#2f2925" stroke-width="1.5" /><circle cx="320.5" cy="183" fill="#c99a42" r="5" stroke="#2f2925" stroke-width="1.5" /><rect fill="none" height="22" rx="10" stroke="#2f2925" stroke-width="3" width="90" x="209" y="145" /><line stroke="#2f2925" stroke-linecap="round" stroke-width="2" x1="246" x2="262" y1="156" y2="156" /></svg>