<?xml version="1.0" encoding="utf-8" ?>
<svg baseProfile="full" height="682" version="1.1" viewBox="0 0 512 682" width="512" xmlns="http://www.w3.org/2000/svg" xmlns:ev="http://www.w3.org/2001/xml-events" xmlns:xlink="http://www.w3.org/1999/xlink"><defs /><rect fill="#eed7bc" height="58" rx="12" stroke="#74675d" stroke-linecap="round" stroke-linejoin="round" stroke-width="2" width="38" x="239.0" y="203" /><ellipse cx="196" cy="95" fill="#e0d7c6" rx="21" ry="20" stroke="#2f2925" stroke-linecap="round" stroke-linejoin="round" stroke-width="2" /><ellipse cx="208" cy="91" fill="#e0d7c6" rx="21" ry="20" stroke="#2f2925" stroke-linecap="round" stroke-linejoin="round" stroke-width="2" /><ellipse cx="220" cy="87" fill="#e0d7c6" rx="21" ry="20" stroke="#2f2925" stroke-linecap="round" stroke-linejoin="round" stroke-width="2" /><ellipse cx="232" cy="83" fill="#e0d7c6" rx="21" ry="20" stroke="#2f2925" stroke-linecap="round" stroke-linejoin="round" stroke-width="2" /><ellipse cx="244" cy="79" fill="#e0d7c6" rx="21" ry="20" stroke="#2f2925" stroke-linecap="round" stroke-linejoin="round" stroke-width="2" /><ellipse cx="256" cy="75" fill="#e0d7c6" rx="21" ry="20" stroke="#2f2925" stroke-linecap="round" stroke-linejoin="round" stroke-width="2" /><ellipse cx="268" cy="79" fill="#e0d7c6" rx="21" ry="20" stroke="#2f2925" stroke-linecap="round" stroke-linejoin="round" stroke-width="2" /><ellipse cx="280" cy="83" fill="#e0d7c6" rx="21" ry="20" stroke="#2f2925" stroke-linecap="round" stroke-linejoin="round" stroke-width="2" /><ellipse cx="292" cy="87" fill="#e0d7c6" rx="21" ry="20" stroke="#2f2925" stroke-linecap="round" stroke-linejoin="round" stroke-width="2" /><ellipse cx="304" cy="91" fill="#e0d7c6" rx="21" ry="20" stroke="#2f2925" stroke-linecap="round" stroke-linejoin="round" stroke-width="2" /><ellipse cx="316" cy="95" fill="#e0d7c6" rx="21" ry="20" stroke="#2f2925" stroke-linecap="round" stroke-linejoin="round" stroke-width="2" /><circle cx="197.0" cy="116" fill="#e0d7c6" r="15" stroke="#2f2925" stroke-linecap="round" stroke-linejoin="round" stroke-width="2" /><circle cx="193.0" cy="139" fill="#e0d7c6" r="15" stroke="#2f2925" stroke-linecap="round" stroke-linejoin="round" stroke-width="2" /><circle cx="189.0" cy="162" fill="#e0d7c6" r="15" stroke="#2f2925" stroke-linecap="round" stroke-linejoin="round" stroke-width="2" /><circle cx="185.0" cy="185" fill="#e0d7c6" r="15" stroke="#2f2925" stroke-linecap="round" stroke-linejoin="round" stroke-width="2" /><circle cx="319.0" cy="116" fill="#e0d7c6" r="15" stroke="#2f2925" stroke-linecap="round" stroke-linejoin="round" stroke-width="2" /><circle cx="323.0" cy="139" fill="#e0d7c6" r="15" stroke="#2f2925" stroke-linecap="round" stroke-linejoin="round" stroke-width="2" /><circle cx="327.0" cy="162" fill="#e0d7c6" r="15" stroke="#2f2925" stroke-linecap="round" stroke-linejoin="round" stroke-width="2" /><circle cx="331.0" cy="185" fill="#e0d7c6" r="15" stroke="#2f2925" stroke-linecap="round" stroke-linejoin="round" stroke-width="2" /><polygon fill="#f6dfc4" points="205.0,110 213.0,182 258,220.0 303.0,182 311.0,110" stroke="#2f2925" stroke-linecap="round" stroke-linejoin="round" stroke-width="3" /><ellipse cx="201.0" cy="146" fill="#f6dfc4" rx="10" ry="15" stroke="#74675d" stroke-linecap="round" stroke-linejoin="round" stroke-width="2" /><ellipse cx="315.0" cy="146" fill="#f6dfc4" rx="10" ry="15" stroke="#74675d" stroke-linecap="round" stroke-linejoin="round" stroke-width="2" /><ellipse cx="229" cy="150" fill="#fbf8ef" rx="16" ry="9" stroke="#2f2925" stroke-linecap="round" stroke-linejoin="round" stroke-width="2.2" /><circle cx="227" cy="151" fill="#57406d" r="4.8" stroke="#2f2925" stroke-width="1.2" /><path d="M 247 132 Q 229 122 211 132" fill="none" stroke="#2f2925" stroke-linecap="round" stroke-linejoin="round" stroke-width="3" /><ellipse cx="287" cy="150" fill="#fbf8ef" rx="16" ry="9" stroke="#2f2925" stroke-linecap="round" stroke-linejoin="round" stroke-width="2.2" /><circle cx="289" cy="151" fill="#57406d" r="4.8" stroke="#2f2925" stroke-width="1.2" /><path d="M 269 132 Q 287 122 305 132" fill="none" stroke="#2f2925" stroke-linecap="round" stroke-linejoin="round" stroke-width="3" /><path d="M 260 162 L 253 176 L 264 177" fill="none" stroke="#cab398" stroke-linecap="round" stroke-linejoin="round" stroke-width="2" /><path d="M 236 201 Q 258 222 281 201" fill="none" stroke="#8a443d" stroke-linecap="round" stroke-linejoin="round" stroke-width="3" /><circle cx="193.0" cy="178" fill="#c99a42" r="5" stroke="#2f2925" stroke-width="1.5" /><circle cx="323.0" cy="178" fill="#c99a42" r="5" stroke="#2f2925" stroke-width="1.5" /></svg>