<?xml version="1.0" encoding="utf-8" ?>
<svg baseProfile="full" height="682" version="1.1" viewBox="0 0 512 682" width="512" xmlns="http://www.w3.org/2000/svg" xmlns:ev="http://www.w3.org/2001/xml-events" xmlns:xlink="http://www.w3.org/1999/xlink"><defs /><rect fill="#e8b789" height="58" rx="12" stroke="#74675d" stroke-linecap="round" stroke-linejoin="round" stroke-width="2" width="38" x="235.0" y="215" /><ellipse cx="254" cy="90" fill="#5a3828" rx="63.0" ry="47" stroke="#2f2925" stroke-linecap="round" stroke-linejoin="round" stroke-width="3" /><path d="M 259 54 Q 252 95 210 136" fill="none" stroke="#361404" stroke-linecap="round" stroke-linejoin="round" stroke-width="3" /><ellipse cx="254" cy="160.5" fill="#f0bf91" rx="47.0" ry="73.5" stroke="#2f2925" stroke-linecap="round" stroke-linejoin="round" stroke-width="3" /><ellipse cx="203.0" cy="149" fill="#f0bf91" rx="10" ry="15" stroke="#74675d" stroke-linecap="round" stroke-linejoin="round" stroke-width="2" /><ellipse cx="305.0" cy="149" fill="#f0bf91" rx="10" ry="15" stroke="#74675d" stroke-linecap="round" stroke-linejoin="round" stroke-width="2" /><ellipse cx="225" cy="153" fill="#fbf8ef" rx="15" ry="7" stroke="#2f2925" stroke-linecap="round" stroke-linejoin="round" stroke-width="2.2" /><circle cx="223" cy="154" fill="#22262a" r="4.8" stroke="#2f2925" stroke-width="1.2" /><line stroke="#2f2925" stroke-linecap="round" stroke-width="2" x1="243" x2="208" y1="135" y2="133" /><ellipse cx="283" cy="153" fill="#fbf8ef" rx="15" ry="7" stroke="#2f2925" stroke-linecap="round" stroke-linejoin="round" stroke-width="2.2" /><circle cx="285" cy="154" fill="#22262a" r="4.8" stroke="#2f2925" stroke-width="1.2" /><line stroke="#2f2925" stroke-linecap="round" stroke-width="2" x1="265" x2="300" y1="135" y2="133" /><path d="M 256 165 L 249 184 L 260 185" fill="none" stroke="#c49365" stroke-linecap="round" stroke-linejoin="round" stroke-width="2" /><line stroke="#713d38" stroke-linecap="round" stroke-width="3" x1="236" x2="271" y1="216" y2="215" /><circle cx="195.0" cy="181" fill="#c99a42" r="5" stroke="#2f2925" stroke-width="1.5" /><circle cx="313.0" cy="181" fill="#c99a42" r="5" stroke="#2f2925" stroke-width="1.5" /></svg>