<?xml version="1.0" encoding="utf-8" ?>
<svg baseProfile="full" height="682" version="1.1" viewBox="0 0 512 682" width="512" xmlns="http://www.w3.org/2000/svg" xmlns:ev="http://www.w3.org/2001/xml-events" xmlns:xlink="http://www.w3.org/1999/xlink"><defs /><rect fill="#e0a26b" height="48" rx="12" stroke="#6f6258" stroke-linecap="round" stroke-linejoin="round" stroke-width="2" width="40" x="236" y="202" /><ellipse cx="256" cy="142.0" fill="#e8aa73" rx="51.5" ry="66.0" stroke="#2f2925" stroke-linecap="round" stroke-linejoin="round" stroke-width="3" /><ellipse cx="200.5" cy="146" fill="#e8aa73" rx="12" ry="16" stroke="#6f6258" stroke-linecap="round" stroke-linejoin="round" stroke-width="2" /><ellipse cx="311.5" cy="146" fill="#e8aa73" rx="12" ry="16" stroke="#6f6258" stroke-linecap="round" stroke-linejoin="round" stroke-width="2" /><path d="M 188.5 104 Q 256 46 323.5 104 L 317.5 154 Q 256 126 194.5 154 Z" fill="#d89447" stroke="#2f2925" stroke-linecap="round" stroke-linejoin="round" stroke-width="3" /><path d="M 210.5 88 L 227.5 88 L 210.5 155 Z" fill="#d89447" stroke="#bc782b" stroke-linecap="round" stroke-linejoin="round" stroke-width="1.5" /><path d="M 223.0 88 L 240.0 88 L 227.0 146 Z" fill="#d89447" stroke="#bc782b" stroke-linecap="round" stroke-linejoin="round" stroke-width="1.5" /><path d="M 235.5 88 L 252.5 88 L 246.5 138 Z" fill="#d89447" stroke="#bc782b" stroke-linecap="round" stroke-linejoin="round" stroke-width="1.5" /><path d="M 248.0 88 L 265.0 88 L 240.0 152 Z" fill="#d89447" stroke="#bc782b" stroke-linecap="round" stroke-linejoin="round" stroke-width="1.5" /><path d="M 260.5 88 L 277.5 88 L 275.5 149 Z" fill="#d89447" stroke="#bc782b" stroke-linecap="round" stroke-linejoin="round" stroke-width="1.5" /><path d="M 273.0 88 L 290.0 88 L 277.0 146 Z" fill="#d89447" stroke="#bc782b" stroke-linecap="round" stroke-linejoin="round" stroke-width="1.5" /><path d="M 285.5 88 L 302.5 88 L 279.5 139 Z" fill="#d89447" stroke="#bc782b" stroke-linecap="round" stroke-linejoin="round" stroke-width="1.5" /><ellipse cx="228" cy="152" fill="#faf7ef" rx="17" ry="10" stroke="#2f2925" stroke-linecap="round" stroke-linejoin="round" stroke-width="2" /><circle cx="226" cy="153" fill="#56406e" r="5" stroke="#2f2925" stroke-width="1.2" /><path d="M 246 138 Q 228 131 209 138" fill="none" stroke="#2f2925" stroke-linecap="round" stroke-width="3" /><ellipse cx="284" cy="152" fill="#faf7ef" rx="17" ry="10" stroke="#2f2925" stroke-linecap="round" stroke-linejoin="round" stroke-width="2" /><circle cx="286" cy="153" fill="#56406e" r="5" stroke="#2f2925" stroke-width="1.2" /><path d="M 266 138 Q 284 131 303 138" fill="none" stroke="#2f2925" stroke-linecap="round" stroke-width="3" /><path d="M 256 164 L 252 183 L 260 183" fill="none" stroke="#be8049" stroke-linejoin="round" stroke-width="2" /><path d="M 238 198 Q 256 208 276 198" fill="none" stroke="#7a423c" stroke-linecap="round" stroke-width="2.4" /></svg>