<?xml version="1.0" encoding="utf-8" ?>
<svg baseProfile="full" height="682" version="1.1" viewBox="0 0 512 682" width="512" xmlns="http://www.w3.org/2000/svg" xmlns:ev="http://www.w3.org/2001/xml-events" xmlns:xlink="http://www.w3.org/1999/xlink"><defs /><rect fill="#eed7bc" height="58" rx="12" stroke="#74675d" stroke-linecap="round" stroke-linejoin="round" stroke-width="2" width="38" x="239.0" y="202" /><path d="M 193.5 111 L 216 68 L 240 83 L 256 43 L 275 85 L 303 69 L 323.5 113 Q 258 95 193.5 111 Z" fill="#6d2726" stroke="#2f2925" stroke-linecap="round" stroke-linejoin="round" stroke-width="3" /><polygon fill="#f6dfc4" points="207.5,113 215.5,181 258,210.0 300.5,181 308.5,113" stroke="#2f2925" stroke-linecap="round" stroke-linejoin="round" stroke-width="3" /><ellipse cx="203.5" cy="149" fill="#f6dfc4" rx="10" ry="15" stroke="#74675d" stroke-linecap="round" stroke-linejoin="round" stroke-width="2" /><ellipse cx="312.5" cy="149" fill="#f6dfc4" rx="10" ry="15" stroke="#74675d" stroke-linecap="round" stroke-linejoin="round" stroke-width="2" /><ellipse cx="229" cy="153" fill="#fbf8ef" rx="14" ry="8" stroke="#2f2925" stroke-linecap="round" stroke-linejoin="round" stroke-width="2.2" /><circle cx="227" cy="154" fill="#334e67" r="4.8" stroke="#2f2925" stroke-width="1.2" /><line stroke="#2f2925" stroke-linecap="round" stroke-width="2" x1="247" x2="212" y1="135" y2="133" /><ellipse cx="287" cy="153" fill="#fbf8ef" rx="14" ry="8" stroke="#2f2925" stroke-linecap="round" stroke-linejoin="round" stroke-width="2.2" /><circle cx="289" cy="154" fill="#334e67" r="4.8" stroke="#2f2925" stroke-width="1.2" /><line stroke="#2f2925" stroke-linecap="round" stroke-width="2" x1="269" x2="304" y1="135" y2="133" /><path d="M 260 165 L 253 179 L 264 180" fill="none" stroke="#cab398" stroke-linecap="round" stroke-linejoin="round" stroke-width="2" /><path d="M 240 211 Q 258 198 276 211" fill="none" stroke="#713d38" stroke-linecap="round" stroke-linejoin="round" stroke-width="3" /><rect fill="#dfeee9" height="12" rx="4" stroke="#74675d" stroke-width="1.5" width="14" x="221" y="169" /><line stroke="#74675d" stroke-linecap="round" stroke-width="1.4" x1="224" x2="232" y1="175" y2="175" /><line stroke="#74675d" stroke-linecap="round" stroke-width="1.4" x1="228" x2="228" y1="171" y2="179" /><rect fill="#dfeee9" height="12" rx="4" stroke="#74675d" stroke-width="1.5" width="14" x="275" y="159" /><line stroke="#74675d" stroke-linecap="round" stroke-width="1.4" x1="278" x2="286" y1="165" y2="165" /><line stroke="#74675d" stroke-linecap="round" stroke-width="1.4" x1="282" x2="282" y1="161" y2="169" /><circle cx="195.5" cy="181" fill="#c99a42" r="5" stroke="#2f2925" stroke-width="1.5" /><circle cx="320.5" cy="181" fill="#c99a42" r="5" stroke="#2f2925" stroke-width="1.5" /></svg>