<?xml version="1.0" encoding="utf-8" ?>
<svg baseProfile="full" height="682" version="1.1" viewBox="0 0 512 682" width="512" xmlns="http://www.w3.org/2000/svg" xmlns:ev="http://www.w3.org/2001/xml-events" xmlns:xlink="http://www.w3.org/1999/xlink"><defs /><rect fill="#754a32" height="58" rx="12" stroke="#74675d" stroke-linecap="round" stroke-linejoin="round" stroke-width="2" width="38" x="237.0" y="201" /><path d="M 193.5 103 Q 256 38 321.5 103 L 309.5 144 Q 256 108 200.5 144 Z" fill="#1f343a" stroke="#2f2925" stroke-linecap="round" stroke-linejoin="round" stroke-width="3" /><polygon fill="#7d523a" points="208.5,110 216.5,180 256,209.0 295.5,180 303.5,110" stroke="#2f2925" stroke-linecap="round" stroke-linejoin="round" stroke-width="3" /><ellipse cx="204.5" cy="146" fill="#7d523a" rx="10" ry="15" stroke="#74675d" stroke-linecap="round" stroke-linejoin="round" stroke-width="2" /><ellipse cx="307.5" cy="146" fill="#7d523a" rx="10" ry="15" stroke="#74675d" stroke-linecap="round" stroke-linejoin="round" stroke-width="2" /><ellipse cx="227" cy="150" fill="#fbf8ef" rx="15" ry="7" stroke="#2f2925" stroke-linecap="round" stroke-linejoin="round" stroke-width="2.2" /><circle cx="225" cy="151" fill="#334e67" r="4.8" stroke="#2f2925" stroke-width="1.2" /><line stroke="#2f2925" stroke-linecap="round" stroke-width="6" x1="247" x2="208" y1="128" y2="135" /><ellipse cx="285" cy="150" fill="#fbf8ef" rx="15" ry="7" stroke="#2f2925" stroke-linecap="round" stroke-linejoin="round" stroke-width="2.2" /><circle cx="287" cy="151" fill="#334e67" r="4.8" stroke="#2f2925" stroke-width="1.2" /><line stroke="#2f2925" stroke-linecap="round" stroke-width="6" x1="265" x2="304" y1="128" y2="135" /><path d="M 258 162 L 251 176 L 262 177" fill="none" stroke="#51260e" stroke-linecap="round" stroke-linejoin="round" stroke-width="2" /><line stroke="#713d38" stroke-linecap="round" stroke-width="3" x1="238" x2="273" y1="202" y2="201" /><circle cx="196.5" cy="178" fill="#c99a42" r="5" stroke="#2f2925" stroke-width="1.5" /><circle cx="315.5" cy="178" fill="#c99a42" r="5" stroke="#2f2925" stroke-width="1.5" /></svg>