<?xml version="1.0" encoding="utf-8" ?>
<svg baseProfile="full" height="682" version="1.1" viewBox="0 0 512 682" width="512" xmlns="http://www.w3.org/2000/svg" xmlns:ev="http://www.w3.org/2001/xml-events" xmlns:xlink="http://www.w3.org/1999/xlink"><defs /><rect fill="#971b1f" height="24" rx="7" stroke="#2f2925" stroke-linecap="round" stroke-linejoin="round" stroke-width="2" width="150" x="181" y="384" /><polygon fill="#a92d31" points="173.0,392 339.0,392 323.0,474 189.0,474" stroke="#2f2925" stroke-linecap="round" stroke-linejoin="round" stroke-width="3" /><line stroke="#860a0e" stroke-width="2" x1="193" x2="200" y1="398" y2="468" /><line stroke="#860a0e" stroke-width="2" x1="216" x2="223" y1="398" y2="468" /><line stroke="#860a0e" stroke-width="2" x1="239" x2="246" y1="398" y2="468" /><line stroke="#860a0e" stroke-width="2" x1="262" x2="269" y1="398" y2="468" /><line stroke="#860a0e" stroke-width="2" x1="285" x2="292" y1="398" y2="468" /><line stroke="#860a0e" stroke-width="2" x1="308" x2="315" y1="398" y2="468" /><rect fill="#f5d1ac" height="138" rx="13" stroke="#2f2925" stroke-linecap="round" stroke-linejoin="round" stroke-width="2" width="32" x="206" y="470" /><rect fill="#f5d1ac" height="138" rx="13" stroke="#2f2925" stroke-linecap="round" stroke-linejoin="round" stroke-width="2" width="32" x="274" y="470" /><ellipse cx="214" cy="628" fill="#1f2024" rx="35" ry="15" stroke="#2f2925" stroke-linecap="round" stroke-linejoin="round" stroke-width="3" /><line stroke="#faf7ef" stroke-linecap="round" stroke-width="3" x1="188" x2="241" y1="628" y2="628" /><ellipse cx="298" cy="628" fill="#1f2024" rx="35" ry="15" stroke="#2f2925" stroke-linecap="round" stroke-linejoin="round" stroke-width="3" /><line stroke="#faf7ef" stroke-linecap="round" stroke-width="3" x1="272" x2="325" y1="628" y2="628" /></svg>