<?xml version="1.0" encoding="utf-8" ?>
<svg baseProfile="full" height="682" version="1.1" viewBox="0 0 512 682" width="512" xmlns="http://www.w3.org/2000/svg" xmlns:ev="http://www.w3.org/2001/xml-events" xmlns:xlink="http://www.w3.org/1999/xlink"><defs /><rect fill="#1f4d60" height="24" rx="7" stroke="#2f2925" stroke-linecap="round" stroke-linejoin="round" stroke-width="2" width="126" x="193.0" y="398" /><polygon fill="#315f72" points="193.0,408 319.0,408 349.0,496 163.0,496" stroke="#2f2925" stroke-linecap="round" stroke-linejoin="round" stroke-width="3" /><line stroke="#0d3b4e" stroke-linecap="round" stroke-width="2" x1="207" x2="216" y1="416" y2="488" /><line stroke="#0d3b4e" stroke-linecap="round" stroke-width="2" x1="231" x2="240" y1="416" y2="488" /><line stroke="#0d3b4e" stroke-linecap="round" stroke-width="2" x1="255" x2="264" y1="416" y2="488" /><line stroke="#0d3b4e" stroke-linecap="round" stroke-width="2" x1="279" x2="288" y1="416" y2="488" /><line stroke="#0d3b4e" stroke-linecap="round" stroke-width="2" x1="303" x2="312" y1="416" y2="488" /><rect fill="#f6dfc4" height="106" rx="12" stroke="#2f2925" stroke-linecap="round" stroke-linejoin="round" stroke-width="2" width="25.740000000000002" x="209.0" y="492" /><rect fill="#f6dfc4" height="106" rx="12" stroke="#2f2925" stroke-linecap="round" stroke-linejoin="round" stroke-width="2" width="25.740000000000002" x="277.0" y="492" /><ellipse cx="216.5" cy="608" fill="#f7f0df" rx="38" ry="15" stroke="#2f2925" stroke-linecap="round" stroke-linejoin="round" stroke-width="3" /><line stroke="#fbf8ef" stroke-linecap="round" stroke-width="3" x1="186.5" x2="246.5" y1="608" y2="608" /><ellipse cx="295.5" cy="608" fill="#f7f0df" rx="38" ry="15" stroke="#2f2925" stroke-linecap="round" stroke-linejoin="round" stroke-width="3" /><line stroke="#fbf8ef" stroke-linecap="round" stroke-width="3" x1="265.5" x2="325.5" y1="608" y2="608" /></svg>