<?xml version="1.0" encoding="utf-8" ?>
<svg baseProfile="full" height="682" version="1.1" viewBox="0 0 512 682" width="512" xmlns="http://www.w3.org/2000/svg" xmlns:ev="http://www.w3.org/2001/xml-events" xmlns:xlink="http://www.w3.org/1999/xlink"><defs /><rect fill="#dccaa8" height="24" rx="7" stroke="#2f2925" stroke-linecap="round" stroke-linejoin="round" stroke-width="2" width="150" x="181" y="384" /><polygon fill="#eedcba" points="181.0,392 331.0,392 315.0,492 197.0,492" stroke="#2f2925" stroke-linecap="round" stroke-linejoin="round" stroke-width="3" /><line stroke="#cbb997" stroke-width="2" x1="201" x2="208" y1="398" y2="486" /><line stroke="#cbb997" stroke-width="2" x1="224" x2="231" y1="398" y2="486" /><line stroke="#cbb997" stroke-width="2" x1="247" x2="254" y1="398" y2="486" /><line stroke="#cbb997" stroke-width="2" x1="270" x2="277" y1="398" y2="486" /><line stroke="#cbb997" stroke-width="2" x1="293" x2="300" y1="398" y2="486" /><line stroke="#cbb997" stroke-width="2" x1="316" x2="323" y1="398" y2="486" /><rect fill="#d9915d" height="120" rx="13" stroke="#2f2925" stroke-linecap="round" stroke-linejoin="round" stroke-width="2" width="32" x="206" y="488" /><rect fill="#d9915d" height="120" rx="13" stroke="#2f2925" stroke-linecap="round" stroke-linejoin="round" stroke-width="2" width="32" x="274" y="488" /><ellipse cx="214" cy="628" fill="#5d402f" rx="35" ry="15" stroke="#2f2925" stroke-linecap="round" stroke-linejoin="round" stroke-width="3" /><line stroke="#faf7ef" stroke-linecap="round" stroke-width="3" x1="188" x2="241" y1="628" y2="628" /><ellipse cx="298" cy="628" fill="#5d402f" rx="35" ry="15" stroke="#2f2925" stroke-linecap="round" stroke-linejoin="round" stroke-width="3" /><line stroke="#faf7ef" stroke-linecap="round" stroke-width="3" x1="272" x2="325" y1="628" y2="628" /></svg>