<?xml version="1.0" encoding="utf-8" ?>
<svg baseProfile="full" height="682" version="1.1" viewBox="0 0 512 682" width="512" xmlns="http://www.w3.org/2000/svg" xmlns:ev="http://www.w3.org/2001/xml-events" xmlns:xlink="http://www.w3.org/1999/xlink"><defs /><rect fill="#796844" height="24" rx="7" stroke="#2f2925" stroke-linecap="round" stroke-linejoin="round" stroke-width="2" width="150" x="181.0" y="386" /><polygon fill="#8b7a56" points="185.5,396 251.5,396 244.5,611 192.5,611" stroke="#2f2925" stroke-linecap="round" stroke-linejoin="round" stroke-width="3" /><line stroke="#655430" stroke-linecap="round" stroke-width="2" x1="211.5" x2="206.5" y1="422" y2="596" /><rect fill="#93825e" height="34" rx="4" stroke="#2f2925" stroke-width="2" width="26" x="213.5" y="491" /><polygon fill="#8b7a56" points="260.5,396 326.5,396 319.5,611 267.5,611" stroke="#2f2925" stroke-linecap="round" stroke-linejoin="round" stroke-width="3" /><line stroke="#655430" stroke-linecap="round" stroke-width="2" x1="300.5" x2="305.5" y1="422" y2="596" /><rect fill="#93825e" height="34" rx="4" stroke="#2f2925" stroke-width="2" width="26" x="272.5" y="491" /><line stroke="#54431f" stroke-linecap="round" stroke-width="3" x1="256" x2="256" y1="404" y2="598" /><ellipse cx="210.5" cy="624" fill="#2f332e" rx="44" ry="15" stroke="#2f2925" stroke-linecap="round" stroke-linejoin="round" stroke-width="3" /><line stroke="#fbf8ef" stroke-linecap="round" stroke-width="3" x1="174.5" x2="246.5" y1="624" y2="624" /><ellipse cx="301.5" cy="624" fill="#2f332e" rx="44" ry="15" stroke="#2f2925" stroke-linecap="round" stroke-linejoin="round" stroke-width="3" /><line stroke="#fbf8ef" stroke-linecap="round" stroke-width="3" x1="265.5" x2="337.5" y1="624" y2="624" /></svg>