<?xml version="1.0" encoding="utf-8" ?>
<svg baseProfile="full" height="682" version="1.1" viewBox="0 0 512 682" width="512" xmlns="http://www.w3.org/2000/svg" xmlns:ev="http://www.w3.org/2001/xml-events" xmlns:xlink="http://www.w3.org/1999/xlink"><defs /><rect fill="#ad252e" height="24" rx="7" stroke="#2f2925" stroke-linecap="round" stroke-linejoin="round" stroke-width="2" width="126" x="193.0" y="386" /><polygon fill="#bf3740" points="193.0,396 319.0,396 349.0,484 163.0,484" stroke="#2f2925" stroke-linecap="round" stroke-linejoin="round" stroke-width="3" /><line stroke="#9b131c" stroke-linecap="round" stroke-width="2" x1="207" x2="216" y1="404" y2="476" /><line stroke="#9b131c" stroke-linecap="round" stroke-width="2" x1="231" x2="240" y1="404" y2="476" /><line stroke="#9b131c" stroke-linecap="round" stroke-width="2" x1="255" x2="264" y1="404" y2="476" /><line stroke="#9b131c" stroke-linecap="round" stroke-width="2" x1="279" x2="288" y1="404" y2="476" /><line stroke="#9b131c" stroke-linecap="round" stroke-width="2" x1="303" x2="312" y1="404" y2="476" /><rect fill="#f6dfc4" height="134" rx="12" stroke="#2f2925" stroke-linecap="round" stroke-linejoin="round" stroke-width="2" width="25.740000000000002" x="209.0" y="480" /><rect fill="#f6dfc4" height="134" rx="12" stroke="#2f2925" stroke-linecap="round" stroke-linejoin="round" stroke-width="2" width="25.740000000000002" x="277.0" y="480" /><ellipse cx="216.5" cy="624" fill="#222329" rx="38" ry="15" stroke="#2f2925" stroke-linecap="round" stroke-linejoin="round" stroke-width="3" /><line stroke="#fbf8ef" stroke-linecap="round" stroke-width="3" x1="186.5" x2="246.5" y1="624" y2="624" /><ellipse cx="295.5" cy="624" fill="#222329" rx="38" ry="15" stroke="#2f2925" stroke-linecap="round" stroke-linejoin="round" stroke-width="3" /><line stroke="#fbf8ef" stroke-linecap="round" stroke-width="3" x1="265.5" x2="325.5" y1="624" y2="624" /></svg>