<?xml version="1.0" encoding="utf-8" ?>
<svg baseProfile="full" height="682" version="1.1" viewBox="0 0 512 682" width="512" xmlns="http://www.w3.org/2000/svg" xmlns:ev="http://www.w3.org/2001/xml-events" xmlns:xlink="http://www.w3.org/1999/xlink"><defs /><rect fill="#a43427" height="24" rx="7" stroke="#2f2925" stroke-linecap="round" stroke-linejoin="round" stroke-width="2" width="150" x="181.0" y="386" /><polygon fill="#b64639" points="181.0,396 331.0,396 361.0,484 151.0,484" stroke="#2f2925" stroke-linecap="round" stroke-linejoin="round" stroke-width="3" /><line stroke="#922215" stroke-linecap="round" stroke-width="2" x1="195" x2="204" y1="404" y2="476" /><line stroke="#922215" stroke-linecap="round" stroke-width="2" x1="219" x2="228" y1="404" y2="476" /><line stroke="#922215" stroke-linecap="round" stroke-width="2" x1="243" x2="252" y1="404" y2="476" /><line stroke="#922215" stroke-linecap="round" stroke-width="2" x1="267" x2="276" y1="404" y2="476" /><line stroke="#922215" stroke-linecap="round" stroke-width="2" x1="291" x2="300" y1="404" y2="476" /><line stroke="#922215" stroke-linecap="round" stroke-width="2" x1="315" x2="324" y1="404" y2="476" /><rect fill="#f6dfc4" height="134" rx="12" stroke="#2f2925" stroke-linecap="round" stroke-linejoin="round" stroke-width="2" width="31.68" x="206.0" y="480" /><rect fill="#f6dfc4" height="134" rx="12" stroke="#2f2925" stroke-linecap="round" stroke-linejoin="round" stroke-width="2" width="31.68" x="274.0" y="480" /><ellipse cx="210.5" cy="624" fill="#272322" rx="44" ry="15" stroke="#2f2925" stroke-linecap="round" stroke-linejoin="round" stroke-width="3" /><line stroke="#fbf8ef" stroke-linecap="round" stroke-width="3" x1="174.5" x2="246.5" y1="624" y2="624" /><ellipse cx="301.5" cy="624" fill="#272322" rx="44" ry="15" stroke="#2f2925" stroke-linecap="round" stroke-linejoin="round" stroke-width="3" /><line stroke="#fbf8ef" stroke-linecap="round" stroke-width="3" x1="265.5" x2="337.5" y1="624" y2="624" /></svg>